<svg class="main-svg" xmlns="http://www.w3.org/2000/svg" xmlns:xlink="http://www.w3.org/1999/xlink" width="700" height="500" style="" viewBox="0 0 700 500"><rect x="0" y="0" width="700" height="500" style="fill: rgb(255, 255, 255); fill-opacity: 1;"/><defs id="defs-cd88b7"><g class="clips"><clipPath id="clipcd88b7xyplot" class="plotclip"><rect width="540" height="320"/></clipPath><clipPath class="axesclip" id="clipcd88b7x"><rect x="80" y="0" width="540" height="500"/></clipPath><clipPath class="axesclip" id="clipcd88b7y"><rect x="0" y="100" width="700" height="320"/></clipPath><clipPath class="axesclip" id="clipcd88b7xy"><rect x="80" y="100" width="540" height="320"/></clipPath></g><g class="gradients"/><g class="patterns"/></defs><g class="bglayer"><rect class="bg" x="80" y="100" width="540" height="320" style="fill: rgb(229, 236, 246); fill-opacity: 1; stroke-width: 0;"/></g><g class="layer-below"><g class="imagelayer"/><g class="shapelayer"/></g><g class="cartesianlayer"><g class="subplot xy"><g class="layer-subplot"><g class="shapelayer"/><g class="imagelayer"/></g><g class="minor-gridlayer"><g class="x"/><g class="y"/></g><g class="gridlayer"><g class="x"><path class="xgrid crisp" transform="translate(104.08,0)" d="M0,100v320" style="stroke: rgb(255, 255, 255); stroke-opacity: 1; stroke-width: 1px;"/><path class="xgrid crisp" transform="translate(207.26,0)" d="M0,100v320" style="stroke: rgb(255, 255, 255); stroke-opacity: 1; stroke-width: 1px;"/><path class="xgrid crisp" transform="translate(313.89,0)" d="M0,100v320" style="stroke: rgb(255, 255, 255); stroke-opacity: 1; stroke-width: 1px;"/><path class="xgrid crisp" transform="translate(417.07,0)" d="M0,100v320" style="stroke: rgb(255, 255, 255); stroke-opacity: 1; stroke-width: 1px;"/><path class="xgrid crisp" transform="translate(523.69,0)" d="M0,100v320" style="stroke: rgb(255, 255, 255); stroke-opacity: 1; stroke-width: 1px;"/></g><g class="y"><path class="ygrid crisp" transform="translate(0,381.08)" d="M80,0h540" style="stroke: rgb(255, 255, 255); stroke-opacity: 1; stroke-width: 1px;"/><path class="ygrid crisp" transform="translate(0,342.15999999999997)" d="M80,0h540" style="stroke: rgb(255, 255, 255); stroke-opacity: 1; stroke-width: 1px;"/><path class="ygrid crisp" transform="translate(0,303.24)" d="M80,0h540" style="stroke: rgb(255, 255, 255); stroke-opacity: 1; stroke-width: 1px;"/><path class="ygrid crisp" transform="translate(0,264.32)" d="M80,0h540" style="stroke: rgb(255, 255, 255); stroke-opacity: 1; stroke-width: 1px;"/><path class="ygrid crisp" transform="translate(0,225.4)" d="M80,0h540" style="stroke: rgb(255, 255, 255); stroke-opacity: 1; stroke-width: 1px;"/><path class="ygrid crisp" transform="translate(0,186.48000000000002)" d="M80,0h540" style="stroke: rgb(255, 255, 255); stroke-opacity: 1; stroke-width: 1px;"/><path class="ygrid crisp" transform="translate(0,147.56)" d="M80,0h540" style="stroke: rgb(255, 255, 255); stroke-opacity: 1; stroke-width: 1px;"/><path class="ygrid crisp" transform="translate(0,108.64)" d="M80,0h540" style="stroke: rgb(255, 255, 255); stroke-opacity: 1; stroke-width: 1px;"/></g></g><g class="zerolinelayer"><path class="yzl zl crisp" transform="translate(0,420)" d="M80,0h540" style="stroke: rgb(255, 255, 255); stroke-opacity: 1; stroke-width: 2px;"/></g><path class="xlines-below"/><path class="ylines-below"/><g class="overlines-below"/><g class="xaxislayer-below"/><g class="yaxislayer-below"/><g class="overaxes-below"/><g class="plot" transform="translate(80,100)" clip-path="url(#clipcd88b7xyplot)"><g class="scatterlayer mlayer"><g class="trace scatter tracef06d45" style="stroke-miterlimit: 2;"><g class="fills"><g><path class="js-fill" d="M540,320L0,320L0,315.97L3.44,318.6L6.88,313.72L13.76,301.25L17.2,299.3L20.64,248.44L24.08,239.42L27.52,248.91L30.96,240.42L34.39,231.14L37.83,233.92L41.27,216.83L44.71,207.97L48.15,159.56L51.59,146.8L55.03,130.46L58.47,125.76L61.91,113.52L65.35,111.81L68.79,114.6L72.23,130.04L75.67,138.9L79.11,123.36L82.55,135.11L85.99,151.88L92.87,158.56L96.31,169.97L99.75,188.54L103.18,192.97L106.62,192.03L110.06,193.96L113.5,203.75L116.94,204.76L120.38,213.2L123.82,255.71L130.7,259.68L134.14,259.79L137.58,261.72L141.02,273.53L144.46,275.09L147.9,269.12L151.34,271.67L154.78,278.35L158.22,282.76L161.66,283.54L165.1,285.21L168.54,288.63L171.97,291.13L175.41,257.11L182.29,257.13L185.73,266.29L189.17,267L192.61,265.86L196.05,266.12L199.49,263.4L202.93,263.29L206.37,261.95L209.81,253.57L213.25,255.96L216.69,253.9L220.13,261.98L227.01,261.7L230.45,263.65L233.89,243.33L237.32,229.67L240.76,220.75L244.2,139.28L247.64,131.78L251.08,131.76L254.52,132.65L257.96,132.09L261.4,147.35L264.84,167.68L268.28,206.02L271.72,201.8L275.16,208.54L278.6,209.81L282.04,211.41L285.48,211.61L288.92,225.66L292.36,233.27L295.8,231.42L299.24,233.8L306.11,250.96L309.55,248.65L312.99,240.4L316.43,241.64L323.31,242.95L326.75,242.89L330.19,244.14L333.63,239.26L337.07,250.74L340.51,251.21L343.95,238.95L347.39,240.36L357.71,239.94L361.15,228.19L364.59,231.67L368.03,230.32L371.46,232.83L374.9,232.55L378.34,212.93L381.78,215.29L385.22,175.68L388.66,226.75L392.1,229.43L395.54,229.03L398.98,231.79L402.42,231.82L409.3,222.58L412.74,224.06L416.18,223.44L419.62,224.72L426.5,222.77L429.94,228.74L433.38,229.63L436.82,229.6L440.25,229.88L443.69,263.61L450.57,262.68L454.01,260.61L457.45,259.49L460.89,255.58L464.33,239.37L467.77,232.7L471.21,217.58L474.65,216.27L478.09,192.91L481.53,189.34L484.97,190.63L488.41,186.43L491.85,158.82L495.29,154.69L498.73,153.4L502.17,148.15L509.04,140.45L512.48,134.62L515.92,127.53L519.36,124.02L522.8,119.41L526.24,122.13L529.68,116.45L533.12,70.34L536.56,68.67L540,16" style="fill: rgb(99, 110, 250); fill-opacity: 0.5; stroke-width: 0;"/></g></g><g class="errorbars"/><g class="lines"><path class="js-line" d="M0,315.97L3.44,318.6L6.88,313.72L13.76,301.25L17.2,299.3L20.64,248.44L24.08,239.42L27.52,248.91L30.96,240.42L34.39,231.14L37.83,233.92L41.27,216.83L44.71,207.97L48.15,159.56L51.59,146.8L55.03,130.46L58.47,125.76L61.91,113.52L65.35,111.81L68.79,114.6L72.23,130.04L75.67,138.9L79.11,123.36L82.55,135.11L85.99,151.88L92.87,158.56L96.31,169.97L99.75,188.54L103.18,192.97L106.62,192.03L110.06,193.96L113.5,203.75L116.94,204.76L120.38,213.2L123.82,255.71L130.7,259.68L134.14,259.79L137.58,261.72L141.02,273.53L144.46,275.09L147.9,269.12L151.34,271.67L154.78,278.35L158.22,282.76L161.66,283.54L165.1,285.21L168.54,288.63L171.97,291.13L175.41,257.11L182.29,257.13L185.73,266.29L189.17,267L192.61,265.86L196.05,266.12L199.49,263.4L202.93,263.29L206.37,261.95L209.81,253.57L213.25,255.96L216.69,253.9L220.13,261.98L227.01,261.7L230.45,263.65L233.89,243.33L237.32,229.67L240.76,220.75L244.2,139.28L247.64,131.78L251.08,131.76L254.52,132.65L257.96,132.09L261.4,147.35L264.84,167.68L268.28,206.02L271.72,201.8L275.16,208.54L278.6,209.81L282.04,211.41L285.48,211.61L288.92,225.66L292.36,233.27L295.8,231.42L299.24,233.8L306.11,250.96L309.55,248.65L312.99,240.4L316.43,241.64L323.31,242.95L326.75,242.89L330.19,244.14L333.63,239.26L337.07,250.74L340.51,251.21L343.95,238.95L347.39,240.36L357.71,239.94L361.15,228.19L364.59,231.67L368.03,230.32L371.46,232.83L374.9,232.55L378.34,212.93L381.78,215.29L385.22,175.68L388.66,226.75L392.1,229.43L395.54,229.03L398.98,231.79L402.42,231.82L409.3,222.58L412.74,224.06L416.18,223.44L419.62,224.72L426.5,222.77L429.94,228.74L433.38,229.63L436.82,229.6L440.25,229.88L443.69,263.61L450.57,262.68L454.01,260.61L457.45,259.49L460.89,255.58L464.33,239.37L467.77,232.7L471.21,217.58L474.65,216.27L478.09,192.91L481.53,189.34L484.97,190.63L488.41,186.43L491.85,158.82L495.29,154.69L498.73,153.4L502.17,148.15L509.04,140.45L512.48,134.62L515.92,127.53L519.36,124.02L522.8,119.41L526.24,122.13L529.68,116.45L533.12,70.34L536.56,68.67L540,16" style="vector-effect: non-scaling-stroke; fill: none; stroke: rgb(99, 110, 250); stroke-opacity: 1; stroke-width: 2px; opacity: 1;"/></g><g class="points"/><g class="text"/></g></g></g><g class="overplot"/><path class="xlines-above crisp" d="M0,0" style="fill: none;"/><path class="ylines-above crisp" d="M0,0" style="fill: none;"/><g class="overlines-above"/><g class="xaxislayer-above"><g class="xtick"><text text-anchor="middle" x="0" y="433" transform="translate(104.08,0)" style="font-family: 'Open Sans', verdana, arial, sans-serif; font-size: 12px; fill: rgb(42, 63, 95); fill-opacity: 1; white-space: pre; opacity: 1;">Sep 2022</text></g><g class="xtick"><text text-anchor="middle" x="0" y="433" style="font-family: 'Open Sans', verdana, arial, sans-serif; font-size: 12px; fill: rgb(42, 63, 95); fill-opacity: 1; white-space: pre; opacity: 1;" transform="translate(207.26,0)">Oct 2022</text></g><g class="xtick"><text text-anchor="middle" x="0" y="433" style="font-family: 'Open Sans', verdana, arial, sans-serif; font-size: 12px; fill: rgb(42, 63, 95); fill-opacity: 1; white-space: pre; opacity: 1;" transform="translate(313.89,0)">Nov 2022</text></g><g class="xtick"><text text-anchor="middle" x="0" y="433" style="font-family: 'Open Sans', verdana, arial, sans-serif; font-size: 12px; fill: rgb(42, 63, 95); fill-opacity: 1; white-space: pre; opacity: 1;" transform="translate(417.07,0)">Dec 2022</text></g><g class="xtick"><text text-anchor="middle" x="0" y="433" style="font-family: 'Open Sans', verdana, arial, sans-serif; font-size: 12px; fill: rgb(42, 63, 95); fill-opacity: 1; white-space: pre; opacity: 1;" transform="translate(523.69,0)">Jan 2023</text></g></g><g class="yaxislayer-above"><g class="ytick"><text text-anchor="end" x="79" y="4.199999999999999" transform="translate(0,420)" style="font-family: 'Open Sans', verdana, arial, sans-serif; font-size: 12px; fill: rgb(42, 63, 95); fill-opacity: 1; white-space: pre; opacity: 1;">$0</text></g><g class="ytick"><text text-anchor="end" x="79" y="4.199999999999999" style="font-family: 'Open Sans', verdana, arial, sans-serif; font-size: 12px; fill: rgb(42, 63, 95); fill-opacity: 1; white-space: pre; opacity: 1;" transform="translate(0,381.08)">$2M</text></g><g class="ytick"><text text-anchor="end" x="79" y="4.199999999999999" style="font-family: 'Open Sans', verdana, arial, sans-serif; font-size: 12px; fill: rgb(42, 63, 95); fill-opacity: 1; white-space: pre; opacity: 1;" transform="translate(0,342.15999999999997)">$4M</text></g><g class="ytick"><text text-anchor="end" x="79" y="4.199999999999999" style="font-family: 'Open Sans', verdana, arial, sans-serif; font-size: 12px; fill: rgb(42, 63, 95); fill-opacity: 1; white-space: pre; opacity: 1;" transform="translate(0,303.24)">$6M</text></g><g class="ytick"><text text-anchor="end" x="79" y="4.199999999999999" style="font-family: 'Open Sans', verdana, arial, sans-serif; font-size: 12px; fill: rgb(42, 63, 95); fill-opacity: 1; white-space: pre; opacity: 1;" transform="translate(0,264.32)">$8M</text></g><g class="ytick"><text text-anchor="end" x="79" y="4.199999999999999" style="font-family: 'Open Sans', verdana, arial, sans-serif; font-size: 12px; fill: rgb(42, 63, 95); fill-opacity: 1; white-space: pre; opacity: 1;" transform="translate(0,225.4)">$10M</text></g><g class="ytick"><text text-anchor="end" x="79" y="4.199999999999999" style="font-family: 'Open Sans', verdana, arial, sans-serif; font-size: 12px; fill: rgb(42, 63, 95); fill-opacity: 1; white-space: pre; opacity: 1;" transform="translate(0,186.48000000000002)">$12M</text></g><g class="ytick"><text text-anchor="end" x="79" y="4.199999999999999" style="font-family: 'Open Sans', verdana, arial, sans-serif; font-size: 12px; fill: rgb(42, 63, 95); fill-opacity: 1; white-space: pre; opacity: 1;" transform="translate(0,147.56)">$14M</text></g><g class="ytick"><text text-anchor="end" x="79" y="4.199999999999999" style="font-family: 'Open Sans', verdana, arial, sans-serif; font-size: 12px; fill: rgb(42, 63, 95); fill-opacity: 1; white-space: pre; opacity: 1;" transform="translate(0,108.64)">$16M</text></g></g><g class="overaxes-above"/></g></g><g class="polarlayer"/><g class="smithlayer"/><g class="ternarylayer"/><g class="geolayer"/><g class="funnelarealayer"/><g class="pielayer"/><g class="iciclelayer"/><g class="treemaplayer"/><g class="sunburstlayer"/><g class="glimages"/><defs id="topdefs-cd88b7"><g class="clips"/></defs><g class="layer-above"><g class="imagelayer"/><g class="shapelayer"/></g><g class="infolayer"><g class="g-gtitle"><text class="gtitle" x="35" y="50" text-anchor="start" dy="0em" style="font-family: 'Open Sans', verdana, arial, sans-serif; font-size: 17px; fill: rgb(42, 63, 95); opacity: 1; font-weight: normal; white-space: pre;"><tspan class="line" dy="0em" x="35" y="50">Synthetix - sUSD-3Crv: Curve</tspan><tspan class="line" dy="1.3em" x="35" y="50">​<tspan style="font-size:70%" dy="-0.6em">Cumulative Net Dollar Flow since Program Announcement, Until Program End + 30 Days</tspan><tspan dy="0.42em">​</tspan></tspan></text></g><g class="g-xtitle"><text class="xtitle" x="350" y="460.8" text-anchor="middle" style="font-family: 'Open Sans', verdana, arial, sans-serif; font-size: 14px; fill: rgb(42, 63, 95); opacity: 1; font-weight: normal; white-space: pre;">Day</text></g><g class="g-ytitle"><text class="ytitle" transform="rotate(-90,24.168750000000003,260)" x="24.168750000000003" y="260" text-anchor="middle" style="font-family: 'Open Sans', verdana, arial, sans-serif; font-size: 14px; fill: rgb(42, 63, 95); opacity: 1; font-weight: normal; white-space: pre;">Cumulative Net Dollar Flow (N$F)</text></g></g></svg>