<svg class="main-svg" xmlns="http://www.w3.org/2000/svg" xmlns:xlink="http://www.w3.org/1999/xlink" width="700" height="500" style="" viewBox="0 0 700 500"><rect x="0" y="0" width="700" height="500" style="fill: rgb(255, 255, 255); fill-opacity: 1;"/><defs id="defs-0db1d1"><g class="clips"><clipPath id="clip0db1d1xyplot" class="plotclip"><rect width="540" height="320"/></clipPath><clipPath class="axesclip" id="clip0db1d1x"><rect x="80" y="0" width="540" height="500"/></clipPath><clipPath class="axesclip" id="clip0db1d1y"><rect x="0" y="100" width="700" height="320"/></clipPath><clipPath class="axesclip" id="clip0db1d1xy"><rect x="80" y="100" width="540" height="320"/></clipPath></g><g class="gradients"/><g class="patterns"/></defs><g class="bglayer"><rect class="bg" x="80" y="100" width="540" height="320" style="fill: rgb(229, 236, 246); fill-opacity: 1; stroke-width: 0;"/></g><g class="layer-below"><g class="imagelayer"/><g class="shapelayer"/></g><g class="cartesianlayer"><g class="subplot xy"><g class="layer-subplot"><g class="shapelayer"/><g class="imagelayer"/></g><g class="minor-gridlayer"><g class="x"/><g class="y"/></g><g class="gridlayer"><g class="x"><path class="xgrid crisp" transform="translate(162.23000000000002,0)" d="M0,100v320" style="stroke: rgb(255, 255, 255); stroke-opacity: 1; stroke-width: 1px;"/><path class="xgrid crisp" transform="translate(244.47,0)" d="M0,100v320" style="stroke: rgb(255, 255, 255); stroke-opacity: 1; stroke-width: 1px;"/><path class="xgrid crisp" transform="translate(329.44,0)" d="M0,100v320" style="stroke: rgb(255, 255, 255); stroke-opacity: 1; stroke-width: 1px;"/><path class="xgrid crisp" transform="translate(411.68,0)" d="M0,100v320" style="stroke: rgb(255, 255, 255); stroke-opacity: 1; stroke-width: 1px;"/><path class="xgrid crisp" transform="translate(496.65,0)" d="M0,100v320" style="stroke: rgb(255, 255, 255); stroke-opacity: 1; stroke-width: 1px;"/><path class="xgrid crisp" transform="translate(581.62,0)" d="M0,100v320" style="stroke: rgb(255, 255, 255); stroke-opacity: 1; stroke-width: 1px;"/></g><g class="y"><path class="ygrid crisp" transform="translate(0,381.76)" d="M80,0h540" style="stroke: rgb(255, 255, 255); stroke-opacity: 1; stroke-width: 1px;"/><path class="ygrid crisp" transform="translate(0,343.52)" d="M80,0h540" style="stroke: rgb(255, 255, 255); stroke-opacity: 1; stroke-width: 1px;"/><path class="ygrid crisp" transform="translate(0,305.28)" d="M80,0h540" style="stroke: rgb(255, 255, 255); stroke-opacity: 1; stroke-width: 1px;"/><path class="ygrid crisp" transform="translate(0,267.03999999999996)" d="M80,0h540" style="stroke: rgb(255, 255, 255); stroke-opacity: 1; stroke-width: 1px;"/><path class="ygrid crisp" transform="translate(0,228.8)" d="M80,0h540" style="stroke: rgb(255, 255, 255); stroke-opacity: 1; stroke-width: 1px;"/><path class="ygrid crisp" transform="translate(0,190.56)" d="M80,0h540" style="stroke: rgb(255, 255, 255); stroke-opacity: 1; stroke-width: 1px;"/><path class="ygrid crisp" transform="translate(0,152.32)" d="M80,0h540" style="stroke: rgb(255, 255, 255); stroke-opacity: 1; stroke-width: 1px;"/><path class="ygrid crisp" transform="translate(0,114.07)" d="M80,0h540" style="stroke: rgb(255, 255, 255); stroke-opacity: 1; stroke-width: 1px;"/></g></g><g class="zerolinelayer"><path class="yzl zl crisp" transform="translate(0,420)" d="M80,0h540" style="stroke: rgb(255, 255, 255); stroke-opacity: 1; stroke-width: 2px;"/></g><path class="xlines-below"/><path class="ylines-below"/><g class="overlines-below"/><g class="xaxislayer-below"/><g class="yaxislayer-below"/><g class="overaxes-below"/><g class="plot" transform="translate(80,100)" clip-path="url(#clip0db1d1xyplot)"><g class="scatterlayer mlayer"><g class="trace scatter tracee8bb48" style="stroke-miterlimit: 2;"><g class="fills"><g><path class="js-fill" d="M540,320L0,320L0,319.62L2.74,284.84L5.48,201.4L8.22,165.99L10.96,157.73L13.71,144.39L16.45,122.2L19.19,110.64L21.93,56.08L24.67,52.8L27.41,50.93L30.15,33.93L32.89,27.93L35.63,26.27L38.38,18.05L41.12,40.9L43.86,16L46.6,16.62L49.34,18.94L52.08,30.56L54.82,33.56L57.56,36.45L60.3,38.13L63.05,46.17L65.79,47.5L68.53,39.61L71.27,39.26L74.01,40.97L76.75,45.04L79.49,46.08L82.23,43.48L84.97,43.68L87.72,57.37L93.2,57.29L95.94,59.23L98.68,61.7L101.42,67.39L104.16,68.32L106.9,79.9L109.64,88.63L112.39,93.97L115.13,101.59L117.87,112.62L120.61,117.29L123.35,108.47L126.09,62.64L128.83,61.05L131.57,49.06L134.31,52.3L137.06,50.28L139.8,50.39L142.54,59.63L145.28,37.87L148.02,34.65L150.76,26.05L153.5,24.88L156.24,27.03L158.98,31.54L161.73,30.39L167.21,24.2L169.95,24.32L172.69,23.71L175.43,29.39L180.91,35.1L183.65,30.43L186.4,28.33L189.14,37.42L191.88,42.84L194.62,41.23L197.36,40L200.1,42.81L202.84,41.38L205.58,36.81L208.32,68.44L211.07,76.38L213.81,78.32L216.55,79.32L219.29,80.3L222.03,115.97L224.77,113.39L227.51,119.83L230.25,125.73L232.99,152.3L235.74,177.73L238.48,170.78L241.22,145.39L243.96,146.43L246.7,151.65L249.44,150.68L254.92,154.64L257.66,147.7L260.41,151.5L263.15,146.57L265.89,146.54L268.63,141.74L271.37,145.16L274.11,155.86L276.85,156.14L279.59,145.76L282.34,150.82L285.08,150.04L287.82,178.06L290.56,179.23L293.3,179.64L296.04,178.99L298.78,168.35L301.52,164.54L307.01,157.03L309.75,155.11L312.49,167.46L315.23,173.53L317.97,174.11L320.71,176.56L323.45,177.22L326.19,170.6L331.68,187.51L334.42,186.84L337.16,177.24L339.9,175.28L342.64,178.77L345.38,175.29L348.12,174.5L350.86,172.05L353.6,174.91L356.35,184.4L359.09,183.66L361.83,184.72L364.57,186.52L367.31,190.77L372.79,182.22L375.53,182.81L378.27,179.93L381.02,179.55L383.76,177.09L386.5,190.29L389.24,193.52L391.98,194.54L394.72,195.89L397.46,196.05L402.94,192.98L405.69,195.58L408.43,194.92L411.17,195.05L413.91,204.23L416.65,204.48L419.39,201.75L422.13,203.06L424.87,203.55L427.61,207.84L430.36,209.11L433.1,206.32L441.32,211.34L444.06,214.68L446.8,215.93L449.54,190.65L452.28,191.79L455.03,194.35L457.77,191.67L460.51,190.59L468.73,180.8L471.47,188.68L474.21,185.28L476.95,184.34L479.7,175.92L482.44,173.31L485.18,176.45L487.92,164.08L490.66,171.24L493.4,165.9L496.14,169.98L498.88,165.18L501.62,168.16L504.37,165.35L507.11,164.47L509.85,166.11L512.59,174.93L515.33,177.08L520.81,175.75L523.55,172.11L526.29,170.38L529.04,175.12L531.78,171.89L534.52,173.36L537.26,178.33L540,178.81" style="fill: rgb(99, 110, 250); fill-opacity: 0.5; stroke-width: 0;"/></g></g><g class="errorbars"/><g class="lines"><path class="js-line" d="M0,319.62L2.74,284.84L5.48,201.4L8.22,165.99L10.96,157.73L13.71,144.39L16.45,122.2L19.19,110.64L21.93,56.08L24.67,52.8L27.41,50.93L30.15,33.93L32.89,27.93L35.63,26.27L38.38,18.05L41.12,40.9L43.86,16L46.6,16.62L49.34,18.94L52.08,30.56L54.82,33.56L57.56,36.45L60.3,38.13L63.05,46.17L65.79,47.5L68.53,39.61L71.27,39.26L74.01,40.97L76.75,45.04L79.49,46.08L82.23,43.48L84.97,43.68L87.72,57.37L93.2,57.29L95.94,59.23L98.68,61.7L101.42,67.39L104.16,68.32L106.9,79.9L109.64,88.63L112.39,93.97L115.13,101.59L117.87,112.62L120.61,117.29L123.35,108.47L126.09,62.64L128.83,61.05L131.57,49.06L134.31,52.3L137.06,50.28L139.8,50.39L142.54,59.63L145.28,37.87L148.02,34.65L150.76,26.05L153.5,24.88L156.24,27.03L158.98,31.54L161.73,30.39L167.21,24.2L169.95,24.32L172.69,23.71L175.43,29.39L180.91,35.1L183.65,30.43L186.4,28.33L189.14,37.42L191.88,42.84L194.62,41.23L197.36,40L200.1,42.81L202.84,41.38L205.58,36.81L208.32,68.44L211.07,76.38L213.81,78.32L216.55,79.32L219.29,80.3L222.03,115.97L224.77,113.39L227.51,119.83L230.25,125.73L232.99,152.3L235.74,177.73L238.48,170.78L241.22,145.39L243.96,146.43L246.7,151.65L249.44,150.68L254.92,154.64L257.66,147.7L260.41,151.5L263.15,146.57L265.89,146.54L268.63,141.74L271.37,145.16L274.11,155.86L276.85,156.14L279.59,145.76L282.34,150.82L285.08,150.04L287.82,178.06L290.56,179.23L293.3,179.64L296.04,178.99L298.78,168.35L301.52,164.54L307.01,157.03L309.75,155.11L312.49,167.46L315.23,173.53L317.97,174.11L320.71,176.56L323.45,177.22L326.19,170.6L331.68,187.51L334.42,186.84L337.16,177.24L339.9,175.28L342.64,178.77L345.38,175.29L348.12,174.5L350.86,172.05L353.6,174.91L356.35,184.4L359.09,183.66L361.83,184.72L364.57,186.52L367.31,190.77L372.79,182.22L375.53,182.81L378.27,179.93L381.02,179.55L383.76,177.09L386.5,190.29L389.24,193.52L391.98,194.54L394.72,195.89L397.46,196.05L402.94,192.98L405.69,195.58L408.43,194.92L411.17,195.05L413.91,204.23L416.65,204.48L419.39,201.75L422.13,203.06L424.87,203.55L427.61,207.84L430.36,209.11L433.1,206.32L441.32,211.34L444.06,214.68L446.8,215.93L449.54,190.65L452.28,191.79L455.03,194.35L457.77,191.67L460.51,190.59L468.73,180.8L471.47,188.68L474.21,185.28L476.95,184.34L479.7,175.92L482.44,173.31L485.18,176.45L487.92,164.08L490.66,171.24L493.4,165.9L496.14,169.98L498.88,165.18L501.62,168.16L504.37,165.35L507.11,164.47L509.85,166.11L512.59,174.93L515.33,177.08L520.81,175.75L523.55,172.11L526.29,170.38L529.04,175.12L531.78,171.89L534.52,173.36L537.26,178.33L540,178.81" style="vector-effect: non-scaling-stroke; fill: none; stroke: rgb(99, 110, 250); stroke-opacity: 1; stroke-width: 2px; opacity: 1;"/></g><g class="points"/><g class="text"/></g></g></g><g class="overplot"/><path class="xlines-above crisp" d="M0,0" style="fill: none;"/><path class="ylines-above crisp" d="M0,0" style="fill: none;"/><g class="overlines-above"/><g class="xaxislayer-above"><g class="xtick"><text text-anchor="middle" x="0" y="433" transform="translate(162.23000000000002,0)" style="font-family: 'Open Sans', verdana, arial, sans-serif; font-size: 12px; fill: rgb(42, 63, 95); fill-opacity: 1; white-space: pre; opacity: 1;">Sep 2022</text></g><g class="xtick"><text text-anchor="middle" x="0" y="433" style="font-family: 'Open Sans', verdana, arial, sans-serif; font-size: 12px; fill: rgb(42, 63, 95); fill-opacity: 1; white-space: pre; opacity: 1;" transform="translate(244.47,0)">Oct 2022</text></g><g class="xtick"><text text-anchor="middle" x="0" y="433" style="font-family: 'Open Sans', verdana, arial, sans-serif; font-size: 12px; fill: rgb(42, 63, 95); fill-opacity: 1; white-space: pre; opacity: 1;" transform="translate(329.44,0)">Nov 2022</text></g><g class="xtick"><text text-anchor="middle" x="0" y="433" style="font-family: 'Open Sans', verdana, arial, sans-serif; font-size: 12px; fill: rgb(42, 63, 95); fill-opacity: 1; white-space: pre; opacity: 1;" transform="translate(411.68,0)">Dec 2022</text></g><g class="xtick"><text text-anchor="middle" x="0" y="433" style="font-family: 'Open Sans', verdana, arial, sans-serif; font-size: 12px; fill: rgb(42, 63, 95); fill-opacity: 1; white-space: pre; opacity: 1;" transform="translate(496.65,0)">Jan 2023</text></g><g class="xtick"><text text-anchor="middle" x="0" y="433" style="font-family: 'Open Sans', verdana, arial, sans-serif; font-size: 12px; fill: rgb(42, 63, 95); fill-opacity: 1; white-space: pre; opacity: 1;" transform="translate(581.62,0)">Feb 2023</text></g></g><g class="yaxislayer-above"><g class="ytick"><text text-anchor="end" x="79" y="4.199999999999999" transform="translate(0,420)" style="font-family: 'Open Sans', verdana, arial, sans-serif; font-size: 12px; fill: rgb(42, 63, 95); fill-opacity: 1; white-space: pre; opacity: 1;">$0</text></g><g class="ytick"><text text-anchor="end" x="79" y="4.199999999999999" style="font-family: 'Open Sans', verdana, arial, sans-serif; font-size: 12px; fill: rgb(42, 63, 95); fill-opacity: 1; white-space: pre; opacity: 1;" transform="translate(0,381.76)">$2M</text></g><g class="ytick"><text text-anchor="end" x="79" y="4.199999999999999" style="font-family: 'Open Sans', verdana, arial, sans-serif; font-size: 12px; fill: rgb(42, 63, 95); fill-opacity: 1; white-space: pre; opacity: 1;" transform="translate(0,343.52)">$4M</text></g><g class="ytick"><text text-anchor="end" x="79" y="4.199999999999999" style="font-family: 'Open Sans', verdana, arial, sans-serif; font-size: 12px; fill: rgb(42, 63, 95); fill-opacity: 1; white-space: pre; opacity: 1;" transform="translate(0,305.28)">$6M</text></g><g class="ytick"><text text-anchor="end" x="79" y="4.199999999999999" style="font-family: 'Open Sans', verdana, arial, sans-serif; font-size: 12px; fill: rgb(42, 63, 95); fill-opacity: 1; white-space: pre; opacity: 1;" transform="translate(0,267.03999999999996)">$8M</text></g><g class="ytick"><text text-anchor="end" x="79" y="4.199999999999999" style="font-family: 'Open Sans', verdana, arial, sans-serif; font-size: 12px; fill: rgb(42, 63, 95); fill-opacity: 1; white-space: pre; opacity: 1;" transform="translate(0,228.8)">$10M</text></g><g class="ytick"><text text-anchor="end" x="79" y="4.199999999999999" style="font-family: 'Open Sans', verdana, arial, sans-serif; font-size: 12px; fill: rgb(42, 63, 95); fill-opacity: 1; white-space: pre; opacity: 1;" transform="translate(0,190.56)">$12M</text></g><g class="ytick"><text text-anchor="end" x="79" y="4.199999999999999" style="font-family: 'Open Sans', verdana, arial, sans-serif; font-size: 12px; fill: rgb(42, 63, 95); fill-opacity: 1; white-space: pre; opacity: 1;" transform="translate(0,152.32)">$14M</text></g><g class="ytick"><text text-anchor="end" x="79" y="4.199999999999999" style="font-family: 'Open Sans', verdana, arial, sans-serif; font-size: 12px; fill: rgb(42, 63, 95); fill-opacity: 1; white-space: pre; opacity: 1;" transform="translate(0,114.07)">$16M</text></g></g><g class="overaxes-above"/></g></g><g class="polarlayer"/><g class="smithlayer"/><g class="ternarylayer"/><g class="geolayer"/><g class="funnelarealayer"/><g class="pielayer"/><g class="iciclelayer"/><g class="treemaplayer"/><g class="sunburstlayer"/><g class="glimages"/><defs id="topdefs-0db1d1"><g class="clips"/></defs><g class="layer-above"><g class="imagelayer"/><g class="shapelayer"/></g><g class="infolayer"><g class="g-gtitle"><text class="gtitle" x="35" y="50" text-anchor="start" dy="0em" style="font-family: 'Open Sans', verdana, arial, sans-serif; font-size: 17px; fill: rgb(42, 63, 95); opacity: 1; font-weight: normal; white-space: pre;"><tspan class="line" dy="0em" x="35" y="50">Lyra</tspan><tspan class="line" dy="1.3em" x="35" y="50">​<tspan style="font-size:70%" dy="-0.6em">Cumulative Net Flows since Program Announcement, Until Program End + 30 Days</tspan><tspan dy="0.42em">​</tspan></tspan></text></g><g class="g-xtitle"><text class="xtitle" x="350" y="460.8" text-anchor="middle" style="font-family: 'Open Sans', verdana, arial, sans-serif; font-size: 14px; fill: rgb(42, 63, 95); opacity: 1; font-weight: normal; white-space: pre;">Day</text></g><g class="g-ytitle"><text class="ytitle" transform="rotate(-90,24.168750000000003,260)" x="24.168750000000003" y="260" text-anchor="middle" style="font-family: 'Open Sans', verdana, arial, sans-serif; font-size: 14px; fill: rgb(42, 63, 95); opacity: 1; font-weight: normal; white-space: pre;">Cumulative Net Flows (USD)</text></g></g></svg>