<svg class="main-svg" xmlns="http://www.w3.org/2000/svg" xmlns:xlink="http://www.w3.org/1999/xlink" width="700" height="500" style="" viewBox="0 0 700 500"><rect x="0" y="0" width="700" height="500" style="fill: rgb(255, 255, 255); fill-opacity: 1;"/><defs id="defs-ec9f2d"><g class="clips"><clipPath id="clipec9f2dxyplot" class="plotclip"><rect width="540" height="320"/></clipPath><clipPath class="axesclip" id="clipec9f2dx"><rect x="80" y="0" width="540" height="500"/></clipPath><clipPath class="axesclip" id="clipec9f2dy"><rect x="0" y="100" width="700" height="320"/></clipPath><clipPath class="axesclip" id="clipec9f2dxy"><rect x="80" y="100" width="540" height="320"/></clipPath></g><g class="gradients"/><g class="patterns"/></defs><g class="bglayer"><rect class="bg" x="80" y="100" width="540" height="320" style="fill: rgb(229, 236, 246); fill-opacity: 1; stroke-width: 0;"/></g><g class="layer-below"><g class="imagelayer"/><g class="shapelayer"/></g><g class="cartesianlayer"><g class="subplot xy"><g class="layer-subplot"><g class="shapelayer"/><g class="imagelayer"/></g><g class="minor-gridlayer"><g class="x"/><g class="y"/></g><g class="gridlayer"><g class="x"><path class="xgrid crisp" transform="translate(212.52,0)" d="M0,100v320" style="stroke: rgb(255, 255, 255); stroke-opacity: 1; stroke-width: 1px;"/><path class="xgrid crisp" transform="translate(345.03,0)" d="M0,100v320" style="stroke: rgb(255, 255, 255); stroke-opacity: 1; stroke-width: 1px;"/><path class="xgrid crisp" transform="translate(481.96,0)" d="M0,100v320" style="stroke: rgb(255, 255, 255); stroke-opacity: 1; stroke-width: 1px;"/><path class="xgrid crisp" transform="translate(614.48,0)" d="M0,100v320" style="stroke: rgb(255, 255, 255); stroke-opacity: 1; stroke-width: 1px;"/></g><g class="y"><path class="ygrid crisp" transform="translate(0,381.76)" d="M80,0h540" style="stroke: rgb(255, 255, 255); stroke-opacity: 1; stroke-width: 1px;"/><path class="ygrid crisp" transform="translate(0,343.52)" d="M80,0h540" style="stroke: rgb(255, 255, 255); stroke-opacity: 1; stroke-width: 1px;"/><path class="ygrid crisp" transform="translate(0,305.28)" d="M80,0h540" style="stroke: rgb(255, 255, 255); stroke-opacity: 1; stroke-width: 1px;"/><path class="ygrid crisp" transform="translate(0,267.03999999999996)" d="M80,0h540" style="stroke: rgb(255, 255, 255); stroke-opacity: 1; stroke-width: 1px;"/><path class="ygrid crisp" transform="translate(0,228.8)" d="M80,0h540" style="stroke: rgb(255, 255, 255); stroke-opacity: 1; stroke-width: 1px;"/><path class="ygrid crisp" transform="translate(0,190.56)" d="M80,0h540" style="stroke: rgb(255, 255, 255); stroke-opacity: 1; stroke-width: 1px;"/><path class="ygrid crisp" transform="translate(0,152.32)" d="M80,0h540" style="stroke: rgb(255, 255, 255); stroke-opacity: 1; stroke-width: 1px;"/><path class="ygrid crisp" transform="translate(0,114.07)" d="M80,0h540" style="stroke: rgb(255, 255, 255); stroke-opacity: 1; stroke-width: 1px;"/></g></g><g class="zerolinelayer"><path class="yzl zl crisp" transform="translate(0,420)" d="M80,0h540" style="stroke: rgb(255, 255, 255); stroke-opacity: 1; stroke-width: 2px;"/></g><path class="xlines-below"/><path class="ylines-below"/><g class="overlines-below"/><g class="xaxislayer-below"/><g class="yaxislayer-below"/><g class="overaxes-below"/><g class="plot" transform="translate(80,100)" clip-path="url(#clipec9f2dxyplot)"><g class="scatterlayer mlayer"><g class="trace scatter trace256f0d" style="stroke-miterlimit: 2;"><g class="fills"><g><path class="js-fill" d="M540,320L0,320L0,319.62L4.42,284.84L8.83,201.4L13.25,165.99L17.67,157.73L22.09,144.39L26.5,122.2L30.92,110.64L35.34,56.08L39.75,52.8L44.17,50.93L48.59,33.93L53.01,27.93L57.42,26.27L61.84,18.05L66.26,40.9L70.67,16L75.09,16.62L79.51,18.94L83.93,30.55L88.34,33.56L92.76,36.45L97.18,38.13L101.6,46.17L106.01,47.5L110.43,39.61L114.85,39.25L119.26,40.97L123.68,45.04L128.1,46.07L132.52,43.48L136.93,43.67L141.35,57.36L150.18,57.29L154.6,59.23L159.02,61.7L163.44,67.39L167.85,68.32L172.27,79.89L176.69,88.63L181.1,93.97L185.52,101.58L189.94,112.61L194.36,117.29L198.77,108.46L203.19,62.64L207.61,61.05L212.02,49.06L216.44,52.3L220.86,50.27L225.28,50.39L229.69,59.63L234.11,37.87L238.53,34.65L242.95,26.05L247.36,24.88L251.78,27.02L256.2,31.54L260.61,30.39L269.45,24.2L273.87,24.32L278.28,23.7L282.7,29.39L291.53,35.1L295.95,30.43L300.37,28.33L304.79,37.42L309.2,42.84L313.62,41.23L318.04,40L322.45,42.81L326.87,41.37L331.29,36.8L335.71,68.44L340.12,76.37L344.54,78.32L348.96,79.32L353.37,80.3L357.79,115.96L362.21,113.39L366.63,119.82L371.04,125.73L375.46,152.3L379.88,177.73L384.29,170.78L388.71,145.39L393.13,146.43L397.55,151.65L401.96,150.68L410.8,154.64L415.22,147.69L419.63,151.5L424.05,146.57L428.47,146.53L432.88,141.74L437.3,145.16L441.72,155.85L446.14,156.14L450.55,145.76L454.97,150.82L459.39,150.04L463.8,178.06L468.22,179.23L472.64,179.64L477.06,178.99L481.47,168.34L485.89,164.54L490.31,161.32L494.72,157.03L499.14,155.11L503.56,167.46L507.98,173.53L512.39,174.1L516.81,176.56L521.23,177.22L525.64,170.6L530.06,178.02L534.48,187.5L538.9,186.84L540,185.16" style="fill: rgb(99, 110, 250); fill-opacity: 0.5; stroke-width: 0;"/></g></g><g class="errorbars"/><g class="lines"><path class="js-line" d="M0,319.62L4.42,284.84L8.83,201.4L13.25,165.99L17.67,157.73L22.09,144.39L26.5,122.2L30.92,110.64L35.34,56.08L39.75,52.8L44.17,50.93L48.59,33.93L53.01,27.93L57.42,26.27L61.84,18.05L66.26,40.9L70.67,16L75.09,16.62L79.51,18.94L83.93,30.55L88.34,33.56L92.76,36.45L97.18,38.13L101.6,46.17L106.01,47.5L110.43,39.61L114.85,39.25L119.26,40.97L123.68,45.04L128.1,46.07L132.52,43.48L136.93,43.67L141.35,57.36L150.18,57.29L154.6,59.23L159.02,61.7L163.44,67.39L167.85,68.32L172.27,79.89L176.69,88.63L181.1,93.97L185.52,101.58L189.94,112.61L194.36,117.29L198.77,108.46L203.19,62.64L207.61,61.05L212.02,49.06L216.44,52.3L220.86,50.27L225.28,50.39L229.69,59.63L234.11,37.87L238.53,34.65L242.95,26.05L247.36,24.88L251.78,27.02L256.2,31.54L260.61,30.39L269.45,24.2L273.87,24.32L278.28,23.7L282.7,29.39L291.53,35.1L295.95,30.43L300.37,28.33L304.79,37.42L309.2,42.84L313.62,41.23L318.04,40L322.45,42.81L326.87,41.37L331.29,36.8L335.71,68.44L340.12,76.37L344.54,78.32L348.96,79.32L353.37,80.3L357.79,115.96L362.21,113.39L366.63,119.82L371.04,125.73L375.46,152.3L379.88,177.73L384.29,170.78L388.71,145.39L393.13,146.43L397.55,151.65L401.96,150.68L410.8,154.64L415.22,147.69L419.63,151.5L424.05,146.57L428.47,146.53L432.88,141.74L437.3,145.16L441.72,155.85L446.14,156.14L450.55,145.76L454.97,150.82L459.39,150.04L463.8,178.06L468.22,179.23L472.64,179.64L477.06,178.99L481.47,168.34L485.89,164.54L490.31,161.32L494.72,157.03L499.14,155.11L503.56,167.46L507.98,173.53L512.39,174.1L516.81,176.56L521.23,177.22L525.64,170.6L530.06,178.02L534.48,187.5L538.9,186.84L540,185.16" style="vector-effect: non-scaling-stroke; fill: none; stroke: rgb(99, 110, 250); stroke-opacity: 1; stroke-width: 2px; opacity: 1;"/></g><g class="points"/><g class="text"/></g></g></g><g class="overplot"/><path class="xlines-above crisp" d="M0,0" style="fill: none;"/><path class="ylines-above crisp" d="M0,0" style="fill: none;"/><g class="overlines-above"/><g class="xaxislayer-above"><g class="xtick"><text text-anchor="middle" x="0" y="433" transform="translate(212.52,0)" style="font-family: 'Open Sans', verdana, arial, sans-serif; font-size: 12px; fill: rgb(42, 63, 95); fill-opacity: 1; white-space: pre; opacity: 1;">Sep 2022</text></g><g class="xtick"><text text-anchor="middle" x="0" y="433" style="font-family: 'Open Sans', verdana, arial, sans-serif; font-size: 12px; fill: rgb(42, 63, 95); fill-opacity: 1; white-space: pre; opacity: 1;" transform="translate(345.03,0)">Oct 2022</text></g><g class="xtick"><text text-anchor="middle" x="0" y="433" style="font-family: 'Open Sans', verdana, arial, sans-serif; font-size: 12px; fill: rgb(42, 63, 95); fill-opacity: 1; white-space: pre; opacity: 1;" transform="translate(481.96,0)">Nov 2022</text></g><g class="xtick"><text text-anchor="middle" x="0" y="433" style="font-family: 'Open Sans', verdana, arial, sans-serif; font-size: 12px; fill: rgb(42, 63, 95); fill-opacity: 1; white-space: pre; opacity: 1;" transform="translate(614.48,0)">Dec 2022</text></g></g><g class="yaxislayer-above"><g class="ytick"><text text-anchor="end" x="79" y="4.199999999999999" transform="translate(0,420)" style="font-family: 'Open Sans', verdana, arial, sans-serif; font-size: 12px; fill: rgb(42, 63, 95); fill-opacity: 1; white-space: pre; opacity: 1;">$0</text></g><g class="ytick"><text text-anchor="end" x="79" y="4.199999999999999" style="font-family: 'Open Sans', verdana, arial, sans-serif; font-size: 12px; fill: rgb(42, 63, 95); fill-opacity: 1; white-space: pre; opacity: 1;" transform="translate(0,381.76)">$2M</text></g><g class="ytick"><text text-anchor="end" x="79" y="4.199999999999999" style="font-family: 'Open Sans', verdana, arial, sans-serif; font-size: 12px; fill: rgb(42, 63, 95); fill-opacity: 1; white-space: pre; opacity: 1;" transform="translate(0,343.52)">$4M</text></g><g class="ytick"><text text-anchor="end" x="79" y="4.199999999999999" style="font-family: 'Open Sans', verdana, arial, sans-serif; font-size: 12px; fill: rgb(42, 63, 95); fill-opacity: 1; white-space: pre; opacity: 1;" transform="translate(0,305.28)">$6M</text></g><g class="ytick"><text text-anchor="end" x="79" y="4.199999999999999" style="font-family: 'Open Sans', verdana, arial, sans-serif; font-size: 12px; fill: rgb(42, 63, 95); fill-opacity: 1; white-space: pre; opacity: 1;" transform="translate(0,267.03999999999996)">$8M</text></g><g class="ytick"><text text-anchor="end" x="79" y="4.199999999999999" style="font-family: 'Open Sans', verdana, arial, sans-serif; font-size: 12px; fill: rgb(42, 63, 95); fill-opacity: 1; white-space: pre; opacity: 1;" transform="translate(0,228.8)">$10M</text></g><g class="ytick"><text text-anchor="end" x="79" y="4.199999999999999" style="font-family: 'Open Sans', verdana, arial, sans-serif; font-size: 12px; fill: rgb(42, 63, 95); fill-opacity: 1; white-space: pre; opacity: 1;" transform="translate(0,190.56)">$12M</text></g><g class="ytick"><text text-anchor="end" x="79" y="4.199999999999999" style="font-family: 'Open Sans', verdana, arial, sans-serif; font-size: 12px; fill: rgb(42, 63, 95); fill-opacity: 1; white-space: pre; opacity: 1;" transform="translate(0,152.32)">$14M</text></g><g class="ytick"><text text-anchor="end" x="79" y="4.199999999999999" style="font-family: 'Open Sans', verdana, arial, sans-serif; font-size: 12px; fill: rgb(42, 63, 95); fill-opacity: 1; white-space: pre; opacity: 1;" transform="translate(0,114.07)">$16M</text></g></g><g class="overaxes-above"/></g></g><g class="polarlayer"/><g class="smithlayer"/><g class="ternarylayer"/><g class="geolayer"/><g class="funnelarealayer"/><g class="pielayer"/><g class="iciclelayer"/><g class="treemaplayer"/><g class="sunburstlayer"/><g class="glimages"/><defs id="topdefs-ec9f2d"><g class="clips"/></defs><g class="layer-above"><g class="imagelayer"/><g class="shapelayer"/></g><g class="infolayer"><g class="g-gtitle"><text class="gtitle" x="35" y="50" text-anchor="start" dy="0em" style="font-family: 'Open Sans', verdana, arial, sans-serif; font-size: 17px; fill: rgb(42, 63, 95); opacity: 1; font-weight: normal; white-space: pre;">Lyra: Cumulative Net Dollar Flow since Program Announcement</text></g><g class="g-xtitle"><text class="xtitle" x="350" y="460.8" text-anchor="middle" style="font-family: 'Open Sans', verdana, arial, sans-serif; font-size: 14px; fill: rgb(42, 63, 95); opacity: 1; font-weight: normal; white-space: pre;">Day</text></g><g class="g-ytitle"><text class="ytitle" transform="rotate(-90,24.168750000000003,260)" x="24.168750000000003" y="260" text-anchor="middle" style="font-family: 'Open Sans', verdana, arial, sans-serif; font-size: 14px; fill: rgb(42, 63, 95); opacity: 1; font-weight: normal; white-space: pre;">Cumulative Net Dollar Flow (N$F)</text></g></g></svg>