<svg class="main-svg" xmlns="http://www.w3.org/2000/svg" xmlns:xlink="http://www.w3.org/1999/xlink" width="700" height="500" style="" viewBox="0 0 700 500"><rect x="0" y="0" width="700" height="500" style="fill: rgb(255, 255, 255); fill-opacity: 1;"/><defs id="defs-9a7da3"><g class="clips"><clipPath id="clip9a7da3xyplot" class="plotclip"><rect width="540" height="320"/></clipPath><clipPath class="axesclip" id="clip9a7da3x"><rect x="80" y="0" width="540" height="500"/></clipPath><clipPath class="axesclip" id="clip9a7da3y"><rect x="0" y="100" width="700" height="320"/></clipPath><clipPath class="axesclip" id="clip9a7da3xy"><rect x="80" y="100" width="540" height="320"/></clipPath></g><g class="gradients"/><g class="patterns"/></defs><g class="bglayer"><rect class="bg" x="80" y="100" width="540" height="320" style="fill: rgb(229, 236, 246); fill-opacity: 1; stroke-width: 0;"/></g><g class="layer-below"><g class="imagelayer"/><g class="shapelayer"/></g><g class="cartesianlayer"><g class="subplot xy"><g class="layer-subplot"><g class="shapelayer"/><g class="imagelayer"/></g><g class="minor-gridlayer"><g class="x"/><g class="y"/></g><g class="gridlayer"><g class="x"><path class="xgrid crisp" transform="translate(91.87,0)" d="M0,100v320" style="stroke: rgb(255, 255, 255); stroke-opacity: 1; stroke-width: 1px;"/><path class="xgrid crisp" transform="translate(183.85,0)" d="M0,100v320" style="stroke: rgb(255, 255, 255); stroke-opacity: 1; stroke-width: 1px;"/><path class="xgrid crisp" transform="translate(272.86,0)" d="M0,100v320" style="stroke: rgb(255, 255, 255); stroke-opacity: 1; stroke-width: 1px;"/><path class="xgrid crisp" transform="translate(364.84,0)" d="M0,100v320" style="stroke: rgb(255, 255, 255); stroke-opacity: 1; stroke-width: 1px;"/><path class="xgrid crisp" transform="translate(456.81,0)" d="M0,100v320" style="stroke: rgb(255, 255, 255); stroke-opacity: 1; stroke-width: 1px;"/><path class="xgrid crisp" transform="translate(539.89,0)" d="M0,100v320" style="stroke: rgb(255, 255, 255); stroke-opacity: 1; stroke-width: 1px;"/></g><g class="y"><path class="ygrid crisp" transform="translate(0,336.85)" d="M80,0h540" style="stroke: rgb(255, 255, 255); stroke-opacity: 1; stroke-width: 1px;"/><path class="ygrid crisp" transform="translate(0,290.05)" d="M80,0h540" style="stroke: rgb(255, 255, 255); stroke-opacity: 1; stroke-width: 1px;"/><path class="ygrid crisp" transform="translate(0,243.25)" d="M80,0h540" style="stroke: rgb(255, 255, 255); stroke-opacity: 1; stroke-width: 1px;"/><path class="ygrid crisp" transform="translate(0,196.45)" d="M80,0h540" style="stroke: rgb(255, 255, 255); stroke-opacity: 1; stroke-width: 1px;"/><path class="ygrid crisp" transform="translate(0,149.65)" d="M80,0h540" style="stroke: rgb(255, 255, 255); stroke-opacity: 1; stroke-width: 1px;"/><path class="ygrid crisp" transform="translate(0,102.85)" d="M80,0h540" style="stroke: rgb(255, 255, 255); stroke-opacity: 1; stroke-width: 1px;"/></g></g><g class="zerolinelayer"><path class="yzl zl crisp" transform="translate(0,383.65)" d="M80,0h540" style="stroke: rgb(255, 255, 255); stroke-opacity: 1; stroke-width: 2px;"/></g><path class="xlines-below"/><path class="ylines-below"/><g class="overlines-below"/><g class="xaxislayer-below"/><g class="yaxislayer-below"/><g class="overaxes-below"/><g class="plot" transform="translate(80,100)" clip-path="url(#clip9a7da3xyplot)"><g class="scatterlayer mlayer"><g class="trace scatter tracef321fd" style="stroke-miterlimit: 2;"><g class="fills"><g><path class="js-fill" d="M540,283.65L0,283.65L0,289.18L5.93,288.54L8.9,288.29L11.87,287.62L14.84,287.79L17.8,287.72L20.77,286.37L23.74,281.55L26.7,281.72L29.67,286.11L32.64,281.44L38.57,282.1L41.54,282.14L44.51,282.26L47.47,279.77L50.44,273.92L53.41,273.06L56.37,273.06L59.34,274.58L62.31,265.13L65.27,265.02L68.24,264.9L71.21,267.56L74.18,267.88L77.14,266.08L83.08,267.71L86.04,273.35L89.01,270.1L91.98,265.05L94.95,263.77L97.91,264.31L103.85,262.99L106.81,263.51L118.68,263.32L121.65,262.53L124.62,276.63L127.58,278.02L130.55,291.2L133.52,289.55L139.45,290.63L142.42,292.02L145.38,280.51L148.35,279.08L151.32,284.09L154.29,282.59L157.25,281.63L160.22,282.11L163.19,283.35L166.15,283.49L169.12,285.07L172.09,284.53L175.05,283.32L178.02,277.35L180.99,276.89L183.96,283.14L186.92,283.62L189.89,282.76L192.86,274.25L195.82,271.66L201.76,272.15L204.73,269.85L207.69,268.93L210.66,263.9L213.63,263.61L216.59,260.77L219.56,268.87L222.53,240.58L225.49,255.16L228.46,255.59L231.43,261.39L234.4,279.23L237.36,279.12L240.33,286.55L243.3,287.63L246.26,287.04L249.23,279.71L252.2,279.64L255.16,281.6L258.13,282.01L267.03,282.33L270,282.66L272.97,283.86L275.93,283.96L296.7,284.03L299.67,286.64L302.64,283.58L305.6,283.35L308.57,279.41L311.54,278.4L314.51,278.24L317.47,276.84L320.44,275.07L323.41,274.38L329.34,274.64L332.31,271.3L335.27,270.72L338.24,262.73L341.21,256.09L344.18,253.12L347.14,257.75L350.11,247.43L353.08,236.51L356.04,232.85L361.98,208.66L364.95,203.83L367.91,203.82L370.88,200.49L373.85,188.86L376.81,185.59L379.78,179.76L382.75,176.38L385.71,175.06L388.68,169.67L391.65,139.63L394.62,137.32L397.58,119.02L400.55,122.43L403.52,122.4L406.48,114.55L409.45,106.89L412.42,105.95L415.38,105.98L418.35,101.79L421.32,103.61L424.29,96.61L427.25,94.79L430.22,81.72L433.19,74.81L436.15,69.91L439.12,79.43L442.09,74.15L445.05,58.34L448.02,59.21L450.99,58.03L453.96,51.55L456.92,40.82L459.89,25.52L462.86,18.11L465.82,17.78L468.79,16L471.76,17.38L474.73,16.28L477.69,20.41L480.66,22.39L483.63,29.05L486.59,118.09L489.56,304L492.53,301.69L495.49,273.37L498.46,214.37L501.43,205.75L504.4,192.19L507.36,161.2L510.33,117.7L513.3,93.07L516.26,89.69L519.23,93.15L522.2,92.68L525.16,101.17L531.1,108.78L534.07,109.21L537.03,117.25L540,112.78" style="fill: rgb(99, 110, 250); fill-opacity: 0.5; stroke-width: 0;"/></g></g><g class="errorbars"/><g class="lines"><path class="js-line" d="M0,289.18L5.93,288.54L8.9,288.29L11.87,287.62L14.84,287.79L17.8,287.72L20.77,286.37L23.74,281.55L26.7,281.72L29.67,286.11L32.64,281.44L38.57,282.1L41.54,282.14L44.51,282.26L47.47,279.77L50.44,273.92L53.41,273.06L56.37,273.06L59.34,274.58L62.31,265.13L65.27,265.02L68.24,264.9L71.21,267.56L74.18,267.88L77.14,266.08L83.08,267.71L86.04,273.35L89.01,270.1L91.98,265.05L94.95,263.77L97.91,264.31L103.85,262.99L106.81,263.51L118.68,263.32L121.65,262.53L124.62,276.63L127.58,278.02L130.55,291.2L133.52,289.55L139.45,290.63L142.42,292.02L145.38,280.51L148.35,279.08L151.32,284.09L154.29,282.59L157.25,281.63L160.22,282.11L163.19,283.35L166.15,283.49L169.12,285.07L172.09,284.53L175.05,283.32L178.02,277.35L180.99,276.89L183.96,283.14L186.92,283.62L189.89,282.76L192.86,274.25L195.82,271.66L201.76,272.15L204.73,269.85L207.69,268.93L210.66,263.9L213.63,263.61L216.59,260.77L219.56,268.87L222.53,240.58L225.49,255.16L228.46,255.59L231.43,261.39L234.4,279.23L237.36,279.12L240.33,286.55L243.3,287.63L246.26,287.04L249.23,279.71L252.2,279.64L255.16,281.6L258.13,282.01L267.03,282.33L270,282.66L272.97,283.86L275.93,283.96L296.7,284.03L299.67,286.64L302.64,283.58L305.6,283.35L308.57,279.41L311.54,278.4L314.51,278.24L317.47,276.84L320.44,275.07L323.41,274.38L329.34,274.64L332.31,271.3L335.27,270.72L338.24,262.73L341.21,256.09L344.18,253.12L347.14,257.75L350.11,247.43L353.08,236.51L356.04,232.85L361.98,208.66L364.95,203.83L367.91,203.82L370.88,200.49L373.85,188.86L376.81,185.59L379.78,179.76L382.75,176.38L385.71,175.06L388.68,169.67L391.65,139.63L394.62,137.32L397.58,119.02L400.55,122.43L403.52,122.4L406.48,114.55L409.45,106.89L412.42,105.95L415.38,105.98L418.35,101.79L421.32,103.61L424.29,96.61L427.25,94.79L430.22,81.72L433.19,74.81L436.15,69.91L439.12,79.43L442.09,74.15L445.05,58.34L448.02,59.21L450.99,58.03L453.96,51.55L456.92,40.82L459.89,25.52L462.86,18.11L465.82,17.78L468.79,16L471.76,17.38L474.73,16.28L477.69,20.41L480.66,22.39L483.63,29.05L486.59,118.09L489.56,304L492.53,301.69L495.49,273.37L498.46,214.37L501.43,205.75L504.4,192.19L507.36,161.2L510.33,117.7L513.3,93.07L516.26,89.69L519.23,93.15L522.2,92.68L525.16,101.17L531.1,108.78L534.07,109.21L537.03,117.25L540,112.78" style="vector-effect: non-scaling-stroke; fill: none; stroke: rgb(99, 110, 250); stroke-opacity: 1; stroke-width: 2px; opacity: 1;"/></g><g class="points"/><g class="text"/></g></g></g><g class="overplot"/><path class="xlines-above crisp" d="M0,0" style="fill: none;"/><path class="ylines-above crisp" d="M0,0" style="fill: none;"/><g class="overlines-above"/><g class="xaxislayer-above"><g class="xtick"><text text-anchor="middle" x="0" y="433" transform="translate(91.87,0)" style="font-family: 'Open Sans', verdana, arial, sans-serif; font-size: 12px; fill: rgb(42, 63, 95); fill-opacity: 1; white-space: pre; opacity: 1;">Oct 2022</text></g><g class="xtick"><text text-anchor="middle" x="0" y="433" style="font-family: 'Open Sans', verdana, arial, sans-serif; font-size: 12px; fill: rgb(42, 63, 95); fill-opacity: 1; white-space: pre; opacity: 1;" transform="translate(183.85,0)">Nov 2022</text></g><g class="xtick"><text text-anchor="middle" x="0" y="433" style="font-family: 'Open Sans', verdana, arial, sans-serif; font-size: 12px; fill: rgb(42, 63, 95); fill-opacity: 1; white-space: pre; opacity: 1;" transform="translate(272.86,0)">Dec 2022</text></g><g class="xtick"><text text-anchor="middle" x="0" y="433" style="font-family: 'Open Sans', verdana, arial, sans-serif; font-size: 12px; fill: rgb(42, 63, 95); fill-opacity: 1; white-space: pre; opacity: 1;" transform="translate(364.84,0)">Jan 2023</text></g><g class="xtick"><text text-anchor="middle" x="0" y="433" style="font-family: 'Open Sans', verdana, arial, sans-serif; font-size: 12px; fill: rgb(42, 63, 95); fill-opacity: 1; white-space: pre; opacity: 1;" transform="translate(456.81,0)">Feb 2023</text></g><g class="xtick"><text text-anchor="middle" x="0" y="433" style="font-family: 'Open Sans', verdana, arial, sans-serif; font-size: 12px; fill: rgb(42, 63, 95); fill-opacity: 1; white-space: pre; opacity: 1;" transform="translate(539.89,0)">Mar 2023</text></g></g><g class="yaxislayer-above"><g class="ytick"><text text-anchor="end" x="79" y="4.199999999999999" transform="translate(0,383.65)" style="font-family: 'Open Sans', verdana, arial, sans-serif; font-size: 12px; fill: rgb(42, 63, 95); fill-opacity: 1; white-space: pre; opacity: 1;">$0</text></g><g class="ytick"><text text-anchor="end" x="79" y="4.199999999999999" style="font-family: 'Open Sans', verdana, arial, sans-serif; font-size: 12px; fill: rgb(42, 63, 95); fill-opacity: 1; white-space: pre; opacity: 1;" transform="translate(0,336.85)">$5M</text></g><g class="ytick"><text text-anchor="end" x="79" y="4.199999999999999" style="font-family: 'Open Sans', verdana, arial, sans-serif; font-size: 12px; fill: rgb(42, 63, 95); fill-opacity: 1; white-space: pre; opacity: 1;" transform="translate(0,290.05)">$10M</text></g><g class="ytick"><text text-anchor="end" x="79" y="4.199999999999999" style="font-family: 'Open Sans', verdana, arial, sans-serif; font-size: 12px; fill: rgb(42, 63, 95); fill-opacity: 1; white-space: pre; opacity: 1;" transform="translate(0,243.25)">$15M</text></g><g class="ytick"><text text-anchor="end" x="79" y="4.199999999999999" style="font-family: 'Open Sans', verdana, arial, sans-serif; font-size: 12px; fill: rgb(42, 63, 95); fill-opacity: 1; white-space: pre; opacity: 1;" transform="translate(0,196.45)">$20M</text></g><g class="ytick"><text text-anchor="end" x="79" y="4.199999999999999" style="font-family: 'Open Sans', verdana, arial, sans-serif; font-size: 12px; fill: rgb(42, 63, 95); fill-opacity: 1; white-space: pre; opacity: 1;" transform="translate(0,149.65)">$25M</text></g><g class="ytick"><text text-anchor="end" x="79" y="4.199999999999999" style="font-family: 'Open Sans', verdana, arial, sans-serif; font-size: 12px; fill: rgb(42, 63, 95); fill-opacity: 1; white-space: pre; opacity: 1;" transform="translate(0,102.85)">$30M</text></g></g><g class="overaxes-above"/></g></g><g class="polarlayer"/><g class="smithlayer"/><g class="ternarylayer"/><g class="geolayer"/><g class="funnelarealayer"/><g class="pielayer"/><g class="iciclelayer"/><g class="treemaplayer"/><g class="sunburstlayer"/><g class="glimages"/><defs id="topdefs-9a7da3"><g class="clips"/></defs><g class="layer-above"><g class="imagelayer"/><g class="shapelayer"/></g><g class="infolayer"><g class="g-gtitle"><text class="gtitle" x="35" y="50" text-anchor="start" dy="0em" style="font-family: 'Open Sans', verdana, arial, sans-serif; font-size: 17px; fill: rgb(42, 63, 95); opacity: 1; font-weight: normal; white-space: pre;"><tspan class="line" dy="0em" x="35" y="50">Synthetix - USDC/sUSD: Velodrome</tspan><tspan class="line" dy="1.3em" x="35" y="50">​<tspan style="font-size:70%" dy="-0.6em">Cumulative Net Flows since Program Announcement, Until Program End + 30 Days</tspan><tspan dy="0.42em">​</tspan></tspan></text></g><g class="g-xtitle"><text class="xtitle" x="350" y="460.8" text-anchor="middle" style="font-family: 'Open Sans', verdana, arial, sans-serif; font-size: 14px; fill: rgb(42, 63, 95); opacity: 1; font-weight: normal; white-space: pre;">Day</text></g><g class="g-ytitle"><text class="ytitle" transform="rotate(-90,24.168750000000003,260)" x="24.168750000000003" y="260" text-anchor="middle" style="font-family: 'Open Sans', verdana, arial, sans-serif; font-size: 14px; fill: rgb(42, 63, 95); opacity: 1; font-weight: normal; white-space: pre;">Cumulative Net Flows (USD)</text></g></g></svg>