<svg class="main-svg" xmlns="http://www.w3.org/2000/svg" xmlns:xlink="http://www.w3.org/1999/xlink" width="700" height="500" style="" viewBox="0 0 700 500"><rect x="0" y="0" width="700" height="500" style="fill: rgb(255, 255, 255); fill-opacity: 1;"/><defs id="defs-4ee119"><g class="clips"><clipPath id="clip4ee119xyplot" class="plotclip"><rect width="540" height="320"/></clipPath><clipPath class="axesclip" id="clip4ee119x"><rect x="80" y="0" width="540" height="500"/></clipPath><clipPath class="axesclip" id="clip4ee119y"><rect x="0" y="100" width="700" height="320"/></clipPath><clipPath class="axesclip" id="clip4ee119xy"><rect x="80" y="100" width="540" height="320"/></clipPath></g><g class="gradients"/><g class="patterns"/></defs><g class="bglayer"><rect class="bg" x="80" y="100" width="540" height="320" style="fill: rgb(229, 236, 246); fill-opacity: 1; stroke-width: 0;"/></g><g class="layer-below"><g class="imagelayer"/><g class="shapelayer"/></g><g class="cartesianlayer"><g class="subplot xy"><g class="layer-subplot"><g class="shapelayer"/><g class="imagelayer"/></g><g class="minor-gridlayer"><g class="x"/><g class="y"/></g><g class="gridlayer"><g class="x"><path class="xgrid crisp" transform="translate(142.79,0)" d="M0,100v320" style="stroke: rgb(255, 255, 255); stroke-opacity: 1; stroke-width: 1px;"/><path class="xgrid crisp" transform="translate(257.28,0)" d="M0,100v320" style="stroke: rgb(255, 255, 255); stroke-opacity: 1; stroke-width: 1px;"/><path class="xgrid crisp" transform="translate(368.08,0)" d="M0,100v320" style="stroke: rgb(255, 255, 255); stroke-opacity: 1; stroke-width: 1px;"/><path class="xgrid crisp" transform="translate(482.58,0)" d="M0,100v320" style="stroke: rgb(255, 255, 255); stroke-opacity: 1; stroke-width: 1px;"/><path class="xgrid crisp" transform="translate(593.38,0)" d="M0,100v320" style="stroke: rgb(255, 255, 255); stroke-opacity: 1; stroke-width: 1px;"/></g><g class="y"><path class="ygrid crisp" transform="translate(0,375.06)" d="M80,0h540" style="stroke: rgb(255, 255, 255); stroke-opacity: 1; stroke-width: 1px;"/><path class="ygrid crisp" transform="translate(0,330.13)" d="M80,0h540" style="stroke: rgb(255, 255, 255); stroke-opacity: 1; stroke-width: 1px;"/><path class="ygrid crisp" transform="translate(0,285.19)" d="M80,0h540" style="stroke: rgb(255, 255, 255); stroke-opacity: 1; stroke-width: 1px;"/><path class="ygrid crisp" transform="translate(0,240.25)" d="M80,0h540" style="stroke: rgb(255, 255, 255); stroke-opacity: 1; stroke-width: 1px;"/><path class="ygrid crisp" transform="translate(0,195.32)" d="M80,0h540" style="stroke: rgb(255, 255, 255); stroke-opacity: 1; stroke-width: 1px;"/><path class="ygrid crisp" transform="translate(0,150.38)" d="M80,0h540" style="stroke: rgb(255, 255, 255); stroke-opacity: 1; stroke-width: 1px;"/><path class="ygrid crisp" transform="translate(0,105.44)" d="M80,0h540" style="stroke: rgb(255, 255, 255); stroke-opacity: 1; stroke-width: 1px;"/></g></g><g class="zerolinelayer"><path class="yzl zl crisp" transform="translate(0,420)" d="M80,0h540" style="stroke: rgb(255, 255, 255); stroke-opacity: 1; stroke-width: 2px;"/></g><path class="xlines-below"/><path class="ylines-below"/><g class="overlines-below"/><g class="xaxislayer-below"/><g class="yaxislayer-below"/><g class="overaxes-below"/><g class="plot" transform="translate(80,100)" clip-path="url(#clip4ee119xyplot)"><g class="scatterlayer mlayer"><g class="trace scatter tracedbcef3" style="stroke-miterlimit: 2;"><g class="fills"><g><path class="js-fill" d="M540,320L0,320L0,319.87L7.39,313.17L11.08,311.54L14.77,308.43L18.47,307.65L22.16,306.15L25.85,287.42L29.55,282.46L33.24,281.85L36.93,273.6L40.63,272.38L44.32,268.42L48.01,268.47L55.4,255.42L59.09,252.32L62.79,246.59L66.48,226.02L70.17,224.8L73.87,230.25L77.56,222.44L81.25,104.26L84.95,88.48L88.64,48.74L92.33,33.32L96.03,51.64L99.72,57.54L103.41,58.82L107.11,62.1L110.8,63.2L114.49,64.86L118.19,68.71L121.88,72.84L125.57,96.53L132.96,118.54L136.65,114.9L140.35,114.72L144.04,152.27L147.73,148.17L151.43,150.39L158.81,151.42L162.51,150.77L166.2,151.62L169.89,150.08L173.59,149.89L177.28,148.54L180.97,145.13L184.67,144.43L188.36,141.53L192.06,140.33L195.75,142.21L199.44,145.58L203.14,141.78L206.83,111.05L210.52,99.21L214.22,98.03L217.91,98.66L221.6,91.41L225.3,150.01L228.99,154.7L236.38,148.46L240.07,143.39L243.76,136.08L247.46,123.72L251.15,138L254.84,134.41L258.54,127.51L262.23,112.41L265.92,72.7L269.62,71.93L273.31,71.33L277,58.48L280.7,66.9L284.39,61.56L288.08,52.19L291.78,49.66L295.47,50.22L299.16,66.92L302.86,59.87L306.55,60.56L310.24,61.62L313.94,61.4L317.63,59.19L321.32,47.71L325.02,43.17L328.71,45.75L332.4,49.61L336.1,57.88L339.79,16L343.48,22.62L347.18,46.25L350.87,46.49L354.56,46.26L358.26,51.55L361.95,50.94L365.64,51.2L369.34,51.87L373.03,51.1L376.72,52.94L380.42,53.49L384.11,54.75L387.8,66.5L391.5,66.83L395.19,72.59L398.88,70.79L402.58,61.47L406.27,61.77L409.96,40.68L413.66,40L417.35,36.34L424.74,34.78L428.43,34.05L432.12,51.36L435.82,81.2L443.2,82.56L446.9,81.17L450.59,81.51L454.28,79.71L465.36,76.32L469.06,76.5L476.44,72.14L480.14,70.01L483.83,68.84L487.52,41.83L491.22,37.42L494.91,45.84L498.6,53.73L502.3,27.1L505.99,26.77L509.68,29.93L513.38,27.63L517.07,29.4L520.76,54.83L524.46,56.12L531.84,59.05L535.54,56.94L540,58.24" style="fill: rgb(99, 110, 250); fill-opacity: 0.5; stroke-width: 0;"/></g></g><g class="errorbars"/><g class="lines"><path class="js-line" d="M0,319.87L7.39,313.17L11.08,311.54L14.77,308.43L18.47,307.65L22.16,306.15L25.85,287.42L29.55,282.46L33.24,281.85L36.93,273.6L40.63,272.38L44.32,268.42L48.01,268.47L55.4,255.42L59.09,252.32L62.79,246.59L66.48,226.02L70.17,224.8L73.87,230.25L77.56,222.44L81.25,104.26L84.95,88.48L88.64,48.74L92.33,33.32L96.03,51.64L99.72,57.54L103.41,58.82L107.11,62.1L110.8,63.2L114.49,64.86L118.19,68.71L121.88,72.84L125.57,96.53L132.96,118.54L136.65,114.9L140.35,114.72L144.04,152.27L147.73,148.17L151.43,150.39L158.81,151.42L162.51,150.77L166.2,151.62L169.89,150.08L173.59,149.89L177.28,148.54L180.97,145.13L184.67,144.43L188.36,141.53L192.06,140.33L195.75,142.21L199.44,145.58L203.14,141.78L206.83,111.05L210.52,99.21L214.22,98.03L217.91,98.66L221.6,91.41L225.3,150.01L228.99,154.7L236.38,148.46L240.07,143.39L243.76,136.08L247.46,123.72L251.15,138L254.84,134.41L258.54,127.51L262.23,112.41L265.92,72.7L269.62,71.93L273.31,71.33L277,58.48L280.7,66.9L284.39,61.56L288.08,52.19L291.78,49.66L295.47,50.22L299.16,66.92L302.86,59.87L306.55,60.56L310.24,61.62L313.94,61.4L317.63,59.19L321.32,47.71L325.02,43.17L328.71,45.75L332.4,49.61L336.1,57.88L339.79,16L343.48,22.62L347.18,46.25L350.87,46.49L354.56,46.26L358.26,51.55L361.95,50.94L365.64,51.2L369.34,51.87L373.03,51.1L376.72,52.94L380.42,53.49L384.11,54.75L387.8,66.5L391.5,66.83L395.19,72.59L398.88,70.79L402.58,61.47L406.27,61.77L409.96,40.68L413.66,40L417.35,36.34L424.74,34.78L428.43,34.05L432.12,51.36L435.82,81.2L443.2,82.56L446.9,81.17L450.59,81.51L454.28,79.71L465.36,76.32L469.06,76.5L476.44,72.14L480.14,70.01L483.83,68.84L487.52,41.83L491.22,37.42L494.91,45.84L498.6,53.73L502.3,27.1L505.99,26.77L509.68,29.93L513.38,27.63L517.07,29.4L520.76,54.83L524.46,56.12L531.84,59.05L535.54,56.94L540,58.24" style="vector-effect: non-scaling-stroke; fill: none; stroke: rgb(99, 110, 250); stroke-opacity: 1; stroke-width: 2px; opacity: 1;"/></g><g class="points"/><g class="text"/></g></g></g><g class="overplot"/><path class="xlines-above crisp" d="M0,0" style="fill: none;"/><path class="ylines-above crisp" d="M0,0" style="fill: none;"/><g class="overlines-above"/><g class="xaxislayer-above"><g class="xtick"><text text-anchor="middle" x="0" y="433" transform="translate(142.79,0)" style="font-family: 'Open Sans', verdana, arial, sans-serif; font-size: 12px; fill: rgb(42, 63, 95); fill-opacity: 1; white-space: pre; opacity: 1;">Aug 2022</text></g><g class="xtick"><text text-anchor="middle" x="0" y="433" style="font-family: 'Open Sans', verdana, arial, sans-serif; font-size: 12px; fill: rgb(42, 63, 95); fill-opacity: 1; white-space: pre; opacity: 1;" transform="translate(257.28,0)">Sep 2022</text></g><g class="xtick"><text text-anchor="middle" x="0" y="433" style="font-family: 'Open Sans', verdana, arial, sans-serif; font-size: 12px; fill: rgb(42, 63, 95); fill-opacity: 1; white-space: pre; opacity: 1;" transform="translate(368.08,0)">Oct 2022</text></g><g class="xtick"><text text-anchor="middle" x="0" y="433" style="font-family: 'Open Sans', verdana, arial, sans-serif; font-size: 12px; fill: rgb(42, 63, 95); fill-opacity: 1; white-space: pre; opacity: 1;" transform="translate(482.58,0)">Nov 2022</text></g><g class="xtick"><text text-anchor="middle" x="0" y="433" style="font-family: 'Open Sans', verdana, arial, sans-serif; font-size: 12px; fill: rgb(42, 63, 95); fill-opacity: 1; white-space: pre; opacity: 1;" transform="translate(593.38,0)">Dec 2022</text></g></g><g class="yaxislayer-above"><g class="ytick"><text text-anchor="end" x="79" y="4.199999999999999" transform="translate(0,420)" style="font-family: 'Open Sans', verdana, arial, sans-serif; font-size: 12px; fill: rgb(42, 63, 95); fill-opacity: 1; white-space: pre; opacity: 1;">$0</text></g><g class="ytick"><text text-anchor="end" x="79" y="4.199999999999999" style="font-family: 'Open Sans', verdana, arial, sans-serif; font-size: 12px; fill: rgb(42, 63, 95); fill-opacity: 1; white-space: pre; opacity: 1;" transform="translate(0,375.06)">$1M</text></g><g class="ytick"><text text-anchor="end" x="79" y="4.199999999999999" style="font-family: 'Open Sans', verdana, arial, sans-serif; font-size: 12px; fill: rgb(42, 63, 95); fill-opacity: 1; white-space: pre; opacity: 1;" transform="translate(0,330.13)">$2M</text></g><g class="ytick"><text text-anchor="end" x="79" y="4.199999999999999" style="font-family: 'Open Sans', verdana, arial, sans-serif; font-size: 12px; fill: rgb(42, 63, 95); fill-opacity: 1; white-space: pre; opacity: 1;" transform="translate(0,285.19)">$3M</text></g><g class="ytick"><text text-anchor="end" x="79" y="4.199999999999999" style="font-family: 'Open Sans', verdana, arial, sans-serif; font-size: 12px; fill: rgb(42, 63, 95); fill-opacity: 1; white-space: pre; opacity: 1;" transform="translate(0,240.25)">$4M</text></g><g class="ytick"><text text-anchor="end" x="79" y="4.199999999999999" style="font-family: 'Open Sans', verdana, arial, sans-serif; font-size: 12px; fill: rgb(42, 63, 95); fill-opacity: 1; white-space: pre; opacity: 1;" transform="translate(0,195.32)">$5M</text></g><g class="ytick"><text text-anchor="end" x="79" y="4.199999999999999" style="font-family: 'Open Sans', verdana, arial, sans-serif; font-size: 12px; fill: rgb(42, 63, 95); fill-opacity: 1; white-space: pre; opacity: 1;" transform="translate(0,150.38)">$6M</text></g><g class="ytick"><text text-anchor="end" x="79" y="4.199999999999999" style="font-family: 'Open Sans', verdana, arial, sans-serif; font-size: 12px; fill: rgb(42, 63, 95); fill-opacity: 1; white-space: pre; opacity: 1;" transform="translate(0,105.44)">$7M</text></g></g><g class="overaxes-above"/></g></g><g class="polarlayer"/><g class="smithlayer"/><g class="ternarylayer"/><g class="geolayer"/><g class="funnelarealayer"/><g class="pielayer"/><g class="iciclelayer"/><g class="treemaplayer"/><g class="sunburstlayer"/><g class="glimages"/><defs id="topdefs-4ee119"><g class="clips"/></defs><g class="layer-above"><g class="imagelayer"/><g class="shapelayer"/></g><g class="infolayer"><g class="g-gtitle"><text class="gtitle" x="35" y="50" text-anchor="start" dy="0em" style="font-family: 'Open Sans', verdana, arial, sans-serif; font-size: 17px; fill: rgb(42, 63, 95); opacity: 1; font-weight: normal; white-space: pre;">Rubicon: Cumulative Net Dollar Flow since Program Announcement</text></g><g class="g-xtitle"><text class="xtitle" x="350" y="460.8" text-anchor="middle" style="font-family: 'Open Sans', verdana, arial, sans-serif; font-size: 14px; fill: rgb(42, 63, 95); opacity: 1; font-weight: normal; white-space: pre;">Day</text></g><g class="g-ytitle"><text class="ytitle" transform="rotate(-90,30.856250000000003,260)" x="30.856250000000003" y="260" text-anchor="middle" style="font-family: 'Open Sans', verdana, arial, sans-serif; font-size: 14px; fill: rgb(42, 63, 95); opacity: 1; font-weight: normal; white-space: pre;">Cumulative Net Dollar Flow (N$F)</text></g></g></svg>