<svg class="main-svg" xmlns="http://www.w3.org/2000/svg" xmlns:xlink="http://www.w3.org/1999/xlink" width="700" height="500" style="" viewBox="0 0 700 500"><rect x="0" y="0" width="700" height="500" style="fill: rgb(255, 255, 255); fill-opacity: 1;"/><defs id="defs-b4ce1e"><g class="clips"><clipPath id="clipb4ce1exyplot" class="plotclip"><rect width="540" height="320"/></clipPath><clipPath class="axesclip" id="clipb4ce1ex"><rect x="80" y="0" width="540" height="500"/></clipPath><clipPath class="axesclip" id="clipb4ce1ey"><rect x="0" y="100" width="700" height="320"/></clipPath><clipPath class="axesclip" id="clipb4ce1exy"><rect x="80" y="100" width="540" height="320"/></clipPath></g><g class="gradients"/><g class="patterns"/></defs><g class="bglayer"><rect class="bg" x="80" y="100" width="540" height="320" style="fill: rgb(229, 236, 246); fill-opacity: 1; stroke-width: 0;"/></g><g class="layer-below"><g class="imagelayer"/><g class="shapelayer"/></g><g class="cartesianlayer"><g class="subplot xy"><g class="layer-subplot"><g class="shapelayer"/><g class="imagelayer"/></g><g class="minor-gridlayer"><g class="x"/><g class="y"/></g><g class="gridlayer"><g class="x"><path class="xgrid crisp" transform="translate(126.36,0)" d="M0,100v320" style="stroke: rgb(255, 255, 255); stroke-opacity: 1; stroke-width: 1px;"/><path class="xgrid crisp" transform="translate(210.91,0)" d="M0,100v320" style="stroke: rgb(255, 255, 255); stroke-opacity: 1; stroke-width: 1px;"/><path class="xgrid crisp" transform="translate(292.73,0)" d="M0,100v320" style="stroke: rgb(255, 255, 255); stroke-opacity: 1; stroke-width: 1px;"/><path class="xgrid crisp" transform="translate(377.27,0)" d="M0,100v320" style="stroke: rgb(255, 255, 255); stroke-opacity: 1; stroke-width: 1px;"/><path class="xgrid crisp" transform="translate(459.09,0)" d="M0,100v320" style="stroke: rgb(255, 255, 255); stroke-opacity: 1; stroke-width: 1px;"/><path class="xgrid crisp" transform="translate(543.64,0)" d="M0,100v320" style="stroke: rgb(255, 255, 255); stroke-opacity: 1; stroke-width: 1px;"/></g><g class="y"><path class="ygrid crisp" transform="translate(0,354.61)" d="M80,0h540" style="stroke: rgb(255, 255, 255); stroke-opacity: 1; stroke-width: 1px;"/><path class="ygrid crisp" transform="translate(0,289.22)" d="M80,0h540" style="stroke: rgb(255, 255, 255); stroke-opacity: 1; stroke-width: 1px;"/><path class="ygrid crisp" transform="translate(0,223.82999999999998)" d="M80,0h540" style="stroke: rgb(255, 255, 255); stroke-opacity: 1; stroke-width: 1px;"/><path class="ygrid crisp" transform="translate(0,158.45)" d="M80,0h540" style="stroke: rgb(255, 255, 255); stroke-opacity: 1; stroke-width: 1px;"/></g></g><g class="zerolinelayer"><path class="yzl zl crisp" transform="translate(0,420)" d="M80,0h540" style="stroke: rgb(255, 255, 255); stroke-opacity: 1; stroke-width: 2px;"/></g><path class="xlines-below"/><path class="ylines-below"/><g class="overlines-below"/><g class="xaxislayer-below"/><g class="yaxislayer-below"/><g class="overaxes-below"/><g class="plot" transform="translate(80,100)" clip-path="url(#clipb4ce1exyplot)"><g class="scatterlayer mlayer"><g class="trace scatter trace838a31" style="stroke-miterlimit: 2;"><g class="fills"><g><path class="js-fill" d="M540,320L0,320L0,319.91L5.45,315.03L8.18,313.84L10.91,311.58L13.64,311.01L16.36,309.92L19.09,296.3L21.82,292.69L24.55,292.24L27.27,286.24L30,285.36L32.73,282.47L35.45,282.51L40.91,273.01L43.64,270.76L46.36,266.59L49.09,251.63L51.82,250.74L54.55,254.7L57.27,249.02L60,163.04L62.73,151.55L65.45,122.65L68.18,111.42L70.91,124.75L73.64,129.05L76.36,129.97L79.09,132.36L81.82,133.16L84.55,134.37L87.27,137.17L90,140.17L92.73,157.42L98.18,173.42L100.91,170.77L103.64,170.65L106.36,197.96L109.09,194.98L111.82,196.6L117.27,197.35L120,196.87L122.73,197.49L125.45,196.38L128.18,196.23L130.91,195.25L133.64,192.77L136.36,192.26L139.09,190.16L141.82,189.28L144.55,190.65L147.27,193.1L150,190.33L152.73,167.98L155.45,159.36L158.18,158.5L160.91,158.96L163.64,153.69L166.36,196.32L169.09,199.73L174.55,195.19L177.27,191.51L180,186.19L182.73,177.2L185.45,187.58L188.18,184.97L190.91,179.95L193.64,168.97L196.36,140.07L199.09,139.52L201.82,139.07L204.55,129.73L207.27,135.85L210,131.97L212.73,125.15L215.45,123.31L218.18,123.72L220.91,135.87L223.64,130.74L226.36,131.24L229.09,132.01L231.82,131.85L234.55,130.24L237.27,121.89L240,118.59L242.73,120.47L245.45,123.28L248.18,129.29L250.91,98.82L253.64,103.64L256.36,120.83L259.09,121.01L261.82,120.84L264.55,124.68L270,124.43L272.73,124.92L275.45,124.36L278.18,125.7L283.64,127.01L286.36,135.56L289.09,135.8L291.82,140L294.55,138.69L297.27,131.9L300,132.12L302.73,116.78L305.45,116.29L308.18,113.62L316.36,111.95L319.09,124.54L321.82,146.26L324.55,146.56L327.27,147.25L330,146.24L332.73,146.48L335.45,145.17L343.64,142.7L346.36,142.84L354.55,138.12L357.27,137.27L360,117.61L362.73,114.4L368.18,126.27L370.91,106.9L373.64,106.66L376.36,108.96L379.09,107.28L381.82,108.57L384.55,127.07L387.27,128.01L392.73,130.14L395.45,128.6L398.18,129.64L400.91,128.13L403.64,127.39L406.36,118.25L409.09,112.38L411.82,109.28L414.55,108.53L417.27,106.81L420,105.55L422.73,121.82L425.45,120.82L428.18,107.72L430.91,106.76L433.64,106.84L439.09,105.08L441.82,93.03L444.55,93.17L447.27,91.16L452.73,90.15L455.45,98.19L460.91,96.62L463.64,92.3L469.09,95.13L471.82,101.23L474.55,99.83L477.27,99.31L480,101.79L482.73,100.21L485.45,99.4L488.18,95.89L490.91,94.18L493.64,90.42L499.09,91.14L501.82,84.44L504.55,82.69L507.27,77.33L510,69.13L512.73,70.99L515.45,70.12L518.18,63.44L520.91,63.33L523.64,54.39L526.36,52.32L529.09,35.92L534.55,25.93L537.27,17.56L540,16" style="fill: rgb(99, 110, 250); fill-opacity: 0.5; stroke-width: 0;"/></g></g><g class="errorbars"/><g class="lines"><path class="js-line" d="M0,319.91L5.45,315.03L8.18,313.84L10.91,311.58L13.64,311.01L16.36,309.92L19.09,296.3L21.82,292.69L24.55,292.24L27.27,286.24L30,285.36L32.73,282.47L35.45,282.51L40.91,273.01L43.64,270.76L46.36,266.59L49.09,251.63L51.82,250.74L54.55,254.7L57.27,249.02L60,163.04L62.73,151.55L65.45,122.65L68.18,111.42L70.91,124.75L73.64,129.05L76.36,129.97L79.09,132.36L81.82,133.16L84.55,134.37L87.27,137.17L90,140.17L92.73,157.42L98.18,173.42L100.91,170.77L103.64,170.65L106.36,197.96L109.09,194.98L111.82,196.6L117.27,197.35L120,196.87L122.73,197.49L125.45,196.38L128.18,196.23L130.91,195.25L133.64,192.77L136.36,192.26L139.09,190.16L141.82,189.28L144.55,190.65L147.27,193.1L150,190.33L152.73,167.98L155.45,159.36L158.18,158.5L160.91,158.96L163.64,153.69L166.36,196.32L169.09,199.73L174.55,195.19L177.27,191.51L180,186.19L182.73,177.2L185.45,187.58L188.18,184.97L190.91,179.95L193.64,168.97L196.36,140.07L199.09,139.52L201.82,139.07L204.55,129.73L207.27,135.85L210,131.97L212.73,125.15L215.45,123.31L218.18,123.72L220.91,135.87L223.64,130.74L226.36,131.24L229.09,132.01L231.82,131.85L234.55,130.24L237.27,121.89L240,118.59L242.73,120.47L245.45,123.28L248.18,129.29L250.91,98.82L253.64,103.64L256.36,120.83L259.09,121.01L261.82,120.84L264.55,124.68L270,124.43L272.73,124.92L275.45,124.36L278.18,125.7L283.64,127.01L286.36,135.56L289.09,135.8L291.82,140L294.55,138.69L297.27,131.9L300,132.12L302.73,116.78L305.45,116.29L308.18,113.62L316.36,111.95L319.09,124.54L321.82,146.26L324.55,146.56L327.27,147.25L330,146.24L332.73,146.48L335.45,145.17L343.64,142.7L346.36,142.84L354.55,138.12L357.27,137.27L360,117.61L362.73,114.4L368.18,126.27L370.91,106.9L373.64,106.66L376.36,108.96L379.09,107.28L381.82,108.57L384.55,127.07L387.27,128.01L392.73,130.14L395.45,128.6L398.18,129.64L400.91,128.13L403.64,127.39L406.36,118.25L409.09,112.38L411.82,109.28L414.55,108.53L417.27,106.81L420,105.55L422.73,121.82L425.45,120.82L428.18,107.72L430.91,106.76L433.64,106.84L439.09,105.08L441.82,93.03L444.55,93.17L447.27,91.16L452.73,90.15L455.45,98.19L460.91,96.62L463.64,92.3L469.09,95.13L471.82,101.23L474.55,99.83L477.27,99.31L480,101.79L482.73,100.21L485.45,99.4L488.18,95.89L490.91,94.18L493.64,90.42L499.09,91.14L501.82,84.44L504.55,82.69L507.27,77.33L510,69.13L512.73,70.99L515.45,70.12L518.18,63.44L520.91,63.33L523.64,54.39L526.36,52.32L529.09,35.92L534.55,25.93L537.27,17.56L540,16" style="vector-effect: non-scaling-stroke; fill: none; stroke: rgb(99, 110, 250); stroke-opacity: 1; stroke-width: 2px; opacity: 1;"/></g><g class="points"/><g class="text"/></g></g></g><g class="overplot"/><path class="xlines-above crisp" d="M0,0" style="fill: none;"/><path class="ylines-above crisp" d="M0,0" style="fill: none;"/><g class="overlines-above"/><g class="xaxislayer-above"><g class="xtick"><text text-anchor="middle" x="0" y="433" transform="translate(126.36,0)" style="font-family: 'Open Sans', verdana, arial, sans-serif; font-size: 12px; fill: rgb(42, 63, 95); fill-opacity: 1; white-space: pre; opacity: 1;">Aug 2022</text></g><g class="xtick"><text text-anchor="middle" x="0" y="433" style="font-family: 'Open Sans', verdana, arial, sans-serif; font-size: 12px; fill: rgb(42, 63, 95); fill-opacity: 1; white-space: pre; opacity: 1;" transform="translate(210.91,0)">Sep 2022</text></g><g class="xtick"><text text-anchor="middle" x="0" y="433" style="font-family: 'Open Sans', verdana, arial, sans-serif; font-size: 12px; fill: rgb(42, 63, 95); fill-opacity: 1; white-space: pre; opacity: 1;" transform="translate(292.73,0)">Oct 2022</text></g><g class="xtick"><text text-anchor="middle" x="0" y="433" style="font-family: 'Open Sans', verdana, arial, sans-serif; font-size: 12px; fill: rgb(42, 63, 95); fill-opacity: 1; white-space: pre; opacity: 1;" transform="translate(377.27,0)">Nov 2022</text></g><g class="xtick"><text text-anchor="middle" x="0" y="433" style="font-family: 'Open Sans', verdana, arial, sans-serif; font-size: 12px; fill: rgb(42, 63, 95); fill-opacity: 1; white-space: pre; opacity: 1;" transform="translate(459.09,0)">Dec 2022</text></g><g class="xtick"><text text-anchor="middle" x="0" y="433" style="font-family: 'Open Sans', verdana, arial, sans-serif; font-size: 12px; fill: rgb(42, 63, 95); fill-opacity: 1; white-space: pre; opacity: 1;" transform="translate(543.64,0)">Jan 2023</text></g></g><g class="yaxislayer-above"><g class="ytick"><text text-anchor="end" x="79" y="4.199999999999999" transform="translate(0,420)" style="font-family: 'Open Sans', verdana, arial, sans-serif; font-size: 12px; fill: rgb(42, 63, 95); fill-opacity: 1; white-space: pre; opacity: 1;">$0</text></g><g class="ytick"><text text-anchor="end" x="79" y="4.199999999999999" style="font-family: 'Open Sans', verdana, arial, sans-serif; font-size: 12px; fill: rgb(42, 63, 95); fill-opacity: 1; white-space: pre; opacity: 1;" transform="translate(0,354.61)">$2M</text></g><g class="ytick"><text text-anchor="end" x="79" y="4.199999999999999" style="font-family: 'Open Sans', verdana, arial, sans-serif; font-size: 12px; fill: rgb(42, 63, 95); fill-opacity: 1; white-space: pre; opacity: 1;" transform="translate(0,289.22)">$4M</text></g><g class="ytick"><text text-anchor="end" x="79" y="4.199999999999999" style="font-family: 'Open Sans', verdana, arial, sans-serif; font-size: 12px; fill: rgb(42, 63, 95); fill-opacity: 1; white-space: pre; opacity: 1;" transform="translate(0,223.82999999999998)">$6M</text></g><g class="ytick"><text text-anchor="end" x="79" y="4.199999999999999" style="font-family: 'Open Sans', verdana, arial, sans-serif; font-size: 12px; fill: rgb(42, 63, 95); fill-opacity: 1; white-space: pre; opacity: 1;" transform="translate(0,158.45)">$8M</text></g></g><g class="overaxes-above"/></g></g><g class="polarlayer"/><g class="smithlayer"/><g class="ternarylayer"/><g class="geolayer"/><g class="funnelarealayer"/><g class="pielayer"/><g class="iciclelayer"/><g class="treemaplayer"/><g class="sunburstlayer"/><g class="glimages"/><defs id="topdefs-b4ce1e"><g class="clips"/></defs><g class="layer-above"><g class="imagelayer"/><g class="shapelayer"/></g><g class="infolayer"><g class="g-gtitle"><text class="gtitle" x="35" y="50" text-anchor="start" dy="0em" style="font-family: 'Open Sans', verdana, arial, sans-serif; font-size: 17px; fill: rgb(42, 63, 95); opacity: 1; font-weight: normal; white-space: pre;"><tspan class="line" dy="0em" x="35" y="50">Rubicon</tspan><tspan class="line" dy="1.3em" x="35" y="50">​<tspan style="font-size:70%" dy="-0.6em">Cumulative Net Dollar Flow since Program Announcement, Until Program End + 30 Days</tspan><tspan dy="0.42em">​</tspan></tspan></text></g><g class="g-xtitle"><text class="xtitle" x="350" y="460.8" text-anchor="middle" style="font-family: 'Open Sans', verdana, arial, sans-serif; font-size: 14px; fill: rgb(42, 63, 95); opacity: 1; font-weight: normal; white-space: pre;">Day</text></g><g class="g-ytitle"><text class="ytitle" transform="rotate(-90,30.856250000000003,260)" x="30.856250000000003" y="260" text-anchor="middle" style="font-family: 'Open Sans', verdana, arial, sans-serif; font-size: 14px; fill: rgb(42, 63, 95); opacity: 1; font-weight: normal; white-space: pre;">Cumulative Net Dollar Flow (N$F)</text></g></g></svg>