<svg class="main-svg" xmlns="http://www.w3.org/2000/svg" xmlns:xlink="http://www.w3.org/1999/xlink" width="700" height="500" style="" viewBox="0 0 700 500"><rect x="0" y="0" width="700" height="500" style="fill: rgb(255, 255, 255); fill-opacity: 1;"/><defs id="defs-4d4cd4"><g class="clips"><clipPath id="clip4d4cd4xyplot" class="plotclip"><rect width="540" height="320"/></clipPath><clipPath class="axesclip" id="clip4d4cd4x"><rect x="80" y="0" width="540" height="500"/></clipPath><clipPath class="axesclip" id="clip4d4cd4y"><rect x="0" y="100" width="700" height="320"/></clipPath><clipPath class="axesclip" id="clip4d4cd4xy"><rect x="80" y="100" width="540" height="320"/></clipPath></g><g class="gradients"/><g class="patterns"/></defs><g class="bglayer"><rect class="bg" x="80" y="100" width="540" height="320" style="fill: rgb(229, 236, 246); fill-opacity: 1; stroke-width: 0;"/></g><g class="layer-below"><g class="imagelayer"/><g class="shapelayer"/></g><g class="cartesianlayer"><g class="subplot xy"><g class="layer-subplot"><g class="shapelayer"/><g class="imagelayer"/></g><g class="minor-gridlayer"><g class="x"/><g class="y"/></g><g class="gridlayer"><g class="x"><path class="xgrid crisp" transform="translate(189.37,0)" d="M0,100v320" style="stroke: rgb(255, 255, 255); stroke-opacity: 1; stroke-width: 1px;"/><path class="xgrid crisp" transform="translate(328.35,0)" d="M0,100v320" style="stroke: rgb(255, 255, 255); stroke-opacity: 1; stroke-width: 1px;"/><path class="xgrid crisp" transform="translate(467.34,0)" d="M0,100v320" style="stroke: rgb(255, 255, 255); stroke-opacity: 1; stroke-width: 1px;"/><path class="xgrid crisp" transform="translate(601.77,0)" d="M0,100v320" style="stroke: rgb(255, 255, 255); stroke-opacity: 1; stroke-width: 1px;"/></g><g class="y"><path class="ygrid crisp" transform="translate(0,396.43)" d="M80,0h540" style="stroke: rgb(255, 255, 255); stroke-opacity: 1; stroke-width: 1px;"/><path class="ygrid crisp" transform="translate(0,348.74)" d="M80,0h540" style="stroke: rgb(255, 255, 255); stroke-opacity: 1; stroke-width: 1px;"/><path class="ygrid crisp" transform="translate(0,253.36)" d="M80,0h540" style="stroke: rgb(255, 255, 255); stroke-opacity: 1; stroke-width: 1px;"/><path class="ygrid crisp" transform="translate(0,205.67000000000002)" d="M80,0h540" style="stroke: rgb(255, 255, 255); stroke-opacity: 1; stroke-width: 1px;"/><path class="ygrid crisp" transform="translate(0,157.97)" d="M80,0h540" style="stroke: rgb(255, 255, 255); stroke-opacity: 1; stroke-width: 1px;"/><path class="ygrid crisp" transform="translate(0,110.28)" d="M80,0h540" style="stroke: rgb(255, 255, 255); stroke-opacity: 1; stroke-width: 1px;"/></g></g><g class="zerolinelayer"><path class="yzl zl crisp" transform="translate(0,301.05)" d="M80,0h540" style="stroke: rgb(255, 255, 255); stroke-opacity: 1; stroke-width: 2px;"/></g><path class="xlines-below"/><path class="ylines-below"/><g class="overlines-below"/><g class="xaxislayer-below"/><g class="yaxislayer-below"/><g class="overaxes-below"/><g class="plot" transform="translate(80,100)" clip-path="url(#clip4d4cd4xyplot)"><g class="scatterlayer mlayer"><g class="trace scatter trace51f023" style="stroke-miterlimit: 2;"><g class="fills"><g><path class="js-fill" d="M540,201.05L0,201.05L0,191.82L2.28,158.89L4.56,147.79L6.84,154.42L9.11,157.31L11.39,158.58L13.67,164.3L15.95,165.59L18.23,117.7L20.51,103.86L22.78,104.33L25.06,107.87L27.34,145.24L29.62,152.12L31.9,148.55L34.18,126.31L36.46,130.73L38.73,129.04L41.01,124.17L43.29,122L45.57,125.39L47.85,149.19L50.13,132.54L54.68,169.83L56.96,175.07L59.24,172.28L61.52,143.93L66.08,98.61L68.35,97.76L70.63,108.98L72.91,137.43L75.19,139.95L77.47,150.36L79.75,143.23L82.03,108.2L84.3,109.32L86.58,138.38L88.86,131.16L91.14,133.13L93.42,134.71L95.7,157.35L97.97,139.48L100.25,130.26L102.53,168.78L104.81,157L107.09,152.93L109.37,160.37L111.65,157.09L113.92,141.1L116.2,157.67L118.48,165.69L120.76,168.88L123.04,180.89L125.32,194.12L127.59,195.73L129.87,175.92L132.15,177.79L134.43,126.49L136.71,158.99L138.99,160.29L141.27,165.72L143.54,169.23L145.82,175.8L148.1,87.82L150.38,158.8L152.66,147.01L154.94,152.82L157.22,166.76L159.49,170.41L161.77,146.36L164.05,148.99L166.33,150.38L168.61,166.68L170.89,133.57L173.16,133.19L175.44,130.99L177.72,132.82L180,114.24L182.28,165.81L184.56,164.01L186.84,156.4L189.11,183.54L191.39,186.2L193.67,184.39L195.95,194.72L200.51,240.31L202.78,227.56L207.34,214.21L209.62,196.37L211.9,193.89L214.18,212.68L218.73,179.01L221.01,166.68L223.29,179.92L225.57,186.22L227.85,187.7L230.13,200.24L232.41,208.29L234.68,211.97L236.96,191.57L239.24,186.83L243.8,150.88L246.08,197.48L248.35,188.48L250.63,194.72L252.91,172.04L255.19,182.9L257.47,143.59L259.75,155.8L262.03,191.84L264.3,128.39L266.58,146.31L268.86,128.22L271.14,119.69L273.42,82.02L275.7,82.96L277.97,127.83L280.25,119.79L282.53,117.42L284.81,109.39L287.09,115.14L289.37,86.81L291.65,88.56L293.92,91.59L296.2,81.09L298.48,43.69L300.76,43.35L303.04,128.69L305.32,91.38L307.59,109.54L309.87,95.58L312.15,118.76L314.43,171.59L316.71,88.76L318.99,98.16L321.27,39.76L323.54,46.46L328.1,82.12L330.38,58.11L334.94,29.91L337.22,16L339.49,21.93L341.77,111.05L346.33,149.27L348.61,165.85L350.89,174.28L353.16,143.41L355.44,145.01L357.72,165.65L360,146.57L362.28,155.16L364.56,141.63L366.84,148.58L369.11,137.72L371.39,163.99L373.67,146.12L375.95,160.65L378.23,163.56L380.51,159.11L382.78,129.81L385.06,156.09L387.34,156.91L389.62,194.55L391.9,176.77L394.18,183.5L396.46,160.97L398.73,151.51L401.01,113.49L403.29,111.09L405.57,119.41L407.85,92.89L410.13,88.71L412.41,101.23L414.68,123.36L416.96,104.64L419.24,111.92L421.52,122.62L423.8,138.03L426.08,131.68L428.35,130.27L430.63,131.62L432.91,94.03L435.19,117.78L437.47,138.47L439.75,84.13L442.03,75.99L444.3,122L446.58,158.54L448.86,181.97L451.14,157.14L453.42,194.86L455.7,140.74L457.97,227.29L460.25,237.23L462.53,220.41L464.81,212.13L467.09,232.74L469.37,233.91L471.65,230.73L473.92,224.65L476.2,206.21L478.48,202.92L480.76,189.07L483.04,167.98L485.32,48.83L487.59,189.81L489.87,194.75L492.15,189.64L494.43,195.57L496.71,191.95L498.99,201.29L501.27,219.82L503.54,223.59L505.82,215.31L508.1,203.11L510.38,202.26L512.66,177.46L514.94,201.46L517.22,280.18L519.49,165.48L521.77,169.11L524.05,183.97L526.33,185.45L528.61,158.21L530.89,160.94L533.16,207.22L535.44,202L537.72,298.97L540,304" style="fill: rgb(99, 110, 250); fill-opacity: 0.5; stroke-width: 0;"/></g></g><g class="errorbars"/><g class="lines"><path class="js-line" d="M0,191.82L2.28,158.89L4.56,147.79L6.84,154.42L9.11,157.31L11.39,158.58L13.67,164.3L15.95,165.59L18.23,117.7L20.51,103.86L22.78,104.33L25.06,107.87L27.34,145.24L29.62,152.12L31.9,148.55L34.18,126.31L36.46,130.73L38.73,129.04L41.01,124.17L43.29,122L45.57,125.39L47.85,149.19L50.13,132.54L54.68,169.83L56.96,175.07L59.24,172.28L61.52,143.93L66.08,98.61L68.35,97.76L70.63,108.98L72.91,137.43L75.19,139.95L77.47,150.36L79.75,143.23L82.03,108.2L84.3,109.32L86.58,138.38L88.86,131.16L91.14,133.13L93.42,134.71L95.7,157.35L97.97,139.48L100.25,130.26L102.53,168.78L104.81,157L107.09,152.93L109.37,160.37L111.65,157.09L113.92,141.1L116.2,157.67L118.48,165.69L120.76,168.88L123.04,180.89L125.32,194.12L127.59,195.73L129.87,175.92L132.15,177.79L134.43,126.49L136.71,158.99L138.99,160.29L141.27,165.72L143.54,169.23L145.82,175.8L148.1,87.82L150.38,158.8L152.66,147.01L154.94,152.82L157.22,166.76L159.49,170.41L161.77,146.36L164.05,148.99L166.33,150.38L168.61,166.68L170.89,133.57L173.16,133.19L175.44,130.99L177.72,132.82L180,114.24L182.28,165.81L184.56,164.01L186.84,156.4L189.11,183.54L191.39,186.2L193.67,184.39L195.95,194.72L200.51,240.31L202.78,227.56L207.34,214.21L209.62,196.37L211.9,193.89L214.18,212.68L218.73,179.01L221.01,166.68L223.29,179.92L225.57,186.22L227.85,187.7L230.13,200.24L232.41,208.29L234.68,211.97L236.96,191.57L239.24,186.83L243.8,150.88L246.08,197.48L248.35,188.48L250.63,194.72L252.91,172.04L255.19,182.9L257.47,143.59L259.75,155.8L262.03,191.84L264.3,128.39L266.58,146.31L268.86,128.22L271.14,119.69L273.42,82.02L275.7,82.96L277.97,127.83L280.25,119.79L282.53,117.42L284.81,109.39L287.09,115.14L289.37,86.81L291.65,88.56L293.92,91.59L296.2,81.09L298.48,43.69L300.76,43.35L303.04,128.69L305.32,91.38L307.59,109.54L309.87,95.58L312.15,118.76L314.43,171.59L316.71,88.76L318.99,98.16L321.27,39.76L323.54,46.46L328.1,82.12L330.38,58.11L334.94,29.91L337.22,16L339.49,21.93L341.77,111.05L346.33,149.27L348.61,165.85L350.89,174.28L353.16,143.41L355.44,145.01L357.72,165.65L360,146.57L362.28,155.16L364.56,141.63L366.84,148.58L369.11,137.72L371.39,163.99L373.67,146.12L375.95,160.65L378.23,163.56L380.51,159.11L382.78,129.81L385.06,156.09L387.34,156.91L389.62,194.55L391.9,176.77L394.18,183.5L396.46,160.97L398.73,151.51L401.01,113.49L403.29,111.09L405.57,119.41L407.85,92.89L410.13,88.71L412.41,101.23L414.68,123.36L416.96,104.64L419.24,111.92L421.52,122.62L423.8,138.03L426.08,131.68L428.35,130.27L430.63,131.62L432.91,94.03L435.19,117.78L437.47,138.47L439.75,84.13L442.03,75.99L444.3,122L446.58,158.54L448.86,181.97L451.14,157.14L453.42,194.86L455.7,140.74L457.97,227.29L460.25,237.23L462.53,220.41L464.81,212.13L467.09,232.74L469.37,233.91L471.65,230.73L473.92,224.65L476.2,206.21L478.48,202.92L480.76,189.07L483.04,167.98L485.32,48.83L487.59,189.81L489.87,194.75L492.15,189.64L494.43,195.57L496.71,191.95L498.99,201.29L501.27,219.82L503.54,223.59L505.82,215.31L508.1,203.11L510.38,202.26L512.66,177.46L514.94,201.46L517.22,280.18L519.49,165.48L521.77,169.11L524.05,183.97L526.33,185.45L528.61,158.21L530.89,160.94L533.16,207.22L535.44,202L537.72,298.97L540,304" style="vector-effect: non-scaling-stroke; fill: none; stroke: rgb(99, 110, 250); stroke-opacity: 1; stroke-width: 2px; opacity: 1;"/></g><g class="points"/><g class="text"/></g></g></g><g class="overplot"/><path class="xlines-above crisp" d="M0,0" style="fill: none;"/><path class="ylines-above crisp" d="M0,0" style="fill: none;"/><g class="overlines-above"/><g class="xaxislayer-above"><g class="xtick"><text text-anchor="middle" x="0" y="433" transform="translate(189.37,0)" style="font-family: 'Open Sans', verdana, arial, sans-serif; font-size: 12px; fill: rgb(42, 63, 95); fill-opacity: 1; white-space: pre; opacity: 1;">Sep 2022</text></g><g class="xtick"><text text-anchor="middle" x="0" y="433" style="font-family: 'Open Sans', verdana, arial, sans-serif; font-size: 12px; fill: rgb(42, 63, 95); fill-opacity: 1; white-space: pre; opacity: 1;" transform="translate(328.35,0)">Nov 2022</text></g><g class="xtick"><text text-anchor="middle" x="0" y="433" style="font-family: 'Open Sans', verdana, arial, sans-serif; font-size: 12px; fill: rgb(42, 63, 95); fill-opacity: 1; white-space: pre; opacity: 1;" transform="translate(467.34,0)">Jan 2023</text></g><g class="xtick"><text text-anchor="middle" x="0" y="433" style="font-family: 'Open Sans', verdana, arial, sans-serif; font-size: 12px; fill: rgb(42, 63, 95); fill-opacity: 1; white-space: pre; opacity: 1;" transform="translate(601.77,0)">Mar 2023</text></g></g><g class="yaxislayer-above"><g class="ytick"><text text-anchor="end" x="79" y="4.199999999999999" transform="translate(0,396.43)" style="font-family: 'Open Sans', verdana, arial, sans-serif; font-size: 12px; fill: rgb(42, 63, 95); fill-opacity: 1; white-space: pre; opacity: 1;">$−100k</text></g><g class="ytick"><text text-anchor="end" x="79" y="4.199999999999999" style="font-family: 'Open Sans', verdana, arial, sans-serif; font-size: 12px; fill: rgb(42, 63, 95); fill-opacity: 1; white-space: pre; opacity: 1;" transform="translate(0,348.74)">$−50k</text></g><g class="ytick"><text text-anchor="end" x="79" y="4.199999999999999" style="font-family: 'Open Sans', verdana, arial, sans-serif; font-size: 12px; fill: rgb(42, 63, 95); fill-opacity: 1; white-space: pre; opacity: 1;" transform="translate(0,301.05)">$0</text></g><g class="ytick"><text text-anchor="end" x="79" y="4.199999999999999" style="font-family: 'Open Sans', verdana, arial, sans-serif; font-size: 12px; fill: rgb(42, 63, 95); fill-opacity: 1; white-space: pre; opacity: 1;" transform="translate(0,253.36)">$50k</text></g><g class="ytick"><text text-anchor="end" x="79" y="4.199999999999999" style="font-family: 'Open Sans', verdana, arial, sans-serif; font-size: 12px; fill: rgb(42, 63, 95); fill-opacity: 1; white-space: pre; opacity: 1;" transform="translate(0,205.67000000000002)">$100k</text></g><g class="ytick"><text text-anchor="end" x="79" y="4.199999999999999" style="font-family: 'Open Sans', verdana, arial, sans-serif; font-size: 12px; fill: rgb(42, 63, 95); fill-opacity: 1; white-space: pre; opacity: 1;" transform="translate(0,157.97)">$150k</text></g><g class="ytick"><text text-anchor="end" x="79" y="4.199999999999999" style="font-family: 'Open Sans', verdana, arial, sans-serif; font-size: 12px; fill: rgb(42, 63, 95); fill-opacity: 1; white-space: pre; opacity: 1;" transform="translate(0,110.28)">$200k</text></g></g><g class="overaxes-above"/></g></g><g class="polarlayer"/><g class="smithlayer"/><g class="ternarylayer"/><g class="geolayer"/><g class="funnelarealayer"/><g class="pielayer"/><g class="iciclelayer"/><g class="treemaplayer"/><g class="sunburstlayer"/><g class="glimages"/><defs id="topdefs-4d4cd4"><g class="clips"/></defs><g class="layer-above"><g class="imagelayer"/><g class="shapelayer"/></g><g class="infolayer"><g class="g-gtitle"><text class="gtitle" x="35" y="50" text-anchor="start" dy="0em" style="font-family: 'Open Sans', verdana, arial, sans-serif; font-size: 17px; fill: rgb(42, 63, 95); opacity: 1; font-weight: normal; white-space: pre;"><tspan class="line" dy="0em" x="35" y="50">Thales</tspan><tspan class="line" dy="1.3em" x="35" y="50">​<tspan style="font-size:70%" dy="-0.6em">Cumulative Net Flows since Program Announcement, Until Program End + 30 Days</tspan><tspan dy="0.42em">​</tspan></tspan></text></g><g class="g-xtitle"><text class="xtitle" x="350" y="460.8" text-anchor="middle" style="font-family: 'Open Sans', verdana, arial, sans-serif; font-size: 14px; fill: rgb(42, 63, 95); opacity: 1; font-weight: normal; white-space: pre;">Day</text></g><g class="g-ytitle"><text class="ytitle" transform="rotate(-90,14.496875000000003,260)" x="14.496875000000003" y="260" text-anchor="middle" style="font-family: 'Open Sans', verdana, arial, sans-serif; font-size: 14px; fill: rgb(42, 63, 95); opacity: 1; font-weight: normal; white-space: pre;">Cumulative Net Flows (USD)</text></g></g></svg>