<svg class="main-svg" xmlns="http://www.w3.org/2000/svg" xmlns:xlink="http://www.w3.org/1999/xlink" width="700" height="500" style="" viewBox="0 0 700 500"><rect x="0" y="0" width="700" height="500" style="fill: rgb(255, 255, 255); fill-opacity: 1;"/><defs id="defs-8dc467"><g class="clips"><clipPath id="clip8dc467xyplot" class="plotclip"><rect width="540" height="320"/></clipPath><clipPath class="axesclip" id="clip8dc467x"><rect x="80" y="0" width="540" height="500"/></clipPath><clipPath class="axesclip" id="clip8dc467y"><rect x="0" y="100" width="700" height="320"/></clipPath><clipPath class="axesclip" id="clip8dc467xy"><rect x="80" y="100" width="540" height="320"/></clipPath></g><g class="gradients"/><g class="patterns"/></defs><g class="bglayer"><rect class="bg" x="80" y="100" width="540" height="320" style="fill: rgb(229, 236, 246); fill-opacity: 1; stroke-width: 0;"/></g><g class="layer-below"><g class="imagelayer"/><g class="shapelayer"/></g><g class="cartesianlayer"><g class="subplot xy"><g class="layer-subplot"><g class="shapelayer"/><g class="imagelayer"/></g><g class="minor-gridlayer"><g class="x"/><g class="y"/></g><g class="gridlayer"><g class="x"><path class="xgrid crisp" transform="translate(133.04,0)" d="M0,100v320" style="stroke: rgb(255, 255, 255); stroke-opacity: 1; stroke-width: 1px;"/><path class="xgrid crisp" transform="translate(200.54000000000002,0)" d="M0,100v320" style="stroke: rgb(255, 255, 255); stroke-opacity: 1; stroke-width: 1px;"/><path class="xgrid crisp" transform="translate(268.03999999999996,0)" d="M0,100v320" style="stroke: rgb(255, 255, 255); stroke-opacity: 1; stroke-width: 1px;"/><path class="xgrid crisp" transform="translate(335.53999999999996,0)" d="M0,100v320" style="stroke: rgb(255, 255, 255); stroke-opacity: 1; stroke-width: 1px;"/><path class="xgrid crisp" transform="translate(403.04,0)" d="M0,100v320" style="stroke: rgb(255, 255, 255); stroke-opacity: 1; stroke-width: 1px;"/><path class="xgrid crisp" transform="translate(470.54,0)" d="M0,100v320" style="stroke: rgb(255, 255, 255); stroke-opacity: 1; stroke-width: 1px;"/><path class="xgrid crisp" transform="translate(538.04,0)" d="M0,100v320" style="stroke: rgb(255, 255, 255); stroke-opacity: 1; stroke-width: 1px;"/><path class="xgrid crisp" transform="translate(605.54,0)" d="M0,100v320" style="stroke: rgb(255, 255, 255); stroke-opacity: 1; stroke-width: 1px;"/></g><g class="y"><path class="ygrid crisp" transform="translate(0,328.68)" d="M80,0h540" style="stroke: rgb(255, 255, 255); stroke-opacity: 1; stroke-width: 1px;"/><path class="ygrid crisp" transform="translate(0,280)" d="M80,0h540" style="stroke: rgb(255, 255, 255); stroke-opacity: 1; stroke-width: 1px;"/><path class="ygrid crisp" transform="translate(0,231.31)" d="M80,0h540" style="stroke: rgb(255, 255, 255); stroke-opacity: 1; stroke-width: 1px;"/><path class="ygrid crisp" transform="translate(0,182.63)" d="M80,0h540" style="stroke: rgb(255, 255, 255); stroke-opacity: 1; stroke-width: 1px;"/><path class="ygrid crisp" transform="translate(0,133.94)" d="M80,0h540" style="stroke: rgb(255, 255, 255); stroke-opacity: 1; stroke-width: 1px;"/></g></g><g class="zerolinelayer"><path class="yzl zl crisp" transform="translate(0,377.36)" d="M80,0h540" style="stroke: rgb(255, 255, 255); stroke-opacity: 1; stroke-width: 2px;"/></g><path class="xlines-below"/><path class="ylines-below"/><g class="overlines-below"/><g class="xaxislayer-below"/><g class="yaxislayer-below"/><g class="overaxes-below"/><g class="plot" transform="translate(80,100)" clip-path="url(#clip8dc467xyplot)"><g class="scatterlayer mlayer"><g class="trace scatter tracec4a7b7" style="stroke-miterlimit: 2;"><g class="fills"><g><path class="js-fill" d="M540,277.36L0,277.36L0,277.93L4.82,280.43L9.64,280.08L14.46,299.69L19.29,297.28L24.11,297.16L28.93,294.73L33.75,304L38.57,300.3L43.39,297.81L48.21,294.27L53.04,292.17L57.86,294.21L62.68,289.14L67.5,286.06L72.32,279.7L77.14,279.81L81.96,272.02L86.79,266.44L91.61,257.48L96.43,259.47L101.25,256.39L106.07,254.32L110.89,231.33L115.71,228.5L120.54,223.56L125.36,224.83L130.18,224.17L135,221.36L139.82,218.42L144.64,217.49L149.46,212.83L154.29,211.09L159.11,204.01L163.93,200.89L168.75,200.83L173.57,193.25L178.39,164.67L183.21,152.69L188.04,138.67L192.86,147.85L197.68,139.79L202.5,71.58L207.32,90.76L212.14,93.96L216.96,108.73L221.79,106.99L226.61,104.53L231.43,99.99L236.25,97.09L241.07,101.31L245.89,70.77L250.71,70.55L255.54,63.93L260.36,54.31L265.18,48.72L270,53.94L274.82,84.6L279.64,95.53L284.46,120.37L289.29,120.74L294.11,162.44L298.93,160.36L303.75,160.36L308.57,165.33L313.39,153.65L318.21,157.2L323.04,143.1L327.86,145.05L332.68,145.71L337.5,145.25L342.32,138.39L347.14,132.85L351.96,125.8L356.79,117.19L361.61,122.09L366.43,117.68L371.25,117.8L376.07,116.19L380.89,105.22L385.71,103.18L390.54,93.27L395.36,96.59L400.18,95.8L405,85.39L409.82,83.12L414.64,63.44L419.46,61.25L424.29,52.46L429.11,51.84L433.93,66.73L438.75,55.93L443.57,48.43L448.39,50.35L453.21,42.86L458.04,47.22L462.86,39.16L467.68,43.41L472.5,40.08L477.32,26.19L482.14,24.16L486.96,29.71L491.79,28.84L496.61,27.32L501.43,29.39L511.07,23.54L515.89,30.58L520.71,40.8L525.54,40.84L530.36,41.66L535.18,30.97L540,16" style="fill: rgb(99, 110, 250); fill-opacity: 0.5; stroke-width: 0;"/></g></g><g class="errorbars"/><g class="lines"><path class="js-line" d="M0,277.93L4.82,280.43L9.64,280.08L14.46,299.69L19.29,297.28L24.11,297.16L28.93,294.73L33.75,304L38.57,300.3L43.39,297.81L48.21,294.27L53.04,292.17L57.86,294.21L62.68,289.14L67.5,286.06L72.32,279.7L77.14,279.81L81.96,272.02L86.79,266.44L91.61,257.48L96.43,259.47L101.25,256.39L106.07,254.32L110.89,231.33L115.71,228.5L120.54,223.56L125.36,224.83L130.18,224.17L135,221.36L139.82,218.42L144.64,217.49L149.46,212.83L154.29,211.09L159.11,204.01L163.93,200.89L168.75,200.83L173.57,193.25L178.39,164.67L183.21,152.69L188.04,138.67L192.86,147.85L197.68,139.79L202.5,71.58L207.32,90.76L212.14,93.96L216.96,108.73L221.79,106.99L226.61,104.53L231.43,99.99L236.25,97.09L241.07,101.31L245.89,70.77L250.71,70.55L255.54,63.93L260.36,54.31L265.18,48.72L270,53.94L274.82,84.6L279.64,95.53L284.46,120.37L289.29,120.74L294.11,162.44L298.93,160.36L303.75,160.36L308.57,165.33L313.39,153.65L318.21,157.2L323.04,143.1L327.86,145.05L332.68,145.71L337.5,145.25L342.32,138.39L347.14,132.85L351.96,125.8L356.79,117.19L361.61,122.09L366.43,117.68L371.25,117.8L376.07,116.19L380.89,105.22L385.71,103.18L390.54,93.27L395.36,96.59L400.18,95.8L405,85.39L409.82,83.12L414.64,63.44L419.46,61.25L424.29,52.46L429.11,51.84L433.93,66.73L438.75,55.93L443.57,48.43L448.39,50.35L453.21,42.86L458.04,47.22L462.86,39.16L467.68,43.41L472.5,40.08L477.32,26.19L482.14,24.16L486.96,29.71L491.79,28.84L496.61,27.32L501.43,29.39L511.07,23.54L515.89,30.58L520.71,40.8L525.54,40.84L530.36,41.66L535.18,30.97L540,16" style="vector-effect: non-scaling-stroke; fill: none; stroke: rgb(99, 110, 250); stroke-opacity: 1; stroke-width: 2px; opacity: 1;"/></g><g class="points"/><g class="text"/></g></g></g><g class="overplot"/><path class="xlines-above crisp" d="M0,0" style="fill: none;"/><path class="ylines-above crisp" d="M0,0" style="fill: none;"/><g class="overlines-above"/><g class="xaxislayer-above"><g class="xtick"><text text-anchor="middle" x="0" y="433" transform="translate(133.04,0)" style="font-family: 'Open Sans', verdana, arial, sans-serif; font-size: 12px; fill: rgb(42, 63, 95); fill-opacity: 1; white-space: pre; opacity: 1;"><tspan class="line" dy="0em" x="0" y="433">Sep 25</tspan><tspan class="line" dy="1.3em" x="0" y="433">2022</tspan></text></g><g class="xtick"><text text-anchor="middle" x="0" y="433" style="font-family: 'Open Sans', verdana, arial, sans-serif; font-size: 12px; fill: rgb(42, 63, 95); fill-opacity: 1; white-space: pre; opacity: 1;" transform="translate(200.54000000000002,0)">Oct 9</text></g><g class="xtick"><text text-anchor="middle" x="0" y="433" style="font-family: 'Open Sans', verdana, arial, sans-serif; font-size: 12px; fill: rgb(42, 63, 95); fill-opacity: 1; white-space: pre; opacity: 1;" transform="translate(268.03999999999996,0)">Oct 23</text></g><g class="xtick"><text text-anchor="middle" x="0" y="433" style="font-family: 'Open Sans', verdana, arial, sans-serif; font-size: 12px; fill: rgb(42, 63, 95); fill-opacity: 1; white-space: pre; opacity: 1;" transform="translate(335.53999999999996,0)">Nov 6</text></g><g class="xtick"><text text-anchor="middle" x="0" y="433" style="font-family: 'Open Sans', verdana, arial, sans-serif; font-size: 12px; fill: rgb(42, 63, 95); fill-opacity: 1; white-space: pre; opacity: 1;" transform="translate(403.04,0)">Nov 20</text></g><g class="xtick"><text text-anchor="middle" x="0" y="433" style="font-family: 'Open Sans', verdana, arial, sans-serif; font-size: 12px; fill: rgb(42, 63, 95); fill-opacity: 1; white-space: pre; opacity: 1;" transform="translate(470.54,0)">Dec 4</text></g><g class="xtick"><text text-anchor="middle" x="0" y="433" style="font-family: 'Open Sans', verdana, arial, sans-serif; font-size: 12px; fill: rgb(42, 63, 95); fill-opacity: 1; white-space: pre; opacity: 1;" transform="translate(538.04,0)">Dec 18</text></g><g class="xtick"><text text-anchor="middle" x="0" y="433" style="font-family: 'Open Sans', verdana, arial, sans-serif; font-size: 12px; fill: rgb(42, 63, 95); fill-opacity: 1; white-space: pre; opacity: 1;" transform="translate(605.54,0)"><tspan class="line" dy="0em" x="0" y="433">Jan 1</tspan><tspan class="line" dy="1.3em" x="0" y="433">2023</tspan></text></g></g><g class="yaxislayer-above"><g class="ytick"><text text-anchor="end" x="79" y="4.199999999999999" transform="translate(0,377.36)" style="font-family: 'Open Sans', verdana, arial, sans-serif; font-size: 12px; fill: rgb(42, 63, 95); fill-opacity: 1; white-space: pre; opacity: 1;">$0</text></g><g class="ytick"><text text-anchor="end" x="79" y="4.199999999999999" style="font-family: 'Open Sans', verdana, arial, sans-serif; font-size: 12px; fill: rgb(42, 63, 95); fill-opacity: 1; white-space: pre; opacity: 1;" transform="translate(0,328.68)">$100k</text></g><g class="ytick"><text text-anchor="end" x="79" y="4.199999999999999" style="font-family: 'Open Sans', verdana, arial, sans-serif; font-size: 12px; fill: rgb(42, 63, 95); fill-opacity: 1; white-space: pre; opacity: 1;" transform="translate(0,280)">$200k</text></g><g class="ytick"><text text-anchor="end" x="79" y="4.199999999999999" style="font-family: 'Open Sans', verdana, arial, sans-serif; font-size: 12px; fill: rgb(42, 63, 95); fill-opacity: 1; white-space: pre; opacity: 1;" transform="translate(0,231.31)">$300k</text></g><g class="ytick"><text text-anchor="end" x="79" y="4.199999999999999" style="font-family: 'Open Sans', verdana, arial, sans-serif; font-size: 12px; fill: rgb(42, 63, 95); fill-opacity: 1; white-space: pre; opacity: 1;" transform="translate(0,182.63)">$400k</text></g><g class="ytick"><text text-anchor="end" x="79" y="4.199999999999999" style="font-family: 'Open Sans', verdana, arial, sans-serif; font-size: 12px; fill: rgb(42, 63, 95); fill-opacity: 1; white-space: pre; opacity: 1;" transform="translate(0,133.94)">$500k</text></g></g><g class="overaxes-above"/></g></g><g class="polarlayer"/><g class="smithlayer"/><g class="ternarylayer"/><g class="geolayer"/><g class="funnelarealayer"/><g class="pielayer"/><g class="iciclelayer"/><g class="treemaplayer"/><g class="sunburstlayer"/><g class="glimages"/><defs id="topdefs-8dc467"><g class="clips"/></defs><g class="layer-above"><g class="imagelayer"/><g class="shapelayer"/></g><g class="infolayer"><g class="g-gtitle"><text class="gtitle" x="35" y="50" text-anchor="start" dy="0em" style="font-family: 'Open Sans', verdana, arial, sans-serif; font-size: 17px; fill: rgb(42, 63, 95); opacity: 1; font-weight: normal; white-space: pre;"><tspan class="line" dy="0em" x="35" y="50">Polynomial Protocol</tspan><tspan class="line" dy="1.3em" x="35" y="50">​<tspan style="font-size:70%" dy="-0.6em">Cumulative Net Dollar Flow since Program Announcement, Until Program End + 30 Days</tspan><tspan dy="0.42em">​</tspan></tspan></text></g><g class="g-xtitle"><text class="xtitle" x="350" y="476.409375" text-anchor="middle" style="font-family: 'Open Sans', verdana, arial, sans-serif; font-size: 14px; fill: rgb(42, 63, 95); opacity: 1; font-weight: normal; white-space: pre;">Day</text></g><g class="g-ytitle"><text class="ytitle" transform="rotate(-90,21.496875000000003,260)" x="21.496875000000003" y="260" text-anchor="middle" style="font-family: 'Open Sans', verdana, arial, sans-serif; font-size: 14px; fill: rgb(42, 63, 95); opacity: 1; font-weight: normal; white-space: pre;">Cumulative Net Dollar Flow (N$F)</text></g></g></svg>