<svg class="main-svg" xmlns="http://www.w3.org/2000/svg" xmlns:xlink="http://www.w3.org/1999/xlink" width="700" height="500" style="" viewBox="0 0 700 500"><rect x="0" y="0" width="700" height="500" style="fill: rgb(255, 255, 255); fill-opacity: 1;"/><defs id="defs-94a849"><g class="clips"><clipPath id="clip94a849xyplot" class="plotclip"><rect width="540" height="320"/></clipPath><clipPath class="axesclip" id="clip94a849x"><rect x="80" y="0" width="540" height="500"/></clipPath><clipPath class="axesclip" id="clip94a849y"><rect x="0" y="100" width="700" height="320"/></clipPath><clipPath class="axesclip" id="clip94a849xy"><rect x="80" y="100" width="540" height="320"/></clipPath></g><g class="gradients"/><g class="patterns"/></defs><g class="bglayer"><rect class="bg" x="80" y="100" width="540" height="320" style="fill: rgb(229, 236, 246); fill-opacity: 1; stroke-width: 0;"/></g><g class="layer-below"><g class="imagelayer"/><g class="shapelayer"/></g><g class="cartesianlayer"><g class="subplot xy"><g class="layer-subplot"><g class="shapelayer"/><g class="imagelayer"/></g><g class="minor-gridlayer"><g class="x"/><g class="y"/></g><g class="gridlayer"><g class="x"><path class="xgrid crisp" transform="translate(167,0)" d="M0,100v320" style="stroke: rgb(255, 255, 255); stroke-opacity: 1; stroke-width: 1px;"/><path class="xgrid crisp" transform="translate(257,0)" d="M0,100v320" style="stroke: rgb(255, 255, 255); stroke-opacity: 1; stroke-width: 1px;"/><path class="xgrid crisp" transform="translate(350,0)" d="M0,100v320" style="stroke: rgb(255, 255, 255); stroke-opacity: 1; stroke-width: 1px;"/><path class="xgrid crisp" transform="translate(443,0)" d="M0,100v320" style="stroke: rgb(255, 255, 255); stroke-opacity: 1; stroke-width: 1px;"/><path class="xgrid crisp" transform="translate(527,0)" d="M0,100v320" style="stroke: rgb(255, 255, 255); stroke-opacity: 1; stroke-width: 1px;"/></g><g class="y"><path class="ygrid crisp" transform="translate(0,348.23)" d="M80,0h540" style="stroke: rgb(255, 255, 255); stroke-opacity: 1; stroke-width: 1px;"/><path class="ygrid crisp" transform="translate(0,276.47)" d="M80,0h540" style="stroke: rgb(255, 255, 255); stroke-opacity: 1; stroke-width: 1px;"/><path class="ygrid crisp" transform="translate(0,204.7)" d="M80,0h540" style="stroke: rgb(255, 255, 255); stroke-opacity: 1; stroke-width: 1px;"/><path class="ygrid crisp" transform="translate(0,132.94)" d="M80,0h540" style="stroke: rgb(255, 255, 255); stroke-opacity: 1; stroke-width: 1px;"/></g></g><g class="zerolinelayer"><path class="yzl zl crisp" transform="translate(0,420)" d="M80,0h540" style="stroke: rgb(255, 255, 255); stroke-opacity: 1; stroke-width: 2px;"/></g><path class="xlines-below"/><path class="ylines-below"/><g class="overlines-below"/><g class="xaxislayer-below"/><g class="yaxislayer-below"/><g class="overaxes-below"/><g class="plot" transform="translate(80,100)" clip-path="url(#clip94a849xyplot)"><g class="scatterlayer mlayer"><g class="trace scatter tracecd1313" style="stroke-miterlimit: 2;"><g class="fills"><g><path class="js-fill" d="M540,320L0,320L0,317.52L3,317.52L6,306.99L12,300.94L15,293.99L21,293.64L24,293.21L27,292.72L30,276.41L33,255.71L36,255.56L39,255.29L42,252.37L45,249.55L48,249.52L54,248.44L57,249.53L60,247.29L63,238.4L66,224.67L69,216.53L72,209.26L75,207.53L78,207.02L81,204.16L84,199.51L87,197.29L90,175.56L93,182.5L99,181.29L102,187.65L108,199.41L111,199.71L114,202.9L117,202.92L123,203.03L126,205.65L129,206.34L132,206.2L135,207.16L138,210.75L156,211.43L159,210.75L165,209.1L168,207.07L183,206.07L186,204.71L189,208.9L192,226.75L195,226.69L198,228.11L201,256.16L204,256.14L207,254.99L210,254.93L213,256.11L216,254.6L222,254.99L225,254.63L240,252.71L243,251.98L252,251.56L255,248.04L258,248.88L261,216.2L264,215.75L267,212.03L270,214.44L273,212.69L276,209.73L279,211.12L282,214.19L285,213.35L288,213.22L291,230.28L294,226.38L297,226.12L303,224.69L306,222.4L309,201.59L312,201.94L324,200.89L327,201.55L330,195.29L333,195.13L336,194.68L339,192.51L342,191.62L345,183.08L348,178.65L351,177.75L354,201.54L357,190.8L360,181.28L363,181.89L366,148.05L369,129.27L372,125.77L375,125.16L378,125.13L381,123.16L384,120.38L387,111.47L393,108.36L396,92.88L399,87.75L402,86.54L405,72.85L408,101.1L411,108.14L414,108.33L420,109.26L423,109.14L426,109.64L429,83.06L432,76.34L435,79.38L438,63.69L441,55.98L444,48.75L447,45.6L450,36.13L453,33.99L456,37.19L459,37.17L462,22.28L465,16L468,17.42L471,37L477,46.33L480,49.01L483,50.06L486,57.26L489,56.69L492,44.28L495,57.8L498,78.01L504,72.33L507,126.07L510,125.64L513,123.77L516,124.19L519,117.01L525,116.5L528,141.89L534,160.61L537,158.46L540,156.22" style="fill: rgb(99, 110, 250); fill-opacity: 0.5; stroke-width: 0;"/></g></g><g class="errorbars"/><g class="lines"><path class="js-line" d="M0,317.52L3,317.52L6,306.99L12,300.94L15,293.99L21,293.64L24,293.21L27,292.72L30,276.41L33,255.71L36,255.56L39,255.29L42,252.37L45,249.55L48,249.52L54,248.44L57,249.53L60,247.29L63,238.4L66,224.67L69,216.53L72,209.26L75,207.53L78,207.02L81,204.16L84,199.51L87,197.29L90,175.56L93,182.5L99,181.29L102,187.65L108,199.41L111,199.71L114,202.9L117,202.92L123,203.03L126,205.65L129,206.34L132,206.2L135,207.16L138,210.75L156,211.43L159,210.75L165,209.1L168,207.07L183,206.07L186,204.71L189,208.9L192,226.75L195,226.69L198,228.11L201,256.16L204,256.14L207,254.99L210,254.93L213,256.11L216,254.6L222,254.99L225,254.63L240,252.71L243,251.98L252,251.56L255,248.04L258,248.88L261,216.2L264,215.75L267,212.03L270,214.44L273,212.69L276,209.73L279,211.12L282,214.19L285,213.35L288,213.22L291,230.28L294,226.38L297,226.12L303,224.69L306,222.4L309,201.59L312,201.94L324,200.89L327,201.55L330,195.29L333,195.13L336,194.68L339,192.51L342,191.62L345,183.08L348,178.65L351,177.75L354,201.54L357,190.8L360,181.28L363,181.89L366,148.05L369,129.27L372,125.77L375,125.16L378,125.13L381,123.16L384,120.38L387,111.47L393,108.36L396,92.88L399,87.75L402,86.54L405,72.85L408,101.1L411,108.14L414,108.33L420,109.26L423,109.14L426,109.64L429,83.06L432,76.34L435,79.38L438,63.69L441,55.98L444,48.75L447,45.6L450,36.13L453,33.99L456,37.19L459,37.17L462,22.28L465,16L468,17.42L471,37L477,46.33L480,49.01L483,50.06L486,57.26L489,56.69L492,44.28L495,57.8L498,78.01L504,72.33L507,126.07L510,125.64L513,123.77L516,124.19L519,117.01L525,116.5L528,141.89L534,160.61L537,158.46L540,156.22" style="vector-effect: non-scaling-stroke; fill: none; stroke: rgb(99, 110, 250); stroke-opacity: 1; stroke-width: 2px; opacity: 1;"/></g><g class="points"/><g class="text"/></g></g></g><g class="overplot"/><path class="xlines-above crisp" d="M0,0" style="fill: none;"/><path class="ylines-above crisp" d="M0,0" style="fill: none;"/><g class="overlines-above"/><g class="xaxislayer-above"><g class="xtick"><text text-anchor="middle" x="0" y="433" transform="translate(167,0)" style="font-family: 'Open Sans', verdana, arial, sans-serif; font-size: 12px; fill: rgb(42, 63, 95); fill-opacity: 1; white-space: pre; opacity: 1;">Nov 2022</text></g><g class="xtick"><text text-anchor="middle" x="0" y="433" style="font-family: 'Open Sans', verdana, arial, sans-serif; font-size: 12px; fill: rgb(42, 63, 95); fill-opacity: 1; white-space: pre; opacity: 1;" transform="translate(257,0)">Dec 2022</text></g><g class="xtick"><text text-anchor="middle" x="0" y="433" style="font-family: 'Open Sans', verdana, arial, sans-serif; font-size: 12px; fill: rgb(42, 63, 95); fill-opacity: 1; white-space: pre; opacity: 1;" transform="translate(350,0)">Jan 2023</text></g><g class="xtick"><text text-anchor="middle" x="0" y="433" style="font-family: 'Open Sans', verdana, arial, sans-serif; font-size: 12px; fill: rgb(42, 63, 95); fill-opacity: 1; white-space: pre; opacity: 1;" transform="translate(443,0)">Feb 2023</text></g><g class="xtick"><text text-anchor="middle" x="0" y="433" style="font-family: 'Open Sans', verdana, arial, sans-serif; font-size: 12px; fill: rgb(42, 63, 95); fill-opacity: 1; white-space: pre; opacity: 1;" transform="translate(527,0)">Mar 2023</text></g><g class="xtick"><text text-anchor="middle" x="0" y="433" style="font-family: 'Open Sans', verdana, arial, sans-serif; font-size: 12px; fill: rgb(42, 63, 95); fill-opacity: 1; white-space: pre; opacity: 1;" transform="translate(620,0)">Apr 2023</text></g></g><g class="yaxislayer-above"><g class="ytick"><text text-anchor="end" x="79" y="4.199999999999999" transform="translate(0,420)" style="font-family: 'Open Sans', verdana, arial, sans-serif; font-size: 12px; fill: rgb(42, 63, 95); fill-opacity: 1; white-space: pre; opacity: 1;">$0</text></g><g class="ytick"><text text-anchor="end" x="79" y="4.199999999999999" style="font-family: 'Open Sans', verdana, arial, sans-serif; font-size: 12px; fill: rgb(42, 63, 95); fill-opacity: 1; white-space: pre; opacity: 1;" transform="translate(0,348.23)">$0.5M</text></g><g class="ytick"><text text-anchor="end" x="79" y="4.199999999999999" style="font-family: 'Open Sans', verdana, arial, sans-serif; font-size: 12px; fill: rgb(42, 63, 95); fill-opacity: 1; white-space: pre; opacity: 1;" transform="translate(0,276.47)">$1M</text></g><g class="ytick"><text text-anchor="end" x="79" y="4.199999999999999" style="font-family: 'Open Sans', verdana, arial, sans-serif; font-size: 12px; fill: rgb(42, 63, 95); fill-opacity: 1; white-space: pre; opacity: 1;" transform="translate(0,204.7)">$1.5M</text></g><g class="ytick"><text text-anchor="end" x="79" y="4.199999999999999" style="font-family: 'Open Sans', verdana, arial, sans-serif; font-size: 12px; fill: rgb(42, 63, 95); fill-opacity: 1; white-space: pre; opacity: 1;" transform="translate(0,132.94)">$2M</text></g></g><g class="overaxes-above"/></g></g><g class="polarlayer"/><g class="smithlayer"/><g class="ternarylayer"/><g class="geolayer"/><g class="funnelarealayer"/><g class="pielayer"/><g class="iciclelayer"/><g class="treemaplayer"/><g class="sunburstlayer"/><g class="glimages"/><defs id="topdefs-94a849"><g class="clips"/></defs><g class="layer-above"><g class="imagelayer"/><g class="shapelayer"/></g><g class="infolayer"><g class="g-gtitle"><text class="gtitle" x="35" y="50" text-anchor="start" dy="0em" style="font-family: 'Open Sans', verdana, arial, sans-serif; font-size: 17px; fill: rgb(42, 63, 95); opacity: 1; font-weight: normal; white-space: pre;"><tspan class="line" dy="0em" x="35" y="50">Beefy - BIFI/WETH: Velodrome</tspan><tspan class="line" dy="1.3em" x="35" y="50">​<tspan style="font-size:70%" dy="-0.6em">Cumulative Net Flows since Program Announcement, Until Program End + 30 Days</tspan><tspan dy="0.42em">​</tspan></tspan></text></g><g class="g-xtitle"><text class="xtitle" x="350" y="460.8" text-anchor="middle" style="font-family: 'Open Sans', verdana, arial, sans-serif; font-size: 14px; fill: rgb(42, 63, 95); opacity: 1; font-weight: normal; white-space: pre;">Day</text></g><g class="g-ytitle"><text class="ytitle" transform="rotate(-90,20.840625000000003,260)" x="20.840625000000003" y="260" text-anchor="middle" style="font-family: 'Open Sans', verdana, arial, sans-serif; font-size: 14px; fill: rgb(42, 63, 95); opacity: 1; font-weight: normal; white-space: pre;">Cumulative Net Flows (USD)</text></g></g></svg>