<svg class="main-svg" xmlns="http://www.w3.org/2000/svg" xmlns:xlink="http://www.w3.org/1999/xlink" width="700" height="500" style="" viewBox="0 0 700 500"><rect x="0" y="0" width="700" height="500" style="fill: rgb(255, 255, 255); fill-opacity: 1;"/><defs id="defs-4ae980"><g class="clips"><clipPath id="clip4ae980xyplot" class="plotclip"><rect width="540" height="320"/></clipPath><clipPath class="axesclip" id="clip4ae980x"><rect x="80" y="0" width="540" height="500"/></clipPath><clipPath class="axesclip" id="clip4ae980y"><rect x="0" y="100" width="700" height="320"/></clipPath><clipPath class="axesclip" id="clip4ae980xy"><rect x="80" y="100" width="540" height="320"/></clipPath></g><g class="gradients"/><g class="patterns"/></defs><g class="bglayer"><rect class="bg" x="80" y="100" width="540" height="320" style="fill: rgb(229, 236, 246); fill-opacity: 1; stroke-width: 0;"/></g><g class="layer-below"><g class="imagelayer"/><g class="shapelayer"/></g><g class="cartesianlayer"><g class="subplot xy"><g class="layer-subplot"><g class="shapelayer"/><g class="imagelayer"/></g><g class="minor-gridlayer"><g class="x"/><g class="y"/></g><g class="gridlayer"><g class="x"><path class="xgrid crisp" transform="translate(145.34,0)" d="M0,100v320" style="stroke: rgb(255, 255, 255); stroke-opacity: 1; stroke-width: 1px;"/><path class="xgrid crisp" transform="translate(264.48,0)" d="M0,100v320" style="stroke: rgb(255, 255, 255); stroke-opacity: 1; stroke-width: 1px;"/><path class="xgrid crisp" transform="translate(379.79,0)" d="M0,100v320" style="stroke: rgb(255, 255, 255); stroke-opacity: 1; stroke-width: 1px;"/><path class="xgrid crisp" transform="translate(498.93,0)" d="M0,100v320" style="stroke: rgb(255, 255, 255); stroke-opacity: 1; stroke-width: 1px;"/><path class="xgrid crisp" transform="translate(614.24,0)" d="M0,100v320" style="stroke: rgb(255, 255, 255); stroke-opacity: 1; stroke-width: 1px;"/></g><g class="y"><path class="ygrid crisp" transform="translate(0,384.11)" d="M80,0h540" style="stroke: rgb(255, 255, 255); stroke-opacity: 1; stroke-width: 1px;"/><path class="ygrid crisp" transform="translate(0,348.22)" d="M80,0h540" style="stroke: rgb(255, 255, 255); stroke-opacity: 1; stroke-width: 1px;"/><path class="ygrid crisp" transform="translate(0,312.33000000000004)" d="M80,0h540" style="stroke: rgb(255, 255, 255); stroke-opacity: 1; stroke-width: 1px;"/><path class="ygrid crisp" transform="translate(0,276.44)" d="M80,0h540" style="stroke: rgb(255, 255, 255); stroke-opacity: 1; stroke-width: 1px;"/><path class="ygrid crisp" transform="translate(0,240.55)" d="M80,0h540" style="stroke: rgb(255, 255, 255); stroke-opacity: 1; stroke-width: 1px;"/><path class="ygrid crisp" transform="translate(0,204.65)" d="M80,0h540" style="stroke: rgb(255, 255, 255); stroke-opacity: 1; stroke-width: 1px;"/><path class="ygrid crisp" transform="translate(0,168.76)" d="M80,0h540" style="stroke: rgb(255, 255, 255); stroke-opacity: 1; stroke-width: 1px;"/><path class="ygrid crisp" transform="translate(0,132.87)" d="M80,0h540" style="stroke: rgb(255, 255, 255); stroke-opacity: 1; stroke-width: 1px;"/></g></g><g class="zerolinelayer"><path class="yzl zl crisp" transform="translate(0,420)" d="M80,0h540" style="stroke: rgb(255, 255, 255); stroke-opacity: 1; stroke-width: 2px;"/></g><path class="xlines-below"/><path class="ylines-below"/><g class="overlines-below"/><g class="xaxislayer-below"/><g class="yaxislayer-below"/><g class="overaxes-below"/><g class="plot" transform="translate(80,100)" clip-path="url(#clip4ae980xyplot)"><g class="scatterlayer mlayer"><g class="trace scatter tracef7518e" style="stroke-miterlimit: 2;"><g class="fills"><g><path class="js-fill" d="M540,320L0,320L0,319.9L7.69,314.54L11.53,313.24L15.37,310.76L19.22,310.14L23.06,308.94L26.9,293.98L30.75,290.02L34.59,289.53L38.43,282.94L42.28,281.97L46.12,278.8L49.96,278.84L57.65,268.42L61.49,265.94L65.34,261.37L69.18,244.94L73.02,243.97L76.87,248.32L80.71,242.08L84.56,147.69L88.4,135.08L92.24,103.35L96.09,91.03L99.93,105.66L103.77,110.38L107.62,111.4L111.46,114.02L115.3,114.89L119.15,116.22L122.99,119.3L126.83,122.59L130.68,141.52L138.36,159.09L142.21,156.18L146.05,156.04L149.89,186.03L153.74,182.76L157.58,184.53L165.27,185.36L169.11,184.84L172.95,185.51L176.8,184.29L180.64,184.13L184.48,183.06L188.33,180.33L192.17,179.77L196.01,177.46L199.86,176.5L203.7,178L207.54,180.69L211.39,177.65L215.23,153.11L219.07,143.66L222.92,142.71L226.76,143.22L230.61,137.42L234.45,184.23L238.29,187.98L245.98,182.99L249.82,178.95L253.67,173.1L257.51,163.23L261.35,174.64L265.2,171.77L269.04,166.26L272.88,154.2L276.73,122.48L280.57,121.87L284.41,121.39L288.26,111.12L292.1,117.85L295.94,113.59L299.79,106.1L303.63,104.08L307.47,104.53L311.32,117.86L315.16,112.23L319,112.79L322.85,113.63L326.69,113.46L330.53,111.69L334.38,102.52L338.22,98.89L342.06,100.96L345.91,104.04L349.75,110.65L353.59,77.2L357.44,82.49L361.28,101.36L365.12,101.55L368.97,101.37L372.81,105.59L380.5,105.31L384.34,105.85L388.19,105.23L392.03,106.7L399.72,108.14L403.56,117.53L407.4,117.8L411.25,122.4L415.09,120.96L418.93,113.51L422.78,113.75L426.62,96.91L430.46,96.37L434.31,93.44L441.99,92.2L445.84,91.61L449.68,35.63L453.52,59.46L461.21,60.55L465.05,59.44L468.9,59.71L472.74,58.27L484.27,55.56L488.11,55.71L495.8,52.23L499.64,50.53L503.49,49.6L507.33,28.02L511.17,24.5L515.02,31.23L518.86,37.53L522.71,16.26L526.55,16L530.39,18.52L534.24,16.68L538.08,18.1L540,22.32" style="fill: rgb(99, 110, 250); fill-opacity: 0.5; stroke-width: 0;"/></g></g><g class="errorbars"/><g class="lines"><path class="js-line" d="M0,319.9L7.69,314.54L11.53,313.24L15.37,310.76L19.22,310.14L23.06,308.94L26.9,293.98L30.75,290.02L34.59,289.53L38.43,282.94L42.28,281.97L46.12,278.8L49.96,278.84L57.65,268.42L61.49,265.94L65.34,261.37L69.18,244.94L73.02,243.97L76.87,248.32L80.71,242.08L84.56,147.69L88.4,135.08L92.24,103.35L96.09,91.03L99.93,105.66L103.77,110.38L107.62,111.4L111.46,114.02L115.3,114.89L119.15,116.22L122.99,119.3L126.83,122.59L130.68,141.52L138.36,159.09L142.21,156.18L146.05,156.04L149.89,186.03L153.74,182.76L157.58,184.53L165.27,185.36L169.11,184.84L172.95,185.51L176.8,184.29L180.64,184.13L184.48,183.06L188.33,180.33L192.17,179.77L196.01,177.46L199.86,176.5L203.7,178L207.54,180.69L211.39,177.65L215.23,153.11L219.07,143.66L222.92,142.71L226.76,143.22L230.61,137.42L234.45,184.23L238.29,187.98L245.98,182.99L249.82,178.95L253.67,173.1L257.51,163.23L261.35,174.64L265.2,171.77L269.04,166.26L272.88,154.2L276.73,122.48L280.57,121.87L284.41,121.39L288.26,111.12L292.1,117.85L295.94,113.59L299.79,106.1L303.63,104.08L307.47,104.53L311.32,117.86L315.16,112.23L319,112.79L322.85,113.63L326.69,113.46L330.53,111.69L334.38,102.52L338.22,98.89L342.06,100.96L345.91,104.04L349.75,110.65L353.59,77.2L357.44,82.49L361.28,101.36L365.12,101.55L368.97,101.37L372.81,105.59L380.5,105.31L384.34,105.85L388.19,105.23L392.03,106.7L399.72,108.14L403.56,117.53L407.4,117.8L411.25,122.4L415.09,120.96L418.93,113.51L422.78,113.75L426.62,96.91L430.46,96.37L434.31,93.44L441.99,92.2L445.84,91.61L449.68,35.63L453.52,59.46L461.21,60.55L465.05,59.44L468.9,59.71L472.74,58.27L484.27,55.56L488.11,55.71L495.8,52.23L499.64,50.53L503.49,49.6L507.33,28.02L511.17,24.5L515.02,31.23L518.86,37.53L522.71,16.26L526.55,16L530.39,18.52L534.24,16.68L538.08,18.1L540,22.32" style="vector-effect: non-scaling-stroke; fill: none; stroke: rgb(99, 110, 250); stroke-opacity: 1; stroke-width: 2px; opacity: 1;"/></g><g class="points"/><g class="text"/></g></g></g><g class="overplot"/><path class="xlines-above crisp" d="M0,0" style="fill: none;"/><path class="ylines-above crisp" d="M0,0" style="fill: none;"/><g class="overlines-above"/><g class="xaxislayer-above"><g class="xtick"><text text-anchor="middle" x="0" y="433" transform="translate(145.34,0)" style="font-family: 'Open Sans', verdana, arial, sans-serif; font-size: 12px; fill: rgb(42, 63, 95); fill-opacity: 1; white-space: pre; opacity: 1;">Aug 2022</text></g><g class="xtick"><text text-anchor="middle" x="0" y="433" style="font-family: 'Open Sans', verdana, arial, sans-serif; font-size: 12px; fill: rgb(42, 63, 95); fill-opacity: 1; white-space: pre; opacity: 1;" transform="translate(264.48,0)">Sep 2022</text></g><g class="xtick"><text text-anchor="middle" x="0" y="433" style="font-family: 'Open Sans', verdana, arial, sans-serif; font-size: 12px; fill: rgb(42, 63, 95); fill-opacity: 1; white-space: pre; opacity: 1;" transform="translate(379.79,0)">Oct 2022</text></g><g class="xtick"><text text-anchor="middle" x="0" y="433" style="font-family: 'Open Sans', verdana, arial, sans-serif; font-size: 12px; fill: rgb(42, 63, 95); fill-opacity: 1; white-space: pre; opacity: 1;" transform="translate(498.93,0)">Nov 2022</text></g><g class="xtick"><text text-anchor="middle" x="0" y="433" style="font-family: 'Open Sans', verdana, arial, sans-serif; font-size: 12px; fill: rgb(42, 63, 95); fill-opacity: 1; white-space: pre; opacity: 1;" transform="translate(614.24,0)">Dec 2022</text></g></g><g class="yaxislayer-above"><g class="ytick"><text text-anchor="end" x="79" y="4.199999999999999" transform="translate(0,420)" style="font-family: 'Open Sans', verdana, arial, sans-serif; font-size: 12px; fill: rgb(42, 63, 95); fill-opacity: 1; white-space: pre; opacity: 1;">$0</text></g><g class="ytick"><text text-anchor="end" x="79" y="4.199999999999999" style="font-family: 'Open Sans', verdana, arial, sans-serif; font-size: 12px; fill: rgb(42, 63, 95); fill-opacity: 1; white-space: pre; opacity: 1;" transform="translate(0,384.11)">$1M</text></g><g class="ytick"><text text-anchor="end" x="79" y="4.199999999999999" style="font-family: 'Open Sans', verdana, arial, sans-serif; font-size: 12px; fill: rgb(42, 63, 95); fill-opacity: 1; white-space: pre; opacity: 1;" transform="translate(0,348.22)">$2M</text></g><g class="ytick"><text text-anchor="end" x="79" y="4.199999999999999" style="font-family: 'Open Sans', verdana, arial, sans-serif; font-size: 12px; fill: rgb(42, 63, 95); fill-opacity: 1; white-space: pre; opacity: 1;" transform="translate(0,312.33000000000004)">$3M</text></g><g class="ytick"><text text-anchor="end" x="79" y="4.199999999999999" style="font-family: 'Open Sans', verdana, arial, sans-serif; font-size: 12px; fill: rgb(42, 63, 95); fill-opacity: 1; white-space: pre; opacity: 1;" transform="translate(0,276.44)">$4M</text></g><g class="ytick"><text text-anchor="end" x="79" y="4.199999999999999" style="font-family: 'Open Sans', verdana, arial, sans-serif; font-size: 12px; fill: rgb(42, 63, 95); fill-opacity: 1; white-space: pre; opacity: 1;" transform="translate(0,240.55)">$5M</text></g><g class="ytick"><text text-anchor="end" x="79" y="4.199999999999999" style="font-family: 'Open Sans', verdana, arial, sans-serif; font-size: 12px; fill: rgb(42, 63, 95); fill-opacity: 1; white-space: pre; opacity: 1;" transform="translate(0,204.65)">$6M</text></g><g class="ytick"><text text-anchor="end" x="79" y="4.199999999999999" style="font-family: 'Open Sans', verdana, arial, sans-serif; font-size: 12px; fill: rgb(42, 63, 95); fill-opacity: 1; white-space: pre; opacity: 1;" transform="translate(0,168.76)">$7M</text></g><g class="ytick"><text text-anchor="end" x="79" y="4.199999999999999" style="font-family: 'Open Sans', verdana, arial, sans-serif; font-size: 12px; fill: rgb(42, 63, 95); fill-opacity: 1; white-space: pre; opacity: 1;" transform="translate(0,132.87)">$8M</text></g></g><g class="overaxes-above"/></g></g><g class="polarlayer"/><g class="smithlayer"/><g class="ternarylayer"/><g class="geolayer"/><g class="funnelarealayer"/><g class="pielayer"/><g class="iciclelayer"/><g class="treemaplayer"/><g class="sunburstlayer"/><g class="glimages"/><defs id="topdefs-4ae980"><g class="clips"/></defs><g class="layer-above"><g class="imagelayer"/><g class="shapelayer"/></g><g class="infolayer"><g class="g-gtitle"><text class="gtitle" x="35" y="50" text-anchor="start" dy="0em" style="font-family: 'Open Sans', verdana, arial, sans-serif; font-size: 17px; fill: rgb(42, 63, 95); opacity: 1; font-weight: normal; white-space: pre;">Rubicon: Cumulative Net Dollar Flow since Program Announcement</text></g><g class="g-xtitle"><text class="xtitle" x="350" y="460.8" text-anchor="middle" style="font-family: 'Open Sans', verdana, arial, sans-serif; font-size: 14px; fill: rgb(42, 63, 95); opacity: 1; font-weight: normal; white-space: pre;">Day</text></g><g class="g-ytitle"><text class="ytitle" transform="rotate(-90,30.856250000000003,260)" x="30.856250000000003" y="260" text-anchor="middle" style="font-family: 'Open Sans', verdana, arial, sans-serif; font-size: 14px; fill: rgb(42, 63, 95); opacity: 1; font-weight: normal; white-space: pre;">Cumulative Net Dollar Flow (N$F)</text></g></g></svg>