<svg class="main-svg" xmlns="http://www.w3.org/2000/svg" xmlns:xlink="http://www.w3.org/1999/xlink" width="700" height="500" style="" viewBox="0 0 700 500"><rect x="0" y="0" width="700" height="500" style="fill: rgb(255, 255, 255); fill-opacity: 1;"/><defs id="defs-a0c20d"><g class="clips"><clipPath id="clipa0c20dxyplot" class="plotclip"><rect width="540" height="320"/></clipPath><clipPath class="axesclip" id="clipa0c20dx"><rect x="80" y="0" width="540" height="500"/></clipPath><clipPath class="axesclip" id="clipa0c20dy"><rect x="0" y="100" width="700" height="320"/></clipPath><clipPath class="axesclip" id="clipa0c20dxy"><rect x="80" y="100" width="540" height="320"/></clipPath></g><g class="gradients"/><g class="patterns"/></defs><g class="bglayer"><rect class="bg" x="80" y="100" width="540" height="320" style="fill: rgb(229, 236, 246); fill-opacity: 1; stroke-width: 0;"/></g><g class="layer-below"><g class="imagelayer"/><g class="shapelayer"/></g><g class="cartesianlayer"><g class="subplot xy"><g class="layer-subplot"><g class="shapelayer"/><g class="imagelayer"/></g><g class="minor-gridlayer"><g class="x"/><g class="y"/></g><g class="gridlayer"><g class="x"><path class="xgrid crisp" transform="translate(99.78999999999999,0)" d="M0,100v320" style="stroke: rgb(255, 255, 255); stroke-opacity: 1; stroke-width: 1px;"/><path class="xgrid crisp" transform="translate(184.61,0)" d="M0,100v320" style="stroke: rgb(255, 255, 255); stroke-opacity: 1; stroke-width: 1px;"/><path class="xgrid crisp" transform="translate(272.25,0)" d="M0,100v320" style="stroke: rgb(255, 255, 255); stroke-opacity: 1; stroke-width: 1px;"/><path class="xgrid crisp" transform="translate(357.07,0)" d="M0,100v320" style="stroke: rgb(255, 255, 255); stroke-opacity: 1; stroke-width: 1px;"/><path class="xgrid crisp" transform="translate(444.71,0)" d="M0,100v320" style="stroke: rgb(255, 255, 255); stroke-opacity: 1; stroke-width: 1px;"/><path class="xgrid crisp" transform="translate(532.36,0)" d="M0,100v320" style="stroke: rgb(255, 255, 255); stroke-opacity: 1; stroke-width: 1px;"/><path class="xgrid crisp" transform="translate(611.52,0)" d="M0,100v320" style="stroke: rgb(255, 255, 255); stroke-opacity: 1; stroke-width: 1px;"/></g><g class="y"><path class="ygrid crisp" transform="translate(0,367.29)" d="M80,0h540" style="stroke: rgb(255, 255, 255); stroke-opacity: 1; stroke-width: 1px;"/><path class="ygrid crisp" transform="translate(0,314.57)" d="M80,0h540" style="stroke: rgb(255, 255, 255); stroke-opacity: 1; stroke-width: 1px;"/><path class="ygrid crisp" transform="translate(0,261.86)" d="M80,0h540" style="stroke: rgb(255, 255, 255); stroke-opacity: 1; stroke-width: 1px;"/><path class="ygrid crisp" transform="translate(0,209.15)" d="M80,0h540" style="stroke: rgb(255, 255, 255); stroke-opacity: 1; stroke-width: 1px;"/><path class="ygrid crisp" transform="translate(0,156.44)" d="M80,0h540" style="stroke: rgb(255, 255, 255); stroke-opacity: 1; stroke-width: 1px;"/><path class="ygrid crisp" transform="translate(0,103.72)" d="M80,0h540" style="stroke: rgb(255, 255, 255); stroke-opacity: 1; stroke-width: 1px;"/></g></g><g class="zerolinelayer"><path class="yzl zl crisp" transform="translate(0,420)" d="M80,0h540" style="stroke: rgb(255, 255, 255); stroke-opacity: 1; stroke-width: 2px;"/></g><path class="xlines-below"/><path class="ylines-below"/><g class="overlines-below"/><g class="xaxislayer-below"/><g class="yaxislayer-below"/><g class="overaxes-below"/><g class="plot" transform="translate(80,100)" clip-path="url(#clipa0c20dxyplot)"><g class="scatterlayer mlayer"><g class="trace scatter trace9c432c" style="stroke-miterlimit: 2;"><g class="fills"><g><path class="js-fill" d="M540,320L0,320L0,318.9L2.83,271.92L5.65,263.81L8.48,260.28L11.31,260.21L14.14,252.96L16.96,250L19.79,248.39L22.62,250.36L25.45,243.63L28.27,240.98L31.1,237.19L33.93,247.36L36.75,244.55L39.58,247.34L42.41,236.35L45.24,231.35L48.06,228.32L50.89,227.39L53.72,230.39L56.54,234.54L59.37,236.03L62.2,222.1L65.03,212.93L67.85,211.4L70.68,208.74L73.51,214.81L76.34,214.62L79.16,211.57L84.82,211.5L87.64,212.43L90.47,210.59L93.3,209.89L96.13,177.83L98.95,180.11L101.78,186.84L104.61,185.44L107.43,185.34L110.26,186.82L115.92,189.34L118.74,197.42L121.57,193.34L124.4,202.76L127.23,202.75L130.05,204.07L132.88,208.07L135.71,205L141.36,204.22L144.19,201.58L149.84,201.14L152.67,199.18L155.5,200.81L158.32,200.56L172.46,200.9L175.29,199.08L178.12,199.93L180.94,213.56L183.77,211.06L186.6,197.57L200.73,197.75L203.56,198.14L206.39,199.15L209.21,197.09L212.04,196.9L214.87,234.38L217.7,239.07L220.52,224.91L223.35,218.27L226.18,225.13L229.01,213.95L231.83,212.5L234.66,211.45L237.49,213.53L240.31,218.29L243.14,217.16L245.97,216.07L248.8,218.02L251.62,218.59L254.45,218.19L257.28,211.61L260.1,212.11L262.93,210.96L265.76,210.8L277.07,210.56L279.9,207.77L282.72,207.85L285.55,203.39L288.38,202.82L291.2,196.94L294.03,182.4L296.86,175.94L299.69,176.45L302.51,174.4L305.34,174.28L308.17,172.66L310.99,168.51L313.82,167.69L316.65,162.58L319.48,159.23L322.3,163.42L325.13,163.42L327.96,163.49L330.79,167.04L333.61,181.97L336.44,182.43L339.27,182.95L342.09,182.01L350.58,182.06L353.4,188.28L356.23,188.16L359.06,184.46L361.88,169.31L364.71,166.17L367.54,171.11L370.37,171.03L373.19,177.12L376.02,177.73L378.85,174.46L381.68,174.49L384.5,178.37L387.33,176.07L392.98,149.73L395.81,148.02L398.64,153.94L401.47,149.49L404.29,148.05L407.12,150.28L412.77,149.29L415.6,152.9L418.43,147.76L421.26,136.36L424.08,132.79L426.91,131.85L429.74,129.67L432.57,103.38L435.39,48.93L438.22,44.68L441.05,47.55L443.87,35.97L446.7,35.02L449.53,18.43L452.36,17.96L455.18,16L458.01,21.23L460.84,33.62L463.66,38.7L466.49,38.68L469.32,48.78L472.15,67.17L474.97,69.83L477.8,70.28L480.63,69.97L483.46,45.58L486.28,48.05L489.11,45.35L491.94,45.68L494.76,43.05L497.59,49.14L500.42,60.35L503.25,60.63L506.07,61.76L508.9,78.27L511.73,79.1L514.55,79.99L517.38,78.98L520.21,76.47L523.04,71.32L525.86,70.07L528.69,69.96L531.52,70.06L534.35,69.36L537.17,71.01L540,70.71" style="fill: rgb(99, 110, 250); fill-opacity: 0.5; stroke-width: 0;"/></g></g><g class="errorbars"/><g class="lines"><path class="js-line" d="M0,318.9L2.83,271.92L5.65,263.81L8.48,260.28L11.31,260.21L14.14,252.96L16.96,250L19.79,248.39L22.62,250.36L25.45,243.63L28.27,240.98L31.1,237.19L33.93,247.36L36.75,244.55L39.58,247.34L42.41,236.35L45.24,231.35L48.06,228.32L50.89,227.39L53.72,230.39L56.54,234.54L59.37,236.03L62.2,222.1L65.03,212.93L67.85,211.4L70.68,208.74L73.51,214.81L76.34,214.62L79.16,211.57L84.82,211.5L87.64,212.43L90.47,210.59L93.3,209.89L96.13,177.83L98.95,180.11L101.78,186.84L104.61,185.44L107.43,185.34L110.26,186.82L115.92,189.34L118.74,197.42L121.57,193.34L124.4,202.76L127.23,202.75L130.05,204.07L132.88,208.07L135.71,205L141.36,204.22L144.19,201.58L149.84,201.14L152.67,199.18L155.5,200.81L158.32,200.56L172.46,200.9L175.29,199.08L178.12,199.93L180.94,213.56L183.77,211.06L186.6,197.57L200.73,197.75L203.56,198.14L206.39,199.15L209.21,197.09L212.04,196.9L214.87,234.38L217.7,239.07L220.52,224.91L223.35,218.27L226.18,225.13L229.01,213.95L231.83,212.5L234.66,211.45L237.49,213.53L240.31,218.29L243.14,217.16L245.97,216.07L248.8,218.02L251.62,218.59L254.45,218.19L257.28,211.61L260.1,212.11L262.93,210.96L265.76,210.8L277.07,210.56L279.9,207.77L282.72,207.85L285.55,203.39L288.38,202.82L291.2,196.94L294.03,182.4L296.86,175.94L299.69,176.45L302.51,174.4L305.34,174.28L308.17,172.66L310.99,168.51L313.82,167.69L316.65,162.58L319.48,159.23L322.3,163.42L325.13,163.42L327.96,163.49L330.79,167.04L333.61,181.97L336.44,182.43L339.27,182.95L342.09,182.01L350.58,182.06L353.4,188.28L356.23,188.16L359.06,184.46L361.88,169.31L364.71,166.17L367.54,171.11L370.37,171.03L373.19,177.12L376.02,177.73L378.85,174.46L381.68,174.49L384.5,178.37L387.33,176.07L392.98,149.73L395.81,148.02L398.64,153.94L401.47,149.49L404.29,148.05L407.12,150.28L412.77,149.29L415.6,152.9L418.43,147.76L421.26,136.36L424.08,132.79L426.91,131.85L429.74,129.67L432.57,103.38L435.39,48.93L438.22,44.68L441.05,47.55L443.87,35.97L446.7,35.02L449.53,18.43L452.36,17.96L455.18,16L458.01,21.23L460.84,33.62L463.66,38.7L466.49,38.68L469.32,48.78L472.15,67.17L474.97,69.83L477.8,70.28L480.63,69.97L483.46,45.58L486.28,48.05L489.11,45.35L491.94,45.68L494.76,43.05L497.59,49.14L500.42,60.35L503.25,60.63L506.07,61.76L508.9,78.27L511.73,79.1L514.55,79.99L517.38,78.98L520.21,76.47L523.04,71.32L525.86,70.07L528.69,69.96L531.52,70.06L534.35,69.36L537.17,71.01L540,70.71" style="vector-effect: non-scaling-stroke; fill: none; stroke: rgb(99, 110, 250); stroke-opacity: 1; stroke-width: 2px; opacity: 1;"/></g><g class="points"/><g class="text"/></g></g></g><g class="overplot"/><path class="xlines-above crisp" d="M0,0" style="fill: none;"/><path class="ylines-above crisp" d="M0,0" style="fill: none;"/><g class="overlines-above"/><g class="xaxislayer-above"><g class="xtick"><text text-anchor="middle" x="0" y="433" transform="translate(99.78999999999999,0)" style="font-family: 'Open Sans', verdana, arial, sans-serif; font-size: 12px; fill: rgb(42, 63, 95); fill-opacity: 1; white-space: pre; opacity: 1;">Sep 2022</text></g><g class="xtick"><text text-anchor="middle" x="0" y="433" style="font-family: 'Open Sans', verdana, arial, sans-serif; font-size: 12px; fill: rgb(42, 63, 95); fill-opacity: 1; white-space: pre; opacity: 1;" transform="translate(184.61,0)">Oct 2022</text></g><g class="xtick"><text text-anchor="middle" x="0" y="433" style="font-family: 'Open Sans', verdana, arial, sans-serif; font-size: 12px; fill: rgb(42, 63, 95); fill-opacity: 1; white-space: pre; opacity: 1;" transform="translate(272.25,0)">Nov 2022</text></g><g class="xtick"><text text-anchor="middle" x="0" y="433" style="font-family: 'Open Sans', verdana, arial, sans-serif; font-size: 12px; fill: rgb(42, 63, 95); fill-opacity: 1; white-space: pre; opacity: 1;" transform="translate(357.07,0)">Dec 2022</text></g><g class="xtick"><text text-anchor="middle" x="0" y="433" style="font-family: 'Open Sans', verdana, arial, sans-serif; font-size: 12px; fill: rgb(42, 63, 95); fill-opacity: 1; white-space: pre; opacity: 1;" transform="translate(444.71,0)">Jan 2023</text></g><g class="xtick"><text text-anchor="middle" x="0" y="433" style="font-family: 'Open Sans', verdana, arial, sans-serif; font-size: 12px; fill: rgb(42, 63, 95); fill-opacity: 1; white-space: pre; opacity: 1;" transform="translate(532.36,0)">Feb 2023</text></g><g class="xtick"><text text-anchor="middle" x="0" y="433" style="font-family: 'Open Sans', verdana, arial, sans-serif; font-size: 12px; fill: rgb(42, 63, 95); fill-opacity: 1; white-space: pre; opacity: 1;" transform="translate(611.52,0)">Mar 2023</text></g></g><g class="yaxislayer-above"><g class="ytick"><text text-anchor="end" x="79" y="4.199999999999999" transform="translate(0,420)" style="font-family: 'Open Sans', verdana, arial, sans-serif; font-size: 12px; fill: rgb(42, 63, 95); fill-opacity: 1; white-space: pre; opacity: 1;">$0</text></g><g class="ytick"><text text-anchor="end" x="79" y="4.199999999999999" style="font-family: 'Open Sans', verdana, arial, sans-serif; font-size: 12px; fill: rgb(42, 63, 95); fill-opacity: 1; white-space: pre; opacity: 1;" transform="translate(0,367.29)">$5M</text></g><g class="ytick"><text text-anchor="end" x="79" y="4.199999999999999" style="font-family: 'Open Sans', verdana, arial, sans-serif; font-size: 12px; fill: rgb(42, 63, 95); fill-opacity: 1; white-space: pre; opacity: 1;" transform="translate(0,314.57)">$10M</text></g><g class="ytick"><text text-anchor="end" x="79" y="4.199999999999999" style="font-family: 'Open Sans', verdana, arial, sans-serif; font-size: 12px; fill: rgb(42, 63, 95); fill-opacity: 1; white-space: pre; opacity: 1;" transform="translate(0,261.86)">$15M</text></g><g class="ytick"><text text-anchor="end" x="79" y="4.199999999999999" style="font-family: 'Open Sans', verdana, arial, sans-serif; font-size: 12px; fill: rgb(42, 63, 95); fill-opacity: 1; white-space: pre; opacity: 1;" transform="translate(0,209.15)">$20M</text></g><g class="ytick"><text text-anchor="end" x="79" y="4.199999999999999" style="font-family: 'Open Sans', verdana, arial, sans-serif; font-size: 12px; fill: rgb(42, 63, 95); fill-opacity: 1; white-space: pre; opacity: 1;" transform="translate(0,156.44)">$25M</text></g><g class="ytick"><text text-anchor="end" x="79" y="4.199999999999999" style="font-family: 'Open Sans', verdana, arial, sans-serif; font-size: 12px; fill: rgb(42, 63, 95); fill-opacity: 1; white-space: pre; opacity: 1;" transform="translate(0,103.72)">$30M</text></g></g><g class="overaxes-above"/></g></g><g class="polarlayer"/><g class="smithlayer"/><g class="ternarylayer"/><g class="geolayer"/><g class="funnelarealayer"/><g class="pielayer"/><g class="iciclelayer"/><g class="treemaplayer"/><g class="sunburstlayer"/><g class="glimages"/><defs id="topdefs-a0c20d"><g class="clips"/></defs><g class="layer-above"><g class="imagelayer"/><g class="shapelayer"/></g><g class="infolayer"><g class="g-gtitle"><text class="gtitle" x="35" y="50" text-anchor="start" dy="0em" style="font-family: 'Open Sans', verdana, arial, sans-serif; font-size: 17px; fill: rgb(42, 63, 95); opacity: 1; font-weight: normal; white-space: pre;"><tspan class="line" dy="0em" x="35" y="50">Synthetix - sETH-ETH: Curve</tspan><tspan class="line" dy="1.3em" x="35" y="50">​<tspan style="font-size:70%" dy="-0.6em">Cumulative Net Flows since Program Announcement, Until Program End + 30 Days</tspan><tspan dy="0.42em">​</tspan></tspan></text></g><g class="g-xtitle"><text class="xtitle" x="350" y="460.8" text-anchor="middle" style="font-family: 'Open Sans', verdana, arial, sans-serif; font-size: 14px; fill: rgb(42, 63, 95); opacity: 1; font-weight: normal; white-space: pre;">Day</text></g><g class="g-ytitle"><text class="ytitle" transform="rotate(-90,24.168750000000003,260)" x="24.168750000000003" y="260" text-anchor="middle" style="font-family: 'Open Sans', verdana, arial, sans-serif; font-size: 14px; fill: rgb(42, 63, 95); opacity: 1; font-weight: normal; white-space: pre;">Cumulative Net Flows (USD)</text></g></g></svg>