<svg class="main-svg" xmlns="http://www.w3.org/2000/svg" xmlns:xlink="http://www.w3.org/1999/xlink" width="700" height="500" style="" viewBox="0 0 700 500"><rect x="0" y="0" width="700" height="500" style="fill: rgb(255, 255, 255); fill-opacity: 1;"/><defs id="defs-1bafc9"><g class="clips"><clipPath id="clip1bafc9xyplot" class="plotclip"><rect width="540" height="320"/></clipPath><clipPath class="axesclip" id="clip1bafc9x"><rect x="80" y="0" width="540" height="500"/></clipPath><clipPath class="axesclip" id="clip1bafc9y"><rect x="0" y="100" width="700" height="320"/></clipPath><clipPath class="axesclip" id="clip1bafc9xy"><rect x="80" y="100" width="540" height="320"/></clipPath></g><g class="gradients"/><g class="patterns"/></defs><g class="bglayer"><rect class="bg" x="80" y="100" width="540" height="320" style="fill: rgb(229, 236, 246); fill-opacity: 1; stroke-width: 0;"/></g><g class="layer-below"><g class="imagelayer"/><g class="shapelayer"/></g><g class="cartesianlayer"><g class="subplot xy"><g class="layer-subplot"><g class="shapelayer"/><g class="imagelayer"/></g><g class="minor-gridlayer"><g class="x"/><g class="y"/></g><g class="gridlayer"><g class="x"><path class="xgrid crisp" transform="translate(121.06,0)" d="M0,100v320" style="stroke: rgb(255, 255, 255); stroke-opacity: 1; stroke-width: 1px;"/><path class="xgrid crisp" transform="translate(248.37,0)" d="M0,100v320" style="stroke: rgb(255, 255, 255); stroke-opacity: 1; stroke-width: 1px;"/><path class="xgrid crisp" transform="translate(371.56,0)" d="M0,100v320" style="stroke: rgb(255, 255, 255); stroke-opacity: 1; stroke-width: 1px;"/><path class="xgrid crisp" transform="translate(498.86,0)" d="M0,100v320" style="stroke: rgb(255, 255, 255); stroke-opacity: 1; stroke-width: 1px;"/></g><g class="y"><path class="ygrid crisp" transform="translate(0,376.45)" d="M80,0h540" style="stroke: rgb(255, 255, 255); stroke-opacity: 1; stroke-width: 1px;"/><path class="ygrid crisp" transform="translate(0,332.89)" d="M80,0h540" style="stroke: rgb(255, 255, 255); stroke-opacity: 1; stroke-width: 1px;"/><path class="ygrid crisp" transform="translate(0,289.34000000000003)" d="M80,0h540" style="stroke: rgb(255, 255, 255); stroke-opacity: 1; stroke-width: 1px;"/><path class="ygrid crisp" transform="translate(0,245.79)" d="M80,0h540" style="stroke: rgb(255, 255, 255); stroke-opacity: 1; stroke-width: 1px;"/><path class="ygrid crisp" transform="translate(0,202.23000000000002)" d="M80,0h540" style="stroke: rgb(255, 255, 255); stroke-opacity: 1; stroke-width: 1px;"/><path class="ygrid crisp" transform="translate(0,158.68)" d="M80,0h540" style="stroke: rgb(255, 255, 255); stroke-opacity: 1; stroke-width: 1px;"/><path class="ygrid crisp" transform="translate(0,115.13)" d="M80,0h540" style="stroke: rgb(255, 255, 255); stroke-opacity: 1; stroke-width: 1px;"/></g></g><g class="zerolinelayer"><path class="yzl zl crisp" transform="translate(0,420)" d="M80,0h540" style="stroke: rgb(255, 255, 255); stroke-opacity: 1; stroke-width: 2px;"/></g><path class="xlines-below"/><path class="ylines-below"/><g class="overlines-below"/><g class="xaxislayer-below"/><g class="yaxislayer-below"/><g class="overaxes-below"/><g class="plot" transform="translate(80,100)" clip-path="url(#clip1bafc9xyplot)"><g class="scatterlayer mlayer"><g class="trace scatter trace7b8c5d" style="stroke-miterlimit: 2;"><g class="fills"><g><path class="js-fill" d="M540,320L0,320L0,319.45L4.11,316.13L8.21,309.02L12.32,306.75L16.43,303.6L20.53,276.37L24.64,215.96L28.75,175.57L32.85,159.08L41.06,147.9L45.17,142.46L49.28,136.72L53.38,127.93L57.49,100.12L61.6,89.81L65.7,62.41L69.81,60.08L73.92,43.93L78.02,31.03L82.13,27.58L86.24,22.79L90.34,30.58L94.45,50.89L98.56,92.79L102.66,70.74L106.77,61.1L110.87,65.01L114.98,64.99L119.09,61.82L123.19,61.75L127.3,64.25L131.41,81.31L135.51,78.75L139.62,67.86L143.73,23.33L147.83,36.16L151.94,34.5L156.05,34.46L160.15,35.5L164.26,40.11L168.37,48.52L172.47,59.24L176.58,60.02L184.79,60.11L188.9,65.23L193,64.19L197.11,65.12L201.22,65.34L205.32,68.6L209.43,69.17L213.54,68.3L217.64,76.11L221.75,87.99L225.86,112.53L271.03,48.03L279.24,48.03L283.35,46.86L291.56,45.39L295.67,41.99L299.77,36.18L303.88,18.68L312.09,19.83L316.2,22.01L324.41,23.82L328.52,23.34L332.62,16L336.73,25.67L340.84,24.45L344.94,33.01L349.05,33.43L353.16,33.03L361.37,31.48L365.48,40.36L369.58,41.24L373.69,34.25L377.8,29.92L381.9,29.88L386.01,36.98L390.11,36.24L394.22,37.92L398.33,34.72L402.43,37.35L406.54,37.46L414.75,32.89L418.86,33.23L422.97,28.18L427.07,24.92L431.18,32.94L435.29,33.93L439.39,33.64L443.5,30.52L447.61,29.27L451.71,37.3L455.82,54.27L459.92,45.05L464.03,51.31L468.14,53.14L472.24,49.47L476.35,48.03L480.46,39.08L484.56,66.16L488.67,67.45L492.78,66.72L496.88,67.49L500.99,69.11L505.1,70.69L509.2,81.48L513.31,83L517.42,83.56L521.52,85.71L525.63,85L529.73,84.82L533.84,86.47L537.95,102.52L540,98.79" style="fill: rgb(99, 110, 250); fill-opacity: 0.5; stroke-width: 0;"/></g></g><g class="errorbars"/><g class="lines"><path class="js-line" d="M0,319.45L4.11,316.13L8.21,309.02L12.32,306.75L16.43,303.6L20.53,276.37L24.64,215.96L28.75,175.57L32.85,159.08L41.06,147.9L45.17,142.46L49.28,136.72L53.38,127.93L57.49,100.12L61.6,89.81L65.7,62.41L69.81,60.08L73.92,43.93L78.02,31.03L82.13,27.58L86.24,22.79L90.34,30.58L94.45,50.89L98.56,92.79L102.66,70.74L106.77,61.1L110.87,65.01L114.98,64.99L119.09,61.82L123.19,61.75L127.3,64.25L131.41,81.31L135.51,78.75L139.62,67.86L143.73,23.33L147.83,36.16L151.94,34.5L156.05,34.46L160.15,35.5L164.26,40.11L168.37,48.52L172.47,59.24L176.58,60.02L184.79,60.11L188.9,65.23L193,64.19L197.11,65.12L201.22,65.34L205.32,68.6L209.43,69.17L213.54,68.3L217.64,76.11L221.75,87.99L225.86,112.53L271.03,48.03L279.24,48.03L283.35,46.86L291.56,45.39L295.67,41.99L299.77,36.18L303.88,18.68L312.09,19.83L316.2,22.01L324.41,23.82L328.52,23.34L332.62,16L336.73,25.67L340.84,24.45L344.94,33.01L349.05,33.43L353.16,33.03L361.37,31.48L365.48,40.36L369.58,41.24L373.69,34.25L377.8,29.92L381.9,29.88L386.01,36.98L390.11,36.24L394.22,37.92L398.33,34.72L402.43,37.35L406.54,37.46L414.75,32.89L418.86,33.23L422.97,28.18L427.07,24.92L431.18,32.94L435.29,33.93L439.39,33.64L443.5,30.52L447.61,29.27L451.71,37.3L455.82,54.27L459.92,45.05L464.03,51.31L468.14,53.14L472.24,49.47L476.35,48.03L480.46,39.08L484.56,66.16L488.67,67.45L492.78,66.72L496.88,67.49L500.99,69.11L505.1,70.69L509.2,81.48L513.31,83L517.42,83.56L521.52,85.71L525.63,85L529.73,84.82L533.84,86.47L537.95,102.52L540,98.79" style="vector-effect: non-scaling-stroke; fill: none; stroke: rgb(99, 110, 250); stroke-opacity: 1; stroke-width: 2px; opacity: 1;"/></g><g class="points"/><g class="text"/></g></g></g><g class="overplot"/><path class="xlines-above crisp" d="M0,0" style="fill: none;"/><path class="ylines-above crisp" d="M0,0" style="fill: none;"/><g class="overlines-above"/><g class="xaxislayer-above"><g class="xtick"><text text-anchor="middle" x="0" y="433" transform="translate(121.06,0)" style="font-family: 'Open Sans', verdana, arial, sans-serif; font-size: 12px; fill: rgb(42, 63, 95); fill-opacity: 1; white-space: pre; opacity: 1;">Aug 2022</text></g><g class="xtick"><text text-anchor="middle" x="0" y="433" style="font-family: 'Open Sans', verdana, arial, sans-serif; font-size: 12px; fill: rgb(42, 63, 95); fill-opacity: 1; white-space: pre; opacity: 1;" transform="translate(248.37,0)">Sep 2022</text></g><g class="xtick"><text text-anchor="middle" x="0" y="433" style="font-family: 'Open Sans', verdana, arial, sans-serif; font-size: 12px; fill: rgb(42, 63, 95); fill-opacity: 1; white-space: pre; opacity: 1;" transform="translate(371.56,0)">Oct 2022</text></g><g class="xtick"><text text-anchor="middle" x="0" y="433" style="font-family: 'Open Sans', verdana, arial, sans-serif; font-size: 12px; fill: rgb(42, 63, 95); fill-opacity: 1; white-space: pre; opacity: 1;" transform="translate(498.86,0)">Nov 2022</text></g></g><g class="yaxislayer-above"><g class="ytick"><text text-anchor="end" x="79" y="4.199999999999999" transform="translate(0,420)" style="font-family: 'Open Sans', verdana, arial, sans-serif; font-size: 12px; fill: rgb(42, 63, 95); fill-opacity: 1; white-space: pre; opacity: 1;">$0</text></g><g class="ytick"><text text-anchor="end" x="79" y="4.199999999999999" style="font-family: 'Open Sans', verdana, arial, sans-serif; font-size: 12px; fill: rgb(42, 63, 95); fill-opacity: 1; white-space: pre; opacity: 1;" transform="translate(0,376.45)">$5M</text></g><g class="ytick"><text text-anchor="end" x="79" y="4.199999999999999" style="font-family: 'Open Sans', verdana, arial, sans-serif; font-size: 12px; fill: rgb(42, 63, 95); fill-opacity: 1; white-space: pre; opacity: 1;" transform="translate(0,332.89)">$10M</text></g><g class="ytick"><text text-anchor="end" x="79" y="4.199999999999999" style="font-family: 'Open Sans', verdana, arial, sans-serif; font-size: 12px; fill: rgb(42, 63, 95); fill-opacity: 1; white-space: pre; opacity: 1;" transform="translate(0,289.34000000000003)">$15M</text></g><g class="ytick"><text text-anchor="end" x="79" y="4.199999999999999" style="font-family: 'Open Sans', verdana, arial, sans-serif; font-size: 12px; fill: rgb(42, 63, 95); fill-opacity: 1; white-space: pre; opacity: 1;" transform="translate(0,245.79)">$20M</text></g><g class="ytick"><text text-anchor="end" x="79" y="4.199999999999999" style="font-family: 'Open Sans', verdana, arial, sans-serif; font-size: 12px; fill: rgb(42, 63, 95); fill-opacity: 1; white-space: pre; opacity: 1;" transform="translate(0,202.23000000000002)">$25M</text></g><g class="ytick"><text text-anchor="end" x="79" y="4.199999999999999" style="font-family: 'Open Sans', verdana, arial, sans-serif; font-size: 12px; fill: rgb(42, 63, 95); fill-opacity: 1; white-space: pre; opacity: 1;" transform="translate(0,158.68)">$30M</text></g><g class="ytick"><text text-anchor="end" x="79" y="4.199999999999999" style="font-family: 'Open Sans', verdana, arial, sans-serif; font-size: 12px; fill: rgb(42, 63, 95); fill-opacity: 1; white-space: pre; opacity: 1;" transform="translate(0,115.13)">$35M</text></g></g><g class="overaxes-above"/></g></g><g class="polarlayer"/><g class="smithlayer"/><g class="ternarylayer"/><g class="geolayer"/><g class="funnelarealayer"/><g class="pielayer"/><g class="iciclelayer"/><g class="treemaplayer"/><g class="sunburstlayer"/><g class="glimages"/><defs id="topdefs-1bafc9"><g class="clips"/></defs><g class="layer-above"><g class="imagelayer"/><g class="shapelayer"/></g><g class="infolayer"><g class="g-gtitle"><text class="gtitle" x="35" y="50" text-anchor="start" dy="0em" style="font-family: 'Open Sans', verdana, arial, sans-serif; font-size: 17px; fill: rgb(42, 63, 95); opacity: 1; font-weight: normal; white-space: pre;">Pooltogether: Cumulative Net Dollar Flow since Program Announcement</text></g><g class="g-xtitle"><text class="xtitle" x="350" y="460.8" text-anchor="middle" style="font-family: 'Open Sans', verdana, arial, sans-serif; font-size: 14px; fill: rgb(42, 63, 95); opacity: 1; font-weight: normal; white-space: pre;">Day</text></g><g class="g-ytitle"><text class="ytitle" transform="rotate(-90,24.168750000000003,260)" x="24.168750000000003" y="260" text-anchor="middle" style="font-family: 'Open Sans', verdana, arial, sans-serif; font-size: 14px; fill: rgb(42, 63, 95); opacity: 1; font-weight: normal; white-space: pre;">Cumulative Net Dollar Flow (N$F)</text></g></g></svg>