<svg class="main-svg" xmlns="http://www.w3.org/2000/svg" xmlns:xlink="http://www.w3.org/1999/xlink" width="700" height="500" style="" viewBox="0 0 700 500"><rect x="0" y="0" width="700" height="500" style="fill: rgb(255, 255, 255); fill-opacity: 1;"/><defs id="defs-ba8da7"><g class="clips"><clipPath id="clipba8da7xyplot" class="plotclip"><rect width="540" height="320"/></clipPath><clipPath class="axesclip" id="clipba8da7x"><rect x="80" y="0" width="540" height="500"/></clipPath><clipPath class="axesclip" id="clipba8da7y"><rect x="0" y="100" width="700" height="320"/></clipPath><clipPath class="axesclip" id="clipba8da7xy"><rect x="80" y="100" width="540" height="320"/></clipPath></g><g class="gradients"/><g class="patterns"/></defs><g class="bglayer"><rect class="bg" x="80" y="100" width="540" height="320" style="fill: rgb(229, 236, 246); fill-opacity: 1; stroke-width: 0;"/></g><g class="layer-below"><g class="imagelayer"/><g class="shapelayer"/></g><g class="cartesianlayer"><g class="subplot xy"><g class="layer-subplot"><g class="shapelayer"/><g class="imagelayer"/></g><g class="minor-gridlayer"><g class="x"/><g class="y"/></g><g class="gridlayer"><g class="x"><path class="xgrid crisp" transform="translate(140,0)" d="M0,100v320" style="stroke: rgb(255, 255, 255); stroke-opacity: 1; stroke-width: 1px;"/><path class="xgrid crisp" transform="translate(216.36,0)" d="M0,100v320" style="stroke: rgb(255, 255, 255); stroke-opacity: 1; stroke-width: 1px;"/><path class="xgrid crisp" transform="translate(292.73,0)" d="M0,100v320" style="stroke: rgb(255, 255, 255); stroke-opacity: 1; stroke-width: 1px;"/><path class="xgrid crisp" transform="translate(369.09,0)" d="M0,100v320" style="stroke: rgb(255, 255, 255); stroke-opacity: 1; stroke-width: 1px;"/><path class="xgrid crisp" transform="translate(445.45,0)" d="M0,100v320" style="stroke: rgb(255, 255, 255); stroke-opacity: 1; stroke-width: 1px;"/><path class="xgrid crisp" transform="translate(521.8199999999999,0)" d="M0,100v320" style="stroke: rgb(255, 255, 255); stroke-opacity: 1; stroke-width: 1px;"/><path class="xgrid crisp" transform="translate(598.18,0)" d="M0,100v320" style="stroke: rgb(255, 255, 255); stroke-opacity: 1; stroke-width: 1px;"/></g><g class="y"><path class="ygrid crisp" transform="translate(0,325.91999999999996)" d="M80,0h540" style="stroke: rgb(255, 255, 255); stroke-opacity: 1; stroke-width: 1px;"/><path class="ygrid crisp" transform="translate(0,275.45)" d="M80,0h540" style="stroke: rgb(255, 255, 255); stroke-opacity: 1; stroke-width: 1px;"/><path class="ygrid crisp" transform="translate(0,224.98000000000002)" d="M80,0h540" style="stroke: rgb(255, 255, 255); stroke-opacity: 1; stroke-width: 1px;"/><path class="ygrid crisp" transform="translate(0,174.51)" d="M80,0h540" style="stroke: rgb(255, 255, 255); stroke-opacity: 1; stroke-width: 1px;"/><path class="ygrid crisp" transform="translate(0,124.03999999999999)" d="M80,0h540" style="stroke: rgb(255, 255, 255); stroke-opacity: 1; stroke-width: 1px;"/></g></g><g class="zerolinelayer"><path class="yzl zl crisp" transform="translate(0,376.39)" d="M80,0h540" style="stroke: rgb(255, 255, 255); stroke-opacity: 1; stroke-width: 2px;"/></g><path class="xlines-below"/><path class="ylines-below"/><g class="overlines-below"/><g class="xaxislayer-below"/><g class="yaxislayer-below"/><g class="overaxes-below"/><g class="plot" transform="translate(80,100)" clip-path="url(#clipba8da7xyplot)"><g class="scatterlayer mlayer"><g class="trace scatter trace6c8a88" style="stroke-miterlimit: 2;"><g class="fills"><g><path class="js-fill" d="M540,276.39L0,276.39L0,276.98L5.45,279.57L10.91,279.2L16.36,299.53L21.82,297.03L27.27,296.91L32.73,294.39L38.18,304L43.64,300.16L49.09,297.58L54.55,293.92L60,291.73L65.45,293.85L70.91,288.59L76.36,285.4L81.82,278.81L87.27,278.92L92.73,270.85L98.18,265.06L103.64,255.77L109.09,257.84L114.55,254.65L120,252.5L125.45,228.66L130.91,225.73L136.36,220.61L141.82,221.93L147.27,221.24L152.73,218.33L158.18,215.28L163.64,214.32L169.09,209.49L174.55,207.69L180,200.34L185.45,197.11L190.91,197.04L196.36,189.18L201.82,159.56L207.27,147.13L212.73,132.6L218.18,142.12L223.64,133.77L229.09,63.05L234.55,82.93L240,86.25L245.45,101.57L250.91,99.77L256.36,97.21L261.82,92.51L267.27,89.5L272.73,93.88L278.18,62.21L283.64,61.98L289.09,55.12L294.55,45.15L300,39.35L305.45,44.76L310.91,76.55L316.36,87.88L321.82,113.63L327.27,114.02L332.73,157.25L338.18,155.09L343.64,155.09L349.09,160.24L354.55,148.13L360,151.81L365.45,137.2L370.91,139.22L376.36,139.91L381.82,139.42L387.27,132.32L392.73,126.57L398.18,119.26L403.64,110.34L409.09,115.42L414.55,110.84L420,110.97L425.45,109.3L430.91,97.93L436.36,95.81L441.82,85.54L447.27,88.98L452.73,88.16L458.18,77.37L463.64,75.02L469.09,54.62L474.55,52.34L480,43.23L485.45,42.58L490.91,58.02L496.36,46.83L501.82,39.06L507.27,41.04L512.73,33.28L518.18,37.79L523.64,29.45L529.09,33.85L534.55,30.4L540,16" style="fill: rgb(99, 110, 250); fill-opacity: 0.5; stroke-width: 0;"/></g></g><g class="errorbars"/><g class="lines"><path class="js-line" d="M0,276.98L5.45,279.57L10.91,279.2L16.36,299.53L21.82,297.03L27.27,296.91L32.73,294.39L38.18,304L43.64,300.16L49.09,297.58L54.55,293.92L60,291.73L65.45,293.85L70.91,288.59L76.36,285.4L81.82,278.81L87.27,278.92L92.73,270.85L98.18,265.06L103.64,255.77L109.09,257.84L114.55,254.65L120,252.5L125.45,228.66L130.91,225.73L136.36,220.61L141.82,221.93L147.27,221.24L152.73,218.33L158.18,215.28L163.64,214.32L169.09,209.49L174.55,207.69L180,200.34L185.45,197.11L190.91,197.04L196.36,189.18L201.82,159.56L207.27,147.13L212.73,132.6L218.18,142.12L223.64,133.77L229.09,63.05L234.55,82.93L240,86.25L245.45,101.57L250.91,99.77L256.36,97.21L261.82,92.51L267.27,89.5L272.73,93.88L278.18,62.21L283.64,61.98L289.09,55.12L294.55,45.15L300,39.35L305.45,44.76L310.91,76.55L316.36,87.88L321.82,113.63L327.27,114.02L332.73,157.25L338.18,155.09L343.64,155.09L349.09,160.24L354.55,148.13L360,151.81L365.45,137.2L370.91,139.22L376.36,139.91L381.82,139.42L387.27,132.32L392.73,126.57L398.18,119.26L403.64,110.34L409.09,115.42L414.55,110.84L420,110.97L425.45,109.3L430.91,97.93L436.36,95.81L441.82,85.54L447.27,88.98L452.73,88.16L458.18,77.37L463.64,75.02L469.09,54.62L474.55,52.34L480,43.23L485.45,42.58L490.91,58.02L496.36,46.83L501.82,39.06L507.27,41.04L512.73,33.28L518.18,37.79L523.64,29.45L529.09,33.85L534.55,30.4L540,16" style="vector-effect: non-scaling-stroke; fill: none; stroke: rgb(99, 110, 250); stroke-opacity: 1; stroke-width: 2px; opacity: 1;"/></g><g class="points"/><g class="text"/></g></g></g><g class="overplot"/><path class="xlines-above crisp" d="M0,0" style="fill: none;"/><path class="ylines-above crisp" d="M0,0" style="fill: none;"/><g class="overlines-above"/><g class="xaxislayer-above"><g class="xtick"><text text-anchor="middle" x="0" y="433" transform="translate(140,0)" style="font-family: 'Open Sans', verdana, arial, sans-serif; font-size: 12px; fill: rgb(42, 63, 95); fill-opacity: 1; white-space: pre; opacity: 1;"><tspan class="line" dy="0em" x="0" y="433">Sep 25</tspan><tspan class="line" dy="1.3em" x="0" y="433">2022</tspan></text></g><g class="xtick"><text text-anchor="middle" x="0" y="433" style="font-family: 'Open Sans', verdana, arial, sans-serif; font-size: 12px; fill: rgb(42, 63, 95); fill-opacity: 1; white-space: pre; opacity: 1;" transform="translate(216.36,0)">Oct 9</text></g><g class="xtick"><text text-anchor="middle" x="0" y="433" style="font-family: 'Open Sans', verdana, arial, sans-serif; font-size: 12px; fill: rgb(42, 63, 95); fill-opacity: 1; white-space: pre; opacity: 1;" transform="translate(292.73,0)">Oct 23</text></g><g class="xtick"><text text-anchor="middle" x="0" y="433" style="font-family: 'Open Sans', verdana, arial, sans-serif; font-size: 12px; fill: rgb(42, 63, 95); fill-opacity: 1; white-space: pre; opacity: 1;" transform="translate(369.09,0)">Nov 6</text></g><g class="xtick"><text text-anchor="middle" x="0" y="433" style="font-family: 'Open Sans', verdana, arial, sans-serif; font-size: 12px; fill: rgb(42, 63, 95); fill-opacity: 1; white-space: pre; opacity: 1;" transform="translate(445.45,0)">Nov 20</text></g><g class="xtick"><text text-anchor="middle" x="0" y="433" style="font-family: 'Open Sans', verdana, arial, sans-serif; font-size: 12px; fill: rgb(42, 63, 95); fill-opacity: 1; white-space: pre; opacity: 1;" transform="translate(521.8199999999999,0)">Dec 4</text></g><g class="xtick"><text text-anchor="middle" x="0" y="433" style="font-family: 'Open Sans', verdana, arial, sans-serif; font-size: 12px; fill: rgb(42, 63, 95); fill-opacity: 1; white-space: pre; opacity: 1;" transform="translate(598.18,0)">Dec 18</text></g></g><g class="yaxislayer-above"><g class="ytick"><text text-anchor="end" x="79" y="4.199999999999999" transform="translate(0,376.39)" style="font-family: 'Open Sans', verdana, arial, sans-serif; font-size: 12px; fill: rgb(42, 63, 95); fill-opacity: 1; white-space: pre; opacity: 1;">$0</text></g><g class="ytick"><text text-anchor="end" x="79" y="4.199999999999999" style="font-family: 'Open Sans', verdana, arial, sans-serif; font-size: 12px; fill: rgb(42, 63, 95); fill-opacity: 1; white-space: pre; opacity: 1;" transform="translate(0,325.91999999999996)">$100k</text></g><g class="ytick"><text text-anchor="end" x="79" y="4.199999999999999" style="font-family: 'Open Sans', verdana, arial, sans-serif; font-size: 12px; fill: rgb(42, 63, 95); fill-opacity: 1; white-space: pre; opacity: 1;" transform="translate(0,275.45)">$200k</text></g><g class="ytick"><text text-anchor="end" x="79" y="4.199999999999999" style="font-family: 'Open Sans', verdana, arial, sans-serif; font-size: 12px; fill: rgb(42, 63, 95); fill-opacity: 1; white-space: pre; opacity: 1;" transform="translate(0,224.98000000000002)">$300k</text></g><g class="ytick"><text text-anchor="end" x="79" y="4.199999999999999" style="font-family: 'Open Sans', verdana, arial, sans-serif; font-size: 12px; fill: rgb(42, 63, 95); fill-opacity: 1; white-space: pre; opacity: 1;" transform="translate(0,174.51)">$400k</text></g><g class="ytick"><text text-anchor="end" x="79" y="4.199999999999999" style="font-family: 'Open Sans', verdana, arial, sans-serif; font-size: 12px; fill: rgb(42, 63, 95); fill-opacity: 1; white-space: pre; opacity: 1;" transform="translate(0,124.03999999999999)">$500k</text></g></g><g class="overaxes-above"/></g></g><g class="polarlayer"/><g class="smithlayer"/><g class="ternarylayer"/><g class="geolayer"/><g class="funnelarealayer"/><g class="pielayer"/><g class="iciclelayer"/><g class="treemaplayer"/><g class="sunburstlayer"/><g class="glimages"/><defs id="topdefs-ba8da7"><g class="clips"/></defs><g class="layer-above"><g class="imagelayer"/><g class="shapelayer"/></g><g class="infolayer"><g class="g-gtitle"><text class="gtitle" x="35" y="50" text-anchor="start" dy="0em" style="font-family: 'Open Sans', verdana, arial, sans-serif; font-size: 17px; fill: rgb(42, 63, 95); opacity: 1; font-weight: normal; white-space: pre;">Polynomial Protocol: Cumulative Net Dollar Flow since Program Announcement, Until Program End + 30 Days</text></g><g class="g-xtitle"><text class="xtitle" x="350" y="476.409375" text-anchor="middle" style="font-family: 'Open Sans', verdana, arial, sans-serif; font-size: 14px; fill: rgb(42, 63, 95); opacity: 1; font-weight: normal; white-space: pre;">Day</text></g><g class="g-ytitle"><text class="ytitle" transform="rotate(-90,21.496875000000003,260)" x="21.496875000000003" y="260" text-anchor="middle" style="font-family: 'Open Sans', verdana, arial, sans-serif; font-size: 14px; fill: rgb(42, 63, 95); opacity: 1; font-weight: normal; white-space: pre;">Cumulative Net Dollar Flow (N$F)</text></g></g></svg>