<svg class="main-svg" xmlns="http://www.w3.org/2000/svg" xmlns:xlink="http://www.w3.org/1999/xlink" width="700" height="500" style="" viewBox="0 0 700 500"><rect x="0" y="0" width="700" height="500" style="fill: rgb(255, 255, 255); fill-opacity: 1;"/><defs id="defs-b614e6"><g class="clips"><clipPath id="clipb614e6xyplot" class="plotclip"><rect width="540" height="320"/></clipPath><clipPath class="axesclip" id="clipb614e6x"><rect x="80" y="0" width="540" height="500"/></clipPath><clipPath class="axesclip" id="clipb614e6y"><rect x="0" y="100" width="700" height="320"/></clipPath><clipPath class="axesclip" id="clipb614e6xy"><rect x="80" y="100" width="540" height="320"/></clipPath></g><g class="gradients"/><g class="patterns"/></defs><g class="bglayer"><rect class="bg" x="80" y="100" width="540" height="320" style="fill: rgb(229, 236, 246); fill-opacity: 1; stroke-width: 0;"/></g><g class="layer-below"><g class="imagelayer"/><g class="shapelayer"/></g><g class="cartesianlayer"><g class="subplot xy"><g class="layer-subplot"><g class="shapelayer"/><g class="imagelayer"/></g><g class="minor-gridlayer"><g class="x"/><g class="y"/></g><g class="gridlayer"><g class="x"><path class="xgrid crisp" transform="translate(107.59,0)" d="M0,100v320" style="stroke: rgb(255, 255, 255); stroke-opacity: 1; stroke-width: 1px;"/><path class="xgrid crisp" transform="translate(225.84,0)" d="M0,100v320" style="stroke: rgb(255, 255, 255); stroke-opacity: 1; stroke-width: 1px;"/><path class="xgrid crisp" transform="translate(348.03,0)" d="M0,100v320" style="stroke: rgb(255, 255, 255); stroke-opacity: 1; stroke-width: 1px;"/><path class="xgrid crisp" transform="translate(466.28,0)" d="M0,100v320" style="stroke: rgb(255, 255, 255); stroke-opacity: 1; stroke-width: 1px;"/><path class="xgrid crisp" transform="translate(588.47,0)" d="M0,100v320" style="stroke: rgb(255, 255, 255); stroke-opacity: 1; stroke-width: 1px;"/></g><g class="y"><path class="ygrid crisp" transform="translate(0,356.86)" d="M80,0h540" style="stroke: rgb(255, 255, 255); stroke-opacity: 1; stroke-width: 1px;"/><path class="ygrid crisp" transform="translate(0,293.73)" d="M80,0h540" style="stroke: rgb(255, 255, 255); stroke-opacity: 1; stroke-width: 1px;"/><path class="ygrid crisp" transform="translate(0,230.59)" d="M80,0h540" style="stroke: rgb(255, 255, 255); stroke-opacity: 1; stroke-width: 1px;"/><path class="ygrid crisp" transform="translate(0,167.45)" d="M80,0h540" style="stroke: rgb(255, 255, 255); stroke-opacity: 1; stroke-width: 1px;"/><path class="ygrid crisp" transform="translate(0,104.32)" d="M80,0h540" style="stroke: rgb(255, 255, 255); stroke-opacity: 1; stroke-width: 1px;"/></g></g><g class="zerolinelayer"><path class="yzl zl crisp" transform="translate(0,420)" d="M80,0h540" style="stroke: rgb(255, 255, 255); stroke-opacity: 1; stroke-width: 2px;"/></g><path class="xlines-below"/><path class="ylines-below"/><g class="overlines-below"/><g class="xaxislayer-below"/><g class="yaxislayer-below"/><g class="overaxes-below"/><g class="plot" transform="translate(80,100)" clip-path="url(#clipb614e6xyplot)"><g class="scatterlayer mlayer"><g class="trace scatter traceac80b7" style="stroke-miterlimit: 2;"><g class="fills"><g><path class="js-fill" d="M540,320L0,320L0,190.71L3.94,189.77L7.88,176.45L11.82,169.64L15.77,166.32L19.71,167.68L23.65,128.94L27.59,173.69L31.53,168.46L35.47,166.95L39.42,166.27L43.36,164.31L47.3,160.49L51.24,153.15L55.18,154.95L59.12,146.01L63.07,133.93L67.01,128.97L70.95,125.55L74.89,109.26L78.83,117.05L82.77,106.4L86.72,103.75L90.66,97.54L94.6,96.34L98.54,96.81L102.48,98.4L106.42,99.82L110.36,100.33L114.31,112.3L118.25,102.93L122.19,114.89L126.13,115.09L130.07,110.15L134.01,111.61L141.9,120.37L145.84,120.33L149.78,118.05L153.72,116.91L157.66,113.78L161.61,112.97L165.55,114.82L169.49,110.69L173.43,103.85L177.37,89.23L181.31,85.54L185.26,85.39L189.2,85.47L193.14,81L197.08,24.86L201.02,38.97L204.96,16L208.91,19.51L212.85,23.24L216.79,25.72L220.73,27.06L224.67,26.73L228.61,26.9L232.55,23.51L236.5,23.91L240.44,29.44L248.32,83L252.26,79.47L256.2,77.43L260.15,77.07L264.09,75.67L268.03,78.46L271.97,78.87L275.91,45.33L287.74,46.45L291.68,50.65L295.62,121.5L299.56,131.84L303.5,127.08L307.45,124.37L311.39,128.46L315.33,128.84L319.27,127.06L323.21,121.19L327.15,129.07L331.09,115.34L335.04,100.25L338.98,98.86L342.92,101.98L346.86,100.74L350.8,104.65L354.74,101.85L358.69,41.21L362.63,41.47L374.45,41.22L378.39,37.55L382.34,40.77L386.28,39.92L394.16,38.26L398.1,26.69L402.04,26.98L405.99,59.77L409.93,60.58L413.87,114.45L417.81,84.94L421.75,83.2L425.69,82.63L429.64,73.31L433.58,57.08L437.52,55.72L441.46,54.41L445.4,58.65L453.28,58.55L457.23,63.03L461.17,61.13L465.11,51.2L469.05,31.72L472.99,30.97L480.88,30.51L484.82,40.64L488.76,59.95L492.7,58.96L496.64,58.88L500.58,63.69L504.53,83.86L508.47,83.38L512.41,69.33L516.35,70.88L520.29,64.3L524.23,68.32L528.18,72.1L532.12,69.99L536.06,74.26L540,74.26" style="fill: rgb(99, 110, 250); fill-opacity: 0.5; stroke-width: 0;"/></g></g><g class="errorbars"/><g class="lines"><path class="js-line" d="M0,190.71L3.94,189.77L7.88,176.45L11.82,169.64L15.77,166.32L19.71,167.68L23.65,128.94L27.59,173.69L31.53,168.46L35.47,166.95L39.42,166.27L43.36,164.31L47.3,160.49L51.24,153.15L55.18,154.95L59.12,146.01L63.07,133.93L67.01,128.97L70.95,125.55L74.89,109.26L78.83,117.05L82.77,106.4L86.72,103.75L90.66,97.54L94.6,96.34L98.54,96.81L102.48,98.4L106.42,99.82L110.36,100.33L114.31,112.3L118.25,102.93L122.19,114.89L126.13,115.09L130.07,110.15L134.01,111.61L141.9,120.37L145.84,120.33L149.78,118.05L153.72,116.91L157.66,113.78L161.61,112.97L165.55,114.82L169.49,110.69L173.43,103.85L177.37,89.23L181.31,85.54L185.26,85.39L189.2,85.47L193.14,81L197.08,24.86L201.02,38.97L204.96,16L208.91,19.51L212.85,23.24L216.79,25.72L220.73,27.06L224.67,26.73L228.61,26.9L232.55,23.51L236.5,23.91L240.44,29.44L248.32,83L252.26,79.47L256.2,77.43L260.15,77.07L264.09,75.67L268.03,78.46L271.97,78.87L275.91,45.33L287.74,46.45L291.68,50.65L295.62,121.5L299.56,131.84L303.5,127.08L307.45,124.37L311.39,128.46L315.33,128.84L319.27,127.06L323.21,121.19L327.15,129.07L331.09,115.34L335.04,100.25L338.98,98.86L342.92,101.98L346.86,100.74L350.8,104.65L354.74,101.85L358.69,41.21L362.63,41.47L374.45,41.22L378.39,37.55L382.34,40.77L386.28,39.92L394.16,38.26L398.1,26.69L402.04,26.98L405.99,59.77L409.93,60.58L413.87,114.45L417.81,84.94L421.75,83.2L425.69,82.63L429.64,73.31L433.58,57.08L437.52,55.72L441.46,54.41L445.4,58.65L453.28,58.55L457.23,63.03L461.17,61.13L465.11,51.2L469.05,31.72L472.99,30.97L480.88,30.51L484.82,40.64L488.76,59.95L492.7,58.96L496.64,58.88L500.58,63.69L504.53,83.86L508.47,83.38L512.41,69.33L516.35,70.88L520.29,64.3L524.23,68.32L528.18,72.1L532.12,69.99L536.06,74.26L540,74.26" style="vector-effect: non-scaling-stroke; fill: none; stroke: rgb(99, 110, 250); stroke-opacity: 1; stroke-width: 2px; opacity: 1;"/></g><g class="points"/><g class="text"/></g></g></g><g class="overplot"/><path class="xlines-above crisp" d="M0,0" style="fill: none;"/><path class="ylines-above crisp" d="M0,0" style="fill: none;"/><g class="overlines-above"/><g class="xaxislayer-above"><g class="xtick"><text text-anchor="middle" x="0" y="433" transform="translate(107.59,0)" style="font-family: 'Open Sans', verdana, arial, sans-serif; font-size: 12px; fill: rgb(42, 63, 95); fill-opacity: 1; white-space: pre; opacity: 1;">Sep 2022</text></g><g class="xtick"><text text-anchor="middle" x="0" y="433" style="font-family: 'Open Sans', verdana, arial, sans-serif; font-size: 12px; fill: rgb(42, 63, 95); fill-opacity: 1; white-space: pre; opacity: 1;" transform="translate(225.84,0)">Oct 2022</text></g><g class="xtick"><text text-anchor="middle" x="0" y="433" style="font-family: 'Open Sans', verdana, arial, sans-serif; font-size: 12px; fill: rgb(42, 63, 95); fill-opacity: 1; white-space: pre; opacity: 1;" transform="translate(348.03,0)">Nov 2022</text></g><g class="xtick"><text text-anchor="middle" x="0" y="433" style="font-family: 'Open Sans', verdana, arial, sans-serif; font-size: 12px; fill: rgb(42, 63, 95); fill-opacity: 1; white-space: pre; opacity: 1;" transform="translate(466.28,0)">Dec 2022</text></g><g class="xtick"><text text-anchor="middle" x="0" y="433" style="font-family: 'Open Sans', verdana, arial, sans-serif; font-size: 12px; fill: rgb(42, 63, 95); fill-opacity: 1; white-space: pre; opacity: 1;" transform="translate(588.47,0)">Jan 2023</text></g></g><g class="yaxislayer-above"><g class="ytick"><text text-anchor="end" x="79" y="4.199999999999999" transform="translate(0,420)" style="font-family: 'Open Sans', verdana, arial, sans-serif; font-size: 12px; fill: rgb(42, 63, 95); fill-opacity: 1; white-space: pre; opacity: 1;">$0</text></g><g class="ytick"><text text-anchor="end" x="79" y="4.199999999999999" style="font-family: 'Open Sans', verdana, arial, sans-serif; font-size: 12px; fill: rgb(42, 63, 95); fill-opacity: 1; white-space: pre; opacity: 1;" transform="translate(0,356.86)">$0.5M</text></g><g class="ytick"><text text-anchor="end" x="79" y="4.199999999999999" style="font-family: 'Open Sans', verdana, arial, sans-serif; font-size: 12px; fill: rgb(42, 63, 95); fill-opacity: 1; white-space: pre; opacity: 1;" transform="translate(0,293.73)">$1M</text></g><g class="ytick"><text text-anchor="end" x="79" y="4.199999999999999" style="font-family: 'Open Sans', verdana, arial, sans-serif; font-size: 12px; fill: rgb(42, 63, 95); fill-opacity: 1; white-space: pre; opacity: 1;" transform="translate(0,230.59)">$1.5M</text></g><g class="ytick"><text text-anchor="end" x="79" y="4.199999999999999" style="font-family: 'Open Sans', verdana, arial, sans-serif; font-size: 12px; fill: rgb(42, 63, 95); fill-opacity: 1; white-space: pre; opacity: 1;" transform="translate(0,167.45)">$2M</text></g><g class="ytick"><text text-anchor="end" x="79" y="4.199999999999999" style="font-family: 'Open Sans', verdana, arial, sans-serif; font-size: 12px; fill: rgb(42, 63, 95); fill-opacity: 1; white-space: pre; opacity: 1;" transform="translate(0,104.32)">$2.5M</text></g></g><g class="overaxes-above"/></g></g><g class="polarlayer"/><g class="smithlayer"/><g class="ternarylayer"/><g class="geolayer"/><g class="funnelarealayer"/><g class="pielayer"/><g class="iciclelayer"/><g class="treemaplayer"/><g class="sunburstlayer"/><g class="glimages"/><defs id="topdefs-b614e6"><g class="clips"/></defs><g class="layer-above"><g class="imagelayer"/><g class="shapelayer"/></g><g class="infolayer"><g class="g-gtitle"><text class="gtitle" x="35" y="50" text-anchor="start" dy="0em" style="font-family: 'Open Sans', verdana, arial, sans-serif; font-size: 17px; fill: rgb(42, 63, 95); opacity: 1; font-weight: normal; white-space: pre;"><tspan class="line" dy="0em" x="35" y="50">Synthetix - USDC/SNX: Velo</tspan><tspan class="line" dy="1.3em" x="35" y="50">​<tspan style="font-size:70%" dy="-0.6em">Cumulative Net Dollar Flow since Program Announcement, Until Program End + 30 Days</tspan><tspan dy="0.42em">​</tspan></tspan></text></g><g class="g-xtitle"><text class="xtitle" x="350" y="460.8" text-anchor="middle" style="font-family: 'Open Sans', verdana, arial, sans-serif; font-size: 14px; fill: rgb(42, 63, 95); opacity: 1; font-weight: normal; white-space: pre;">Day</text></g><g class="g-ytitle"><text class="ytitle" transform="rotate(-90,20.840625000000003,260)" x="20.840625000000003" y="260" text-anchor="middle" style="font-family: 'Open Sans', verdana, arial, sans-serif; font-size: 14px; fill: rgb(42, 63, 95); opacity: 1; font-weight: normal; white-space: pre;">Cumulative Net Dollar Flow (N$F)</text></g></g></svg>