<svg class="main-svg" xmlns="http://www.w3.org/2000/svg" xmlns:xlink="http://www.w3.org/1999/xlink" width="700" height="500" style="" viewBox="0 0 700 500"><rect x="0" y="0" width="700" height="500" style="fill: rgb(255, 255, 255); fill-opacity: 1;"/><defs id="defs-7eecb2"><g class="clips"><clipPath id="clip7eecb2xyplot" class="plotclip"><rect width="540" height="320"/></clipPath><clipPath class="axesclip" id="clip7eecb2x"><rect x="80" y="0" width="540" height="500"/></clipPath><clipPath class="axesclip" id="clip7eecb2y"><rect x="0" y="100" width="700" height="320"/></clipPath><clipPath class="axesclip" id="clip7eecb2xy"><rect x="80" y="100" width="540" height="320"/></clipPath></g><g class="gradients"/><g class="patterns"/></defs><g class="bglayer"><rect class="bg" x="80" y="100" width="540" height="320" style="fill: rgb(229, 236, 246); fill-opacity: 1; stroke-width: 0;"/></g><g class="layer-below"><g class="imagelayer"/><g class="shapelayer"/></g><g class="cartesianlayer"><g class="subplot xy"><g class="layer-subplot"><g class="shapelayer"/><g class="imagelayer"/></g><g class="minor-gridlayer"><g class="x"/><g class="y"/></g><g class="gridlayer"><g class="x"><path class="xgrid crisp" transform="translate(109.45,0)" d="M0,100v320" style="stroke: rgb(255, 255, 255); stroke-opacity: 1; stroke-width: 1px;"/><path class="xgrid crisp" transform="translate(210.91,0)" d="M0,100v320" style="stroke: rgb(255, 255, 255); stroke-opacity: 1; stroke-width: 1px;"/><path class="xgrid crisp" transform="translate(309.09000000000003,0)" d="M0,100v320" style="stroke: rgb(255, 255, 255); stroke-opacity: 1; stroke-width: 1px;"/><path class="xgrid crisp" transform="translate(410.55,0)" d="M0,100v320" style="stroke: rgb(255, 255, 255); stroke-opacity: 1; stroke-width: 1px;"/><path class="xgrid crisp" transform="translate(512,0)" d="M0,100v320" style="stroke: rgb(255, 255, 255); stroke-opacity: 1; stroke-width: 1px;"/><path class="xgrid crisp" transform="translate(603.64,0)" d="M0,100v320" style="stroke: rgb(255, 255, 255); stroke-opacity: 1; stroke-width: 1px;"/></g><g class="y"><path class="ygrid crisp" transform="translate(0,381.25)" d="M80,0h540" style="stroke: rgb(255, 255, 255); stroke-opacity: 1; stroke-width: 1px;"/><path class="ygrid crisp" transform="translate(0,342.5)" d="M80,0h540" style="stroke: rgb(255, 255, 255); stroke-opacity: 1; stroke-width: 1px;"/><path class="ygrid crisp" transform="translate(0,303.75)" d="M80,0h540" style="stroke: rgb(255, 255, 255); stroke-opacity: 1; stroke-width: 1px;"/><path class="ygrid crisp" transform="translate(0,265)" d="M80,0h540" style="stroke: rgb(255, 255, 255); stroke-opacity: 1; stroke-width: 1px;"/><path class="ygrid crisp" transform="translate(0,226.25)" d="M80,0h540" style="stroke: rgb(255, 255, 255); stroke-opacity: 1; stroke-width: 1px;"/><path class="ygrid crisp" transform="translate(0,187.5)" d="M80,0h540" style="stroke: rgb(255, 255, 255); stroke-opacity: 1; stroke-width: 1px;"/><path class="ygrid crisp" transform="translate(0,148.75)" d="M80,0h540" style="stroke: rgb(255, 255, 255); stroke-opacity: 1; stroke-width: 1px;"/><path class="ygrid crisp" transform="translate(0,110)" d="M80,0h540" style="stroke: rgb(255, 255, 255); stroke-opacity: 1; stroke-width: 1px;"/></g></g><g class="zerolinelayer"><path class="yzl zl crisp" transform="translate(0,420)" d="M80,0h540" style="stroke: rgb(255, 255, 255); stroke-opacity: 1; stroke-width: 2px;"/></g><path class="xlines-below"/><path class="ylines-below"/><g class="overlines-below"/><g class="xaxislayer-below"/><g class="yaxislayer-below"/><g class="overaxes-below"/><g class="plot" transform="translate(80,100)" clip-path="url(#clip7eecb2xyplot)"><g class="scatterlayer mlayer"><g class="trace scatter trace78f345" style="stroke-miterlimit: 2;"><g class="fills"><g><path class="js-fill" d="M540,320L0,320L0,313.2L3.27,303.26L6.55,305.25L9.82,302.78L13.09,315.2L16.36,306.02L19.64,303.59L22.91,303.73L26.18,295.57L29.45,312.57L32.73,298.65L36,289.43L39.27,291.36L42.55,296.73L45.82,288.44L49.09,288.92L52.36,282.75L55.64,282.9L58.91,288.01L62.18,285.02L65.45,285.59L68.73,292.57L72,288.71L75.27,288.17L78.55,291.53L81.82,291.5L85.09,287.92L88.36,283.05L91.64,281.74L94.91,274.91L98.18,276.03L101.45,274.12L104.73,277.05L108,278.58L111.27,264.92L114.55,201.96L117.82,93.93L121.09,68.93L124.36,67.05L130.91,42.11L134.18,45.64L137.45,16L140.73,19.07L144,21.12L147.27,29.86L150.55,33.29L153.82,24.25L157.09,48.62L160.36,79.54L163.64,68.5L166.91,74.14L170.18,76.59L173.45,81.88L176.73,81.71L180,75.38L183.27,73.05L186.55,75.44L189.82,75.15L193.09,85.11L196.36,73.39L199.64,69.34L202.91,69.58L206.18,72.67L209.45,70.1L212.73,69.47L216,78.17L219.27,91.33L222.55,81.64L225.82,42.26L229.09,39.22L232.36,43.15L235.64,54.67L238.91,56.54L242.18,60.71L245.45,55.01L252,56.22L255.27,56.95L258.55,67.62L261.82,66.46L268.36,67.42L271.64,54.61L274.91,58.26L278.18,46.6L281.45,47.67L284.73,23.99L288,33.53L291.27,30.84L294.55,49.96L297.82,42.99L301.09,55.67L304.36,53.06L307.64,54.72L310.91,57.43L314.18,55.14L317.45,65.32L320.73,68.41L324,69.62L327.27,69.61L330.55,70.83L333.82,66.42L337.09,63.83L340.36,52.03L343.64,70.18L346.91,79.39L350.18,85.34L353.45,86.72L356.73,82.21L360,79.79L363.27,95.5L366.55,101.31L369.82,98.2L373.09,107.99L376.36,108.12L382.91,148.08L386.18,180.81L389.45,184.29L392.73,179.76L396,183.53L399.27,171.95L402.55,177.06L405.82,171.05L409.09,179.14L412.36,168.74L415.64,165.22L418.91,167.21L422.18,163.77L425.45,157.76L428.73,149.55L432,146.91L435.27,154.82L438.55,149.7L448.36,137.77L451.64,133.04L454.91,143.36L458.18,143.43L468,124.16L471.27,124.76L474.55,120.61L477.82,124.43L481.09,140.95L484.36,139.14L487.64,134.18L490.91,150.81L494.18,135.34L497.45,136.67L500.73,129.61L504,140.67L510.55,96.53L513.82,81.05L517.09,88.88L520.36,68.32L523.64,61.78L526.91,64.48L530.18,50.86L533.45,54.71L540,27.06" style="fill: rgb(99, 110, 250); fill-opacity: 0.5; stroke-width: 0;"/></g></g><g class="errorbars"/><g class="lines"><path class="js-line" d="M0,313.2L3.27,303.26L6.55,305.25L9.82,302.78L13.09,315.2L16.36,306.02L19.64,303.59L22.91,303.73L26.18,295.57L29.45,312.57L32.73,298.65L36,289.43L39.27,291.36L42.55,296.73L45.82,288.44L49.09,288.92L52.36,282.75L55.64,282.9L58.91,288.01L62.18,285.02L65.45,285.59L68.73,292.57L72,288.71L75.27,288.17L78.55,291.53L81.82,291.5L85.09,287.92L88.36,283.05L91.64,281.74L94.91,274.91L98.18,276.03L101.45,274.12L104.73,277.05L108,278.58L111.27,264.92L114.55,201.96L117.82,93.93L121.09,68.93L124.36,67.05L130.91,42.11L134.18,45.64L137.45,16L140.73,19.07L144,21.12L147.27,29.86L150.55,33.29L153.82,24.25L157.09,48.62L160.36,79.54L163.64,68.5L166.91,74.14L170.18,76.59L173.45,81.88L176.73,81.71L180,75.38L183.27,73.05L186.55,75.44L189.82,75.15L193.09,85.11L196.36,73.39L199.64,69.34L202.91,69.58L206.18,72.67L209.45,70.1L212.73,69.47L216,78.17L219.27,91.33L222.55,81.64L225.82,42.26L229.09,39.22L232.36,43.15L235.64,54.67L238.91,56.54L242.18,60.71L245.45,55.01L252,56.22L255.27,56.95L258.55,67.62L261.82,66.46L268.36,67.42L271.64,54.61L274.91,58.26L278.18,46.6L281.45,47.67L284.73,23.99L288,33.53L291.27,30.84L294.55,49.96L297.82,42.99L301.09,55.67L304.36,53.06L307.64,54.72L310.91,57.43L314.18,55.14L317.45,65.32L320.73,68.41L324,69.62L327.27,69.61L330.55,70.83L333.82,66.42L337.09,63.83L340.36,52.03L343.64,70.18L346.91,79.39L350.18,85.34L353.45,86.72L356.73,82.21L360,79.79L363.27,95.5L366.55,101.31L369.82,98.2L373.09,107.99L376.36,108.12L382.91,148.08L386.18,180.81L389.45,184.29L392.73,179.76L396,183.53L399.27,171.95L402.55,177.06L405.82,171.05L409.09,179.14L412.36,168.74L415.64,165.22L418.91,167.21L422.18,163.77L425.45,157.76L428.73,149.55L432,146.91L435.27,154.82L438.55,149.7L448.36,137.77L451.64,133.04L454.91,143.36L458.18,143.43L468,124.16L471.27,124.76L474.55,120.61L477.82,124.43L481.09,140.95L484.36,139.14L487.64,134.18L490.91,150.81L494.18,135.34L497.45,136.67L500.73,129.61L504,140.67L510.55,96.53L513.82,81.05L517.09,88.88L520.36,68.32L523.64,61.78L526.91,64.48L530.18,50.86L533.45,54.71L540,27.06" style="vector-effect: non-scaling-stroke; fill: none; stroke: rgb(99, 110, 250); stroke-opacity: 1; stroke-width: 2px; opacity: 1;"/></g><g class="points"/><g class="text"/></g></g></g><g class="overplot"/><path class="xlines-above crisp" d="M0,0" style="fill: none;"/><path class="ylines-above crisp" d="M0,0" style="fill: none;"/><g class="overlines-above"/><g class="xaxislayer-above"><g class="xtick"><text text-anchor="middle" x="0" y="433" transform="translate(109.45,0)" style="font-family: 'Open Sans', verdana, arial, sans-serif; font-size: 12px; fill: rgb(42, 63, 95); fill-opacity: 1; white-space: pre; opacity: 1;">Oct 2022</text></g><g class="xtick"><text text-anchor="middle" x="0" y="433" style="font-family: 'Open Sans', verdana, arial, sans-serif; font-size: 12px; fill: rgb(42, 63, 95); fill-opacity: 1; white-space: pre; opacity: 1;" transform="translate(210.91,0)">Nov 2022</text></g><g class="xtick"><text text-anchor="middle" x="0" y="433" style="font-family: 'Open Sans', verdana, arial, sans-serif; font-size: 12px; fill: rgb(42, 63, 95); fill-opacity: 1; white-space: pre; opacity: 1;" transform="translate(309.09000000000003,0)">Dec 2022</text></g><g class="xtick"><text text-anchor="middle" x="0" y="433" style="font-family: 'Open Sans', verdana, arial, sans-serif; font-size: 12px; fill: rgb(42, 63, 95); fill-opacity: 1; white-space: pre; opacity: 1;" transform="translate(410.55,0)">Jan 2023</text></g><g class="xtick"><text text-anchor="middle" x="0" y="433" style="font-family: 'Open Sans', verdana, arial, sans-serif; font-size: 12px; fill: rgb(42, 63, 95); fill-opacity: 1; white-space: pre; opacity: 1;" transform="translate(512,0)">Feb 2023</text></g><g class="xtick"><text text-anchor="middle" x="0" y="433" style="font-family: 'Open Sans', verdana, arial, sans-serif; font-size: 12px; fill: rgb(42, 63, 95); fill-opacity: 1; white-space: pre; opacity: 1;" transform="translate(603.64,0)">Mar 2023</text></g></g><g class="yaxislayer-above"><g class="ytick"><text text-anchor="end" x="79" y="4.199999999999999" transform="translate(0,420)" style="font-family: 'Open Sans', verdana, arial, sans-serif; font-size: 12px; fill: rgb(42, 63, 95); fill-opacity: 1; white-space: pre; opacity: 1;">$0</text></g><g class="ytick"><text text-anchor="end" x="79" y="4.199999999999999" style="font-family: 'Open Sans', verdana, arial, sans-serif; font-size: 12px; fill: rgb(42, 63, 95); fill-opacity: 1; white-space: pre; opacity: 1;" transform="translate(0,381.25)">$1M</text></g><g class="ytick"><text text-anchor="end" x="79" y="4.199999999999999" style="font-family: 'Open Sans', verdana, arial, sans-serif; font-size: 12px; fill: rgb(42, 63, 95); fill-opacity: 1; white-space: pre; opacity: 1;" transform="translate(0,342.5)">$2M</text></g><g class="ytick"><text text-anchor="end" x="79" y="4.199999999999999" style="font-family: 'Open Sans', verdana, arial, sans-serif; font-size: 12px; fill: rgb(42, 63, 95); fill-opacity: 1; white-space: pre; opacity: 1;" transform="translate(0,303.75)">$3M</text></g><g class="ytick"><text text-anchor="end" x="79" y="4.199999999999999" style="font-family: 'Open Sans', verdana, arial, sans-serif; font-size: 12px; fill: rgb(42, 63, 95); fill-opacity: 1; white-space: pre; opacity: 1;" transform="translate(0,265)">$4M</text></g><g class="ytick"><text text-anchor="end" x="79" y="4.199999999999999" style="font-family: 'Open Sans', verdana, arial, sans-serif; font-size: 12px; fill: rgb(42, 63, 95); fill-opacity: 1; white-space: pre; opacity: 1;" transform="translate(0,226.25)">$5M</text></g><g class="ytick"><text text-anchor="end" x="79" y="4.199999999999999" style="font-family: 'Open Sans', verdana, arial, sans-serif; font-size: 12px; fill: rgb(42, 63, 95); fill-opacity: 1; white-space: pre; opacity: 1;" transform="translate(0,187.5)">$6M</text></g><g class="ytick"><text text-anchor="end" x="79" y="4.199999999999999" style="font-family: 'Open Sans', verdana, arial, sans-serif; font-size: 12px; fill: rgb(42, 63, 95); fill-opacity: 1; white-space: pre; opacity: 1;" transform="translate(0,148.75)">$7M</text></g><g class="ytick"><text text-anchor="end" x="79" y="4.199999999999999" style="font-family: 'Open Sans', verdana, arial, sans-serif; font-size: 12px; fill: rgb(42, 63, 95); fill-opacity: 1; white-space: pre; opacity: 1;" transform="translate(0,110)">$8M</text></g></g><g class="overaxes-above"/></g></g><g class="polarlayer"/><g class="smithlayer"/><g class="ternarylayer"/><g class="geolayer"/><g class="funnelarealayer"/><g class="pielayer"/><g class="iciclelayer"/><g class="treemaplayer"/><g class="sunburstlayer"/><g class="glimages"/><defs id="topdefs-7eecb2"><g class="clips"/></defs><g class="layer-above"><g class="imagelayer"/><g class="shapelayer"/></g><g class="infolayer"><g class="g-gtitle"><text class="gtitle" x="35" y="50" text-anchor="start" dy="0em" style="font-family: 'Open Sans', verdana, arial, sans-serif; font-size: 17px; fill: rgb(42, 63, 95); opacity: 1; font-weight: normal; white-space: pre;"><tspan class="line" dy="0em" x="35" y="50">Hop Protocol</tspan><tspan class="line" dy="1.3em" x="35" y="50">​<tspan style="font-size:70%" dy="-0.6em">Cumulative Net Flows since Program Announcement, Until Program End + 30 Days</tspan><tspan dy="0.42em">​</tspan></tspan></text></g><g class="g-xtitle"><text class="xtitle" x="350" y="460.8" text-anchor="middle" style="font-family: 'Open Sans', verdana, arial, sans-serif; font-size: 14px; fill: rgb(42, 63, 95); opacity: 1; font-weight: normal; white-space: pre;">Day</text></g><g class="g-ytitle"><text class="ytitle" transform="rotate(-90,30.856250000000003,260)" x="30.856250000000003" y="260" text-anchor="middle" style="font-family: 'Open Sans', verdana, arial, sans-serif; font-size: 14px; fill: rgb(42, 63, 95); opacity: 1; font-weight: normal; white-space: pre;">Cumulative Net Flows (USD)</text></g></g></svg>