<svg class="main-svg" xmlns="http://www.w3.org/2000/svg" xmlns:xlink="http://www.w3.org/1999/xlink" width="700" height="500" style="" viewBox="0 0 700 500"><rect x="0" y="0" width="700" height="500" style="fill: rgb(255, 255, 255); fill-opacity: 1;"/><defs id="defs-aa4f97"><g class="clips"><clipPath id="clipaa4f97xyplot" class="plotclip"><rect width="540" height="320"/></clipPath><clipPath class="axesclip" id="clipaa4f97x"><rect x="80" y="0" width="540" height="500"/></clipPath><clipPath class="axesclip" id="clipaa4f97y"><rect x="0" y="100" width="700" height="320"/></clipPath><clipPath class="axesclip" id="clipaa4f97xy"><rect x="80" y="100" width="540" height="320"/></clipPath></g><g class="gradients"/><g class="patterns"/></defs><g class="bglayer"><rect class="bg" x="80" y="100" width="540" height="320" style="fill: rgb(229, 236, 246); fill-opacity: 1; stroke-width: 0;"/></g><g class="layer-below"><g class="imagelayer"/><g class="shapelayer"/></g><g class="cartesianlayer"><g class="subplot xy"><g class="layer-subplot"><g class="shapelayer"/><g class="imagelayer"/></g><g class="minor-gridlayer"><g class="x"/><g class="y"/></g><g class="gridlayer"><g class="x"><path class="xgrid crisp" transform="translate(128.12,0)" d="M0,100v320" style="stroke: rgb(255, 255, 255); stroke-opacity: 1; stroke-width: 1px;"/><path class="xgrid crisp" transform="translate(210.99,0)" d="M0,100v320" style="stroke: rgb(255, 255, 255); stroke-opacity: 1; stroke-width: 1px;"/><path class="xgrid crisp" transform="translate(291.19,0)" d="M0,100v320" style="stroke: rgb(255, 255, 255); stroke-opacity: 1; stroke-width: 1px;"/><path class="xgrid crisp" transform="translate(374.06,0)" d="M0,100v320" style="stroke: rgb(255, 255, 255); stroke-opacity: 1; stroke-width: 1px;"/><path class="xgrid crisp" transform="translate(454.26,0)" d="M0,100v320" style="stroke: rgb(255, 255, 255); stroke-opacity: 1; stroke-width: 1px;"/><path class="xgrid crisp" transform="translate(537.13,0)" d="M0,100v320" style="stroke: rgb(255, 255, 255); stroke-opacity: 1; stroke-width: 1px;"/></g><g class="y"><path class="ygrid crisp" transform="translate(0,373.26)" d="M80,0h540" style="stroke: rgb(255, 255, 255); stroke-opacity: 1; stroke-width: 1px;"/><path class="ygrid crisp" transform="translate(0,321.90999999999997)" d="M80,0h540" style="stroke: rgb(255, 255, 255); stroke-opacity: 1; stroke-width: 1px;"/><path class="ygrid crisp" transform="translate(0,270.55)" d="M80,0h540" style="stroke: rgb(255, 255, 255); stroke-opacity: 1; stroke-width: 1px;"/><path class="ygrid crisp" transform="translate(0,219.19)" d="M80,0h540" style="stroke: rgb(255, 255, 255); stroke-opacity: 1; stroke-width: 1px;"/><path class="ygrid crisp" transform="translate(0,167.84)" d="M80,0h540" style="stroke: rgb(255, 255, 255); stroke-opacity: 1; stroke-width: 1px;"/></g></g><g class="zerolinelayer"><path class="yzl zl crisp" transform="translate(0,116.48)" d="M80,0h540" style="stroke: rgb(255, 255, 255); stroke-opacity: 1; stroke-width: 2px;"/></g><path class="xlines-below"/><path class="ylines-below"/><g class="overlines-below"/><g class="xaxislayer-below"/><g class="yaxislayer-below"/><g class="overaxes-below"/><g class="plot" transform="translate(80,100)" clip-path="url(#clipaa4f97xyplot)"><g class="scatterlayer mlayer"><g class="trace scatter trace5872a2" style="stroke-miterlimit: 2;"><g class="fills"><g><path class="js-fill" d="M540,16.48L0,16.48L0,17.7L2.67,16.81L5.35,16.72L10.69,16L13.37,83.1L16.04,78.16L18.71,77L21.39,79.67L24.06,80.87L26.73,77.49L29.41,77.62L32.08,77.46L34.75,80.94L40.1,80.38L42.77,80.2L45.45,80.29L48.12,81.32L50.79,81.38L53.47,83.55L56.14,76.01L58.81,73.72L61.49,71.87L64.16,74.43L66.83,76.73L69.5,74.49L72.18,76.04L74.85,75.4L77.52,73.46L80.2,69.18L82.87,69.5L85.54,68.69L88.22,68.01L90.89,68.11L93.56,65.86L96.24,65.29L98.91,64.88L101.58,65.86L106.93,66.31L109.6,70.28L112.28,70.46L114.95,73.67L117.62,74.66L120.3,72.77L122.97,72.62L125.64,78.57L128.32,78.91L130.99,80.41L136.34,81.84L139.01,81.79L147.03,81.47L149.7,81.06L152.38,75.92L155.05,76.12L160.4,76.27L163.07,73.94L165.74,74.01L168.42,79.2L176.44,77.64L179.11,77.99L184.46,76.98L187.13,76.56L189.8,72.17L192.48,72.75L208.51,71.92L211.19,70.07L216.53,69.94L219.21,69.27L229.9,69.2L232.57,69.25L243.27,68.92L245.94,68.35L248.61,67.53L251.29,67.5L253.96,67.04L256.63,67.6L259.31,65.22L261.98,65.18L264.65,66.18L267.33,66.01L272.67,67.09L275.35,68.73L288.71,73.13L291.39,73.16L294.06,75.15L296.73,74.32L299.41,74.79L302.08,79.32L312.77,78.22L315.45,80.91L318.12,81L320.79,91.09L323.47,92.53L326.14,95.08L328.81,96L331.49,98.75L334.16,102.3L336.83,102.12L339.5,122.25L342.18,126.15L347.52,125.16L350.2,125.76L352.87,124.7L355.54,127.49L363.56,127.2L366.24,125.54L368.91,129.22L371.58,129.22L374.26,131.81L376.93,132.24L379.6,135.02L382.28,128.86L384.95,128.65L387.62,130.87L390.3,130.21L392.97,128.56L395.64,128.39L398.32,131.07L406.34,130.78L409.01,130.28L411.68,132.3L414.36,132.14L417.03,129.96L419.7,128.85L427.72,128.74L430.4,127.77L433.07,128.46L435.74,127.68L443.76,127.52L446.44,127.29L451.78,126.07L454.46,126.15L459.8,126.1L462.48,126.07L467.82,125.44L470.5,127.83L475.84,126.87L478.51,126.74L483.86,124.15L486.53,124.28L489.21,125.05L491.88,123.29L494.55,129.66L497.23,130.16L499.9,130.52L502.57,132.07L505.25,132.23L507.92,131.33L513.27,133.73L515.94,132.99L521.29,131.52L523.96,133.02L529.31,132.14L531.98,132.62L534.65,132.72L537.33,131.88L540,132.38L540,304" style="fill: rgb(99, 110, 250); fill-opacity: 0.5; stroke-width: 0;"/></g></g><g class="errorbars"/><g class="lines"><path class="js-line" d="M0,17.7L2.67,16.81L5.35,16.72L10.69,16L13.37,83.1L16.04,78.16L18.71,77L21.39,79.67L24.06,80.87L26.73,77.49L29.41,77.62L32.08,77.46L34.75,80.94L40.1,80.38L42.77,80.2L45.45,80.29L48.12,81.32L50.79,81.38L53.47,83.55L56.14,76.01L58.81,73.72L61.49,71.87L64.16,74.43L66.83,76.73L69.5,74.49L72.18,76.04L74.85,75.4L77.52,73.46L80.2,69.18L82.87,69.5L85.54,68.69L88.22,68.01L90.89,68.11L93.56,65.86L96.24,65.29L98.91,64.88L101.58,65.86L106.93,66.31L109.6,70.28L112.28,70.46L114.95,73.67L117.62,74.66L120.3,72.77L122.97,72.62L125.64,78.57L128.32,78.91L130.99,80.41L136.34,81.84L139.01,81.79L147.03,81.47L149.7,81.06L152.38,75.92L155.05,76.12L160.4,76.27L163.07,73.94L165.74,74.01L168.42,79.2L176.44,77.64L179.11,77.99L184.46,76.98L187.13,76.56L189.8,72.17L192.48,72.75L208.51,71.92L211.19,70.07L216.53,69.94L219.21,69.27L229.9,69.2L232.57,69.25L243.27,68.92L245.94,68.35L248.61,67.53L251.29,67.5L253.96,67.04L256.63,67.6L259.31,65.22L261.98,65.18L264.65,66.18L267.33,66.01L272.67,67.09L275.35,68.73L288.71,73.13L291.39,73.16L294.06,75.15L296.73,74.32L299.41,74.79L302.08,79.32L312.77,78.22L315.45,80.91L318.12,81L320.79,91.09L323.47,92.53L326.14,95.08L328.81,96L331.49,98.75L334.16,102.3L336.83,102.12L339.5,122.25L342.18,126.15L347.52,125.16L350.2,125.76L352.87,124.7L355.54,127.49L363.56,127.2L366.24,125.54L368.91,129.22L371.58,129.22L374.26,131.81L376.93,132.24L379.6,135.02L382.28,128.86L384.95,128.65L387.62,130.87L390.3,130.21L392.97,128.56L395.64,128.39L398.32,131.07L406.34,130.78L409.01,130.28L411.68,132.3L414.36,132.14L417.03,129.96L419.7,128.85L427.72,128.74L430.4,127.77L433.07,128.46L435.74,127.68L443.76,127.52L446.44,127.29L451.78,126.07L454.46,126.15L459.8,126.1L462.48,126.07L467.82,125.44L470.5,127.83L475.84,126.87L478.51,126.74L483.86,124.15L486.53,124.28L489.21,125.05L491.88,123.29L494.55,129.66L497.23,130.16L499.9,130.52L502.57,132.07L505.25,132.23L507.92,131.33L513.27,133.73L515.94,132.99L521.29,131.52L523.96,133.02L529.31,132.14L531.98,132.62L534.65,132.72L537.33,131.88L540,132.38L540,304" style="vector-effect: non-scaling-stroke; fill: none; stroke: rgb(99, 110, 250); stroke-opacity: 1; stroke-width: 2px; opacity: 1;"/></g><g class="points"/><g class="text"/></g></g></g><g class="overplot"/><path class="xlines-above crisp" d="M0,0" style="fill: none;"/><path class="ylines-above crisp" d="M0,0" style="fill: none;"/><g class="overlines-above"/><g class="xaxislayer-above"><g class="xtick"><text text-anchor="middle" x="0" y="433" transform="translate(128.12,0)" style="font-family: 'Open Sans', verdana, arial, sans-serif; font-size: 12px; fill: rgb(42, 63, 95); fill-opacity: 1; white-space: pre; opacity: 1;">Aug 2022</text></g><g class="xtick"><text text-anchor="middle" x="0" y="433" style="font-family: 'Open Sans', verdana, arial, sans-serif; font-size: 12px; fill: rgb(42, 63, 95); fill-opacity: 1; white-space: pre; opacity: 1;" transform="translate(210.99,0)">Sep 2022</text></g><g class="xtick"><text text-anchor="middle" x="0" y="433" style="font-family: 'Open Sans', verdana, arial, sans-serif; font-size: 12px; fill: rgb(42, 63, 95); fill-opacity: 1; white-space: pre; opacity: 1;" transform="translate(291.19,0)">Oct 2022</text></g><g class="xtick"><text text-anchor="middle" x="0" y="433" style="font-family: 'Open Sans', verdana, arial, sans-serif; font-size: 12px; fill: rgb(42, 63, 95); fill-opacity: 1; white-space: pre; opacity: 1;" transform="translate(374.06,0)">Nov 2022</text></g><g class="xtick"><text text-anchor="middle" x="0" y="433" style="font-family: 'Open Sans', verdana, arial, sans-serif; font-size: 12px; fill: rgb(42, 63, 95); fill-opacity: 1; white-space: pre; opacity: 1;" transform="translate(454.26,0)">Dec 2022</text></g><g class="xtick"><text text-anchor="middle" x="0" y="433" style="font-family: 'Open Sans', verdana, arial, sans-serif; font-size: 12px; fill: rgb(42, 63, 95); fill-opacity: 1; white-space: pre; opacity: 1;" transform="translate(537.13,0)">Jan 2023</text></g><g class="xtick"><text text-anchor="middle" x="0" y="433" style="font-family: 'Open Sans', verdana, arial, sans-serif; font-size: 12px; fill: rgb(42, 63, 95); fill-opacity: 1; white-space: pre; opacity: 1;" transform="translate(620,0)">Feb 2023</text></g></g><g class="yaxislayer-above"><g class="ytick"><text text-anchor="end" x="79" y="4.199999999999999" transform="translate(0,373.26)" style="font-family: 'Open Sans', verdana, arial, sans-serif; font-size: 12px; fill: rgb(42, 63, 95); fill-opacity: 1; white-space: pre; opacity: 1;">$−25M</text></g><g class="ytick"><text text-anchor="end" x="79" y="4.199999999999999" style="font-family: 'Open Sans', verdana, arial, sans-serif; font-size: 12px; fill: rgb(42, 63, 95); fill-opacity: 1; white-space: pre; opacity: 1;" transform="translate(0,321.90999999999997)">$−20M</text></g><g class="ytick"><text text-anchor="end" x="79" y="4.199999999999999" style="font-family: 'Open Sans', verdana, arial, sans-serif; font-size: 12px; fill: rgb(42, 63, 95); fill-opacity: 1; white-space: pre; opacity: 1;" transform="translate(0,270.55)">$−15M</text></g><g class="ytick"><text text-anchor="end" x="79" y="4.199999999999999" style="font-family: 'Open Sans', verdana, arial, sans-serif; font-size: 12px; fill: rgb(42, 63, 95); fill-opacity: 1; white-space: pre; opacity: 1;" transform="translate(0,219.19)">$−10M</text></g><g class="ytick"><text text-anchor="end" x="79" y="4.199999999999999" style="font-family: 'Open Sans', verdana, arial, sans-serif; font-size: 12px; fill: rgb(42, 63, 95); fill-opacity: 1; white-space: pre; opacity: 1;" transform="translate(0,167.84)">$−5M</text></g><g class="ytick"><text text-anchor="end" x="79" y="4.199999999999999" style="font-family: 'Open Sans', verdana, arial, sans-serif; font-size: 12px; fill: rgb(42, 63, 95); fill-opacity: 1; white-space: pre; opacity: 1;" transform="translate(0,116.48)">$0</text></g></g><g class="overaxes-above"/></g></g><g class="polarlayer"/><g class="smithlayer"/><g class="ternarylayer"/><g class="geolayer"/><g class="funnelarealayer"/><g class="pielayer"/><g class="iciclelayer"/><g class="treemaplayer"/><g class="sunburstlayer"/><g class="glimages"/><defs id="topdefs-aa4f97"><g class="clips"/></defs><g class="layer-above"><g class="imagelayer"/><g class="shapelayer"/></g><g class="infolayer"><g class="g-gtitle"><text class="gtitle" x="35" y="50" text-anchor="start" dy="0em" style="font-family: 'Open Sans', verdana, arial, sans-serif; font-size: 17px; fill: rgb(42, 63, 95); opacity: 1; font-weight: normal; white-space: pre;"><tspan class="line" dy="0em" x="35" y="50">Perpetual Protocol</tspan><tspan class="line" dy="1.3em" x="35" y="50">​<tspan style="font-size:70%" dy="-0.6em">Cumulative Net Dollar Flow since Program Announcement, Until Program End + 30 Days</tspan><tspan dy="0.42em">​</tspan></tspan></text></g><g class="g-xtitle"><text class="xtitle" x="350" y="460.8" text-anchor="middle" style="font-family: 'Open Sans', verdana, arial, sans-serif; font-size: 14px; fill: rgb(42, 63, 95); opacity: 1; font-weight: normal; white-space: pre;">Day</text></g><g class="g-ytitle"><text class="ytitle" transform="rotate(-90,17.168750000000003,260)" x="17.168750000000003" y="260" text-anchor="middle" style="font-family: 'Open Sans', verdana, arial, sans-serif; font-size: 14px; fill: rgb(42, 63, 95); opacity: 1; font-weight: normal; white-space: pre;">Cumulative Net Dollar Flow (N$F)</text></g></g></svg>