<svg class="main-svg" xmlns="http://www.w3.org/2000/svg" xmlns:xlink="http://www.w3.org/1999/xlink" width="700" height="500" style="" viewBox="0 0 700 500"><rect x="0" y="0" width="700" height="500" style="fill: rgb(255, 255, 255); fill-opacity: 1;"/><defs id="defs-fddae9"><g class="clips"><clipPath id="clipfddae9xyplot" class="plotclip"><rect width="540" height="320"/></clipPath><clipPath class="axesclip" id="clipfddae9x"><rect x="80" y="0" width="540" height="500"/></clipPath><clipPath class="axesclip" id="clipfddae9y"><rect x="0" y="100" width="700" height="320"/></clipPath><clipPath class="axesclip" id="clipfddae9xy"><rect x="80" y="100" width="540" height="320"/></clipPath></g><g class="gradients"/><g class="patterns"/></defs><g class="bglayer"><rect class="bg" x="80" y="100" width="540" height="320" style="fill: rgb(229, 236, 246); fill-opacity: 1; stroke-width: 0;"/></g><g class="layer-below"><g class="imagelayer"/><g class="shapelayer"/></g><g class="cartesianlayer"><g class="subplot xy"><g class="layer-subplot"><g class="shapelayer"/><g class="imagelayer"/></g><g class="minor-gridlayer"><g class="x"/><g class="y"/></g><g class="gridlayer"><g class="x"><path class="xgrid crisp" transform="translate(95.43,0)" d="M0,100v320" style="stroke: rgb(255, 255, 255); stroke-opacity: 1; stroke-width: 1px;"/><path class="xgrid crisp" transform="translate(215,0)" d="M0,100v320" style="stroke: rgb(255, 255, 255); stroke-opacity: 1; stroke-width: 1px;"/><path class="xgrid crisp" transform="translate(330.71000000000004,0)" d="M0,100v320" style="stroke: rgb(255, 255, 255); stroke-opacity: 1; stroke-width: 1px;"/><path class="xgrid crisp" transform="translate(450.29,0)" d="M0,100v320" style="stroke: rgb(255, 255, 255); stroke-opacity: 1; stroke-width: 1px;"/><path class="xgrid crisp" transform="translate(569.86,0)" d="M0,100v320" style="stroke: rgb(255, 255, 255); stroke-opacity: 1; stroke-width: 1px;"/></g><g class="y"><path class="ygrid crisp" transform="translate(0,382.3)" d="M80,0h540" style="stroke: rgb(255, 255, 255); stroke-opacity: 1; stroke-width: 1px;"/><path class="ygrid crisp" transform="translate(0,344.6)" d="M80,0h540" style="stroke: rgb(255, 255, 255); stroke-opacity: 1; stroke-width: 1px;"/><path class="ygrid crisp" transform="translate(0,306.89)" d="M80,0h540" style="stroke: rgb(255, 255, 255); stroke-opacity: 1; stroke-width: 1px;"/><path class="ygrid crisp" transform="translate(0,269.19)" d="M80,0h540" style="stroke: rgb(255, 255, 255); stroke-opacity: 1; stroke-width: 1px;"/><path class="ygrid crisp" transform="translate(0,231.49)" d="M80,0h540" style="stroke: rgb(255, 255, 255); stroke-opacity: 1; stroke-width: 1px;"/><path class="ygrid crisp" transform="translate(0,193.79000000000002)" d="M80,0h540" style="stroke: rgb(255, 255, 255); stroke-opacity: 1; stroke-width: 1px;"/><path class="ygrid crisp" transform="translate(0,156.07999999999998)" d="M80,0h540" style="stroke: rgb(255, 255, 255); stroke-opacity: 1; stroke-width: 1px;"/><path class="ygrid crisp" transform="translate(0,118.38)" d="M80,0h540" style="stroke: rgb(255, 255, 255); stroke-opacity: 1; stroke-width: 1px;"/></g></g><g class="zerolinelayer"><path class="yzl zl crisp" transform="translate(0,420)" d="M80,0h540" style="stroke: rgb(255, 255, 255); stroke-opacity: 1; stroke-width: 2px;"/></g><path class="xlines-below"/><path class="ylines-below"/><g class="overlines-below"/><g class="xaxislayer-below"/><g class="yaxislayer-below"/><g class="overaxes-below"/><g class="plot" transform="translate(80,100)" clip-path="url(#clipfddae9xyplot)"><g class="scatterlayer mlayer"><g class="trace scatter traced18fed" style="stroke-miterlimit: 2;"><g class="fills"><g><path class="js-fill" d="M540,320L0,320L0,287.58L3.86,286.96L7.71,280.4L15.43,279.07L19.29,276.38L23.14,275.72L27,272.62L30.86,262.83L34.71,265.18L38.57,266.98L42.43,262.29L46.29,262.24L50.14,261.44L54,263.75L57.86,264.86L61.71,264.72L65.57,255.49L69.43,255.44L73.29,254.2L77.14,254.25L81,246.69L84.86,247.19L88.71,246.91L92.57,248.74L96.43,249.17L100.29,247.44L104.14,247.82L108,250.07L111.86,255.66L115.71,253.75L119.57,248.82L123.43,247.3L127.29,247.61L138.86,245.41L142.71,240.53L154.29,238.21L158.14,234.24L162,250.01L165.86,251.77L169.71,264.3L173.57,264.65L181.29,271.3L185.14,272.19L189,262.56L192.86,262.4L196.71,261.03L200.57,260.52L208.29,259.41L212.14,259.99L216,258.97L219.86,260.53L223.71,256.65L227.57,254.77L231.43,249.87L235.29,249.06L239.14,253.69L243,254.25L246.86,252.85L250.71,246L254.57,243.72L258.43,243.49L262.29,243.14L266.14,241.39L270,246.18L273.86,242.87L277.71,245.27L281.57,240.55L285.43,246.3L289.29,223.13L293.14,230.54L297,227.13L300.86,231.45L304.71,252.29L308.57,252.31L312.43,258.42L316.29,259.26L320.14,258.27L324,251.19L327.86,250.45L339.43,250.23L343.29,250.28L351,252.17L354.86,254.06L362.57,254.37L366.43,255.26L370.29,255.3L374.14,254.41L378,254.51L381.86,255.53L385.71,255.15L389.57,257.66L393.43,255.07L397.29,255.08L401.14,251.65L405,250.99L412.71,247.32L416.57,244.16L428.14,242.2L432,236.77L435.86,233.74L439.71,224.59L443.57,219.49L447.43,208.36L451.29,209.47L455.14,200.36L466.71,149.12L470.57,138.72L474.43,132.74L478.29,130.68L482.14,126.91L486,117.9L489.86,114.07L493.71,107.31L497.57,103.22L501.43,100.82L505.29,95.52L509.14,67.22L513,50.41L516.86,27.03L524.57,30.79L528.43,23.52L532.29,17.08L536.14,16.24L540,16" style="fill: rgb(99, 110, 250); fill-opacity: 0.5; stroke-width: 0;"/></g></g><g class="errorbars"/><g class="lines"><path class="js-line" d="M0,287.58L3.86,286.96L7.71,280.4L15.43,279.07L19.29,276.38L23.14,275.72L27,272.62L30.86,262.83L34.71,265.18L38.57,266.98L42.43,262.29L46.29,262.24L50.14,261.44L54,263.75L57.86,264.86L61.71,264.72L65.57,255.49L69.43,255.44L73.29,254.2L77.14,254.25L81,246.69L84.86,247.19L88.71,246.91L92.57,248.74L96.43,249.17L100.29,247.44L104.14,247.82L108,250.07L111.86,255.66L115.71,253.75L119.57,248.82L123.43,247.3L127.29,247.61L138.86,245.41L142.71,240.53L154.29,238.21L158.14,234.24L162,250.01L165.86,251.77L169.71,264.3L173.57,264.65L181.29,271.3L185.14,272.19L189,262.56L192.86,262.4L196.71,261.03L200.57,260.52L208.29,259.41L212.14,259.99L216,258.97L219.86,260.53L223.71,256.65L227.57,254.77L231.43,249.87L235.29,249.06L239.14,253.69L243,254.25L246.86,252.85L250.71,246L254.57,243.72L258.43,243.49L262.29,243.14L266.14,241.39L270,246.18L273.86,242.87L277.71,245.27L281.57,240.55L285.43,246.3L289.29,223.13L293.14,230.54L297,227.13L300.86,231.45L304.71,252.29L308.57,252.31L312.43,258.42L316.29,259.26L320.14,258.27L324,251.19L327.86,250.45L339.43,250.23L343.29,250.28L351,252.17L354.86,254.06L362.57,254.37L366.43,255.26L370.29,255.3L374.14,254.41L378,254.51L381.86,255.53L385.71,255.15L389.57,257.66L393.43,255.07L397.29,255.08L401.14,251.65L405,250.99L412.71,247.32L416.57,244.16L428.14,242.2L432,236.77L435.86,233.74L439.71,224.59L443.57,219.49L447.43,208.36L451.29,209.47L455.14,200.36L466.71,149.12L470.57,138.72L474.43,132.74L478.29,130.68L482.14,126.91L486,117.9L489.86,114.07L493.71,107.31L497.57,103.22L501.43,100.82L505.29,95.52L509.14,67.22L513,50.41L516.86,27.03L524.57,30.79L528.43,23.52L532.29,17.08L536.14,16.24L540,16" style="vector-effect: non-scaling-stroke; fill: none; stroke: rgb(99, 110, 250); stroke-opacity: 1; stroke-width: 2px; opacity: 1;"/></g><g class="points"/><g class="text"/></g></g></g><g class="overplot"/><path class="xlines-above crisp" d="M0,0" style="fill: none;"/><path class="ylines-above crisp" d="M0,0" style="fill: none;"/><g class="overlines-above"/><g class="xaxislayer-above"><g class="xtick"><text text-anchor="middle" x="0" y="433" transform="translate(95.43,0)" style="font-family: 'Open Sans', verdana, arial, sans-serif; font-size: 12px; fill: rgb(42, 63, 95); fill-opacity: 1; white-space: pre; opacity: 1;">Oct 2022</text></g><g class="xtick"><text text-anchor="middle" x="0" y="433" style="font-family: 'Open Sans', verdana, arial, sans-serif; font-size: 12px; fill: rgb(42, 63, 95); fill-opacity: 1; white-space: pre; opacity: 1;" transform="translate(215,0)">Nov 2022</text></g><g class="xtick"><text text-anchor="middle" x="0" y="433" style="font-family: 'Open Sans', verdana, arial, sans-serif; font-size: 12px; fill: rgb(42, 63, 95); fill-opacity: 1; white-space: pre; opacity: 1;" transform="translate(330.71000000000004,0)">Dec 2022</text></g><g class="xtick"><text text-anchor="middle" x="0" y="433" style="font-family: 'Open Sans', verdana, arial, sans-serif; font-size: 12px; fill: rgb(42, 63, 95); fill-opacity: 1; white-space: pre; opacity: 1;" transform="translate(450.29,0)">Jan 2023</text></g><g class="xtick"><text text-anchor="middle" x="0" y="433" style="font-family: 'Open Sans', verdana, arial, sans-serif; font-size: 12px; fill: rgb(42, 63, 95); fill-opacity: 1; white-space: pre; opacity: 1;" transform="translate(569.86,0)">Feb 2023</text></g></g><g class="yaxislayer-above"><g class="ytick"><text text-anchor="end" x="79" y="4.199999999999999" transform="translate(0,420)" style="font-family: 'Open Sans', verdana, arial, sans-serif; font-size: 12px; fill: rgb(42, 63, 95); fill-opacity: 1; white-space: pre; opacity: 1;">$0</text></g><g class="ytick"><text text-anchor="end" x="79" y="4.199999999999999" style="font-family: 'Open Sans', verdana, arial, sans-serif; font-size: 12px; fill: rgb(42, 63, 95); fill-opacity: 1; white-space: pre; opacity: 1;" transform="translate(0,382.3)">$5M</text></g><g class="ytick"><text text-anchor="end" x="79" y="4.199999999999999" style="font-family: 'Open Sans', verdana, arial, sans-serif; font-size: 12px; fill: rgb(42, 63, 95); fill-opacity: 1; white-space: pre; opacity: 1;" transform="translate(0,344.6)">$10M</text></g><g class="ytick"><text text-anchor="end" x="79" y="4.199999999999999" style="font-family: 'Open Sans', verdana, arial, sans-serif; font-size: 12px; fill: rgb(42, 63, 95); fill-opacity: 1; white-space: pre; opacity: 1;" transform="translate(0,306.89)">$15M</text></g><g class="ytick"><text text-anchor="end" x="79" y="4.199999999999999" style="font-family: 'Open Sans', verdana, arial, sans-serif; font-size: 12px; fill: rgb(42, 63, 95); fill-opacity: 1; white-space: pre; opacity: 1;" transform="translate(0,269.19)">$20M</text></g><g class="ytick"><text text-anchor="end" x="79" y="4.199999999999999" style="font-family: 'Open Sans', verdana, arial, sans-serif; font-size: 12px; fill: rgb(42, 63, 95); fill-opacity: 1; white-space: pre; opacity: 1;" transform="translate(0,231.49)">$25M</text></g><g class="ytick"><text text-anchor="end" x="79" y="4.199999999999999" style="font-family: 'Open Sans', verdana, arial, sans-serif; font-size: 12px; fill: rgb(42, 63, 95); fill-opacity: 1; white-space: pre; opacity: 1;" transform="translate(0,193.79000000000002)">$30M</text></g><g class="ytick"><text text-anchor="end" x="79" y="4.199999999999999" style="font-family: 'Open Sans', verdana, arial, sans-serif; font-size: 12px; fill: rgb(42, 63, 95); fill-opacity: 1; white-space: pre; opacity: 1;" transform="translate(0,156.07999999999998)">$35M</text></g><g class="ytick"><text text-anchor="end" x="79" y="4.199999999999999" style="font-family: 'Open Sans', verdana, arial, sans-serif; font-size: 12px; fill: rgb(42, 63, 95); fill-opacity: 1; white-space: pre; opacity: 1;" transform="translate(0,118.38)">$40M</text></g></g><g class="overaxes-above"/></g></g><g class="polarlayer"/><g class="smithlayer"/><g class="ternarylayer"/><g class="geolayer"/><g class="funnelarealayer"/><g class="pielayer"/><g class="iciclelayer"/><g class="treemaplayer"/><g class="sunburstlayer"/><g class="glimages"/><defs id="topdefs-fddae9"><g class="clips"/></defs><g class="layer-above"><g class="imagelayer"/><g class="shapelayer"/></g><g class="infolayer"><g class="g-gtitle"><text class="gtitle" x="35" y="50" text-anchor="start" dy="0em" style="font-family: 'Open Sans', verdana, arial, sans-serif; font-size: 17px; fill: rgb(42, 63, 95); opacity: 1; font-weight: normal; white-space: pre;"><tspan class="line" dy="0em" x="35" y="50">Synthetix - All Synthetix Velo Pools</tspan><tspan class="line" dy="1.3em" x="35" y="50">​<tspan style="font-size:70%" dy="-0.6em">Cumulative Net Flows since Program Announcement, Until Program End + 30 Days</tspan><tspan dy="0.42em">​</tspan></tspan></text></g><g class="g-xtitle"><text class="xtitle" x="350" y="460.8" text-anchor="middle" style="font-family: 'Open Sans', verdana, arial, sans-serif; font-size: 14px; fill: rgb(42, 63, 95); opacity: 1; font-weight: normal; white-space: pre;">Day</text></g><g class="g-ytitle"><text class="ytitle" transform="rotate(-90,24.168750000000003,260)" x="24.168750000000003" y="260" text-anchor="middle" style="font-family: 'Open Sans', verdana, arial, sans-serif; font-size: 14px; fill: rgb(42, 63, 95); opacity: 1; font-weight: normal; white-space: pre;">Cumulative Net Flows (USD)</text></g></g></svg>