<svg class="main-svg" xmlns="http://www.w3.org/2000/svg" xmlns:xlink="http://www.w3.org/1999/xlink" width="700" height="500" style="" viewBox="0 0 700 500"><rect x="0" y="0" width="700" height="500" style="fill: rgb(255, 255, 255); fill-opacity: 1;"/><defs id="defs-729bdd"><g class="clips"><clipPath id="clip729bddxyplot" class="plotclip"><rect width="540" height="320"/></clipPath><clipPath class="axesclip" id="clip729bddx"><rect x="80" y="0" width="540" height="500"/></clipPath><clipPath class="axesclip" id="clip729bddy"><rect x="0" y="100" width="700" height="320"/></clipPath><clipPath class="axesclip" id="clip729bddxy"><rect x="80" y="100" width="540" height="320"/></clipPath></g><g class="gradients"/><g class="patterns"/></defs><g class="bglayer"><rect class="bg" x="80" y="100" width="540" height="320" style="fill: rgb(229, 236, 246); fill-opacity: 1; stroke-width: 0;"/></g><g class="layer-below"><g class="imagelayer"/><g class="shapelayer"/></g><g class="cartesianlayer"><g class="subplot xy"><g class="layer-subplot"><g class="shapelayer"/><g class="imagelayer"/></g><g class="minor-gridlayer"><g class="x"/><g class="y"/></g><g class="gridlayer"><g class="x"><path class="xgrid crisp" transform="translate(136.51,0)" d="M0,100v320" style="stroke: rgb(255, 255, 255); stroke-opacity: 1; stroke-width: 1px;"/><path class="xgrid crisp" transform="translate(233.84,0)" d="M0,100v320" style="stroke: rgb(255, 255, 255); stroke-opacity: 1; stroke-width: 1px;"/><path class="xgrid crisp" transform="translate(328.02,0)" d="M0,100v320" style="stroke: rgb(255, 255, 255); stroke-opacity: 1; stroke-width: 1px;"/><path class="xgrid crisp" transform="translate(425.35,0)" d="M0,100v320" style="stroke: rgb(255, 255, 255); stroke-opacity: 1; stroke-width: 1px;"/><path class="xgrid crisp" transform="translate(519.53,0)" d="M0,100v320" style="stroke: rgb(255, 255, 255); stroke-opacity: 1; stroke-width: 1px;"/><path class="xgrid crisp" transform="translate(616.86,0)" d="M0,100v320" style="stroke: rgb(255, 255, 255); stroke-opacity: 1; stroke-width: 1px;"/></g><g class="y"><path class="ygrid crisp" transform="translate(0,373.42)" d="M80,0h540" style="stroke: rgb(255, 255, 255); stroke-opacity: 1; stroke-width: 1px;"/><path class="ygrid crisp" transform="translate(0,322.03)" d="M80,0h540" style="stroke: rgb(255, 255, 255); stroke-opacity: 1; stroke-width: 1px;"/><path class="ygrid crisp" transform="translate(0,270.64)" d="M80,0h540" style="stroke: rgb(255, 255, 255); stroke-opacity: 1; stroke-width: 1px;"/><path class="ygrid crisp" transform="translate(0,219.26)" d="M80,0h540" style="stroke: rgb(255, 255, 255); stroke-opacity: 1; stroke-width: 1px;"/><path class="ygrid crisp" transform="translate(0,167.87)" d="M80,0h540" style="stroke: rgb(255, 255, 255); stroke-opacity: 1; stroke-width: 1px;"/></g></g><g class="zerolinelayer"><path class="yzl zl crisp" transform="translate(0,116.48)" d="M80,0h540" style="stroke: rgb(255, 255, 255); stroke-opacity: 1; stroke-width: 2px;"/></g><path class="xlines-below"/><path class="ylines-below"/><g class="overlines-below"/><g class="xaxislayer-below"/><g class="yaxislayer-below"/><g class="overaxes-below"/><g class="plot" transform="translate(80,100)" clip-path="url(#clip729bddxyplot)"><g class="scatterlayer mlayer"><g class="trace scatter traceeaa271" style="stroke-miterlimit: 2;"><g class="fills"><g><path class="js-fill" d="M540,16.48L0,16.48L0,17.7L3.14,16.82L6.28,16.72L12.56,16L15.7,83.14L18.84,78.2L21.98,77.04L25.12,79.7L28.26,80.91L31.4,77.53L34.53,77.66L37.67,77.5L40.81,80.98L47.09,80.41L50.23,80.23L53.37,80.33L56.51,81.36L59.65,81.42L62.79,83.59L65.93,76.04L69.07,73.76L72.21,71.91L75.35,74.47L78.49,76.77L81.63,74.53L84.77,76.08L87.91,75.44L91.05,73.5L94.19,69.21L97.33,69.53L100.47,68.72L103.6,68.04L106.74,68.14L109.88,65.89L113.02,65.32L116.16,64.91L119.3,65.89L125.58,66.34L128.72,70.32L131.86,70.5L135,73.71L138.14,74.7L141.28,72.8L144.42,72.66L147.56,78.61L150.7,78.94L153.84,80.45L160.12,81.88L163.26,81.83L172.67,81.51L175.81,81.1L178.95,75.95L182.09,76.15L188.37,76.31L191.51,73.97L194.65,74.05L197.79,79.24L207.21,77.67L210.35,78.03L216.63,77.02L219.77,76.6L222.91,72.21L226.05,72.78L244.88,71.96L248.02,70.11L254.3,69.97L257.44,69.3L270,69.24L273.14,69.28L285.7,68.96L288.84,68.38L291.98,67.56L295.12,67.53L298.26,67.07L301.4,67.63L304.53,65.25L307.67,65.21L310.81,66.21L313.95,66.04L320.23,67.12L323.37,68.76L339.07,73.16L342.21,73.19L345.35,75.19L348.49,74.35L351.63,74.83L354.77,79.36L367.33,78.26L370.47,80.95L373.6,81.04L376.74,91.13L379.88,92.58L383.02,95.12L386.16,96.04L389.3,98.8L392.44,102.35L395.58,102.17L398.72,122.31L401.86,126.21L408.14,125.23L411.28,125.83L414.42,124.77L417.56,127.56L426.98,127.27L430.12,125.61L433.26,129.29L436.4,129.29L439.53,131.88L442.67,132.31L445.81,135.1L448.95,128.93L452.09,128.72L455.23,130.94L458.37,130.28L461.51,128.62L464.65,128.46L467.79,131.14L477.21,130.85L480.35,130.35L483.49,132.37L486.63,132.21L489.77,130.03L492.91,128.92L502.33,128.8L505.47,127.84L508.6,128.53L511.74,127.75L521.16,127.59L524.3,127.35L530.58,126.14L533.72,126.22L540,126.17L540,304" style="fill: rgb(99, 110, 250); fill-opacity: 0.5; stroke-width: 0;"/></g></g><g class="errorbars"/><g class="lines"><path class="js-line" d="M0,17.7L3.14,16.82L6.28,16.72L12.56,16L15.7,83.14L18.84,78.2L21.98,77.04L25.12,79.7L28.26,80.91L31.4,77.53L34.53,77.66L37.67,77.5L40.81,80.98L47.09,80.41L50.23,80.23L53.37,80.33L56.51,81.36L59.65,81.42L62.79,83.59L65.93,76.04L69.07,73.76L72.21,71.91L75.35,74.47L78.49,76.77L81.63,74.53L84.77,76.08L87.91,75.44L91.05,73.5L94.19,69.21L97.33,69.53L100.47,68.72L103.6,68.04L106.74,68.14L109.88,65.89L113.02,65.32L116.16,64.91L119.3,65.89L125.58,66.34L128.72,70.32L131.86,70.5L135,73.71L138.14,74.7L141.28,72.8L144.42,72.66L147.56,78.61L150.7,78.94L153.84,80.45L160.12,81.88L163.26,81.83L172.67,81.51L175.81,81.1L178.95,75.95L182.09,76.15L188.37,76.31L191.51,73.97L194.65,74.05L197.79,79.24L207.21,77.67L210.35,78.03L216.63,77.02L219.77,76.6L222.91,72.21L226.05,72.78L244.88,71.96L248.02,70.11L254.3,69.97L257.44,69.3L270,69.24L273.14,69.28L285.7,68.96L288.84,68.38L291.98,67.56L295.12,67.53L298.26,67.07L301.4,67.63L304.53,65.25L307.67,65.21L310.81,66.21L313.95,66.04L320.23,67.12L323.37,68.76L339.07,73.16L342.21,73.19L345.35,75.19L348.49,74.35L351.63,74.83L354.77,79.36L367.33,78.26L370.47,80.95L373.6,81.04L376.74,91.13L379.88,92.58L383.02,95.12L386.16,96.04L389.3,98.8L392.44,102.35L395.58,102.17L398.72,122.31L401.86,126.21L408.14,125.23L411.28,125.83L414.42,124.77L417.56,127.56L426.98,127.27L430.12,125.61L433.26,129.29L436.4,129.29L439.53,131.88L442.67,132.31L445.81,135.1L448.95,128.93L452.09,128.72L455.23,130.94L458.37,130.28L461.51,128.62L464.65,128.46L467.79,131.14L477.21,130.85L480.35,130.35L483.49,132.37L486.63,132.21L489.77,130.03L492.91,128.92L502.33,128.8L505.47,127.84L508.6,128.53L511.74,127.75L521.16,127.59L524.3,127.35L530.58,126.14L533.72,126.22L540,126.17L540,304" style="vector-effect: non-scaling-stroke; fill: none; stroke: rgb(99, 110, 250); stroke-opacity: 1; stroke-width: 2px; opacity: 1;"/></g><g class="points"/><g class="text"/></g></g></g><g class="overplot"/><path class="xlines-above crisp" d="M0,0" style="fill: none;"/><path class="ylines-above crisp" d="M0,0" style="fill: none;"/><g class="overlines-above"/><g class="xaxislayer-above"><g class="xtick"><text text-anchor="middle" x="0" y="433" transform="translate(136.51,0)" style="font-family: 'Open Sans', verdana, arial, sans-serif; font-size: 12px; fill: rgb(42, 63, 95); fill-opacity: 1; white-space: pre; opacity: 1;">Aug 2022</text></g><g class="xtick"><text text-anchor="middle" x="0" y="433" style="font-family: 'Open Sans', verdana, arial, sans-serif; font-size: 12px; fill: rgb(42, 63, 95); fill-opacity: 1; white-space: pre; opacity: 1;" transform="translate(233.84,0)">Sep 2022</text></g><g class="xtick"><text text-anchor="middle" x="0" y="433" style="font-family: 'Open Sans', verdana, arial, sans-serif; font-size: 12px; fill: rgb(42, 63, 95); fill-opacity: 1; white-space: pre; opacity: 1;" transform="translate(328.02,0)">Oct 2022</text></g><g class="xtick"><text text-anchor="middle" x="0" y="433" style="font-family: 'Open Sans', verdana, arial, sans-serif; font-size: 12px; fill: rgb(42, 63, 95); fill-opacity: 1; white-space: pre; opacity: 1;" transform="translate(425.35,0)">Nov 2022</text></g><g class="xtick"><text text-anchor="middle" x="0" y="433" style="font-family: 'Open Sans', verdana, arial, sans-serif; font-size: 12px; fill: rgb(42, 63, 95); fill-opacity: 1; white-space: pre; opacity: 1;" transform="translate(519.53,0)">Dec 2022</text></g><g class="xtick"><text text-anchor="middle" x="0" y="433" style="font-family: 'Open Sans', verdana, arial, sans-serif; font-size: 12px; fill: rgb(42, 63, 95); fill-opacity: 1; white-space: pre; opacity: 1;" transform="translate(616.86,0)">Jan 2023</text></g></g><g class="yaxislayer-above"><g class="ytick"><text text-anchor="end" x="79" y="4.199999999999999" transform="translate(0,373.42)" style="font-family: 'Open Sans', verdana, arial, sans-serif; font-size: 12px; fill: rgb(42, 63, 95); fill-opacity: 1; white-space: pre; opacity: 1;">$−25M</text></g><g class="ytick"><text text-anchor="end" x="79" y="4.199999999999999" style="font-family: 'Open Sans', verdana, arial, sans-serif; font-size: 12px; fill: rgb(42, 63, 95); fill-opacity: 1; white-space: pre; opacity: 1;" transform="translate(0,322.03)">$−20M</text></g><g class="ytick"><text text-anchor="end" x="79" y="4.199999999999999" style="font-family: 'Open Sans', verdana, arial, sans-serif; font-size: 12px; fill: rgb(42, 63, 95); fill-opacity: 1; white-space: pre; opacity: 1;" transform="translate(0,270.64)">$−15M</text></g><g class="ytick"><text text-anchor="end" x="79" y="4.199999999999999" style="font-family: 'Open Sans', verdana, arial, sans-serif; font-size: 12px; fill: rgb(42, 63, 95); fill-opacity: 1; white-space: pre; opacity: 1;" transform="translate(0,219.26)">$−10M</text></g><g class="ytick"><text text-anchor="end" x="79" y="4.199999999999999" style="font-family: 'Open Sans', verdana, arial, sans-serif; font-size: 12px; fill: rgb(42, 63, 95); fill-opacity: 1; white-space: pre; opacity: 1;" transform="translate(0,167.87)">$−5M</text></g><g class="ytick"><text text-anchor="end" x="79" y="4.199999999999999" style="font-family: 'Open Sans', verdana, arial, sans-serif; font-size: 12px; fill: rgb(42, 63, 95); fill-opacity: 1; white-space: pre; opacity: 1;" transform="translate(0,116.48)">$0</text></g></g><g class="overaxes-above"/></g></g><g class="polarlayer"/><g class="smithlayer"/><g class="ternarylayer"/><g class="geolayer"/><g class="funnelarealayer"/><g class="pielayer"/><g class="iciclelayer"/><g class="treemaplayer"/><g class="sunburstlayer"/><g class="glimages"/><defs id="topdefs-729bdd"><g class="clips"/></defs><g class="layer-above"><g class="imagelayer"/><g class="shapelayer"/></g><g class="infolayer"><g class="g-gtitle"><text class="gtitle" x="35" y="50" text-anchor="start" dy="0em" style="font-family: 'Open Sans', verdana, arial, sans-serif; font-size: 17px; fill: rgb(42, 63, 95); opacity: 1; font-weight: normal; white-space: pre;"><tspan class="line" dy="0em" x="35" y="50">Perpetual Protocol</tspan><tspan class="line" dy="1.3em" x="35" y="50">​<tspan style="font-size:70%" dy="-0.6em">Cumulative Net Dollar Flow since Program Announcement, Until Program End + 30 Days</tspan><tspan dy="0.42em">​</tspan></tspan></text></g><g class="g-xtitle"><text class="xtitle" x="350" y="460.8" text-anchor="middle" style="font-family: 'Open Sans', verdana, arial, sans-serif; font-size: 14px; fill: rgb(42, 63, 95); opacity: 1; font-weight: normal; white-space: pre;">Day</text></g><g class="g-ytitle"><text class="ytitle" transform="rotate(-90,17.168750000000003,260)" x="17.168750000000003" y="260" text-anchor="middle" style="font-family: 'Open Sans', verdana, arial, sans-serif; font-size: 14px; fill: rgb(42, 63, 95); opacity: 1; font-weight: normal; white-space: pre;">Cumulative Net Dollar Flow (N$F)</text></g></g></svg>