<svg class="main-svg" xmlns="http://www.w3.org/2000/svg" xmlns:xlink="http://www.w3.org/1999/xlink" width="700" height="500" style="" viewBox="0 0 700 500"><rect x="0" y="0" width="700" height="500" style="fill: rgb(255, 255, 255); fill-opacity: 1;"/><defs id="defs-9f667d"><g class="clips"><clipPath id="clip9f667dxyplot" class="plotclip"><rect width="540" height="320"/></clipPath><clipPath class="axesclip" id="clip9f667dx"><rect x="80" y="0" width="540" height="500"/></clipPath><clipPath class="axesclip" id="clip9f667dy"><rect x="0" y="100" width="700" height="320"/></clipPath><clipPath class="axesclip" id="clip9f667dxy"><rect x="80" y="100" width="540" height="320"/></clipPath></g><g class="gradients"/><g class="patterns"/></defs><g class="bglayer"><rect class="bg" x="80" y="100" width="540" height="320" style="fill: rgb(229, 236, 246); fill-opacity: 1; stroke-width: 0;"/></g><g class="layer-below"><g class="imagelayer"/><g class="shapelayer"/></g><g class="cartesianlayer"><g class="subplot xy"><g class="layer-subplot"><g class="shapelayer"/><g class="imagelayer"/></g><g class="minor-gridlayer"><g class="x"/><g class="y"/></g><g class="gridlayer"><g class="x"><path class="xgrid crisp" transform="translate(173.1,0)" d="M0,100v320" style="stroke: rgb(255, 255, 255); stroke-opacity: 1; stroke-width: 1px;"/><path class="xgrid crisp" transform="translate(266.21000000000004,0)" d="M0,100v320" style="stroke: rgb(255, 255, 255); stroke-opacity: 1; stroke-width: 1px;"/><path class="xgrid crisp" transform="translate(362.41,0)" d="M0,100v320" style="stroke: rgb(255, 255, 255); stroke-opacity: 1; stroke-width: 1px;"/><path class="xgrid crisp" transform="translate(455.52,0)" d="M0,100v320" style="stroke: rgb(255, 255, 255); stroke-opacity: 1; stroke-width: 1px;"/><path class="xgrid crisp" transform="translate(551.72,0)" d="M0,100v320" style="stroke: rgb(255, 255, 255); stroke-opacity: 1; stroke-width: 1px;"/></g><g class="y"><path class="ygrid crisp" transform="translate(0,381.76)" d="M80,0h540" style="stroke: rgb(255, 255, 255); stroke-opacity: 1; stroke-width: 1px;"/><path class="ygrid crisp" transform="translate(0,343.52)" d="M80,0h540" style="stroke: rgb(255, 255, 255); stroke-opacity: 1; stroke-width: 1px;"/><path class="ygrid crisp" transform="translate(0,305.28)" d="M80,0h540" style="stroke: rgb(255, 255, 255); stroke-opacity: 1; stroke-width: 1px;"/><path class="ygrid crisp" transform="translate(0,267.03999999999996)" d="M80,0h540" style="stroke: rgb(255, 255, 255); stroke-opacity: 1; stroke-width: 1px;"/><path class="ygrid crisp" transform="translate(0,228.8)" d="M80,0h540" style="stroke: rgb(255, 255, 255); stroke-opacity: 1; stroke-width: 1px;"/><path class="ygrid crisp" transform="translate(0,190.56)" d="M80,0h540" style="stroke: rgb(255, 255, 255); stroke-opacity: 1; stroke-width: 1px;"/><path class="ygrid crisp" transform="translate(0,152.32)" d="M80,0h540" style="stroke: rgb(255, 255, 255); stroke-opacity: 1; stroke-width: 1px;"/><path class="ygrid crisp" transform="translate(0,114.07)" d="M80,0h540" style="stroke: rgb(255, 255, 255); stroke-opacity: 1; stroke-width: 1px;"/></g></g><g class="zerolinelayer"><path class="yzl zl crisp" transform="translate(0,420)" d="M80,0h540" style="stroke: rgb(255, 255, 255); stroke-opacity: 1; stroke-width: 2px;"/></g><path class="xlines-below"/><path class="ylines-below"/><g class="overlines-below"/><g class="xaxislayer-below"/><g class="yaxislayer-below"/><g class="overaxes-below"/><g class="plot" transform="translate(80,100)" clip-path="url(#clip9f667dxyplot)"><g class="scatterlayer mlayer"><g class="trace scatter trace57b3f8" style="stroke-miterlimit: 2;"><g class="fills"><g><path class="js-fill" d="M540,320L0,320L0,319.62L3.1,284.84L6.21,201.4L9.31,165.99L12.41,157.73L15.52,144.39L18.62,122.2L21.72,110.64L24.83,56.08L27.93,52.8L31.03,50.93L34.14,33.93L37.24,27.93L40.34,26.27L43.45,18.05L46.55,40.9L49.66,16L52.76,16.62L55.86,18.94L58.97,30.56L62.07,33.56L65.17,36.45L68.28,38.13L71.38,46.17L74.48,47.5L77.59,39.61L80.69,39.26L83.79,40.97L86.9,45.04L90,46.08L93.1,43.48L96.21,43.68L99.31,57.37L105.52,57.29L108.62,59.23L111.72,61.7L114.83,67.39L117.93,68.32L121.03,79.9L124.14,88.63L127.24,93.97L130.34,101.59L133.45,112.62L136.55,117.29L139.66,108.47L142.76,62.64L145.86,61.05L148.97,49.06L152.07,52.3L155.17,50.28L158.28,50.39L161.38,59.63L164.48,37.87L167.59,34.65L170.69,26.05L173.79,24.88L176.9,27.03L180,31.54L183.1,30.39L189.31,24.2L192.41,24.32L195.52,23.71L198.62,29.39L204.83,35.1L207.93,30.43L211.03,28.33L214.14,37.42L217.24,42.84L220.34,41.23L223.45,40L226.55,42.81L229.66,41.38L232.76,36.81L235.86,68.44L238.97,76.38L242.07,78.32L245.17,79.32L248.28,80.3L251.38,115.97L254.48,113.39L257.59,119.83L260.69,125.73L263.79,152.3L266.9,177.73L270,170.78L273.1,145.39L276.21,146.43L279.31,151.65L282.41,150.68L288.62,154.64L291.72,147.7L294.83,151.5L297.93,146.57L301.03,146.54L304.14,141.74L307.24,145.16L310.34,155.86L313.45,156.14L316.55,145.76L319.66,150.82L322.76,150.04L325.86,178.06L328.97,179.23L332.07,179.64L335.17,178.99L338.28,168.35L341.38,164.54L347.59,157.03L350.69,155.11L353.79,167.46L356.9,173.53L360,174.11L363.1,176.56L366.21,177.22L369.31,170.6L372.41,178.03L375.52,187.51L378.62,186.84L381.72,177.24L384.83,175.28L387.93,178.77L391.03,175.29L394.14,174.5L397.24,172.05L400.34,174.91L403.45,184.4L406.55,183.66L412.76,186.52L415.86,190.77L422.07,182.22L425.17,182.81L428.28,179.93L431.38,179.55L434.48,177.09L437.59,190.29L440.69,193.52L443.79,194.54L446.9,195.89L450,196.05L456.21,192.98L459.31,195.58L462.41,194.92L465.52,195.05L468.62,204.23L471.72,204.48L474.83,201.75L477.93,203.06L481.03,203.55L484.14,207.84L487.24,209.11L490.34,206.32L499.66,211.34L502.76,214.68L505.86,215.93L508.97,190.65L512.07,191.79L515.17,194.35L518.28,191.67L521.38,190.59L530.69,180.8L533.79,188.68L536.9,185.28L540,184.34" style="fill: rgb(99, 110, 250); fill-opacity: 0.5; stroke-width: 0;"/></g></g><g class="errorbars"/><g class="lines"><path class="js-line" d="M0,319.62L3.1,284.84L6.21,201.4L9.31,165.99L12.41,157.73L15.52,144.39L18.62,122.2L21.72,110.64L24.83,56.08L27.93,52.8L31.03,50.93L34.14,33.93L37.24,27.93L40.34,26.27L43.45,18.05L46.55,40.9L49.66,16L52.76,16.62L55.86,18.94L58.97,30.56L62.07,33.56L65.17,36.45L68.28,38.13L71.38,46.17L74.48,47.5L77.59,39.61L80.69,39.26L83.79,40.97L86.9,45.04L90,46.08L93.1,43.48L96.21,43.68L99.31,57.37L105.52,57.29L108.62,59.23L111.72,61.7L114.83,67.39L117.93,68.32L121.03,79.9L124.14,88.63L127.24,93.97L130.34,101.59L133.45,112.62L136.55,117.29L139.66,108.47L142.76,62.64L145.86,61.05L148.97,49.06L152.07,52.3L155.17,50.28L158.28,50.39L161.38,59.63L164.48,37.87L167.59,34.65L170.69,26.05L173.79,24.88L176.9,27.03L180,31.54L183.1,30.39L189.31,24.2L192.41,24.32L195.52,23.71L198.62,29.39L204.83,35.1L207.93,30.43L211.03,28.33L214.14,37.42L217.24,42.84L220.34,41.23L223.45,40L226.55,42.81L229.66,41.38L232.76,36.81L235.86,68.44L238.97,76.38L242.07,78.32L245.17,79.32L248.28,80.3L251.38,115.97L254.48,113.39L257.59,119.83L260.69,125.73L263.79,152.3L266.9,177.73L270,170.78L273.1,145.39L276.21,146.43L279.31,151.65L282.41,150.68L288.62,154.64L291.72,147.7L294.83,151.5L297.93,146.57L301.03,146.54L304.14,141.74L307.24,145.16L310.34,155.86L313.45,156.14L316.55,145.76L319.66,150.82L322.76,150.04L325.86,178.06L328.97,179.23L332.07,179.64L335.17,178.99L338.28,168.35L341.38,164.54L347.59,157.03L350.69,155.11L353.79,167.46L356.9,173.53L360,174.11L363.1,176.56L366.21,177.22L369.31,170.6L372.41,178.03L375.52,187.51L378.62,186.84L381.72,177.24L384.83,175.28L387.93,178.77L391.03,175.29L394.14,174.5L397.24,172.05L400.34,174.91L403.45,184.4L406.55,183.66L412.76,186.52L415.86,190.77L422.07,182.22L425.17,182.81L428.28,179.93L431.38,179.55L434.48,177.09L437.59,190.29L440.69,193.52L443.79,194.54L446.9,195.89L450,196.05L456.21,192.98L459.31,195.58L462.41,194.92L465.52,195.05L468.62,204.23L471.72,204.48L474.83,201.75L477.93,203.06L481.03,203.55L484.14,207.84L487.24,209.11L490.34,206.32L499.66,211.34L502.76,214.68L505.86,215.93L508.97,190.65L512.07,191.79L515.17,194.35L518.28,191.67L521.38,190.59L530.69,180.8L533.79,188.68L536.9,185.28L540,184.34" style="vector-effect: non-scaling-stroke; fill: none; stroke: rgb(99, 110, 250); stroke-opacity: 1; stroke-width: 2px; opacity: 1;"/></g><g class="points"/><g class="text"/></g></g></g><g class="overplot"/><path class="xlines-above crisp" d="M0,0" style="fill: none;"/><path class="ylines-above crisp" d="M0,0" style="fill: none;"/><g class="overlines-above"/><g class="xaxislayer-above"><g class="xtick"><text text-anchor="middle" x="0" y="433" transform="translate(173.1,0)" style="font-family: 'Open Sans', verdana, arial, sans-serif; font-size: 12px; fill: rgb(42, 63, 95); fill-opacity: 1; white-space: pre; opacity: 1;">Sep 2022</text></g><g class="xtick"><text text-anchor="middle" x="0" y="433" style="font-family: 'Open Sans', verdana, arial, sans-serif; font-size: 12px; fill: rgb(42, 63, 95); fill-opacity: 1; white-space: pre; opacity: 1;" transform="translate(266.21000000000004,0)">Oct 2022</text></g><g class="xtick"><text text-anchor="middle" x="0" y="433" style="font-family: 'Open Sans', verdana, arial, sans-serif; font-size: 12px; fill: rgb(42, 63, 95); fill-opacity: 1; white-space: pre; opacity: 1;" transform="translate(362.41,0)">Nov 2022</text></g><g class="xtick"><text text-anchor="middle" x="0" y="433" style="font-family: 'Open Sans', verdana, arial, sans-serif; font-size: 12px; fill: rgb(42, 63, 95); fill-opacity: 1; white-space: pre; opacity: 1;" transform="translate(455.52,0)">Dec 2022</text></g><g class="xtick"><text text-anchor="middle" x="0" y="433" style="font-family: 'Open Sans', verdana, arial, sans-serif; font-size: 12px; fill: rgb(42, 63, 95); fill-opacity: 1; white-space: pre; opacity: 1;" transform="translate(551.72,0)">Jan 2023</text></g></g><g class="yaxislayer-above"><g class="ytick"><text text-anchor="end" x="79" y="4.199999999999999" transform="translate(0,420)" style="font-family: 'Open Sans', verdana, arial, sans-serif; font-size: 12px; fill: rgb(42, 63, 95); fill-opacity: 1; white-space: pre; opacity: 1;">$0</text></g><g class="ytick"><text text-anchor="end" x="79" y="4.199999999999999" style="font-family: 'Open Sans', verdana, arial, sans-serif; font-size: 12px; fill: rgb(42, 63, 95); fill-opacity: 1; white-space: pre; opacity: 1;" transform="translate(0,381.76)">$2M</text></g><g class="ytick"><text text-anchor="end" x="79" y="4.199999999999999" style="font-family: 'Open Sans', verdana, arial, sans-serif; font-size: 12px; fill: rgb(42, 63, 95); fill-opacity: 1; white-space: pre; opacity: 1;" transform="translate(0,343.52)">$4M</text></g><g class="ytick"><text text-anchor="end" x="79" y="4.199999999999999" style="font-family: 'Open Sans', verdana, arial, sans-serif; font-size: 12px; fill: rgb(42, 63, 95); fill-opacity: 1; white-space: pre; opacity: 1;" transform="translate(0,305.28)">$6M</text></g><g class="ytick"><text text-anchor="end" x="79" y="4.199999999999999" style="font-family: 'Open Sans', verdana, arial, sans-serif; font-size: 12px; fill: rgb(42, 63, 95); fill-opacity: 1; white-space: pre; opacity: 1;" transform="translate(0,267.03999999999996)">$8M</text></g><g class="ytick"><text text-anchor="end" x="79" y="4.199999999999999" style="font-family: 'Open Sans', verdana, arial, sans-serif; font-size: 12px; fill: rgb(42, 63, 95); fill-opacity: 1; white-space: pre; opacity: 1;" transform="translate(0,228.8)">$10M</text></g><g class="ytick"><text text-anchor="end" x="79" y="4.199999999999999" style="font-family: 'Open Sans', verdana, arial, sans-serif; font-size: 12px; fill: rgb(42, 63, 95); fill-opacity: 1; white-space: pre; opacity: 1;" transform="translate(0,190.56)">$12M</text></g><g class="ytick"><text text-anchor="end" x="79" y="4.199999999999999" style="font-family: 'Open Sans', verdana, arial, sans-serif; font-size: 12px; fill: rgb(42, 63, 95); fill-opacity: 1; white-space: pre; opacity: 1;" transform="translate(0,152.32)">$14M</text></g><g class="ytick"><text text-anchor="end" x="79" y="4.199999999999999" style="font-family: 'Open Sans', verdana, arial, sans-serif; font-size: 12px; fill: rgb(42, 63, 95); fill-opacity: 1; white-space: pre; opacity: 1;" transform="translate(0,114.07)">$16M</text></g></g><g class="overaxes-above"/></g></g><g class="polarlayer"/><g class="smithlayer"/><g class="ternarylayer"/><g class="geolayer"/><g class="funnelarealayer"/><g class="pielayer"/><g class="iciclelayer"/><g class="treemaplayer"/><g class="sunburstlayer"/><g class="glimages"/><defs id="topdefs-9f667d"><g class="clips"/></defs><g class="layer-above"><g class="imagelayer"/><g class="shapelayer"/></g><g class="infolayer"><g class="g-gtitle"><text class="gtitle" x="35" y="50" text-anchor="start" dy="0em" style="font-family: 'Open Sans', verdana, arial, sans-serif; font-size: 17px; fill: rgb(42, 63, 95); opacity: 1; font-weight: normal; white-space: pre;"><tspan class="line" dy="0em" x="35" y="50">Lyra</tspan><tspan class="line" dy="1.3em" x="35" y="50">​<tspan style="font-size:70%" dy="-0.6em">Cumulative Net Dollar Flow since Program Announcement, Until Program End + 30 Days</tspan><tspan dy="0.42em">​</tspan></tspan></text></g><g class="g-xtitle"><text class="xtitle" x="350" y="460.8" text-anchor="middle" style="font-family: 'Open Sans', verdana, arial, sans-serif; font-size: 14px; fill: rgb(42, 63, 95); opacity: 1; font-weight: normal; white-space: pre;">Day</text></g><g class="g-ytitle"><text class="ytitle" transform="rotate(-90,24.168750000000003,260)" x="24.168750000000003" y="260" text-anchor="middle" style="font-family: 'Open Sans', verdana, arial, sans-serif; font-size: 14px; fill: rgb(42, 63, 95); opacity: 1; font-weight: normal; white-space: pre;">Cumulative Net Dollar Flow (N$F)</text></g></g></svg>