<svg class="main-svg" xmlns="http://www.w3.org/2000/svg" xmlns:xlink="http://www.w3.org/1999/xlink" width="700" height="500" style="" viewBox="0 0 700 500"><rect x="0" y="0" width="700" height="500" style="fill: rgb(255, 255, 255); fill-opacity: 1;"/><defs id="defs-f39954"><g class="clips"><clipPath id="clipf39954xyplot" class="plotclip"><rect width="540" height="320"/></clipPath><clipPath class="axesclip" id="clipf39954x"><rect x="80" y="0" width="540" height="500"/></clipPath><clipPath class="axesclip" id="clipf39954y"><rect x="0" y="100" width="700" height="320"/></clipPath><clipPath class="axesclip" id="clipf39954xy"><rect x="80" y="100" width="540" height="320"/></clipPath></g><g class="gradients"/><g class="patterns"/></defs><g class="bglayer"><rect class="bg" x="80" y="100" width="540" height="320" style="fill: rgb(229, 236, 246); fill-opacity: 1; stroke-width: 0;"/></g><g class="layer-below"><g class="imagelayer"/><g class="shapelayer"/></g><g class="cartesianlayer"><g class="subplot xy"><g class="layer-subplot"><g class="shapelayer"/><g class="imagelayer"/></g><g class="minor-gridlayer"><g class="x"/><g class="y"/></g><g class="gridlayer"><g class="x"><path class="xgrid crisp" transform="translate(104.39,0)" d="M0,100v320" style="stroke: rgb(255, 255, 255); stroke-opacity: 1; stroke-width: 1px;"/><path class="xgrid crisp" transform="translate(208.9,0)" d="M0,100v320" style="stroke: rgb(255, 255, 255); stroke-opacity: 1; stroke-width: 1px;"/><path class="xgrid crisp" transform="translate(316.9,0)" d="M0,100v320" style="stroke: rgb(255, 255, 255); stroke-opacity: 1; stroke-width: 1px;"/><path class="xgrid crisp" transform="translate(421.42,0)" d="M0,100v320" style="stroke: rgb(255, 255, 255); stroke-opacity: 1; stroke-width: 1px;"/><path class="xgrid crisp" transform="translate(529.4200000000001,0)" d="M0,100v320" style="stroke: rgb(255, 255, 255); stroke-opacity: 1; stroke-width: 1px;"/></g><g class="y"><path class="ygrid crisp" transform="translate(0,348.59000000000003)" d="M80,0h540" style="stroke: rgb(255, 255, 255); stroke-opacity: 1; stroke-width: 1px;"/><path class="ygrid crisp" transform="translate(0,293.22)" d="M80,0h540" style="stroke: rgb(255, 255, 255); stroke-opacity: 1; stroke-width: 1px;"/><path class="ygrid crisp" transform="translate(0,237.86)" d="M80,0h540" style="stroke: rgb(255, 255, 255); stroke-opacity: 1; stroke-width: 1px;"/><path class="ygrid crisp" transform="translate(0,182.5)" d="M80,0h540" style="stroke: rgb(255, 255, 255); stroke-opacity: 1; stroke-width: 1px;"/><path class="ygrid crisp" transform="translate(0,127.14)" d="M80,0h540" style="stroke: rgb(255, 255, 255); stroke-opacity: 1; stroke-width: 1px;"/></g></g><g class="zerolinelayer"><path class="yzl zl crisp" transform="translate(0,403.95)" d="M80,0h540" style="stroke: rgb(255, 255, 255); stroke-opacity: 1; stroke-width: 2px;"/></g><path class="xlines-below"/><path class="ylines-below"/><g class="overlines-below"/><g class="xaxislayer-below"/><g class="yaxislayer-below"/><g class="overaxes-below"/><g class="plot" transform="translate(80,100)" clip-path="url(#clipf39954xyplot)"><g class="scatterlayer mlayer"><g class="trace scatter trace53a952" style="stroke-miterlimit: 2;"><g class="fills"><g><path class="js-fill" d="M540,303.95L0,303.95L0,304L3.48,254.66L6.97,246.14L10.45,242.44L13.94,242.36L17.42,234.74L20.9,231.64L24.39,229.95L27.87,232.02L31.35,224.95L34.84,222.17L38.32,218.19L41.81,228.87L45.29,225.91L48.77,228.84L52.26,217.3L55.74,212.05L59.23,208.87L62.71,207.89L66.19,211.04L69.68,215.4L73.16,216.96L76.65,202.34L80.13,192.71L83.61,191.1L87.1,188.31L90.58,194.68L94.06,194.48L97.55,191.28L104.52,191.2L108,192.18L111.48,190.25L114.97,189.51L118.45,155.84L121.94,158.23L125.42,165.3L128.9,163.83L132.39,163.73L135.87,165.28L142.84,167.93L146.32,176.41L149.81,172.13L153.29,182.03L156.77,182.01L160.26,183.4L163.74,187.6L167.23,184.38L174.19,183.55L177.68,180.79L184.65,180.32L188.13,178.27L191.61,179.98L195.1,179.71L212.52,180.07L216,178.15L219.48,179.06L222.97,193.36L226.45,190.74L229.94,176.58L247.35,176.76L250.84,177.17L254.32,178.23L257.81,176.07L261.29,175.86L264.77,215.23L268.26,220.15L271.74,205.28L275.23,198.31L278.71,205.52L282.19,193.78L285.68,192.25L289.16,191.15L292.65,193.34L296.13,198.34L299.61,197.14L303.1,196L306.58,198.05L310.06,198.65L313.55,198.23L317.03,191.32L320.52,191.84L324,190.63L327.48,190.47L341.42,190.21L344.9,187.28L348.39,187.37L351.87,182.68L355.35,182.08L358.84,175.91L362.32,160.64L365.81,153.86L369.29,154.39L372.77,152.24L376.26,152.11L379.74,150.41L383.23,146.05L386.71,145.2L390.19,139.82L393.68,136.3L397.16,140.71L400.65,140.7L404.13,140.78L407.61,144.5L411.1,160.19L414.58,160.67L418.06,161.22L421.55,160.23L432,160.28L435.48,166.82L438.97,166.69L442.45,162.8L445.94,146.89L449.42,143.59L452.9,148.79L456.39,148.7L459.87,155.1L463.35,155.74L466.84,152.3L470.32,152.33L473.81,156.41L477.29,153.99L480.77,138.26L484.26,126.33L487.74,124.53L491.23,130.75L494.71,126.08L498.19,124.56L501.68,126.9L505.16,126.21L508.65,125.87L512.13,129.66L515.61,124.26L519.1,112.28L522.58,108.54L526.06,107.55L529.55,105.26L533.03,77.65L536.52,20.47L540,16" style="fill: rgb(99, 110, 250); fill-opacity: 0.5; stroke-width: 0;"/></g></g><g class="errorbars"/><g class="lines"><path class="js-line" d="M0,304L3.48,254.66L6.97,246.14L10.45,242.44L13.94,242.36L17.42,234.74L20.9,231.64L24.39,229.95L27.87,232.02L31.35,224.95L34.84,222.17L38.32,218.19L41.81,228.87L45.29,225.91L48.77,228.84L52.26,217.3L55.74,212.05L59.23,208.87L62.71,207.89L66.19,211.04L69.68,215.4L73.16,216.96L76.65,202.34L80.13,192.71L83.61,191.1L87.1,188.31L90.58,194.68L94.06,194.48L97.55,191.28L104.52,191.2L108,192.18L111.48,190.25L114.97,189.51L118.45,155.84L121.94,158.23L125.42,165.3L128.9,163.83L132.39,163.73L135.87,165.28L142.84,167.93L146.32,176.41L149.81,172.13L153.29,182.03L156.77,182.01L160.26,183.4L163.74,187.6L167.23,184.38L174.19,183.55L177.68,180.79L184.65,180.32L188.13,178.27L191.61,179.98L195.1,179.71L212.52,180.07L216,178.15L219.48,179.06L222.97,193.36L226.45,190.74L229.94,176.58L247.35,176.76L250.84,177.17L254.32,178.23L257.81,176.07L261.29,175.86L264.77,215.23L268.26,220.15L271.74,205.28L275.23,198.31L278.71,205.52L282.19,193.78L285.68,192.25L289.16,191.15L292.65,193.34L296.13,198.34L299.61,197.14L303.1,196L306.58,198.05L310.06,198.65L313.55,198.23L317.03,191.32L320.52,191.84L324,190.63L327.48,190.47L341.42,190.21L344.9,187.28L348.39,187.37L351.87,182.68L355.35,182.08L358.84,175.91L362.32,160.64L365.81,153.86L369.29,154.39L372.77,152.24L376.26,152.11L379.74,150.41L383.23,146.05L386.71,145.2L390.19,139.82L393.68,136.3L397.16,140.71L400.65,140.7L404.13,140.78L407.61,144.5L411.1,160.19L414.58,160.67L418.06,161.22L421.55,160.23L432,160.28L435.48,166.82L438.97,166.69L442.45,162.8L445.94,146.89L449.42,143.59L452.9,148.79L456.39,148.7L459.87,155.1L463.35,155.74L466.84,152.3L470.32,152.33L473.81,156.41L477.29,153.99L480.77,138.26L484.26,126.33L487.74,124.53L491.23,130.75L494.71,126.08L498.19,124.56L501.68,126.9L505.16,126.21L508.65,125.87L512.13,129.66L515.61,124.26L519.1,112.28L522.58,108.54L526.06,107.55L529.55,105.26L533.03,77.65L536.52,20.47L540,16" style="vector-effect: non-scaling-stroke; fill: none; stroke: rgb(99, 110, 250); stroke-opacity: 1; stroke-width: 2px; opacity: 1;"/></g><g class="points"/><g class="text"/></g></g></g><g class="overplot"/><path class="xlines-above crisp" d="M0,0" style="fill: none;"/><path class="ylines-above crisp" d="M0,0" style="fill: none;"/><g class="overlines-above"/><g class="xaxislayer-above"><g class="xtick"><text text-anchor="middle" x="0" y="433" transform="translate(104.39,0)" style="font-family: 'Open Sans', verdana, arial, sans-serif; font-size: 12px; fill: rgb(42, 63, 95); fill-opacity: 1; white-space: pre; opacity: 1;">Sep 2022</text></g><g class="xtick"><text text-anchor="middle" x="0" y="433" style="font-family: 'Open Sans', verdana, arial, sans-serif; font-size: 12px; fill: rgb(42, 63, 95); fill-opacity: 1; white-space: pre; opacity: 1;" transform="translate(208.9,0)">Oct 2022</text></g><g class="xtick"><text text-anchor="middle" x="0" y="433" style="font-family: 'Open Sans', verdana, arial, sans-serif; font-size: 12px; fill: rgb(42, 63, 95); fill-opacity: 1; white-space: pre; opacity: 1;" transform="translate(316.9,0)">Nov 2022</text></g><g class="xtick"><text text-anchor="middle" x="0" y="433" style="font-family: 'Open Sans', verdana, arial, sans-serif; font-size: 12px; fill: rgb(42, 63, 95); fill-opacity: 1; white-space: pre; opacity: 1;" transform="translate(421.42,0)">Dec 2022</text></g><g class="xtick"><text text-anchor="middle" x="0" y="433" style="font-family: 'Open Sans', verdana, arial, sans-serif; font-size: 12px; fill: rgb(42, 63, 95); fill-opacity: 1; white-space: pre; opacity: 1;" transform="translate(529.4200000000001,0)">Jan 2023</text></g></g><g class="yaxislayer-above"><g class="ytick"><text text-anchor="end" x="79" y="4.199999999999999" transform="translate(0,403.95)" style="font-family: 'Open Sans', verdana, arial, sans-serif; font-size: 12px; fill: rgb(42, 63, 95); fill-opacity: 1; white-space: pre; opacity: 1;">$0</text></g><g class="ytick"><text text-anchor="end" x="79" y="4.199999999999999" style="font-family: 'Open Sans', verdana, arial, sans-serif; font-size: 12px; fill: rgb(42, 63, 95); fill-opacity: 1; white-space: pre; opacity: 1;" transform="translate(0,348.59000000000003)">$5M</text></g><g class="ytick"><text text-anchor="end" x="79" y="4.199999999999999" style="font-family: 'Open Sans', verdana, arial, sans-serif; font-size: 12px; fill: rgb(42, 63, 95); fill-opacity: 1; white-space: pre; opacity: 1;" transform="translate(0,293.22)">$10M</text></g><g class="ytick"><text text-anchor="end" x="79" y="4.199999999999999" style="font-family: 'Open Sans', verdana, arial, sans-serif; font-size: 12px; fill: rgb(42, 63, 95); fill-opacity: 1; white-space: pre; opacity: 1;" transform="translate(0,237.86)">$15M</text></g><g class="ytick"><text text-anchor="end" x="79" y="4.199999999999999" style="font-family: 'Open Sans', verdana, arial, sans-serif; font-size: 12px; fill: rgb(42, 63, 95); fill-opacity: 1; white-space: pre; opacity: 1;" transform="translate(0,182.5)">$20M</text></g><g class="ytick"><text text-anchor="end" x="79" y="4.199999999999999" style="font-family: 'Open Sans', verdana, arial, sans-serif; font-size: 12px; fill: rgb(42, 63, 95); fill-opacity: 1; white-space: pre; opacity: 1;" transform="translate(0,127.14)">$25M</text></g></g><g class="overaxes-above"/></g></g><g class="polarlayer"/><g class="smithlayer"/><g class="ternarylayer"/><g class="geolayer"/><g class="funnelarealayer"/><g class="pielayer"/><g class="iciclelayer"/><g class="treemaplayer"/><g class="sunburstlayer"/><g class="glimages"/><defs id="topdefs-f39954"><g class="clips"/></defs><g class="layer-above"><g class="imagelayer"/><g class="shapelayer"/></g><g class="infolayer"><g class="g-gtitle"><text class="gtitle" x="35" y="50" text-anchor="start" dy="0em" style="font-family: 'Open Sans', verdana, arial, sans-serif; font-size: 17px; fill: rgb(42, 63, 95); opacity: 1; font-weight: normal; white-space: pre;"><tspan class="line" dy="0em" x="35" y="50">Synthetix - sETH-ETH: Curve</tspan><tspan class="line" dy="1.3em" x="35" y="50">​<tspan style="font-size:70%" dy="-0.6em">Cumulative Net Dollar Flow since Program Announcement, Until Program End + 30 Days</tspan><tspan dy="0.42em">​</tspan></tspan></text></g><g class="g-xtitle"><text class="xtitle" x="350" y="460.8" text-anchor="middle" style="font-family: 'Open Sans', verdana, arial, sans-serif; font-size: 14px; fill: rgb(42, 63, 95); opacity: 1; font-weight: normal; white-space: pre;">Day</text></g><g class="g-ytitle"><text class="ytitle" transform="rotate(-90,24.168750000000003,260)" x="24.168750000000003" y="260" text-anchor="middle" style="font-family: 'Open Sans', verdana, arial, sans-serif; font-size: 14px; fill: rgb(42, 63, 95); opacity: 1; font-weight: normal; white-space: pre;">Cumulative Net Dollar Flow (N$F)</text></g></g></svg>