<svg class="main-svg" xmlns="http://www.w3.org/2000/svg" xmlns:xlink="http://www.w3.org/1999/xlink" width="700" height="500" style="" viewBox="0 0 700 500"><rect x="0" y="0" width="700" height="500" style="fill: rgb(255, 255, 255); fill-opacity: 1;"/><defs id="defs-e20d52"><g class="clips"><clipPath id="clipe20d52xyplot" class="plotclip"><rect width="540" height="320"/></clipPath><clipPath class="axesclip" id="clipe20d52x"><rect x="80" y="0" width="540" height="500"/></clipPath><clipPath class="axesclip" id="clipe20d52y"><rect x="0" y="100" width="700" height="320"/></clipPath><clipPath class="axesclip" id="clipe20d52xy"><rect x="80" y="100" width="540" height="320"/></clipPath></g><g class="gradients"/><g class="patterns"/></defs><g class="bglayer"><rect class="bg" x="80" y="100" width="540" height="320" style="fill: rgb(229, 236, 246); fill-opacity: 1; stroke-width: 0;"/></g><g class="layer-below"><g class="imagelayer"/><g class="shapelayer"/></g><g class="cartesianlayer"><g class="subplot xy"><g class="layer-subplot"><g class="shapelayer"/><g class="imagelayer"/></g><g class="minor-gridlayer"><g class="x"/><g class="y"/></g><g class="gridlayer"><g class="x"><path class="xgrid crisp" transform="translate(148.86,0)" d="M0,100v320" style="stroke: rgb(255, 255, 255); stroke-opacity: 1; stroke-width: 1px;"/><path class="xgrid crisp" transform="translate(257.58000000000004,0)" d="M0,100v320" style="stroke: rgb(255, 255, 255); stroke-opacity: 1; stroke-width: 1px;"/><path class="xgrid crisp" transform="translate(369.93,0)" d="M0,100v320" style="stroke: rgb(255, 255, 255); stroke-opacity: 1; stroke-width: 1px;"/><path class="xgrid crisp" transform="translate(478.66,0)" d="M0,100v320" style="stroke: rgb(255, 255, 255); stroke-opacity: 1; stroke-width: 1px;"/><path class="xgrid crisp" transform="translate(591.01,0)" d="M0,100v320" style="stroke: rgb(255, 255, 255); stroke-opacity: 1; stroke-width: 1px;"/></g><g class="y"><path class="ygrid crisp" transform="translate(0,408.31)" d="M80,0h540" style="stroke: rgb(255, 255, 255); stroke-opacity: 1; stroke-width: 1px;"/><path class="ygrid crisp" transform="translate(0,371.69)" d="M80,0h540" style="stroke: rgb(255, 255, 255); stroke-opacity: 1; stroke-width: 1px;"/><path class="ygrid crisp" transform="translate(0,335.07)" d="M80,0h540" style="stroke: rgb(255, 255, 255); stroke-opacity: 1; stroke-width: 1px;"/><path class="ygrid crisp" transform="translate(0,298.46000000000004)" d="M80,0h540" style="stroke: rgb(255, 255, 255); stroke-opacity: 1; stroke-width: 1px;"/><path class="ygrid crisp" transform="translate(0,261.84000000000003)" d="M80,0h540" style="stroke: rgb(255, 255, 255); stroke-opacity: 1; stroke-width: 1px;"/><path class="ygrid crisp" transform="translate(0,225.22)" d="M80,0h540" style="stroke: rgb(255, 255, 255); stroke-opacity: 1; stroke-width: 1px;"/><path class="ygrid crisp" transform="translate(0,151.98)" d="M80,0h540" style="stroke: rgb(255, 255, 255); stroke-opacity: 1; stroke-width: 1px;"/><path class="ygrid crisp" transform="translate(0,115.36)" d="M80,0h540" style="stroke: rgb(255, 255, 255); stroke-opacity: 1; stroke-width: 1px;"/></g></g><g class="zerolinelayer"><path class="yzl zl crisp" transform="translate(0,188.6)" d="M80,0h540" style="stroke: rgb(255, 255, 255); stroke-opacity: 1; stroke-width: 2px;"/></g><path class="xlines-below"/><path class="ylines-below"/><g class="overlines-below"/><g class="xaxislayer-below"/><g class="yaxislayer-below"/><g class="overaxes-below"/><g class="plot" transform="translate(80,100)" clip-path="url(#clipe20d52xyplot)"><g class="scatterlayer mlayer"><g class="trace scatter trace3590eb" style="stroke-miterlimit: 2;"><g class="fills"><g><path class="js-fill" d="M540,88.6L0,88.6L0,138.31L3.62,163.51L7.25,161.46L10.87,164.69L14.5,176.18L18.12,176.54L21.74,16L25.37,203.25L28.99,187.02L32.62,198.75L36.24,197.16L39.87,203.03L43.49,207.19L47.11,188.21L50.74,190.2L54.36,195.22L57.99,195.6L61.61,167.28L65.23,157.05L68.86,153.77L72.48,177.36L76.11,173.74L79.73,165.88L83.36,163.5L86.98,173.07L90.6,165.76L94.23,156L97.85,145.43L101.48,118.91L105.1,112.12L108.72,108.2L112.35,150.12L115.97,128.1L119.6,125.69L123.22,150.26L126.85,155.6L130.47,156.99L134.09,154.23L137.72,158.07L144.97,162.83L148.59,188.88L152.21,190.52L155.84,190.92L159.46,185.6L163.09,199.02L166.71,199.17L170.34,207.77L173.96,209.78L177.58,215.73L181.21,216.78L184.83,234.66L188.46,241.28L192.08,233.94L195.7,241.62L199.33,239.87L202.95,230.71L206.58,249.58L210.2,244.62L213.83,249.86L217.45,241.84L221.07,242.87L224.7,264.72L228.32,261.11L231.95,262.9L235.57,267.89L239.19,268.86L242.82,266.51L246.44,258.16L250.07,259.33L257.32,259.36L260.94,261.18L264.56,261.42L268.19,253.26L271.81,245.42L275.44,241.29L279.06,236.65L282.68,237.19L286.31,236.99L289.93,231.88L293.56,237.29L297.18,186.24L300.81,202.94L304.43,224.89L311.68,218.97L315.3,196.63L318.93,214.45L322.55,291.23L326.17,233.21L329.8,222.11L333.42,221.65L337.05,230.66L340.67,245.56L344.3,208.23L347.92,139.3L351.54,187.95L355.17,155.23L358.79,137.33L366.04,166.58L369.66,200.84L373.29,221.05L376.91,271.6L380.54,280.04L384.16,235.65L387.79,247.91L391.41,247.03L395.03,244.55L398.66,227.79L402.28,237.72L405.91,304L409.53,277.37L413.15,226.42L416.78,243.55L420.4,230.73L424.03,247.72L427.65,234.43L431.28,254.17L434.9,231.88L438.52,289.25L442.15,259L445.77,297.36L449.4,273.05L453.02,257.99L456.64,223.48L460.27,242.92L463.89,229.48L467.52,255.44L471.14,192.78L474.77,121.65L478.39,208.03L482.01,145.98L485.64,150.54L489.26,160.19L492.89,155.16L496.51,208.14L500.13,198.19L503.76,36.45L507.38,98.7L511.01,55.35L514.63,85.89L521.88,80.72L525.5,79L529.13,91.47L532.75,96.13L536.38,93.07L540,110.25" style="fill: rgb(99, 110, 250); fill-opacity: 0.5; stroke-width: 0;"/></g></g><g class="errorbars"/><g class="lines"><path class="js-line" d="M0,138.31L3.62,163.51L7.25,161.46L10.87,164.69L14.5,176.18L18.12,176.54L21.74,16L25.37,203.25L28.99,187.02L32.62,198.75L36.24,197.16L39.87,203.03L43.49,207.19L47.11,188.21L50.74,190.2L54.36,195.22L57.99,195.6L61.61,167.28L65.23,157.05L68.86,153.77L72.48,177.36L76.11,173.74L79.73,165.88L83.36,163.5L86.98,173.07L90.6,165.76L94.23,156L97.85,145.43L101.48,118.91L105.1,112.12L108.72,108.2L112.35,150.12L115.97,128.1L119.6,125.69L123.22,150.26L126.85,155.6L130.47,156.99L134.09,154.23L137.72,158.07L144.97,162.83L148.59,188.88L152.21,190.52L155.84,190.92L159.46,185.6L163.09,199.02L166.71,199.17L170.34,207.77L173.96,209.78L177.58,215.73L181.21,216.78L184.83,234.66L188.46,241.28L192.08,233.94L195.7,241.62L199.33,239.87L202.95,230.71L206.58,249.58L210.2,244.62L213.83,249.86L217.45,241.84L221.07,242.87L224.7,264.72L228.32,261.11L231.95,262.9L235.57,267.89L239.19,268.86L242.82,266.51L246.44,258.16L250.07,259.33L257.32,259.36L260.94,261.18L264.56,261.42L268.19,253.26L271.81,245.42L275.44,241.29L279.06,236.65L282.68,237.19L286.31,236.99L289.93,231.88L293.56,237.29L297.18,186.24L300.81,202.94L304.43,224.89L311.68,218.97L315.3,196.63L318.93,214.45L322.55,291.23L326.17,233.21L329.8,222.11L333.42,221.65L337.05,230.66L340.67,245.56L344.3,208.23L347.92,139.3L351.54,187.95L355.17,155.23L358.79,137.33L366.04,166.58L369.66,200.84L373.29,221.05L376.91,271.6L380.54,280.04L384.16,235.65L387.79,247.91L391.41,247.03L395.03,244.55L398.66,227.79L402.28,237.72L405.91,304L409.53,277.37L413.15,226.42L416.78,243.55L420.4,230.73L424.03,247.72L427.65,234.43L431.28,254.17L434.9,231.88L438.52,289.25L442.15,259L445.77,297.36L449.4,273.05L453.02,257.99L456.64,223.48L460.27,242.92L463.89,229.48L467.52,255.44L471.14,192.78L474.77,121.65L478.39,208.03L482.01,145.98L485.64,150.54L489.26,160.19L492.89,155.16L496.51,208.14L500.13,198.19L503.76,36.45L507.38,98.7L511.01,55.35L514.63,85.89L521.88,80.72L525.5,79L529.13,91.47L532.75,96.13L536.38,93.07L540,110.25" style="vector-effect: non-scaling-stroke; fill: none; stroke: rgb(99, 110, 250); stroke-opacity: 1; stroke-width: 2px; opacity: 1;"/></g><g class="points"/><g class="text"/></g></g></g><g class="overplot"/><path class="xlines-above crisp" d="M0,0" style="fill: none;"/><path class="ylines-above crisp" d="M0,0" style="fill: none;"/><g class="overlines-above"/><g class="xaxislayer-above"><g class="xtick"><text text-anchor="middle" x="0" y="433" transform="translate(148.86,0)" style="font-family: 'Open Sans', verdana, arial, sans-serif; font-size: 12px; fill: rgb(42, 63, 95); fill-opacity: 1; white-space: pre; opacity: 1;">Sep 2022</text></g><g class="xtick"><text text-anchor="middle" x="0" y="433" style="font-family: 'Open Sans', verdana, arial, sans-serif; font-size: 12px; fill: rgb(42, 63, 95); fill-opacity: 1; white-space: pre; opacity: 1;" transform="translate(257.58000000000004,0)">Oct 2022</text></g><g class="xtick"><text text-anchor="middle" x="0" y="433" style="font-family: 'Open Sans', verdana, arial, sans-serif; font-size: 12px; fill: rgb(42, 63, 95); fill-opacity: 1; white-space: pre; opacity: 1;" transform="translate(369.93,0)">Nov 2022</text></g><g class="xtick"><text text-anchor="middle" x="0" y="433" style="font-family: 'Open Sans', verdana, arial, sans-serif; font-size: 12px; fill: rgb(42, 63, 95); fill-opacity: 1; white-space: pre; opacity: 1;" transform="translate(478.66,0)">Dec 2022</text></g><g class="xtick"><text text-anchor="middle" x="0" y="433" style="font-family: 'Open Sans', verdana, arial, sans-serif; font-size: 12px; fill: rgb(42, 63, 95); fill-opacity: 1; white-space: pre; opacity: 1;" transform="translate(591.01,0)">Jan 2023</text></g></g><g class="yaxislayer-above"><g class="ytick"><text text-anchor="end" x="79" y="4.199999999999999" transform="translate(0,408.31)" style="font-family: 'Open Sans', verdana, arial, sans-serif; font-size: 12px; fill: rgb(42, 63, 95); fill-opacity: 1; white-space: pre; opacity: 1;">$−6M</text></g><g class="ytick"><text text-anchor="end" x="79" y="4.199999999999999" style="font-family: 'Open Sans', verdana, arial, sans-serif; font-size: 12px; fill: rgb(42, 63, 95); fill-opacity: 1; white-space: pre; opacity: 1;" transform="translate(0,371.69)">$−5M</text></g><g class="ytick"><text text-anchor="end" x="79" y="4.199999999999999" style="font-family: 'Open Sans', verdana, arial, sans-serif; font-size: 12px; fill: rgb(42, 63, 95); fill-opacity: 1; white-space: pre; opacity: 1;" transform="translate(0,335.07)">$−4M</text></g><g class="ytick"><text text-anchor="end" x="79" y="4.199999999999999" style="font-family: 'Open Sans', verdana, arial, sans-serif; font-size: 12px; fill: rgb(42, 63, 95); fill-opacity: 1; white-space: pre; opacity: 1;" transform="translate(0,298.46000000000004)">$−3M</text></g><g class="ytick"><text text-anchor="end" x="79" y="4.199999999999999" style="font-family: 'Open Sans', verdana, arial, sans-serif; font-size: 12px; fill: rgb(42, 63, 95); fill-opacity: 1; white-space: pre; opacity: 1;" transform="translate(0,261.84000000000003)">$−2M</text></g><g class="ytick"><text text-anchor="end" x="79" y="4.199999999999999" style="font-family: 'Open Sans', verdana, arial, sans-serif; font-size: 12px; fill: rgb(42, 63, 95); fill-opacity: 1; white-space: pre; opacity: 1;" transform="translate(0,225.22)">$−1M</text></g><g class="ytick"><text text-anchor="end" x="79" y="4.199999999999999" style="font-family: 'Open Sans', verdana, arial, sans-serif; font-size: 12px; fill: rgb(42, 63, 95); fill-opacity: 1; white-space: pre; opacity: 1;" transform="translate(0,188.6)">$0</text></g><g class="ytick"><text text-anchor="end" x="79" y="4.199999999999999" style="font-family: 'Open Sans', verdana, arial, sans-serif; font-size: 12px; fill: rgb(42, 63, 95); fill-opacity: 1; white-space: pre; opacity: 1;" transform="translate(0,151.98)">$1M</text></g><g class="ytick"><text text-anchor="end" x="79" y="4.199999999999999" style="font-family: 'Open Sans', verdana, arial, sans-serif; font-size: 12px; fill: rgb(42, 63, 95); fill-opacity: 1; white-space: pre; opacity: 1;" transform="translate(0,115.36)">$2M</text></g></g><g class="overaxes-above"/></g></g><g class="polarlayer"/><g class="smithlayer"/><g class="ternarylayer"/><g class="geolayer"/><g class="funnelarealayer"/><g class="pielayer"/><g class="iciclelayer"/><g class="treemaplayer"/><g class="sunburstlayer"/><g class="glimages"/><defs id="topdefs-e20d52"><g class="clips"/></defs><g class="layer-above"><g class="imagelayer"/><g class="shapelayer"/></g><g class="infolayer"><g class="g-gtitle"><text class="gtitle" x="35" y="50" text-anchor="start" dy="0em" style="font-family: 'Open Sans', verdana, arial, sans-serif; font-size: 17px; fill: rgb(42, 63, 95); opacity: 1; font-weight: normal; white-space: pre;"><tspan class="line" dy="0em" x="35" y="50">Cbridge</tspan><tspan class="line" dy="1.3em" x="35" y="50">​<tspan style="font-size:70%" dy="-0.6em">Cumulative Net Dollar Flow since Program Announcement, Until Program End + 30 Days</tspan><tspan dy="0.42em">​</tspan></tspan></text></g><g class="g-xtitle"><text class="xtitle" x="350" y="460.8" text-anchor="middle" style="font-family: 'Open Sans', verdana, arial, sans-serif; font-size: 14px; fill: rgb(42, 63, 95); opacity: 1; font-weight: normal; white-space: pre;">Day</text></g><g class="g-ytitle"><text class="ytitle" transform="rotate(-90,23.840625000000003,260)" x="23.840625000000003" y="260" text-anchor="middle" style="font-family: 'Open Sans', verdana, arial, sans-serif; font-size: 14px; fill: rgb(42, 63, 95); opacity: 1; font-weight: normal; white-space: pre;">Cumulative Net Dollar Flow (N$F)</text></g></g></svg>