<svg class="main-svg" xmlns="http://www.w3.org/2000/svg" xmlns:xlink="http://www.w3.org/1999/xlink" width="700" height="500" style="" viewBox="0 0 700 500"><rect x="0" y="0" width="700" height="500" style="fill: rgb(255, 255, 255); fill-opacity: 1;"/><defs id="defs-53551d"><g class="clips"><clipPath id="clip53551dxyplot" class="plotclip"><rect width="540" height="320"/></clipPath><clipPath class="axesclip" id="clip53551dx"><rect x="80" y="0" width="540" height="500"/></clipPath><clipPath class="axesclip" id="clip53551dy"><rect x="0" y="100" width="700" height="320"/></clipPath><clipPath class="axesclip" id="clip53551dxy"><rect x="80" y="100" width="540" height="320"/></clipPath></g><g class="gradients"/><g class="patterns"/></defs><g class="bglayer"><rect class="bg" x="80" y="100" width="540" height="320" style="fill: rgb(229, 236, 246); fill-opacity: 1; stroke-width: 0;"/></g><g class="layer-below"><g class="imagelayer"/><g class="shapelayer"/></g><g class="cartesianlayer"><g class="subplot xy"><g class="layer-subplot"><g class="shapelayer"/><g class="imagelayer"/></g><g class="minor-gridlayer"><g class="x"/><g class="y"/></g><g class="gridlayer"><g class="x"><path class="xgrid crisp" transform="translate(132.46,0)" d="M0,100v320" style="stroke: rgb(255, 255, 255); stroke-opacity: 1; stroke-width: 1px;"/><path class="xgrid crisp" transform="translate(228.11,0)" d="M0,100v320" style="stroke: rgb(255, 255, 255); stroke-opacity: 1; stroke-width: 1px;"/><path class="xgrid crisp" transform="translate(320.69,0)" d="M0,100v320" style="stroke: rgb(255, 255, 255); stroke-opacity: 1; stroke-width: 1px;"/><path class="xgrid crisp" transform="translate(416.34,0)" d="M0,100v320" style="stroke: rgb(255, 255, 255); stroke-opacity: 1; stroke-width: 1px;"/><path class="xgrid crisp" transform="translate(508.91,0)" d="M0,100v320" style="stroke: rgb(255, 255, 255); stroke-opacity: 1; stroke-width: 1px;"/><path class="xgrid crisp" transform="translate(604.57,0)" d="M0,100v320" style="stroke: rgb(255, 255, 255); stroke-opacity: 1; stroke-width: 1px;"/></g><g class="y"><path class="ygrid crisp" transform="translate(0,344.1)" d="M80,0h540" style="stroke: rgb(255, 255, 255); stroke-opacity: 1; stroke-width: 1px;"/><path class="ygrid crisp" transform="translate(0,306.28)" d="M80,0h540" style="stroke: rgb(255, 255, 255); stroke-opacity: 1; stroke-width: 1px;"/><path class="ygrid crisp" transform="translate(0,268.45)" d="M80,0h540" style="stroke: rgb(255, 255, 255); stroke-opacity: 1; stroke-width: 1px;"/><path class="ygrid crisp" transform="translate(0,230.62)" d="M80,0h540" style="stroke: rgb(255, 255, 255); stroke-opacity: 1; stroke-width: 1px;"/><path class="ygrid crisp" transform="translate(0,192.8)" d="M80,0h540" style="stroke: rgb(255, 255, 255); stroke-opacity: 1; stroke-width: 1px;"/><path class="ygrid crisp" transform="translate(0,154.97)" d="M80,0h540" style="stroke: rgb(255, 255, 255); stroke-opacity: 1; stroke-width: 1px;"/><path class="ygrid crisp" transform="translate(0,117.14)" d="M80,0h540" style="stroke: rgb(255, 255, 255); stroke-opacity: 1; stroke-width: 1px;"/></g></g><g class="zerolinelayer"><path class="yzl zl crisp" transform="translate(0,381.93)" d="M80,0h540" style="stroke: rgb(255, 255, 255); stroke-opacity: 1; stroke-width: 2px;"/></g><path class="xlines-below"/><path class="ylines-below"/><g class="overlines-below"/><g class="xaxislayer-below"/><g class="yaxislayer-below"/><g class="overaxes-below"/><g class="plot" transform="translate(80,100)" clip-path="url(#clip53551dxyplot)"><g class="scatterlayer mlayer"><g class="trace scatter trace77e892" style="stroke-miterlimit: 2;"><g class="fills"><g><path class="js-fill" d="M540,281.93L0,281.93L0,281.82L6.17,276.18L9.26,274.8L12.34,272.19L15.43,271.53L18.51,270.27L21.6,254.5L24.69,250.33L27.77,249.81L30.86,242.87L33.94,241.85L37.03,238.51L40.11,238.55L46.29,227.57L49.37,224.96L52.46,220.14L55.54,202.82L58.63,201.8L61.71,206.38L64.8,199.8L67.89,100.33L70.97,87.04L74.06,53.6L77.14,40.61L80.23,56.04L83.31,61L86.4,62.08L89.49,64.84L92.57,65.76L95.66,67.16L98.74,70.4L101.83,73.88L104.91,93.82L111.09,112.35L114.17,109.28L117.26,109.13L120.34,140.74L123.43,137.28L126.51,139.16L132.69,140.02L135.77,139.48L138.86,140.19L141.94,138.9L145.03,138.73L148.11,137.6L151.2,134.73L154.29,134.14L157.37,131.7L160.46,130.69L163.54,132.27L166.63,135.1L169.71,131.91L172.8,106.04L175.89,96.08L178.97,95.08L182.06,95.61L185.14,89.51L188.23,138.84L191.31,142.78L197.49,137.53L200.57,133.27L203.66,127.11L206.74,116.71L209.83,128.73L212.91,125.7L216,119.9L219.09,107.19L222.17,73.76L225.26,73.12L228.34,72.6L231.43,61.79L234.51,68.88L237.6,64.39L240.69,56.5L243.77,54.37L246.86,54.84L249.94,68.89L253.03,62.96L256.11,63.54L259.2,64.43L262.29,64.25L265.37,62.39L268.46,52.72L271.54,48.9L274.63,51.08L277.71,54.33L280.8,61.28L283.89,26.03L286.97,31.61L290.06,51.5L293.14,51.7L296.23,51.51L299.31,55.96L305.49,55.66L308.57,56.23L311.66,55.58L314.74,57.13L320.91,58.65L324,68.54L327.09,68.82L330.17,73.67L333.26,72.15L336.34,64.3L339.43,64.56L342.51,46.81L345.6,46.24L348.69,43.15L354.86,41.84L357.94,41.22L361.03,55.79L364.11,80.91L370.29,82.06L373.37,80.89L376.46,81.17L379.54,79.66L388.8,76.8L391.89,76.96L398.06,73.29L401.14,71.5L404.23,70.51L407.31,47.77L410.4,44.06L413.49,51.15L416.57,57.79L419.66,35.38L422.74,35.1L425.83,37.76L428.91,35.82L432,37.31L435.09,58.72L438.17,59.81L444.34,62.27L447.43,60.49L450.51,61.69L453.6,59.95L456.69,59.09L459.77,48.51L462.86,41.72L465.94,38.13L469.03,37.26L472.11,35.27L475.2,33.82L478.29,52.64L481.37,51.48L484.46,36.32L487.54,35.22L490.63,35.31L496.8,33.28L499.89,19.33L502.97,19.49L506.06,17.16L512.23,16L515.31,25.31L521.49,23.49L524.57,18.49L530.74,21.76L533.83,28.82L536.91,27.2L540,26.7L540,304" style="fill: rgb(99, 110, 250); fill-opacity: 0.5; stroke-width: 0;"/></g></g><g class="errorbars"/><g class="lines"><path class="js-line" d="M0,281.82L6.17,276.18L9.26,274.8L12.34,272.19L15.43,271.53L18.51,270.27L21.6,254.5L24.69,250.33L27.77,249.81L30.86,242.87L33.94,241.85L37.03,238.51L40.11,238.55L46.29,227.57L49.37,224.96L52.46,220.14L55.54,202.82L58.63,201.8L61.71,206.38L64.8,199.8L67.89,100.33L70.97,87.04L74.06,53.6L77.14,40.61L80.23,56.04L83.31,61L86.4,62.08L89.49,64.84L92.57,65.76L95.66,67.16L98.74,70.4L101.83,73.88L104.91,93.82L111.09,112.35L114.17,109.28L117.26,109.13L120.34,140.74L123.43,137.28L126.51,139.16L132.69,140.02L135.77,139.48L138.86,140.19L141.94,138.9L145.03,138.73L148.11,137.6L151.2,134.73L154.29,134.14L157.37,131.7L160.46,130.69L163.54,132.27L166.63,135.1L169.71,131.91L172.8,106.04L175.89,96.08L178.97,95.08L182.06,95.61L185.14,89.51L188.23,138.84L191.31,142.78L197.49,137.53L200.57,133.27L203.66,127.11L206.74,116.71L209.83,128.73L212.91,125.7L216,119.9L219.09,107.19L222.17,73.76L225.26,73.12L228.34,72.6L231.43,61.79L234.51,68.88L237.6,64.39L240.69,56.5L243.77,54.37L246.86,54.84L249.94,68.89L253.03,62.96L256.11,63.54L259.2,64.43L262.29,64.25L265.37,62.39L268.46,52.72L271.54,48.9L274.63,51.08L277.71,54.33L280.8,61.28L283.89,26.03L286.97,31.61L290.06,51.5L293.14,51.7L296.23,51.51L299.31,55.96L305.49,55.66L308.57,56.23L311.66,55.58L314.74,57.13L320.91,58.65L324,68.54L327.09,68.82L330.17,73.67L333.26,72.15L336.34,64.3L339.43,64.56L342.51,46.81L345.6,46.24L348.69,43.15L354.86,41.84L357.94,41.22L361.03,55.79L364.11,80.91L370.29,82.06L373.37,80.89L376.46,81.17L379.54,79.66L388.8,76.8L391.89,76.96L398.06,73.29L401.14,71.5L404.23,70.51L407.31,47.77L410.4,44.06L413.49,51.15L416.57,57.79L419.66,35.38L422.74,35.1L425.83,37.76L428.91,35.82L432,37.31L435.09,58.72L438.17,59.81L444.34,62.27L447.43,60.49L450.51,61.69L453.6,59.95L456.69,59.09L459.77,48.51L462.86,41.72L465.94,38.13L469.03,37.26L472.11,35.27L475.2,33.82L478.29,52.64L481.37,51.48L484.46,36.32L487.54,35.22L490.63,35.31L496.8,33.28L499.89,19.33L502.97,19.49L506.06,17.16L512.23,16L515.31,25.31L521.49,23.49L524.57,18.49L530.74,21.76L533.83,28.82L536.91,27.2L540,26.7L540,304" style="vector-effect: non-scaling-stroke; fill: none; stroke: rgb(99, 110, 250); stroke-opacity: 1; stroke-width: 2px; opacity: 1;"/></g><g class="points"/><g class="text"/></g></g></g><g class="overplot"/><path class="xlines-above crisp" d="M0,0" style="fill: none;"/><path class="ylines-above crisp" d="M0,0" style="fill: none;"/><g class="overlines-above"/><g class="xaxislayer-above"><g class="xtick"><text text-anchor="middle" x="0" y="433" transform="translate(132.46,0)" style="font-family: 'Open Sans', verdana, arial, sans-serif; font-size: 12px; fill: rgb(42, 63, 95); fill-opacity: 1; white-space: pre; opacity: 1;">Aug 2022</text></g><g class="xtick"><text text-anchor="middle" x="0" y="433" style="font-family: 'Open Sans', verdana, arial, sans-serif; font-size: 12px; fill: rgb(42, 63, 95); fill-opacity: 1; white-space: pre; opacity: 1;" transform="translate(228.11,0)">Sep 2022</text></g><g class="xtick"><text text-anchor="middle" x="0" y="433" style="font-family: 'Open Sans', verdana, arial, sans-serif; font-size: 12px; fill: rgb(42, 63, 95); fill-opacity: 1; white-space: pre; opacity: 1;" transform="translate(320.69,0)">Oct 2022</text></g><g class="xtick"><text text-anchor="middle" x="0" y="433" style="font-family: 'Open Sans', verdana, arial, sans-serif; font-size: 12px; fill: rgb(42, 63, 95); fill-opacity: 1; white-space: pre; opacity: 1;" transform="translate(416.34,0)">Nov 2022</text></g><g class="xtick"><text text-anchor="middle" x="0" y="433" style="font-family: 'Open Sans', verdana, arial, sans-serif; font-size: 12px; fill: rgb(42, 63, 95); fill-opacity: 1; white-space: pre; opacity: 1;" transform="translate(508.91,0)">Dec 2022</text></g><g class="xtick"><text text-anchor="middle" x="0" y="433" style="font-family: 'Open Sans', verdana, arial, sans-serif; font-size: 12px; fill: rgb(42, 63, 95); fill-opacity: 1; white-space: pre; opacity: 1;" transform="translate(604.57,0)">Jan 2023</text></g></g><g class="yaxislayer-above"><g class="ytick"><text text-anchor="end" x="79" y="4.199999999999999" transform="translate(0,419.75)" style="font-family: 'Open Sans', verdana, arial, sans-serif; font-size: 12px; fill: rgb(42, 63, 95); fill-opacity: 1; white-space: pre; opacity: 1;">$−1M</text></g><g class="ytick"><text text-anchor="end" x="79" y="4.199999999999999" style="font-family: 'Open Sans', verdana, arial, sans-serif; font-size: 12px; fill: rgb(42, 63, 95); fill-opacity: 1; white-space: pre; opacity: 1;" transform="translate(0,381.93)">$0</text></g><g class="ytick"><text text-anchor="end" x="79" y="4.199999999999999" style="font-family: 'Open Sans', verdana, arial, sans-serif; font-size: 12px; fill: rgb(42, 63, 95); fill-opacity: 1; white-space: pre; opacity: 1;" transform="translate(0,344.1)">$1M</text></g><g class="ytick"><text text-anchor="end" x="79" y="4.199999999999999" style="font-family: 'Open Sans', verdana, arial, sans-serif; font-size: 12px; fill: rgb(42, 63, 95); fill-opacity: 1; white-space: pre; opacity: 1;" transform="translate(0,306.28)">$2M</text></g><g class="ytick"><text text-anchor="end" x="79" y="4.199999999999999" style="font-family: 'Open Sans', verdana, arial, sans-serif; font-size: 12px; fill: rgb(42, 63, 95); fill-opacity: 1; white-space: pre; opacity: 1;" transform="translate(0,268.45)">$3M</text></g><g class="ytick"><text text-anchor="end" x="79" y="4.199999999999999" style="font-family: 'Open Sans', verdana, arial, sans-serif; font-size: 12px; fill: rgb(42, 63, 95); fill-opacity: 1; white-space: pre; opacity: 1;" transform="translate(0,230.62)">$4M</text></g><g class="ytick"><text text-anchor="end" x="79" y="4.199999999999999" style="font-family: 'Open Sans', verdana, arial, sans-serif; font-size: 12px; fill: rgb(42, 63, 95); fill-opacity: 1; white-space: pre; opacity: 1;" transform="translate(0,192.8)">$5M</text></g><g class="ytick"><text text-anchor="end" x="79" y="4.199999999999999" style="font-family: 'Open Sans', verdana, arial, sans-serif; font-size: 12px; fill: rgb(42, 63, 95); fill-opacity: 1; white-space: pre; opacity: 1;" transform="translate(0,154.97)">$6M</text></g><g class="ytick"><text text-anchor="end" x="79" y="4.199999999999999" style="font-family: 'Open Sans', verdana, arial, sans-serif; font-size: 12px; fill: rgb(42, 63, 95); fill-opacity: 1; white-space: pre; opacity: 1;" transform="translate(0,117.14)">$7M</text></g></g><g class="overaxes-above"/></g></g><g class="polarlayer"/><g class="smithlayer"/><g class="ternarylayer"/><g class="geolayer"/><g class="funnelarealayer"/><g class="pielayer"/><g class="iciclelayer"/><g class="treemaplayer"/><g class="sunburstlayer"/><g class="glimages"/><defs id="topdefs-53551d"><g class="clips"/></defs><g class="layer-above"><g class="imagelayer"/><g class="shapelayer"/></g><g class="infolayer"><g class="g-gtitle"><text class="gtitle" x="35" y="50" text-anchor="start" dy="0em" style="font-family: 'Open Sans', verdana, arial, sans-serif; font-size: 17px; fill: rgb(42, 63, 95); opacity: 1; font-weight: normal; white-space: pre;"><tspan class="line" dy="0em" x="35" y="50">Rubicon</tspan><tspan class="line" dy="1.3em" x="35" y="50">​<tspan style="font-size:70%" dy="-0.6em">Cumulative Net Dollar Flow since Program Announcement, Until Program End + 30 Days</tspan><tspan dy="0.42em">​</tspan></tspan></text></g><g class="g-xtitle"><text class="xtitle" x="350" y="460.8" text-anchor="middle" style="font-family: 'Open Sans', verdana, arial, sans-serif; font-size: 14px; fill: rgb(42, 63, 95); opacity: 1; font-weight: normal; white-space: pre;">Day</text></g><g class="g-ytitle"><text class="ytitle" transform="rotate(-90,23.840625000000003,260)" x="23.840625000000003" y="260" text-anchor="middle" style="font-family: 'Open Sans', verdana, arial, sans-serif; font-size: 14px; fill: rgb(42, 63, 95); opacity: 1; font-weight: normal; white-space: pre;">Cumulative Net Dollar Flow (N$F)</text></g></g></svg>