<svg class="main-svg" xmlns="http://www.w3.org/2000/svg" xmlns:xlink="http://www.w3.org/1999/xlink" width="700" height="500" style="" viewBox="0 0 700 500"><rect x="0" y="0" width="700" height="500" style="fill: rgb(255, 255, 255); fill-opacity: 1;"/><defs id="defs-f4de00"><g class="clips"><clipPath id="clipf4de00xyplot" class="plotclip"><rect width="540" height="320"/></clipPath><clipPath class="axesclip" id="clipf4de00x"><rect x="80" y="0" width="540" height="500"/></clipPath><clipPath class="axesclip" id="clipf4de00y"><rect x="0" y="100" width="700" height="320"/></clipPath><clipPath class="axesclip" id="clipf4de00xy"><rect x="80" y="100" width="540" height="320"/></clipPath></g><g class="gradients"/><g class="patterns"/></defs><g class="bglayer"><rect class="bg" x="80" y="100" width="540" height="320" style="fill: rgb(229, 236, 246); fill-opacity: 1; stroke-width: 0;"/></g><g class="layer-below"><g class="imagelayer"/><g class="shapelayer"/></g><g class="cartesianlayer"><g class="subplot xy"><g class="layer-subplot"><g class="shapelayer"/><g class="imagelayer"/></g><g class="minor-gridlayer"><g class="x"/><g class="y"/></g><g class="gridlayer"><g class="x"><path class="xgrid crisp" transform="translate(145.69,0)" d="M0,100v320" style="stroke: rgb(255, 255, 255); stroke-opacity: 1; stroke-width: 1px;"/><path class="xgrid crisp" transform="translate(265.47,0)" d="M0,100v320" style="stroke: rgb(255, 255, 255); stroke-opacity: 1; stroke-width: 1px;"/><path class="xgrid crisp" transform="translate(381.4,0)" d="M0,100v320" style="stroke: rgb(255, 255, 255); stroke-opacity: 1; stroke-width: 1px;"/><path class="xgrid crisp" transform="translate(501.18,0)" d="M0,100v320" style="stroke: rgb(255, 255, 255); stroke-opacity: 1; stroke-width: 1px;"/><path class="xgrid crisp" transform="translate(617.1,0)" d="M0,100v320" style="stroke: rgb(255, 255, 255); stroke-opacity: 1; stroke-width: 1px;"/></g><g class="y"><path class="ygrid crisp" transform="translate(0,384.11)" d="M80,0h540" style="stroke: rgb(255, 255, 255); stroke-opacity: 1; stroke-width: 1px;"/><path class="ygrid crisp" transform="translate(0,348.22)" d="M80,0h540" style="stroke: rgb(255, 255, 255); stroke-opacity: 1; stroke-width: 1px;"/><path class="ygrid crisp" transform="translate(0,312.33000000000004)" d="M80,0h540" style="stroke: rgb(255, 255, 255); stroke-opacity: 1; stroke-width: 1px;"/><path class="ygrid crisp" transform="translate(0,276.44)" d="M80,0h540" style="stroke: rgb(255, 255, 255); stroke-opacity: 1; stroke-width: 1px;"/><path class="ygrid crisp" transform="translate(0,240.55)" d="M80,0h540" style="stroke: rgb(255, 255, 255); stroke-opacity: 1; stroke-width: 1px;"/><path class="ygrid crisp" transform="translate(0,204.65)" d="M80,0h540" style="stroke: rgb(255, 255, 255); stroke-opacity: 1; stroke-width: 1px;"/><path class="ygrid crisp" transform="translate(0,168.76)" d="M80,0h540" style="stroke: rgb(255, 255, 255); stroke-opacity: 1; stroke-width: 1px;"/><path class="ygrid crisp" transform="translate(0,132.87)" d="M80,0h540" style="stroke: rgb(255, 255, 255); stroke-opacity: 1; stroke-width: 1px;"/></g></g><g class="zerolinelayer"><path class="yzl zl crisp" transform="translate(0,420)" d="M80,0h540" style="stroke: rgb(255, 255, 255); stroke-opacity: 1; stroke-width: 2px;"/></g><path class="xlines-below"/><path class="ylines-below"/><g class="overlines-below"/><g class="xaxislayer-below"/><g class="yaxislayer-below"/><g class="overaxes-below"/><g class="plot" transform="translate(80,100)" clip-path="url(#clipf4de00xyplot)"><g class="scatterlayer mlayer"><g class="trace scatter tracef5ba45" style="stroke-miterlimit: 2;"><g class="fills"><g><path class="js-fill" d="M540,320L0,320L0,319.9L7.73,314.54L11.59,313.24L15.46,310.76L19.32,310.14L23.18,308.94L27.05,293.98L30.91,290.02L34.78,289.53L38.64,282.94L42.5,281.97L46.37,278.8L50.23,278.84L57.96,268.42L61.82,265.94L65.69,261.37L69.55,244.94L73.42,243.97L77.28,248.32L81.15,242.08L85.01,147.69L88.87,135.08L92.74,103.35L96.6,91.03L100.47,105.66L104.33,110.38L108.19,111.4L112.06,114.02L115.92,114.89L119.79,116.22L123.65,119.3L127.51,122.59L131.38,141.52L139.11,159.09L142.97,156.18L146.83,156.04L150.7,186.03L154.56,182.76L158.43,184.53L166.15,185.36L170.02,184.84L173.88,185.51L177.75,184.29L181.61,184.13L185.47,183.06L189.34,180.33L193.2,179.77L197.07,177.46L200.93,176.5L204.79,178L208.66,180.69L212.52,177.65L216.39,153.11L220.25,143.66L224.11,142.71L227.98,143.22L231.84,137.42L235.71,184.23L239.57,187.98L247.3,182.99L251.16,178.95L255.03,173.1L258.89,163.23L262.76,174.64L266.62,171.77L270.48,166.26L274.35,154.2L278.21,122.48L282.08,121.87L285.94,121.39L289.8,111.12L293.67,117.85L297.53,113.59L301.4,106.1L305.26,104.08L309.12,104.53L312.99,117.86L316.85,112.23L320.72,112.79L324.58,113.63L328.44,113.46L332.31,111.69L336.17,102.52L340.04,98.89L343.9,100.96L347.76,104.04L351.63,110.65L355.49,77.2L359.36,82.49L363.22,101.36L367.08,101.55L370.95,101.37L374.81,105.59L382.54,105.31L386.41,105.85L390.27,105.23L394.13,106.7L401.86,108.14L405.73,117.53L409.59,117.8L413.45,122.4L417.32,120.96L421.18,113.51L425.05,113.75L428.91,96.91L432.77,96.37L436.64,93.44L444.37,92.2L448.23,91.61L452.09,35.63L455.96,59.46L463.69,60.55L467.55,59.44L471.41,59.71L475.28,58.27L486.87,55.56L490.73,55.71L498.46,52.23L502.33,50.53L506.19,49.6L510.05,28.02L513.92,24.5L517.78,31.23L521.65,37.53L525.51,16.26L529.37,16L533.24,18.52L537.1,16.68L540,17.73" style="fill: rgb(99, 110, 250); fill-opacity: 0.5; stroke-width: 0;"/></g></g><g class="errorbars"/><g class="lines"><path class="js-line" d="M0,319.9L7.73,314.54L11.59,313.24L15.46,310.76L19.32,310.14L23.18,308.94L27.05,293.98L30.91,290.02L34.78,289.53L38.64,282.94L42.5,281.97L46.37,278.8L50.23,278.84L57.96,268.42L61.82,265.94L65.69,261.37L69.55,244.94L73.42,243.97L77.28,248.32L81.15,242.08L85.01,147.69L88.87,135.08L92.74,103.35L96.6,91.03L100.47,105.66L104.33,110.38L108.19,111.4L112.06,114.02L115.92,114.89L119.79,116.22L123.65,119.3L127.51,122.59L131.38,141.52L139.11,159.09L142.97,156.18L146.83,156.04L150.7,186.03L154.56,182.76L158.43,184.53L166.15,185.36L170.02,184.84L173.88,185.51L177.75,184.29L181.61,184.13L185.47,183.06L189.34,180.33L193.2,179.77L197.07,177.46L200.93,176.5L204.79,178L208.66,180.69L212.52,177.65L216.39,153.11L220.25,143.66L224.11,142.71L227.98,143.22L231.84,137.42L235.71,184.23L239.57,187.98L247.3,182.99L251.16,178.95L255.03,173.1L258.89,163.23L262.76,174.64L266.62,171.77L270.48,166.26L274.35,154.2L278.21,122.48L282.08,121.87L285.94,121.39L289.8,111.12L293.67,117.85L297.53,113.59L301.4,106.1L305.26,104.08L309.12,104.53L312.99,117.86L316.85,112.23L320.72,112.79L324.58,113.63L328.44,113.46L332.31,111.69L336.17,102.52L340.04,98.89L343.9,100.96L347.76,104.04L351.63,110.65L355.49,77.2L359.36,82.49L363.22,101.36L367.08,101.55L370.95,101.37L374.81,105.59L382.54,105.31L386.41,105.85L390.27,105.23L394.13,106.7L401.86,108.14L405.73,117.53L409.59,117.8L413.45,122.4L417.32,120.96L421.18,113.51L425.05,113.75L428.91,96.91L432.77,96.37L436.64,93.44L444.37,92.2L448.23,91.61L452.09,35.63L455.96,59.46L463.69,60.55L467.55,59.44L471.41,59.71L475.28,58.27L486.87,55.56L490.73,55.71L498.46,52.23L502.33,50.53L506.19,49.6L510.05,28.02L513.92,24.5L517.78,31.23L521.65,37.53L525.51,16.26L529.37,16L533.24,18.52L537.1,16.68L540,17.73" style="vector-effect: non-scaling-stroke; fill: none; stroke: rgb(99, 110, 250); stroke-opacity: 1; stroke-width: 2px; opacity: 1;"/></g><g class="points"/><g class="text"/></g></g></g><g class="overplot"/><path class="xlines-above crisp" d="M0,0" style="fill: none;"/><path class="ylines-above crisp" d="M0,0" style="fill: none;"/><g class="overlines-above"/><g class="xaxislayer-above"><g class="xtick"><text text-anchor="middle" x="0" y="433" transform="translate(145.69,0)" style="font-family: 'Open Sans', verdana, arial, sans-serif; font-size: 12px; fill: rgb(42, 63, 95); fill-opacity: 1; white-space: pre; opacity: 1;">Aug 2022</text></g><g class="xtick"><text text-anchor="middle" x="0" y="433" style="font-family: 'Open Sans', verdana, arial, sans-serif; font-size: 12px; fill: rgb(42, 63, 95); fill-opacity: 1; white-space: pre; opacity: 1;" transform="translate(265.47,0)">Sep 2022</text></g><g class="xtick"><text text-anchor="middle" x="0" y="433" style="font-family: 'Open Sans', verdana, arial, sans-serif; font-size: 12px; fill: rgb(42, 63, 95); fill-opacity: 1; white-space: pre; opacity: 1;" transform="translate(381.4,0)">Oct 2022</text></g><g class="xtick"><text text-anchor="middle" x="0" y="433" style="font-family: 'Open Sans', verdana, arial, sans-serif; font-size: 12px; fill: rgb(42, 63, 95); fill-opacity: 1; white-space: pre; opacity: 1;" transform="translate(501.18,0)">Nov 2022</text></g><g class="xtick"><text text-anchor="middle" x="0" y="433" style="font-family: 'Open Sans', verdana, arial, sans-serif; font-size: 12px; fill: rgb(42, 63, 95); fill-opacity: 1; white-space: pre; opacity: 1;" transform="translate(617.1,0)">Dec 2022</text></g></g><g class="yaxislayer-above"><g class="ytick"><text text-anchor="end" x="79" y="4.199999999999999" transform="translate(0,420)" style="font-family: 'Open Sans', verdana, arial, sans-serif; font-size: 12px; fill: rgb(42, 63, 95); fill-opacity: 1; white-space: pre; opacity: 1;">$0</text></g><g class="ytick"><text text-anchor="end" x="79" y="4.199999999999999" style="font-family: 'Open Sans', verdana, arial, sans-serif; font-size: 12px; fill: rgb(42, 63, 95); fill-opacity: 1; white-space: pre; opacity: 1;" transform="translate(0,384.11)">$1M</text></g><g class="ytick"><text text-anchor="end" x="79" y="4.199999999999999" style="font-family: 'Open Sans', verdana, arial, sans-serif; font-size: 12px; fill: rgb(42, 63, 95); fill-opacity: 1; white-space: pre; opacity: 1;" transform="translate(0,348.22)">$2M</text></g><g class="ytick"><text text-anchor="end" x="79" y="4.199999999999999" style="font-family: 'Open Sans', verdana, arial, sans-serif; font-size: 12px; fill: rgb(42, 63, 95); fill-opacity: 1; white-space: pre; opacity: 1;" transform="translate(0,312.33000000000004)">$3M</text></g><g class="ytick"><text text-anchor="end" x="79" y="4.199999999999999" style="font-family: 'Open Sans', verdana, arial, sans-serif; font-size: 12px; fill: rgb(42, 63, 95); fill-opacity: 1; white-space: pre; opacity: 1;" transform="translate(0,276.44)">$4M</text></g><g class="ytick"><text text-anchor="end" x="79" y="4.199999999999999" style="font-family: 'Open Sans', verdana, arial, sans-serif; font-size: 12px; fill: rgb(42, 63, 95); fill-opacity: 1; white-space: pre; opacity: 1;" transform="translate(0,240.55)">$5M</text></g><g class="ytick"><text text-anchor="end" x="79" y="4.199999999999999" style="font-family: 'Open Sans', verdana, arial, sans-serif; font-size: 12px; fill: rgb(42, 63, 95); fill-opacity: 1; white-space: pre; opacity: 1;" transform="translate(0,204.65)">$6M</text></g><g class="ytick"><text text-anchor="end" x="79" y="4.199999999999999" style="font-family: 'Open Sans', verdana, arial, sans-serif; font-size: 12px; fill: rgb(42, 63, 95); fill-opacity: 1; white-space: pre; opacity: 1;" transform="translate(0,168.76)">$7M</text></g><g class="ytick"><text text-anchor="end" x="79" y="4.199999999999999" style="font-family: 'Open Sans', verdana, arial, sans-serif; font-size: 12px; fill: rgb(42, 63, 95); fill-opacity: 1; white-space: pre; opacity: 1;" transform="translate(0,132.87)">$8M</text></g></g><g class="overaxes-above"/></g></g><g class="polarlayer"/><g class="smithlayer"/><g class="ternarylayer"/><g class="geolayer"/><g class="funnelarealayer"/><g class="pielayer"/><g class="iciclelayer"/><g class="treemaplayer"/><g class="sunburstlayer"/><g class="glimages"/><defs id="topdefs-f4de00"><g class="clips"/></defs><g class="layer-above"><g class="imagelayer"/><g class="shapelayer"/></g><g class="infolayer"><g class="g-gtitle"><text class="gtitle" x="35" y="50" text-anchor="start" dy="0em" style="font-family: 'Open Sans', verdana, arial, sans-serif; font-size: 17px; fill: rgb(42, 63, 95); opacity: 1; font-weight: normal; white-space: pre;">Rubicon: Cumulative Net Dollar Flow since Program Announcement</text></g><g class="g-xtitle"><text class="xtitle" x="350" y="460.8" text-anchor="middle" style="font-family: 'Open Sans', verdana, arial, sans-serif; font-size: 14px; fill: rgb(42, 63, 95); opacity: 1; font-weight: normal; white-space: pre;">Day</text></g><g class="g-ytitle"><text class="ytitle" transform="rotate(-90,30.856250000000003,260)" x="30.856250000000003" y="260" text-anchor="middle" style="font-family: 'Open Sans', verdana, arial, sans-serif; font-size: 14px; fill: rgb(42, 63, 95); opacity: 1; font-weight: normal; white-space: pre;">Cumulative Net Dollar Flow (N$F)</text></g></g></svg>