<svg class="main-svg" xmlns="http://www.w3.org/2000/svg" xmlns:xlink="http://www.w3.org/1999/xlink" width="700" height="500" style="" viewBox="0 0 700 500"><rect x="0" y="0" width="700" height="500" style="fill: rgb(255, 255, 255); fill-opacity: 1;"/><defs id="defs-9cec33"><g class="clips"><clipPath id="clip9cec33xyplot" class="plotclip"><rect width="540" height="320"/></clipPath><clipPath class="axesclip" id="clip9cec33x"><rect x="80" y="0" width="540" height="500"/></clipPath><clipPath class="axesclip" id="clip9cec33y"><rect x="0" y="100" width="700" height="320"/></clipPath><clipPath class="axesclip" id="clip9cec33xy"><rect x="80" y="100" width="540" height="320"/></clipPath></g><g class="gradients"/><g class="patterns"/></defs><g class="bglayer"><rect class="bg" x="80" y="100" width="540" height="320" style="fill: rgb(229, 236, 246); fill-opacity: 1; stroke-width: 0;"/></g><g class="layer-below"><g class="imagelayer"/><g class="shapelayer"/></g><g class="cartesianlayer"><g class="subplot xy"><g class="layer-subplot"><g class="shapelayer"/><g class="imagelayer"/></g><g class="minor-gridlayer"><g class="x"/><g class="y"/></g><g class="gridlayer"><g class="x"><path class="xgrid crisp" transform="translate(149.47,0)" d="M0,100v320" style="stroke: rgb(255, 255, 255); stroke-opacity: 1; stroke-width: 1px;"/><path class="xgrid crisp" transform="translate(247.37,0)" d="M0,100v320" style="stroke: rgb(255, 255, 255); stroke-opacity: 1; stroke-width: 1px;"/><path class="xgrid crisp" transform="translate(342.11,0)" d="M0,100v320" style="stroke: rgb(255, 255, 255); stroke-opacity: 1; stroke-width: 1px;"/><path class="xgrid crisp" transform="translate(440,0)" d="M0,100v320" style="stroke: rgb(255, 255, 255); stroke-opacity: 1; stroke-width: 1px;"/><path class="xgrid crisp" transform="translate(537.89,0)" d="M0,100v320" style="stroke: rgb(255, 255, 255); stroke-opacity: 1; stroke-width: 1px;"/></g><g class="y"><path class="ygrid crisp" transform="translate(0,317.65)" d="M80,0h540" style="stroke: rgb(255, 255, 255); stroke-opacity: 1; stroke-width: 1px;"/><path class="ygrid crisp" transform="translate(0,254.53)" d="M80,0h540" style="stroke: rgb(255, 255, 255); stroke-opacity: 1; stroke-width: 1px;"/><path class="ygrid crisp" transform="translate(0,191.41)" d="M80,0h540" style="stroke: rgb(255, 255, 255); stroke-opacity: 1; stroke-width: 1px;"/><path class="ygrid crisp" transform="translate(0,128.28)" d="M80,0h540" style="stroke: rgb(255, 255, 255); stroke-opacity: 1; stroke-width: 1px;"/></g></g><g class="zerolinelayer"><path class="yzl zl crisp" transform="translate(0,380.77)" d="M80,0h540" style="stroke: rgb(255, 255, 255); stroke-opacity: 1; stroke-width: 2px;"/></g><path class="xlines-below"/><path class="ylines-below"/><g class="overlines-below"/><g class="xaxislayer-below"/><g class="yaxislayer-below"/><g class="overaxes-below"/><g class="plot" transform="translate(80,100)" clip-path="url(#clip9cec33xyplot)"><g class="scatterlayer mlayer"><g class="trace scatter trace74a12f" style="stroke-miterlimit: 2;"><g class="fills"><g><path class="js-fill" d="M540,280.77L0,280.77L0,271.57L3.16,257.79L6.32,259.56L9.47,250.65L12.63,239.12L15.79,240.66L18.95,239.8L22.11,244.61L25.26,217.89L31.58,213.11L34.74,207.94L37.89,209.75L41.05,213L44.21,206.14L47.37,205.22L50.53,204.05L53.68,198.24L56.84,199.39L60,193.14L63.16,193.45L66.32,187.04L69.47,180.29L72.63,170.36L75.79,174.14L78.95,166.44L85.26,156.21L88.42,155.07L94.74,166.99L97.89,163.22L101.05,164.05L104.21,169.43L107.37,181.72L110.53,185.47L113.68,190.22L116.84,190.73L120,189.8L123.16,187.82L126.32,189.24L129.47,201.06L132.63,199.1L135.79,201.69L138.95,201.03L142.11,202.65L145.26,202.88L148.42,197.8L151.58,194.86L154.74,194.96L157.89,193.92L161.05,191.07L164.21,192.97L167.37,189.86L170.53,183.47L173.68,182.41L180,176.53L183.16,173.58L189.47,183.73L192.63,195.35L195.79,205.34L198.95,201.55L202.11,200.21L205.26,204.54L208.42,204.52L211.58,203.57L214.74,202.31L217.89,202.31L224.21,201.17L227.37,193.09L233.68,202.47L236.84,206.22L240,204.55L243.16,204.3L252.63,206.4L255.79,207.89L258.95,204.51L262.11,198.91L265.26,201.05L268.42,193.11L271.58,194.29L274.74,193.39L277.89,194.67L281.05,192.78L284.21,197.74L287.37,196.69L293.68,200.22L296.84,201.46L300,200.9L303.16,198.93L306.32,199.1L309.47,200.53L312.63,204.25L315.79,206.3L318.95,206.21L322.11,207.87L325.26,205.89L328.42,205.46L331.58,206.13L334.74,205.96L337.89,202.46L341.05,202.78L344.21,206.13L347.37,201.8L350.53,202.39L353.68,200.94L356.84,201.67L360,199.14L369.47,198.3L372.63,195.23L375.79,196.1L378.95,194.5L382.11,194.89L385.26,191.28L388.42,187.91L391.58,186.52L394.74,177.95L397.89,182.06L404.21,184.7L407.37,182.42L413.68,176.4L416.84,169.45L420,165.84L423.16,159.39L426.32,159.32L429.47,154.72L432.63,156.82L435.79,156.99L438.95,144.17L442.11,143.31L445.26,138.57L448.42,139.98L451.58,137.49L454.74,136.07L457.89,134.28L461.05,127.55L464.21,124.72L467.37,126.2L473.68,131.92L476.84,120.97L480,115.83L483.16,119.9L486.32,125.76L489.47,125.5L492.63,120.71L495.79,122.07L498.95,124.23L502.11,119.3L505.26,108.72L508.42,103.87L511.58,99.81L514.74,98.26L517.89,73.25L521.05,70.12L524.21,75.12L527.37,83.43L530.53,79.34L533.68,20.45L536.84,23.6L540,16L540,304" style="fill: rgb(99, 110, 250); fill-opacity: 0.5; stroke-width: 0;"/></g></g><g class="errorbars"/><g class="lines"><path class="js-line" d="M0,271.57L3.16,257.79L6.32,259.56L9.47,250.65L12.63,239.12L15.79,240.66L18.95,239.8L22.11,244.61L25.26,217.89L31.58,213.11L34.74,207.94L37.89,209.75L41.05,213L44.21,206.14L47.37,205.22L50.53,204.05L53.68,198.24L56.84,199.39L60,193.14L63.16,193.45L66.32,187.04L69.47,180.29L72.63,170.36L75.79,174.14L78.95,166.44L85.26,156.21L88.42,155.07L94.74,166.99L97.89,163.22L101.05,164.05L104.21,169.43L107.37,181.72L110.53,185.47L113.68,190.22L116.84,190.73L120,189.8L123.16,187.82L126.32,189.24L129.47,201.06L132.63,199.1L135.79,201.69L138.95,201.03L142.11,202.65L145.26,202.88L148.42,197.8L151.58,194.86L154.74,194.96L157.89,193.92L161.05,191.07L164.21,192.97L167.37,189.86L170.53,183.47L173.68,182.41L180,176.53L183.16,173.58L189.47,183.73L192.63,195.35L195.79,205.34L198.95,201.55L202.11,200.21L205.26,204.54L208.42,204.52L211.58,203.57L214.74,202.31L217.89,202.31L224.21,201.17L227.37,193.09L233.68,202.47L236.84,206.22L240,204.55L243.16,204.3L252.63,206.4L255.79,207.89L258.95,204.51L262.11,198.91L265.26,201.05L268.42,193.11L271.58,194.29L274.74,193.39L277.89,194.67L281.05,192.78L284.21,197.74L287.37,196.69L293.68,200.22L296.84,201.46L300,200.9L303.16,198.93L306.32,199.1L309.47,200.53L312.63,204.25L315.79,206.3L318.95,206.21L322.11,207.87L325.26,205.89L328.42,205.46L331.58,206.13L334.74,205.96L337.89,202.46L341.05,202.78L344.21,206.13L347.37,201.8L350.53,202.39L353.68,200.94L356.84,201.67L360,199.14L369.47,198.3L372.63,195.23L375.79,196.1L378.95,194.5L382.11,194.89L385.26,191.28L388.42,187.91L391.58,186.52L394.74,177.95L397.89,182.06L404.21,184.7L407.37,182.42L413.68,176.4L416.84,169.45L420,165.84L423.16,159.39L426.32,159.32L429.47,154.72L432.63,156.82L435.79,156.99L438.95,144.17L442.11,143.31L445.26,138.57L448.42,139.98L451.58,137.49L454.74,136.07L457.89,134.28L461.05,127.55L464.21,124.72L467.37,126.2L473.68,131.92L476.84,120.97L480,115.83L483.16,119.9L486.32,125.76L489.47,125.5L492.63,120.71L495.79,122.07L498.95,124.23L502.11,119.3L505.26,108.72L508.42,103.87L511.58,99.81L514.74,98.26L517.89,73.25L521.05,70.12L524.21,75.12L527.37,83.43L530.53,79.34L533.68,20.45L536.84,23.6L540,16L540,304" style="vector-effect: non-scaling-stroke; fill: none; stroke: rgb(99, 110, 250); stroke-opacity: 1; stroke-width: 2px; opacity: 1;"/></g><g class="points"/><g class="text"/></g></g></g><g class="overplot"/><path class="xlines-above crisp" d="M0,0" style="fill: none;"/><path class="ylines-above crisp" d="M0,0" style="fill: none;"/><g class="overlines-above"/><g class="xaxislayer-above"><g class="xtick"><text text-anchor="middle" x="0" y="433" transform="translate(149.47,0)" style="font-family: 'Open Sans', verdana, arial, sans-serif; font-size: 12px; fill: rgb(42, 63, 95); fill-opacity: 1; white-space: pre; opacity: 1;">Oct 2022</text></g><g class="xtick"><text text-anchor="middle" x="0" y="433" style="font-family: 'Open Sans', verdana, arial, sans-serif; font-size: 12px; fill: rgb(42, 63, 95); fill-opacity: 1; white-space: pre; opacity: 1;" transform="translate(247.37,0)">Nov 2022</text></g><g class="xtick"><text text-anchor="middle" x="0" y="433" style="font-family: 'Open Sans', verdana, arial, sans-serif; font-size: 12px; fill: rgb(42, 63, 95); fill-opacity: 1; white-space: pre; opacity: 1;" transform="translate(342.11,0)">Dec 2022</text></g><g class="xtick"><text text-anchor="middle" x="0" y="433" style="font-family: 'Open Sans', verdana, arial, sans-serif; font-size: 12px; fill: rgb(42, 63, 95); fill-opacity: 1; white-space: pre; opacity: 1;" transform="translate(440,0)">Jan 2023</text></g><g class="xtick"><text text-anchor="middle" x="0" y="433" style="font-family: 'Open Sans', verdana, arial, sans-serif; font-size: 12px; fill: rgb(42, 63, 95); fill-opacity: 1; white-space: pre; opacity: 1;" transform="translate(537.89,0)">Feb 2023</text></g></g><g class="yaxislayer-above"><g class="ytick"><text text-anchor="end" x="79" y="4.199999999999999" transform="translate(0,380.77)" style="font-family: 'Open Sans', verdana, arial, sans-serif; font-size: 12px; fill: rgb(42, 63, 95); fill-opacity: 1; white-space: pre; opacity: 1;">$0</text></g><g class="ytick"><text text-anchor="end" x="79" y="4.199999999999999" style="font-family: 'Open Sans', verdana, arial, sans-serif; font-size: 12px; fill: rgb(42, 63, 95); fill-opacity: 1; white-space: pre; opacity: 1;" transform="translate(0,317.65)">$1M</text></g><g class="ytick"><text text-anchor="end" x="79" y="4.199999999999999" style="font-family: 'Open Sans', verdana, arial, sans-serif; font-size: 12px; fill: rgb(42, 63, 95); fill-opacity: 1; white-space: pre; opacity: 1;" transform="translate(0,254.53)">$2M</text></g><g class="ytick"><text text-anchor="end" x="79" y="4.199999999999999" style="font-family: 'Open Sans', verdana, arial, sans-serif; font-size: 12px; fill: rgb(42, 63, 95); fill-opacity: 1; white-space: pre; opacity: 1;" transform="translate(0,191.41)">$3M</text></g><g class="ytick"><text text-anchor="end" x="79" y="4.199999999999999" style="font-family: 'Open Sans', verdana, arial, sans-serif; font-size: 12px; fill: rgb(42, 63, 95); fill-opacity: 1; white-space: pre; opacity: 1;" transform="translate(0,128.28)">$4M</text></g></g><g class="overaxes-above"/></g></g><g class="polarlayer"/><g class="smithlayer"/><g class="ternarylayer"/><g class="geolayer"/><g class="funnelarealayer"/><g class="pielayer"/><g class="iciclelayer"/><g class="treemaplayer"/><g class="sunburstlayer"/><g class="glimages"/><defs id="topdefs-9cec33"><g class="clips"/></defs><g class="layer-above"><g class="imagelayer"/><g class="shapelayer"/></g><g class="infolayer"><g class="g-gtitle"><text class="gtitle" x="35" y="50" text-anchor="start" dy="0em" style="font-family: 'Open Sans', verdana, arial, sans-serif; font-size: 17px; fill: rgb(42, 63, 95); opacity: 1; font-weight: normal; white-space: pre;"><tspan class="line" dy="0em" x="35" y="50">Pickle - Pickle Finance*</tspan><tspan class="line" dy="1.3em" x="35" y="50">​<tspan style="font-size:70%" dy="-0.6em">Cumulative Net Flows since Program Announcement, Until Program End + 30 Days</tspan><tspan dy="0.42em">​</tspan></tspan></text></g><g class="g-xtitle"><text class="xtitle" x="350" y="460.8" text-anchor="middle" style="font-family: 'Open Sans', verdana, arial, sans-serif; font-size: 14px; fill: rgb(42, 63, 95); opacity: 1; font-weight: normal; white-space: pre;">Day</text></g><g class="g-ytitle"><text class="ytitle" transform="rotate(-90,30.856250000000003,260)" x="30.856250000000003" y="260" text-anchor="middle" style="font-family: 'Open Sans', verdana, arial, sans-serif; font-size: 14px; fill: rgb(42, 63, 95); opacity: 1; font-weight: normal; white-space: pre;">Cumulative Net Flows (USD)</text></g></g></svg>