<svg class="main-svg" xmlns="http://www.w3.org/2000/svg" xmlns:xlink="http://www.w3.org/1999/xlink" width="700" height="500" style="" viewBox="0 0 700 500"><rect x="0" y="0" width="700" height="500" style="fill: rgb(255, 255, 255); fill-opacity: 1;"/><defs id="defs-106dd0"><g class="clips"><clipPath id="clip106dd0xyplot" class="plotclip"><rect width="540" height="320"/></clipPath><clipPath class="axesclip" id="clip106dd0x"><rect x="80" y="0" width="540" height="500"/></clipPath><clipPath class="axesclip" id="clip106dd0y"><rect x="0" y="100" width="700" height="320"/></clipPath><clipPath class="axesclip" id="clip106dd0xy"><rect x="80" y="100" width="540" height="320"/></clipPath></g><g class="gradients"/><g class="patterns"/></defs><g class="bglayer"><rect class="bg" x="80" y="100" width="540" height="320" style="fill: rgb(229, 236, 246); fill-opacity: 1; stroke-width: 0;"/></g><g class="layer-below"><g class="imagelayer"/><g class="shapelayer"/></g><g class="cartesianlayer"><g class="subplot xy"><g class="layer-subplot"><g class="shapelayer"/><g class="imagelayer"/></g><g class="minor-gridlayer"><g class="x"/><g class="y"/></g><g class="gridlayer"><g class="x"><path class="xgrid crisp" transform="translate(118.03,0)" d="M0,100v320" style="stroke: rgb(255, 255, 255); stroke-opacity: 1; stroke-width: 1px;"/><path class="xgrid crisp" transform="translate(235.92,0)" d="M0,100v320" style="stroke: rgb(255, 255, 255); stroke-opacity: 1; stroke-width: 1px;"/><path class="xgrid crisp" transform="translate(350,0)" d="M0,100v320" style="stroke: rgb(255, 255, 255); stroke-opacity: 1; stroke-width: 1px;"/><path class="xgrid crisp" transform="translate(467.89,0)" d="M0,100v320" style="stroke: rgb(255, 255, 255); stroke-opacity: 1; stroke-width: 1px;"/><path class="xgrid crisp" transform="translate(581.97,0)" d="M0,100v320" style="stroke: rgb(255, 255, 255); stroke-opacity: 1; stroke-width: 1px;"/></g><g class="y"><path class="ygrid crisp" transform="translate(0,346.08000000000004)" d="M80,0h540" style="stroke: rgb(255, 255, 255); stroke-opacity: 1; stroke-width: 1px;"/><path class="ygrid crisp" transform="translate(0,307.6)" d="M80,0h540" style="stroke: rgb(255, 255, 255); stroke-opacity: 1; stroke-width: 1px;"/><path class="ygrid crisp" transform="translate(0,269.13)" d="M80,0h540" style="stroke: rgb(255, 255, 255); stroke-opacity: 1; stroke-width: 1px;"/><path class="ygrid crisp" transform="translate(0,230.66)" d="M80,0h540" style="stroke: rgb(255, 255, 255); stroke-opacity: 1; stroke-width: 1px;"/><path class="ygrid crisp" transform="translate(0,192.18)" d="M80,0h540" style="stroke: rgb(255, 255, 255); stroke-opacity: 1; stroke-width: 1px;"/><path class="ygrid crisp" transform="translate(0,153.71)" d="M80,0h540" style="stroke: rgb(255, 255, 255); stroke-opacity: 1; stroke-width: 1px;"/><path class="ygrid crisp" transform="translate(0,115.24)" d="M80,0h540" style="stroke: rgb(255, 255, 255); stroke-opacity: 1; stroke-width: 1px;"/></g></g><g class="zerolinelayer"><path class="yzl zl crisp" transform="translate(0,384.55)" d="M80,0h540" style="stroke: rgb(255, 255, 255); stroke-opacity: 1; stroke-width: 2px;"/></g><path class="xlines-below"/><path class="ylines-below"/><g class="overlines-below"/><g class="xaxislayer-below"/><g class="yaxislayer-below"/><g class="overaxes-below"/><g class="plot" transform="translate(80,100)" clip-path="url(#clip106dd0xyplot)"><g class="scatterlayer mlayer"><g class="trace scatter tracefeb42e" style="stroke-miterlimit: 2;"><g class="fills"><g><path class="js-fill" d="M540,284.55L0,284.55L0,284.07L3.8,281.13L7.61,274.85L15.21,270.06L19.01,246.01L22.82,192.65L26.62,156.97L30.42,142.4L34.23,137.03L45.63,122.65L49.44,114.89L53.24,90.32L57.04,81.21L60.85,57.01L64.65,54.95L72.25,29.29L76.06,26.24L79.86,22.01L83.66,28.89L87.46,46.83L91.27,83.84L95.07,64.37L98.87,55.85L102.68,59.31L106.48,59.29L110.28,56.48L114.08,56.42L117.89,58.63L121.69,73.71L125.49,71.44L129.3,61.82L133.1,22.49L136.9,33.82L140.7,32.35L144.51,32.32L148.31,33.24L152.11,37.31L155.92,44.74L159.72,54.21L163.52,54.9L167.32,54.73L171.13,54.98L174.93,59.5L178.73,58.58L182.54,59.4L186.34,59.6L190.14,62.47L193.94,62.98L197.75,62.21L201.55,69.11L205.35,79.6L209.15,101.28L212.96,303.67L250.99,44.34L254.79,44.34L258.59,44.34L262.39,43.31L270,42.01L273.8,39.01L277.61,33.87L281.41,18.42L289.01,19.43L292.82,21.36L296.62,303.66L300.42,22.91L304.23,22.49L308.03,16L311.83,24.54L315.63,23.47L319.44,31.03L323.24,31.4L334.65,29.68L338.45,37.51L342.25,38.3L346.06,32.12L349.86,28.3L353.66,28.26L357.46,34.54L361.27,33.88L365.07,35.36L368.87,32.53L372.68,34.86L376.48,34.96L384.08,30.92L387.89,31.22L391.69,26.76L395.49,23.88L399.3,30.96L403.1,31.84L406.9,31.58L410.7,28.83L414.51,27.72L418.31,34.81L422.11,49.81L425.92,41.66L429.72,47.19L433.52,48.81L437.32,45.56L441.13,44.3L444.93,36.38L448.73,60.31L452.54,61.45L456.34,60.8L463.94,62.91L467.75,64.31L471.55,73.84L475.35,75.18L479.15,75.68L482.96,77.57L490.56,76.79L494.37,78.25L498.17,92.43L501.97,90.14L505.77,78.09L509.58,78.26L513.38,77.45L517.18,77.5L520.99,77.96L524.79,60.78L528.59,47.07L532.39,46.64L540,46.15L540,304" style="fill: rgb(99, 110, 250); fill-opacity: 0.5; stroke-width: 0;"/></g></g><g class="errorbars"/><g class="lines"><path class="js-line" d="M0,284.07L3.8,281.13L7.61,274.85L15.21,270.06L19.01,246.01L22.82,192.65L26.62,156.97L30.42,142.4L34.23,137.03L45.63,122.65L49.44,114.89L53.24,90.32L57.04,81.21L60.85,57.01L64.65,54.95L72.25,29.29L76.06,26.24L79.86,22.01L83.66,28.89L87.46,46.83L91.27,83.84L95.07,64.37L98.87,55.85L102.68,59.31L106.48,59.29L110.28,56.48L114.08,56.42L117.89,58.63L121.69,73.71L125.49,71.44L129.3,61.82L133.1,22.49L136.9,33.82L140.7,32.35L144.51,32.32L148.31,33.24L152.11,37.31L155.92,44.74L159.72,54.21L163.52,54.9L167.32,54.73L171.13,54.98L174.93,59.5L178.73,58.58L182.54,59.4L186.34,59.6L190.14,62.47L193.94,62.98L197.75,62.21L201.55,69.11L205.35,79.6L209.15,101.28L212.96,303.67L250.99,44.34L254.79,44.34L258.59,44.34L262.39,43.31L270,42.01L273.8,39.01L277.61,33.87L281.41,18.42L289.01,19.43L292.82,21.36L296.62,303.66L300.42,22.91L304.23,22.49L308.03,16L311.83,24.54L315.63,23.47L319.44,31.03L323.24,31.4L334.65,29.68L338.45,37.51L342.25,38.3L346.06,32.12L349.86,28.3L353.66,28.26L357.46,34.54L361.27,33.88L365.07,35.36L368.87,32.53L372.68,34.86L376.48,34.96L384.08,30.92L387.89,31.22L391.69,26.76L395.49,23.88L399.3,30.96L403.1,31.84L406.9,31.58L410.7,28.83L414.51,27.72L418.31,34.81L422.11,49.81L425.92,41.66L429.72,47.19L433.52,48.81L437.32,45.56L441.13,44.3L444.93,36.38L448.73,60.31L452.54,61.45L456.34,60.8L463.94,62.91L467.75,64.31L471.55,73.84L475.35,75.18L479.15,75.68L482.96,77.57L490.56,76.79L494.37,78.25L498.17,92.43L501.97,90.14L505.77,78.09L509.58,78.26L513.38,77.45L517.18,77.5L520.99,77.96L524.79,60.78L528.59,47.07L532.39,46.64L540,46.15L540,304" style="vector-effect: non-scaling-stroke; fill: none; stroke: rgb(99, 110, 250); stroke-opacity: 1; stroke-width: 2px; opacity: 1;"/></g><g class="points"/><g class="text"/></g></g></g><g class="overplot"/><path class="xlines-above crisp" d="M0,0" style="fill: none;"/><path class="ylines-above crisp" d="M0,0" style="fill: none;"/><g class="overlines-above"/><g class="xaxislayer-above"><g class="xtick"><text text-anchor="middle" x="0" y="433" transform="translate(118.03,0)" style="font-family: 'Open Sans', verdana, arial, sans-serif; font-size: 12px; fill: rgb(42, 63, 95); fill-opacity: 1; white-space: pre; opacity: 1;">Aug 2022</text></g><g class="xtick"><text text-anchor="middle" x="0" y="433" style="font-family: 'Open Sans', verdana, arial, sans-serif; font-size: 12px; fill: rgb(42, 63, 95); fill-opacity: 1; white-space: pre; opacity: 1;" transform="translate(235.92,0)">Sep 2022</text></g><g class="xtick"><text text-anchor="middle" x="0" y="433" style="font-family: 'Open Sans', verdana, arial, sans-serif; font-size: 12px; fill: rgb(42, 63, 95); fill-opacity: 1; white-space: pre; opacity: 1;" transform="translate(350,0)">Oct 2022</text></g><g class="xtick"><text text-anchor="middle" x="0" y="433" style="font-family: 'Open Sans', verdana, arial, sans-serif; font-size: 12px; fill: rgb(42, 63, 95); fill-opacity: 1; white-space: pre; opacity: 1;" transform="translate(467.89,0)">Nov 2022</text></g><g class="xtick"><text text-anchor="middle" x="0" y="433" style="font-family: 'Open Sans', verdana, arial, sans-serif; font-size: 12px; fill: rgb(42, 63, 95); fill-opacity: 1; white-space: pre; opacity: 1;" transform="translate(581.97,0)">Dec 2022</text></g></g><g class="yaxislayer-above"><g class="ytick"><text text-anchor="end" x="79" y="4.199999999999999" transform="translate(0,384.55)" style="font-family: 'Open Sans', verdana, arial, sans-serif; font-size: 12px; fill: rgb(42, 63, 95); fill-opacity: 1; white-space: pre; opacity: 1;">$0</text></g><g class="ytick"><text text-anchor="end" x="79" y="4.199999999999999" style="font-family: 'Open Sans', verdana, arial, sans-serif; font-size: 12px; fill: rgb(42, 63, 95); fill-opacity: 1; white-space: pre; opacity: 1;" transform="translate(0,346.08000000000004)">$5M</text></g><g class="ytick"><text text-anchor="end" x="79" y="4.199999999999999" style="font-family: 'Open Sans', verdana, arial, sans-serif; font-size: 12px; fill: rgb(42, 63, 95); fill-opacity: 1; white-space: pre; opacity: 1;" transform="translate(0,307.6)">$10M</text></g><g class="ytick"><text text-anchor="end" x="79" y="4.199999999999999" style="font-family: 'Open Sans', verdana, arial, sans-serif; font-size: 12px; fill: rgb(42, 63, 95); fill-opacity: 1; white-space: pre; opacity: 1;" transform="translate(0,269.13)">$15M</text></g><g class="ytick"><text text-anchor="end" x="79" y="4.199999999999999" style="font-family: 'Open Sans', verdana, arial, sans-serif; font-size: 12px; fill: rgb(42, 63, 95); fill-opacity: 1; white-space: pre; opacity: 1;" transform="translate(0,230.66)">$20M</text></g><g class="ytick"><text text-anchor="end" x="79" y="4.199999999999999" style="font-family: 'Open Sans', verdana, arial, sans-serif; font-size: 12px; fill: rgb(42, 63, 95); fill-opacity: 1; white-space: pre; opacity: 1;" transform="translate(0,192.18)">$25M</text></g><g class="ytick"><text text-anchor="end" x="79" y="4.199999999999999" style="font-family: 'Open Sans', verdana, arial, sans-serif; font-size: 12px; fill: rgb(42, 63, 95); fill-opacity: 1; white-space: pre; opacity: 1;" transform="translate(0,153.71)">$30M</text></g><g class="ytick"><text text-anchor="end" x="79" y="4.199999999999999" style="font-family: 'Open Sans', verdana, arial, sans-serif; font-size: 12px; fill: rgb(42, 63, 95); fill-opacity: 1; white-space: pre; opacity: 1;" transform="translate(0,115.24)">$35M</text></g></g><g class="overaxes-above"/></g></g><g class="polarlayer"/><g class="smithlayer"/><g class="ternarylayer"/><g class="geolayer"/><g class="funnelarealayer"/><g class="pielayer"/><g class="iciclelayer"/><g class="treemaplayer"/><g class="sunburstlayer"/><g class="glimages"/><defs id="topdefs-106dd0"><g class="clips"/></defs><g class="layer-above"><g class="imagelayer"/><g class="shapelayer"/></g><g class="infolayer"><g class="g-gtitle"><text class="gtitle" x="35" y="50" text-anchor="start" dy="0em" style="font-family: 'Open Sans', verdana, arial, sans-serif; font-size: 17px; fill: rgb(42, 63, 95); opacity: 1; font-weight: normal; white-space: pre;">Pooltogether: Cumulative Net Dollar Flow since Program Announcement</text></g><g class="g-xtitle"><text class="xtitle" x="350" y="460.8" text-anchor="middle" style="font-family: 'Open Sans', verdana, arial, sans-serif; font-size: 14px; fill: rgb(42, 63, 95); opacity: 1; font-weight: normal; white-space: pre;">Day</text></g><g class="g-ytitle"><text class="ytitle" transform="rotate(-90,24.168750000000003,260)" x="24.168750000000003" y="260" text-anchor="middle" style="font-family: 'Open Sans', verdana, arial, sans-serif; font-size: 14px; fill: rgb(42, 63, 95); opacity: 1; font-weight: normal; white-space: pre;">Cumulative Net Dollar Flow (N$F)</text></g></g></svg>