<svg class="main-svg" xmlns="http://www.w3.org/2000/svg" xmlns:xlink="http://www.w3.org/1999/xlink" width="700" height="500" style="" viewBox="0 0 700 500"><rect x="0" y="0" width="700" height="500" style="fill: rgb(255, 255, 255); fill-opacity: 1;"/><defs id="defs-b28525"><g class="clips"><clipPath id="clipb28525xyplot" class="plotclip"><rect width="540" height="320"/></clipPath><clipPath class="axesclip" id="clipb28525x"><rect x="80" y="0" width="540" height="500"/></clipPath><clipPath class="axesclip" id="clipb28525y"><rect x="0" y="100" width="700" height="320"/></clipPath><clipPath class="axesclip" id="clipb28525xy"><rect x="80" y="100" width="540" height="320"/></clipPath></g><g class="gradients"/><g class="patterns"/></defs><g class="bglayer"><rect class="bg" x="80" y="100" width="540" height="320" style="fill: rgb(229, 236, 246); fill-opacity: 1; stroke-width: 0;"/></g><g class="layer-below"><g class="imagelayer"/><g class="shapelayer"/></g><g class="cartesianlayer"><g class="subplot xy"><g class="layer-subplot"><g class="shapelayer"/><g class="imagelayer"/></g><g class="minor-gridlayer"><g class="x"/><g class="y"/></g><g class="gridlayer"><g class="x"><path class="xgrid crisp" transform="translate(166.04000000000002,0)" d="M0,100v320" style="stroke: rgb(255, 255, 255); stroke-opacity: 1; stroke-width: 1px;"/><path class="xgrid crisp" transform="translate(255.05,0)" d="M0,100v320" style="stroke: rgb(255, 255, 255); stroke-opacity: 1; stroke-width: 1px;"/><path class="xgrid crisp" transform="translate(347.03,0)" d="M0,100v320" style="stroke: rgb(255, 255, 255); stroke-opacity: 1; stroke-width: 1px;"/><path class="xgrid crisp" transform="translate(439.01,0)" d="M0,100v320" style="stroke: rgb(255, 255, 255); stroke-opacity: 1; stroke-width: 1px;"/><path class="xgrid crisp" transform="translate(522.0899999999999,0)" d="M0,100v320" style="stroke: rgb(255, 255, 255); stroke-opacity: 1; stroke-width: 1px;"/><path class="xgrid crisp" transform="translate(614.07,0)" d="M0,100v320" style="stroke: rgb(255, 255, 255); stroke-opacity: 1; stroke-width: 1px;"/></g><g class="y"><path class="ygrid crisp" transform="translate(0,348.23)" d="M80,0h540" style="stroke: rgb(255, 255, 255); stroke-opacity: 1; stroke-width: 1px;"/><path class="ygrid crisp" transform="translate(0,276.47)" d="M80,0h540" style="stroke: rgb(255, 255, 255); stroke-opacity: 1; stroke-width: 1px;"/><path class="ygrid crisp" transform="translate(0,204.7)" d="M80,0h540" style="stroke: rgb(255, 255, 255); stroke-opacity: 1; stroke-width: 1px;"/><path class="ygrid crisp" transform="translate(0,132.94)" d="M80,0h540" style="stroke: rgb(255, 255, 255); stroke-opacity: 1; stroke-width: 1px;"/></g></g><g class="zerolinelayer"><path class="yzl zl crisp" transform="translate(0,420)" d="M80,0h540" style="stroke: rgb(255, 255, 255); stroke-opacity: 1; stroke-width: 2px;"/></g><path class="xlines-below"/><path class="ylines-below"/><g class="overlines-below"/><g class="xaxislayer-below"/><g class="yaxislayer-below"/><g class="overaxes-below"/><g class="plot" transform="translate(80,100)" clip-path="url(#clipb28525xyplot)"><g class="scatterlayer mlayer"><g class="trace scatter trace81d40f" style="stroke-miterlimit: 2;"><g class="fills"><g><path class="js-fill" d="M540,320L0,320L0,317.52L2.97,317.52L5.93,306.99L11.87,300.94L14.84,293.99L20.77,293.64L23.74,293.21L26.7,292.72L29.67,276.41L32.64,255.71L35.6,255.56L38.57,255.29L41.54,252.37L44.51,249.55L47.47,249.52L53.41,248.44L56.37,249.53L59.34,247.29L62.31,238.4L65.27,224.67L68.24,216.53L71.21,209.26L74.18,207.53L77.14,207.02L80.11,204.16L83.08,199.51L86.04,197.29L89.01,175.56L91.98,182.5L97.91,181.29L100.88,187.65L106.81,199.41L109.78,199.71L112.75,202.9L115.71,202.92L121.65,203.03L124.62,205.65L127.58,206.34L130.55,206.2L133.52,207.16L136.48,210.75L154.29,211.43L157.25,210.75L163.19,209.1L166.15,207.07L180.99,206.07L183.96,204.71L186.92,208.9L189.89,226.75L192.86,226.69L195.82,228.11L198.79,256.16L201.76,256.14L204.73,254.99L207.69,254.93L210.66,256.11L213.63,254.6L219.56,254.99L222.53,254.63L237.36,252.71L240.33,251.98L249.23,251.56L252.2,248.04L255.16,248.88L258.13,216.2L261.1,215.75L264.07,212.03L267.03,214.44L270,212.69L272.97,209.73L275.93,211.12L278.9,214.19L281.87,213.35L284.84,213.22L287.8,230.28L290.77,226.38L293.74,226.12L299.67,224.69L302.64,222.4L305.6,201.59L308.57,201.94L320.44,200.89L323.41,201.55L326.37,195.29L329.34,195.13L332.31,194.68L335.27,192.51L338.24,191.62L341.21,183.08L344.18,178.65L347.14,177.75L350.11,201.54L353.08,190.8L356.04,181.28L359.01,181.89L361.98,148.05L364.95,129.27L367.91,125.77L370.88,125.16L373.85,125.13L376.81,123.16L379.78,120.38L382.75,111.47L388.68,108.36L391.65,92.88L394.62,87.75L397.58,86.54L400.55,72.85L403.52,101.1L406.48,108.14L409.45,108.33L415.38,109.26L418.35,109.14L421.32,109.64L424.29,83.06L427.25,76.34L430.22,79.38L433.19,63.69L436.15,55.98L439.12,48.75L442.09,45.6L445.05,36.13L448.02,33.99L450.99,37.19L453.96,37.17L456.92,22.28L459.89,16L462.86,17.42L465.82,37L471.76,46.33L474.73,49.01L477.69,50.06L480.66,57.26L483.63,56.69L486.59,44.28L489.56,57.8L492.53,78.01L498.46,72.33L501.43,126.07L504.4,125.64L507.36,123.77L510.33,124.19L513.3,117.01L519.23,116.5L522.2,141.89L528.13,160.61L531.1,158.46L534.07,143.13L537.03,123.2L540,122.19" style="fill: rgb(99, 110, 250); fill-opacity: 0.5; stroke-width: 0;"/></g></g><g class="errorbars"/><g class="lines"><path class="js-line" d="M0,317.52L2.97,317.52L5.93,306.99L11.87,300.94L14.84,293.99L20.77,293.64L23.74,293.21L26.7,292.72L29.67,276.41L32.64,255.71L35.6,255.56L38.57,255.29L41.54,252.37L44.51,249.55L47.47,249.52L53.41,248.44L56.37,249.53L59.34,247.29L62.31,238.4L65.27,224.67L68.24,216.53L71.21,209.26L74.18,207.53L77.14,207.02L80.11,204.16L83.08,199.51L86.04,197.29L89.01,175.56L91.98,182.5L97.91,181.29L100.88,187.65L106.81,199.41L109.78,199.71L112.75,202.9L115.71,202.92L121.65,203.03L124.62,205.65L127.58,206.34L130.55,206.2L133.52,207.16L136.48,210.75L154.29,211.43L157.25,210.75L163.19,209.1L166.15,207.07L180.99,206.07L183.96,204.71L186.92,208.9L189.89,226.75L192.86,226.69L195.82,228.11L198.79,256.16L201.76,256.14L204.73,254.99L207.69,254.93L210.66,256.11L213.63,254.6L219.56,254.99L222.53,254.63L237.36,252.71L240.33,251.98L249.23,251.56L252.2,248.04L255.16,248.88L258.13,216.2L261.1,215.75L264.07,212.03L267.03,214.44L270,212.69L272.97,209.73L275.93,211.12L278.9,214.19L281.87,213.35L284.84,213.22L287.8,230.28L290.77,226.38L293.74,226.12L299.67,224.69L302.64,222.4L305.6,201.59L308.57,201.94L320.44,200.89L323.41,201.55L326.37,195.29L329.34,195.13L332.31,194.68L335.27,192.51L338.24,191.62L341.21,183.08L344.18,178.65L347.14,177.75L350.11,201.54L353.08,190.8L356.04,181.28L359.01,181.89L361.98,148.05L364.95,129.27L367.91,125.77L370.88,125.16L373.85,125.13L376.81,123.16L379.78,120.38L382.75,111.47L388.68,108.36L391.65,92.88L394.62,87.75L397.58,86.54L400.55,72.85L403.52,101.1L406.48,108.14L409.45,108.33L415.38,109.26L418.35,109.14L421.32,109.64L424.29,83.06L427.25,76.34L430.22,79.38L433.19,63.69L436.15,55.98L439.12,48.75L442.09,45.6L445.05,36.13L448.02,33.99L450.99,37.19L453.96,37.17L456.92,22.28L459.89,16L462.86,17.42L465.82,37L471.76,46.33L474.73,49.01L477.69,50.06L480.66,57.26L483.63,56.69L486.59,44.28L489.56,57.8L492.53,78.01L498.46,72.33L501.43,126.07L504.4,125.64L507.36,123.77L510.33,124.19L513.3,117.01L519.23,116.5L522.2,141.89L528.13,160.61L531.1,158.46L534.07,143.13L537.03,123.2L540,122.19" style="vector-effect: non-scaling-stroke; fill: none; stroke: rgb(99, 110, 250); stroke-opacity: 1; stroke-width: 2px; opacity: 1;"/></g><g class="points"/><g class="text"/></g></g></g><g class="overplot"/><path class="xlines-above crisp" d="M0,0" style="fill: none;"/><path class="ylines-above crisp" d="M0,0" style="fill: none;"/><g class="overlines-above"/><g class="xaxislayer-above"><g class="xtick"><text text-anchor="middle" x="0" y="433" transform="translate(166.04000000000002,0)" style="font-family: 'Open Sans', verdana, arial, sans-serif; font-size: 12px; fill: rgb(42, 63, 95); fill-opacity: 1; white-space: pre; opacity: 1;">Nov 2022</text></g><g class="xtick"><text text-anchor="middle" x="0" y="433" style="font-family: 'Open Sans', verdana, arial, sans-serif; font-size: 12px; fill: rgb(42, 63, 95); fill-opacity: 1; white-space: pre; opacity: 1;" transform="translate(255.05,0)">Dec 2022</text></g><g class="xtick"><text text-anchor="middle" x="0" y="433" style="font-family: 'Open Sans', verdana, arial, sans-serif; font-size: 12px; fill: rgb(42, 63, 95); fill-opacity: 1; white-space: pre; opacity: 1;" transform="translate(347.03,0)">Jan 2023</text></g><g class="xtick"><text text-anchor="middle" x="0" y="433" style="font-family: 'Open Sans', verdana, arial, sans-serif; font-size: 12px; fill: rgb(42, 63, 95); fill-opacity: 1; white-space: pre; opacity: 1;" transform="translate(439.01,0)">Feb 2023</text></g><g class="xtick"><text text-anchor="middle" x="0" y="433" style="font-family: 'Open Sans', verdana, arial, sans-serif; font-size: 12px; fill: rgb(42, 63, 95); fill-opacity: 1; white-space: pre; opacity: 1;" transform="translate(522.0899999999999,0)">Mar 2023</text></g><g class="xtick"><text text-anchor="middle" x="0" y="433" style="font-family: 'Open Sans', verdana, arial, sans-serif; font-size: 12px; fill: rgb(42, 63, 95); fill-opacity: 1; white-space: pre; opacity: 1;" transform="translate(614.07,0)">Apr 2023</text></g></g><g class="yaxislayer-above"><g class="ytick"><text text-anchor="end" x="79" y="4.199999999999999" transform="translate(0,420)" style="font-family: 'Open Sans', verdana, arial, sans-serif; font-size: 12px; fill: rgb(42, 63, 95); fill-opacity: 1; white-space: pre; opacity: 1;">$0</text></g><g class="ytick"><text text-anchor="end" x="79" y="4.199999999999999" style="font-family: 'Open Sans', verdana, arial, sans-serif; font-size: 12px; fill: rgb(42, 63, 95); fill-opacity: 1; white-space: pre; opacity: 1;" transform="translate(0,348.23)">$0.5M</text></g><g class="ytick"><text text-anchor="end" x="79" y="4.199999999999999" style="font-family: 'Open Sans', verdana, arial, sans-serif; font-size: 12px; fill: rgb(42, 63, 95); fill-opacity: 1; white-space: pre; opacity: 1;" transform="translate(0,276.47)">$1M</text></g><g class="ytick"><text text-anchor="end" x="79" y="4.199999999999999" style="font-family: 'Open Sans', verdana, arial, sans-serif; font-size: 12px; fill: rgb(42, 63, 95); fill-opacity: 1; white-space: pre; opacity: 1;" transform="translate(0,204.7)">$1.5M</text></g><g class="ytick"><text text-anchor="end" x="79" y="4.199999999999999" style="font-family: 'Open Sans', verdana, arial, sans-serif; font-size: 12px; fill: rgb(42, 63, 95); fill-opacity: 1; white-space: pre; opacity: 1;" transform="translate(0,132.94)">$2M</text></g></g><g class="overaxes-above"/></g></g><g class="polarlayer"/><g class="smithlayer"/><g class="ternarylayer"/><g class="geolayer"/><g class="funnelarealayer"/><g class="pielayer"/><g class="iciclelayer"/><g class="treemaplayer"/><g class="sunburstlayer"/><g class="glimages"/><defs id="topdefs-b28525"><g class="clips"/></defs><g class="layer-above"><g class="imagelayer"/><g class="shapelayer"/></g><g class="infolayer"><g class="g-gtitle"><text class="gtitle" x="35" y="50" text-anchor="start" dy="0em" style="font-family: 'Open Sans', verdana, arial, sans-serif; font-size: 17px; fill: rgb(42, 63, 95); opacity: 1; font-weight: normal; white-space: pre;"><tspan class="line" dy="0em" x="35" y="50">Beefy - BIFI/WETH: Velodrome</tspan><tspan class="line" dy="1.3em" x="35" y="50">​<tspan style="font-size:70%" dy="-0.6em">Cumulative Net Flows since Program Announcement, Until Program End + 30 Days</tspan><tspan dy="0.42em">​</tspan></tspan></text></g><g class="g-xtitle"><text class="xtitle" x="350" y="460.8" text-anchor="middle" style="font-family: 'Open Sans', verdana, arial, sans-serif; font-size: 14px; fill: rgb(42, 63, 95); opacity: 1; font-weight: normal; white-space: pre;">Day</text></g><g class="g-ytitle"><text class="ytitle" transform="rotate(-90,20.840625000000003,260)" x="20.840625000000003" y="260" text-anchor="middle" style="font-family: 'Open Sans', verdana, arial, sans-serif; font-size: 14px; fill: rgb(42, 63, 95); opacity: 1; font-weight: normal; white-space: pre;">Cumulative Net Flows (USD)</text></g></g></svg>