<svg class="main-svg" xmlns="http://www.w3.org/2000/svg" xmlns:xlink="http://www.w3.org/1999/xlink" width="700" height="500" style="" viewBox="0 0 700 500"><rect x="0" y="0" width="700" height="500" style="fill: rgb(255, 255, 255); fill-opacity: 1;"/><defs id="defs-976814"><g class="clips"><clipPath id="clip976814xyplot" class="plotclip"><rect width="540" height="320"/></clipPath><clipPath class="axesclip" id="clip976814x"><rect x="80" y="0" width="540" height="500"/></clipPath><clipPath class="axesclip" id="clip976814y"><rect x="0" y="100" width="700" height="320"/></clipPath><clipPath class="axesclip" id="clip976814xy"><rect x="80" y="100" width="540" height="320"/></clipPath></g><g class="gradients"/><g class="patterns"/></defs><g class="bglayer"><rect class="bg" x="80" y="100" width="540" height="320" style="fill: rgb(229, 236, 246); fill-opacity: 1; stroke-width: 0;"/></g><g class="layer-below"><g class="imagelayer"/><g class="shapelayer"/></g><g class="cartesianlayer"><g class="subplot xy"><g class="layer-subplot"><g class="shapelayer"/><g class="imagelayer"/></g><g class="minor-gridlayer"><g class="x"/><g class="y"/></g><g class="gridlayer"><g class="x"><path class="xgrid crisp" transform="translate(96.88,0)" d="M0,100v320" style="stroke: rgb(255, 255, 255); stroke-opacity: 1; stroke-width: 1px;"/><path class="xgrid crisp" transform="translate(227.66,0)" d="M0,100v320" style="stroke: rgb(255, 255, 255); stroke-opacity: 1; stroke-width: 1px;"/><path class="xgrid crisp" transform="translate(354.22,0)" d="M0,100v320" style="stroke: rgb(255, 255, 255); stroke-opacity: 1; stroke-width: 1px;"/><path class="xgrid crisp" transform="translate(485,0)" d="M0,100v320" style="stroke: rgb(255, 255, 255); stroke-opacity: 1; stroke-width: 1px;"/><path class="xgrid crisp" transform="translate(615.78,0)" d="M0,100v320" style="stroke: rgb(255, 255, 255); stroke-opacity: 1; stroke-width: 1px;"/></g><g class="y"><path class="ygrid crisp" transform="translate(0,334.11)" d="M80,0h540" style="stroke: rgb(255, 255, 255); stroke-opacity: 1; stroke-width: 1px;"/><path class="ygrid crisp" transform="translate(0,285.8)" d="M80,0h540" style="stroke: rgb(255, 255, 255); stroke-opacity: 1; stroke-width: 1px;"/><path class="ygrid crisp" transform="translate(0,237.49)" d="M80,0h540" style="stroke: rgb(255, 255, 255); stroke-opacity: 1; stroke-width: 1px;"/><path class="ygrid crisp" transform="translate(0,189.18)" d="M80,0h540" style="stroke: rgb(255, 255, 255); stroke-opacity: 1; stroke-width: 1px;"/><path class="ygrid crisp" transform="translate(0,140.87)" d="M80,0h540" style="stroke: rgb(255, 255, 255); stroke-opacity: 1; stroke-width: 1px;"/></g></g><g class="zerolinelayer"><path class="yzl zl crisp" transform="translate(0,382.42)" d="M80,0h540" style="stroke: rgb(255, 255, 255); stroke-opacity: 1; stroke-width: 2px;"/></g><path class="xlines-below"/><path class="ylines-below"/><g class="overlines-below"/><g class="xaxislayer-below"/><g class="yaxislayer-below"/><g class="overaxes-below"/><g class="plot" transform="translate(80,100)" clip-path="url(#clip976814xyplot)"><g class="scatterlayer mlayer"><g class="trace scatter trace4d6ac9" style="stroke-miterlimit: 2;"><g class="fills"><g><path class="js-fill" d="M540,282.42L0,282.42L0,296.68L4.22,296.7L8.44,295.04L12.66,294.39L16.88,292.65L25.31,292.91L29.53,289.43L33.75,276.98L37.97,277.44L42.19,288.77L46.41,276.7L50.63,278.34L54.84,278.41L63.28,278.82L67.5,272.4L71.72,257.31L75.94,255.07L80.16,255.08L84.38,259L88.59,234.63L92.81,234.33L97.03,234.03L101.25,240.89L105.47,241.72L109.69,237.08L113.91,238.3L118.13,241.29L122.34,255.82L126.56,247.46L130.78,234.42L135,231.11L139.22,232.5L143.44,231.61L147.66,229.11L151.88,230.45L168.75,229.95L172.97,227.91L177.19,264.3L181.41,267.89L185.63,301.9L189.84,297.63L198.28,300.43L202.5,304L206.72,274.31L210.94,270.63L215.16,283.56L219.38,279.67L223.59,277.2L227.81,278.44L232.03,281.63L236.25,282L240.47,286.08L244.69,284.69L248.91,281.56L253.13,266.15L257.34,264.97L261.56,281.09L265.78,282.34L270,280.11L274.22,258.15L278.44,251.48L282.66,251.32L286.88,252.73L291.09,246.79L295.31,244.42L299.53,231.43L303.75,230.7L307.97,223.37L312.19,244.26L316.41,171.27L320.63,208.89L324.84,209.99L329.06,224.98L333.28,271L337.5,270.73L341.72,289.9L345.94,292.67L350.16,291.17L354.38,272.23L358.59,272.06L362.81,277.13L367.03,278.17L371.25,277.94L379.69,279L383.91,279.86L388.13,282.96L392.34,283.22L396.56,283.33L400.78,282.5L413.44,282.35L417.66,284.09L421.88,283.39L426.09,290.12L430.31,282.22L434.53,281.64L438.75,271.47L442.97,268.85L447.19,268.45L451.41,264.85L455.63,260.28L459.84,258.48L464.06,259.46L468.28,259.16L472.5,250.53L476.72,249.04L485.16,211.28L489.38,203.61L493.59,215.58L497.81,188.94L502.03,160.77L506.25,151.32L514.69,88.88L518.91,76.41L523.13,76.4L527.34,67.81L531.56,37.78L535.78,29.36L540,16" style="fill: rgb(99, 110, 250); fill-opacity: 0.5; stroke-width: 0;"/></g></g><g class="errorbars"/><g class="lines"><path class="js-line" d="M0,296.68L4.22,296.7L8.44,295.04L12.66,294.39L16.88,292.65L25.31,292.91L29.53,289.43L33.75,276.98L37.97,277.44L42.19,288.77L46.41,276.7L50.63,278.34L54.84,278.41L63.28,278.82L67.5,272.4L71.72,257.31L75.94,255.07L80.16,255.08L84.38,259L88.59,234.63L92.81,234.33L97.03,234.03L101.25,240.89L105.47,241.72L109.69,237.08L113.91,238.3L118.13,241.29L122.34,255.82L126.56,247.46L130.78,234.42L135,231.11L139.22,232.5L143.44,231.61L147.66,229.11L151.88,230.45L168.75,229.95L172.97,227.91L177.19,264.3L181.41,267.89L185.63,301.9L189.84,297.63L198.28,300.43L202.5,304L206.72,274.31L210.94,270.63L215.16,283.56L219.38,279.67L223.59,277.2L227.81,278.44L232.03,281.63L236.25,282L240.47,286.08L244.69,284.69L248.91,281.56L253.13,266.15L257.34,264.97L261.56,281.09L265.78,282.34L270,280.11L274.22,258.15L278.44,251.48L282.66,251.32L286.88,252.73L291.09,246.79L295.31,244.42L299.53,231.43L303.75,230.7L307.97,223.37L312.19,244.26L316.41,171.27L320.63,208.89L324.84,209.99L329.06,224.98L333.28,271L337.5,270.73L341.72,289.9L345.94,292.67L350.16,291.17L354.38,272.23L358.59,272.06L362.81,277.13L367.03,278.17L371.25,277.94L379.69,279L383.91,279.86L388.13,282.96L392.34,283.22L396.56,283.33L400.78,282.5L413.44,282.35L417.66,284.09L421.88,283.39L426.09,290.12L430.31,282.22L434.53,281.64L438.75,271.47L442.97,268.85L447.19,268.45L451.41,264.85L455.63,260.28L459.84,258.48L464.06,259.46L468.28,259.16L472.5,250.53L476.72,249.04L485.16,211.28L489.38,203.61L493.59,215.58L497.81,188.94L502.03,160.77L506.25,151.32L514.69,88.88L518.91,76.41L523.13,76.4L527.34,67.81L531.56,37.78L535.78,29.36L540,16" style="vector-effect: non-scaling-stroke; fill: none; stroke: rgb(99, 110, 250); stroke-opacity: 1; stroke-width: 2px; opacity: 1;"/></g><g class="points"/><g class="text"/></g></g></g><g class="overplot"/><path class="xlines-above crisp" d="M0,0" style="fill: none;"/><path class="ylines-above crisp" d="M0,0" style="fill: none;"/><g class="overlines-above"/><g class="xaxislayer-above"><g class="xtick"><text text-anchor="middle" x="0" y="433" transform="translate(96.88,0)" style="font-family: 'Open Sans', verdana, arial, sans-serif; font-size: 12px; fill: rgb(42, 63, 95); fill-opacity: 1; white-space: pre; opacity: 1;">Oct 2022</text></g><g class="xtick"><text text-anchor="middle" x="0" y="433" style="font-family: 'Open Sans', verdana, arial, sans-serif; font-size: 12px; fill: rgb(42, 63, 95); fill-opacity: 1; white-space: pre; opacity: 1;" transform="translate(227.66,0)">Nov 2022</text></g><g class="xtick"><text text-anchor="middle" x="0" y="433" style="font-family: 'Open Sans', verdana, arial, sans-serif; font-size: 12px; fill: rgb(42, 63, 95); fill-opacity: 1; white-space: pre; opacity: 1;" transform="translate(354.22,0)">Dec 2022</text></g><g class="xtick"><text text-anchor="middle" x="0" y="433" style="font-family: 'Open Sans', verdana, arial, sans-serif; font-size: 12px; fill: rgb(42, 63, 95); fill-opacity: 1; white-space: pre; opacity: 1;" transform="translate(485,0)">Jan 2023</text></g><g class="xtick"><text text-anchor="middle" x="0" y="433" style="font-family: 'Open Sans', verdana, arial, sans-serif; font-size: 12px; fill: rgb(42, 63, 95); fill-opacity: 1; white-space: pre; opacity: 1;" transform="translate(615.78,0)">Feb 2023</text></g></g><g class="yaxislayer-above"><g class="ytick"><text text-anchor="end" x="79" y="4.199999999999999" transform="translate(0,382.42)" style="font-family: 'Open Sans', verdana, arial, sans-serif; font-size: 12px; fill: rgb(42, 63, 95); fill-opacity: 1; white-space: pre; opacity: 1;">$0</text></g><g class="ytick"><text text-anchor="end" x="79" y="4.199999999999999" style="font-family: 'Open Sans', verdana, arial, sans-serif; font-size: 12px; fill: rgb(42, 63, 95); fill-opacity: 1; white-space: pre; opacity: 1;" transform="translate(0,334.11)">$2M</text></g><g class="ytick"><text text-anchor="end" x="79" y="4.199999999999999" style="font-family: 'Open Sans', verdana, arial, sans-serif; font-size: 12px; fill: rgb(42, 63, 95); fill-opacity: 1; white-space: pre; opacity: 1;" transform="translate(0,285.8)">$4M</text></g><g class="ytick"><text text-anchor="end" x="79" y="4.199999999999999" style="font-family: 'Open Sans', verdana, arial, sans-serif; font-size: 12px; fill: rgb(42, 63, 95); fill-opacity: 1; white-space: pre; opacity: 1;" transform="translate(0,237.49)">$6M</text></g><g class="ytick"><text text-anchor="end" x="79" y="4.199999999999999" style="font-family: 'Open Sans', verdana, arial, sans-serif; font-size: 12px; fill: rgb(42, 63, 95); fill-opacity: 1; white-space: pre; opacity: 1;" transform="translate(0,189.18)">$8M</text></g><g class="ytick"><text text-anchor="end" x="79" y="4.199999999999999" style="font-family: 'Open Sans', verdana, arial, sans-serif; font-size: 12px; fill: rgb(42, 63, 95); fill-opacity: 1; white-space: pre; opacity: 1;" transform="translate(0,140.87)">$10M</text></g></g><g class="overaxes-above"/></g></g><g class="polarlayer"/><g class="smithlayer"/><g class="ternarylayer"/><g class="geolayer"/><g class="funnelarealayer"/><g class="pielayer"/><g class="iciclelayer"/><g class="treemaplayer"/><g class="sunburstlayer"/><g class="glimages"/><defs id="topdefs-976814"><g class="clips"/></defs><g class="layer-above"><g class="imagelayer"/><g class="shapelayer"/></g><g class="infolayer"><g class="g-gtitle"><text class="gtitle" x="35" y="50" text-anchor="start" dy="0em" style="font-family: 'Open Sans', verdana, arial, sans-serif; font-size: 17px; fill: rgb(42, 63, 95); opacity: 1; font-weight: normal; white-space: pre;"><tspan class="line" dy="0em" x="35" y="50">Synthetix - USDC/sUSD: Velo</tspan><tspan class="line" dy="1.3em" x="35" y="50">​<tspan style="font-size:70%" dy="-0.6em">Cumulative Net Dollar Flow since Program Announcement, Until Program End + 30 Days</tspan><tspan dy="0.42em">​</tspan></tspan></text></g><g class="g-xtitle"><text class="xtitle" x="350" y="460.8" text-anchor="middle" style="font-family: 'Open Sans', verdana, arial, sans-serif; font-size: 14px; fill: rgb(42, 63, 95); opacity: 1; font-weight: normal; white-space: pre;">Day</text></g><g class="g-ytitle"><text class="ytitle" transform="rotate(-90,24.168750000000003,260)" x="24.168750000000003" y="260" text-anchor="middle" style="font-family: 'Open Sans', verdana, arial, sans-serif; font-size: 14px; fill: rgb(42, 63, 95); opacity: 1; font-weight: normal; white-space: pre;">Cumulative Net Dollar Flow (N$F)</text></g></g></svg>