<svg class="main-svg" xmlns="http://www.w3.org/2000/svg" xmlns:xlink="http://www.w3.org/1999/xlink" width="700" height="500" style="" viewBox="0 0 700 500"><rect x="0" y="0" width="700" height="500" style="fill: rgb(255, 255, 255); fill-opacity: 1;"/><defs id="defs-e443c6"><g class="clips"><clipPath id="clipe443c6xyplot" class="plotclip"><rect width="469" height="320"/></clipPath><clipPath class="axesclip" id="clipe443c6x"><rect x="80" y="0" width="469" height="500"/></clipPath><clipPath class="axesclip" id="clipe443c6y"><rect x="0" y="100" width="700" height="320"/></clipPath><clipPath class="axesclip" id="clipe443c6xy"><rect x="80" y="100" width="469" height="320"/></clipPath></g><g class="gradients"/><g class="patterns"/></defs><g class="bglayer"><rect class="bg" x="80" y="100" width="469" height="320" style="fill: rgb(229, 236, 246); fill-opacity: 1; stroke-width: 0;"/></g><g class="layer-below"><g class="imagelayer"/><g class="shapelayer"/></g><g class="cartesianlayer"><g class="subplot xy"><g class="layer-subplot"><g class="shapelayer"/><g class="imagelayer"/></g><g class="minor-gridlayer"><g class="x"/><g class="y"/></g><g class="gridlayer"><g class="x"><path class="xgrid crisp" transform="translate(186.57999999999998,0)" d="M0,100v320" style="stroke: rgb(255, 255, 255); stroke-opacity: 1; stroke-width: 1px;"/><path class="xgrid crisp" transform="translate(300.78,0)" d="M0,100v320" style="stroke: rgb(255, 255, 255); stroke-opacity: 1; stroke-width: 1px;"/><path class="xgrid crisp" transform="translate(418.78,0)" d="M0,100v320" style="stroke: rgb(255, 255, 255); stroke-opacity: 1; stroke-width: 1px;"/><path class="xgrid crisp" transform="translate(532.98,0)" d="M0,100v320" style="stroke: rgb(255, 255, 255); stroke-opacity: 1; stroke-width: 1px;"/></g><g class="y"><path class="ygrid crisp" transform="translate(0,364.88)" d="M80,0h469" style="stroke: rgb(255, 255, 255); stroke-opacity: 1; stroke-width: 1px;"/><path class="ygrid crisp" transform="translate(0,309.77)" d="M80,0h469" style="stroke: rgb(255, 255, 255); stroke-opacity: 1; stroke-width: 1px;"/><path class="ygrid crisp" transform="translate(0,254.65)" d="M80,0h469" style="stroke: rgb(255, 255, 255); stroke-opacity: 1; stroke-width: 1px;"/><path class="ygrid crisp" transform="translate(0,199.53)" d="M80,0h469" style="stroke: rgb(255, 255, 255); stroke-opacity: 1; stroke-width: 1px;"/><path class="ygrid crisp" transform="translate(0,144.42000000000002)" d="M80,0h469" style="stroke: rgb(255, 255, 255); stroke-opacity: 1; stroke-width: 1px;"/></g></g><g class="zerolinelayer"><path class="yzl zl crisp" transform="translate(0,420)" d="M80,0h469" style="stroke: rgb(255, 255, 255); stroke-opacity: 1; stroke-width: 2px;"/></g><path class="xlines-below"/><path class="ylines-below"/><g class="overlines-below"/><g class="xaxislayer-below"/><g class="yaxislayer-below"/><g class="overaxes-below"/><g class="plot" transform="translate(80,100)" clip-path="url(#clipe443c6xyplot)"><g class="scatterlayer mlayer"><g class="trace scatter trace2d411e" style="stroke-miterlimit: 2;"><g class="fills"><g><path class="js-fill" d="M350.2,320L0,320L0,319.5L3.81,187.67L7.61,95.04L11.42,59.4L15.23,37.56L19.03,40.9L22.84,32.84L26.65,16.5L30.45,16L34.26,16.71L38.07,36.52L41.87,44.59L45.68,44.5L53.29,52.41L57.1,111.43L64.71,113.52L68.52,112.65L72.32,120.72L76.13,115.83L79.94,113.72L83.74,106.29L87.55,107.51L91.36,103.86L95.16,107.89L98.97,109.93L102.78,97L106.58,94.74L110.39,94.2L114.2,94.83L118,96L121.81,95.76L129.42,116.8L133.23,118.17L137.04,125.69L140.84,117.78L148.46,116.13L152.26,113.41L156.07,113.83L159.88,120.96L167.49,111.56L171.3,109.23L175.1,109.93L178.91,106.13L186.52,104.67L190.33,102.25L194.14,102.06L197.94,100.43L201.75,104.17L205.55,102.5L209.36,100.49L213.17,86.88L216.97,81.09L220.78,82.12L224.59,82.07L228.39,80.73L232.2,76.23L236.01,74.8L239.81,77.1L243.62,77.89L247.43,78.91L251.23,75.76L255.04,79.59L258.85,81.7L262.65,82.07L266.46,84.93L270.27,86.34L274.07,83.57L277.88,83.83L281.69,85.17L285.49,106.5L289.3,103.3L293.11,100.08L296.91,99.65L304.53,98.93L308.33,100.87L312.14,100.64L315.95,101.25L319.75,101.14L323.56,85.64L327.36,85.53L331.17,79.19L334.98,82.22L338.78,101.32L342.59,110.01L346.4,139.31L350.2,173.11" style="fill: rgb(99, 110, 250); fill-opacity: 0.5; stroke-width: 0;"/></g></g><g class="errorbars"/><g class="lines"><path class="js-line" d="M0,319.5L3.81,187.67L7.61,95.04L11.42,59.4L15.23,37.56L19.03,40.9L22.84,32.84L26.65,16.5L30.45,16L34.26,16.71L38.07,36.52L41.87,44.59L45.68,44.5L53.29,52.41L57.1,111.43L64.71,113.52L68.52,112.65L72.32,120.72L76.13,115.83L79.94,113.72L83.74,106.29L87.55,107.51L91.36,103.86L95.16,107.89L98.97,109.93L102.78,97L106.58,94.74L110.39,94.2L114.2,94.83L118,96L121.81,95.76L129.42,116.8L133.23,118.17L137.04,125.69L140.84,117.78L148.46,116.13L152.26,113.41L156.07,113.83L159.88,120.96L167.49,111.56L171.3,109.23L175.1,109.93L178.91,106.13L186.52,104.67L190.33,102.25L194.14,102.06L197.94,100.43L201.75,104.17L205.55,102.5L209.36,100.49L213.17,86.88L216.97,81.09L220.78,82.12L224.59,82.07L228.39,80.73L232.2,76.23L236.01,74.8L239.81,77.1L243.62,77.89L247.43,78.91L251.23,75.76L255.04,79.59L258.85,81.7L262.65,82.07L266.46,84.93L270.27,86.34L274.07,83.57L277.88,83.83L281.69,85.17L285.49,106.5L289.3,103.3L293.11,100.08L296.91,99.65L304.53,98.93L308.33,100.87L312.14,100.64L315.95,101.25L319.75,101.14L323.56,85.64L327.36,85.53L331.17,79.19L334.98,82.22L338.78,101.32L342.59,110.01L346.4,139.31L350.2,173.11" style="vector-effect: non-scaling-stroke; fill: none; stroke: rgb(99, 110, 250); stroke-opacity: 1; stroke-width: 2px; opacity: 1;"/></g><g class="points"/><g class="text"/></g><g class="trace scatter trace263270" style="stroke-miterlimit: 2;"><g class="fills"><g><path class="js-fill" d="M469,320L354.01,320L354.01,182.37L361.62,192.44L365.43,188.96L369.24,169.66L373.04,181.16L376.85,189.49L380.66,190.28L388.27,191.04L392.08,219.68L395.88,221.09L399.69,223.48L403.5,229.56L407.3,229.58L411.11,229.69L414.92,228.98L418.72,229.41L422.53,239.26L430.14,241.23L433.95,250.96L437.76,251.42L441.56,253.91L445.37,254.06L449.18,255.09L452.98,254.96L456.79,253.95L464.4,254.47L468.21,253.88L469,253.79" style="fill: rgb(239, 85, 59); fill-opacity: 0.5; stroke-width: 0;"/></g></g><g class="errorbars"/><g class="lines"><path class="js-line" d="M354.01,182.37L361.62,192.44L365.43,188.96L369.24,169.66L373.04,181.16L376.85,189.49L380.66,190.28L388.27,191.04L392.08,219.68L395.88,221.09L399.69,223.48L403.5,229.56L407.3,229.58L411.11,229.69L414.92,228.98L418.72,229.41L422.53,239.26L430.14,241.23L433.95,250.96L437.76,251.42L441.56,253.91L445.37,254.06L449.18,255.09L452.98,254.96L456.79,253.95L464.4,254.47L468.21,253.88L469,253.79" style="vector-effect: non-scaling-stroke; fill: none; stroke: rgb(239, 85, 59); stroke-opacity: 1; stroke-width: 2px; opacity: 1;"/></g><g class="points"/><g class="text"/></g></g></g><g class="overplot"/><path class="xlines-above crisp" d="M0,0" style="fill: none;"/><path class="ylines-above crisp" d="M0,0" style="fill: none;"/><g class="overlines-above"/><g class="xaxislayer-above"><g class="xtick"><text text-anchor="middle" x="0" y="433" transform="translate(186.57999999999998,0)" style="font-family: 'Open Sans', verdana, arial, sans-serif; font-size: 12px; fill: rgb(42, 63, 95); fill-opacity: 1; white-space: pre; opacity: 1;">Sep 2022</text></g><g class="xtick"><text text-anchor="middle" x="0" y="433" style="font-family: 'Open Sans', verdana, arial, sans-serif; font-size: 12px; fill: rgb(42, 63, 95); fill-opacity: 1; white-space: pre; opacity: 1;" transform="translate(300.78,0)">Oct 2022</text></g><g class="xtick"><text text-anchor="middle" x="0" y="433" style="font-family: 'Open Sans', verdana, arial, sans-serif; font-size: 12px; fill: rgb(42, 63, 95); fill-opacity: 1; white-space: pre; opacity: 1;" transform="translate(418.78,0)">Nov 2022</text></g><g class="xtick"><text text-anchor="middle" x="0" y="433" style="font-family: 'Open Sans', verdana, arial, sans-serif; font-size: 12px; fill: rgb(42, 63, 95); fill-opacity: 1; white-space: pre; opacity: 1;" transform="translate(532.98,0)">Dec 2022</text></g></g><g class="yaxislayer-above"><g class="ytick"><text text-anchor="end" x="79" y="4.199999999999999" transform="translate(0,420)" style="font-family: 'Open Sans', verdana, arial, sans-serif; font-size: 12px; fill: rgb(42, 63, 95); fill-opacity: 1; white-space: pre; opacity: 1;">$0</text></g><g class="ytick"><text text-anchor="end" x="79" y="4.199999999999999" style="font-family: 'Open Sans', verdana, arial, sans-serif; font-size: 12px; fill: rgb(42, 63, 95); fill-opacity: 1; white-space: pre; opacity: 1;" transform="translate(0,364.88)">$100M</text></g><g class="ytick"><text text-anchor="end" x="79" y="4.199999999999999" style="font-family: 'Open Sans', verdana, arial, sans-serif; font-size: 12px; fill: rgb(42, 63, 95); fill-opacity: 1; white-space: pre; opacity: 1;" transform="translate(0,309.77)">$200M</text></g><g class="ytick"><text text-anchor="end" x="79" y="4.199999999999999" style="font-family: 'Open Sans', verdana, arial, sans-serif; font-size: 12px; fill: rgb(42, 63, 95); fill-opacity: 1; white-space: pre; opacity: 1;" transform="translate(0,254.65)">$300M</text></g><g class="ytick"><text text-anchor="end" x="79" y="4.199999999999999" style="font-family: 'Open Sans', verdana, arial, sans-serif; font-size: 12px; fill: rgb(42, 63, 95); fill-opacity: 1; white-space: pre; opacity: 1;" transform="translate(0,199.53)">$400M</text></g><g class="ytick"><text text-anchor="end" x="79" y="4.199999999999999" style="font-family: 'Open Sans', verdana, arial, sans-serif; font-size: 12px; fill: rgb(42, 63, 95); fill-opacity: 1; white-space: pre; opacity: 1;" transform="translate(0,144.42000000000002)">$500M</text></g></g><g class="overaxes-above"/></g></g><g class="polarlayer"/><g class="smithlayer"/><g class="ternarylayer"/><g class="geolayer"/><g class="funnelarealayer"/><g class="pielayer"/><g class="iciclelayer"/><g class="treemaplayer"/><g class="sunburstlayer"/><g class="glimages"/><defs id="topdefs-e443c6"><g class="clips"/><clipPath id="legende443c6"><rect width="130" height="67" x="0" y="0"/></clipPath></defs><g class="layer-above"><g class="imagelayer"/><g class="shapelayer"/></g><g class="infolayer"><g class="legend" pointer-events="all" transform="translate(558.38,100)"><rect class="bg" shape-rendering="crispEdges" width="130" height="67" x="0" y="0" style="stroke: rgb(68, 68, 68); stroke-opacity: 1; fill: rgb(255, 255, 255); fill-opacity: 1; stroke-width: 0px;"/><g class="scrollbox" transform="" clip-path="url(#legende443c6)"><text class="legendtitletext" text-anchor="start" x="2" y="18.2" style="font-family: 'Open Sans', verdana, arial, sans-serif; font-size: 14px; fill: rgb(42, 63, 95); fill-opacity: 1; white-space: pre;">Period</text><g class="groups"><g class="traces" transform="translate(0,32.7)" style="opacity: 1;"><text class="legendtext" text-anchor="start" x="40" y="4.680000000000001" style="font-family: 'Open Sans', verdana, arial, sans-serif; font-size: 12px; fill: rgb(42, 63, 95); fill-opacity: 1; white-space: pre;">During Program</text><g class="layers"><g class="legendfill"><path class="js-fill" d="M5,-2h30v6h-30z" style="stroke-width: 0; fill: rgb(99, 110, 250); fill-opacity: 0.5;"/></g><g class="legendlines"><path class="js-line" d="M5,-2h30" style="fill: none; stroke: rgb(99, 110, 250); stroke-opacity: 1; stroke-width: 2px;"/></g><g class="legendsymbols"><g class="legendpoints"/></g></g><rect class="legendtoggle" x="0" y="-9.5" width="124.703125" height="19" style="fill: rgb(0, 0, 0); fill-opacity: 0;"/></g><g class="traces" transform="translate(0,51.7)" style="opacity: 1;"><text class="legendtext" text-anchor="start" x="40" y="4.680000000000001" style="font-family: 'Open Sans', verdana, arial, sans-serif; font-size: 12px; fill: rgb(42, 63, 95); fill-opacity: 1; white-space: pre;">Post-Program</text><g class="layers"><g class="legendfill"><path class="js-fill" d="M5,-2h30v6h-30z" style="stroke-width: 0; fill: rgb(239, 85, 59); fill-opacity: 0.5;"/></g><g class="legendlines"><path class="js-line" d="M5,-2h30" style="fill: none; stroke: rgb(239, 85, 59); stroke-opacity: 1; stroke-width: 2px;"/></g><g class="legendsymbols"><g class="legendpoints"/></g></g><rect class="legendtoggle" x="0" y="-9.5" width="124.703125" height="19" style="fill: rgb(0, 0, 0); fill-opacity: 0;"/></g></g></g><rect class="scrollbar" rx="20" ry="3" width="0" height="0" x="0" y="0" style="fill: rgb(128, 139, 164); fill-opacity: 1;"/></g><g class="g-gtitle"><text class="gtitle" x="35" y="50" text-anchor="start" dy="0em" style="font-family: 'Open Sans', verdana, arial, sans-serif; font-size: 17px; fill: rgb(42, 63, 95); opacity: 1; font-weight: normal; white-space: pre;">Aave V3 - Aave - Liquidity Mining: Cumulative Net Dollar Flow since Program Announcement</text></g><g class="g-xtitle"><text class="xtitle" x="314.5" y="460.8" text-anchor="middle" style="font-family: 'Open Sans', verdana, arial, sans-serif; font-size: 14px; fill: rgb(42, 63, 95); opacity: 1; font-weight: normal; white-space: pre;">Day</text></g><g class="g-ytitle"><text class="ytitle" transform="rotate(-90,17.496875000000003,260)" x="17.496875000000003" y="260" text-anchor="middle" style="font-family: 'Open Sans', verdana, arial, sans-serif; font-size: 14px; fill: rgb(42, 63, 95); opacity: 1; font-weight: normal; white-space: pre;">Cumulative Net Dollar Flow (N$F)</text></g></g></svg>