<svg class="main-svg" xmlns="http://www.w3.org/2000/svg" xmlns:xlink="http://www.w3.org/1999/xlink" width="700" height="500" style="" viewBox="0 0 700 500"><rect x="0" y="0" width="700" height="500" style="fill: rgb(255, 255, 255); fill-opacity: 1;"/><defs id="defs-542f2a"><g class="clips"><clipPath id="clip542f2axyplot" class="plotclip"><rect width="540" height="320"/></clipPath><clipPath class="axesclip" id="clip542f2ax"><rect x="80" y="0" width="540" height="500"/></clipPath><clipPath class="axesclip" id="clip542f2ay"><rect x="0" y="100" width="700" height="320"/></clipPath><clipPath class="axesclip" id="clip542f2axy"><rect x="80" y="100" width="540" height="320"/></clipPath></g><g class="gradients"/><g class="patterns"/></defs><g class="bglayer"><rect class="bg" x="80" y="100" width="540" height="320" style="fill: rgb(229, 236, 246); fill-opacity: 1; stroke-width: 0;"/></g><g class="layer-below"><g class="imagelayer"/><g class="shapelayer"/></g><g class="cartesianlayer"><g class="subplot xy"><g class="layer-subplot"><g class="shapelayer"/><g class="imagelayer"/></g><g class="minor-gridlayer"><g class="x"/><g class="y"/></g><g class="gridlayer"><g class="x"><path class="xgrid crisp" transform="translate(98,0)" d="M0,100v320" style="stroke: rgb(255, 255, 255); stroke-opacity: 1; stroke-width: 1px;"/><path class="xgrid crisp" transform="translate(175.14,0)" d="M0,100v320" style="stroke: rgb(255, 255, 255); stroke-opacity: 1; stroke-width: 1px;"/><path class="xgrid crisp" transform="translate(254.86,0)" d="M0,100v320" style="stroke: rgb(255, 255, 255); stroke-opacity: 1; stroke-width: 1px;"/><path class="xgrid crisp" transform="translate(332,0)" d="M0,100v320" style="stroke: rgb(255, 255, 255); stroke-opacity: 1; stroke-width: 1px;"/><path class="xgrid crisp" transform="translate(411.71,0)" d="M0,100v320" style="stroke: rgb(255, 255, 255); stroke-opacity: 1; stroke-width: 1px;"/><path class="xgrid crisp" transform="translate(491.43,0)" d="M0,100v320" style="stroke: rgb(255, 255, 255); stroke-opacity: 1; stroke-width: 1px;"/><path class="xgrid crisp" transform="translate(563.4300000000001,0)" d="M0,100v320" style="stroke: rgb(255, 255, 255); stroke-opacity: 1; stroke-width: 1px;"/></g><g class="y"><path class="ygrid crisp" transform="translate(0,367.29)" d="M80,0h540" style="stroke: rgb(255, 255, 255); stroke-opacity: 1; stroke-width: 1px;"/><path class="ygrid crisp" transform="translate(0,314.57)" d="M80,0h540" style="stroke: rgb(255, 255, 255); stroke-opacity: 1; stroke-width: 1px;"/><path class="ygrid crisp" transform="translate(0,261.86)" d="M80,0h540" style="stroke: rgb(255, 255, 255); stroke-opacity: 1; stroke-width: 1px;"/><path class="ygrid crisp" transform="translate(0,209.15)" d="M80,0h540" style="stroke: rgb(255, 255, 255); stroke-opacity: 1; stroke-width: 1px;"/><path class="ygrid crisp" transform="translate(0,156.44)" d="M80,0h540" style="stroke: rgb(255, 255, 255); stroke-opacity: 1; stroke-width: 1px;"/><path class="ygrid crisp" transform="translate(0,103.72)" d="M80,0h540" style="stroke: rgb(255, 255, 255); stroke-opacity: 1; stroke-width: 1px;"/></g></g><g class="zerolinelayer"><path class="yzl zl crisp" transform="translate(0,420)" d="M80,0h540" style="stroke: rgb(255, 255, 255); stroke-opacity: 1; stroke-width: 2px;"/></g><path class="xlines-below"/><path class="ylines-below"/><g class="overlines-below"/><g class="xaxislayer-below"/><g class="yaxislayer-below"/><g class="overaxes-below"/><g class="plot" transform="translate(80,100)" clip-path="url(#clip542f2axyplot)"><g class="scatterlayer mlayer"><g class="trace scatter trace9b0dae" style="stroke-miterlimit: 2;"><g class="fills"><g><path class="js-fill" d="M540,320L0,320L0,318.9L2.57,271.92L5.14,263.81L7.71,260.28L10.29,260.21L12.86,252.96L15.43,250L18,248.39L20.57,250.36L23.14,243.63L25.71,240.98L28.29,237.19L30.86,247.36L33.43,244.55L36,247.34L38.57,236.35L41.14,231.35L43.71,228.32L46.29,227.39L51.43,234.54L54,236.03L56.57,222.1L59.14,212.93L61.71,211.4L64.29,208.74L66.86,214.81L69.43,214.62L72,211.57L74.57,211.24L79.71,212.43L82.29,210.59L84.86,209.89L87.43,177.83L90,180.11L92.57,186.84L95.14,185.44L97.71,185.34L105.43,189.34L108,197.42L110.57,193.34L113.14,202.76L115.71,202.75L118.29,204.07L120.86,208.07L123.43,205L128.57,204.22L131.14,201.58L136.29,201.14L138.86,199.18L141.43,200.81L144,200.56L156.86,200.9L159.43,199.08L162,199.93L164.57,213.56L167.14,211.06L169.71,197.57L182.57,197.75L185.14,198.14L187.71,199.15L190.29,197.09L192.86,196.9L195.43,234.38L198,239.07L200.57,224.91L203.14,218.27L205.71,225.13L208.29,213.95L210.86,212.5L213.43,211.45L216,213.53L218.57,218.29L221.14,217.16L223.71,216.07L226.29,218.02L228.86,218.59L231.43,218.19L234,211.61L236.57,212.11L239.14,210.96L241.71,210.8L252,210.56L254.57,207.77L257.14,207.85L259.71,203.39L262.29,202.82L264.86,196.94L267.43,182.4L270,175.94L272.57,176.45L275.14,174.4L277.71,174.28L280.29,172.66L282.86,168.51L285.43,167.69L288,162.58L290.57,159.23L293.14,163.42L295.71,163.42L298.29,163.49L300.86,167.04L303.43,181.97L306,182.43L308.57,182.95L311.14,182.01L318.86,182.06L321.43,188.28L324,188.16L326.57,184.46L329.14,169.31L331.71,166.17L334.29,171.11L336.86,171.03L339.43,177.12L342,177.73L344.57,174.46L347.14,174.49L349.71,178.37L352.29,176.07L357.43,149.73L360,148.02L362.57,153.94L365.14,149.49L367.71,148.05L370.29,150.28L375.43,149.29L378,152.9L380.57,147.76L383.14,136.36L385.71,132.79L388.29,131.85L390.86,129.67L393.43,103.38L396,48.93L398.57,44.68L401.14,47.55L403.71,35.97L406.29,35.02L408.86,18.43L411.43,17.96L414,16L416.57,21.23L419.14,33.62L421.71,38.7L424.29,38.68L426.86,48.78L429.43,67.17L432,69.83L434.57,70.28L437.14,69.97L439.71,45.58L442.29,48.05L444.86,45.35L447.43,45.68L450,43.05L452.57,49.14L455.14,60.35L457.71,60.63L460.29,61.76L462.86,78.27L465.43,79.1L468,79.99L470.57,78.98L473.14,76.47L475.71,71.32L478.29,70.07L480.86,69.96L483.43,70.06L486,69.36L488.57,71.01L491.14,70.71L493.71,70.61L496.29,66.8L498.86,68.36L501.43,65.83L504,60.78L506.57,61.31L509.14,59.12L511.71,75.14L514.29,71.86L516.86,70.23L519.43,60.36L522,57.86L524.57,61.17L527.14,66.73L532.29,72.65L534.86,72.89L537.43,71.18L540,71.77" style="fill: rgb(99, 110, 250); fill-opacity: 0.5; stroke-width: 0;"/></g></g><g class="errorbars"/><g class="lines"><path class="js-line" d="M0,318.9L2.57,271.92L5.14,263.81L7.71,260.28L10.29,260.21L12.86,252.96L15.43,250L18,248.39L20.57,250.36L23.14,243.63L25.71,240.98L28.29,237.19L30.86,247.36L33.43,244.55L36,247.34L38.57,236.35L41.14,231.35L43.71,228.32L46.29,227.39L51.43,234.54L54,236.03L56.57,222.1L59.14,212.93L61.71,211.4L64.29,208.74L66.86,214.81L69.43,214.62L72,211.57L74.57,211.24L79.71,212.43L82.29,210.59L84.86,209.89L87.43,177.83L90,180.11L92.57,186.84L95.14,185.44L97.71,185.34L105.43,189.34L108,197.42L110.57,193.34L113.14,202.76L115.71,202.75L118.29,204.07L120.86,208.07L123.43,205L128.57,204.22L131.14,201.58L136.29,201.14L138.86,199.18L141.43,200.81L144,200.56L156.86,200.9L159.43,199.08L162,199.93L164.57,213.56L167.14,211.06L169.71,197.57L182.57,197.75L185.14,198.14L187.71,199.15L190.29,197.09L192.86,196.9L195.43,234.38L198,239.07L200.57,224.91L203.14,218.27L205.71,225.13L208.29,213.95L210.86,212.5L213.43,211.45L216,213.53L218.57,218.29L221.14,217.16L223.71,216.07L226.29,218.02L228.86,218.59L231.43,218.19L234,211.61L236.57,212.11L239.14,210.96L241.71,210.8L252,210.56L254.57,207.77L257.14,207.85L259.71,203.39L262.29,202.82L264.86,196.94L267.43,182.4L270,175.94L272.57,176.45L275.14,174.4L277.71,174.28L280.29,172.66L282.86,168.51L285.43,167.69L288,162.58L290.57,159.23L293.14,163.42L295.71,163.42L298.29,163.49L300.86,167.04L303.43,181.97L306,182.43L308.57,182.95L311.14,182.01L318.86,182.06L321.43,188.28L324,188.16L326.57,184.46L329.14,169.31L331.71,166.17L334.29,171.11L336.86,171.03L339.43,177.12L342,177.73L344.57,174.46L347.14,174.49L349.71,178.37L352.29,176.07L357.43,149.73L360,148.02L362.57,153.94L365.14,149.49L367.71,148.05L370.29,150.28L375.43,149.29L378,152.9L380.57,147.76L383.14,136.36L385.71,132.79L388.29,131.85L390.86,129.67L393.43,103.38L396,48.93L398.57,44.68L401.14,47.55L403.71,35.97L406.29,35.02L408.86,18.43L411.43,17.96L414,16L416.57,21.23L419.14,33.62L421.71,38.7L424.29,38.68L426.86,48.78L429.43,67.17L432,69.83L434.57,70.28L437.14,69.97L439.71,45.58L442.29,48.05L444.86,45.35L447.43,45.68L450,43.05L452.57,49.14L455.14,60.35L457.71,60.63L460.29,61.76L462.86,78.27L465.43,79.1L468,79.99L470.57,78.98L473.14,76.47L475.71,71.32L478.29,70.07L480.86,69.96L483.43,70.06L486,69.36L488.57,71.01L491.14,70.71L493.71,70.61L496.29,66.8L498.86,68.36L501.43,65.83L504,60.78L506.57,61.31L509.14,59.12L511.71,75.14L514.29,71.86L516.86,70.23L519.43,60.36L522,57.86L524.57,61.17L527.14,66.73L532.29,72.65L534.86,72.89L537.43,71.18L540,71.77" style="vector-effect: non-scaling-stroke; fill: none; stroke: rgb(99, 110, 250); stroke-opacity: 1; stroke-width: 2px; opacity: 1;"/></g><g class="points"/><g class="text"/></g></g></g><g class="overplot"/><path class="xlines-above crisp" d="M0,0" style="fill: none;"/><path class="ylines-above crisp" d="M0,0" style="fill: none;"/><g class="overlines-above"/><g class="xaxislayer-above"><g class="xtick"><text text-anchor="middle" x="0" y="433" transform="translate(98,0)" style="font-family: 'Open Sans', verdana, arial, sans-serif; font-size: 12px; fill: rgb(42, 63, 95); fill-opacity: 1; white-space: pre; opacity: 1;">Sep 2022</text></g><g class="xtick"><text text-anchor="middle" x="0" y="433" style="font-family: 'Open Sans', verdana, arial, sans-serif; font-size: 12px; fill: rgb(42, 63, 95); fill-opacity: 1; white-space: pre; opacity: 1;" transform="translate(175.14,0)">Oct 2022</text></g><g class="xtick"><text text-anchor="middle" x="0" y="433" style="font-family: 'Open Sans', verdana, arial, sans-serif; font-size: 12px; fill: rgb(42, 63, 95); fill-opacity: 1; white-space: pre; opacity: 1;" transform="translate(254.86,0)">Nov 2022</text></g><g class="xtick"><text text-anchor="middle" x="0" y="433" style="font-family: 'Open Sans', verdana, arial, sans-serif; font-size: 12px; fill: rgb(42, 63, 95); fill-opacity: 1; white-space: pre; opacity: 1;" transform="translate(332,0)">Dec 2022</text></g><g class="xtick"><text text-anchor="middle" x="0" y="433" style="font-family: 'Open Sans', verdana, arial, sans-serif; font-size: 12px; fill: rgb(42, 63, 95); fill-opacity: 1; white-space: pre; opacity: 1;" transform="translate(411.71,0)">Jan 2023</text></g><g class="xtick"><text text-anchor="middle" x="0" y="433" style="font-family: 'Open Sans', verdana, arial, sans-serif; font-size: 12px; fill: rgb(42, 63, 95); fill-opacity: 1; white-space: pre; opacity: 1;" transform="translate(491.43,0)">Feb 2023</text></g><g class="xtick"><text text-anchor="middle" x="0" y="433" style="font-family: 'Open Sans', verdana, arial, sans-serif; font-size: 12px; fill: rgb(42, 63, 95); fill-opacity: 1; white-space: pre; opacity: 1;" transform="translate(563.4300000000001,0)">Mar 2023</text></g></g><g class="yaxislayer-above"><g class="ytick"><text text-anchor="end" x="79" y="4.199999999999999" transform="translate(0,420)" style="font-family: 'Open Sans', verdana, arial, sans-serif; font-size: 12px; fill: rgb(42, 63, 95); fill-opacity: 1; white-space: pre; opacity: 1;">$0</text></g><g class="ytick"><text text-anchor="end" x="79" y="4.199999999999999" style="font-family: 'Open Sans', verdana, arial, sans-serif; font-size: 12px; fill: rgb(42, 63, 95); fill-opacity: 1; white-space: pre; opacity: 1;" transform="translate(0,367.29)">$5M</text></g><g class="ytick"><text text-anchor="end" x="79" y="4.199999999999999" style="font-family: 'Open Sans', verdana, arial, sans-serif; font-size: 12px; fill: rgb(42, 63, 95); fill-opacity: 1; white-space: pre; opacity: 1;" transform="translate(0,314.57)">$10M</text></g><g class="ytick"><text text-anchor="end" x="79" y="4.199999999999999" style="font-family: 'Open Sans', verdana, arial, sans-serif; font-size: 12px; fill: rgb(42, 63, 95); fill-opacity: 1; white-space: pre; opacity: 1;" transform="translate(0,261.86)">$15M</text></g><g class="ytick"><text text-anchor="end" x="79" y="4.199999999999999" style="font-family: 'Open Sans', verdana, arial, sans-serif; font-size: 12px; fill: rgb(42, 63, 95); fill-opacity: 1; white-space: pre; opacity: 1;" transform="translate(0,209.15)">$20M</text></g><g class="ytick"><text text-anchor="end" x="79" y="4.199999999999999" style="font-family: 'Open Sans', verdana, arial, sans-serif; font-size: 12px; fill: rgb(42, 63, 95); fill-opacity: 1; white-space: pre; opacity: 1;" transform="translate(0,156.44)">$25M</text></g><g class="ytick"><text text-anchor="end" x="79" y="4.199999999999999" style="font-family: 'Open Sans', verdana, arial, sans-serif; font-size: 12px; fill: rgb(42, 63, 95); fill-opacity: 1; white-space: pre; opacity: 1;" transform="translate(0,103.72)">$30M</text></g></g><g class="overaxes-above"/></g></g><g class="polarlayer"/><g class="smithlayer"/><g class="ternarylayer"/><g class="geolayer"/><g class="funnelarealayer"/><g class="pielayer"/><g class="iciclelayer"/><g class="treemaplayer"/><g class="sunburstlayer"/><g class="glimages"/><defs id="topdefs-542f2a"><g class="clips"/></defs><g class="layer-above"><g class="imagelayer"/><g class="shapelayer"/></g><g class="infolayer"><g class="g-gtitle"><text class="gtitle" x="35" y="50" text-anchor="start" dy="0em" style="font-family: 'Open Sans', verdana, arial, sans-serif; font-size: 17px; fill: rgb(42, 63, 95); opacity: 1; font-weight: normal; white-space: pre;"><tspan class="line" dy="0em" x="35" y="50">Synthetix - sETH-ETH: Curve</tspan><tspan class="line" dy="1.3em" x="35" y="50">​<tspan style="font-size:70%" dy="-0.6em">Cumulative Net Flows since Program Announcement, Until Program End + 30 Days</tspan><tspan dy="0.42em">​</tspan></tspan></text></g><g class="g-xtitle"><text class="xtitle" x="350" y="460.8" text-anchor="middle" style="font-family: 'Open Sans', verdana, arial, sans-serif; font-size: 14px; fill: rgb(42, 63, 95); opacity: 1; font-weight: normal; white-space: pre;">Day</text></g><g class="g-ytitle"><text class="ytitle" transform="rotate(-90,24.168750000000003,260)" x="24.168750000000003" y="260" text-anchor="middle" style="font-family: 'Open Sans', verdana, arial, sans-serif; font-size: 14px; fill: rgb(42, 63, 95); opacity: 1; font-weight: normal; white-space: pre;">Cumulative Net Flows (USD)</text></g></g></svg>