<svg class="main-svg" xmlns="http://www.w3.org/2000/svg" xmlns:xlink="http://www.w3.org/1999/xlink" width="700" height="500" style="" viewBox="0 0 700 500"><rect x="0" y="0" width="700" height="500" style="fill: rgb(255, 255, 255); fill-opacity: 1;"/><defs id="defs-0a947b"><g class="clips"><clipPath id="clip0a947bxyplot" class="plotclip"><rect width="540" height="320"/></clipPath><clipPath class="axesclip" id="clip0a947bx"><rect x="80" y="0" width="540" height="500"/></clipPath><clipPath class="axesclip" id="clip0a947by"><rect x="0" y="100" width="700" height="320"/></clipPath><clipPath class="axesclip" id="clip0a947bxy"><rect x="80" y="100" width="540" height="320"/></clipPath></g><g class="gradients"/><g class="patterns"/></defs><g class="bglayer"><rect class="bg" x="80" y="100" width="540" height="320" style="fill: rgb(229, 236, 246); fill-opacity: 1; stroke-width: 0;"/></g><g class="layer-below"><g class="imagelayer"/><g class="shapelayer"/></g><g class="cartesianlayer"><g class="subplot xy"><g class="layer-subplot"><g class="shapelayer"/><g class="imagelayer"/></g><g class="minor-gridlayer"><g class="x"/><g class="y"/></g><g class="gridlayer"><g class="x"><path class="xgrid crisp" transform="translate(97.42,0)" d="M0,100v320" style="stroke: rgb(255, 255, 255); stroke-opacity: 1; stroke-width: 1px;"/><path class="xgrid crisp" transform="translate(232.42,0)" d="M0,100v320" style="stroke: rgb(255, 255, 255); stroke-opacity: 1; stroke-width: 1px;"/><path class="xgrid crisp" transform="translate(363.06,0)" d="M0,100v320" style="stroke: rgb(255, 255, 255); stroke-opacity: 1; stroke-width: 1px;"/><path class="xgrid crisp" transform="translate(498.06,0)" d="M0,100v320" style="stroke: rgb(255, 255, 255); stroke-opacity: 1; stroke-width: 1px;"/></g><g class="y"><path class="ygrid crisp" transform="translate(0,315.56)" d="M80,0h540" style="stroke: rgb(255, 255, 255); stroke-opacity: 1; stroke-width: 1px;"/><path class="ygrid crisp" transform="translate(0,254.43)" d="M80,0h540" style="stroke: rgb(255, 255, 255); stroke-opacity: 1; stroke-width: 1px;"/><path class="ygrid crisp" transform="translate(0,193.29000000000002)" d="M80,0h540" style="stroke: rgb(255, 255, 255); stroke-opacity: 1; stroke-width: 1px;"/><path class="ygrid crisp" transform="translate(0,132.16)" d="M80,0h540" style="stroke: rgb(255, 255, 255); stroke-opacity: 1; stroke-width: 1px;"/></g></g><g class="zerolinelayer"><path class="yzl zl crisp" transform="translate(0,376.69)" d="M80,0h540" style="stroke: rgb(255, 255, 255); stroke-opacity: 1; stroke-width: 2px;"/></g><path class="xlines-below"/><path class="ylines-below"/><g class="overlines-below"/><g class="xaxislayer-below"/><g class="yaxislayer-below"/><g class="overaxes-below"/><g class="plot" transform="translate(80,100)" clip-path="url(#clip0a947bxyplot)"><g class="scatterlayer mlayer"><g class="trace scatter trace42f1c6" style="stroke-miterlimit: 2;"><g class="fills"><g><path class="js-fill" d="M540,276.69L0,276.69L0,294.74L4.35,294.77L8.71,292.66L13.06,291.83L17.42,289.64L21.77,290.19L26.13,289.97L30.48,285.56L34.84,269.81L39.19,270.39L43.55,284.73L47.9,269.46L52.26,271.54L65.32,272.14L69.68,264.01L74.03,244.91L78.39,242.08L82.74,242.09L87.1,247.05L91.45,216.21L95.81,215.84L100.16,215.46L104.52,224.13L108.87,225.19L113.23,219.32L117.58,220.86L121.94,224.64L126.29,243.03L130.65,232.45L135,215.95L139.35,211.76L143.71,213.52L148.06,212.39L152.42,209.23L156.77,210.92L165.48,210.12L169.84,209.69L174.19,210.29L178.55,207.72L182.9,253.76L187.26,258.3L191.61,301.35L195.97,295.94L204.68,299.49L209.03,304L213.39,266.43L217.74,261.77L222.1,278.13L226.45,273.21L230.81,270.09L235.16,271.66L239.52,275.7L243.87,276.15L248.23,281.32L252.58,279.56L256.94,275.6L261.29,256.1L265.65,254.61L270,275.01L274.35,276.59L278.71,273.77L283.06,245.98L287.42,237.54L291.77,237.33L296.13,239.13L300.48,231.6L304.84,228.6L309.19,212.17L313.55,211.24L317.9,201.97L322.26,228.41L326.61,136.04L330.97,183.64L335.32,185.04L339.68,204L344.03,262.24L348.39,261.89L352.74,286.16L357.1,289.67L361.45,287.77L365.81,263.8L370.16,263.58L374.52,270L378.87,271.32L383.23,271.02L391.94,272.37L396.29,273.46L400.65,277.37L405,277.71L409.35,277.84L413.71,276.8L426.77,276.6L431.13,278.8L435.48,277.92L439.84,286.43L444.19,276.44L448.55,275.7L452.9,262.83L457.26,259.52L461.61,259.02L465.97,254.45L470.32,248.68L474.68,246.4L479.03,247.64L483.39,247.26L487.74,236.34L492.1,234.46L500.81,186.67L505.16,176.97L509.52,192.11L513.87,158.39L518.23,122.75L522.58,110.79L531.29,31.78L535.65,16L540,16.04" style="fill: rgb(99, 110, 250); fill-opacity: 0.5; stroke-width: 0;"/></g></g><g class="errorbars"/><g class="lines"><path class="js-line" d="M0,294.74L4.35,294.77L8.71,292.66L13.06,291.83L17.42,289.64L21.77,290.19L26.13,289.97L30.48,285.56L34.84,269.81L39.19,270.39L43.55,284.73L47.9,269.46L52.26,271.54L65.32,272.14L69.68,264.01L74.03,244.91L78.39,242.08L82.74,242.09L87.1,247.05L91.45,216.21L95.81,215.84L100.16,215.46L104.52,224.13L108.87,225.19L113.23,219.32L117.58,220.86L121.94,224.64L126.29,243.03L130.65,232.45L135,215.95L139.35,211.76L143.71,213.52L148.06,212.39L152.42,209.23L156.77,210.92L165.48,210.12L169.84,209.69L174.19,210.29L178.55,207.72L182.9,253.76L187.26,258.3L191.61,301.35L195.97,295.94L204.68,299.49L209.03,304L213.39,266.43L217.74,261.77L222.1,278.13L226.45,273.21L230.81,270.09L235.16,271.66L239.52,275.7L243.87,276.15L248.23,281.32L252.58,279.56L256.94,275.6L261.29,256.1L265.65,254.61L270,275.01L274.35,276.59L278.71,273.77L283.06,245.98L287.42,237.54L291.77,237.33L296.13,239.13L300.48,231.6L304.84,228.6L309.19,212.17L313.55,211.24L317.9,201.97L322.26,228.41L326.61,136.04L330.97,183.64L335.32,185.04L339.68,204L344.03,262.24L348.39,261.89L352.74,286.16L357.1,289.67L361.45,287.77L365.81,263.8L370.16,263.58L374.52,270L378.87,271.32L383.23,271.02L391.94,272.37L396.29,273.46L400.65,277.37L405,277.71L409.35,277.84L413.71,276.8L426.77,276.6L431.13,278.8L435.48,277.92L439.84,286.43L444.19,276.44L448.55,275.7L452.9,262.83L457.26,259.52L461.61,259.02L465.97,254.45L470.32,248.68L474.68,246.4L479.03,247.64L483.39,247.26L487.74,236.34L492.1,234.46L500.81,186.67L505.16,176.97L509.52,192.11L513.87,158.39L518.23,122.75L522.58,110.79L531.29,31.78L535.65,16L540,16.04" style="vector-effect: non-scaling-stroke; fill: none; stroke: rgb(99, 110, 250); stroke-opacity: 1; stroke-width: 2px; opacity: 1;"/></g><g class="points"/><g class="text"/></g></g></g><g class="overplot"/><path class="xlines-above crisp" d="M0,0" style="fill: none;"/><path class="ylines-above crisp" d="M0,0" style="fill: none;"/><g class="overlines-above"/><g class="xaxislayer-above"><g class="xtick"><text text-anchor="middle" x="0" y="433" transform="translate(97.42,0)" style="font-family: 'Open Sans', verdana, arial, sans-serif; font-size: 12px; fill: rgb(42, 63, 95); fill-opacity: 1; white-space: pre; opacity: 1;">Oct 2022</text></g><g class="xtick"><text text-anchor="middle" x="0" y="433" style="font-family: 'Open Sans', verdana, arial, sans-serif; font-size: 12px; fill: rgb(42, 63, 95); fill-opacity: 1; white-space: pre; opacity: 1;" transform="translate(232.42,0)">Nov 2022</text></g><g class="xtick"><text text-anchor="middle" x="0" y="433" style="font-family: 'Open Sans', verdana, arial, sans-serif; font-size: 12px; fill: rgb(42, 63, 95); fill-opacity: 1; white-space: pre; opacity: 1;" transform="translate(363.06,0)">Dec 2022</text></g><g class="xtick"><text text-anchor="middle" x="0" y="433" style="font-family: 'Open Sans', verdana, arial, sans-serif; font-size: 12px; fill: rgb(42, 63, 95); fill-opacity: 1; white-space: pre; opacity: 1;" transform="translate(498.06,0)">Jan 2023</text></g></g><g class="yaxislayer-above"><g class="ytick"><text text-anchor="end" x="79" y="4.199999999999999" transform="translate(0,376.69)" style="font-family: 'Open Sans', verdana, arial, sans-serif; font-size: 12px; fill: rgb(42, 63, 95); fill-opacity: 1; white-space: pre; opacity: 1;">$0</text></g><g class="ytick"><text text-anchor="end" x="79" y="4.199999999999999" style="font-family: 'Open Sans', verdana, arial, sans-serif; font-size: 12px; fill: rgb(42, 63, 95); fill-opacity: 1; white-space: pre; opacity: 1;" transform="translate(0,315.56)">$2M</text></g><g class="ytick"><text text-anchor="end" x="79" y="4.199999999999999" style="font-family: 'Open Sans', verdana, arial, sans-serif; font-size: 12px; fill: rgb(42, 63, 95); fill-opacity: 1; white-space: pre; opacity: 1;" transform="translate(0,254.43)">$4M</text></g><g class="ytick"><text text-anchor="end" x="79" y="4.199999999999999" style="font-family: 'Open Sans', verdana, arial, sans-serif; font-size: 12px; fill: rgb(42, 63, 95); fill-opacity: 1; white-space: pre; opacity: 1;" transform="translate(0,193.29000000000002)">$6M</text></g><g class="ytick"><text text-anchor="end" x="79" y="4.199999999999999" style="font-family: 'Open Sans', verdana, arial, sans-serif; font-size: 12px; fill: rgb(42, 63, 95); fill-opacity: 1; white-space: pre; opacity: 1;" transform="translate(0,132.16)">$8M</text></g></g><g class="overaxes-above"/></g></g><g class="polarlayer"/><g class="smithlayer"/><g class="ternarylayer"/><g class="geolayer"/><g class="funnelarealayer"/><g class="pielayer"/><g class="iciclelayer"/><g class="treemaplayer"/><g class="sunburstlayer"/><g class="glimages"/><defs id="topdefs-0a947b"><g class="clips"/></defs><g class="layer-above"><g class="imagelayer"/><g class="shapelayer"/></g><g class="infolayer"><g class="g-gtitle"><text class="gtitle" x="35" y="50" text-anchor="start" dy="0em" style="font-family: 'Open Sans', verdana, arial, sans-serif; font-size: 17px; fill: rgb(42, 63, 95); opacity: 1; font-weight: normal; white-space: pre;"><tspan class="line" dy="0em" x="35" y="50">Synthetix - USDC/sUSD: Velo</tspan><tspan class="line" dy="1.3em" x="35" y="50">​<tspan style="font-size:70%" dy="-0.6em">Cumulative Net Dollar Flow since Program Announcement, Until Program End + 30 Days</tspan><tspan dy="0.42em">​</tspan></tspan></text></g><g class="g-xtitle"><text class="xtitle" x="350" y="460.8" text-anchor="middle" style="font-family: 'Open Sans', verdana, arial, sans-serif; font-size: 14px; fill: rgb(42, 63, 95); opacity: 1; font-weight: normal; white-space: pre;">Day</text></g><g class="g-ytitle"><text class="ytitle" transform="rotate(-90,30.856250000000003,260)" x="30.856250000000003" y="260" text-anchor="middle" style="font-family: 'Open Sans', verdana, arial, sans-serif; font-size: 14px; fill: rgb(42, 63, 95); opacity: 1; font-weight: normal; white-space: pre;">Cumulative Net Dollar Flow (N$F)</text></g></g></svg>