<svg class="main-svg" xmlns="http://www.w3.org/2000/svg" xmlns:xlink="http://www.w3.org/1999/xlink" width="700" height="500" style="" viewBox="0 0 700 500"><rect x="0" y="0" width="700" height="500" style="fill: rgb(255, 255, 255); fill-opacity: 1;"/><defs id="defs-7c9d78"><g class="clips"><clipPath id="clip7c9d78xyplot" class="plotclip"><rect width="540" height="320"/></clipPath><clipPath class="axesclip" id="clip7c9d78x"><rect x="80" y="0" width="540" height="500"/></clipPath><clipPath class="axesclip" id="clip7c9d78y"><rect x="0" y="100" width="700" height="320"/></clipPath><clipPath class="axesclip" id="clip7c9d78xy"><rect x="80" y="100" width="540" height="320"/></clipPath></g><g class="gradients"/><g class="patterns"/></defs><g class="bglayer"><rect class="bg" x="80" y="100" width="540" height="320" style="fill: rgb(229, 236, 246); fill-opacity: 1; stroke-width: 0;"/></g><g class="layer-below"><g class="imagelayer"/><g class="shapelayer"/></g><g class="cartesianlayer"><g class="subplot xy"><g class="layer-subplot"><g class="shapelayer"/><g class="imagelayer"/></g><g class="minor-gridlayer"><g class="x"/><g class="y"/></g><g class="gridlayer"><g class="x"><path class="xgrid crisp" transform="translate(94.03,0)" d="M0,100v320" style="stroke: rgb(255, 255, 255); stroke-opacity: 1; stroke-width: 1px;"/><path class="xgrid crisp" transform="translate(202.73000000000002,0)" d="M0,100v320" style="stroke: rgb(255, 255, 255); stroke-opacity: 1; stroke-width: 1px;"/><path class="xgrid crisp" transform="translate(307.91999999999996,0)" d="M0,100v320" style="stroke: rgb(255, 255, 255); stroke-opacity: 1; stroke-width: 1px;"/><path class="xgrid crisp" transform="translate(416.62,0)" d="M0,100v320" style="stroke: rgb(255, 255, 255); stroke-opacity: 1; stroke-width: 1px;"/><path class="xgrid crisp" transform="translate(525.3199999999999,0)" d="M0,100v320" style="stroke: rgb(255, 255, 255); stroke-opacity: 1; stroke-width: 1px;"/></g><g class="y"><path class="ygrid crisp" transform="translate(0,371.72)" d="M80,0h540" style="stroke: rgb(255, 255, 255); stroke-opacity: 1; stroke-width: 1px;"/><path class="ygrid crisp" transform="translate(0,323.43)" d="M80,0h540" style="stroke: rgb(255, 255, 255); stroke-opacity: 1; stroke-width: 1px;"/><path class="ygrid crisp" transform="translate(0,275.15)" d="M80,0h540" style="stroke: rgb(255, 255, 255); stroke-opacity: 1; stroke-width: 1px;"/><path class="ygrid crisp" transform="translate(0,226.87)" d="M80,0h540" style="stroke: rgb(255, 255, 255); stroke-opacity: 1; stroke-width: 1px;"/><path class="ygrid crisp" transform="translate(0,178.57999999999998)" d="M80,0h540" style="stroke: rgb(255, 255, 255); stroke-opacity: 1; stroke-width: 1px;"/><path class="ygrid crisp" transform="translate(0,130.3)" d="M80,0h540" style="stroke: rgb(255, 255, 255); stroke-opacity: 1; stroke-width: 1px;"/></g></g><g class="zerolinelayer"><path class="yzl zl crisp" transform="translate(0,420)" d="M80,0h540" style="stroke: rgb(255, 255, 255); stroke-opacity: 1; stroke-width: 2px;"/></g><path class="xlines-below"/><path class="ylines-below"/><g class="overlines-below"/><g class="xaxislayer-below"/><g class="yaxislayer-below"/><g class="overaxes-below"/><g class="plot" transform="translate(80,100)" clip-path="url(#clip7c9d78xyplot)"><g class="scatterlayer mlayer"><g class="trace scatter trace5f7901" style="stroke-miterlimit: 2;"><g class="fills"><g><path class="js-fill" d="M540,320L0,320L0,299.24L3.51,298.85L7.01,294.64L14.03,293.79L17.53,292.07L21.04,291.64L24.55,289.66L28.05,283.39L31.56,284.9L35.06,286.05L38.57,283.05L45.58,282.51L49.09,283.98L52.6,284.69L56.1,284.6L59.61,278.7L63.12,278.66L66.62,277.87L70.13,277.9L73.64,273.06L77.14,273.38L80.65,273.2L84.16,274.37L87.66,274.65L91.17,273.54L94.68,273.78L98.18,275.22L101.69,278.8L105.19,277.58L108.7,274.42L112.21,273.45L119.22,273.24L122.73,272.6L126.23,272.24L129.74,269.11L140.26,267.63L143.77,265.08L147.27,275.19L150.78,276.31L154.29,284.33L157.79,284.56L164.81,288.82L168.31,289.39L171.82,283.22L175.32,283.12L182.34,281.91L185.84,281.44L196.36,280.92L199.87,281.92L203.38,279.43L206.88,278.23L210.39,275.1L213.9,274.58L217.4,277.54L220.91,277.9L224.42,277L227.92,272.61L231.43,271.15L234.94,271.01L238.44,270.78L241.95,269.66L245.45,272.73L248.96,270.61L252.47,272.15L255.97,269.13L259.48,272.81L262.99,257.97L266.49,262.72L270,260.54L273.51,263.3L277.01,276.64L280.52,276.66L284.03,280.57L287.53,281.11L291.04,280.47L294.55,275.94L298.05,275.46L312.08,275.35L315.58,275.88L326.1,277.84L329.61,277.98L336.62,278.57L340.13,278L350.65,278.48L354.16,280.08L357.66,278.42L361.17,278.43L364.68,276.23L368.18,275.81L375.19,273.46L378.7,271.44L389.22,270.18L392.73,266.71L396.23,264.76L399.74,258.91L403.25,255.64L406.75,248.52L410.26,249.23L413.77,243.39L424.29,210.58L427.79,203.92L431.3,200.1L434.81,198.77L438.31,196.36L441.82,190.59L445.32,188.14L448.83,183.81L452.34,181.19L455.84,179.66L459.35,176.26L462.86,158.14L466.36,147.38L469.87,132.4L476.88,134.82L480.39,130.16L483.9,126.04L487.4,125.5L490.91,123.73L494.42,118.06L497.92,110.19L501.43,106.51L504.94,107.17L508.44,93.6L511.95,87.78L515.45,67.96L518.96,71.71L522.47,68.98L525.97,49.5L529.48,46.7L532.99,29.26L536.49,20.49L540,16" style="fill: rgb(99, 110, 250); fill-opacity: 0.5; stroke-width: 0;"/></g></g><g class="errorbars"/><g class="lines"><path class="js-line" d="M0,299.24L3.51,298.85L7.01,294.64L14.03,293.79L17.53,292.07L21.04,291.64L24.55,289.66L28.05,283.39L31.56,284.9L35.06,286.05L38.57,283.05L45.58,282.51L49.09,283.98L52.6,284.69L56.1,284.6L59.61,278.7L63.12,278.66L66.62,277.87L70.13,277.9L73.64,273.06L77.14,273.38L80.65,273.2L84.16,274.37L87.66,274.65L91.17,273.54L94.68,273.78L98.18,275.22L101.69,278.8L105.19,277.58L108.7,274.42L112.21,273.45L119.22,273.24L122.73,272.6L126.23,272.24L129.74,269.11L140.26,267.63L143.77,265.08L147.27,275.19L150.78,276.31L154.29,284.33L157.79,284.56L164.81,288.82L168.31,289.39L171.82,283.22L175.32,283.12L182.34,281.91L185.84,281.44L196.36,280.92L199.87,281.92L203.38,279.43L206.88,278.23L210.39,275.1L213.9,274.58L217.4,277.54L220.91,277.9L224.42,277L227.92,272.61L231.43,271.15L234.94,271.01L238.44,270.78L241.95,269.66L245.45,272.73L248.96,270.61L252.47,272.15L255.97,269.13L259.48,272.81L262.99,257.97L266.49,262.72L270,260.54L273.51,263.3L277.01,276.64L280.52,276.66L284.03,280.57L287.53,281.11L291.04,280.47L294.55,275.94L298.05,275.46L312.08,275.35L315.58,275.88L326.1,277.84L329.61,277.98L336.62,278.57L340.13,278L350.65,278.48L354.16,280.08L357.66,278.42L361.17,278.43L364.68,276.23L368.18,275.81L375.19,273.46L378.7,271.44L389.22,270.18L392.73,266.71L396.23,264.76L399.74,258.91L403.25,255.64L406.75,248.52L410.26,249.23L413.77,243.39L424.29,210.58L427.79,203.92L431.3,200.1L434.81,198.77L438.31,196.36L441.82,190.59L445.32,188.14L448.83,183.81L452.34,181.19L455.84,179.66L459.35,176.26L462.86,158.14L466.36,147.38L469.87,132.4L476.88,134.82L480.39,130.16L483.9,126.04L487.4,125.5L490.91,123.73L494.42,118.06L497.92,110.19L501.43,106.51L504.94,107.17L508.44,93.6L511.95,87.78L515.45,67.96L518.96,71.71L522.47,68.98L525.97,49.5L529.48,46.7L532.99,29.26L536.49,20.49L540,16" style="vector-effect: non-scaling-stroke; fill: none; stroke: rgb(99, 110, 250); stroke-opacity: 1; stroke-width: 2px; opacity: 1;"/></g><g class="points"/><g class="text"/></g></g></g><g class="overplot"/><path class="xlines-above crisp" d="M0,0" style="fill: none;"/><path class="ylines-above crisp" d="M0,0" style="fill: none;"/><g class="overlines-above"/><g class="xaxislayer-above"><g class="xtick"><text text-anchor="middle" x="0" y="433" transform="translate(94.03,0)" style="font-family: 'Open Sans', verdana, arial, sans-serif; font-size: 12px; fill: rgb(42, 63, 95); fill-opacity: 1; white-space: pre; opacity: 1;">Oct 2022</text></g><g class="xtick"><text text-anchor="middle" x="0" y="433" style="font-family: 'Open Sans', verdana, arial, sans-serif; font-size: 12px; fill: rgb(42, 63, 95); fill-opacity: 1; white-space: pre; opacity: 1;" transform="translate(202.73000000000002,0)">Nov 2022</text></g><g class="xtick"><text text-anchor="middle" x="0" y="433" style="font-family: 'Open Sans', verdana, arial, sans-serif; font-size: 12px; fill: rgb(42, 63, 95); fill-opacity: 1; white-space: pre; opacity: 1;" transform="translate(307.91999999999996,0)">Dec 2022</text></g><g class="xtick"><text text-anchor="middle" x="0" y="433" style="font-family: 'Open Sans', verdana, arial, sans-serif; font-size: 12px; fill: rgb(42, 63, 95); fill-opacity: 1; white-space: pre; opacity: 1;" transform="translate(416.62,0)">Jan 2023</text></g><g class="xtick"><text text-anchor="middle" x="0" y="433" style="font-family: 'Open Sans', verdana, arial, sans-serif; font-size: 12px; fill: rgb(42, 63, 95); fill-opacity: 1; white-space: pre; opacity: 1;" transform="translate(525.3199999999999,0)">Feb 2023</text></g></g><g class="yaxislayer-above"><g class="ytick"><text text-anchor="end" x="79" y="4.199999999999999" transform="translate(0,420)" style="font-family: 'Open Sans', verdana, arial, sans-serif; font-size: 12px; fill: rgb(42, 63, 95); fill-opacity: 1; white-space: pre; opacity: 1;">$0</text></g><g class="ytick"><text text-anchor="end" x="79" y="4.199999999999999" style="font-family: 'Open Sans', verdana, arial, sans-serif; font-size: 12px; fill: rgb(42, 63, 95); fill-opacity: 1; white-space: pre; opacity: 1;" transform="translate(0,371.72)">$10M</text></g><g class="ytick"><text text-anchor="end" x="79" y="4.199999999999999" style="font-family: 'Open Sans', verdana, arial, sans-serif; font-size: 12px; fill: rgb(42, 63, 95); fill-opacity: 1; white-space: pre; opacity: 1;" transform="translate(0,323.43)">$20M</text></g><g class="ytick"><text text-anchor="end" x="79" y="4.199999999999999" style="font-family: 'Open Sans', verdana, arial, sans-serif; font-size: 12px; fill: rgb(42, 63, 95); fill-opacity: 1; white-space: pre; opacity: 1;" transform="translate(0,275.15)">$30M</text></g><g class="ytick"><text text-anchor="end" x="79" y="4.199999999999999" style="font-family: 'Open Sans', verdana, arial, sans-serif; font-size: 12px; fill: rgb(42, 63, 95); fill-opacity: 1; white-space: pre; opacity: 1;" transform="translate(0,226.87)">$40M</text></g><g class="ytick"><text text-anchor="end" x="79" y="4.199999999999999" style="font-family: 'Open Sans', verdana, arial, sans-serif; font-size: 12px; fill: rgb(42, 63, 95); fill-opacity: 1; white-space: pre; opacity: 1;" transform="translate(0,178.57999999999998)">$50M</text></g><g class="ytick"><text text-anchor="end" x="79" y="4.199999999999999" style="font-family: 'Open Sans', verdana, arial, sans-serif; font-size: 12px; fill: rgb(42, 63, 95); fill-opacity: 1; white-space: pre; opacity: 1;" transform="translate(0,130.3)">$60M</text></g></g><g class="overaxes-above"/></g></g><g class="polarlayer"/><g class="smithlayer"/><g class="ternarylayer"/><g class="geolayer"/><g class="funnelarealayer"/><g class="pielayer"/><g class="iciclelayer"/><g class="treemaplayer"/><g class="sunburstlayer"/><g class="glimages"/><defs id="topdefs-7c9d78"><g class="clips"/></defs><g class="layer-above"><g class="imagelayer"/><g class="shapelayer"/></g><g class="infolayer"><g class="g-gtitle"><text class="gtitle" x="35" y="50" text-anchor="start" dy="0em" style="font-family: 'Open Sans', verdana, arial, sans-serif; font-size: 17px; fill: rgb(42, 63, 95); opacity: 1; font-weight: normal; white-space: pre;"><tspan class="line" dy="0em" x="35" y="50">Synthetix - All Synthetix Velo Pools</tspan><tspan class="line" dy="1.3em" x="35" y="50">​<tspan style="font-size:70%" dy="-0.6em">Cumulative Net Flows since Program Announcement, Until Program End + 30 Days</tspan><tspan dy="0.42em">​</tspan></tspan></text></g><g class="g-xtitle"><text class="xtitle" x="350" y="459.8" text-anchor="middle" style="font-family: 'Open Sans', verdana, arial, sans-serif; font-size: 14px; fill: rgb(42, 63, 95); opacity: 1; font-weight: normal; white-space: pre;">Day</text></g><g class="g-ytitle"><text class="ytitle" transform="rotate(-90,21.700000000000003,260)" x="21.700000000000003" y="260" text-anchor="middle" style="font-family: 'Open Sans', verdana, arial, sans-serif; font-size: 14px; fill: rgb(42, 63, 95); opacity: 1; font-weight: normal; white-space: pre;">Cumulative Net Flows (USD)</text></g></g></svg>