<svg class="main-svg" xmlns="http://www.w3.org/2000/svg" xmlns:xlink="http://www.w3.org/1999/xlink" width="700" height="500" style="" viewBox="0 0 700 500"><rect x="0" y="0" width="700" height="500" style="fill: rgb(255, 255, 255); fill-opacity: 1;"/><defs id="defs-7f7eec"><g class="clips"><clipPath id="clip7f7eecxyplot" class="plotclip"><rect width="540" height="320"/></clipPath><clipPath class="axesclip" id="clip7f7eecx"><rect x="80" y="0" width="540" height="500"/></clipPath><clipPath class="axesclip" id="clip7f7eecy"><rect x="0" y="100" width="700" height="320"/></clipPath><clipPath class="axesclip" id="clip7f7eecxy"><rect x="80" y="100" width="540" height="320"/></clipPath></g><g class="gradients"/><g class="patterns"/></defs><g class="bglayer"><rect class="bg" x="80" y="100" width="540" height="320" style="fill: rgb(229, 236, 246); fill-opacity: 1; stroke-width: 0;"/></g><g class="layer-below"><g class="imagelayer"/><g class="shapelayer"/></g><g class="cartesianlayer"><g class="subplot xy"><g class="layer-subplot"><g class="shapelayer"/><g class="imagelayer"/></g><g class="minor-gridlayer"><g class="x"/><g class="y"/></g><g class="gridlayer"><g class="x"><path class="xgrid crisp" transform="translate(123.39,0)" d="M0,100v320" style="stroke: rgb(255, 255, 255); stroke-opacity: 1; stroke-width: 1px;"/><path class="xgrid crisp" transform="translate(198.13,0)" d="M0,100v320" style="stroke: rgb(255, 255, 255); stroke-opacity: 1; stroke-width: 1px;"/><path class="xgrid crisp" transform="translate(270.45,0)" d="M0,100v320" style="stroke: rgb(255, 255, 255); stroke-opacity: 1; stroke-width: 1px;"/><path class="xgrid crisp" transform="translate(345.18,0)" d="M0,100v320" style="stroke: rgb(255, 255, 255); stroke-opacity: 1; stroke-width: 1px;"/><path class="xgrid crisp" transform="translate(417.5,0)" d="M0,100v320" style="stroke: rgb(255, 255, 255); stroke-opacity: 1; stroke-width: 1px;"/><path class="xgrid crisp" transform="translate(492.23,0)" d="M0,100v320" style="stroke: rgb(255, 255, 255); stroke-opacity: 1; stroke-width: 1px;"/><path class="xgrid crisp" transform="translate(566.96,0)" d="M0,100v320" style="stroke: rgb(255, 255, 255); stroke-opacity: 1; stroke-width: 1px;"/></g><g class="y"><path class="ygrid crisp" transform="translate(0,373.77)" d="M80,0h540" style="stroke: rgb(255, 255, 255); stroke-opacity: 1; stroke-width: 1px;"/><path class="ygrid crisp" transform="translate(0,322.32)" d="M80,0h540" style="stroke: rgb(255, 255, 255); stroke-opacity: 1; stroke-width: 1px;"/><path class="ygrid crisp" transform="translate(0,270.86)" d="M80,0h540" style="stroke: rgb(255, 255, 255); stroke-opacity: 1; stroke-width: 1px;"/><path class="ygrid crisp" transform="translate(0,219.4)" d="M80,0h540" style="stroke: rgb(255, 255, 255); stroke-opacity: 1; stroke-width: 1px;"/><path class="ygrid crisp" transform="translate(0,167.94)" d="M80,0h540" style="stroke: rgb(255, 255, 255); stroke-opacity: 1; stroke-width: 1px;"/></g></g><g class="zerolinelayer"><path class="yzl zl crisp" transform="translate(0,116.48)" d="M80,0h540" style="stroke: rgb(255, 255, 255); stroke-opacity: 1; stroke-width: 2px;"/></g><path class="xlines-below"/><path class="ylines-below"/><g class="overlines-below"/><g class="xaxislayer-below"/><g class="yaxislayer-below"/><g class="overaxes-below"/><g class="plot" transform="translate(80,100)" clip-path="url(#clip7f7eecxyplot)"><g class="scatterlayer mlayer"><g class="trace scatter trace8e37c1" style="stroke-miterlimit: 2;"><g class="fills"><g><path class="js-fill" d="M540,16.48L0,16.48L0,17.7L4.82,16.72L7.23,16.07L9.64,16L12.05,83.23L14.46,78.29L16.88,77.13L19.29,79.79L21.7,80.99L24.11,77.61L26.52,77.74L28.93,77.58L31.34,81.07L36.16,80.5L38.57,80.32L40.98,80.42L43.39,81.45L45.8,81.51L48.21,83.68L50.63,76.12L53.04,73.84L55.45,71.99L57.86,74.55L60.27,76.85L62.68,74.61L65.09,76.16L67.5,75.52L69.91,73.58L72.32,69.29L74.73,69.6L77.14,68.79L79.55,68.11L81.96,68.21L84.38,65.96L86.79,65.38L89.2,64.98L91.61,65.96L96.43,66.41L98.84,70.39L101.25,70.57L103.66,73.79L106.07,74.78L108.48,72.88L110.89,72.74L113.3,78.7L115.71,79.03L118.13,80.54L122.95,81.97L125.36,81.92L132.59,81.6L135,81.19L137.41,76.04L139.82,76.24L144.64,76.39L147.05,74.05L149.46,74.13L151.88,79.33L159.11,77.76L161.52,78.12L166.34,77.11L168.75,76.68L171.16,72.28L173.57,72.86L188.04,72.03L190.45,70.18L195.27,70.05L197.68,69.38L209.73,69.35L212.14,69.36L221.79,68.45L224.2,67.63L231.43,67.7L233.84,65.32L236.25,65.28L238.66,66.28L243.48,66.59L245.89,67.2L250.71,69.77L253.13,70.32L257.95,72.7L260.36,73.24L262.77,73.27L265.18,75.27L267.59,74.43L270,74.91L272.41,79.45L274.82,79.19L279.64,79.14L282.05,78.34L284.46,81.04L286.88,81.13L289.29,91.24L291.7,92.69L294.11,95.23L296.52,96.15L301.34,102.47L303.75,102.29L306.16,122.46L308.57,126.37L313.39,125.38L315.8,125.98L318.21,124.92L320.63,127.72L327.86,127.43L330.27,125.76L332.68,129.44L335.09,129.45L337.5,132.04L339.91,132.47L342.32,135.26L344.73,129.08L347.14,128.87L349.55,131.1L351.96,130.44L354.38,128.78L356.79,128.61L359.2,131.3L366.43,131.01L368.84,130.51L371.25,132.53L373.66,132.37L376.07,130.19L378.48,129.07L385.71,128.96L388.13,127.99L390.54,128.68L392.95,127.9L400.18,127.75L402.59,127.51L407.41,126.29L409.82,126.37L414.64,126.32L417.05,126.29L421.88,125.66L424.29,128.05L429.11,127.09L431.52,126.96L436.34,124.36L438.75,124.5L441.16,125.26L443.57,123.5L445.98,129.88L448.39,130.39L450.8,130.75L453.21,132.3L455.63,132.46L458.04,131.56L462.86,133.97L465.27,133.23L470.09,131.75L472.5,133.25L477.32,132.37L479.73,132.85L482.14,132.95L484.55,132.11L486.96,132.61L489.38,132.26L494.2,133.23L496.61,132.51L499.02,132.8L501.43,131.85L503.84,131.46L506.25,132.07L508.66,130.88L511.07,130.55L513.48,129.53L515.89,129.97L520.71,129.16L523.13,128.94L525.54,129.53L527.95,129.16L530.36,130.67L532.77,130.05L535.18,130.4L537.59,127.09L540,126.95L540,304" style="fill: rgb(99, 110, 250); fill-opacity: 0.5; stroke-width: 0;"/></g></g><g class="errorbars"/><g class="lines"><path class="js-line" d="M0,17.7L4.82,16.72L7.23,16.07L9.64,16L12.05,83.23L14.46,78.29L16.88,77.13L19.29,79.79L21.7,80.99L24.11,77.61L26.52,77.74L28.93,77.58L31.34,81.07L36.16,80.5L38.57,80.32L40.98,80.42L43.39,81.45L45.8,81.51L48.21,83.68L50.63,76.12L53.04,73.84L55.45,71.99L57.86,74.55L60.27,76.85L62.68,74.61L65.09,76.16L67.5,75.52L69.91,73.58L72.32,69.29L74.73,69.6L77.14,68.79L79.55,68.11L81.96,68.21L84.38,65.96L86.79,65.38L89.2,64.98L91.61,65.96L96.43,66.41L98.84,70.39L101.25,70.57L103.66,73.79L106.07,74.78L108.48,72.88L110.89,72.74L113.3,78.7L115.71,79.03L118.13,80.54L122.95,81.97L125.36,81.92L132.59,81.6L135,81.19L137.41,76.04L139.82,76.24L144.64,76.39L147.05,74.05L149.46,74.13L151.88,79.33L159.11,77.76L161.52,78.12L166.34,77.11L168.75,76.68L171.16,72.28L173.57,72.86L188.04,72.03L190.45,70.18L195.27,70.05L197.68,69.38L209.73,69.35L212.14,69.36L221.79,68.45L224.2,67.63L231.43,67.7L233.84,65.32L236.25,65.28L238.66,66.28L243.48,66.59L245.89,67.2L250.71,69.77L253.13,70.32L257.95,72.7L260.36,73.24L262.77,73.27L265.18,75.27L267.59,74.43L270,74.91L272.41,79.45L274.82,79.19L279.64,79.14L282.05,78.34L284.46,81.04L286.88,81.13L289.29,91.24L291.7,92.69L294.11,95.23L296.52,96.15L301.34,102.47L303.75,102.29L306.16,122.46L308.57,126.37L313.39,125.38L315.8,125.98L318.21,124.92L320.63,127.72L327.86,127.43L330.27,125.76L332.68,129.44L335.09,129.45L337.5,132.04L339.91,132.47L342.32,135.26L344.73,129.08L347.14,128.87L349.55,131.1L351.96,130.44L354.38,128.78L356.79,128.61L359.2,131.3L366.43,131.01L368.84,130.51L371.25,132.53L373.66,132.37L376.07,130.19L378.48,129.07L385.71,128.96L388.13,127.99L390.54,128.68L392.95,127.9L400.18,127.75L402.59,127.51L407.41,126.29L409.82,126.37L414.64,126.32L417.05,126.29L421.88,125.66L424.29,128.05L429.11,127.09L431.52,126.96L436.34,124.36L438.75,124.5L441.16,125.26L443.57,123.5L445.98,129.88L448.39,130.39L450.8,130.75L453.21,132.3L455.63,132.46L458.04,131.56L462.86,133.97L465.27,133.23L470.09,131.75L472.5,133.25L477.32,132.37L479.73,132.85L482.14,132.95L484.55,132.11L486.96,132.61L489.38,132.26L494.2,133.23L496.61,132.51L499.02,132.8L501.43,131.85L503.84,131.46L506.25,132.07L508.66,130.88L511.07,130.55L513.48,129.53L515.89,129.97L520.71,129.16L523.13,128.94L525.54,129.53L527.95,129.16L530.36,130.67L532.77,130.05L535.18,130.4L537.59,127.09L540,126.95L540,304" style="vector-effect: non-scaling-stroke; fill: none; stroke: rgb(99, 110, 250); stroke-opacity: 1; stroke-width: 2px; opacity: 1;"/></g><g class="points"/><g class="text"/></g></g></g><g class="overplot"/><path class="xlines-above crisp" d="M0,0" style="fill: none;"/><path class="ylines-above crisp" d="M0,0" style="fill: none;"/><g class="overlines-above"/><g class="xaxislayer-above"><g class="xtick"><text text-anchor="middle" x="0" y="433" transform="translate(123.39,0)" style="font-family: 'Open Sans', verdana, arial, sans-serif; font-size: 12px; fill: rgb(42, 63, 95); fill-opacity: 1; white-space: pre; opacity: 1;">Aug 2022</text></g><g class="xtick"><text text-anchor="middle" x="0" y="433" style="font-family: 'Open Sans', verdana, arial, sans-serif; font-size: 12px; fill: rgb(42, 63, 95); fill-opacity: 1; white-space: pre; opacity: 1;" transform="translate(198.13,0)">Sep 2022</text></g><g class="xtick"><text text-anchor="middle" x="0" y="433" style="font-family: 'Open Sans', verdana, arial, sans-serif; font-size: 12px; fill: rgb(42, 63, 95); fill-opacity: 1; white-space: pre; opacity: 1;" transform="translate(270.45,0)">Oct 2022</text></g><g class="xtick"><text text-anchor="middle" x="0" y="433" style="font-family: 'Open Sans', verdana, arial, sans-serif; font-size: 12px; fill: rgb(42, 63, 95); fill-opacity: 1; white-space: pre; opacity: 1;" transform="translate(345.18,0)">Nov 2022</text></g><g class="xtick"><text text-anchor="middle" x="0" y="433" style="font-family: 'Open Sans', verdana, arial, sans-serif; font-size: 12px; fill: rgb(42, 63, 95); fill-opacity: 1; white-space: pre; opacity: 1;" transform="translate(417.5,0)">Dec 2022</text></g><g class="xtick"><text text-anchor="middle" x="0" y="433" style="font-family: 'Open Sans', verdana, arial, sans-serif; font-size: 12px; fill: rgb(42, 63, 95); fill-opacity: 1; white-space: pre; opacity: 1;" transform="translate(492.23,0)">Jan 2023</text></g><g class="xtick"><text text-anchor="middle" x="0" y="433" style="font-family: 'Open Sans', verdana, arial, sans-serif; font-size: 12px; fill: rgb(42, 63, 95); fill-opacity: 1; white-space: pre; opacity: 1;" transform="translate(566.96,0)">Feb 2023</text></g></g><g class="yaxislayer-above"><g class="ytick"><text text-anchor="end" x="79" y="4.199999999999999" transform="translate(0,373.77)" style="font-family: 'Open Sans', verdana, arial, sans-serif; font-size: 12px; fill: rgb(42, 63, 95); fill-opacity: 1; white-space: pre; opacity: 1;">$−25M</text></g><g class="ytick"><text text-anchor="end" x="79" y="4.199999999999999" style="font-family: 'Open Sans', verdana, arial, sans-serif; font-size: 12px; fill: rgb(42, 63, 95); fill-opacity: 1; white-space: pre; opacity: 1;" transform="translate(0,322.32)">$−20M</text></g><g class="ytick"><text text-anchor="end" x="79" y="4.199999999999999" style="font-family: 'Open Sans', verdana, arial, sans-serif; font-size: 12px; fill: rgb(42, 63, 95); fill-opacity: 1; white-space: pre; opacity: 1;" transform="translate(0,270.86)">$−15M</text></g><g class="ytick"><text text-anchor="end" x="79" y="4.199999999999999" style="font-family: 'Open Sans', verdana, arial, sans-serif; font-size: 12px; fill: rgb(42, 63, 95); fill-opacity: 1; white-space: pre; opacity: 1;" transform="translate(0,219.4)">$−10M</text></g><g class="ytick"><text text-anchor="end" x="79" y="4.199999999999999" style="font-family: 'Open Sans', verdana, arial, sans-serif; font-size: 12px; fill: rgb(42, 63, 95); fill-opacity: 1; white-space: pre; opacity: 1;" transform="translate(0,167.94)">$−5M</text></g><g class="ytick"><text text-anchor="end" x="79" y="4.199999999999999" style="font-family: 'Open Sans', verdana, arial, sans-serif; font-size: 12px; fill: rgb(42, 63, 95); fill-opacity: 1; white-space: pre; opacity: 1;" transform="translate(0,116.48)">$0</text></g></g><g class="overaxes-above"/></g></g><g class="polarlayer"/><g class="smithlayer"/><g class="ternarylayer"/><g class="geolayer"/><g class="funnelarealayer"/><g class="pielayer"/><g class="iciclelayer"/><g class="treemaplayer"/><g class="sunburstlayer"/><g class="glimages"/><defs id="topdefs-7f7eec"><g class="clips"/></defs><g class="layer-above"><g class="imagelayer"/><g class="shapelayer"/></g><g class="infolayer"><g class="g-gtitle"><text class="gtitle" x="35" y="50" text-anchor="start" dy="0em" style="font-family: 'Open Sans', verdana, arial, sans-serif; font-size: 17px; fill: rgb(42, 63, 95); opacity: 1; font-weight: normal; white-space: pre;"><tspan class="line" dy="0em" x="35" y="50">Perpetual Protocol</tspan><tspan class="line" dy="1.3em" x="35" y="50">​<tspan style="font-size:70%" dy="-0.6em">Cumulative Net Flows since Program Announcement, Until Program End + 30 Days</tspan><tspan dy="0.42em">​</tspan></tspan></text></g><g class="g-xtitle"><text class="xtitle" x="350" y="460.8" text-anchor="middle" style="font-family: 'Open Sans', verdana, arial, sans-serif; font-size: 14px; fill: rgb(42, 63, 95); opacity: 1; font-weight: normal; white-space: pre;">Day</text></g><g class="g-ytitle"><text class="ytitle" transform="rotate(-90,17.168750000000003,260)" x="17.168750000000003" y="260" text-anchor="middle" style="font-family: 'Open Sans', verdana, arial, sans-serif; font-size: 14px; fill: rgb(42, 63, 95); opacity: 1; font-weight: normal; white-space: pre;">Cumulative Net Flows (USD)</text></g></g></svg>