<svg class="main-svg" xmlns="http://www.w3.org/2000/svg" xmlns:xlink="http://www.w3.org/1999/xlink" width="700" height="500" style="" viewBox="0 0 700 500"><rect x="0" y="0" width="700" height="500" style="fill: rgb(255, 255, 255); fill-opacity: 1;"/><defs id="defs-c353d7"><g class="clips"><clipPath id="clipc353d7xyplot" class="plotclip"><rect width="540" height="320"/></clipPath><clipPath class="axesclip" id="clipc353d7x"><rect x="80" y="0" width="540" height="500"/></clipPath><clipPath class="axesclip" id="clipc353d7y"><rect x="0" y="100" width="700" height="320"/></clipPath><clipPath class="axesclip" id="clipc353d7xy"><rect x="80" y="100" width="540" height="320"/></clipPath></g><g class="gradients"/><g class="patterns"/></defs><g class="bglayer"><rect class="bg" x="80" y="100" width="540" height="320" style="fill: rgb(229, 236, 246); fill-opacity: 1; stroke-width: 0;"/></g><g class="layer-below"><g class="imagelayer"/><g class="shapelayer"/></g><g class="cartesianlayer"><g class="subplot xy"><g class="layer-subplot"><g class="shapelayer"/><g class="imagelayer"/></g><g class="minor-gridlayer"><g class="x"/><g class="y"/></g><g class="gridlayer"><g class="x"><path class="xgrid crisp" transform="translate(96.88,0)" d="M0,100v320" style="stroke: rgb(255, 255, 255); stroke-opacity: 1; stroke-width: 1px;"/><path class="xgrid crisp" transform="translate(227.66,0)" d="M0,100v320" style="stroke: rgb(255, 255, 255); stroke-opacity: 1; stroke-width: 1px;"/><path class="xgrid crisp" transform="translate(354.22,0)" d="M0,100v320" style="stroke: rgb(255, 255, 255); stroke-opacity: 1; stroke-width: 1px;"/><path class="xgrid crisp" transform="translate(485,0)" d="M0,100v320" style="stroke: rgb(255, 255, 255); stroke-opacity: 1; stroke-width: 1px;"/><path class="xgrid crisp" transform="translate(615.78,0)" d="M0,100v320" style="stroke: rgb(255, 255, 255); stroke-opacity: 1; stroke-width: 1px;"/></g><g class="y"><path class="ygrid crisp" transform="translate(0,333.98)" d="M80,0h540" style="stroke: rgb(255, 255, 255); stroke-opacity: 1; stroke-width: 1px;"/><path class="ygrid crisp" transform="translate(0,285.57)" d="M80,0h540" style="stroke: rgb(255, 255, 255); stroke-opacity: 1; stroke-width: 1px;"/><path class="ygrid crisp" transform="translate(0,237.17)" d="M80,0h540" style="stroke: rgb(255, 255, 255); stroke-opacity: 1; stroke-width: 1px;"/><path class="ygrid crisp" transform="translate(0,188.76)" d="M80,0h540" style="stroke: rgb(255, 255, 255); stroke-opacity: 1; stroke-width: 1px;"/><path class="ygrid crisp" transform="translate(0,140.36)" d="M80,0h540" style="stroke: rgb(255, 255, 255); stroke-opacity: 1; stroke-width: 1px;"/></g></g><g class="zerolinelayer"><path class="yzl zl crisp" transform="translate(0,382.38)" d="M80,0h540" style="stroke: rgb(255, 255, 255); stroke-opacity: 1; stroke-width: 2px;"/></g><path class="xlines-below"/><path class="ylines-below"/><g class="overlines-below"/><g class="xaxislayer-below"/><g class="yaxislayer-below"/><g class="overaxes-below"/><g class="plot" transform="translate(80,100)" clip-path="url(#clipc353d7xyplot)"><g class="scatterlayer mlayer"><g class="trace scatter trace31f5d7" style="stroke-miterlimit: 2;"><g class="fills"><g><path class="js-fill" d="M540,282.38L0,282.38L0,296.67L4.22,296.69L8.44,295.02L12.66,294.37L16.88,292.63L25.31,292.89L29.53,289.4L33.75,276.93L37.97,277.39L42.19,288.74L46.41,276.65L50.63,278.3L54.84,278.36L63.28,278.77L67.5,272.34L71.72,257.22L75.94,254.98L80.16,254.98L84.38,258.91L88.59,234.49L92.81,234.19L97.03,233.9L101.25,240.76L105.47,241.6L109.69,236.95L113.91,238.18L118.13,241.17L122.34,255.73L126.56,247.35L130.78,234.28L135,230.97L139.22,232.36L143.44,231.47L147.66,228.96L151.88,230.3L168.75,229.8L172.97,227.77L177.19,264.22L181.41,267.82L185.63,301.9L189.84,297.62L198.28,300.43L202.5,304L206.72,274.26L210.94,270.56L215.16,283.52L219.38,279.62L223.59,277.15L227.81,278.39L232.03,281.59L236.25,281.95L240.47,286.04L244.69,284.65L248.91,281.51L253.13,266.08L257.34,264.89L261.56,281.05L265.78,282.3L270,280.06L274.22,258.06L278.44,251.38L282.66,251.21L286.88,252.63L291.09,246.68L295.31,244.3L299.53,231.29L303.75,230.56L307.97,223.21L312.19,244.15L316.41,171.01L320.63,208.7L324.84,209.81L329.06,224.83L333.28,270.93L337.5,270.66L341.72,289.87L345.94,292.65L350.16,291.15L354.38,272.17L358.59,272L362.81,277.08L367.03,278.12L371.25,277.88L379.69,278.95L383.91,279.82L388.13,282.92L392.34,283.18L396.56,283.29L400.78,282.46L413.44,282.31L417.66,284.05L421.88,283.35L426.09,290.09L430.31,282.18L434.53,281.59L438.75,271.4L442.97,268.78L447.19,268.38L451.41,264.77L455.63,260.2L459.84,258.39L464.06,259.38L468.28,259.07L472.5,250.43L476.72,248.94L485.16,211.1L489.38,203.42L493.59,215.41L497.81,188.71L502.03,160.49L506.25,151.03L514.69,88.47L518.91,75.97L523.13,75.96L527.34,67.35L531.56,37.26L535.78,28.82L540,16" style="fill: rgb(99, 110, 250); fill-opacity: 0.5; stroke-width: 0;"/></g></g><g class="errorbars"/><g class="lines"><path class="js-line" d="M0,296.67L4.22,296.69L8.44,295.02L12.66,294.37L16.88,292.63L25.31,292.89L29.53,289.4L33.75,276.93L37.97,277.39L42.19,288.74L46.41,276.65L50.63,278.3L54.84,278.36L63.28,278.77L67.5,272.34L71.72,257.22L75.94,254.98L80.16,254.98L84.38,258.91L88.59,234.49L92.81,234.19L97.03,233.9L101.25,240.76L105.47,241.6L109.69,236.95L113.91,238.18L118.13,241.17L122.34,255.73L126.56,247.35L130.78,234.28L135,230.97L139.22,232.36L143.44,231.47L147.66,228.96L151.88,230.3L168.75,229.8L172.97,227.77L177.19,264.22L181.41,267.82L185.63,301.9L189.84,297.62L198.28,300.43L202.5,304L206.72,274.26L210.94,270.56L215.16,283.52L219.38,279.62L223.59,277.15L227.81,278.39L232.03,281.59L236.25,281.95L240.47,286.04L244.69,284.65L248.91,281.51L253.13,266.08L257.34,264.89L261.56,281.05L265.78,282.3L270,280.06L274.22,258.06L278.44,251.38L282.66,251.21L286.88,252.63L291.09,246.68L295.31,244.3L299.53,231.29L303.75,230.56L307.97,223.21L312.19,244.15L316.41,171.01L320.63,208.7L324.84,209.81L329.06,224.83L333.28,270.93L337.5,270.66L341.72,289.87L345.94,292.65L350.16,291.15L354.38,272.17L358.59,272L362.81,277.08L367.03,278.12L371.25,277.88L379.69,278.95L383.91,279.82L388.13,282.92L392.34,283.18L396.56,283.29L400.78,282.46L413.44,282.31L417.66,284.05L421.88,283.35L426.09,290.09L430.31,282.18L434.53,281.59L438.75,271.4L442.97,268.78L447.19,268.38L451.41,264.77L455.63,260.2L459.84,258.39L464.06,259.38L468.28,259.07L472.5,250.43L476.72,248.94L485.16,211.1L489.38,203.42L493.59,215.41L497.81,188.71L502.03,160.49L506.25,151.03L514.69,88.47L518.91,75.97L523.13,75.96L527.34,67.35L531.56,37.26L535.78,28.82L540,16" style="vector-effect: non-scaling-stroke; fill: none; stroke: rgb(99, 110, 250); stroke-opacity: 1; stroke-width: 2px; opacity: 1;"/></g><g class="points"/><g class="text"/></g></g></g><g class="overplot"/><path class="xlines-above crisp" d="M0,0" style="fill: none;"/><path class="ylines-above crisp" d="M0,0" style="fill: none;"/><g class="overlines-above"/><g class="xaxislayer-above"><g class="xtick"><text text-anchor="middle" x="0" y="433" transform="translate(96.88,0)" style="font-family: 'Open Sans', verdana, arial, sans-serif; font-size: 12px; fill: rgb(42, 63, 95); fill-opacity: 1; white-space: pre; opacity: 1;">Oct 2022</text></g><g class="xtick"><text text-anchor="middle" x="0" y="433" style="font-family: 'Open Sans', verdana, arial, sans-serif; font-size: 12px; fill: rgb(42, 63, 95); fill-opacity: 1; white-space: pre; opacity: 1;" transform="translate(227.66,0)">Nov 2022</text></g><g class="xtick"><text text-anchor="middle" x="0" y="433" style="font-family: 'Open Sans', verdana, arial, sans-serif; font-size: 12px; fill: rgb(42, 63, 95); fill-opacity: 1; white-space: pre; opacity: 1;" transform="translate(354.22,0)">Dec 2022</text></g><g class="xtick"><text text-anchor="middle" x="0" y="433" style="font-family: 'Open Sans', verdana, arial, sans-serif; font-size: 12px; fill: rgb(42, 63, 95); fill-opacity: 1; white-space: pre; opacity: 1;" transform="translate(485,0)">Jan 2023</text></g><g class="xtick"><text text-anchor="middle" x="0" y="433" style="font-family: 'Open Sans', verdana, arial, sans-serif; font-size: 12px; fill: rgb(42, 63, 95); fill-opacity: 1; white-space: pre; opacity: 1;" transform="translate(615.78,0)">Feb 2023</text></g></g><g class="yaxislayer-above"><g class="ytick"><text text-anchor="end" x="79" y="4.199999999999999" transform="translate(0,382.38)" style="font-family: 'Open Sans', verdana, arial, sans-serif; font-size: 12px; fill: rgb(42, 63, 95); fill-opacity: 1; white-space: pre; opacity: 1;">$0</text></g><g class="ytick"><text text-anchor="end" x="79" y="4.199999999999999" style="font-family: 'Open Sans', verdana, arial, sans-serif; font-size: 12px; fill: rgb(42, 63, 95); fill-opacity: 1; white-space: pre; opacity: 1;" transform="translate(0,333.98)">$2M</text></g><g class="ytick"><text text-anchor="end" x="79" y="4.199999999999999" style="font-family: 'Open Sans', verdana, arial, sans-serif; font-size: 12px; fill: rgb(42, 63, 95); fill-opacity: 1; white-space: pre; opacity: 1;" transform="translate(0,285.57)">$4M</text></g><g class="ytick"><text text-anchor="end" x="79" y="4.199999999999999" style="font-family: 'Open Sans', verdana, arial, sans-serif; font-size: 12px; fill: rgb(42, 63, 95); fill-opacity: 1; white-space: pre; opacity: 1;" transform="translate(0,237.17)">$6M</text></g><g class="ytick"><text text-anchor="end" x="79" y="4.199999999999999" style="font-family: 'Open Sans', verdana, arial, sans-serif; font-size: 12px; fill: rgb(42, 63, 95); fill-opacity: 1; white-space: pre; opacity: 1;" transform="translate(0,188.76)">$8M</text></g><g class="ytick"><text text-anchor="end" x="79" y="4.199999999999999" style="font-family: 'Open Sans', verdana, arial, sans-serif; font-size: 12px; fill: rgb(42, 63, 95); fill-opacity: 1; white-space: pre; opacity: 1;" transform="translate(0,140.36)">$10M</text></g></g><g class="overaxes-above"/></g></g><g class="polarlayer"/><g class="smithlayer"/><g class="ternarylayer"/><g class="geolayer"/><g class="funnelarealayer"/><g class="pielayer"/><g class="iciclelayer"/><g class="treemaplayer"/><g class="sunburstlayer"/><g class="glimages"/><defs id="topdefs-c353d7"><g class="clips"/></defs><g class="layer-above"><g class="imagelayer"/><g class="shapelayer"/></g><g class="infolayer"><g class="g-gtitle"><text class="gtitle" x="35" y="50" text-anchor="start" dy="0em" style="font-family: 'Open Sans', verdana, arial, sans-serif; font-size: 17px; fill: rgb(42, 63, 95); opacity: 1; font-weight: normal; white-space: pre;"><tspan class="line" dy="0em" x="35" y="50">Synthetix - USDC/sUSD: Velo</tspan><tspan class="line" dy="1.3em" x="35" y="50">​<tspan style="font-size:70%" dy="-0.6em">Cumulative Net Dollar Flow since Program Announcement, Until Program End + 30 Days</tspan><tspan dy="0.42em">​</tspan></tspan></text></g><g class="g-xtitle"><text class="xtitle" x="350" y="460.3" text-anchor="middle" style="font-family: 'Open Sans', verdana, arial, sans-serif; font-size: 14px; fill: rgb(42, 63, 95); opacity: 1; font-weight: normal; white-space: pre;">Day</text></g><g class="g-ytitle"><text class="ytitle" transform="rotate(-90,21.200000000000003,260)" x="21.200000000000003" y="260" text-anchor="middle" style="font-family: 'Open Sans', verdana, arial, sans-serif; font-size: 14px; fill: rgb(42, 63, 95); opacity: 1; font-weight: normal; white-space: pre;">Cumulative Net Dollar Flow (N$F)</text></g></g></svg>