<svg class="main-svg" xmlns="http://www.w3.org/2000/svg" xmlns:xlink="http://www.w3.org/1999/xlink" width="700" height="500" style="" viewBox="0 0 700 500"><rect x="0" y="0" width="700" height="500" style="fill: rgb(255, 255, 255); fill-opacity: 1;"/><defs id="defs-35d01a"><g class="clips"><clipPath id="clip35d01axyplot" class="plotclip"><rect width="540" height="320"/></clipPath><clipPath class="axesclip" id="clip35d01ax"><rect x="80" y="0" width="540" height="500"/></clipPath><clipPath class="axesclip" id="clip35d01ay"><rect x="0" y="100" width="700" height="320"/></clipPath><clipPath class="axesclip" id="clip35d01axy"><rect x="80" y="100" width="540" height="320"/></clipPath></g><g class="gradients"/><g class="patterns"/></defs><g class="bglayer"><rect class="bg" x="80" y="100" width="540" height="320" style="fill: rgb(229, 236, 246); fill-opacity: 1; stroke-width: 0;"/></g><g class="layer-below"><g class="imagelayer"/><g class="shapelayer"/></g><g class="cartesianlayer"><g class="subplot xy"><g class="layer-subplot"><g class="shapelayer"/><g class="imagelayer"/></g><g class="minor-gridlayer"><g class="x"/><g class="y"/></g><g class="gridlayer"><g class="x"><path class="xgrid crisp" transform="translate(91.68,0)" d="M0,100v320" style="stroke: rgb(255, 255, 255); stroke-opacity: 1; stroke-width: 1px;"/><path class="xgrid crisp" transform="translate(182.16,0)" d="M0,100v320" style="stroke: rgb(255, 255, 255); stroke-opacity: 1; stroke-width: 1px;"/><path class="xgrid crisp" transform="translate(269.73,0)" d="M0,100v320" style="stroke: rgb(255, 255, 255); stroke-opacity: 1; stroke-width: 1px;"/><path class="xgrid crisp" transform="translate(360.22,0)" d="M0,100v320" style="stroke: rgb(255, 255, 255); stroke-opacity: 1; stroke-width: 1px;"/><path class="xgrid crisp" transform="translate(450.7,0)" d="M0,100v320" style="stroke: rgb(255, 255, 255); stroke-opacity: 1; stroke-width: 1px;"/><path class="xgrid crisp" transform="translate(532.4300000000001,0)" d="M0,100v320" style="stroke: rgb(255, 255, 255); stroke-opacity: 1; stroke-width: 1px;"/></g><g class="y"><path class="ygrid crisp" transform="translate(0,373.19)" d="M80,0h540" style="stroke: rgb(255, 255, 255); stroke-opacity: 1; stroke-width: 1px;"/><path class="ygrid crisp" transform="translate(0,326.38)" d="M80,0h540" style="stroke: rgb(255, 255, 255); stroke-opacity: 1; stroke-width: 1px;"/><path class="ygrid crisp" transform="translate(0,279.57)" d="M80,0h540" style="stroke: rgb(255, 255, 255); stroke-opacity: 1; stroke-width: 1px;"/><path class="ygrid crisp" transform="translate(0,232.76)" d="M80,0h540" style="stroke: rgb(255, 255, 255); stroke-opacity: 1; stroke-width: 1px;"/><path class="ygrid crisp" transform="translate(0,185.95)" d="M80,0h540" style="stroke: rgb(255, 255, 255); stroke-opacity: 1; stroke-width: 1px;"/><path class="ygrid crisp" transform="translate(0,139.14)" d="M80,0h540" style="stroke: rgb(255, 255, 255); stroke-opacity: 1; stroke-width: 1px;"/></g></g><g class="zerolinelayer"><path class="yzl zl crisp" transform="translate(0,420)" d="M80,0h540" style="stroke: rgb(255, 255, 255); stroke-opacity: 1; stroke-width: 2px;"/></g><path class="xlines-below"/><path class="ylines-below"/><g class="overlines-below"/><g class="xaxislayer-below"/><g class="yaxislayer-below"/><g class="overaxes-below"/><g class="plot" transform="translate(80,100)" clip-path="url(#clip35d01axyplot)"><g class="scatterlayer mlayer"><g class="trace scatter trace4a7244" style="stroke-miterlimit: 2;"><g class="fills"><g><path class="js-fill" d="M540,320L0,320L0,274.53L2.92,273.61L5.84,265.78L11.68,264.82L14.59,261.48L17.51,260.79L20.43,258.51L23.35,251.28L26.27,253.91L29.19,252.01L32.11,251.38L35.03,251.69L37.95,250.96L40.86,253.81L43.78,255.06L46.7,257.67L49.62,256.06L55.46,255.87L58.38,254.14L75.89,253.96L78.81,253.95L81.73,255.17L84.65,254.47L93.41,252.31L96.32,252.19L102.16,251.38L105.08,250.17L108,246.45L110.92,245.66L113.84,245.44L116.76,243.63L119.68,239.19L122.59,239.72L125.51,239.85L128.43,242.45L131.35,244.75L134.27,248.61L137.19,251.63L140.11,251.44L145.95,252.15L148.86,246.38L151.78,248.33L154.7,248.49L163.46,245.22L166.38,245.74L169.3,245.73L172.22,244.62L178.05,244.03L180.97,243.49L183.89,243.95L186.81,242.84L195.57,242.65L198.49,242.45L201.41,242.53L204.32,247.12L207.24,248L210.16,247.52L218.92,245.43L221.84,240.62L224.76,237.1L227.68,236.7L230.59,244.68L233.51,244.58L239.35,244.62L242.27,243.67L245.19,242.35L248.11,242.21L253.95,241.08L256.86,241.17L265.62,240.65L268.54,241.87L286.05,241.77L288.97,242.87L294.81,242.62L297.73,242.62L306.49,242.58L309.41,240.9L312.32,239.93L315.24,237.8L321.08,236.89L324,235.72L329.84,229.43L332.76,227.29L335.68,226.43L338.59,217.99L341.51,214.89L344.43,213.87L347.35,204.73L350.27,198.92L353.19,190.61L356.11,190.33L361.95,185.18L364.86,184.62L367.78,185.14L370.7,183.59L376.54,181.77L379.46,182.97L382.38,182.46L385.3,179.81L388.22,161.27L391.14,151.72L399.89,150.79L402.81,150.51L405.73,150.62L408.65,145.38L411.57,141.73L414.49,129.67L417.41,127.39L420.32,130.32L423.24,126.5L426.16,121.44L429.08,88.2L432,85.27L434.92,85.37L437.84,65.81L440.76,60.68L443.68,35.82L446.59,28.11L449.51,28.16L455.35,25.96L458.27,28.11L461.19,28.82L464.11,31.03L467.03,36.16L469.95,26.54L472.86,16L475.78,18.17L478.7,22.41L481.62,62.73L484.54,70.26L487.46,59.66L490.38,54.18L493.3,57.15L496.22,63.48L499.14,63.49L502.05,59.95L504.97,61.96L507.89,58.54L510.81,61.88L513.73,60.17L516.65,69.49L519.57,71.21L522.49,74.24L528.32,81.88L531.24,82.4L534.16,82.6L537.08,98.97L540,98.96" style="fill: rgb(99, 110, 250); fill-opacity: 0.5; stroke-width: 0;"/></g></g><g class="errorbars"/><g class="lines"><path class="js-line" d="M0,274.53L2.92,273.61L5.84,265.78L11.68,264.82L14.59,261.48L17.51,260.79L20.43,258.51L23.35,251.28L26.27,253.91L29.19,252.01L32.11,251.38L35.03,251.69L37.95,250.96L40.86,253.81L43.78,255.06L46.7,257.67L49.62,256.06L55.46,255.87L58.38,254.14L75.89,253.96L78.81,253.95L81.73,255.17L84.65,254.47L93.41,252.31L96.32,252.19L102.16,251.38L105.08,250.17L108,246.45L110.92,245.66L113.84,245.44L116.76,243.63L119.68,239.19L122.59,239.72L125.51,239.85L128.43,242.45L131.35,244.75L134.27,248.61L137.19,251.63L140.11,251.44L145.95,252.15L148.86,246.38L151.78,248.33L154.7,248.49L163.46,245.22L166.38,245.74L169.3,245.73L172.22,244.62L178.05,244.03L180.97,243.49L183.89,243.95L186.81,242.84L195.57,242.65L198.49,242.45L201.41,242.53L204.32,247.12L207.24,248L210.16,247.52L218.92,245.43L221.84,240.62L224.76,237.1L227.68,236.7L230.59,244.68L233.51,244.58L239.35,244.62L242.27,243.67L245.19,242.35L248.11,242.21L253.95,241.08L256.86,241.17L265.62,240.65L268.54,241.87L286.05,241.77L288.97,242.87L294.81,242.62L297.73,242.62L306.49,242.58L309.41,240.9L312.32,239.93L315.24,237.8L321.08,236.89L324,235.72L329.84,229.43L332.76,227.29L335.68,226.43L338.59,217.99L341.51,214.89L344.43,213.87L347.35,204.73L350.27,198.92L353.19,190.61L356.11,190.33L361.95,185.18L364.86,184.62L367.78,185.14L370.7,183.59L376.54,181.77L379.46,182.97L382.38,182.46L385.3,179.81L388.22,161.27L391.14,151.72L399.89,150.79L402.81,150.51L405.73,150.62L408.65,145.38L411.57,141.73L414.49,129.67L417.41,127.39L420.32,130.32L423.24,126.5L426.16,121.44L429.08,88.2L432,85.27L434.92,85.37L437.84,65.81L440.76,60.68L443.68,35.82L446.59,28.11L449.51,28.16L455.35,25.96L458.27,28.11L461.19,28.82L464.11,31.03L467.03,36.16L469.95,26.54L472.86,16L475.78,18.17L478.7,22.41L481.62,62.73L484.54,70.26L487.46,59.66L490.38,54.18L493.3,57.15L496.22,63.48L499.14,63.49L502.05,59.95L504.97,61.96L507.89,58.54L510.81,61.88L513.73,60.17L516.65,69.49L519.57,71.21L522.49,74.24L528.32,81.88L531.24,82.4L534.16,82.6L537.08,98.97L540,98.96" style="vector-effect: non-scaling-stroke; fill: none; stroke: rgb(99, 110, 250); stroke-opacity: 1; stroke-width: 2px; opacity: 1;"/></g><g class="points"/><g class="text"/></g></g></g><g class="overplot"/><path class="xlines-above crisp" d="M0,0" style="fill: none;"/><path class="ylines-above crisp" d="M0,0" style="fill: none;"/><g class="overlines-above"/><g class="xaxislayer-above"><g class="xtick"><text text-anchor="middle" x="0" y="433" transform="translate(91.68,0)" style="font-family: 'Open Sans', verdana, arial, sans-serif; font-size: 12px; fill: rgb(42, 63, 95); fill-opacity: 1; white-space: pre; opacity: 1;">Oct 2022</text></g><g class="xtick"><text text-anchor="middle" x="0" y="433" style="font-family: 'Open Sans', verdana, arial, sans-serif; font-size: 12px; fill: rgb(42, 63, 95); fill-opacity: 1; white-space: pre; opacity: 1;" transform="translate(182.16,0)">Nov 2022</text></g><g class="xtick"><text text-anchor="middle" x="0" y="433" style="font-family: 'Open Sans', verdana, arial, sans-serif; font-size: 12px; fill: rgb(42, 63, 95); fill-opacity: 1; white-space: pre; opacity: 1;" transform="translate(269.73,0)">Dec 2022</text></g><g class="xtick"><text text-anchor="middle" x="0" y="433" style="font-family: 'Open Sans', verdana, arial, sans-serif; font-size: 12px; fill: rgb(42, 63, 95); fill-opacity: 1; white-space: pre; opacity: 1;" transform="translate(360.22,0)">Jan 2023</text></g><g class="xtick"><text text-anchor="middle" x="0" y="433" style="font-family: 'Open Sans', verdana, arial, sans-serif; font-size: 12px; fill: rgb(42, 63, 95); fill-opacity: 1; white-space: pre; opacity: 1;" transform="translate(450.7,0)">Feb 2023</text></g><g class="xtick"><text text-anchor="middle" x="0" y="433" style="font-family: 'Open Sans', verdana, arial, sans-serif; font-size: 12px; fill: rgb(42, 63, 95); fill-opacity: 1; white-space: pre; opacity: 1;" transform="translate(532.4300000000001,0)">Mar 2023</text></g></g><g class="yaxislayer-above"><g class="ytick"><text text-anchor="end" x="79" y="4.199999999999999" transform="translate(0,420)" style="font-family: 'Open Sans', verdana, arial, sans-serif; font-size: 12px; fill: rgb(42, 63, 95); fill-opacity: 1; white-space: pre; opacity: 1;">$0</text></g><g class="ytick"><text text-anchor="end" x="79" y="4.199999999999999" style="font-family: 'Open Sans', verdana, arial, sans-serif; font-size: 12px; fill: rgb(42, 63, 95); fill-opacity: 1; white-space: pre; opacity: 1;" transform="translate(0,373.19)">$5M</text></g><g class="ytick"><text text-anchor="end" x="79" y="4.199999999999999" style="font-family: 'Open Sans', verdana, arial, sans-serif; font-size: 12px; fill: rgb(42, 63, 95); fill-opacity: 1; white-space: pre; opacity: 1;" transform="translate(0,326.38)">$10M</text></g><g class="ytick"><text text-anchor="end" x="79" y="4.199999999999999" style="font-family: 'Open Sans', verdana, arial, sans-serif; font-size: 12px; fill: rgb(42, 63, 95); fill-opacity: 1; white-space: pre; opacity: 1;" transform="translate(0,279.57)">$15M</text></g><g class="ytick"><text text-anchor="end" x="79" y="4.199999999999999" style="font-family: 'Open Sans', verdana, arial, sans-serif; font-size: 12px; fill: rgb(42, 63, 95); fill-opacity: 1; white-space: pre; opacity: 1;" transform="translate(0,232.76)">$20M</text></g><g class="ytick"><text text-anchor="end" x="79" y="4.199999999999999" style="font-family: 'Open Sans', verdana, arial, sans-serif; font-size: 12px; fill: rgb(42, 63, 95); fill-opacity: 1; white-space: pre; opacity: 1;" transform="translate(0,185.95)">$25M</text></g><g class="ytick"><text text-anchor="end" x="79" y="4.199999999999999" style="font-family: 'Open Sans', verdana, arial, sans-serif; font-size: 12px; fill: rgb(42, 63, 95); fill-opacity: 1; white-space: pre; opacity: 1;" transform="translate(0,139.14)">$30M</text></g></g><g class="overaxes-above"/></g></g><g class="polarlayer"/><g class="smithlayer"/><g class="ternarylayer"/><g class="geolayer"/><g class="funnelarealayer"/><g class="pielayer"/><g class="iciclelayer"/><g class="treemaplayer"/><g class="sunburstlayer"/><g class="glimages"/><defs id="topdefs-35d01a"><g class="clips"/></defs><g class="layer-above"><g class="imagelayer"/><g class="shapelayer"/></g><g class="infolayer"><g class="g-gtitle"><text class="gtitle" x="35" y="50" text-anchor="start" dy="0em" style="font-family: 'Open Sans', verdana, arial, sans-serif; font-size: 17px; fill: rgb(42, 63, 95); opacity: 1; font-weight: normal; white-space: pre;"><tspan class="line" dy="0em" x="35" y="50">Synthetix - ETH/sETH: Velodrome</tspan><tspan class="line" dy="1.3em" x="35" y="50">​<tspan style="font-size:70%" dy="-0.6em">Cumulative Net Flows since Program Announcement, Until Program End + 30 Days</tspan><tspan dy="0.42em">​</tspan></tspan></text></g><g class="g-xtitle"><text class="xtitle" x="350" y="460.8" text-anchor="middle" style="font-family: 'Open Sans', verdana, arial, sans-serif; font-size: 14px; fill: rgb(42, 63, 95); opacity: 1; font-weight: normal; white-space: pre;">Day</text></g><g class="g-ytitle"><text class="ytitle" transform="rotate(-90,24.168750000000003,260)" x="24.168750000000003" y="260" text-anchor="middle" style="font-family: 'Open Sans', verdana, arial, sans-serif; font-size: 14px; fill: rgb(42, 63, 95); opacity: 1; font-weight: normal; white-space: pre;">Cumulative Net Flows (USD)</text></g></g></svg>