<svg class="main-svg" xmlns="http://www.w3.org/2000/svg" xmlns:xlink="http://www.w3.org/1999/xlink" width="700" height="500" style="" viewBox="0 0 700 500"><rect x="0" y="0" width="700" height="500" style="fill: rgb(255, 255, 255); fill-opacity: 1;"/><defs id="defs-5e2866"><g class="clips"><clipPath id="clip5e2866xyplot" class="plotclip"><rect width="540" height="320"/></clipPath><clipPath class="axesclip" id="clip5e2866x"><rect x="80" y="0" width="540" height="500"/></clipPath><clipPath class="axesclip" id="clip5e2866y"><rect x="0" y="100" width="700" height="320"/></clipPath><clipPath class="axesclip" id="clip5e2866xy"><rect x="80" y="100" width="540" height="320"/></clipPath></g><g class="gradients"/><g class="patterns"/></defs><g class="bglayer"><rect class="bg" x="80" y="100" width="540" height="320" style="fill: rgb(229, 236, 246); fill-opacity: 1; stroke-width: 0;"/></g><g class="layer-below"><g class="imagelayer"/><g class="shapelayer"/></g><g class="cartesianlayer"><g class="subplot xy"><g class="layer-subplot"><g class="shapelayer"/><g class="imagelayer"/></g><g class="minor-gridlayer"><g class="x"/><g class="y"/></g><g class="gridlayer"><g class="x"><path class="xgrid crisp" transform="translate(97.14,0)" d="M0,100v320" style="stroke: rgb(255, 255, 255); stroke-opacity: 1; stroke-width: 1px;"/><path class="xgrid crisp" transform="translate(230,0)" d="M0,100v320" style="stroke: rgb(255, 255, 255); stroke-opacity: 1; stroke-width: 1px;"/><path class="xgrid crisp" transform="translate(358.57,0)" d="M0,100v320" style="stroke: rgb(255, 255, 255); stroke-opacity: 1; stroke-width: 1px;"/><path class="xgrid crisp" transform="translate(491.43,0)" d="M0,100v320" style="stroke: rgb(255, 255, 255); stroke-opacity: 1; stroke-width: 1px;"/></g><g class="y"><path class="ygrid crisp" transform="translate(0,357.2)" d="M80,0h540" style="stroke: rgb(255, 255, 255); stroke-opacity: 1; stroke-width: 1px;"/><path class="ygrid crisp" transform="translate(0,294.4)" d="M80,0h540" style="stroke: rgb(255, 255, 255); stroke-opacity: 1; stroke-width: 1px;"/><path class="ygrid crisp" transform="translate(0,231.6)" d="M80,0h540" style="stroke: rgb(255, 255, 255); stroke-opacity: 1; stroke-width: 1px;"/><path class="ygrid crisp" transform="translate(0,168.8)" d="M80,0h540" style="stroke: rgb(255, 255, 255); stroke-opacity: 1; stroke-width: 1px;"/><path class="ygrid crisp" transform="translate(0,106)" d="M80,0h540" style="stroke: rgb(255, 255, 255); stroke-opacity: 1; stroke-width: 1px;"/></g></g><g class="zerolinelayer"><path class="yzl zl crisp" transform="translate(0,420)" d="M80,0h540" style="stroke: rgb(255, 255, 255); stroke-opacity: 1; stroke-width: 2px;"/></g><path class="xlines-below"/><path class="ylines-below"/><g class="overlines-below"/><g class="xaxislayer-below"/><g class="yaxislayer-below"/><g class="overaxes-below"/><g class="plot" transform="translate(80,100)" clip-path="url(#clip5e2866xyplot)"><g class="scatterlayer mlayer"><g class="trace scatter trace719480" style="stroke-miterlimit: 2;"><g class="fills"><g><path class="js-fill" d="M540,320L0,320L0,318.52L4.29,315.45L8.57,289.18L12.86,286.25L17.14,285.97L21.43,274.75L25.71,272.44L30,264.81L34.29,240.55L38.57,249.38L42.86,242.99L47.14,240.9L51.43,241.92L55.71,239.47L60,249.03L64.29,253.23L68.57,261.99L72.86,256.58L77.14,256.02L81.43,255.94L85.71,250.14L90,249.67L94.29,251.65L102.86,249.22L107.14,249.9L115.71,249.49L120,253.6L128.57,248.19L132.86,245.59L137.14,244.01L141.43,243.61L150,240.87L154.29,236.83L158.57,224.36L162.86,221.69L167.14,220.98L171.43,214.88L175.71,200L180,201.79L184.29,202.23L188.57,210.92L192.86,218.66L197.14,231.6L201.43,241.73L205.71,241.08L210,241.16L214.29,243.47L218.57,224.12L222.86,230.64L227.14,231.19L231.43,227.3L235.71,225.89L240,220.21L244.29,221.97L248.57,221.94L252.86,218.2L257.14,218.05L265.71,214.41L270,215.97L274.29,212.24L278.57,212.64L291.43,210.93L295.71,211.21L300,226.59L304.29,229.55L308.57,227.95L312.86,224.84L317.14,221.81L321.43,220.91L325.71,204.79L330,192.99L334.29,191.65L338.57,218.43L347.14,218.36L351.43,218.21L355.71,215.03L360,210.59L364.29,210.12L368.57,207.12L372.86,206.36L377.14,206.63L385.71,206.44L390,204.9L394.29,208.99L398.57,209.06L411.43,208.54L415.71,208.43L420,208.65L424.29,212.36L428.57,210.69L432.86,211.52L450,211.37L454.29,205.72L458.57,202.49L462.86,195.33L471.43,192.3L475.71,188.36L484.29,167.26L488.57,160.08L492.86,157.21L497.14,128.91L501.43,118.5L505.71,115.09L510,84.42L514.29,64.93L518.57,37.05L522.86,36.14L531.43,18.85L535.71,16.98L540,16" style="fill: rgb(99, 110, 250); fill-opacity: 0.5; stroke-width: 0;"/></g></g><g class="errorbars"/><g class="lines"><path class="js-line" d="M0,318.52L4.29,315.45L8.57,289.18L12.86,286.25L17.14,285.97L21.43,274.75L25.71,272.44L30,264.81L34.29,240.55L38.57,249.38L42.86,242.99L47.14,240.9L51.43,241.92L55.71,239.47L60,249.03L64.29,253.23L68.57,261.99L72.86,256.58L77.14,256.02L81.43,255.94L85.71,250.14L90,249.67L94.29,251.65L102.86,249.22L107.14,249.9L115.71,249.49L120,253.6L128.57,248.19L132.86,245.59L137.14,244.01L141.43,243.61L150,240.87L154.29,236.83L158.57,224.36L162.86,221.69L167.14,220.98L171.43,214.88L175.71,200L180,201.79L184.29,202.23L188.57,210.92L192.86,218.66L197.14,231.6L201.43,241.73L205.71,241.08L210,241.16L214.29,243.47L218.57,224.12L222.86,230.64L227.14,231.19L231.43,227.3L235.71,225.89L240,220.21L244.29,221.97L248.57,221.94L252.86,218.2L257.14,218.05L265.71,214.41L270,215.97L274.29,212.24L278.57,212.64L291.43,210.93L295.71,211.21L300,226.59L304.29,229.55L308.57,227.95L312.86,224.84L317.14,221.81L321.43,220.91L325.71,204.79L330,192.99L334.29,191.65L338.57,218.43L347.14,218.36L351.43,218.21L355.71,215.03L360,210.59L364.29,210.12L368.57,207.12L372.86,206.36L377.14,206.63L385.71,206.44L390,204.9L394.29,208.99L398.57,209.06L411.43,208.54L415.71,208.43L420,208.65L424.29,212.36L428.57,210.69L432.86,211.52L450,211.37L454.29,205.72L458.57,202.49L462.86,195.33L471.43,192.3L475.71,188.36L484.29,167.26L488.57,160.08L492.86,157.21L497.14,128.91L501.43,118.5L505.71,115.09L510,84.42L514.29,64.93L518.57,37.05L522.86,36.14L531.43,18.85L535.71,16.98L540,16" style="vector-effect: non-scaling-stroke; fill: none; stroke: rgb(99, 110, 250); stroke-opacity: 1; stroke-width: 2px; opacity: 1;"/></g><g class="points"/><g class="text"/></g></g></g><g class="overplot"/><path class="xlines-above crisp" d="M0,0" style="fill: none;"/><path class="ylines-above crisp" d="M0,0" style="fill: none;"/><g class="overlines-above"/><g class="xaxislayer-above"><g class="xtick"><text text-anchor="middle" x="0" y="433" transform="translate(97.14,0)" style="font-family: 'Open Sans', verdana, arial, sans-serif; font-size: 12px; fill: rgb(42, 63, 95); fill-opacity: 1; white-space: pre; opacity: 1;">Oct 2022</text></g><g class="xtick"><text text-anchor="middle" x="0" y="433" style="font-family: 'Open Sans', verdana, arial, sans-serif; font-size: 12px; fill: rgb(42, 63, 95); fill-opacity: 1; white-space: pre; opacity: 1;" transform="translate(230,0)">Nov 2022</text></g><g class="xtick"><text text-anchor="middle" x="0" y="433" style="font-family: 'Open Sans', verdana, arial, sans-serif; font-size: 12px; fill: rgb(42, 63, 95); fill-opacity: 1; white-space: pre; opacity: 1;" transform="translate(358.57,0)">Dec 2022</text></g><g class="xtick"><text text-anchor="middle" x="0" y="433" style="font-family: 'Open Sans', verdana, arial, sans-serif; font-size: 12px; fill: rgb(42, 63, 95); fill-opacity: 1; white-space: pre; opacity: 1;" transform="translate(491.43,0)">Jan 2023</text></g></g><g class="yaxislayer-above"><g class="ytick"><text text-anchor="end" x="79" y="4.199999999999999" transform="translate(0,420)" style="font-family: 'Open Sans', verdana, arial, sans-serif; font-size: 12px; fill: rgb(42, 63, 95); fill-opacity: 1; white-space: pre; opacity: 1;">$0</text></g><g class="ytick"><text text-anchor="end" x="79" y="4.199999999999999" style="font-family: 'Open Sans', verdana, arial, sans-serif; font-size: 12px; fill: rgb(42, 63, 95); fill-opacity: 1; white-space: pre; opacity: 1;" transform="translate(0,357.2)">$2M</text></g><g class="ytick"><text text-anchor="end" x="79" y="4.199999999999999" style="font-family: 'Open Sans', verdana, arial, sans-serif; font-size: 12px; fill: rgb(42, 63, 95); fill-opacity: 1; white-space: pre; opacity: 1;" transform="translate(0,294.4)">$4M</text></g><g class="ytick"><text text-anchor="end" x="79" y="4.199999999999999" style="font-family: 'Open Sans', verdana, arial, sans-serif; font-size: 12px; fill: rgb(42, 63, 95); fill-opacity: 1; white-space: pre; opacity: 1;" transform="translate(0,231.6)">$6M</text></g><g class="ytick"><text text-anchor="end" x="79" y="4.199999999999999" style="font-family: 'Open Sans', verdana, arial, sans-serif; font-size: 12px; fill: rgb(42, 63, 95); fill-opacity: 1; white-space: pre; opacity: 1;" transform="translate(0,168.8)">$8M</text></g><g class="ytick"><text text-anchor="end" x="79" y="4.199999999999999" style="font-family: 'Open Sans', verdana, arial, sans-serif; font-size: 12px; fill: rgb(42, 63, 95); fill-opacity: 1; white-space: pre; opacity: 1;" transform="translate(0,106)">$10M</text></g></g><g class="overaxes-above"/></g></g><g class="polarlayer"/><g class="smithlayer"/><g class="ternarylayer"/><g class="geolayer"/><g class="funnelarealayer"/><g class="pielayer"/><g class="iciclelayer"/><g class="treemaplayer"/><g class="sunburstlayer"/><g class="glimages"/><defs id="topdefs-5e2866"><g class="clips"/></defs><g class="layer-above"><g class="imagelayer"/><g class="shapelayer"/></g><g class="infolayer"><g class="g-gtitle"><text class="gtitle" x="35" y="50" text-anchor="start" dy="0em" style="font-family: 'Open Sans', verdana, arial, sans-serif; font-size: 17px; fill: rgb(42, 63, 95); opacity: 1; font-weight: normal; white-space: pre;"><tspan class="line" dy="0em" x="35" y="50">Synthetix - ETH/sETH: Velo</tspan><tspan class="line" dy="1.3em" x="35" y="50">​<tspan style="font-size:70%" dy="-0.6em">Cumulative Net Dollar Flow since Program Announcement, Until Program End + 30 Days</tspan><tspan dy="0.42em">​</tspan></tspan></text></g><g class="g-xtitle"><text class="xtitle" x="350" y="460.8" text-anchor="middle" style="font-family: 'Open Sans', verdana, arial, sans-serif; font-size: 14px; fill: rgb(42, 63, 95); opacity: 1; font-weight: normal; white-space: pre;">Day</text></g><g class="g-ytitle"><text class="ytitle" transform="rotate(-90,24.168750000000003,260)" x="24.168750000000003" y="260" text-anchor="middle" style="font-family: 'Open Sans', verdana, arial, sans-serif; font-size: 14px; fill: rgb(42, 63, 95); opacity: 1; font-weight: normal; white-space: pre;">Cumulative Net Dollar Flow (N$F)</text></g></g></svg>