<svg class="main-svg" xmlns="http://www.w3.org/2000/svg" xmlns:xlink="http://www.w3.org/1999/xlink" width="700" height="500" style="" viewBox="0 0 700 500"><rect x="0" y="0" width="700" height="500" style="fill: rgb(255, 255, 255); fill-opacity: 1;"/><defs id="defs-73c7fd"><g class="clips"><clipPath id="clip73c7fdxyplot" class="plotclip"><rect width="540" height="320"/></clipPath><clipPath class="axesclip" id="clip73c7fdx"><rect x="80" y="0" width="540" height="500"/></clipPath><clipPath class="axesclip" id="clip73c7fdy"><rect x="0" y="100" width="700" height="320"/></clipPath><clipPath class="axesclip" id="clip73c7fdxy"><rect x="80" y="100" width="540" height="320"/></clipPath></g><g class="gradients"/><g class="patterns"/></defs><g class="bglayer"><rect class="bg" x="80" y="100" width="540" height="320" style="fill: rgb(229, 236, 246); fill-opacity: 1; stroke-width: 0;"/></g><g class="layer-below"><g class="imagelayer"/><g class="shapelayer"/></g><g class="cartesianlayer"><g class="subplot xy"><g class="layer-subplot"><g class="shapelayer"/><g class="imagelayer"/></g><g class="minor-gridlayer"><g class="x"/><g class="y"/></g><g class="gridlayer"><g class="x"><path class="xgrid crisp" transform="translate(129.89,0)" d="M0,100v320" style="stroke: rgb(255, 255, 255); stroke-opacity: 1; stroke-width: 1px;"/><path class="xgrid crisp" transform="translate(220.87,0)" d="M0,100v320" style="stroke: rgb(255, 255, 255); stroke-opacity: 1; stroke-width: 1px;"/><path class="xgrid crisp" transform="translate(308.90999999999997,0)" d="M0,100v320" style="stroke: rgb(255, 255, 255); stroke-opacity: 1; stroke-width: 1px;"/><path class="xgrid crisp" transform="translate(399.89,0)" d="M0,100v320" style="stroke: rgb(255, 255, 255); stroke-opacity: 1; stroke-width: 1px;"/><path class="xgrid crisp" transform="translate(487.93,0)" d="M0,100v320" style="stroke: rgb(255, 255, 255); stroke-opacity: 1; stroke-width: 1px;"/><path class="xgrid crisp" transform="translate(578.9100000000001,0)" d="M0,100v320" style="stroke: rgb(255, 255, 255); stroke-opacity: 1; stroke-width: 1px;"/></g><g class="y"><path class="ygrid crisp" transform="translate(0,396.1)" d="M80,0h540" style="stroke: rgb(255, 255, 255); stroke-opacity: 1; stroke-width: 1px;"/><path class="ygrid crisp" transform="translate(0,355.39)" d="M80,0h540" style="stroke: rgb(255, 255, 255); stroke-opacity: 1; stroke-width: 1px;"/><path class="ygrid crisp" transform="translate(0,314.68)" d="M80,0h540" style="stroke: rgb(255, 255, 255); stroke-opacity: 1; stroke-width: 1px;"/><path class="ygrid crisp" transform="translate(0,233.25)" d="M80,0h540" style="stroke: rgb(255, 255, 255); stroke-opacity: 1; stroke-width: 1px;"/><path class="ygrid crisp" transform="translate(0,192.54000000000002)" d="M80,0h540" style="stroke: rgb(255, 255, 255); stroke-opacity: 1; stroke-width: 1px;"/><path class="ygrid crisp" transform="translate(0,151.82999999999998)" d="M80,0h540" style="stroke: rgb(255, 255, 255); stroke-opacity: 1; stroke-width: 1px;"/><path class="ygrid crisp" transform="translate(0,111.12)" d="M80,0h540" style="stroke: rgb(255, 255, 255); stroke-opacity: 1; stroke-width: 1px;"/></g></g><g class="zerolinelayer"><path class="yzl zl crisp" transform="translate(0,273.97)" d="M80,0h540" style="stroke: rgb(255, 255, 255); stroke-opacity: 1; stroke-width: 2px;"/></g><path class="xlines-below"/><path class="ylines-below"/><g class="overlines-below"/><g class="xaxislayer-below"/><g class="yaxislayer-below"/><g class="overaxes-below"/><g class="plot" transform="translate(80,100)" clip-path="url(#clip73c7fdxyplot)"><g class="scatterlayer mlayer"><g class="trace scatter trace9310f3" style="stroke-miterlimit: 2;"><g class="fills"><g><path class="js-fill" d="M540,173.97L0,173.97L0,166.08L2.93,137.97L5.87,128.5L8.8,134.16L11.74,136.63L14.67,137.71L17.61,142.59L20.54,143.69L23.48,102.81L26.41,91L29.35,91.4L32.28,94.42L35.22,126.33L38.15,132.2L41.09,129.15L44.02,110.16L46.96,113.93L49.89,112.49L52.83,108.34L55.76,106.49L58.7,109.38L61.63,129.7L64.57,115.48L67.5,133.78L70.43,147.31L73.37,151.79L76.3,149.4L79.24,125.2L82.17,108.18L85.11,86.52L88.04,85.79L90.98,95.37L93.91,119.66L96.85,121.81L99.78,130.7L102.72,124.6L105.65,94.71L108.59,95.66L111.52,120.46L114.46,114.3L117.39,115.99L120.33,117.33L123.26,136.66L126.2,121.4L129.13,113.53L132.07,146.42L135,136.36L137.93,132.89L140.87,139.24L143.8,136.44L146.74,122.79L149.67,136.94L152.61,143.78L155.54,146.5L158.48,156.75L161.41,168.05L164.35,169.42L167.28,152.52L170.22,154.11L173.15,110.32L176.09,138.06L179.02,139.17L181.96,143.81L184.89,146.8L187.83,152.41L190.76,77.3L193.7,137.9L196.63,127.84L199.57,132.79L202.5,144.7L205.43,147.81L208.37,127.28L211.3,129.52L214.24,130.71L217.17,144.63L220.11,116.36L223.04,116.04L225.98,114.16L228.91,115.72L231.85,99.86L234.78,143.88L237.72,142.35L240.65,135.85L243.59,159.01L246.52,161.29L249.46,159.74L252.39,168.56L258.26,207.48L261.2,196.59L267.07,185.2L270,169.97L272.93,167.85L275.87,183.9L281.74,155.15L284.67,144.62L287.61,155.92L290.54,161.3L293.48,162.57L296.41,173.27L299.35,180.14L302.28,183.29L305.22,165.87L308.15,161.83L314.02,131.14L316.96,170.92L319.89,163.24L322.83,168.56L325.76,149.2L328.7,158.47L331.63,124.92L334.57,135.34L337.5,166.1L340.43,111.94L343.37,127.23L346.3,111.8L349.24,104.51L352.17,72.36L355.11,73.16L358.04,111.46L360.98,104.6L363.91,102.58L366.85,95.72L369.78,100.63L372.72,76.45L375.65,77.94L378.59,80.53L381.52,71.56L384.46,39.63L387.39,39.35L390.33,112.2L393.26,80.35L396.2,95.85L399.13,83.93L402.07,103.72L405,148.81L407.93,78.11L410.87,86.14L413.8,36.28L416.74,42L422.61,72.44L425.54,51.95L428.48,37.76L431.41,27.88L434.35,16L437.28,21.06L440.22,97.14L443.15,116.48L449.02,143.92L451.96,151.12L454.89,124.76L457.83,126.13L460.76,143.75L463.7,127.46L466.63,134.79L469.57,123.24L472.5,129.17L475.43,119.91L478.37,142.33L481.3,127.07L484.24,139.48L487.17,141.97L490.11,138.16L493.04,113.15L495.98,135.59L498.91,136.29L501.85,168.42L504.78,153.24L507.72,158.98L510.65,139.75L513.59,131.68L516.52,99.22L519.46,97.17L522.39,104.27L525.33,81.64L528.26,78.07L531.2,88.75L534.13,107.65L537.07,91.67L540,85.69L540,304" style="fill: rgb(99, 110, 250); fill-opacity: 0.5; stroke-width: 0;"/></g></g><g class="errorbars"/><g class="lines"><path class="js-line" d="M0,166.08L2.93,137.97L5.87,128.5L8.8,134.16L11.74,136.63L14.67,137.71L17.61,142.59L20.54,143.69L23.48,102.81L26.41,91L29.35,91.4L32.28,94.42L35.22,126.33L38.15,132.2L41.09,129.15L44.02,110.16L46.96,113.93L49.89,112.49L52.83,108.34L55.76,106.49L58.7,109.38L61.63,129.7L64.57,115.48L67.5,133.78L70.43,147.31L73.37,151.79L76.3,149.4L79.24,125.2L82.17,108.18L85.11,86.52L88.04,85.79L90.98,95.37L93.91,119.66L96.85,121.81L99.78,130.7L102.72,124.6L105.65,94.71L108.59,95.66L111.52,120.46L114.46,114.3L117.39,115.99L120.33,117.33L123.26,136.66L126.2,121.4L129.13,113.53L132.07,146.42L135,136.36L137.93,132.89L140.87,139.24L143.8,136.44L146.74,122.79L149.67,136.94L152.61,143.78L155.54,146.5L158.48,156.75L161.41,168.05L164.35,169.42L167.28,152.52L170.22,154.11L173.15,110.32L176.09,138.06L179.02,139.17L181.96,143.81L184.89,146.8L187.83,152.41L190.76,77.3L193.7,137.9L196.63,127.84L199.57,132.79L202.5,144.7L205.43,147.81L208.37,127.28L211.3,129.52L214.24,130.71L217.17,144.63L220.11,116.36L223.04,116.04L225.98,114.16L228.91,115.72L231.85,99.86L234.78,143.88L237.72,142.35L240.65,135.85L243.59,159.01L246.52,161.29L249.46,159.74L252.39,168.56L258.26,207.48L261.2,196.59L267.07,185.2L270,169.97L272.93,167.85L275.87,183.9L281.74,155.15L284.67,144.62L287.61,155.92L290.54,161.3L293.48,162.57L296.41,173.27L299.35,180.14L302.28,183.29L305.22,165.87L308.15,161.83L314.02,131.14L316.96,170.92L319.89,163.24L322.83,168.56L325.76,149.2L328.7,158.47L331.63,124.92L334.57,135.34L337.5,166.1L340.43,111.94L343.37,127.23L346.3,111.8L349.24,104.51L352.17,72.36L355.11,73.16L358.04,111.46L360.98,104.6L363.91,102.58L366.85,95.72L369.78,100.63L372.72,76.45L375.65,77.94L378.59,80.53L381.52,71.56L384.46,39.63L387.39,39.35L390.33,112.2L393.26,80.35L396.2,95.85L399.13,83.93L402.07,103.72L405,148.81L407.93,78.11L410.87,86.14L413.8,36.28L416.74,42L422.61,72.44L425.54,51.95L428.48,37.76L431.41,27.88L434.35,16L437.28,21.06L440.22,97.14L443.15,116.48L449.02,143.92L451.96,151.12L454.89,124.76L457.83,126.13L460.76,143.75L463.7,127.46L466.63,134.79L469.57,123.24L472.5,129.17L475.43,119.91L478.37,142.33L481.3,127.07L484.24,139.48L487.17,141.97L490.11,138.16L493.04,113.15L495.98,135.59L498.91,136.29L501.85,168.42L504.78,153.24L507.72,158.98L510.65,139.75L513.59,131.68L516.52,99.22L519.46,97.17L522.39,104.27L525.33,81.64L528.26,78.07L531.2,88.75L534.13,107.65L537.07,91.67L540,85.69L540,304" style="vector-effect: non-scaling-stroke; fill: none; stroke: rgb(99, 110, 250); stroke-opacity: 1; stroke-width: 2px; opacity: 1;"/></g><g class="points"/><g class="text"/></g></g></g><g class="overplot"/><path class="xlines-above crisp" d="M0,0" style="fill: none;"/><path class="ylines-above crisp" d="M0,0" style="fill: none;"/><g class="overlines-above"/><g class="xaxislayer-above"><g class="xtick"><text text-anchor="middle" x="0" y="433" transform="translate(129.89,0)" style="font-family: 'Open Sans', verdana, arial, sans-serif; font-size: 12px; fill: rgb(42, 63, 95); fill-opacity: 1; white-space: pre; opacity: 1;">Aug 2022</text></g><g class="xtick"><text text-anchor="middle" x="0" y="433" style="font-family: 'Open Sans', verdana, arial, sans-serif; font-size: 12px; fill: rgb(42, 63, 95); fill-opacity: 1; white-space: pre; opacity: 1;" transform="translate(220.87,0)">Sep 2022</text></g><g class="xtick"><text text-anchor="middle" x="0" y="433" style="font-family: 'Open Sans', verdana, arial, sans-serif; font-size: 12px; fill: rgb(42, 63, 95); fill-opacity: 1; white-space: pre; opacity: 1;" transform="translate(308.90999999999997,0)">Oct 2022</text></g><g class="xtick"><text text-anchor="middle" x="0" y="433" style="font-family: 'Open Sans', verdana, arial, sans-serif; font-size: 12px; fill: rgb(42, 63, 95); fill-opacity: 1; white-space: pre; opacity: 1;" transform="translate(399.89,0)">Nov 2022</text></g><g class="xtick"><text text-anchor="middle" x="0" y="433" style="font-family: 'Open Sans', verdana, arial, sans-serif; font-size: 12px; fill: rgb(42, 63, 95); fill-opacity: 1; white-space: pre; opacity: 1;" transform="translate(487.93,0)">Dec 2022</text></g><g class="xtick"><text text-anchor="middle" x="0" y="433" style="font-family: 'Open Sans', verdana, arial, sans-serif; font-size: 12px; fill: rgb(42, 63, 95); fill-opacity: 1; white-space: pre; opacity: 1;" transform="translate(578.9100000000001,0)">Jan 2023</text></g></g><g class="yaxislayer-above"><g class="ytick"><text text-anchor="end" x="79" y="4.199999999999999" transform="translate(0,396.1)" style="font-family: 'Open Sans', verdana, arial, sans-serif; font-size: 12px; fill: rgb(42, 63, 95); fill-opacity: 1; white-space: pre; opacity: 1;">$−150k</text></g><g class="ytick"><text text-anchor="end" x="79" y="4.199999999999999" style="font-family: 'Open Sans', verdana, arial, sans-serif; font-size: 12px; fill: rgb(42, 63, 95); fill-opacity: 1; white-space: pre; opacity: 1;" transform="translate(0,355.39)">$−100k</text></g><g class="ytick"><text text-anchor="end" x="79" y="4.199999999999999" style="font-family: 'Open Sans', verdana, arial, sans-serif; font-size: 12px; fill: rgb(42, 63, 95); fill-opacity: 1; white-space: pre; opacity: 1;" transform="translate(0,314.68)">$−50k</text></g><g class="ytick"><text text-anchor="end" x="79" y="4.199999999999999" style="font-family: 'Open Sans', verdana, arial, sans-serif; font-size: 12px; fill: rgb(42, 63, 95); fill-opacity: 1; white-space: pre; opacity: 1;" transform="translate(0,273.97)">$0</text></g><g class="ytick"><text text-anchor="end" x="79" y="4.199999999999999" style="font-family: 'Open Sans', verdana, arial, sans-serif; font-size: 12px; fill: rgb(42, 63, 95); fill-opacity: 1; white-space: pre; opacity: 1;" transform="translate(0,233.25)">$50k</text></g><g class="ytick"><text text-anchor="end" x="79" y="4.199999999999999" style="font-family: 'Open Sans', verdana, arial, sans-serif; font-size: 12px; fill: rgb(42, 63, 95); fill-opacity: 1; white-space: pre; opacity: 1;" transform="translate(0,192.54000000000002)">$100k</text></g><g class="ytick"><text text-anchor="end" x="79" y="4.199999999999999" style="font-family: 'Open Sans', verdana, arial, sans-serif; font-size: 12px; fill: rgb(42, 63, 95); fill-opacity: 1; white-space: pre; opacity: 1;" transform="translate(0,151.82999999999998)">$150k</text></g><g class="ytick"><text text-anchor="end" x="79" y="4.199999999999999" style="font-family: 'Open Sans', verdana, arial, sans-serif; font-size: 12px; fill: rgb(42, 63, 95); fill-opacity: 1; white-space: pre; opacity: 1;" transform="translate(0,111.12)">$200k</text></g></g><g class="overaxes-above"/></g></g><g class="polarlayer"/><g class="smithlayer"/><g class="ternarylayer"/><g class="geolayer"/><g class="funnelarealayer"/><g class="pielayer"/><g class="iciclelayer"/><g class="treemaplayer"/><g class="sunburstlayer"/><g class="glimages"/><defs id="topdefs-73c7fd"><g class="clips"/></defs><g class="layer-above"><g class="imagelayer"/><g class="shapelayer"/></g><g class="infolayer"><g class="g-gtitle"><text class="gtitle" x="35" y="50" text-anchor="start" dy="0em" style="font-family: 'Open Sans', verdana, arial, sans-serif; font-size: 17px; fill: rgb(42, 63, 95); opacity: 1; font-weight: normal; white-space: pre;"><tspan class="line" dy="0em" x="35" y="50">Thales</tspan><tspan class="line" dy="1.3em" x="35" y="50">​<tspan style="font-size:70%" dy="-0.6em">Cumulative Net Dollar Flow since Program Announcement, Until Program End + 30 Days</tspan><tspan dy="0.42em">​</tspan></tspan></text></g><g class="g-xtitle"><text class="xtitle" x="350" y="460.8" text-anchor="middle" style="font-family: 'Open Sans', verdana, arial, sans-serif; font-size: 14px; fill: rgb(42, 63, 95); opacity: 1; font-weight: normal; white-space: pre;">Day</text></g><g class="g-ytitle"><text class="ytitle" transform="rotate(-90,14.496875000000003,260)" x="14.496875000000003" y="260" text-anchor="middle" style="font-family: 'Open Sans', verdana, arial, sans-serif; font-size: 14px; fill: rgb(42, 63, 95); opacity: 1; font-weight: normal; white-space: pre;">Cumulative Net Dollar Flow (N$F)</text></g></g></svg>