<svg class="main-svg" xmlns="http://www.w3.org/2000/svg" xmlns:xlink="http://www.w3.org/1999/xlink" width="700" height="500" style="" viewBox="0 0 700 500"><rect x="0" y="0" width="700" height="500" style="fill: rgb(255, 255, 255); fill-opacity: 1;"/><defs id="defs-861390"><g class="clips"><clipPath id="clip861390xyplot" class="plotclip"><rect width="540" height="320"/></clipPath><clipPath class="axesclip" id="clip861390x"><rect x="80" y="0" width="540" height="500"/></clipPath><clipPath class="axesclip" id="clip861390y"><rect x="0" y="100" width="700" height="320"/></clipPath><clipPath class="axesclip" id="clip861390xy"><rect x="80" y="100" width="540" height="320"/></clipPath></g><g class="gradients"/><g class="patterns"/></defs><g class="bglayer"><rect class="bg" x="80" y="100" width="540" height="320" style="fill: rgb(229, 236, 246); fill-opacity: 1; stroke-width: 0;"/></g><g class="layer-below"><g class="imagelayer"/><g class="shapelayer"/></g><g class="cartesianlayer"><g class="subplot xy"><g class="layer-subplot"><g class="shapelayer"/><g class="imagelayer"/></g><g class="minor-gridlayer"><g class="x"/><g class="y"/></g><g class="gridlayer"><g class="x"><path class="xgrid crisp" transform="translate(99.52,0)" d="M0,100v320" style="stroke: rgb(255, 255, 255); stroke-opacity: 1; stroke-width: 1px;"/><path class="xgrid crisp" transform="translate(197.11,0)" d="M0,100v320" style="stroke: rgb(255, 255, 255); stroke-opacity: 1; stroke-width: 1px;"/><path class="xgrid crisp" transform="translate(297.95,0)" d="M0,100v320" style="stroke: rgb(255, 255, 255); stroke-opacity: 1; stroke-width: 1px;"/><path class="xgrid crisp" transform="translate(395.54,0)" d="M0,100v320" style="stroke: rgb(255, 255, 255); stroke-opacity: 1; stroke-width: 1px;"/><path class="xgrid crisp" transform="translate(496.39,0)" d="M0,100v320" style="stroke: rgb(255, 255, 255); stroke-opacity: 1; stroke-width: 1px;"/><path class="xgrid crisp" transform="translate(597.23,0)" d="M0,100v320" style="stroke: rgb(255, 255, 255); stroke-opacity: 1; stroke-width: 1px;"/></g><g class="y"><path class="ygrid crisp" transform="translate(0,384.34)" d="M80,0h540" style="stroke: rgb(255, 255, 255); stroke-opacity: 1; stroke-width: 1px;"/><path class="ygrid crisp" transform="translate(0,280.4)" d="M80,0h540" style="stroke: rgb(255, 255, 255); stroke-opacity: 1; stroke-width: 1px;"/><path class="ygrid crisp" transform="translate(0,228.43)" d="M80,0h540" style="stroke: rgb(255, 255, 255); stroke-opacity: 1; stroke-width: 1px;"/><path class="ygrid crisp" transform="translate(0,176.45999999999998)" d="M80,0h540" style="stroke: rgb(255, 255, 255); stroke-opacity: 1; stroke-width: 1px;"/><path class="ygrid crisp" transform="translate(0,124.49)" d="M80,0h540" style="stroke: rgb(255, 255, 255); stroke-opacity: 1; stroke-width: 1px;"/></g></g><g class="zerolinelayer"><path class="yzl zl crisp" transform="translate(0,332.37)" d="M80,0h540" style="stroke: rgb(255, 255, 255); stroke-opacity: 1; stroke-width: 2px;"/></g><path class="xlines-below"/><path class="ylines-below"/><g class="overlines-below"/><g class="xaxislayer-below"/><g class="yaxislayer-below"/><g class="overaxes-below"/><g class="plot" transform="translate(80,100)" clip-path="url(#clip861390xyplot)"><g class="scatterlayer mlayer"><g class="trace scatter trace6fb1e1" style="stroke-miterlimit: 2;"><g class="fills"><g><path class="js-fill" d="M540,232.37L0,232.37L0,273.03L3.25,274.39L6.51,274.4L9.76,290.84L13.01,290.57L16.27,304L19.52,207.8L22.77,199.01L26.02,192.71L29.28,171.91L32.53,168.56L35.78,160.95L39.04,155.42L42.29,156.01L45.54,150.79L48.8,157.67L52.05,151.44L58.55,136.22L61.81,140.54L68.31,113.48L71.57,112.98L74.82,108.13L78.07,108.56L84.58,106.99L87.83,81.41L91.08,63.78L94.34,64.06L97.59,70.12L100.84,69.61L104.1,73.24L107.35,63.88L110.6,74.28L113.86,95.55L120.36,109.28L123.61,124.5L126.87,124.34L130.12,102.54L136.63,112.9L139.88,62.75L143.13,68.84L146.39,62.56L149.64,67.14L152.89,58.13L156.14,65.69L159.4,81.37L165.9,80.17L169.16,82.37L172.41,68.33L175.66,64.68L178.92,45.92L182.17,16L185.42,31.74L188.67,40.37L195.18,49.7L198.43,37.39L201.69,40.07L204.94,39.56L208.19,37.9L211.45,38.2L214.7,26.99L217.95,27.42L224.46,28.33L227.71,30.04L230.96,26.37L234.22,26.43L237.47,82.49L240.72,108.34L247.23,127.55L250.48,126.47L256.99,130.03L260.24,131.48L263.49,137.62L266.75,137.48L270,137.04L273.25,122.07L276.51,116.95L279.76,115.7L283.01,118.8L286.27,113.95L289.52,91.85L292.77,96.75L296.02,87.03L299.28,89.85L302.53,93.08L305.78,93.3L312.29,102.84L315.54,92.19L318.8,51.75L322.05,47.56L325.3,46.69L328.55,46.73L331.81,50.97L335.06,44.28L338.31,36.19L341.57,41.79L344.82,41.73L348.07,44.78L351.33,45.98L354.58,65.81L357.83,73.57L361.08,73.55L364.34,74L367.59,69.47L370.84,73.57L374.1,73.73L377.35,77.57L380.6,74.19L390.36,68.77L393.61,68.99L396.87,67.23L400.12,53.87L406.63,56.85L409.88,57.22L413.13,55.43L416.39,61.24L419.64,64.9L422.89,65.51L426.14,66.61L429.4,69.09L432.65,67.7L435.9,50.02L439.16,49.52L442.41,42.05L445.66,50.45L448.92,50.44L452.17,73.66L455.42,76.53L458.67,78L461.93,80.44L465.18,80.84L468.43,80.43L471.69,72.58L474.94,69.11L478.19,70.3L481.45,67.79L484.7,67.76L487.95,98.01L491.2,93.32L494.46,83.91L497.71,106.01L500.96,106L504.22,99.79L507.47,100.3L510.72,93.13L513.98,89.54L517.23,94.67L520.48,91.67L523.73,99.2L526.99,103.47L530.24,103.83L533.49,103.03L536.75,100.23L540,100" style="fill: rgb(99, 110, 250); fill-opacity: 0.5; stroke-width: 0;"/></g></g><g class="errorbars"/><g class="lines"><path class="js-line" d="M0,273.03L3.25,274.39L6.51,274.4L9.76,290.84L13.01,290.57L16.27,304L19.52,207.8L22.77,199.01L26.02,192.71L29.28,171.91L32.53,168.56L35.78,160.95L39.04,155.42L42.29,156.01L45.54,150.79L48.8,157.67L52.05,151.44L58.55,136.22L61.81,140.54L68.31,113.48L71.57,112.98L74.82,108.13L78.07,108.56L84.58,106.99L87.83,81.41L91.08,63.78L94.34,64.06L97.59,70.12L100.84,69.61L104.1,73.24L107.35,63.88L110.6,74.28L113.86,95.55L120.36,109.28L123.61,124.5L126.87,124.34L130.12,102.54L136.63,112.9L139.88,62.75L143.13,68.84L146.39,62.56L149.64,67.14L152.89,58.13L156.14,65.69L159.4,81.37L165.9,80.17L169.16,82.37L172.41,68.33L175.66,64.68L178.92,45.92L182.17,16L185.42,31.74L188.67,40.37L195.18,49.7L198.43,37.39L201.69,40.07L204.94,39.56L208.19,37.9L211.45,38.2L214.7,26.99L217.95,27.42L224.46,28.33L227.71,30.04L230.96,26.37L234.22,26.43L237.47,82.49L240.72,108.34L247.23,127.55L250.48,126.47L256.99,130.03L260.24,131.48L263.49,137.62L266.75,137.48L270,137.04L273.25,122.07L276.51,116.95L279.76,115.7L283.01,118.8L286.27,113.95L289.52,91.85L292.77,96.75L296.02,87.03L299.28,89.85L302.53,93.08L305.78,93.3L312.29,102.84L315.54,92.19L318.8,51.75L322.05,47.56L325.3,46.69L328.55,46.73L331.81,50.97L335.06,44.28L338.31,36.19L341.57,41.79L344.82,41.73L348.07,44.78L351.33,45.98L354.58,65.81L357.83,73.57L361.08,73.55L364.34,74L367.59,69.47L370.84,73.57L374.1,73.73L377.35,77.57L380.6,74.19L390.36,68.77L393.61,68.99L396.87,67.23L400.12,53.87L406.63,56.85L409.88,57.22L413.13,55.43L416.39,61.24L419.64,64.9L422.89,65.51L426.14,66.61L429.4,69.09L432.65,67.7L435.9,50.02L439.16,49.52L442.41,42.05L445.66,50.45L448.92,50.44L452.17,73.66L455.42,76.53L458.67,78L461.93,80.44L465.18,80.84L468.43,80.43L471.69,72.58L474.94,69.11L478.19,70.3L481.45,67.79L484.7,67.76L487.95,98.01L491.2,93.32L494.46,83.91L497.71,106.01L500.96,106L504.22,99.79L507.47,100.3L510.72,93.13L513.98,89.54L517.23,94.67L520.48,91.67L523.73,99.2L526.99,103.47L530.24,103.83L533.49,103.03L536.75,100.23L540,100" style="vector-effect: non-scaling-stroke; fill: none; stroke: rgb(99, 110, 250); stroke-opacity: 1; stroke-width: 2px; opacity: 1;"/></g><g class="points"/><g class="text"/></g></g></g><g class="overplot"/><path class="xlines-above crisp" d="M0,0" style="fill: none;"/><path class="ylines-above crisp" d="M0,0" style="fill: none;"/><g class="overlines-above"/><g class="xaxislayer-above"><g class="xtick"><text text-anchor="middle" x="0" y="433" transform="translate(99.52,0)" style="font-family: 'Open Sans', verdana, arial, sans-serif; font-size: 12px; fill: rgb(42, 63, 95); fill-opacity: 1; white-space: pre; opacity: 1;">Sep 2022</text></g><g class="xtick"><text text-anchor="middle" x="0" y="433" style="font-family: 'Open Sans', verdana, arial, sans-serif; font-size: 12px; fill: rgb(42, 63, 95); fill-opacity: 1; white-space: pre; opacity: 1;" transform="translate(197.11,0)">Oct 2022</text></g><g class="xtick"><text text-anchor="middle" x="0" y="433" style="font-family: 'Open Sans', verdana, arial, sans-serif; font-size: 12px; fill: rgb(42, 63, 95); fill-opacity: 1; white-space: pre; opacity: 1;" transform="translate(297.95,0)">Nov 2022</text></g><g class="xtick"><text text-anchor="middle" x="0" y="433" style="font-family: 'Open Sans', verdana, arial, sans-serif; font-size: 12px; fill: rgb(42, 63, 95); fill-opacity: 1; white-space: pre; opacity: 1;" transform="translate(395.54,0)">Dec 2022</text></g><g class="xtick"><text text-anchor="middle" x="0" y="433" style="font-family: 'Open Sans', verdana, arial, sans-serif; font-size: 12px; fill: rgb(42, 63, 95); fill-opacity: 1; white-space: pre; opacity: 1;" transform="translate(496.39,0)">Jan 2023</text></g><g class="xtick"><text text-anchor="middle" x="0" y="433" style="font-family: 'Open Sans', verdana, arial, sans-serif; font-size: 12px; fill: rgb(42, 63, 95); fill-opacity: 1; white-space: pre; opacity: 1;" transform="translate(597.23,0)">Feb 2023</text></g></g><g class="yaxislayer-above"><g class="ytick"><text text-anchor="end" x="79" y="4.199999999999999" transform="translate(0,384.34)" style="font-family: 'Open Sans', verdana, arial, sans-serif; font-size: 12px; fill: rgb(42, 63, 95); fill-opacity: 1; white-space: pre; opacity: 1;">$−1M</text></g><g class="ytick"><text text-anchor="end" x="79" y="4.199999999999999" style="font-family: 'Open Sans', verdana, arial, sans-serif; font-size: 12px; fill: rgb(42, 63, 95); fill-opacity: 1; white-space: pre; opacity: 1;" transform="translate(0,332.37)">$0</text></g><g class="ytick"><text text-anchor="end" x="79" y="4.199999999999999" style="font-family: 'Open Sans', verdana, arial, sans-serif; font-size: 12px; fill: rgb(42, 63, 95); fill-opacity: 1; white-space: pre; opacity: 1;" transform="translate(0,280.4)">$1M</text></g><g class="ytick"><text text-anchor="end" x="79" y="4.199999999999999" style="font-family: 'Open Sans', verdana, arial, sans-serif; font-size: 12px; fill: rgb(42, 63, 95); fill-opacity: 1; white-space: pre; opacity: 1;" transform="translate(0,228.43)">$2M</text></g><g class="ytick"><text text-anchor="end" x="79" y="4.199999999999999" style="font-family: 'Open Sans', verdana, arial, sans-serif; font-size: 12px; fill: rgb(42, 63, 95); fill-opacity: 1; white-space: pre; opacity: 1;" transform="translate(0,176.45999999999998)">$3M</text></g><g class="ytick"><text text-anchor="end" x="79" y="4.199999999999999" style="font-family: 'Open Sans', verdana, arial, sans-serif; font-size: 12px; fill: rgb(42, 63, 95); fill-opacity: 1; white-space: pre; opacity: 1;" transform="translate(0,124.49)">$4M</text></g></g><g class="overaxes-above"/></g></g><g class="polarlayer"/><g class="smithlayer"/><g class="ternarylayer"/><g class="geolayer"/><g class="funnelarealayer"/><g class="pielayer"/><g class="iciclelayer"/><g class="treemaplayer"/><g class="sunburstlayer"/><g class="glimages"/><defs id="topdefs-861390"><g class="clips"/></defs><g class="layer-above"><g class="imagelayer"/><g class="shapelayer"/></g><g class="infolayer"><g class="g-gtitle"><text class="gtitle" x="35" y="50" text-anchor="start" dy="0em" style="font-family: 'Open Sans', verdana, arial, sans-serif; font-size: 17px; fill: rgb(42, 63, 95); opacity: 1; font-weight: normal; white-space: pre;"><tspan class="line" dy="0em" x="35" y="50">Qidao - USDC/MAI: Velodrome</tspan><tspan class="line" dy="1.3em" x="35" y="50">​<tspan style="font-size:70%" dy="-0.6em">Cumulative Net Flows since Program Announcement, Until Program End + 30 Days</tspan><tspan dy="0.42em">​</tspan></tspan></text></g><g class="g-xtitle"><text class="xtitle" x="350" y="459.8" text-anchor="middle" style="font-family: 'Open Sans', verdana, arial, sans-serif; font-size: 14px; fill: rgb(42, 63, 95); opacity: 1; font-weight: normal; white-space: pre;">Day</text></g><g class="g-ytitle"><text class="ytitle" transform="rotate(-90,19.496875000000003,260)" x="19.496875000000003" y="260" text-anchor="middle" style="font-family: 'Open Sans', verdana, arial, sans-serif; font-size: 14px; fill: rgb(42, 63, 95); opacity: 1; font-weight: normal; white-space: pre;">Cumulative Net Flows (USD)</text></g></g></svg>