<svg class="main-svg" xmlns="http://www.w3.org/2000/svg" xmlns:xlink="http://www.w3.org/1999/xlink" width="700" height="500" style="" viewBox="0 0 700 500"><rect x="0" y="0" width="700" height="500" style="fill: rgb(255, 255, 255); fill-opacity: 1;"/><defs id="defs-95f245"><g class="clips"><clipPath id="clip95f245xyplot" class="plotclip"><rect width="540" height="320"/></clipPath><clipPath class="axesclip" id="clip95f245x"><rect x="80" y="0" width="540" height="500"/></clipPath><clipPath class="axesclip" id="clip95f245y"><rect x="0" y="100" width="700" height="320"/></clipPath><clipPath class="axesclip" id="clip95f245xy"><rect x="80" y="100" width="540" height="320"/></clipPath></g><g class="gradients"/><g class="patterns"/></defs><g class="bglayer"><rect class="bg" x="80" y="100" width="540" height="320" style="fill: rgb(229, 236, 246); fill-opacity: 1; stroke-width: 0;"/></g><g class="layer-below"><g class="imagelayer"/><g class="shapelayer"/></g><g class="cartesianlayer"><g class="subplot xy"><g class="layer-subplot"><g class="shapelayer"/><g class="imagelayer"/></g><g class="minor-gridlayer"><g class="x"/><g class="y"/></g><g class="gridlayer"><g class="x"><path class="xgrid crisp" transform="translate(138.55,0)" d="M0,100v320" style="stroke: rgb(255, 255, 255); stroke-opacity: 1; stroke-width: 1px;"/><path class="xgrid crisp" transform="translate(239.4,0)" d="M0,100v320" style="stroke: rgb(255, 255, 255); stroke-opacity: 1; stroke-width: 1px;"/><path class="xgrid crisp" transform="translate(336.99,0)" d="M0,100v320" style="stroke: rgb(255, 255, 255); stroke-opacity: 1; stroke-width: 1px;"/><path class="xgrid crisp" transform="translate(437.83,0)" d="M0,100v320" style="stroke: rgb(255, 255, 255); stroke-opacity: 1; stroke-width: 1px;"/><path class="xgrid crisp" transform="translate(535.4200000000001,0)" d="M0,100v320" style="stroke: rgb(255, 255, 255); stroke-opacity: 1; stroke-width: 1px;"/></g><g class="y"><path class="ygrid crisp" transform="translate(0,373.42)" d="M80,0h540" style="stroke: rgb(255, 255, 255); stroke-opacity: 1; stroke-width: 1px;"/><path class="ygrid crisp" transform="translate(0,322.03)" d="M80,0h540" style="stroke: rgb(255, 255, 255); stroke-opacity: 1; stroke-width: 1px;"/><path class="ygrid crisp" transform="translate(0,270.64)" d="M80,0h540" style="stroke: rgb(255, 255, 255); stroke-opacity: 1; stroke-width: 1px;"/><path class="ygrid crisp" transform="translate(0,219.26)" d="M80,0h540" style="stroke: rgb(255, 255, 255); stroke-opacity: 1; stroke-width: 1px;"/><path class="ygrid crisp" transform="translate(0,167.87)" d="M80,0h540" style="stroke: rgb(255, 255, 255); stroke-opacity: 1; stroke-width: 1px;"/></g></g><g class="zerolinelayer"><path class="yzl zl crisp" transform="translate(0,116.48)" d="M80,0h540" style="stroke: rgb(255, 255, 255); stroke-opacity: 1; stroke-width: 2px;"/></g><path class="xlines-below"/><path class="ylines-below"/><g class="overlines-below"/><g class="xaxislayer-below"/><g class="yaxislayer-below"/><g class="overaxes-below"/><g class="plot" transform="translate(80,100)" clip-path="url(#clip95f245xyplot)"><g class="scatterlayer mlayer"><g class="trace scatter trace189851" style="stroke-miterlimit: 2;"><g class="fills"><g><path class="js-fill" d="M540,16.48L0,16.48L0,17.7L3.25,16.82L6.51,16.72L13.01,16L16.27,83.14L19.52,78.2L22.77,77.04L26.02,79.7L29.28,80.91L32.53,77.53L35.78,77.66L39.04,77.5L42.29,80.98L48.8,80.41L52.05,80.23L55.3,80.33L58.55,81.36L61.81,81.42L65.06,83.59L68.31,76.04L71.57,73.76L74.82,71.91L78.07,74.47L81.33,76.77L84.58,74.53L87.83,76.08L91.08,75.44L94.34,73.5L97.59,69.21L100.84,69.53L104.1,68.72L107.35,68.04L110.6,68.14L113.86,65.89L117.11,65.32L120.36,64.91L123.61,65.89L130.12,66.34L133.37,70.32L136.63,70.5L139.88,73.71L143.13,74.7L146.39,72.8L149.64,72.66L152.89,78.61L156.14,78.94L159.4,80.45L165.9,81.88L169.16,81.83L178.92,81.51L182.17,81.1L185.42,75.95L188.67,76.15L195.18,76.31L198.43,73.97L201.69,74.05L204.94,79.24L214.7,77.67L217.95,78.03L224.46,77.02L227.71,76.6L230.96,72.21L234.22,72.78L253.73,71.96L256.99,70.11L263.49,69.97L266.75,69.3L279.76,69.24L283.01,69.28L296.02,68.96L299.28,68.38L302.53,67.56L305.78,67.53L309.04,67.07L312.29,67.63L315.54,65.25L318.8,65.21L322.05,66.21L325.3,66.04L331.81,67.13L335.06,68.76L351.33,73.16L354.58,73.19L357.83,75.19L361.08,74.35L364.34,74.83L367.59,79.36L380.6,78.26L383.86,80.95L387.11,81.04L390.36,91.13L393.61,92.58L396.87,95.12L400.12,96.05L403.37,98.8L406.63,102.35L409.88,102.17L413.13,122.31L416.39,126.21L422.89,125.23L426.14,125.83L429.4,124.77L432.65,127.56L442.41,127.27L445.66,125.61L448.92,129.29L452.17,129.29L455.42,131.88L458.67,132.31L461.93,135.1L465.18,128.93L468.43,128.72L471.69,130.94L474.94,130.28L478.19,128.62L481.45,128.46L484.7,131.14L494.46,130.85L497.71,130.35L500.96,132.37L504.22,132.21L507.47,130.03L510.72,128.92L520.48,128.81L523.73,127.84L526.99,128.53L530.24,127.75L540,127.66L540,304" style="fill: rgb(99, 110, 250); fill-opacity: 0.5; stroke-width: 0;"/></g></g><g class="errorbars"/><g class="lines"><path class="js-line" d="M0,17.7L3.25,16.82L6.51,16.72L13.01,16L16.27,83.14L19.52,78.2L22.77,77.04L26.02,79.7L29.28,80.91L32.53,77.53L35.78,77.66L39.04,77.5L42.29,80.98L48.8,80.41L52.05,80.23L55.3,80.33L58.55,81.36L61.81,81.42L65.06,83.59L68.31,76.04L71.57,73.76L74.82,71.91L78.07,74.47L81.33,76.77L84.58,74.53L87.83,76.08L91.08,75.44L94.34,73.5L97.59,69.21L100.84,69.53L104.1,68.72L107.35,68.04L110.6,68.14L113.86,65.89L117.11,65.32L120.36,64.91L123.61,65.89L130.12,66.34L133.37,70.32L136.63,70.5L139.88,73.71L143.13,74.7L146.39,72.8L149.64,72.66L152.89,78.61L156.14,78.94L159.4,80.45L165.9,81.88L169.16,81.83L178.92,81.51L182.17,81.1L185.42,75.95L188.67,76.15L195.18,76.31L198.43,73.97L201.69,74.05L204.94,79.24L214.7,77.67L217.95,78.03L224.46,77.02L227.71,76.6L230.96,72.21L234.22,72.78L253.73,71.96L256.99,70.11L263.49,69.97L266.75,69.3L279.76,69.24L283.01,69.28L296.02,68.96L299.28,68.38L302.53,67.56L305.78,67.53L309.04,67.07L312.29,67.63L315.54,65.25L318.8,65.21L322.05,66.21L325.3,66.04L331.81,67.13L335.06,68.76L351.33,73.16L354.58,73.19L357.83,75.19L361.08,74.35L364.34,74.83L367.59,79.36L380.6,78.26L383.86,80.95L387.11,81.04L390.36,91.13L393.61,92.58L396.87,95.12L400.12,96.05L403.37,98.8L406.63,102.35L409.88,102.17L413.13,122.31L416.39,126.21L422.89,125.23L426.14,125.83L429.4,124.77L432.65,127.56L442.41,127.27L445.66,125.61L448.92,129.29L452.17,129.29L455.42,131.88L458.67,132.31L461.93,135.1L465.18,128.93L468.43,128.72L471.69,130.94L474.94,130.28L478.19,128.62L481.45,128.46L484.7,131.14L494.46,130.85L497.71,130.35L500.96,132.37L504.22,132.21L507.47,130.03L510.72,128.92L520.48,128.81L523.73,127.84L526.99,128.53L530.24,127.75L540,127.66L540,304" style="vector-effect: non-scaling-stroke; fill: none; stroke: rgb(99, 110, 250); stroke-opacity: 1; stroke-width: 2px; opacity: 1;"/></g><g class="points"/><g class="text"/></g></g></g><g class="overplot"/><path class="xlines-above crisp" d="M0,0" style="fill: none;"/><path class="ylines-above crisp" d="M0,0" style="fill: none;"/><g class="overlines-above"/><g class="xaxislayer-above"><g class="xtick"><text text-anchor="middle" x="0" y="433" transform="translate(138.55,0)" style="font-family: 'Open Sans', verdana, arial, sans-serif; font-size: 12px; fill: rgb(42, 63, 95); fill-opacity: 1; white-space: pre; opacity: 1;">Aug 2022</text></g><g class="xtick"><text text-anchor="middle" x="0" y="433" style="font-family: 'Open Sans', verdana, arial, sans-serif; font-size: 12px; fill: rgb(42, 63, 95); fill-opacity: 1; white-space: pre; opacity: 1;" transform="translate(239.4,0)">Sep 2022</text></g><g class="xtick"><text text-anchor="middle" x="0" y="433" style="font-family: 'Open Sans', verdana, arial, sans-serif; font-size: 12px; fill: rgb(42, 63, 95); fill-opacity: 1; white-space: pre; opacity: 1;" transform="translate(336.99,0)">Oct 2022</text></g><g class="xtick"><text text-anchor="middle" x="0" y="433" style="font-family: 'Open Sans', verdana, arial, sans-serif; font-size: 12px; fill: rgb(42, 63, 95); fill-opacity: 1; white-space: pre; opacity: 1;" transform="translate(437.83,0)">Nov 2022</text></g><g class="xtick"><text text-anchor="middle" x="0" y="433" style="font-family: 'Open Sans', verdana, arial, sans-serif; font-size: 12px; fill: rgb(42, 63, 95); fill-opacity: 1; white-space: pre; opacity: 1;" transform="translate(535.4200000000001,0)">Dec 2022</text></g></g><g class="yaxislayer-above"><g class="ytick"><text text-anchor="end" x="79" y="4.199999999999999" transform="translate(0,373.42)" style="font-family: 'Open Sans', verdana, arial, sans-serif; font-size: 12px; fill: rgb(42, 63, 95); fill-opacity: 1; white-space: pre; opacity: 1;">$−25M</text></g><g class="ytick"><text text-anchor="end" x="79" y="4.199999999999999" style="font-family: 'Open Sans', verdana, arial, sans-serif; font-size: 12px; fill: rgb(42, 63, 95); fill-opacity: 1; white-space: pre; opacity: 1;" transform="translate(0,322.03)">$−20M</text></g><g class="ytick"><text text-anchor="end" x="79" y="4.199999999999999" style="font-family: 'Open Sans', verdana, arial, sans-serif; font-size: 12px; fill: rgb(42, 63, 95); fill-opacity: 1; white-space: pre; opacity: 1;" transform="translate(0,270.64)">$−15M</text></g><g class="ytick"><text text-anchor="end" x="79" y="4.199999999999999" style="font-family: 'Open Sans', verdana, arial, sans-serif; font-size: 12px; fill: rgb(42, 63, 95); fill-opacity: 1; white-space: pre; opacity: 1;" transform="translate(0,219.26)">$−10M</text></g><g class="ytick"><text text-anchor="end" x="79" y="4.199999999999999" style="font-family: 'Open Sans', verdana, arial, sans-serif; font-size: 12px; fill: rgb(42, 63, 95); fill-opacity: 1; white-space: pre; opacity: 1;" transform="translate(0,167.87)">$−5M</text></g><g class="ytick"><text text-anchor="end" x="79" y="4.199999999999999" style="font-family: 'Open Sans', verdana, arial, sans-serif; font-size: 12px; fill: rgb(42, 63, 95); fill-opacity: 1; white-space: pre; opacity: 1;" transform="translate(0,116.48)">$0</text></g></g><g class="overaxes-above"/></g></g><g class="polarlayer"/><g class="smithlayer"/><g class="ternarylayer"/><g class="geolayer"/><g class="funnelarealayer"/><g class="pielayer"/><g class="iciclelayer"/><g class="treemaplayer"/><g class="sunburstlayer"/><g class="glimages"/><defs id="topdefs-95f245"><g class="clips"/></defs><g class="layer-above"><g class="imagelayer"/><g class="shapelayer"/></g><g class="infolayer"><g class="g-gtitle"><text class="gtitle" x="35" y="50" text-anchor="start" dy="0em" style="font-family: 'Open Sans', verdana, arial, sans-serif; font-size: 17px; fill: rgb(42, 63, 95); opacity: 1; font-weight: normal; white-space: pre;"><tspan class="line" dy="0em" x="35" y="50">Perpetual Protocol</tspan><tspan class="line" dy="1.3em" x="35" y="50">​<tspan style="font-size:70%" dy="-0.6em">Cumulative Net Dollar Flow since Program Announcement, Until Program End + 30 Days</tspan><tspan dy="0.42em">​</tspan></tspan></text></g><g class="g-xtitle"><text class="xtitle" x="350" y="460.8" text-anchor="middle" style="font-family: 'Open Sans', verdana, arial, sans-serif; font-size: 14px; fill: rgb(42, 63, 95); opacity: 1; font-weight: normal; white-space: pre;">Day</text></g><g class="g-ytitle"><text class="ytitle" transform="rotate(-90,17.168750000000003,260)" x="17.168750000000003" y="260" text-anchor="middle" style="font-family: 'Open Sans', verdana, arial, sans-serif; font-size: 14px; fill: rgb(42, 63, 95); opacity: 1; font-weight: normal; white-space: pre;">Cumulative Net Dollar Flow (N$F)</text></g></g></svg>