<svg class="main-svg" xmlns="http://www.w3.org/2000/svg" xmlns:xlink="http://www.w3.org/1999/xlink" width="700" height="500" style="" viewBox="0 0 700 500"><rect x="0" y="0" width="700" height="500" style="fill: rgb(255, 255, 255); fill-opacity: 1;"/><defs id="defs-2584ed"><g class="clips"><clipPath id="clip2584edxyplot" class="plotclip"><rect width="540" height="320"/></clipPath><clipPath class="axesclip" id="clip2584edx"><rect x="80" y="0" width="540" height="500"/></clipPath><clipPath class="axesclip" id="clip2584edy"><rect x="0" y="100" width="700" height="320"/></clipPath><clipPath class="axesclip" id="clip2584edxy"><rect x="80" y="100" width="540" height="320"/></clipPath></g><g class="gradients"/><g class="patterns"/></defs><g class="bglayer"><rect class="bg" x="80" y="100" width="540" height="320" style="fill: rgb(229, 236, 246); fill-opacity: 1; stroke-width: 0;"/></g><g class="layer-below"><g class="imagelayer"/><g class="shapelayer"/></g><g class="cartesianlayer"><g class="subplot xy"><g class="layer-subplot"><g class="shapelayer"/><g class="imagelayer"/></g><g class="minor-gridlayer"><g class="x"/><g class="y"/></g><g class="gridlayer"><g class="x"><path class="xgrid crisp" transform="translate(106.43,0)" d="M0,100v320" style="stroke: rgb(255, 255, 255); stroke-opacity: 1; stroke-width: 1px;"/><path class="xgrid crisp" transform="translate(219.72,0)" d="M0,100v320" style="stroke: rgb(255, 255, 255); stroke-opacity: 1; stroke-width: 1px;"/><path class="xgrid crisp" transform="translate(336.78,0)" d="M0,100v320" style="stroke: rgb(255, 255, 255); stroke-opacity: 1; stroke-width: 1px;"/><path class="xgrid crisp" transform="translate(450.07,0)" d="M0,100v320" style="stroke: rgb(255, 255, 255); stroke-opacity: 1; stroke-width: 1px;"/><path class="xgrid crisp" transform="translate(567.13,0)" d="M0,100v320" style="stroke: rgb(255, 255, 255); stroke-opacity: 1; stroke-width: 1px;"/></g><g class="y"><path class="ygrid crisp" transform="translate(0,363.17)" d="M80,0h540" style="stroke: rgb(255, 255, 255); stroke-opacity: 1; stroke-width: 1px;"/><path class="ygrid crisp" transform="translate(0,306.34000000000003)" d="M80,0h540" style="stroke: rgb(255, 255, 255); stroke-opacity: 1; stroke-width: 1px;"/><path class="ygrid crisp" transform="translate(0,249.51)" d="M80,0h540" style="stroke: rgb(255, 255, 255); stroke-opacity: 1; stroke-width: 1px;"/><path class="ygrid crisp" transform="translate(0,192.68)" d="M80,0h540" style="stroke: rgb(255, 255, 255); stroke-opacity: 1; stroke-width: 1px;"/><path class="ygrid crisp" transform="translate(0,135.85)" d="M80,0h540" style="stroke: rgb(255, 255, 255); stroke-opacity: 1; stroke-width: 1px;"/></g></g><g class="zerolinelayer"><path class="yzl zl crisp" transform="translate(0,420)" d="M80,0h540" style="stroke: rgb(255, 255, 255); stroke-opacity: 1; stroke-width: 2px;"/></g><path class="xlines-below"/><path class="ylines-below"/><g class="overlines-below"/><g class="xaxislayer-below"/><g class="yaxislayer-below"/><g class="overaxes-below"/><g class="plot" transform="translate(80,100)" clip-path="url(#clip2584edxyplot)"><g class="scatterlayer mlayer"><g class="trace scatter trace24b325" style="stroke-miterlimit: 2;"><g class="fills"><g><path class="js-fill" d="M540,320L0,320L0,314.11L3.78,317.95L7.55,310.83L15.1,292.62L18.88,289.77L22.66,215.51L26.43,202.34L30.21,216.2L33.99,203.8L37.76,190.25L41.54,194.31L45.31,169.35L49.09,156.41L52.87,85.72L56.64,67.1L60.42,43.24L64.2,36.38L67.97,18.5L71.75,16L75.52,20.07L79.3,42.62L83.08,55.57L86.85,32.87L90.63,50.03L94.41,74.52L101.96,84.27L105.73,100.94L109.51,128.04L113.29,134.51L117.06,133.14L120.84,135.96L124.62,150.26L128.39,151.73L132.17,164.06L135.94,226.12L143.5,231.92L147.27,232.09L151.05,234.9L154.83,252.14L158.6,254.43L162.38,245.71L166.15,249.43L169.93,259.19L173.71,265.63L177.48,266.76L181.26,269.2L185.03,274.19L188.81,277.85L192.59,228.16L200.14,228.19L203.92,241.58L207.69,242.62L211.47,240.94L215.24,241.33L219.02,237.36L222.8,237.19L226.57,235.24L230.35,223L234.13,226.5L237.9,223.48L241.68,235.28L249.23,234.87L253.01,237.72L256.78,208.05L260.56,188.11L264.34,175.08L268.11,56.11L271.89,45.17L275.66,45.13L279.44,46.43L283.22,45.62L286.99,67.9L290.77,97.59L294.55,153.57L298.32,147.41L302.1,157.24L305.87,159.1L309.65,161.44L313.43,161.73L317.2,182.25L320.98,193.36L324.76,190.66L328.53,194.13L336.08,219.18L339.86,215.81L343.64,203.77L347.41,205.59L351.19,207L354.97,207.49L358.74,207.4L362.52,209.24L366.29,202.11L370.07,218.88L373.85,219.56L377.62,201.65L381.4,203.71L385.17,203.22L392.73,203.1L396.5,185.94L400.28,191.02L404.06,189.05L407.83,192.71L411.61,192.3L415.38,163.66L419.16,167.1L422.94,109.26L426.71,183.84L430.49,187.75L434.27,187.17L438.04,191.2L441.82,191.24L449.37,177.76L453.15,179.91L456.92,179.01L460.7,180.88L464.48,179.87L468.25,178.03L472.03,186.75L475.8,188.05L483.36,188.4L487.13,237.66L494.69,236.3L498.46,233.28L502.24,231.65L506.01,225.93L509.79,202.27L513.57,192.53L517.34,170.45L521.12,168.54L524.9,134.42L528.67,129.21L532.45,131.09L536.22,124.96L540,84.66" style="fill: rgb(99, 110, 250); fill-opacity: 0.5; stroke-width: 0;"/></g></g><g class="errorbars"/><g class="lines"><path class="js-line" d="M0,314.11L3.78,317.95L7.55,310.83L15.1,292.62L18.88,289.77L22.66,215.51L26.43,202.34L30.21,216.2L33.99,203.8L37.76,190.25L41.54,194.31L45.31,169.35L49.09,156.41L52.87,85.72L56.64,67.1L60.42,43.24L64.2,36.38L67.97,18.5L71.75,16L75.52,20.07L79.3,42.62L83.08,55.57L86.85,32.87L90.63,50.03L94.41,74.52L101.96,84.27L105.73,100.94L109.51,128.04L113.29,134.51L117.06,133.14L120.84,135.96L124.62,150.26L128.39,151.73L132.17,164.06L135.94,226.12L143.5,231.92L147.27,232.09L151.05,234.9L154.83,252.14L158.6,254.43L162.38,245.71L166.15,249.43L169.93,259.19L173.71,265.63L177.48,266.76L181.26,269.2L185.03,274.19L188.81,277.85L192.59,228.16L200.14,228.19L203.92,241.58L207.69,242.62L211.47,240.94L215.24,241.33L219.02,237.36L222.8,237.19L226.57,235.24L230.35,223L234.13,226.5L237.9,223.48L241.68,235.28L249.23,234.87L253.01,237.72L256.78,208.05L260.56,188.11L264.34,175.08L268.11,56.11L271.89,45.17L275.66,45.13L279.44,46.43L283.22,45.62L286.99,67.9L290.77,97.59L294.55,153.57L298.32,147.41L302.1,157.24L305.87,159.1L309.65,161.44L313.43,161.73L317.2,182.25L320.98,193.36L324.76,190.66L328.53,194.13L336.08,219.18L339.86,215.81L343.64,203.77L347.41,205.59L351.19,207L354.97,207.49L358.74,207.4L362.52,209.24L366.29,202.11L370.07,218.88L373.85,219.56L377.62,201.65L381.4,203.71L385.17,203.22L392.73,203.1L396.5,185.94L400.28,191.02L404.06,189.05L407.83,192.71L411.61,192.3L415.38,163.66L419.16,167.1L422.94,109.26L426.71,183.84L430.49,187.75L434.27,187.17L438.04,191.2L441.82,191.24L449.37,177.76L453.15,179.91L456.92,179.01L460.7,180.88L464.48,179.87L468.25,178.03L472.03,186.75L475.8,188.05L483.36,188.4L487.13,237.66L494.69,236.3L498.46,233.28L502.24,231.65L506.01,225.93L509.79,202.27L513.57,192.53L517.34,170.45L521.12,168.54L524.9,134.42L528.67,129.21L532.45,131.09L536.22,124.96L540,84.66" style="vector-effect: non-scaling-stroke; fill: none; stroke: rgb(99, 110, 250); stroke-opacity: 1; stroke-width: 2px; opacity: 1;"/></g><g class="points"/><g class="text"/></g></g></g><g class="overplot"/><path class="xlines-above crisp" d="M0,0" style="fill: none;"/><path class="ylines-above crisp" d="M0,0" style="fill: none;"/><g class="overlines-above"/><g class="xaxislayer-above"><g class="xtick"><text text-anchor="middle" x="0" y="433" transform="translate(106.43,0)" style="font-family: 'Open Sans', verdana, arial, sans-serif; font-size: 12px; fill: rgb(42, 63, 95); fill-opacity: 1; white-space: pre; opacity: 1;">Sep 2022</text></g><g class="xtick"><text text-anchor="middle" x="0" y="433" style="font-family: 'Open Sans', verdana, arial, sans-serif; font-size: 12px; fill: rgb(42, 63, 95); fill-opacity: 1; white-space: pre; opacity: 1;" transform="translate(219.72,0)">Oct 2022</text></g><g class="xtick"><text text-anchor="middle" x="0" y="433" style="font-family: 'Open Sans', verdana, arial, sans-serif; font-size: 12px; fill: rgb(42, 63, 95); fill-opacity: 1; white-space: pre; opacity: 1;" transform="translate(336.78,0)">Nov 2022</text></g><g class="xtick"><text text-anchor="middle" x="0" y="433" style="font-family: 'Open Sans', verdana, arial, sans-serif; font-size: 12px; fill: rgb(42, 63, 95); fill-opacity: 1; white-space: pre; opacity: 1;" transform="translate(450.07,0)">Dec 2022</text></g><g class="xtick"><text text-anchor="middle" x="0" y="433" style="font-family: 'Open Sans', verdana, arial, sans-serif; font-size: 12px; fill: rgb(42, 63, 95); fill-opacity: 1; white-space: pre; opacity: 1;" transform="translate(567.13,0)">Jan 2023</text></g></g><g class="yaxislayer-above"><g class="ytick"><text text-anchor="end" x="79" y="4.199999999999999" transform="translate(0,420)" style="font-family: 'Open Sans', verdana, arial, sans-serif; font-size: 12px; fill: rgb(42, 63, 95); fill-opacity: 1; white-space: pre; opacity: 1;">$0</text></g><g class="ytick"><text text-anchor="end" x="79" y="4.199999999999999" style="font-family: 'Open Sans', verdana, arial, sans-serif; font-size: 12px; fill: rgb(42, 63, 95); fill-opacity: 1; white-space: pre; opacity: 1;" transform="translate(0,363.17)">$2M</text></g><g class="ytick"><text text-anchor="end" x="79" y="4.199999999999999" style="font-family: 'Open Sans', verdana, arial, sans-serif; font-size: 12px; fill: rgb(42, 63, 95); fill-opacity: 1; white-space: pre; opacity: 1;" transform="translate(0,306.34000000000003)">$4M</text></g><g class="ytick"><text text-anchor="end" x="79" y="4.199999999999999" style="font-family: 'Open Sans', verdana, arial, sans-serif; font-size: 12px; fill: rgb(42, 63, 95); fill-opacity: 1; white-space: pre; opacity: 1;" transform="translate(0,249.51)">$6M</text></g><g class="ytick"><text text-anchor="end" x="79" y="4.199999999999999" style="font-family: 'Open Sans', verdana, arial, sans-serif; font-size: 12px; fill: rgb(42, 63, 95); fill-opacity: 1; white-space: pre; opacity: 1;" transform="translate(0,192.68)">$8M</text></g><g class="ytick"><text text-anchor="end" x="79" y="4.199999999999999" style="font-family: 'Open Sans', verdana, arial, sans-serif; font-size: 12px; fill: rgb(42, 63, 95); fill-opacity: 1; white-space: pre; opacity: 1;" transform="translate(0,135.85)">$10M</text></g></g><g class="overaxes-above"/></g></g><g class="polarlayer"/><g class="smithlayer"/><g class="ternarylayer"/><g class="geolayer"/><g class="funnelarealayer"/><g class="pielayer"/><g class="iciclelayer"/><g class="treemaplayer"/><g class="sunburstlayer"/><g class="glimages"/><defs id="topdefs-2584ed"><g class="clips"/></defs><g class="layer-above"><g class="imagelayer"/><g class="shapelayer"/></g><g class="infolayer"><g class="g-gtitle"><text class="gtitle" x="35" y="50" text-anchor="start" dy="0em" style="font-family: 'Open Sans', verdana, arial, sans-serif; font-size: 17px; fill: rgb(42, 63, 95); opacity: 1; font-weight: normal; white-space: pre;"><tspan class="line" dy="0em" x="35" y="50">Synthetix - sUSD-3Crv: Curve</tspan><tspan class="line" dy="1.3em" x="35" y="50">​<tspan style="font-size:70%" dy="-0.6em">Cumulative Net Dollar Flow since Program Announcement, Until Program End + 30 Days</tspan><tspan dy="0.42em">​</tspan></tspan></text></g><g class="g-xtitle"><text class="xtitle" x="350" y="460.8" text-anchor="middle" style="font-family: 'Open Sans', verdana, arial, sans-serif; font-size: 14px; fill: rgb(42, 63, 95); opacity: 1; font-weight: normal; white-space: pre;">Day</text></g><g class="g-ytitle"><text class="ytitle" transform="rotate(-90,24.168750000000003,260)" x="24.168750000000003" y="260" text-anchor="middle" style="font-family: 'Open Sans', verdana, arial, sans-serif; font-size: 14px; fill: rgb(42, 63, 95); opacity: 1; font-weight: normal; white-space: pre;">Cumulative Net Dollar Flow (N$F)</text></g></g></svg>