<svg class="main-svg" xmlns="http://www.w3.org/2000/svg" xmlns:xlink="http://www.w3.org/1999/xlink" width="700" height="500" style="" viewBox="0 0 700 500"><rect x="0" y="0" width="700" height="500" style="fill: rgb(255, 255, 255); fill-opacity: 1;"/><defs id="defs-e2f2b4"><g class="clips"><clipPath id="clipe2f2b4xyplot" class="plotclip"><rect width="540" height="320"/></clipPath><clipPath class="axesclip" id="clipe2f2b4x"><rect x="80" y="0" width="540" height="500"/></clipPath><clipPath class="axesclip" id="clipe2f2b4y"><rect x="0" y="100" width="700" height="320"/></clipPath><clipPath class="axesclip" id="clipe2f2b4xy"><rect x="80" y="100" width="540" height="320"/></clipPath></g><g class="gradients"/><g class="patterns"/></defs><g class="bglayer"><rect class="bg" x="80" y="100" width="540" height="320" style="fill: rgb(229, 236, 246); fill-opacity: 1; stroke-width: 0;"/></g><g class="layer-below"><g class="imagelayer"/><g class="shapelayer"/></g><g class="cartesianlayer"><g class="subplot xy"><g class="layer-subplot"><g class="shapelayer"/><g class="imagelayer"/></g><g class="minor-gridlayer"><g class="x"/><g class="y"/></g><g class="gridlayer"><g class="x"><path class="xgrid crisp" transform="translate(153.44,0)" d="M0,100v320" style="stroke: rgb(255, 255, 255); stroke-opacity: 1; stroke-width: 1px;"/><path class="xgrid crisp" transform="translate(287.36,0)" d="M0,100v320" style="stroke: rgb(255, 255, 255); stroke-opacity: 1; stroke-width: 1px;"/><path class="xgrid crisp" transform="translate(416.96,0)" d="M0,100v320" style="stroke: rgb(255, 255, 255); stroke-opacity: 1; stroke-width: 1px;"/><path class="xgrid crisp" transform="translate(550.88,0)" d="M0,100v320" style="stroke: rgb(255, 255, 255); stroke-opacity: 1; stroke-width: 1px;"/></g><g class="y"><path class="ygrid crisp" transform="translate(0,319.77)" d="M80,0h540" style="stroke: rgb(255, 255, 255); stroke-opacity: 1; stroke-width: 1px;"/><path class="ygrid crisp" transform="translate(0,253.63)" d="M80,0h540" style="stroke: rgb(255, 255, 255); stroke-opacity: 1; stroke-width: 1px;"/><path class="ygrid crisp" transform="translate(0,187.49)" d="M80,0h540" style="stroke: rgb(255, 255, 255); stroke-opacity: 1; stroke-width: 1px;"/><path class="ygrid crisp" transform="translate(0,121.36)" d="M80,0h540" style="stroke: rgb(255, 255, 255); stroke-opacity: 1; stroke-width: 1px;"/></g></g><g class="zerolinelayer"><path class="yzl zl crisp" transform="translate(0,385.91)" d="M80,0h540" style="stroke: rgb(255, 255, 255); stroke-opacity: 1; stroke-width: 2px;"/></g><path class="xlines-below"/><path class="ylines-below"/><g class="overlines-below"/><g class="xaxislayer-below"/><g class="yaxislayer-below"/><g class="overaxes-below"/><g class="plot" transform="translate(80,100)" clip-path="url(#clipe2f2b4xyplot)"><g class="scatterlayer mlayer"><g class="trace scatter trace02b987" style="stroke-miterlimit: 2;"><g class="fills"><g><path class="js-fill" d="M540,285.91L0,285.91L0,286.29L4.32,287.99L8.64,287.75L12.96,301.07L17.28,299.43L21.6,299.36L25.92,297.7L30.24,304L34.56,301.48L47.52,295.96L51.84,297.35L56.16,293.91L60.48,291.81L64.8,287.5L69.12,287.57L73.44,282.28L77.76,278.49L82.08,272.4L86.4,273.76L95.04,270.26L99.36,254.64L103.68,252.72L108,249.36L112.32,250.22L116.64,249.77L125.28,245.87L129.6,245.24L133.92,242.07L138.24,240.89L142.56,236.08L146.88,233.96L151.2,233.92L155.52,228.77L159.84,209.36L164.16,201.22L168.48,191.7L172.8,197.94L177.12,192.46L181.44,146.13L185.76,159.15L190.08,161.33L194.4,171.36L198.72,170.18L203.04,168.51L207.36,165.43L211.68,163.45L216,166.32L220.32,145.58L224.64,145.43L228.96,140.93L233.28,134.4L237.6,130.6L241.92,134.14L246.24,154.97L250.56,162.4L254.88,179.27L259.2,179.52L263.52,207.84L267.84,206.43L272.16,206.43L276.48,209.81L280.8,201.87L285.12,204.29L289.44,194.71L293.76,196.03L298.08,196.48L302.4,196.17L315.36,182.96L319.68,177.11L324,180.44L328.32,177.44L332.64,177.53L336.96,176.43L341.28,168.98L345.6,167.59L349.92,160.86L354.24,163.12L358.56,162.58L362.88,155.51L367.2,153.97L371.52,140.6L375.84,139.11L380.16,133.14L384.48,132.72L388.8,142.83L393.12,135.5L397.44,130.41L401.76,131.71L406.08,126.62L410.4,129.58L414.72,124.11L419.04,126.99L423.36,124.73L427.68,115.3L432,113.92L436.32,117.69L440.64,117.09L444.96,116.06L449.28,117.47L457.92,113.49L462.24,118.28L466.56,125.22L470.88,125.25L475.2,125.81L479.52,118.54L483.84,108.37L488.16,87.39L492.48,82.25L496.8,91.45L505.44,55.85L509.76,32.69L514.08,16L518.4,18.27L522.72,29.42L527.04,48.75L531.36,53.34L535.68,61.09L540,84.83" style="fill: rgb(99, 110, 250); fill-opacity: 0.5; stroke-width: 0;"/></g></g><g class="errorbars"/><g class="lines"><path class="js-line" d="M0,286.29L4.32,287.99L8.64,287.75L12.96,301.07L17.28,299.43L21.6,299.36L25.92,297.7L30.24,304L34.56,301.48L47.52,295.96L51.84,297.35L56.16,293.91L60.48,291.81L64.8,287.5L69.12,287.57L73.44,282.28L77.76,278.49L82.08,272.4L86.4,273.76L95.04,270.26L99.36,254.64L103.68,252.72L108,249.36L112.32,250.22L116.64,249.77L125.28,245.87L129.6,245.24L133.92,242.07L138.24,240.89L142.56,236.08L146.88,233.96L151.2,233.92L155.52,228.77L159.84,209.36L164.16,201.22L168.48,191.7L172.8,197.94L177.12,192.46L181.44,146.13L185.76,159.15L190.08,161.33L194.4,171.36L198.72,170.18L203.04,168.51L207.36,165.43L211.68,163.45L216,166.32L220.32,145.58L224.64,145.43L228.96,140.93L233.28,134.4L237.6,130.6L241.92,134.14L246.24,154.97L250.56,162.4L254.88,179.27L259.2,179.52L263.52,207.84L267.84,206.43L272.16,206.43L276.48,209.81L280.8,201.87L285.12,204.29L289.44,194.71L293.76,196.03L298.08,196.48L302.4,196.17L315.36,182.96L319.68,177.11L324,180.44L328.32,177.44L332.64,177.53L336.96,176.43L341.28,168.98L345.6,167.59L349.92,160.86L354.24,163.12L358.56,162.58L362.88,155.51L367.2,153.97L371.52,140.6L375.84,139.11L380.16,133.14L384.48,132.72L388.8,142.83L393.12,135.5L397.44,130.41L401.76,131.71L406.08,126.62L410.4,129.58L414.72,124.11L419.04,126.99L423.36,124.73L427.68,115.3L432,113.92L436.32,117.69L440.64,117.09L444.96,116.06L449.28,117.47L457.92,113.49L462.24,118.28L466.56,125.22L470.88,125.25L475.2,125.81L479.52,118.54L483.84,108.37L488.16,87.39L492.48,82.25L496.8,91.45L505.44,55.85L509.76,32.69L514.08,16L518.4,18.27L522.72,29.42L527.04,48.75L531.36,53.34L535.68,61.09L540,84.83" style="vector-effect: non-scaling-stroke; fill: none; stroke: rgb(99, 110, 250); stroke-opacity: 1; stroke-width: 2px; opacity: 1;"/></g><g class="points"/><g class="text"/></g></g></g><g class="overplot"/><path class="xlines-above crisp" d="M0,0" style="fill: none;"/><path class="ylines-above crisp" d="M0,0" style="fill: none;"/><g class="overlines-above"/><g class="xaxislayer-above"><g class="xtick"><text text-anchor="middle" x="0" y="433" transform="translate(153.44,0)" style="font-family: 'Open Sans', verdana, arial, sans-serif; font-size: 12px; fill: rgb(42, 63, 95); fill-opacity: 1; white-space: pre; opacity: 1;">Oct 2022</text></g><g class="xtick"><text text-anchor="middle" x="0" y="433" style="font-family: 'Open Sans', verdana, arial, sans-serif; font-size: 12px; fill: rgb(42, 63, 95); fill-opacity: 1; white-space: pre; opacity: 1;" transform="translate(287.36,0)">Nov 2022</text></g><g class="xtick"><text text-anchor="middle" x="0" y="433" style="font-family: 'Open Sans', verdana, arial, sans-serif; font-size: 12px; fill: rgb(42, 63, 95); fill-opacity: 1; white-space: pre; opacity: 1;" transform="translate(416.96,0)">Dec 2022</text></g><g class="xtick"><text text-anchor="middle" x="0" y="433" style="font-family: 'Open Sans', verdana, arial, sans-serif; font-size: 12px; fill: rgb(42, 63, 95); fill-opacity: 1; white-space: pre; opacity: 1;" transform="translate(550.88,0)">Jan 2023</text></g></g><g class="yaxislayer-above"><g class="ytick"><text text-anchor="end" x="79" y="4.199999999999999" transform="translate(0,385.91)" style="font-family: 'Open Sans', verdana, arial, sans-serif; font-size: 12px; fill: rgb(42, 63, 95); fill-opacity: 1; white-space: pre; opacity: 1;">$0</text></g><g class="ytick"><text text-anchor="end" x="79" y="4.199999999999999" style="font-family: 'Open Sans', verdana, arial, sans-serif; font-size: 12px; fill: rgb(42, 63, 95); fill-opacity: 1; white-space: pre; opacity: 1;" transform="translate(0,319.77)">$200k</text></g><g class="ytick"><text text-anchor="end" x="79" y="4.199999999999999" style="font-family: 'Open Sans', verdana, arial, sans-serif; font-size: 12px; fill: rgb(42, 63, 95); fill-opacity: 1; white-space: pre; opacity: 1;" transform="translate(0,253.63)">$400k</text></g><g class="ytick"><text text-anchor="end" x="79" y="4.199999999999999" style="font-family: 'Open Sans', verdana, arial, sans-serif; font-size: 12px; fill: rgb(42, 63, 95); fill-opacity: 1; white-space: pre; opacity: 1;" transform="translate(0,187.49)">$600k</text></g><g class="ytick"><text text-anchor="end" x="79" y="4.199999999999999" style="font-family: 'Open Sans', verdana, arial, sans-serif; font-size: 12px; fill: rgb(42, 63, 95); fill-opacity: 1; white-space: pre; opacity: 1;" transform="translate(0,121.36)">$800k</text></g></g><g class="overaxes-above"/></g></g><g class="polarlayer"/><g class="smithlayer"/><g class="ternarylayer"/><g class="geolayer"/><g class="funnelarealayer"/><g class="pielayer"/><g class="iciclelayer"/><g class="treemaplayer"/><g class="sunburstlayer"/><g class="glimages"/><defs id="topdefs-e2f2b4"><g class="clips"/></defs><g class="layer-above"><g class="imagelayer"/><g class="shapelayer"/></g><g class="infolayer"><g class="g-gtitle"><text class="gtitle" x="35" y="50" text-anchor="start" dy="0em" style="font-family: 'Open Sans', verdana, arial, sans-serif; font-size: 17px; fill: rgb(42, 63, 95); opacity: 1; font-weight: normal; white-space: pre;"><tspan class="line" dy="0em" x="35" y="50">Polynomial Protocol</tspan><tspan class="line" dy="1.3em" x="35" y="50">​<tspan style="font-size:70%" dy="-0.6em">Cumulative Net Dollar Flow since Program Announcement, Until Program End + 30 Days</tspan><tspan dy="0.42em">​</tspan></tspan></text></g><g class="g-xtitle"><text class="xtitle" x="350" y="460.8" text-anchor="middle" style="font-family: 'Open Sans', verdana, arial, sans-serif; font-size: 14px; fill: rgb(42, 63, 95); opacity: 1; font-weight: normal; white-space: pre;">Day</text></g><g class="g-ytitle"><text class="ytitle" transform="rotate(-90,21.496875000000003,260)" x="21.496875000000003" y="260" text-anchor="middle" style="font-family: 'Open Sans', verdana, arial, sans-serif; font-size: 14px; fill: rgb(42, 63, 95); opacity: 1; font-weight: normal; white-space: pre;">Cumulative Net Dollar Flow (N$F)</text></g></g></svg>