<svg class="main-svg" xmlns="http://www.w3.org/2000/svg" xmlns:xlink="http://www.w3.org/1999/xlink" width="700" height="500" style="" viewBox="0 0 700 500"><rect x="0" y="0" width="700" height="500" style="fill: rgb(255, 255, 255); fill-opacity: 1;"/><defs id="defs-80e5a6"><g class="clips"><clipPath id="clip80e5a6xyplot" class="plotclip"><rect width="540" height="320"/></clipPath><clipPath class="axesclip" id="clip80e5a6x"><rect x="80" y="0" width="540" height="500"/></clipPath><clipPath class="axesclip" id="clip80e5a6y"><rect x="0" y="100" width="700" height="320"/></clipPath><clipPath class="axesclip" id="clip80e5a6xy"><rect x="80" y="100" width="540" height="320"/></clipPath></g><g class="gradients"/><g class="patterns"/></defs><g class="bglayer"><rect class="bg" x="80" y="100" width="540" height="320" style="fill: rgb(229, 236, 246); fill-opacity: 1; stroke-width: 0;"/></g><g class="layer-below"><g class="imagelayer"/><g class="shapelayer"/></g><g class="cartesianlayer"><g class="subplot xy"><g class="layer-subplot"><g class="shapelayer"/><g class="imagelayer"/></g><g class="minor-gridlayer"><g class="x"/><g class="y"/></g><g class="gridlayer"><g class="x"><path class="xgrid crisp" transform="translate(92.78,0)" d="M0,100v320" style="stroke: rgb(255, 255, 255); stroke-opacity: 1; stroke-width: 1px;"/><path class="xgrid crisp" transform="translate(191.82999999999998,0)" d="M0,100v320" style="stroke: rgb(255, 255, 255); stroke-opacity: 1; stroke-width: 1px;"/><path class="xgrid crisp" transform="translate(287.69,0)" d="M0,100v320" style="stroke: rgb(255, 255, 255); stroke-opacity: 1; stroke-width: 1px;"/><path class="xgrid crisp" transform="translate(386.75,0)" d="M0,100v320" style="stroke: rgb(255, 255, 255); stroke-opacity: 1; stroke-width: 1px;"/><path class="xgrid crisp" transform="translate(485.8,0)" d="M0,100v320" style="stroke: rgb(255, 255, 255); stroke-opacity: 1; stroke-width: 1px;"/><path class="xgrid crisp" transform="translate(575.27,0)" d="M0,100v320" style="stroke: rgb(255, 255, 255); stroke-opacity: 1; stroke-width: 1px;"/></g><g class="y"><path class="ygrid crisp" transform="translate(0,375.5)" d="M80,0h540" style="stroke: rgb(255, 255, 255); stroke-opacity: 1; stroke-width: 1px;"/><path class="ygrid crisp" transform="translate(0,331)" d="M80,0h540" style="stroke: rgb(255, 255, 255); stroke-opacity: 1; stroke-width: 1px;"/><path class="ygrid crisp" transform="translate(0,286.49)" d="M80,0h540" style="stroke: rgb(255, 255, 255); stroke-opacity: 1; stroke-width: 1px;"/><path class="ygrid crisp" transform="translate(0,241.99)" d="M80,0h540" style="stroke: rgb(255, 255, 255); stroke-opacity: 1; stroke-width: 1px;"/><path class="ygrid crisp" transform="translate(0,197.49)" d="M80,0h540" style="stroke: rgb(255, 255, 255); stroke-opacity: 1; stroke-width: 1px;"/><path class="ygrid crisp" transform="translate(0,152.99)" d="M80,0h540" style="stroke: rgb(255, 255, 255); stroke-opacity: 1; stroke-width: 1px;"/><path class="ygrid crisp" transform="translate(0,108.48)" d="M80,0h540" style="stroke: rgb(255, 255, 255); stroke-opacity: 1; stroke-width: 1px;"/></g></g><g class="zerolinelayer"><path class="yzl zl crisp" transform="translate(0,420)" d="M80,0h540" style="stroke: rgb(255, 255, 255); stroke-opacity: 1; stroke-width: 2px;"/></g><path class="xlines-below"/><path class="ylines-below"/><g class="overlines-below"/><g class="xaxislayer-below"/><g class="yaxislayer-below"/><g class="overaxes-below"/><g class="plot" transform="translate(80,100)" clip-path="url(#clip80e5a6xyplot)"><g class="scatterlayer mlayer"><g class="trace scatter trace58057f" style="stroke-miterlimit: 2;"><g class="fills"><g><path class="js-fill" d="M540,320L0,320L0,300.87L3.2,300.5L6.39,296.63L12.78,295.84L15.98,294.25L19.17,293.86L22.37,292.04L25.56,286.26L28.76,287.65L31.95,288.71L35.15,285.94L41.54,285.44L44.73,286.8L51.12,287.37L54.32,281.93L63.91,281.2L67.1,276.73L73.49,276.86L76.69,277.94L79.88,278.2L83.08,277.18L86.27,277.4L89.47,278.73L92.66,282.03L95.86,280.9L99.05,277.99L102.25,277.09L108.64,276.91L111.83,276.31L115.03,275.98L118.22,273.1L127.81,271.73L131.01,269.38L134.2,278.69L137.4,279.73L140.59,287.13L143.79,287.34L150.18,291.26L153.37,291.78L156.57,286.1L159.76,286.01L166.15,284.89L169.35,284.46L178.93,283.98L182.13,284.9L185.33,282.61L188.52,281.5L191.72,278.61L194.91,278.13L198.11,280.86L201.3,281.19L204.5,280.37L207.69,276.32L210.89,274.98L214.08,274.85L217.28,274.64L220.47,273.6L223.67,276.43L226.86,274.48L230.06,275.9L233.25,273.11L236.45,276.51L239.64,262.83L242.84,267.2L246.04,265.19L249.23,267.74L252.43,280.04L255.62,280.05L258.82,283.65L262.01,284.15L265.21,283.57L268.4,279.39L271.6,278.95L284.38,278.85L287.57,279.34L297.16,281.14L300.36,281.27L306.75,281.82L309.94,281.29L319.53,281.73L322.72,283.21L325.92,281.68L329.11,281.69L332.31,279.66L335.5,279.27L341.89,277.11L345.09,275.24L354.67,274.08L357.87,270.88L361.07,269.09L364.26,263.69L367.46,260.68L370.65,254.11L373.85,254.77L377.04,249.39L386.63,219.15L389.82,213.01L393.02,209.48L396.21,208.27L399.41,206.04L402.6,200.72L405.8,198.47L408.99,194.47L412.19,192.06L415.38,190.65L418.58,187.52L421.78,170.81L424.97,160.9L428.17,147.09L434.56,149.32L437.75,145.02L440.95,141.22L444.14,140.73L447.34,139.09L450.53,133.87L453.73,126.61L456.92,123.22L460.12,123.83L463.31,111.32L466.51,105.96L469.7,87.69L472.9,91.15L476.09,88.63L479.29,70.68L482.49,68.1L485.68,52.02L488.88,43.94L492.07,39.14L495.27,31.58L498.46,21L501.66,21.24L504.85,21.77L508.05,24.85L511.24,25.85L514.44,19.33L517.63,16L520.83,24.24L524.02,73.83L527.22,195.82L530.41,198.36L533.61,175.9L536.8,145.42L540,144.86" style="fill: rgb(99, 110, 250); fill-opacity: 0.5; stroke-width: 0;"/></g></g><g class="errorbars"/><g class="lines"><path class="js-line" d="M0,300.87L3.2,300.5L6.39,296.63L12.78,295.84L15.98,294.25L19.17,293.86L22.37,292.04L25.56,286.26L28.76,287.65L31.95,288.71L35.15,285.94L41.54,285.44L44.73,286.8L51.12,287.37L54.32,281.93L63.91,281.2L67.1,276.73L73.49,276.86L76.69,277.94L79.88,278.2L83.08,277.18L86.27,277.4L89.47,278.73L92.66,282.03L95.86,280.9L99.05,277.99L102.25,277.09L108.64,276.91L111.83,276.31L115.03,275.98L118.22,273.1L127.81,271.73L131.01,269.38L134.2,278.69L137.4,279.73L140.59,287.13L143.79,287.34L150.18,291.26L153.37,291.78L156.57,286.1L159.76,286.01L166.15,284.89L169.35,284.46L178.93,283.98L182.13,284.9L185.33,282.61L188.52,281.5L191.72,278.61L194.91,278.13L198.11,280.86L201.3,281.19L204.5,280.37L207.69,276.32L210.89,274.98L214.08,274.85L217.28,274.64L220.47,273.6L223.67,276.43L226.86,274.48L230.06,275.9L233.25,273.11L236.45,276.51L239.64,262.83L242.84,267.2L246.04,265.19L249.23,267.74L252.43,280.04L255.62,280.05L258.82,283.65L262.01,284.15L265.21,283.57L268.4,279.39L271.6,278.95L284.38,278.85L287.57,279.34L297.16,281.14L300.36,281.27L306.75,281.82L309.94,281.29L319.53,281.73L322.72,283.21L325.92,281.68L329.11,281.69L332.31,279.66L335.5,279.27L341.89,277.11L345.09,275.24L354.67,274.08L357.87,270.88L361.07,269.09L364.26,263.69L367.46,260.68L370.65,254.11L373.85,254.77L377.04,249.39L386.63,219.15L389.82,213.01L393.02,209.48L396.21,208.27L399.41,206.04L402.6,200.72L405.8,198.47L408.99,194.47L412.19,192.06L415.38,190.65L418.58,187.52L421.78,170.81L424.97,160.9L428.17,147.09L434.56,149.32L437.75,145.02L440.95,141.22L444.14,140.73L447.34,139.09L450.53,133.87L453.73,126.61L456.92,123.22L460.12,123.83L463.31,111.32L466.51,105.96L469.7,87.69L472.9,91.15L476.09,88.63L479.29,70.68L482.49,68.1L485.68,52.02L488.88,43.94L492.07,39.14L495.27,31.58L498.46,21L501.66,21.24L504.85,21.77L508.05,24.85L511.24,25.85L514.44,19.33L517.63,16L520.83,24.24L524.02,73.83L527.22,195.82L530.41,198.36L533.61,175.9L536.8,145.42L540,144.86" style="vector-effect: non-scaling-stroke; fill: none; stroke: rgb(99, 110, 250); stroke-opacity: 1; stroke-width: 2px; opacity: 1;"/></g><g class="points"/><g class="text"/></g></g></g><g class="overplot"/><path class="xlines-above crisp" d="M0,0" style="fill: none;"/><path class="ylines-above crisp" d="M0,0" style="fill: none;"/><g class="overlines-above"/><g class="xaxislayer-above"><g class="xtick"><text text-anchor="middle" x="0" y="433" transform="translate(92.78,0)" style="font-family: 'Open Sans', verdana, arial, sans-serif; font-size: 12px; fill: rgb(42, 63, 95); fill-opacity: 1; white-space: pre; opacity: 1;">Oct 2022</text></g><g class="xtick"><text text-anchor="middle" x="0" y="433" style="font-family: 'Open Sans', verdana, arial, sans-serif; font-size: 12px; fill: rgb(42, 63, 95); fill-opacity: 1; white-space: pre; opacity: 1;" transform="translate(191.82999999999998,0)">Nov 2022</text></g><g class="xtick"><text text-anchor="middle" x="0" y="433" style="font-family: 'Open Sans', verdana, arial, sans-serif; font-size: 12px; fill: rgb(42, 63, 95); fill-opacity: 1; white-space: pre; opacity: 1;" transform="translate(287.69,0)">Dec 2022</text></g><g class="xtick"><text text-anchor="middle" x="0" y="433" style="font-family: 'Open Sans', verdana, arial, sans-serif; font-size: 12px; fill: rgb(42, 63, 95); fill-opacity: 1; white-space: pre; opacity: 1;" transform="translate(386.75,0)">Jan 2023</text></g><g class="xtick"><text text-anchor="middle" x="0" y="433" style="font-family: 'Open Sans', verdana, arial, sans-serif; font-size: 12px; fill: rgb(42, 63, 95); fill-opacity: 1; white-space: pre; opacity: 1;" transform="translate(485.8,0)">Feb 2023</text></g><g class="xtick"><text text-anchor="middle" x="0" y="433" style="font-family: 'Open Sans', verdana, arial, sans-serif; font-size: 12px; fill: rgb(42, 63, 95); fill-opacity: 1; white-space: pre; opacity: 1;" transform="translate(575.27,0)">Mar 2023</text></g></g><g class="yaxislayer-above"><g class="ytick"><text text-anchor="end" x="79" y="4.199999999999999" transform="translate(0,420)" style="font-family: 'Open Sans', verdana, arial, sans-serif; font-size: 12px; fill: rgb(42, 63, 95); fill-opacity: 1; white-space: pre; opacity: 1;">$0</text></g><g class="ytick"><text text-anchor="end" x="79" y="4.199999999999999" style="font-family: 'Open Sans', verdana, arial, sans-serif; font-size: 12px; fill: rgb(42, 63, 95); fill-opacity: 1; white-space: pre; opacity: 1;" transform="translate(0,375.5)">$10M</text></g><g class="ytick"><text text-anchor="end" x="79" y="4.199999999999999" style="font-family: 'Open Sans', verdana, arial, sans-serif; font-size: 12px; fill: rgb(42, 63, 95); fill-opacity: 1; white-space: pre; opacity: 1;" transform="translate(0,331)">$20M</text></g><g class="ytick"><text text-anchor="end" x="79" y="4.199999999999999" style="font-family: 'Open Sans', verdana, arial, sans-serif; font-size: 12px; fill: rgb(42, 63, 95); fill-opacity: 1; white-space: pre; opacity: 1;" transform="translate(0,286.49)">$30M</text></g><g class="ytick"><text text-anchor="end" x="79" y="4.199999999999999" style="font-family: 'Open Sans', verdana, arial, sans-serif; font-size: 12px; fill: rgb(42, 63, 95); fill-opacity: 1; white-space: pre; opacity: 1;" transform="translate(0,241.99)">$40M</text></g><g class="ytick"><text text-anchor="end" x="79" y="4.199999999999999" style="font-family: 'Open Sans', verdana, arial, sans-serif; font-size: 12px; fill: rgb(42, 63, 95); fill-opacity: 1; white-space: pre; opacity: 1;" transform="translate(0,197.49)">$50M</text></g><g class="ytick"><text text-anchor="end" x="79" y="4.199999999999999" style="font-family: 'Open Sans', verdana, arial, sans-serif; font-size: 12px; fill: rgb(42, 63, 95); fill-opacity: 1; white-space: pre; opacity: 1;" transform="translate(0,152.99)">$60M</text></g><g class="ytick"><text text-anchor="end" x="79" y="4.199999999999999" style="font-family: 'Open Sans', verdana, arial, sans-serif; font-size: 12px; fill: rgb(42, 63, 95); fill-opacity: 1; white-space: pre; opacity: 1;" transform="translate(0,108.48)">$70M</text></g></g><g class="overaxes-above"/></g></g><g class="polarlayer"/><g class="smithlayer"/><g class="ternarylayer"/><g class="geolayer"/><g class="funnelarealayer"/><g class="pielayer"/><g class="iciclelayer"/><g class="treemaplayer"/><g class="sunburstlayer"/><g class="glimages"/><defs id="topdefs-80e5a6"><g class="clips"/></defs><g class="layer-above"><g class="imagelayer"/><g class="shapelayer"/></g><g class="infolayer"><g class="g-gtitle"><text class="gtitle" x="35" y="50" text-anchor="start" dy="0em" style="font-family: 'Open Sans', verdana, arial, sans-serif; font-size: 17px; fill: rgb(42, 63, 95); opacity: 1; font-weight: normal; white-space: pre;"><tspan class="line" dy="0em" x="35" y="50">Synthetix - All Synthetix Velo Pools</tspan><tspan class="line" dy="1.3em" x="35" y="50">​<tspan style="font-size:70%" dy="-0.6em">Cumulative Net Flows since Program Announcement, Until Program End + 30 Days</tspan><tspan dy="0.42em">​</tspan></tspan></text></g><g class="g-xtitle"><text class="xtitle" x="350" y="460.8" text-anchor="middle" style="font-family: 'Open Sans', verdana, arial, sans-serif; font-size: 14px; fill: rgb(42, 63, 95); opacity: 1; font-weight: normal; white-space: pre;">Day</text></g><g class="g-ytitle"><text class="ytitle" transform="rotate(-90,24.168750000000003,260)" x="24.168750000000003" y="260" text-anchor="middle" style="font-family: 'Open Sans', verdana, arial, sans-serif; font-size: 14px; fill: rgb(42, 63, 95); opacity: 1; font-weight: normal; white-space: pre;">Cumulative Net Flows (USD)</text></g></g></svg>