<svg class="main-svg" xmlns="http://www.w3.org/2000/svg" xmlns:xlink="http://www.w3.org/1999/xlink" width="700" height="500" style="" viewBox="0 0 700 500"><rect x="0" y="0" width="700" height="500" style="fill: rgb(255, 255, 255); fill-opacity: 1;"/><defs id="defs-3d7fb9"><g class="clips"><clipPath id="clip3d7fb9xyplot" class="plotclip"><rect width="540" height="320"/></clipPath><clipPath class="axesclip" id="clip3d7fb9x"><rect x="80" y="0" width="540" height="500"/></clipPath><clipPath class="axesclip" id="clip3d7fb9y"><rect x="0" y="100" width="700" height="320"/></clipPath><clipPath class="axesclip" id="clip3d7fb9xy"><rect x="80" y="100" width="540" height="320"/></clipPath></g><g class="gradients"/><g class="patterns"/></defs><g class="bglayer"><rect class="bg" x="80" y="100" width="540" height="320" style="fill: rgb(229, 236, 246); fill-opacity: 1; stroke-width: 0;"/></g><g class="layer-below"><g class="imagelayer"/><g class="shapelayer"/></g><g class="cartesianlayer"><g class="subplot xy"><g class="layer-subplot"><g class="shapelayer"/><g class="imagelayer"/></g><g class="minor-gridlayer"><g class="x"/><g class="y"/></g><g class="gridlayer"><g class="x"><path class="xgrid crisp" transform="translate(163.66,0)" d="M0,100v320" style="stroke: rgb(255, 255, 255); stroke-opacity: 1; stroke-width: 1px;"/><path class="xgrid crisp" transform="translate(281.55,0)" d="M0,100v320" style="stroke: rgb(255, 255, 255); stroke-opacity: 1; stroke-width: 1px;"/><path class="xgrid crisp" transform="translate(399.44,0)" d="M0,100v320" style="stroke: rgb(255, 255, 255); stroke-opacity: 1; stroke-width: 1px;"/><path class="xgrid crisp" transform="translate(505.92,0)" d="M0,100v320" style="stroke: rgb(255, 255, 255); stroke-opacity: 1; stroke-width: 1px;"/></g><g class="y"><path class="ygrid crisp" transform="translate(0,401.68)" d="M80,0h540" style="stroke: rgb(255, 255, 255); stroke-opacity: 1; stroke-width: 1px;"/><path class="ygrid crisp" transform="translate(0,320.89)" d="M80,0h540" style="stroke: rgb(255, 255, 255); stroke-opacity: 1; stroke-width: 1px;"/><path class="ygrid crisp" transform="translate(0,280.5)" d="M80,0h540" style="stroke: rgb(255, 255, 255); stroke-opacity: 1; stroke-width: 1px;"/><path class="ygrid crisp" transform="translate(0,240.11)" d="M80,0h540" style="stroke: rgb(255, 255, 255); stroke-opacity: 1; stroke-width: 1px;"/><path class="ygrid crisp" transform="translate(0,199.70999999999998)" d="M80,0h540" style="stroke: rgb(255, 255, 255); stroke-opacity: 1; stroke-width: 1px;"/><path class="ygrid crisp" transform="translate(0,159.32)" d="M80,0h540" style="stroke: rgb(255, 255, 255); stroke-opacity: 1; stroke-width: 1px;"/><path class="ygrid crisp" transform="translate(0,118.93)" d="M80,0h540" style="stroke: rgb(255, 255, 255); stroke-opacity: 1; stroke-width: 1px;"/></g></g><g class="zerolinelayer"><path class="yzl zl crisp" transform="translate(0,361.29)" d="M80,0h540" style="stroke: rgb(255, 255, 255); stroke-opacity: 1; stroke-width: 2px;"/></g><path class="xlines-below"/><path class="ylines-below"/><g class="overlines-below"/><g class="xaxislayer-below"/><g class="yaxislayer-below"/><g class="overaxes-below"/><g class="plot" transform="translate(80,100)" clip-path="url(#clip3d7fb9xyplot)"><g class="scatterlayer mlayer"><g class="trace scatter trace808c8d" style="stroke-miterlimit: 2;"><g class="fills"><g><path class="js-fill" d="M540,261.29L0,261.29L0,261.34L7.61,257.04L11.41,256.05L30.42,255.4L34.23,255.83L57.04,252.88L60.85,253.7L98.87,254.13L102.68,253.39L106.48,255.02L110.28,254.75L125.49,254.41L129.3,255.74L133.1,256.59L136.9,256.44L140.7,255.53L144.51,255.4L159.72,255.02L163.52,253.29L167.32,253.74L171.13,253.28L174.93,252.33L178.73,252.26L190.14,251.78L193.94,249.83L201.55,249.87L205.35,247.54L209.15,247.19L212.96,249.81L216.76,248.03L220.56,248.37L228.17,247.96L231.97,248.42L235.77,248.42L239.58,246.64L243.38,245.38L247.18,245.79L250.99,243.69L254.79,243.49L262.39,240.86L266.2,240.71L273.8,241.76L277.61,240.11L281.41,239.06L285.21,225.57L289.01,226.83L292.82,226.61L296.62,222.43L300.42,222.17L304.23,222.51L308.03,217.31L311.83,246.9L315.63,248.48L319.44,246.06L323.24,235.23L330.85,234.59L334.65,229.59L338.45,229.07L342.25,203.5L346.06,202.57L349.86,195.56L353.66,196.12L357.46,188.61L361.27,188.87L365.07,165.95L368.87,166.29L372.68,165.38L376.48,165.08L380.28,155.75L384.08,155.73L387.89,156.66L391.69,143.2L395.49,143.24L403.1,141.37L406.9,135.61L410.7,125.63L414.51,124.38L422.11,123.79L425.92,121.18L429.72,121.14L433.52,113.64L441.13,114.07L444.93,108.82L448.73,107.13L452.54,106.55L456.34,103.51L460.14,108.3L463.94,108.46L467.75,111.34L471.55,108.84L475.35,92.8L479.15,86.23L482.96,86.47L486.76,80.78L490.56,58.94L494.37,60.09L498.17,51.12L501.97,37.54L505.77,36.03L517.18,35.06L520.99,36.3L524.79,36.39L528.59,39.38L532.39,18.73L536.2,16L540,304" style="fill: rgb(99, 110, 250); fill-opacity: 0.5; stroke-width: 0;"/></g></g><g class="errorbars"/><g class="lines"><path class="js-line" d="M0,261.34L7.61,257.04L11.41,256.05L30.42,255.4L34.23,255.83L57.04,252.88L60.85,253.7L98.87,254.13L102.68,253.39L106.48,255.02L110.28,254.75L125.49,254.41L129.3,255.74L133.1,256.59L136.9,256.44L140.7,255.53L144.51,255.4L159.72,255.02L163.52,253.29L167.32,253.74L171.13,253.28L174.93,252.33L178.73,252.26L190.14,251.78L193.94,249.83L201.55,249.87L205.35,247.54L209.15,247.19L212.96,249.81L216.76,248.03L220.56,248.37L228.17,247.96L231.97,248.42L235.77,248.42L239.58,246.64L243.38,245.38L247.18,245.79L250.99,243.69L254.79,243.49L262.39,240.86L266.2,240.71L273.8,241.76L277.61,240.11L281.41,239.06L285.21,225.57L289.01,226.83L292.82,226.61L296.62,222.43L300.42,222.17L304.23,222.51L308.03,217.31L311.83,246.9L315.63,248.48L319.44,246.06L323.24,235.23L330.85,234.59L334.65,229.59L338.45,229.07L342.25,203.5L346.06,202.57L349.86,195.56L353.66,196.12L357.46,188.61L361.27,188.87L365.07,165.95L368.87,166.29L372.68,165.38L376.48,165.08L380.28,155.75L384.08,155.73L387.89,156.66L391.69,143.2L395.49,143.24L403.1,141.37L406.9,135.61L410.7,125.63L414.51,124.38L422.11,123.79L425.92,121.18L429.72,121.14L433.52,113.64L441.13,114.07L444.93,108.82L448.73,107.13L452.54,106.55L456.34,103.51L460.14,108.3L463.94,108.46L467.75,111.34L471.55,108.84L475.35,92.8L479.15,86.23L482.96,86.47L486.76,80.78L490.56,58.94L494.37,60.09L498.17,51.12L501.97,37.54L505.77,36.03L517.18,35.06L520.99,36.3L524.79,36.39L528.59,39.38L532.39,18.73L536.2,16L540,304" style="vector-effect: non-scaling-stroke; fill: none; stroke: rgb(99, 110, 250); stroke-opacity: 1; stroke-width: 2px; opacity: 1;"/></g><g class="points"/><g class="text"/></g></g></g><g class="overplot"/><path class="xlines-above crisp" d="M0,0" style="fill: none;"/><path class="ylines-above crisp" d="M0,0" style="fill: none;"/><g class="overlines-above"/><g class="xaxislayer-above"><g class="xtick"><text text-anchor="middle" x="0" y="433" transform="translate(163.66,0)" style="font-family: 'Open Sans', verdana, arial, sans-serif; font-size: 12px; fill: rgb(42, 63, 95); fill-opacity: 1; white-space: pre; opacity: 1;">Dec 2022</text></g><g class="xtick"><text text-anchor="middle" x="0" y="433" style="font-family: 'Open Sans', verdana, arial, sans-serif; font-size: 12px; fill: rgb(42, 63, 95); fill-opacity: 1; white-space: pre; opacity: 1;" transform="translate(281.55,0)">Jan 2023</text></g><g class="xtick"><text text-anchor="middle" x="0" y="433" style="font-family: 'Open Sans', verdana, arial, sans-serif; font-size: 12px; fill: rgb(42, 63, 95); fill-opacity: 1; white-space: pre; opacity: 1;" transform="translate(399.44,0)">Feb 2023</text></g><g class="xtick"><text text-anchor="middle" x="0" y="433" style="font-family: 'Open Sans', verdana, arial, sans-serif; font-size: 12px; fill: rgb(42, 63, 95); fill-opacity: 1; white-space: pre; opacity: 1;" transform="translate(505.92,0)">Mar 2023</text></g></g><g class="yaxislayer-above"><g class="ytick"><text text-anchor="end" x="79" y="4.199999999999999" transform="translate(0,401.68)" style="font-family: 'Open Sans', verdana, arial, sans-serif; font-size: 12px; fill: rgb(42, 63, 95); fill-opacity: 1; white-space: pre; opacity: 1;">$−5M</text></g><g class="ytick"><text text-anchor="end" x="79" y="4.199999999999999" style="font-family: 'Open Sans', verdana, arial, sans-serif; font-size: 12px; fill: rgb(42, 63, 95); fill-opacity: 1; white-space: pre; opacity: 1;" transform="translate(0,361.29)">$0</text></g><g class="ytick"><text text-anchor="end" x="79" y="4.199999999999999" style="font-family: 'Open Sans', verdana, arial, sans-serif; font-size: 12px; fill: rgb(42, 63, 95); fill-opacity: 1; white-space: pre; opacity: 1;" transform="translate(0,320.89)">$5M</text></g><g class="ytick"><text text-anchor="end" x="79" y="4.199999999999999" style="font-family: 'Open Sans', verdana, arial, sans-serif; font-size: 12px; fill: rgb(42, 63, 95); fill-opacity: 1; white-space: pre; opacity: 1;" transform="translate(0,280.5)">$10M</text></g><g class="ytick"><text text-anchor="end" x="79" y="4.199999999999999" style="font-family: 'Open Sans', verdana, arial, sans-serif; font-size: 12px; fill: rgb(42, 63, 95); fill-opacity: 1; white-space: pre; opacity: 1;" transform="translate(0,240.11)">$15M</text></g><g class="ytick"><text text-anchor="end" x="79" y="4.199999999999999" style="font-family: 'Open Sans', verdana, arial, sans-serif; font-size: 12px; fill: rgb(42, 63, 95); fill-opacity: 1; white-space: pre; opacity: 1;" transform="translate(0,199.70999999999998)">$20M</text></g><g class="ytick"><text text-anchor="end" x="79" y="4.199999999999999" style="font-family: 'Open Sans', verdana, arial, sans-serif; font-size: 12px; fill: rgb(42, 63, 95); fill-opacity: 1; white-space: pre; opacity: 1;" transform="translate(0,159.32)">$25M</text></g><g class="ytick"><text text-anchor="end" x="79" y="4.199999999999999" style="font-family: 'Open Sans', verdana, arial, sans-serif; font-size: 12px; fill: rgb(42, 63, 95); fill-opacity: 1; white-space: pre; opacity: 1;" transform="translate(0,118.93)">$30M</text></g></g><g class="overaxes-above"/></g></g><g class="polarlayer"/><g class="smithlayer"/><g class="ternarylayer"/><g class="geolayer"/><g class="funnelarealayer"/><g class="pielayer"/><g class="iciclelayer"/><g class="treemaplayer"/><g class="sunburstlayer"/><g class="glimages"/><defs id="topdefs-3d7fb9"><g class="clips"/></defs><g class="layer-above"><g class="imagelayer"/><g class="shapelayer"/></g><g class="infolayer"><g class="g-gtitle"><text class="gtitle" x="35" y="50" text-anchor="start" dy="0em" style="font-family: 'Open Sans', verdana, arial, sans-serif; font-size: 17px; fill: rgb(42, 63, 95); opacity: 1; font-weight: normal; white-space: pre;"><tspan class="line" dy="0em" x="35" y="50">Rocket Pool - WETH/rETH: Beethoven X</tspan><tspan class="line" dy="1.3em" x="35" y="50">​<tspan style="font-size:70%" dy="-0.6em">Cumulative Net Flows since Program Announcement, Until Program End + 30 Days</tspan><tspan dy="0.42em">​</tspan></tspan></text></g><g class="g-xtitle"><text class="xtitle" x="350" y="460.8" text-anchor="middle" style="font-family: 'Open Sans', verdana, arial, sans-serif; font-size: 14px; fill: rgb(42, 63, 95); opacity: 1; font-weight: normal; white-space: pre;">Day</text></g><g class="g-ytitle"><text class="ytitle" transform="rotate(-90,23.840625000000003,260)" x="23.840625000000003" y="260" text-anchor="middle" style="font-family: 'Open Sans', verdana, arial, sans-serif; font-size: 14px; fill: rgb(42, 63, 95); opacity: 1; font-weight: normal; white-space: pre;">Cumulative Net Flows (USD)</text></g></g></svg>