<svg class="main-svg" xmlns="http://www.w3.org/2000/svg" xmlns:xlink="http://www.w3.org/1999/xlink" width="700" height="500" style="" viewBox="0 0 700 500"><rect x="0" y="0" width="700" height="500" style="fill: rgb(255, 255, 255); fill-opacity: 1;"/><defs id="defs-2cd27a"><g class="clips"><clipPath id="clip2cd27axyplot" class="plotclip"><rect width="540" height="320"/></clipPath><clipPath class="axesclip" id="clip2cd27ax"><rect x="80" y="0" width="540" height="500"/></clipPath><clipPath class="axesclip" id="clip2cd27ay"><rect x="0" y="100" width="700" height="320"/></clipPath><clipPath class="axesclip" id="clip2cd27axy"><rect x="80" y="100" width="540" height="320"/></clipPath></g><g class="gradients"/><g class="patterns"/></defs><g class="bglayer"><rect class="bg" x="80" y="100" width="540" height="320" style="fill: rgb(229, 236, 246); fill-opacity: 1; stroke-width: 0;"/></g><g class="layer-below"><g class="imagelayer"/><g class="shapelayer"/></g><g class="cartesianlayer"><g class="subplot xy"><g class="layer-subplot"><g class="shapelayer"/><g class="imagelayer"/></g><g class="minor-gridlayer"><g class="x"/><g class="y"/></g><g class="gridlayer"><g class="x"><path class="xgrid crisp" transform="translate(93.94,0)" d="M0,100v320" style="stroke: rgb(255, 255, 255); stroke-opacity: 1; stroke-width: 1px;"/><path class="xgrid crisp" transform="translate(201.94,0)" d="M0,100v320" style="stroke: rgb(255, 255, 255); stroke-opacity: 1; stroke-width: 1px;"/><path class="xgrid crisp" transform="translate(306.45,0)" d="M0,100v320" style="stroke: rgb(255, 255, 255); stroke-opacity: 1; stroke-width: 1px;"/><path class="xgrid crisp" transform="translate(414.45,0)" d="M0,100v320" style="stroke: rgb(255, 255, 255); stroke-opacity: 1; stroke-width: 1px;"/><path class="xgrid crisp" transform="translate(522.45,0)" d="M0,100v320" style="stroke: rgb(255, 255, 255); stroke-opacity: 1; stroke-width: 1px;"/></g><g class="y"><path class="ygrid crisp" transform="translate(0,340.76)" d="M80,0h540" style="stroke: rgb(255, 255, 255); stroke-opacity: 1; stroke-width: 1px;"/><path class="ygrid crisp" transform="translate(0,287.1)" d="M80,0h540" style="stroke: rgb(255, 255, 255); stroke-opacity: 1; stroke-width: 1px;"/><path class="ygrid crisp" transform="translate(0,233.44)" d="M80,0h540" style="stroke: rgb(255, 255, 255); stroke-opacity: 1; stroke-width: 1px;"/><path class="ygrid crisp" transform="translate(0,179.78)" d="M80,0h540" style="stroke: rgb(255, 255, 255); stroke-opacity: 1; stroke-width: 1px;"/><path class="ygrid crisp" transform="translate(0,126.13)" d="M80,0h540" style="stroke: rgb(255, 255, 255); stroke-opacity: 1; stroke-width: 1px;"/></g></g><g class="zerolinelayer"><path class="yzl zl crisp" transform="translate(0,394.41)" d="M80,0h540" style="stroke: rgb(255, 255, 255); stroke-opacity: 1; stroke-width: 2px;"/></g><path class="xlines-below"/><path class="ylines-below"/><g class="overlines-below"/><g class="xaxislayer-below"/><g class="yaxislayer-below"/><g class="overaxes-below"/><g class="plot" transform="translate(80,100)" clip-path="url(#clip2cd27axyplot)"><g class="scatterlayer mlayer"><g class="trace scatter trace7597a6" style="stroke-miterlimit: 2;"><g class="fills"><g><path class="js-fill" d="M540,294.41L0,294.41L0,300.75L3.48,300.76L6.97,300.02L20.9,299.08L24.39,297.53L27.87,292L31.35,292.2L34.84,297.23L38.32,291.87L45.29,292.63L48.77,292.67L52.26,292.81L55.74,289.96L59.23,283.26L62.71,282.26L66.19,282.27L69.68,284.01L73.16,273.18L76.65,273.05L80.13,272.92L83.61,275.96L87.1,276.33L90.58,274.27L94.06,274.81L97.55,276.14L101.03,282.6L104.52,278.88L108,273.09L111.48,271.62L114.97,272.24L118.45,271.84L121.94,270.73L125.42,271.32L139.35,271.1L142.84,270.2L146.32,286.36L149.81,287.96L153.29,303.07L156.77,301.17L163.74,302.42L167.23,304L170.71,290.81L174.19,289.17L177.68,294.92L181.16,293.19L184.65,292.1L188.13,292.65L191.61,294.06L195.1,294.22L198.58,296.04L202.06,295.42L205.55,294.03L209.03,287.18L212.52,286.66L216,293.82L219.48,294.38L222.97,293.39L226.45,283.63L229.94,280.67L236.9,281.22L240.39,278.58L243.87,277.53L247.35,271.76L250.84,271.43L254.32,268.18L257.81,277.46L261.29,245.03L264.77,261.74L268.26,262.23L271.74,268.89L275.23,289.34L278.71,289.22L282.19,297.74L285.68,298.97L289.16,298.3L292.65,289.89L296.13,289.81L299.61,292.06L303.1,292.53L313.55,292.89L317.03,293.28L320.52,294.65L324,294.77L348.39,294.84L351.87,297.83L355.35,294.32L358.84,294.07L362.32,289.55L365.81,288.38L369.29,288.21L372.77,286.61L376.26,284.58L379.74,283.78L386.71,284.08L390.19,280.24L393.68,279.59L397.16,270.43L400.65,262.81L404.13,259.4L407.61,264.72L411.1,252.88L414.58,240.37L418.06,236.17L425.03,208.43L428.52,202.89L432,202.89L435.48,199.07L438.97,185.73L442.45,181.99L445.94,175.3L449.42,171.42L452.9,169.91L456.39,163.73L459.87,129.29L463.35,126.64L466.84,105.66L470.32,109.57L473.81,109.54L477.29,100.53L480.77,91.76L484.26,90.68L487.74,90.71L491.23,85.91L494.71,88L498.19,79.96L501.68,77.88L505.16,62.9L508.65,54.98L512.13,49.35L515.61,60.27L519.1,54.21L522.58,36.09L526.06,37.09L529.55,35.73L533.03,28.3L536.52,16L540,16.01" style="fill: rgb(99, 110, 250); fill-opacity: 0.5; stroke-width: 0;"/></g></g><g class="errorbars"/><g class="lines"><path class="js-line" d="M0,300.75L3.48,300.76L6.97,300.02L20.9,299.08L24.39,297.53L27.87,292L31.35,292.2L34.84,297.23L38.32,291.87L45.29,292.63L48.77,292.67L52.26,292.81L55.74,289.96L59.23,283.26L62.71,282.26L66.19,282.27L69.68,284.01L73.16,273.18L76.65,273.05L80.13,272.92L83.61,275.96L87.1,276.33L90.58,274.27L94.06,274.81L97.55,276.14L101.03,282.6L104.52,278.88L108,273.09L111.48,271.62L114.97,272.24L118.45,271.84L121.94,270.73L125.42,271.32L139.35,271.1L142.84,270.2L146.32,286.36L149.81,287.96L153.29,303.07L156.77,301.17L163.74,302.42L167.23,304L170.71,290.81L174.19,289.17L177.68,294.92L181.16,293.19L184.65,292.1L188.13,292.65L191.61,294.06L195.1,294.22L198.58,296.04L202.06,295.42L205.55,294.03L209.03,287.18L212.52,286.66L216,293.82L219.48,294.38L222.97,293.39L226.45,283.63L229.94,280.67L236.9,281.22L240.39,278.58L243.87,277.53L247.35,271.76L250.84,271.43L254.32,268.18L257.81,277.46L261.29,245.03L264.77,261.74L268.26,262.23L271.74,268.89L275.23,289.34L278.71,289.22L282.19,297.74L285.68,298.97L289.16,298.3L292.65,289.89L296.13,289.81L299.61,292.06L303.1,292.53L313.55,292.89L317.03,293.28L320.52,294.65L324,294.77L348.39,294.84L351.87,297.83L355.35,294.32L358.84,294.07L362.32,289.55L365.81,288.38L369.29,288.21L372.77,286.61L376.26,284.58L379.74,283.78L386.71,284.08L390.19,280.24L393.68,279.59L397.16,270.43L400.65,262.81L404.13,259.4L407.61,264.72L411.1,252.88L414.58,240.37L418.06,236.17L425.03,208.43L428.52,202.89L432,202.89L435.48,199.07L438.97,185.73L442.45,181.99L445.94,175.3L449.42,171.42L452.9,169.91L456.39,163.73L459.87,129.29L463.35,126.64L466.84,105.66L470.32,109.57L473.81,109.54L477.29,100.53L480.77,91.76L484.26,90.68L487.74,90.71L491.23,85.91L494.71,88L498.19,79.96L501.68,77.88L505.16,62.9L508.65,54.98L512.13,49.35L515.61,60.27L519.1,54.21L522.58,36.09L526.06,37.09L529.55,35.73L533.03,28.3L536.52,16L540,16.01" style="vector-effect: non-scaling-stroke; fill: none; stroke: rgb(99, 110, 250); stroke-opacity: 1; stroke-width: 2px; opacity: 1;"/></g><g class="points"/><g class="text"/></g></g></g><g class="overplot"/><path class="xlines-above crisp" d="M0,0" style="fill: none;"/><path class="ylines-above crisp" d="M0,0" style="fill: none;"/><g class="overlines-above"/><g class="xaxislayer-above"><g class="xtick"><text text-anchor="middle" x="0" y="433" transform="translate(93.94,0)" style="font-family: 'Open Sans', verdana, arial, sans-serif; font-size: 12px; fill: rgb(42, 63, 95); fill-opacity: 1; white-space: pre; opacity: 1;">Oct 2022</text></g><g class="xtick"><text text-anchor="middle" x="0" y="433" style="font-family: 'Open Sans', verdana, arial, sans-serif; font-size: 12px; fill: rgb(42, 63, 95); fill-opacity: 1; white-space: pre; opacity: 1;" transform="translate(201.94,0)">Nov 2022</text></g><g class="xtick"><text text-anchor="middle" x="0" y="433" style="font-family: 'Open Sans', verdana, arial, sans-serif; font-size: 12px; fill: rgb(42, 63, 95); fill-opacity: 1; white-space: pre; opacity: 1;" transform="translate(306.45,0)">Dec 2022</text></g><g class="xtick"><text text-anchor="middle" x="0" y="433" style="font-family: 'Open Sans', verdana, arial, sans-serif; font-size: 12px; fill: rgb(42, 63, 95); fill-opacity: 1; white-space: pre; opacity: 1;" transform="translate(414.45,0)">Jan 2023</text></g><g class="xtick"><text text-anchor="middle" x="0" y="433" style="font-family: 'Open Sans', verdana, arial, sans-serif; font-size: 12px; fill: rgb(42, 63, 95); fill-opacity: 1; white-space: pre; opacity: 1;" transform="translate(522.45,0)">Feb 2023</text></g><g class="xtick"><text text-anchor="middle" x="0" y="433" style="font-family: 'Open Sans', verdana, arial, sans-serif; font-size: 12px; fill: rgb(42, 63, 95); fill-opacity: 1; white-space: pre; opacity: 1;" transform="translate(620,0)">Mar 2023</text></g></g><g class="yaxislayer-above"><g class="ytick"><text text-anchor="end" x="79" y="4.199999999999999" transform="translate(0,394.41)" style="font-family: 'Open Sans', verdana, arial, sans-serif; font-size: 12px; fill: rgb(42, 63, 95); fill-opacity: 1; white-space: pre; opacity: 1;">$0</text></g><g class="ytick"><text text-anchor="end" x="79" y="4.199999999999999" style="font-family: 'Open Sans', verdana, arial, sans-serif; font-size: 12px; fill: rgb(42, 63, 95); fill-opacity: 1; white-space: pre; opacity: 1;" transform="translate(0,340.76)">$5M</text></g><g class="ytick"><text text-anchor="end" x="79" y="4.199999999999999" style="font-family: 'Open Sans', verdana, arial, sans-serif; font-size: 12px; fill: rgb(42, 63, 95); fill-opacity: 1; white-space: pre; opacity: 1;" transform="translate(0,287.1)">$10M</text></g><g class="ytick"><text text-anchor="end" x="79" y="4.199999999999999" style="font-family: 'Open Sans', verdana, arial, sans-serif; font-size: 12px; fill: rgb(42, 63, 95); fill-opacity: 1; white-space: pre; opacity: 1;" transform="translate(0,233.44)">$15M</text></g><g class="ytick"><text text-anchor="end" x="79" y="4.199999999999999" style="font-family: 'Open Sans', verdana, arial, sans-serif; font-size: 12px; fill: rgb(42, 63, 95); fill-opacity: 1; white-space: pre; opacity: 1;" transform="translate(0,179.78)">$20M</text></g><g class="ytick"><text text-anchor="end" x="79" y="4.199999999999999" style="font-family: 'Open Sans', verdana, arial, sans-serif; font-size: 12px; fill: rgb(42, 63, 95); fill-opacity: 1; white-space: pre; opacity: 1;" transform="translate(0,126.13)">$25M</text></g></g><g class="overaxes-above"/></g></g><g class="polarlayer"/><g class="smithlayer"/><g class="ternarylayer"/><g class="geolayer"/><g class="funnelarealayer"/><g class="pielayer"/><g class="iciclelayer"/><g class="treemaplayer"/><g class="sunburstlayer"/><g class="glimages"/><defs id="topdefs-2cd27a"><g class="clips"/></defs><g class="layer-above"><g class="imagelayer"/><g class="shapelayer"/></g><g class="infolayer"><g class="g-gtitle"><text class="gtitle" x="35" y="50" text-anchor="start" dy="0em" style="font-family: 'Open Sans', verdana, arial, sans-serif; font-size: 17px; fill: rgb(42, 63, 95); opacity: 1; font-weight: normal; white-space: pre;"><tspan class="line" dy="0em" x="35" y="50">Synthetix - USDC/sUSD: Velo</tspan><tspan class="line" dy="1.3em" x="35" y="50">​<tspan style="font-size:70%" dy="-0.6em">Cumulative Net Flows since Program Announcement, Until Program End + 30 Days</tspan><tspan dy="0.42em">​</tspan></tspan></text></g><g class="g-xtitle"><text class="xtitle" x="350" y="460.8" text-anchor="middle" style="font-family: 'Open Sans', verdana, arial, sans-serif; font-size: 14px; fill: rgb(42, 63, 95); opacity: 1; font-weight: normal; white-space: pre;">Day</text></g><g class="g-ytitle"><text class="ytitle" transform="rotate(-90,24.168750000000003,260)" x="24.168750000000003" y="260" text-anchor="middle" style="font-family: 'Open Sans', verdana, arial, sans-serif; font-size: 14px; fill: rgb(42, 63, 95); opacity: 1; font-weight: normal; white-space: pre;">Cumulative Net Flows (USD)</text></g></g></svg>