<svg class="main-svg" xmlns="http://www.w3.org/2000/svg" xmlns:xlink="http://www.w3.org/1999/xlink" width="700" height="500" style="" viewBox="0 0 700 500"><rect x="0" y="0" width="700" height="500" style="fill: rgb(255, 255, 255); fill-opacity: 1;"/><defs id="defs-275bed"><g class="clips"><clipPath id="clip275bedxyplot" class="plotclip"><rect width="540" height="320"/></clipPath><clipPath class="axesclip" id="clip275bedx"><rect x="80" y="0" width="540" height="500"/></clipPath><clipPath class="axesclip" id="clip275bedy"><rect x="0" y="100" width="700" height="320"/></clipPath><clipPath class="axesclip" id="clip275bedxy"><rect x="80" y="100" width="540" height="320"/></clipPath></g><g class="gradients"/><g class="patterns"/></defs><g class="bglayer"><rect class="bg" x="80" y="100" width="540" height="320" style="fill: rgb(229, 236, 246); fill-opacity: 1; stroke-width: 0;"/></g><g class="layer-below"><g class="imagelayer"/><g class="shapelayer"/></g><g class="cartesianlayer"><g class="subplot xy"><g class="layer-subplot"><g class="shapelayer"/><g class="imagelayer"/></g><g class="minor-gridlayer"><g class="x"/><g class="y"/></g><g class="gridlayer"><g class="x"><path class="xgrid crisp" transform="translate(121.35,0)" d="M0,100v320" style="stroke: rgb(255, 255, 255); stroke-opacity: 1; stroke-width: 1px;"/><path class="xgrid crisp" transform="translate(196.76,0)" d="M0,100v320" style="stroke: rgb(255, 255, 255); stroke-opacity: 1; stroke-width: 1px;"/><path class="xgrid crisp" transform="translate(269.73,0)" d="M0,100v320" style="stroke: rgb(255, 255, 255); stroke-opacity: 1; stroke-width: 1px;"/><path class="xgrid crisp" transform="translate(345.14,0)" d="M0,100v320" style="stroke: rgb(255, 255, 255); stroke-opacity: 1; stroke-width: 1px;"/><path class="xgrid crisp" transform="translate(418.11,0)" d="M0,100v320" style="stroke: rgb(255, 255, 255); stroke-opacity: 1; stroke-width: 1px;"/><path class="xgrid crisp" transform="translate(493.51,0)" d="M0,100v320" style="stroke: rgb(255, 255, 255); stroke-opacity: 1; stroke-width: 1px;"/><path class="xgrid crisp" transform="translate(568.9200000000001,0)" d="M0,100v320" style="stroke: rgb(255, 255, 255); stroke-opacity: 1; stroke-width: 1px;"/></g><g class="y"><path class="ygrid crisp" transform="translate(0,386.32)" d="M80,0h540" style="stroke: rgb(255, 255, 255); stroke-opacity: 1; stroke-width: 1px;"/><path class="ygrid crisp" transform="translate(0,302.9)" d="M80,0h540" style="stroke: rgb(255, 255, 255); stroke-opacity: 1; stroke-width: 1px;"/><path class="ygrid crisp" transform="translate(0,261.19)" d="M80,0h540" style="stroke: rgb(255, 255, 255); stroke-opacity: 1; stroke-width: 1px;"/><path class="ygrid crisp" transform="translate(0,219.48000000000002)" d="M80,0h540" style="stroke: rgb(255, 255, 255); stroke-opacity: 1; stroke-width: 1px;"/><path class="ygrid crisp" transform="translate(0,177.76999999999998)" d="M80,0h540" style="stroke: rgb(255, 255, 255); stroke-opacity: 1; stroke-width: 1px;"/><path class="ygrid crisp" transform="translate(0,136.06)" d="M80,0h540" style="stroke: rgb(255, 255, 255); stroke-opacity: 1; stroke-width: 1px;"/></g></g><g class="zerolinelayer"><path class="yzl zl crisp" transform="translate(0,344.61)" d="M80,0h540" style="stroke: rgb(255, 255, 255); stroke-opacity: 1; stroke-width: 2px;"/></g><path class="xlines-below"/><path class="ylines-below"/><g class="overlines-below"/><g class="xaxislayer-below"/><g class="yaxislayer-below"/><g class="overaxes-below"/><g class="plot" transform="translate(80,100)" clip-path="url(#clip275bedxyplot)"><g class="scatterlayer mlayer"><g class="trace scatter trace1a3685" style="stroke-miterlimit: 2;"><g class="fills"><g><path class="js-fill" d="M540,244.61L0,244.61L0,244.55L7.3,240.68L9.73,239.24L14.59,238.18L17.03,229.49L19.46,227.19L21.89,226.9L24.32,223.08L26.76,222.51L29.19,220.67L31.62,220.69L36.49,214.64L38.92,213.2L41.35,210.54L43.78,201L46.22,200.43L48.65,202.96L51.08,199.33L53.51,144.49L55.95,137.16L58.38,118.72L60.81,111.56L63.24,120.07L65.68,122.81L68.11,123.4L70.54,124.92L72.97,125.43L75.41,126.2L77.84,127.99L80.27,129.9L82.7,140.9L87.57,151.11L90,149.42L92.43,149.34L94.86,166.77L97.3,164.86L99.73,165.89L109.46,166.46L111.89,165.75L116.76,165.04L119.19,163.45L121.62,163.13L124.05,161.78L126.49,161.23L128.92,162.1L131.35,163.66L133.78,161.9L136.22,147.64L138.65,142.14L141.08,141.6L143.51,141.89L145.95,138.52L148.38,165.72L150.81,167.89L153.24,166.33L155.68,165L158.11,162.65L160.54,159.25L162.97,153.52L165.41,160.14L167.84,158.48L170.27,155.27L172.7,148.27L175.14,129.84L177.57,129.48L180,129.2L182.43,123.24L184.86,127.15L187.3,124.67L189.73,120.32L192.16,119.15L194.59,119.41L197.03,127.16L199.46,123.88L201.89,124.21L206.76,124.59L209.19,123.57L211.62,118.24L214.05,116.13L218.92,119.12L221.35,122.96L223.78,103.53L226.22,106.6L228.65,117.56L231.08,117.68L233.51,117.57L235.95,120.02L240.81,119.86L243.24,120.17L245.68,119.82L248.11,120.67L252.97,121.51L255.41,126.96L257.84,127.12L260.27,129.79L262.7,128.95L265.14,124.63L267.57,124.77L270,114.98L272.43,114.67L274.86,112.96L282.16,111.9L284.59,119.93L287.03,133.78L289.46,133.98L291.89,134.42L294.32,133.77L296.76,133.93L299.19,133.09L311.35,130.42L313.78,129.58L318.65,128.05L321.08,115.51L323.51,113.46L325.95,117.38L328.38,121.03L330.81,108.68L333.24,108.53L335.68,109.99L338.11,108.92L340.54,109.74L342.97,121.55L345.41,122.15L350.27,123.5L352.7,122.52L355.14,123.18L357.57,122.22L360,121.75L362.43,115.92L364.86,112.18L367.3,110.2L372.16,108.62L374.59,107.82L377.03,118.19L379.46,117.56L381.89,109.2L384.32,108.59L389.19,108.05L391.62,107.52L394.05,99.83L396.49,99.92L401.35,98.19L403.78,97.99L406.22,103.12L408.65,102.44L411.08,102.12L413.51,99.37L418.38,101.17L420.81,105.06L425.68,103.84L428.11,105.42L432.97,103.9L435.41,101.65L437.84,100.56L440.27,98.17L445.14,98.62L447.57,94.35L450,93.23L452.43,89.82L454.86,84.59L457.3,85.77L459.73,85.22L462.16,80.96L464.59,80.89L467.03,75.18L469.46,73.87L471.89,63.4L476.76,57.03L479.19,51.69L481.62,50.7L484.05,44.29L486.49,42.09L488.92,38.47L493.78,27.23L496.22,19.19L498.65,27.48L501.08,28.79L503.51,26.93L505.95,16L508.38,29.89L510.81,29.37L513.24,24.16L515.68,63.08L518.11,117.91L520.54,126L522.97,153.71L525.41,168.6L527.84,173.26L530.27,238.76L535.14,240.63L537.57,242.86L540,247.41L540,304" style="fill: rgb(99, 110, 250); fill-opacity: 0.5; stroke-width: 0;"/></g></g><g class="errorbars"/><g class="lines"><path class="js-line" d="M0,244.55L7.3,240.68L9.73,239.24L14.59,238.18L17.03,229.49L19.46,227.19L21.89,226.9L24.32,223.08L26.76,222.51L29.19,220.67L31.62,220.69L36.49,214.64L38.92,213.2L41.35,210.54L43.78,201L46.22,200.43L48.65,202.96L51.08,199.33L53.51,144.49L55.95,137.16L58.38,118.72L60.81,111.56L63.24,120.07L65.68,122.81L68.11,123.4L70.54,124.92L72.97,125.43L75.41,126.2L77.84,127.99L80.27,129.9L82.7,140.9L87.57,151.11L90,149.42L92.43,149.34L94.86,166.77L97.3,164.86L99.73,165.89L109.46,166.46L111.89,165.75L116.76,165.04L119.19,163.45L121.62,163.13L124.05,161.78L126.49,161.23L128.92,162.1L131.35,163.66L133.78,161.9L136.22,147.64L138.65,142.14L141.08,141.6L143.51,141.89L145.95,138.52L148.38,165.72L150.81,167.89L153.24,166.33L155.68,165L158.11,162.65L160.54,159.25L162.97,153.52L165.41,160.14L167.84,158.48L170.27,155.27L172.7,148.27L175.14,129.84L177.57,129.48L180,129.2L182.43,123.24L184.86,127.15L187.3,124.67L189.73,120.32L192.16,119.15L194.59,119.41L197.03,127.16L199.46,123.88L201.89,124.21L206.76,124.59L209.19,123.57L211.62,118.24L214.05,116.13L218.92,119.12L221.35,122.96L223.78,103.53L226.22,106.6L228.65,117.56L231.08,117.68L233.51,117.57L235.95,120.02L240.81,119.86L243.24,120.17L245.68,119.82L248.11,120.67L252.97,121.51L255.41,126.96L257.84,127.12L260.27,129.79L262.7,128.95L265.14,124.63L267.57,124.77L270,114.98L272.43,114.67L274.86,112.96L282.16,111.9L284.59,119.93L287.03,133.78L289.46,133.98L291.89,134.42L294.32,133.77L296.76,133.93L299.19,133.09L311.35,130.42L313.78,129.58L318.65,128.05L321.08,115.51L323.51,113.46L325.95,117.38L328.38,121.03L330.81,108.68L333.24,108.53L335.68,109.99L338.11,108.92L340.54,109.74L342.97,121.55L345.41,122.15L350.27,123.5L352.7,122.52L355.14,123.18L357.57,122.22L360,121.75L362.43,115.92L364.86,112.18L367.3,110.2L372.16,108.62L374.59,107.82L377.03,118.19L379.46,117.56L381.89,109.2L384.32,108.59L389.19,108.05L391.62,107.52L394.05,99.83L396.49,99.92L401.35,98.19L403.78,97.99L406.22,103.12L408.65,102.44L411.08,102.12L413.51,99.37L418.38,101.17L420.81,105.06L425.68,103.84L428.11,105.42L432.97,103.9L435.41,101.65L437.84,100.56L440.27,98.17L445.14,98.62L447.57,94.35L450,93.23L452.43,89.82L454.86,84.59L457.3,85.77L459.73,85.22L462.16,80.96L464.59,80.89L467.03,75.18L469.46,73.87L471.89,63.4L476.76,57.03L479.19,51.69L481.62,50.7L484.05,44.29L486.49,42.09L488.92,38.47L493.78,27.23L496.22,19.19L498.65,27.48L501.08,28.79L503.51,26.93L505.95,16L508.38,29.89L510.81,29.37L513.24,24.16L515.68,63.08L518.11,117.91L520.54,126L522.97,153.71L525.41,168.6L527.84,173.26L530.27,238.76L535.14,240.63L537.57,242.86L540,247.41L540,304" style="vector-effect: non-scaling-stroke; fill: none; stroke: rgb(99, 110, 250); stroke-opacity: 1; stroke-width: 2px; opacity: 1;"/></g><g class="points"/><g class="text"/></g></g></g><g class="overplot"/><path class="xlines-above crisp" d="M0,0" style="fill: none;"/><path class="ylines-above crisp" d="M0,0" style="fill: none;"/><g class="overlines-above"/><g class="xaxislayer-above"><g class="xtick"><text text-anchor="middle" x="0" y="433" transform="translate(121.35,0)" style="font-family: 'Open Sans', verdana, arial, sans-serif; font-size: 12px; fill: rgb(42, 63, 95); fill-opacity: 1; white-space: pre; opacity: 1;">Aug 2022</text></g><g class="xtick"><text text-anchor="middle" x="0" y="433" style="font-family: 'Open Sans', verdana, arial, sans-serif; font-size: 12px; fill: rgb(42, 63, 95); fill-opacity: 1; white-space: pre; opacity: 1;" transform="translate(196.76,0)">Sep 2022</text></g><g class="xtick"><text text-anchor="middle" x="0" y="433" style="font-family: 'Open Sans', verdana, arial, sans-serif; font-size: 12px; fill: rgb(42, 63, 95); fill-opacity: 1; white-space: pre; opacity: 1;" transform="translate(269.73,0)">Oct 2022</text></g><g class="xtick"><text text-anchor="middle" x="0" y="433" style="font-family: 'Open Sans', verdana, arial, sans-serif; font-size: 12px; fill: rgb(42, 63, 95); fill-opacity: 1; white-space: pre; opacity: 1;" transform="translate(345.14,0)">Nov 2022</text></g><g class="xtick"><text text-anchor="middle" x="0" y="433" style="font-family: 'Open Sans', verdana, arial, sans-serif; font-size: 12px; fill: rgb(42, 63, 95); fill-opacity: 1; white-space: pre; opacity: 1;" transform="translate(418.11,0)">Dec 2022</text></g><g class="xtick"><text text-anchor="middle" x="0" y="433" style="font-family: 'Open Sans', verdana, arial, sans-serif; font-size: 12px; fill: rgb(42, 63, 95); fill-opacity: 1; white-space: pre; opacity: 1;" transform="translate(493.51,0)">Jan 2023</text></g><g class="xtick"><text text-anchor="middle" x="0" y="433" style="font-family: 'Open Sans', verdana, arial, sans-serif; font-size: 12px; fill: rgb(42, 63, 95); fill-opacity: 1; white-space: pre; opacity: 1;" transform="translate(568.9200000000001,0)">Feb 2023</text></g></g><g class="yaxislayer-above"><g class="ytick"><text text-anchor="end" x="79" y="4.199999999999999" transform="translate(0,386.32)" style="font-family: 'Open Sans', verdana, arial, sans-serif; font-size: 12px; fill: rgb(42, 63, 95); fill-opacity: 1; white-space: pre; opacity: 1;">$−2M</text></g><g class="ytick"><text text-anchor="end" x="79" y="4.199999999999999" style="font-family: 'Open Sans', verdana, arial, sans-serif; font-size: 12px; fill: rgb(42, 63, 95); fill-opacity: 1; white-space: pre; opacity: 1;" transform="translate(0,344.61)">$0</text></g><g class="ytick"><text text-anchor="end" x="79" y="4.199999999999999" style="font-family: 'Open Sans', verdana, arial, sans-serif; font-size: 12px; fill: rgb(42, 63, 95); fill-opacity: 1; white-space: pre; opacity: 1;" transform="translate(0,302.9)">$2M</text></g><g class="ytick"><text text-anchor="end" x="79" y="4.199999999999999" style="font-family: 'Open Sans', verdana, arial, sans-serif; font-size: 12px; fill: rgb(42, 63, 95); fill-opacity: 1; white-space: pre; opacity: 1;" transform="translate(0,261.19)">$4M</text></g><g class="ytick"><text text-anchor="end" x="79" y="4.199999999999999" style="font-family: 'Open Sans', verdana, arial, sans-serif; font-size: 12px; fill: rgb(42, 63, 95); fill-opacity: 1; white-space: pre; opacity: 1;" transform="translate(0,219.48000000000002)">$6M</text></g><g class="ytick"><text text-anchor="end" x="79" y="4.199999999999999" style="font-family: 'Open Sans', verdana, arial, sans-serif; font-size: 12px; fill: rgb(42, 63, 95); fill-opacity: 1; white-space: pre; opacity: 1;" transform="translate(0,177.76999999999998)">$8M</text></g><g class="ytick"><text text-anchor="end" x="79" y="4.199999999999999" style="font-family: 'Open Sans', verdana, arial, sans-serif; font-size: 12px; fill: rgb(42, 63, 95); fill-opacity: 1; white-space: pre; opacity: 1;" transform="translate(0,136.06)">$10M</text></g></g><g class="overaxes-above"/></g></g><g class="polarlayer"/><g class="smithlayer"/><g class="ternarylayer"/><g class="geolayer"/><g class="funnelarealayer"/><g class="pielayer"/><g class="iciclelayer"/><g class="treemaplayer"/><g class="sunburstlayer"/><g class="glimages"/><defs id="topdefs-275bed"><g class="clips"/></defs><g class="layer-above"><g class="imagelayer"/><g class="shapelayer"/></g><g class="infolayer"><g class="g-gtitle"><text class="gtitle" x="35" y="50" text-anchor="start" dy="0em" style="font-family: 'Open Sans', verdana, arial, sans-serif; font-size: 17px; fill: rgb(42, 63, 95); opacity: 1; font-weight: normal; white-space: pre;"><tspan class="line" dy="0em" x="35" y="50">Rubicon</tspan><tspan class="line" dy="1.3em" x="35" y="50">​<tspan style="font-size:70%" dy="-0.6em">Cumulative Net Flows since Program Announcement, Until Program End + 30 Days</tspan><tspan dy="0.42em">​</tspan></tspan></text></g><g class="g-xtitle"><text class="xtitle" x="350" y="460.8" text-anchor="middle" style="font-family: 'Open Sans', verdana, arial, sans-serif; font-size: 14px; fill: rgb(42, 63, 95); opacity: 1; font-weight: normal; white-space: pre;">Day</text></g><g class="g-ytitle"><text class="ytitle" transform="rotate(-90,23.840625000000003,260)" x="23.840625000000003" y="260" text-anchor="middle" style="font-family: 'Open Sans', verdana, arial, sans-serif; font-size: 14px; fill: rgb(42, 63, 95); opacity: 1; font-weight: normal; white-space: pre;">Cumulative Net Flows (USD)</text></g></g></svg>