<svg class="main-svg" xmlns="http://www.w3.org/2000/svg" xmlns:xlink="http://www.w3.org/1999/xlink" width="700" height="500" style="" viewBox="0 0 700 500"><rect x="0" y="0" width="700" height="500" style="fill: rgb(255, 255, 255); fill-opacity: 1;"/><defs id="defs-cb222f"><g class="clips"><clipPath id="clipcb222fxyplot" class="plotclip"><rect width="540" height="320"/></clipPath><clipPath class="axesclip" id="clipcb222fx"><rect x="80" y="0" width="540" height="500"/></clipPath><clipPath class="axesclip" id="clipcb222fy"><rect x="0" y="100" width="700" height="320"/></clipPath><clipPath class="axesclip" id="clipcb222fxy"><rect x="80" y="100" width="540" height="320"/></clipPath></g><g class="gradients"/><g class="patterns"/></defs><g class="bglayer"><rect class="bg" x="80" y="100" width="540" height="320" style="fill: rgb(229, 236, 246); fill-opacity: 1; stroke-width: 0;"/></g><g class="layer-below"><g class="imagelayer"/><g class="shapelayer"/></g><g class="cartesianlayer"><g class="subplot xy"><g class="layer-subplot"><g class="shapelayer"/><g class="imagelayer"/></g><g class="minor-gridlayer"><g class="x"/><g class="y"/></g><g class="gridlayer"><g class="x"><path class="xgrid crisp" transform="translate(170.51999999999998,0)" d="M0,100v320" style="stroke: rgb(255, 255, 255); stroke-opacity: 1; stroke-width: 1px;"/><path class="xgrid crisp" transform="translate(264.15999999999997,0)" d="M0,100v320" style="stroke: rgb(255, 255, 255); stroke-opacity: 1; stroke-width: 1px;"/><path class="xgrid crisp" transform="translate(360.92,0)" d="M0,100v320" style="stroke: rgb(255, 255, 255); stroke-opacity: 1; stroke-width: 1px;"/><path class="xgrid crisp" transform="translate(454.57,0)" d="M0,100v320" style="stroke: rgb(255, 255, 255); stroke-opacity: 1; stroke-width: 1px;"/><path class="xgrid crisp" transform="translate(551.3299999999999,0)" d="M0,100v320" style="stroke: rgb(255, 255, 255); stroke-opacity: 1; stroke-width: 1px;"/></g><g class="y"><path class="ygrid crisp" transform="translate(0,304.33000000000004)" d="M80,0h540" style="stroke: rgb(255, 255, 255); stroke-opacity: 1; stroke-width: 1px;"/><path class="ygrid crisp" transform="translate(0,241.28)" d="M80,0h540" style="stroke: rgb(255, 255, 255); stroke-opacity: 1; stroke-width: 1px;"/><path class="ygrid crisp" transform="translate(0,178.22)" d="M80,0h540" style="stroke: rgb(255, 255, 255); stroke-opacity: 1; stroke-width: 1px;"/><path class="ygrid crisp" transform="translate(0,115.17)" d="M80,0h540" style="stroke: rgb(255, 255, 255); stroke-opacity: 1; stroke-width: 1px;"/></g></g><g class="zerolinelayer"><path class="yzl zl crisp" transform="translate(0,367.38)" d="M80,0h540" style="stroke: rgb(255, 255, 255); stroke-opacity: 1; stroke-width: 2px;"/></g><path class="xlines-below"/><path class="ylines-below"/><g class="overlines-below"/><g class="xaxislayer-below"/><g class="yaxislayer-below"/><g class="overaxes-below"/><g class="plot" transform="translate(80,100)" clip-path="url(#clipcb222fxyplot)"><g class="scatterlayer mlayer"><g class="trace scatter tracef54b3a" style="stroke-miterlimit: 2;"><g class="fills"><g><path class="js-fill" d="M540,267.38L0,267.38L0,262.31L3.12,150.3L6.24,116.24L9.36,54.86L12.49,35.14L15.61,34.3L18.73,23.49L21.85,27.53L24.97,22.91L28.09,27.13L31.21,16L34.34,18.45L37.46,18.64L40.58,19L43.7,27.03L49.94,32.06L53.06,33.36L59.31,31.48L62.43,27.97L65.55,26.2L68.67,26.13L71.79,27.8L74.91,33.57L78.03,32.56L81.16,33.86L84.28,30.35L87.4,28.92L93.64,27.83L96.76,32.21L103.01,32.64L106.13,36.54L109.25,42.35L112.37,40.08L115.49,39.61L118.61,36.55L121.73,35.63L124.86,37.52L127.98,36.16L131.1,36.06L137.34,41.43L140.46,47.72L143.58,44.94L146.71,50.1L149.83,49.63L152.95,50L156.07,43.01L159.19,44.35L162.31,44.67L165.43,41.83L168.55,43.26L171.68,46.05L174.8,42.49L177.92,42.12L181.04,44.57L184.16,45.45L193.53,44.55L196.65,42.72L199.77,42.56L202.89,43.53L206.01,44.65L209.13,47.41L212.25,47.1L215.38,45.31L218.5,41.54L221.62,41.62L224.74,39.83L227.86,45.92L230.98,51.7L234.1,46.22L237.23,49.74L240.35,46.65L243.47,47.6L246.59,47.63L249.71,51.76L252.83,51.58L255.95,49.89L259.08,50.37L262.2,46.5L265.32,40.94L268.44,43.64L271.56,30.55L280.92,30.86L284.05,36.33L287.17,47.84L290.29,48.62L293.41,46.41L296.53,47.91L299.65,51.16L302.77,52.82L305.9,43.02L309.02,56.41L312.14,54L315.26,54.74L318.38,55.49L321.5,76.86L324.62,75.09L327.75,76.62L330.87,78.42L333.99,78.52L337.11,78.75L340.23,88.43L346.47,90.94L349.6,90.36L352.72,303.81L355.84,91.15L362.08,91.12L365.2,92.07L368.32,91.99L371.45,89.5L374.57,90.68L377.69,93.68L383.93,94.9L387.05,94.26L393.29,93.46L396.42,94.03L399.54,92.88L402.66,93.3L405.78,96.5L408.9,94.95L412.02,96.64L415.14,97.36L421.39,99.41L424.51,103.58L427.63,99.78L430.75,100.75L433.87,102.05L436.99,101.02L452.6,102.02L455.72,101.82L465.09,102.72L468.21,102.7L480.69,102.23L483.82,101.23L493.18,100.96L496.3,99.77L499.42,100.85L502.54,100.5L505.66,98.8L508.79,98.53L511.91,94.54L515.03,93.91L521.27,92.78L524.39,92.76L527.51,94.27L530.64,93.4L533.76,89.11L536.88,88.17L540,89.09L540,304" style="fill: rgb(99, 110, 250); fill-opacity: 0.5; stroke-width: 0;"/></g></g><g class="errorbars"/><g class="lines"><path class="js-line" d="M0,262.31L3.12,150.3L6.24,116.24L9.36,54.86L12.49,35.14L15.61,34.3L18.73,23.49L21.85,27.53L24.97,22.91L28.09,27.13L31.21,16L34.34,18.45L37.46,18.64L40.58,19L43.7,27.03L49.94,32.06L53.06,33.36L59.31,31.48L62.43,27.97L65.55,26.2L68.67,26.13L71.79,27.8L74.91,33.57L78.03,32.56L81.16,33.86L84.28,30.35L87.4,28.92L93.64,27.83L96.76,32.21L103.01,32.64L106.13,36.54L109.25,42.35L112.37,40.08L115.49,39.61L118.61,36.55L121.73,35.63L124.86,37.52L127.98,36.16L131.1,36.06L137.34,41.43L140.46,47.72L143.58,44.94L146.71,50.1L149.83,49.63L152.95,50L156.07,43.01L159.19,44.35L162.31,44.67L165.43,41.83L168.55,43.26L171.68,46.05L174.8,42.49L177.92,42.12L181.04,44.57L184.16,45.45L193.53,44.55L196.65,42.72L199.77,42.56L202.89,43.53L206.01,44.65L209.13,47.41L212.25,47.1L215.38,45.31L218.5,41.54L221.62,41.62L224.74,39.83L227.86,45.92L230.98,51.7L234.1,46.22L237.23,49.74L240.35,46.65L243.47,47.6L246.59,47.63L249.71,51.76L252.83,51.58L255.95,49.89L259.08,50.37L262.2,46.5L265.32,40.94L268.44,43.64L271.56,30.55L280.92,30.86L284.05,36.33L287.17,47.84L290.29,48.62L293.41,46.41L296.53,47.91L299.65,51.16L302.77,52.82L305.9,43.02L309.02,56.41L312.14,54L315.26,54.74L318.38,55.49L321.5,76.86L324.62,75.09L327.75,76.62L330.87,78.42L333.99,78.52L337.11,78.75L340.23,88.43L346.47,90.94L349.6,90.36L352.72,303.81L355.84,91.15L362.08,91.12L365.2,92.07L368.32,91.99L371.45,89.5L374.57,90.68L377.69,93.68L383.93,94.9L387.05,94.26L393.29,93.46L396.42,94.03L399.54,92.88L402.66,93.3L405.78,96.5L408.9,94.95L412.02,96.64L415.14,97.36L421.39,99.41L424.51,103.58L427.63,99.78L430.75,100.75L433.87,102.05L436.99,101.02L452.6,102.02L455.72,101.82L465.09,102.72L468.21,102.7L480.69,102.23L483.82,101.23L493.18,100.96L496.3,99.77L499.42,100.85L502.54,100.5L505.66,98.8L508.79,98.53L511.91,94.54L515.03,93.91L521.27,92.78L524.39,92.76L527.51,94.27L530.64,93.4L533.76,89.11L536.88,88.17L540,89.09L540,304" style="vector-effect: non-scaling-stroke; fill: none; stroke: rgb(99, 110, 250); stroke-opacity: 1; stroke-width: 2px; opacity: 1;"/></g><g class="points"/><g class="text"/></g></g></g><g class="overplot"/><path class="xlines-above crisp" d="M0,0" style="fill: none;"/><path class="ylines-above crisp" d="M0,0" style="fill: none;"/><g class="overlines-above"/><g class="xaxislayer-above"><g class="xtick"><text text-anchor="middle" x="0" y="433" transform="translate(170.51999999999998,0)" style="font-family: 'Open Sans', verdana, arial, sans-serif; font-size: 12px; fill: rgb(42, 63, 95); fill-opacity: 1; white-space: pre; opacity: 1;">Sep 2022</text></g><g class="xtick"><text text-anchor="middle" x="0" y="433" style="font-family: 'Open Sans', verdana, arial, sans-serif; font-size: 12px; fill: rgb(42, 63, 95); fill-opacity: 1; white-space: pre; opacity: 1;" transform="translate(264.15999999999997,0)">Oct 2022</text></g><g class="xtick"><text text-anchor="middle" x="0" y="433" style="font-family: 'Open Sans', verdana, arial, sans-serif; font-size: 12px; fill: rgb(42, 63, 95); fill-opacity: 1; white-space: pre; opacity: 1;" transform="translate(360.92,0)">Nov 2022</text></g><g class="xtick"><text text-anchor="middle" x="0" y="433" style="font-family: 'Open Sans', verdana, arial, sans-serif; font-size: 12px; fill: rgb(42, 63, 95); fill-opacity: 1; white-space: pre; opacity: 1;" transform="translate(454.57,0)">Dec 2022</text></g><g class="xtick"><text text-anchor="middle" x="0" y="433" style="font-family: 'Open Sans', verdana, arial, sans-serif; font-size: 12px; fill: rgb(42, 63, 95); fill-opacity: 1; white-space: pre; opacity: 1;" transform="translate(551.3299999999999,0)">Jan 2023</text></g></g><g class="yaxislayer-above"><g class="ytick"><text text-anchor="end" x="79" y="4.199999999999999" transform="translate(0,367.38)" style="font-family: 'Open Sans', verdana, arial, sans-serif; font-size: 12px; fill: rgb(42, 63, 95); fill-opacity: 1; white-space: pre; opacity: 1;">$0</text></g><g class="ytick"><text text-anchor="end" x="79" y="4.199999999999999" style="font-family: 'Open Sans', verdana, arial, sans-serif; font-size: 12px; fill: rgb(42, 63, 95); fill-opacity: 1; white-space: pre; opacity: 1;" transform="translate(0,304.33000000000004)">$1M</text></g><g class="ytick"><text text-anchor="end" x="79" y="4.199999999999999" style="font-family: 'Open Sans', verdana, arial, sans-serif; font-size: 12px; fill: rgb(42, 63, 95); fill-opacity: 1; white-space: pre; opacity: 1;" transform="translate(0,241.28)">$2M</text></g><g class="ytick"><text text-anchor="end" x="79" y="4.199999999999999" style="font-family: 'Open Sans', verdana, arial, sans-serif; font-size: 12px; fill: rgb(42, 63, 95); fill-opacity: 1; white-space: pre; opacity: 1;" transform="translate(0,178.22)">$3M</text></g><g class="ytick"><text text-anchor="end" x="79" y="4.199999999999999" style="font-family: 'Open Sans', verdana, arial, sans-serif; font-size: 12px; fill: rgb(42, 63, 95); fill-opacity: 1; white-space: pre; opacity: 1;" transform="translate(0,115.17)">$4M</text></g></g><g class="overaxes-above"/></g></g><g class="polarlayer"/><g class="smithlayer"/><g class="ternarylayer"/><g class="geolayer"/><g class="funnelarealayer"/><g class="pielayer"/><g class="iciclelayer"/><g class="treemaplayer"/><g class="sunburstlayer"/><g class="glimages"/><defs id="topdefs-cb222f"><g class="clips"/></defs><g class="layer-above"><g class="imagelayer"/><g class="shapelayer"/></g><g class="infolayer"><g class="g-gtitle"><text class="gtitle" x="35" y="50" text-anchor="start" dy="0em" style="font-family: 'Open Sans', verdana, arial, sans-serif; font-size: 17px; fill: rgb(42, 63, 95); opacity: 1; font-weight: normal; white-space: pre;"><tspan class="line" dy="0em" x="35" y="50">Wepiggy</tspan><tspan class="line" dy="1.3em" x="35" y="50">​<tspan style="font-size:70%" dy="-0.6em">Cumulative Net Dollar Flow since Program Announcement, Until Program End + 30 Days</tspan><tspan dy="0.42em">​</tspan></tspan></text></g><g class="g-xtitle"><text class="xtitle" x="350" y="460.8" text-anchor="middle" style="font-family: 'Open Sans', verdana, arial, sans-serif; font-size: 14px; fill: rgb(42, 63, 95); opacity: 1; font-weight: normal; white-space: pre;">Day</text></g><g class="g-ytitle"><text class="ytitle" transform="rotate(-90,30.856250000000003,260)" x="30.856250000000003" y="260" text-anchor="middle" style="font-family: 'Open Sans', verdana, arial, sans-serif; font-size: 14px; fill: rgb(42, 63, 95); opacity: 1; font-weight: normal; white-space: pre;">Cumulative Net Dollar Flow (N$F)</text></g></g></svg>