<svg class="main-svg" xmlns="http://www.w3.org/2000/svg" xmlns:xlink="http://www.w3.org/1999/xlink" width="700" height="500" style="" viewBox="0 0 700 500"><rect x="0" y="0" width="700" height="500" style="fill: rgb(255, 255, 255); fill-opacity: 1;"/><defs id="defs-c85652"><g class="clips"><clipPath id="clipc85652xyplot" class="plotclip"><rect width="540" height="320"/></clipPath><clipPath class="axesclip" id="clipc85652x"><rect x="80" y="0" width="540" height="500"/></clipPath><clipPath class="axesclip" id="clipc85652y"><rect x="0" y="100" width="700" height="320"/></clipPath><clipPath class="axesclip" id="clipc85652xy"><rect x="80" y="100" width="540" height="320"/></clipPath></g><g class="gradients"/><g class="patterns"/></defs><g class="bglayer"><rect class="bg" x="80" y="100" width="540" height="320" style="fill: rgb(229, 236, 246); fill-opacity: 1; stroke-width: 0;"/></g><g class="layer-below"><g class="imagelayer"/><g class="shapelayer"/></g><g class="cartesianlayer"><g class="subplot xy"><g class="layer-subplot"><g class="shapelayer"/><g class="imagelayer"/></g><g class="minor-gridlayer"><g class="x"/><g class="y"/></g><g class="gridlayer"><g class="x"><path class="xgrid crisp" transform="translate(189.51,0)" d="M0,100v320" style="stroke: rgb(255, 255, 255); stroke-opacity: 1; stroke-width: 1px;"/><path class="xgrid crisp" transform="translate(302.8,0)" d="M0,100v320" style="stroke: rgb(255, 255, 255); stroke-opacity: 1; stroke-width: 1px;"/><path class="xgrid crisp" transform="translate(419.86,0)" d="M0,100v320" style="stroke: rgb(255, 255, 255); stroke-opacity: 1; stroke-width: 1px;"/><path class="xgrid crisp" transform="translate(533.15,0)" d="M0,100v320" style="stroke: rgb(255, 255, 255); stroke-opacity: 1; stroke-width: 1px;"/></g><g class="y"><path class="ygrid crisp" transform="translate(0,304.46000000000004)" d="M80,0h540" style="stroke: rgb(255, 255, 255); stroke-opacity: 1; stroke-width: 1px;"/><path class="ygrid crisp" transform="translate(0,241.36)" d="M80,0h540" style="stroke: rgb(255, 255, 255); stroke-opacity: 1; stroke-width: 1px;"/><path class="ygrid crisp" transform="translate(0,178.26999999999998)" d="M80,0h540" style="stroke: rgb(255, 255, 255); stroke-opacity: 1; stroke-width: 1px;"/><path class="ygrid crisp" transform="translate(0,115.17)" d="M80,0h540" style="stroke: rgb(255, 255, 255); stroke-opacity: 1; stroke-width: 1px;"/></g></g><g class="zerolinelayer"><path class="yzl zl crisp" transform="translate(0,367.55)" d="M80,0h540" style="stroke: rgb(255, 255, 255); stroke-opacity: 1; stroke-width: 2px;"/></g><path class="xlines-below"/><path class="ylines-below"/><g class="overlines-below"/><g class="xaxislayer-below"/><g class="yaxislayer-below"/><g class="overaxes-below"/><g class="plot" transform="translate(80,100)" clip-path="url(#clipc85652xyplot)"><g class="scatterlayer mlayer"><g class="trace scatter trace9880aa" style="stroke-miterlimit: 2;"><g class="fills"><g><path class="js-fill" d="M540,267.55L0,267.55L0,262.48L3.78,150.39L7.55,116.3L11.33,54.88L15.1,35.15L18.88,34.32L22.66,23.49L26.43,27.54L30.21,22.92L33.99,27.14L37.76,16L41.54,18.46L45.31,18.65L49.09,19L52.87,27.04L60.42,32.07L64.2,33.38L71.75,31.49L75.52,27.97L79.3,26.21L83.08,26.14L86.85,27.81L90.63,33.58L94.41,32.57L98.18,33.87L101.96,30.36L105.73,28.93L113.29,27.84L117.06,32.22L124.62,32.65L128.39,36.55L132.17,42.37L135.94,40.09L139.72,39.62L143.5,36.56L147.27,35.64L151.05,37.53L154.83,36.18L158.6,36.07L166.15,41.45L169.93,47.74L173.71,44.96L177.48,50.13L181.26,49.66L185.03,50.02L188.81,43.03L192.59,44.37L196.36,44.69L200.14,41.85L203.92,43.28L207.69,46.07L211.47,42.51L215.24,42.14L219.02,44.59L222.8,45.47L234.13,44.57L237.9,42.74L241.68,42.58L245.45,43.55L249.23,44.67L253.01,47.43L256.78,47.12L260.56,45.33L264.34,41.56L268.11,41.63L271.89,39.85L275.66,45.94L279.44,51.73L283.22,46.24L286.99,49.76L290.77,46.67L294.55,47.62L298.32,47.65L302.1,51.79L305.87,51.6L309.65,49.91L313.43,50.39L317.2,46.52L320.98,40.95L324.76,43.65L328.53,30.56L339.86,30.87L343.64,36.35L347.41,47.86L351.19,48.64L354.97,46.43L358.74,47.94L362.52,51.18L366.29,52.84L370.07,43.04L373.85,56.43L377.62,54.03L381.4,54.77L385.17,55.51L388.95,76.9L392.73,75.13L396.5,76.66L400.28,78.46L404.06,78.56L407.83,78.8L411.61,88.48L419.16,90.99L422.94,90.41L426.71,304L430.49,91.2L438.04,91.17L441.82,92.12L445.59,92.04L449.37,89.55L453.15,90.73L456.92,93.73L464.48,94.96L468.25,94.31L475.8,93.51L479.58,94.08L483.36,92.93L487.13,93.35L490.91,96.55L494.69,95L498.46,96.69L502.24,97.41L509.79,99.47L513.57,103.64L517.34,99.84L521.12,100.8L524.9,102.11L528.67,101.08L540,101.99" style="fill: rgb(99, 110, 250); fill-opacity: 0.5; stroke-width: 0;"/></g></g><g class="errorbars"/><g class="lines"><path class="js-line" d="M0,262.48L3.78,150.39L7.55,116.3L11.33,54.88L15.1,35.15L18.88,34.32L22.66,23.49L26.43,27.54L30.21,22.92L33.99,27.14L37.76,16L41.54,18.46L45.31,18.65L49.09,19L52.87,27.04L60.42,32.07L64.2,33.38L71.75,31.49L75.52,27.97L79.3,26.21L83.08,26.14L86.85,27.81L90.63,33.58L94.41,32.57L98.18,33.87L101.96,30.36L105.73,28.93L113.29,27.84L117.06,32.22L124.62,32.65L128.39,36.55L132.17,42.37L135.94,40.09L139.72,39.62L143.5,36.56L147.27,35.64L151.05,37.53L154.83,36.18L158.6,36.07L166.15,41.45L169.93,47.74L173.71,44.96L177.48,50.13L181.26,49.66L185.03,50.02L188.81,43.03L192.59,44.37L196.36,44.69L200.14,41.85L203.92,43.28L207.69,46.07L211.47,42.51L215.24,42.14L219.02,44.59L222.8,45.47L234.13,44.57L237.9,42.74L241.68,42.58L245.45,43.55L249.23,44.67L253.01,47.43L256.78,47.12L260.56,45.33L264.34,41.56L268.11,41.63L271.89,39.85L275.66,45.94L279.44,51.73L283.22,46.24L286.99,49.76L290.77,46.67L294.55,47.62L298.32,47.65L302.1,51.79L305.87,51.6L309.65,49.91L313.43,50.39L317.2,46.52L320.98,40.95L324.76,43.65L328.53,30.56L339.86,30.87L343.64,36.35L347.41,47.86L351.19,48.64L354.97,46.43L358.74,47.94L362.52,51.18L366.29,52.84L370.07,43.04L373.85,56.43L377.62,54.03L381.4,54.77L385.17,55.51L388.95,76.9L392.73,75.13L396.5,76.66L400.28,78.46L404.06,78.56L407.83,78.8L411.61,88.48L419.16,90.99L422.94,90.41L426.71,304L430.49,91.2L438.04,91.17L441.82,92.12L445.59,92.04L449.37,89.55L453.15,90.73L456.92,93.73L464.48,94.96L468.25,94.31L475.8,93.51L479.58,94.08L483.36,92.93L487.13,93.35L490.91,96.55L494.69,95L498.46,96.69L502.24,97.41L509.79,99.47L513.57,103.64L517.34,99.84L521.12,100.8L524.9,102.11L528.67,101.08L540,101.99" style="vector-effect: non-scaling-stroke; fill: none; stroke: rgb(99, 110, 250); stroke-opacity: 1; stroke-width: 2px; opacity: 1;"/></g><g class="points"/><g class="text"/></g></g></g><g class="overplot"/><path class="xlines-above crisp" d="M0,0" style="fill: none;"/><path class="ylines-above crisp" d="M0,0" style="fill: none;"/><g class="overlines-above"/><g class="xaxislayer-above"><g class="xtick"><text text-anchor="middle" x="0" y="433" transform="translate(189.51,0)" style="font-family: 'Open Sans', verdana, arial, sans-serif; font-size: 12px; fill: rgb(42, 63, 95); fill-opacity: 1; white-space: pre; opacity: 1;">Sep 2022</text></g><g class="xtick"><text text-anchor="middle" x="0" y="433" style="font-family: 'Open Sans', verdana, arial, sans-serif; font-size: 12px; fill: rgb(42, 63, 95); fill-opacity: 1; white-space: pre; opacity: 1;" transform="translate(302.8,0)">Oct 2022</text></g><g class="xtick"><text text-anchor="middle" x="0" y="433" style="font-family: 'Open Sans', verdana, arial, sans-serif; font-size: 12px; fill: rgb(42, 63, 95); fill-opacity: 1; white-space: pre; opacity: 1;" transform="translate(419.86,0)">Nov 2022</text></g><g class="xtick"><text text-anchor="middle" x="0" y="433" style="font-family: 'Open Sans', verdana, arial, sans-serif; font-size: 12px; fill: rgb(42, 63, 95); fill-opacity: 1; white-space: pre; opacity: 1;" transform="translate(533.15,0)">Dec 2022</text></g></g><g class="yaxislayer-above"><g class="ytick"><text text-anchor="end" x="79" y="4.199999999999999" transform="translate(0,367.55)" style="font-family: 'Open Sans', verdana, arial, sans-serif; font-size: 12px; fill: rgb(42, 63, 95); fill-opacity: 1; white-space: pre; opacity: 1;">$0</text></g><g class="ytick"><text text-anchor="end" x="79" y="4.199999999999999" style="font-family: 'Open Sans', verdana, arial, sans-serif; font-size: 12px; fill: rgb(42, 63, 95); fill-opacity: 1; white-space: pre; opacity: 1;" transform="translate(0,304.46000000000004)">$1M</text></g><g class="ytick"><text text-anchor="end" x="79" y="4.199999999999999" style="font-family: 'Open Sans', verdana, arial, sans-serif; font-size: 12px; fill: rgb(42, 63, 95); fill-opacity: 1; white-space: pre; opacity: 1;" transform="translate(0,241.36)">$2M</text></g><g class="ytick"><text text-anchor="end" x="79" y="4.199999999999999" style="font-family: 'Open Sans', verdana, arial, sans-serif; font-size: 12px; fill: rgb(42, 63, 95); fill-opacity: 1; white-space: pre; opacity: 1;" transform="translate(0,178.26999999999998)">$3M</text></g><g class="ytick"><text text-anchor="end" x="79" y="4.199999999999999" style="font-family: 'Open Sans', verdana, arial, sans-serif; font-size: 12px; fill: rgb(42, 63, 95); fill-opacity: 1; white-space: pre; opacity: 1;" transform="translate(0,115.17)">$4M</text></g></g><g class="overaxes-above"/></g></g><g class="polarlayer"/><g class="smithlayer"/><g class="ternarylayer"/><g class="geolayer"/><g class="funnelarealayer"/><g class="pielayer"/><g class="iciclelayer"/><g class="treemaplayer"/><g class="sunburstlayer"/><g class="glimages"/><defs id="topdefs-c85652"><g class="clips"/></defs><g class="layer-above"><g class="imagelayer"/><g class="shapelayer"/></g><g class="infolayer"><g class="g-gtitle"><text class="gtitle" x="35" y="50" text-anchor="start" dy="0em" style="font-family: 'Open Sans', verdana, arial, sans-serif; font-size: 17px; fill: rgb(42, 63, 95); opacity: 1; font-weight: normal; white-space: pre;">Wepiggy: Cumulative Net Dollar Flow since Program Announcement</text></g><g class="g-xtitle"><text class="xtitle" x="350" y="460.8" text-anchor="middle" style="font-family: 'Open Sans', verdana, arial, sans-serif; font-size: 14px; fill: rgb(42, 63, 95); opacity: 1; font-weight: normal; white-space: pre;">Day</text></g><g class="g-ytitle"><text class="ytitle" transform="rotate(-90,30.856250000000003,260)" x="30.856250000000003" y="260" text-anchor="middle" style="font-family: 'Open Sans', verdana, arial, sans-serif; font-size: 14px; fill: rgb(42, 63, 95); opacity: 1; font-weight: normal; white-space: pre;">Cumulative Net Dollar Flow (N$F)</text></g></g></svg>