<svg class="main-svg" xmlns="http://www.w3.org/2000/svg" xmlns:xlink="http://www.w3.org/1999/xlink" width="700" height="500" style="" viewBox="0 0 700 500"><rect x="0" y="0" width="700" height="500" style="fill: rgb(255, 255, 255); fill-opacity: 1;"/><defs id="defs-dfde47"><g class="clips"><clipPath id="clipdfde47xyplot" class="plotclip"><rect width="540" height="320"/></clipPath><clipPath class="axesclip" id="clipdfde47x"><rect x="80" y="0" width="540" height="500"/></clipPath><clipPath class="axesclip" id="clipdfde47y"><rect x="0" y="100" width="700" height="320"/></clipPath><clipPath class="axesclip" id="clipdfde47xy"><rect x="80" y="100" width="540" height="320"/></clipPath></g><g class="gradients"/><g class="patterns"/></defs><g class="bglayer"><rect class="bg" x="80" y="100" width="540" height="320" style="fill: rgb(229, 236, 246); fill-opacity: 1; stroke-width: 0;"/></g><g class="layer-below"><g class="imagelayer"/><g class="shapelayer"/></g><g class="cartesianlayer"><g class="subplot xy"><g class="layer-subplot"><g class="shapelayer"/><g class="imagelayer"/></g><g class="minor-gridlayer"><g class="x"/><g class="y"/></g><g class="gridlayer"><g class="x"><path class="xgrid crisp" transform="translate(140,0)" d="M0,100v320" style="stroke: rgb(255, 255, 255); stroke-opacity: 1; stroke-width: 1px;"/><path class="xgrid crisp" transform="translate(249.41,0)" d="M0,100v320" style="stroke: rgb(255, 255, 255); stroke-opacity: 1; stroke-width: 1px;"/><path class="xgrid crisp" transform="translate(355.29,0)" d="M0,100v320" style="stroke: rgb(255, 255, 255); stroke-opacity: 1; stroke-width: 1px;"/><path class="xgrid crisp" transform="translate(464.71,0)" d="M0,100v320" style="stroke: rgb(255, 255, 255); stroke-opacity: 1; stroke-width: 1px;"/><path class="xgrid crisp" transform="translate(570.5899999999999,0)" d="M0,100v320" style="stroke: rgb(255, 255, 255); stroke-opacity: 1; stroke-width: 1px;"/></g><g class="y"><path class="ygrid crisp" transform="translate(0,414.83)" d="M80,0h540" style="stroke: rgb(255, 255, 255); stroke-opacity: 1; stroke-width: 1px;"/><path class="ygrid crisp" transform="translate(0,292.36)" d="M80,0h540" style="stroke: rgb(255, 255, 255); stroke-opacity: 1; stroke-width: 1px;"/><path class="ygrid crisp" transform="translate(0,231.13)" d="M80,0h540" style="stroke: rgb(255, 255, 255); stroke-opacity: 1; stroke-width: 1px;"/><path class="ygrid crisp" transform="translate(0,169.89)" d="M80,0h540" style="stroke: rgb(255, 255, 255); stroke-opacity: 1; stroke-width: 1px;"/><path class="ygrid crisp" transform="translate(0,108.66)" d="M80,0h540" style="stroke: rgb(255, 255, 255); stroke-opacity: 1; stroke-width: 1px;"/></g></g><g class="zerolinelayer"><path class="yzl zl crisp" transform="translate(0,353.59000000000003)" d="M80,0h540" style="stroke: rgb(255, 255, 255); stroke-opacity: 1; stroke-width: 2px;"/></g><path class="xlines-below"/><path class="ylines-below"/><g class="overlines-below"/><g class="xaxislayer-below"/><g class="yaxislayer-below"/><g class="overaxes-below"/><g class="plot" transform="translate(80,100)" clip-path="url(#clipdfde47xyplot)"><g class="scatterlayer mlayer"><g class="trace scatter tracefce8d0" style="stroke-miterlimit: 2;"><g class="fills"><g><path class="js-fill" d="M540,253.59L0,253.59L0,241.74L3.53,199.46L7.06,185.21L10.59,193.72L14.12,197.43L17.65,199.06L21.18,206.4L24.71,208.06L28.24,146.58L31.76,128.8L35.29,129.41L38.82,133.95L42.35,181.94L45.88,190.77L49.41,186.18L52.94,157.63L56.47,163.3L60,161.13L63.53,154.89L67.06,152.1L70.59,156.45L74.12,187.01L77.65,165.62L81.18,193.15L84.71,213.5L88.24,220.24L91.76,216.65L95.29,180.25L98.82,154.65L102.35,122.06L105.88,120.97L109.41,135.37L112.94,171.91L116.47,175.15L120,188.52L123.53,179.35L127.06,134.38L130.59,135.81L134.12,173.12L137.65,163.85L141.18,166.39L144.71,168.41L148.24,197.49L151.76,174.54L155.29,162.7L158.82,212.16L162.35,197.03L165.88,191.81L169.41,201.36L172.94,197.16L176.47,176.62L180,197.9L183.53,208.19L187.06,212.28L190.59,227.71L194.12,244.69L197.65,246.76L201.18,221.33L204.71,223.72L208.24,157.86L211.76,199.59L215.29,201.26L218.82,208.23L222.35,212.73L225.88,221.17L229.41,108.21L232.94,199.35L236.47,184.21L240,191.67L243.53,209.57L247.06,214.25L250.59,183.38L254.12,186.75L257.65,188.54L261.18,209.46L264.71,166.95L268.24,166.47L271.76,163.64L275.29,165.99L278.82,142.13L282.35,208.35L285.88,206.04L289.41,196.26L292.94,231.11L296.47,234.53L300,232.2L303.53,245.46L310.59,304L314.12,287.62L321.18,270.49L324.71,247.58L328.24,244.4L331.76,268.53L335.29,243.98L338.82,225.29L342.35,209.46L345.88,226.46L349.41,234.54L352.94,236.45L356.47,252.55L360,262.88L363.53,267.62L367.06,241.42L370.59,235.34L374.12,209.98L377.65,189.18L381.18,249.01L384.71,237.45L388.24,245.47L391.76,216.34L395.29,230.29L398.82,179.82L402.35,195.5L405.88,241.76L409.41,160.3L412.94,183.3L416.47,160.08L420,149.13L423.53,100.77L427.06,101.97L430.59,159.58L434.12,149.26L437.65,146.22L441.18,135.91L444.71,143.29L448.24,106.92L451.76,109.16L455.29,113.05L458.82,99.57L462.35,51.55L465.88,51.11L469.41,160.69L472.94,112.78L476.47,136.1L480,118.18L483.53,147.94L487.06,215.76L490.59,109.42L494.12,121.49L497.65,46.5L501.18,55.11L508.24,100.89L511.76,70.07L515.29,48.72L518.82,33.86L522.35,16L525.88,23.61L529.41,138.04L532.94,167.14L540,208.4" style="fill: rgb(99, 110, 250); fill-opacity: 0.5; stroke-width: 0;"/></g></g><g class="errorbars"/><g class="lines"><path class="js-line" d="M0,241.74L3.53,199.46L7.06,185.21L10.59,193.72L14.12,197.43L17.65,199.06L21.18,206.4L24.71,208.06L28.24,146.58L31.76,128.8L35.29,129.41L38.82,133.95L42.35,181.94L45.88,190.77L49.41,186.18L52.94,157.63L56.47,163.3L60,161.13L63.53,154.89L67.06,152.1L70.59,156.45L74.12,187.01L77.65,165.62L81.18,193.15L84.71,213.5L88.24,220.24L91.76,216.65L95.29,180.25L98.82,154.65L102.35,122.06L105.88,120.97L109.41,135.37L112.94,171.91L116.47,175.15L120,188.52L123.53,179.35L127.06,134.38L130.59,135.81L134.12,173.12L137.65,163.85L141.18,166.39L144.71,168.41L148.24,197.49L151.76,174.54L155.29,162.7L158.82,212.16L162.35,197.03L165.88,191.81L169.41,201.36L172.94,197.16L176.47,176.62L180,197.9L183.53,208.19L187.06,212.28L190.59,227.71L194.12,244.69L197.65,246.76L201.18,221.33L204.71,223.72L208.24,157.86L211.76,199.59L215.29,201.26L218.82,208.23L222.35,212.73L225.88,221.17L229.41,108.21L232.94,199.35L236.47,184.21L240,191.67L243.53,209.57L247.06,214.25L250.59,183.38L254.12,186.75L257.65,188.54L261.18,209.46L264.71,166.95L268.24,166.47L271.76,163.64L275.29,165.99L278.82,142.13L282.35,208.35L285.88,206.04L289.41,196.26L292.94,231.11L296.47,234.53L300,232.2L303.53,245.46L310.59,304L314.12,287.62L321.18,270.49L324.71,247.58L328.24,244.4L331.76,268.53L335.29,243.98L338.82,225.29L342.35,209.46L345.88,226.46L349.41,234.54L352.94,236.45L356.47,252.55L360,262.88L363.53,267.62L367.06,241.42L370.59,235.34L374.12,209.98L377.65,189.18L381.18,249.01L384.71,237.45L388.24,245.47L391.76,216.34L395.29,230.29L398.82,179.82L402.35,195.5L405.88,241.76L409.41,160.3L412.94,183.3L416.47,160.08L420,149.13L423.53,100.77L427.06,101.97L430.59,159.58L434.12,149.26L437.65,146.22L441.18,135.91L444.71,143.29L448.24,106.92L451.76,109.16L455.29,113.05L458.82,99.57L462.35,51.55L465.88,51.11L469.41,160.69L472.94,112.78L476.47,136.1L480,118.18L483.53,147.94L487.06,215.76L490.59,109.42L494.12,121.49L497.65,46.5L501.18,55.11L508.24,100.89L511.76,70.07L515.29,48.72L518.82,33.86L522.35,16L525.88,23.61L529.41,138.04L532.94,167.14L540,208.4" style="vector-effect: non-scaling-stroke; fill: none; stroke: rgb(99, 110, 250); stroke-opacity: 1; stroke-width: 2px; opacity: 1;"/></g><g class="points"/><g class="text"/></g></g></g><g class="overplot"/><path class="xlines-above crisp" d="M0,0" style="fill: none;"/><path class="ylines-above crisp" d="M0,0" style="fill: none;"/><g class="overlines-above"/><g class="xaxislayer-above"><g class="xtick"><text text-anchor="middle" x="0" y="433" transform="translate(140,0)" style="font-family: 'Open Sans', verdana, arial, sans-serif; font-size: 12px; fill: rgb(42, 63, 95); fill-opacity: 1; white-space: pre; opacity: 1;">Aug 2022</text></g><g class="xtick"><text text-anchor="middle" x="0" y="433" style="font-family: 'Open Sans', verdana, arial, sans-serif; font-size: 12px; fill: rgb(42, 63, 95); fill-opacity: 1; white-space: pre; opacity: 1;" transform="translate(249.41,0)">Sep 2022</text></g><g class="xtick"><text text-anchor="middle" x="0" y="433" style="font-family: 'Open Sans', verdana, arial, sans-serif; font-size: 12px; fill: rgb(42, 63, 95); fill-opacity: 1; white-space: pre; opacity: 1;" transform="translate(355.29,0)">Oct 2022</text></g><g class="xtick"><text text-anchor="middle" x="0" y="433" style="font-family: 'Open Sans', verdana, arial, sans-serif; font-size: 12px; fill: rgb(42, 63, 95); fill-opacity: 1; white-space: pre; opacity: 1;" transform="translate(464.71,0)">Nov 2022</text></g><g class="xtick"><text text-anchor="middle" x="0" y="433" style="font-family: 'Open Sans', verdana, arial, sans-serif; font-size: 12px; fill: rgb(42, 63, 95); fill-opacity: 1; white-space: pre; opacity: 1;" transform="translate(570.5899999999999,0)">Dec 2022</text></g></g><g class="yaxislayer-above"><g class="ytick"><text text-anchor="end" x="79" y="4.199999999999999" transform="translate(0,414.83)" style="font-family: 'Open Sans', verdana, arial, sans-serif; font-size: 12px; fill: rgb(42, 63, 95); fill-opacity: 1; white-space: pre; opacity: 1;">$−50k</text></g><g class="ytick"><text text-anchor="end" x="79" y="4.199999999999999" style="font-family: 'Open Sans', verdana, arial, sans-serif; font-size: 12px; fill: rgb(42, 63, 95); fill-opacity: 1; white-space: pre; opacity: 1;" transform="translate(0,353.59000000000003)">$0</text></g><g class="ytick"><text text-anchor="end" x="79" y="4.199999999999999" style="font-family: 'Open Sans', verdana, arial, sans-serif; font-size: 12px; fill: rgb(42, 63, 95); fill-opacity: 1; white-space: pre; opacity: 1;" transform="translate(0,292.36)">$50k</text></g><g class="ytick"><text text-anchor="end" x="79" y="4.199999999999999" style="font-family: 'Open Sans', verdana, arial, sans-serif; font-size: 12px; fill: rgb(42, 63, 95); fill-opacity: 1; white-space: pre; opacity: 1;" transform="translate(0,231.13)">$100k</text></g><g class="ytick"><text text-anchor="end" x="79" y="4.199999999999999" style="font-family: 'Open Sans', verdana, arial, sans-serif; font-size: 12px; fill: rgb(42, 63, 95); fill-opacity: 1; white-space: pre; opacity: 1;" transform="translate(0,169.89)">$150k</text></g><g class="ytick"><text text-anchor="end" x="79" y="4.199999999999999" style="font-family: 'Open Sans', verdana, arial, sans-serif; font-size: 12px; fill: rgb(42, 63, 95); fill-opacity: 1; white-space: pre; opacity: 1;" transform="translate(0,108.66)">$200k</text></g></g><g class="overaxes-above"/></g></g><g class="polarlayer"/><g class="smithlayer"/><g class="ternarylayer"/><g class="geolayer"/><g class="funnelarealayer"/><g class="pielayer"/><g class="iciclelayer"/><g class="treemaplayer"/><g class="sunburstlayer"/><g class="glimages"/><defs id="topdefs-dfde47"><g class="clips"/></defs><g class="layer-above"><g class="imagelayer"/><g class="shapelayer"/></g><g class="infolayer"><g class="g-gtitle"><text class="gtitle" x="35" y="50" text-anchor="start" dy="0em" style="font-family: 'Open Sans', verdana, arial, sans-serif; font-size: 17px; fill: rgb(42, 63, 95); opacity: 1; font-weight: normal; white-space: pre;">Thales: Cumulative Net Dollar Flow since Program Announcement</text></g><g class="g-xtitle"><text class="xtitle" x="350" y="460.8" text-anchor="middle" style="font-family: 'Open Sans', verdana, arial, sans-serif; font-size: 14px; fill: rgb(42, 63, 95); opacity: 1; font-weight: normal; white-space: pre;">Day</text></g><g class="g-ytitle"><text class="ytitle" transform="rotate(-90,21.168750000000003,260)" x="21.168750000000003" y="260" text-anchor="middle" style="font-family: 'Open Sans', verdana, arial, sans-serif; font-size: 14px; fill: rgb(42, 63, 95); opacity: 1; font-weight: normal; white-space: pre;">Cumulative Net Dollar Flow (N$F)</text></g></g></svg>