<svg class="main-svg" xmlns="http://www.w3.org/2000/svg" xmlns:xlink="http://www.w3.org/1999/xlink" width="700" height="500" style="" viewBox="0 0 700 500"><rect x="0" y="0" width="700" height="500" style="fill: rgb(255, 255, 255); fill-opacity: 1;"/><defs id="defs-a54e1c"><g class="clips"><clipPath id="clipa54e1cxyplot" class="plotclip"><rect width="540" height="320"/></clipPath><clipPath class="axesclip" id="clipa54e1cx"><rect x="80" y="0" width="540" height="500"/></clipPath><clipPath class="axesclip" id="clipa54e1cy"><rect x="0" y="100" width="700" height="320"/></clipPath><clipPath class="axesclip" id="clipa54e1cxy"><rect x="80" y="100" width="540" height="320"/></clipPath></g><g class="gradients"/><g class="patterns"/></defs><g class="bglayer"><rect class="bg" x="80" y="100" width="540" height="320" style="fill: rgb(229, 236, 246); fill-opacity: 1; stroke-width: 0;"/></g><g class="layer-below"><g class="imagelayer"/><g class="shapelayer"/></g><g class="cartesianlayer"><g class="subplot xy"><g class="layer-subplot"><g class="shapelayer"/><g class="imagelayer"/></g><g class="minor-gridlayer"><g class="x"/><g class="y"/></g><g class="gridlayer"><g class="x"><path class="xgrid crisp" transform="translate(129.47,0)" d="M0,100v320" style="stroke: rgb(255, 255, 255); stroke-opacity: 1; stroke-width: 1px;"/><path class="xgrid crisp" transform="translate(257.25,0)" d="M0,100v320" style="stroke: rgb(255, 255, 255); stroke-opacity: 1; stroke-width: 1px;"/><path class="xgrid crisp" transform="translate(380.92,0)" d="M0,100v320" style="stroke: rgb(255, 255, 255); stroke-opacity: 1; stroke-width: 1px;"/><path class="xgrid crisp" transform="translate(508.7,0)" d="M0,100v320" style="stroke: rgb(255, 255, 255); stroke-opacity: 1; stroke-width: 1px;"/></g><g class="y"><path class="ygrid crisp" transform="translate(0,390.19)" d="M80,0h540" style="stroke: rgb(255, 255, 255); stroke-opacity: 1; stroke-width: 1px;"/><path class="ygrid crisp" transform="translate(0,286.41999999999996)" d="M80,0h540" style="stroke: rgb(255, 255, 255); stroke-opacity: 1; stroke-width: 1px;"/><path class="ygrid crisp" transform="translate(0,234.54)" d="M80,0h540" style="stroke: rgb(255, 255, 255); stroke-opacity: 1; stroke-width: 1px;"/><path class="ygrid crisp" transform="translate(0,182.66)" d="M80,0h540" style="stroke: rgb(255, 255, 255); stroke-opacity: 1; stroke-width: 1px;"/><path class="ygrid crisp" transform="translate(0,130.77)" d="M80,0h540" style="stroke: rgb(255, 255, 255); stroke-opacity: 1; stroke-width: 1px;"/></g></g><g class="zerolinelayer"><path class="yzl zl crisp" transform="translate(0,338.31)" d="M80,0h540" style="stroke: rgb(255, 255, 255); stroke-opacity: 1; stroke-width: 2px;"/></g><path class="xlines-below"/><path class="ylines-below"/><g class="overlines-below"/><g class="xaxislayer-below"/><g class="yaxislayer-below"/><g class="overaxes-below"/><g class="plot" transform="translate(80,100)" clip-path="url(#clipa54e1cxyplot)"><g class="scatterlayer mlayer"><g class="trace scatter traceadb51f" style="stroke-miterlimit: 2;"><g class="fills"><g><path class="js-fill" d="M540,238.31L0,238.31L0,238.31L4.12,236.8L8.24,232.56L12.37,220.03L16.49,213.54L20.61,212.69L24.73,208.51L28.85,205.46L32.98,205.35L37.1,203.64L41.22,200.92L45.34,204.35L49.47,204.07L53.59,205.49L57.71,204.41L65.95,203.78L70.08,203.81L82.44,204.04L86.56,203.17L90.69,202.84L94.81,201.59L103.05,200.94L107.18,201.7L111.3,199.52L115.42,199.5L123.66,199.41L127.79,197.83L131.91,197.83L136.03,201.66L152.52,201.18L156.64,162.89L160.76,110.21L164.89,90.11L169.01,88.12L173.13,83.37L177.25,82.16L181.37,87.08L185.5,89.62L189.62,84.23L193.74,86.96L197.86,84.64L201.98,85.89L206.11,79.87L214.35,108.19L218.47,117.09L222.6,131.68L226.72,136.37L230.84,138.08L234.96,138.18L243.21,137.77L247.33,145.7L255.57,145.47L259.69,150.42L263.82,149.52L267.94,150.95L284.43,152.67L288.55,152.86L305.04,152.05L309.16,149.39L313.28,147.86L317.4,147.78L321.53,146.13L325.65,146.1L333.89,145.85L338.02,143.43L342.14,142.56L346.26,142.56L350.38,142.54L354.5,148.46L370.99,148.24L375.11,149.45L383.36,149.46L387.48,147.81L403.97,146.44L408.09,147.02L416.34,146.76L420.46,145.06L424.58,146.16L428.7,146.11L436.95,146.05L441.07,145.09L445.19,145L449.31,143.06L457.56,143.14L461.68,159.26L465.8,160.89L469.92,160.97L474.05,158.88L478.17,159.17L486.41,165.93L490.53,161.02L494.66,161.04L498.78,159.36L502.9,157.21L507.02,62.44L511.15,63.39L515.27,52.17L519.39,30.43L523.51,23.47L527.63,16L531.76,20.75L535.88,24.33L540,19.48L540,304" style="fill: rgb(99, 110, 250); fill-opacity: 0.5; stroke-width: 0;"/></g></g><g class="errorbars"/><g class="lines"><path class="js-line" d="M0,238.31L4.12,236.8L8.24,232.56L12.37,220.03L16.49,213.54L20.61,212.69L24.73,208.51L28.85,205.46L32.98,205.35L37.1,203.64L41.22,200.92L45.34,204.35L49.47,204.07L53.59,205.49L57.71,204.41L65.95,203.78L70.08,203.81L82.44,204.04L86.56,203.17L90.69,202.84L94.81,201.59L103.05,200.94L107.18,201.7L111.3,199.52L115.42,199.5L123.66,199.41L127.79,197.83L131.91,197.83L136.03,201.66L152.52,201.18L156.64,162.89L160.76,110.21L164.89,90.11L169.01,88.12L173.13,83.37L177.25,82.16L181.37,87.08L185.5,89.62L189.62,84.23L193.74,86.96L197.86,84.64L201.98,85.89L206.11,79.87L214.35,108.19L218.47,117.09L222.6,131.68L226.72,136.37L230.84,138.08L234.96,138.18L243.21,137.77L247.33,145.7L255.57,145.47L259.69,150.42L263.82,149.52L267.94,150.95L284.43,152.67L288.55,152.86L305.04,152.05L309.16,149.39L313.28,147.86L317.4,147.78L321.53,146.13L325.65,146.1L333.89,145.85L338.02,143.43L342.14,142.56L346.26,142.56L350.38,142.54L354.5,148.46L370.99,148.24L375.11,149.45L383.36,149.46L387.48,147.81L403.97,146.44L408.09,147.02L416.34,146.76L420.46,145.06L424.58,146.16L428.7,146.11L436.95,146.05L441.07,145.09L445.19,145L449.31,143.06L457.56,143.14L461.68,159.26L465.8,160.89L469.92,160.97L474.05,158.88L478.17,159.17L486.41,165.93L490.53,161.02L494.66,161.04L498.78,159.36L502.9,157.21L507.02,62.44L511.15,63.39L515.27,52.17L519.39,30.43L523.51,23.47L527.63,16L531.76,20.75L535.88,24.33L540,19.48L540,304" style="vector-effect: non-scaling-stroke; fill: none; stroke: rgb(99, 110, 250); stroke-opacity: 1; stroke-width: 2px; opacity: 1;"/></g><g class="points"/><g class="text"/></g></g></g><g class="overplot"/><path class="xlines-above crisp" d="M0,0" style="fill: none;"/><path class="ylines-above crisp" d="M0,0" style="fill: none;"/><g class="overlines-above"/><g class="xaxislayer-above"><g class="xtick"><text text-anchor="middle" x="0" y="433" transform="translate(129.47,0)" style="font-family: 'Open Sans', verdana, arial, sans-serif; font-size: 12px; fill: rgb(42, 63, 95); fill-opacity: 1; white-space: pre; opacity: 1;">Oct 2022</text></g><g class="xtick"><text text-anchor="middle" x="0" y="433" style="font-family: 'Open Sans', verdana, arial, sans-serif; font-size: 12px; fill: rgb(42, 63, 95); fill-opacity: 1; white-space: pre; opacity: 1;" transform="translate(257.25,0)">Nov 2022</text></g><g class="xtick"><text text-anchor="middle" x="0" y="433" style="font-family: 'Open Sans', verdana, arial, sans-serif; font-size: 12px; fill: rgb(42, 63, 95); fill-opacity: 1; white-space: pre; opacity: 1;" transform="translate(380.92,0)">Dec 2022</text></g><g class="xtick"><text text-anchor="middle" x="0" y="433" style="font-family: 'Open Sans', verdana, arial, sans-serif; font-size: 12px; fill: rgb(42, 63, 95); fill-opacity: 1; white-space: pre; opacity: 1;" transform="translate(508.7,0)">Jan 2023</text></g></g><g class="yaxislayer-above"><g class="ytick"><text text-anchor="end" x="79" y="4.199999999999999" transform="translate(0,390.19)" style="font-family: 'Open Sans', verdana, arial, sans-serif; font-size: 12px; fill: rgb(42, 63, 95); fill-opacity: 1; white-space: pre; opacity: 1;">$−1M</text></g><g class="ytick"><text text-anchor="end" x="79" y="4.199999999999999" style="font-family: 'Open Sans', verdana, arial, sans-serif; font-size: 12px; fill: rgb(42, 63, 95); fill-opacity: 1; white-space: pre; opacity: 1;" transform="translate(0,338.31)">$0</text></g><g class="ytick"><text text-anchor="end" x="79" y="4.199999999999999" style="font-family: 'Open Sans', verdana, arial, sans-serif; font-size: 12px; fill: rgb(42, 63, 95); fill-opacity: 1; white-space: pre; opacity: 1;" transform="translate(0,286.41999999999996)">$1M</text></g><g class="ytick"><text text-anchor="end" x="79" y="4.199999999999999" style="font-family: 'Open Sans', verdana, arial, sans-serif; font-size: 12px; fill: rgb(42, 63, 95); fill-opacity: 1; white-space: pre; opacity: 1;" transform="translate(0,234.54)">$2M</text></g><g class="ytick"><text text-anchor="end" x="79" y="4.199999999999999" style="font-family: 'Open Sans', verdana, arial, sans-serif; font-size: 12px; fill: rgb(42, 63, 95); fill-opacity: 1; white-space: pre; opacity: 1;" transform="translate(0,182.66)">$3M</text></g><g class="ytick"><text text-anchor="end" x="79" y="4.199999999999999" style="font-family: 'Open Sans', verdana, arial, sans-serif; font-size: 12px; fill: rgb(42, 63, 95); fill-opacity: 1; white-space: pre; opacity: 1;" transform="translate(0,130.77)">$4M</text></g></g><g class="overaxes-above"/></g></g><g class="polarlayer"/><g class="smithlayer"/><g class="ternarylayer"/><g class="geolayer"/><g class="funnelarealayer"/><g class="pielayer"/><g class="iciclelayer"/><g class="treemaplayer"/><g class="sunburstlayer"/><g class="glimages"/><defs id="topdefs-a54e1c"><g class="clips"/></defs><g class="layer-above"><g class="imagelayer"/><g class="shapelayer"/></g><g class="infolayer"><g class="g-gtitle"><text class="gtitle" x="35" y="50" text-anchor="start" dy="0em" style="font-family: 'Open Sans', verdana, arial, sans-serif; font-size: 17px; fill: rgb(42, 63, 95); opacity: 1; font-weight: normal; white-space: pre;"><tspan class="line" dy="0em" x="35" y="50">Xtoken</tspan><tspan class="line" dy="1.3em" x="35" y="50">​<tspan style="font-size:70%" dy="-0.6em">Cumulative Net Dollar Flow since Program Announcement, Until Program End + 30 Days</tspan><tspan dy="0.42em">​</tspan></tspan></text></g><g class="g-xtitle"><text class="xtitle" x="350" y="460.8" text-anchor="middle" style="font-family: 'Open Sans', verdana, arial, sans-serif; font-size: 14px; fill: rgb(42, 63, 95); opacity: 1; font-weight: normal; white-space: pre;">Day</text></g><g class="g-ytitle"><text class="ytitle" transform="rotate(-90,23.840625000000003,260)" x="23.840625000000003" y="260" text-anchor="middle" style="font-family: 'Open Sans', verdana, arial, sans-serif; font-size: 14px; fill: rgb(42, 63, 95); opacity: 1; font-weight: normal; white-space: pre;">Cumulative Net Dollar Flow (N$F)</text></g></g></svg>