<svg class="main-svg" xmlns="http://www.w3.org/2000/svg" xmlns:xlink="http://www.w3.org/1999/xlink" width="700" height="500" style="" viewBox="0 0 700 500"><rect x="0" y="0" width="700" height="500" style="fill: rgb(255, 255, 255); fill-opacity: 1;"/><defs id="defs-a5a80f"><g class="clips"><clipPath id="clipa5a80fxyplot" class="plotclip"><rect width="540" height="320"/></clipPath><clipPath class="axesclip" id="clipa5a80fx"><rect x="80" y="0" width="540" height="500"/></clipPath><clipPath class="axesclip" id="clipa5a80fy"><rect x="0" y="100" width="700" height="320"/></clipPath><clipPath class="axesclip" id="clipa5a80fxy"><rect x="80" y="100" width="540" height="320"/></clipPath></g><g class="gradients"/><g class="patterns"/></defs><g class="bglayer"><rect class="bg" x="80" y="100" width="540" height="320" style="fill: rgb(229, 236, 246); fill-opacity: 1; stroke-width: 0;"/></g><g class="layer-below"><g class="imagelayer"/><g class="shapelayer"/></g><g class="cartesianlayer"><g class="subplot xy"><g class="layer-subplot"><g class="shapelayer"/><g class="imagelayer"/></g><g class="minor-gridlayer"><g class="x"/><g class="y"/></g><g class="gridlayer"><g class="x"><path class="xgrid crisp" transform="translate(94.86,0)" d="M0,100v320" style="stroke: rgb(255, 255, 255); stroke-opacity: 1; stroke-width: 1px;"/><path class="xgrid crisp" transform="translate(169.17000000000002,0)" d="M0,100v320" style="stroke: rgb(255, 255, 255); stroke-opacity: 1; stroke-width: 1px;"/><path class="xgrid crisp" transform="translate(245.96,0)" d="M0,100v320" style="stroke: rgb(255, 255, 255); stroke-opacity: 1; stroke-width: 1px;"/><path class="xgrid crisp" transform="translate(320.28,0)" d="M0,100v320" style="stroke: rgb(255, 255, 255); stroke-opacity: 1; stroke-width: 1px;"/><path class="xgrid crisp" transform="translate(397.06,0)" d="M0,100v320" style="stroke: rgb(255, 255, 255); stroke-opacity: 1; stroke-width: 1px;"/><path class="xgrid crisp" transform="translate(473.85,0)" d="M0,100v320" style="stroke: rgb(255, 255, 255); stroke-opacity: 1; stroke-width: 1px;"/><path class="xgrid crisp" transform="translate(543.21,0)" d="M0,100v320" style="stroke: rgb(255, 255, 255); stroke-opacity: 1; stroke-width: 1px;"/></g><g class="y"><path class="ygrid crisp" transform="translate(0,380.86)" d="M80,0h540" style="stroke: rgb(255, 255, 255); stroke-opacity: 1; stroke-width: 1px;"/><path class="ygrid crisp" transform="translate(0,341.71000000000004)" d="M80,0h540" style="stroke: rgb(255, 255, 255); stroke-opacity: 1; stroke-width: 1px;"/><path class="ygrid crisp" transform="translate(0,302.57)" d="M80,0h540" style="stroke: rgb(255, 255, 255); stroke-opacity: 1; stroke-width: 1px;"/><path class="ygrid crisp" transform="translate(0,263.43)" d="M80,0h540" style="stroke: rgb(255, 255, 255); stroke-opacity: 1; stroke-width: 1px;"/><path class="ygrid crisp" transform="translate(0,224.28)" d="M80,0h540" style="stroke: rgb(255, 255, 255); stroke-opacity: 1; stroke-width: 1px;"/><path class="ygrid crisp" transform="translate(0,185.14)" d="M80,0h540" style="stroke: rgb(255, 255, 255); stroke-opacity: 1; stroke-width: 1px;"/><path class="ygrid crisp" transform="translate(0,146)" d="M80,0h540" style="stroke: rgb(255, 255, 255); stroke-opacity: 1; stroke-width: 1px;"/><path class="ygrid crisp" transform="translate(0,106.85)" d="M80,0h540" style="stroke: rgb(255, 255, 255); stroke-opacity: 1; stroke-width: 1px;"/></g></g><g class="zerolinelayer"><path class="yzl zl crisp" transform="translate(0,420)" d="M80,0h540" style="stroke: rgb(255, 255, 255); stroke-opacity: 1; stroke-width: 2px;"/></g><path class="xlines-below"/><path class="ylines-below"/><g class="overlines-below"/><g class="xaxislayer-below"/><g class="yaxislayer-below"/><g class="overaxes-below"/><g class="plot" transform="translate(80,100)" clip-path="url(#clipa5a80fxyplot)"><g class="scatterlayer mlayer"><g class="trace scatter trace931968" style="stroke-miterlimit: 2;"><g class="fills"><g><path class="js-fill" d="M540,320L0,320L0,261.3L12.39,261.22L14.86,256.79L17.34,261.22L19.82,261.22L29.72,261.18L32.2,260.4L34.68,168.03L37.16,106.09L39.63,106.89L42.11,106.89L44.59,140.91L47.06,140.91L54.5,140.9L56.97,135.87L59.45,133.17L61.93,139.33L64.4,139.25L66.88,203.01L69.36,220.77L71.83,220.99L74.31,217.88L76.79,217.65L79.27,255.35L81.74,255.37L84.22,233.58L86.7,223.69L89.17,223.76L91.65,233.63L94.13,233.51L96.61,201.59L99.08,202.77L101.56,202.73L113.94,203.11L116.42,203.55L141.19,203.37L143.67,203.41L146.15,203.38L148.62,226.95L151.1,218.57L153.58,218.61L163.49,218.15L165.96,218.25L198.17,218.28L200.64,233.04L213.03,233.09L215.5,213.4L217.98,285.91L220.46,269.35L222.94,266.3L225.41,266.3L227.89,252.24L230.37,252.24L232.84,241.12L235.32,241L237.8,241.09L240.28,259.07L242.75,259.29L245.23,256.02L247.71,255.71L250.18,249.81L265.05,249.3L267.52,249.3L270,222.96L272.48,246.6L302.2,246.69L304.68,245.24L309.63,244.79L312.11,244.84L314.59,245.16L317.06,246.71L336.88,246.4L339.36,229.52L341.83,229.52L344.31,255.07L346.79,254.99L349.27,251.48L351.74,249.39L354.22,249.1L364.13,248.58L366.61,229.64L369.08,229.64L371.56,236.19L374.04,232.93L376.51,231.9L378.99,231.05L381.47,232.93L383.94,229.62L386.42,228.95L388.9,229.88L391.38,229.73L393.85,229.71L396.33,218.01L406.24,217.7L408.72,202.05L411.19,185.14L413.67,196.53L416.15,180.89L418.62,177.67L423.58,177.67L426.06,181.72L431.01,177.79L433.49,175.95L435.96,162.67L438.44,162.65L440.92,150.15L443.39,150.15L448.35,106.69L450.83,77.96L453.3,78.64L455.78,33.76L458.26,33.96L460.73,32.92L463.21,31.66L465.69,16L468.17,25.52L470.64,56.74L473.12,61.43L475.6,59.82L478.07,55.92L480.55,66.94L483.03,75.56L485.5,124.85L487.98,254.67L490.46,211.76L492.94,190.47L495.41,112.17L497.89,72.92L500.37,111.42L502.84,65.65L505.32,67.24L507.8,31.8L510.28,31.8L512.75,23.83L515.23,62.23L517.71,70.86L520.18,70.86L522.66,109.99L525.14,109.99L527.61,62.47L530.09,55.2L532.57,109.67L535.05,75.44L540,75.2" style="fill: rgb(99, 110, 250); fill-opacity: 0.5; stroke-width: 0;"/></g></g><g class="errorbars"/><g class="lines"><path class="js-line" d="M0,261.3L12.39,261.22L14.86,256.79L17.34,261.22L19.82,261.22L29.72,261.18L32.2,260.4L34.68,168.03L37.16,106.09L39.63,106.89L42.11,106.89L44.59,140.91L47.06,140.91L54.5,140.9L56.97,135.87L59.45,133.17L61.93,139.33L64.4,139.25L66.88,203.01L69.36,220.77L71.83,220.99L74.31,217.88L76.79,217.65L79.27,255.35L81.74,255.37L84.22,233.58L86.7,223.69L89.17,223.76L91.65,233.63L94.13,233.51L96.61,201.59L99.08,202.77L101.56,202.73L113.94,203.11L116.42,203.55L141.19,203.37L143.67,203.41L146.15,203.38L148.62,226.95L151.1,218.57L153.58,218.61L163.49,218.15L165.96,218.25L198.17,218.28L200.64,233.04L213.03,233.09L215.5,213.4L217.98,285.91L220.46,269.35L222.94,266.3L225.41,266.3L227.89,252.24L230.37,252.24L232.84,241.12L235.32,241L237.8,241.09L240.28,259.07L242.75,259.29L245.23,256.02L247.71,255.71L250.18,249.81L265.05,249.3L267.52,249.3L270,222.96L272.48,246.6L302.2,246.69L304.68,245.24L309.63,244.79L312.11,244.84L314.59,245.16L317.06,246.71L336.88,246.4L339.36,229.52L341.83,229.52L344.31,255.07L346.79,254.99L349.27,251.48L351.74,249.39L354.22,249.1L364.13,248.58L366.61,229.64L369.08,229.64L371.56,236.19L374.04,232.93L376.51,231.9L378.99,231.05L381.47,232.93L383.94,229.62L386.42,228.95L388.9,229.88L391.38,229.73L393.85,229.71L396.33,218.01L406.24,217.7L408.72,202.05L411.19,185.14L413.67,196.53L416.15,180.89L418.62,177.67L423.58,177.67L426.06,181.72L431.01,177.79L433.49,175.95L435.96,162.67L438.44,162.65L440.92,150.15L443.39,150.15L448.35,106.69L450.83,77.96L453.3,78.64L455.78,33.76L458.26,33.96L460.73,32.92L463.21,31.66L465.69,16L468.17,25.52L470.64,56.74L473.12,61.43L475.6,59.82L478.07,55.92L480.55,66.94L483.03,75.56L485.5,124.85L487.98,254.67L490.46,211.76L492.94,190.47L495.41,112.17L497.89,72.92L500.37,111.42L502.84,65.65L505.32,67.24L507.8,31.8L510.28,31.8L512.75,23.83L515.23,62.23L517.71,70.86L520.18,70.86L522.66,109.99L525.14,109.99L527.61,62.47L530.09,55.2L532.57,109.67L535.05,75.44L540,75.2" style="vector-effect: non-scaling-stroke; fill: none; stroke: rgb(99, 110, 250); stroke-opacity: 1; stroke-width: 2px; opacity: 1;"/></g><g class="points"/><g class="text"/></g></g></g><g class="overplot"/><path class="xlines-above crisp" d="M0,0" style="fill: none;"/><path class="ylines-above crisp" d="M0,0" style="fill: none;"/><g class="overlines-above"/><g class="xaxislayer-above"><g class="xtick"><text text-anchor="middle" x="0" y="433" transform="translate(94.86,0)" style="font-family: 'Open Sans', verdana, arial, sans-serif; font-size: 12px; fill: rgb(42, 63, 95); fill-opacity: 1; white-space: pre; opacity: 1;">Sep 2022</text></g><g class="xtick"><text text-anchor="middle" x="0" y="433" style="font-family: 'Open Sans', verdana, arial, sans-serif; font-size: 12px; fill: rgb(42, 63, 95); fill-opacity: 1; white-space: pre; opacity: 1;" transform="translate(169.17000000000002,0)">Oct 2022</text></g><g class="xtick"><text text-anchor="middle" x="0" y="433" style="font-family: 'Open Sans', verdana, arial, sans-serif; font-size: 12px; fill: rgb(42, 63, 95); fill-opacity: 1; white-space: pre; opacity: 1;" transform="translate(245.96,0)">Nov 2022</text></g><g class="xtick"><text text-anchor="middle" x="0" y="433" style="font-family: 'Open Sans', verdana, arial, sans-serif; font-size: 12px; fill: rgb(42, 63, 95); fill-opacity: 1; white-space: pre; opacity: 1;" transform="translate(320.28,0)">Dec 2022</text></g><g class="xtick"><text text-anchor="middle" x="0" y="433" style="font-family: 'Open Sans', verdana, arial, sans-serif; font-size: 12px; fill: rgb(42, 63, 95); fill-opacity: 1; white-space: pre; opacity: 1;" transform="translate(397.06,0)">Jan 2023</text></g><g class="xtick"><text text-anchor="middle" x="0" y="433" style="font-family: 'Open Sans', verdana, arial, sans-serif; font-size: 12px; fill: rgb(42, 63, 95); fill-opacity: 1; white-space: pre; opacity: 1;" transform="translate(473.85,0)">Feb 2023</text></g><g class="xtick"><text text-anchor="middle" x="0" y="433" style="font-family: 'Open Sans', verdana, arial, sans-serif; font-size: 12px; fill: rgb(42, 63, 95); fill-opacity: 1; white-space: pre; opacity: 1;" transform="translate(543.21,0)">Mar 2023</text></g><g class="xtick"><text text-anchor="middle" x="0" y="433" style="font-family: 'Open Sans', verdana, arial, sans-serif; font-size: 12px; fill: rgb(42, 63, 95); fill-opacity: 1; white-space: pre; opacity: 1;" transform="translate(620,0)">Apr 2023</text></g></g><g class="yaxislayer-above"><g class="ytick"><text text-anchor="end" x="79" y="4.199999999999999" transform="translate(0,420)" style="font-family: 'Open Sans', verdana, arial, sans-serif; font-size: 12px; fill: rgb(42, 63, 95); fill-opacity: 1; white-space: pre; opacity: 1;">$0</text></g><g class="ytick"><text text-anchor="end" x="79" y="4.199999999999999" style="font-family: 'Open Sans', verdana, arial, sans-serif; font-size: 12px; fill: rgb(42, 63, 95); fill-opacity: 1; white-space: pre; opacity: 1;" transform="translate(0,380.86)">$50k</text></g><g class="ytick"><text text-anchor="end" x="79" y="4.199999999999999" style="font-family: 'Open Sans', verdana, arial, sans-serif; font-size: 12px; fill: rgb(42, 63, 95); fill-opacity: 1; white-space: pre; opacity: 1;" transform="translate(0,341.71000000000004)">$100k</text></g><g class="ytick"><text text-anchor="end" x="79" y="4.199999999999999" style="font-family: 'Open Sans', verdana, arial, sans-serif; font-size: 12px; fill: rgb(42, 63, 95); fill-opacity: 1; white-space: pre; opacity: 1;" transform="translate(0,302.57)">$150k</text></g><g class="ytick"><text text-anchor="end" x="79" y="4.199999999999999" style="font-family: 'Open Sans', verdana, arial, sans-serif; font-size: 12px; fill: rgb(42, 63, 95); fill-opacity: 1; white-space: pre; opacity: 1;" transform="translate(0,263.43)">$200k</text></g><g class="ytick"><text text-anchor="end" x="79" y="4.199999999999999" style="font-family: 'Open Sans', verdana, arial, sans-serif; font-size: 12px; fill: rgb(42, 63, 95); fill-opacity: 1; white-space: pre; opacity: 1;" transform="translate(0,224.28)">$250k</text></g><g class="ytick"><text text-anchor="end" x="79" y="4.199999999999999" style="font-family: 'Open Sans', verdana, arial, sans-serif; font-size: 12px; fill: rgb(42, 63, 95); fill-opacity: 1; white-space: pre; opacity: 1;" transform="translate(0,185.14)">$300k</text></g><g class="ytick"><text text-anchor="end" x="79" y="4.199999999999999" style="font-family: 'Open Sans', verdana, arial, sans-serif; font-size: 12px; fill: rgb(42, 63, 95); fill-opacity: 1; white-space: pre; opacity: 1;" transform="translate(0,146)">$350k</text></g><g class="ytick"><text text-anchor="end" x="79" y="4.199999999999999" style="font-family: 'Open Sans', verdana, arial, sans-serif; font-size: 12px; fill: rgb(42, 63, 95); fill-opacity: 1; white-space: pre; opacity: 1;" transform="translate(0,106.85)">$400k</text></g></g><g class="overaxes-above"/></g></g><g class="polarlayer"/><g class="smithlayer"/><g class="ternarylayer"/><g class="geolayer"/><g class="funnelarealayer"/><g class="pielayer"/><g class="iciclelayer"/><g class="treemaplayer"/><g class="sunburstlayer"/><g class="glimages"/><defs id="topdefs-a5a80f"><g class="clips"/></defs><g class="layer-above"><g class="imagelayer"/><g class="shapelayer"/></g><g class="infolayer"><g class="g-gtitle"><text class="gtitle" x="35" y="50" text-anchor="start" dy="0em" style="font-family: 'Open Sans', verdana, arial, sans-serif; font-size: 17px; fill: rgb(42, 63, 95); opacity: 1; font-weight: normal; white-space: pre;"><tspan class="line" dy="0em" x="35" y="50">Qidao - vUSDC/MAI: Velodrome</tspan><tspan class="line" dy="1.3em" x="35" y="50">​<tspan style="font-size:70%" dy="-0.6em">Cumulative Net Flows since Program Announcement, Until Program End + 30 Days</tspan><tspan dy="0.42em">​</tspan></tspan></text></g><g class="g-xtitle"><text class="xtitle" x="350" y="460.8" text-anchor="middle" style="font-family: 'Open Sans', verdana, arial, sans-serif; font-size: 14px; fill: rgb(42, 63, 95); opacity: 1; font-weight: normal; white-space: pre;">Day</text></g><g class="g-ytitle"><text class="ytitle" transform="rotate(-90,21.496875000000003,260)" x="21.496875000000003" y="260" text-anchor="middle" style="font-family: 'Open Sans', verdana, arial, sans-serif; font-size: 14px; fill: rgb(42, 63, 95); opacity: 1; font-weight: normal; white-space: pre;">Cumulative Net Flows (USD)</text></g></g></svg>