<svg class="main-svg" xmlns="http://www.w3.org/2000/svg" xmlns:xlink="http://www.w3.org/1999/xlink" width="700" height="500" style="" viewBox="0 0 700 500"><rect x="0" y="0" width="700" height="500" style="fill: rgb(255, 255, 255); fill-opacity: 1;"/><defs id="defs-bdaeb7"><g class="clips"><clipPath id="clipbdaeb7xyplot" class="plotclip"><rect width="540" height="320"/></clipPath><clipPath class="axesclip" id="clipbdaeb7x"><rect x="80" y="0" width="540" height="500"/></clipPath><clipPath class="axesclip" id="clipbdaeb7y"><rect x="0" y="100" width="700" height="320"/></clipPath><clipPath class="axesclip" id="clipbdaeb7xy"><rect x="80" y="100" width="540" height="320"/></clipPath></g><g class="gradients"/><g class="patterns"/></defs><g class="bglayer"><rect class="bg" x="80" y="100" width="540" height="320" style="fill: rgb(229, 236, 246); fill-opacity: 1; stroke-width: 0;"/></g><g class="layer-below"><g class="imagelayer"/><g class="shapelayer"/></g><g class="cartesianlayer"><g class="subplot xy"><g class="layer-subplot"><g class="shapelayer"/><g class="imagelayer"/></g><g class="minor-gridlayer"><g class="x"/><g class="y"/></g><g class="gridlayer"><g class="x"><path class="xgrid crisp" transform="translate(94.12,0)" d="M0,100v320" style="stroke: rgb(255, 255, 255); stroke-opacity: 1; stroke-width: 1px;"/><path class="xgrid crisp" transform="translate(203.53,0)" d="M0,100v320" style="stroke: rgb(255, 255, 255); stroke-opacity: 1; stroke-width: 1px;"/><path class="xgrid crisp" transform="translate(309.40999999999997,0)" d="M0,100v320" style="stroke: rgb(255, 255, 255); stroke-opacity: 1; stroke-width: 1px;"/><path class="xgrid crisp" transform="translate(418.82,0)" d="M0,100v320" style="stroke: rgb(255, 255, 255); stroke-opacity: 1; stroke-width: 1px;"/><path class="xgrid crisp" transform="translate(528.24,0)" d="M0,100v320" style="stroke: rgb(255, 255, 255); stroke-opacity: 1; stroke-width: 1px;"/></g><g class="y"><path class="ygrid crisp" transform="translate(0,336.15)" d="M80,0h540" style="stroke: rgb(255, 255, 255); stroke-opacity: 1; stroke-width: 1px;"/><path class="ygrid crisp" transform="translate(0,278.59000000000003)" d="M80,0h540" style="stroke: rgb(255, 255, 255); stroke-opacity: 1; stroke-width: 1px;"/><path class="ygrid crisp" transform="translate(0,221.03)" d="M80,0h540" style="stroke: rgb(255, 255, 255); stroke-opacity: 1; stroke-width: 1px;"/><path class="ygrid crisp" transform="translate(0,163.47)" d="M80,0h540" style="stroke: rgb(255, 255, 255); stroke-opacity: 1; stroke-width: 1px;"/><path class="ygrid crisp" transform="translate(0,105.91)" d="M80,0h540" style="stroke: rgb(255, 255, 255); stroke-opacity: 1; stroke-width: 1px;"/></g></g><g class="zerolinelayer"><path class="yzl zl crisp" transform="translate(0,393.72)" d="M80,0h540" style="stroke: rgb(255, 255, 255); stroke-opacity: 1; stroke-width: 2px;"/></g><path class="xlines-below"/><path class="ylines-below"/><g class="overlines-below"/><g class="xaxislayer-below"/><g class="yaxislayer-below"/><g class="overaxes-below"/><g class="plot" transform="translate(80,100)" clip-path="url(#clipbdaeb7xyplot)"><g class="scatterlayer mlayer"><g class="trace scatter trace0dd4a3" style="stroke-miterlimit: 2;"><g class="fills"><g><path class="js-fill" d="M540,293.72L0,293.72L0,300.51L3.53,300.52L7.06,299.73L21.18,298.72L24.71,297.05L28.24,291.12L31.76,291.34L35.29,296.74L38.82,290.99L45.88,291.8L49.41,291.85L52.94,292L56.47,288.94L60,281.75L63.53,280.68L67.06,280.68L70.59,282.55L74.12,270.94L77.65,270.8L81.18,270.65L84.71,273.92L88.24,274.32L91.76,272.11L95.29,272.69L98.82,274.11L102.35,281.04L105.88,277.05L109.41,270.84L112.94,269.26L116.47,269.92L120,269.5L123.53,268.31L127.06,268.94L141.18,268.71L144.71,267.74L148.24,285.08L151.76,286.79L155.29,303L158.82,300.97L165.88,302.3L169.41,304L172.94,289.85L176.47,288.1L180,294.26L183.53,292.4L187.06,291.23L190.59,291.82L194.12,293.34L197.65,293.51L201.18,295.46L204.71,294.8L208.24,293.3L211.76,285.96L215.29,285.4L218.82,293.08L222.35,293.68L225.88,292.61L229.41,282.15L232.94,278.97L236.47,278.89L240,279.57L243.53,276.73L247.06,275.6L250.59,269.42L254.12,269.06L257.65,265.57L261.18,275.53L264.71,240.74L268.24,258.67L271.76,259.2L275.29,266.34L278.82,288.27L282.35,288.14L285.88,297.28L289.41,298.6L292.94,297.89L296.47,288.86L300,288.78L303.53,291.2L310.59,291.58L314.12,291.72L321.18,292.5L324.71,293.97L338.82,293.76L342.35,293.76L345.88,293.68L349.41,294.51L352.94,294.18L356.47,297.38L360,293.62L363.53,293.34L367.06,288.5L370.59,287.25L374.12,287.06L377.65,285.34L381.18,283.16L384.71,282.3L391.76,282.63L395.29,278.52L398.82,277.81L402.35,267.99L405.88,259.81L409.41,256.16L412.94,261.86L416.47,249.16L420,235.74L423.53,231.23L430.59,201.48L434.12,195.53L437.65,195.53L441.18,191.43L444.71,177.12L448.24,173.11L451.76,165.94L455.29,161.78L458.82,160.15L462.35,153.52L465.88,116.58L469.41,113.73L472.94,91.23L476.47,95.42L480,95.39L483.53,85.73L487.06,76.31L490.59,75.15L494.12,75.19L497.65,70.04L501.18,72.28L504.71,63.66L508.24,61.43L511.76,45.35L515.29,36.86L518.82,30.82L522.35,42.53L525.88,36.04L529.41,16.59L532.94,17.67L536.47,16.21L540,16" style="fill: rgb(99, 110, 250); fill-opacity: 0.5; stroke-width: 0;"/></g></g><g class="errorbars"/><g class="lines"><path class="js-line" d="M0,300.51L3.53,300.52L7.06,299.73L21.18,298.72L24.71,297.05L28.24,291.12L31.76,291.34L35.29,296.74L38.82,290.99L45.88,291.8L49.41,291.85L52.94,292L56.47,288.94L60,281.75L63.53,280.68L67.06,280.68L70.59,282.55L74.12,270.94L77.65,270.8L81.18,270.65L84.71,273.92L88.24,274.32L91.76,272.11L95.29,272.69L98.82,274.11L102.35,281.04L105.88,277.05L109.41,270.84L112.94,269.26L116.47,269.92L120,269.5L123.53,268.31L127.06,268.94L141.18,268.71L144.71,267.74L148.24,285.08L151.76,286.79L155.29,303L158.82,300.97L165.88,302.3L169.41,304L172.94,289.85L176.47,288.1L180,294.26L183.53,292.4L187.06,291.23L190.59,291.82L194.12,293.34L197.65,293.51L201.18,295.46L204.71,294.8L208.24,293.3L211.76,285.96L215.29,285.4L218.82,293.08L222.35,293.68L225.88,292.61L229.41,282.15L232.94,278.97L236.47,278.89L240,279.57L243.53,276.73L247.06,275.6L250.59,269.42L254.12,269.06L257.65,265.57L261.18,275.53L264.71,240.74L268.24,258.67L271.76,259.2L275.29,266.34L278.82,288.27L282.35,288.14L285.88,297.28L289.41,298.6L292.94,297.89L296.47,288.86L300,288.78L303.53,291.2L310.59,291.58L314.12,291.72L321.18,292.5L324.71,293.97L338.82,293.76L342.35,293.76L345.88,293.68L349.41,294.51L352.94,294.18L356.47,297.38L360,293.62L363.53,293.34L367.06,288.5L370.59,287.25L374.12,287.06L377.65,285.34L381.18,283.16L384.71,282.3L391.76,282.63L395.29,278.52L398.82,277.81L402.35,267.99L405.88,259.81L409.41,256.16L412.94,261.86L416.47,249.16L420,235.74L423.53,231.23L430.59,201.48L434.12,195.53L437.65,195.53L441.18,191.43L444.71,177.12L448.24,173.11L451.76,165.94L455.29,161.78L458.82,160.15L462.35,153.52L465.88,116.58L469.41,113.73L472.94,91.23L476.47,95.42L480,95.39L483.53,85.73L487.06,76.31L490.59,75.15L494.12,75.19L497.65,70.04L501.18,72.28L504.71,63.66L508.24,61.43L511.76,45.35L515.29,36.86L518.82,30.82L522.35,42.53L525.88,36.04L529.41,16.59L532.94,17.67L536.47,16.21L540,16" style="vector-effect: non-scaling-stroke; fill: none; stroke: rgb(99, 110, 250); stroke-opacity: 1; stroke-width: 2px; opacity: 1;"/></g><g class="points"/><g class="text"/></g></g></g><g class="overplot"/><path class="xlines-above crisp" d="M0,0" style="fill: none;"/><path class="ylines-above crisp" d="M0,0" style="fill: none;"/><g class="overlines-above"/><g class="xaxislayer-above"><g class="xtick"><text text-anchor="middle" x="0" y="433" transform="translate(94.12,0)" style="font-family: 'Open Sans', verdana, arial, sans-serif; font-size: 12px; fill: rgb(42, 63, 95); fill-opacity: 1; white-space: pre; opacity: 1;">Oct 2022</text></g><g class="xtick"><text text-anchor="middle" x="0" y="433" style="font-family: 'Open Sans', verdana, arial, sans-serif; font-size: 12px; fill: rgb(42, 63, 95); fill-opacity: 1; white-space: pre; opacity: 1;" transform="translate(203.53,0)">Nov 2022</text></g><g class="xtick"><text text-anchor="middle" x="0" y="433" style="font-family: 'Open Sans', verdana, arial, sans-serif; font-size: 12px; fill: rgb(42, 63, 95); fill-opacity: 1; white-space: pre; opacity: 1;" transform="translate(309.40999999999997,0)">Dec 2022</text></g><g class="xtick"><text text-anchor="middle" x="0" y="433" style="font-family: 'Open Sans', verdana, arial, sans-serif; font-size: 12px; fill: rgb(42, 63, 95); fill-opacity: 1; white-space: pre; opacity: 1;" transform="translate(418.82,0)">Jan 2023</text></g><g class="xtick"><text text-anchor="middle" x="0" y="433" style="font-family: 'Open Sans', verdana, arial, sans-serif; font-size: 12px; fill: rgb(42, 63, 95); fill-opacity: 1; white-space: pre; opacity: 1;" transform="translate(528.24,0)">Feb 2023</text></g></g><g class="yaxislayer-above"><g class="ytick"><text text-anchor="end" x="79" y="4.199999999999999" transform="translate(0,393.72)" style="font-family: 'Open Sans', verdana, arial, sans-serif; font-size: 12px; fill: rgb(42, 63, 95); fill-opacity: 1; white-space: pre; opacity: 1;">$0</text></g><g class="ytick"><text text-anchor="end" x="79" y="4.199999999999999" style="font-family: 'Open Sans', verdana, arial, sans-serif; font-size: 12px; fill: rgb(42, 63, 95); fill-opacity: 1; white-space: pre; opacity: 1;" transform="translate(0,336.15)">$5M</text></g><g class="ytick"><text text-anchor="end" x="79" y="4.199999999999999" style="font-family: 'Open Sans', verdana, arial, sans-serif; font-size: 12px; fill: rgb(42, 63, 95); fill-opacity: 1; white-space: pre; opacity: 1;" transform="translate(0,278.59000000000003)">$10M</text></g><g class="ytick"><text text-anchor="end" x="79" y="4.199999999999999" style="font-family: 'Open Sans', verdana, arial, sans-serif; font-size: 12px; fill: rgb(42, 63, 95); fill-opacity: 1; white-space: pre; opacity: 1;" transform="translate(0,221.03)">$15M</text></g><g class="ytick"><text text-anchor="end" x="79" y="4.199999999999999" style="font-family: 'Open Sans', verdana, arial, sans-serif; font-size: 12px; fill: rgb(42, 63, 95); fill-opacity: 1; white-space: pre; opacity: 1;" transform="translate(0,163.47)">$20M</text></g><g class="ytick"><text text-anchor="end" x="79" y="4.199999999999999" style="font-family: 'Open Sans', verdana, arial, sans-serif; font-size: 12px; fill: rgb(42, 63, 95); fill-opacity: 1; white-space: pre; opacity: 1;" transform="translate(0,105.91)">$25M</text></g></g><g class="overaxes-above"/></g></g><g class="polarlayer"/><g class="smithlayer"/><g class="ternarylayer"/><g class="geolayer"/><g class="funnelarealayer"/><g class="pielayer"/><g class="iciclelayer"/><g class="treemaplayer"/><g class="sunburstlayer"/><g class="glimages"/><defs id="topdefs-bdaeb7"><g class="clips"/></defs><g class="layer-above"><g class="imagelayer"/><g class="shapelayer"/></g><g class="infolayer"><g class="g-gtitle"><text class="gtitle" x="35" y="50" text-anchor="start" dy="0em" style="font-family: 'Open Sans', verdana, arial, sans-serif; font-size: 17px; fill: rgb(42, 63, 95); opacity: 1; font-weight: normal; white-space: pre;"><tspan class="line" dy="0em" x="35" y="50">Synthetix - USDC/sUSD: Velo</tspan><tspan class="line" dy="1.3em" x="35" y="50">​<tspan style="font-size:70%" dy="-0.6em">Cumulative Net Flows since Program Announcement, Until Program End + 30 Days</tspan><tspan dy="0.42em">​</tspan></tspan></text></g><g class="g-xtitle"><text class="xtitle" x="350" y="460.8" text-anchor="middle" style="font-family: 'Open Sans', verdana, arial, sans-serif; font-size: 14px; fill: rgb(42, 63, 95); opacity: 1; font-weight: normal; white-space: pre;">Day</text></g><g class="g-ytitle"><text class="ytitle" transform="rotate(-90,24.168750000000003,260)" x="24.168750000000003" y="260" text-anchor="middle" style="font-family: 'Open Sans', verdana, arial, sans-serif; font-size: 14px; fill: rgb(42, 63, 95); opacity: 1; font-weight: normal; white-space: pre;">Cumulative Net Flows (USD)</text></g></g></svg>