<svg class="main-svg" xmlns="http://www.w3.org/2000/svg" xmlns:xlink="http://www.w3.org/1999/xlink" width="700" height="500" style="" viewBox="0 0 700 500"><rect x="0" y="0" width="700" height="500" style="fill: rgb(255, 255, 255); fill-opacity: 1;"/><defs id="defs-1ab050"><g class="clips"><clipPath id="clip1ab050xyplot" class="plotclip"><rect width="540" height="320"/></clipPath><clipPath class="axesclip" id="clip1ab050x"><rect x="80" y="0" width="540" height="500"/></clipPath><clipPath class="axesclip" id="clip1ab050y"><rect x="0" y="100" width="700" height="320"/></clipPath><clipPath class="axesclip" id="clip1ab050xy"><rect x="80" y="100" width="540" height="320"/></clipPath></g><g class="gradients"/><g class="patterns"/></defs><g class="bglayer"><rect class="bg" x="80" y="100" width="540" height="320" style="fill: rgb(229, 236, 246); fill-opacity: 1; stroke-width: 0;"/></g><g class="layer-below"><g class="imagelayer"/><g class="shapelayer"/></g><g class="cartesianlayer"><g class="subplot xy"><g class="layer-subplot"><g class="shapelayer"/><g class="imagelayer"/></g><g class="minor-gridlayer"><g class="x"/><g class="y"/></g><g class="gridlayer"><g class="x"><path class="xgrid crisp" transform="translate(157.91,0)" d="M0,100v320" style="stroke: rgb(255, 255, 255); stroke-opacity: 1; stroke-width: 1px;"/><path class="xgrid crisp" transform="translate(238.51,0)" d="M0,100v320" style="stroke: rgb(255, 255, 255); stroke-opacity: 1; stroke-width: 1px;"/><path class="xgrid crisp" transform="translate(321.78999999999996,0)" d="M0,100v320" style="stroke: rgb(255, 255, 255); stroke-opacity: 1; stroke-width: 1px;"/><path class="xgrid crisp" transform="translate(402.39,0)" d="M0,100v320" style="stroke: rgb(255, 255, 255); stroke-opacity: 1; stroke-width: 1px;"/><path class="xgrid crisp" transform="translate(485.67,0)" d="M0,100v320" style="stroke: rgb(255, 255, 255); stroke-opacity: 1; stroke-width: 1px;"/><path class="xgrid crisp" transform="translate(568.96,0)" d="M0,100v320" style="stroke: rgb(255, 255, 255); stroke-opacity: 1; stroke-width: 1px;"/></g><g class="y"><path class="ygrid crisp" transform="translate(0,304.46000000000004)" d="M80,0h540" style="stroke: rgb(255, 255, 255); stroke-opacity: 1; stroke-width: 1px;"/><path class="ygrid crisp" transform="translate(0,241.36)" d="M80,0h540" style="stroke: rgb(255, 255, 255); stroke-opacity: 1; stroke-width: 1px;"/><path class="ygrid crisp" transform="translate(0,178.26999999999998)" d="M80,0h540" style="stroke: rgb(255, 255, 255); stroke-opacity: 1; stroke-width: 1px;"/><path class="ygrid crisp" transform="translate(0,115.17)" d="M80,0h540" style="stroke: rgb(255, 255, 255); stroke-opacity: 1; stroke-width: 1px;"/></g></g><g class="zerolinelayer"><path class="yzl zl crisp" transform="translate(0,367.55)" d="M80,0h540" style="stroke: rgb(255, 255, 255); stroke-opacity: 1; stroke-width: 2px;"/></g><path class="xlines-below"/><path class="ylines-below"/><g class="overlines-below"/><g class="xaxislayer-below"/><g class="yaxislayer-below"/><g class="overaxes-below"/><g class="plot" transform="translate(80,100)" clip-path="url(#clip1ab050xyplot)"><g class="scatterlayer mlayer"><g class="trace scatter traceae16cb" style="stroke-miterlimit: 2;"><g class="fills"><g><path class="js-fill" d="M540,267.55L0,267.55L0,262.48L2.69,150.39L5.37,116.3L8.06,54.88L10.75,35.15L13.43,34.32L16.12,23.49L18.81,27.54L21.49,22.92L24.18,27.14L26.87,16L29.55,18.46L32.24,18.65L34.93,19L37.61,27.04L42.99,32.07L45.67,33.38L51.04,31.49L53.73,27.97L56.42,26.21L59.1,26.14L61.79,27.81L64.48,33.58L67.16,32.57L69.85,33.87L72.54,30.36L75.22,28.93L80.6,27.84L83.28,32.22L88.66,32.65L91.34,36.55L94.03,42.37L96.72,40.09L99.4,39.62L102.09,36.56L104.78,35.64L107.46,37.53L110.15,36.18L112.84,36.07L118.21,41.45L120.9,47.74L123.58,44.96L126.27,50.13L128.96,49.66L131.64,50.02L134.33,43.03L137.01,44.37L139.7,44.69L142.39,41.85L145.07,43.28L147.76,46.07L150.45,42.51L153.13,42.14L155.82,44.59L158.51,45.47L166.57,44.57L169.25,42.74L171.94,42.58L174.63,43.55L177.31,44.67L180,47.43L182.69,47.12L185.37,45.33L188.06,41.56L190.75,41.63L193.43,39.85L196.12,45.94L198.81,51.73L201.49,46.24L204.18,49.76L206.87,46.67L209.55,47.62L212.24,47.65L214.93,51.79L217.61,51.6L220.3,49.91L222.99,50.39L225.67,46.52L228.36,40.95L231.04,43.65L233.73,30.56L241.79,30.87L244.48,36.35L247.16,47.86L249.85,48.64L252.54,46.43L255.22,47.94L257.91,51.18L260.6,52.84L263.28,43.04L265.97,56.43L268.66,54.03L271.34,54.77L274.03,55.51L276.72,76.9L279.4,75.13L282.09,76.66L284.78,78.46L287.46,78.56L290.15,78.8L292.84,88.48L298.21,90.99L300.9,90.41L303.58,304L306.27,91.2L311.64,91.17L314.33,92.12L317.01,92.04L319.7,89.55L322.39,90.73L325.07,93.73L330.45,94.96L333.13,94.31L338.51,93.51L341.19,94.08L343.88,92.93L346.57,93.35L349.25,96.55L351.94,95L354.63,96.69L357.31,97.41L362.69,99.47L365.37,103.64L368.06,99.84L370.75,100.8L373.43,102.11L376.12,101.08L402.99,102.75L405.67,102.75L413.73,102.29L416.42,101.29L424.48,101.02L427.16,99.83L429.85,100.91L432.54,100.56L435.22,98.85L437.91,98.59L440.6,94.6L443.28,93.96L448.66,92.83L451.34,92.81L454.03,94.33L456.72,93.45L459.4,89.16L462.09,88.22L464.78,88.92L467.46,88.69L470.15,90.55L472.84,88.38L475.52,89.81L478.21,88.9L480.9,93.94L483.58,92.03L486.27,103.77L488.96,143.11L491.64,151.65L494.33,176.65L497.01,209.77L499.7,224.68L505.07,226.51L507.76,245.02L510.45,245.94L513.13,247.83L518.51,248.42L521.19,248.88L523.88,249.52L526.57,248.67L529.25,246.06L531.94,246.77L534.63,246.29L537.31,246.75L540,245.45" style="fill: rgb(99, 110, 250); fill-opacity: 0.5; stroke-width: 0;"/></g></g><g class="errorbars"/><g class="lines"><path class="js-line" d="M0,262.48L2.69,150.39L5.37,116.3L8.06,54.88L10.75,35.15L13.43,34.32L16.12,23.49L18.81,27.54L21.49,22.92L24.18,27.14L26.87,16L29.55,18.46L32.24,18.65L34.93,19L37.61,27.04L42.99,32.07L45.67,33.38L51.04,31.49L53.73,27.97L56.42,26.21L59.1,26.14L61.79,27.81L64.48,33.58L67.16,32.57L69.85,33.87L72.54,30.36L75.22,28.93L80.6,27.84L83.28,32.22L88.66,32.65L91.34,36.55L94.03,42.37L96.72,40.09L99.4,39.62L102.09,36.56L104.78,35.64L107.46,37.53L110.15,36.18L112.84,36.07L118.21,41.45L120.9,47.74L123.58,44.96L126.27,50.13L128.96,49.66L131.64,50.02L134.33,43.03L137.01,44.37L139.7,44.69L142.39,41.85L145.07,43.28L147.76,46.07L150.45,42.51L153.13,42.14L155.82,44.59L158.51,45.47L166.57,44.57L169.25,42.74L171.94,42.58L174.63,43.55L177.31,44.67L180,47.43L182.69,47.12L185.37,45.33L188.06,41.56L190.75,41.63L193.43,39.85L196.12,45.94L198.81,51.73L201.49,46.24L204.18,49.76L206.87,46.67L209.55,47.62L212.24,47.65L214.93,51.79L217.61,51.6L220.3,49.91L222.99,50.39L225.67,46.52L228.36,40.95L231.04,43.65L233.73,30.56L241.79,30.87L244.48,36.35L247.16,47.86L249.85,48.64L252.54,46.43L255.22,47.94L257.91,51.18L260.6,52.84L263.28,43.04L265.97,56.43L268.66,54.03L271.34,54.77L274.03,55.51L276.72,76.9L279.4,75.13L282.09,76.66L284.78,78.46L287.46,78.56L290.15,78.8L292.84,88.48L298.21,90.99L300.9,90.41L303.58,304L306.27,91.2L311.64,91.17L314.33,92.12L317.01,92.04L319.7,89.55L322.39,90.73L325.07,93.73L330.45,94.96L333.13,94.31L338.51,93.51L341.19,94.08L343.88,92.93L346.57,93.35L349.25,96.55L351.94,95L354.63,96.69L357.31,97.41L362.69,99.47L365.37,103.64L368.06,99.84L370.75,100.8L373.43,102.11L376.12,101.08L402.99,102.75L405.67,102.75L413.73,102.29L416.42,101.29L424.48,101.02L427.16,99.83L429.85,100.91L432.54,100.56L435.22,98.85L437.91,98.59L440.6,94.6L443.28,93.96L448.66,92.83L451.34,92.81L454.03,94.33L456.72,93.45L459.4,89.16L462.09,88.22L464.78,88.92L467.46,88.69L470.15,90.55L472.84,88.38L475.52,89.81L478.21,88.9L480.9,93.94L483.58,92.03L486.27,103.77L488.96,143.11L491.64,151.65L494.33,176.65L497.01,209.77L499.7,224.68L505.07,226.51L507.76,245.02L510.45,245.94L513.13,247.83L518.51,248.42L521.19,248.88L523.88,249.52L526.57,248.67L529.25,246.06L531.94,246.77L534.63,246.29L537.31,246.75L540,245.45" style="vector-effect: non-scaling-stroke; fill: none; stroke: rgb(99, 110, 250); stroke-opacity: 1; stroke-width: 2px; opacity: 1;"/></g><g class="points"/><g class="text"/></g></g></g><g class="overplot"/><path class="xlines-above crisp" d="M0,0" style="fill: none;"/><path class="ylines-above crisp" d="M0,0" style="fill: none;"/><g class="overlines-above"/><g class="xaxislayer-above"><g class="xtick"><text text-anchor="middle" x="0" y="433" transform="translate(157.91,0)" style="font-family: 'Open Sans', verdana, arial, sans-serif; font-size: 12px; fill: rgb(42, 63, 95); fill-opacity: 1; white-space: pre; opacity: 1;">Sep 2022</text></g><g class="xtick"><text text-anchor="middle" x="0" y="433" style="font-family: 'Open Sans', verdana, arial, sans-serif; font-size: 12px; fill: rgb(42, 63, 95); fill-opacity: 1; white-space: pre; opacity: 1;" transform="translate(238.51,0)">Oct 2022</text></g><g class="xtick"><text text-anchor="middle" x="0" y="433" style="font-family: 'Open Sans', verdana, arial, sans-serif; font-size: 12px; fill: rgb(42, 63, 95); fill-opacity: 1; white-space: pre; opacity: 1;" transform="translate(321.78999999999996,0)">Nov 2022</text></g><g class="xtick"><text text-anchor="middle" x="0" y="433" style="font-family: 'Open Sans', verdana, arial, sans-serif; font-size: 12px; fill: rgb(42, 63, 95); fill-opacity: 1; white-space: pre; opacity: 1;" transform="translate(402.39,0)">Dec 2022</text></g><g class="xtick"><text text-anchor="middle" x="0" y="433" style="font-family: 'Open Sans', verdana, arial, sans-serif; font-size: 12px; fill: rgb(42, 63, 95); fill-opacity: 1; white-space: pre; opacity: 1;" transform="translate(485.67,0)">Jan 2023</text></g><g class="xtick"><text text-anchor="middle" x="0" y="433" style="font-family: 'Open Sans', verdana, arial, sans-serif; font-size: 12px; fill: rgb(42, 63, 95); fill-opacity: 1; white-space: pre; opacity: 1;" transform="translate(568.96,0)">Feb 2023</text></g></g><g class="yaxislayer-above"><g class="ytick"><text text-anchor="end" x="79" y="4.199999999999999" transform="translate(0,367.55)" style="font-family: 'Open Sans', verdana, arial, sans-serif; font-size: 12px; fill: rgb(42, 63, 95); fill-opacity: 1; white-space: pre; opacity: 1;">$0</text></g><g class="ytick"><text text-anchor="end" x="79" y="4.199999999999999" style="font-family: 'Open Sans', verdana, arial, sans-serif; font-size: 12px; fill: rgb(42, 63, 95); fill-opacity: 1; white-space: pre; opacity: 1;" transform="translate(0,304.46000000000004)">$1M</text></g><g class="ytick"><text text-anchor="end" x="79" y="4.199999999999999" style="font-family: 'Open Sans', verdana, arial, sans-serif; font-size: 12px; fill: rgb(42, 63, 95); fill-opacity: 1; white-space: pre; opacity: 1;" transform="translate(0,241.36)">$2M</text></g><g class="ytick"><text text-anchor="end" x="79" y="4.199999999999999" style="font-family: 'Open Sans', verdana, arial, sans-serif; font-size: 12px; fill: rgb(42, 63, 95); fill-opacity: 1; white-space: pre; opacity: 1;" transform="translate(0,178.26999999999998)">$3M</text></g><g class="ytick"><text text-anchor="end" x="79" y="4.199999999999999" style="font-family: 'Open Sans', verdana, arial, sans-serif; font-size: 12px; fill: rgb(42, 63, 95); fill-opacity: 1; white-space: pre; opacity: 1;" transform="translate(0,115.17)">$4M</text></g></g><g class="overaxes-above"/></g></g><g class="polarlayer"/><g class="smithlayer"/><g class="ternarylayer"/><g class="geolayer"/><g class="funnelarealayer"/><g class="pielayer"/><g class="iciclelayer"/><g class="treemaplayer"/><g class="sunburstlayer"/><g class="glimages"/><defs id="topdefs-1ab050"><g class="clips"/></defs><g class="layer-above"><g class="imagelayer"/><g class="shapelayer"/></g><g class="infolayer"><g class="g-gtitle"><text class="gtitle" x="35" y="50" text-anchor="start" dy="0em" style="font-family: 'Open Sans', verdana, arial, sans-serif; font-size: 17px; fill: rgb(42, 63, 95); opacity: 1; font-weight: normal; white-space: pre;"><tspan class="line" dy="0em" x="35" y="50">Wepiggy</tspan><tspan class="line" dy="1.3em" x="35" y="50">​<tspan style="font-size:70%" dy="-0.6em">Cumulative Net Flows since Program Announcement, Until Program End + 30 Days</tspan><tspan dy="0.42em">​</tspan></tspan></text></g><g class="g-xtitle"><text class="xtitle" x="350" y="460.8" text-anchor="middle" style="font-family: 'Open Sans', verdana, arial, sans-serif; font-size: 14px; fill: rgb(42, 63, 95); opacity: 1; font-weight: normal; white-space: pre;">Day</text></g><g class="g-ytitle"><text class="ytitle" transform="rotate(-90,30.856250000000003,260)" x="30.856250000000003" y="260" text-anchor="middle" style="font-family: 'Open Sans', verdana, arial, sans-serif; font-size: 14px; fill: rgb(42, 63, 95); opacity: 1; font-weight: normal; white-space: pre;">Cumulative Net Flows (USD)</text></g></g></svg>