<svg class="main-svg" xmlns="http://www.w3.org/2000/svg" xmlns:xlink="http://www.w3.org/1999/xlink" width="700" height="500" style="" viewBox="0 0 700 500"><rect x="0" y="0" width="700" height="500" style="fill: rgb(255, 255, 255); fill-opacity: 1;"/><defs id="defs-b0c902"><g class="clips"><clipPath id="clipb0c902xyplot" class="plotclip"><rect width="540" height="320"/></clipPath><clipPath class="axesclip" id="clipb0c902x"><rect x="80" y="0" width="540" height="500"/></clipPath><clipPath class="axesclip" id="clipb0c902y"><rect x="0" y="100" width="700" height="320"/></clipPath><clipPath class="axesclip" id="clipb0c902xy"><rect x="80" y="100" width="540" height="320"/></clipPath></g><g class="gradients"/><g class="patterns"/></defs><g class="bglayer"><rect class="bg" x="80" y="100" width="540" height="320" style="fill: rgb(229, 236, 246); fill-opacity: 1; stroke-width: 0;"/></g><g class="layer-below"><g class="imagelayer"/><g class="shapelayer"/></g><g class="cartesianlayer"><g class="subplot xy"><g class="layer-subplot"><g class="shapelayer"/><g class="imagelayer"/></g><g class="minor-gridlayer"><g class="x"/><g class="y"/></g><g class="gridlayer"><g class="x"><path class="xgrid crisp" transform="translate(139.27,0)" d="M0,100v320" style="stroke: rgb(255, 255, 255); stroke-opacity: 1; stroke-width: 1px;"/><path class="xgrid crisp" transform="translate(241.34,0)" d="M0,100v320" style="stroke: rgb(255, 255, 255); stroke-opacity: 1; stroke-width: 1px;"/><path class="xgrid crisp" transform="translate(340.12,0)" d="M0,100v320" style="stroke: rgb(255, 255, 255); stroke-opacity: 1; stroke-width: 1px;"/><path class="xgrid crisp" transform="translate(442.2,0)" d="M0,100v320" style="stroke: rgb(255, 255, 255); stroke-opacity: 1; stroke-width: 1px;"/><path class="xgrid crisp" transform="translate(544.27,0)" d="M0,100v320" style="stroke: rgb(255, 255, 255); stroke-opacity: 1; stroke-width: 1px;"/></g><g class="y"><path class="ygrid crisp" transform="translate(0,350.19)" d="M80,0h540" style="stroke: rgb(255, 255, 255); stroke-opacity: 1; stroke-width: 1px;"/><path class="ygrid crisp" transform="translate(0,280.39)" d="M80,0h540" style="stroke: rgb(255, 255, 255); stroke-opacity: 1; stroke-width: 1px;"/><path class="ygrid crisp" transform="translate(0,210.57999999999998)" d="M80,0h540" style="stroke: rgb(255, 255, 255); stroke-opacity: 1; stroke-width: 1px;"/><path class="ygrid crisp" transform="translate(0,140.77)" d="M80,0h540" style="stroke: rgb(255, 255, 255); stroke-opacity: 1; stroke-width: 1px;"/></g></g><g class="zerolinelayer"><path class="yzl zl crisp" transform="translate(0,420)" d="M80,0h540" style="stroke: rgb(255, 255, 255); stroke-opacity: 1; stroke-width: 2px;"/></g><path class="xlines-below"/><path class="ylines-below"/><g class="overlines-below"/><g class="xaxislayer-below"/><g class="yaxislayer-below"/><g class="overaxes-below"/><g class="plot" transform="translate(80,100)" clip-path="url(#clipb0c902xyplot)"><g class="scatterlayer mlayer"><g class="trace scatter trace547ec6" style="stroke-miterlimit: 2;"><g class="fills"><g><path class="js-fill" d="M540,320L0,320L0,218.03L3.29,217.54L6.59,194.25L9.88,138.13L13.17,114.28L16.46,106.95L19.76,102.32L23.05,102.99L26.34,101.71L29.63,93.57L32.93,93.35L42.8,91.24L46.1,95L59.27,94.21L62.56,92.9L69.15,92.81L72.44,91.34L75.73,89.17L79.02,67.71L82.32,37.67L85.61,16.7L92.2,16L95.49,16.48L98.78,59.53L102.07,58.88L108.66,58.3L111.95,57.65L118.54,54.39L121.83,54.31L125.12,54.9L128.41,57.99L131.71,55.44L135,57.24L138.29,56.58L141.59,57.63L144.88,91.16L148.17,94.05L154.76,93.71L158.05,92.13L161.34,90.98L164.63,97.05L167.93,96.86L171.22,103.27L174.51,96.26L177.8,107.42L181.1,105.93L184.39,108.41L187.68,133.49L190.98,119.08L194.27,118.87L197.56,117.9L200.85,116.78L204.15,116.64L210.73,115.74L214.02,103.66L220.61,103.27L223.9,101.47L230.49,98.79L233.78,98.31L237.07,98.08L240.37,118.78L243.66,117.48L246.95,117.44L256.83,116.44L260.12,117.21L263.41,117.25L266.71,115.86L270,115.65L273.29,117.86L276.59,128.44L279.88,115.93L283.17,118.72L286.46,118.56L309.51,117.27L312.8,117.8L319.39,115.79L322.68,115.74L332.56,115.24L335.85,126.43L365.49,124.4L368.78,125.2L372.07,127.27L375.37,127.15L378.66,127.29L381.95,130.65L388.54,131.82L391.83,131.13L395.12,131.03L398.41,131.81L401.71,132.4L405,134.7L408.29,142.23L411.59,142L418.17,141.25L421.46,130.3L431.34,129.98L434.63,126.46L444.51,120.65L447.8,120.16L451.1,119.57L454.39,119.97L460.98,118.59L464.27,121.06L467.56,121.23L470.85,131.99L474.15,131.91L477.44,129.33L480.73,128.19L484.02,124.33L487.32,106.31L490.61,114.05L497.2,113.42L500.49,104.07L503.78,102.96L507.07,97.25L510.37,111.41L513.66,107.96L516.95,91.27L520.24,90.31L523.54,54.07L526.83,53.9L533.41,55.69L536.71,95.32L540,95.1" style="fill: rgb(99, 110, 250); fill-opacity: 0.5; stroke-width: 0;"/></g></g><g class="errorbars"/><g class="lines"><path class="js-line" d="M0,218.03L3.29,217.54L6.59,194.25L9.88,138.13L13.17,114.28L16.46,106.95L19.76,102.32L23.05,102.99L26.34,101.71L29.63,93.57L32.93,93.35L42.8,91.24L46.1,95L59.27,94.21L62.56,92.9L69.15,92.81L72.44,91.34L75.73,89.17L79.02,67.71L82.32,37.67L85.61,16.7L92.2,16L95.49,16.48L98.78,59.53L102.07,58.88L108.66,58.3L111.95,57.65L118.54,54.39L121.83,54.31L125.12,54.9L128.41,57.99L131.71,55.44L135,57.24L138.29,56.58L141.59,57.63L144.88,91.16L148.17,94.05L154.76,93.71L158.05,92.13L161.34,90.98L164.63,97.05L167.93,96.86L171.22,103.27L174.51,96.26L177.8,107.42L181.1,105.93L184.39,108.41L187.68,133.49L190.98,119.08L194.27,118.87L197.56,117.9L200.85,116.78L204.15,116.64L210.73,115.74L214.02,103.66L220.61,103.27L223.9,101.47L230.49,98.79L233.78,98.31L237.07,98.08L240.37,118.78L243.66,117.48L246.95,117.44L256.83,116.44L260.12,117.21L263.41,117.25L266.71,115.86L270,115.65L273.29,117.86L276.59,128.44L279.88,115.93L283.17,118.72L286.46,118.56L309.51,117.27L312.8,117.8L319.39,115.79L322.68,115.74L332.56,115.24L335.85,126.43L365.49,124.4L368.78,125.2L372.07,127.27L375.37,127.15L378.66,127.29L381.95,130.65L388.54,131.82L391.83,131.13L395.12,131.03L398.41,131.81L401.71,132.4L405,134.7L408.29,142.23L411.59,142L418.17,141.25L421.46,130.3L431.34,129.98L434.63,126.46L444.51,120.65L447.8,120.16L451.1,119.57L454.39,119.97L460.98,118.59L464.27,121.06L467.56,121.23L470.85,131.99L474.15,131.91L477.44,129.33L480.73,128.19L484.02,124.33L487.32,106.31L490.61,114.05L497.2,113.42L500.49,104.07L503.78,102.96L507.07,97.25L510.37,111.41L513.66,107.96L516.95,91.27L520.24,90.31L523.54,54.07L526.83,53.9L533.41,55.69L536.71,95.32L540,95.1" style="vector-effect: non-scaling-stroke; fill: none; stroke: rgb(99, 110, 250); stroke-opacity: 1; stroke-width: 2px; opacity: 1;"/></g><g class="points"/><g class="text"/></g></g></g><g class="overplot"/><path class="xlines-above crisp" d="M0,0" style="fill: none;"/><path class="ylines-above crisp" d="M0,0" style="fill: none;"/><g class="overlines-above"/><g class="xaxislayer-above"><g class="xtick"><text text-anchor="middle" x="0" y="433" transform="translate(139.27,0)" style="font-family: 'Open Sans', verdana, arial, sans-serif; font-size: 12px; fill: rgb(42, 63, 95); fill-opacity: 1; white-space: pre; opacity: 1;">Oct 2022</text></g><g class="xtick"><text text-anchor="middle" x="0" y="433" style="font-family: 'Open Sans', verdana, arial, sans-serif; font-size: 12px; fill: rgb(42, 63, 95); fill-opacity: 1; white-space: pre; opacity: 1;" transform="translate(241.34,0)">Nov 2022</text></g><g class="xtick"><text text-anchor="middle" x="0" y="433" style="font-family: 'Open Sans', verdana, arial, sans-serif; font-size: 12px; fill: rgb(42, 63, 95); fill-opacity: 1; white-space: pre; opacity: 1;" transform="translate(340.12,0)">Dec 2022</text></g><g class="xtick"><text text-anchor="middle" x="0" y="433" style="font-family: 'Open Sans', verdana, arial, sans-serif; font-size: 12px; fill: rgb(42, 63, 95); fill-opacity: 1; white-space: pre; opacity: 1;" transform="translate(442.2,0)">Jan 2023</text></g><g class="xtick"><text text-anchor="middle" x="0" y="433" style="font-family: 'Open Sans', verdana, arial, sans-serif; font-size: 12px; fill: rgb(42, 63, 95); fill-opacity: 1; white-space: pre; opacity: 1;" transform="translate(544.27,0)">Feb 2023</text></g></g><g class="yaxislayer-above"><g class="ytick"><text text-anchor="end" x="79" y="4.199999999999999" transform="translate(0,420)" style="font-family: 'Open Sans', verdana, arial, sans-serif; font-size: 12px; fill: rgb(42, 63, 95); fill-opacity: 1; white-space: pre; opacity: 1;">$0</text></g><g class="ytick"><text text-anchor="end" x="79" y="4.199999999999999" style="font-family: 'Open Sans', verdana, arial, sans-serif; font-size: 12px; fill: rgb(42, 63, 95); fill-opacity: 1; white-space: pre; opacity: 1;" transform="translate(0,350.19)">$100k</text></g><g class="ytick"><text text-anchor="end" x="79" y="4.199999999999999" style="font-family: 'Open Sans', verdana, arial, sans-serif; font-size: 12px; fill: rgb(42, 63, 95); fill-opacity: 1; white-space: pre; opacity: 1;" transform="translate(0,280.39)">$200k</text></g><g class="ytick"><text text-anchor="end" x="79" y="4.199999999999999" style="font-family: 'Open Sans', verdana, arial, sans-serif; font-size: 12px; fill: rgb(42, 63, 95); fill-opacity: 1; white-space: pre; opacity: 1;" transform="translate(0,210.57999999999998)">$300k</text></g><g class="ytick"><text text-anchor="end" x="79" y="4.199999999999999" style="font-family: 'Open Sans', verdana, arial, sans-serif; font-size: 12px; fill: rgb(42, 63, 95); fill-opacity: 1; white-space: pre; opacity: 1;" transform="translate(0,140.77)">$400k</text></g></g><g class="overaxes-above"/></g></g><g class="polarlayer"/><g class="smithlayer"/><g class="ternarylayer"/><g class="geolayer"/><g class="funnelarealayer"/><g class="pielayer"/><g class="iciclelayer"/><g class="treemaplayer"/><g class="sunburstlayer"/><g class="glimages"/><defs id="topdefs-b0c902"><g class="clips"/></defs><g class="layer-above"><g class="imagelayer"/><g class="shapelayer"/></g><g class="infolayer"><g class="g-gtitle"><text class="gtitle" x="35" y="50" text-anchor="start" dy="0em" style="font-family: 'Open Sans', verdana, arial, sans-serif; font-size: 17px; fill: rgb(42, 63, 95); opacity: 1; font-weight: normal; white-space: pre;"><tspan class="line" dy="0em" x="35" y="50">Beefy - BIFI/OP: Velodrome</tspan><tspan class="line" dy="1.3em" x="35" y="50">​<tspan style="font-size:70%" dy="-0.6em">Cumulative Net Flows since Program Announcement, Until Program End + 30 Days</tspan><tspan dy="0.42em">​</tspan></tspan></text></g><g class="g-xtitle"><text class="xtitle" x="350" y="460.8" text-anchor="middle" style="font-family: 'Open Sans', verdana, arial, sans-serif; font-size: 14px; fill: rgb(42, 63, 95); opacity: 1; font-weight: normal; white-space: pre;">Day</text></g><g class="g-ytitle"><text class="ytitle" transform="rotate(-90,21.496875000000003,260)" x="21.496875000000003" y="260" text-anchor="middle" style="font-family: 'Open Sans', verdana, arial, sans-serif; font-size: 14px; fill: rgb(42, 63, 95); opacity: 1; font-weight: normal; white-space: pre;">Cumulative Net Flows (USD)</text></g></g></svg>