<svg class="main-svg" xmlns="http://www.w3.org/2000/svg" xmlns:xlink="http://www.w3.org/1999/xlink" width="700" height="500" style="" viewBox="0 0 700 500"><rect x="0" y="0" width="700" height="500" style="fill: rgb(255, 255, 255); fill-opacity: 1;"/><defs id="defs-787904"><g class="clips"><clipPath id="clip787904xyplot" class="plotclip"><rect width="540" height="320"/></clipPath><clipPath class="axesclip" id="clip787904x"><rect x="80" y="0" width="540" height="500"/></clipPath><clipPath class="axesclip" id="clip787904y"><rect x="0" y="100" width="700" height="320"/></clipPath><clipPath class="axesclip" id="clip787904xy"><rect x="80" y="100" width="540" height="320"/></clipPath></g><g class="gradients"/><g class="patterns"/></defs><g class="bglayer"><rect class="bg" x="80" y="100" width="540" height="320" style="fill: rgb(229, 236, 246); fill-opacity: 1; stroke-width: 0;"/></g><g class="layer-below"><g class="imagelayer"/><g class="shapelayer"/></g><g class="cartesianlayer"><g class="subplot xy"><g class="layer-subplot"><g class="shapelayer"/><g class="imagelayer"/></g><g class="minor-gridlayer"><g class="x"/><g class="y"/></g><g class="gridlayer"><g class="x"><path class="xgrid crisp" transform="translate(161,0)" d="M0,100v320" style="stroke: rgb(255, 255, 255); stroke-opacity: 1; stroke-width: 1px;"/><path class="xgrid crisp" transform="translate(242,0)" d="M0,100v320" style="stroke: rgb(255, 255, 255); stroke-opacity: 1; stroke-width: 1px;"/><path class="xgrid crisp" transform="translate(325.7,0)" d="M0,100v320" style="stroke: rgb(255, 255, 255); stroke-opacity: 1; stroke-width: 1px;"/><path class="xgrid crisp" transform="translate(406.7,0)" d="M0,100v320" style="stroke: rgb(255, 255, 255); stroke-opacity: 1; stroke-width: 1px;"/><path class="xgrid crisp" transform="translate(490.4,0)" d="M0,100v320" style="stroke: rgb(255, 255, 255); stroke-opacity: 1; stroke-width: 1px;"/><path class="xgrid crisp" transform="translate(574.1,0)" d="M0,100v320" style="stroke: rgb(255, 255, 255); stroke-opacity: 1; stroke-width: 1px;"/></g><g class="y"><path class="ygrid crisp" transform="translate(0,381.76)" d="M80,0h540" style="stroke: rgb(255, 255, 255); stroke-opacity: 1; stroke-width: 1px;"/><path class="ygrid crisp" transform="translate(0,343.52)" d="M80,0h540" style="stroke: rgb(255, 255, 255); stroke-opacity: 1; stroke-width: 1px;"/><path class="ygrid crisp" transform="translate(0,305.28)" d="M80,0h540" style="stroke: rgb(255, 255, 255); stroke-opacity: 1; stroke-width: 1px;"/><path class="ygrid crisp" transform="translate(0,267.03999999999996)" d="M80,0h540" style="stroke: rgb(255, 255, 255); stroke-opacity: 1; stroke-width: 1px;"/><path class="ygrid crisp" transform="translate(0,228.8)" d="M80,0h540" style="stroke: rgb(255, 255, 255); stroke-opacity: 1; stroke-width: 1px;"/><path class="ygrid crisp" transform="translate(0,190.56)" d="M80,0h540" style="stroke: rgb(255, 255, 255); stroke-opacity: 1; stroke-width: 1px;"/><path class="ygrid crisp" transform="translate(0,152.32)" d="M80,0h540" style="stroke: rgb(255, 255, 255); stroke-opacity: 1; stroke-width: 1px;"/><path class="ygrid crisp" transform="translate(0,114.07)" d="M80,0h540" style="stroke: rgb(255, 255, 255); stroke-opacity: 1; stroke-width: 1px;"/></g></g><g class="zerolinelayer"><path class="yzl zl crisp" transform="translate(0,420)" d="M80,0h540" style="stroke: rgb(255, 255, 255); stroke-opacity: 1; stroke-width: 2px;"/></g><path class="xlines-below"/><path class="ylines-below"/><g class="overlines-below"/><g class="xaxislayer-below"/><g class="yaxislayer-below"/><g class="overaxes-below"/><g class="plot" transform="translate(80,100)" clip-path="url(#clip787904xyplot)"><g class="scatterlayer mlayer"><g class="trace scatter trace59fb62" style="stroke-miterlimit: 2;"><g class="fills"><g><path class="js-fill" d="M540,320L0,320L0,319.62L2.7,284.84L5.4,201.4L8.1,165.99L10.8,157.73L13.5,144.39L16.2,122.2L18.9,110.64L21.6,56.08L24.3,52.8L27,50.93L29.7,33.93L32.4,27.93L35.1,26.27L37.8,18.05L40.5,40.9L43.2,16L45.9,16.62L48.6,18.94L51.3,30.56L54,33.56L56.7,36.45L59.4,38.13L62.1,46.17L64.8,47.5L67.5,39.61L70.2,39.26L72.9,40.97L75.6,45.04L78.3,46.08L81,43.48L83.7,43.68L86.4,57.37L91.8,57.29L94.5,59.23L97.2,61.7L99.9,67.39L102.6,68.32L105.3,79.9L108,88.63L110.7,93.97L113.4,101.59L116.1,112.62L118.8,117.29L121.5,108.47L124.2,62.64L126.9,61.05L129.6,49.06L132.3,52.3L135,50.28L137.7,50.39L140.4,59.63L143.1,37.87L145.8,34.65L148.5,26.05L151.2,24.88L153.9,27.03L156.6,31.54L159.3,30.39L164.7,24.2L167.4,24.32L170.1,23.71L172.8,29.39L178.2,35.1L180.9,30.43L183.6,28.33L186.3,37.42L189,42.84L191.7,41.23L194.4,40L197.1,42.81L199.8,41.38L202.5,36.81L205.2,68.44L207.9,76.38L210.6,78.32L213.3,79.32L216,80.3L218.7,115.97L221.4,113.39L224.1,119.83L226.8,125.73L229.5,152.3L232.2,177.73L234.9,170.78L237.6,145.39L240.3,146.43L243,151.65L245.7,150.68L251.1,154.64L253.8,147.7L256.5,151.5L259.2,146.57L261.9,146.54L264.6,141.74L267.3,145.16L270,155.86L272.7,156.14L275.4,145.76L278.1,150.82L280.8,150.04L283.5,178.06L286.2,179.23L288.9,179.64L291.6,178.99L294.3,168.35L297,164.54L302.4,157.03L305.1,155.11L307.8,167.46L310.5,173.53L313.2,174.11L315.9,176.56L318.6,177.22L321.3,170.6L326.7,187.51L329.4,186.84L332.1,177.24L334.8,175.28L337.5,178.77L340.2,175.29L342.9,174.5L345.6,172.05L348.3,174.91L351,184.4L353.7,183.66L356.4,184.72L359.1,186.52L361.8,190.77L367.2,182.22L369.9,182.81L372.6,179.93L375.3,179.55L378,177.09L380.7,190.29L383.4,193.52L386.1,194.54L388.8,195.89L391.5,196.05L396.9,192.98L399.6,195.58L402.3,194.92L405,195.05L407.7,204.23L410.4,204.48L413.1,201.75L415.8,203.06L418.5,203.55L421.2,207.84L423.9,209.11L426.6,206.32L434.7,211.34L437.4,214.68L440.1,215.93L442.8,190.65L445.5,191.79L448.2,194.35L450.9,191.67L453.6,190.59L461.7,180.8L464.4,188.68L467.1,185.28L469.8,184.34L472.5,175.92L475.2,173.31L477.9,176.45L480.6,164.08L483.3,171.24L486,165.9L488.7,169.98L491.4,165.18L494.1,168.16L496.8,165.35L499.5,164.47L502.2,166.11L504.9,174.93L507.6,177.08L513,175.75L515.7,172.11L518.4,170.38L521.1,175.12L523.8,171.89L526.5,173.36L529.2,178.33L531.9,178.81L534.6,181.48L537.3,187.78L540,187.31" style="fill: rgb(99, 110, 250); fill-opacity: 0.5; stroke-width: 0;"/></g></g><g class="errorbars"/><g class="lines"><path class="js-line" d="M0,319.62L2.7,284.84L5.4,201.4L8.1,165.99L10.8,157.73L13.5,144.39L16.2,122.2L18.9,110.64L21.6,56.08L24.3,52.8L27,50.93L29.7,33.93L32.4,27.93L35.1,26.27L37.8,18.05L40.5,40.9L43.2,16L45.9,16.62L48.6,18.94L51.3,30.56L54,33.56L56.7,36.45L59.4,38.13L62.1,46.17L64.8,47.5L67.5,39.61L70.2,39.26L72.9,40.97L75.6,45.04L78.3,46.08L81,43.48L83.7,43.68L86.4,57.37L91.8,57.29L94.5,59.23L97.2,61.7L99.9,67.39L102.6,68.32L105.3,79.9L108,88.63L110.7,93.97L113.4,101.59L116.1,112.62L118.8,117.29L121.5,108.47L124.2,62.64L126.9,61.05L129.6,49.06L132.3,52.3L135,50.28L137.7,50.39L140.4,59.63L143.1,37.87L145.8,34.65L148.5,26.05L151.2,24.88L153.9,27.03L156.6,31.54L159.3,30.39L164.7,24.2L167.4,24.32L170.1,23.71L172.8,29.39L178.2,35.1L180.9,30.43L183.6,28.33L186.3,37.42L189,42.84L191.7,41.23L194.4,40L197.1,42.81L199.8,41.38L202.5,36.81L205.2,68.44L207.9,76.38L210.6,78.32L213.3,79.32L216,80.3L218.7,115.97L221.4,113.39L224.1,119.83L226.8,125.73L229.5,152.3L232.2,177.73L234.9,170.78L237.6,145.39L240.3,146.43L243,151.65L245.7,150.68L251.1,154.64L253.8,147.7L256.5,151.5L259.2,146.57L261.9,146.54L264.6,141.74L267.3,145.16L270,155.86L272.7,156.14L275.4,145.76L278.1,150.82L280.8,150.04L283.5,178.06L286.2,179.23L288.9,179.64L291.6,178.99L294.3,168.35L297,164.54L302.4,157.03L305.1,155.11L307.8,167.46L310.5,173.53L313.2,174.11L315.9,176.56L318.6,177.22L321.3,170.6L326.7,187.51L329.4,186.84L332.1,177.24L334.8,175.28L337.5,178.77L340.2,175.29L342.9,174.5L345.6,172.05L348.3,174.91L351,184.4L353.7,183.66L356.4,184.72L359.1,186.52L361.8,190.77L367.2,182.22L369.9,182.81L372.6,179.93L375.3,179.55L378,177.09L380.7,190.29L383.4,193.52L386.1,194.54L388.8,195.89L391.5,196.05L396.9,192.98L399.6,195.58L402.3,194.92L405,195.05L407.7,204.23L410.4,204.48L413.1,201.75L415.8,203.06L418.5,203.55L421.2,207.84L423.9,209.11L426.6,206.32L434.7,211.34L437.4,214.68L440.1,215.93L442.8,190.65L445.5,191.79L448.2,194.35L450.9,191.67L453.6,190.59L461.7,180.8L464.4,188.68L467.1,185.28L469.8,184.34L472.5,175.92L475.2,173.31L477.9,176.45L480.6,164.08L483.3,171.24L486,165.9L488.7,169.98L491.4,165.18L494.1,168.16L496.8,165.35L499.5,164.47L502.2,166.11L504.9,174.93L507.6,177.08L513,175.75L515.7,172.11L518.4,170.38L521.1,175.12L523.8,171.89L526.5,173.36L529.2,178.33L531.9,178.81L534.6,181.48L537.3,187.78L540,187.31" style="vector-effect: non-scaling-stroke; fill: none; stroke: rgb(99, 110, 250); stroke-opacity: 1; stroke-width: 2px; opacity: 1;"/></g><g class="points"/><g class="text"/></g></g></g><g class="overplot"/><path class="xlines-above crisp" d="M0,0" style="fill: none;"/><path class="ylines-above crisp" d="M0,0" style="fill: none;"/><g class="overlines-above"/><g class="xaxislayer-above"><g class="xtick"><text text-anchor="middle" x="0" y="433" transform="translate(161,0)" style="font-family: 'Open Sans', verdana, arial, sans-serif; font-size: 12px; fill: rgb(42, 63, 95); fill-opacity: 1; white-space: pre; opacity: 1;">Sep 2022</text></g><g class="xtick"><text text-anchor="middle" x="0" y="433" style="font-family: 'Open Sans', verdana, arial, sans-serif; font-size: 12px; fill: rgb(42, 63, 95); fill-opacity: 1; white-space: pre; opacity: 1;" transform="translate(242,0)">Oct 2022</text></g><g class="xtick"><text text-anchor="middle" x="0" y="433" style="font-family: 'Open Sans', verdana, arial, sans-serif; font-size: 12px; fill: rgb(42, 63, 95); fill-opacity: 1; white-space: pre; opacity: 1;" transform="translate(325.7,0)">Nov 2022</text></g><g class="xtick"><text text-anchor="middle" x="0" y="433" style="font-family: 'Open Sans', verdana, arial, sans-serif; font-size: 12px; fill: rgb(42, 63, 95); fill-opacity: 1; white-space: pre; opacity: 1;" transform="translate(406.7,0)">Dec 2022</text></g><g class="xtick"><text text-anchor="middle" x="0" y="433" style="font-family: 'Open Sans', verdana, arial, sans-serif; font-size: 12px; fill: rgb(42, 63, 95); fill-opacity: 1; white-space: pre; opacity: 1;" transform="translate(490.4,0)">Jan 2023</text></g><g class="xtick"><text text-anchor="middle" x="0" y="433" style="font-family: 'Open Sans', verdana, arial, sans-serif; font-size: 12px; fill: rgb(42, 63, 95); fill-opacity: 1; white-space: pre; opacity: 1;" transform="translate(574.1,0)">Feb 2023</text></g></g><g class="yaxislayer-above"><g class="ytick"><text text-anchor="end" x="79" y="4.199999999999999" transform="translate(0,420)" style="font-family: 'Open Sans', verdana, arial, sans-serif; font-size: 12px; fill: rgb(42, 63, 95); fill-opacity: 1; white-space: pre; opacity: 1;">$0</text></g><g class="ytick"><text text-anchor="end" x="79" y="4.199999999999999" style="font-family: 'Open Sans', verdana, arial, sans-serif; font-size: 12px; fill: rgb(42, 63, 95); fill-opacity: 1; white-space: pre; opacity: 1;" transform="translate(0,381.76)">$2M</text></g><g class="ytick"><text text-anchor="end" x="79" y="4.199999999999999" style="font-family: 'Open Sans', verdana, arial, sans-serif; font-size: 12px; fill: rgb(42, 63, 95); fill-opacity: 1; white-space: pre; opacity: 1;" transform="translate(0,343.52)">$4M</text></g><g class="ytick"><text text-anchor="end" x="79" y="4.199999999999999" style="font-family: 'Open Sans', verdana, arial, sans-serif; font-size: 12px; fill: rgb(42, 63, 95); fill-opacity: 1; white-space: pre; opacity: 1;" transform="translate(0,305.28)">$6M</text></g><g class="ytick"><text text-anchor="end" x="79" y="4.199999999999999" style="font-family: 'Open Sans', verdana, arial, sans-serif; font-size: 12px; fill: rgb(42, 63, 95); fill-opacity: 1; white-space: pre; opacity: 1;" transform="translate(0,267.03999999999996)">$8M</text></g><g class="ytick"><text text-anchor="end" x="79" y="4.199999999999999" style="font-family: 'Open Sans', verdana, arial, sans-serif; font-size: 12px; fill: rgb(42, 63, 95); fill-opacity: 1; white-space: pre; opacity: 1;" transform="translate(0,228.8)">$10M</text></g><g class="ytick"><text text-anchor="end" x="79" y="4.199999999999999" style="font-family: 'Open Sans', verdana, arial, sans-serif; font-size: 12px; fill: rgb(42, 63, 95); fill-opacity: 1; white-space: pre; opacity: 1;" transform="translate(0,190.56)">$12M</text></g><g class="ytick"><text text-anchor="end" x="79" y="4.199999999999999" style="font-family: 'Open Sans', verdana, arial, sans-serif; font-size: 12px; fill: rgb(42, 63, 95); fill-opacity: 1; white-space: pre; opacity: 1;" transform="translate(0,152.32)">$14M</text></g><g class="ytick"><text text-anchor="end" x="79" y="4.199999999999999" style="font-family: 'Open Sans', verdana, arial, sans-serif; font-size: 12px; fill: rgb(42, 63, 95); fill-opacity: 1; white-space: pre; opacity: 1;" transform="translate(0,114.07)">$16M</text></g></g><g class="overaxes-above"/></g></g><g class="polarlayer"/><g class="smithlayer"/><g class="ternarylayer"/><g class="geolayer"/><g class="funnelarealayer"/><g class="pielayer"/><g class="iciclelayer"/><g class="treemaplayer"/><g class="sunburstlayer"/><g class="glimages"/><defs id="topdefs-787904"><g class="clips"/></defs><g class="layer-above"><g class="imagelayer"/><g class="shapelayer"/></g><g class="infolayer"><g class="g-gtitle"><text class="gtitle" x="35" y="50" text-anchor="start" dy="0em" style="font-family: 'Open Sans', verdana, arial, sans-serif; font-size: 17px; fill: rgb(42, 63, 95); opacity: 1; font-weight: normal; white-space: pre;"><tspan class="line" dy="0em" x="35" y="50">Lyra</tspan><tspan class="line" dy="1.3em" x="35" y="50">​<tspan style="font-size:70%" dy="-0.6em">Cumulative Net Flows since Program Announcement, Until Program End + 30 Days</tspan><tspan dy="0.42em">​</tspan></tspan></text></g><g class="g-xtitle"><text class="xtitle" x="350" y="460.8" text-anchor="middle" style="font-family: 'Open Sans', verdana, arial, sans-serif; font-size: 14px; fill: rgb(42, 63, 95); opacity: 1; font-weight: normal; white-space: pre;">Day</text></g><g class="g-ytitle"><text class="ytitle" transform="rotate(-90,24.168750000000003,260)" x="24.168750000000003" y="260" text-anchor="middle" style="font-family: 'Open Sans', verdana, arial, sans-serif; font-size: 14px; fill: rgb(42, 63, 95); opacity: 1; font-weight: normal; white-space: pre;">Cumulative Net Flows (USD)</text></g></g></svg>