<svg class="main-svg" xmlns="http://www.w3.org/2000/svg" xmlns:xlink="http://www.w3.org/1999/xlink" width="700" height="500" style="" viewBox="0 0 700 500"><rect x="0" y="0" width="700" height="500" style="fill: rgb(255, 255, 255); fill-opacity: 1;"/><defs id="defs-9e228e"><g class="clips"><clipPath id="clip9e228exyplot" class="plotclip"><rect width="540" height="320"/></clipPath><clipPath class="axesclip" id="clip9e228ex"><rect x="80" y="0" width="540" height="500"/></clipPath><clipPath class="axesclip" id="clip9e228ey"><rect x="0" y="100" width="700" height="320"/></clipPath><clipPath class="axesclip" id="clip9e228exy"><rect x="80" y="100" width="540" height="320"/></clipPath></g><g class="gradients"/><g class="patterns"/></defs><g class="bglayer"><rect class="bg" x="80" y="100" width="540" height="320" style="fill: rgb(229, 236, 246); fill-opacity: 1; stroke-width: 0;"/></g><g class="layer-below"><g class="imagelayer"/><g class="shapelayer"/></g><g class="cartesianlayer"><g class="subplot xy"><g class="layer-subplot"><g class="shapelayer"/><g class="imagelayer"/></g><g class="minor-gridlayer"><g class="x"/><g class="y"/></g><g class="gridlayer"><g class="x"><path class="xgrid crisp" transform="translate(86.97,0)" d="M0,100v320" style="stroke: rgb(255, 255, 255); stroke-opacity: 1; stroke-width: 1px;"/><path class="xgrid crisp" transform="translate(194.97,0)" d="M0,100v320" style="stroke: rgb(255, 255, 255); stroke-opacity: 1; stroke-width: 1px;"/><path class="xgrid crisp" transform="translate(299.48,0)" d="M0,100v320" style="stroke: rgb(255, 255, 255); stroke-opacity: 1; stroke-width: 1px;"/><path class="xgrid crisp" transform="translate(407.48,0)" d="M0,100v320" style="stroke: rgb(255, 255, 255); stroke-opacity: 1; stroke-width: 1px;"/><path class="xgrid crisp" transform="translate(515.48,0)" d="M0,100v320" style="stroke: rgb(255, 255, 255); stroke-opacity: 1; stroke-width: 1px;"/><path class="xgrid crisp" transform="translate(613.03,0)" d="M0,100v320" style="stroke: rgb(255, 255, 255); stroke-opacity: 1; stroke-width: 1px;"/></g><g class="y"><path class="ygrid crisp" transform="translate(0,372.38)" d="M80,0h540" style="stroke: rgb(255, 255, 255); stroke-opacity: 1; stroke-width: 1px;"/><path class="ygrid crisp" transform="translate(0,324.77)" d="M80,0h540" style="stroke: rgb(255, 255, 255); stroke-opacity: 1; stroke-width: 1px;"/><path class="ygrid crisp" transform="translate(0,277.15)" d="M80,0h540" style="stroke: rgb(255, 255, 255); stroke-opacity: 1; stroke-width: 1px;"/><path class="ygrid crisp" transform="translate(0,229.54)" d="M80,0h540" style="stroke: rgb(255, 255, 255); stroke-opacity: 1; stroke-width: 1px;"/><path class="ygrid crisp" transform="translate(0,181.92000000000002)" d="M80,0h540" style="stroke: rgb(255, 255, 255); stroke-opacity: 1; stroke-width: 1px;"/><path class="ygrid crisp" transform="translate(0,134.31)" d="M80,0h540" style="stroke: rgb(255, 255, 255); stroke-opacity: 1; stroke-width: 1px;"/></g></g><g class="zerolinelayer"><path class="yzl zl crisp" transform="translate(0,420)" d="M80,0h540" style="stroke: rgb(255, 255, 255); stroke-opacity: 1; stroke-width: 2px;"/></g><path class="xlines-below"/><path class="ylines-below"/><g class="overlines-below"/><g class="xaxislayer-below"/><g class="yaxislayer-below"/><g class="overaxes-below"/><g class="plot" transform="translate(80,100)" clip-path="url(#clip9e228exyplot)"><g class="scatterlayer mlayer"><g class="trace scatter tracea7dbdf" style="stroke-miterlimit: 2;"><g class="fills"><g><path class="js-fill" d="M540,320L0,320L0,319.74L3.48,288.69L6.97,276.39L10.45,268.28L13.94,277.09L17.42,259.31L20.9,256.98L24.39,260.55L27.87,254.33L34.84,229.63L38.32,197.68L41.81,198.75L45.29,192.7L48.77,191.8L52.26,198.06L55.74,203.16L59.23,202.98L62.71,199.92L66.19,198.7L69.68,197.6L73.16,197.43L76.65,202.32L80.13,202.25L87.1,199.39L90.58,206.29L94.06,190.4L97.55,183.71L101.03,181.96L104.52,176.55L111.48,160.84L114.97,156.16L118.45,161.93L121.94,162.98L125.42,155.98L128.9,146.89L132.39,141.92L135.87,148.41L139.35,148.39L142.84,173.79L146.32,200.06L149.81,193.56L153.29,193.58L156.77,192.81L160.26,194.77L163.74,192.35L167.23,191.18L170.71,191.99L174.19,195.6L177.68,192.79L181.16,192.56L184.65,198.23L188.13,197.15L191.61,192.8L198.58,183.65L202.06,183.91L205.55,181.99L209.03,182.85L212.52,187.46L216,185.19L219.48,179.06L222.97,176.07L229.94,188.14L233.42,187.47L236.9,190.73L240.39,201.57L243.87,207.65L247.35,205.61L250.84,203.97L254.32,196.09L257.81,197.43L261.29,194.81L264.77,187.89L268.26,189.69L275.23,198.55L278.71,197.36L282.19,196.96L285.68,197.91L289.16,193.76L292.65,194.58L296.13,177.94L299.61,178.31L303.1,179.74L306.58,179.02L310.06,177.83L313.55,175.51L317.03,177.93L320.52,176.18L327.48,172.63L330.97,171.95L334.45,167.15L337.94,166.19L344.9,163.56L348.39,181.96L351.87,183.04L355.35,176.11L358.84,172.71L362.32,172.76L365.81,165.31L369.29,164.02L372.77,140.47L376.26,127.97L379.74,120.3L383.23,116.55L386.71,118.85L390.19,127.63L393.68,147.12L397.16,138.4L400.65,155.27L404.13,167.49L407.61,143.1L411.1,154.74L414.58,152.72L418.06,148.52L421.55,147.61L425.03,142.67L428.52,137.39L432,178.52L435.48,179.6L438.97,170.37L442.45,159.93L445.94,161.51L449.42,157.25L452.9,154.54L456.39,157.83L459.87,98.71L463.35,102.21L466.84,104.28L470.32,113.29L473.81,100.76L477.29,107.93L480.77,84.37L484.26,74.48L487.74,53.37L491.23,62.11L494.71,41.02L498.19,39.38L501.68,44.48L505.16,20.21L508.65,25.79L512.13,29.28L515.61,25.4L519.1,49.62L522.58,32.9L526.06,23.12L529.55,24.17L533.03,25.06L536.52,16L540,17.54" style="fill: rgb(99, 110, 250); fill-opacity: 0.5; stroke-width: 0;"/></g></g><g class="errorbars"/><g class="lines"><path class="js-line" d="M0,319.74L3.48,288.69L6.97,276.39L10.45,268.28L13.94,277.09L17.42,259.31L20.9,256.98L24.39,260.55L27.87,254.33L34.84,229.63L38.32,197.68L41.81,198.75L45.29,192.7L48.77,191.8L52.26,198.06L55.74,203.16L59.23,202.98L62.71,199.92L66.19,198.7L69.68,197.6L73.16,197.43L76.65,202.32L80.13,202.25L87.1,199.39L90.58,206.29L94.06,190.4L97.55,183.71L101.03,181.96L104.52,176.55L111.48,160.84L114.97,156.16L118.45,161.93L121.94,162.98L125.42,155.98L128.9,146.89L132.39,141.92L135.87,148.41L139.35,148.39L142.84,173.79L146.32,200.06L149.81,193.56L153.29,193.58L156.77,192.81L160.26,194.77L163.74,192.35L167.23,191.18L170.71,191.99L174.19,195.6L177.68,192.79L181.16,192.56L184.65,198.23L188.13,197.15L191.61,192.8L198.58,183.65L202.06,183.91L205.55,181.99L209.03,182.85L212.52,187.46L216,185.19L219.48,179.06L222.97,176.07L229.94,188.14L233.42,187.47L236.9,190.73L240.39,201.57L243.87,207.65L247.35,205.61L250.84,203.97L254.32,196.09L257.81,197.43L261.29,194.81L264.77,187.89L268.26,189.69L275.23,198.55L278.71,197.36L282.19,196.96L285.68,197.91L289.16,193.76L292.65,194.58L296.13,177.94L299.61,178.31L303.1,179.74L306.58,179.02L310.06,177.83L313.55,175.51L317.03,177.93L320.52,176.18L327.48,172.63L330.97,171.95L334.45,167.15L337.94,166.19L344.9,163.56L348.39,181.96L351.87,183.04L355.35,176.11L358.84,172.71L362.32,172.76L365.81,165.31L369.29,164.02L372.77,140.47L376.26,127.97L379.74,120.3L383.23,116.55L386.71,118.85L390.19,127.63L393.68,147.12L397.16,138.4L400.65,155.27L404.13,167.49L407.61,143.1L411.1,154.74L414.58,152.72L418.06,148.52L421.55,147.61L425.03,142.67L428.52,137.39L432,178.52L435.48,179.6L438.97,170.37L442.45,159.93L445.94,161.51L449.42,157.25L452.9,154.54L456.39,157.83L459.87,98.71L463.35,102.21L466.84,104.28L470.32,113.29L473.81,100.76L477.29,107.93L480.77,84.37L484.26,74.48L487.74,53.37L491.23,62.11L494.71,41.02L498.19,39.38L501.68,44.48L505.16,20.21L508.65,25.79L512.13,29.28L515.61,25.4L519.1,49.62L522.58,32.9L526.06,23.12L529.55,24.17L533.03,25.06L536.52,16L540,17.54" style="vector-effect: non-scaling-stroke; fill: none; stroke: rgb(99, 110, 250); stroke-opacity: 1; stroke-width: 2px; opacity: 1;"/></g><g class="points"/><g class="text"/></g></g></g><g class="overplot"/><path class="xlines-above crisp" d="M0,0" style="fill: none;"/><path class="ylines-above crisp" d="M0,0" style="fill: none;"/><g class="overlines-above"/><g class="xaxislayer-above"><g class="xtick"><text text-anchor="middle" x="0" y="433" transform="translate(86.97,0)" style="font-family: 'Open Sans', verdana, arial, sans-serif; font-size: 12px; fill: rgb(42, 63, 95); fill-opacity: 1; white-space: pre; opacity: 1;">Oct 2022</text></g><g class="xtick"><text text-anchor="middle" x="0" y="433" style="font-family: 'Open Sans', verdana, arial, sans-serif; font-size: 12px; fill: rgb(42, 63, 95); fill-opacity: 1; white-space: pre; opacity: 1;" transform="translate(194.97,0)">Nov 2022</text></g><g class="xtick"><text text-anchor="middle" x="0" y="433" style="font-family: 'Open Sans', verdana, arial, sans-serif; font-size: 12px; fill: rgb(42, 63, 95); fill-opacity: 1; white-space: pre; opacity: 1;" transform="translate(299.48,0)">Dec 2022</text></g><g class="xtick"><text text-anchor="middle" x="0" y="433" style="font-family: 'Open Sans', verdana, arial, sans-serif; font-size: 12px; fill: rgb(42, 63, 95); fill-opacity: 1; white-space: pre; opacity: 1;" transform="translate(407.48,0)">Jan 2023</text></g><g class="xtick"><text text-anchor="middle" x="0" y="433" style="font-family: 'Open Sans', verdana, arial, sans-serif; font-size: 12px; fill: rgb(42, 63, 95); fill-opacity: 1; white-space: pre; opacity: 1;" transform="translate(515.48,0)">Feb 2023</text></g><g class="xtick"><text text-anchor="middle" x="0" y="433" style="font-family: 'Open Sans', verdana, arial, sans-serif; font-size: 12px; fill: rgb(42, 63, 95); fill-opacity: 1; white-space: pre; opacity: 1;" transform="translate(613.03,0)">Mar 2023</text></g></g><g class="yaxislayer-above"><g class="ytick"><text text-anchor="end" x="79" y="4.199999999999999" transform="translate(0,420)" style="font-family: 'Open Sans', verdana, arial, sans-serif; font-size: 12px; fill: rgb(42, 63, 95); fill-opacity: 1; white-space: pre; opacity: 1;">$0</text></g><g class="ytick"><text text-anchor="end" x="79" y="4.199999999999999" style="font-family: 'Open Sans', verdana, arial, sans-serif; font-size: 12px; fill: rgb(42, 63, 95); fill-opacity: 1; white-space: pre; opacity: 1;" transform="translate(0,372.38)">$5M</text></g><g class="ytick"><text text-anchor="end" x="79" y="4.199999999999999" style="font-family: 'Open Sans', verdana, arial, sans-serif; font-size: 12px; fill: rgb(42, 63, 95); fill-opacity: 1; white-space: pre; opacity: 1;" transform="translate(0,324.77)">$10M</text></g><g class="ytick"><text text-anchor="end" x="79" y="4.199999999999999" style="font-family: 'Open Sans', verdana, arial, sans-serif; font-size: 12px; fill: rgb(42, 63, 95); fill-opacity: 1; white-space: pre; opacity: 1;" transform="translate(0,277.15)">$15M</text></g><g class="ytick"><text text-anchor="end" x="79" y="4.199999999999999" style="font-family: 'Open Sans', verdana, arial, sans-serif; font-size: 12px; fill: rgb(42, 63, 95); fill-opacity: 1; white-space: pre; opacity: 1;" transform="translate(0,229.54)">$20M</text></g><g class="ytick"><text text-anchor="end" x="79" y="4.199999999999999" style="font-family: 'Open Sans', verdana, arial, sans-serif; font-size: 12px; fill: rgb(42, 63, 95); fill-opacity: 1; white-space: pre; opacity: 1;" transform="translate(0,181.92000000000002)">$25M</text></g><g class="ytick"><text text-anchor="end" x="79" y="4.199999999999999" style="font-family: 'Open Sans', verdana, arial, sans-serif; font-size: 12px; fill: rgb(42, 63, 95); fill-opacity: 1; white-space: pre; opacity: 1;" transform="translate(0,134.31)">$30M</text></g></g><g class="overaxes-above"/></g></g><g class="polarlayer"/><g class="smithlayer"/><g class="ternarylayer"/><g class="geolayer"/><g class="funnelarealayer"/><g class="pielayer"/><g class="iciclelayer"/><g class="treemaplayer"/><g class="sunburstlayer"/><g class="glimages"/><defs id="topdefs-9e228e"><g class="clips"/></defs><g class="layer-above"><g class="imagelayer"/><g class="shapelayer"/></g><g class="infolayer"><g class="g-gtitle"><text class="gtitle" x="35" y="50" text-anchor="start" dy="0em" style="font-family: 'Open Sans', verdana, arial, sans-serif; font-size: 17px; fill: rgb(42, 63, 95); opacity: 1; font-weight: normal; white-space: pre;"><tspan class="line" dy="0em" x="35" y="50">Beethoven X</tspan><tspan class="line" dy="1.3em" x="35" y="50">​<tspan style="font-size:70%" dy="-0.6em">Cumulative Net Flows since Program Announcement, Until Program End + 30 Days</tspan><tspan dy="0.42em">​</tspan></tspan></text></g><g class="g-xtitle"><text class="xtitle" x="350" y="460.8" text-anchor="middle" style="font-family: 'Open Sans', verdana, arial, sans-serif; font-size: 14px; fill: rgb(42, 63, 95); opacity: 1; font-weight: normal; white-space: pre;">Day</text></g><g class="g-ytitle"><text class="ytitle" transform="rotate(-90,24.168750000000003,260)" x="24.168750000000003" y="260" text-anchor="middle" style="font-family: 'Open Sans', verdana, arial, sans-serif; font-size: 14px; fill: rgb(42, 63, 95); opacity: 1; font-weight: normal; white-space: pre;">Cumulative Net Flows (USD)</text></g></g></svg>