<svg class="main-svg" xmlns="http://www.w3.org/2000/svg" xmlns:xlink="http://www.w3.org/1999/xlink" width="700" height="500" style="" viewBox="0 0 700 500"><rect x="0" y="0" width="700" height="500" style="fill: rgb(255, 255, 255); fill-opacity: 1;"/><defs id="defs-2031ae"><g class="clips"><clipPath id="clip2031aexyplot" class="plotclip"><rect width="540" height="320"/></clipPath><clipPath class="axesclip" id="clip2031aex"><rect x="80" y="0" width="540" height="500"/></clipPath><clipPath class="axesclip" id="clip2031aey"><rect x="0" y="100" width="700" height="320"/></clipPath><clipPath class="axesclip" id="clip2031aexy"><rect x="80" y="100" width="540" height="320"/></clipPath></g><g class="gradients"/><g class="patterns"/></defs><g class="bglayer"><rect class="bg" x="80" y="100" width="540" height="320" style="fill: rgb(229, 236, 246); fill-opacity: 1; stroke-width: 0;"/></g><g class="layer-below"><g class="imagelayer"/><g class="shapelayer"/></g><g class="cartesianlayer"><g class="subplot xy"><g class="layer-subplot"><g class="shapelayer"/><g class="imagelayer"/></g><g class="minor-gridlayer"><g class="x"/><g class="y"/></g><g class="gridlayer"><g class="x"><path class="xgrid crisp" transform="translate(102.99,0)" d="M0,100v320" style="stroke: rgb(255, 255, 255); stroke-opacity: 1; stroke-width: 1px;"/><path class="xgrid crisp" transform="translate(210.29,0)" d="M0,100v320" style="stroke: rgb(255, 255, 255); stroke-opacity: 1; stroke-width: 1px;"/><path class="xgrid crisp" transform="translate(317.59000000000003,0)" d="M0,100v320" style="stroke: rgb(255, 255, 255); stroke-opacity: 1; stroke-width: 1px;"/><path class="xgrid crisp" transform="translate(424.89,0)" d="M0,100v320" style="stroke: rgb(255, 255, 255); stroke-opacity: 1; stroke-width: 1px;"/><path class="xgrid crisp" transform="translate(532.1800000000001,0)" d="M0,100v320" style="stroke: rgb(255, 255, 255); stroke-opacity: 1; stroke-width: 1px;"/></g><g class="y"><path class="ygrid crisp" transform="translate(0,366)" d="M80,0h540" style="stroke: rgb(255, 255, 255); stroke-opacity: 1; stroke-width: 1px;"/><path class="ygrid crisp" transform="translate(0,312)" d="M80,0h540" style="stroke: rgb(255, 255, 255); stroke-opacity: 1; stroke-width: 1px;"/><path class="ygrid crisp" transform="translate(0,258)" d="M80,0h540" style="stroke: rgb(255, 255, 255); stroke-opacity: 1; stroke-width: 1px;"/><path class="ygrid crisp" transform="translate(0,204)" d="M80,0h540" style="stroke: rgb(255, 255, 255); stroke-opacity: 1; stroke-width: 1px;"/><path class="ygrid crisp" transform="translate(0,150)" d="M80,0h540" style="stroke: rgb(255, 255, 255); stroke-opacity: 1; stroke-width: 1px;"/></g></g><g class="zerolinelayer"><path class="yzl zl crisp" transform="translate(0,420)" d="M80,0h540" style="stroke: rgb(255, 255, 255); stroke-opacity: 1; stroke-width: 2px;"/></g><path class="xlines-below"/><path class="ylines-below"/><g class="overlines-below"/><g class="xaxislayer-below"/><g class="yaxislayer-below"/><g class="overaxes-below"/><g class="plot" transform="translate(80,100)" clip-path="url(#clip2031aexyplot)"><g class="scatterlayer mlayer"><g class="trace scatter tracebf1d3d" style="stroke-miterlimit: 2;"><g class="fills"><g><path class="js-fill" d="M540,320L0,320L0,315.26L7.66,308.33L15.33,309.72L22.99,308L30.66,316.66L38.32,310.26L45.98,308.57L53.65,308.66L61.31,302.98L68.98,314.82L76.64,305.12L84.31,298.7L91.97,300.05L99.63,303.79L107.3,298.01L114.96,298.34L122.63,294.04L130.29,294.15L137.95,297.71L145.62,295.63L153.28,296.03L160.95,300.89L168.61,298.19L176.28,297.82L183.94,300.16L191.6,300.15L199.27,297.64L206.93,294.25L214.6,293.34L222.26,288.58L229.92,289.36L237.59,288.03L245.25,290.07L252.92,291.14L260.58,281.63L268.24,237.76L275.91,162.48L283.57,145.06L291.24,143.75L298.9,135.78L306.57,126.37L314.23,128.83L321.89,108.18L337.22,111.75L344.89,117.84L352.55,120.23L360.21,113.93L367.88,17.8L375.54,39.35L383.21,31.66L390.87,35.59L398.54,37.29L406.2,40.98L413.86,40.87L421.53,36.45L429.19,34.83L436.86,36.5L444.52,36.29L452.18,43.23L459.85,35.07L467.51,32.24L475.18,37.45L482.84,39.6L490.5,37.82L498.17,37.38L505.83,43.44L513.5,52.61L521.16,45.86L528.83,18.42L540,16" style="fill: rgb(99, 110, 250); fill-opacity: 0.5; stroke-width: 0;"/></g></g><g class="errorbars"/><g class="lines"><path class="js-line" d="M0,315.26L7.66,308.33L15.33,309.72L22.99,308L30.66,316.66L38.32,310.26L45.98,308.57L53.65,308.66L61.31,302.98L68.98,314.82L76.64,305.12L84.31,298.7L91.97,300.05L99.63,303.79L107.3,298.01L114.96,298.34L122.63,294.04L130.29,294.15L137.95,297.71L145.62,295.63L153.28,296.03L160.95,300.89L168.61,298.19L176.28,297.82L183.94,300.16L191.6,300.15L199.27,297.64L206.93,294.25L214.6,293.34L222.26,288.58L229.92,289.36L237.59,288.03L245.25,290.07L252.92,291.14L260.58,281.63L268.24,237.76L275.91,162.48L283.57,145.06L291.24,143.75L298.9,135.78L306.57,126.37L314.23,128.83L321.89,108.18L337.22,111.75L344.89,117.84L352.55,120.23L360.21,113.93L367.88,17.8L375.54,39.35L383.21,31.66L390.87,35.59L398.54,37.29L406.2,40.98L413.86,40.87L421.53,36.45L429.19,34.83L436.86,36.5L444.52,36.29L452.18,43.23L459.85,35.07L467.51,32.24L475.18,37.45L482.84,39.6L490.5,37.82L498.17,37.38L505.83,43.44L513.5,52.61L521.16,45.86L528.83,18.42L540,16" style="vector-effect: non-scaling-stroke; fill: none; stroke: rgb(99, 110, 250); stroke-opacity: 1; stroke-width: 2px; opacity: 1;"/></g><g class="points"/><g class="text"/></g></g></g><g class="overplot"/><path class="xlines-above crisp" d="M0,0" style="fill: none;"/><path class="ylines-above crisp" d="M0,0" style="fill: none;"/><g class="overlines-above"/><g class="xaxislayer-above"><g class="xtick"><text text-anchor="middle" x="0" y="433" transform="translate(102.99,0)" style="font-family: 'Open Sans', verdana, arial, sans-serif; font-size: 12px; fill: rgb(42, 63, 95); fill-opacity: 1; white-space: pre; opacity: 1;"><tspan class="line" dy="0em" x="0" y="433">Sep 25</tspan><tspan class="line" dy="1.3em" x="0" y="433">2022</tspan></text></g><g class="xtick"><text text-anchor="middle" x="0" y="433" style="font-family: 'Open Sans', verdana, arial, sans-serif; font-size: 12px; fill: rgb(42, 63, 95); fill-opacity: 1; white-space: pre; opacity: 1;" transform="translate(210.29,0)">Oct 9</text></g><g class="xtick"><text text-anchor="middle" x="0" y="433" style="font-family: 'Open Sans', verdana, arial, sans-serif; font-size: 12px; fill: rgb(42, 63, 95); fill-opacity: 1; white-space: pre; opacity: 1;" transform="translate(317.59000000000003,0)">Oct 23</text></g><g class="xtick"><text text-anchor="middle" x="0" y="433" style="font-family: 'Open Sans', verdana, arial, sans-serif; font-size: 12px; fill: rgb(42, 63, 95); fill-opacity: 1; white-space: pre; opacity: 1;" transform="translate(424.89,0)">Nov 6</text></g><g class="xtick"><text text-anchor="middle" x="0" y="433" style="font-family: 'Open Sans', verdana, arial, sans-serif; font-size: 12px; fill: rgb(42, 63, 95); fill-opacity: 1; white-space: pre; opacity: 1;" transform="translate(532.1800000000001,0)">Nov 20</text></g></g><g class="yaxislayer-above"><g class="ytick"><text text-anchor="end" x="79" y="4.199999999999999" transform="translate(0,420)" style="font-family: 'Open Sans', verdana, arial, sans-serif; font-size: 12px; fill: rgb(42, 63, 95); fill-opacity: 1; white-space: pre; opacity: 1;">$0</text></g><g class="ytick"><text text-anchor="end" x="79" y="4.199999999999999" style="font-family: 'Open Sans', verdana, arial, sans-serif; font-size: 12px; fill: rgb(42, 63, 95); fill-opacity: 1; white-space: pre; opacity: 1;" transform="translate(0,366)">$2M</text></g><g class="ytick"><text text-anchor="end" x="79" y="4.199999999999999" style="font-family: 'Open Sans', verdana, arial, sans-serif; font-size: 12px; fill: rgb(42, 63, 95); fill-opacity: 1; white-space: pre; opacity: 1;" transform="translate(0,312)">$4M</text></g><g class="ytick"><text text-anchor="end" x="79" y="4.199999999999999" style="font-family: 'Open Sans', verdana, arial, sans-serif; font-size: 12px; fill: rgb(42, 63, 95); fill-opacity: 1; white-space: pre; opacity: 1;" transform="translate(0,258)">$6M</text></g><g class="ytick"><text text-anchor="end" x="79" y="4.199999999999999" style="font-family: 'Open Sans', verdana, arial, sans-serif; font-size: 12px; fill: rgb(42, 63, 95); fill-opacity: 1; white-space: pre; opacity: 1;" transform="translate(0,204)">$8M</text></g><g class="ytick"><text text-anchor="end" x="79" y="4.199999999999999" style="font-family: 'Open Sans', verdana, arial, sans-serif; font-size: 12px; fill: rgb(42, 63, 95); fill-opacity: 1; white-space: pre; opacity: 1;" transform="translate(0,150)">$10M</text></g></g><g class="overaxes-above"/></g></g><g class="polarlayer"/><g class="smithlayer"/><g class="ternarylayer"/><g class="geolayer"/><g class="funnelarealayer"/><g class="pielayer"/><g class="iciclelayer"/><g class="treemaplayer"/><g class="sunburstlayer"/><g class="glimages"/><defs id="topdefs-2031ae"><g class="clips"/></defs><g class="layer-above"><g class="imagelayer"/><g class="shapelayer"/></g><g class="infolayer"><g class="g-gtitle"><text class="gtitle" x="35" y="50" text-anchor="start" dy="0em" style="font-family: 'Open Sans', verdana, arial, sans-serif; font-size: 17px; fill: rgb(42, 63, 95); opacity: 1; font-weight: normal; white-space: pre;">Hop Protocol: Cumulative Net Dollar Flow since Program Announcement</text></g><g class="g-xtitle"><text class="xtitle" x="350" y="476.409375" text-anchor="middle" style="font-family: 'Open Sans', verdana, arial, sans-serif; font-size: 14px; fill: rgb(42, 63, 95); opacity: 1; font-weight: normal; white-space: pre;">Day</text></g><g class="g-ytitle"><text class="ytitle" transform="rotate(-90,24.168750000000003,260)" x="24.168750000000003" y="260" text-anchor="middle" style="font-family: 'Open Sans', verdana, arial, sans-serif; font-size: 14px; fill: rgb(42, 63, 95); opacity: 1; font-weight: normal; white-space: pre;">Cumulative Net Dollar Flow (N$F)</text></g></g></svg>