<svg class="main-svg" xmlns="http://www.w3.org/2000/svg" xmlns:xlink="http://www.w3.org/1999/xlink" width="700" height="500" style="" viewBox="0 0 700 500"><rect x="0" y="0" width="700" height="500" style="fill: rgb(255, 255, 255); fill-opacity: 1;"/><defs id="defs-49f051"><g class="clips"><clipPath id="clip49f051xyplot" class="plotclip"><rect width="540" height="320"/></clipPath><clipPath class="axesclip" id="clip49f051x"><rect x="80" y="0" width="540" height="500"/></clipPath><clipPath class="axesclip" id="clip49f051y"><rect x="0" y="100" width="700" height="320"/></clipPath><clipPath class="axesclip" id="clip49f051xy"><rect x="80" y="100" width="540" height="320"/></clipPath></g><g class="gradients"/><g class="patterns"/></defs><g class="bglayer"><rect class="bg" x="80" y="100" width="540" height="320" style="fill: rgb(229, 236, 246); fill-opacity: 1; stroke-width: 0;"/></g><g class="layer-below"><g class="imagelayer"/><g class="shapelayer"/></g><g class="cartesianlayer"><g class="subplot xy"><g class="layer-subplot"><g class="shapelayer"/><g class="imagelayer"/></g><g class="minor-gridlayer"><g class="x"/><g class="y"/></g><g class="gridlayer"><g class="x"><path class="xgrid crisp" transform="translate(121.53999999999999,0)" d="M0,100v320" style="stroke: rgb(255, 255, 255); stroke-opacity: 1; stroke-width: 1px;"/><path class="xgrid crisp" transform="translate(197.29000000000002,0)" d="M0,100v320" style="stroke: rgb(255, 255, 255); stroke-opacity: 1; stroke-width: 1px;"/><path class="xgrid crisp" transform="translate(270.59000000000003,0)" d="M0,100v320" style="stroke: rgb(255, 255, 255); stroke-opacity: 1; stroke-width: 1px;"/><path class="xgrid crisp" transform="translate(346.33,0)" d="M0,100v320" style="stroke: rgb(255, 255, 255); stroke-opacity: 1; stroke-width: 1px;"/><path class="xgrid crisp" transform="translate(419.64,0)" d="M0,100v320" style="stroke: rgb(255, 255, 255); stroke-opacity: 1; stroke-width: 1px;"/><path class="xgrid crisp" transform="translate(495.38,0)" d="M0,100v320" style="stroke: rgb(255, 255, 255); stroke-opacity: 1; stroke-width: 1px;"/><path class="xgrid crisp" transform="translate(571.13,0)" d="M0,100v320" style="stroke: rgb(255, 255, 255); stroke-opacity: 1; stroke-width: 1px;"/></g><g class="y"><path class="ygrid crisp" transform="translate(0,385.14)" d="M80,0h540" style="stroke: rgb(255, 255, 255); stroke-opacity: 1; stroke-width: 1px;"/><path class="ygrid crisp" transform="translate(0,302.08000000000004)" d="M80,0h540" style="stroke: rgb(255, 255, 255); stroke-opacity: 1; stroke-width: 1px;"/><path class="ygrid crisp" transform="translate(0,260.56)" d="M80,0h540" style="stroke: rgb(255, 255, 255); stroke-opacity: 1; stroke-width: 1px;"/><path class="ygrid crisp" transform="translate(0,219.03)" d="M80,0h540" style="stroke: rgb(255, 255, 255); stroke-opacity: 1; stroke-width: 1px;"/><path class="ygrid crisp" transform="translate(0,177.5)" d="M80,0h540" style="stroke: rgb(255, 255, 255); stroke-opacity: 1; stroke-width: 1px;"/><path class="ygrid crisp" transform="translate(0,135.97)" d="M80,0h540" style="stroke: rgb(255, 255, 255); stroke-opacity: 1; stroke-width: 1px;"/></g></g><g class="zerolinelayer"><path class="yzl zl crisp" transform="translate(0,343.61)" d="M80,0h540" style="stroke: rgb(255, 255, 255); stroke-opacity: 1; stroke-width: 2px;"/></g><path class="xlines-below"/><path class="ylines-below"/><g class="overlines-below"/><g class="xaxislayer-below"/><g class="yaxislayer-below"/><g class="overaxes-below"/><g class="plot" transform="translate(80,100)" clip-path="url(#clip49f051xyplot)"><g class="scatterlayer mlayer"><g class="trace scatter trace11c840" style="stroke-miterlimit: 2;"><g class="fills"><g><path class="js-fill" d="M540,243.61L0,243.61L0,243.55L7.33,239.7L9.77,238.27L14.66,237.21L17.1,228.56L19.55,226.27L21.99,225.98L24.43,222.17L26.88,221.61L29.32,219.78L31.76,219.8L36.65,213.77L39.1,212.34L41.54,209.69L43.98,200.19L46.43,199.62L48.87,202.14L51.31,198.53L53.76,143.93L56.2,136.63L58.64,118.27L61.09,111.15L63.53,119.61L65.97,122.34L68.42,122.93L70.86,124.45L73.3,124.95L75.75,125.72L78.19,127.5L80.63,129.41L83.08,140.36L87.96,150.52L90.41,148.84L92.85,148.76L95.29,166.11L97.74,164.21L100.18,165.24L109.95,165.81L112.4,165.1L117.29,164.39L119.73,162.81L122.17,162.48L124.62,161.15L127.06,160.59L129.5,161.46L131.95,163.02L134.39,161.26L136.83,147.06L139.28,141.59L141.72,141.05L144.16,141.34L146.61,137.99L149.05,165.07L151.49,167.23L153.94,165.68L156.38,164.35L158.82,162.01L161.27,158.63L163.71,152.92L166.15,159.52L168.6,157.86L171.04,154.67L173.48,147.69L175.93,129.34L178.37,128.99L180.81,128.71L183.26,122.77L185.7,126.66L188.14,124.2L190.59,119.87L193.03,118.7L195.48,118.96L197.92,126.67L200.36,123.41L202.81,123.73L207.69,124.12L210.14,123.1L212.58,117.79L215.02,115.7L219.91,118.67L222.35,122.49L224.8,103.14L227.24,106.2L229.68,117.12L232.13,117.23L234.57,117.13L237.01,119.57L241.9,119.41L244.34,119.72L246.79,119.36L249.23,120.21L254.12,121.05L256.56,126.48L259,126.63L261.45,129.29L263.89,128.46L266.33,124.15L268.78,124.29L271.22,114.55L273.67,114.24L276.11,112.54L283.44,111.48L285.88,119.48L288.33,133.27L290.77,133.46L293.21,133.9L295.66,133.26L298.1,133.41L300.54,132.58L312.76,129.92L315.2,129.08L320.09,127.56L322.53,115.08L324.98,113.04L327.42,116.93L329.86,120.57L332.31,108.27L334.75,108.12L337.19,109.58L339.64,108.52L342.08,109.33L344.52,121.08L346.97,121.68L351.86,123.04L354.3,122.06L356.74,122.72L359.19,121.76L361.63,121.29L364.07,115.48L366.52,111.76L368.96,109.78L373.85,108.22L376.29,107.42L378.73,117.75L381.18,117.11L383.62,108.79L386.06,108.18L390.95,107.65L393.39,107.12L395.84,99.47L398.28,99.55L403.17,97.83L405.61,97.64L408.05,102.74L410.5,102.06L412.94,101.75L415.38,99L420.27,100.8L422.71,104.68L427.6,103.45L430.05,105.03L434.93,103.51L437.38,101.28L439.82,100.19L442.26,97.81L447.15,98.26L449.59,94.01L452.04,92.9L454.48,89.49L456.92,84.29L459.37,85.47L461.81,84.91L464.25,80.68L466.7,80.61L469.14,74.93L471.58,73.61L474.03,63.2L478.91,56.85L481.36,51.53L483.8,50.54L486.24,44.17L488.69,41.97L491.13,38.37L496.02,27.18L498.46,19.18L500.9,27.43L503.35,28.74L505.79,26.89L508.24,16L510.68,29.83L513.12,29.31L515.57,24.13L518.01,62.87L520.45,117.47L522.9,125.52L525.34,153.11L527.78,167.94L530.23,172.57L532.67,237.79L537.56,239.65L540,241.49L540,304" style="fill: rgb(99, 110, 250); fill-opacity: 0.5; stroke-width: 0;"/></g></g><g class="errorbars"/><g class="lines"><path class="js-line" d="M0,243.55L7.33,239.7L9.77,238.27L14.66,237.21L17.1,228.56L19.55,226.27L21.99,225.98L24.43,222.17L26.88,221.61L29.32,219.78L31.76,219.8L36.65,213.77L39.1,212.34L41.54,209.69L43.98,200.19L46.43,199.62L48.87,202.14L51.31,198.53L53.76,143.93L56.2,136.63L58.64,118.27L61.09,111.15L63.53,119.61L65.97,122.34L68.42,122.93L70.86,124.45L73.3,124.95L75.75,125.72L78.19,127.5L80.63,129.41L83.08,140.36L87.96,150.52L90.41,148.84L92.85,148.76L95.29,166.11L97.74,164.21L100.18,165.24L109.95,165.81L112.4,165.1L117.29,164.39L119.73,162.81L122.17,162.48L124.62,161.15L127.06,160.59L129.5,161.46L131.95,163.02L134.39,161.26L136.83,147.06L139.28,141.59L141.72,141.05L144.16,141.34L146.61,137.99L149.05,165.07L151.49,167.23L153.94,165.68L156.38,164.35L158.82,162.01L161.27,158.63L163.71,152.92L166.15,159.52L168.6,157.86L171.04,154.67L173.48,147.69L175.93,129.34L178.37,128.99L180.81,128.71L183.26,122.77L185.7,126.66L188.14,124.2L190.59,119.87L193.03,118.7L195.48,118.96L197.92,126.67L200.36,123.41L202.81,123.73L207.69,124.12L210.14,123.1L212.58,117.79L215.02,115.7L219.91,118.67L222.35,122.49L224.8,103.14L227.24,106.2L229.68,117.12L232.13,117.23L234.57,117.13L237.01,119.57L241.9,119.41L244.34,119.72L246.79,119.36L249.23,120.21L254.12,121.05L256.56,126.48L259,126.63L261.45,129.29L263.89,128.46L266.33,124.15L268.78,124.29L271.22,114.55L273.67,114.24L276.11,112.54L283.44,111.48L285.88,119.48L288.33,133.27L290.77,133.46L293.21,133.9L295.66,133.26L298.1,133.41L300.54,132.58L312.76,129.92L315.2,129.08L320.09,127.56L322.53,115.08L324.98,113.04L327.42,116.93L329.86,120.57L332.31,108.27L334.75,108.12L337.19,109.58L339.64,108.52L342.08,109.33L344.52,121.08L346.97,121.68L351.86,123.04L354.3,122.06L356.74,122.72L359.19,121.76L361.63,121.29L364.07,115.48L366.52,111.76L368.96,109.78L373.85,108.22L376.29,107.42L378.73,117.75L381.18,117.11L383.62,108.79L386.06,108.18L390.95,107.65L393.39,107.12L395.84,99.47L398.28,99.55L403.17,97.83L405.61,97.64L408.05,102.74L410.5,102.06L412.94,101.75L415.38,99L420.27,100.8L422.71,104.68L427.6,103.45L430.05,105.03L434.93,103.51L437.38,101.28L439.82,100.19L442.26,97.81L447.15,98.26L449.59,94.01L452.04,92.9L454.48,89.49L456.92,84.29L459.37,85.47L461.81,84.91L464.25,80.68L466.7,80.61L469.14,74.93L471.58,73.61L474.03,63.2L478.91,56.85L481.36,51.53L483.8,50.54L486.24,44.17L488.69,41.97L491.13,38.37L496.02,27.18L498.46,19.18L500.9,27.43L503.35,28.74L505.79,26.89L508.24,16L510.68,29.83L513.12,29.31L515.57,24.13L518.01,62.87L520.45,117.47L522.9,125.52L525.34,153.11L527.78,167.94L530.23,172.57L532.67,237.79L537.56,239.65L540,241.49L540,304" style="vector-effect: non-scaling-stroke; fill: none; stroke: rgb(99, 110, 250); stroke-opacity: 1; stroke-width: 2px; opacity: 1;"/></g><g class="points"/><g class="text"/></g></g></g><g class="overplot"/><path class="xlines-above crisp" d="M0,0" style="fill: none;"/><path class="ylines-above crisp" d="M0,0" style="fill: none;"/><g class="overlines-above"/><g class="xaxislayer-above"><g class="xtick"><text text-anchor="middle" x="0" y="433" transform="translate(121.53999999999999,0)" style="font-family: 'Open Sans', verdana, arial, sans-serif; font-size: 12px; fill: rgb(42, 63, 95); fill-opacity: 1; white-space: pre; opacity: 1;">Aug 2022</text></g><g class="xtick"><text text-anchor="middle" x="0" y="433" style="font-family: 'Open Sans', verdana, arial, sans-serif; font-size: 12px; fill: rgb(42, 63, 95); fill-opacity: 1; white-space: pre; opacity: 1;" transform="translate(197.29000000000002,0)">Sep 2022</text></g><g class="xtick"><text text-anchor="middle" x="0" y="433" style="font-family: 'Open Sans', verdana, arial, sans-serif; font-size: 12px; fill: rgb(42, 63, 95); fill-opacity: 1; white-space: pre; opacity: 1;" transform="translate(270.59000000000003,0)">Oct 2022</text></g><g class="xtick"><text text-anchor="middle" x="0" y="433" style="font-family: 'Open Sans', verdana, arial, sans-serif; font-size: 12px; fill: rgb(42, 63, 95); fill-opacity: 1; white-space: pre; opacity: 1;" transform="translate(346.33,0)">Nov 2022</text></g><g class="xtick"><text text-anchor="middle" x="0" y="433" style="font-family: 'Open Sans', verdana, arial, sans-serif; font-size: 12px; fill: rgb(42, 63, 95); fill-opacity: 1; white-space: pre; opacity: 1;" transform="translate(419.64,0)">Dec 2022</text></g><g class="xtick"><text text-anchor="middle" x="0" y="433" style="font-family: 'Open Sans', verdana, arial, sans-serif; font-size: 12px; fill: rgb(42, 63, 95); fill-opacity: 1; white-space: pre; opacity: 1;" transform="translate(495.38,0)">Jan 2023</text></g><g class="xtick"><text text-anchor="middle" x="0" y="433" style="font-family: 'Open Sans', verdana, arial, sans-serif; font-size: 12px; fill: rgb(42, 63, 95); fill-opacity: 1; white-space: pre; opacity: 1;" transform="translate(571.13,0)">Feb 2023</text></g></g><g class="yaxislayer-above"><g class="ytick"><text text-anchor="end" x="79" y="4.199999999999999" transform="translate(0,385.14)" style="font-family: 'Open Sans', verdana, arial, sans-serif; font-size: 12px; fill: rgb(42, 63, 95); fill-opacity: 1; white-space: pre; opacity: 1;">$−2M</text></g><g class="ytick"><text text-anchor="end" x="79" y="4.199999999999999" style="font-family: 'Open Sans', verdana, arial, sans-serif; font-size: 12px; fill: rgb(42, 63, 95); fill-opacity: 1; white-space: pre; opacity: 1;" transform="translate(0,343.61)">$0</text></g><g class="ytick"><text text-anchor="end" x="79" y="4.199999999999999" style="font-family: 'Open Sans', verdana, arial, sans-serif; font-size: 12px; fill: rgb(42, 63, 95); fill-opacity: 1; white-space: pre; opacity: 1;" transform="translate(0,302.08000000000004)">$2M</text></g><g class="ytick"><text text-anchor="end" x="79" y="4.199999999999999" style="font-family: 'Open Sans', verdana, arial, sans-serif; font-size: 12px; fill: rgb(42, 63, 95); fill-opacity: 1; white-space: pre; opacity: 1;" transform="translate(0,260.56)">$4M</text></g><g class="ytick"><text text-anchor="end" x="79" y="4.199999999999999" style="font-family: 'Open Sans', verdana, arial, sans-serif; font-size: 12px; fill: rgb(42, 63, 95); fill-opacity: 1; white-space: pre; opacity: 1;" transform="translate(0,219.03)">$6M</text></g><g class="ytick"><text text-anchor="end" x="79" y="4.199999999999999" style="font-family: 'Open Sans', verdana, arial, sans-serif; font-size: 12px; fill: rgb(42, 63, 95); fill-opacity: 1; white-space: pre; opacity: 1;" transform="translate(0,177.5)">$8M</text></g><g class="ytick"><text text-anchor="end" x="79" y="4.199999999999999" style="font-family: 'Open Sans', verdana, arial, sans-serif; font-size: 12px; fill: rgb(42, 63, 95); fill-opacity: 1; white-space: pre; opacity: 1;" transform="translate(0,135.97)">$10M</text></g></g><g class="overaxes-above"/></g></g><g class="polarlayer"/><g class="smithlayer"/><g class="ternarylayer"/><g class="geolayer"/><g class="funnelarealayer"/><g class="pielayer"/><g class="iciclelayer"/><g class="treemaplayer"/><g class="sunburstlayer"/><g class="glimages"/><defs id="topdefs-49f051"><g class="clips"/></defs><g class="layer-above"><g class="imagelayer"/><g class="shapelayer"/></g><g class="infolayer"><g class="g-gtitle"><text class="gtitle" x="35" y="50" text-anchor="start" dy="0em" style="font-family: 'Open Sans', verdana, arial, sans-serif; font-size: 17px; fill: rgb(42, 63, 95); opacity: 1; font-weight: normal; white-space: pre;"><tspan class="line" dy="0em" x="35" y="50">Rubicon</tspan><tspan class="line" dy="1.3em" x="35" y="50">​<tspan style="font-size:70%" dy="-0.6em">Cumulative Net Flows since Program Announcement, Until Program End + 30 Days</tspan><tspan dy="0.42em">​</tspan></tspan></text></g><g class="g-xtitle"><text class="xtitle" x="350" y="460.8" text-anchor="middle" style="font-family: 'Open Sans', verdana, arial, sans-serif; font-size: 14px; fill: rgb(42, 63, 95); opacity: 1; font-weight: normal; white-space: pre;">Day</text></g><g class="g-ytitle"><text class="ytitle" transform="rotate(-90,23.840625000000003,260)" x="23.840625000000003" y="260" text-anchor="middle" style="font-family: 'Open Sans', verdana, arial, sans-serif; font-size: 14px; fill: rgb(42, 63, 95); opacity: 1; font-weight: normal; white-space: pre;">Cumulative Net Flows (USD)</text></g></g></svg>