<svg class="main-svg" xmlns="http://www.w3.org/2000/svg" xmlns:xlink="http://www.w3.org/1999/xlink" width="700" height="500" style="" viewBox="0 0 700 500"><rect x="0" y="0" width="700" height="500" style="fill: rgb(255, 255, 255); fill-opacity: 1;"/><defs id="defs-e85325"><g class="clips"><clipPath id="clipe85325xyplot" class="plotclip"><rect width="540" height="320"/></clipPath><clipPath class="axesclip" id="clipe85325x"><rect x="80" y="0" width="540" height="500"/></clipPath><clipPath class="axesclip" id="clipe85325y"><rect x="0" y="100" width="700" height="320"/></clipPath><clipPath class="axesclip" id="clipe85325xy"><rect x="80" y="100" width="540" height="320"/></clipPath></g><g class="gradients"/><g class="patterns"/></defs><g class="bglayer"><rect class="bg" x="80" y="100" width="540" height="320" style="fill: rgb(229, 236, 246); fill-opacity: 1; stroke-width: 0;"/></g><g class="layer-below"><g class="imagelayer"/><g class="shapelayer"/></g><g class="cartesianlayer"><g class="subplot xy"><g class="layer-subplot"><g class="shapelayer"/><g class="imagelayer"/></g><g class="minor-gridlayer"><g class="x"/><g class="y"/></g><g class="gridlayer"><g class="x"><path class="xgrid crisp" transform="translate(92.86,0)" d="M0,100v320" style="stroke: rgb(255, 255, 255); stroke-opacity: 1; stroke-width: 1px;"/><path class="xgrid crisp" transform="translate(192.5,0)" d="M0,100v320" style="stroke: rgb(255, 255, 255); stroke-opacity: 1; stroke-width: 1px;"/><path class="xgrid crisp" transform="translate(288.93,0)" d="M0,100v320" style="stroke: rgb(255, 255, 255); stroke-opacity: 1; stroke-width: 1px;"/><path class="xgrid crisp" transform="translate(388.57,0)" d="M0,100v320" style="stroke: rgb(255, 255, 255); stroke-opacity: 1; stroke-width: 1px;"/><path class="xgrid crisp" transform="translate(488.21,0)" d="M0,100v320" style="stroke: rgb(255, 255, 255); stroke-opacity: 1; stroke-width: 1px;"/><path class="xgrid crisp" transform="translate(578.21,0)" d="M0,100v320" style="stroke: rgb(255, 255, 255); stroke-opacity: 1; stroke-width: 1px;"/></g><g class="y"><path class="ygrid crisp" transform="translate(0,330.19)" d="M80,0h540" style="stroke: rgb(255, 255, 255); stroke-opacity: 1; stroke-width: 1px;"/><path class="ygrid crisp" transform="translate(0,260.98)" d="M80,0h540" style="stroke: rgb(255, 255, 255); stroke-opacity: 1; stroke-width: 1px;"/><path class="ygrid crisp" transform="translate(0,191.76999999999998)" d="M80,0h540" style="stroke: rgb(255, 255, 255); stroke-opacity: 1; stroke-width: 1px;"/><path class="ygrid crisp" transform="translate(0,122.55)" d="M80,0h540" style="stroke: rgb(255, 255, 255); stroke-opacity: 1; stroke-width: 1px;"/></g></g><g class="zerolinelayer"><path class="yzl zl crisp" transform="translate(0,399.41)" d="M80,0h540" style="stroke: rgb(255, 255, 255); stroke-opacity: 1; stroke-width: 2px;"/></g><path class="xlines-below"/><path class="ylines-below"/><g class="overlines-below"/><g class="xaxislayer-below"/><g class="yaxislayer-below"/><g class="overaxes-below"/><g class="plot" transform="translate(80,100)" clip-path="url(#clipe85325xyplot)"><g class="scatterlayer mlayer"><g class="trace scatter trace1e7002" style="stroke-miterlimit: 2;"><g class="fills"><g><path class="js-fill" d="M540,299.41L0,299.41L0,298.06L3.21,298.45L6.43,299.81L9.64,300.86L12.86,300.84L25.71,298.83L28.93,299.33L35.36,296.33L38.57,292.32L41.79,291.31L45,291.27L48.21,291.29L51.43,290.06L54.64,274.68L57.86,278.55L61.07,272.25L64.29,273.21L70.71,274.91L73.93,275.28L80.36,275.24L83.57,274.31L86.79,274.42L90,275.94L96.43,290.61L99.64,289.64L109.29,288.6L112.5,289.37L115.71,289.48L118.93,280.29L128.57,280.6L131.79,281.75L135,301.16L138.21,304L144.64,301.95L147.86,303.07L154.29,302.69L157.5,301.08L160.71,303.24L163.93,299.48L167.14,295.34L170.36,294.96L173.57,295.82L176.79,295.48L180,296.55L183.21,295.78L186.43,279.16L189.64,279.23L199.29,279.16L202.5,278.16L205.71,279.04L208.93,278.81L215.36,278.35L218.57,275.18L221.79,275.26L225,284.25L228.21,284.47L231.43,299.23L234.64,291.15L237.86,290.67L241.07,290.51L244.29,287.96L247.5,283.51L250.71,283.14L253.93,282.78L257.14,283.94L263.57,283.91L266.79,285.14L270,284.62L273.21,281.9L276.43,276.56L279.64,276.35L286.07,276.23L289.29,279L292.5,284.3L295.71,284.02L298.93,284L302.14,285.32L305.36,290.85L308.57,290.72L311.79,286.87L315,287.29L318.21,285.49L321.43,286.59L324.64,287.63L327.86,287.05L331.07,288.22L334.29,287.49L340.71,287.03L343.93,286.4L347.14,286.31L350.36,287.37L360,286.74L363.21,285.47L366.43,280.88L369.64,285.2L372.86,276.35L376.07,275.85L379.29,276.21L382.5,267.63L385.71,232.82L388.93,227.28L392.14,223.61L395.36,223.8L398.57,223.82L401.79,221.12L408.21,221.03L411.43,214.86L414.64,211.99L417.86,201.07L421.07,198.66L424.29,189.83L427.5,189.66L430.71,185.65L433.93,184.6L437.14,193.05L440.36,190.03L443.57,189.91L446.79,189.1L450,195.74L453.21,183.67L456.43,164.81L459.64,172.84L462.86,173.55L466.07,138.1L469.29,140.66L472.5,139.77L475.71,142.34L478.93,141.85L482.14,133.11L485.36,128.95L488.57,99.09L491.79,88.42L495,90.92L498.21,91.77L501.43,40.76L504.64,35.79L507.86,44.19L511.07,54.75L514.29,47.41L517.5,16L520.71,22.74L527.14,95.45L530.36,201.92L533.57,201.05L536.79,170.15L540,155.66" style="fill: rgb(99, 110, 250); fill-opacity: 0.5; stroke-width: 0;"/></g></g><g class="errorbars"/><g class="lines"><path class="js-line" d="M0,298.06L3.21,298.45L6.43,299.81L9.64,300.86L12.86,300.84L25.71,298.83L28.93,299.33L35.36,296.33L38.57,292.32L41.79,291.31L45,291.27L48.21,291.29L51.43,290.06L54.64,274.68L57.86,278.55L61.07,272.25L64.29,273.21L70.71,274.91L73.93,275.28L80.36,275.24L83.57,274.31L86.79,274.42L90,275.94L96.43,290.61L99.64,289.64L109.29,288.6L112.5,289.37L115.71,289.48L118.93,280.29L128.57,280.6L131.79,281.75L135,301.16L138.21,304L144.64,301.95L147.86,303.07L154.29,302.69L157.5,301.08L160.71,303.24L163.93,299.48L167.14,295.34L170.36,294.96L173.57,295.82L176.79,295.48L180,296.55L183.21,295.78L186.43,279.16L189.64,279.23L199.29,279.16L202.5,278.16L205.71,279.04L208.93,278.81L215.36,278.35L218.57,275.18L221.79,275.26L225,284.25L228.21,284.47L231.43,299.23L234.64,291.15L237.86,290.67L241.07,290.51L244.29,287.96L247.5,283.51L250.71,283.14L253.93,282.78L257.14,283.94L263.57,283.91L266.79,285.14L270,284.62L273.21,281.9L276.43,276.56L279.64,276.35L286.07,276.23L289.29,279L292.5,284.3L295.71,284.02L298.93,284L302.14,285.32L305.36,290.85L308.57,290.72L311.79,286.87L315,287.29L318.21,285.49L321.43,286.59L324.64,287.63L327.86,287.05L331.07,288.22L334.29,287.49L340.71,287.03L343.93,286.4L347.14,286.31L350.36,287.37L360,286.74L363.21,285.47L366.43,280.88L369.64,285.2L372.86,276.35L376.07,275.85L379.29,276.21L382.5,267.63L385.71,232.82L388.93,227.28L392.14,223.61L395.36,223.8L398.57,223.82L401.79,221.12L408.21,221.03L411.43,214.86L414.64,211.99L417.86,201.07L421.07,198.66L424.29,189.83L427.5,189.66L430.71,185.65L433.93,184.6L437.14,193.05L440.36,190.03L443.57,189.91L446.79,189.1L450,195.74L453.21,183.67L456.43,164.81L459.64,172.84L462.86,173.55L466.07,138.1L469.29,140.66L472.5,139.77L475.71,142.34L478.93,141.85L482.14,133.11L485.36,128.95L488.57,99.09L491.79,88.42L495,90.92L498.21,91.77L501.43,40.76L504.64,35.79L507.86,44.19L511.07,54.75L514.29,47.41L517.5,16L520.71,22.74L527.14,95.45L530.36,201.92L533.57,201.05L536.79,170.15L540,155.66" style="vector-effect: non-scaling-stroke; fill: none; stroke: rgb(99, 110, 250); stroke-opacity: 1; stroke-width: 2px; opacity: 1;"/></g><g class="points"/><g class="text"/></g></g></g><g class="overplot"/><path class="xlines-above crisp" d="M0,0" style="fill: none;"/><path class="ylines-above crisp" d="M0,0" style="fill: none;"/><g class="overlines-above"/><g class="xaxislayer-above"><g class="xtick"><text text-anchor="middle" x="0" y="433" transform="translate(92.86,0)" style="font-family: 'Open Sans', verdana, arial, sans-serif; font-size: 12px; fill: rgb(42, 63, 95); fill-opacity: 1; white-space: pre; opacity: 1;">Oct 2022</text></g><g class="xtick"><text text-anchor="middle" x="0" y="433" style="font-family: 'Open Sans', verdana, arial, sans-serif; font-size: 12px; fill: rgb(42, 63, 95); fill-opacity: 1; white-space: pre; opacity: 1;" transform="translate(192.5,0)">Nov 2022</text></g><g class="xtick"><text text-anchor="middle" x="0" y="433" style="font-family: 'Open Sans', verdana, arial, sans-serif; font-size: 12px; fill: rgb(42, 63, 95); fill-opacity: 1; white-space: pre; opacity: 1;" transform="translate(288.93,0)">Dec 2022</text></g><g class="xtick"><text text-anchor="middle" x="0" y="433" style="font-family: 'Open Sans', verdana, arial, sans-serif; font-size: 12px; fill: rgb(42, 63, 95); fill-opacity: 1; white-space: pre; opacity: 1;" transform="translate(388.57,0)">Jan 2023</text></g><g class="xtick"><text text-anchor="middle" x="0" y="433" style="font-family: 'Open Sans', verdana, arial, sans-serif; font-size: 12px; fill: rgb(42, 63, 95); fill-opacity: 1; white-space: pre; opacity: 1;" transform="translate(488.21,0)">Feb 2023</text></g><g class="xtick"><text text-anchor="middle" x="0" y="433" style="font-family: 'Open Sans', verdana, arial, sans-serif; font-size: 12px; fill: rgb(42, 63, 95); fill-opacity: 1; white-space: pre; opacity: 1;" transform="translate(578.21,0)">Mar 2023</text></g></g><g class="yaxislayer-above"><g class="ytick"><text text-anchor="end" x="79" y="4.199999999999999" transform="translate(0,399.41)" style="font-family: 'Open Sans', verdana, arial, sans-serif; font-size: 12px; fill: rgb(42, 63, 95); fill-opacity: 1; white-space: pre; opacity: 1;">$0</text></g><g class="ytick"><text text-anchor="end" x="79" y="4.199999999999999" style="font-family: 'Open Sans', verdana, arial, sans-serif; font-size: 12px; fill: rgb(42, 63, 95); fill-opacity: 1; white-space: pre; opacity: 1;" transform="translate(0,330.19)">$2M</text></g><g class="ytick"><text text-anchor="end" x="79" y="4.199999999999999" style="font-family: 'Open Sans', verdana, arial, sans-serif; font-size: 12px; fill: rgb(42, 63, 95); fill-opacity: 1; white-space: pre; opacity: 1;" transform="translate(0,260.98)">$4M</text></g><g class="ytick"><text text-anchor="end" x="79" y="4.199999999999999" style="font-family: 'Open Sans', verdana, arial, sans-serif; font-size: 12px; fill: rgb(42, 63, 95); fill-opacity: 1; white-space: pre; opacity: 1;" transform="translate(0,191.76999999999998)">$6M</text></g><g class="ytick"><text text-anchor="end" x="79" y="4.199999999999999" style="font-family: 'Open Sans', verdana, arial, sans-serif; font-size: 12px; fill: rgb(42, 63, 95); fill-opacity: 1; white-space: pre; opacity: 1;" transform="translate(0,122.55)">$8M</text></g></g><g class="overaxes-above"/></g></g><g class="polarlayer"/><g class="smithlayer"/><g class="ternarylayer"/><g class="geolayer"/><g class="funnelarealayer"/><g class="pielayer"/><g class="iciclelayer"/><g class="treemaplayer"/><g class="sunburstlayer"/><g class="glimages"/><defs id="topdefs-e85325"><g class="clips"/></defs><g class="layer-above"><g class="imagelayer"/><g class="shapelayer"/></g><g class="infolayer"><g class="g-gtitle"><text class="gtitle" x="35" y="50" text-anchor="start" dy="0em" style="font-family: 'Open Sans', verdana, arial, sans-serif; font-size: 17px; fill: rgb(42, 63, 95); opacity: 1; font-weight: normal; white-space: pre;"><tspan class="line" dy="0em" x="35" y="50">Synthetix - USDC/SNX: Velodrome</tspan><tspan class="line" dy="1.3em" x="35" y="50">​<tspan style="font-size:70%" dy="-0.6em">Cumulative Net Flows since Program Announcement, Until Program End + 30 Days</tspan><tspan dy="0.42em">​</tspan></tspan></text></g><g class="g-xtitle"><text class="xtitle" x="350" y="460.8" text-anchor="middle" style="font-family: 'Open Sans', verdana, arial, sans-serif; font-size: 14px; fill: rgb(42, 63, 95); opacity: 1; font-weight: normal; white-space: pre;">Day</text></g><g class="g-ytitle"><text class="ytitle" transform="rotate(-90,30.856250000000003,260)" x="30.856250000000003" y="260" text-anchor="middle" style="font-family: 'Open Sans', verdana, arial, sans-serif; font-size: 14px; fill: rgb(42, 63, 95); opacity: 1; font-weight: normal; white-space: pre;">Cumulative Net Flows (USD)</text></g></g></svg>