<svg class="main-svg" xmlns="http://www.w3.org/2000/svg" xmlns:xlink="http://www.w3.org/1999/xlink" width="700" height="500" style="" viewBox="0 0 700 500"><rect x="0" y="0" width="700" height="500" style="fill: rgb(255, 255, 255); fill-opacity: 1;"/><defs id="defs-dba6bf"><g class="clips"><clipPath id="clipdba6bfxyplot" class="plotclip"><rect width="469" height="320"/></clipPath><clipPath class="axesclip" id="clipdba6bfx"><rect x="80" y="0" width="469" height="500"/></clipPath><clipPath class="axesclip" id="clipdba6bfy"><rect x="0" y="100" width="700" height="320"/></clipPath><clipPath class="axesclip" id="clipdba6bfxy"><rect x="80" y="100" width="469" height="320"/></clipPath></g><g class="gradients"/><g class="patterns"/></defs><g class="bglayer"><rect class="bg" x="80" y="100" width="469" height="320" style="fill: rgb(229, 236, 246); fill-opacity: 1; stroke-width: 0;"/></g><g class="layer-below"><g class="imagelayer"/><g class="shapelayer"/></g><g class="cartesianlayer"><g class="subplot xy"><g class="layer-subplot"><g class="shapelayer"/><g class="imagelayer"/></g><g class="minor-gridlayer"><g class="x"/><g class="y"/></g><g class="gridlayer"><g class="x"><path class="xgrid crisp" transform="translate(184.53,0)" d="M0,100v320" style="stroke: rgb(255, 255, 255); stroke-opacity: 1; stroke-width: 1px;"/><path class="xgrid crisp" transform="translate(296.53,0)" d="M0,100v320" style="stroke: rgb(255, 255, 255); stroke-opacity: 1; stroke-width: 1px;"/><path class="xgrid crisp" transform="translate(412.27,0)" d="M0,100v320" style="stroke: rgb(255, 255, 255); stroke-opacity: 1; stroke-width: 1px;"/><path class="xgrid crisp" transform="translate(524.27,0)" d="M0,100v320" style="stroke: rgb(255, 255, 255); stroke-opacity: 1; stroke-width: 1px;"/></g><g class="y"><path class="ygrid crisp" transform="translate(0,364.88)" d="M80,0h469" style="stroke: rgb(255, 255, 255); stroke-opacity: 1; stroke-width: 1px;"/><path class="ygrid crisp" transform="translate(0,309.77)" d="M80,0h469" style="stroke: rgb(255, 255, 255); stroke-opacity: 1; stroke-width: 1px;"/><path class="ygrid crisp" transform="translate(0,254.65)" d="M80,0h469" style="stroke: rgb(255, 255, 255); stroke-opacity: 1; stroke-width: 1px;"/><path class="ygrid crisp" transform="translate(0,199.53)" d="M80,0h469" style="stroke: rgb(255, 255, 255); stroke-opacity: 1; stroke-width: 1px;"/><path class="ygrid crisp" transform="translate(0,144.42000000000002)" d="M80,0h469" style="stroke: rgb(255, 255, 255); stroke-opacity: 1; stroke-width: 1px;"/></g></g><g class="zerolinelayer"><path class="yzl zl crisp" transform="translate(0,420)" d="M80,0h469" style="stroke: rgb(255, 255, 255); stroke-opacity: 1; stroke-width: 2px;"/></g><path class="xlines-below"/><path class="ylines-below"/><g class="overlines-below"/><g class="xaxislayer-below"/><g class="yaxislayer-below"/><g class="overaxes-below"/><g class="plot" transform="translate(80,100)" clip-path="url(#clipdba6bfxyplot)"><g class="scatterlayer mlayer"><g class="trace scatter trace180945" style="stroke-miterlimit: 2;"><g class="fills"><g><path class="js-fill" d="M343.47,320L0,320L0,319.5L3.73,187.67L7.47,95.04L11.2,59.4L14.93,37.56L18.67,40.9L22.4,32.84L26.13,16.5L29.87,16L33.6,16.71L37.33,36.52L41.07,44.59L44.8,44.5L52.27,52.41L56,111.43L63.47,113.52L67.2,112.65L70.93,120.72L74.67,115.83L78.4,113.72L82.13,106.29L85.87,107.51L89.6,103.86L93.33,107.89L97.07,109.93L100.8,97L104.53,94.74L108.27,94.2L112,94.83L115.73,96L119.47,95.76L126.93,116.8L130.67,118.17L134.4,125.69L138.13,117.78L145.6,116.13L149.33,113.41L153.07,113.83L156.8,120.96L164.27,111.56L168,109.23L171.73,109.93L175.47,106.13L182.93,104.67L186.67,102.25L190.4,102.06L194.13,100.43L197.87,104.17L201.6,102.5L205.33,100.49L209.07,86.88L212.8,81.09L216.53,82.12L220.27,82.07L224,80.73L227.73,76.23L231.47,74.8L235.2,77.1L238.93,77.89L242.67,78.91L246.4,75.76L250.13,79.59L253.87,81.7L257.6,82.07L261.33,84.93L265.07,86.34L268.8,83.57L272.53,83.83L276.27,85.17L280,106.5L283.73,103.3L287.47,100.08L291.2,99.65L298.67,98.93L302.4,100.87L306.13,100.64L309.87,101.25L313.6,101.14L317.33,85.64L321.07,85.53L324.8,79.19L328.53,82.22L332.27,101.32L336,110.01L339.73,139.31L343.47,173.11" style="fill: rgb(99, 110, 250); fill-opacity: 0.5; stroke-width: 0;"/></g></g><g class="errorbars"/><g class="lines"><path class="js-line" d="M0,319.5L3.73,187.67L7.47,95.04L11.2,59.4L14.93,37.56L18.67,40.9L22.4,32.84L26.13,16.5L29.87,16L33.6,16.71L37.33,36.52L41.07,44.59L44.8,44.5L52.27,52.41L56,111.43L63.47,113.52L67.2,112.65L70.93,120.72L74.67,115.83L78.4,113.72L82.13,106.29L85.87,107.51L89.6,103.86L93.33,107.89L97.07,109.93L100.8,97L104.53,94.74L108.27,94.2L112,94.83L115.73,96L119.47,95.76L126.93,116.8L130.67,118.17L134.4,125.69L138.13,117.78L145.6,116.13L149.33,113.41L153.07,113.83L156.8,120.96L164.27,111.56L168,109.23L171.73,109.93L175.47,106.13L182.93,104.67L186.67,102.25L190.4,102.06L194.13,100.43L197.87,104.17L201.6,102.5L205.33,100.49L209.07,86.88L212.8,81.09L216.53,82.12L220.27,82.07L224,80.73L227.73,76.23L231.47,74.8L235.2,77.1L238.93,77.89L242.67,78.91L246.4,75.76L250.13,79.59L253.87,81.7L257.6,82.07L261.33,84.93L265.07,86.34L268.8,83.57L272.53,83.83L276.27,85.17L280,106.5L283.73,103.3L287.47,100.08L291.2,99.65L298.67,98.93L302.4,100.87L306.13,100.64L309.87,101.25L313.6,101.14L317.33,85.64L321.07,85.53L324.8,79.19L328.53,82.22L332.27,101.32L336,110.01L339.73,139.31L343.47,173.11" style="vector-effect: non-scaling-stroke; fill: none; stroke: rgb(99, 110, 250); stroke-opacity: 1; stroke-width: 2px; opacity: 1;"/></g><g class="points"/><g class="text"/></g><g class="trace scatter trace8b1dd8" style="stroke-miterlimit: 2;"><g class="fills"><g><path class="js-fill" d="M469,320L347.2,320L347.2,182.37L354.67,192.44L358.4,188.96L362.13,169.66L365.87,181.16L369.6,189.49L373.33,190.28L380.8,191.04L384.53,219.68L388.27,221.09L392,223.48L395.73,229.56L399.47,229.58L403.2,229.69L406.93,228.98L410.67,229.41L414.4,239.26L421.87,241.23L425.6,250.96L429.33,251.42L433.07,253.91L436.8,254.06L440.53,255.09L444.27,254.96L448,253.95L455.47,254.47L459.2,253.88L462.93,253.97L466.67,252.64L469,252.58" style="fill: rgb(239, 85, 59); fill-opacity: 0.5; stroke-width: 0;"/></g></g><g class="errorbars"/><g class="lines"><path class="js-line" d="M347.2,182.37L354.67,192.44L358.4,188.96L362.13,169.66L365.87,181.16L369.6,189.49L373.33,190.28L380.8,191.04L384.53,219.68L388.27,221.09L392,223.48L395.73,229.56L399.47,229.58L403.2,229.69L406.93,228.98L410.67,229.41L414.4,239.26L421.87,241.23L425.6,250.96L429.33,251.42L433.07,253.91L436.8,254.06L440.53,255.09L444.27,254.96L448,253.95L455.47,254.47L459.2,253.88L462.93,253.97L466.67,252.64L469,252.58" style="vector-effect: non-scaling-stroke; fill: none; stroke: rgb(239, 85, 59); stroke-opacity: 1; stroke-width: 2px; opacity: 1;"/></g><g class="points"/><g class="text"/></g></g></g><g class="overplot"/><path class="xlines-above crisp" d="M0,0" style="fill: none;"/><path class="ylines-above crisp" d="M0,0" style="fill: none;"/><g class="overlines-above"/><g class="xaxislayer-above"><g class="xtick"><text text-anchor="middle" x="0" y="433" transform="translate(184.53,0)" style="font-family: 'Open Sans', verdana, arial, sans-serif; font-size: 12px; fill: rgb(42, 63, 95); fill-opacity: 1; white-space: pre; opacity: 1;">Sep 2022</text></g><g class="xtick"><text text-anchor="middle" x="0" y="433" style="font-family: 'Open Sans', verdana, arial, sans-serif; font-size: 12px; fill: rgb(42, 63, 95); fill-opacity: 1; white-space: pre; opacity: 1;" transform="translate(296.53,0)">Oct 2022</text></g><g class="xtick"><text text-anchor="middle" x="0" y="433" style="font-family: 'Open Sans', verdana, arial, sans-serif; font-size: 12px; fill: rgb(42, 63, 95); fill-opacity: 1; white-space: pre; opacity: 1;" transform="translate(412.27,0)">Nov 2022</text></g><g class="xtick"><text text-anchor="middle" x="0" y="433" style="font-family: 'Open Sans', verdana, arial, sans-serif; font-size: 12px; fill: rgb(42, 63, 95); fill-opacity: 1; white-space: pre; opacity: 1;" transform="translate(524.27,0)">Dec 2022</text></g></g><g class="yaxislayer-above"><g class="ytick"><text text-anchor="end" x="79" y="4.199999999999999" transform="translate(0,420)" style="font-family: 'Open Sans', verdana, arial, sans-serif; font-size: 12px; fill: rgb(42, 63, 95); fill-opacity: 1; white-space: pre; opacity: 1;">$0</text></g><g class="ytick"><text text-anchor="end" x="79" y="4.199999999999999" style="font-family: 'Open Sans', verdana, arial, sans-serif; font-size: 12px; fill: rgb(42, 63, 95); fill-opacity: 1; white-space: pre; opacity: 1;" transform="translate(0,364.88)">$100M</text></g><g class="ytick"><text text-anchor="end" x="79" y="4.199999999999999" style="font-family: 'Open Sans', verdana, arial, sans-serif; font-size: 12px; fill: rgb(42, 63, 95); fill-opacity: 1; white-space: pre; opacity: 1;" transform="translate(0,309.77)">$200M</text></g><g class="ytick"><text text-anchor="end" x="79" y="4.199999999999999" style="font-family: 'Open Sans', verdana, arial, sans-serif; font-size: 12px; fill: rgb(42, 63, 95); fill-opacity: 1; white-space: pre; opacity: 1;" transform="translate(0,254.65)">$300M</text></g><g class="ytick"><text text-anchor="end" x="79" y="4.199999999999999" style="font-family: 'Open Sans', verdana, arial, sans-serif; font-size: 12px; fill: rgb(42, 63, 95); fill-opacity: 1; white-space: pre; opacity: 1;" transform="translate(0,199.53)">$400M</text></g><g class="ytick"><text text-anchor="end" x="79" y="4.199999999999999" style="font-family: 'Open Sans', verdana, arial, sans-serif; font-size: 12px; fill: rgb(42, 63, 95); fill-opacity: 1; white-space: pre; opacity: 1;" transform="translate(0,144.42000000000002)">$500M</text></g></g><g class="overaxes-above"/></g></g><g class="polarlayer"/><g class="smithlayer"/><g class="ternarylayer"/><g class="geolayer"/><g class="funnelarealayer"/><g class="pielayer"/><g class="iciclelayer"/><g class="treemaplayer"/><g class="sunburstlayer"/><g class="glimages"/><defs id="topdefs-dba6bf"><g class="clips"/><clipPath id="legenddba6bf"><rect width="130" height="67" x="0" y="0"/></clipPath></defs><g class="layer-above"><g class="imagelayer"/><g class="shapelayer"/></g><g class="infolayer"><g class="legend" pointer-events="all" transform="translate(558.38,100)"><rect class="bg" shape-rendering="crispEdges" width="130" height="67" x="0" y="0" style="stroke: rgb(68, 68, 68); stroke-opacity: 1; fill: rgb(255, 255, 255); fill-opacity: 1; stroke-width: 0px;"/><g class="scrollbox" transform="" clip-path="url(#legenddba6bf)"><text class="legendtitletext" text-anchor="start" x="2" y="18.2" style="font-family: 'Open Sans', verdana, arial, sans-serif; font-size: 14px; fill: rgb(42, 63, 95); fill-opacity: 1; white-space: pre;">Period</text><g class="groups"><g class="traces" transform="translate(0,32.7)" style="opacity: 1;"><text class="legendtext" text-anchor="start" x="40" y="4.680000000000001" style="font-family: 'Open Sans', verdana, arial, sans-serif; font-size: 12px; fill: rgb(42, 63, 95); fill-opacity: 1; white-space: pre;">During Program</text><g class="layers"><g class="legendfill"><path class="js-fill" d="M5,-2h30v6h-30z" style="stroke-width: 0; fill: rgb(99, 110, 250); fill-opacity: 0.5;"/></g><g class="legendlines"><path class="js-line" d="M5,-2h30" style="fill: none; stroke: rgb(99, 110, 250); stroke-opacity: 1; stroke-width: 2px;"/></g><g class="legendsymbols"><g class="legendpoints"/></g></g><rect class="legendtoggle" x="0" y="-9.5" width="124.703125" height="19" style="fill: rgb(0, 0, 0); fill-opacity: 0;"/></g><g class="traces" transform="translate(0,51.7)" style="opacity: 1;"><text class="legendtext" text-anchor="start" x="40" y="4.680000000000001" style="font-family: 'Open Sans', verdana, arial, sans-serif; font-size: 12px; fill: rgb(42, 63, 95); fill-opacity: 1; white-space: pre;">Post-Program</text><g class="layers"><g class="legendfill"><path class="js-fill" d="M5,-2h30v6h-30z" style="stroke-width: 0; fill: rgb(239, 85, 59); fill-opacity: 0.5;"/></g><g class="legendlines"><path class="js-line" d="M5,-2h30" style="fill: none; stroke: rgb(239, 85, 59); stroke-opacity: 1; stroke-width: 2px;"/></g><g class="legendsymbols"><g class="legendpoints"/></g></g><rect class="legendtoggle" x="0" y="-9.5" width="124.703125" height="19" style="fill: rgb(0, 0, 0); fill-opacity: 0;"/></g></g></g><rect class="scrollbar" rx="20" ry="3" width="0" height="0" x="0" y="0" style="fill: rgb(128, 139, 164); fill-opacity: 1;"/></g><g class="g-gtitle"><text class="gtitle" x="35" y="50" text-anchor="start" dy="0em" style="font-family: 'Open Sans', verdana, arial, sans-serif; font-size: 17px; fill: rgb(42, 63, 95); opacity: 1; font-weight: normal; white-space: pre;">Aave V3 - Aave - Liquidity Mining: Cumulative Net Dollar Flow since Program Announcement</text></g><g class="g-xtitle"><text class="xtitle" x="314.5" y="460.8" text-anchor="middle" style="font-family: 'Open Sans', verdana, arial, sans-serif; font-size: 14px; fill: rgb(42, 63, 95); opacity: 1; font-weight: normal; white-space: pre;">Day</text></g><g class="g-ytitle"><text class="ytitle" transform="rotate(-90,17.496875000000003,260)" x="17.496875000000003" y="260" text-anchor="middle" style="font-family: 'Open Sans', verdana, arial, sans-serif; font-size: 14px; fill: rgb(42, 63, 95); opacity: 1; font-weight: normal; white-space: pre;">Cumulative Net Dollar Flow (N$F)</text></g></g></svg>