<svg class="main-svg" xmlns="http://www.w3.org/2000/svg" xmlns:xlink="http://www.w3.org/1999/xlink" width="700" height="500" style="" viewBox="0 0 700 500"><rect x="0" y="0" width="700" height="500" style="fill: rgb(255, 255, 255); fill-opacity: 1;"/><defs id="defs-dad38d"><g class="clips"><clipPath id="clipdad38dxyplot" class="plotclip"><rect width="540" height="320"/></clipPath><clipPath class="axesclip" id="clipdad38dx"><rect x="80" y="0" width="540" height="500"/></clipPath><clipPath class="axesclip" id="clipdad38dy"><rect x="0" y="100" width="700" height="320"/></clipPath><clipPath class="axesclip" id="clipdad38dxy"><rect x="80" y="100" width="540" height="320"/></clipPath></g><g class="gradients"/><g class="patterns"/></defs><g class="bglayer"><rect class="bg" x="80" y="100" width="540" height="320" style="fill: rgb(229, 236, 246); fill-opacity: 1; stroke-width: 0;"/></g><g class="layer-below"><g class="imagelayer"/><g class="shapelayer"/></g><g class="cartesianlayer"><g class="subplot xy"><g class="layer-subplot"><g class="shapelayer"/><g class="imagelayer"/></g><g class="minor-gridlayer"><g class="x"/><g class="y"/></g><g class="gridlayer"><g class="x"><path class="xgrid crisp" transform="translate(100.88,0)" d="M0,100v320" style="stroke: rgb(255, 255, 255); stroke-opacity: 1; stroke-width: 1px;"/><path class="xgrid crisp" transform="translate(190.39,0)" d="M0,100v320" style="stroke: rgb(255, 255, 255); stroke-opacity: 1; stroke-width: 1px;"/><path class="xgrid crisp" transform="translate(282.87,0)" d="M0,100v320" style="stroke: rgb(255, 255, 255); stroke-opacity: 1; stroke-width: 1px;"/><path class="xgrid crisp" transform="translate(372.38,0)" d="M0,100v320" style="stroke: rgb(255, 255, 255); stroke-opacity: 1; stroke-width: 1px;"/><path class="xgrid crisp" transform="translate(464.86,0)" d="M0,100v320" style="stroke: rgb(255, 255, 255); stroke-opacity: 1; stroke-width: 1px;"/><path class="xgrid crisp" transform="translate(557.35,0)" d="M0,100v320" style="stroke: rgb(255, 255, 255); stroke-opacity: 1; stroke-width: 1px;"/></g><g class="y"><path class="ygrid crisp" transform="translate(0,367.29)" d="M80,0h540" style="stroke: rgb(255, 255, 255); stroke-opacity: 1; stroke-width: 1px;"/><path class="ygrid crisp" transform="translate(0,314.57)" d="M80,0h540" style="stroke: rgb(255, 255, 255); stroke-opacity: 1; stroke-width: 1px;"/><path class="ygrid crisp" transform="translate(0,261.86)" d="M80,0h540" style="stroke: rgb(255, 255, 255); stroke-opacity: 1; stroke-width: 1px;"/><path class="ygrid crisp" transform="translate(0,209.15)" d="M80,0h540" style="stroke: rgb(255, 255, 255); stroke-opacity: 1; stroke-width: 1px;"/><path class="ygrid crisp" transform="translate(0,156.44)" d="M80,0h540" style="stroke: rgb(255, 255, 255); stroke-opacity: 1; stroke-width: 1px;"/><path class="ygrid crisp" transform="translate(0,103.72)" d="M80,0h540" style="stroke: rgb(255, 255, 255); stroke-opacity: 1; stroke-width: 1px;"/></g></g><g class="zerolinelayer"><path class="yzl zl crisp" transform="translate(0,420)" d="M80,0h540" style="stroke: rgb(255, 255, 255); stroke-opacity: 1; stroke-width: 2px;"/></g><path class="xlines-below"/><path class="ylines-below"/><g class="overlines-below"/><g class="xaxislayer-below"/><g class="yaxislayer-below"/><g class="overaxes-below"/><g class="plot" transform="translate(80,100)" clip-path="url(#clipdad38dxyplot)"><g class="scatterlayer mlayer"><g class="trace scatter trace8be847" style="stroke-miterlimit: 2;"><g class="fills"><g><path class="js-fill" d="M540,320L0,320L0,318.9L2.98,271.92L5.97,263.81L8.95,260.28L11.93,260.21L14.92,252.96L17.9,250L20.88,248.39L23.87,250.36L26.85,243.63L29.83,240.98L32.82,237.19L35.8,247.36L38.78,244.55L41.77,247.34L44.75,236.35L47.73,231.35L50.72,228.32L53.7,227.39L56.69,230.39L59.67,234.54L62.65,236.03L65.64,222.1L68.62,212.93L71.6,211.4L74.59,208.74L77.57,214.81L80.55,214.62L83.54,211.57L89.5,211.5L92.49,212.43L95.47,210.59L98.45,209.89L101.44,177.83L104.42,180.11L107.4,186.84L110.39,185.44L113.37,185.34L116.35,186.82L122.32,189.34L125.3,197.42L128.29,193.34L131.27,202.76L134.25,202.75L137.24,204.07L140.22,208.07L143.2,205L149.17,204.22L152.15,201.58L158.12,201.14L161.1,199.18L164.09,200.81L167.07,200.56L181.99,200.9L184.97,199.08L187.96,199.93L190.94,213.56L193.92,211.06L196.91,197.57L211.82,197.75L214.81,198.14L217.79,199.15L220.77,197.09L223.76,196.9L226.74,234.38L229.72,239.07L232.71,224.91L235.69,218.27L238.67,225.13L241.66,213.95L244.64,212.5L247.62,211.45L250.61,213.53L253.59,218.29L256.57,217.16L259.56,216.07L262.54,218.02L265.52,218.59L268.51,218.19L271.49,211.61L274.48,212.11L277.46,210.96L280.44,210.8L292.38,210.56L295.36,207.77L298.34,207.85L301.33,203.39L304.31,202.82L307.29,196.94L310.28,182.4L313.26,175.94L316.24,176.45L319.23,174.4L322.21,174.28L325.19,172.66L328.18,168.51L331.16,167.69L334.14,162.58L337.13,159.23L340.11,163.42L343.09,163.42L346.08,163.49L349.06,167.04L352.04,181.97L355.03,182.43L358.01,182.95L360.99,182.01L369.94,182.06L372.93,188.28L375.91,188.16L378.9,184.46L381.88,169.31L384.86,166.17L387.85,171.11L390.83,171.03L393.81,177.12L396.8,177.73L399.78,174.46L402.76,174.49L405.75,178.37L408.73,176.07L414.7,149.73L417.68,148.02L420.66,153.94L423.65,149.49L426.63,148.05L429.61,150.28L435.58,149.29L438.56,152.9L441.55,147.76L444.53,136.36L447.51,132.79L450.5,131.85L453.48,129.67L456.46,103.38L459.45,48.93L462.43,44.68L465.41,47.55L468.4,35.97L471.38,35.02L474.36,18.43L477.35,17.96L480.33,16L483.31,21.23L486.3,33.62L489.28,38.7L492.27,38.68L495.25,48.78L498.23,67.17L501.22,69.83L504.2,70.28L507.18,69.97L510.17,45.58L513.15,48.05L516.13,45.35L519.12,45.68L522.1,43.05L525.08,49.14L528.07,60.35L531.05,60.63L534.03,61.76L537.02,78.27L540,79.1" style="fill: rgb(99, 110, 250); fill-opacity: 0.5; stroke-width: 0;"/></g></g><g class="errorbars"/><g class="lines"><path class="js-line" d="M0,318.9L2.98,271.92L5.97,263.81L8.95,260.28L11.93,260.21L14.92,252.96L17.9,250L20.88,248.39L23.87,250.36L26.85,243.63L29.83,240.98L32.82,237.19L35.8,247.36L38.78,244.55L41.77,247.34L44.75,236.35L47.73,231.35L50.72,228.32L53.7,227.39L56.69,230.39L59.67,234.54L62.65,236.03L65.64,222.1L68.62,212.93L71.6,211.4L74.59,208.74L77.57,214.81L80.55,214.62L83.54,211.57L89.5,211.5L92.49,212.43L95.47,210.59L98.45,209.89L101.44,177.83L104.42,180.11L107.4,186.84L110.39,185.44L113.37,185.34L116.35,186.82L122.32,189.34L125.3,197.42L128.29,193.34L131.27,202.76L134.25,202.75L137.24,204.07L140.22,208.07L143.2,205L149.17,204.22L152.15,201.58L158.12,201.14L161.1,199.18L164.09,200.81L167.07,200.56L181.99,200.9L184.97,199.08L187.96,199.93L190.94,213.56L193.92,211.06L196.91,197.57L211.82,197.75L214.81,198.14L217.79,199.15L220.77,197.09L223.76,196.9L226.74,234.38L229.72,239.07L232.71,224.91L235.69,218.27L238.67,225.13L241.66,213.95L244.64,212.5L247.62,211.45L250.61,213.53L253.59,218.29L256.57,217.16L259.56,216.07L262.54,218.02L265.52,218.59L268.51,218.19L271.49,211.61L274.48,212.11L277.46,210.96L280.44,210.8L292.38,210.56L295.36,207.77L298.34,207.85L301.33,203.39L304.31,202.82L307.29,196.94L310.28,182.4L313.26,175.94L316.24,176.45L319.23,174.4L322.21,174.28L325.19,172.66L328.18,168.51L331.16,167.69L334.14,162.58L337.13,159.23L340.11,163.42L343.09,163.42L346.08,163.49L349.06,167.04L352.04,181.97L355.03,182.43L358.01,182.95L360.99,182.01L369.94,182.06L372.93,188.28L375.91,188.16L378.9,184.46L381.88,169.31L384.86,166.17L387.85,171.11L390.83,171.03L393.81,177.12L396.8,177.73L399.78,174.46L402.76,174.49L405.75,178.37L408.73,176.07L414.7,149.73L417.68,148.02L420.66,153.94L423.65,149.49L426.63,148.05L429.61,150.28L435.58,149.29L438.56,152.9L441.55,147.76L444.53,136.36L447.51,132.79L450.5,131.85L453.48,129.67L456.46,103.38L459.45,48.93L462.43,44.68L465.41,47.55L468.4,35.97L471.38,35.02L474.36,18.43L477.35,17.96L480.33,16L483.31,21.23L486.3,33.62L489.28,38.7L492.27,38.68L495.25,48.78L498.23,67.17L501.22,69.83L504.2,70.28L507.18,69.97L510.17,45.58L513.15,48.05L516.13,45.35L519.12,45.68L522.1,43.05L525.08,49.14L528.07,60.35L531.05,60.63L534.03,61.76L537.02,78.27L540,79.1" style="vector-effect: non-scaling-stroke; fill: none; stroke: rgb(99, 110, 250); stroke-opacity: 1; stroke-width: 2px; opacity: 1;"/></g><g class="points"/><g class="text"/></g></g></g><g class="overplot"/><path class="xlines-above crisp" d="M0,0" style="fill: none;"/><path class="ylines-above crisp" d="M0,0" style="fill: none;"/><g class="overlines-above"/><g class="xaxislayer-above"><g class="xtick"><text text-anchor="middle" x="0" y="433" transform="translate(100.88,0)" style="font-family: 'Open Sans', verdana, arial, sans-serif; font-size: 12px; fill: rgb(42, 63, 95); fill-opacity: 1; white-space: pre; opacity: 1;">Sep 2022</text></g><g class="xtick"><text text-anchor="middle" x="0" y="433" style="font-family: 'Open Sans', verdana, arial, sans-serif; font-size: 12px; fill: rgb(42, 63, 95); fill-opacity: 1; white-space: pre; opacity: 1;" transform="translate(190.39,0)">Oct 2022</text></g><g class="xtick"><text text-anchor="middle" x="0" y="433" style="font-family: 'Open Sans', verdana, arial, sans-serif; font-size: 12px; fill: rgb(42, 63, 95); fill-opacity: 1; white-space: pre; opacity: 1;" transform="translate(282.87,0)">Nov 2022</text></g><g class="xtick"><text text-anchor="middle" x="0" y="433" style="font-family: 'Open Sans', verdana, arial, sans-serif; font-size: 12px; fill: rgb(42, 63, 95); fill-opacity: 1; white-space: pre; opacity: 1;" transform="translate(372.38,0)">Dec 2022</text></g><g class="xtick"><text text-anchor="middle" x="0" y="433" style="font-family: 'Open Sans', verdana, arial, sans-serif; font-size: 12px; fill: rgb(42, 63, 95); fill-opacity: 1; white-space: pre; opacity: 1;" transform="translate(464.86,0)">Jan 2023</text></g><g class="xtick"><text text-anchor="middle" x="0" y="433" style="font-family: 'Open Sans', verdana, arial, sans-serif; font-size: 12px; fill: rgb(42, 63, 95); fill-opacity: 1; white-space: pre; opacity: 1;" transform="translate(557.35,0)">Feb 2023</text></g></g><g class="yaxislayer-above"><g class="ytick"><text text-anchor="end" x="79" y="4.199999999999999" transform="translate(0,420)" style="font-family: 'Open Sans', verdana, arial, sans-serif; font-size: 12px; fill: rgb(42, 63, 95); fill-opacity: 1; white-space: pre; opacity: 1;">$0</text></g><g class="ytick"><text text-anchor="end" x="79" y="4.199999999999999" style="font-family: 'Open Sans', verdana, arial, sans-serif; font-size: 12px; fill: rgb(42, 63, 95); fill-opacity: 1; white-space: pre; opacity: 1;" transform="translate(0,367.29)">$5M</text></g><g class="ytick"><text text-anchor="end" x="79" y="4.199999999999999" style="font-family: 'Open Sans', verdana, arial, sans-serif; font-size: 12px; fill: rgb(42, 63, 95); fill-opacity: 1; white-space: pre; opacity: 1;" transform="translate(0,314.57)">$10M</text></g><g class="ytick"><text text-anchor="end" x="79" y="4.199999999999999" style="font-family: 'Open Sans', verdana, arial, sans-serif; font-size: 12px; fill: rgb(42, 63, 95); fill-opacity: 1; white-space: pre; opacity: 1;" transform="translate(0,261.86)">$15M</text></g><g class="ytick"><text text-anchor="end" x="79" y="4.199999999999999" style="font-family: 'Open Sans', verdana, arial, sans-serif; font-size: 12px; fill: rgb(42, 63, 95); fill-opacity: 1; white-space: pre; opacity: 1;" transform="translate(0,209.15)">$20M</text></g><g class="ytick"><text text-anchor="end" x="79" y="4.199999999999999" style="font-family: 'Open Sans', verdana, arial, sans-serif; font-size: 12px; fill: rgb(42, 63, 95); fill-opacity: 1; white-space: pre; opacity: 1;" transform="translate(0,156.44)">$25M</text></g><g class="ytick"><text text-anchor="end" x="79" y="4.199999999999999" style="font-family: 'Open Sans', verdana, arial, sans-serif; font-size: 12px; fill: rgb(42, 63, 95); fill-opacity: 1; white-space: pre; opacity: 1;" transform="translate(0,103.72)">$30M</text></g></g><g class="overaxes-above"/></g></g><g class="polarlayer"/><g class="smithlayer"/><g class="ternarylayer"/><g class="geolayer"/><g class="funnelarealayer"/><g class="pielayer"/><g class="iciclelayer"/><g class="treemaplayer"/><g class="sunburstlayer"/><g class="glimages"/><defs id="topdefs-dad38d"><g class="clips"/></defs><g class="layer-above"><g class="imagelayer"/><g class="shapelayer"/></g><g class="infolayer"><g class="g-gtitle"><text class="gtitle" x="35" y="50" text-anchor="start" dy="0em" style="font-family: 'Open Sans', verdana, arial, sans-serif; font-size: 17px; fill: rgb(42, 63, 95); opacity: 1; font-weight: normal; white-space: pre;"><tspan class="line" dy="0em" x="35" y="50">Synthetix - sETH-ETH: Curve</tspan><tspan class="line" dy="1.3em" x="35" y="50">​<tspan style="font-size:70%" dy="-0.6em">Cumulative Net Flows since Program Announcement, Until Program End + 30 Days</tspan><tspan dy="0.42em">​</tspan></tspan></text></g><g class="g-xtitle"><text class="xtitle" x="350" y="460.8" text-anchor="middle" style="font-family: 'Open Sans', verdana, arial, sans-serif; font-size: 14px; fill: rgb(42, 63, 95); opacity: 1; font-weight: normal; white-space: pre;">Day</text></g><g class="g-ytitle"><text class="ytitle" transform="rotate(-90,24.168750000000003,260)" x="24.168750000000003" y="260" text-anchor="middle" style="font-family: 'Open Sans', verdana, arial, sans-serif; font-size: 14px; fill: rgb(42, 63, 95); opacity: 1; font-weight: normal; white-space: pre;">Cumulative Net Flows (USD)</text></g></g></svg>