<svg class="main-svg" xmlns="http://www.w3.org/2000/svg" xmlns:xlink="http://www.w3.org/1999/xlink" width="700" height="500" style="" viewBox="0 0 700 500"><rect x="0" y="0" width="700" height="500" style="fill: rgb(255, 255, 255); fill-opacity: 1;"/><defs id="defs-6c5f37"><g class="clips"><clipPath id="clip6c5f37xyplot" class="plotclip"><rect width="540" height="320"/></clipPath><clipPath class="axesclip" id="clip6c5f37x"><rect x="80" y="0" width="540" height="500"/></clipPath><clipPath class="axesclip" id="clip6c5f37y"><rect x="0" y="100" width="700" height="320"/></clipPath><clipPath class="axesclip" id="clip6c5f37xy"><rect x="80" y="100" width="540" height="320"/></clipPath></g><g class="gradients"/><g class="patterns"/></defs><g class="bglayer"><rect class="bg" x="80" y="100" width="540" height="320" style="fill: rgb(229, 236, 246); fill-opacity: 1; stroke-width: 0;"/></g><g class="layer-below"><g class="imagelayer"/><g class="shapelayer"/></g><g class="cartesianlayer"><g class="subplot xy"><g class="layer-subplot"><g class="shapelayer"/><g class="imagelayer"/></g><g class="minor-gridlayer"><g class="x"/><g class="y"/></g><g class="gridlayer"><g class="x"><path class="xgrid crisp" transform="translate(131.02,0)" d="M0,100v320" style="stroke: rgb(255, 255, 255); stroke-opacity: 1; stroke-width: 1px;"/><path class="xgrid crisp" transform="translate(262.83000000000004,0)" d="M0,100v320" style="stroke: rgb(255, 255, 255); stroke-opacity: 1; stroke-width: 1px;"/><path class="xgrid crisp" transform="translate(390.39,0)" d="M0,100v320" style="stroke: rgb(255, 255, 255); stroke-opacity: 1; stroke-width: 1px;"/><path class="xgrid crisp" transform="translate(522.2,0)" d="M0,100v320" style="stroke: rgb(255, 255, 255); stroke-opacity: 1; stroke-width: 1px;"/></g><g class="y"><path class="ygrid crisp" transform="translate(0,383.29)" d="M80,0h540" style="stroke: rgb(255, 255, 255); stroke-opacity: 1; stroke-width: 1px;"/><path class="ygrid crisp" transform="translate(0,346.58000000000004)" d="M80,0h540" style="stroke: rgb(255, 255, 255); stroke-opacity: 1; stroke-width: 1px;"/><path class="ygrid crisp" transform="translate(0,309.88)" d="M80,0h540" style="stroke: rgb(255, 255, 255); stroke-opacity: 1; stroke-width: 1px;"/><path class="ygrid crisp" transform="translate(0,273.16999999999996)" d="M80,0h540" style="stroke: rgb(255, 255, 255); stroke-opacity: 1; stroke-width: 1px;"/><path class="ygrid crisp" transform="translate(0,236.46)" d="M80,0h540" style="stroke: rgb(255, 255, 255); stroke-opacity: 1; stroke-width: 1px;"/><path class="ygrid crisp" transform="translate(0,199.75)" d="M80,0h540" style="stroke: rgb(255, 255, 255); stroke-opacity: 1; stroke-width: 1px;"/><path class="ygrid crisp" transform="translate(0,163.04)" d="M80,0h540" style="stroke: rgb(255, 255, 255); stroke-opacity: 1; stroke-width: 1px;"/><path class="ygrid crisp" transform="translate(0,126.34)" d="M80,0h540" style="stroke: rgb(255, 255, 255); stroke-opacity: 1; stroke-width: 1px;"/></g></g><g class="zerolinelayer"><path class="yzl zl crisp" transform="translate(0,420)" d="M80,0h540" style="stroke: rgb(255, 255, 255); stroke-opacity: 1; stroke-width: 2px;"/></g><path class="xlines-below"/><path class="ylines-below"/><g class="overlines-below"/><g class="xaxislayer-below"/><g class="yaxislayer-below"/><g class="overaxes-below"/><g class="plot" transform="translate(80,100)" clip-path="url(#clip6c5f37xyplot)"><g class="scatterlayer mlayer"><g class="trace scatter traceb08785" style="stroke-miterlimit: 2;"><g class="fills"><g><path class="js-fill" d="M540,320L0,320L0,320L4.25,317.86L8.5,311.87L12.76,294.13L17.01,284.95L21.26,283.75L25.51,277.84L29.76,273.53L34.02,273.36L38.27,270.95L42.52,267.09L46.77,271.95L51.02,271.55L55.28,273.57L59.53,272.04L63.78,271.11L68.03,271.14L85.04,271.51L89.29,270.28L93.54,269.81L97.8,268.05L106.3,267.12L110.55,268.2L114.8,265.12L119.06,265.09L127.56,264.96L131.81,262.72L136.06,262.72L140.31,268.14L153.07,268.45L157.32,267.47L161.57,213.29L165.83,138.73L170.08,110.3L174.33,107.49L178.58,100.76L182.83,99.05L187.09,106.01L191.34,109.61L195.59,101.98L199.84,105.84L204.09,102.56L208.35,104.32L212.6,95.81L216.85,117.68L221.1,135.88L225.35,148.48L229.61,169.12L233.86,175.75L238.11,178.18L242.36,178.32L246.61,178.43L250.87,177.73L255.12,188.96L259.37,188.87L263.62,188.64L267.87,195.63L272.13,194.36L276.38,196.39L284.88,197.1L289.13,198.8L310.39,198.75L314.65,197.94L318.9,194.18L323.15,192.02L327.4,191.9L331.65,189.57L344.41,189.17L348.66,185.75L352.91,184.52L357.17,184.52L361.42,184.49L365.67,192.86L382.68,192.56L386.93,194.27L395.43,194.28L399.69,191.94L408.19,191.46L412.44,190.13L416.69,190.01L420.94,190.82L429.45,190.46L433.7,188.06L437.95,189.6L442.2,189.54L450.71,189.45L454.96,188.09L459.21,187.96L463.46,185.23L471.97,185.34L476.22,208.14L480.47,210.45L484.72,210.57L488.98,207.61L493.23,208.02L501.73,217.59L505.98,210.64L510.24,210.67L514.49,208.29L518.74,205.25L522.99,71.15L527.24,72.49L531.5,56.61L535.75,25.85L540,16" style="fill: rgb(99, 110, 250); fill-opacity: 0.5; stroke-width: 0;"/></g></g><g class="errorbars"/><g class="lines"><path class="js-line" d="M0,320L4.25,317.86L8.5,311.87L12.76,294.13L17.01,284.95L21.26,283.75L25.51,277.84L29.76,273.53L34.02,273.36L38.27,270.95L42.52,267.09L46.77,271.95L51.02,271.55L55.28,273.57L59.53,272.04L63.78,271.11L68.03,271.14L85.04,271.51L89.29,270.28L93.54,269.81L97.8,268.05L106.3,267.12L110.55,268.2L114.8,265.12L119.06,265.09L127.56,264.96L131.81,262.72L136.06,262.72L140.31,268.14L153.07,268.45L157.32,267.47L161.57,213.29L165.83,138.73L170.08,110.3L174.33,107.49L178.58,100.76L182.83,99.05L187.09,106.01L191.34,109.61L195.59,101.98L199.84,105.84L204.09,102.56L208.35,104.32L212.6,95.81L216.85,117.68L221.1,135.88L225.35,148.48L229.61,169.12L233.86,175.75L238.11,178.18L242.36,178.32L246.61,178.43L250.87,177.73L255.12,188.96L259.37,188.87L263.62,188.64L267.87,195.63L272.13,194.36L276.38,196.39L284.88,197.1L289.13,198.8L310.39,198.75L314.65,197.94L318.9,194.18L323.15,192.02L327.4,191.9L331.65,189.57L344.41,189.17L348.66,185.75L352.91,184.52L357.17,184.52L361.42,184.49L365.67,192.86L382.68,192.56L386.93,194.27L395.43,194.28L399.69,191.94L408.19,191.46L412.44,190.13L416.69,190.01L420.94,190.82L429.45,190.46L433.7,188.06L437.95,189.6L442.2,189.54L450.71,189.45L454.96,188.09L459.21,187.96L463.46,185.23L471.97,185.34L476.22,208.14L480.47,210.45L484.72,210.57L488.98,207.61L493.23,208.02L501.73,217.59L505.98,210.64L510.24,210.67L514.49,208.29L518.74,205.25L522.99,71.15L527.24,72.49L531.5,56.61L535.75,25.85L540,16" style="vector-effect: non-scaling-stroke; fill: none; stroke: rgb(99, 110, 250); stroke-opacity: 1; stroke-width: 2px; opacity: 1;"/></g><g class="points"/><g class="text"/></g></g></g><g class="overplot"/><path class="xlines-above crisp" d="M0,0" style="fill: none;"/><path class="ylines-above crisp" d="M0,0" style="fill: none;"/><g class="overlines-above"/><g class="xaxislayer-above"><g class="xtick"><text text-anchor="middle" x="0" y="433" transform="translate(131.02,0)" style="font-family: 'Open Sans', verdana, arial, sans-serif; font-size: 12px; fill: rgb(42, 63, 95); fill-opacity: 1; white-space: pre; opacity: 1;">Oct 2022</text></g><g class="xtick"><text text-anchor="middle" x="0" y="433" style="font-family: 'Open Sans', verdana, arial, sans-serif; font-size: 12px; fill: rgb(42, 63, 95); fill-opacity: 1; white-space: pre; opacity: 1;" transform="translate(262.83000000000004,0)">Nov 2022</text></g><g class="xtick"><text text-anchor="middle" x="0" y="433" style="font-family: 'Open Sans', verdana, arial, sans-serif; font-size: 12px; fill: rgb(42, 63, 95); fill-opacity: 1; white-space: pre; opacity: 1;" transform="translate(390.39,0)">Dec 2022</text></g><g class="xtick"><text text-anchor="middle" x="0" y="433" style="font-family: 'Open Sans', verdana, arial, sans-serif; font-size: 12px; fill: rgb(42, 63, 95); fill-opacity: 1; white-space: pre; opacity: 1;" transform="translate(522.2,0)">Jan 2023</text></g></g><g class="yaxislayer-above"><g class="ytick"><text text-anchor="end" x="79" y="4.199999999999999" transform="translate(0,420)" style="font-family: 'Open Sans', verdana, arial, sans-serif; font-size: 12px; fill: rgb(42, 63, 95); fill-opacity: 1; white-space: pre; opacity: 1;">$0</text></g><g class="ytick"><text text-anchor="end" x="79" y="4.199999999999999" style="font-family: 'Open Sans', verdana, arial, sans-serif; font-size: 12px; fill: rgb(42, 63, 95); fill-opacity: 1; white-space: pre; opacity: 1;" transform="translate(0,383.29)">$0.5M</text></g><g class="ytick"><text text-anchor="end" x="79" y="4.199999999999999" style="font-family: 'Open Sans', verdana, arial, sans-serif; font-size: 12px; fill: rgb(42, 63, 95); fill-opacity: 1; white-space: pre; opacity: 1;" transform="translate(0,346.58000000000004)">$1M</text></g><g class="ytick"><text text-anchor="end" x="79" y="4.199999999999999" style="font-family: 'Open Sans', verdana, arial, sans-serif; font-size: 12px; fill: rgb(42, 63, 95); fill-opacity: 1; white-space: pre; opacity: 1;" transform="translate(0,309.88)">$1.5M</text></g><g class="ytick"><text text-anchor="end" x="79" y="4.199999999999999" style="font-family: 'Open Sans', verdana, arial, sans-serif; font-size: 12px; fill: rgb(42, 63, 95); fill-opacity: 1; white-space: pre; opacity: 1;" transform="translate(0,273.16999999999996)">$2M</text></g><g class="ytick"><text text-anchor="end" x="79" y="4.199999999999999" style="font-family: 'Open Sans', verdana, arial, sans-serif; font-size: 12px; fill: rgb(42, 63, 95); fill-opacity: 1; white-space: pre; opacity: 1;" transform="translate(0,236.46)">$2.5M</text></g><g class="ytick"><text text-anchor="end" x="79" y="4.199999999999999" style="font-family: 'Open Sans', verdana, arial, sans-serif; font-size: 12px; fill: rgb(42, 63, 95); fill-opacity: 1; white-space: pre; opacity: 1;" transform="translate(0,199.75)">$3M</text></g><g class="ytick"><text text-anchor="end" x="79" y="4.199999999999999" style="font-family: 'Open Sans', verdana, arial, sans-serif; font-size: 12px; fill: rgb(42, 63, 95); fill-opacity: 1; white-space: pre; opacity: 1;" transform="translate(0,163.04)">$3.5M</text></g><g class="ytick"><text text-anchor="end" x="79" y="4.199999999999999" style="font-family: 'Open Sans', verdana, arial, sans-serif; font-size: 12px; fill: rgb(42, 63, 95); fill-opacity: 1; white-space: pre; opacity: 1;" transform="translate(0,126.34)">$4M</text></g></g><g class="overaxes-above"/></g></g><g class="polarlayer"/><g class="smithlayer"/><g class="ternarylayer"/><g class="geolayer"/><g class="funnelarealayer"/><g class="pielayer"/><g class="iciclelayer"/><g class="treemaplayer"/><g class="sunburstlayer"/><g class="glimages"/><defs id="topdefs-6c5f37"><g class="clips"/></defs><g class="layer-above"><g class="imagelayer"/><g class="shapelayer"/></g><g class="infolayer"><g class="g-gtitle"><text class="gtitle" x="35" y="50" text-anchor="start" dy="0em" style="font-family: 'Open Sans', verdana, arial, sans-serif; font-size: 17px; fill: rgb(42, 63, 95); opacity: 1; font-weight: normal; white-space: pre;"><tspan class="line" dy="0em" x="35" y="50">Xtoken</tspan><tspan class="line" dy="1.3em" x="35" y="50">​<tspan style="font-size:70%" dy="-0.6em">Cumulative Net Dollar Flow since Program Announcement, Until Program End + 30 Days</tspan><tspan dy="0.42em">​</tspan></tspan></text></g><g class="g-xtitle"><text class="xtitle" x="350" y="460.8" text-anchor="middle" style="font-family: 'Open Sans', verdana, arial, sans-serif; font-size: 14px; fill: rgb(42, 63, 95); opacity: 1; font-weight: normal; white-space: pre;">Day</text></g><g class="g-ytitle"><text class="ytitle" transform="rotate(-90,20.840625000000003,260)" x="20.840625000000003" y="260" text-anchor="middle" style="font-family: 'Open Sans', verdana, arial, sans-serif; font-size: 14px; fill: rgb(42, 63, 95); opacity: 1; font-weight: normal; white-space: pre;">Cumulative Net Dollar Flow (N$F)</text></g></g></svg>