<svg class="main-svg" xmlns="http://www.w3.org/2000/svg" xmlns:xlink="http://www.w3.org/1999/xlink" width="700" height="500" style="" viewBox="0 0 700 500"><rect x="0" y="0" width="700" height="500" style="fill: rgb(255, 255, 255); fill-opacity: 1;"/><defs id="defs-3d4007"><g class="clips"><clipPath id="clip3d4007xyplot" class="plotclip"><rect width="540" height="320"/></clipPath><clipPath class="axesclip" id="clip3d4007x"><rect x="80" y="0" width="540" height="500"/></clipPath><clipPath class="axesclip" id="clip3d4007y"><rect x="0" y="100" width="700" height="320"/></clipPath><clipPath class="axesclip" id="clip3d4007xy"><rect x="80" y="100" width="540" height="320"/></clipPath></g><g class="gradients"/><g class="patterns"/></defs><g class="bglayer"><rect class="bg" x="80" y="100" width="540" height="320" style="fill: rgb(229, 236, 246); fill-opacity: 1; stroke-width: 0;"/></g><g class="layer-below"><g class="imagelayer"/><g class="shapelayer"/></g><g class="cartesianlayer"><g class="subplot xy"><g class="layer-subplot"><g class="shapelayer"/><g class="imagelayer"/></g><g class="minor-gridlayer"><g class="x"/><g class="y"/></g><g class="gridlayer"><g class="x"><path class="xgrid crisp" transform="translate(96.12,0)" d="M0,100v320" style="stroke: rgb(255, 255, 255); stroke-opacity: 1; stroke-width: 1px;"/><path class="xgrid crisp" transform="translate(221.04,0)" d="M0,100v320" style="stroke: rgb(255, 255, 255); stroke-opacity: 1; stroke-width: 1px;"/><path class="xgrid crisp" transform="translate(341.94,0)" d="M0,100v320" style="stroke: rgb(255, 255, 255); stroke-opacity: 1; stroke-width: 1px;"/><path class="xgrid crisp" transform="translate(466.87,0)" d="M0,100v320" style="stroke: rgb(255, 255, 255); stroke-opacity: 1; stroke-width: 1px;"/><path class="xgrid crisp" transform="translate(591.79,0)" d="M0,100v320" style="stroke: rgb(255, 255, 255); stroke-opacity: 1; stroke-width: 1px;"/></g><g class="y"><path class="ygrid crisp" transform="translate(0,301.5)" d="M80,0h540" style="stroke: rgb(255, 255, 255); stroke-opacity: 1; stroke-width: 1px;"/><path class="ygrid crisp" transform="translate(0,214.54000000000002)" d="M80,0h540" style="stroke: rgb(255, 255, 255); stroke-opacity: 1; stroke-width: 1px;"/><path class="ygrid crisp" transform="translate(0,127.57)" d="M80,0h540" style="stroke: rgb(255, 255, 255); stroke-opacity: 1; stroke-width: 1px;"/></g></g><g class="zerolinelayer"><path class="yzl zl crisp" transform="translate(0,388.46)" d="M80,0h540" style="stroke: rgb(255, 255, 255); stroke-opacity: 1; stroke-width: 2px;"/></g><path class="xlines-below"/><path class="ylines-below"/><g class="overlines-below"/><g class="xaxislayer-below"/><g class="yaxislayer-below"/><g class="overaxes-below"/><g class="plot" transform="translate(80,100)" clip-path="url(#clip3d4007xyplot)"><g class="scatterlayer mlayer"><g class="trace scatter tracebd69b4" style="stroke-miterlimit: 2;"><g class="fills"><g><path class="js-fill" d="M540,288.46L0,288.46L0,298.73L4.03,298.75L8.06,297.55L12.09,297.08L16.12,295.83L24.18,296.02L28.21,293.51L32.24,284.55L36.27,284.87L40.3,293.03L44.33,284.34L48.36,285.53L52.39,285.57L60.45,285.87L64.48,281.25L68.51,270.38L72.54,268.77L76.57,268.78L80.6,271.6L84.63,254.05L88.66,253.84L92.69,253.62L96.72,258.56L100.75,259.16L104.78,255.82L108.81,256.7L112.84,258.84L116.87,269.31L120.9,263.29L124.93,253.9L128.96,251.52L132.99,252.52L137.01,251.87L141.04,250.08L145.07,251.04L161.19,250.68L165.22,249.21L169.25,275.42L173.28,278L177.31,302.49L181.34,299.42L189.4,301.43L193.43,304L197.46,282.62L201.49,279.97L205.52,289.28L209.55,286.48L213.58,284.71L217.61,285.6L221.64,287.89L225.67,288.16L229.7,291.1L233.73,290.09L237.76,287.84L241.79,276.75L245.82,275.89L249.85,287.5L253.88,288.4L257.91,286.8L261.94,270.98L265.97,266.18L270,266.07L274.03,267.09L278.06,262.81L282.09,261.1L286.12,251.75L290.15,251.22L294.18,245.94L298.21,260.99L302.24,208.43L306.27,235.51L310.3,236.31L314.33,247.1L318.36,280.24L322.39,280.04L326.42,293.85L330.45,295.84L334.48,294.76L338.51,281.13L342.54,281L346.57,284.66L350.6,285.4L354.63,285.23L366.72,286.62L370.75,288.85L378.81,289.12L382.84,288.52L394.93,288.41L398.96,289.66L402.99,289.16L407.01,294L411.04,288.32L415.07,287.9L419.1,280.58L423.13,278.69L427.16,278.4L431.19,275.81L435.22,272.52L439.25,271.22L443.28,271.93L447.31,271.71L451.34,265.5L455.37,264.43L463.43,237.24L467.46,231.72L471.49,240.33L475.52,221.15L479.55,200.87L483.58,194.07L491.64,149.11L495.67,140.13L499.7,140.12L503.73,133.93L507.76,112.31L511.79,106.25L515.82,95.42L519.85,89.13L523.88,86.68L527.91,76.66L531.94,20.85L535.97,16.55L540,16" style="fill: rgb(99, 110, 250); fill-opacity: 0.5; stroke-width: 0;"/></g></g><g class="errorbars"/><g class="lines"><path class="js-line" d="M0,298.73L4.03,298.75L8.06,297.55L12.09,297.08L16.12,295.83L24.18,296.02L28.21,293.51L32.24,284.55L36.27,284.87L40.3,293.03L44.33,284.34L48.36,285.53L52.39,285.57L60.45,285.87L64.48,281.25L68.51,270.38L72.54,268.77L76.57,268.78L80.6,271.6L84.63,254.05L88.66,253.84L92.69,253.62L96.72,258.56L100.75,259.16L104.78,255.82L108.81,256.7L112.84,258.84L116.87,269.31L120.9,263.29L124.93,253.9L128.96,251.52L132.99,252.52L137.01,251.87L141.04,250.08L145.07,251.04L161.19,250.68L165.22,249.21L169.25,275.42L173.28,278L177.31,302.49L181.34,299.42L189.4,301.43L193.43,304L197.46,282.62L201.49,279.97L205.52,289.28L209.55,286.48L213.58,284.71L217.61,285.6L221.64,287.89L225.67,288.16L229.7,291.1L233.73,290.09L237.76,287.84L241.79,276.75L245.82,275.89L249.85,287.5L253.88,288.4L257.91,286.8L261.94,270.98L265.97,266.18L270,266.07L274.03,267.09L278.06,262.81L282.09,261.1L286.12,251.75L290.15,251.22L294.18,245.94L298.21,260.99L302.24,208.43L306.27,235.51L310.3,236.31L314.33,247.1L318.36,280.24L322.39,280.04L326.42,293.85L330.45,295.84L334.48,294.76L338.51,281.13L342.54,281L346.57,284.66L350.6,285.4L354.63,285.23L366.72,286.62L370.75,288.85L378.81,289.12L382.84,288.52L394.93,288.41L398.96,289.66L402.99,289.16L407.01,294L411.04,288.32L415.07,287.9L419.1,280.58L423.13,278.69L427.16,278.4L431.19,275.81L435.22,272.52L439.25,271.22L443.28,271.93L447.31,271.71L451.34,265.5L455.37,264.43L463.43,237.24L467.46,231.72L471.49,240.33L475.52,221.15L479.55,200.87L483.58,194.07L491.64,149.11L495.67,140.13L499.7,140.12L503.73,133.93L507.76,112.31L511.79,106.25L515.82,95.42L519.85,89.13L523.88,86.68L527.91,76.66L531.94,20.85L535.97,16.55L540,16" style="vector-effect: non-scaling-stroke; fill: none; stroke: rgb(99, 110, 250); stroke-opacity: 1; stroke-width: 2px; opacity: 1;"/></g><g class="points"/><g class="text"/></g></g></g><g class="overplot"/><path class="xlines-above crisp" d="M0,0" style="fill: none;"/><path class="ylines-above crisp" d="M0,0" style="fill: none;"/><g class="overlines-above"/><g class="xaxislayer-above"><g class="xtick"><text text-anchor="middle" x="0" y="433" transform="translate(96.12,0)" style="font-family: 'Open Sans', verdana, arial, sans-serif; font-size: 12px; fill: rgb(42, 63, 95); fill-opacity: 1; white-space: pre; opacity: 1;">Oct 2022</text></g><g class="xtick"><text text-anchor="middle" x="0" y="433" style="font-family: 'Open Sans', verdana, arial, sans-serif; font-size: 12px; fill: rgb(42, 63, 95); fill-opacity: 1; white-space: pre; opacity: 1;" transform="translate(221.04,0)">Nov 2022</text></g><g class="xtick"><text text-anchor="middle" x="0" y="433" style="font-family: 'Open Sans', verdana, arial, sans-serif; font-size: 12px; fill: rgb(42, 63, 95); fill-opacity: 1; white-space: pre; opacity: 1;" transform="translate(341.94,0)">Dec 2022</text></g><g class="xtick"><text text-anchor="middle" x="0" y="433" style="font-family: 'Open Sans', verdana, arial, sans-serif; font-size: 12px; fill: rgb(42, 63, 95); fill-opacity: 1; white-space: pre; opacity: 1;" transform="translate(466.87,0)">Jan 2023</text></g><g class="xtick"><text text-anchor="middle" x="0" y="433" style="font-family: 'Open Sans', verdana, arial, sans-serif; font-size: 12px; fill: rgb(42, 63, 95); fill-opacity: 1; white-space: pre; opacity: 1;" transform="translate(591.79,0)">Feb 2023</text></g></g><g class="yaxislayer-above"><g class="ytick"><text text-anchor="end" x="79" y="4.199999999999999" transform="translate(0,388.46)" style="font-family: 'Open Sans', verdana, arial, sans-serif; font-size: 12px; fill: rgb(42, 63, 95); fill-opacity: 1; white-space: pre; opacity: 1;">$0</text></g><g class="ytick"><text text-anchor="end" x="79" y="4.199999999999999" style="font-family: 'Open Sans', verdana, arial, sans-serif; font-size: 12px; fill: rgb(42, 63, 95); fill-opacity: 1; white-space: pre; opacity: 1;" transform="translate(0,301.5)">$5M</text></g><g class="ytick"><text text-anchor="end" x="79" y="4.199999999999999" style="font-family: 'Open Sans', verdana, arial, sans-serif; font-size: 12px; fill: rgb(42, 63, 95); fill-opacity: 1; white-space: pre; opacity: 1;" transform="translate(0,214.54000000000002)">$10M</text></g><g class="ytick"><text text-anchor="end" x="79" y="4.199999999999999" style="font-family: 'Open Sans', verdana, arial, sans-serif; font-size: 12px; fill: rgb(42, 63, 95); fill-opacity: 1; white-space: pre; opacity: 1;" transform="translate(0,127.57)">$15M</text></g></g><g class="overaxes-above"/></g></g><g class="polarlayer"/><g class="smithlayer"/><g class="ternarylayer"/><g class="geolayer"/><g class="funnelarealayer"/><g class="pielayer"/><g class="iciclelayer"/><g class="treemaplayer"/><g class="sunburstlayer"/><g class="glimages"/><defs id="topdefs-3d4007"><g class="clips"/></defs><g class="layer-above"><g class="imagelayer"/><g class="shapelayer"/></g><g class="infolayer"><g class="g-gtitle"><text class="gtitle" x="35" y="50" text-anchor="start" dy="0em" style="font-family: 'Open Sans', verdana, arial, sans-serif; font-size: 17px; fill: rgb(42, 63, 95); opacity: 1; font-weight: normal; white-space: pre;"><tspan class="line" dy="0em" x="35" y="50">Synthetix - USDC/sUSD: Velo</tspan><tspan class="line" dy="1.3em" x="35" y="50">​<tspan style="font-size:70%" dy="-0.6em">Cumulative Net Flows since Program Announcement, Until Program End + 30 Days</tspan><tspan dy="0.42em">​</tspan></tspan></text></g><g class="g-xtitle"><text class="xtitle" x="350" y="460.8" text-anchor="middle" style="font-family: 'Open Sans', verdana, arial, sans-serif; font-size: 14px; fill: rgb(42, 63, 95); opacity: 1; font-weight: normal; white-space: pre;">Day</text></g><g class="g-ytitle"><text class="ytitle" transform="rotate(-90,24.168750000000003,260)" x="24.168750000000003" y="260" text-anchor="middle" style="font-family: 'Open Sans', verdana, arial, sans-serif; font-size: 14px; fill: rgb(42, 63, 95); opacity: 1; font-weight: normal; white-space: pre;">Cumulative Net Flows (USD)</text></g></g></svg>