<svg class="main-svg" xmlns="http://www.w3.org/2000/svg" xmlns:xlink="http://www.w3.org/1999/xlink" width="700" height="500" style="" viewBox="0 0 700 500"><rect x="0" y="0" width="700" height="500" style="fill: rgb(255, 255, 255); fill-opacity: 1;"/><defs id="defs-aa0b2e"><g class="clips"><clipPath id="clipaa0b2exyplot" class="plotclip"><rect width="540" height="320"/></clipPath><clipPath class="axesclip" id="clipaa0b2ex"><rect x="80" y="0" width="540" height="500"/></clipPath><clipPath class="axesclip" id="clipaa0b2ey"><rect x="0" y="100" width="700" height="320"/></clipPath><clipPath class="axesclip" id="clipaa0b2exy"><rect x="80" y="100" width="540" height="320"/></clipPath></g><g class="gradients"/><g class="patterns"/></defs><g class="bglayer"><rect class="bg" x="80" y="100" width="540" height="320" style="fill: rgb(229, 236, 246); fill-opacity: 1; stroke-width: 0;"/></g><g class="layer-below"><g class="imagelayer"/><g class="shapelayer"/></g><g class="cartesianlayer"><g class="subplot xy"><g class="layer-subplot"><g class="shapelayer"/><g class="imagelayer"/></g><g class="minor-gridlayer"><g class="x"/><g class="y"/></g><g class="gridlayer"><g class="x"><path class="xgrid crisp" transform="translate(135.1,0)" d="M0,100v320" style="stroke: rgb(255, 255, 255); stroke-opacity: 1; stroke-width: 1px;"/><path class="xgrid crisp" transform="translate(212.24,0)" d="M0,100v320" style="stroke: rgb(255, 255, 255); stroke-opacity: 1; stroke-width: 1px;"/><path class="xgrid crisp" transform="translate(289.39,0)" d="M0,100v320" style="stroke: rgb(255, 255, 255); stroke-opacity: 1; stroke-width: 1px;"/><path class="xgrid crisp" transform="translate(366.53,0)" d="M0,100v320" style="stroke: rgb(255, 255, 255); stroke-opacity: 1; stroke-width: 1px;"/><path class="xgrid crisp" transform="translate(443.67,0)" d="M0,100v320" style="stroke: rgb(255, 255, 255); stroke-opacity: 1; stroke-width: 1px;"/><path class="xgrid crisp" transform="translate(520.8199999999999,0)" d="M0,100v320" style="stroke: rgb(255, 255, 255); stroke-opacity: 1; stroke-width: 1px;"/><path class="xgrid crisp" transform="translate(597.96,0)" d="M0,100v320" style="stroke: rgb(255, 255, 255); stroke-opacity: 1; stroke-width: 1px;"/></g><g class="y"><path class="ygrid crisp" transform="translate(0,338.72)" d="M80,0h540" style="stroke: rgb(255, 255, 255); stroke-opacity: 1; stroke-width: 1px;"/><path class="ygrid crisp" transform="translate(0,257.43)" d="M80,0h540" style="stroke: rgb(255, 255, 255); stroke-opacity: 1; stroke-width: 1px;"/><path class="ygrid crisp" transform="translate(0,176.15)" d="M80,0h540" style="stroke: rgb(255, 255, 255); stroke-opacity: 1; stroke-width: 1px;"/></g></g><g class="zerolinelayer"><path class="yzl zl crisp" transform="translate(0,420)" d="M80,0h540" style="stroke: rgb(255, 255, 255); stroke-opacity: 1; stroke-width: 2px;"/></g><path class="xlines-below"/><path class="ylines-below"/><g class="overlines-below"/><g class="xaxislayer-below"/><g class="yaxislayer-below"/><g class="overaxes-below"/><g class="plot" transform="translate(80,100)" clip-path="url(#clipaa0b2exyplot)"><g class="scatterlayer mlayer"><g class="trace scatter traced1e84f" style="stroke-miterlimit: 2;"><g class="fills"><g><path class="js-fill" d="M540,320L0,320L0,319.56L5.51,266.55L11.02,245.55L16.53,231.71L22.04,246.75L27.55,216.39L33.06,212.42L38.57,218.51L44.08,207.89L49.59,184.72L55.1,165.73L60.61,111.18L66.12,113.01L71.63,102.69L77.14,101.15L82.65,111.84L88.16,120.55L93.67,120.24L99.18,115.02L110.2,111.05L115.71,110.77L121.22,119.11L126.73,118.99L132.24,117.02L137.76,114.1L143.27,125.88L148.78,98.76L154.29,87.34L159.8,84.35L165.31,75.12L170.82,60.6L176.33,48.3L181.84,40.3L187.35,50.15L192.86,51.95L198.37,40L203.88,24.48L209.39,16L214.9,27.08L220.41,27.04L225.92,70.4L231.43,115.26L236.94,104.15L242.45,104.18L247.96,102.87L253.47,106.22L258.98,102.08L264.49,100.08L270,101.47L275.51,107.63L281.02,102.85L286.53,102.45L292.04,112.12L297.55,110.28L303.06,102.86L308.57,95.86L314.08,87.23L319.59,87.68L325.1,84.39L330.61,85.88L336.12,93.74L341.63,89.86L347.14,79.4L352.65,74.3L358.16,83.87L363.67,94.9L369.18,93.76L374.69,99.33L380.2,117.82L385.71,128.2L391.22,124.72L396.73,121.93L402.24,108.48L407.76,110.75L413.27,106.28L418.78,94.47L424.29,97.55L429.8,104.35L435.31,112.67L440.82,110.64L446.33,109.95L451.84,111.57L457.35,104.49L462.86,105.89L468.37,77.49L473.88,78.12L479.39,80.55L484.9,79.34L490.41,77.31L495.92,73.34L501.43,77.46L517.96,68.43L523.47,67.26L528.98,59.06L534.49,57.43L540,54.6" style="fill: rgb(99, 110, 250); fill-opacity: 0.5; stroke-width: 0;"/></g></g><g class="errorbars"/><g class="lines"><path class="js-line" d="M0,319.56L5.51,266.55L11.02,245.55L16.53,231.71L22.04,246.75L27.55,216.39L33.06,212.42L38.57,218.51L44.08,207.89L49.59,184.72L55.1,165.73L60.61,111.18L66.12,113.01L71.63,102.69L77.14,101.15L82.65,111.84L88.16,120.55L93.67,120.24L99.18,115.02L110.2,111.05L115.71,110.77L121.22,119.11L126.73,118.99L132.24,117.02L137.76,114.1L143.27,125.88L148.78,98.76L154.29,87.34L159.8,84.35L165.31,75.12L170.82,60.6L176.33,48.3L181.84,40.3L187.35,50.15L192.86,51.95L198.37,40L203.88,24.48L209.39,16L214.9,27.08L220.41,27.04L225.92,70.4L231.43,115.26L236.94,104.15L242.45,104.18L247.96,102.87L253.47,106.22L258.98,102.08L264.49,100.08L270,101.47L275.51,107.63L281.02,102.85L286.53,102.45L292.04,112.12L297.55,110.28L303.06,102.86L308.57,95.86L314.08,87.23L319.59,87.68L325.1,84.39L330.61,85.88L336.12,93.74L341.63,89.86L347.14,79.4L352.65,74.3L358.16,83.87L363.67,94.9L369.18,93.76L374.69,99.33L380.2,117.82L385.71,128.2L391.22,124.72L396.73,121.93L402.24,108.48L407.76,110.75L413.27,106.28L418.78,94.47L424.29,97.55L429.8,104.35L435.31,112.67L440.82,110.64L446.33,109.95L451.84,111.57L457.35,104.49L462.86,105.89L468.37,77.49L473.88,78.12L479.39,80.55L484.9,79.34L490.41,77.31L495.92,73.34L501.43,77.46L517.96,68.43L523.47,67.26L528.98,59.06L534.49,57.43L540,54.6" style="vector-effect: non-scaling-stroke; fill: none; stroke: rgb(99, 110, 250); stroke-opacity: 1; stroke-width: 2px; opacity: 1;"/></g><g class="points"/><g class="text"/></g></g></g><g class="overplot"/><path class="xlines-above crisp" d="M0,0" style="fill: none;"/><path class="ylines-above crisp" d="M0,0" style="fill: none;"/><g class="overlines-above"/><g class="xaxislayer-above"><g class="xtick"><text text-anchor="middle" x="0" y="433" transform="translate(135.1,0)" style="font-family: 'Open Sans', verdana, arial, sans-serif; font-size: 12px; fill: rgb(42, 63, 95); fill-opacity: 1; white-space: pre; opacity: 1;"><tspan class="line" dy="0em" x="0" y="433">Oct 9</tspan><tspan class="line" dy="1.3em" x="0" y="433">2022</tspan></text></g><g class="xtick"><text text-anchor="middle" x="0" y="433" style="font-family: 'Open Sans', verdana, arial, sans-serif; font-size: 12px; fill: rgb(42, 63, 95); fill-opacity: 1; white-space: pre; opacity: 1;" transform="translate(212.24,0)">Oct 23</text></g><g class="xtick"><text text-anchor="middle" x="0" y="433" style="font-family: 'Open Sans', verdana, arial, sans-serif; font-size: 12px; fill: rgb(42, 63, 95); fill-opacity: 1; white-space: pre; opacity: 1;" transform="translate(289.39,0)">Nov 6</text></g><g class="xtick"><text text-anchor="middle" x="0" y="433" style="font-family: 'Open Sans', verdana, arial, sans-serif; font-size: 12px; fill: rgb(42, 63, 95); fill-opacity: 1; white-space: pre; opacity: 1;" transform="translate(366.53,0)">Nov 20</text></g><g class="xtick"><text text-anchor="middle" x="0" y="433" style="font-family: 'Open Sans', verdana, arial, sans-serif; font-size: 12px; fill: rgb(42, 63, 95); fill-opacity: 1; white-space: pre; opacity: 1;" transform="translate(443.67,0)">Dec 4</text></g><g class="xtick"><text text-anchor="middle" x="0" y="433" style="font-family: 'Open Sans', verdana, arial, sans-serif; font-size: 12px; fill: rgb(42, 63, 95); fill-opacity: 1; white-space: pre; opacity: 1;" transform="translate(520.8199999999999,0)">Dec 18</text></g><g class="xtick"><text text-anchor="middle" x="0" y="433" style="font-family: 'Open Sans', verdana, arial, sans-serif; font-size: 12px; fill: rgb(42, 63, 95); fill-opacity: 1; white-space: pre; opacity: 1;" transform="translate(597.96,0)"><tspan class="line" dy="0em" x="0" y="433">Jan 1</tspan><tspan class="line" dy="1.3em" x="0" y="433">2023</tspan></text></g></g><g class="yaxislayer-above"><g class="ytick"><text text-anchor="end" x="79" y="4.199999999999999" transform="translate(0,420)" style="font-family: 'Open Sans', verdana, arial, sans-serif; font-size: 12px; fill: rgb(42, 63, 95); fill-opacity: 1; white-space: pre; opacity: 1;">$0</text></g><g class="ytick"><text text-anchor="end" x="79" y="4.199999999999999" style="font-family: 'Open Sans', verdana, arial, sans-serif; font-size: 12px; fill: rgb(42, 63, 95); fill-opacity: 1; white-space: pre; opacity: 1;" transform="translate(0,338.72)">$5M</text></g><g class="ytick"><text text-anchor="end" x="79" y="4.199999999999999" style="font-family: 'Open Sans', verdana, arial, sans-serif; font-size: 12px; fill: rgb(42, 63, 95); fill-opacity: 1; white-space: pre; opacity: 1;" transform="translate(0,257.43)">$10M</text></g><g class="ytick"><text text-anchor="end" x="79" y="4.199999999999999" style="font-family: 'Open Sans', verdana, arial, sans-serif; font-size: 12px; fill: rgb(42, 63, 95); fill-opacity: 1; white-space: pre; opacity: 1;" transform="translate(0,176.15)">$15M</text></g></g><g class="overaxes-above"/></g></g><g class="polarlayer"/><g class="smithlayer"/><g class="ternarylayer"/><g class="geolayer"/><g class="funnelarealayer"/><g class="pielayer"/><g class="iciclelayer"/><g class="treemaplayer"/><g class="sunburstlayer"/><g class="glimages"/><defs id="topdefs-aa0b2e"><g class="clips"/></defs><g class="layer-above"><g class="imagelayer"/><g class="shapelayer"/></g><g class="infolayer"><g class="g-gtitle"><text class="gtitle" x="35" y="50" text-anchor="start" dy="0em" style="font-family: 'Open Sans', verdana, arial, sans-serif; font-size: 17px; fill: rgb(42, 63, 95); opacity: 1; font-weight: normal; white-space: pre;"><tspan class="line" dy="0em" x="35" y="50">Beethoven X</tspan><tspan class="line" dy="1.3em" x="35" y="50">​<tspan style="font-size:70%" dy="-0.6em">Cumulative Net Dollar Flow since Program Announcement, Until Program End + 30 Days</tspan><tspan dy="0.42em">​</tspan></tspan></text></g><g class="g-xtitle"><text class="xtitle" x="350" y="476.409375" text-anchor="middle" style="font-family: 'Open Sans', verdana, arial, sans-serif; font-size: 14px; fill: rgb(42, 63, 95); opacity: 1; font-weight: normal; white-space: pre;">Day</text></g><g class="g-ytitle"><text class="ytitle" transform="rotate(-90,24.168750000000003,260)" x="24.168750000000003" y="260" text-anchor="middle" style="font-family: 'Open Sans', verdana, arial, sans-serif; font-size: 14px; fill: rgb(42, 63, 95); opacity: 1; font-weight: normal; white-space: pre;">Cumulative Net Dollar Flow (N$F)</text></g></g></svg>