<svg class="main-svg" xmlns="http://www.w3.org/2000/svg" xmlns:xlink="http://www.w3.org/1999/xlink" width="700" height="500" style="" viewBox="0 0 700 500"><rect x="0" y="0" width="700" height="500" style="fill: rgb(255, 255, 255); fill-opacity: 1;"/><defs id="defs-58cbb7"><g class="clips"><clipPath id="clip58cbb7xyplot" class="plotclip"><rect width="540" height="320"/></clipPath><clipPath class="axesclip" id="clip58cbb7x"><rect x="80" y="0" width="540" height="500"/></clipPath><clipPath class="axesclip" id="clip58cbb7y"><rect x="0" y="100" width="700" height="320"/></clipPath><clipPath class="axesclip" id="clip58cbb7xy"><rect x="80" y="100" width="540" height="320"/></clipPath></g><g class="gradients"/><g class="patterns"/></defs><g class="bglayer"><rect class="bg" x="80" y="100" width="540" height="320" style="fill: rgb(229, 236, 246); fill-opacity: 1; stroke-width: 0;"/></g><g class="layer-below"><g class="imagelayer"/><g class="shapelayer"/></g><g class="cartesianlayer"><g class="subplot xy"><g class="layer-subplot"><g class="shapelayer"/><g class="imagelayer"/></g><g class="minor-gridlayer"><g class="x"/><g class="y"/></g><g class="gridlayer"><g class="x"><path class="xgrid crisp" transform="translate(93.33,0)" d="M0,100v320" style="stroke: rgb(255, 255, 255); stroke-opacity: 1; stroke-width: 1px;"/><path class="xgrid crisp" transform="translate(196.67000000000002,0)" d="M0,100v320" style="stroke: rgb(255, 255, 255); stroke-opacity: 1; stroke-width: 1px;"/><path class="xgrid crisp" transform="translate(296.66999999999996,0)" d="M0,100v320" style="stroke: rgb(255, 255, 255); stroke-opacity: 1; stroke-width: 1px;"/><path class="xgrid crisp" transform="translate(400,0)" d="M0,100v320" style="stroke: rgb(255, 255, 255); stroke-opacity: 1; stroke-width: 1px;"/><path class="xgrid crisp" transform="translate(503.33,0)" d="M0,100v320" style="stroke: rgb(255, 255, 255); stroke-opacity: 1; stroke-width: 1px;"/><path class="xgrid crisp" transform="translate(596.67,0)" d="M0,100v320" style="stroke: rgb(255, 255, 255); stroke-opacity: 1; stroke-width: 1px;"/></g><g class="y"><path class="ygrid crisp" transform="translate(0,330.19)" d="M80,0h540" style="stroke: rgb(255, 255, 255); stroke-opacity: 1; stroke-width: 1px;"/><path class="ygrid crisp" transform="translate(0,260.98)" d="M80,0h540" style="stroke: rgb(255, 255, 255); stroke-opacity: 1; stroke-width: 1px;"/><path class="ygrid crisp" transform="translate(0,191.76999999999998)" d="M80,0h540" style="stroke: rgb(255, 255, 255); stroke-opacity: 1; stroke-width: 1px;"/><path class="ygrid crisp" transform="translate(0,122.55)" d="M80,0h540" style="stroke: rgb(255, 255, 255); stroke-opacity: 1; stroke-width: 1px;"/></g></g><g class="zerolinelayer"><path class="yzl zl crisp" transform="translate(0,399.41)" d="M80,0h540" style="stroke: rgb(255, 255, 255); stroke-opacity: 1; stroke-width: 2px;"/></g><path class="xlines-below"/><path class="ylines-below"/><g class="overlines-below"/><g class="xaxislayer-below"/><g class="yaxislayer-below"/><g class="overaxes-below"/><g class="plot" transform="translate(80,100)" clip-path="url(#clip58cbb7xyplot)"><g class="scatterlayer mlayer"><g class="trace scatter trace52a126" style="stroke-miterlimit: 2;"><g class="fills"><g><path class="js-fill" d="M540,299.41L0,299.41L0,298.06L3.33,298.45L6.67,299.81L10,300.86L13.33,300.84L26.67,298.83L30,299.33L36.67,296.33L40,292.32L43.33,291.31L46.67,291.27L50,291.29L53.33,290.06L56.67,274.68L60,278.55L63.33,272.25L66.67,273.21L73.33,274.91L76.67,275.28L83.33,275.24L86.67,274.31L90,274.42L93.33,275.94L100,290.61L103.33,289.64L113.33,288.6L116.67,289.37L120,289.48L123.33,280.29L133.33,280.6L136.67,281.75L140,301.16L143.33,304L150,301.95L153.33,303.07L160,302.69L163.33,301.08L166.67,303.24L170,299.48L173.33,295.34L176.67,294.96L180,295.82L183.33,295.48L186.67,296.55L190,295.78L193.33,279.16L196.67,279.23L206.67,279.16L210,278.16L213.33,279.04L216.67,278.81L223.33,278.35L226.67,275.18L230,275.26L233.33,284.25L236.67,284.47L240,299.23L243.33,291.15L246.67,290.67L250,290.51L253.33,287.96L256.67,283.51L260,283.14L263.33,282.78L266.67,283.94L273.33,283.91L276.67,285.14L280,284.62L283.33,281.9L286.67,276.56L290,276.35L296.67,276.23L300,279L303.33,284.3L306.67,284.02L310,284L313.33,285.32L316.67,290.85L320,290.72L323.33,286.87L326.67,287.29L330,285.49L333.33,286.59L336.67,287.63L340,287.05L343.33,288.22L346.67,287.49L353.33,287.03L356.67,286.4L360,286.31L363.33,287.37L373.33,286.74L376.67,285.47L380,280.88L383.33,285.2L386.67,276.35L390,275.85L393.33,276.21L396.67,267.63L400,232.82L403.33,227.28L406.67,223.61L410,223.8L413.33,223.82L416.67,221.12L423.33,221.03L426.67,214.86L430,211.99L433.33,201.07L436.67,198.66L440,189.83L443.33,189.66L446.67,185.65L450,184.6L453.33,193.05L456.67,190.03L460,189.91L463.33,189.1L466.67,195.74L470,183.67L473.33,164.81L476.67,172.84L480,173.55L483.33,138.1L486.67,140.66L490,139.77L493.33,142.34L496.67,141.85L500,133.11L503.33,128.95L506.67,99.09L510,88.42L513.33,90.92L516.67,91.77L520,40.76L523.33,35.79L526.67,44.19L530,54.75L533.33,47.41L536.67,16L540,19" style="fill: rgb(99, 110, 250); fill-opacity: 0.5; stroke-width: 0;"/></g></g><g class="errorbars"/><g class="lines"><path class="js-line" d="M0,298.06L3.33,298.45L6.67,299.81L10,300.86L13.33,300.84L26.67,298.83L30,299.33L36.67,296.33L40,292.32L43.33,291.31L46.67,291.27L50,291.29L53.33,290.06L56.67,274.68L60,278.55L63.33,272.25L66.67,273.21L73.33,274.91L76.67,275.28L83.33,275.24L86.67,274.31L90,274.42L93.33,275.94L100,290.61L103.33,289.64L113.33,288.6L116.67,289.37L120,289.48L123.33,280.29L133.33,280.6L136.67,281.75L140,301.16L143.33,304L150,301.95L153.33,303.07L160,302.69L163.33,301.08L166.67,303.24L170,299.48L173.33,295.34L176.67,294.96L180,295.82L183.33,295.48L186.67,296.55L190,295.78L193.33,279.16L196.67,279.23L206.67,279.16L210,278.16L213.33,279.04L216.67,278.81L223.33,278.35L226.67,275.18L230,275.26L233.33,284.25L236.67,284.47L240,299.23L243.33,291.15L246.67,290.67L250,290.51L253.33,287.96L256.67,283.51L260,283.14L263.33,282.78L266.67,283.94L273.33,283.91L276.67,285.14L280,284.62L283.33,281.9L286.67,276.56L290,276.35L296.67,276.23L300,279L303.33,284.3L306.67,284.02L310,284L313.33,285.32L316.67,290.85L320,290.72L323.33,286.87L326.67,287.29L330,285.49L333.33,286.59L336.67,287.63L340,287.05L343.33,288.22L346.67,287.49L353.33,287.03L356.67,286.4L360,286.31L363.33,287.37L373.33,286.74L376.67,285.47L380,280.88L383.33,285.2L386.67,276.35L390,275.85L393.33,276.21L396.67,267.63L400,232.82L403.33,227.28L406.67,223.61L410,223.8L413.33,223.82L416.67,221.12L423.33,221.03L426.67,214.86L430,211.99L433.33,201.07L436.67,198.66L440,189.83L443.33,189.66L446.67,185.65L450,184.6L453.33,193.05L456.67,190.03L460,189.91L463.33,189.1L466.67,195.74L470,183.67L473.33,164.81L476.67,172.84L480,173.55L483.33,138.1L486.67,140.66L490,139.77L493.33,142.34L496.67,141.85L500,133.11L503.33,128.95L506.67,99.09L510,88.42L513.33,90.92L516.67,91.77L520,40.76L523.33,35.79L526.67,44.19L530,54.75L533.33,47.41L536.67,16L540,19" style="vector-effect: non-scaling-stroke; fill: none; stroke: rgb(99, 110, 250); stroke-opacity: 1; stroke-width: 2px; opacity: 1;"/></g><g class="points"/><g class="text"/></g></g></g><g class="overplot"/><path class="xlines-above crisp" d="M0,0" style="fill: none;"/><path class="ylines-above crisp" d="M0,0" style="fill: none;"/><g class="overlines-above"/><g class="xaxislayer-above"><g class="xtick"><text text-anchor="middle" x="0" y="433" transform="translate(93.33,0)" style="font-family: 'Open Sans', verdana, arial, sans-serif; font-size: 12px; fill: rgb(42, 63, 95); fill-opacity: 1; white-space: pre; opacity: 1;">Oct 2022</text></g><g class="xtick"><text text-anchor="middle" x="0" y="433" style="font-family: 'Open Sans', verdana, arial, sans-serif; font-size: 12px; fill: rgb(42, 63, 95); fill-opacity: 1; white-space: pre; opacity: 1;" transform="translate(196.67000000000002,0)">Nov 2022</text></g><g class="xtick"><text text-anchor="middle" x="0" y="433" style="font-family: 'Open Sans', verdana, arial, sans-serif; font-size: 12px; fill: rgb(42, 63, 95); fill-opacity: 1; white-space: pre; opacity: 1;" transform="translate(296.66999999999996,0)">Dec 2022</text></g><g class="xtick"><text text-anchor="middle" x="0" y="433" style="font-family: 'Open Sans', verdana, arial, sans-serif; font-size: 12px; fill: rgb(42, 63, 95); fill-opacity: 1; white-space: pre; opacity: 1;" transform="translate(400,0)">Jan 2023</text></g><g class="xtick"><text text-anchor="middle" x="0" y="433" style="font-family: 'Open Sans', verdana, arial, sans-serif; font-size: 12px; fill: rgb(42, 63, 95); fill-opacity: 1; white-space: pre; opacity: 1;" transform="translate(503.33,0)">Feb 2023</text></g><g class="xtick"><text text-anchor="middle" x="0" y="433" style="font-family: 'Open Sans', verdana, arial, sans-serif; font-size: 12px; fill: rgb(42, 63, 95); fill-opacity: 1; white-space: pre; opacity: 1;" transform="translate(596.67,0)">Mar 2023</text></g></g><g class="yaxislayer-above"><g class="ytick"><text text-anchor="end" x="79" y="4.199999999999999" transform="translate(0,399.41)" style="font-family: 'Open Sans', verdana, arial, sans-serif; font-size: 12px; fill: rgb(42, 63, 95); fill-opacity: 1; white-space: pre; opacity: 1;">$0</text></g><g class="ytick"><text text-anchor="end" x="79" y="4.199999999999999" style="font-family: 'Open Sans', verdana, arial, sans-serif; font-size: 12px; fill: rgb(42, 63, 95); fill-opacity: 1; white-space: pre; opacity: 1;" transform="translate(0,330.19)">$2M</text></g><g class="ytick"><text text-anchor="end" x="79" y="4.199999999999999" style="font-family: 'Open Sans', verdana, arial, sans-serif; font-size: 12px; fill: rgb(42, 63, 95); fill-opacity: 1; white-space: pre; opacity: 1;" transform="translate(0,260.98)">$4M</text></g><g class="ytick"><text text-anchor="end" x="79" y="4.199999999999999" style="font-family: 'Open Sans', verdana, arial, sans-serif; font-size: 12px; fill: rgb(42, 63, 95); fill-opacity: 1; white-space: pre; opacity: 1;" transform="translate(0,191.76999999999998)">$6M</text></g><g class="ytick"><text text-anchor="end" x="79" y="4.199999999999999" style="font-family: 'Open Sans', verdana, arial, sans-serif; font-size: 12px; fill: rgb(42, 63, 95); fill-opacity: 1; white-space: pre; opacity: 1;" transform="translate(0,122.55)">$8M</text></g></g><g class="overaxes-above"/></g></g><g class="polarlayer"/><g class="smithlayer"/><g class="ternarylayer"/><g class="geolayer"/><g class="funnelarealayer"/><g class="pielayer"/><g class="iciclelayer"/><g class="treemaplayer"/><g class="sunburstlayer"/><g class="glimages"/><defs id="topdefs-58cbb7"><g class="clips"/></defs><g class="layer-above"><g class="imagelayer"/><g class="shapelayer"/></g><g class="infolayer"><g class="g-gtitle"><text class="gtitle" x="35" y="50" text-anchor="start" dy="0em" style="font-family: 'Open Sans', verdana, arial, sans-serif; font-size: 17px; fill: rgb(42, 63, 95); opacity: 1; font-weight: normal; white-space: pre;"><tspan class="line" dy="0em" x="35" y="50">Synthetix - USDC/SNX: Velodrome</tspan><tspan class="line" dy="1.3em" x="35" y="50">​<tspan style="font-size:70%" dy="-0.6em">Cumulative Net Flows since Program Announcement, Until Program End + 30 Days</tspan><tspan dy="0.42em">​</tspan></tspan></text></g><g class="g-xtitle"><text class="xtitle" x="350" y="460.8" text-anchor="middle" style="font-family: 'Open Sans', verdana, arial, sans-serif; font-size: 14px; fill: rgb(42, 63, 95); opacity: 1; font-weight: normal; white-space: pre;">Day</text></g><g class="g-ytitle"><text class="ytitle" transform="rotate(-90,30.856250000000003,260)" x="30.856250000000003" y="260" text-anchor="middle" style="font-family: 'Open Sans', verdana, arial, sans-serif; font-size: 14px; fill: rgb(42, 63, 95); opacity: 1; font-weight: normal; white-space: pre;">Cumulative Net Flows (USD)</text></g></g></svg>