<svg class="main-svg" xmlns="http://www.w3.org/2000/svg" xmlns:xlink="http://www.w3.org/1999/xlink" width="700" height="500" style="" viewBox="0 0 700 500"><rect x="0" y="0" width="700" height="500" style="fill: rgb(255, 255, 255); fill-opacity: 1;"/><defs id="defs-99dddb"><g class="clips"><clipPath id="clip99dddbxyplot" class="plotclip"><rect width="540" height="320"/></clipPath><clipPath class="axesclip" id="clip99dddbx"><rect x="80" y="0" width="540" height="500"/></clipPath><clipPath class="axesclip" id="clip99dddby"><rect x="0" y="100" width="700" height="320"/></clipPath><clipPath class="axesclip" id="clip99dddbxy"><rect x="80" y="100" width="540" height="320"/></clipPath></g><g class="gradients"/><g class="patterns"/></defs><g class="bglayer"><rect class="bg" x="80" y="100" width="540" height="320" style="fill: rgb(229, 236, 246); fill-opacity: 1; stroke-width: 0;"/></g><g class="layer-below"><g class="imagelayer"/><g class="shapelayer"/></g><g class="cartesianlayer"><g class="subplot xy"><g class="layer-subplot"><g class="shapelayer"/><g class="imagelayer"/></g><g class="minor-gridlayer"><g class="x"/><g class="y"/></g><g class="gridlayer"><g class="x"><path class="xgrid crisp" transform="translate(100.11,0)" d="M0,100v320" style="stroke: rgb(255, 255, 255); stroke-opacity: 1; stroke-width: 1px;"/><path class="xgrid crisp" transform="translate(186.28,0)" d="M0,100v320" style="stroke: rgb(255, 255, 255); stroke-opacity: 1; stroke-width: 1px;"/><path class="xgrid crisp" transform="translate(275.32,0)" d="M0,100v320" style="stroke: rgb(255, 255, 255); stroke-opacity: 1; stroke-width: 1px;"/><path class="xgrid crisp" transform="translate(361.49,0)" d="M0,100v320" style="stroke: rgb(255, 255, 255); stroke-opacity: 1; stroke-width: 1px;"/><path class="xgrid crisp" transform="translate(450.53,0)" d="M0,100v320" style="stroke: rgb(255, 255, 255); stroke-opacity: 1; stroke-width: 1px;"/><path class="xgrid crisp" transform="translate(539.5699999999999,0)" d="M0,100v320" style="stroke: rgb(255, 255, 255); stroke-opacity: 1; stroke-width: 1px;"/></g><g class="y"><path class="ygrid crisp" transform="translate(0,354.66999999999996)" d="M80,0h540" style="stroke: rgb(255, 255, 255); stroke-opacity: 1; stroke-width: 1px;"/><path class="ygrid crisp" transform="translate(0,289.34000000000003)" d="M80,0h540" style="stroke: rgb(255, 255, 255); stroke-opacity: 1; stroke-width: 1px;"/><path class="ygrid crisp" transform="translate(0,224)" d="M80,0h540" style="stroke: rgb(255, 255, 255); stroke-opacity: 1; stroke-width: 1px;"/><path class="ygrid crisp" transform="translate(0,158.67000000000002)" d="M80,0h540" style="stroke: rgb(255, 255, 255); stroke-opacity: 1; stroke-width: 1px;"/></g></g><g class="zerolinelayer"><path class="yzl zl crisp" transform="translate(0,420)" d="M80,0h540" style="stroke: rgb(255, 255, 255); stroke-opacity: 1; stroke-width: 2px;"/></g><path class="xlines-below"/><path class="ylines-below"/><g class="overlines-below"/><g class="xaxislayer-below"/><g class="yaxislayer-below"/><g class="overaxes-below"/><g class="plot" transform="translate(80,100)" clip-path="url(#clip99dddbxyplot)"><g class="scatterlayer mlayer"><g class="trace scatter trace181c96" style="stroke-miterlimit: 2;"><g class="fills"><g><path class="js-fill" d="M540,320L0,320L0,181.11L2.87,181.99L5.74,180.35L11.49,176.16L14.36,175.51L17.23,158.44L20.11,155.41L22.98,158.59L25.85,155.74L28.72,152.63L31.6,153.56L34.47,147.82L37.34,144.85L40.21,128.6L43.09,124.31L45.96,118.83L48.83,117.25L51.7,113.14L54.57,112.56L57.45,113.5L60.32,118.69L63.19,121.66L66.06,116.44L68.94,120.39L71.81,126.02L77.55,128.26L80.43,132.09L83.3,138.32L86.17,139.81L89.04,139.5L91.91,140.15L94.79,143.43L97.66,143.77L100.53,146.61L103.4,160.87L109.15,162.21L112.02,162.25L114.89,162.89L117.77,166.86L120.64,167.38L123.51,165.38L126.38,166.23L129.26,168.48L132.13,169.96L135,170.22L140.74,171.93L143.62,172.77L146.49,161.35L149.36,161.29L152.23,161.35L155.11,164.43L160.85,164.28L163.72,164.37L166.6,163.46L169.47,163.42L172.34,162.97L175.21,160.16L178.09,160.96L180.96,160.27L183.83,162.98L186.7,162.93L192.45,163.54L195.32,156.72L198.19,152.14L201.06,149.14L203.94,121.79L206.81,119.27L215.43,119.38L218.3,124.5L221.17,131.32L224.04,144.19L226.91,142.78L229.79,145.04L238.4,146.07L241.28,150.79L244.15,153.34L247.02,152.72L249.89,153.52L252.77,156.17L255.64,159.28L258.51,158.51L261.38,155.74L264.26,156.15L275.74,156.99L278.62,155.35L281.49,159.21L284.36,159.37L287.23,155.25L290.11,155.72L298.72,155.58L301.6,151.64L304.47,152.8L307.34,152.35L310.21,153.19L313.09,153.1L315.96,146.52L318.83,147.31L321.7,134.01L324.57,151.16L327.45,152.05L330.32,151.92L333.19,152.85L336.06,152.85L341.81,149.76L344.68,150.25L356.17,149.82L359.04,151.82L367.66,152.2L370.53,163.53L382.02,162.15L384.89,160.83L387.77,155.39L390.64,153.15L393.51,148.07L396.38,147.64L399.26,139.79L402.13,138.59L405,139.03L407.87,137.62L410.74,128.35L413.62,126.96L416.49,126.53L419.36,124.77L427.98,120.22L430.85,117.84L436.6,115.12L439.47,116.03L442.34,114.12L445.21,98.64L448.09,98.08L450.96,80.4L453.83,79.73L456.7,73.13L459.57,71.65L462.45,64.42L465.32,27.25L468.19,24.28L471.06,27.38L473.94,26.84L479.68,16L482.55,50.98L485.43,48.68L488.3,48.56L491.17,46.33L494.04,46.51L496.91,46.21L499.79,46.93L505.53,42.44L508.4,43.42L511.28,42.88L514.15,43.71L517.02,51.92L519.89,52.42L528.51,52.15L531.38,51.85L534.26,52.63L537.13,52.6L540,41.96" style="fill: rgb(99, 110, 250); fill-opacity: 0.5; stroke-width: 0;"/></g></g><g class="errorbars"/><g class="lines"><path class="js-line" d="M0,181.11L2.87,181.99L5.74,180.35L11.49,176.16L14.36,175.51L17.23,158.44L20.11,155.41L22.98,158.59L25.85,155.74L28.72,152.63L31.6,153.56L34.47,147.82L37.34,144.85L40.21,128.6L43.09,124.31L45.96,118.83L48.83,117.25L51.7,113.14L54.57,112.56L57.45,113.5L60.32,118.69L63.19,121.66L66.06,116.44L68.94,120.39L71.81,126.02L77.55,128.26L80.43,132.09L83.3,138.32L86.17,139.81L89.04,139.5L91.91,140.15L94.79,143.43L97.66,143.77L100.53,146.61L103.4,160.87L109.15,162.21L112.02,162.25L114.89,162.89L117.77,166.86L120.64,167.38L123.51,165.38L126.38,166.23L129.26,168.48L132.13,169.96L135,170.22L140.74,171.93L143.62,172.77L146.49,161.35L149.36,161.29L152.23,161.35L155.11,164.43L160.85,164.28L163.72,164.37L166.6,163.46L169.47,163.42L172.34,162.97L175.21,160.16L178.09,160.96L180.96,160.27L183.83,162.98L186.7,162.93L192.45,163.54L195.32,156.72L198.19,152.14L201.06,149.14L203.94,121.79L206.81,119.27L215.43,119.38L218.3,124.5L221.17,131.32L224.04,144.19L226.91,142.78L229.79,145.04L238.4,146.07L241.28,150.79L244.15,153.34L247.02,152.72L249.89,153.52L252.77,156.17L255.64,159.28L258.51,158.51L261.38,155.74L264.26,156.15L275.74,156.99L278.62,155.35L281.49,159.21L284.36,159.37L287.23,155.25L290.11,155.72L298.72,155.58L301.6,151.64L304.47,152.8L307.34,152.35L310.21,153.19L313.09,153.1L315.96,146.52L318.83,147.31L321.7,134.01L324.57,151.16L327.45,152.05L330.32,151.92L333.19,152.85L336.06,152.85L341.81,149.76L344.68,150.25L356.17,149.82L359.04,151.82L367.66,152.2L370.53,163.53L382.02,162.15L384.89,160.83L387.77,155.39L390.64,153.15L393.51,148.07L396.38,147.64L399.26,139.79L402.13,138.59L405,139.03L407.87,137.62L410.74,128.35L413.62,126.96L416.49,126.53L419.36,124.77L427.98,120.22L430.85,117.84L436.6,115.12L439.47,116.03L442.34,114.12L445.21,98.64L448.09,98.08L450.96,80.4L453.83,79.73L456.7,73.13L459.57,71.65L462.45,64.42L465.32,27.25L468.19,24.28L471.06,27.38L473.94,26.84L479.68,16L482.55,50.98L485.43,48.68L488.3,48.56L491.17,46.33L494.04,46.51L496.91,46.21L499.79,46.93L505.53,42.44L508.4,43.42L511.28,42.88L514.15,43.71L517.02,51.92L519.89,52.42L528.51,52.15L531.38,51.85L534.26,52.63L537.13,52.6L540,41.96" style="vector-effect: non-scaling-stroke; fill: none; stroke: rgb(99, 110, 250); stroke-opacity: 1; stroke-width: 2px; opacity: 1;"/></g><g class="points"/><g class="text"/></g></g></g><g class="overplot"/><path class="xlines-above crisp" d="M0,0" style="fill: none;"/><path class="ylines-above crisp" d="M0,0" style="fill: none;"/><g class="overlines-above"/><g class="xaxislayer-above"><g class="xtick"><text text-anchor="middle" x="0" y="433" transform="translate(100.11,0)" style="font-family: 'Open Sans', verdana, arial, sans-serif; font-size: 12px; fill: rgb(42, 63, 95); fill-opacity: 1; white-space: pre; opacity: 1;">Sep 2022</text></g><g class="xtick"><text text-anchor="middle" x="0" y="433" style="font-family: 'Open Sans', verdana, arial, sans-serif; font-size: 12px; fill: rgb(42, 63, 95); fill-opacity: 1; white-space: pre; opacity: 1;" transform="translate(186.28,0)">Oct 2022</text></g><g class="xtick"><text text-anchor="middle" x="0" y="433" style="font-family: 'Open Sans', verdana, arial, sans-serif; font-size: 12px; fill: rgb(42, 63, 95); fill-opacity: 1; white-space: pre; opacity: 1;" transform="translate(275.32,0)">Nov 2022</text></g><g class="xtick"><text text-anchor="middle" x="0" y="433" style="font-family: 'Open Sans', verdana, arial, sans-serif; font-size: 12px; fill: rgb(42, 63, 95); fill-opacity: 1; white-space: pre; opacity: 1;" transform="translate(361.49,0)">Dec 2022</text></g><g class="xtick"><text text-anchor="middle" x="0" y="433" style="font-family: 'Open Sans', verdana, arial, sans-serif; font-size: 12px; fill: rgb(42, 63, 95); fill-opacity: 1; white-space: pre; opacity: 1;" transform="translate(450.53,0)">Jan 2023</text></g><g class="xtick"><text text-anchor="middle" x="0" y="433" style="font-family: 'Open Sans', verdana, arial, sans-serif; font-size: 12px; fill: rgb(42, 63, 95); fill-opacity: 1; white-space: pre; opacity: 1;" transform="translate(539.5699999999999,0)">Feb 2023</text></g><g class="xtick"><text text-anchor="middle" x="0" y="433" style="font-family: 'Open Sans', verdana, arial, sans-serif; font-size: 12px; fill: rgb(42, 63, 95); fill-opacity: 1; white-space: pre; opacity: 1;" transform="translate(620,0)">Mar 2023</text></g></g><g class="yaxislayer-above"><g class="ytick"><text text-anchor="end" x="79" y="4.199999999999999" transform="translate(0,420)" style="font-family: 'Open Sans', verdana, arial, sans-serif; font-size: 12px; fill: rgb(42, 63, 95); fill-opacity: 1; white-space: pre; opacity: 1;">$0</text></g><g class="ytick"><text text-anchor="end" x="79" y="4.199999999999999" style="font-family: 'Open Sans', verdana, arial, sans-serif; font-size: 12px; fill: rgb(42, 63, 95); fill-opacity: 1; white-space: pre; opacity: 1;" transform="translate(0,354.66999999999996)">$10M</text></g><g class="ytick"><text text-anchor="end" x="79" y="4.199999999999999" style="font-family: 'Open Sans', verdana, arial, sans-serif; font-size: 12px; fill: rgb(42, 63, 95); fill-opacity: 1; white-space: pre; opacity: 1;" transform="translate(0,289.34000000000003)">$20M</text></g><g class="ytick"><text text-anchor="end" x="79" y="4.199999999999999" style="font-family: 'Open Sans', verdana, arial, sans-serif; font-size: 12px; fill: rgb(42, 63, 95); fill-opacity: 1; white-space: pre; opacity: 1;" transform="translate(0,224)">$30M</text></g><g class="ytick"><text text-anchor="end" x="79" y="4.199999999999999" style="font-family: 'Open Sans', verdana, arial, sans-serif; font-size: 12px; fill: rgb(42, 63, 95); fill-opacity: 1; white-space: pre; opacity: 1;" transform="translate(0,158.67000000000002)">$40M</text></g></g><g class="overaxes-above"/></g></g><g class="polarlayer"/><g class="smithlayer"/><g class="ternarylayer"/><g class="geolayer"/><g class="funnelarealayer"/><g class="pielayer"/><g class="iciclelayer"/><g class="treemaplayer"/><g class="sunburstlayer"/><g class="glimages"/><defs id="topdefs-99dddb"><g class="clips"/></defs><g class="layer-above"><g class="imagelayer"/><g class="shapelayer"/></g><g class="infolayer"><g class="g-gtitle"><text class="gtitle" x="35" y="50" text-anchor="start" dy="0em" style="font-family: 'Open Sans', verdana, arial, sans-serif; font-size: 17px; fill: rgb(42, 63, 95); opacity: 1; font-weight: normal; white-space: pre;"><tspan class="line" dy="0em" x="35" y="50">Synthetix - sUSD-3Crv: Curve</tspan><tspan class="line" dy="1.3em" x="35" y="50">​<tspan style="font-size:70%" dy="-0.6em">Cumulative Net Flows since Program Announcement, Until Program End + 30 Days</tspan><tspan dy="0.42em">​</tspan></tspan></text></g><g class="g-xtitle"><text class="xtitle" x="350" y="460.8" text-anchor="middle" style="font-family: 'Open Sans', verdana, arial, sans-serif; font-size: 14px; fill: rgb(42, 63, 95); opacity: 1; font-weight: normal; white-space: pre;">Day</text></g><g class="g-ytitle"><text class="ytitle" transform="rotate(-90,24.168750000000003,260)" x="24.168750000000003" y="260" text-anchor="middle" style="font-family: 'Open Sans', verdana, arial, sans-serif; font-size: 14px; fill: rgb(42, 63, 95); opacity: 1; font-weight: normal; white-space: pre;">Cumulative Net Flows (USD)</text></g></g></svg>