<svg class="main-svg" xmlns="http://www.w3.org/2000/svg" xmlns:xlink="http://www.w3.org/1999/xlink" width="700" height="500" style="" viewBox="0 0 700 500"><rect x="0" y="0" width="700" height="500" style="fill: rgb(255, 255, 255); fill-opacity: 1;"/><defs id="defs-e14861"><g class="clips"><clipPath id="clipe14861xyplot" class="plotclip"><rect width="540" height="320"/></clipPath><clipPath class="axesclip" id="clipe14861x"><rect x="80" y="0" width="540" height="500"/></clipPath><clipPath class="axesclip" id="clipe14861y"><rect x="0" y="100" width="700" height="320"/></clipPath><clipPath class="axesclip" id="clipe14861xy"><rect x="80" y="100" width="540" height="320"/></clipPath></g><g class="gradients"/><g class="patterns"/></defs><g class="bglayer"><rect class="bg" x="80" y="100" width="540" height="320" style="fill: rgb(229, 236, 246); fill-opacity: 1; stroke-width: 0;"/></g><g class="layer-below"><g class="imagelayer"/><g class="shapelayer"/></g><g class="cartesianlayer"><g class="subplot xy"><g class="layer-subplot"><g class="shapelayer"/><g class="imagelayer"/></g><g class="minor-gridlayer"><g class="x"/><g class="y"/></g><g class="gridlayer"><g class="x"><path class="xgrid crisp" transform="translate(100,0)" d="M0,100v320" style="stroke: rgb(255, 255, 255); stroke-opacity: 1; stroke-width: 1px;"/><path class="xgrid crisp" transform="translate(185.70999999999998,0)" d="M0,100v320" style="stroke: rgb(255, 255, 255); stroke-opacity: 1; stroke-width: 1px;"/><path class="xgrid crisp" transform="translate(274.28999999999996,0)" d="M0,100v320" style="stroke: rgb(255, 255, 255); stroke-opacity: 1; stroke-width: 1px;"/><path class="xgrid crisp" transform="translate(360,0)" d="M0,100v320" style="stroke: rgb(255, 255, 255); stroke-opacity: 1; stroke-width: 1px;"/><path class="xgrid crisp" transform="translate(448.57,0)" d="M0,100v320" style="stroke: rgb(255, 255, 255); stroke-opacity: 1; stroke-width: 1px;"/><path class="xgrid crisp" transform="translate(537.14,0)" d="M0,100v320" style="stroke: rgb(255, 255, 255); stroke-opacity: 1; stroke-width: 1px;"/><path class="xgrid crisp" transform="translate(617.14,0)" d="M0,100v320" style="stroke: rgb(255, 255, 255); stroke-opacity: 1; stroke-width: 1px;"/></g><g class="y"><path class="ygrid crisp" transform="translate(0,354.66999999999996)" d="M80,0h540" style="stroke: rgb(255, 255, 255); stroke-opacity: 1; stroke-width: 1px;"/><path class="ygrid crisp" transform="translate(0,289.34000000000003)" d="M80,0h540" style="stroke: rgb(255, 255, 255); stroke-opacity: 1; stroke-width: 1px;"/><path class="ygrid crisp" transform="translate(0,224)" d="M80,0h540" style="stroke: rgb(255, 255, 255); stroke-opacity: 1; stroke-width: 1px;"/><path class="ygrid crisp" transform="translate(0,158.67000000000002)" d="M80,0h540" style="stroke: rgb(255, 255, 255); stroke-opacity: 1; stroke-width: 1px;"/></g></g><g class="zerolinelayer"><path class="yzl zl crisp" transform="translate(0,420)" d="M80,0h540" style="stroke: rgb(255, 255, 255); stroke-opacity: 1; stroke-width: 2px;"/></g><path class="xlines-below"/><path class="ylines-below"/><g class="overlines-below"/><g class="xaxislayer-below"/><g class="yaxislayer-below"/><g class="overaxes-below"/><g class="plot" transform="translate(80,100)" clip-path="url(#clipe14861xyplot)"><g class="scatterlayer mlayer"><g class="trace scatter trace5336f7" style="stroke-miterlimit: 2;"><g class="fills"><g><path class="js-fill" d="M540,320L0,320L0,181.11L2.86,181.99L5.71,180.35L11.43,176.16L14.29,175.51L17.14,158.44L20,155.41L22.86,158.59L25.71,155.74L28.57,152.63L31.43,153.56L34.29,147.82L37.14,144.85L40,128.6L42.86,124.31L45.71,118.83L48.57,117.25L51.43,113.14L54.29,112.56L57.14,113.5L60,118.69L62.86,121.66L65.71,116.44L68.57,120.39L71.43,126.02L77.14,128.26L80,132.09L82.86,138.32L85.71,139.81L88.57,139.5L91.43,140.15L94.29,143.43L97.14,143.77L100,146.61L102.86,160.87L108.57,162.21L111.43,162.25L114.29,162.89L117.14,166.86L120,167.38L122.86,165.38L125.71,166.23L128.57,168.48L131.43,169.96L134.29,170.22L140,171.93L142.86,172.77L145.71,161.35L148.57,161.29L151.43,161.35L154.29,164.43L160,164.28L162.86,164.37L165.71,163.46L168.57,163.42L171.43,162.97L174.29,160.16L177.14,160.96L180,160.27L182.86,162.98L185.71,162.93L191.43,163.54L194.29,156.72L197.14,152.14L200,149.14L202.86,121.79L205.71,119.27L214.29,119.38L217.14,124.5L220,131.32L222.86,144.19L225.71,142.78L228.57,145.04L237.14,146.07L240,150.79L242.86,153.34L245.71,152.72L248.57,153.52L251.43,156.17L254.29,159.28L257.14,158.51L260,155.74L262.86,156.15L274.29,156.99L277.14,155.35L280,159.21L282.86,159.37L285.71,155.25L288.57,155.72L297.14,155.58L300,151.64L302.86,152.8L305.71,152.35L308.57,153.19L311.43,153.1L314.29,146.52L317.14,147.31L320,134.01L322.86,151.16L325.71,152.05L328.57,151.92L331.43,152.85L334.29,152.85L340,149.76L342.86,150.25L354.29,149.82L357.14,151.82L365.71,152.2L368.57,163.53L380,162.15L382.86,160.83L385.71,155.39L388.57,153.15L391.43,148.07L394.29,147.64L397.14,139.79L400,138.59L402.86,139.03L405.71,137.62L408.57,128.35L411.43,126.96L414.29,126.53L417.14,124.77L425.71,120.22L428.57,117.84L434.29,115.12L437.14,116.03L440,114.12L442.86,98.64L445.71,98.08L448.57,80.4L451.43,79.73L454.29,73.13L457.14,71.65L460,64.42L462.86,27.25L465.71,24.28L468.57,27.38L471.43,26.84L477.14,16L480,50.98L482.86,48.68L485.71,48.56L488.57,46.33L491.43,46.51L494.29,46.21L497.14,46.93L502.86,42.44L505.71,43.42L508.57,42.88L511.43,43.71L514.29,51.92L517.14,52.42L525.71,52.15L528.57,51.85L531.43,52.63L534.29,52.6L537.14,41.96L540,41.98" style="fill: rgb(99, 110, 250); fill-opacity: 0.5; stroke-width: 0;"/></g></g><g class="errorbars"/><g class="lines"><path class="js-line" d="M0,181.11L2.86,181.99L5.71,180.35L11.43,176.16L14.29,175.51L17.14,158.44L20,155.41L22.86,158.59L25.71,155.74L28.57,152.63L31.43,153.56L34.29,147.82L37.14,144.85L40,128.6L42.86,124.31L45.71,118.83L48.57,117.25L51.43,113.14L54.29,112.56L57.14,113.5L60,118.69L62.86,121.66L65.71,116.44L68.57,120.39L71.43,126.02L77.14,128.26L80,132.09L82.86,138.32L85.71,139.81L88.57,139.5L91.43,140.15L94.29,143.43L97.14,143.77L100,146.61L102.86,160.87L108.57,162.21L111.43,162.25L114.29,162.89L117.14,166.86L120,167.38L122.86,165.38L125.71,166.23L128.57,168.48L131.43,169.96L134.29,170.22L140,171.93L142.86,172.77L145.71,161.35L148.57,161.29L151.43,161.35L154.29,164.43L160,164.28L162.86,164.37L165.71,163.46L168.57,163.42L171.43,162.97L174.29,160.16L177.14,160.96L180,160.27L182.86,162.98L185.71,162.93L191.43,163.54L194.29,156.72L197.14,152.14L200,149.14L202.86,121.79L205.71,119.27L214.29,119.38L217.14,124.5L220,131.32L222.86,144.19L225.71,142.78L228.57,145.04L237.14,146.07L240,150.79L242.86,153.34L245.71,152.72L248.57,153.52L251.43,156.17L254.29,159.28L257.14,158.51L260,155.74L262.86,156.15L274.29,156.99L277.14,155.35L280,159.21L282.86,159.37L285.71,155.25L288.57,155.72L297.14,155.58L300,151.64L302.86,152.8L305.71,152.35L308.57,153.19L311.43,153.1L314.29,146.52L317.14,147.31L320,134.01L322.86,151.16L325.71,152.05L328.57,151.92L331.43,152.85L334.29,152.85L340,149.76L342.86,150.25L354.29,149.82L357.14,151.82L365.71,152.2L368.57,163.53L380,162.15L382.86,160.83L385.71,155.39L388.57,153.15L391.43,148.07L394.29,147.64L397.14,139.79L400,138.59L402.86,139.03L405.71,137.62L408.57,128.35L411.43,126.96L414.29,126.53L417.14,124.77L425.71,120.22L428.57,117.84L434.29,115.12L437.14,116.03L440,114.12L442.86,98.64L445.71,98.08L448.57,80.4L451.43,79.73L454.29,73.13L457.14,71.65L460,64.42L462.86,27.25L465.71,24.28L468.57,27.38L471.43,26.84L477.14,16L480,50.98L482.86,48.68L485.71,48.56L488.57,46.33L491.43,46.51L494.29,46.21L497.14,46.93L502.86,42.44L505.71,43.42L508.57,42.88L511.43,43.71L514.29,51.92L517.14,52.42L525.71,52.15L528.57,51.85L531.43,52.63L534.29,52.6L537.14,41.96L540,41.98" style="vector-effect: non-scaling-stroke; fill: none; stroke: rgb(99, 110, 250); stroke-opacity: 1; stroke-width: 2px; opacity: 1;"/></g><g class="points"/><g class="text"/></g></g></g><g class="overplot"/><path class="xlines-above crisp" d="M0,0" style="fill: none;"/><path class="ylines-above crisp" d="M0,0" style="fill: none;"/><g class="overlines-above"/><g class="xaxislayer-above"><g class="xtick"><text text-anchor="middle" x="0" y="433" transform="translate(100,0)" style="font-family: 'Open Sans', verdana, arial, sans-serif; font-size: 12px; fill: rgb(42, 63, 95); fill-opacity: 1; white-space: pre; opacity: 1;">Sep 2022</text></g><g class="xtick"><text text-anchor="middle" x="0" y="433" style="font-family: 'Open Sans', verdana, arial, sans-serif; font-size: 12px; fill: rgb(42, 63, 95); fill-opacity: 1; white-space: pre; opacity: 1;" transform="translate(185.70999999999998,0)">Oct 2022</text></g><g class="xtick"><text text-anchor="middle" x="0" y="433" style="font-family: 'Open Sans', verdana, arial, sans-serif; font-size: 12px; fill: rgb(42, 63, 95); fill-opacity: 1; white-space: pre; opacity: 1;" transform="translate(274.28999999999996,0)">Nov 2022</text></g><g class="xtick"><text text-anchor="middle" x="0" y="433" style="font-family: 'Open Sans', verdana, arial, sans-serif; font-size: 12px; fill: rgb(42, 63, 95); fill-opacity: 1; white-space: pre; opacity: 1;" transform="translate(360,0)">Dec 2022</text></g><g class="xtick"><text text-anchor="middle" x="0" y="433" style="font-family: 'Open Sans', verdana, arial, sans-serif; font-size: 12px; fill: rgb(42, 63, 95); fill-opacity: 1; white-space: pre; opacity: 1;" transform="translate(448.57,0)">Jan 2023</text></g><g class="xtick"><text text-anchor="middle" x="0" y="433" style="font-family: 'Open Sans', verdana, arial, sans-serif; font-size: 12px; fill: rgb(42, 63, 95); fill-opacity: 1; white-space: pre; opacity: 1;" transform="translate(537.14,0)">Feb 2023</text></g><g class="xtick"><text text-anchor="middle" x="0" y="433" style="font-family: 'Open Sans', verdana, arial, sans-serif; font-size: 12px; fill: rgb(42, 63, 95); fill-opacity: 1; white-space: pre; opacity: 1;" transform="translate(617.14,0)">Mar 2023</text></g></g><g class="yaxislayer-above"><g class="ytick"><text text-anchor="end" x="79" y="4.199999999999999" transform="translate(0,420)" style="font-family: 'Open Sans', verdana, arial, sans-serif; font-size: 12px; fill: rgb(42, 63, 95); fill-opacity: 1; white-space: pre; opacity: 1;">$0</text></g><g class="ytick"><text text-anchor="end" x="79" y="4.199999999999999" style="font-family: 'Open Sans', verdana, arial, sans-serif; font-size: 12px; fill: rgb(42, 63, 95); fill-opacity: 1; white-space: pre; opacity: 1;" transform="translate(0,354.66999999999996)">$10M</text></g><g class="ytick"><text text-anchor="end" x="79" y="4.199999999999999" style="font-family: 'Open Sans', verdana, arial, sans-serif; font-size: 12px; fill: rgb(42, 63, 95); fill-opacity: 1; white-space: pre; opacity: 1;" transform="translate(0,289.34000000000003)">$20M</text></g><g class="ytick"><text text-anchor="end" x="79" y="4.199999999999999" style="font-family: 'Open Sans', verdana, arial, sans-serif; font-size: 12px; fill: rgb(42, 63, 95); fill-opacity: 1; white-space: pre; opacity: 1;" transform="translate(0,224)">$30M</text></g><g class="ytick"><text text-anchor="end" x="79" y="4.199999999999999" style="font-family: 'Open Sans', verdana, arial, sans-serif; font-size: 12px; fill: rgb(42, 63, 95); fill-opacity: 1; white-space: pre; opacity: 1;" transform="translate(0,158.67000000000002)">$40M</text></g></g><g class="overaxes-above"/></g></g><g class="polarlayer"/><g class="smithlayer"/><g class="ternarylayer"/><g class="geolayer"/><g class="funnelarealayer"/><g class="pielayer"/><g class="iciclelayer"/><g class="treemaplayer"/><g class="sunburstlayer"/><g class="glimages"/><defs id="topdefs-e14861"><g class="clips"/></defs><g class="layer-above"><g class="imagelayer"/><g class="shapelayer"/></g><g class="infolayer"><g class="g-gtitle"><text class="gtitle" x="35" y="50" text-anchor="start" dy="0em" style="font-family: 'Open Sans', verdana, arial, sans-serif; font-size: 17px; fill: rgb(42, 63, 95); opacity: 1; font-weight: normal; white-space: pre;"><tspan class="line" dy="0em" x="35" y="50">Synthetix - sUSD-3Crv: Curve</tspan><tspan class="line" dy="1.3em" x="35" y="50">​<tspan style="font-size:70%" dy="-0.6em">Cumulative Net Flows since Program Announcement, Until Program End + 30 Days</tspan><tspan dy="0.42em">​</tspan></tspan></text></g><g class="g-xtitle"><text class="xtitle" x="350" y="460.8" text-anchor="middle" style="font-family: 'Open Sans', verdana, arial, sans-serif; font-size: 14px; fill: rgb(42, 63, 95); opacity: 1; font-weight: normal; white-space: pre;">Day</text></g><g class="g-ytitle"><text class="ytitle" transform="rotate(-90,24.168750000000003,260)" x="24.168750000000003" y="260" text-anchor="middle" style="font-family: 'Open Sans', verdana, arial, sans-serif; font-size: 14px; fill: rgb(42, 63, 95); opacity: 1; font-weight: normal; white-space: pre;">Cumulative Net Flows (USD)</text></g></g></svg>