<svg class="main-svg" xmlns="http://www.w3.org/2000/svg" xmlns:xlink="http://www.w3.org/1999/xlink" width="700" height="500" style="" viewBox="0 0 700 500"><rect x="0" y="0" width="700" height="500" style="fill: rgb(255, 255, 255); fill-opacity: 1;"/><defs id="defs-6f1b7f"><g class="clips"><clipPath id="clip6f1b7fxyplot" class="plotclip"><rect width="540" height="320"/></clipPath><clipPath class="axesclip" id="clip6f1b7fx"><rect x="80" y="0" width="540" height="500"/></clipPath><clipPath class="axesclip" id="clip6f1b7fy"><rect x="0" y="100" width="700" height="320"/></clipPath><clipPath class="axesclip" id="clip6f1b7fxy"><rect x="80" y="100" width="540" height="320"/></clipPath></g><g class="gradients"/><g class="patterns"/></defs><g class="bglayer"><rect class="bg" x="80" y="100" width="540" height="320" style="fill: rgb(229, 236, 246); fill-opacity: 1; stroke-width: 0;"/></g><g class="layer-below"><g class="imagelayer"/><g class="shapelayer"/></g><g class="cartesianlayer"><g class="subplot xy"><g class="layer-subplot"><g class="shapelayer"/><g class="imagelayer"/></g><g class="minor-gridlayer"><g class="x"/><g class="y"/></g><g class="gridlayer"><g class="x"><path class="xgrid crisp" transform="translate(151.82,0)" d="M0,100v320" style="stroke: rgb(255, 255, 255); stroke-opacity: 1; stroke-width: 1px;"/><path class="xgrid crisp" transform="translate(231.63,0)" d="M0,100v320" style="stroke: rgb(255, 255, 255); stroke-opacity: 1; stroke-width: 1px;"/><path class="xgrid crisp" transform="translate(314.09000000000003,0)" d="M0,100v320" style="stroke: rgb(255, 255, 255); stroke-opacity: 1; stroke-width: 1px;"/><path class="xgrid crisp" transform="translate(393.89,0)" d="M0,100v320" style="stroke: rgb(255, 255, 255); stroke-opacity: 1; stroke-width: 1px;"/><path class="xgrid crisp" transform="translate(476.35,0)" d="M0,100v320" style="stroke: rgb(255, 255, 255); stroke-opacity: 1; stroke-width: 1px;"/><path class="xgrid crisp" transform="translate(558.8199999999999,0)" d="M0,100v320" style="stroke: rgb(255, 255, 255); stroke-opacity: 1; stroke-width: 1px;"/></g><g class="y"><path class="ygrid crisp" transform="translate(0,418.21)" d="M80,0h540" style="stroke: rgb(255, 255, 255); stroke-opacity: 1; stroke-width: 1px;"/><path class="ygrid crisp" transform="translate(0,372.52)" d="M80,0h540" style="stroke: rgb(255, 255, 255); stroke-opacity: 1; stroke-width: 1px;"/><path class="ygrid crisp" transform="translate(0,281.15)" d="M80,0h540" style="stroke: rgb(255, 255, 255); stroke-opacity: 1; stroke-width: 1px;"/><path class="ygrid crisp" transform="translate(0,235.46)" d="M80,0h540" style="stroke: rgb(255, 255, 255); stroke-opacity: 1; stroke-width: 1px;"/><path class="ygrid crisp" transform="translate(0,189.76999999999998)" d="M80,0h540" style="stroke: rgb(255, 255, 255); stroke-opacity: 1; stroke-width: 1px;"/><path class="ygrid crisp" transform="translate(0,144.07999999999998)" d="M80,0h540" style="stroke: rgb(255, 255, 255); stroke-opacity: 1; stroke-width: 1px;"/></g></g><g class="zerolinelayer"><path class="yzl zl crisp" transform="translate(0,326.84000000000003)" d="M80,0h540" style="stroke: rgb(255, 255, 255); stroke-opacity: 1; stroke-width: 2px;"/></g><path class="xlines-below"/><path class="ylines-below"/><g class="overlines-below"/><g class="xaxislayer-below"/><g class="yaxislayer-below"/><g class="overaxes-below"/><g class="plot" transform="translate(80,100)" clip-path="url(#clip6f1b7fxyplot)"><g class="scatterlayer mlayer"><g class="trace scatter trace76c1a8" style="stroke-miterlimit: 2;"><g class="fills"><g><path class="js-fill" d="M540,226.84L0,226.84L0,235.19L2.66,183.23L5.32,190.42L7.98,192.68L10.64,197.53L13.3,198.8L15.96,197.9L18.62,193.33L21.28,183.78L23.94,196.29L26.6,192.4L29.26,190.9L31.92,186.49L37.24,189.67L39.9,182.03L42.56,182.87L45.22,181.13L47.88,177.93L50.54,173.02L55.86,178.93L58.52,177.99L63.84,175.57L66.5,169.83L69.16,164.47L71.82,161.99L74.48,151.18L77.14,150.84L79.8,146.79L82.46,141.22L85.12,156.5L87.78,161.15L90.44,165.05L93.1,147.54L95.76,143.35L98.42,142.19L101.08,139.64L103.74,133.14L106.4,128.4L109.06,145.75L114.38,143.82L117.04,142.03L119.7,142.26L122.36,139.87L125.02,143.53L127.68,158.61L130.34,155.53L133,155.48L135.67,160.65L138.33,161.99L140.99,154.42L143.65,149.2L146.31,146.12L148.97,151.59L151.63,152.92L154.29,152.6L156.95,147.23L159.61,152.7L162.27,156.42L164.93,147.76L167.59,140.81L170.25,128.26L172.91,124.49L175.57,124.63L178.23,121.81L180.89,88.32L183.55,82.29L186.21,81.1L188.87,82.44L191.53,82.9L194.19,82.93L196.85,84.62L199.51,79.47L202.17,78.57L204.83,78.99L207.49,78.01L210.15,78.99L212.81,78.71L215.47,77.52L218.13,85.7L220.79,83.3L223.45,83.25L226.11,80.75L228.77,80.77L231.43,77.82L234.09,60.7L239.41,54.42L242.07,35.82L244.73,29.05L247.39,16L255.37,33.27L258.03,46.66L260.69,178.9L263.35,228.45L266.01,237.32L268.67,230.8L271.33,233.71L273.99,239.09L276.65,229.22L279.31,233.24L284.63,229.43L287.29,232.88L289.95,234.14L292.61,226.71L295.27,230.96L297.93,229.34L300.59,224.62L303.25,227.72L305.91,226.9L308.57,228.35L311.23,222.87L313.89,213.69L321.87,208.4L324.53,209.15L327.19,205.42L329.85,204.97L335.17,198.56L337.83,197.49L340.49,197.45L343.15,196.18L348.47,204L351.13,203.6L353.79,202.08L356.45,203.19L359.11,214.78L361.77,210.52L364.43,211.77L367.09,201.41L369.75,192.49L372.41,188.55L377.73,187.83L380.39,188.48L385.71,191.23L388.37,191.01L391.03,190.5L393.69,187.02L396.35,191.93L399.01,191.26L401.67,185.21L404.33,185.45L407,182.56L409.66,184.6L412.32,188.16L414.98,195.01L417.64,196.6L420.3,197.13L422.96,197.05L425.62,199.78L428.28,198.07L430.94,203.21L436.26,205.53L438.92,201.81L441.58,191.46L444.24,187.52L449.56,189.61L452.22,187.79L454.88,182.11L457.54,182.27L460.2,180.76L462.86,183.82L465.52,185.74L468.18,186.68L470.84,186.16L473.5,180.63L476.16,173.28L478.82,149.57L481.48,154.51L484.14,155.17L486.8,152.22L489.46,150.76L492.12,148.13L494.78,151.68L497.44,158.41L500.1,153.79L502.76,158.08L505.42,151.93L510.74,148.42L513.4,137.49L516.06,135.28L518.72,137.98L521.38,156.45L524.04,150.44L529.36,157.01L532.02,157.02L534.68,155.34L537.34,166.45L540,168.12L540,304" style="fill: rgb(99, 110, 250); fill-opacity: 0.5; stroke-width: 0;"/></g></g><g class="errorbars"/><g class="lines"><path class="js-line" d="M0,235.19L2.66,183.23L5.32,190.42L7.98,192.68L10.64,197.53L13.3,198.8L15.96,197.9L18.62,193.33L21.28,183.78L23.94,196.29L26.6,192.4L29.26,190.9L31.92,186.49L37.24,189.67L39.9,182.03L42.56,182.87L45.22,181.13L47.88,177.93L50.54,173.02L55.86,178.93L58.52,177.99L63.84,175.57L66.5,169.83L69.16,164.47L71.82,161.99L74.48,151.18L77.14,150.84L79.8,146.79L82.46,141.22L85.12,156.5L87.78,161.15L90.44,165.05L93.1,147.54L95.76,143.35L98.42,142.19L101.08,139.64L103.74,133.14L106.4,128.4L109.06,145.75L114.38,143.82L117.04,142.03L119.7,142.26L122.36,139.87L125.02,143.53L127.68,158.61L130.34,155.53L133,155.48L135.67,160.65L138.33,161.99L140.99,154.42L143.65,149.2L146.31,146.12L148.97,151.59L151.63,152.92L154.29,152.6L156.95,147.23L159.61,152.7L162.27,156.42L164.93,147.76L167.59,140.81L170.25,128.26L172.91,124.49L175.57,124.63L178.23,121.81L180.89,88.32L183.55,82.29L186.21,81.1L188.87,82.44L191.53,82.9L194.19,82.93L196.85,84.62L199.51,79.47L202.17,78.57L204.83,78.99L207.49,78.01L210.15,78.99L212.81,78.71L215.47,77.52L218.13,85.7L220.79,83.3L223.45,83.25L226.11,80.75L228.77,80.77L231.43,77.82L234.09,60.7L239.41,54.42L242.07,35.82L244.73,29.05L247.39,16L255.37,33.27L258.03,46.66L260.69,178.9L263.35,228.45L266.01,237.32L268.67,230.8L271.33,233.71L273.99,239.09L276.65,229.22L279.31,233.24L284.63,229.43L287.29,232.88L289.95,234.14L292.61,226.71L295.27,230.96L297.93,229.34L300.59,224.62L303.25,227.72L305.91,226.9L308.57,228.35L311.23,222.87L313.89,213.69L321.87,208.4L324.53,209.15L327.19,205.42L329.85,204.97L335.17,198.56L337.83,197.49L340.49,197.45L343.15,196.18L348.47,204L351.13,203.6L353.79,202.08L356.45,203.19L359.11,214.78L361.77,210.52L364.43,211.77L367.09,201.41L369.75,192.49L372.41,188.55L377.73,187.83L380.39,188.48L385.71,191.23L388.37,191.01L391.03,190.5L393.69,187.02L396.35,191.93L399.01,191.26L401.67,185.21L404.33,185.45L407,182.56L409.66,184.6L412.32,188.16L414.98,195.01L417.64,196.6L420.3,197.13L422.96,197.05L425.62,199.78L428.28,198.07L430.94,203.21L436.26,205.53L438.92,201.81L441.58,191.46L444.24,187.52L449.56,189.61L452.22,187.79L454.88,182.11L457.54,182.27L460.2,180.76L462.86,183.82L465.52,185.74L468.18,186.68L470.84,186.16L473.5,180.63L476.16,173.28L478.82,149.57L481.48,154.51L484.14,155.17L486.8,152.22L489.46,150.76L492.12,148.13L494.78,151.68L497.44,158.41L500.1,153.79L502.76,158.08L505.42,151.93L510.74,148.42L513.4,137.49L516.06,135.28L518.72,137.98L521.38,156.45L524.04,150.44L529.36,157.01L532.02,157.02L534.68,155.34L537.34,166.45L540,168.12L540,304" style="vector-effect: non-scaling-stroke; fill: none; stroke: rgb(99, 110, 250); stroke-opacity: 1; stroke-width: 2px; opacity: 1;"/></g><g class="points"/><g class="text"/></g></g></g><g class="overplot"/><path class="xlines-above crisp" d="M0,0" style="fill: none;"/><path class="ylines-above crisp" d="M0,0" style="fill: none;"/><g class="overlines-above"/><g class="xaxislayer-above"><g class="xtick"><text text-anchor="middle" x="0" y="433" transform="translate(151.82,0)" style="font-family: 'Open Sans', verdana, arial, sans-serif; font-size: 12px; fill: rgb(42, 63, 95); fill-opacity: 1; white-space: pre; opacity: 1;">Sep 2022</text></g><g class="xtick"><text text-anchor="middle" x="0" y="433" style="font-family: 'Open Sans', verdana, arial, sans-serif; font-size: 12px; fill: rgb(42, 63, 95); fill-opacity: 1; white-space: pre; opacity: 1;" transform="translate(231.63,0)">Oct 2022</text></g><g class="xtick"><text text-anchor="middle" x="0" y="433" style="font-family: 'Open Sans', verdana, arial, sans-serif; font-size: 12px; fill: rgb(42, 63, 95); fill-opacity: 1; white-space: pre; opacity: 1;" transform="translate(314.09000000000003,0)">Nov 2022</text></g><g class="xtick"><text text-anchor="middle" x="0" y="433" style="font-family: 'Open Sans', verdana, arial, sans-serif; font-size: 12px; fill: rgb(42, 63, 95); fill-opacity: 1; white-space: pre; opacity: 1;" transform="translate(393.89,0)">Dec 2022</text></g><g class="xtick"><text text-anchor="middle" x="0" y="433" style="font-family: 'Open Sans', verdana, arial, sans-serif; font-size: 12px; fill: rgb(42, 63, 95); fill-opacity: 1; white-space: pre; opacity: 1;" transform="translate(476.35,0)">Jan 2023</text></g><g class="xtick"><text text-anchor="middle" x="0" y="433" style="font-family: 'Open Sans', verdana, arial, sans-serif; font-size: 12px; fill: rgb(42, 63, 95); fill-opacity: 1; white-space: pre; opacity: 1;" transform="translate(558.8199999999999,0)">Feb 2023</text></g></g><g class="yaxislayer-above"><g class="ytick"><text text-anchor="end" x="79" y="4.199999999999999" transform="translate(0,418.21)" style="font-family: 'Open Sans', verdana, arial, sans-serif; font-size: 12px; fill: rgb(42, 63, 95); fill-opacity: 1; white-space: pre; opacity: 1;">$−20M</text></g><g class="ytick"><text text-anchor="end" x="79" y="4.199999999999999" style="font-family: 'Open Sans', verdana, arial, sans-serif; font-size: 12px; fill: rgb(42, 63, 95); fill-opacity: 1; white-space: pre; opacity: 1;" transform="translate(0,372.52)">$−10M</text></g><g class="ytick"><text text-anchor="end" x="79" y="4.199999999999999" style="font-family: 'Open Sans', verdana, arial, sans-serif; font-size: 12px; fill: rgb(42, 63, 95); fill-opacity: 1; white-space: pre; opacity: 1;" transform="translate(0,326.84000000000003)">$0</text></g><g class="ytick"><text text-anchor="end" x="79" y="4.199999999999999" style="font-family: 'Open Sans', verdana, arial, sans-serif; font-size: 12px; fill: rgb(42, 63, 95); fill-opacity: 1; white-space: pre; opacity: 1;" transform="translate(0,281.15)">$10M</text></g><g class="ytick"><text text-anchor="end" x="79" y="4.199999999999999" style="font-family: 'Open Sans', verdana, arial, sans-serif; font-size: 12px; fill: rgb(42, 63, 95); fill-opacity: 1; white-space: pre; opacity: 1;" transform="translate(0,235.46)">$20M</text></g><g class="ytick"><text text-anchor="end" x="79" y="4.199999999999999" style="font-family: 'Open Sans', verdana, arial, sans-serif; font-size: 12px; fill: rgb(42, 63, 95); fill-opacity: 1; white-space: pre; opacity: 1;" transform="translate(0,189.76999999999998)">$30M</text></g><g class="ytick"><text text-anchor="end" x="79" y="4.199999999999999" style="font-family: 'Open Sans', verdana, arial, sans-serif; font-size: 12px; fill: rgb(42, 63, 95); fill-opacity: 1; white-space: pre; opacity: 1;" transform="translate(0,144.07999999999998)">$40M</text></g></g><g class="overaxes-above"/></g></g><g class="polarlayer"/><g class="smithlayer"/><g class="ternarylayer"/><g class="geolayer"/><g class="funnelarealayer"/><g class="pielayer"/><g class="iciclelayer"/><g class="treemaplayer"/><g class="sunburstlayer"/><g class="glimages"/><defs id="topdefs-6f1b7f"><g class="clips"/></defs><g class="layer-above"><g class="imagelayer"/><g class="shapelayer"/></g><g class="infolayer"><g class="g-gtitle"><text class="gtitle" x="35" y="50" text-anchor="start" dy="0em" style="font-family: 'Open Sans', verdana, arial, sans-serif; font-size: 17px; fill: rgb(42, 63, 95); opacity: 1; font-weight: normal; white-space: pre;"><tspan class="line" dy="0em" x="35" y="50">Stargate</tspan><tspan class="line" dy="1.3em" x="35" y="50">​<tspan style="font-size:70%" dy="-0.6em">Cumulative Net Flows since Program Announcement, Until Program End + 30 Days</tspan><tspan dy="0.42em">​</tspan></tspan></text></g><g class="g-xtitle"><text class="xtitle" x="350" y="460.8" text-anchor="middle" style="font-family: 'Open Sans', verdana, arial, sans-serif; font-size: 14px; fill: rgb(42, 63, 95); opacity: 1; font-weight: normal; white-space: pre;">Day</text></g><g class="g-ytitle"><text class="ytitle" transform="rotate(-90,17.168750000000003,260)" x="17.168750000000003" y="260" text-anchor="middle" style="font-family: 'Open Sans', verdana, arial, sans-serif; font-size: 14px; fill: rgb(42, 63, 95); opacity: 1; font-weight: normal; white-space: pre;">Cumulative Net Flows (USD)</text></g></g></svg>