<svg class="main-svg" xmlns="http://www.w3.org/2000/svg" xmlns:xlink="http://www.w3.org/1999/xlink" width="700" height="500" style="" viewBox="0 0 700 500"><rect x="0" y="0" width="700" height="500" style="fill: rgb(255, 255, 255); fill-opacity: 1;"/><defs id="defs-1764fb"><g class="clips"><clipPath id="clip1764fbxyplot" class="plotclip"><rect width="540" height="320"/></clipPath><clipPath class="axesclip" id="clip1764fbx"><rect x="80" y="0" width="540" height="500"/></clipPath><clipPath class="axesclip" id="clip1764fby"><rect x="0" y="100" width="700" height="320"/></clipPath><clipPath class="axesclip" id="clip1764fbxy"><rect x="80" y="100" width="540" height="320"/></clipPath></g><g class="gradients"/><g class="patterns"/></defs><g class="bglayer"><rect class="bg" x="80" y="100" width="540" height="320" style="fill: rgb(229, 236, 246); fill-opacity: 1; stroke-width: 0;"/></g><g class="layer-below"><g class="imagelayer"/><g class="shapelayer"/></g><g class="cartesianlayer"><g class="subplot xy"><g class="layer-subplot"><g class="shapelayer"/><g class="imagelayer"/></g><g class="minor-gridlayer"><g class="x"/><g class="y"/></g><g class="gridlayer"><g class="x"><path class="xgrid crisp" transform="translate(195.15,0)" d="M0,100v320" style="stroke: rgb(255, 255, 255); stroke-opacity: 1; stroke-width: 1px;"/><path class="xgrid crisp" transform="translate(314.26,0)" d="M0,100v320" style="stroke: rgb(255, 255, 255); stroke-opacity: 1; stroke-width: 1px;"/><path class="xgrid crisp" transform="translate(437.35,0)" d="M0,100v320" style="stroke: rgb(255, 255, 255); stroke-opacity: 1; stroke-width: 1px;"/><path class="xgrid crisp" transform="translate(556.47,0)" d="M0,100v320" style="stroke: rgb(255, 255, 255); stroke-opacity: 1; stroke-width: 1px;"/></g><g class="y"><path class="ygrid crisp" transform="translate(0,304.46000000000004)" d="M80,0h540" style="stroke: rgb(255, 255, 255); stroke-opacity: 1; stroke-width: 1px;"/><path class="ygrid crisp" transform="translate(0,241.36)" d="M80,0h540" style="stroke: rgb(255, 255, 255); stroke-opacity: 1; stroke-width: 1px;"/><path class="ygrid crisp" transform="translate(0,178.26999999999998)" d="M80,0h540" style="stroke: rgb(255, 255, 255); stroke-opacity: 1; stroke-width: 1px;"/><path class="ygrid crisp" transform="translate(0,115.17)" d="M80,0h540" style="stroke: rgb(255, 255, 255); stroke-opacity: 1; stroke-width: 1px;"/></g></g><g class="zerolinelayer"><path class="yzl zl crisp" transform="translate(0,367.55)" d="M80,0h540" style="stroke: rgb(255, 255, 255); stroke-opacity: 1; stroke-width: 2px;"/></g><path class="xlines-below"/><path class="ylines-below"/><g class="overlines-below"/><g class="xaxislayer-below"/><g class="yaxislayer-below"/><g class="overaxes-below"/><g class="plot" transform="translate(80,100)" clip-path="url(#clip1764fbxyplot)"><g class="scatterlayer mlayer"><g class="trace scatter trace39d1ea" style="stroke-miterlimit: 2;"><g class="fills"><g><path class="js-fill" d="M540,267.55L0,267.55L0,262.48L3.97,150.39L7.94,116.3L11.91,54.88L15.88,35.15L19.85,34.32L23.82,23.49L27.79,27.54L31.76,22.92L35.74,27.14L39.71,16L43.68,18.46L47.65,18.65L51.62,19L55.59,27.04L63.53,32.07L67.5,33.38L75.44,31.49L79.41,27.97L83.38,26.21L87.35,26.14L91.32,27.81L95.29,33.58L99.26,32.57L103.24,33.87L107.21,30.36L111.18,28.93L119.12,27.84L123.09,32.22L131.03,32.65L135,36.55L138.97,42.37L142.94,40.09L146.91,39.62L150.88,36.56L154.85,35.64L158.82,37.53L162.79,36.18L166.76,36.07L174.71,41.45L178.68,47.74L182.65,44.96L186.62,50.13L190.59,49.66L194.56,50.02L198.53,43.03L202.5,44.37L206.47,44.69L210.44,41.85L214.41,43.28L218.38,46.07L222.35,42.51L226.32,42.14L230.29,44.59L234.26,45.47L246.18,44.57L250.15,42.74L254.12,42.58L258.09,43.55L262.06,44.67L266.03,47.43L270,47.12L273.97,45.33L277.94,41.56L281.91,41.63L285.88,39.85L289.85,45.94L293.82,51.73L297.79,46.24L301.76,49.76L305.74,46.67L309.71,47.62L313.68,47.65L317.65,51.79L321.62,51.6L325.59,49.91L329.56,50.39L333.53,46.52L337.5,40.95L341.47,43.65L345.44,30.56L357.35,30.87L361.32,36.35L365.29,47.86L369.26,48.64L373.24,46.43L377.21,47.94L381.18,51.18L385.15,52.84L389.12,43.04L393.09,56.43L397.06,54.03L401.03,54.77L405,55.51L408.97,76.9L412.94,75.13L416.91,76.66L420.88,78.46L424.85,78.56L428.82,78.8L432.79,88.48L440.74,90.99L444.71,90.41L448.68,304L452.65,91.2L460.59,91.17L464.56,92.12L468.53,92.04L472.5,89.55L476.47,90.73L480.44,93.73L488.38,94.96L492.35,94.31L500.29,93.51L504.26,94.08L508.24,92.93L512.21,93.35L516.18,96.55L520.15,95L524.12,96.69L528.09,97.41L536.03,99.47L540,103.64" style="fill: rgb(99, 110, 250); fill-opacity: 0.5; stroke-width: 0;"/></g></g><g class="errorbars"/><g class="lines"><path class="js-line" d="M0,262.48L3.97,150.39L7.94,116.3L11.91,54.88L15.88,35.15L19.85,34.32L23.82,23.49L27.79,27.54L31.76,22.92L35.74,27.14L39.71,16L43.68,18.46L47.65,18.65L51.62,19L55.59,27.04L63.53,32.07L67.5,33.38L75.44,31.49L79.41,27.97L83.38,26.21L87.35,26.14L91.32,27.81L95.29,33.58L99.26,32.57L103.24,33.87L107.21,30.36L111.18,28.93L119.12,27.84L123.09,32.22L131.03,32.65L135,36.55L138.97,42.37L142.94,40.09L146.91,39.62L150.88,36.56L154.85,35.64L158.82,37.53L162.79,36.18L166.76,36.07L174.71,41.45L178.68,47.74L182.65,44.96L186.62,50.13L190.59,49.66L194.56,50.02L198.53,43.03L202.5,44.37L206.47,44.69L210.44,41.85L214.41,43.28L218.38,46.07L222.35,42.51L226.32,42.14L230.29,44.59L234.26,45.47L246.18,44.57L250.15,42.74L254.12,42.58L258.09,43.55L262.06,44.67L266.03,47.43L270,47.12L273.97,45.33L277.94,41.56L281.91,41.63L285.88,39.85L289.85,45.94L293.82,51.73L297.79,46.24L301.76,49.76L305.74,46.67L309.71,47.62L313.68,47.65L317.65,51.79L321.62,51.6L325.59,49.91L329.56,50.39L333.53,46.52L337.5,40.95L341.47,43.65L345.44,30.56L357.35,30.87L361.32,36.35L365.29,47.86L369.26,48.64L373.24,46.43L377.21,47.94L381.18,51.18L385.15,52.84L389.12,43.04L393.09,56.43L397.06,54.03L401.03,54.77L405,55.51L408.97,76.9L412.94,75.13L416.91,76.66L420.88,78.46L424.85,78.56L428.82,78.8L432.79,88.48L440.74,90.99L444.71,90.41L448.68,304L452.65,91.2L460.59,91.17L464.56,92.12L468.53,92.04L472.5,89.55L476.47,90.73L480.44,93.73L488.38,94.96L492.35,94.31L500.29,93.51L504.26,94.08L508.24,92.93L512.21,93.35L516.18,96.55L520.15,95L524.12,96.69L528.09,97.41L536.03,99.47L540,103.64" style="vector-effect: non-scaling-stroke; fill: none; stroke: rgb(99, 110, 250); stroke-opacity: 1; stroke-width: 2px; opacity: 1;"/></g><g class="points"/><g class="text"/></g></g></g><g class="overplot"/><path class="xlines-above crisp" d="M0,0" style="fill: none;"/><path class="ylines-above crisp" d="M0,0" style="fill: none;"/><g class="overlines-above"/><g class="xaxislayer-above"><g class="xtick"><text text-anchor="middle" x="0" y="433" transform="translate(195.15,0)" style="font-family: 'Open Sans', verdana, arial, sans-serif; font-size: 12px; fill: rgb(42, 63, 95); fill-opacity: 1; white-space: pre; opacity: 1;">Sep 2022</text></g><g class="xtick"><text text-anchor="middle" x="0" y="433" style="font-family: 'Open Sans', verdana, arial, sans-serif; font-size: 12px; fill: rgb(42, 63, 95); fill-opacity: 1; white-space: pre; opacity: 1;" transform="translate(314.26,0)">Oct 2022</text></g><g class="xtick"><text text-anchor="middle" x="0" y="433" style="font-family: 'Open Sans', verdana, arial, sans-serif; font-size: 12px; fill: rgb(42, 63, 95); fill-opacity: 1; white-space: pre; opacity: 1;" transform="translate(437.35,0)">Nov 2022</text></g><g class="xtick"><text text-anchor="middle" x="0" y="433" style="font-family: 'Open Sans', verdana, arial, sans-serif; font-size: 12px; fill: rgb(42, 63, 95); fill-opacity: 1; white-space: pre; opacity: 1;" transform="translate(556.47,0)">Dec 2022</text></g></g><g class="yaxislayer-above"><g class="ytick"><text text-anchor="end" x="79" y="4.199999999999999" transform="translate(0,367.55)" style="font-family: 'Open Sans', verdana, arial, sans-serif; font-size: 12px; fill: rgb(42, 63, 95); fill-opacity: 1; white-space: pre; opacity: 1;">$0</text></g><g class="ytick"><text text-anchor="end" x="79" y="4.199999999999999" style="font-family: 'Open Sans', verdana, arial, sans-serif; font-size: 12px; fill: rgb(42, 63, 95); fill-opacity: 1; white-space: pre; opacity: 1;" transform="translate(0,304.46000000000004)">$1M</text></g><g class="ytick"><text text-anchor="end" x="79" y="4.199999999999999" style="font-family: 'Open Sans', verdana, arial, sans-serif; font-size: 12px; fill: rgb(42, 63, 95); fill-opacity: 1; white-space: pre; opacity: 1;" transform="translate(0,241.36)">$2M</text></g><g class="ytick"><text text-anchor="end" x="79" y="4.199999999999999" style="font-family: 'Open Sans', verdana, arial, sans-serif; font-size: 12px; fill: rgb(42, 63, 95); fill-opacity: 1; white-space: pre; opacity: 1;" transform="translate(0,178.26999999999998)">$3M</text></g><g class="ytick"><text text-anchor="end" x="79" y="4.199999999999999" style="font-family: 'Open Sans', verdana, arial, sans-serif; font-size: 12px; fill: rgb(42, 63, 95); fill-opacity: 1; white-space: pre; opacity: 1;" transform="translate(0,115.17)">$4M</text></g></g><g class="overaxes-above"/></g></g><g class="polarlayer"/><g class="smithlayer"/><g class="ternarylayer"/><g class="geolayer"/><g class="funnelarealayer"/><g class="pielayer"/><g class="iciclelayer"/><g class="treemaplayer"/><g class="sunburstlayer"/><g class="glimages"/><defs id="topdefs-1764fb"><g class="clips"/></defs><g class="layer-above"><g class="imagelayer"/><g class="shapelayer"/></g><g class="infolayer"><g class="g-gtitle"><text class="gtitle" x="35" y="50" text-anchor="start" dy="0em" style="font-family: 'Open Sans', verdana, arial, sans-serif; font-size: 17px; fill: rgb(42, 63, 95); opacity: 1; font-weight: normal; white-space: pre;">Wepiggy: Cumulative Net Dollar Flow since Program Announcement</text></g><g class="g-xtitle"><text class="xtitle" x="350" y="460.8" text-anchor="middle" style="font-family: 'Open Sans', verdana, arial, sans-serif; font-size: 14px; fill: rgb(42, 63, 95); opacity: 1; font-weight: normal; white-space: pre;">Day</text></g><g class="g-ytitle"><text class="ytitle" transform="rotate(-90,30.856250000000003,260)" x="30.856250000000003" y="260" text-anchor="middle" style="font-family: 'Open Sans', verdana, arial, sans-serif; font-size: 14px; fill: rgb(42, 63, 95); opacity: 1; font-weight: normal; white-space: pre;">Cumulative Net Dollar Flow (N$F)</text></g></g></svg>