<svg class="main-svg" xmlns="http://www.w3.org/2000/svg" xmlns:xlink="http://www.w3.org/1999/xlink" width="700" height="500" style="" viewBox="0 0 700 500"><rect x="0" y="0" width="700" height="500" style="fill: rgb(255, 255, 255); fill-opacity: 1;"/><defs id="defs-11672a"><g class="clips"><clipPath id="clip11672axyplot" class="plotclip"><rect width="540" height="320"/></clipPath><clipPath class="axesclip" id="clip11672ax"><rect x="80" y="0" width="540" height="500"/></clipPath><clipPath class="axesclip" id="clip11672ay"><rect x="0" y="100" width="700" height="320"/></clipPath><clipPath class="axesclip" id="clip11672axy"><rect x="80" y="100" width="540" height="320"/></clipPath></g><g class="gradients"/><g class="patterns"/></defs><g class="bglayer"><rect class="bg" x="80" y="100" width="540" height="320" style="fill: rgb(229, 236, 246); fill-opacity: 1; stroke-width: 0;"/></g><g class="layer-below"><g class="imagelayer"/><g class="shapelayer"/></g><g class="cartesianlayer"><g class="subplot xy"><g class="layer-subplot"><g class="shapelayer"/><g class="imagelayer"/></g><g class="minor-gridlayer"><g class="x"/><g class="y"/></g><g class="gridlayer"><g class="x"><path class="xgrid crisp" transform="translate(121.17,0)" d="M0,100v320" style="stroke: rgb(255, 255, 255); stroke-opacity: 1; stroke-width: 1px;"/><path class="xgrid crisp" transform="translate(196.23000000000002,0)" d="M0,100v320" style="stroke: rgb(255, 255, 255); stroke-opacity: 1; stroke-width: 1px;"/><path class="xgrid crisp" transform="translate(268.88,0)" d="M0,100v320" style="stroke: rgb(255, 255, 255); stroke-opacity: 1; stroke-width: 1px;"/><path class="xgrid crisp" transform="translate(343.95,0)" d="M0,100v320" style="stroke: rgb(255, 255, 255); stroke-opacity: 1; stroke-width: 1px;"/><path class="xgrid crisp" transform="translate(416.59,0)" d="M0,100v320" style="stroke: rgb(255, 255, 255); stroke-opacity: 1; stroke-width: 1px;"/><path class="xgrid crisp" transform="translate(491.66,0)" d="M0,100v320" style="stroke: rgb(255, 255, 255); stroke-opacity: 1; stroke-width: 1px;"/><path class="xgrid crisp" transform="translate(566.73,0)" d="M0,100v320" style="stroke: rgb(255, 255, 255); stroke-opacity: 1; stroke-width: 1px;"/></g><g class="y"><path class="ygrid crisp" transform="translate(0,414.83)" d="M80,0h540" style="stroke: rgb(255, 255, 255); stroke-opacity: 1; stroke-width: 1px;"/><path class="ygrid crisp" transform="translate(0,292.36)" d="M80,0h540" style="stroke: rgb(255, 255, 255); stroke-opacity: 1; stroke-width: 1px;"/><path class="ygrid crisp" transform="translate(0,231.13)" d="M80,0h540" style="stroke: rgb(255, 255, 255); stroke-opacity: 1; stroke-width: 1px;"/><path class="ygrid crisp" transform="translate(0,169.89)" d="M80,0h540" style="stroke: rgb(255, 255, 255); stroke-opacity: 1; stroke-width: 1px;"/><path class="ygrid crisp" transform="translate(0,108.66)" d="M80,0h540" style="stroke: rgb(255, 255, 255); stroke-opacity: 1; stroke-width: 1px;"/></g></g><g class="zerolinelayer"><path class="yzl zl crisp" transform="translate(0,353.59000000000003)" d="M80,0h540" style="stroke: rgb(255, 255, 255); stroke-opacity: 1; stroke-width: 2px;"/></g><path class="xlines-below"/><path class="ylines-below"/><g class="overlines-below"/><g class="xaxislayer-below"/><g class="yaxislayer-below"/><g class="overaxes-below"/><g class="plot" transform="translate(80,100)" clip-path="url(#clip11672axyplot)"><g class="scatterlayer mlayer"><g class="trace scatter trace54f4a6" style="stroke-miterlimit: 2;"><g class="fills"><g><path class="js-fill" d="M540,253.59L0,253.59L0,241.74L2.42,199.46L4.84,185.21L7.26,193.72L9.69,197.43L12.11,199.06L14.53,206.4L16.95,208.06L19.37,146.58L21.79,128.8L24.22,129.41L26.64,133.95L29.06,181.94L31.48,190.77L33.9,186.18L36.32,157.63L38.74,163.3L41.17,161.13L43.59,154.89L46.01,152.1L48.43,156.45L50.85,187.01L53.27,165.62L58.12,213.5L60.54,220.24L62.96,216.65L65.38,180.25L70.22,122.06L72.65,120.97L75.07,135.37L77.49,171.91L79.91,175.15L82.33,188.52L84.75,179.35L87.17,134.38L89.6,135.81L92.02,173.12L94.44,163.85L96.86,166.39L99.28,168.41L101.7,197.49L104.13,174.54L106.55,162.7L108.97,212.16L111.39,197.03L113.81,191.81L116.23,201.36L118.65,197.16L121.08,176.62L123.5,197.9L125.92,208.19L128.34,212.28L130.76,227.71L133.18,244.69L135.61,246.76L138.03,221.33L140.45,223.72L142.87,157.86L145.29,199.59L147.71,201.26L150.13,208.23L152.56,212.73L154.98,221.17L157.4,108.21L159.82,199.35L162.24,184.21L164.66,191.67L167.09,209.57L169.51,214.25L171.93,183.38L174.35,186.75L176.77,188.54L179.19,209.46L181.61,166.95L184.04,166.47L186.46,163.64L188.88,165.99L191.3,142.13L193.72,208.35L196.14,206.04L198.57,196.26L200.99,231.11L203.41,234.53L205.83,232.2L208.25,245.46L213.09,304L215.52,287.62L220.36,270.49L222.78,247.58L225.2,244.4L227.62,268.53L232.47,225.29L234.89,209.46L237.31,226.46L239.73,234.54L242.15,236.45L244.57,252.55L247,262.88L249.42,267.62L251.84,241.42L254.26,235.34L259.1,189.18L261.52,249.01L263.95,237.45L266.37,245.47L268.79,216.34L271.21,230.29L273.63,179.82L276.05,195.5L278.48,241.76L280.9,160.3L283.32,183.3L285.74,160.08L288.16,149.13L290.58,100.77L293,101.97L295.43,159.58L297.85,149.26L300.27,146.22L302.69,135.91L305.11,143.29L307.53,106.92L309.96,109.16L312.38,113.05L314.8,99.57L317.22,51.55L319.64,51.11L322.06,160.69L324.48,112.78L326.91,136.1L329.33,118.18L331.75,147.94L334.17,215.76L336.59,109.42L339.01,121.49L341.43,46.5L343.86,55.11L348.7,100.89L351.12,70.07L355.96,33.86L358.39,16L360.81,23.61L363.23,138.04L365.65,167.14L368.07,187.11L370.49,208.4L372.91,219.23L375.34,179.58L377.76,181.64L380.18,208.14L382.6,183.64L385.02,194.68L387.44,177.3L389.87,186.22L392.29,172.28L394.71,206.01L397.13,183.06L399.55,201.72L401.97,205.46L404.39,199.74L406.82,162.12L409.24,195.87L411.66,196.92L414.08,245.25L416.5,222.41L418.92,231.06L421.35,202.13L423.77,189.99L426.19,141.17L428.61,138.09L431.03,148.77L433.45,114.73L435.87,109.35L438.3,125.43L440.72,153.85L443.14,129.81L445.56,139.15L447.98,152.9L450.4,172.68L452.83,164.53L455.25,162.71L457.67,164.45L460.09,116.18L464.93,173.24L467.35,103.48L469.78,93.03L472.2,152.1L474.62,199.01L477.04,229.09L479.46,197.21L481.88,245.64L484.3,176.16L486.73,287.29L489.15,300.05L491.57,278.45L493.99,267.81L496.41,294.27L498.83,295.78L501.26,291.7L503.68,283.89L506.1,260.22L508.52,255.99L510.94,238.21L513.36,211.14L515.78,58.16L518.21,239.16L520.63,245.5L523.05,238.94L525.47,246.56L527.89,241.91L530.31,253.9L532.74,277.69L535.16,282.53L537.58,271.9L540,256.24" style="fill: rgb(99, 110, 250); fill-opacity: 0.5; stroke-width: 0;"/></g></g><g class="errorbars"/><g class="lines"><path class="js-line" d="M0,241.74L2.42,199.46L4.84,185.21L7.26,193.72L9.69,197.43L12.11,199.06L14.53,206.4L16.95,208.06L19.37,146.58L21.79,128.8L24.22,129.41L26.64,133.95L29.06,181.94L31.48,190.77L33.9,186.18L36.32,157.63L38.74,163.3L41.17,161.13L43.59,154.89L46.01,152.1L48.43,156.45L50.85,187.01L53.27,165.62L58.12,213.5L60.54,220.24L62.96,216.65L65.38,180.25L70.22,122.06L72.65,120.97L75.07,135.37L77.49,171.91L79.91,175.15L82.33,188.52L84.75,179.35L87.17,134.38L89.6,135.81L92.02,173.12L94.44,163.85L96.86,166.39L99.28,168.41L101.7,197.49L104.13,174.54L106.55,162.7L108.97,212.16L111.39,197.03L113.81,191.81L116.23,201.36L118.65,197.16L121.08,176.62L123.5,197.9L125.92,208.19L128.34,212.28L130.76,227.71L133.18,244.69L135.61,246.76L138.03,221.33L140.45,223.72L142.87,157.86L145.29,199.59L147.71,201.26L150.13,208.23L152.56,212.73L154.98,221.17L157.4,108.21L159.82,199.35L162.24,184.21L164.66,191.67L167.09,209.57L169.51,214.25L171.93,183.38L174.35,186.75L176.77,188.54L179.19,209.46L181.61,166.95L184.04,166.47L186.46,163.64L188.88,165.99L191.3,142.13L193.72,208.35L196.14,206.04L198.57,196.26L200.99,231.11L203.41,234.53L205.83,232.2L208.25,245.46L213.09,304L215.52,287.62L220.36,270.49L222.78,247.58L225.2,244.4L227.62,268.53L232.47,225.29L234.89,209.46L237.31,226.46L239.73,234.54L242.15,236.45L244.57,252.55L247,262.88L249.42,267.62L251.84,241.42L254.26,235.34L259.1,189.18L261.52,249.01L263.95,237.45L266.37,245.47L268.79,216.34L271.21,230.29L273.63,179.82L276.05,195.5L278.48,241.76L280.9,160.3L283.32,183.3L285.74,160.08L288.16,149.13L290.58,100.77L293,101.97L295.43,159.58L297.85,149.26L300.27,146.22L302.69,135.91L305.11,143.29L307.53,106.92L309.96,109.16L312.38,113.05L314.8,99.57L317.22,51.55L319.64,51.11L322.06,160.69L324.48,112.78L326.91,136.1L329.33,118.18L331.75,147.94L334.17,215.76L336.59,109.42L339.01,121.49L341.43,46.5L343.86,55.11L348.7,100.89L351.12,70.07L355.96,33.86L358.39,16L360.81,23.61L363.23,138.04L365.65,167.14L368.07,187.11L370.49,208.4L372.91,219.23L375.34,179.58L377.76,181.64L380.18,208.14L382.6,183.64L385.02,194.68L387.44,177.3L389.87,186.22L392.29,172.28L394.71,206.01L397.13,183.06L399.55,201.72L401.97,205.46L404.39,199.74L406.82,162.12L409.24,195.87L411.66,196.92L414.08,245.25L416.5,222.41L418.92,231.06L421.35,202.13L423.77,189.99L426.19,141.17L428.61,138.09L431.03,148.77L433.45,114.73L435.87,109.35L438.3,125.43L440.72,153.85L443.14,129.81L445.56,139.15L447.98,152.9L450.4,172.68L452.83,164.53L455.25,162.71L457.67,164.45L460.09,116.18L464.93,173.24L467.35,103.48L469.78,93.03L472.2,152.1L474.62,199.01L477.04,229.09L479.46,197.21L481.88,245.64L484.3,176.16L486.73,287.29L489.15,300.05L491.57,278.45L493.99,267.81L496.41,294.27L498.83,295.78L501.26,291.7L503.68,283.89L506.1,260.22L508.52,255.99L510.94,238.21L513.36,211.14L515.78,58.16L518.21,239.16L520.63,245.5L523.05,238.94L525.47,246.56L527.89,241.91L530.31,253.9L532.74,277.69L535.16,282.53L537.58,271.9L540,256.24" style="vector-effect: non-scaling-stroke; fill: none; stroke: rgb(99, 110, 250); stroke-opacity: 1; stroke-width: 2px; opacity: 1;"/></g><g class="points"/><g class="text"/></g></g></g><g class="overplot"/><path class="xlines-above crisp" d="M0,0" style="fill: none;"/><path class="ylines-above crisp" d="M0,0" style="fill: none;"/><g class="overlines-above"/><g class="xaxislayer-above"><g class="xtick"><text text-anchor="middle" x="0" y="433" transform="translate(121.17,0)" style="font-family: 'Open Sans', verdana, arial, sans-serif; font-size: 12px; fill: rgb(42, 63, 95); fill-opacity: 1; white-space: pre; opacity: 1;">Aug 2022</text></g><g class="xtick"><text text-anchor="middle" x="0" y="433" style="font-family: 'Open Sans', verdana, arial, sans-serif; font-size: 12px; fill: rgb(42, 63, 95); fill-opacity: 1; white-space: pre; opacity: 1;" transform="translate(196.23000000000002,0)">Sep 2022</text></g><g class="xtick"><text text-anchor="middle" x="0" y="433" style="font-family: 'Open Sans', verdana, arial, sans-serif; font-size: 12px; fill: rgb(42, 63, 95); fill-opacity: 1; white-space: pre; opacity: 1;" transform="translate(268.88,0)">Oct 2022</text></g><g class="xtick"><text text-anchor="middle" x="0" y="433" style="font-family: 'Open Sans', verdana, arial, sans-serif; font-size: 12px; fill: rgb(42, 63, 95); fill-opacity: 1; white-space: pre; opacity: 1;" transform="translate(343.95,0)">Nov 2022</text></g><g class="xtick"><text text-anchor="middle" x="0" y="433" style="font-family: 'Open Sans', verdana, arial, sans-serif; font-size: 12px; fill: rgb(42, 63, 95); fill-opacity: 1; white-space: pre; opacity: 1;" transform="translate(416.59,0)">Dec 2022</text></g><g class="xtick"><text text-anchor="middle" x="0" y="433" style="font-family: 'Open Sans', verdana, arial, sans-serif; font-size: 12px; fill: rgb(42, 63, 95); fill-opacity: 1; white-space: pre; opacity: 1;" transform="translate(491.66,0)">Jan 2023</text></g><g class="xtick"><text text-anchor="middle" x="0" y="433" style="font-family: 'Open Sans', verdana, arial, sans-serif; font-size: 12px; fill: rgb(42, 63, 95); fill-opacity: 1; white-space: pre; opacity: 1;" transform="translate(566.73,0)">Feb 2023</text></g></g><g class="yaxislayer-above"><g class="ytick"><text text-anchor="end" x="79" y="4.199999999999999" transform="translate(0,414.83)" style="font-family: 'Open Sans', verdana, arial, sans-serif; font-size: 12px; fill: rgb(42, 63, 95); fill-opacity: 1; white-space: pre; opacity: 1;">$−50k</text></g><g class="ytick"><text text-anchor="end" x="79" y="4.199999999999999" style="font-family: 'Open Sans', verdana, arial, sans-serif; font-size: 12px; fill: rgb(42, 63, 95); fill-opacity: 1; white-space: pre; opacity: 1;" transform="translate(0,353.59000000000003)">$0</text></g><g class="ytick"><text text-anchor="end" x="79" y="4.199999999999999" style="font-family: 'Open Sans', verdana, arial, sans-serif; font-size: 12px; fill: rgb(42, 63, 95); fill-opacity: 1; white-space: pre; opacity: 1;" transform="translate(0,292.36)">$50k</text></g><g class="ytick"><text text-anchor="end" x="79" y="4.199999999999999" style="font-family: 'Open Sans', verdana, arial, sans-serif; font-size: 12px; fill: rgb(42, 63, 95); fill-opacity: 1; white-space: pre; opacity: 1;" transform="translate(0,231.13)">$100k</text></g><g class="ytick"><text text-anchor="end" x="79" y="4.199999999999999" style="font-family: 'Open Sans', verdana, arial, sans-serif; font-size: 12px; fill: rgb(42, 63, 95); fill-opacity: 1; white-space: pre; opacity: 1;" transform="translate(0,169.89)">$150k</text></g><g class="ytick"><text text-anchor="end" x="79" y="4.199999999999999" style="font-family: 'Open Sans', verdana, arial, sans-serif; font-size: 12px; fill: rgb(42, 63, 95); fill-opacity: 1; white-space: pre; opacity: 1;" transform="translate(0,108.66)">$200k</text></g></g><g class="overaxes-above"/></g></g><g class="polarlayer"/><g class="smithlayer"/><g class="ternarylayer"/><g class="geolayer"/><g class="funnelarealayer"/><g class="pielayer"/><g class="iciclelayer"/><g class="treemaplayer"/><g class="sunburstlayer"/><g class="glimages"/><defs id="topdefs-11672a"><g class="clips"/></defs><g class="layer-above"><g class="imagelayer"/><g class="shapelayer"/></g><g class="infolayer"><g class="g-gtitle"><text class="gtitle" x="35" y="50" text-anchor="start" dy="0em" style="font-family: 'Open Sans', verdana, arial, sans-serif; font-size: 17px; fill: rgb(42, 63, 95); opacity: 1; font-weight: normal; white-space: pre;"><tspan class="line" dy="0em" x="35" y="50">Thales</tspan><tspan class="line" dy="1.3em" x="35" y="50">​<tspan style="font-size:70%" dy="-0.6em">Cumulative Net Flows since Program Announcement, Until Program End + 30 Days</tspan><tspan dy="0.42em">​</tspan></tspan></text></g><g class="g-xtitle"><text class="xtitle" x="350" y="460.8" text-anchor="middle" style="font-family: 'Open Sans', verdana, arial, sans-serif; font-size: 14px; fill: rgb(42, 63, 95); opacity: 1; font-weight: normal; white-space: pre;">Day</text></g><g class="g-ytitle"><text class="ytitle" transform="rotate(-90,21.168750000000003,260)" x="21.168750000000003" y="260" text-anchor="middle" style="font-family: 'Open Sans', verdana, arial, sans-serif; font-size: 14px; fill: rgb(42, 63, 95); opacity: 1; font-weight: normal; white-space: pre;">Cumulative Net Flows (USD)</text></g></g></svg>