<svg class="main-svg" xmlns="http://www.w3.org/2000/svg" xmlns:xlink="http://www.w3.org/1999/xlink" width="700" height="500" style="" viewBox="0 0 700 500"><rect x="0" y="0" width="700" height="500" style="fill: rgb(255, 255, 255); fill-opacity: 1;"/><defs id="defs-eca09f"><g class="clips"><clipPath id="clipeca09fxyplot" class="plotclip"><rect width="540" height="320"/></clipPath><clipPath class="axesclip" id="clipeca09fx"><rect x="80" y="0" width="540" height="500"/></clipPath><clipPath class="axesclip" id="clipeca09fy"><rect x="0" y="100" width="700" height="320"/></clipPath><clipPath class="axesclip" id="clipeca09fxy"><rect x="80" y="100" width="540" height="320"/></clipPath></g><g class="gradients"/><g class="patterns"/></defs><g class="bglayer"><rect class="bg" x="80" y="100" width="540" height="320" style="fill: rgb(229, 236, 246); fill-opacity: 1; stroke-width: 0;"/></g><g class="layer-below"><g class="imagelayer"/><g class="shapelayer"/></g><g class="cartesianlayer"><g class="subplot xy"><g class="layer-subplot"><g class="shapelayer"/><g class="imagelayer"/></g><g class="minor-gridlayer"><g class="x"/><g class="y"/></g><g class="gridlayer"><g class="x"><path class="xgrid crisp" transform="translate(104.55,0)" d="M0,100v320" style="stroke: rgb(255, 255, 255); stroke-opacity: 1; stroke-width: 1px;"/><path class="xgrid crisp" transform="translate(180.64,0)" d="M0,100v320" style="stroke: rgb(255, 255, 255); stroke-opacity: 1; stroke-width: 1px;"/><path class="xgrid crisp" transform="translate(254.27,0)" d="M0,100v320" style="stroke: rgb(255, 255, 255); stroke-opacity: 1; stroke-width: 1px;"/><path class="xgrid crisp" transform="translate(330.36,0)" d="M0,100v320" style="stroke: rgb(255, 255, 255); stroke-opacity: 1; stroke-width: 1px;"/><path class="xgrid crisp" transform="translate(404,0)" d="M0,100v320" style="stroke: rgb(255, 255, 255); stroke-opacity: 1; stroke-width: 1px;"/><path class="xgrid crisp" transform="translate(480.09,0)" d="M0,100v320" style="stroke: rgb(255, 255, 255); stroke-opacity: 1; stroke-width: 1px;"/><path class="xgrid crisp" transform="translate(556.1800000000001,0)" d="M0,100v320" style="stroke: rgb(255, 255, 255); stroke-opacity: 1; stroke-width: 1px;"/></g><g class="y"><path class="ygrid crisp" transform="translate(0,315.43)" d="M80,0h540" style="stroke: rgb(255, 255, 255); stroke-opacity: 1; stroke-width: 1px;"/><path class="ygrid crisp" transform="translate(0,244.48)" d="M80,0h540" style="stroke: rgb(255, 255, 255); stroke-opacity: 1; stroke-width: 1px;"/><path class="ygrid crisp" transform="translate(0,173.54000000000002)" d="M80,0h540" style="stroke: rgb(255, 255, 255); stroke-opacity: 1; stroke-width: 1px;"/><path class="ygrid crisp" transform="translate(0,102.6)" d="M80,0h540" style="stroke: rgb(255, 255, 255); stroke-opacity: 1; stroke-width: 1px;"/></g></g><g class="zerolinelayer"><path class="yzl zl crisp" transform="translate(0,386.37)" d="M80,0h540" style="stroke: rgb(255, 255, 255); stroke-opacity: 1; stroke-width: 2px;"/></g><path class="xlines-below"/><path class="ylines-below"/><g class="overlines-below"/><g class="xaxislayer-below"/><g class="yaxislayer-below"/><g class="overaxes-below"/><g class="plot" transform="translate(80,100)" clip-path="url(#clipeca09fxyplot)"><g class="scatterlayer mlayer"><g class="trace scatter trace898516" style="stroke-miterlimit: 2;"><g class="fills"><g><path class="js-fill" d="M540,286.37L0,286.37L0,285.92L2.45,283.22L4.91,277.42L9.82,273.01L12.27,250.84L14.73,201.64L17.18,168.74L19.64,155.31L22.09,150.36L29.45,137.1L31.91,129.94L34.36,107.29L36.82,98.89L39.27,76.58L41.73,74.68L46.64,51.02L49.09,48.21L51.55,44.31L54,50.66L56.45,67.19L58.91,101.32L61.36,83.36L63.82,75.51L66.27,78.7L68.73,78.68L71.18,76.09L73.64,76.04L76.09,78.07L78.55,91.97L81,89.89L83.45,81.02L85.91,44.75L88.36,55.2L90.82,53.85L93.27,53.82L95.73,54.66L98.18,58.42L103.09,73.99L105.55,74.63L110.45,74.71L112.91,78.87L115.36,78.03L117.82,78.78L120.27,78.97L122.73,81.62L125.18,82.08L127.64,81.38L130.09,87.74L132.55,97.41L135,117.39L137.45,304L162,64.9L164.45,64.9L166.91,64.9L169.36,63.95L174.27,62.75L176.73,59.98L179.18,55.25L181.64,41L186.55,41.93L189,43.71L191.45,303.99L193.91,45.14L196.36,44.75L198.82,38.77L201.27,46.65L203.73,45.65L206.18,52.63L208.64,52.97L216,51.38L218.45,58.61L220.91,59.33L223.36,53.63L225.82,50.11L228.27,50.08L230.73,55.86L233.18,55.25L235.64,56.62L238.09,54.01L240.55,56.15L243,56.25L247.91,52.53L250.36,52.8L255.27,46.04L257.73,52.56L260.18,53.37L262.64,53.13L265.09,50.6L267.55,49.57L270,56.11L272.45,69.94L274.91,62.43L277.36,67.53L279.82,69.02L282.27,66.03L284.73,64.86L287.18,57.56L289.64,79.62L292.09,80.67L294.55,80.08L297,80.7L301.91,83.31L304.36,92.1L311.73,95.54L314.18,94.96L316.64,94.82L319.09,96.16L321.55,109.24L324,107.13L326.45,96.02L328.91,96.17L333.82,95.47L336.27,95.89L341.18,67.41L343.64,67.02L348.55,66.56L351,93.55L353.45,93.96L355.91,91.55L363.27,89.37L365.73,77.37L368.18,80.27L370.64,79.36L373.09,54.15L375.55,54.26L378,54.62L380.45,49.3L382.91,53.9L385.36,52.87L387.82,47.63L390.27,47.3L395.18,49.31L397.64,62.99L400.09,74.56L402.55,74.48L407.45,77.06L409.91,79.16L412.36,81.64L414.82,81.33L417.27,77.37L419.73,76.75L422.18,77.2L424.64,75.32L427.09,70.72L429.55,69.28L432,68.81L434.45,70.87L436.91,73.7L439.36,72.09L441.82,73.96L444.27,73.33L446.73,71.34L449.18,63.06L451.64,57.5L454.09,59.12L456.55,59.65L459,59.23L461.45,57.56L463.91,57.21L466.36,58.82L468.82,55.55L471.27,54.69L473.73,56.09L476.18,49.69L478.64,52.5L481.09,41.64L483.55,38.42L486,37.66L488.45,33.76L493.36,33.89L495.82,16.31L498.27,20.59L500.73,18.2L503.18,16.07L505.64,16L508.09,19.47L510.55,19.38L513,20.1L515.45,18.68L520.36,19.75L522.82,18.67L525.27,19.51L527.73,19.47L530.18,19.54L532.64,26.56L535.09,26.62L537.55,24.08L540,21.95" style="fill: rgb(99, 110, 250); fill-opacity: 0.5; stroke-width: 0;"/></g></g><g class="errorbars"/><g class="lines"><path class="js-line" d="M0,285.92L2.45,283.22L4.91,277.42L9.82,273.01L12.27,250.84L14.73,201.64L17.18,168.74L19.64,155.31L22.09,150.36L29.45,137.1L31.91,129.94L34.36,107.29L36.82,98.89L39.27,76.58L41.73,74.68L46.64,51.02L49.09,48.21L51.55,44.31L54,50.66L56.45,67.19L58.91,101.32L61.36,83.36L63.82,75.51L66.27,78.7L68.73,78.68L71.18,76.09L73.64,76.04L76.09,78.07L78.55,91.97L81,89.89L83.45,81.02L85.91,44.75L88.36,55.2L90.82,53.85L93.27,53.82L95.73,54.66L98.18,58.42L103.09,73.99L105.55,74.63L110.45,74.71L112.91,78.87L115.36,78.03L117.82,78.78L120.27,78.97L122.73,81.62L125.18,82.08L127.64,81.38L130.09,87.74L132.55,97.41L135,117.39L137.45,304L162,64.9L164.45,64.9L166.91,64.9L169.36,63.95L174.27,62.75L176.73,59.98L179.18,55.25L181.64,41L186.55,41.93L189,43.71L191.45,303.99L193.91,45.14L196.36,44.75L198.82,38.77L201.27,46.65L203.73,45.65L206.18,52.63L208.64,52.97L216,51.38L218.45,58.61L220.91,59.33L223.36,53.63L225.82,50.11L228.27,50.08L230.73,55.86L233.18,55.25L235.64,56.62L238.09,54.01L240.55,56.15L243,56.25L247.91,52.53L250.36,52.8L255.27,46.04L257.73,52.56L260.18,53.37L262.64,53.13L265.09,50.6L267.55,49.57L270,56.11L272.45,69.94L274.91,62.43L277.36,67.53L279.82,69.02L282.27,66.03L284.73,64.86L287.18,57.56L289.64,79.62L292.09,80.67L294.55,80.08L297,80.7L301.91,83.31L304.36,92.1L311.73,95.54L314.18,94.96L316.64,94.82L319.09,96.16L321.55,109.24L324,107.13L326.45,96.02L328.91,96.17L333.82,95.47L336.27,95.89L341.18,67.41L343.64,67.02L348.55,66.56L351,93.55L353.45,93.96L355.91,91.55L363.27,89.37L365.73,77.37L368.18,80.27L370.64,79.36L373.09,54.15L375.55,54.26L378,54.62L380.45,49.3L382.91,53.9L385.36,52.87L387.82,47.63L390.27,47.3L395.18,49.31L397.64,62.99L400.09,74.56L402.55,74.48L407.45,77.06L409.91,79.16L412.36,81.64L414.82,81.33L417.27,77.37L419.73,76.75L422.18,77.2L424.64,75.32L427.09,70.72L429.55,69.28L432,68.81L434.45,70.87L436.91,73.7L439.36,72.09L441.82,73.96L444.27,73.33L446.73,71.34L449.18,63.06L451.64,57.5L454.09,59.12L456.55,59.65L459,59.23L461.45,57.56L463.91,57.21L466.36,58.82L468.82,55.55L471.27,54.69L473.73,56.09L476.18,49.69L478.64,52.5L481.09,41.64L483.55,38.42L486,37.66L488.45,33.76L493.36,33.89L495.82,16.31L498.27,20.59L500.73,18.2L503.18,16.07L505.64,16L508.09,19.47L510.55,19.38L513,20.1L515.45,18.68L520.36,19.75L522.82,18.67L525.27,19.51L527.73,19.47L530.18,19.54L532.64,26.56L535.09,26.62L537.55,24.08L540,21.95" style="vector-effect: non-scaling-stroke; fill: none; stroke: rgb(99, 110, 250); stroke-opacity: 1; stroke-width: 2px; opacity: 1;"/></g><g class="points"/><g class="text"/></g></g></g><g class="overplot"/><path class="xlines-above crisp" d="M0,0" style="fill: none;"/><path class="ylines-above crisp" d="M0,0" style="fill: none;"/><g class="overlines-above"/><g class="xaxislayer-above"><g class="xtick"><text text-anchor="middle" x="0" y="433" transform="translate(104.55,0)" style="font-family: 'Open Sans', verdana, arial, sans-serif; font-size: 12px; fill: rgb(42, 63, 95); fill-opacity: 1; white-space: pre; opacity: 1;">Aug 2022</text></g><g class="xtick"><text text-anchor="middle" x="0" y="433" style="font-family: 'Open Sans', verdana, arial, sans-serif; font-size: 12px; fill: rgb(42, 63, 95); fill-opacity: 1; white-space: pre; opacity: 1;" transform="translate(180.64,0)">Sep 2022</text></g><g class="xtick"><text text-anchor="middle" x="0" y="433" style="font-family: 'Open Sans', verdana, arial, sans-serif; font-size: 12px; fill: rgb(42, 63, 95); fill-opacity: 1; white-space: pre; opacity: 1;" transform="translate(254.27,0)">Oct 2022</text></g><g class="xtick"><text text-anchor="middle" x="0" y="433" style="font-family: 'Open Sans', verdana, arial, sans-serif; font-size: 12px; fill: rgb(42, 63, 95); fill-opacity: 1; white-space: pre; opacity: 1;" transform="translate(330.36,0)">Nov 2022</text></g><g class="xtick"><text text-anchor="middle" x="0" y="433" style="font-family: 'Open Sans', verdana, arial, sans-serif; font-size: 12px; fill: rgb(42, 63, 95); fill-opacity: 1; white-space: pre; opacity: 1;" transform="translate(404,0)">Dec 2022</text></g><g class="xtick"><text text-anchor="middle" x="0" y="433" style="font-family: 'Open Sans', verdana, arial, sans-serif; font-size: 12px; fill: rgb(42, 63, 95); fill-opacity: 1; white-space: pre; opacity: 1;" transform="translate(480.09,0)">Jan 2023</text></g><g class="xtick"><text text-anchor="middle" x="0" y="433" style="font-family: 'Open Sans', verdana, arial, sans-serif; font-size: 12px; fill: rgb(42, 63, 95); fill-opacity: 1; white-space: pre; opacity: 1;" transform="translate(556.1800000000001,0)">Feb 2023</text></g></g><g class="yaxislayer-above"><g class="ytick"><text text-anchor="end" x="79" y="4.199999999999999" transform="translate(0,386.37)" style="font-family: 'Open Sans', verdana, arial, sans-serif; font-size: 12px; fill: rgb(42, 63, 95); fill-opacity: 1; white-space: pre; opacity: 1;">$0</text></g><g class="ytick"><text text-anchor="end" x="79" y="4.199999999999999" style="font-family: 'Open Sans', verdana, arial, sans-serif; font-size: 12px; fill: rgb(42, 63, 95); fill-opacity: 1; white-space: pre; opacity: 1;" transform="translate(0,315.43)">$10M</text></g><g class="ytick"><text text-anchor="end" x="79" y="4.199999999999999" style="font-family: 'Open Sans', verdana, arial, sans-serif; font-size: 12px; fill: rgb(42, 63, 95); fill-opacity: 1; white-space: pre; opacity: 1;" transform="translate(0,244.48)">$20M</text></g><g class="ytick"><text text-anchor="end" x="79" y="4.199999999999999" style="font-family: 'Open Sans', verdana, arial, sans-serif; font-size: 12px; fill: rgb(42, 63, 95); fill-opacity: 1; white-space: pre; opacity: 1;" transform="translate(0,173.54000000000002)">$30M</text></g><g class="ytick"><text text-anchor="end" x="79" y="4.199999999999999" style="font-family: 'Open Sans', verdana, arial, sans-serif; font-size: 12px; fill: rgb(42, 63, 95); fill-opacity: 1; white-space: pre; opacity: 1;" transform="translate(0,102.6)">$40M</text></g></g><g class="overaxes-above"/></g></g><g class="polarlayer"/><g class="smithlayer"/><g class="ternarylayer"/><g class="geolayer"/><g class="funnelarealayer"/><g class="pielayer"/><g class="iciclelayer"/><g class="treemaplayer"/><g class="sunburstlayer"/><g class="glimages"/><defs id="topdefs-eca09f"><g class="clips"/></defs><g class="layer-above"><g class="imagelayer"/><g class="shapelayer"/></g><g class="infolayer"><g class="g-gtitle"><text class="gtitle" x="35" y="50" text-anchor="start" dy="0em" style="font-family: 'Open Sans', verdana, arial, sans-serif; font-size: 17px; fill: rgb(42, 63, 95); opacity: 1; font-weight: normal; white-space: pre;"><tspan class="line" dy="0em" x="35" y="50">Pooltogether</tspan><tspan class="line" dy="1.3em" x="35" y="50">​<tspan style="font-size:70%" dy="-0.6em">Cumulative Net Flows since Program Announcement, Until Program End + 30 Days</tspan><tspan dy="0.42em">​</tspan></tspan></text></g><g class="g-xtitle"><text class="xtitle" x="350" y="460.8" text-anchor="middle" style="font-family: 'Open Sans', verdana, arial, sans-serif; font-size: 14px; fill: rgb(42, 63, 95); opacity: 1; font-weight: normal; white-space: pre;">Day</text></g><g class="g-ytitle"><text class="ytitle" transform="rotate(-90,24.168750000000003,260)" x="24.168750000000003" y="260" text-anchor="middle" style="font-family: 'Open Sans', verdana, arial, sans-serif; font-size: 14px; fill: rgb(42, 63, 95); opacity: 1; font-weight: normal; white-space: pre;">Cumulative Net Flows (USD)</text></g></g></svg>