<svg class="main-svg" xmlns="http://www.w3.org/2000/svg" xmlns:xlink="http://www.w3.org/1999/xlink" width="700" height="500" style="" viewBox="0 0 700 500"><rect x="0" y="0" width="700" height="500" style="fill: rgb(255, 255, 255); fill-opacity: 1;"/><defs id="defs-69b97a"><g class="clips"><clipPath id="clip69b97axyplot" class="plotclip"><rect width="540" height="320"/></clipPath><clipPath class="axesclip" id="clip69b97ax"><rect x="80" y="0" width="540" height="500"/></clipPath><clipPath class="axesclip" id="clip69b97ay"><rect x="0" y="100" width="700" height="320"/></clipPath><clipPath class="axesclip" id="clip69b97axy"><rect x="80" y="100" width="540" height="320"/></clipPath></g><g class="gradients"/><g class="patterns"/></defs><g class="bglayer"><rect class="bg" x="80" y="100" width="540" height="320" style="fill: rgb(229, 236, 246); fill-opacity: 1; stroke-width: 0;"/></g><g class="layer-below"><g class="imagelayer"/><g class="shapelayer"/></g><g class="cartesianlayer"><g class="subplot xy"><g class="layer-subplot"><g class="shapelayer"/><g class="imagelayer"/></g><g class="minor-gridlayer"><g class="x"/><g class="y"/></g><g class="gridlayer"><g class="x"><path class="xgrid crisp" transform="translate(119.91,0)" d="M0,100v320" style="stroke: rgb(255, 255, 255); stroke-opacity: 1; stroke-width: 1px;"/><path class="xgrid crisp" transform="translate(192.7,0)" d="M0,100v320" style="stroke: rgb(255, 255, 255); stroke-opacity: 1; stroke-width: 1px;"/><path class="xgrid crisp" transform="translate(263.13,0)" d="M0,100v320" style="stroke: rgb(255, 255, 255); stroke-opacity: 1; stroke-width: 1px;"/><path class="xgrid crisp" transform="translate(335.90999999999997,0)" d="M0,100v320" style="stroke: rgb(255, 255, 255); stroke-opacity: 1; stroke-width: 1px;"/><path class="xgrid crisp" transform="translate(406.35,0)" d="M0,100v320" style="stroke: rgb(255, 255, 255); stroke-opacity: 1; stroke-width: 1px;"/><path class="xgrid crisp" transform="translate(479.13,0)" d="M0,100v320" style="stroke: rgb(255, 255, 255); stroke-opacity: 1; stroke-width: 1px;"/><path class="xgrid crisp" transform="translate(551.9100000000001,0)" d="M0,100v320" style="stroke: rgb(255, 255, 255); stroke-opacity: 1; stroke-width: 1px;"/><path class="xgrid crisp" transform="translate(617.65,0)" d="M0,100v320" style="stroke: rgb(255, 255, 255); stroke-opacity: 1; stroke-width: 1px;"/></g><g class="y"><path class="ygrid crisp" transform="translate(0,334.73)" d="M80,0h540" style="stroke: rgb(255, 255, 255); stroke-opacity: 1; stroke-width: 1px;"/><path class="ygrid crisp" transform="translate(0,285.91999999999996)" d="M80,0h540" style="stroke: rgb(255, 255, 255); stroke-opacity: 1; stroke-width: 1px;"/><path class="ygrid crisp" transform="translate(0,237.1)" d="M80,0h540" style="stroke: rgb(255, 255, 255); stroke-opacity: 1; stroke-width: 1px;"/><path class="ygrid crisp" transform="translate(0,188.29000000000002)" d="M80,0h540" style="stroke: rgb(255, 255, 255); stroke-opacity: 1; stroke-width: 1px;"/><path class="ygrid crisp" transform="translate(0,139.48)" d="M80,0h540" style="stroke: rgb(255, 255, 255); stroke-opacity: 1; stroke-width: 1px;"/></g></g><g class="zerolinelayer"><path class="yzl zl crisp" transform="translate(0,383.54)" d="M80,0h540" style="stroke: rgb(255, 255, 255); stroke-opacity: 1; stroke-width: 2px;"/></g><path class="xlines-below"/><path class="ylines-below"/><g class="overlines-below"/><g class="xaxislayer-below"/><g class="yaxislayer-below"/><g class="overaxes-below"/><g class="plot" transform="translate(80,100)" clip-path="url(#clip69b97axyplot)"><g class="scatterlayer mlayer"><g class="trace scatter trace86a59a" style="stroke-miterlimit: 2;"><g class="fills"><g><path class="js-fill" d="M540,283.54L0,283.54L0,283.47L4.7,279.83L7.04,278.94L9.39,277.26L11.74,276.83L14.09,276.02L16.43,265.85L18.78,263.15L21.13,262.82L23.48,258.34L25.83,257.68L28.17,255.53L30.52,255.55L35.22,248.47L37.57,246.78L39.91,243.67L42.26,232.5L44.61,231.84L46.96,234.8L49.3,230.55L51.65,166.37L54,157.79L56.35,136.22L58.7,127.84L61.04,137.79L63.39,140.99L65.74,141.69L68.09,143.47L70.43,144.07L72.78,144.97L75.13,147.06L77.48,149.3L79.83,162.17L84.52,174.12L86.87,172.14L89.22,172.05L91.57,192.44L93.91,190.21L96.26,191.42L100.96,191.98L103.3,191.63L105.65,192.09L108,191.26L112.7,190.42L115.04,188.57L117.39,188.18L119.74,186.61L122.09,185.96L124.43,186.98L126.78,188.81L129.13,186.74L131.48,170.06L133.83,163.63L136.17,162.98L138.52,163.33L140.87,159.39L143.22,191.22L145.57,193.76L147.91,191.94L150.26,190.37L152.61,187.62L154.96,183.65L157.3,176.94L159.65,184.69L162,182.74L164.35,178.99L166.7,170.8L169.04,149.22L171.39,148.81L173.74,148.48L176.09,141.5L178.43,146.07L180.78,143.18L183.13,138.09L185.48,136.71L187.83,137.02L190.17,146.09L192.52,142.26L194.87,142.63L199.57,143.09L201.91,141.89L204.26,135.65L206.61,133.19L211.3,136.69L213.65,141.18L216,118.43L218.35,122.03L220.7,134.86L223.04,134.99L225.39,134.87L227.74,137.74L232.43,137.55L234.78,137.92L237.13,137.5L239.48,138.5L244.17,139.48L246.52,145.86L248.87,146.04L251.22,149.17L253.57,148.19L255.91,143.13L258.26,143.29L260.61,131.83L262.96,131.47L265.3,129.48L272.35,128.23L274.7,137.63L277.04,153.84L279.39,154.07L281.74,154.58L284.09,153.83L286.43,154.01L288.78,153.03L298.17,151.29L300.52,149.91L307.57,147.13L309.91,132.46L312.26,130.06L314.61,134.64L316.96,138.92L319.3,124.46L321.65,124.28L324,126L326.35,124.75L328.7,125.71L331.04,139.52L333.39,140.22L338.09,141.81L340.43,140.66L342.78,141.44L345.13,140.31L347.48,139.76L349.83,132.94L352.17,128.56L354.52,126.24L359.22,124.39L361.57,123.45L363.91,135.6L366.26,134.85L368.61,125.07L370.96,124.36L373.3,124.42L375.65,123.73L378,123.1L380.35,114.11L382.7,114.21L385.04,112.71L389.74,111.96L392.09,117.96L396.78,116.79L399.13,113.57L403.83,115.68L406.17,120.23L410.87,118.8L413.22,120.65L417.91,118.87L420.26,116.24L422.61,114.96L424.96,112.16L429.65,112.69L432,107.69L434.35,106.39L436.7,102.39L439.04,96.27L441.39,97.66L443.74,97L446.09,92.02L448.43,91.94L450.78,85.26L453.13,83.72L455.48,71.48L460.17,64.01L462.52,57.77L464.87,56.6L467.22,49.11L469.57,46.53L471.91,42.29L476.61,29.14L478.96,19.74L481.3,29.44L483.65,30.97L486,28.79L488.35,16L490.7,32.26L493.04,31.65L495.39,25.55L497.74,71.09L500.09,135.27L502.43,144.74L504.78,177.17L507.13,194.59L509.48,200.04L511.83,276.7L516.52,278.89L518.87,281.49L521.22,286.81L523.57,288.66L525.91,293L528.26,299.55L532.96,301.11L535.3,302.82L540,304" style="fill: rgb(99, 110, 250); fill-opacity: 0.5; stroke-width: 0;"/></g></g><g class="errorbars"/><g class="lines"><path class="js-line" d="M0,283.47L4.7,279.83L7.04,278.94L9.39,277.26L11.74,276.83L14.09,276.02L16.43,265.85L18.78,263.15L21.13,262.82L23.48,258.34L25.83,257.68L28.17,255.53L30.52,255.55L35.22,248.47L37.57,246.78L39.91,243.67L42.26,232.5L44.61,231.84L46.96,234.8L49.3,230.55L51.65,166.37L54,157.79L56.35,136.22L58.7,127.84L61.04,137.79L63.39,140.99L65.74,141.69L68.09,143.47L70.43,144.07L72.78,144.97L75.13,147.06L77.48,149.3L79.83,162.17L84.52,174.12L86.87,172.14L89.22,172.05L91.57,192.44L93.91,190.21L96.26,191.42L100.96,191.98L103.3,191.63L105.65,192.09L108,191.26L112.7,190.42L115.04,188.57L117.39,188.18L119.74,186.61L122.09,185.96L124.43,186.98L126.78,188.81L129.13,186.74L131.48,170.06L133.83,163.63L136.17,162.98L138.52,163.33L140.87,159.39L143.22,191.22L145.57,193.76L147.91,191.94L150.26,190.37L152.61,187.62L154.96,183.65L157.3,176.94L159.65,184.69L162,182.74L164.35,178.99L166.7,170.8L169.04,149.22L171.39,148.81L173.74,148.48L176.09,141.5L178.43,146.07L180.78,143.18L183.13,138.09L185.48,136.71L187.83,137.02L190.17,146.09L192.52,142.26L194.87,142.63L199.57,143.09L201.91,141.89L204.26,135.65L206.61,133.19L211.3,136.69L213.65,141.18L216,118.43L218.35,122.03L220.7,134.86L223.04,134.99L225.39,134.87L227.74,137.74L232.43,137.55L234.78,137.92L237.13,137.5L239.48,138.5L244.17,139.48L246.52,145.86L248.87,146.04L251.22,149.17L253.57,148.19L255.91,143.13L258.26,143.29L260.61,131.83L262.96,131.47L265.3,129.48L272.35,128.23L274.7,137.63L277.04,153.84L279.39,154.07L281.74,154.58L284.09,153.83L286.43,154.01L288.78,153.03L298.17,151.29L300.52,149.91L307.57,147.13L309.91,132.46L312.26,130.06L314.61,134.64L316.96,138.92L319.3,124.46L321.65,124.28L324,126L326.35,124.75L328.7,125.71L331.04,139.52L333.39,140.22L338.09,141.81L340.43,140.66L342.78,141.44L345.13,140.31L347.48,139.76L349.83,132.94L352.17,128.56L354.52,126.24L359.22,124.39L361.57,123.45L363.91,135.6L366.26,134.85L368.61,125.07L370.96,124.36L373.3,124.42L375.65,123.73L378,123.1L380.35,114.11L382.7,114.21L385.04,112.71L389.74,111.96L392.09,117.96L396.78,116.79L399.13,113.57L403.83,115.68L406.17,120.23L410.87,118.8L413.22,120.65L417.91,118.87L420.26,116.24L422.61,114.96L424.96,112.16L429.65,112.69L432,107.69L434.35,106.39L436.7,102.39L439.04,96.27L441.39,97.66L443.74,97L446.09,92.02L448.43,91.94L450.78,85.26L453.13,83.72L455.48,71.48L460.17,64.01L462.52,57.77L464.87,56.6L467.22,49.11L469.57,46.53L471.91,42.29L476.61,29.14L478.96,19.74L481.3,29.44L483.65,30.97L486,28.79L488.35,16L490.7,32.26L493.04,31.65L495.39,25.55L497.74,71.09L500.09,135.27L502.43,144.74L504.78,177.17L507.13,194.59L509.48,200.04L511.83,276.7L516.52,278.89L518.87,281.49L521.22,286.81L523.57,288.66L525.91,293L528.26,299.55L532.96,301.11L535.3,302.82L540,304" style="vector-effect: non-scaling-stroke; fill: none; stroke: rgb(99, 110, 250); stroke-opacity: 1; stroke-width: 2px; opacity: 1;"/></g><g class="points"/><g class="text"/></g></g></g><g class="overplot"/><path class="xlines-above crisp" d="M0,0" style="fill: none;"/><path class="ylines-above crisp" d="M0,0" style="fill: none;"/><g class="overlines-above"/><g class="xaxislayer-above"><g class="xtick"><text text-anchor="middle" x="0" y="433" transform="translate(119.91,0)" style="font-family: 'Open Sans', verdana, arial, sans-serif; font-size: 12px; fill: rgb(42, 63, 95); fill-opacity: 1; white-space: pre; opacity: 1;">Aug 2022</text></g><g class="xtick"><text text-anchor="middle" x="0" y="433" style="font-family: 'Open Sans', verdana, arial, sans-serif; font-size: 12px; fill: rgb(42, 63, 95); fill-opacity: 1; white-space: pre; opacity: 1;" transform="translate(192.7,0)">Sep 2022</text></g><g class="xtick"><text text-anchor="middle" x="0" y="433" style="font-family: 'Open Sans', verdana, arial, sans-serif; font-size: 12px; fill: rgb(42, 63, 95); fill-opacity: 1; white-space: pre; opacity: 1;" transform="translate(263.13,0)">Oct 2022</text></g><g class="xtick"><text text-anchor="middle" x="0" y="433" style="font-family: 'Open Sans', verdana, arial, sans-serif; font-size: 12px; fill: rgb(42, 63, 95); fill-opacity: 1; white-space: pre; opacity: 1;" transform="translate(335.90999999999997,0)">Nov 2022</text></g><g class="xtick"><text text-anchor="middle" x="0" y="433" style="font-family: 'Open Sans', verdana, arial, sans-serif; font-size: 12px; fill: rgb(42, 63, 95); fill-opacity: 1; white-space: pre; opacity: 1;" transform="translate(406.35,0)">Dec 2022</text></g><g class="xtick"><text text-anchor="middle" x="0" y="433" style="font-family: 'Open Sans', verdana, arial, sans-serif; font-size: 12px; fill: rgb(42, 63, 95); fill-opacity: 1; white-space: pre; opacity: 1;" transform="translate(479.13,0)">Jan 2023</text></g><g class="xtick"><text text-anchor="middle" x="0" y="433" style="font-family: 'Open Sans', verdana, arial, sans-serif; font-size: 12px; fill: rgb(42, 63, 95); fill-opacity: 1; white-space: pre; opacity: 1;" transform="translate(551.9100000000001,0)">Feb 2023</text></g><g class="xtick"><text text-anchor="middle" x="0" y="433" style="font-family: 'Open Sans', verdana, arial, sans-serif; font-size: 12px; fill: rgb(42, 63, 95); fill-opacity: 1; white-space: pre; opacity: 1;" transform="translate(617.65,0)">Mar 2023</text></g></g><g class="yaxislayer-above"><g class="ytick"><text text-anchor="end" x="79" y="4.199999999999999" transform="translate(0,383.54)" style="font-family: 'Open Sans', verdana, arial, sans-serif; font-size: 12px; fill: rgb(42, 63, 95); fill-opacity: 1; white-space: pre; opacity: 1;">$0</text></g><g class="ytick"><text text-anchor="end" x="79" y="4.199999999999999" style="font-family: 'Open Sans', verdana, arial, sans-serif; font-size: 12px; fill: rgb(42, 63, 95); fill-opacity: 1; white-space: pre; opacity: 1;" transform="translate(0,334.73)">$2M</text></g><g class="ytick"><text text-anchor="end" x="79" y="4.199999999999999" style="font-family: 'Open Sans', verdana, arial, sans-serif; font-size: 12px; fill: rgb(42, 63, 95); fill-opacity: 1; white-space: pre; opacity: 1;" transform="translate(0,285.91999999999996)">$4M</text></g><g class="ytick"><text text-anchor="end" x="79" y="4.199999999999999" style="font-family: 'Open Sans', verdana, arial, sans-serif; font-size: 12px; fill: rgb(42, 63, 95); fill-opacity: 1; white-space: pre; opacity: 1;" transform="translate(0,237.1)">$6M</text></g><g class="ytick"><text text-anchor="end" x="79" y="4.199999999999999" style="font-family: 'Open Sans', verdana, arial, sans-serif; font-size: 12px; fill: rgb(42, 63, 95); fill-opacity: 1; white-space: pre; opacity: 1;" transform="translate(0,188.29000000000002)">$8M</text></g><g class="ytick"><text text-anchor="end" x="79" y="4.199999999999999" style="font-family: 'Open Sans', verdana, arial, sans-serif; font-size: 12px; fill: rgb(42, 63, 95); fill-opacity: 1; white-space: pre; opacity: 1;" transform="translate(0,139.48)">$10M</text></g></g><g class="overaxes-above"/></g></g><g class="polarlayer"/><g class="smithlayer"/><g class="ternarylayer"/><g class="geolayer"/><g class="funnelarealayer"/><g class="pielayer"/><g class="iciclelayer"/><g class="treemaplayer"/><g class="sunburstlayer"/><g class="glimages"/><defs id="topdefs-69b97a"><g class="clips"/></defs><g class="layer-above"><g class="imagelayer"/><g class="shapelayer"/></g><g class="infolayer"><g class="g-gtitle"><text class="gtitle" x="35" y="50" text-anchor="start" dy="0em" style="font-family: 'Open Sans', verdana, arial, sans-serif; font-size: 17px; fill: rgb(42, 63, 95); opacity: 1; font-weight: normal; white-space: pre;"><tspan class="line" dy="0em" x="35" y="50">Rubicon</tspan><tspan class="line" dy="1.3em" x="35" y="50">​<tspan style="font-size:70%" dy="-0.6em">Cumulative Net Flows since Program Announcement, Until Program End + 30 Days</tspan><tspan dy="0.42em">​</tspan></tspan></text></g><g class="g-xtitle"><text class="xtitle" x="350" y="460.8" text-anchor="middle" style="font-family: 'Open Sans', verdana, arial, sans-serif; font-size: 14px; fill: rgb(42, 63, 95); opacity: 1; font-weight: normal; white-space: pre;">Day</text></g><g class="g-ytitle"><text class="ytitle" transform="rotate(-90,24.168750000000003,260)" x="24.168750000000003" y="260" text-anchor="middle" style="font-family: 'Open Sans', verdana, arial, sans-serif; font-size: 14px; fill: rgb(42, 63, 95); opacity: 1; font-weight: normal; white-space: pre;">Cumulative Net Flows (USD)</text></g></g></svg>