<svg class="main-svg" xmlns="http://www.w3.org/2000/svg" xmlns:xlink="http://www.w3.org/1999/xlink" width="700" height="500" style="" viewBox="0 0 700 500"><rect x="0" y="0" width="700" height="500" style="fill: rgb(255, 255, 255); fill-opacity: 1;"/><defs id="defs-c3859f"><g class="clips"><clipPath id="clipc3859fxyplot" class="plotclip"><rect width="540" height="320"/></clipPath><clipPath class="axesclip" id="clipc3859fx"><rect x="80" y="0" width="540" height="500"/></clipPath><clipPath class="axesclip" id="clipc3859fy"><rect x="0" y="100" width="700" height="320"/></clipPath><clipPath class="axesclip" id="clipc3859fxy"><rect x="80" y="100" width="540" height="320"/></clipPath></g><g class="gradients"/><g class="patterns"/></defs><g class="bglayer"><rect class="bg" x="80" y="100" width="540" height="320" style="fill: rgb(229, 236, 246); fill-opacity: 1; stroke-width: 0;"/></g><g class="layer-below"><g class="imagelayer"/><g class="shapelayer"/></g><g class="cartesianlayer"><g class="subplot xy"><g class="layer-subplot"><g class="shapelayer"/><g class="imagelayer"/></g><g class="minor-gridlayer"><g class="x"/><g class="y"/></g><g class="gridlayer"><g class="x"><path class="xgrid crisp" transform="translate(94.4,0)" d="M0,100v320" style="stroke: rgb(255, 255, 255); stroke-opacity: 1; stroke-width: 1px;"/><path class="xgrid crisp" transform="translate(206,0)" d="M0,100v320" style="stroke: rgb(255, 255, 255); stroke-opacity: 1; stroke-width: 1px;"/><path class="xgrid crisp" transform="translate(314,0)" d="M0,100v320" style="stroke: rgb(255, 255, 255); stroke-opacity: 1; stroke-width: 1px;"/><path class="xgrid crisp" transform="translate(425.6,0)" d="M0,100v320" style="stroke: rgb(255, 255, 255); stroke-opacity: 1; stroke-width: 1px;"/><path class="xgrid crisp" transform="translate(537.2,0)" d="M0,100v320" style="stroke: rgb(255, 255, 255); stroke-opacity: 1; stroke-width: 1px;"/></g><g class="y"><path class="ygrid crisp" transform="translate(0,337.93)" d="M80,0h540" style="stroke: rgb(255, 255, 255); stroke-opacity: 1; stroke-width: 1px;"/><path class="ygrid crisp" transform="translate(0,279.6)" d="M80,0h540" style="stroke: rgb(255, 255, 255); stroke-opacity: 1; stroke-width: 1px;"/><path class="ygrid crisp" transform="translate(0,221.26999999999998)" d="M80,0h540" style="stroke: rgb(255, 255, 255); stroke-opacity: 1; stroke-width: 1px;"/><path class="ygrid crisp" transform="translate(0,162.95)" d="M80,0h540" style="stroke: rgb(255, 255, 255); stroke-opacity: 1; stroke-width: 1px;"/><path class="ygrid crisp" transform="translate(0,104.62)" d="M80,0h540" style="stroke: rgb(255, 255, 255); stroke-opacity: 1; stroke-width: 1px;"/></g></g><g class="zerolinelayer"><path class="yzl zl crisp" transform="translate(0,396.26)" d="M80,0h540" style="stroke: rgb(255, 255, 255); stroke-opacity: 1; stroke-width: 2px;"/></g><path class="xlines-below"/><path class="ylines-below"/><g class="overlines-below"/><g class="xaxislayer-below"/><g class="yaxislayer-below"/><g class="overaxes-below"/><g class="plot" transform="translate(80,100)" clip-path="url(#clipc3859fxyplot)"><g class="scatterlayer mlayer"><g class="trace scatter trace9ea24a" style="stroke-miterlimit: 2;"><g class="fills"><g><path class="js-fill" d="M540,296.26L0,296.26L0,293.98L3.6,294.65L7.2,296.94L10.8,298.7L14.4,298.68L25.2,295.66L28.8,295.28L32.4,296.14L36,294.23L39.6,291.07L43.2,284.32L46.8,282.61L50.4,282.54L54,282.58L57.6,280.51L61.2,254.58L64.8,261.1L68.4,250.49L72,252.11L79.2,254.98L82.8,255.6L90,255.52L93.6,253.96L97.2,254.14L100.8,256.7L108,281.44L111.6,279.8L115.2,278.86L118.8,278.7L122.4,278.05L126,279.34L129.6,279.53L133.2,264.04L144,264.55L147.6,266.5L151.2,299.22L154.8,304L158.4,301.8L162,300.55L165.6,302.44L169.2,302.61L172.8,301.79L176.4,299.08L180,302.72L183.6,296.37L187.2,289.4L190.8,288.76L194.4,290.21L198,289.63L201.6,291.44L205.2,290.15L208.8,262.14L212.4,262.25L223.2,262.14L226.8,260.44L230.4,261.93L234,261.54L241.2,260.77L244.8,255.42L248.4,255.56L252,270.71L255.6,271.08L259.2,295.96L262.8,282.34L266.4,281.53L270,281.27L273.6,276.96L277.2,269.46L280.8,268.84L284.4,268.23L288,270.19L295.2,270.14L298.8,272.21L302.4,271.33L306,266.75L309.6,257.75L313.2,257.4L320.4,257.19L324,261.87L327.6,270.79L331.2,270.33L334.8,270.3L338.4,272.52L342,281.84L345.6,281.61L349.2,275.12L352.8,275.84L356.4,272.8L360,274.66L363.6,276.4L367.2,275.43L370.8,277.4L374.4,276.17L378,276.4L381.6,275.4L385.2,274.34L388.8,274.18L392.4,275.96L396,275.32L399.6,274.54L403.2,274.92L406.8,272.78L410.4,265.03L414,272.31L417.6,257.4L421.2,256.55L424.8,257.16L428.4,242.71L432,184.03L435.6,174.69L439.2,168.51L446.4,168.87L450,164.3L457.2,164.15L460.8,153.76L464.4,148.91L468,130.51L471.6,126.45L475.2,111.56L478.8,111.28L482.4,104.52L486,102.75L489.6,117L493.2,111.91L496.8,111.7L500.4,110.33L504,121.54L507.6,101.19L511.2,69.4L514.8,82.93L518.4,84.13L522,24.38L525.6,28.7L529.2,27.2L532.8,31.53L536.4,30.69L540,16" style="fill: rgb(99, 110, 250); fill-opacity: 0.5; stroke-width: 0;"/></g></g><g class="errorbars"/><g class="lines"><path class="js-line" d="M0,293.98L3.6,294.65L7.2,296.94L10.8,298.7L14.4,298.68L25.2,295.66L28.8,295.28L32.4,296.14L36,294.23L39.6,291.07L43.2,284.32L46.8,282.61L50.4,282.54L54,282.58L57.6,280.51L61.2,254.58L64.8,261.1L68.4,250.49L72,252.11L79.2,254.98L82.8,255.6L90,255.52L93.6,253.96L97.2,254.14L100.8,256.7L108,281.44L111.6,279.8L115.2,278.86L118.8,278.7L122.4,278.05L126,279.34L129.6,279.53L133.2,264.04L144,264.55L147.6,266.5L151.2,299.22L154.8,304L158.4,301.8L162,300.55L165.6,302.44L169.2,302.61L172.8,301.79L176.4,299.08L180,302.72L183.6,296.37L187.2,289.4L190.8,288.76L194.4,290.21L198,289.63L201.6,291.44L205.2,290.15L208.8,262.14L212.4,262.25L223.2,262.14L226.8,260.44L230.4,261.93L234,261.54L241.2,260.77L244.8,255.42L248.4,255.56L252,270.71L255.6,271.08L259.2,295.96L262.8,282.34L266.4,281.53L270,281.27L273.6,276.96L277.2,269.46L280.8,268.84L284.4,268.23L288,270.19L295.2,270.14L298.8,272.21L302.4,271.33L306,266.75L309.6,257.75L313.2,257.4L320.4,257.19L324,261.87L327.6,270.79L331.2,270.33L334.8,270.3L338.4,272.52L342,281.84L345.6,281.61L349.2,275.12L352.8,275.84L356.4,272.8L360,274.66L363.6,276.4L367.2,275.43L370.8,277.4L374.4,276.17L378,276.4L381.6,275.4L385.2,274.34L388.8,274.18L392.4,275.96L396,275.32L399.6,274.54L403.2,274.92L406.8,272.78L410.4,265.03L414,272.31L417.6,257.4L421.2,256.55L424.8,257.16L428.4,242.71L432,184.03L435.6,174.69L439.2,168.51L446.4,168.87L450,164.3L457.2,164.15L460.8,153.76L464.4,148.91L468,130.51L471.6,126.45L475.2,111.56L478.8,111.28L482.4,104.52L486,102.75L489.6,117L493.2,111.91L496.8,111.7L500.4,110.33L504,121.54L507.6,101.19L511.2,69.4L514.8,82.93L518.4,84.13L522,24.38L525.6,28.7L529.2,27.2L532.8,31.53L536.4,30.69L540,16" style="vector-effect: non-scaling-stroke; fill: none; stroke: rgb(99, 110, 250); stroke-opacity: 1; stroke-width: 2px; opacity: 1;"/></g><g class="points"/><g class="text"/></g></g></g><g class="overplot"/><path class="xlines-above crisp" d="M0,0" style="fill: none;"/><path class="ylines-above crisp" d="M0,0" style="fill: none;"/><g class="overlines-above"/><g class="xaxislayer-above"><g class="xtick"><text text-anchor="middle" x="0" y="433" transform="translate(94.4,0)" style="font-family: 'Open Sans', verdana, arial, sans-serif; font-size: 12px; fill: rgb(42, 63, 95); fill-opacity: 1; white-space: pre; opacity: 1;">Oct 2022</text></g><g class="xtick"><text text-anchor="middle" x="0" y="433" style="font-family: 'Open Sans', verdana, arial, sans-serif; font-size: 12px; fill: rgb(42, 63, 95); fill-opacity: 1; white-space: pre; opacity: 1;" transform="translate(206,0)">Nov 2022</text></g><g class="xtick"><text text-anchor="middle" x="0" y="433" style="font-family: 'Open Sans', verdana, arial, sans-serif; font-size: 12px; fill: rgb(42, 63, 95); fill-opacity: 1; white-space: pre; opacity: 1;" transform="translate(314,0)">Dec 2022</text></g><g class="xtick"><text text-anchor="middle" x="0" y="433" style="font-family: 'Open Sans', verdana, arial, sans-serif; font-size: 12px; fill: rgb(42, 63, 95); fill-opacity: 1; white-space: pre; opacity: 1;" transform="translate(425.6,0)">Jan 2023</text></g><g class="xtick"><text text-anchor="middle" x="0" y="433" style="font-family: 'Open Sans', verdana, arial, sans-serif; font-size: 12px; fill: rgb(42, 63, 95); fill-opacity: 1; white-space: pre; opacity: 1;" transform="translate(537.2,0)">Feb 2023</text></g></g><g class="yaxislayer-above"><g class="ytick"><text text-anchor="end" x="79" y="4.199999999999999" transform="translate(0,396.26)" style="font-family: 'Open Sans', verdana, arial, sans-serif; font-size: 12px; fill: rgb(42, 63, 95); fill-opacity: 1; white-space: pre; opacity: 1;">$0</text></g><g class="ytick"><text text-anchor="end" x="79" y="4.199999999999999" style="font-family: 'Open Sans', verdana, arial, sans-serif; font-size: 12px; fill: rgb(42, 63, 95); fill-opacity: 1; white-space: pre; opacity: 1;" transform="translate(0,337.93)">$1M</text></g><g class="ytick"><text text-anchor="end" x="79" y="4.199999999999999" style="font-family: 'Open Sans', verdana, arial, sans-serif; font-size: 12px; fill: rgb(42, 63, 95); fill-opacity: 1; white-space: pre; opacity: 1;" transform="translate(0,279.6)">$2M</text></g><g class="ytick"><text text-anchor="end" x="79" y="4.199999999999999" style="font-family: 'Open Sans', verdana, arial, sans-serif; font-size: 12px; fill: rgb(42, 63, 95); fill-opacity: 1; white-space: pre; opacity: 1;" transform="translate(0,221.26999999999998)">$3M</text></g><g class="ytick"><text text-anchor="end" x="79" y="4.199999999999999" style="font-family: 'Open Sans', verdana, arial, sans-serif; font-size: 12px; fill: rgb(42, 63, 95); fill-opacity: 1; white-space: pre; opacity: 1;" transform="translate(0,162.95)">$4M</text></g><g class="ytick"><text text-anchor="end" x="79" y="4.199999999999999" style="font-family: 'Open Sans', verdana, arial, sans-serif; font-size: 12px; fill: rgb(42, 63, 95); fill-opacity: 1; white-space: pre; opacity: 1;" transform="translate(0,104.62)">$5M</text></g></g><g class="overaxes-above"/></g></g><g class="polarlayer"/><g class="smithlayer"/><g class="ternarylayer"/><g class="geolayer"/><g class="funnelarealayer"/><g class="pielayer"/><g class="iciclelayer"/><g class="treemaplayer"/><g class="sunburstlayer"/><g class="glimages"/><defs id="topdefs-c3859f"><g class="clips"/></defs><g class="layer-above"><g class="imagelayer"/><g class="shapelayer"/></g><g class="infolayer"><g class="g-gtitle"><text class="gtitle" x="35" y="50" text-anchor="start" dy="0em" style="font-family: 'Open Sans', verdana, arial, sans-serif; font-size: 17px; fill: rgb(42, 63, 95); opacity: 1; font-weight: normal; white-space: pre;"><tspan class="line" dy="0em" x="35" y="50">Synthetix - USDC/SNX: Velo</tspan><tspan class="line" dy="1.3em" x="35" y="50">​<tspan style="font-size:70%" dy="-0.6em">Cumulative Net Flows since Program Announcement, Until Program End + 30 Days</tspan><tspan dy="0.42em">​</tspan></tspan></text></g><g class="g-xtitle"><text class="xtitle" x="350" y="460.8" text-anchor="middle" style="font-family: 'Open Sans', verdana, arial, sans-serif; font-size: 14px; fill: rgb(42, 63, 95); opacity: 1; font-weight: normal; white-space: pre;">Day</text></g><g class="g-ytitle"><text class="ytitle" transform="rotate(-90,30.856250000000003,260)" x="30.856250000000003" y="260" text-anchor="middle" style="font-family: 'Open Sans', verdana, arial, sans-serif; font-size: 14px; fill: rgb(42, 63, 95); opacity: 1; font-weight: normal; white-space: pre;">Cumulative Net Flows (USD)</text></g></g></svg>