<svg class="main-svg" xmlns="http://www.w3.org/2000/svg" xmlns:xlink="http://www.w3.org/1999/xlink" width="700" height="500" style="" viewBox="0 0 700 500"><rect x="0" y="0" width="700" height="500" style="fill: rgb(255, 255, 255); fill-opacity: 1;"/><defs id="defs-6c661c"><g class="clips"><clipPath id="clip6c661cxyplot" class="plotclip"><rect width="540" height="320"/></clipPath><clipPath class="axesclip" id="clip6c661cx"><rect x="80" y="0" width="540" height="500"/></clipPath><clipPath class="axesclip" id="clip6c661cy"><rect x="0" y="100" width="700" height="320"/></clipPath><clipPath class="axesclip" id="clip6c661cxy"><rect x="80" y="100" width="540" height="320"/></clipPath></g><g class="gradients"/><g class="patterns"/></defs><g class="bglayer"><rect class="bg" x="80" y="100" width="540" height="320" style="fill: rgb(229, 236, 246); fill-opacity: 1; stroke-width: 0;"/></g><g class="layer-below"><g class="imagelayer"/><g class="shapelayer"/></g><g class="cartesianlayer"><g class="subplot xy"><g class="layer-subplot"><g class="shapelayer"/><g class="imagelayer"/></g><g class="minor-gridlayer"><g class="x"/><g class="y"/></g><g class="gridlayer"><g class="x"><path class="xgrid crisp" transform="translate(100.21000000000001,0)" d="M0,100v320" style="stroke: rgb(255, 255, 255); stroke-opacity: 1; stroke-width: 1px;"/><path class="xgrid crisp" transform="translate(186.84,0)" d="M0,100v320" style="stroke: rgb(255, 255, 255); stroke-opacity: 1; stroke-width: 1px;"/><path class="xgrid crisp" transform="translate(276.36,0)" d="M0,100v320" style="stroke: rgb(255, 255, 255); stroke-opacity: 1; stroke-width: 1px;"/><path class="xgrid crisp" transform="translate(362.99,0)" d="M0,100v320" style="stroke: rgb(255, 255, 255); stroke-opacity: 1; stroke-width: 1px;"/><path class="xgrid crisp" transform="translate(452.51,0)" d="M0,100v320" style="stroke: rgb(255, 255, 255); stroke-opacity: 1; stroke-width: 1px;"/><path class="xgrid crisp" transform="translate(542.03,0)" d="M0,100v320" style="stroke: rgb(255, 255, 255); stroke-opacity: 1; stroke-width: 1px;"/></g><g class="y"><path class="ygrid crisp" transform="translate(0,354.66999999999996)" d="M80,0h540" style="stroke: rgb(255, 255, 255); stroke-opacity: 1; stroke-width: 1px;"/><path class="ygrid crisp" transform="translate(0,289.34000000000003)" d="M80,0h540" style="stroke: rgb(255, 255, 255); stroke-opacity: 1; stroke-width: 1px;"/><path class="ygrid crisp" transform="translate(0,224)" d="M80,0h540" style="stroke: rgb(255, 255, 255); stroke-opacity: 1; stroke-width: 1px;"/><path class="ygrid crisp" transform="translate(0,158.67000000000002)" d="M80,0h540" style="stroke: rgb(255, 255, 255); stroke-opacity: 1; stroke-width: 1px;"/></g></g><g class="zerolinelayer"><path class="yzl zl crisp" transform="translate(0,420)" d="M80,0h540" style="stroke: rgb(255, 255, 255); stroke-opacity: 1; stroke-width: 2px;"/></g><path class="xlines-below"/><path class="ylines-below"/><g class="overlines-below"/><g class="xaxislayer-below"/><g class="yaxislayer-below"/><g class="overaxes-below"/><g class="plot" transform="translate(80,100)" clip-path="url(#clip6c661cxyplot)"><g class="scatterlayer mlayer"><g class="trace scatter tracef99784" style="stroke-miterlimit: 2;"><g class="fills"><g><path class="js-fill" d="M540,320L0,320L0,181.11L2.89,181.99L5.78,180.35L11.55,176.16L14.44,175.51L17.33,158.44L20.21,155.41L23.1,158.59L25.99,155.74L28.88,152.63L31.76,153.56L34.65,147.82L37.54,144.85L40.43,128.6L43.32,124.31L46.2,118.83L49.09,117.25L51.98,113.14L54.87,112.56L57.75,113.5L60.64,118.69L63.53,121.66L66.42,116.44L69.3,120.39L72.19,126.02L77.97,128.26L80.86,132.09L83.74,138.32L86.63,139.81L89.52,139.5L92.41,140.15L95.29,143.43L98.18,143.77L101.07,146.61L103.96,160.87L109.73,162.21L112.62,162.25L115.51,162.89L118.4,166.86L121.28,167.38L124.17,165.38L127.06,166.23L129.95,168.48L132.83,169.96L135.72,170.22L141.5,171.93L144.39,172.77L147.27,161.35L150.16,161.29L153.05,161.35L155.94,164.43L161.71,164.28L164.6,164.37L167.49,163.46L170.37,163.42L173.26,162.97L176.15,160.16L179.04,160.96L181.93,160.27L184.81,162.98L187.7,162.93L193.48,163.54L196.36,156.72L199.25,152.14L202.14,149.14L205.03,121.79L207.91,119.27L216.58,119.38L219.47,124.5L222.35,131.32L225.24,144.19L228.13,142.78L231.02,145.04L239.68,146.07L242.57,150.79L245.45,153.34L248.34,152.72L251.23,153.52L254.12,156.17L257.01,159.28L259.89,158.51L262.78,155.74L265.67,156.15L277.22,156.99L280.11,155.35L282.99,159.21L285.88,159.37L288.77,155.25L291.66,155.72L300.32,155.58L303.21,151.64L306.1,152.8L308.98,152.35L311.87,153.19L314.76,153.1L317.65,146.52L320.53,147.31L323.42,134.01L326.31,151.16L329.2,152.05L332.09,151.92L334.97,152.85L337.86,152.85L343.64,149.76L346.52,150.25L358.07,149.82L360.96,151.82L369.63,152.2L372.51,163.53L384.06,162.15L386.95,160.83L389.84,155.39L392.73,153.15L395.61,148.07L398.5,147.64L401.39,139.79L404.28,138.59L407.17,139.03L410.05,137.62L412.94,128.35L415.83,126.96L418.72,126.53L421.6,124.77L430.27,120.22L433.16,117.84L438.93,115.12L441.82,116.03L444.71,114.12L447.59,98.64L450.48,98.08L453.37,80.4L456.26,79.73L459.14,73.13L462.03,71.65L464.92,64.42L467.81,27.25L470.7,24.28L473.58,27.38L476.47,26.84L482.25,16L485.13,50.98L488.02,48.68L490.91,48.56L493.8,46.33L496.68,46.51L499.57,46.21L502.46,46.93L508.24,42.44L511.12,43.42L514.01,42.88L516.9,43.71L519.79,51.92L522.67,52.42L531.34,52.15L534.22,51.85L537.11,52.63L540,52.6" style="fill: rgb(99, 110, 250); fill-opacity: 0.5; stroke-width: 0;"/></g></g><g class="errorbars"/><g class="lines"><path class="js-line" d="M0,181.11L2.89,181.99L5.78,180.35L11.55,176.16L14.44,175.51L17.33,158.44L20.21,155.41L23.1,158.59L25.99,155.74L28.88,152.63L31.76,153.56L34.65,147.82L37.54,144.85L40.43,128.6L43.32,124.31L46.2,118.83L49.09,117.25L51.98,113.14L54.87,112.56L57.75,113.5L60.64,118.69L63.53,121.66L66.42,116.44L69.3,120.39L72.19,126.02L77.97,128.26L80.86,132.09L83.74,138.32L86.63,139.81L89.52,139.5L92.41,140.15L95.29,143.43L98.18,143.77L101.07,146.61L103.96,160.87L109.73,162.21L112.62,162.25L115.51,162.89L118.4,166.86L121.28,167.38L124.17,165.38L127.06,166.23L129.95,168.48L132.83,169.96L135.72,170.22L141.5,171.93L144.39,172.77L147.27,161.35L150.16,161.29L153.05,161.35L155.94,164.43L161.71,164.28L164.6,164.37L167.49,163.46L170.37,163.42L173.26,162.97L176.15,160.16L179.04,160.96L181.93,160.27L184.81,162.98L187.7,162.93L193.48,163.54L196.36,156.72L199.25,152.14L202.14,149.14L205.03,121.79L207.91,119.27L216.58,119.38L219.47,124.5L222.35,131.32L225.24,144.19L228.13,142.78L231.02,145.04L239.68,146.07L242.57,150.79L245.45,153.34L248.34,152.72L251.23,153.52L254.12,156.17L257.01,159.28L259.89,158.51L262.78,155.74L265.67,156.15L277.22,156.99L280.11,155.35L282.99,159.21L285.88,159.37L288.77,155.25L291.66,155.72L300.32,155.58L303.21,151.64L306.1,152.8L308.98,152.35L311.87,153.19L314.76,153.1L317.65,146.52L320.53,147.31L323.42,134.01L326.31,151.16L329.2,152.05L332.09,151.92L334.97,152.85L337.86,152.85L343.64,149.76L346.52,150.25L358.07,149.82L360.96,151.82L369.63,152.2L372.51,163.53L384.06,162.15L386.95,160.83L389.84,155.39L392.73,153.15L395.61,148.07L398.5,147.64L401.39,139.79L404.28,138.59L407.17,139.03L410.05,137.62L412.94,128.35L415.83,126.96L418.72,126.53L421.6,124.77L430.27,120.22L433.16,117.84L438.93,115.12L441.82,116.03L444.71,114.12L447.59,98.64L450.48,98.08L453.37,80.4L456.26,79.73L459.14,73.13L462.03,71.65L464.92,64.42L467.81,27.25L470.7,24.28L473.58,27.38L476.47,26.84L482.25,16L485.13,50.98L488.02,48.68L490.91,48.56L493.8,46.33L496.68,46.51L499.57,46.21L502.46,46.93L508.24,42.44L511.12,43.42L514.01,42.88L516.9,43.71L519.79,51.92L522.67,52.42L531.34,52.15L534.22,51.85L537.11,52.63L540,52.6" style="vector-effect: non-scaling-stroke; fill: none; stroke: rgb(99, 110, 250); stroke-opacity: 1; stroke-width: 2px; opacity: 1;"/></g><g class="points"/><g class="text"/></g></g></g><g class="overplot"/><path class="xlines-above crisp" d="M0,0" style="fill: none;"/><path class="ylines-above crisp" d="M0,0" style="fill: none;"/><g class="overlines-above"/><g class="xaxislayer-above"><g class="xtick"><text text-anchor="middle" x="0" y="433" transform="translate(100.21000000000001,0)" style="font-family: 'Open Sans', verdana, arial, sans-serif; font-size: 12px; fill: rgb(42, 63, 95); fill-opacity: 1; white-space: pre; opacity: 1;">Sep 2022</text></g><g class="xtick"><text text-anchor="middle" x="0" y="433" style="font-family: 'Open Sans', verdana, arial, sans-serif; font-size: 12px; fill: rgb(42, 63, 95); fill-opacity: 1; white-space: pre; opacity: 1;" transform="translate(186.84,0)">Oct 2022</text></g><g class="xtick"><text text-anchor="middle" x="0" y="433" style="font-family: 'Open Sans', verdana, arial, sans-serif; font-size: 12px; fill: rgb(42, 63, 95); fill-opacity: 1; white-space: pre; opacity: 1;" transform="translate(276.36,0)">Nov 2022</text></g><g class="xtick"><text text-anchor="middle" x="0" y="433" style="font-family: 'Open Sans', verdana, arial, sans-serif; font-size: 12px; fill: rgb(42, 63, 95); fill-opacity: 1; white-space: pre; opacity: 1;" transform="translate(362.99,0)">Dec 2022</text></g><g class="xtick"><text text-anchor="middle" x="0" y="433" style="font-family: 'Open Sans', verdana, arial, sans-serif; font-size: 12px; fill: rgb(42, 63, 95); fill-opacity: 1; white-space: pre; opacity: 1;" transform="translate(452.51,0)">Jan 2023</text></g><g class="xtick"><text text-anchor="middle" x="0" y="433" style="font-family: 'Open Sans', verdana, arial, sans-serif; font-size: 12px; fill: rgb(42, 63, 95); fill-opacity: 1; white-space: pre; opacity: 1;" transform="translate(542.03,0)">Feb 2023</text></g></g><g class="yaxislayer-above"><g class="ytick"><text text-anchor="end" x="79" y="4.199999999999999" transform="translate(0,420)" style="font-family: 'Open Sans', verdana, arial, sans-serif; font-size: 12px; fill: rgb(42, 63, 95); fill-opacity: 1; white-space: pre; opacity: 1;">$0</text></g><g class="ytick"><text text-anchor="end" x="79" y="4.199999999999999" style="font-family: 'Open Sans', verdana, arial, sans-serif; font-size: 12px; fill: rgb(42, 63, 95); fill-opacity: 1; white-space: pre; opacity: 1;" transform="translate(0,354.66999999999996)">$10M</text></g><g class="ytick"><text text-anchor="end" x="79" y="4.199999999999999" style="font-family: 'Open Sans', verdana, arial, sans-serif; font-size: 12px; fill: rgb(42, 63, 95); fill-opacity: 1; white-space: pre; opacity: 1;" transform="translate(0,289.34000000000003)">$20M</text></g><g class="ytick"><text text-anchor="end" x="79" y="4.199999999999999" style="font-family: 'Open Sans', verdana, arial, sans-serif; font-size: 12px; fill: rgb(42, 63, 95); fill-opacity: 1; white-space: pre; opacity: 1;" transform="translate(0,224)">$30M</text></g><g class="ytick"><text text-anchor="end" x="79" y="4.199999999999999" style="font-family: 'Open Sans', verdana, arial, sans-serif; font-size: 12px; fill: rgb(42, 63, 95); fill-opacity: 1; white-space: pre; opacity: 1;" transform="translate(0,158.67000000000002)">$40M</text></g></g><g class="overaxes-above"/></g></g><g class="polarlayer"/><g class="smithlayer"/><g class="ternarylayer"/><g class="geolayer"/><g class="funnelarealayer"/><g class="pielayer"/><g class="iciclelayer"/><g class="treemaplayer"/><g class="sunburstlayer"/><g class="glimages"/><defs id="topdefs-6c661c"><g class="clips"/></defs><g class="layer-above"><g class="imagelayer"/><g class="shapelayer"/></g><g class="infolayer"><g class="g-gtitle"><text class="gtitle" x="35" y="50" text-anchor="start" dy="0em" style="font-family: 'Open Sans', verdana, arial, sans-serif; font-size: 17px; fill: rgb(42, 63, 95); opacity: 1; font-weight: normal; white-space: pre;"><tspan class="line" dy="0em" x="35" y="50">Synthetix - sUSD-3Crv: Curve</tspan><tspan class="line" dy="1.3em" x="35" y="50">​<tspan style="font-size:70%" dy="-0.6em">Cumulative Net Flows since Program Announcement, Until Program End + 30 Days</tspan><tspan dy="0.42em">​</tspan></tspan></text></g><g class="g-xtitle"><text class="xtitle" x="350" y="459.8" text-anchor="middle" style="font-family: 'Open Sans', verdana, arial, sans-serif; font-size: 14px; fill: rgb(42, 63, 95); opacity: 1; font-weight: normal; white-space: pre;">Day</text></g><g class="g-ytitle"><text class="ytitle" transform="rotate(-90,21.700000000000003,260)" x="21.700000000000003" y="260" text-anchor="middle" style="font-family: 'Open Sans', verdana, arial, sans-serif; font-size: 14px; fill: rgb(42, 63, 95); opacity: 1; font-weight: normal; white-space: pre;">Cumulative Net Flows (USD)</text></g></g></svg>