<svg class="main-svg" xmlns="http://www.w3.org/2000/svg" xmlns:xlink="http://www.w3.org/1999/xlink" width="700" height="500" style="" viewBox="0 0 700 500"><rect x="0" y="0" width="700" height="500" style="fill: rgb(255, 255, 255); fill-opacity: 1;"/><defs id="defs-d868df"><g class="clips"><clipPath id="clipd868dfxyplot" class="plotclip"><rect width="540" height="320"/></clipPath><clipPath class="axesclip" id="clipd868dfx"><rect x="80" y="0" width="540" height="500"/></clipPath><clipPath class="axesclip" id="clipd868dfy"><rect x="0" y="100" width="700" height="320"/></clipPath><clipPath class="axesclip" id="clipd868dfxy"><rect x="80" y="100" width="540" height="320"/></clipPath></g><g class="gradients"/><g class="patterns"/></defs><g class="bglayer"><rect class="bg" x="80" y="100" width="540" height="320" style="fill: rgb(229, 236, 246); fill-opacity: 1; stroke-width: 0;"/></g><g class="layer-below"><g class="imagelayer"/><g class="shapelayer"/></g><g class="cartesianlayer"><g class="subplot xy"><g class="layer-subplot"><g class="shapelayer"/><g class="imagelayer"/></g><g class="minor-gridlayer"><g class="x"/><g class="y"/></g><g class="gridlayer"><g class="x"><path class="xgrid crisp" transform="translate(103.19,0)" d="M0,100v320" style="stroke: rgb(255, 255, 255); stroke-opacity: 1; stroke-width: 1px;"/><path class="xgrid crisp" transform="translate(202.57999999999998,0)" d="M0,100v320" style="stroke: rgb(255, 255, 255); stroke-opacity: 1; stroke-width: 1px;"/><path class="xgrid crisp" transform="translate(305.28,0)" d="M0,100v320" style="stroke: rgb(255, 255, 255); stroke-opacity: 1; stroke-width: 1px;"/><path class="xgrid crisp" transform="translate(404.66,0)" d="M0,100v320" style="stroke: rgb(255, 255, 255); stroke-opacity: 1; stroke-width: 1px;"/><path class="xgrid crisp" transform="translate(507.36,0)" d="M0,100v320" style="stroke: rgb(255, 255, 255); stroke-opacity: 1; stroke-width: 1px;"/><path class="xgrid crisp" transform="translate(610.06,0)" d="M0,100v320" style="stroke: rgb(255, 255, 255); stroke-opacity: 1; stroke-width: 1px;"/></g><g class="y"><path class="ygrid crisp" transform="translate(0,357.22)" d="M80,0h540" style="stroke: rgb(255, 255, 255); stroke-opacity: 1; stroke-width: 1px;"/><path class="ygrid crisp" transform="translate(0,294.44)" d="M80,0h540" style="stroke: rgb(255, 255, 255); stroke-opacity: 1; stroke-width: 1px;"/><path class="ygrid crisp" transform="translate(0,231.67)" d="M80,0h540" style="stroke: rgb(255, 255, 255); stroke-opacity: 1; stroke-width: 1px;"/><path class="ygrid crisp" transform="translate(0,168.89)" d="M80,0h540" style="stroke: rgb(255, 255, 255); stroke-opacity: 1; stroke-width: 1px;"/><path class="ygrid crisp" transform="translate(0,106.11)" d="M80,0h540" style="stroke: rgb(255, 255, 255); stroke-opacity: 1; stroke-width: 1px;"/></g></g><g class="zerolinelayer"><path class="yzl zl crisp" transform="translate(0,420)" d="M80,0h540" style="stroke: rgb(255, 255, 255); stroke-opacity: 1; stroke-width: 2px;"/></g><path class="xlines-below"/><path class="ylines-below"/><g class="overlines-below"/><g class="xaxislayer-below"/><g class="yaxislayer-below"/><g class="overaxes-below"/><g class="plot" transform="translate(80,100)" clip-path="url(#clipd868dfxyplot)"><g class="scatterlayer mlayer"><g class="trace scatter trace0a7628" style="stroke-miterlimit: 2;"><g class="fills"><g><path class="js-fill" d="M540,320L0,320L0,317.4L3.31,319.1L6.63,315.95L13.25,307.9L16.56,306.64L19.88,273.83L23.19,268.01L26.5,274.13L29.82,268.66L33.13,262.67L36.44,264.46L39.75,253.44L43.07,247.72L46.38,216.48L49.69,208.25L53.01,197.71L56.32,194.68L59.63,186.78L62.94,185.67L66.26,187.47L69.57,197.44L72.88,203.16L76.2,193.13L79.51,200.71L82.82,211.53L89.45,215.84L92.76,223.2L96.07,235.18L99.39,238.04L102.7,237.43L106.01,238.68L109.33,245L112.64,245.65L115.95,251.1L119.26,278.52L125.89,281.08L129.2,281.16L132.52,282.4L135.83,290.02L139.14,291.03L142.45,287.18L145.77,288.82L149.08,293.13L152.39,295.98L155.71,296.47L159.02,297.55L162.33,299.76L165.64,301.38L168.96,279.42L175.58,279.43L178.9,285.35L182.21,285.81L185.52,285.07L188.83,285.24L192.15,283.48L195.46,283.41L198.77,282.55L202.09,277.14L205.4,278.68L208.71,277.35L212.02,282.57L218.65,282.38L221.96,283.64L225.28,270.54L228.59,261.72L231.9,255.96L235.21,203.4L238.53,198.56L241.84,198.55L245.15,199.12L248.47,198.76L251.78,208.61L255.09,221.73L258.4,246.46L261.72,243.74L265.03,248.09L268.34,248.91L271.66,249.94L274.97,250.07L278.28,259.14L281.6,264.04L284.91,262.85L288.22,264.38L294.85,275.45L298.16,273.96L301.47,268.64L304.79,269.45L311.41,270.29L314.72,270.25L318.04,271.06L321.35,267.91L324.66,275.32L327.98,275.62L331.29,267.71L334.6,268.62L344.54,268.35L347.85,260.76L351.17,263.01L354.48,262.14L357.79,263.76L361.1,263.58L364.42,250.92L367.73,252.44L371.04,226.88L374.36,259.84L377.67,261.57L380.98,261.31L384.29,263.09L387.61,263.1L394.23,257.15L397.55,258.1L400.86,257.7L404.17,258.53L410.8,257.27L414.11,261.12L420.74,261.67L424.05,261.85L427.36,283.62L430.67,283.18L433.99,283.02L437.3,281.68L440.61,280.96L443.93,278.43L447.24,267.98L450.55,263.67L453.87,253.92L457.18,253.08L460.49,238L463.8,235.7L467.12,236.53L470.43,233.82L473.74,216.01L477.06,213.34L480.37,212.51L483.68,209.13L490.31,204.16L493.62,200.4L496.93,195.82L500.25,193.55L503.56,190.58L506.87,192.33L510.18,188.67L513.5,158.92L516.81,157.84L520.12,123.86L523.44,122.57L526.75,109.89L530.06,107.04L533.37,93.15L536.69,21.72L540,16" style="fill: rgb(99, 110, 250); fill-opacity: 0.5; stroke-width: 0;"/></g></g><g class="errorbars"/><g class="lines"><path class="js-line" d="M0,317.4L3.31,319.1L6.63,315.95L13.25,307.9L16.56,306.64L19.88,273.83L23.19,268.01L26.5,274.13L29.82,268.66L33.13,262.67L36.44,264.46L39.75,253.44L43.07,247.72L46.38,216.48L49.69,208.25L53.01,197.71L56.32,194.68L59.63,186.78L62.94,185.67L66.26,187.47L69.57,197.44L72.88,203.16L76.2,193.13L79.51,200.71L82.82,211.53L89.45,215.84L92.76,223.2L96.07,235.18L99.39,238.04L102.7,237.43L106.01,238.68L109.33,245L112.64,245.65L115.95,251.1L119.26,278.52L125.89,281.08L129.2,281.16L132.52,282.4L135.83,290.02L139.14,291.03L142.45,287.18L145.77,288.82L149.08,293.13L152.39,295.98L155.71,296.47L159.02,297.55L162.33,299.76L165.64,301.38L168.96,279.42L175.58,279.43L178.9,285.35L182.21,285.81L185.52,285.07L188.83,285.24L192.15,283.48L195.46,283.41L198.77,282.55L202.09,277.14L205.4,278.68L208.71,277.35L212.02,282.57L218.65,282.38L221.96,283.64L225.28,270.54L228.59,261.72L231.9,255.96L235.21,203.4L238.53,198.56L241.84,198.55L245.15,199.12L248.47,198.76L251.78,208.61L255.09,221.73L258.4,246.46L261.72,243.74L265.03,248.09L268.34,248.91L271.66,249.94L274.97,250.07L278.28,259.14L281.6,264.04L284.91,262.85L288.22,264.38L294.85,275.45L298.16,273.96L301.47,268.64L304.79,269.45L311.41,270.29L314.72,270.25L318.04,271.06L321.35,267.91L324.66,275.32L327.98,275.62L331.29,267.71L334.6,268.62L344.54,268.35L347.85,260.76L351.17,263.01L354.48,262.14L357.79,263.76L361.1,263.58L364.42,250.92L367.73,252.44L371.04,226.88L374.36,259.84L377.67,261.57L380.98,261.31L384.29,263.09L387.61,263.1L394.23,257.15L397.55,258.1L400.86,257.7L404.17,258.53L410.8,257.27L414.11,261.12L420.74,261.67L424.05,261.85L427.36,283.62L430.67,283.18L433.99,283.02L437.3,281.68L440.61,280.96L443.93,278.43L447.24,267.98L450.55,263.67L453.87,253.92L457.18,253.08L460.49,238L463.8,235.7L467.12,236.53L470.43,233.82L473.74,216.01L477.06,213.34L480.37,212.51L483.68,209.13L490.31,204.16L493.62,200.4L496.93,195.82L500.25,193.55L503.56,190.58L506.87,192.33L510.18,188.67L513.5,158.92L516.81,157.84L520.12,123.86L523.44,122.57L526.75,109.89L530.06,107.04L533.37,93.15L536.69,21.72L540,16" style="vector-effect: non-scaling-stroke; fill: none; stroke: rgb(99, 110, 250); stroke-opacity: 1; stroke-width: 2px; opacity: 1;"/></g><g class="points"/><g class="text"/></g></g></g><g class="overplot"/><path class="xlines-above crisp" d="M0,0" style="fill: none;"/><path class="ylines-above crisp" d="M0,0" style="fill: none;"/><g class="overlines-above"/><g class="xaxislayer-above"><g class="xtick"><text text-anchor="middle" x="0" y="433" transform="translate(103.19,0)" style="font-family: 'Open Sans', verdana, arial, sans-serif; font-size: 12px; fill: rgb(42, 63, 95); fill-opacity: 1; white-space: pre; opacity: 1;">Sep 2022</text></g><g class="xtick"><text text-anchor="middle" x="0" y="433" style="font-family: 'Open Sans', verdana, arial, sans-serif; font-size: 12px; fill: rgb(42, 63, 95); fill-opacity: 1; white-space: pre; opacity: 1;" transform="translate(202.57999999999998,0)">Oct 2022</text></g><g class="xtick"><text text-anchor="middle" x="0" y="433" style="font-family: 'Open Sans', verdana, arial, sans-serif; font-size: 12px; fill: rgb(42, 63, 95); fill-opacity: 1; white-space: pre; opacity: 1;" transform="translate(305.28,0)">Nov 2022</text></g><g class="xtick"><text text-anchor="middle" x="0" y="433" style="font-family: 'Open Sans', verdana, arial, sans-serif; font-size: 12px; fill: rgb(42, 63, 95); fill-opacity: 1; white-space: pre; opacity: 1;" transform="translate(404.66,0)">Dec 2022</text></g><g class="xtick"><text text-anchor="middle" x="0" y="433" style="font-family: 'Open Sans', verdana, arial, sans-serif; font-size: 12px; fill: rgb(42, 63, 95); fill-opacity: 1; white-space: pre; opacity: 1;" transform="translate(507.36,0)">Jan 2023</text></g><g class="xtick"><text text-anchor="middle" x="0" y="433" style="font-family: 'Open Sans', verdana, arial, sans-serif; font-size: 12px; fill: rgb(42, 63, 95); fill-opacity: 1; white-space: pre; opacity: 1;" transform="translate(610.06,0)">Feb 2023</text></g></g><g class="yaxislayer-above"><g class="ytick"><text text-anchor="end" x="79" y="4.199999999999999" transform="translate(0,420)" style="font-family: 'Open Sans', verdana, arial, sans-serif; font-size: 12px; fill: rgb(42, 63, 95); fill-opacity: 1; white-space: pre; opacity: 1;">$0</text></g><g class="ytick"><text text-anchor="end" x="79" y="4.199999999999999" style="font-family: 'Open Sans', verdana, arial, sans-serif; font-size: 12px; fill: rgb(42, 63, 95); fill-opacity: 1; white-space: pre; opacity: 1;" transform="translate(0,357.22)">$5M</text></g><g class="ytick"><text text-anchor="end" x="79" y="4.199999999999999" style="font-family: 'Open Sans', verdana, arial, sans-serif; font-size: 12px; fill: rgb(42, 63, 95); fill-opacity: 1; white-space: pre; opacity: 1;" transform="translate(0,294.44)">$10M</text></g><g class="ytick"><text text-anchor="end" x="79" y="4.199999999999999" style="font-family: 'Open Sans', verdana, arial, sans-serif; font-size: 12px; fill: rgb(42, 63, 95); fill-opacity: 1; white-space: pre; opacity: 1;" transform="translate(0,231.67)">$15M</text></g><g class="ytick"><text text-anchor="end" x="79" y="4.199999999999999" style="font-family: 'Open Sans', verdana, arial, sans-serif; font-size: 12px; fill: rgb(42, 63, 95); fill-opacity: 1; white-space: pre; opacity: 1;" transform="translate(0,168.89)">$20M</text></g><g class="ytick"><text text-anchor="end" x="79" y="4.199999999999999" style="font-family: 'Open Sans', verdana, arial, sans-serif; font-size: 12px; fill: rgb(42, 63, 95); fill-opacity: 1; white-space: pre; opacity: 1;" transform="translate(0,106.11)">$25M</text></g></g><g class="overaxes-above"/></g></g><g class="polarlayer"/><g class="smithlayer"/><g class="ternarylayer"/><g class="geolayer"/><g class="funnelarealayer"/><g class="pielayer"/><g class="iciclelayer"/><g class="treemaplayer"/><g class="sunburstlayer"/><g class="glimages"/><defs id="topdefs-d868df"><g class="clips"/></defs><g class="layer-above"><g class="imagelayer"/><g class="shapelayer"/></g><g class="infolayer"><g class="g-gtitle"><text class="gtitle" x="35" y="50" text-anchor="start" dy="0em" style="font-family: 'Open Sans', verdana, arial, sans-serif; font-size: 17px; fill: rgb(42, 63, 95); opacity: 1; font-weight: normal; white-space: pre;"><tspan class="line" dy="0em" x="35" y="50">Synthetix - sUSD-3Crv: Curve</tspan><tspan class="line" dy="1.3em" x="35" y="50">​<tspan style="font-size:70%" dy="-0.6em">Cumulative Net Dollar Flow since Program Announcement, Until Program End + 30 Days</tspan><tspan dy="0.42em">​</tspan></tspan></text></g><g class="g-xtitle"><text class="xtitle" x="350" y="460.8" text-anchor="middle" style="font-family: 'Open Sans', verdana, arial, sans-serif; font-size: 14px; fill: rgb(42, 63, 95); opacity: 1; font-weight: normal; white-space: pre;">Day</text></g><g class="g-ytitle"><text class="ytitle" transform="rotate(-90,24.168750000000003,260)" x="24.168750000000003" y="260" text-anchor="middle" style="font-family: 'Open Sans', verdana, arial, sans-serif; font-size: 14px; fill: rgb(42, 63, 95); opacity: 1; font-weight: normal; white-space: pre;">Cumulative Net Dollar Flow (N$F)</text></g></g></svg>