<svg class="main-svg" xmlns="http://www.w3.org/2000/svg" xmlns:xlink="http://www.w3.org/1999/xlink" width="700" height="500" style="" viewBox="0 0 700 500"><rect x="0" y="0" width="700" height="500" style="fill: rgb(255, 255, 255); fill-opacity: 1;"/><defs id="defs-d9f33f"><g class="clips"><clipPath id="clipd9f33fxyplot" class="plotclip"><rect width="540" height="320"/></clipPath><clipPath class="axesclip" id="clipd9f33fx"><rect x="80" y="0" width="540" height="500"/></clipPath><clipPath class="axesclip" id="clipd9f33fy"><rect x="0" y="100" width="700" height="320"/></clipPath><clipPath class="axesclip" id="clipd9f33fxy"><rect x="80" y="100" width="540" height="320"/></clipPath></g><g class="gradients"/><g class="patterns"/></defs><g class="bglayer"><rect class="bg" x="80" y="100" width="540" height="320" style="fill: rgb(229, 236, 246); fill-opacity: 1; stroke-width: 0;"/></g><g class="layer-below"><g class="imagelayer"/><g class="shapelayer"/></g><g class="cartesianlayer"><g class="subplot xy"><g class="layer-subplot"><g class="shapelayer"/><g class="imagelayer"/></g><g class="minor-gridlayer"><g class="x"/><g class="y"/></g><g class="gridlayer"><g class="x"><path class="xgrid crisp" transform="translate(152.88,0)" d="M0,100v320" style="stroke: rgb(255, 255, 255); stroke-opacity: 1; stroke-width: 1px;"/><path class="xgrid crisp" transform="translate(255.58,0)" d="M0,100v320" style="stroke: rgb(255, 255, 255); stroke-opacity: 1; stroke-width: 1px;"/><path class="xgrid crisp" transform="translate(354.97,0)" d="M0,100v320" style="stroke: rgb(255, 255, 255); stroke-opacity: 1; stroke-width: 1px;"/><path class="xgrid crisp" transform="translate(457.67,0)" d="M0,100v320" style="stroke: rgb(255, 255, 255); stroke-opacity: 1; stroke-width: 1px;"/><path class="xgrid crisp" transform="translate(560.37,0)" d="M0,100v320" style="stroke: rgb(255, 255, 255); stroke-opacity: 1; stroke-width: 1px;"/></g><g class="y"><path class="ygrid crisp" transform="translate(0,415.68)" d="M80,0h540" style="stroke: rgb(255, 255, 255); stroke-opacity: 1; stroke-width: 1px;"/><path class="ygrid crisp" transform="translate(0,327.23)" d="M80,0h540" style="stroke: rgb(255, 255, 255); stroke-opacity: 1; stroke-width: 1px;"/><path class="ygrid crisp" transform="translate(0,283.01)" d="M80,0h540" style="stroke: rgb(255, 255, 255); stroke-opacity: 1; stroke-width: 1px;"/><path class="ygrid crisp" transform="translate(0,238.78)" d="M80,0h540" style="stroke: rgb(255, 255, 255); stroke-opacity: 1; stroke-width: 1px;"/><path class="ygrid crisp" transform="translate(0,194.56)" d="M80,0h540" style="stroke: rgb(255, 255, 255); stroke-opacity: 1; stroke-width: 1px;"/><path class="ygrid crisp" transform="translate(0,150.34)" d="M80,0h540" style="stroke: rgb(255, 255, 255); stroke-opacity: 1; stroke-width: 1px;"/><path class="ygrid crisp" transform="translate(0,106.11)" d="M80,0h540" style="stroke: rgb(255, 255, 255); stroke-opacity: 1; stroke-width: 1px;"/></g></g><g class="zerolinelayer"><path class="yzl zl crisp" transform="translate(0,371.45)" d="M80,0h540" style="stroke: rgb(255, 255, 255); stroke-opacity: 1; stroke-width: 2px;"/></g><path class="xlines-below"/><path class="ylines-below"/><g class="overlines-below"/><g class="xaxislayer-below"/><g class="yaxislayer-below"/><g class="overaxes-below"/><g class="plot" transform="translate(80,100)" clip-path="url(#clipd9f33fxyplot)"><g class="scatterlayer mlayer"><g class="trace scatter trace20989b" style="stroke-miterlimit: 2;"><g class="fills"><g><path class="js-fill" d="M540,271.45L0,271.45L0,258.56L3.31,239.25L6.63,241.73L9.94,229.24L13.25,213.1L16.56,215.25L19.88,214.04L23.19,220.79L26.5,183.34L33.13,176.65L36.44,169.41L39.75,171.94L43.07,176.5L46.38,166.88L49.69,165.59L53.01,163.95L56.32,155.81L59.63,157.43L62.94,148.67L66.26,149.09L69.57,140.12L72.88,130.66L76.2,116.75L79.51,122.04L82.82,111.25L89.45,96.91L92.76,95.32L99.39,112.02L102.7,106.75L106.01,107.9L109.33,115.44L112.64,132.66L115.95,137.92L119.26,144.57L122.58,145.29L125.89,143.98L129.2,141.21L132.52,143.19L135.83,159.76L139.14,157.01L142.45,160.64L145.77,159.71L149.08,161.99L152.39,162.31L155.71,155.19L159.02,151.08L162.33,151.21L165.64,149.76L168.96,145.76L172.27,148.42L175.58,144.07L178.9,135.11L182.21,133.63L185.52,130.13L188.83,125.39L192.15,121.25L195.46,128.09L198.77,135.48L202.09,151.76L205.4,165.76L208.71,160.44L212.02,158.57L215.34,164.64L218.65,164.61L221.96,163.28L225.28,161.51L228.59,161.51L235.21,159.91L238.53,148.59L245.15,161.73L248.47,166.99L251.78,164.65L255.09,164.3L258.4,165.29L261.72,165.32L268.34,169.34L271.66,164.6L274.97,156.75L278.28,159.75L281.6,148.62L284.91,150.28L288.22,149.01L291.53,150.8L294.85,148.16L298.16,155.1L301.47,153.64L304.79,156.74L311.41,160.32L314.72,159.53L318.04,156.77L321.35,157.01L324.66,159.02L327.98,164.22L331.29,167.1L334.6,166.98L337.91,169.3L341.23,166.53L344.54,165.92L347.85,166.86L351.17,166.63L354.48,161.73L357.79,162.17L361.1,166.87L364.42,160.79L367.73,161.62L371.04,159.59L374.36,160.62L377.67,157.07L380.98,156.88L384.29,155.77L387.61,155.89L390.92,151.59L394.23,152.82L397.55,150.56L400.86,151.12L407.48,141.33L410.8,139.39L414.11,127.38L417.42,133.13L420.74,135.47L424.05,136.84L427.36,133.64L430.67,129.25L433.99,125.21L437.3,115.47L440.61,110.41L443.93,101.37L447.24,101.27L450.55,94.82L453.87,97.77L457.18,98.01L460.49,80.04L463.8,78.83L467.12,72.19L470.43,74.18L473.74,70.69L477.06,68.69L480.37,66.19L483.68,56.76L486.99,52.79L490.31,54.87L493.62,59.63L496.93,62.88L500.25,47.54L503.56,40.33L506.87,46.04L510.18,54.24L513.5,53.89L516.81,47.18L520.12,49.08L523.44,52.1L526.75,45.2L530.06,30.37L536.69,17.88L540,16L540,304" style="fill: rgb(99, 110, 250); fill-opacity: 0.5; stroke-width: 0;"/></g></g><g class="errorbars"/><g class="lines"><path class="js-line" d="M0,258.56L3.31,239.25L6.63,241.73L9.94,229.24L13.25,213.1L16.56,215.25L19.88,214.04L23.19,220.79L26.5,183.34L33.13,176.65L36.44,169.41L39.75,171.94L43.07,176.5L46.38,166.88L49.69,165.59L53.01,163.95L56.32,155.81L59.63,157.43L62.94,148.67L66.26,149.09L69.57,140.12L72.88,130.66L76.2,116.75L79.51,122.04L82.82,111.25L89.45,96.91L92.76,95.32L99.39,112.02L102.7,106.75L106.01,107.9L109.33,115.44L112.64,132.66L115.95,137.92L119.26,144.57L122.58,145.29L125.89,143.98L129.2,141.21L132.52,143.19L135.83,159.76L139.14,157.01L142.45,160.64L145.77,159.71L149.08,161.99L152.39,162.31L155.71,155.19L159.02,151.08L162.33,151.21L165.64,149.76L168.96,145.76L172.27,148.42L175.58,144.07L178.9,135.11L182.21,133.63L185.52,130.13L188.83,125.39L192.15,121.25L195.46,128.09L198.77,135.48L202.09,151.76L205.4,165.76L208.71,160.44L212.02,158.57L215.34,164.64L218.65,164.61L221.96,163.28L225.28,161.51L228.59,161.51L235.21,159.91L238.53,148.59L245.15,161.73L248.47,166.99L251.78,164.65L255.09,164.3L258.4,165.29L261.72,165.32L268.34,169.34L271.66,164.6L274.97,156.75L278.28,159.75L281.6,148.62L284.91,150.28L288.22,149.01L291.53,150.8L294.85,148.16L298.16,155.1L301.47,153.64L304.79,156.74L311.41,160.32L314.72,159.53L318.04,156.77L321.35,157.01L324.66,159.02L327.98,164.22L331.29,167.1L334.6,166.98L337.91,169.3L341.23,166.53L344.54,165.92L347.85,166.86L351.17,166.63L354.48,161.73L357.79,162.17L361.1,166.87L364.42,160.79L367.73,161.62L371.04,159.59L374.36,160.62L377.67,157.07L380.98,156.88L384.29,155.77L387.61,155.89L390.92,151.59L394.23,152.82L397.55,150.56L400.86,151.12L407.48,141.33L410.8,139.39L414.11,127.38L417.42,133.13L420.74,135.47L424.05,136.84L427.36,133.64L430.67,129.25L433.99,125.21L437.3,115.47L440.61,110.41L443.93,101.37L447.24,101.27L450.55,94.82L453.87,97.77L457.18,98.01L460.49,80.04L463.8,78.83L467.12,72.19L470.43,74.18L473.74,70.69L477.06,68.69L480.37,66.19L483.68,56.76L486.99,52.79L490.31,54.87L493.62,59.63L496.93,62.88L500.25,47.54L503.56,40.33L506.87,46.04L510.18,54.24L513.5,53.89L516.81,47.18L520.12,49.08L523.44,52.1L526.75,45.2L530.06,30.37L536.69,17.88L540,16L540,304" style="vector-effect: non-scaling-stroke; fill: none; stroke: rgb(99, 110, 250); stroke-opacity: 1; stroke-width: 2px; opacity: 1;"/></g><g class="points"/><g class="text"/></g></g></g><g class="overplot"/><path class="xlines-above crisp" d="M0,0" style="fill: none;"/><path class="ylines-above crisp" d="M0,0" style="fill: none;"/><g class="overlines-above"/><g class="xaxislayer-above"><g class="xtick"><text text-anchor="middle" x="0" y="433" transform="translate(152.88,0)" style="font-family: 'Open Sans', verdana, arial, sans-serif; font-size: 12px; fill: rgb(42, 63, 95); fill-opacity: 1; white-space: pre; opacity: 1;">Oct 2022</text></g><g class="xtick"><text text-anchor="middle" x="0" y="433" style="font-family: 'Open Sans', verdana, arial, sans-serif; font-size: 12px; fill: rgb(42, 63, 95); fill-opacity: 1; white-space: pre; opacity: 1;" transform="translate(255.58,0)">Nov 2022</text></g><g class="xtick"><text text-anchor="middle" x="0" y="433" style="font-family: 'Open Sans', verdana, arial, sans-serif; font-size: 12px; fill: rgb(42, 63, 95); fill-opacity: 1; white-space: pre; opacity: 1;" transform="translate(354.97,0)">Dec 2022</text></g><g class="xtick"><text text-anchor="middle" x="0" y="433" style="font-family: 'Open Sans', verdana, arial, sans-serif; font-size: 12px; fill: rgb(42, 63, 95); fill-opacity: 1; white-space: pre; opacity: 1;" transform="translate(457.67,0)">Jan 2023</text></g><g class="xtick"><text text-anchor="middle" x="0" y="433" style="font-family: 'Open Sans', verdana, arial, sans-serif; font-size: 12px; fill: rgb(42, 63, 95); fill-opacity: 1; white-space: pre; opacity: 1;" transform="translate(560.37,0)">Feb 2023</text></g></g><g class="yaxislayer-above"><g class="ytick"><text text-anchor="end" x="79" y="4.199999999999999" transform="translate(0,415.68)" style="font-family: 'Open Sans', verdana, arial, sans-serif; font-size: 12px; fill: rgb(42, 63, 95); fill-opacity: 1; white-space: pre; opacity: 1;">$−0.5M</text></g><g class="ytick"><text text-anchor="end" x="79" y="4.199999999999999" style="font-family: 'Open Sans', verdana, arial, sans-serif; font-size: 12px; fill: rgb(42, 63, 95); fill-opacity: 1; white-space: pre; opacity: 1;" transform="translate(0,371.45)">$0</text></g><g class="ytick"><text text-anchor="end" x="79" y="4.199999999999999" style="font-family: 'Open Sans', verdana, arial, sans-serif; font-size: 12px; fill: rgb(42, 63, 95); fill-opacity: 1; white-space: pre; opacity: 1;" transform="translate(0,327.23)">$0.5M</text></g><g class="ytick"><text text-anchor="end" x="79" y="4.199999999999999" style="font-family: 'Open Sans', verdana, arial, sans-serif; font-size: 12px; fill: rgb(42, 63, 95); fill-opacity: 1; white-space: pre; opacity: 1;" transform="translate(0,283.01)">$1M</text></g><g class="ytick"><text text-anchor="end" x="79" y="4.199999999999999" style="font-family: 'Open Sans', verdana, arial, sans-serif; font-size: 12px; fill: rgb(42, 63, 95); fill-opacity: 1; white-space: pre; opacity: 1;" transform="translate(0,238.78)">$1.5M</text></g><g class="ytick"><text text-anchor="end" x="79" y="4.199999999999999" style="font-family: 'Open Sans', verdana, arial, sans-serif; font-size: 12px; fill: rgb(42, 63, 95); fill-opacity: 1; white-space: pre; opacity: 1;" transform="translate(0,194.56)">$2M</text></g><g class="ytick"><text text-anchor="end" x="79" y="4.199999999999999" style="font-family: 'Open Sans', verdana, arial, sans-serif; font-size: 12px; fill: rgb(42, 63, 95); fill-opacity: 1; white-space: pre; opacity: 1;" transform="translate(0,150.34)">$2.5M</text></g><g class="ytick"><text text-anchor="end" x="79" y="4.199999999999999" style="font-family: 'Open Sans', verdana, arial, sans-serif; font-size: 12px; fill: rgb(42, 63, 95); fill-opacity: 1; white-space: pre; opacity: 1;" transform="translate(0,106.11)">$3M</text></g></g><g class="overaxes-above"/></g></g><g class="polarlayer"/><g class="smithlayer"/><g class="ternarylayer"/><g class="geolayer"/><g class="funnelarealayer"/><g class="pielayer"/><g class="iciclelayer"/><g class="treemaplayer"/><g class="sunburstlayer"/><g class="glimages"/><defs id="topdefs-d9f33f"><g class="clips"/></defs><g class="layer-above"><g class="imagelayer"/><g class="shapelayer"/></g><g class="infolayer"><g class="g-gtitle"><text class="gtitle" x="35" y="50" text-anchor="start" dy="0em" style="font-family: 'Open Sans', verdana, arial, sans-serif; font-size: 17px; fill: rgb(42, 63, 95); opacity: 1; font-weight: normal; white-space: pre;"><tspan class="line" dy="0em" x="35" y="50">Pickle - Pickle Finance*</tspan><tspan class="line" dy="1.3em" x="35" y="50">​<tspan style="font-size:70%" dy="-0.6em">Cumulative Net Flows since Program Announcement, Until Program End + 30 Days</tspan><tspan dy="0.42em">​</tspan></tspan></text></g><g class="g-xtitle"><text class="xtitle" x="350" y="460.8" text-anchor="middle" style="font-family: 'Open Sans', verdana, arial, sans-serif; font-size: 14px; fill: rgb(42, 63, 95); opacity: 1; font-weight: normal; white-space: pre;">Day</text></g><g class="g-ytitle"><text class="ytitle" transform="rotate(-90,13.840625000000003,260)" x="13.840625000000003" y="260" text-anchor="middle" style="font-family: 'Open Sans', verdana, arial, sans-serif; font-size: 14px; fill: rgb(42, 63, 95); opacity: 1; font-weight: normal; white-space: pre;">Cumulative Net Flows (USD)</text></g></g></svg>