<svg class="main-svg" xmlns="http://www.w3.org/2000/svg" xmlns:xlink="http://www.w3.org/1999/xlink" width="700" height="500" style="" viewBox="0 0 700 500"><rect x="0" y="0" width="700" height="500" style="fill: rgb(255, 255, 255); fill-opacity: 1;"/><defs id="defs-6f22e9"><g class="clips"><clipPath id="clip6f22e9xyplot" class="plotclip"><rect width="540" height="320"/></clipPath><clipPath class="axesclip" id="clip6f22e9x"><rect x="80" y="0" width="540" height="500"/></clipPath><clipPath class="axesclip" id="clip6f22e9y"><rect x="0" y="100" width="700" height="320"/></clipPath><clipPath class="axesclip" id="clip6f22e9xy"><rect x="80" y="100" width="540" height="320"/></clipPath></g><g class="gradients"/><g class="patterns"/></defs><g class="bglayer"><rect class="bg" x="80" y="100" width="540" height="320" style="fill: rgb(229, 236, 246); fill-opacity: 1; stroke-width: 0;"/></g><g class="layer-below"><g class="imagelayer"/><g class="shapelayer"/></g><g class="cartesianlayer"><g class="subplot xy"><g class="layer-subplot"><g class="shapelayer"/><g class="imagelayer"/></g><g class="minor-gridlayer"><g class="x"/><g class="y"/></g><g class="gridlayer"><g class="x"><path class="xgrid crisp" transform="translate(197.74,0)" d="M0,100v320" style="stroke: rgb(255, 255, 255); stroke-opacity: 1; stroke-width: 1px;"/><path class="xgrid crisp" transform="translate(319.55,0)" d="M0,100v320" style="stroke: rgb(255, 255, 255); stroke-opacity: 1; stroke-width: 1px;"/><path class="xgrid crisp" transform="translate(445.41,0)" d="M0,100v320" style="stroke: rgb(255, 255, 255); stroke-opacity: 1; stroke-width: 1px;"/><path class="xgrid crisp" transform="translate(567.22,0)" d="M0,100v320" style="stroke: rgb(255, 255, 255); stroke-opacity: 1; stroke-width: 1px;"/></g><g class="y"><path class="ygrid crisp" transform="translate(0,304.46000000000004)" d="M80,0h540" style="stroke: rgb(255, 255, 255); stroke-opacity: 1; stroke-width: 1px;"/><path class="ygrid crisp" transform="translate(0,241.36)" d="M80,0h540" style="stroke: rgb(255, 255, 255); stroke-opacity: 1; stroke-width: 1px;"/><path class="ygrid crisp" transform="translate(0,178.26999999999998)" d="M80,0h540" style="stroke: rgb(255, 255, 255); stroke-opacity: 1; stroke-width: 1px;"/><path class="ygrid crisp" transform="translate(0,115.17)" d="M80,0h540" style="stroke: rgb(255, 255, 255); stroke-opacity: 1; stroke-width: 1px;"/></g></g><g class="zerolinelayer"><path class="yzl zl crisp" transform="translate(0,367.55)" d="M80,0h540" style="stroke: rgb(255, 255, 255); stroke-opacity: 1; stroke-width: 2px;"/></g><path class="xlines-below"/><path class="ylines-below"/><g class="overlines-below"/><g class="xaxislayer-below"/><g class="yaxislayer-below"/><g class="overaxes-below"/><g class="plot" transform="translate(80,100)" clip-path="url(#clip6f22e9xyplot)"><g class="scatterlayer mlayer"><g class="trace scatter trace56162c" style="stroke-miterlimit: 2;"><g class="fills"><g><path class="js-fill" d="M540,267.55L0,267.55L0,262.48L4.06,150.39L8.12,116.3L12.18,54.88L16.24,35.15L20.3,34.32L24.36,23.49L28.42,27.54L32.48,22.92L36.54,27.14L40.6,16L44.66,18.46L48.72,18.65L52.78,19L56.84,27.04L64.96,32.07L69.02,33.38L77.14,31.49L81.2,27.97L85.26,26.21L89.32,26.14L93.38,27.81L97.44,33.58L101.5,32.57L105.56,33.87L109.62,30.36L113.68,28.93L121.8,27.84L125.86,32.22L133.98,32.65L138.05,36.55L142.11,42.37L146.17,40.09L150.23,39.62L154.29,36.56L158.35,35.64L162.41,37.53L166.47,36.18L170.53,36.07L178.65,41.45L182.71,47.74L186.77,44.96L190.83,50.13L194.89,49.66L198.95,50.02L203.01,43.03L207.07,44.37L211.13,44.69L215.19,41.85L219.25,43.28L223.31,46.07L227.37,42.51L231.43,42.14L235.49,44.59L239.55,45.47L251.73,44.57L255.79,42.74L259.85,42.58L263.91,43.55L267.97,44.67L272.03,47.43L276.09,47.12L280.15,45.33L284.21,41.56L288.27,41.63L292.33,39.85L296.39,45.94L300.45,51.73L304.51,46.24L308.57,49.76L312.63,46.67L316.69,47.62L320.75,47.65L324.81,51.79L328.87,51.6L332.93,49.91L336.99,50.39L341.05,46.52L345.11,40.95L349.17,43.65L353.23,30.56L365.41,30.87L369.47,36.35L373.53,47.86L377.59,48.64L381.65,46.43L385.71,47.94L389.77,51.18L393.83,52.84L397.89,43.04L401.95,56.43L406.02,54.03L410.08,54.77L414.14,55.51L418.2,76.9L422.26,75.13L426.32,76.66L430.38,78.46L434.44,78.56L438.5,78.8L442.56,88.48L450.68,90.99L454.74,90.41L458.8,304L462.86,91.2L470.98,91.17L475.04,92.12L479.1,92.04L483.16,89.55L487.22,90.73L491.28,93.73L499.4,94.96L503.46,94.31L511.58,93.51L515.64,94.08L519.7,92.93L523.76,93.35L527.82,96.55L531.88,95L535.94,96.69L540,97.41" style="fill: rgb(99, 110, 250); fill-opacity: 0.5; stroke-width: 0;"/></g></g><g class="errorbars"/><g class="lines"><path class="js-line" d="M0,262.48L4.06,150.39L8.12,116.3L12.18,54.88L16.24,35.15L20.3,34.32L24.36,23.49L28.42,27.54L32.48,22.92L36.54,27.14L40.6,16L44.66,18.46L48.72,18.65L52.78,19L56.84,27.04L64.96,32.07L69.02,33.38L77.14,31.49L81.2,27.97L85.26,26.21L89.32,26.14L93.38,27.81L97.44,33.58L101.5,32.57L105.56,33.87L109.62,30.36L113.68,28.93L121.8,27.84L125.86,32.22L133.98,32.65L138.05,36.55L142.11,42.37L146.17,40.09L150.23,39.62L154.29,36.56L158.35,35.64L162.41,37.53L166.47,36.18L170.53,36.07L178.65,41.45L182.71,47.74L186.77,44.96L190.83,50.13L194.89,49.66L198.95,50.02L203.01,43.03L207.07,44.37L211.13,44.69L215.19,41.85L219.25,43.28L223.31,46.07L227.37,42.51L231.43,42.14L235.49,44.59L239.55,45.47L251.73,44.57L255.79,42.74L259.85,42.58L263.91,43.55L267.97,44.67L272.03,47.43L276.09,47.12L280.15,45.33L284.21,41.56L288.27,41.63L292.33,39.85L296.39,45.94L300.45,51.73L304.51,46.24L308.57,49.76L312.63,46.67L316.69,47.62L320.75,47.65L324.81,51.79L328.87,51.6L332.93,49.91L336.99,50.39L341.05,46.52L345.11,40.95L349.17,43.65L353.23,30.56L365.41,30.87L369.47,36.35L373.53,47.86L377.59,48.64L381.65,46.43L385.71,47.94L389.77,51.18L393.83,52.84L397.89,43.04L401.95,56.43L406.02,54.03L410.08,54.77L414.14,55.51L418.2,76.9L422.26,75.13L426.32,76.66L430.38,78.46L434.44,78.56L438.5,78.8L442.56,88.48L450.68,90.99L454.74,90.41L458.8,304L462.86,91.2L470.98,91.17L475.04,92.12L479.1,92.04L483.16,89.55L487.22,90.73L491.28,93.73L499.4,94.96L503.46,94.31L511.58,93.51L515.64,94.08L519.7,92.93L523.76,93.35L527.82,96.55L531.88,95L535.94,96.69L540,97.41" style="vector-effect: non-scaling-stroke; fill: none; stroke: rgb(99, 110, 250); stroke-opacity: 1; stroke-width: 2px; opacity: 1;"/></g><g class="points"/><g class="text"/></g></g></g><g class="overplot"/><path class="xlines-above crisp" d="M0,0" style="fill: none;"/><path class="ylines-above crisp" d="M0,0" style="fill: none;"/><g class="overlines-above"/><g class="xaxislayer-above"><g class="xtick"><text text-anchor="middle" x="0" y="433" transform="translate(197.74,0)" style="font-family: 'Open Sans', verdana, arial, sans-serif; font-size: 12px; fill: rgb(42, 63, 95); fill-opacity: 1; white-space: pre; opacity: 1;">Sep 2022</text></g><g class="xtick"><text text-anchor="middle" x="0" y="433" style="font-family: 'Open Sans', verdana, arial, sans-serif; font-size: 12px; fill: rgb(42, 63, 95); fill-opacity: 1; white-space: pre; opacity: 1;" transform="translate(319.55,0)">Oct 2022</text></g><g class="xtick"><text text-anchor="middle" x="0" y="433" style="font-family: 'Open Sans', verdana, arial, sans-serif; font-size: 12px; fill: rgb(42, 63, 95); fill-opacity: 1; white-space: pre; opacity: 1;" transform="translate(445.41,0)">Nov 2022</text></g><g class="xtick"><text text-anchor="middle" x="0" y="433" style="font-family: 'Open Sans', verdana, arial, sans-serif; font-size: 12px; fill: rgb(42, 63, 95); fill-opacity: 1; white-space: pre; opacity: 1;" transform="translate(567.22,0)">Dec 2022</text></g></g><g class="yaxislayer-above"><g class="ytick"><text text-anchor="end" x="79" y="4.199999999999999" transform="translate(0,367.55)" style="font-family: 'Open Sans', verdana, arial, sans-serif; font-size: 12px; fill: rgb(42, 63, 95); fill-opacity: 1; white-space: pre; opacity: 1;">$0</text></g><g class="ytick"><text text-anchor="end" x="79" y="4.199999999999999" style="font-family: 'Open Sans', verdana, arial, sans-serif; font-size: 12px; fill: rgb(42, 63, 95); fill-opacity: 1; white-space: pre; opacity: 1;" transform="translate(0,304.46000000000004)">$1M</text></g><g class="ytick"><text text-anchor="end" x="79" y="4.199999999999999" style="font-family: 'Open Sans', verdana, arial, sans-serif; font-size: 12px; fill: rgb(42, 63, 95); fill-opacity: 1; white-space: pre; opacity: 1;" transform="translate(0,241.36)">$2M</text></g><g class="ytick"><text text-anchor="end" x="79" y="4.199999999999999" style="font-family: 'Open Sans', verdana, arial, sans-serif; font-size: 12px; fill: rgb(42, 63, 95); fill-opacity: 1; white-space: pre; opacity: 1;" transform="translate(0,178.26999999999998)">$3M</text></g><g class="ytick"><text text-anchor="end" x="79" y="4.199999999999999" style="font-family: 'Open Sans', verdana, arial, sans-serif; font-size: 12px; fill: rgb(42, 63, 95); fill-opacity: 1; white-space: pre; opacity: 1;" transform="translate(0,115.17)">$4M</text></g></g><g class="overaxes-above"/></g></g><g class="polarlayer"/><g class="smithlayer"/><g class="ternarylayer"/><g class="geolayer"/><g class="funnelarealayer"/><g class="pielayer"/><g class="iciclelayer"/><g class="treemaplayer"/><g class="sunburstlayer"/><g class="glimages"/><defs id="topdefs-6f22e9"><g class="clips"/></defs><g class="layer-above"><g class="imagelayer"/><g class="shapelayer"/></g><g class="infolayer"><g class="g-gtitle"><text class="gtitle" x="35" y="50" text-anchor="start" dy="0em" style="font-family: 'Open Sans', verdana, arial, sans-serif; font-size: 17px; fill: rgb(42, 63, 95); opacity: 1; font-weight: normal; white-space: pre;">Wepiggy: Cumulative Net Dollar Flow since Program Announcement</text></g><g class="g-xtitle"><text class="xtitle" x="350" y="460.8" text-anchor="middle" style="font-family: 'Open Sans', verdana, arial, sans-serif; font-size: 14px; fill: rgb(42, 63, 95); opacity: 1; font-weight: normal; white-space: pre;">Day</text></g><g class="g-ytitle"><text class="ytitle" transform="rotate(-90,30.856250000000003,260)" x="30.856250000000003" y="260" text-anchor="middle" style="font-family: 'Open Sans', verdana, arial, sans-serif; font-size: 14px; fill: rgb(42, 63, 95); opacity: 1; font-weight: normal; white-space: pre;">Cumulative Net Dollar Flow (N$F)</text></g></g></svg>