<svg class="main-svg" xmlns="http://www.w3.org/2000/svg" xmlns:xlink="http://www.w3.org/1999/xlink" width="700" height="500" style="" viewBox="0 0 700 500"><rect x="0" y="0" width="700" height="500" style="fill: rgb(255, 255, 255); fill-opacity: 1;"/><defs id="defs-f75f48"><g class="clips"><clipPath id="clipf75f48xyplot" class="plotclip"><rect width="540" height="320"/></clipPath><clipPath class="axesclip" id="clipf75f48x"><rect x="80" y="0" width="540" height="500"/></clipPath><clipPath class="axesclip" id="clipf75f48y"><rect x="0" y="100" width="700" height="320"/></clipPath><clipPath class="axesclip" id="clipf75f48xy"><rect x="80" y="100" width="540" height="320"/></clipPath></g><g class="gradients"/><g class="patterns"/></defs><g class="bglayer"><rect class="bg" x="80" y="100" width="540" height="320" style="fill: rgb(229, 236, 246); fill-opacity: 1; stroke-width: 0;"/></g><g class="layer-below"><g class="imagelayer"/><g class="shapelayer"/></g><g class="cartesianlayer"><g class="subplot xy"><g class="layer-subplot"><g class="shapelayer"/><g class="imagelayer"/></g><g class="minor-gridlayer"><g class="x"/><g class="y"/></g><g class="gridlayer"><g class="x"><path class="xgrid crisp" transform="translate(128.65,0)" d="M0,100v320" style="stroke: rgb(255, 255, 255); stroke-opacity: 1; stroke-width: 1px;"/><path class="xgrid crisp" transform="translate(196.76,0)" d="M0,100v320" style="stroke: rgb(255, 255, 255); stroke-opacity: 1; stroke-width: 1px;"/><path class="xgrid crisp" transform="translate(264.86,0)" d="M0,100v320" style="stroke: rgb(255, 255, 255); stroke-opacity: 1; stroke-width: 1px;"/><path class="xgrid crisp" transform="translate(332.97,0)" d="M0,100v320" style="stroke: rgb(255, 255, 255); stroke-opacity: 1; stroke-width: 1px;"/><path class="xgrid crisp" transform="translate(401.08,0)" d="M0,100v320" style="stroke: rgb(255, 255, 255); stroke-opacity: 1; stroke-width: 1px;"/><path class="xgrid crisp" transform="translate(469.19,0)" d="M0,100v320" style="stroke: rgb(255, 255, 255); stroke-opacity: 1; stroke-width: 1px;"/><path class="xgrid crisp" transform="translate(537.3,0)" d="M0,100v320" style="stroke: rgb(255, 255, 255); stroke-opacity: 1; stroke-width: 1px;"/><path class="xgrid crisp" transform="translate(605.41,0)" d="M0,100v320" style="stroke: rgb(255, 255, 255); stroke-opacity: 1; stroke-width: 1px;"/></g><g class="y"><path class="ygrid crisp" transform="translate(0,348.85)" d="M80,0h540" style="stroke: rgb(255, 255, 255); stroke-opacity: 1; stroke-width: 1px;"/><path class="ygrid crisp" transform="translate(0,277.71000000000004)" d="M80,0h540" style="stroke: rgb(255, 255, 255); stroke-opacity: 1; stroke-width: 1px;"/><path class="ygrid crisp" transform="translate(0,206.56)" d="M80,0h540" style="stroke: rgb(255, 255, 255); stroke-opacity: 1; stroke-width: 1px;"/><path class="ygrid crisp" transform="translate(0,135.41)" d="M80,0h540" style="stroke: rgb(255, 255, 255); stroke-opacity: 1; stroke-width: 1px;"/></g></g><g class="zerolinelayer"><path class="yzl zl crisp" transform="translate(0,420)" d="M80,0h540" style="stroke: rgb(255, 255, 255); stroke-opacity: 1; stroke-width: 2px;"/></g><path class="xlines-below"/><path class="ylines-below"/><g class="overlines-below"/><g class="xaxislayer-below"/><g class="yaxislayer-below"/><g class="overaxes-below"/><g class="plot" transform="translate(80,100)" clip-path="url(#clipf75f48xyplot)"><g class="scatterlayer mlayer"><g class="trace scatter trace19e753" style="stroke-miterlimit: 2;"><g class="fills"><g><path class="js-fill" d="M540,320L0,320L0,319.61L4.86,273.22L9.73,254.84L14.59,242.73L19.46,255.89L24.32,229.31L29.19,225.84L34.05,231.17L38.92,221.88L43.78,201.59L48.65,184.97L53.51,137.23L58.38,138.83L63.24,129.79L68.11,128.44L72.97,137.8L77.84,145.43L82.7,145.15L87.57,140.58L97.3,137.12L102.16,136.86L107.03,144.17L111.89,144.06L116.76,142.33L121.62,139.78L126.49,150.09L131.35,126.36L136.22,116.36L141.08,113.74L145.95,105.66L150.81,92.95L155.68,82.19L160.54,75.18L165.41,83.81L170.27,85.38L175.14,74.92L180,61.34L184.86,53.92L189.73,63.61L194.59,63.58L199.46,101.53L204.32,140.79L209.19,131.07L214.05,131.1L218.92,129.95L223.78,132.88L228.65,129.26L233.51,127.51L238.38,128.72L243.24,134.12L248.11,129.93L252.97,129.59L257.84,138.05L262.7,136.44L267.57,129.94L272.43,123.82L277.3,116.26L282.16,116.65L287.03,113.78L291.89,115.08L296.76,121.96L301.62,118.56L306.49,109.41L311.35,104.95L316.22,113.32L321.08,122.97L325.95,121.98L330.81,126.85L335.68,143.04L340.54,152.12L345.41,149.07L350.27,146.63L355.14,134.86L360,136.85L364.86,132.94L369.73,122.6L374.59,125.29L379.46,131.24L384.32,138.53L389.19,136.76L394.05,136.15L398.92,137.57L403.78,131.37L408.65,132.59L413.51,107.74L418.38,108.29L423.24,110.42L432.97,107.58L437.84,104.11L442.7,107.72L447.57,105.1L457.3,99.81L462.16,98.78L467.03,91.61L471.89,90.18L476.76,87.71L481.62,86.24L486.49,113.74L491.35,115.36L496.22,105.01L501.08,99.92L505.95,99.99L510.81,88.86L515.68,86.94L520.54,51.75L525.41,33.07L530.27,21.61L535.14,16L540,19.45" style="fill: rgb(99, 110, 250); fill-opacity: 0.5; stroke-width: 0;"/></g></g><g class="errorbars"/><g class="lines"><path class="js-line" d="M0,319.61L4.86,273.22L9.73,254.84L14.59,242.73L19.46,255.89L24.32,229.31L29.19,225.84L34.05,231.17L38.92,221.88L43.78,201.59L48.65,184.97L53.51,137.23L58.38,138.83L63.24,129.79L68.11,128.44L72.97,137.8L77.84,145.43L82.7,145.15L87.57,140.58L97.3,137.12L102.16,136.86L107.03,144.17L111.89,144.06L116.76,142.33L121.62,139.78L126.49,150.09L131.35,126.36L136.22,116.36L141.08,113.74L145.95,105.66L150.81,92.95L155.68,82.19L160.54,75.18L165.41,83.81L170.27,85.38L175.14,74.92L180,61.34L184.86,53.92L189.73,63.61L194.59,63.58L199.46,101.53L204.32,140.79L209.19,131.07L214.05,131.1L218.92,129.95L223.78,132.88L228.65,129.26L233.51,127.51L238.38,128.72L243.24,134.12L248.11,129.93L252.97,129.59L257.84,138.05L262.7,136.44L267.57,129.94L272.43,123.82L277.3,116.26L282.16,116.65L287.03,113.78L291.89,115.08L296.76,121.96L301.62,118.56L306.49,109.41L311.35,104.95L316.22,113.32L321.08,122.97L325.95,121.98L330.81,126.85L335.68,143.04L340.54,152.12L345.41,149.07L350.27,146.63L355.14,134.86L360,136.85L364.86,132.94L369.73,122.6L374.59,125.29L379.46,131.24L384.32,138.53L389.19,136.76L394.05,136.15L398.92,137.57L403.78,131.37L408.65,132.59L413.51,107.74L418.38,108.29L423.24,110.42L432.97,107.58L437.84,104.11L442.7,107.72L447.57,105.1L457.3,99.81L462.16,98.78L467.03,91.61L471.89,90.18L476.76,87.71L481.62,86.24L486.49,113.74L491.35,115.36L496.22,105.01L501.08,99.92L505.95,99.99L510.81,88.86L515.68,86.94L520.54,51.75L525.41,33.07L530.27,21.61L535.14,16L540,19.45" style="vector-effect: non-scaling-stroke; fill: none; stroke: rgb(99, 110, 250); stroke-opacity: 1; stroke-width: 2px; opacity: 1;"/></g><g class="points"/><g class="text"/></g></g></g><g class="overplot"/><path class="xlines-above crisp" d="M0,0" style="fill: none;"/><path class="ylines-above crisp" d="M0,0" style="fill: none;"/><g class="overlines-above"/><g class="xaxislayer-above"><g class="xtick"><text text-anchor="middle" x="0" y="433" transform="translate(128.65,0)" style="font-family: 'Open Sans', verdana, arial, sans-serif; font-size: 12px; fill: rgb(42, 63, 95); fill-opacity: 1; white-space: pre; opacity: 1;"><tspan class="line" dy="0em" x="0" y="433">Oct 9</tspan><tspan class="line" dy="1.3em" x="0" y="433">2022</tspan></text></g><g class="xtick"><text text-anchor="middle" x="0" y="433" style="font-family: 'Open Sans', verdana, arial, sans-serif; font-size: 12px; fill: rgb(42, 63, 95); fill-opacity: 1; white-space: pre; opacity: 1;" transform="translate(196.76,0)">Oct 23</text></g><g class="xtick"><text text-anchor="middle" x="0" y="433" style="font-family: 'Open Sans', verdana, arial, sans-serif; font-size: 12px; fill: rgb(42, 63, 95); fill-opacity: 1; white-space: pre; opacity: 1;" transform="translate(264.86,0)">Nov 6</text></g><g class="xtick"><text text-anchor="middle" x="0" y="433" style="font-family: 'Open Sans', verdana, arial, sans-serif; font-size: 12px; fill: rgb(42, 63, 95); fill-opacity: 1; white-space: pre; opacity: 1;" transform="translate(332.97,0)">Nov 20</text></g><g class="xtick"><text text-anchor="middle" x="0" y="433" style="font-family: 'Open Sans', verdana, arial, sans-serif; font-size: 12px; fill: rgb(42, 63, 95); fill-opacity: 1; white-space: pre; opacity: 1;" transform="translate(401.08,0)">Dec 4</text></g><g class="xtick"><text text-anchor="middle" x="0" y="433" style="font-family: 'Open Sans', verdana, arial, sans-serif; font-size: 12px; fill: rgb(42, 63, 95); fill-opacity: 1; white-space: pre; opacity: 1;" transform="translate(469.19,0)">Dec 18</text></g><g class="xtick"><text text-anchor="middle" x="0" y="433" style="font-family: 'Open Sans', verdana, arial, sans-serif; font-size: 12px; fill: rgb(42, 63, 95); fill-opacity: 1; white-space: pre; opacity: 1;" transform="translate(537.3,0)"><tspan class="line" dy="0em" x="0" y="433">Jan 1</tspan><tspan class="line" dy="1.3em" x="0" y="433">2023</tspan></text></g><g class="xtick"><text text-anchor="middle" x="0" y="433" style="font-family: 'Open Sans', verdana, arial, sans-serif; font-size: 12px; fill: rgb(42, 63, 95); fill-opacity: 1; white-space: pre; opacity: 1;" transform="translate(605.41,0)">Jan 15</text></g></g><g class="yaxislayer-above"><g class="ytick"><text text-anchor="end" x="79" y="4.199999999999999" transform="translate(0,420)" style="font-family: 'Open Sans', verdana, arial, sans-serif; font-size: 12px; fill: rgb(42, 63, 95); fill-opacity: 1; white-space: pre; opacity: 1;">$0</text></g><g class="ytick"><text text-anchor="end" x="79" y="4.199999999999999" style="font-family: 'Open Sans', verdana, arial, sans-serif; font-size: 12px; fill: rgb(42, 63, 95); fill-opacity: 1; white-space: pre; opacity: 1;" transform="translate(0,348.85)">$5M</text></g><g class="ytick"><text text-anchor="end" x="79" y="4.199999999999999" style="font-family: 'Open Sans', verdana, arial, sans-serif; font-size: 12px; fill: rgb(42, 63, 95); fill-opacity: 1; white-space: pre; opacity: 1;" transform="translate(0,277.71000000000004)">$10M</text></g><g class="ytick"><text text-anchor="end" x="79" y="4.199999999999999" style="font-family: 'Open Sans', verdana, arial, sans-serif; font-size: 12px; fill: rgb(42, 63, 95); fill-opacity: 1; white-space: pre; opacity: 1;" transform="translate(0,206.56)">$15M</text></g><g class="ytick"><text text-anchor="end" x="79" y="4.199999999999999" style="font-family: 'Open Sans', verdana, arial, sans-serif; font-size: 12px; fill: rgb(42, 63, 95); fill-opacity: 1; white-space: pre; opacity: 1;" transform="translate(0,135.41)">$20M</text></g></g><g class="overaxes-above"/></g></g><g class="polarlayer"/><g class="smithlayer"/><g class="ternarylayer"/><g class="geolayer"/><g class="funnelarealayer"/><g class="pielayer"/><g class="iciclelayer"/><g class="treemaplayer"/><g class="sunburstlayer"/><g class="glimages"/><defs id="topdefs-f75f48"><g class="clips"/></defs><g class="layer-above"><g class="imagelayer"/><g class="shapelayer"/></g><g class="infolayer"><g class="g-gtitle"><text class="gtitle" x="35" y="50" text-anchor="start" dy="0em" style="font-family: 'Open Sans', verdana, arial, sans-serif; font-size: 17px; fill: rgb(42, 63, 95); opacity: 1; font-weight: normal; white-space: pre;"><tspan class="line" dy="0em" x="35" y="50">Beethoven X</tspan><tspan class="line" dy="1.3em" x="35" y="50">​<tspan style="font-size:70%" dy="-0.6em">Cumulative Net Dollar Flow since Program Announcement, Until Program End + 30 Days</tspan><tspan dy="0.42em">​</tspan></tspan></text></g><g class="g-xtitle"><text class="xtitle" x="350" y="476.409375" text-anchor="middle" style="font-family: 'Open Sans', verdana, arial, sans-serif; font-size: 14px; fill: rgb(42, 63, 95); opacity: 1; font-weight: normal; white-space: pre;">Day</text></g><g class="g-ytitle"><text class="ytitle" transform="rotate(-90,24.168750000000003,260)" x="24.168750000000003" y="260" text-anchor="middle" style="font-family: 'Open Sans', verdana, arial, sans-serif; font-size: 14px; fill: rgb(42, 63, 95); opacity: 1; font-weight: normal; white-space: pre;">Cumulative Net Dollar Flow (N$F)</text></g></g></svg>