<svg class="main-svg" xmlns="http://www.w3.org/2000/svg" xmlns:xlink="http://www.w3.org/1999/xlink" width="700" height="500" style="" viewBox="0 0 700 500"><rect x="0" y="0" width="700" height="500" style="fill: rgb(255, 255, 255); fill-opacity: 1;"/><defs id="defs-292e01"><g class="clips"><clipPath id="clip292e01xyplot" class="plotclip"><rect width="540" height="320"/></clipPath><clipPath class="axesclip" id="clip292e01x"><rect x="80" y="0" width="540" height="500"/></clipPath><clipPath class="axesclip" id="clip292e01y"><rect x="0" y="100" width="700" height="320"/></clipPath><clipPath class="axesclip" id="clip292e01xy"><rect x="80" y="100" width="540" height="320"/></clipPath></g><g class="gradients"/><g class="patterns"/></defs><g class="bglayer"><rect class="bg" x="80" y="100" width="540" height="320" style="fill: rgb(229, 236, 246); fill-opacity: 1; stroke-width: 0;"/></g><g class="layer-below"><g class="imagelayer"/><g class="shapelayer"/></g><g class="cartesianlayer"><g class="subplot xy"><g class="layer-subplot"><g class="shapelayer"/><g class="imagelayer"/></g><g class="minor-gridlayer"><g class="x"/><g class="y"/></g><g class="gridlayer"><g class="x"><path class="xgrid crisp" transform="translate(137.02,0)" d="M0,100v320" style="stroke: rgb(255, 255, 255); stroke-opacity: 1; stroke-width: 1px;"/><path class="xgrid crisp" transform="translate(240.99,0)" d="M0,100v320" style="stroke: rgb(255, 255, 255); stroke-opacity: 1; stroke-width: 1px;"/><path class="xgrid crisp" transform="translate(341.61,0)" d="M0,100v320" style="stroke: rgb(255, 255, 255); stroke-opacity: 1; stroke-width: 1px;"/><path class="xgrid crisp" transform="translate(445.59,0)" d="M0,100v320" style="stroke: rgb(255, 255, 255); stroke-opacity: 1; stroke-width: 1px;"/><path class="xgrid crisp" transform="translate(546.21,0)" d="M0,100v320" style="stroke: rgb(255, 255, 255); stroke-opacity: 1; stroke-width: 1px;"/></g><g class="y"><path class="ygrid crisp" transform="translate(0,395.54)" d="M80,0h540" style="stroke: rgb(255, 255, 255); stroke-opacity: 1; stroke-width: 1px;"/><path class="ygrid crisp" transform="translate(0,354.90999999999997)" d="M80,0h540" style="stroke: rgb(255, 255, 255); stroke-opacity: 1; stroke-width: 1px;"/><path class="ygrid crisp" transform="translate(0,314.28)" d="M80,0h540" style="stroke: rgb(255, 255, 255); stroke-opacity: 1; stroke-width: 1px;"/><path class="ygrid crisp" transform="translate(0,233.02)" d="M80,0h540" style="stroke: rgb(255, 255, 255); stroke-opacity: 1; stroke-width: 1px;"/><path class="ygrid crisp" transform="translate(0,192.39)" d="M80,0h540" style="stroke: rgb(255, 255, 255); stroke-opacity: 1; stroke-width: 1px;"/><path class="ygrid crisp" transform="translate(0,151.76)" d="M80,0h540" style="stroke: rgb(255, 255, 255); stroke-opacity: 1; stroke-width: 1px;"/><path class="ygrid crisp" transform="translate(0,111.13)" d="M80,0h540" style="stroke: rgb(255, 255, 255); stroke-opacity: 1; stroke-width: 1px;"/></g></g><g class="zerolinelayer"><path class="yzl zl crisp" transform="translate(0,273.65)" d="M80,0h540" style="stroke: rgb(255, 255, 255); stroke-opacity: 1; stroke-width: 2px;"/></g><path class="xlines-below"/><path class="ylines-below"/><g class="overlines-below"/><g class="xaxislayer-below"/><g class="yaxislayer-below"/><g class="overaxes-below"/><g class="plot" transform="translate(80,100)" clip-path="url(#clip292e01xyplot)"><g class="scatterlayer mlayer"><g class="trace scatter tracef6a61e" style="stroke-miterlimit: 2;"><g class="fills"><g><path class="js-fill" d="M540,173.65L0,173.65L0,165.78L3.35,137.73L6.71,128.27L10.06,133.92L13.42,136.39L16.77,137.46L20.12,142.34L23.48,143.44L26.83,102.64L30.19,90.85L33.54,91.25L36.89,94.26L40.25,126.11L43.6,131.96L46.96,128.92L50.31,109.98L53.66,113.74L57.02,112.3L60.37,108.15L63.73,106.31L67.08,109.19L70.43,129.47L73.79,115.28L77.14,133.55L80.5,147.05L83.85,151.52L87.2,149.14L90.56,124.99L93.91,108L97.27,86.38L100.62,85.65L103.98,95.21L107.33,119.45L110.68,121.6L114.04,130.47L117.39,124.39L120.75,94.55L124.1,95.5L127.45,120.25L130.81,114.1L134.16,115.79L137.52,117.13L140.87,136.42L144.22,121.19L147.58,113.34L150.93,146.16L154.29,136.12L157.64,132.66L160.99,138.99L164.35,136.2L167.7,122.57L171.06,136.7L174.41,143.53L177.76,146.24L181.12,156.47L184.47,167.74L187.83,169.11L191.18,152.24L194.53,153.83L197.89,110.13L201.24,137.82L204.6,138.92L207.95,143.55L211.3,146.54L214.66,152.14L218.01,77.18L221.37,137.66L224.72,127.61L228.07,132.56L231.43,144.44L234.78,147.54L238.14,127.06L241.49,129.3L244.84,130.48L248.2,144.37L251.55,116.16L254.91,115.84L258.26,113.96L261.61,115.52L264.97,99.69L268.32,143.63L271.68,142.09L275.03,135.61L278.39,158.73L281.74,161L285.09,159.45L288.45,168.25L295.16,207.1L298.51,196.23L305.22,184.86L308.57,169.66L311.93,167.55L315.28,183.56L318.63,167.27L321.99,154.87L325.34,144.37L328.7,155.64L332.05,161.01L335.4,162.27L338.76,172.96L342.11,179.81L345.47,182.95L348.82,165.57L352.17,161.54L355.53,144.71L358.88,130.91L362.24,170.61L365.59,162.94L368.94,168.26L372.3,148.93L375.65,158.19L379.01,124.7L382.36,135.1L385.71,165.8L389.07,111.75L392.42,127.01L395.78,111.6L399.13,104.33L402.48,72.25L405.84,73.05L409.19,111.27L412.55,104.42L415.9,102.4L419.25,95.56L422.61,100.46L425.96,76.33L429.32,77.81L432.67,80.4L436.02,71.45L439.38,39.59L442.73,39.3L446.09,112L449.44,80.22L452.8,95.69L456.15,83.8L459.5,103.54L462.86,148.55L466.21,77.99L469.57,85.99L472.92,36.24L476.27,41.95L482.98,72.33L486.34,51.88L489.69,37.71L493.04,27.85L496.4,16L499.75,21.05L503.11,96.97L506.46,116.28L513.17,143.66L516.52,150.85L519.88,124.54L523.23,125.91L526.58,143.49L529.94,127.23L533.29,134.56L536.65,123.03L540,130.2L540,304" style="fill: rgb(99, 110, 250); fill-opacity: 0.5; stroke-width: 0;"/></g></g><g class="errorbars"/><g class="lines"><path class="js-line" d="M0,165.78L3.35,137.73L6.71,128.27L10.06,133.92L13.42,136.39L16.77,137.46L20.12,142.34L23.48,143.44L26.83,102.64L30.19,90.85L33.54,91.25L36.89,94.26L40.25,126.11L43.6,131.96L46.96,128.92L50.31,109.98L53.66,113.74L57.02,112.3L60.37,108.15L63.73,106.31L67.08,109.19L70.43,129.47L73.79,115.28L77.14,133.55L80.5,147.05L83.85,151.52L87.2,149.14L90.56,124.99L93.91,108L97.27,86.38L100.62,85.65L103.98,95.21L107.33,119.45L110.68,121.6L114.04,130.47L117.39,124.39L120.75,94.55L124.1,95.5L127.45,120.25L130.81,114.1L134.16,115.79L137.52,117.13L140.87,136.42L144.22,121.19L147.58,113.34L150.93,146.16L154.29,136.12L157.64,132.66L160.99,138.99L164.35,136.2L167.7,122.57L171.06,136.7L174.41,143.53L177.76,146.24L181.12,156.47L184.47,167.74L187.83,169.11L191.18,152.24L194.53,153.83L197.89,110.13L201.24,137.82L204.6,138.92L207.95,143.55L211.3,146.54L214.66,152.14L218.01,77.18L221.37,137.66L224.72,127.61L228.07,132.56L231.43,144.44L234.78,147.54L238.14,127.06L241.49,129.3L244.84,130.48L248.2,144.37L251.55,116.16L254.91,115.84L258.26,113.96L261.61,115.52L264.97,99.69L268.32,143.63L271.68,142.09L275.03,135.61L278.39,158.73L281.74,161L285.09,159.45L288.45,168.25L295.16,207.1L298.51,196.23L305.22,184.86L308.57,169.66L311.93,167.55L315.28,183.56L318.63,167.27L321.99,154.87L325.34,144.37L328.7,155.64L332.05,161.01L335.4,162.27L338.76,172.96L342.11,179.81L345.47,182.95L348.82,165.57L352.17,161.54L355.53,144.71L358.88,130.91L362.24,170.61L365.59,162.94L368.94,168.26L372.3,148.93L375.65,158.19L379.01,124.7L382.36,135.1L385.71,165.8L389.07,111.75L392.42,127.01L395.78,111.6L399.13,104.33L402.48,72.25L405.84,73.05L409.19,111.27L412.55,104.42L415.9,102.4L419.25,95.56L422.61,100.46L425.96,76.33L429.32,77.81L432.67,80.4L436.02,71.45L439.38,39.59L442.73,39.3L446.09,112L449.44,80.22L452.8,95.69L456.15,83.8L459.5,103.54L462.86,148.55L466.21,77.99L469.57,85.99L472.92,36.24L476.27,41.95L482.98,72.33L486.34,51.88L489.69,37.71L493.04,27.85L496.4,16L499.75,21.05L503.11,96.97L506.46,116.28L513.17,143.66L516.52,150.85L519.88,124.54L523.23,125.91L526.58,143.49L529.94,127.23L533.29,134.56L536.65,123.03L540,130.2L540,304" style="vector-effect: non-scaling-stroke; fill: none; stroke: rgb(99, 110, 250); stroke-opacity: 1; stroke-width: 2px; opacity: 1;"/></g><g class="points"/><g class="text"/></g></g></g><g class="overplot"/><path class="xlines-above crisp" d="M0,0" style="fill: none;"/><path class="ylines-above crisp" d="M0,0" style="fill: none;"/><g class="overlines-above"/><g class="xaxislayer-above"><g class="xtick"><text text-anchor="middle" x="0" y="433" transform="translate(137.02,0)" style="font-family: 'Open Sans', verdana, arial, sans-serif; font-size: 12px; fill: rgb(42, 63, 95); fill-opacity: 1; white-space: pre; opacity: 1;">Aug 2022</text></g><g class="xtick"><text text-anchor="middle" x="0" y="433" style="font-family: 'Open Sans', verdana, arial, sans-serif; font-size: 12px; fill: rgb(42, 63, 95); fill-opacity: 1; white-space: pre; opacity: 1;" transform="translate(240.99,0)">Sep 2022</text></g><g class="xtick"><text text-anchor="middle" x="0" y="433" style="font-family: 'Open Sans', verdana, arial, sans-serif; font-size: 12px; fill: rgb(42, 63, 95); fill-opacity: 1; white-space: pre; opacity: 1;" transform="translate(341.61,0)">Oct 2022</text></g><g class="xtick"><text text-anchor="middle" x="0" y="433" style="font-family: 'Open Sans', verdana, arial, sans-serif; font-size: 12px; fill: rgb(42, 63, 95); fill-opacity: 1; white-space: pre; opacity: 1;" transform="translate(445.59,0)">Nov 2022</text></g><g class="xtick"><text text-anchor="middle" x="0" y="433" style="font-family: 'Open Sans', verdana, arial, sans-serif; font-size: 12px; fill: rgb(42, 63, 95); fill-opacity: 1; white-space: pre; opacity: 1;" transform="translate(546.21,0)">Dec 2022</text></g></g><g class="yaxislayer-above"><g class="ytick"><text text-anchor="end" x="79" y="4.199999999999999" transform="translate(0,395.54)" style="font-family: 'Open Sans', verdana, arial, sans-serif; font-size: 12px; fill: rgb(42, 63, 95); fill-opacity: 1; white-space: pre; opacity: 1;">$−150k</text></g><g class="ytick"><text text-anchor="end" x="79" y="4.199999999999999" style="font-family: 'Open Sans', verdana, arial, sans-serif; font-size: 12px; fill: rgb(42, 63, 95); fill-opacity: 1; white-space: pre; opacity: 1;" transform="translate(0,354.90999999999997)">$−100k</text></g><g class="ytick"><text text-anchor="end" x="79" y="4.199999999999999" style="font-family: 'Open Sans', verdana, arial, sans-serif; font-size: 12px; fill: rgb(42, 63, 95); fill-opacity: 1; white-space: pre; opacity: 1;" transform="translate(0,314.28)">$−50k</text></g><g class="ytick"><text text-anchor="end" x="79" y="4.199999999999999" style="font-family: 'Open Sans', verdana, arial, sans-serif; font-size: 12px; fill: rgb(42, 63, 95); fill-opacity: 1; white-space: pre; opacity: 1;" transform="translate(0,273.65)">$0</text></g><g class="ytick"><text text-anchor="end" x="79" y="4.199999999999999" style="font-family: 'Open Sans', verdana, arial, sans-serif; font-size: 12px; fill: rgb(42, 63, 95); fill-opacity: 1; white-space: pre; opacity: 1;" transform="translate(0,233.02)">$50k</text></g><g class="ytick"><text text-anchor="end" x="79" y="4.199999999999999" style="font-family: 'Open Sans', verdana, arial, sans-serif; font-size: 12px; fill: rgb(42, 63, 95); fill-opacity: 1; white-space: pre; opacity: 1;" transform="translate(0,192.39)">$100k</text></g><g class="ytick"><text text-anchor="end" x="79" y="4.199999999999999" style="font-family: 'Open Sans', verdana, arial, sans-serif; font-size: 12px; fill: rgb(42, 63, 95); fill-opacity: 1; white-space: pre; opacity: 1;" transform="translate(0,151.76)">$150k</text></g><g class="ytick"><text text-anchor="end" x="79" y="4.199999999999999" style="font-family: 'Open Sans', verdana, arial, sans-serif; font-size: 12px; fill: rgb(42, 63, 95); fill-opacity: 1; white-space: pre; opacity: 1;" transform="translate(0,111.13)">$200k</text></g></g><g class="overaxes-above"/></g></g><g class="polarlayer"/><g class="smithlayer"/><g class="ternarylayer"/><g class="geolayer"/><g class="funnelarealayer"/><g class="pielayer"/><g class="iciclelayer"/><g class="treemaplayer"/><g class="sunburstlayer"/><g class="glimages"/><defs id="topdefs-292e01"><g class="clips"/></defs><g class="layer-above"><g class="imagelayer"/><g class="shapelayer"/></g><g class="infolayer"><g class="g-gtitle"><text class="gtitle" x="35" y="50" text-anchor="start" dy="0em" style="font-family: 'Open Sans', verdana, arial, sans-serif; font-size: 17px; fill: rgb(42, 63, 95); opacity: 1; font-weight: normal; white-space: pre;"><tspan class="line" dy="0em" x="35" y="50">Thales</tspan><tspan class="line" dy="1.3em" x="35" y="50">​<tspan style="font-size:70%" dy="-0.6em">Cumulative Net Dollar Flow since Program Announcement, Until Program End + 30 Days</tspan><tspan dy="0.42em">​</tspan></tspan></text></g><g class="g-xtitle"><text class="xtitle" x="350" y="460.8" text-anchor="middle" style="font-family: 'Open Sans', verdana, arial, sans-serif; font-size: 14px; fill: rgb(42, 63, 95); opacity: 1; font-weight: normal; white-space: pre;">Day</text></g><g class="g-ytitle"><text class="ytitle" transform="rotate(-90,14.496875000000003,260)" x="14.496875000000003" y="260" text-anchor="middle" style="font-family: 'Open Sans', verdana, arial, sans-serif; font-size: 14px; fill: rgb(42, 63, 95); opacity: 1; font-weight: normal; white-space: pre;">Cumulative Net Dollar Flow (N$F)</text></g></g></svg>