<svg class="main-svg" xmlns="http://www.w3.org/2000/svg" xmlns:xlink="http://www.w3.org/1999/xlink" width="700" height="500" style="" viewBox="0 0 700 500"><rect x="0" y="0" width="700" height="500" style="fill: rgb(255, 255, 255); fill-opacity: 1;"/><defs id="defs-f883c1"><g class="clips"><clipPath id="clipf883c1xyplot" class="plotclip"><rect width="540" height="320"/></clipPath><clipPath class="axesclip" id="clipf883c1x"><rect x="80" y="0" width="540" height="500"/></clipPath><clipPath class="axesclip" id="clipf883c1y"><rect x="0" y="100" width="700" height="320"/></clipPath><clipPath class="axesclip" id="clipf883c1xy"><rect x="80" y="100" width="540" height="320"/></clipPath></g><g class="gradients"/><g class="patterns"/></defs><g class="bglayer"><rect class="bg" x="80" y="100" width="540" height="320" style="fill: rgb(229, 236, 246); fill-opacity: 1; stroke-width: 0;"/></g><g class="layer-below"><g class="imagelayer"/><g class="shapelayer"/></g><g class="cartesianlayer"><g class="subplot xy"><g class="layer-subplot"><g class="shapelayer"/><g class="imagelayer"/></g><g class="minor-gridlayer"><g class="x"/><g class="y"/></g><g class="gridlayer"><g class="x"><path class="xgrid crisp" transform="translate(93.39,0)" d="M0,100v320" style="stroke: rgb(255, 255, 255); stroke-opacity: 1; stroke-width: 1px;"/><path class="xgrid crisp" transform="translate(227.27,0)" d="M0,100v320" style="stroke: rgb(255, 255, 255); stroke-opacity: 1; stroke-width: 1px;"/><path class="xgrid crisp" transform="translate(365.62,0)" d="M0,100v320" style="stroke: rgb(255, 255, 255); stroke-opacity: 1; stroke-width: 1px;"/><path class="xgrid crisp" transform="translate(499.5,0)" d="M0,100v320" style="stroke: rgb(255, 255, 255); stroke-opacity: 1; stroke-width: 1px;"/></g><g class="y"><path class="ygrid crisp" transform="translate(0,353.77)" d="M80,0h540" style="stroke: rgb(255, 255, 255); stroke-opacity: 1; stroke-width: 1px;"/><path class="ygrid crisp" transform="translate(0,287.55)" d="M80,0h540" style="stroke: rgb(255, 255, 255); stroke-opacity: 1; stroke-width: 1px;"/><path class="ygrid crisp" transform="translate(0,221.32)" d="M80,0h540" style="stroke: rgb(255, 255, 255); stroke-opacity: 1; stroke-width: 1px;"/><path class="ygrid crisp" transform="translate(0,155.1)" d="M80,0h540" style="stroke: rgb(255, 255, 255); stroke-opacity: 1; stroke-width: 1px;"/></g></g><g class="zerolinelayer"><path class="yzl zl crisp" transform="translate(0,420)" d="M80,0h540" style="stroke: rgb(255, 255, 255); stroke-opacity: 1; stroke-width: 2px;"/></g><path class="xlines-below"/><path class="ylines-below"/><g class="overlines-below"/><g class="xaxislayer-below"/><g class="yaxislayer-below"/><g class="overaxes-below"/><g class="plot" transform="translate(80,100)" clip-path="url(#clipf883c1xyplot)"><g class="scatterlayer mlayer"><g class="trace scatter trace43e6a9" style="stroke-miterlimit: 2;"><g class="fills"><g><path class="js-fill" d="M540,320L0,320L0,319.83L13.39,317.31L17.85,315.98L22.31,312.88L26.78,311.49L31.24,310.75L35.7,278.56L40.17,245.96L44.63,224.15L49.09,195.25L53.55,189.89L58.02,185.97L62.48,178.27L66.94,153.86L71.4,146.24L80.33,144.81L84.79,113.45L89.26,117.2L93.72,99.03L98.18,101.46L102.64,75.72L107.11,63.35L111.57,58.23L116.03,31.87L120.5,27.89L124.96,25.01L129.42,42.98L133.88,56.34L138.35,53.41L142.81,52.04L147.27,47.33L151.74,46.55L156.2,44.95L160.66,30.62L165.12,37.61L169.59,30.62L174.05,25.61L178.51,27.6L182.98,26.71L187.44,28.89L191.9,27.23L196.36,24.77L200.83,29.32L205.29,31.99L209.75,29.6L214.21,25.4L218.68,26.14L223.14,29.32L227.6,29.3L232.07,29.53L236.53,30.62L240.99,31.07L245.45,30.7L249.92,31.29L254.38,40.98L263.31,41.33L267.77,32.54L276.69,29.08L281.16,28.59L285.62,25.52L290.08,19.7L294.55,17.98L299.01,22.36L307.93,23.1L312.4,21.15L321.32,16L325.79,30.51L330.25,45.42L334.71,43.09L339.17,39.17L343.64,48.44L348.1,59.59L352.56,58.04L357.02,59.89L361.49,64.72L365.95,66.91L370.41,65.54L379.34,63.73L383.8,61.05L388.26,69.03L392.73,67.78L397.19,67.81L401.65,66.67L406.12,64.56L410.58,72.56L415.04,73.32L419.5,72.45L423.97,72.64L428.43,69.6L437.36,70.53L441.82,67.33L446.28,72.52L450.74,73.55L455.21,68.64L459.67,71.36L464.13,80.61L468.6,80.71L473.06,75.53L477.52,75.46L481.98,73.14L486.45,68.28L490.91,76.33L495.37,73.01L499.83,74.03L504.3,73.37L508.76,72.35L513.22,73.71L517.69,71.08L522.15,107.41L526.61,106.25L531.07,106.43L535.54,106.73L540,108.78" style="fill: rgb(99, 110, 250); fill-opacity: 0.5; stroke-width: 0;"/></g></g><g class="errorbars"/><g class="lines"><path class="js-line" d="M0,319.83L13.39,317.31L17.85,315.98L22.31,312.88L26.78,311.49L31.24,310.75L35.7,278.56L40.17,245.96L44.63,224.15L49.09,195.25L53.55,189.89L58.02,185.97L62.48,178.27L66.94,153.86L71.4,146.24L80.33,144.81L84.79,113.45L89.26,117.2L93.72,99.03L98.18,101.46L102.64,75.72L107.11,63.35L111.57,58.23L116.03,31.87L120.5,27.89L124.96,25.01L129.42,42.98L133.88,56.34L138.35,53.41L142.81,52.04L147.27,47.33L151.74,46.55L156.2,44.95L160.66,30.62L165.12,37.61L169.59,30.62L174.05,25.61L178.51,27.6L182.98,26.71L187.44,28.89L191.9,27.23L196.36,24.77L200.83,29.32L205.29,31.99L209.75,29.6L214.21,25.4L218.68,26.14L223.14,29.32L227.6,29.3L232.07,29.53L236.53,30.62L240.99,31.07L245.45,30.7L249.92,31.29L254.38,40.98L263.31,41.33L267.77,32.54L276.69,29.08L281.16,28.59L285.62,25.52L290.08,19.7L294.55,17.98L299.01,22.36L307.93,23.1L312.4,21.15L321.32,16L325.79,30.51L330.25,45.42L334.71,43.09L339.17,39.17L343.64,48.44L348.1,59.59L352.56,58.04L357.02,59.89L361.49,64.72L365.95,66.91L370.41,65.54L379.34,63.73L383.8,61.05L388.26,69.03L392.73,67.78L397.19,67.81L401.65,66.67L406.12,64.56L410.58,72.56L415.04,73.32L419.5,72.45L423.97,72.64L428.43,69.6L437.36,70.53L441.82,67.33L446.28,72.52L450.74,73.55L455.21,68.64L459.67,71.36L464.13,80.61L468.6,80.71L473.06,75.53L477.52,75.46L481.98,73.14L486.45,68.28L490.91,76.33L495.37,73.01L499.83,74.03L504.3,73.37L508.76,72.35L513.22,73.71L517.69,71.08L522.15,107.41L526.61,106.25L531.07,106.43L535.54,106.73L540,108.78" style="vector-effect: non-scaling-stroke; fill: none; stroke: rgb(99, 110, 250); stroke-opacity: 1; stroke-width: 2px; opacity: 1;"/></g><g class="points"/><g class="text"/></g></g></g><g class="overplot"/><path class="xlines-above crisp" d="M0,0" style="fill: none;"/><path class="ylines-above crisp" d="M0,0" style="fill: none;"/><g class="overlines-above"/><g class="xaxislayer-above"><g class="xtick"><text text-anchor="middle" x="0" y="433" transform="translate(93.39,0)" style="font-family: 'Open Sans', verdana, arial, sans-serif; font-size: 12px; fill: rgb(42, 63, 95); fill-opacity: 1; white-space: pre; opacity: 1;">Sep 2022</text></g><g class="xtick"><text text-anchor="middle" x="0" y="433" style="font-family: 'Open Sans', verdana, arial, sans-serif; font-size: 12px; fill: rgb(42, 63, 95); fill-opacity: 1; white-space: pre; opacity: 1;" transform="translate(227.27,0)">Oct 2022</text></g><g class="xtick"><text text-anchor="middle" x="0" y="433" style="font-family: 'Open Sans', verdana, arial, sans-serif; font-size: 12px; fill: rgb(42, 63, 95); fill-opacity: 1; white-space: pre; opacity: 1;" transform="translate(365.62,0)">Nov 2022</text></g><g class="xtick"><text text-anchor="middle" x="0" y="433" style="font-family: 'Open Sans', verdana, arial, sans-serif; font-size: 12px; fill: rgb(42, 63, 95); fill-opacity: 1; white-space: pre; opacity: 1;" transform="translate(499.5,0)">Dec 2022</text></g></g><g class="yaxislayer-above"><g class="ytick"><text text-anchor="end" x="79" y="4.199999999999999" transform="translate(0,420)" style="font-family: 'Open Sans', verdana, arial, sans-serif; font-size: 12px; fill: rgb(42, 63, 95); fill-opacity: 1; white-space: pre; opacity: 1;">$0</text></g><g class="ytick"><text text-anchor="end" x="79" y="4.199999999999999" style="font-family: 'Open Sans', verdana, arial, sans-serif; font-size: 12px; fill: rgb(42, 63, 95); fill-opacity: 1; white-space: pre; opacity: 1;" transform="translate(0,353.77)">$2M</text></g><g class="ytick"><text text-anchor="end" x="79" y="4.199999999999999" style="font-family: 'Open Sans', verdana, arial, sans-serif; font-size: 12px; fill: rgb(42, 63, 95); fill-opacity: 1; white-space: pre; opacity: 1;" transform="translate(0,287.55)">$4M</text></g><g class="ytick"><text text-anchor="end" x="79" y="4.199999999999999" style="font-family: 'Open Sans', verdana, arial, sans-serif; font-size: 12px; fill: rgb(42, 63, 95); fill-opacity: 1; white-space: pre; opacity: 1;" transform="translate(0,221.32)">$6M</text></g><g class="ytick"><text text-anchor="end" x="79" y="4.199999999999999" style="font-family: 'Open Sans', verdana, arial, sans-serif; font-size: 12px; fill: rgb(42, 63, 95); fill-opacity: 1; white-space: pre; opacity: 1;" transform="translate(0,155.1)">$8M</text></g></g><g class="overaxes-above"/></g></g><g class="polarlayer"/><g class="smithlayer"/><g class="ternarylayer"/><g class="geolayer"/><g class="funnelarealayer"/><g class="pielayer"/><g class="iciclelayer"/><g class="treemaplayer"/><g class="sunburstlayer"/><g class="glimages"/><defs id="topdefs-f883c1"><g class="clips"/></defs><g class="layer-above"><g class="imagelayer"/><g class="shapelayer"/></g><g class="infolayer"><g class="g-gtitle"><text class="gtitle" x="35" y="50" text-anchor="start" dy="0em" style="font-family: 'Open Sans', verdana, arial, sans-serif; font-size: 17px; fill: rgb(42, 63, 95); opacity: 1; font-weight: normal; white-space: pre;"><tspan class="line" dy="0em" x="35" y="50">Pika Protocol</tspan><tspan class="line" dy="1.3em" x="35" y="50">​<tspan style="font-size:70%" dy="-0.6em">Cumulative Net Dollar Flow since Program Announcement, Until Program End + 30 Days</tspan><tspan dy="0.42em">​</tspan></tspan></text></g><g class="g-xtitle"><text class="xtitle" x="350" y="460.8" text-anchor="middle" style="font-family: 'Open Sans', verdana, arial, sans-serif; font-size: 14px; fill: rgb(42, 63, 95); opacity: 1; font-weight: normal; white-space: pre;">Day</text></g><g class="g-ytitle"><text class="ytitle" transform="rotate(-90,30.856250000000003,260)" x="30.856250000000003" y="260" text-anchor="middle" style="font-family: 'Open Sans', verdana, arial, sans-serif; font-size: 14px; fill: rgb(42, 63, 95); opacity: 1; font-weight: normal; white-space: pre;">Cumulative Net Dollar Flow (N$F)</text></g></g></svg>