<svg class="main-svg" xmlns="http://www.w3.org/2000/svg" xmlns:xlink="http://www.w3.org/1999/xlink" width="700" height="500" style="" viewBox="0 0 700 500"><rect x="0" y="0" width="700" height="500" style="fill: rgb(255, 255, 255); fill-opacity: 1;"/><defs id="defs-c3cc61"><g class="clips"><clipPath id="clipc3cc61xyplot" class="plotclip"><rect width="540" height="320"/></clipPath><clipPath class="axesclip" id="clipc3cc61x"><rect x="80" y="0" width="540" height="500"/></clipPath><clipPath class="axesclip" id="clipc3cc61y"><rect x="0" y="100" width="700" height="320"/></clipPath><clipPath class="axesclip" id="clipc3cc61xy"><rect x="80" y="100" width="540" height="320"/></clipPath></g><g class="gradients"/><g class="patterns"/></defs><g class="bglayer"><rect class="bg" x="80" y="100" width="540" height="320" style="fill: rgb(229, 236, 246); fill-opacity: 1; stroke-width: 0;"/></g><g class="layer-below"><g class="imagelayer"/><g class="shapelayer"/></g><g class="cartesianlayer"><g class="subplot xy"><g class="layer-subplot"><g class="shapelayer"/><g class="imagelayer"/></g><g class="minor-gridlayer"><g class="x"/><g class="y"/></g><g class="gridlayer"><g class="x"><path class="xgrid crisp" transform="translate(136.37,0)" d="M0,100v320" style="stroke: rgb(255, 255, 255); stroke-opacity: 1; stroke-width: 1px;"/><path class="xgrid crisp" transform="translate(225.38,0)" d="M0,100v320" style="stroke: rgb(255, 255, 255); stroke-opacity: 1; stroke-width: 1px;"/><path class="xgrid crisp" transform="translate(317.36,0)" d="M0,100v320" style="stroke: rgb(255, 255, 255); stroke-opacity: 1; stroke-width: 1px;"/><path class="xgrid crisp" transform="translate(406.37,0)" d="M0,100v320" style="stroke: rgb(255, 255, 255); stroke-opacity: 1; stroke-width: 1px;"/><path class="xgrid crisp" transform="translate(498.35,0)" d="M0,100v320" style="stroke: rgb(255, 255, 255); stroke-opacity: 1; stroke-width: 1px;"/><path class="xgrid crisp" transform="translate(590.3299999999999,0)" d="M0,100v320" style="stroke: rgb(255, 255, 255); stroke-opacity: 1; stroke-width: 1px;"/></g><g class="y"><path class="ygrid crisp" transform="translate(0,408.39)" d="M80,0h540" style="stroke: rgb(255, 255, 255); stroke-opacity: 1; stroke-width: 1px;"/><path class="ygrid crisp" transform="translate(0,362.54)" d="M80,0h540" style="stroke: rgb(255, 255, 255); stroke-opacity: 1; stroke-width: 1px;"/><path class="ygrid crisp" transform="translate(0,316.69)" d="M80,0h540" style="stroke: rgb(255, 255, 255); stroke-opacity: 1; stroke-width: 1px;"/><path class="ygrid crisp" transform="translate(0,270.84000000000003)" d="M80,0h540" style="stroke: rgb(255, 255, 255); stroke-opacity: 1; stroke-width: 1px;"/><path class="ygrid crisp" transform="translate(0,224.99)" d="M80,0h540" style="stroke: rgb(255, 255, 255); stroke-opacity: 1; stroke-width: 1px;"/><path class="ygrid crisp" transform="translate(0,133.29)" d="M80,0h540" style="stroke: rgb(255, 255, 255); stroke-opacity: 1; stroke-width: 1px;"/></g></g><g class="zerolinelayer"><path class="yzl zl crisp" transform="translate(0,179.14)" d="M80,0h540" style="stroke: rgb(255, 255, 255); stroke-opacity: 1; stroke-width: 2px;"/></g><path class="xlines-below"/><path class="ylines-below"/><g class="overlines-below"/><g class="xaxislayer-below"/><g class="yaxislayer-below"/><g class="overaxes-below"/><g class="plot" transform="translate(80,100)" clip-path="url(#clipc3cc61xyplot)"><g class="scatterlayer mlayer"><g class="trace scatter tracec657d2" style="stroke-miterlimit: 2;"><g class="fills"><g><path class="js-fill" d="M540,79.14L0,79.14L0,108.23L2.97,122.94L5.93,122.58L8.9,123.98L11.87,131.63L14.84,133.33L17.8,34.53L20.77,157L23.74,148.35L26.7,154.84L29.67,154.3L32.64,158.22L35.6,160.2L38.57,147.85L41.54,154.03L44.51,157.86L47.47,159.87L50.44,139.52L53.41,133.04L56.37,131.24L59.34,145.25L62.31,142.87L65.27,138.29L68.24,136.73L71.21,140.93L74.18,139.78L77.14,131.65L80.11,124.73L83.08,106.15L86.04,100.25L89.01,98.46L91.98,125.44L94.95,114.31L97.91,109.93L100.88,131.1L103.85,135.19L106.81,135.15L109.78,137.09L112.75,138.13L115.71,140.95L118.68,144.91L121.65,158.09L124.62,159.06L130.55,155.16L133.52,161.88L136.48,159.77L139.45,163.71L142.42,165.28L145.38,169.07L148.35,170.86L151.32,185.14L154.29,187.55L157.25,181.43L160.22,186.36L163.19,186.69L166.15,181.73L169.12,194.12L172.09,190.9L175.05,195.76L178.02,191.33L180.99,191.56L183.96,206.76L186.92,204.29L189.89,205.71L192.86,208.23L198.79,207.2L201.76,202.4L204.73,203.45L207.69,202.67L213.63,202.6L216.59,203.48L219.56,193.8L222.53,187.37L231.43,179.25L234.4,180.18L237.36,176.65L240.33,180.19L243.3,151L246.26,161.06L249.23,172.02L252.2,170.17L255.16,170.37L258.13,157.1L261.1,173.49L264.07,227.87L267.03,186.05L270,181.01L272.97,182.61L275.93,189.73L278.9,198.22L281.87,175.1L284.84,133L287.8,165.28L290.77,144.73L293.74,132.54L299.67,154.03L302.64,175.18L305.6,186.81L308.57,217.59L311.54,220.35L314.51,192.36L317.47,199.83L320.44,200.75L323.41,195.77L326.37,183.24L329.34,191.08L332.31,231.48L335.27,216.27L338.24,183.28L341.21,194.4L344.18,186.14L347.14,196.88L350.11,189.29L353.08,202.17L356.04,187.61L359.01,223.62L361.98,203.79L364.95,227.04L367.91,211.92L370.88,203.48L373.85,184.65L376.81,196.35L379.78,188.01L382.75,205.57L385.71,165.67L388.68,121.09L391.65,175.2L394.62,136.34L397.58,138.93L400.55,145.14L403.52,142.23L406.48,176.01L409.45,170.27L412.42,68.85L415.38,108.22L418.35,81.25L421.32,100.45L427.25,96.86L430.22,94.73L433.19,102.22L436.15,104.5L439.12,101.81L442.09,112.1L445.05,112.24L448.02,110.47L450.99,123.27L453.96,132.56L456.92,103.35L459.89,92.95L462.86,90.64L465.82,107.04L468.79,107.33L471.76,100.66L474.73,121.01L477.69,132.67L480.66,110.3L483.63,99.21L486.59,97.9L489.56,108.59L492.53,103.17L495.49,114.07L498.46,88.52L501.43,74.76L504.4,97.21L507.36,105.18L510.33,83.86L513.3,83.86L516.26,126.98L519.23,129.35L522.2,147.24L525.16,128.3L528.13,131.2L531.1,94.27L534.07,37.98L537.03,77.03L540,16L540,304" style="fill: rgb(99, 110, 250); fill-opacity: 0.5; stroke-width: 0;"/></g></g><g class="errorbars"/><g class="lines"><path class="js-line" d="M0,108.23L2.97,122.94L5.93,122.58L8.9,123.98L11.87,131.63L14.84,133.33L17.8,34.53L20.77,157L23.74,148.35L26.7,154.84L29.67,154.3L32.64,158.22L35.6,160.2L38.57,147.85L41.54,154.03L44.51,157.86L47.47,159.87L50.44,139.52L53.41,133.04L56.37,131.24L59.34,145.25L62.31,142.87L65.27,138.29L68.24,136.73L71.21,140.93L74.18,139.78L77.14,131.65L80.11,124.73L83.08,106.15L86.04,100.25L89.01,98.46L91.98,125.44L94.95,114.31L97.91,109.93L100.88,131.1L103.85,135.19L106.81,135.15L109.78,137.09L112.75,138.13L115.71,140.95L118.68,144.91L121.65,158.09L124.62,159.06L130.55,155.16L133.52,161.88L136.48,159.77L139.45,163.71L142.42,165.28L145.38,169.07L148.35,170.86L151.32,185.14L154.29,187.55L157.25,181.43L160.22,186.36L163.19,186.69L166.15,181.73L169.12,194.12L172.09,190.9L175.05,195.76L178.02,191.33L180.99,191.56L183.96,206.76L186.92,204.29L189.89,205.71L192.86,208.23L198.79,207.2L201.76,202.4L204.73,203.45L207.69,202.67L213.63,202.6L216.59,203.48L219.56,193.8L222.53,187.37L231.43,179.25L234.4,180.18L237.36,176.65L240.33,180.19L243.3,151L246.26,161.06L249.23,172.02L252.2,170.17L255.16,170.37L258.13,157.1L261.1,173.49L264.07,227.87L267.03,186.05L270,181.01L272.97,182.61L275.93,189.73L278.9,198.22L281.87,175.1L284.84,133L287.8,165.28L290.77,144.73L293.74,132.54L299.67,154.03L302.64,175.18L305.6,186.81L308.57,217.59L311.54,220.35L314.51,192.36L317.47,199.83L320.44,200.75L323.41,195.77L326.37,183.24L329.34,191.08L332.31,231.48L335.27,216.27L338.24,183.28L341.21,194.4L344.18,186.14L347.14,196.88L350.11,189.29L353.08,202.17L356.04,187.61L359.01,223.62L361.98,203.79L364.95,227.04L367.91,211.92L370.88,203.48L373.85,184.65L376.81,196.35L379.78,188.01L382.75,205.57L385.71,165.67L388.68,121.09L391.65,175.2L394.62,136.34L397.58,138.93L400.55,145.14L403.52,142.23L406.48,176.01L409.45,170.27L412.42,68.85L415.38,108.22L418.35,81.25L421.32,100.45L427.25,96.86L430.22,94.73L433.19,102.22L436.15,104.5L439.12,101.81L442.09,112.1L445.05,112.24L448.02,110.47L450.99,123.27L453.96,132.56L456.92,103.35L459.89,92.95L462.86,90.64L465.82,107.04L468.79,107.33L471.76,100.66L474.73,121.01L477.69,132.67L480.66,110.3L483.63,99.21L486.59,97.9L489.56,108.59L492.53,103.17L495.49,114.07L498.46,88.52L501.43,74.76L504.4,97.21L507.36,105.18L510.33,83.86L513.3,83.86L516.26,126.98L519.23,129.35L522.2,147.24L525.16,128.3L528.13,131.2L531.1,94.27L534.07,37.98L537.03,77.03L540,16L540,304" style="vector-effect: non-scaling-stroke; fill: none; stroke: rgb(99, 110, 250); stroke-opacity: 1; stroke-width: 2px; opacity: 1;"/></g><g class="points"/><g class="text"/></g></g></g><g class="overplot"/><path class="xlines-above crisp" d="M0,0" style="fill: none;"/><path class="ylines-above crisp" d="M0,0" style="fill: none;"/><g class="overlines-above"/><g class="xaxislayer-above"><g class="xtick"><text text-anchor="middle" x="0" y="433" transform="translate(136.37,0)" style="font-family: 'Open Sans', verdana, arial, sans-serif; font-size: 12px; fill: rgb(42, 63, 95); fill-opacity: 1; white-space: pre; opacity: 1;">Sep 2022</text></g><g class="xtick"><text text-anchor="middle" x="0" y="433" style="font-family: 'Open Sans', verdana, arial, sans-serif; font-size: 12px; fill: rgb(42, 63, 95); fill-opacity: 1; white-space: pre; opacity: 1;" transform="translate(225.38,0)">Oct 2022</text></g><g class="xtick"><text text-anchor="middle" x="0" y="433" style="font-family: 'Open Sans', verdana, arial, sans-serif; font-size: 12px; fill: rgb(42, 63, 95); fill-opacity: 1; white-space: pre; opacity: 1;" transform="translate(317.36,0)">Nov 2022</text></g><g class="xtick"><text text-anchor="middle" x="0" y="433" style="font-family: 'Open Sans', verdana, arial, sans-serif; font-size: 12px; fill: rgb(42, 63, 95); fill-opacity: 1; white-space: pre; opacity: 1;" transform="translate(406.37,0)">Dec 2022</text></g><g class="xtick"><text text-anchor="middle" x="0" y="433" style="font-family: 'Open Sans', verdana, arial, sans-serif; font-size: 12px; fill: rgb(42, 63, 95); fill-opacity: 1; white-space: pre; opacity: 1;" transform="translate(498.35,0)">Jan 2023</text></g><g class="xtick"><text text-anchor="middle" x="0" y="433" style="font-family: 'Open Sans', verdana, arial, sans-serif; font-size: 12px; fill: rgb(42, 63, 95); fill-opacity: 1; white-space: pre; opacity: 1;" transform="translate(590.3299999999999,0)">Feb 2023</text></g></g><g class="yaxislayer-above"><g class="ytick"><text text-anchor="end" x="79" y="4.199999999999999" transform="translate(0,408.39)" style="font-family: 'Open Sans', verdana, arial, sans-serif; font-size: 12px; fill: rgb(42, 63, 95); fill-opacity: 1; white-space: pre; opacity: 1;">$−10M</text></g><g class="ytick"><text text-anchor="end" x="79" y="4.199999999999999" style="font-family: 'Open Sans', verdana, arial, sans-serif; font-size: 12px; fill: rgb(42, 63, 95); fill-opacity: 1; white-space: pre; opacity: 1;" transform="translate(0,362.54)">$−8M</text></g><g class="ytick"><text text-anchor="end" x="79" y="4.199999999999999" style="font-family: 'Open Sans', verdana, arial, sans-serif; font-size: 12px; fill: rgb(42, 63, 95); fill-opacity: 1; white-space: pre; opacity: 1;" transform="translate(0,316.69)">$−6M</text></g><g class="ytick"><text text-anchor="end" x="79" y="4.199999999999999" style="font-family: 'Open Sans', verdana, arial, sans-serif; font-size: 12px; fill: rgb(42, 63, 95); fill-opacity: 1; white-space: pre; opacity: 1;" transform="translate(0,270.84000000000003)">$−4M</text></g><g class="ytick"><text text-anchor="end" x="79" y="4.199999999999999" style="font-family: 'Open Sans', verdana, arial, sans-serif; font-size: 12px; fill: rgb(42, 63, 95); fill-opacity: 1; white-space: pre; opacity: 1;" transform="translate(0,224.99)">$−2M</text></g><g class="ytick"><text text-anchor="end" x="79" y="4.199999999999999" style="font-family: 'Open Sans', verdana, arial, sans-serif; font-size: 12px; fill: rgb(42, 63, 95); fill-opacity: 1; white-space: pre; opacity: 1;" transform="translate(0,179.14)">$0</text></g><g class="ytick"><text text-anchor="end" x="79" y="4.199999999999999" style="font-family: 'Open Sans', verdana, arial, sans-serif; font-size: 12px; fill: rgb(42, 63, 95); fill-opacity: 1; white-space: pre; opacity: 1;" transform="translate(0,133.29)">$2M</text></g></g><g class="overaxes-above"/></g></g><g class="polarlayer"/><g class="smithlayer"/><g class="ternarylayer"/><g class="geolayer"/><g class="funnelarealayer"/><g class="pielayer"/><g class="iciclelayer"/><g class="treemaplayer"/><g class="sunburstlayer"/><g class="glimages"/><defs id="topdefs-c3cc61"><g class="clips"/></defs><g class="layer-above"><g class="imagelayer"/><g class="shapelayer"/></g><g class="infolayer"><g class="g-gtitle"><text class="gtitle" x="35" y="50" text-anchor="start" dy="0em" style="font-family: 'Open Sans', verdana, arial, sans-serif; font-size: 17px; fill: rgb(42, 63, 95); opacity: 1; font-weight: normal; white-space: pre;"><tspan class="line" dy="0em" x="35" y="50">Cbridge - Celer*</tspan><tspan class="line" dy="1.3em" x="35" y="50">​<tspan style="font-size:70%" dy="-0.6em">Cumulative Net Flows since Program Announcement, Until Program End + 30 Days</tspan><tspan dy="0.42em">​</tspan></tspan></text></g><g class="g-xtitle"><text class="xtitle" x="350" y="460.8" text-anchor="middle" style="font-family: 'Open Sans', verdana, arial, sans-serif; font-size: 14px; fill: rgb(42, 63, 95); opacity: 1; font-weight: normal; white-space: pre;">Day</text></g><g class="g-ytitle"><text class="ytitle" transform="rotate(-90,17.168750000000003,260)" x="17.168750000000003" y="260" text-anchor="middle" style="font-family: 'Open Sans', verdana, arial, sans-serif; font-size: 14px; fill: rgb(42, 63, 95); opacity: 1; font-weight: normal; white-space: pre;">Cumulative Net Flows (USD)</text></g></g></svg>