<svg class="main-svg" xmlns="http://www.w3.org/2000/svg" xmlns:xlink="http://www.w3.org/1999/xlink" width="700" height="500" style="" viewBox="0 0 700 500"><rect x="0" y="0" width="700" height="500" style="fill: rgb(255, 255, 255); fill-opacity: 1;"/><defs id="defs-76a46a"><g class="clips"><clipPath id="clip76a46axyplot" class="plotclip"><rect width="458" height="320"/></clipPath><clipPath class="axesclip" id="clip76a46ax"><rect x="80" y="0" width="458" height="500"/></clipPath><clipPath class="axesclip" id="clip76a46ay"><rect x="0" y="100" width="700" height="320"/></clipPath><clipPath class="axesclip" id="clip76a46axy"><rect x="80" y="100" width="458" height="320"/></clipPath></g><g class="gradients"/><g class="patterns"/></defs><g class="bglayer"><rect class="bg" x="80" y="100" width="458" height="320" style="fill: rgb(229, 236, 246); fill-opacity: 1; stroke-width: 0;"/></g><g class="layer-below"><g class="imagelayer"/><g class="shapelayer"/></g><g class="cartesianlayer"><g class="subplot xy"><g class="layer-subplot"><g class="shapelayer"/><g class="imagelayer"/></g><g class="minor-gridlayer"><g class="x"/><g class="y"/></g><g class="gridlayer"><g class="x"><path class="xgrid crisp" transform="translate(139.2,0)" d="M0,100v320" style="stroke: rgb(255, 255, 255); stroke-opacity: 1; stroke-width: 1px;"/><path class="xgrid crisp" transform="translate(235.78,0)" d="M0,100v320" style="stroke: rgb(255, 255, 255); stroke-opacity: 1; stroke-width: 1px;"/><path class="xgrid crisp" transform="translate(329.25,0)" d="M0,100v320" style="stroke: rgb(255, 255, 255); stroke-opacity: 1; stroke-width: 1px;"/><path class="xgrid crisp" transform="translate(425.84,0)" d="M0,100v320" style="stroke: rgb(255, 255, 255); stroke-opacity: 1; stroke-width: 1px;"/><path class="xgrid crisp" transform="translate(519.31,0)" d="M0,100v320" style="stroke: rgb(255, 255, 255); stroke-opacity: 1; stroke-width: 1px;"/></g><g class="y"><path class="ygrid crisp" transform="translate(0,358.89)" d="M80,0h458" style="stroke: rgb(255, 255, 255); stroke-opacity: 1; stroke-width: 1px;"/><path class="ygrid crisp" transform="translate(0,297.78)" d="M80,0h458" style="stroke: rgb(255, 255, 255); stroke-opacity: 1; stroke-width: 1px;"/><path class="ygrid crisp" transform="translate(0,236.67)" d="M80,0h458" style="stroke: rgb(255, 255, 255); stroke-opacity: 1; stroke-width: 1px;"/><path class="ygrid crisp" transform="translate(0,175.56)" d="M80,0h458" style="stroke: rgb(255, 255, 255); stroke-opacity: 1; stroke-width: 1px;"/><path class="ygrid crisp" transform="translate(0,114.45)" d="M80,0h458" style="stroke: rgb(255, 255, 255); stroke-opacity: 1; stroke-width: 1px;"/></g></g><g class="zerolinelayer"><path class="yzl zl crisp" transform="translate(0,420)" d="M80,0h458" style="stroke: rgb(255, 255, 255); stroke-opacity: 1; stroke-width: 2px;"/></g><path class="xlines-below"/><path class="ylines-below"/><g class="overlines-below"/><g class="xaxislayer-below"/><g class="yaxislayer-below"/><g class="overaxes-below"/><g class="plot" transform="translate(80,100)" clip-path="url(#clip76a46axyplot)"><g class="scatterlayer mlayer"><g class="trace scatter trace9dec32" style="stroke-miterlimit: 2;"><g class="fills"><g><path class="js-fill" d="M395.69,320L0,320L0,318.71L3.12,314.82L6.23,299.1L9.35,285.02L12.46,249.8L15.58,240.97L18.69,220.45L21.81,208.04L24.93,187.14L28.04,181.81L31.16,173.87L34.27,168.18L37.39,160.89L40.5,147.82L43.62,139.25L46.73,105.22L49.85,93.82L56.08,22.34L59.2,17.17L62.31,16L65.43,28.7L68.54,27.3L71.66,57.18L74.78,39.99L77.89,44.68L81.01,51.42L84.12,50.33L90.35,70.95L93.47,102.97L99.7,147.58L102.82,159.66L105.93,181.4L109.05,185.7L112.16,193.66L115.28,182.24L118.39,184.95L121.51,197.71L124.63,198.28L127.74,197.23L130.86,197.34L133.97,193.35L137.09,199.13L140.2,199.8L143.32,199.4L146.44,200.19L152.67,208.47L158.9,208.86L162.01,213.28L165.13,212.48L168.24,213.28L171.36,223.28L174.48,224.14L177.59,221.14L180.71,227.81L183.82,230.29L193.17,232.94L196.29,241.52L199.4,251.36L202.52,250.93L205.63,246.48L208.75,238.74L214.98,241.41L218.1,240.79L224.33,242.65L227.44,241.64L233.67,242.24L236.79,239.75L239.9,241.31L243.02,241.03L246.14,241.12L249.25,240.31L258.6,238.75L261.71,237.67L264.83,234.98L267.95,216.92L271.06,225.83L274.18,221.44L277.29,202.4L280.41,197.69L283.52,198.31L286.64,207.76L289.76,175.91L292.87,169.98L295.99,169.66L299.1,167.28L302.22,164.26L305.33,156.36L308.45,155.99L311.56,162.96L314.68,173.56L317.8,175.82L320.91,177.54L324.03,176.98L327.14,177.67L330.26,179.17L333.37,179.9L336.49,170.69L339.61,165.47L342.72,165.59L348.95,165.57L352.07,165L355.18,165.66L358.3,164.32L364.53,165.12L367.65,167.9L370.76,195.4L373.88,205.87L376.99,216.25L380.11,217.94L383.22,221.13L386.34,221.11L389.46,229.03L392.57,225.58L395.69,219.38" style="fill: rgb(99, 110, 250); fill-opacity: 0.5; stroke-width: 0;"/></g></g><g class="errorbars"/><g class="lines"><path class="js-line" d="M0,318.71L3.12,314.82L6.23,299.1L9.35,285.02L12.46,249.8L15.58,240.97L18.69,220.45L21.81,208.04L24.93,187.14L28.04,181.81L31.16,173.87L34.27,168.18L37.39,160.89L40.5,147.82L43.62,139.25L46.73,105.22L49.85,93.82L56.08,22.34L59.2,17.17L62.31,16L65.43,28.7L68.54,27.3L71.66,57.18L74.78,39.99L77.89,44.68L81.01,51.42L84.12,50.33L90.35,70.95L93.47,102.97L99.7,147.58L102.82,159.66L105.93,181.4L109.05,185.7L112.16,193.66L115.28,182.24L118.39,184.95L121.51,197.71L124.63,198.28L127.74,197.23L130.86,197.34L133.97,193.35L137.09,199.13L140.2,199.8L143.32,199.4L146.44,200.19L152.67,208.47" style="vector-effect: non-scaling-stroke; fill: none; stroke: rgb(99, 110, 250); stroke-opacity: 1; stroke-width: 2px; opacity: 1;"/><path class="js-line" d="M158.9,208.86L162.01,213.28L165.13,212.48L168.24,213.28L171.36,223.28L174.48,224.14L177.59,221.14L180.71,227.81L183.82,230.29L193.17,232.94L196.29,241.52L199.4,251.36L202.52,250.93L205.63,246.48L208.75,238.74L214.98,241.41L218.1,240.79L224.33,242.65L227.44,241.64L233.67,242.24L236.79,239.75L239.9,241.31L243.02,241.03L246.14,241.12L249.25,240.31L258.6,238.75L261.71,237.67L264.83,234.98L267.95,216.92L271.06,225.83L274.18,221.44L277.29,202.4L280.41,197.69L283.52,198.31L286.64,207.76L289.76,175.91L292.87,169.98L295.99,169.66L299.1,167.28L302.22,164.26L305.33,156.36L308.45,155.99L311.56,162.96L314.68,173.56L317.8,175.82L320.91,177.54L324.03,176.98L327.14,177.67L330.26,179.17L333.37,179.9L336.49,170.69L339.61,165.47L342.72,165.59L348.95,165.57L352.07,165L355.18,165.66L358.3,164.32L364.53,165.12L367.65,167.9L370.76,195.4L373.88,205.87L376.99,216.25L380.11,217.94L383.22,221.13L386.34,221.11L389.46,229.03L392.57,225.58L395.69,219.38" style="vector-effect: non-scaling-stroke; fill: none; stroke: rgb(99, 110, 250); stroke-opacity: 1; stroke-width: 2px; opacity: 1;"/></g><g class="points"/><g class="text"/></g><g class="trace scatter trace6228e8" style="stroke-miterlimit: 2;"><g class="fills"><g><path class="js-fill" d="M458,320L398.8,320L398.8,214.76L405.03,212.65L408.15,213.44L411.27,213.9L414.38,211.84L417.5,208.62L420.61,208.07L426.84,202.8L429.96,204.14L436.19,206.41L439.31,205.72L442.42,204.46L445.54,200.04L448.65,196.46L451.77,195.24L454.88,194.89L458,189.57" style="fill: rgb(239, 85, 59); fill-opacity: 0.5; stroke-width: 0;"/></g></g><g class="errorbars"/><g class="lines"><path class="js-line" d="M398.8,214.76L405.03,212.65L408.15,213.44L411.27,213.9L414.38,211.84L417.5,208.62L420.61,208.07L426.84,202.8L429.96,204.14L436.19,206.41L439.31,205.72L442.42,204.46L445.54,200.04L448.65,196.46L451.77,195.24L454.88,194.89L458,189.57" style="vector-effect: non-scaling-stroke; fill: none; stroke: rgb(239, 85, 59); stroke-opacity: 1; stroke-width: 2px; opacity: 1;"/></g><g class="points"/><g class="text"/></g></g></g><g class="overplot"/><path class="xlines-above crisp" d="M0,0" style="fill: none;"/><path class="ylines-above crisp" d="M0,0" style="fill: none;"/><g class="overlines-above"/><g class="xaxislayer-above"><g class="xtick"><text text-anchor="middle" x="0" y="433" transform="translate(139.2,0)" style="font-family: 'Open Sans', verdana, arial, sans-serif; font-size: 12px; fill: rgb(42, 63, 95); fill-opacity: 1; white-space: pre; opacity: 1;">Aug 2022</text></g><g class="xtick"><text text-anchor="middle" x="0" y="433" style="font-family: 'Open Sans', verdana, arial, sans-serif; font-size: 12px; fill: rgb(42, 63, 95); fill-opacity: 1; white-space: pre; opacity: 1;" transform="translate(235.78,0)">Sep 2022</text></g><g class="xtick"><text text-anchor="middle" x="0" y="433" style="font-family: 'Open Sans', verdana, arial, sans-serif; font-size: 12px; fill: rgb(42, 63, 95); fill-opacity: 1; white-space: pre; opacity: 1;" transform="translate(329.25,0)">Oct 2022</text></g><g class="xtick"><text text-anchor="middle" x="0" y="433" style="font-family: 'Open Sans', verdana, arial, sans-serif; font-size: 12px; fill: rgb(42, 63, 95); fill-opacity: 1; white-space: pre; opacity: 1;" transform="translate(425.84,0)">Nov 2022</text></g><g class="xtick"><text text-anchor="middle" x="0" y="433" style="font-family: 'Open Sans', verdana, arial, sans-serif; font-size: 12px; fill: rgb(42, 63, 95); fill-opacity: 1; white-space: pre; opacity: 1;" transform="translate(519.31,0)">Dec 2022</text></g></g><g class="yaxislayer-above"><g class="ytick"><text text-anchor="end" x="79" y="4.199999999999999" transform="translate(0,420)" style="font-family: 'Open Sans', verdana, arial, sans-serif; font-size: 12px; fill: rgb(42, 63, 95); fill-opacity: 1; white-space: pre; opacity: 1;">$0</text></g><g class="ytick"><text text-anchor="end" x="79" y="4.199999999999999" style="font-family: 'Open Sans', verdana, arial, sans-serif; font-size: 12px; fill: rgb(42, 63, 95); fill-opacity: 1; white-space: pre; opacity: 1;" transform="translate(0,358.89)">$20M</text></g><g class="ytick"><text text-anchor="end" x="79" y="4.199999999999999" style="font-family: 'Open Sans', verdana, arial, sans-serif; font-size: 12px; fill: rgb(42, 63, 95); fill-opacity: 1; white-space: pre; opacity: 1;" transform="translate(0,297.78)">$40M</text></g><g class="ytick"><text text-anchor="end" x="79" y="4.199999999999999" style="font-family: 'Open Sans', verdana, arial, sans-serif; font-size: 12px; fill: rgb(42, 63, 95); fill-opacity: 1; white-space: pre; opacity: 1;" transform="translate(0,236.67)">$60M</text></g><g class="ytick"><text text-anchor="end" x="79" y="4.199999999999999" style="font-family: 'Open Sans', verdana, arial, sans-serif; font-size: 12px; fill: rgb(42, 63, 95); fill-opacity: 1; white-space: pre; opacity: 1;" transform="translate(0,175.56)">$80M</text></g><g class="ytick"><text text-anchor="end" x="79" y="4.199999999999999" style="font-family: 'Open Sans', verdana, arial, sans-serif; font-size: 12px; fill: rgb(42, 63, 95); fill-opacity: 1; white-space: pre; opacity: 1;" transform="translate(0,114.45)">$100M</text></g></g><g class="overaxes-above"/></g></g><g class="polarlayer"/><g class="smithlayer"/><g class="ternarylayer"/><g class="geolayer"/><g class="funnelarealayer"/><g class="pielayer"/><g class="iciclelayer"/><g class="treemaplayer"/><g class="sunburstlayer"/><g class="glimages"/><defs id="topdefs-76a46a"><g class="clips"/><clipPath id="legend76a46a"><rect width="141" height="67" x="0" y="0"/></clipPath></defs><g class="layer-above"><g class="imagelayer"/><g class="shapelayer"/></g><g class="infolayer"><g class="legend" pointer-events="all" transform="translate(547.1600000000001,100)"><rect class="bg" shape-rendering="crispEdges" style="stroke: rgb(68, 68, 68); stroke-opacity: 1; fill: rgb(255, 255, 255); fill-opacity: 1; stroke-width: 0px;" width="141" height="67" x="0" y="0"/><g class="scrollbox" transform="" clip-path="url(#legend76a46a)"><text class="legendtitletext" text-anchor="start" x="2" y="18.2" style="font-family: 'Open Sans', verdana, arial, sans-serif; font-size: 14px; fill: rgb(42, 63, 95); fill-opacity: 1; white-space: pre;">Period</text><g class="groups"><g class="traces" transform="translate(0,32.7)" style="opacity: 1;"><text class="legendtext" text-anchor="start" x="40" y="4.680000000000001" style="font-family: 'Open Sans', verdana, arial, sans-serif; font-size: 12px; fill: rgb(42, 63, 95); fill-opacity: 1; white-space: pre;">During Program</text><g class="layers"><g class="legendfill"><path class="js-fill" d="M5,-2h30v6h-30z" style="stroke-width: 0; fill: rgb(99, 110, 250); fill-opacity: 0.5;"/></g><g class="legendlines"><path class="js-line" d="M5,-2h30" style="fill: none; stroke: rgb(99, 110, 250); stroke-opacity: 1; stroke-width: 2px;"/></g><g class="legendsymbols"><g class="legendpoints"/></g></g><rect class="legendtoggle" x="0" y="-9.5" width="135.671875" height="19" style="fill: rgb(0, 0, 0); fill-opacity: 0;"/></g><g class="traces" transform="translate(0,51.7)" style="opacity: 1;"><text class="legendtext" text-anchor="start" x="40" y="4.680000000000001" style="font-family: 'Open Sans', verdana, arial, sans-serif; font-size: 12px; fill: rgb(42, 63, 95); fill-opacity: 1; white-space: pre;">Post-Program</text><g class="layers"><g class="legendfill"><path class="js-fill" d="M5,-2h30v6h-30z" style="stroke-width: 0; fill: rgb(239, 85, 59); fill-opacity: 0.5;"/></g><g class="legendlines"><path class="js-line" d="M5,-2h30" style="fill: none; stroke: rgb(239, 85, 59); stroke-opacity: 1; stroke-width: 2px;"/></g><g class="legendsymbols"><g class="legendpoints"/></g></g><rect class="legendtoggle" x="0" y="-9.5" width="135.671875" height="19" style="fill: rgb(0, 0, 0); fill-opacity: 0;"/></g></g></g><rect class="scrollbar" rx="20" ry="3" width="0" height="0" style="fill: rgb(128, 139, 164); fill-opacity: 1;" x="0" y="0"/></g><g class="g-gtitle"><text class="gtitle" x="35" y="50" text-anchor="start" dy="0em" style="font-family: 'Open Sans', verdana, arial, sans-serif; font-size: 17px; fill: rgb(42, 63, 95); opacity: 1; font-weight: normal; white-space: pre;">Velodrome: Cumulative Net Dollar Flow since Program Announcement</text></g><g class="g-xtitle"><text class="xtitle" x="309" y="460.3" text-anchor="middle" style="font-family: 'Open Sans', verdana, arial, sans-serif; font-size: 14px; fill: rgb(42, 63, 95); opacity: 1; font-weight: normal; white-space: pre;">Day</text></g><g class="g-ytitle" transform="translate(0.4404296875,0)"><text class="ytitle" transform="rotate(-90,13.559375000000003,260)" x="13.559375000000003" y="260" text-anchor="middle" style="font-family: 'Open Sans', verdana, arial, sans-serif; font-size: 14px; fill: rgb(42, 63, 95); opacity: 1; font-weight: normal; white-space: pre;">Cumulative Net Dollar Flow (N$F)</text></g></g></svg>