<svg class="main-svg" xmlns="http://www.w3.org/2000/svg" xmlns:xlink="http://www.w3.org/1999/xlink" width="700" height="500" style="" viewBox="0 0 700 500"><rect x="0" y="0" width="700" height="500" style="fill: rgb(255, 255, 255); fill-opacity: 1;"/><defs id="defs-ea119f"><g class="clips"><clipPath id="clipea119fxyplot" class="plotclip"><rect width="540" height="320"/></clipPath><clipPath class="axesclip" id="clipea119fx"><rect x="80" y="0" width="540" height="500"/></clipPath><clipPath class="axesclip" id="clipea119fy"><rect x="0" y="100" width="700" height="320"/></clipPath><clipPath class="axesclip" id="clipea119fxy"><rect x="80" y="100" width="540" height="320"/></clipPath></g><g class="gradients"/><g class="patterns"/></defs><g class="bglayer"><rect class="bg" x="80" y="100" width="540" height="320" style="fill: rgb(229, 236, 246); fill-opacity: 1; stroke-width: 0;"/></g><g class="layer-below"><g class="imagelayer"/><g class="shapelayer"/></g><g class="cartesianlayer"><g class="subplot xy"><g class="layer-subplot"><g class="shapelayer"/><g class="imagelayer"/></g><g class="minor-gridlayer"><g class="x"/><g class="y"/></g><g class="gridlayer"><g class="x"><path class="xgrid crisp" transform="translate(99.69,0)" d="M0,100v320" style="stroke: rgb(255, 255, 255); stroke-opacity: 1; stroke-width: 1px;"/><path class="xgrid crisp" transform="translate(184.06,0)" d="M0,100v320" style="stroke: rgb(255, 255, 255); stroke-opacity: 1; stroke-width: 1px;"/><path class="xgrid crisp" transform="translate(271.25,0)" d="M0,100v320" style="stroke: rgb(255, 255, 255); stroke-opacity: 1; stroke-width: 1px;"/><path class="xgrid crisp" transform="translate(355.63,0)" d="M0,100v320" style="stroke: rgb(255, 255, 255); stroke-opacity: 1; stroke-width: 1px;"/><path class="xgrid crisp" transform="translate(442.81,0)" d="M0,100v320" style="stroke: rgb(255, 255, 255); stroke-opacity: 1; stroke-width: 1px;"/><path class="xgrid crisp" transform="translate(530,0)" d="M0,100v320" style="stroke: rgb(255, 255, 255); stroke-opacity: 1; stroke-width: 1px;"/><path class="xgrid crisp" transform="translate(608.75,0)" d="M0,100v320" style="stroke: rgb(255, 255, 255); stroke-opacity: 1; stroke-width: 1px;"/></g><g class="y"><path class="ygrid crisp" transform="translate(0,367.29)" d="M80,0h540" style="stroke: rgb(255, 255, 255); stroke-opacity: 1; stroke-width: 1px;"/><path class="ygrid crisp" transform="translate(0,314.57)" d="M80,0h540" style="stroke: rgb(255, 255, 255); stroke-opacity: 1; stroke-width: 1px;"/><path class="ygrid crisp" transform="translate(0,261.86)" d="M80,0h540" style="stroke: rgb(255, 255, 255); stroke-opacity: 1; stroke-width: 1px;"/><path class="ygrid crisp" transform="translate(0,209.15)" d="M80,0h540" style="stroke: rgb(255, 255, 255); stroke-opacity: 1; stroke-width: 1px;"/><path class="ygrid crisp" transform="translate(0,156.44)" d="M80,0h540" style="stroke: rgb(255, 255, 255); stroke-opacity: 1; stroke-width: 1px;"/><path class="ygrid crisp" transform="translate(0,103.72)" d="M80,0h540" style="stroke: rgb(255, 255, 255); stroke-opacity: 1; stroke-width: 1px;"/></g></g><g class="zerolinelayer"><path class="yzl zl crisp" transform="translate(0,420)" d="M80,0h540" style="stroke: rgb(255, 255, 255); stroke-opacity: 1; stroke-width: 2px;"/></g><path class="xlines-below"/><path class="ylines-below"/><g class="overlines-below"/><g class="xaxislayer-below"/><g class="yaxislayer-below"/><g class="overaxes-below"/><g class="plot" transform="translate(80,100)" clip-path="url(#clipea119fxyplot)"><g class="scatterlayer mlayer"><g class="trace scatter trace6101dc" style="stroke-miterlimit: 2;"><g class="fills"><g><path class="js-fill" d="M540,320L0,320L0,318.9L2.81,271.92L5.63,263.81L8.44,260.28L11.25,260.21L14.06,252.96L16.88,250L19.69,248.39L22.5,250.36L25.31,243.63L28.13,240.98L30.94,237.19L33.75,247.36L36.56,244.55L39.38,247.34L42.19,236.35L45,231.35L47.81,228.32L50.63,227.39L53.44,230.39L56.25,234.54L59.06,236.03L61.88,222.1L64.69,212.93L67.5,211.4L70.31,208.74L73.13,214.81L75.94,214.62L78.75,211.57L84.38,211.5L87.19,212.43L90,210.59L92.81,209.89L95.63,177.83L98.44,180.11L101.25,186.84L104.06,185.44L106.88,185.34L109.69,186.82L115.31,189.34L118.13,197.42L120.94,193.34L123.75,202.76L126.56,202.75L129.38,204.07L132.19,208.07L135,205L140.63,204.22L143.44,201.58L149.06,201.14L151.88,199.18L154.69,200.81L157.5,200.56L171.56,200.9L174.38,199.08L177.19,199.93L180,213.56L182.81,211.06L185.63,197.57L199.69,197.75L202.5,198.14L205.31,199.15L208.13,197.09L210.94,196.9L213.75,234.38L216.56,239.07L219.38,224.91L222.19,218.27L225,225.13L227.81,213.95L230.63,212.5L233.44,211.45L236.25,213.53L239.06,218.29L241.88,217.16L244.69,216.07L247.5,218.02L250.31,218.59L253.13,218.19L255.94,211.61L258.75,212.11L261.56,210.96L264.38,210.8L275.63,210.56L278.44,207.77L281.25,207.85L284.06,203.39L286.88,202.82L289.69,196.94L292.5,182.4L295.31,175.94L298.13,176.45L300.94,174.4L303.75,174.28L306.56,172.66L309.38,168.51L312.19,167.69L315,162.58L317.81,159.23L320.63,163.42L323.44,163.42L326.25,163.49L329.06,167.04L331.88,181.97L334.69,182.43L337.5,182.95L340.31,182.01L348.75,182.06L351.56,188.28L354.38,188.16L357.19,184.46L360,169.31L362.81,166.17L365.63,171.11L368.44,171.03L371.25,177.12L374.06,177.73L376.88,174.46L379.69,174.49L382.5,178.37L385.31,176.07L390.94,149.73L393.75,148.02L396.56,153.94L399.38,149.49L402.19,148.05L405,150.28L410.63,149.29L413.44,152.9L416.25,147.76L419.06,136.36L421.88,132.79L424.69,131.85L427.5,129.67L430.31,103.38L433.13,48.93L435.94,44.68L438.75,47.55L441.56,35.97L444.38,35.02L447.19,18.43L450,17.96L452.81,16L455.63,21.23L458.44,33.62L461.25,38.7L464.06,38.68L466.88,48.78L469.69,67.17L472.5,69.83L475.31,70.28L478.13,69.97L480.94,45.58L483.75,48.05L486.56,45.35L489.38,45.68L492.19,43.05L495,49.14L497.81,60.35L500.63,60.63L503.44,61.76L506.25,78.27L509.06,79.1L511.88,79.99L514.69,78.98L517.5,76.47L520.31,71.32L523.13,70.07L525.94,69.96L528.75,70.06L531.56,69.36L534.38,71.01L537.19,70.71L540,70.61" style="fill: rgb(99, 110, 250); fill-opacity: 0.5; stroke-width: 0;"/></g></g><g class="errorbars"/><g class="lines"><path class="js-line" d="M0,318.9L2.81,271.92L5.63,263.81L8.44,260.28L11.25,260.21L14.06,252.96L16.88,250L19.69,248.39L22.5,250.36L25.31,243.63L28.13,240.98L30.94,237.19L33.75,247.36L36.56,244.55L39.38,247.34L42.19,236.35L45,231.35L47.81,228.32L50.63,227.39L53.44,230.39L56.25,234.54L59.06,236.03L61.88,222.1L64.69,212.93L67.5,211.4L70.31,208.74L73.13,214.81L75.94,214.62L78.75,211.57L84.38,211.5L87.19,212.43L90,210.59L92.81,209.89L95.63,177.83L98.44,180.11L101.25,186.84L104.06,185.44L106.88,185.34L109.69,186.82L115.31,189.34L118.13,197.42L120.94,193.34L123.75,202.76L126.56,202.75L129.38,204.07L132.19,208.07L135,205L140.63,204.22L143.44,201.58L149.06,201.14L151.88,199.18L154.69,200.81L157.5,200.56L171.56,200.9L174.38,199.08L177.19,199.93L180,213.56L182.81,211.06L185.63,197.57L199.69,197.75L202.5,198.14L205.31,199.15L208.13,197.09L210.94,196.9L213.75,234.38L216.56,239.07L219.38,224.91L222.19,218.27L225,225.13L227.81,213.95L230.63,212.5L233.44,211.45L236.25,213.53L239.06,218.29L241.88,217.16L244.69,216.07L247.5,218.02L250.31,218.59L253.13,218.19L255.94,211.61L258.75,212.11L261.56,210.96L264.38,210.8L275.63,210.56L278.44,207.77L281.25,207.85L284.06,203.39L286.88,202.82L289.69,196.94L292.5,182.4L295.31,175.94L298.13,176.45L300.94,174.4L303.75,174.28L306.56,172.66L309.38,168.51L312.19,167.69L315,162.58L317.81,159.23L320.63,163.42L323.44,163.42L326.25,163.49L329.06,167.04L331.88,181.97L334.69,182.43L337.5,182.95L340.31,182.01L348.75,182.06L351.56,188.28L354.38,188.16L357.19,184.46L360,169.31L362.81,166.17L365.63,171.11L368.44,171.03L371.25,177.12L374.06,177.73L376.88,174.46L379.69,174.49L382.5,178.37L385.31,176.07L390.94,149.73L393.75,148.02L396.56,153.94L399.38,149.49L402.19,148.05L405,150.28L410.63,149.29L413.44,152.9L416.25,147.76L419.06,136.36L421.88,132.79L424.69,131.85L427.5,129.67L430.31,103.38L433.13,48.93L435.94,44.68L438.75,47.55L441.56,35.97L444.38,35.02L447.19,18.43L450,17.96L452.81,16L455.63,21.23L458.44,33.62L461.25,38.7L464.06,38.68L466.88,48.78L469.69,67.17L472.5,69.83L475.31,70.28L478.13,69.97L480.94,45.58L483.75,48.05L486.56,45.35L489.38,45.68L492.19,43.05L495,49.14L497.81,60.35L500.63,60.63L503.44,61.76L506.25,78.27L509.06,79.1L511.88,79.99L514.69,78.98L517.5,76.47L520.31,71.32L523.13,70.07L525.94,69.96L528.75,70.06L531.56,69.36L534.38,71.01L537.19,70.71L540,70.61" style="vector-effect: non-scaling-stroke; fill: none; stroke: rgb(99, 110, 250); stroke-opacity: 1; stroke-width: 2px; opacity: 1;"/></g><g class="points"/><g class="text"/></g></g></g><g class="overplot"/><path class="xlines-above crisp" d="M0,0" style="fill: none;"/><path class="ylines-above crisp" d="M0,0" style="fill: none;"/><g class="overlines-above"/><g class="xaxislayer-above"><g class="xtick"><text text-anchor="middle" x="0" y="433" transform="translate(99.69,0)" style="font-family: 'Open Sans', verdana, arial, sans-serif; font-size: 12px; fill: rgb(42, 63, 95); fill-opacity: 1; white-space: pre; opacity: 1;">Sep 2022</text></g><g class="xtick"><text text-anchor="middle" x="0" y="433" style="font-family: 'Open Sans', verdana, arial, sans-serif; font-size: 12px; fill: rgb(42, 63, 95); fill-opacity: 1; white-space: pre; opacity: 1;" transform="translate(184.06,0)">Oct 2022</text></g><g class="xtick"><text text-anchor="middle" x="0" y="433" style="font-family: 'Open Sans', verdana, arial, sans-serif; font-size: 12px; fill: rgb(42, 63, 95); fill-opacity: 1; white-space: pre; opacity: 1;" transform="translate(271.25,0)">Nov 2022</text></g><g class="xtick"><text text-anchor="middle" x="0" y="433" style="font-family: 'Open Sans', verdana, arial, sans-serif; font-size: 12px; fill: rgb(42, 63, 95); fill-opacity: 1; white-space: pre; opacity: 1;" transform="translate(355.63,0)">Dec 2022</text></g><g class="xtick"><text text-anchor="middle" x="0" y="433" style="font-family: 'Open Sans', verdana, arial, sans-serif; font-size: 12px; fill: rgb(42, 63, 95); fill-opacity: 1; white-space: pre; opacity: 1;" transform="translate(442.81,0)">Jan 2023</text></g><g class="xtick"><text text-anchor="middle" x="0" y="433" style="font-family: 'Open Sans', verdana, arial, sans-serif; font-size: 12px; fill: rgb(42, 63, 95); fill-opacity: 1; white-space: pre; opacity: 1;" transform="translate(530,0)">Feb 2023</text></g><g class="xtick"><text text-anchor="middle" x="0" y="433" style="font-family: 'Open Sans', verdana, arial, sans-serif; font-size: 12px; fill: rgb(42, 63, 95); fill-opacity: 1; white-space: pre; opacity: 1;" transform="translate(608.75,0)">Mar 2023</text></g></g><g class="yaxislayer-above"><g class="ytick"><text text-anchor="end" x="79" y="4.199999999999999" transform="translate(0,420)" style="font-family: 'Open Sans', verdana, arial, sans-serif; font-size: 12px; fill: rgb(42, 63, 95); fill-opacity: 1; white-space: pre; opacity: 1;">$0</text></g><g class="ytick"><text text-anchor="end" x="79" y="4.199999999999999" style="font-family: 'Open Sans', verdana, arial, sans-serif; font-size: 12px; fill: rgb(42, 63, 95); fill-opacity: 1; white-space: pre; opacity: 1;" transform="translate(0,367.29)">$5M</text></g><g class="ytick"><text text-anchor="end" x="79" y="4.199999999999999" style="font-family: 'Open Sans', verdana, arial, sans-serif; font-size: 12px; fill: rgb(42, 63, 95); fill-opacity: 1; white-space: pre; opacity: 1;" transform="translate(0,314.57)">$10M</text></g><g class="ytick"><text text-anchor="end" x="79" y="4.199999999999999" style="font-family: 'Open Sans', verdana, arial, sans-serif; font-size: 12px; fill: rgb(42, 63, 95); fill-opacity: 1; white-space: pre; opacity: 1;" transform="translate(0,261.86)">$15M</text></g><g class="ytick"><text text-anchor="end" x="79" y="4.199999999999999" style="font-family: 'Open Sans', verdana, arial, sans-serif; font-size: 12px; fill: rgb(42, 63, 95); fill-opacity: 1; white-space: pre; opacity: 1;" transform="translate(0,209.15)">$20M</text></g><g class="ytick"><text text-anchor="end" x="79" y="4.199999999999999" style="font-family: 'Open Sans', verdana, arial, sans-serif; font-size: 12px; fill: rgb(42, 63, 95); fill-opacity: 1; white-space: pre; opacity: 1;" transform="translate(0,156.44)">$25M</text></g><g class="ytick"><text text-anchor="end" x="79" y="4.199999999999999" style="font-family: 'Open Sans', verdana, arial, sans-serif; font-size: 12px; fill: rgb(42, 63, 95); fill-opacity: 1; white-space: pre; opacity: 1;" transform="translate(0,103.72)">$30M</text></g></g><g class="overaxes-above"/></g></g><g class="polarlayer"/><g class="smithlayer"/><g class="ternarylayer"/><g class="geolayer"/><g class="funnelarealayer"/><g class="pielayer"/><g class="iciclelayer"/><g class="treemaplayer"/><g class="sunburstlayer"/><g class="glimages"/><defs id="topdefs-ea119f"><g class="clips"/></defs><g class="layer-above"><g class="imagelayer"/><g class="shapelayer"/></g><g class="infolayer"><g class="g-gtitle"><text class="gtitle" x="35" y="50" text-anchor="start" dy="0em" style="font-family: 'Open Sans', verdana, arial, sans-serif; font-size: 17px; fill: rgb(42, 63, 95); opacity: 1; font-weight: normal; white-space: pre;"><tspan class="line" dy="0em" x="35" y="50">Synthetix - sETH-ETH: Curve</tspan><tspan class="line" dy="1.3em" x="35" y="50">​<tspan style="font-size:70%" dy="-0.6em">Cumulative Net Flows since Program Announcement, Until Program End + 30 Days</tspan><tspan dy="0.42em">​</tspan></tspan></text></g><g class="g-xtitle"><text class="xtitle" x="350" y="460.8" text-anchor="middle" style="font-family: 'Open Sans', verdana, arial, sans-serif; font-size: 14px; fill: rgb(42, 63, 95); opacity: 1; font-weight: normal; white-space: pre;">Day</text></g><g class="g-ytitle"><text class="ytitle" transform="rotate(-90,24.168750000000003,260)" x="24.168750000000003" y="260" text-anchor="middle" style="font-family: 'Open Sans', verdana, arial, sans-serif; font-size: 14px; fill: rgb(42, 63, 95); opacity: 1; font-weight: normal; white-space: pre;">Cumulative Net Flows (USD)</text></g></g></svg>