<svg class="main-svg" xmlns="http://www.w3.org/2000/svg" xmlns:xlink="http://www.w3.org/1999/xlink" width="700" height="500" style="" viewBox="0 0 700 500"><rect x="0" y="0" width="700" height="500" style="fill: rgb(255, 255, 255); fill-opacity: 1;"/><defs id="defs-bd11a1"><g class="clips"><clipPath id="clipbd11a1xyplot" class="plotclip"><rect width="540" height="320"/></clipPath><clipPath class="axesclip" id="clipbd11a1x"><rect x="80" y="0" width="540" height="500"/></clipPath><clipPath class="axesclip" id="clipbd11a1y"><rect x="0" y="100" width="700" height="320"/></clipPath><clipPath class="axesclip" id="clipbd11a1xy"><rect x="80" y="100" width="540" height="320"/></clipPath></g><g class="gradients"/><g class="patterns"/></defs><g class="bglayer"><rect class="bg" x="80" y="100" width="540" height="320" style="fill: rgb(229, 236, 246); fill-opacity: 1; stroke-width: 0;"/></g><g class="layer-below"><g class="imagelayer"/><g class="shapelayer"/></g><g class="cartesianlayer"><g class="subplot xy"><g class="layer-subplot"><g class="shapelayer"/><g class="imagelayer"/></g><g class="minor-gridlayer"><g class="x"/><g class="y"/></g><g class="gridlayer"><g class="x"><path class="xgrid crisp" transform="translate(164.38,0)" d="M0,100v320" style="stroke: rgb(255, 255, 255); stroke-opacity: 1; stroke-width: 1px;"/><path class="xgrid crisp" transform="translate(248.75,0)" d="M0,100v320" style="stroke: rgb(255, 255, 255); stroke-opacity: 1; stroke-width: 1px;"/><path class="xgrid crisp" transform="translate(335.94,0)" d="M0,100v320" style="stroke: rgb(255, 255, 255); stroke-opacity: 1; stroke-width: 1px;"/><path class="xgrid crisp" transform="translate(420.31,0)" d="M0,100v320" style="stroke: rgb(255, 255, 255); stroke-opacity: 1; stroke-width: 1px;"/><path class="xgrid crisp" transform="translate(507.5,0)" d="M0,100v320" style="stroke: rgb(255, 255, 255); stroke-opacity: 1; stroke-width: 1px;"/><path class="xgrid crisp" transform="translate(594.69,0)" d="M0,100v320" style="stroke: rgb(255, 255, 255); stroke-opacity: 1; stroke-width: 1px;"/></g><g class="y"><path class="ygrid crisp" transform="translate(0,381.76)" d="M80,0h540" style="stroke: rgb(255, 255, 255); stroke-opacity: 1; stroke-width: 1px;"/><path class="ygrid crisp" transform="translate(0,343.52)" d="M80,0h540" style="stroke: rgb(255, 255, 255); stroke-opacity: 1; stroke-width: 1px;"/><path class="ygrid crisp" transform="translate(0,305.28)" d="M80,0h540" style="stroke: rgb(255, 255, 255); stroke-opacity: 1; stroke-width: 1px;"/><path class="ygrid crisp" transform="translate(0,267.03999999999996)" d="M80,0h540" style="stroke: rgb(255, 255, 255); stroke-opacity: 1; stroke-width: 1px;"/><path class="ygrid crisp" transform="translate(0,228.8)" d="M80,0h540" style="stroke: rgb(255, 255, 255); stroke-opacity: 1; stroke-width: 1px;"/><path class="ygrid crisp" transform="translate(0,190.56)" d="M80,0h540" style="stroke: rgb(255, 255, 255); stroke-opacity: 1; stroke-width: 1px;"/><path class="ygrid crisp" transform="translate(0,152.32)" d="M80,0h540" style="stroke: rgb(255, 255, 255); stroke-opacity: 1; stroke-width: 1px;"/><path class="ygrid crisp" transform="translate(0,114.07)" d="M80,0h540" style="stroke: rgb(255, 255, 255); stroke-opacity: 1; stroke-width: 1px;"/></g></g><g class="zerolinelayer"><path class="yzl zl crisp" transform="translate(0,420)" d="M80,0h540" style="stroke: rgb(255, 255, 255); stroke-opacity: 1; stroke-width: 2px;"/></g><path class="xlines-below"/><path class="ylines-below"/><g class="overlines-below"/><g class="xaxislayer-below"/><g class="yaxislayer-below"/><g class="overaxes-below"/><g class="plot" transform="translate(80,100)" clip-path="url(#clipbd11a1xyplot)"><g class="scatterlayer mlayer"><g class="trace scatter trace63f5a0" style="stroke-miterlimit: 2;"><g class="fills"><g><path class="js-fill" d="M540,320L0,320L0,319.62L2.81,284.84L5.63,201.4L8.44,165.99L11.25,157.73L14.06,144.39L16.88,122.2L19.69,110.64L22.5,56.08L25.31,52.8L28.13,50.93L30.94,33.93L33.75,27.93L36.56,26.27L39.38,18.05L42.19,40.9L45,16L47.81,16.62L50.63,18.94L53.44,30.56L56.25,33.56L59.06,36.45L61.88,38.13L64.69,46.17L67.5,47.5L70.31,39.61L73.13,39.26L75.94,40.97L78.75,45.04L81.56,46.08L84.38,43.48L87.19,43.68L90,57.37L95.63,57.29L98.44,59.23L101.25,61.7L104.06,67.39L106.88,68.32L109.69,79.9L112.5,88.63L115.31,93.97L118.13,101.59L120.94,112.62L123.75,117.29L126.56,108.47L129.38,62.64L132.19,61.05L135,49.06L137.81,52.3L140.63,50.28L143.44,50.39L146.25,59.63L149.06,37.87L151.88,34.65L154.69,26.05L157.5,24.88L160.31,27.03L163.13,31.54L165.94,30.39L171.56,24.2L174.38,24.32L177.19,23.71L180,29.39L185.63,35.1L188.44,30.43L191.25,28.33L194.06,37.42L196.88,42.84L199.69,41.23L202.5,40L205.31,42.81L208.13,41.38L210.94,36.81L213.75,68.44L216.56,76.38L219.38,78.32L222.19,79.32L225,80.3L227.81,115.97L230.63,113.39L233.44,119.83L236.25,125.73L239.06,152.3L241.88,177.73L244.69,170.78L247.5,145.39L250.31,146.43L253.13,151.65L255.94,150.68L261.56,154.64L264.38,147.7L267.19,151.5L270,146.57L272.81,146.54L275.63,141.74L278.44,145.16L281.25,155.86L284.06,156.14L286.88,145.76L289.69,150.82L292.5,150.04L295.31,178.06L298.13,179.23L300.94,179.64L303.75,178.99L306.56,168.35L309.38,164.54L315,157.03L317.81,155.11L320.63,167.46L323.44,173.53L326.25,174.11L329.06,176.56L331.88,177.22L334.69,170.6L340.31,187.51L343.13,186.84L345.94,177.24L348.75,175.28L351.56,178.77L354.38,175.29L357.19,174.5L360,172.05L362.81,174.91L365.63,184.4L368.44,183.66L371.25,184.72L374.06,186.52L376.88,190.77L382.5,182.22L385.31,182.81L388.13,179.93L390.94,179.55L393.75,177.09L396.56,190.29L399.38,193.52L402.19,194.54L405,195.89L407.81,196.05L413.44,192.98L416.25,195.58L419.06,194.92L421.88,195.05L424.69,204.23L427.5,204.48L430.31,201.75L433.13,203.06L435.94,203.55L438.75,207.84L441.56,209.11L444.38,206.32L452.81,211.34L455.63,214.68L458.44,215.93L461.25,190.65L464.06,191.79L466.88,194.35L469.69,191.67L472.5,190.59L480.94,180.8L483.75,188.68L486.56,185.28L489.38,184.34L492.19,175.92L495,173.31L497.81,176.45L500.63,164.08L503.44,171.24L506.25,165.9L509.06,169.98L511.88,165.18L514.69,168.16L517.5,165.35L520.31,164.47L523.13,166.11L525.94,174.93L528.75,177.08L534.38,175.75L537.19,172.11L540,170.38" style="fill: rgb(99, 110, 250); fill-opacity: 0.5; stroke-width: 0;"/></g></g><g class="errorbars"/><g class="lines"><path class="js-line" d="M0,319.62L2.81,284.84L5.63,201.4L8.44,165.99L11.25,157.73L14.06,144.39L16.88,122.2L19.69,110.64L22.5,56.08L25.31,52.8L28.13,50.93L30.94,33.93L33.75,27.93L36.56,26.27L39.38,18.05L42.19,40.9L45,16L47.81,16.62L50.63,18.94L53.44,30.56L56.25,33.56L59.06,36.45L61.88,38.13L64.69,46.17L67.5,47.5L70.31,39.61L73.13,39.26L75.94,40.97L78.75,45.04L81.56,46.08L84.38,43.48L87.19,43.68L90,57.37L95.63,57.29L98.44,59.23L101.25,61.7L104.06,67.39L106.88,68.32L109.69,79.9L112.5,88.63L115.31,93.97L118.13,101.59L120.94,112.62L123.75,117.29L126.56,108.47L129.38,62.64L132.19,61.05L135,49.06L137.81,52.3L140.63,50.28L143.44,50.39L146.25,59.63L149.06,37.87L151.88,34.65L154.69,26.05L157.5,24.88L160.31,27.03L163.13,31.54L165.94,30.39L171.56,24.2L174.38,24.32L177.19,23.71L180,29.39L185.63,35.1L188.44,30.43L191.25,28.33L194.06,37.42L196.88,42.84L199.69,41.23L202.5,40L205.31,42.81L208.13,41.38L210.94,36.81L213.75,68.44L216.56,76.38L219.38,78.32L222.19,79.32L225,80.3L227.81,115.97L230.63,113.39L233.44,119.83L236.25,125.73L239.06,152.3L241.88,177.73L244.69,170.78L247.5,145.39L250.31,146.43L253.13,151.65L255.94,150.68L261.56,154.64L264.38,147.7L267.19,151.5L270,146.57L272.81,146.54L275.63,141.74L278.44,145.16L281.25,155.86L284.06,156.14L286.88,145.76L289.69,150.82L292.5,150.04L295.31,178.06L298.13,179.23L300.94,179.64L303.75,178.99L306.56,168.35L309.38,164.54L315,157.03L317.81,155.11L320.63,167.46L323.44,173.53L326.25,174.11L329.06,176.56L331.88,177.22L334.69,170.6L340.31,187.51L343.13,186.84L345.94,177.24L348.75,175.28L351.56,178.77L354.38,175.29L357.19,174.5L360,172.05L362.81,174.91L365.63,184.4L368.44,183.66L371.25,184.72L374.06,186.52L376.88,190.77L382.5,182.22L385.31,182.81L388.13,179.93L390.94,179.55L393.75,177.09L396.56,190.29L399.38,193.52L402.19,194.54L405,195.89L407.81,196.05L413.44,192.98L416.25,195.58L419.06,194.92L421.88,195.05L424.69,204.23L427.5,204.48L430.31,201.75L433.13,203.06L435.94,203.55L438.75,207.84L441.56,209.11L444.38,206.32L452.81,211.34L455.63,214.68L458.44,215.93L461.25,190.65L464.06,191.79L466.88,194.35L469.69,191.67L472.5,190.59L480.94,180.8L483.75,188.68L486.56,185.28L489.38,184.34L492.19,175.92L495,173.31L497.81,176.45L500.63,164.08L503.44,171.24L506.25,165.9L509.06,169.98L511.88,165.18L514.69,168.16L517.5,165.35L520.31,164.47L523.13,166.11L525.94,174.93L528.75,177.08L534.38,175.75L537.19,172.11L540,170.38" style="vector-effect: non-scaling-stroke; fill: none; stroke: rgb(99, 110, 250); stroke-opacity: 1; stroke-width: 2px; opacity: 1;"/></g><g class="points"/><g class="text"/></g></g></g><g class="overplot"/><path class="xlines-above crisp" d="M0,0" style="fill: none;"/><path class="ylines-above crisp" d="M0,0" style="fill: none;"/><g class="overlines-above"/><g class="xaxislayer-above"><g class="xtick"><text text-anchor="middle" x="0" y="433" transform="translate(164.38,0)" style="font-family: 'Open Sans', verdana, arial, sans-serif; font-size: 12px; fill: rgb(42, 63, 95); fill-opacity: 1; white-space: pre; opacity: 1;">Sep 2022</text></g><g class="xtick"><text text-anchor="middle" x="0" y="433" style="font-family: 'Open Sans', verdana, arial, sans-serif; font-size: 12px; fill: rgb(42, 63, 95); fill-opacity: 1; white-space: pre; opacity: 1;" transform="translate(248.75,0)">Oct 2022</text></g><g class="xtick"><text text-anchor="middle" x="0" y="433" style="font-family: 'Open Sans', verdana, arial, sans-serif; font-size: 12px; fill: rgb(42, 63, 95); fill-opacity: 1; white-space: pre; opacity: 1;" transform="translate(335.94,0)">Nov 2022</text></g><g class="xtick"><text text-anchor="middle" x="0" y="433" style="font-family: 'Open Sans', verdana, arial, sans-serif; font-size: 12px; fill: rgb(42, 63, 95); fill-opacity: 1; white-space: pre; opacity: 1;" transform="translate(420.31,0)">Dec 2022</text></g><g class="xtick"><text text-anchor="middle" x="0" y="433" style="font-family: 'Open Sans', verdana, arial, sans-serif; font-size: 12px; fill: rgb(42, 63, 95); fill-opacity: 1; white-space: pre; opacity: 1;" transform="translate(507.5,0)">Jan 2023</text></g><g class="xtick"><text text-anchor="middle" x="0" y="433" style="font-family: 'Open Sans', verdana, arial, sans-serif; font-size: 12px; fill: rgb(42, 63, 95); fill-opacity: 1; white-space: pre; opacity: 1;" transform="translate(594.69,0)">Feb 2023</text></g></g><g class="yaxislayer-above"><g class="ytick"><text text-anchor="end" x="79" y="4.199999999999999" transform="translate(0,420)" style="font-family: 'Open Sans', verdana, arial, sans-serif; font-size: 12px; fill: rgb(42, 63, 95); fill-opacity: 1; white-space: pre; opacity: 1;">$0</text></g><g class="ytick"><text text-anchor="end" x="79" y="4.199999999999999" style="font-family: 'Open Sans', verdana, arial, sans-serif; font-size: 12px; fill: rgb(42, 63, 95); fill-opacity: 1; white-space: pre; opacity: 1;" transform="translate(0,381.76)">$2M</text></g><g class="ytick"><text text-anchor="end" x="79" y="4.199999999999999" style="font-family: 'Open Sans', verdana, arial, sans-serif; font-size: 12px; fill: rgb(42, 63, 95); fill-opacity: 1; white-space: pre; opacity: 1;" transform="translate(0,343.52)">$4M</text></g><g class="ytick"><text text-anchor="end" x="79" y="4.199999999999999" style="font-family: 'Open Sans', verdana, arial, sans-serif; font-size: 12px; fill: rgb(42, 63, 95); fill-opacity: 1; white-space: pre; opacity: 1;" transform="translate(0,305.28)">$6M</text></g><g class="ytick"><text text-anchor="end" x="79" y="4.199999999999999" style="font-family: 'Open Sans', verdana, arial, sans-serif; font-size: 12px; fill: rgb(42, 63, 95); fill-opacity: 1; white-space: pre; opacity: 1;" transform="translate(0,267.03999999999996)">$8M</text></g><g class="ytick"><text text-anchor="end" x="79" y="4.199999999999999" style="font-family: 'Open Sans', verdana, arial, sans-serif; font-size: 12px; fill: rgb(42, 63, 95); fill-opacity: 1; white-space: pre; opacity: 1;" transform="translate(0,228.8)">$10M</text></g><g class="ytick"><text text-anchor="end" x="79" y="4.199999999999999" style="font-family: 'Open Sans', verdana, arial, sans-serif; font-size: 12px; fill: rgb(42, 63, 95); fill-opacity: 1; white-space: pre; opacity: 1;" transform="translate(0,190.56)">$12M</text></g><g class="ytick"><text text-anchor="end" x="79" y="4.199999999999999" style="font-family: 'Open Sans', verdana, arial, sans-serif; font-size: 12px; fill: rgb(42, 63, 95); fill-opacity: 1; white-space: pre; opacity: 1;" transform="translate(0,152.32)">$14M</text></g><g class="ytick"><text text-anchor="end" x="79" y="4.199999999999999" style="font-family: 'Open Sans', verdana, arial, sans-serif; font-size: 12px; fill: rgb(42, 63, 95); fill-opacity: 1; white-space: pre; opacity: 1;" transform="translate(0,114.07)">$16M</text></g></g><g class="overaxes-above"/></g></g><g class="polarlayer"/><g class="smithlayer"/><g class="ternarylayer"/><g class="geolayer"/><g class="funnelarealayer"/><g class="pielayer"/><g class="iciclelayer"/><g class="treemaplayer"/><g class="sunburstlayer"/><g class="glimages"/><defs id="topdefs-bd11a1"><g class="clips"/></defs><g class="layer-above"><g class="imagelayer"/><g class="shapelayer"/></g><g class="infolayer"><g class="g-gtitle"><text class="gtitle" x="35" y="50" text-anchor="start" dy="0em" style="font-family: 'Open Sans', verdana, arial, sans-serif; font-size: 17px; fill: rgb(42, 63, 95); opacity: 1; font-weight: normal; white-space: pre;"><tspan class="line" dy="0em" x="35" y="50">Lyra</tspan><tspan class="line" dy="1.3em" x="35" y="50">​<tspan style="font-size:70%" dy="-0.6em">Cumulative Net Flows since Program Announcement, Until Program End + 30 Days</tspan><tspan dy="0.42em">​</tspan></tspan></text></g><g class="g-xtitle"><text class="xtitle" x="350" y="460.8" text-anchor="middle" style="font-family: 'Open Sans', verdana, arial, sans-serif; font-size: 14px; fill: rgb(42, 63, 95); opacity: 1; font-weight: normal; white-space: pre;">Day</text></g><g class="g-ytitle"><text class="ytitle" transform="rotate(-90,24.168750000000003,260)" x="24.168750000000003" y="260" text-anchor="middle" style="font-family: 'Open Sans', verdana, arial, sans-serif; font-size: 14px; fill: rgb(42, 63, 95); opacity: 1; font-weight: normal; white-space: pre;">Cumulative Net Flows (USD)</text></g></g></svg>