<svg class="main-svg" xmlns="http://www.w3.org/2000/svg" xmlns:xlink="http://www.w3.org/1999/xlink" width="700" height="500" style="" viewBox="0 0 700 500"><rect x="0" y="0" width="700" height="500" style="fill: rgb(255, 255, 255); fill-opacity: 1;"/><defs id="defs-022acd"><g class="clips"><clipPath id="clip022acdxyplot" class="plotclip"><rect width="540" height="320"/></clipPath><clipPath class="axesclip" id="clip022acdx"><rect x="80" y="0" width="540" height="500"/></clipPath><clipPath class="axesclip" id="clip022acdy"><rect x="0" y="100" width="700" height="320"/></clipPath><clipPath class="axesclip" id="clip022acdxy"><rect x="80" y="100" width="540" height="320"/></clipPath></g><g class="gradients"/><g class="patterns"/></defs><g class="bglayer"><rect class="bg" x="80" y="100" width="540" height="320" style="fill: rgb(229, 236, 246); fill-opacity: 1; stroke-width: 0;"/></g><g class="layer-below"><g class="imagelayer"/><g class="shapelayer"/></g><g class="cartesianlayer"><g class="subplot xy"><g class="layer-subplot"><g class="shapelayer"/><g class="imagelayer"/></g><g class="minor-gridlayer"><g class="x"/><g class="y"/></g><g class="gridlayer"><g class="x"><path class="xgrid crisp" transform="translate(144.57,0)" d="M0,100v320" style="stroke: rgb(255, 255, 255); stroke-opacity: 1; stroke-width: 1px;"/><path class="xgrid crisp" transform="translate(226.74,0)" d="M0,100v320" style="stroke: rgb(255, 255, 255); stroke-opacity: 1; stroke-width: 1px;"/><path class="xgrid crisp" transform="translate(308.90999999999997,0)" d="M0,100v320" style="stroke: rgb(255, 255, 255); stroke-opacity: 1; stroke-width: 1px;"/><path class="xgrid crisp" transform="translate(391.09,0)" d="M0,100v320" style="stroke: rgb(255, 255, 255); stroke-opacity: 1; stroke-width: 1px;"/><path class="xgrid crisp" transform="translate(473.26,0)" d="M0,100v320" style="stroke: rgb(255, 255, 255); stroke-opacity: 1; stroke-width: 1px;"/><path class="xgrid crisp" transform="translate(555.4300000000001,0)" d="M0,100v320" style="stroke: rgb(255, 255, 255); stroke-opacity: 1; stroke-width: 1px;"/></g><g class="y"><path class="ygrid crisp" transform="translate(0,319.12)" d="M80,0h540" style="stroke: rgb(255, 255, 255); stroke-opacity: 1; stroke-width: 1px;"/><path class="ygrid crisp" transform="translate(0,264.26)" d="M80,0h540" style="stroke: rgb(255, 255, 255); stroke-opacity: 1; stroke-width: 1px;"/><path class="ygrid crisp" transform="translate(0,209.4)" d="M80,0h540" style="stroke: rgb(255, 255, 255); stroke-opacity: 1; stroke-width: 1px;"/><path class="ygrid crisp" transform="translate(0,154.53)" d="M80,0h540" style="stroke: rgb(255, 255, 255); stroke-opacity: 1; stroke-width: 1px;"/></g></g><g class="zerolinelayer"><path class="yzl zl crisp" transform="translate(0,373.98)" d="M80,0h540" style="stroke: rgb(255, 255, 255); stroke-opacity: 1; stroke-width: 2px;"/></g><path class="xlines-below"/><path class="ylines-below"/><g class="overlines-below"/><g class="xaxislayer-below"/><g class="yaxislayer-below"/><g class="overaxes-below"/><g class="plot" transform="translate(80,100)" clip-path="url(#clip022acdxyplot)"><g class="scatterlayer mlayer"><g class="trace scatter trace2f54b3" style="stroke-miterlimit: 2;"><g class="fills"><g><path class="js-fill" d="M540,273.98L0,273.98L0,274.62L5.87,277.44L11.74,277.05L17.61,299.15L23.48,296.42L29.35,296.3L35.22,293.55L41.09,304L46.96,299.83L52.83,297.02L58.7,293.04L64.57,290.66L70.43,292.97L76.3,287.25L82.17,283.78L88.04,276.62L93.91,276.74L99.78,267.96L105.65,261.67L111.52,251.58L117.39,253.82L123.26,250.35L129.13,248.02L135,222.11L140.87,218.92L146.74,213.35L152.61,214.78L158.48,214.04L164.35,210.87L170.22,207.55L176.09,206.51L181.96,201.26L187.83,199.3L193.7,191.32L199.57,187.8L205.43,187.73L211.3,179.19L217.17,146.99L223.04,133.48L228.91,117.68L234.78,128.04L240.65,118.95L246.52,42.08L252.39,63.7L258.26,67.3L264.13,83.95L270,81.99L275.87,79.21L281.74,74.1L287.61,70.83L293.48,75.59L299.35,41.17L305.22,40.92L311.09,33.46L316.96,22.62L322.83,16.32L328.7,22.2L334.57,56.76L340.43,69.07L346.3,97.06L352.17,97.49L358.04,144.47L363.91,142.13L369.78,142.13L375.65,147.73L381.52,134.57L387.39,138.57L393.26,122.68L399.13,124.88L405,125.63L410.87,125.1L416.74,117.37L422.61,111.13L428.48,103.19L434.35,93.49L440.22,99L446.09,94.03L451.96,94.17L457.83,92.35L463.7,79.99L469.57,77.69L475.43,66.53L481.3,70.27L487.17,69.38L493.04,57.65L498.91,55.09L504.78,32.91L510.65,30.44L516.52,20.53L522.39,19.83L528.26,36.61L534.13,24.45L540,16" style="fill: rgb(99, 110, 250); fill-opacity: 0.5; stroke-width: 0;"/></g></g><g class="errorbars"/><g class="lines"><path class="js-line" d="M0,274.62L5.87,277.44L11.74,277.05L17.61,299.15L23.48,296.42L29.35,296.3L35.22,293.55L41.09,304L46.96,299.83L52.83,297.02L58.7,293.04L64.57,290.66L70.43,292.97L76.3,287.25L82.17,283.78L88.04,276.62L93.91,276.74L99.78,267.96L105.65,261.67L111.52,251.58L117.39,253.82L123.26,250.35L129.13,248.02L135,222.11L140.87,218.92L146.74,213.35L152.61,214.78L158.48,214.04L164.35,210.87L170.22,207.55L176.09,206.51L181.96,201.26L187.83,199.3L193.7,191.32L199.57,187.8L205.43,187.73L211.3,179.19L217.17,146.99L223.04,133.48L228.91,117.68L234.78,128.04L240.65,118.95L246.52,42.08L252.39,63.7L258.26,67.3L264.13,83.95L270,81.99L275.87,79.21L281.74,74.1L287.61,70.83L293.48,75.59L299.35,41.17L305.22,40.92L311.09,33.46L316.96,22.62L322.83,16.32L328.7,22.2L334.57,56.76L340.43,69.07L346.3,97.06L352.17,97.49L358.04,144.47L363.91,142.13L369.78,142.13L375.65,147.73L381.52,134.57L387.39,138.57L393.26,122.68L399.13,124.88L405,125.63L410.87,125.1L416.74,117.37L422.61,111.13L428.48,103.19L434.35,93.49L440.22,99L446.09,94.03L451.96,94.17L457.83,92.35L463.7,79.99L469.57,77.69L475.43,66.53L481.3,70.27L487.17,69.38L493.04,57.65L498.91,55.09L504.78,32.91L510.65,30.44L516.52,20.53L522.39,19.83L528.26,36.61L534.13,24.45L540,16" style="vector-effect: non-scaling-stroke; fill: none; stroke: rgb(99, 110, 250); stroke-opacity: 1; stroke-width: 2px; opacity: 1;"/></g><g class="points"/><g class="text"/></g></g></g><g class="overplot"/><path class="xlines-above crisp" d="M0,0" style="fill: none;"/><path class="ylines-above crisp" d="M0,0" style="fill: none;"/><g class="overlines-above"/><g class="xaxislayer-above"><g class="xtick"><text text-anchor="middle" x="0" y="433" transform="translate(144.57,0)" style="font-family: 'Open Sans', verdana, arial, sans-serif; font-size: 12px; fill: rgb(42, 63, 95); fill-opacity: 1; white-space: pre; opacity: 1;"><tspan class="line" dy="0em" x="0" y="433">Sep 25</tspan><tspan class="line" dy="1.3em" x="0" y="433">2022</tspan></text></g><g class="xtick"><text text-anchor="middle" x="0" y="433" style="font-family: 'Open Sans', verdana, arial, sans-serif; font-size: 12px; fill: rgb(42, 63, 95); fill-opacity: 1; white-space: pre; opacity: 1;" transform="translate(226.74,0)">Oct 9</text></g><g class="xtick"><text text-anchor="middle" x="0" y="433" style="font-family: 'Open Sans', verdana, arial, sans-serif; font-size: 12px; fill: rgb(42, 63, 95); fill-opacity: 1; white-space: pre; opacity: 1;" transform="translate(308.90999999999997,0)">Oct 23</text></g><g class="xtick"><text text-anchor="middle" x="0" y="433" style="font-family: 'Open Sans', verdana, arial, sans-serif; font-size: 12px; fill: rgb(42, 63, 95); fill-opacity: 1; white-space: pre; opacity: 1;" transform="translate(391.09,0)">Nov 6</text></g><g class="xtick"><text text-anchor="middle" x="0" y="433" style="font-family: 'Open Sans', verdana, arial, sans-serif; font-size: 12px; fill: rgb(42, 63, 95); fill-opacity: 1; white-space: pre; opacity: 1;" transform="translate(473.26,0)">Nov 20</text></g><g class="xtick"><text text-anchor="middle" x="0" y="433" style="font-family: 'Open Sans', verdana, arial, sans-serif; font-size: 12px; fill: rgb(42, 63, 95); fill-opacity: 1; white-space: pre; opacity: 1;" transform="translate(555.4300000000001,0)">Dec 4</text></g></g><g class="yaxislayer-above"><g class="ytick"><text text-anchor="end" x="79" y="4.199999999999999" transform="translate(0,373.98)" style="font-family: 'Open Sans', verdana, arial, sans-serif; font-size: 12px; fill: rgb(42, 63, 95); fill-opacity: 1; white-space: pre; opacity: 1;">$0</text></g><g class="ytick"><text text-anchor="end" x="79" y="4.199999999999999" style="font-family: 'Open Sans', verdana, arial, sans-serif; font-size: 12px; fill: rgb(42, 63, 95); fill-opacity: 1; white-space: pre; opacity: 1;" transform="translate(0,319.12)">$100k</text></g><g class="ytick"><text text-anchor="end" x="79" y="4.199999999999999" style="font-family: 'Open Sans', verdana, arial, sans-serif; font-size: 12px; fill: rgb(42, 63, 95); fill-opacity: 1; white-space: pre; opacity: 1;" transform="translate(0,264.26)">$200k</text></g><g class="ytick"><text text-anchor="end" x="79" y="4.199999999999999" style="font-family: 'Open Sans', verdana, arial, sans-serif; font-size: 12px; fill: rgb(42, 63, 95); fill-opacity: 1; white-space: pre; opacity: 1;" transform="translate(0,209.4)">$300k</text></g><g class="ytick"><text text-anchor="end" x="79" y="4.199999999999999" style="font-family: 'Open Sans', verdana, arial, sans-serif; font-size: 12px; fill: rgb(42, 63, 95); fill-opacity: 1; white-space: pre; opacity: 1;" transform="translate(0,154.53)">$400k</text></g></g><g class="overaxes-above"/></g></g><g class="polarlayer"/><g class="smithlayer"/><g class="ternarylayer"/><g class="geolayer"/><g class="funnelarealayer"/><g class="pielayer"/><g class="iciclelayer"/><g class="treemaplayer"/><g class="sunburstlayer"/><g class="glimages"/><defs id="topdefs-022acd"><g class="clips"/></defs><g class="layer-above"><g class="imagelayer"/><g class="shapelayer"/></g><g class="infolayer"><g class="g-gtitle"><text class="gtitle" x="35" y="50" text-anchor="start" dy="0em" style="font-family: 'Open Sans', verdana, arial, sans-serif; font-size: 17px; fill: rgb(42, 63, 95); opacity: 1; font-weight: normal; white-space: pre;">Polynomial Protocol: Cumulative Net Dollar Flow since Program Announcement</text></g><g class="g-xtitle"><text class="xtitle" x="350" y="476.409375" text-anchor="middle" style="font-family: 'Open Sans', verdana, arial, sans-serif; font-size: 14px; fill: rgb(42, 63, 95); opacity: 1; font-weight: normal; white-space: pre;">Day</text></g><g class="g-ytitle"><text class="ytitle" transform="rotate(-90,21.496875000000003,260)" x="21.496875000000003" y="260" text-anchor="middle" style="font-family: 'Open Sans', verdana, arial, sans-serif; font-size: 14px; fill: rgb(42, 63, 95); opacity: 1; font-weight: normal; white-space: pre;">Cumulative Net Dollar Flow (N$F)</text></g></g></svg>