<svg class="main-svg" xmlns="http://www.w3.org/2000/svg" xmlns:xlink="http://www.w3.org/1999/xlink" width="700" height="500" style="" viewBox="0 0 700 500"><rect x="0" y="0" width="700" height="500" style="fill: rgb(255, 255, 255); fill-opacity: 1;"/><defs id="defs-d274ca"><g class="clips"><clipPath id="clipd274caxyplot" class="plotclip"><rect width="540" height="320"/></clipPath><clipPath class="axesclip" id="clipd274cax"><rect x="80" y="0" width="540" height="500"/></clipPath><clipPath class="axesclip" id="clipd274cay"><rect x="0" y="100" width="700" height="320"/></clipPath><clipPath class="axesclip" id="clipd274caxy"><rect x="80" y="100" width="540" height="320"/></clipPath></g><g class="gradients"/><g class="patterns"/></defs><g class="bglayer"><rect class="bg" x="80" y="100" width="540" height="320" style="fill: rgb(229, 236, 246); fill-opacity: 1; stroke-width: 0;"/></g><g class="layer-below"><g class="imagelayer"/><g class="shapelayer"/></g><g class="cartesianlayer"><g class="subplot xy"><g class="layer-subplot"><g class="shapelayer"/><g class="imagelayer"/></g><g class="minor-gridlayer"><g class="x"/><g class="y"/></g><g class="gridlayer"><g class="x"><path class="xgrid crisp" transform="translate(110.48,0)" d="M0,100v320" style="stroke: rgb(255, 255, 255); stroke-opacity: 1; stroke-width: 1px;"/><path class="xgrid crisp" transform="translate(241.13,0)" d="M0,100v320" style="stroke: rgb(255, 255, 255); stroke-opacity: 1; stroke-width: 1px;"/><path class="xgrid crisp" transform="translate(376.13,0)" d="M0,100v320" style="stroke: rgb(255, 255, 255); stroke-opacity: 1; stroke-width: 1px;"/><path class="xgrid crisp" transform="translate(506.77,0)" d="M0,100v320" style="stroke: rgb(255, 255, 255); stroke-opacity: 1; stroke-width: 1px;"/></g><g class="y"><path class="ygrid crisp" transform="translate(0,351.65)" d="M80,0h540" style="stroke: rgb(255, 255, 255); stroke-opacity: 1; stroke-width: 1px;"/><path class="ygrid crisp" transform="translate(0,283.31)" d="M80,0h540" style="stroke: rgb(255, 255, 255); stroke-opacity: 1; stroke-width: 1px;"/><path class="ygrid crisp" transform="translate(0,214.95999999999998)" d="M80,0h540" style="stroke: rgb(255, 255, 255); stroke-opacity: 1; stroke-width: 1px;"/><path class="ygrid crisp" transform="translate(0,146.61)" d="M80,0h540" style="stroke: rgb(255, 255, 255); stroke-opacity: 1; stroke-width: 1px;"/></g></g><g class="zerolinelayer"><path class="yzl zl crisp" transform="translate(0,420)" d="M80,0h540" style="stroke: rgb(255, 255, 255); stroke-opacity: 1; stroke-width: 2px;"/></g><path class="xlines-below"/><path class="ylines-below"/><g class="overlines-below"/><g class="xaxislayer-below"/><g class="yaxislayer-below"/><g class="overaxes-below"/><g class="plot" transform="translate(80,100)" clip-path="url(#clipd274caxyplot)"><g class="scatterlayer mlayer"><g class="trace scatter trace589de8" style="stroke-miterlimit: 2;"><g class="fills"><g><path class="js-fill" d="M540,320L0,320L0,317.23L4.35,258.17L8.71,244.22L13.06,235.39L17.42,230.8L21.77,220.02L26.13,180.47L30.48,172.04L34.84,181.26L39.19,166.57L43.55,156.62L47.9,153.66L52.26,154.84L56.61,144.97L60.97,114.57L65.32,91.37L69.68,73.41L74.03,66.18L78.39,56.37L82.74,59.06L87.1,66.4L91.45,79.18L95.81,67.35L100.16,44.55L104.52,50.81L113.23,69.1L117.58,71.46L121.94,75.52L126.29,88.13L130.65,91.58L135,92.12L139.35,91.1L143.71,97.07L148.06,56.21L152.42,65.09L156.77,103.67L161.13,103.47L165.48,104.52L169.84,106.52L174.19,109.91L178.55,119.43L182.9,131.01L187.26,121.52L191.61,135.53L195.97,140.2L204.68,150.75L209.03,147.95L213.39,150.28L217.74,151.09L222.1,123.77L226.45,123.3L230.81,123.21L235.16,127.11L239.52,129.72L243.87,128.59L248.23,128.79L252.58,127.52L261.29,126.24L265.65,120.4L274.35,119.38L278.71,142.72L283.06,139.39L287.42,121.8L291.77,123.17L296.13,108.83L300.48,98.94L304.84,92.8L309.19,36.03L313.55,31.28L317.9,32.57L322.26,30.53L326.61,29.88L330.97,89.2L335.32,109.56L339.68,118.13L344.03,106.56L348.39,120.19L352.74,106.59L357.1,105.82L361.45,104.61L365.81,117.18L370.16,128.7L374.52,125.92L378.87,126.19L383.23,134.26L387.58,141.5L391.94,139.37L396.29,125.04L400.65,126.56L405,125.75L409.35,125.78L413.71,125.8L418.06,126.91L422.42,123.19L426.77,130.94L431.13,127.65L435.48,119.15L439.84,114.35L444.19,113.37L448.55,105.76L452.9,86.85L457.26,70.21L461.61,73.32L465.97,69.71L470.32,71.32L474.68,69.01L479.03,49.86L483.39,50.46L487.74,16L492.1,47.54L496.45,54.85L500.81,54.57L505.16,56.6L509.52,61.22L513.87,77.36L518.23,74.7L522.58,76.41L526.94,74.75L531.29,75.79L540,74.34" style="fill: rgb(99, 110, 250); fill-opacity: 0.5; stroke-width: 0;"/></g></g><g class="errorbars"/><g class="lines"><path class="js-line" d="M0,317.23L4.35,258.17L8.71,244.22L13.06,235.39L17.42,230.8L21.77,220.02L26.13,180.47L30.48,172.04L34.84,181.26L39.19,166.57L43.55,156.62L47.9,153.66L52.26,154.84L56.61,144.97L60.97,114.57L65.32,91.37L69.68,73.41L74.03,66.18L78.39,56.37L82.74,59.06L87.1,66.4L91.45,79.18L95.81,67.35L100.16,44.55L104.52,50.81L113.23,69.1L117.58,71.46L121.94,75.52L126.29,88.13L130.65,91.58L135,92.12L139.35,91.1L143.71,97.07L148.06,56.21L152.42,65.09L156.77,103.67L161.13,103.47L165.48,104.52L169.84,106.52L174.19,109.91L178.55,119.43L182.9,131.01L187.26,121.52L191.61,135.53L195.97,140.2L204.68,150.75L209.03,147.95L213.39,150.28L217.74,151.09L222.1,123.77L226.45,123.3L230.81,123.21L235.16,127.11L239.52,129.72L243.87,128.59L248.23,128.79L252.58,127.52L261.29,126.24L265.65,120.4L274.35,119.38L278.71,142.72L283.06,139.39L287.42,121.8L291.77,123.17L296.13,108.83L300.48,98.94L304.84,92.8L309.19,36.03L313.55,31.28L317.9,32.57L322.26,30.53L326.61,29.88L330.97,89.2L335.32,109.56L339.68,118.13L344.03,106.56L348.39,120.19L352.74,106.59L357.1,105.82L361.45,104.61L365.81,117.18L370.16,128.7L374.52,125.92L378.87,126.19L383.23,134.26L387.58,141.5L391.94,139.37L396.29,125.04L400.65,126.56L405,125.75L409.35,125.78L413.71,125.8L418.06,126.91L422.42,123.19L426.77,130.94L431.13,127.65L435.48,119.15L439.84,114.35L444.19,113.37L448.55,105.76L452.9,86.85L457.26,70.21L461.61,73.32L465.97,69.71L470.32,71.32L474.68,69.01L479.03,49.86L483.39,50.46L487.74,16L492.1,47.54L496.45,54.85L500.81,54.57L505.16,56.6L509.52,61.22L513.87,77.36L518.23,74.7L522.58,76.41L526.94,74.75L531.29,75.79L540,74.34" style="vector-effect: non-scaling-stroke; fill: none; stroke: rgb(99, 110, 250); stroke-opacity: 1; stroke-width: 2px; opacity: 1;"/></g><g class="points"/><g class="text"/></g></g></g><g class="overplot"/><path class="xlines-above crisp" d="M0,0" style="fill: none;"/><path class="ylines-above crisp" d="M0,0" style="fill: none;"/><g class="overlines-above"/><g class="xaxislayer-above"><g class="xtick"><text text-anchor="middle" x="0" y="433" transform="translate(110.48,0)" style="font-family: 'Open Sans', verdana, arial, sans-serif; font-size: 12px; fill: rgb(42, 63, 95); fill-opacity: 1; white-space: pre; opacity: 1;">Sep 2022</text></g><g class="xtick"><text text-anchor="middle" x="0" y="433" style="font-family: 'Open Sans', verdana, arial, sans-serif; font-size: 12px; fill: rgb(42, 63, 95); fill-opacity: 1; white-space: pre; opacity: 1;" transform="translate(241.13,0)">Oct 2022</text></g><g class="xtick"><text text-anchor="middle" x="0" y="433" style="font-family: 'Open Sans', verdana, arial, sans-serif; font-size: 12px; fill: rgb(42, 63, 95); fill-opacity: 1; white-space: pre; opacity: 1;" transform="translate(376.13,0)">Nov 2022</text></g><g class="xtick"><text text-anchor="middle" x="0" y="433" style="font-family: 'Open Sans', verdana, arial, sans-serif; font-size: 12px; fill: rgb(42, 63, 95); fill-opacity: 1; white-space: pre; opacity: 1;" transform="translate(506.77,0)">Dec 2022</text></g></g><g class="yaxislayer-above"><g class="ytick"><text text-anchor="end" x="79" y="4.199999999999999" transform="translate(0,420)" style="font-family: 'Open Sans', verdana, arial, sans-serif; font-size: 12px; fill: rgb(42, 63, 95); fill-opacity: 1; white-space: pre; opacity: 1;">$0</text></g><g class="ytick"><text text-anchor="end" x="79" y="4.199999999999999" style="font-family: 'Open Sans', verdana, arial, sans-serif; font-size: 12px; fill: rgb(42, 63, 95); fill-opacity: 1; white-space: pre; opacity: 1;" transform="translate(0,351.65)">$5M</text></g><g class="ytick"><text text-anchor="end" x="79" y="4.199999999999999" style="font-family: 'Open Sans', verdana, arial, sans-serif; font-size: 12px; fill: rgb(42, 63, 95); fill-opacity: 1; white-space: pre; opacity: 1;" transform="translate(0,283.31)">$10M</text></g><g class="ytick"><text text-anchor="end" x="79" y="4.199999999999999" style="font-family: 'Open Sans', verdana, arial, sans-serif; font-size: 12px; fill: rgb(42, 63, 95); fill-opacity: 1; white-space: pre; opacity: 1;" transform="translate(0,214.95999999999998)">$15M</text></g><g class="ytick"><text text-anchor="end" x="79" y="4.199999999999999" style="font-family: 'Open Sans', verdana, arial, sans-serif; font-size: 12px; fill: rgb(42, 63, 95); fill-opacity: 1; white-space: pre; opacity: 1;" transform="translate(0,146.61)">$20M</text></g></g><g class="overaxes-above"/></g></g><g class="polarlayer"/><g class="smithlayer"/><g class="ternarylayer"/><g class="geolayer"/><g class="funnelarealayer"/><g class="pielayer"/><g class="iciclelayer"/><g class="treemaplayer"/><g class="sunburstlayer"/><g class="glimages"/><defs id="topdefs-d274ca"><g class="clips"/></defs><g class="layer-above"><g class="imagelayer"/><g class="shapelayer"/></g><g class="infolayer"><g class="g-gtitle"><text class="gtitle" x="35" y="50" text-anchor="start" dy="0em" style="font-family: 'Open Sans', verdana, arial, sans-serif; font-size: 17px; fill: rgb(42, 63, 95); opacity: 1; font-weight: normal; white-space: pre;"><tspan class="line" dy="0em" x="35" y="50">Synthetix - sUSD &amp; sETH: Curve</tspan><tspan class="line" dy="1.3em" x="35" y="50">​<tspan style="font-size:70%" dy="-0.6em">Cumulative Net Dollar Flow since Program Announcement, Until Program End + 30 Days</tspan><tspan dy="0.42em">​</tspan></tspan></text></g><g class="g-xtitle"><text class="xtitle" x="350" y="460.8" text-anchor="middle" style="font-family: 'Open Sans', verdana, arial, sans-serif; font-size: 14px; fill: rgb(42, 63, 95); opacity: 1; font-weight: normal; white-space: pre;">Day</text></g><g class="g-ytitle"><text class="ytitle" transform="rotate(-90,24.168750000000003,260)" x="24.168750000000003" y="260" text-anchor="middle" style="font-family: 'Open Sans', verdana, arial, sans-serif; font-size: 14px; fill: rgb(42, 63, 95); opacity: 1; font-weight: normal; white-space: pre;">Cumulative Net Dollar Flow (N$F)</text></g></g></svg>