<svg class="main-svg" xmlns="http://www.w3.org/2000/svg" xmlns:xlink="http://www.w3.org/1999/xlink" width="700" height="500" style="" viewBox="0 0 700 500"><rect x="0" y="0" width="700" height="500" style="fill: rgb(255, 255, 255); fill-opacity: 1;"/><defs id="defs-dd3fca"><g class="clips"><clipPath id="clipdd3fcaxyplot" class="plotclip"><rect width="540" height="320"/></clipPath><clipPath class="axesclip" id="clipdd3fcax"><rect x="80" y="0" width="540" height="500"/></clipPath><clipPath class="axesclip" id="clipdd3fcay"><rect x="0" y="100" width="700" height="320"/></clipPath><clipPath class="axesclip" id="clipdd3fcaxy"><rect x="80" y="100" width="540" height="320"/></clipPath></g><g class="gradients"/><g class="patterns"/></defs><g class="bglayer"><rect class="bg" x="80" y="100" width="540" height="320" style="fill: rgb(229, 236, 246); fill-opacity: 1; stroke-width: 0;"/></g><g class="layer-below"><g class="imagelayer"/><g class="shapelayer"/></g><g class="cartesianlayer"><g class="subplot xy"><g class="layer-subplot"><g class="shapelayer"/><g class="imagelayer"/></g><g class="minor-gridlayer"><g class="x"/><g class="y"/></g><g class="gridlayer"><g class="x"><path class="xgrid crisp" transform="translate(95.21000000000001,0)" d="M0,100v320" style="stroke: rgb(255, 255, 255); stroke-opacity: 1; stroke-width: 1px;"/><path class="xgrid crisp" transform="translate(213.1,0)" d="M0,100v320" style="stroke: rgb(255, 255, 255); stroke-opacity: 1; stroke-width: 1px;"/><path class="xgrid crisp" transform="translate(327.18,0)" d="M0,100v320" style="stroke: rgb(255, 255, 255); stroke-opacity: 1; stroke-width: 1px;"/><path class="xgrid crisp" transform="translate(445.07,0)" d="M0,100v320" style="stroke: rgb(255, 255, 255); stroke-opacity: 1; stroke-width: 1px;"/><path class="xgrid crisp" transform="translate(562.96,0)" d="M0,100v320" style="stroke: rgb(255, 255, 255); stroke-opacity: 1; stroke-width: 1px;"/></g><g class="y"><path class="ygrid crisp" transform="translate(0,349.08000000000004)" d="M80,0h540" style="stroke: rgb(255, 255, 255); stroke-opacity: 1; stroke-width: 1px;"/><path class="ygrid crisp" transform="translate(0,278.15)" d="M80,0h540" style="stroke: rgb(255, 255, 255); stroke-opacity: 1; stroke-width: 1px;"/><path class="ygrid crisp" transform="translate(0,207.23000000000002)" d="M80,0h540" style="stroke: rgb(255, 255, 255); stroke-opacity: 1; stroke-width: 1px;"/><path class="ygrid crisp" transform="translate(0,136.31)" d="M80,0h540" style="stroke: rgb(255, 255, 255); stroke-opacity: 1; stroke-width: 1px;"/></g></g><g class="zerolinelayer"><path class="yzl zl crisp" transform="translate(0,420)" d="M80,0h540" style="stroke: rgb(255, 255, 255); stroke-opacity: 1; stroke-width: 2px;"/></g><path class="xlines-below"/><path class="ylines-below"/><g class="overlines-below"/><g class="xaxislayer-below"/><g class="yaxislayer-below"/><g class="overaxes-below"/><g class="plot" transform="translate(80,100)" clip-path="url(#clipdd3fcaxyplot)"><g class="scatterlayer mlayer"><g class="trace scatter trace6f7469" style="stroke-miterlimit: 2;"><g class="fills"><g><path class="js-fill" d="M540,320L0,320L0,289.51L3.8,288.93L7.61,282.76L15.21,281.5L19.01,278.97L22.82,278.35L26.62,275.43L30.42,266.23L34.23,268.44L38.03,270.13L41.83,265.72L49.44,264.92L53.24,267.09L57.04,268.14L60.85,268L64.65,259.33L68.45,259.28L72.25,258.11L76.06,258.16L79.86,251.05L83.66,251.51L87.46,251.26L91.27,252.98L95.07,253.38L98.87,251.76L102.68,252.11L106.48,254.23L110.28,259.48L114.08,257.68L117.89,253.05L121.69,251.62L125.49,251.91L129.3,251.32L136.9,249.85L140.7,245.25L152.11,243.07L155.92,239.33L159.72,254.17L163.52,255.83L167.32,267.61L171.13,267.94L178.73,274.2L182.54,275.03L186.34,265.98L190.14,265.83L193.94,264.53L197.75,264.05L205.35,263.01L209.15,263.56L212.96,262.6L216.76,264.06L220.56,260.41L224.37,258.65L228.17,254.04L231.97,253.28L235.77,257.63L239.58,258.16L243.38,256.84L247.18,250.39L250.99,248.25L254.79,248.04L258.59,247.71L262.39,246.06L266.2,250.57L270,247.45L273.8,249.71L277.61,245.27L281.41,250.68L285.21,228.88L289.01,235.86L292.82,232.65L296.62,236.71L300.42,256.31L304.23,256.34L308.03,262.08L311.83,262.87L315.63,261.93L319.44,255.28L323.24,254.58L334.65,254.38L338.45,254.42L346.06,256.2L349.86,257.98L357.46,258.27L361.27,259.11L365.07,259.15L368.87,258.31L372.68,258.4L376.48,259.36L380.28,259L384.08,261.36L387.89,258.93L391.69,258.94L395.49,255.71L399.3,255.09L406.9,251.64L410.7,248.67L422.11,246.82L425.92,241.72L429.72,238.86L433.52,230.26L437.32,225.46L441.13,215L444.93,216.04L448.73,207.47L460.14,159.28L463.94,149.49L467.75,143.87L471.55,141.93L475.35,138.39L479.15,129.91L482.96,126.31L486.76,119.95L490.56,116.1L494.37,113.85L498.17,108.86L501.97,82.24L505.77,66.44L509.58,44.44L517.18,47.98L520.99,41.14L524.79,35.09L528.59,34.29L532.39,31.69L536.2,23.37L540,16" style="fill: rgb(99, 110, 250); fill-opacity: 0.5; stroke-width: 0;"/></g></g><g class="errorbars"/><g class="lines"><path class="js-line" d="M0,289.51L3.8,288.93L7.61,282.76L15.21,281.5L19.01,278.97L22.82,278.35L26.62,275.43L30.42,266.23L34.23,268.44L38.03,270.13L41.83,265.72L49.44,264.92L53.24,267.09L57.04,268.14L60.85,268L64.65,259.33L68.45,259.28L72.25,258.11L76.06,258.16L79.86,251.05L83.66,251.51L87.46,251.26L91.27,252.98L95.07,253.38L98.87,251.76L102.68,252.11L106.48,254.23L110.28,259.48L114.08,257.68L117.89,253.05L121.69,251.62L125.49,251.91L129.3,251.32L136.9,249.85L140.7,245.25L152.11,243.07L155.92,239.33L159.72,254.17L163.52,255.83L167.32,267.61L171.13,267.94L178.73,274.2L182.54,275.03L186.34,265.98L190.14,265.83L193.94,264.53L197.75,264.05L205.35,263.01L209.15,263.56L212.96,262.6L216.76,264.06L220.56,260.41L224.37,258.65L228.17,254.04L231.97,253.28L235.77,257.63L239.58,258.16L243.38,256.84L247.18,250.39L250.99,248.25L254.79,248.04L258.59,247.71L262.39,246.06L266.2,250.57L270,247.45L273.8,249.71L277.61,245.27L281.41,250.68L285.21,228.88L289.01,235.86L292.82,232.65L296.62,236.71L300.42,256.31L304.23,256.34L308.03,262.08L311.83,262.87L315.63,261.93L319.44,255.28L323.24,254.58L334.65,254.38L338.45,254.42L346.06,256.2L349.86,257.98L357.46,258.27L361.27,259.11L365.07,259.15L368.87,258.31L372.68,258.4L376.48,259.36L380.28,259L384.08,261.36L387.89,258.93L391.69,258.94L395.49,255.71L399.3,255.09L406.9,251.64L410.7,248.67L422.11,246.82L425.92,241.72L429.72,238.86L433.52,230.26L437.32,225.46L441.13,215L444.93,216.04L448.73,207.47L460.14,159.28L463.94,149.49L467.75,143.87L471.55,141.93L475.35,138.39L479.15,129.91L482.96,126.31L486.76,119.95L490.56,116.1L494.37,113.85L498.17,108.86L501.97,82.24L505.77,66.44L509.58,44.44L517.18,47.98L520.99,41.14L524.79,35.09L528.59,34.29L532.39,31.69L536.2,23.37L540,16" style="vector-effect: non-scaling-stroke; fill: none; stroke: rgb(99, 110, 250); stroke-opacity: 1; stroke-width: 2px; opacity: 1;"/></g><g class="points"/><g class="text"/></g></g></g><g class="overplot"/><path class="xlines-above crisp" d="M0,0" style="fill: none;"/><path class="ylines-above crisp" d="M0,0" style="fill: none;"/><g class="overlines-above"/><g class="xaxislayer-above"><g class="xtick"><text text-anchor="middle" x="0" y="433" transform="translate(95.21000000000001,0)" style="font-family: 'Open Sans', verdana, arial, sans-serif; font-size: 12px; fill: rgb(42, 63, 95); fill-opacity: 1; white-space: pre; opacity: 1;">Oct 2022</text></g><g class="xtick"><text text-anchor="middle" x="0" y="433" style="font-family: 'Open Sans', verdana, arial, sans-serif; font-size: 12px; fill: rgb(42, 63, 95); fill-opacity: 1; white-space: pre; opacity: 1;" transform="translate(213.1,0)">Nov 2022</text></g><g class="xtick"><text text-anchor="middle" x="0" y="433" style="font-family: 'Open Sans', verdana, arial, sans-serif; font-size: 12px; fill: rgb(42, 63, 95); fill-opacity: 1; white-space: pre; opacity: 1;" transform="translate(327.18,0)">Dec 2022</text></g><g class="xtick"><text text-anchor="middle" x="0" y="433" style="font-family: 'Open Sans', verdana, arial, sans-serif; font-size: 12px; fill: rgb(42, 63, 95); fill-opacity: 1; white-space: pre; opacity: 1;" transform="translate(445.07,0)">Jan 2023</text></g><g class="xtick"><text text-anchor="middle" x="0" y="433" style="font-family: 'Open Sans', verdana, arial, sans-serif; font-size: 12px; fill: rgb(42, 63, 95); fill-opacity: 1; white-space: pre; opacity: 1;" transform="translate(562.96,0)">Feb 2023</text></g></g><g class="yaxislayer-above"><g class="ytick"><text text-anchor="end" x="79" y="4.199999999999999" transform="translate(0,420)" style="font-family: 'Open Sans', verdana, arial, sans-serif; font-size: 12px; fill: rgb(42, 63, 95); fill-opacity: 1; white-space: pre; opacity: 1;">$0</text></g><g class="ytick"><text text-anchor="end" x="79" y="4.199999999999999" style="font-family: 'Open Sans', verdana, arial, sans-serif; font-size: 12px; fill: rgb(42, 63, 95); fill-opacity: 1; white-space: pre; opacity: 1;" transform="translate(0,349.08000000000004)">$10M</text></g><g class="ytick"><text text-anchor="end" x="79" y="4.199999999999999" style="font-family: 'Open Sans', verdana, arial, sans-serif; font-size: 12px; fill: rgb(42, 63, 95); fill-opacity: 1; white-space: pre; opacity: 1;" transform="translate(0,278.15)">$20M</text></g><g class="ytick"><text text-anchor="end" x="79" y="4.199999999999999" style="font-family: 'Open Sans', verdana, arial, sans-serif; font-size: 12px; fill: rgb(42, 63, 95); fill-opacity: 1; white-space: pre; opacity: 1;" transform="translate(0,207.23000000000002)">$30M</text></g><g class="ytick"><text text-anchor="end" x="79" y="4.199999999999999" style="font-family: 'Open Sans', verdana, arial, sans-serif; font-size: 12px; fill: rgb(42, 63, 95); fill-opacity: 1; white-space: pre; opacity: 1;" transform="translate(0,136.31)">$40M</text></g></g><g class="overaxes-above"/></g></g><g class="polarlayer"/><g class="smithlayer"/><g class="ternarylayer"/><g class="geolayer"/><g class="funnelarealayer"/><g class="pielayer"/><g class="iciclelayer"/><g class="treemaplayer"/><g class="sunburstlayer"/><g class="glimages"/><defs id="topdefs-dd3fca"><g class="clips"/></defs><g class="layer-above"><g class="imagelayer"/><g class="shapelayer"/></g><g class="infolayer"><g class="g-gtitle"><text class="gtitle" x="35" y="50" text-anchor="start" dy="0em" style="font-family: 'Open Sans', verdana, arial, sans-serif; font-size: 17px; fill: rgb(42, 63, 95); opacity: 1; font-weight: normal; white-space: pre;"><tspan class="line" dy="0em" x="35" y="50">Synthetix - All Synthetix Velo Pools</tspan><tspan class="line" dy="1.3em" x="35" y="50">​<tspan style="font-size:70%" dy="-0.6em">Cumulative Net Flows since Program Announcement, Until Program End + 30 Days</tspan><tspan dy="0.42em">​</tspan></tspan></text></g><g class="g-xtitle"><text class="xtitle" x="350" y="460.8" text-anchor="middle" style="font-family: 'Open Sans', verdana, arial, sans-serif; font-size: 14px; fill: rgb(42, 63, 95); opacity: 1; font-weight: normal; white-space: pre;">Day</text></g><g class="g-ytitle"><text class="ytitle" transform="rotate(-90,24.168750000000003,260)" x="24.168750000000003" y="260" text-anchor="middle" style="font-family: 'Open Sans', verdana, arial, sans-serif; font-size: 14px; fill: rgb(42, 63, 95); opacity: 1; font-weight: normal; white-space: pre;">Cumulative Net Flows (USD)</text></g></g></svg>