<svg class="main-svg" xmlns="http://www.w3.org/2000/svg" xmlns:xlink="http://www.w3.org/1999/xlink" width="700" height="500" style="" viewBox="0 0 700 500"><rect x="0" y="0" width="700" height="500" style="fill: rgb(255, 255, 255); fill-opacity: 1;"/><defs id="defs-06e797"><g class="clips"><clipPath id="clip06e797xyplot" class="plotclip"><rect width="540" height="320"/></clipPath><clipPath class="axesclip" id="clip06e797x"><rect x="80" y="0" width="540" height="500"/></clipPath><clipPath class="axesclip" id="clip06e797y"><rect x="0" y="100" width="700" height="320"/></clipPath><clipPath class="axesclip" id="clip06e797xy"><rect x="80" y="100" width="540" height="320"/></clipPath></g><g class="gradients"/><g class="patterns"/></defs><g class="bglayer"><rect class="bg" x="80" y="100" width="540" height="320" style="fill: rgb(229, 236, 246); fill-opacity: 1; stroke-width: 0;"/></g><g class="layer-below"><g class="imagelayer"/><g class="shapelayer"/></g><g class="cartesianlayer"><g class="subplot xy"><g class="layer-subplot"><g class="shapelayer"/><g class="imagelayer"/></g><g class="minor-gridlayer"><g class="x"/><g class="y"/></g><g class="gridlayer"><g class="x"><path class="xgrid crisp" transform="translate(175.04000000000002,0)" d="M0,100v320" style="stroke: rgb(255, 255, 255); stroke-opacity: 1; stroke-width: 1px;"/><path class="xgrid crisp" transform="translate(308.96000000000004,0)" d="M0,100v320" style="stroke: rgb(255, 255, 255); stroke-opacity: 1; stroke-width: 1px;"/><path class="xgrid crisp" transform="translate(442.88,0)" d="M0,100v320" style="stroke: rgb(255, 255, 255); stroke-opacity: 1; stroke-width: 1px;"/><path class="xgrid crisp" transform="translate(563.8399999999999,0)" d="M0,100v320" style="stroke: rgb(255, 255, 255); stroke-opacity: 1; stroke-width: 1px;"/></g><g class="y"><path class="ygrid crisp" transform="translate(0,298.03999999999996)" d="M80,0h540" style="stroke: rgb(255, 255, 255); stroke-opacity: 1; stroke-width: 1px;"/><path class="ygrid crisp" transform="translate(0,235.39)" d="M80,0h540" style="stroke: rgb(255, 255, 255); stroke-opacity: 1; stroke-width: 1px;"/><path class="ygrid crisp" transform="translate(0,172.75)" d="M80,0h540" style="stroke: rgb(255, 255, 255); stroke-opacity: 1; stroke-width: 1px;"/><path class="ygrid crisp" transform="translate(0,110.11)" d="M80,0h540" style="stroke: rgb(255, 255, 255); stroke-opacity: 1; stroke-width: 1px;"/></g></g><g class="zerolinelayer"><path class="yzl zl crisp" transform="translate(0,360.68)" d="M80,0h540" style="stroke: rgb(255, 255, 255); stroke-opacity: 1; stroke-width: 2px;"/></g><path class="xlines-below"/><path class="ylines-below"/><g class="overlines-below"/><g class="xaxislayer-below"/><g class="yaxislayer-below"/><g class="overaxes-below"/><g class="plot" transform="translate(80,100)" clip-path="url(#clip06e797xyplot)"><g class="scatterlayer mlayer"><g class="trace scatter trace8d1d68" style="stroke-miterlimit: 2;"><g class="fills"><g><path class="js-fill" d="M540,260.68L0,260.68L0,260.77L8.64,254.09L12.96,252.56L25.92,251.72L30.24,251.84L34.56,251.56L38.88,252.22L51.84,250.8L56.16,249.32L64.8,247.64L69.12,248.91L103.68,249.9L108,249.68L112.32,249.58L116.64,248.43L120.96,250.97L125.28,250.55L133.92,250.35L138.24,249.97L142.56,250.01L146.88,252.07L151.2,253.4L155.52,253.16L159.84,251.76L164.16,251.56L181.44,250.97L185.76,248.28L190.08,248.98L194.4,248.27L198.72,246.79L203.04,246.68L216,245.94L220.32,242.92L228.96,242.97L233.28,239.36L237.6,238.82L241.92,242.89L246.24,240.13L250.56,240.65L259.2,240.02L263.52,240.72L267.84,240.72L272.16,237.96L276.48,236.01L280.8,236.65L285.12,233.39L289.44,233.08L298.08,228.99L302.4,228.77L311.04,230.39L315.36,227.85L319.68,226.22L324,205.29L328.32,207.24L332.64,206.91L336.96,200.43L341.28,200.02L345.6,200.54L349.92,192.48L354.24,238.37L358.56,240.82L362.88,237.07L367.2,220.27L371.52,220.34L375.84,219.27L380.16,211.52L384.48,210.71L388.8,171.06L393.12,169.62L397.44,158.75L401.76,159.62L406.08,147.97L410.4,148.38L414.72,112.83L419.04,113.36L423.36,111.95L427.68,111.48L432,97.01L436.32,96.98L440.64,98.42L444.96,77.55L449.28,77.61L453.6,75.68L457.92,74.7L462.24,65.78L466.56,50.3L470.88,48.36L479.52,47.45L483.84,43.4L488.16,43.34L492.48,31.71L501.12,32.38L505.44,24.22L509.76,21.61L514.08,20.71L518.4,16L522.72,23.42L527.04,23.67L531.36,28.14L535.68,24.27L540,304" style="fill: rgb(99, 110, 250); fill-opacity: 0.5; stroke-width: 0;"/></g></g><g class="errorbars"/><g class="lines"><path class="js-line" d="M0,260.77L8.64,254.09L12.96,252.56L25.92,251.72L30.24,251.84L34.56,251.56L38.88,252.22L51.84,250.8L56.16,249.32L64.8,247.64L69.12,248.91L103.68,249.9L108,249.68L112.32,249.58L116.64,248.43L120.96,250.97L125.28,250.55L133.92,250.35L138.24,249.97L142.56,250.01L146.88,252.07L151.2,253.4L155.52,253.16L159.84,251.76L164.16,251.56L181.44,250.97L185.76,248.28L190.08,248.98L194.4,248.27L198.72,246.79L203.04,246.68L216,245.94L220.32,242.92L228.96,242.97L233.28,239.36L237.6,238.82L241.92,242.89L246.24,240.13L250.56,240.65L259.2,240.02L263.52,240.72L267.84,240.72L272.16,237.96L276.48,236.01L280.8,236.65L285.12,233.39L289.44,233.08L298.08,228.99L302.4,228.77L311.04,230.39L315.36,227.85L319.68,226.22L324,205.29L328.32,207.24L332.64,206.91L336.96,200.43L341.28,200.02L345.6,200.54L349.92,192.48L354.24,238.37L358.56,240.82L362.88,237.07L367.2,220.27L371.52,220.34L375.84,219.27L380.16,211.52L384.48,210.71L388.8,171.06L393.12,169.62L397.44,158.75L401.76,159.62L406.08,147.97L410.4,148.38L414.72,112.83L419.04,113.36L423.36,111.95L427.68,111.48L432,97.01L436.32,96.98L440.64,98.42L444.96,77.55L449.28,77.61L453.6,75.68L457.92,74.7L462.24,65.78L466.56,50.3L470.88,48.36L479.52,47.45L483.84,43.4L488.16,43.34L492.48,31.71L501.12,32.38L505.44,24.22L509.76,21.61L514.08,20.71L518.4,16L522.72,23.42L527.04,23.67L531.36,28.14L535.68,24.27L540,304" style="vector-effect: non-scaling-stroke; fill: none; stroke: rgb(99, 110, 250); stroke-opacity: 1; stroke-width: 2px; opacity: 1;"/></g><g class="points"/><g class="text"/></g></g></g><g class="overplot"/><path class="xlines-above crisp" d="M0,0" style="fill: none;"/><path class="ylines-above crisp" d="M0,0" style="fill: none;"/><g class="overlines-above"/><g class="xaxislayer-above"><g class="xtick"><text text-anchor="middle" x="0" y="433" transform="translate(175.04000000000002,0)" style="font-family: 'Open Sans', verdana, arial, sans-serif; font-size: 12px; fill: rgb(42, 63, 95); fill-opacity: 1; white-space: pre; opacity: 1;">Dec 2022</text></g><g class="xtick"><text text-anchor="middle" x="0" y="433" style="font-family: 'Open Sans', verdana, arial, sans-serif; font-size: 12px; fill: rgb(42, 63, 95); fill-opacity: 1; white-space: pre; opacity: 1;" transform="translate(308.96000000000004,0)">Jan 2023</text></g><g class="xtick"><text text-anchor="middle" x="0" y="433" style="font-family: 'Open Sans', verdana, arial, sans-serif; font-size: 12px; fill: rgb(42, 63, 95); fill-opacity: 1; white-space: pre; opacity: 1;" transform="translate(442.88,0)">Feb 2023</text></g><g class="xtick"><text text-anchor="middle" x="0" y="433" style="font-family: 'Open Sans', verdana, arial, sans-serif; font-size: 12px; fill: rgb(42, 63, 95); fill-opacity: 1; white-space: pre; opacity: 1;" transform="translate(563.8399999999999,0)">Mar 2023</text></g></g><g class="yaxislayer-above"><g class="ytick"><text text-anchor="end" x="79" y="4.199999999999999" transform="translate(0,360.68)" style="font-family: 'Open Sans', verdana, arial, sans-serif; font-size: 12px; fill: rgb(42, 63, 95); fill-opacity: 1; white-space: pre; opacity: 1;">$0</text></g><g class="ytick"><text text-anchor="end" x="79" y="4.199999999999999" style="font-family: 'Open Sans', verdana, arial, sans-serif; font-size: 12px; fill: rgb(42, 63, 95); fill-opacity: 1; white-space: pre; opacity: 1;" transform="translate(0,298.03999999999996)">$5M</text></g><g class="ytick"><text text-anchor="end" x="79" y="4.199999999999999" style="font-family: 'Open Sans', verdana, arial, sans-serif; font-size: 12px; fill: rgb(42, 63, 95); fill-opacity: 1; white-space: pre; opacity: 1;" transform="translate(0,235.39)">$10M</text></g><g class="ytick"><text text-anchor="end" x="79" y="4.199999999999999" style="font-family: 'Open Sans', verdana, arial, sans-serif; font-size: 12px; fill: rgb(42, 63, 95); fill-opacity: 1; white-space: pre; opacity: 1;" transform="translate(0,172.75)">$15M</text></g><g class="ytick"><text text-anchor="end" x="79" y="4.199999999999999" style="font-family: 'Open Sans', verdana, arial, sans-serif; font-size: 12px; fill: rgb(42, 63, 95); fill-opacity: 1; white-space: pre; opacity: 1;" transform="translate(0,110.11)">$20M</text></g></g><g class="overaxes-above"/></g></g><g class="polarlayer"/><g class="smithlayer"/><g class="ternarylayer"/><g class="geolayer"/><g class="funnelarealayer"/><g class="pielayer"/><g class="iciclelayer"/><g class="treemaplayer"/><g class="sunburstlayer"/><g class="glimages"/><defs id="topdefs-06e797"><g class="clips"/></defs><g class="layer-above"><g class="imagelayer"/><g class="shapelayer"/></g><g class="infolayer"><g class="g-gtitle"><text class="gtitle" x="35" y="50" text-anchor="start" dy="0em" style="font-family: 'Open Sans', verdana, arial, sans-serif; font-size: 17px; fill: rgb(42, 63, 95); opacity: 1; font-weight: normal; white-space: pre;"><tspan class="line" dy="0em" x="35" y="50">Rocket Pool - WETH/rETH: Beethoven X</tspan><tspan class="line" dy="1.3em" x="35" y="50">​<tspan style="font-size:70%" dy="-0.6em">Cumulative Net Flows since Program Announcement, Until Program End + 30 Days</tspan><tspan dy="0.42em">​</tspan></tspan></text></g><g class="g-xtitle"><text class="xtitle" x="350" y="460.8" text-anchor="middle" style="font-family: 'Open Sans', verdana, arial, sans-serif; font-size: 14px; fill: rgb(42, 63, 95); opacity: 1; font-weight: normal; white-space: pre;">Day</text></g><g class="g-ytitle"><text class="ytitle" transform="rotate(-90,24.168750000000003,260)" x="24.168750000000003" y="260" text-anchor="middle" style="font-family: 'Open Sans', verdana, arial, sans-serif; font-size: 14px; fill: rgb(42, 63, 95); opacity: 1; font-weight: normal; white-space: pre;">Cumulative Net Flows (USD)</text></g></g></svg>