<svg class="main-svg" xmlns="http://www.w3.org/2000/svg" xmlns:xlink="http://www.w3.org/1999/xlink" width="700" height="500" style="" viewBox="0 0 700 500"><rect x="0" y="0" width="700" height="500" style="fill: rgb(255, 255, 255); fill-opacity: 1;"/><defs id="defs-b94480"><g class="clips"><clipPath id="clipb94480xyplot" class="plotclip"><rect width="466" height="320"/></clipPath><clipPath class="axesclip" id="clipb94480x"><rect x="80" y="0" width="466" height="500"/></clipPath><clipPath class="axesclip" id="clipb94480y"><rect x="0" y="100" width="700" height="320"/></clipPath><clipPath class="axesclip" id="clipb94480xy"><rect x="80" y="100" width="466" height="320"/></clipPath></g><g class="gradients"/><g class="patterns"/></defs><g class="bglayer"><rect class="bg" x="80" y="100" width="466" height="320" style="fill: rgb(229, 236, 246); fill-opacity: 1; stroke-width: 0;"/></g><g class="layer-below"><g class="imagelayer"/><g class="shapelayer"/></g><g class="cartesianlayer"><g class="subplot xy"><g class="layer-subplot"><g class="shapelayer"/><g class="imagelayer"/></g><g class="minor-gridlayer"><g class="x"/><g class="y"/></g><g class="gridlayer"><g class="x"><path class="xgrid crisp" transform="translate(115.75,0)" d="M0,100v320" style="stroke: rgb(255, 255, 255); stroke-opacity: 1; stroke-width: 1px;"/><path class="xgrid crisp" transform="translate(191.07,0)" d="M0,100v320" style="stroke: rgb(255, 255, 255); stroke-opacity: 1; stroke-width: 1px;"/><path class="xgrid crisp" transform="translate(268.95,0)" d="M0,100v320" style="stroke: rgb(255, 255, 255); stroke-opacity: 1; stroke-width: 1px;"/><path class="xgrid crisp" transform="translate(346.83,0)" d="M0,100v320" style="stroke: rgb(255, 255, 255); stroke-opacity: 1; stroke-width: 1px;"/><path class="xgrid crisp" transform="translate(425.99,0)" d="M0,100v320" style="stroke: rgb(255, 255, 255); stroke-opacity: 1; stroke-width: 1px;"/><path class="xgrid crisp" transform="translate(503.87,0)" d="M0,100v320" style="stroke: rgb(255, 255, 255); stroke-opacity: 1; stroke-width: 1px;"/></g><g class="y"><path class="ygrid crisp" transform="translate(0,341.08000000000004)" d="M80,0h466" style="stroke: rgb(255, 255, 255); stroke-opacity: 1; stroke-width: 1px;"/><path class="ygrid crisp" transform="translate(0,272.88)" d="M80,0h466" style="stroke: rgb(255, 255, 255); stroke-opacity: 1; stroke-width: 1px;"/><path class="ygrid crisp" transform="translate(0,204.69)" d="M80,0h466" style="stroke: rgb(255, 255, 255); stroke-opacity: 1; stroke-width: 1px;"/><path class="ygrid crisp" transform="translate(0,136.49)" d="M80,0h466" style="stroke: rgb(255, 255, 255); stroke-opacity: 1; stroke-width: 1px;"/></g></g><g class="zerolinelayer"><path class="yzl zl crisp" transform="translate(0,409.28)" d="M80,0h466" style="stroke: rgb(255, 255, 255); stroke-opacity: 1; stroke-width: 2px;"/></g><path class="xlines-below"/><path class="ylines-below"/><g class="overlines-below"/><g class="xaxislayer-below"/><g class="yaxislayer-below"/><g class="overaxes-below"/><g class="plot" transform="translate(80,100)" clip-path="url(#clipb94480xyplot)"><g class="scatterlayer mlayer"><g class="trace scatter traceafb4b5" style="stroke-miterlimit: 2; opacity: 1;"><g class="fills"/><g class="errorbars"/><g class="lines"><path class="js-line" d="M0,292.51L1.28,298.72L2.55,295.22L3.83,296.83L5.11,296.14L6.38,297.42L7.66,285.43L8.94,286.66L10.21,299.87L11.49,293.92L12.77,280.14L14.04,292.04L15.32,291.25L16.6,295.86L17.87,293.93L19.15,297.41L20.43,297.44L21.7,300.34L22.98,299.99L24.26,298.89L25.53,295.92L26.81,298.52L28.09,284.11L29.36,297.31L30.64,295.47L31.92,301.05L33.19,298.94L34.47,296.2L35.75,301.91L37.02,302.23L38.3,301.08L39.58,300.61L40.85,284.42L42.13,292.4L43.41,280.78L45.96,299.45L47.24,296.58L48.52,300.22L49.79,300.24L51.07,300.43L52.35,293.69L53.62,299.05L54.9,298.69L56.18,299.63L57.45,293.76L58.73,293.51L60.01,295.75L61.28,276.9L62.56,290.07L63.84,299.64L65.11,293.38L66.39,296.84L67.67,294.23L68.94,300.45L70.22,292.14L71.5,302.68L72.77,303.21L74.05,300.7L75.33,300.7L76.6,299.05L77.88,302.43L79.16,289.63L80.43,301.72L81.71,303.37L82.99,295.64L84.26,300.06L85.54,300.11L88.09,295.28L89.37,301.82L94.48,300.53L95.75,301.12L97.03,301.4L98.31,303.42L100.86,299.64L102.14,300.17L103.41,298.11L104.69,294.43L105.97,301.16L107.24,302.33L108.52,298.17L109.8,297.97L111.07,297.38L112.35,300.62L113.63,301.79L114.9,297.62L116.18,303.63L117.46,301.96L118.73,299.38L120.01,299.49L121.29,298.87L122.56,300.61L123.84,300.1L125.12,303.87L126.39,302.62L127.67,302.69L128.95,300.47L130.22,294.93L131.5,297.22L132.78,294.94L135.33,303.01L136.61,302.7L139.16,297.82L140.44,280.69L141.72,282.05L142.99,269.8L145.55,177.42L146.82,196.61L148.1,113.76L149.38,167.03L150.65,163.17L151.93,169.92L153.21,286.16L154.48,278.6L155.76,279.82L157.04,279.91L158.31,285L159.59,264.21L160.87,287.71L162.14,267.8L163.42,216.69L164.7,264.42L165.97,270.26L167.25,269.42L168.53,277.4L169.8,290.48L171.08,298.74L172.36,139.73L173.63,154.68L174.91,142.47L177.46,290.23L178.74,293.39L180.02,247.38L181.29,245.26L182.57,287.48L183.85,293.03L185.12,248.76L186.4,254.05L187.68,295.52L188.95,295.51L190.23,296.83L191.51,296.14L194.06,279.54L195.34,281.96L196.61,289.72L197.89,286.64L199.17,180.07L200.44,272.82L201.72,250.24L203,262.2L204.27,275.83L205.55,300.53L206.83,301.18L209.38,293.91L210.66,294.5L211.93,292.99L215.76,299.58L217.04,297.78L219.59,303.35L220.87,292.06L222.15,286.17L223.42,300.76L224.7,304L225.98,295.52L228.53,16L229.81,192.62L232.36,274.77L233.64,273.54L234.92,267.84L236.19,265.81L237.47,265.48L238.75,271.09L240.02,233.95L241.3,267.57L242.58,190.2L243.85,65.08L246.41,152.69L247.68,257.76L248.96,280.62L250.24,257.2L251.51,278.7L252.79,269.9L255.34,284.96L256.62,289.26L257.9,281.42L259.17,286.51L260.45,289.15L261.73,286.79L263,291.48L264.28,288.38L266.83,219.15L268.11,302.7L269.39,302.74L270.66,280.24L273.22,248.32L274.49,274.32L275.77,276.5L277.05,301.18L278.32,298.99L279.6,281.21L280.88,279.8L282.15,247.82L283.43,288.29L284.71,282.2L285.98,259.82L287.26,279.82L288.54,239.53L289.81,248.76L292.37,269.37L293.64,268.74L294.92,281.07L296.2,268.81L297.47,255.72L298.75,266.27L300.03,238.8L301.3,140.01L303.86,244.9L305.13,231.94L306.41,271.5L307.69,232.88L308.96,246.13L310.24,238.9L311.52,207.22L312.79,233.64L314.07,230.74L315.35,175.78L316.62,218.42L317.9,107.89L320.45,228.32L321.73,227.91L323.01,234.44L324.28,225.25L325.56,234.51L326.84,207.46L328.12,241.83L329.39,197.11L330.67,233.89L331.95,248.55L335.78,215.33L337.05,241.31L338.33,205.5L339.61,242.17L340.88,246.1L342.16,219.33L343.44,211.64L344.71,213.07L345.99,245.04L347.27,207.71L348.54,257.87L349.82,258.84L351.1,255.56L352.37,205.91L353.65,232.79L354.93,223.07L356.2,215.77L357.48,249.11L358.76,245.66L360.03,224.45L361.31,201.01L362.59,229.99L363.86,141.8L365.14,189.8L366.42,236.29L367.69,222.74L368.97,196.57L370.25,245.13L371.52,168.01L372.8,245.31L374.08,244.75L375.35,264.24L376.63,267.97L377.91,260.91L380.46,246.13L381.74,258.03L383.01,234.39L384.29,271.37L385.57,273.59L386.84,256.42L388.12,267.13L389.4,269.37L390.67,245.69L391.95,265.32L393.23,276.89L394.5,277.98L395.78,278.15L397.06,276.5L398.33,280.4L399.61,215.59L400.89,274.94L402.16,285.13L404.72,281.7L405.99,281.59L407.27,284.51L408.55,283.06L409.82,275.05L411.1,285.23L413.65,276.5L414.93,252.77L416.21,250.66L417.48,251.3L418.76,248.35L420.04,252.38L423.87,280.78L425.15,271.04L426.42,284.26L427.7,267.81L428.98,286.29L430.25,286.02L431.53,275.5L432.81,205.49L434.08,199.45L435.36,243.14L437.91,280.12L439.19,285.22L440.47,278.94L441.74,284.16L443.02,288.12L444.3,284.6L445.57,285.56L446.85,294.33L448.13,290.96L449.4,275.99L450.68,279.01L451.96,277.65L453.23,289.27L454.51,290.34L457.06,295.06L458.34,275.68L459.62,282.77L460.89,277.99L462.17,287.19L463.45,286.82L464.72,293.77L466,295.59" style="vector-effect: non-scaling-stroke; fill: none; stroke: rgb(99, 110, 250); stroke-opacity: 1; stroke-width: 2px; opacity: 1;"/></g><g class="points"/><g class="text"/></g></g></g><g class="overplot"/><path class="xlines-above crisp" d="M0,0" style="fill: none;"/><path class="ylines-above crisp" d="M0,0" style="fill: none;"/><g class="overlines-above"/><g class="xaxislayer-above"><g class="xtick"><text text-anchor="middle" x="0" y="433" transform="translate(115.75,0)" style="font-family: 'Open Sans', verdana, arial, sans-serif; font-size: 12px; fill: rgb(42, 63, 95); fill-opacity: 1; white-space: pre; opacity: 1;">Jan 2022</text></g><g class="xtick"><text text-anchor="middle" x="0" y="433" style="font-family: 'Open Sans', verdana, arial, sans-serif; font-size: 12px; fill: rgb(42, 63, 95); fill-opacity: 1; white-space: pre; opacity: 1;" transform="translate(191.07,0)">Mar 2022</text></g><g class="xtick"><text text-anchor="middle" x="0" y="433" style="font-family: 'Open Sans', verdana, arial, sans-serif; font-size: 12px; fill: rgb(42, 63, 95); fill-opacity: 1; white-space: pre; opacity: 1;" transform="translate(268.95,0)">May 2022</text></g><g class="xtick"><text text-anchor="middle" x="0" y="433" style="font-family: 'Open Sans', verdana, arial, sans-serif; font-size: 12px; fill: rgb(42, 63, 95); fill-opacity: 1; white-space: pre; opacity: 1;" transform="translate(346.83,0)">Jul 2022</text></g><g class="xtick"><text text-anchor="middle" x="0" y="433" style="font-family: 'Open Sans', verdana, arial, sans-serif; font-size: 12px; fill: rgb(42, 63, 95); fill-opacity: 1; white-space: pre; opacity: 1;" transform="translate(425.99,0)">Sep 2022</text></g><g class="xtick"><text text-anchor="middle" x="0" y="433" style="font-family: 'Open Sans', verdana, arial, sans-serif; font-size: 12px; fill: rgb(42, 63, 95); fill-opacity: 1; white-space: pre; opacity: 1;" transform="translate(503.87,0)">Nov 2022</text></g></g><g class="yaxislayer-above"><g class="ytick"><text text-anchor="end" x="79" y="4.199999999999999" transform="translate(0,409.28)" style="font-family: 'Open Sans', verdana, arial, sans-serif; font-size: 12px; fill: rgb(42, 63, 95); fill-opacity: 1; white-space: pre; opacity: 1;">$0</text></g><g class="ytick"><text text-anchor="end" x="79" y="4.199999999999999" style="font-family: 'Open Sans', verdana, arial, sans-serif; font-size: 12px; fill: rgb(42, 63, 95); fill-opacity: 1; white-space: pre; opacity: 1;" transform="translate(0,341.08000000000004)">$200k</text></g><g class="ytick"><text text-anchor="end" x="79" y="4.199999999999999" style="font-family: 'Open Sans', verdana, arial, sans-serif; font-size: 12px; fill: rgb(42, 63, 95); fill-opacity: 1; white-space: pre; opacity: 1;" transform="translate(0,272.88)">$400k</text></g><g class="ytick"><text text-anchor="end" x="79" y="4.199999999999999" style="font-family: 'Open Sans', verdana, arial, sans-serif; font-size: 12px; fill: rgb(42, 63, 95); fill-opacity: 1; white-space: pre; opacity: 1;" transform="translate(0,204.69)">$600k</text></g><g class="ytick"><text text-anchor="end" x="79" y="4.199999999999999" style="font-family: 'Open Sans', verdana, arial, sans-serif; font-size: 12px; fill: rgb(42, 63, 95); fill-opacity: 1; white-space: pre; opacity: 1;" transform="translate(0,136.49)">$800k</text></g></g><g class="overaxes-above"/></g></g><g class="polarlayer"/><g class="smithlayer"/><g class="ternarylayer"/><g class="geolayer"/><g class="funnelarealayer"/><g class="pielayer"/><g class="iciclelayer"/><g class="treemaplayer"/><g class="sunburstlayer"/><g class="glimages"/><defs id="topdefs-b94480"><g class="clips"/><clipPath id="legendb94480"><rect width="133" height="48" x="0" y="0"/></clipPath></defs><g class="layer-above"><g class="imagelayer"/><g class="shapelayer"/></g><g class="infolayer"><g class="legend" pointer-events="all" transform="translate(555.3199999999999,100)"><rect class="bg" shape-rendering="crispEdges" style="stroke: rgb(68, 68, 68); stroke-opacity: 1; fill: rgb(255, 255, 255); fill-opacity: 1; stroke-width: 0px;" width="133" height="48" x="0" y="0"/><g class="scrollbox" transform="" clip-path="url(#legendb94480)"><text class="legendtitletext" text-anchor="start" x="2" y="18.2" style="font-family: 'Open Sans', verdana, arial, sans-serif; font-size: 14px; fill: rgb(42, 63, 95); fill-opacity: 1; white-space: pre;">metadata.blockchain</text><g class="groups" transform=""><g class="traces" transform="translate(0,32.7)" style="opacity: 1;"><text class="legendtext" text-anchor="start" x="40" y="4.680000000000001" style="font-family: 'Open Sans', verdana, arial, sans-serif; font-size: 12px; fill: rgb(42, 63, 95); fill-opacity: 1; white-space: pre;">Optimism</text><g class="layers" style="opacity: 1;"><g class="legendfill"/><g class="legendlines"><path class="js-line" d="M5,0h30" style="fill: none; stroke: rgb(99, 110, 250); stroke-opacity: 1; stroke-width: 2px;"/></g><g class="legendsymbols"><g class="legendpoints"/></g></g><rect class="legendtoggle" x="0" y="-9.5" width="90.671875" height="19" style="fill: rgb(0, 0, 0); fill-opacity: 0;"/></g></g></g><rect class="scrollbar" rx="20" ry="3" width="0" height="0" style="fill: rgb(128, 139, 164); fill-opacity: 1;" x="0" y="0"/></g><g class="g-gtitle"><text class="gtitle" x="35" y="50" text-anchor="start" dy="0em" style="font-family: 'Open Sans', verdana, arial, sans-serif; font-size: 17px; fill: rgb(42, 63, 95); opacity: 1; font-weight: normal; white-space: pre;">Sum Fees Earned on apps by Chain (USD)</text></g><g class="g-xtitle"><text class="xtitle" x="313" y="460.8" text-anchor="middle" style="font-family: 'Open Sans', verdana, arial, sans-serif; font-size: 14px; fill: rgb(42, 63, 95); opacity: 1; font-weight: normal; white-space: pre;">date</text></g><g class="g-ytitle"><text class="ytitle" transform="rotate(-90,21.496875000000003,260)" x="21.496875000000003" y="260" text-anchor="middle" style="font-family: 'Open Sans', verdana, arial, sans-serif; font-size: 14px; fill: rgb(42, 63, 95); opacity: 1; font-weight: normal; white-space: pre;">results.oneDayTotalFees</text></g></g></svg>