<svg class="main-svg" xmlns="http://www.w3.org/2000/svg" xmlns:xlink="http://www.w3.org/1999/xlink" width="700" height="500" style="" viewBox="0 0 700 500"><rect x="0" y="0" width="700" height="500" style="fill: rgb(255, 255, 255); fill-opacity: 1;"/><defs id="defs-8eac1a"><g class="clips"><clipPath id="clip8eac1axyplot" class="plotclip"><rect width="466" height="320"/></clipPath><clipPath class="axesclip" id="clip8eac1ax"><rect x="80" y="0" width="466" height="500"/></clipPath><clipPath class="axesclip" id="clip8eac1ay"><rect x="0" y="100" width="700" height="320"/></clipPath><clipPath class="axesclip" id="clip8eac1axy"><rect x="80" y="100" width="466" height="320"/></clipPath></g><g class="gradients"/><g class="patterns"/></defs><g class="bglayer"><rect class="bg" x="80" y="100" width="466" height="320" style="fill: rgb(229, 236, 246); fill-opacity: 1; stroke-width: 0;"/></g><g class="layer-below"><g class="imagelayer"/><g class="shapelayer"/></g><g class="cartesianlayer"><g class="subplot xy"><g class="layer-subplot"><g class="shapelayer"/><g class="imagelayer"/></g><g class="minor-gridlayer"><g class="x"/><g class="y"/></g><g class="gridlayer"><g class="x"><path class="xgrid crisp" transform="translate(155.4,0)" d="M0,100v320" style="stroke: rgb(255, 255, 255); stroke-opacity: 1; stroke-width: 1px;"/><path class="xgrid crisp" transform="translate(244.38,0)" d="M0,100v320" style="stroke: rgb(255, 255, 255); stroke-opacity: 1; stroke-width: 1px;"/><path class="xgrid crisp" transform="translate(336.38,0)" d="M0,100v320" style="stroke: rgb(255, 255, 255); stroke-opacity: 1; stroke-width: 1px;"/><path class="xgrid crisp" transform="translate(428.37,0)" d="M0,100v320" style="stroke: rgb(255, 255, 255); stroke-opacity: 1; stroke-width: 1px;"/><path class="xgrid crisp" transform="translate(521.87,0)" d="M0,100v320" style="stroke: rgb(255, 255, 255); stroke-opacity: 1; stroke-width: 1px;"/></g><g class="y"><path class="ygrid crisp" transform="translate(0,341.08000000000004)" d="M80,0h466" style="stroke: rgb(255, 255, 255); stroke-opacity: 1; stroke-width: 1px;"/><path class="ygrid crisp" transform="translate(0,272.88)" d="M80,0h466" style="stroke: rgb(255, 255, 255); stroke-opacity: 1; stroke-width: 1px;"/><path class="ygrid crisp" transform="translate(0,204.69)" d="M80,0h466" style="stroke: rgb(255, 255, 255); stroke-opacity: 1; stroke-width: 1px;"/><path class="ygrid crisp" transform="translate(0,136.49)" d="M80,0h466" style="stroke: rgb(255, 255, 255); stroke-opacity: 1; stroke-width: 1px;"/></g></g><g class="zerolinelayer"><path class="yzl zl crisp" transform="translate(0,409.28)" d="M80,0h466" style="stroke: rgb(255, 255, 255); stroke-opacity: 1; stroke-width: 2px;"/></g><path class="xlines-below"/><path class="ylines-below"/><g class="overlines-below"/><g class="xaxislayer-below"/><g class="yaxislayer-below"/><g class="overaxes-below"/><g class="plot" transform="translate(80,100)" clip-path="url(#clip8eac1axyplot)"><g class="scatterlayer mlayer"><g class="trace scatter tracefc0e59" style="stroke-miterlimit: 2; opacity: 1;"><g class="fills"/><g class="errorbars"/><g class="lines"><path class="js-line" d="M0,295.36L3.02,288.59L4.52,291.34L7.54,284.43L9.05,290.43L10.56,281.13L12.06,293.58L13.57,291.83L15.08,293.32L16.59,293.96L18.1,292.11L19.61,296.36L21.11,290.66L22.62,297.69L24.13,295.54L27.15,291.19L28.65,295.99L33.18,292.51L34.69,298.72L36.19,295.22L37.7,296.83L39.21,296.14L40.72,297.42L42.23,285.43L43.73,286.66L45.24,299.87L46.75,293.92L48.26,280.14L49.77,292.04L51.28,291.25L52.78,295.86L54.29,293.93L55.8,297.41L57.31,297.44L58.82,300.34L61.83,298.89L63.34,295.92L64.85,298.52L66.36,284.11L67.86,297.31L69.37,295.47L70.88,301.05L72.39,298.94L73.9,296.2L75.4,301.91L76.91,302.23L78.42,301.08L79.93,300.61L81.44,284.42L82.94,292.4L84.45,280.78L87.47,299.45L88.98,296.58L90.49,300.22L91.99,300.24L93.5,300.43L95.01,293.69L96.52,299.05L98.03,298.69L99.53,299.63L101.04,293.76L102.55,293.51L104.06,295.75L105.57,276.9L107.07,290.07L108.58,299.64L110.09,293.38L111.6,296.84L113.11,294.23L114.61,300.45L116.12,292.14L117.63,302.68L119.14,303.21L120.65,300.7L122.16,300.7L123.66,299.05L125.17,302.43L126.68,289.63L128.19,301.72L129.7,303.37L131.2,295.64L132.71,300.06L134.22,300.11L137.24,295.28L138.74,301.82L144.78,300.53L146.28,301.12L147.79,301.4L149.3,303.42L152.32,299.64L153.83,300.17L155.33,298.11L156.84,294.43L158.35,301.16L159.86,302.33L161.37,298.17L162.87,297.97L164.38,297.38L165.89,300.62L167.4,301.79L168.91,297.62L170.41,303.63L171.92,301.96L173.43,299.38L174.94,299.49L176.45,298.87L177.95,300.61L179.46,300.1L180.97,303.87L182.48,302.62L183.99,302.69L185.5,300.47L187,294.93L188.51,297.22L190.02,294.94L193.04,303.01L194.54,302.7L197.56,297.82L199.07,280.69L200.58,282.05L202.08,269.8L205.1,177.42L206.61,196.61L208.12,113.76L209.62,167.03L211.13,163.17L212.64,169.92L214.15,286.16L215.66,278.6L217.17,279.82L218.67,279.91L220.18,285L221.69,264.21L223.2,287.71L224.71,267.8L226.21,216.69L227.72,264.42L229.23,270.26L230.74,269.42L232.25,277.4L233.75,290.48L235.26,298.74L236.77,139.73L238.28,154.68L239.79,142.47L242.8,290.23L244.31,293.39L245.82,247.38L247.33,245.26L248.83,287.48L250.34,293.03L251.85,248.76L253.36,254.05L254.87,295.52L256.38,295.51L257.88,296.83L259.39,296.14L262.41,279.54L263.92,281.96L265.42,289.72L266.93,286.64L268.44,180.07L269.95,272.82L271.46,250.24L272.96,262.2L274.47,275.83L275.98,300.53L277.49,301.18L279,300.42L280.5,293.91L282.01,294.5L283.52,292.99L285.03,295.18L286.54,298.67L288.05,299.58L289.55,297.78L291.06,300.46L292.57,303.35L294.08,292.06L295.59,286.17L297.09,300.76L298.6,304L300.11,295.52L303.13,16L304.63,192.62L307.65,274.77L309.16,273.54L310.67,267.84L312.17,265.81L313.68,265.48L315.19,271.09L316.7,233.95L318.21,267.57L319.72,190.2L321.22,65.08L324.24,152.69L325.75,257.76L327.26,280.62L328.76,257.2L330.27,278.7L331.78,269.9L334.8,284.96L336.3,289.26L337.81,281.42L339.32,286.51L340.83,289.15L342.34,286.79L343.84,291.48L345.35,288.38L348.37,219.15L349.88,302.7L351.39,302.74L352.89,280.24L354.4,257.84L355.91,248.32L357.42,274.32L358.93,276.5L360.43,301.18L361.94,298.99L363.45,281.21L364.96,279.8L366.47,247.82L367.97,288.29L369.48,282.2L370.99,259.82L372.5,279.82L374.01,239.53L378.53,269.37L380.04,268.74L381.55,281.07L383.06,268.81L384.56,255.72L386.07,266.27L387.58,238.8L389.09,140.01L392.1,244.9L393.61,231.94L395.12,271.5L396.63,232.88L398.14,246.13L399.64,238.9L401.15,207.22L402.66,233.64L404.17,230.74L405.68,175.78L407.18,218.42L408.69,107.89L411.71,228.32L413.22,227.91L414.72,234.44L416.23,225.25L417.74,234.51L419.25,207.46L420.76,241.83L422.27,197.11L423.77,233.89L425.28,248.55L429.81,215.33L431.31,241.31L432.82,205.5L434.33,242.17L435.84,246.1L437.35,219.33L438.85,211.64L440.36,213.07L441.87,245.04L443.38,207.71L444.89,257.87L446.39,258.84L447.9,255.56L449.41,205.91L450.92,232.79L452.43,223.07L453.94,215.77L455.44,249.11L456.95,245.66L458.46,224.45L459.97,201.01L461.48,229.99L462.98,141.8L464.49,189.8L466,236.29" style="vector-effect: non-scaling-stroke; fill: none; stroke: rgb(99, 110, 250); stroke-opacity: 1; stroke-width: 2px; opacity: 1;"/></g><g class="points"/><g class="text"/></g></g></g><g class="overplot"/><path class="xlines-above crisp" d="M0,0" style="fill: none;"/><path class="ylines-above crisp" d="M0,0" style="fill: none;"/><g class="overlines-above"/><g class="xaxislayer-above"><g class="xtick"><text text-anchor="middle" x="0" y="433" transform="translate(155.4,0)" style="font-family: 'Open Sans', verdana, arial, sans-serif; font-size: 12px; fill: rgb(42, 63, 95); fill-opacity: 1; white-space: pre; opacity: 1;">Jan 2022</text></g><g class="xtick"><text text-anchor="middle" x="0" y="433" style="font-family: 'Open Sans', verdana, arial, sans-serif; font-size: 12px; fill: rgb(42, 63, 95); fill-opacity: 1; white-space: pre; opacity: 1;" transform="translate(244.38,0)">Mar 2022</text></g><g class="xtick"><text text-anchor="middle" x="0" y="433" style="font-family: 'Open Sans', verdana, arial, sans-serif; font-size: 12px; fill: rgb(42, 63, 95); fill-opacity: 1; white-space: pre; opacity: 1;" transform="translate(336.38,0)">May 2022</text></g><g class="xtick"><text text-anchor="middle" x="0" y="433" style="font-family: 'Open Sans', verdana, arial, sans-serif; font-size: 12px; fill: rgb(42, 63, 95); fill-opacity: 1; white-space: pre; opacity: 1;" transform="translate(428.37,0)">Jul 2022</text></g><g class="xtick"><text text-anchor="middle" x="0" y="433" style="font-family: 'Open Sans', verdana, arial, sans-serif; font-size: 12px; fill: rgb(42, 63, 95); fill-opacity: 1; white-space: pre; opacity: 1;" transform="translate(521.87,0)">Sep 2022</text></g></g><g class="yaxislayer-above"><g class="ytick"><text text-anchor="end" x="79" y="4.199999999999999" transform="translate(0,409.28)" style="font-family: 'Open Sans', verdana, arial, sans-serif; font-size: 12px; fill: rgb(42, 63, 95); fill-opacity: 1; white-space: pre; opacity: 1;">$0</text></g><g class="ytick"><text text-anchor="end" x="79" y="4.199999999999999" style="font-family: 'Open Sans', verdana, arial, sans-serif; font-size: 12px; fill: rgb(42, 63, 95); fill-opacity: 1; white-space: pre; opacity: 1;" transform="translate(0,341.08000000000004)">$200k</text></g><g class="ytick"><text text-anchor="end" x="79" y="4.199999999999999" style="font-family: 'Open Sans', verdana, arial, sans-serif; font-size: 12px; fill: rgb(42, 63, 95); fill-opacity: 1; white-space: pre; opacity: 1;" transform="translate(0,272.88)">$400k</text></g><g class="ytick"><text text-anchor="end" x="79" y="4.199999999999999" style="font-family: 'Open Sans', verdana, arial, sans-serif; font-size: 12px; fill: rgb(42, 63, 95); fill-opacity: 1; white-space: pre; opacity: 1;" transform="translate(0,204.69)">$600k</text></g><g class="ytick"><text text-anchor="end" x="79" y="4.199999999999999" style="font-family: 'Open Sans', verdana, arial, sans-serif; font-size: 12px; fill: rgb(42, 63, 95); fill-opacity: 1; white-space: pre; opacity: 1;" transform="translate(0,136.49)">$800k</text></g></g><g class="overaxes-above"/></g></g><g class="polarlayer"/><g class="smithlayer"/><g class="ternarylayer"/><g class="geolayer"/><g class="funnelarealayer"/><g class="pielayer"/><g class="iciclelayer"/><g class="treemaplayer"/><g class="sunburstlayer"/><g class="glimages"/><defs id="topdefs-8eac1a"><g class="clips"/><clipPath id="legend8eac1a"><rect width="133" height="48" x="0" y="0"/></clipPath></defs><g class="layer-above"><g class="imagelayer"/><g class="shapelayer"/></g><g class="infolayer"><g class="legend" pointer-events="all" transform="translate(555.3199999999999,100)"><rect class="bg" shape-rendering="crispEdges" style="stroke: rgb(68, 68, 68); stroke-opacity: 1; fill: rgb(255, 255, 255); fill-opacity: 1; stroke-width: 0px;" width="133" height="48" x="0" y="0"/><g class="scrollbox" transform="" clip-path="url(#legend8eac1a)"><text class="legendtitletext" text-anchor="start" x="2" y="18.2" style="font-family: 'Open Sans', verdana, arial, sans-serif; font-size: 14px; fill: rgb(42, 63, 95); fill-opacity: 1; white-space: pre;">metadata.blockchain</text><g class="groups" transform=""><g class="traces" transform="translate(0,32.7)" style="opacity: 1;"><text class="legendtext" text-anchor="start" x="40" y="4.680000000000001" style="font-family: 'Open Sans', verdana, arial, sans-serif; font-size: 12px; fill: rgb(42, 63, 95); fill-opacity: 1; white-space: pre;">Optimism</text><g class="layers" style="opacity: 1;"><g class="legendfill"/><g class="legendlines"><path class="js-line" d="M5,0h30" style="fill: none; stroke: rgb(99, 110, 250); stroke-opacity: 1; stroke-width: 2px;"/></g><g class="legendsymbols"><g class="legendpoints"/></g></g><rect class="legendtoggle" x="0" y="-9.5" width="90.671875" height="19" style="fill: rgb(0, 0, 0); fill-opacity: 0;"/></g></g></g><rect class="scrollbar" rx="20" ry="3" width="0" height="0" style="fill: rgb(128, 139, 164); fill-opacity: 1;" x="0" y="0"/></g><g class="g-gtitle"><text class="gtitle" x="35" y="50" text-anchor="start" dy="0em" style="font-family: 'Open Sans', verdana, arial, sans-serif; font-size: 17px; fill: rgb(42, 63, 95); opacity: 1; font-weight: normal; white-space: pre;">Sum Fees Earned on apps by Chain (USD)</text></g><g class="g-xtitle"><text class="xtitle" x="313" y="460.8" text-anchor="middle" style="font-family: 'Open Sans', verdana, arial, sans-serif; font-size: 14px; fill: rgb(42, 63, 95); opacity: 1; font-weight: normal; white-space: pre;">date</text></g><g class="g-ytitle"><text class="ytitle" transform="rotate(-90,21.496875000000003,260)" x="21.496875000000003" y="260" text-anchor="middle" style="font-family: 'Open Sans', verdana, arial, sans-serif; font-size: 14px; fill: rgb(42, 63, 95); opacity: 1; font-weight: normal; white-space: pre;">results.oneDayTotalFees</text></g></g></svg>