<svg class="main-svg" xmlns="http://www.w3.org/2000/svg" xmlns:xlink="http://www.w3.org/1999/xlink" width="700" height="500" style="" viewBox="0 0 700 500"><rect x="0" y="0" width="700" height="500" style="fill: rgb(255, 255, 255); fill-opacity: 1;"/><defs id="defs-207d12"><g class="clips"><clipPath id="clip207d12xyplot" class="plotclip"><rect width="466" height="320"/></clipPath><clipPath class="axesclip" id="clip207d12x"><rect x="80" y="0" width="466" height="500"/></clipPath><clipPath class="axesclip" id="clip207d12y"><rect x="0" y="100" width="700" height="320"/></clipPath><clipPath class="axesclip" id="clip207d12xy"><rect x="80" y="100" width="466" height="320"/></clipPath></g><g class="gradients"/><g class="patterns"/></defs><g class="bglayer"><rect class="bg" x="80" y="100" width="466" height="320" style="fill: rgb(229, 236, 246); fill-opacity: 1; stroke-width: 0;"/></g><g class="layer-below"><g class="imagelayer"/><g class="shapelayer"/></g><g class="cartesianlayer"><g class="subplot xy"><g class="layer-subplot"><g class="shapelayer"/><g class="imagelayer"/></g><g class="minor-gridlayer"><g class="x"/><g class="y"/></g><g class="gridlayer"><g class="x"><path class="xgrid crisp" transform="translate(155.9,0)" d="M0,100v320" style="stroke: rgb(255, 255, 255); stroke-opacity: 1; stroke-width: 1px;"/><path class="xgrid crisp" transform="translate(245.45,0)" d="M0,100v320" style="stroke: rgb(255, 255, 255); stroke-opacity: 1; stroke-width: 1px;"/><path class="xgrid crisp" transform="translate(338.05,0)" d="M0,100v320" style="stroke: rgb(255, 255, 255); stroke-opacity: 1; stroke-width: 1px;"/><path class="xgrid crisp" transform="translate(430.64,0)" d="M0,100v320" style="stroke: rgb(255, 255, 255); stroke-opacity: 1; stroke-width: 1px;"/><path class="xgrid crisp" transform="translate(524.75,0)" d="M0,100v320" style="stroke: rgb(255, 255, 255); stroke-opacity: 1; stroke-width: 1px;"/></g><g class="y"><path class="ygrid crisp" transform="translate(0,341.08000000000004)" d="M80,0h466" style="stroke: rgb(255, 255, 255); stroke-opacity: 1; stroke-width: 1px;"/><path class="ygrid crisp" transform="translate(0,272.88)" d="M80,0h466" style="stroke: rgb(255, 255, 255); stroke-opacity: 1; stroke-width: 1px;"/><path class="ygrid crisp" transform="translate(0,204.69)" d="M80,0h466" style="stroke: rgb(255, 255, 255); stroke-opacity: 1; stroke-width: 1px;"/><path class="ygrid crisp" transform="translate(0,136.49)" d="M80,0h466" style="stroke: rgb(255, 255, 255); stroke-opacity: 1; stroke-width: 1px;"/></g></g><g class="zerolinelayer"><path class="yzl zl crisp" transform="translate(0,409.28)" d="M80,0h466" style="stroke: rgb(255, 255, 255); stroke-opacity: 1; stroke-width: 2px;"/></g><path class="xlines-below"/><path class="ylines-below"/><g class="overlines-below"/><g class="xaxislayer-below"/><g class="yaxislayer-below"/><g class="overaxes-below"/><g class="plot" transform="translate(80,100)" clip-path="url(#clip207d12xyplot)"><g class="scatterlayer mlayer"><g class="trace scatter trace9ba491" style="stroke-miterlimit: 2; opacity: 1;"><g class="fills"/><g class="errorbars"/><g class="lines"><path class="js-line" d="M0,295.36L3.04,288.59L4.55,291.34L7.59,284.43L9.11,290.43L10.63,281.13L12.14,293.58L13.66,291.83L15.18,293.32L16.7,293.96L18.21,292.11L19.73,296.36L21.25,290.66L22.77,297.69L24.29,295.54L27.32,291.19L28.84,295.99L33.39,292.51L34.91,298.72L36.43,295.22L37.95,296.83L39.47,296.14L40.98,297.42L42.5,285.43L44.02,286.66L45.54,299.87L47.06,293.92L48.57,280.14L50.09,292.04L51.61,291.25L53.13,295.86L54.64,293.93L56.16,297.41L57.68,297.44L59.2,300.34L62.23,298.89L63.75,295.92L65.27,298.52L66.79,284.11L68.31,297.31L69.82,295.47L71.34,301.05L72.86,298.94L74.38,296.2L75.9,301.91L77.41,302.23L78.93,301.08L80.45,300.61L81.97,284.42L83.49,292.4L85,280.78L88.04,299.45L89.56,296.58L91.07,300.22L92.59,300.24L94.11,300.43L95.63,293.69L97.15,299.05L98.66,298.69L100.18,299.63L101.7,293.76L103.22,293.51L104.74,295.75L106.25,276.9L107.77,290.07L109.29,299.64L110.81,293.38L112.33,296.84L113.84,294.23L115.36,300.45L116.88,292.14L118.4,302.68L119.92,303.21L121.43,300.7L122.95,300.7L124.47,299.05L125.99,302.43L127.5,289.63L129.02,301.72L130.54,303.37L132.06,295.64L133.58,300.06L135.09,300.11L138.13,295.28L139.65,301.82L145.72,300.53L147.24,301.12L148.76,301.4L150.27,303.42L153.31,299.64L154.83,300.17L156.35,298.11L157.86,294.43L159.38,301.16L160.9,302.33L162.42,298.17L163.93,297.97L165.45,297.38L166.97,300.62L168.49,301.79L170.01,297.62L171.52,303.63L173.04,301.96L174.56,299.38L176.08,299.49L177.6,298.87L179.11,300.61L180.63,300.1L182.15,303.87L183.67,302.62L185.19,302.69L186.7,300.47L188.22,294.93L189.74,297.22L191.26,294.94L194.29,303.01L195.81,302.7L198.85,297.82L200.36,280.69L201.88,282.05L203.4,269.8L206.44,177.42L207.95,196.61L209.47,113.76L210.99,167.03L212.51,163.17L214.03,169.92L215.54,286.16L217.06,278.6L218.58,279.82L220.1,279.91L221.62,285L223.13,264.21L224.65,287.71L226.17,267.8L227.69,216.69L229.21,264.42L230.72,270.26L232.24,269.42L233.76,277.4L235.28,290.48L236.79,298.74L238.31,139.73L239.83,154.68L241.35,142.47L244.38,290.23L245.9,293.39L247.42,247.38L248.94,245.26L250.46,287.48L251.97,293.03L253.49,248.76L255.01,254.05L256.53,295.52L258.05,295.51L259.56,296.83L261.08,296.14L264.12,279.54L265.64,281.96L267.15,289.72L268.67,286.64L270.19,180.07L271.71,272.82L273.22,250.24L274.74,262.2L276.26,275.83L277.78,300.53L279.3,301.18L280.81,300.42L282.33,293.91L283.85,294.5L285.37,292.99L286.89,295.18L288.4,298.67L289.92,299.58L291.44,297.78L292.96,300.46L294.48,303.35L295.99,292.06L297.51,286.17L299.03,300.76L300.55,304L302.07,295.52L305.1,16L306.62,192.62L309.65,274.77L311.17,273.54L312.69,267.84L314.21,265.81L315.73,265.48L317.24,271.09L318.76,233.95L320.28,267.57L321.8,190.2L323.32,65.08L326.35,152.69L327.87,257.76L329.39,280.62L330.91,257.2L332.42,278.7L333.94,269.9L336.98,284.96L338.5,289.26L340.01,281.42L341.53,286.51L343.05,289.15L344.57,286.79L346.08,291.48L347.6,288.38L350.64,219.15L352.16,302.7L353.67,302.74L355.19,280.24L356.71,257.84L358.23,248.32L359.75,274.32L361.26,276.5L362.78,301.18L364.3,298.99L365.82,281.21L367.34,279.8L368.85,247.82L370.37,288.29L371.89,282.2L373.41,259.82L374.93,279.82L376.44,239.53L381,269.37L382.51,268.74L384.03,281.07L385.55,268.81L387.07,255.72L388.59,266.27L390.1,238.8L391.62,140.01L394.66,244.9L396.18,231.94L397.69,271.5L399.21,232.88L400.73,246.13L402.25,238.9L403.77,207.22L405.28,233.64L406.8,230.74L408.32,175.78L409.84,218.42L411.36,107.89L414.39,228.32L415.91,227.91L417.43,234.44L418.94,225.25L420.46,234.51L421.98,207.46L423.5,241.83L425.02,197.11L426.53,233.89L428.05,248.55L432.61,215.33L434.12,241.31L435.64,205.5L437.16,242.17L438.68,246.1L440.2,219.33L441.71,211.64L443.23,213.07L444.75,245.04L446.27,207.71L447.79,257.87L449.3,258.84L450.82,255.56L452.34,205.91L453.86,232.79L455.37,223.07L456.89,215.77L458.41,249.11L459.93,245.66L461.45,224.45L462.96,201.01L464.48,229.99L466,141.8" style="vector-effect: non-scaling-stroke; fill: none; stroke: rgb(99, 110, 250); stroke-opacity: 1; stroke-width: 2px; opacity: 1;"/></g><g class="points"/><g class="text"/></g></g></g><g class="overplot"/><path class="xlines-above crisp" d="M0,0" style="fill: none;"/><path class="ylines-above crisp" d="M0,0" style="fill: none;"/><g class="overlines-above"/><g class="xaxislayer-above"><g class="xtick"><text text-anchor="middle" x="0" y="433" transform="translate(155.9,0)" style="font-family: 'Open Sans', verdana, arial, sans-serif; font-size: 12px; fill: rgb(42, 63, 95); fill-opacity: 1; white-space: pre; opacity: 1;">Jan 2022</text></g><g class="xtick"><text text-anchor="middle" x="0" y="433" style="font-family: 'Open Sans', verdana, arial, sans-serif; font-size: 12px; fill: rgb(42, 63, 95); fill-opacity: 1; white-space: pre; opacity: 1;" transform="translate(245.45,0)">Mar 2022</text></g><g class="xtick"><text text-anchor="middle" x="0" y="433" style="font-family: 'Open Sans', verdana, arial, sans-serif; font-size: 12px; fill: rgb(42, 63, 95); fill-opacity: 1; white-space: pre; opacity: 1;" transform="translate(338.05,0)">May 2022</text></g><g class="xtick"><text text-anchor="middle" x="0" y="433" style="font-family: 'Open Sans', verdana, arial, sans-serif; font-size: 12px; fill: rgb(42, 63, 95); fill-opacity: 1; white-space: pre; opacity: 1;" transform="translate(430.64,0)">Jul 2022</text></g><g class="xtick"><text text-anchor="middle" x="0" y="433" style="font-family: 'Open Sans', verdana, arial, sans-serif; font-size: 12px; fill: rgb(42, 63, 95); fill-opacity: 1; white-space: pre; opacity: 1;" transform="translate(524.75,0)">Sep 2022</text></g></g><g class="yaxislayer-above"><g class="ytick"><text text-anchor="end" x="79" y="4.199999999999999" transform="translate(0,409.28)" style="font-family: 'Open Sans', verdana, arial, sans-serif; font-size: 12px; fill: rgb(42, 63, 95); fill-opacity: 1; white-space: pre; opacity: 1;">$0</text></g><g class="ytick"><text text-anchor="end" x="79" y="4.199999999999999" style="font-family: 'Open Sans', verdana, arial, sans-serif; font-size: 12px; fill: rgb(42, 63, 95); fill-opacity: 1; white-space: pre; opacity: 1;" transform="translate(0,341.08000000000004)">$200k</text></g><g class="ytick"><text text-anchor="end" x="79" y="4.199999999999999" style="font-family: 'Open Sans', verdana, arial, sans-serif; font-size: 12px; fill: rgb(42, 63, 95); fill-opacity: 1; white-space: pre; opacity: 1;" transform="translate(0,272.88)">$400k</text></g><g class="ytick"><text text-anchor="end" x="79" y="4.199999999999999" style="font-family: 'Open Sans', verdana, arial, sans-serif; font-size: 12px; fill: rgb(42, 63, 95); fill-opacity: 1; white-space: pre; opacity: 1;" transform="translate(0,204.69)">$600k</text></g><g class="ytick"><text text-anchor="end" x="79" y="4.199999999999999" style="font-family: 'Open Sans', verdana, arial, sans-serif; font-size: 12px; fill: rgb(42, 63, 95); fill-opacity: 1; white-space: pre; opacity: 1;" transform="translate(0,136.49)">$800k</text></g></g><g class="overaxes-above"/></g></g><g class="polarlayer"/><g class="smithlayer"/><g class="ternarylayer"/><g class="geolayer"/><g class="funnelarealayer"/><g class="pielayer"/><g class="iciclelayer"/><g class="treemaplayer"/><g class="sunburstlayer"/><g class="glimages"/><defs id="topdefs-207d12"><g class="clips"/><clipPath id="legend207d12"><rect width="133" height="48" x="0" y="0"/></clipPath></defs><g class="layer-above"><g class="imagelayer"/><g class="shapelayer"/></g><g class="infolayer"><g class="legend" pointer-events="all" transform="translate(555.3199999999999,100)"><rect class="bg" shape-rendering="crispEdges" style="stroke: rgb(68, 68, 68); stroke-opacity: 1; fill: rgb(255, 255, 255); fill-opacity: 1; stroke-width: 0px;" width="133" height="48" x="0" y="0"/><g class="scrollbox" transform="" clip-path="url(#legend207d12)"><text class="legendtitletext" text-anchor="start" x="2" y="18.2" style="font-family: 'Open Sans', verdana, arial, sans-serif; font-size: 14px; fill: rgb(42, 63, 95); fill-opacity: 1; white-space: pre;">metadata.blockchain</text><g class="groups" transform=""><g class="traces" transform="translate(0,32.7)" style="opacity: 1;"><text class="legendtext" text-anchor="start" x="40" y="4.680000000000001" style="font-family: 'Open Sans', verdana, arial, sans-serif; font-size: 12px; fill: rgb(42, 63, 95); fill-opacity: 1; white-space: pre;">Optimism</text><g class="layers" style="opacity: 1;"><g class="legendfill"/><g class="legendlines"><path class="js-line" d="M5,0h30" style="fill: none; stroke: rgb(99, 110, 250); stroke-opacity: 1; stroke-width: 2px;"/></g><g class="legendsymbols"><g class="legendpoints"/></g></g><rect class="legendtoggle" x="0" y="-9.5" width="90.671875" height="19" style="fill: rgb(0, 0, 0); fill-opacity: 0;"/></g></g></g><rect class="scrollbar" rx="20" ry="3" width="0" height="0" style="fill: rgb(128, 139, 164); fill-opacity: 1;" x="0" y="0"/></g><g class="g-gtitle"><text class="gtitle" x="35" y="50" text-anchor="start" dy="0em" style="font-family: 'Open Sans', verdana, arial, sans-serif; font-size: 17px; fill: rgb(42, 63, 95); opacity: 1; font-weight: normal; white-space: pre;">Sum Fees Earned on apps by Chain (USD)</text></g><g class="g-xtitle"><text class="xtitle" x="313" y="460.8" text-anchor="middle" style="font-family: 'Open Sans', verdana, arial, sans-serif; font-size: 14px; fill: rgb(42, 63, 95); opacity: 1; font-weight: normal; white-space: pre;">date</text></g><g class="g-ytitle"><text class="ytitle" transform="rotate(-90,21.496875000000003,260)" x="21.496875000000003" y="260" text-anchor="middle" style="font-family: 'Open Sans', verdana, arial, sans-serif; font-size: 14px; fill: rgb(42, 63, 95); opacity: 1; font-weight: normal; white-space: pre;">results.oneDayTotalFees</text></g></g></svg>