<svg class="main-svg" xmlns="http://www.w3.org/2000/svg" xmlns:xlink="http://www.w3.org/1999/xlink" width="700" height="500" style="" viewBox="0 0 700 500"><rect x="0" y="0" width="700" height="500" style="fill: rgb(255, 255, 255); fill-opacity: 1;"/><defs id="defs-26a1b8"><g class="clips"><clipPath id="clip26a1b8xyplot" class="plotclip"><rect width="466" height="320"/></clipPath><clipPath class="axesclip" id="clip26a1b8x"><rect x="80" y="0" width="466" height="500"/></clipPath><clipPath class="axesclip" id="clip26a1b8y"><rect x="0" y="100" width="700" height="320"/></clipPath><clipPath class="axesclip" id="clip26a1b8xy"><rect x="80" y="100" width="466" height="320"/></clipPath></g><g class="gradients"/><g class="patterns"/></defs><g class="bglayer"><rect class="bg" x="80" y="100" width="466" height="320" style="fill: rgb(229, 236, 246); fill-opacity: 1; stroke-width: 0;"/></g><g class="layer-below"><g class="imagelayer"/><g class="shapelayer"/></g><g class="cartesianlayer"><g class="subplot xy"><g class="layer-subplot"><g class="shapelayer"/><g class="imagelayer"/></g><g class="minor-gridlayer"><g class="x"/><g class="y"/></g><g class="gridlayer"><g class="x"><path class="xgrid crisp" transform="translate(131.07,0)" d="M0,100v320" style="stroke: rgb(255, 255, 255); stroke-opacity: 1; stroke-width: 1px;"/><path class="xgrid crisp" transform="translate(208.95,0)" d="M0,100v320" style="stroke: rgb(255, 255, 255); stroke-opacity: 1; stroke-width: 1px;"/><path class="xgrid crisp" transform="translate(286.83000000000004,0)" d="M0,100v320" style="stroke: rgb(255, 255, 255); stroke-opacity: 1; stroke-width: 1px;"/><path class="xgrid crisp" transform="translate(365.98,0)" d="M0,100v320" style="stroke: rgb(255, 255, 255); stroke-opacity: 1; stroke-width: 1px;"/><path class="xgrid crisp" transform="translate(443.86,0)" d="M0,100v320" style="stroke: rgb(255, 255, 255); stroke-opacity: 1; stroke-width: 1px;"/><path class="xgrid crisp" transform="translate(521.74,0)" d="M0,100v320" style="stroke: rgb(255, 255, 255); stroke-opacity: 1; stroke-width: 1px;"/></g><g class="y"><path class="ygrid crisp" transform="translate(0,341.08000000000004)" d="M80,0h466" style="stroke: rgb(255, 255, 255); stroke-opacity: 1; stroke-width: 1px;"/><path class="ygrid crisp" transform="translate(0,272.88)" d="M80,0h466" style="stroke: rgb(255, 255, 255); stroke-opacity: 1; stroke-width: 1px;"/><path class="ygrid crisp" transform="translate(0,204.69)" d="M80,0h466" style="stroke: rgb(255, 255, 255); stroke-opacity: 1; stroke-width: 1px;"/><path class="ygrid crisp" transform="translate(0,136.49)" d="M80,0h466" style="stroke: rgb(255, 255, 255); stroke-opacity: 1; stroke-width: 1px;"/></g></g><g class="zerolinelayer"><path class="yzl zl crisp" transform="translate(0,409.28)" d="M80,0h466" style="stroke: rgb(255, 255, 255); stroke-opacity: 1; stroke-width: 2px;"/></g><path class="xlines-below"/><path class="ylines-below"/><g class="overlines-below"/><g class="xaxislayer-below"/><g class="yaxislayer-below"/><g class="overaxes-below"/><g class="plot" transform="translate(80,100)" clip-path="url(#clip26a1b8xyplot)"><g class="scatterlayer mlayer"><g class="trace scatter traceda14e5" style="stroke-miterlimit: 2; opacity: 1;"><g class="fills"/><g class="errorbars"/><g class="lines"><path class="js-line" d="M0,295.75L1.28,276.9L2.55,290.07L3.83,299.64L5.11,293.38L6.38,296.84L7.66,294.23L8.94,300.45L10.21,292.14L11.49,302.68L12.77,303.21L14.04,300.7L15.32,300.7L16.6,299.05L17.87,302.43L19.15,289.63L20.43,301.72L21.7,303.37L22.98,295.64L24.26,300.06L25.53,300.11L28.09,295.28L29.36,301.82L34.47,300.53L35.75,301.12L37.02,301.4L38.3,303.42L40.85,299.64L42.13,300.17L43.41,298.11L44.68,294.43L45.96,301.16L47.24,302.33L48.52,298.17L49.79,297.97L51.07,297.38L52.35,300.62L53.62,301.79L54.9,297.62L56.18,303.63L57.45,301.96L58.73,299.38L60.01,299.49L61.28,298.87L62.56,300.61L63.84,300.1L65.11,303.87L66.39,302.62L67.67,302.69L68.94,300.47L70.22,294.93L71.5,297.22L72.77,294.94L75.33,303.01L76.6,302.7L79.16,297.82L80.43,280.69L81.71,282.05L82.99,269.8L85.54,177.42L86.82,196.61L88.09,113.76L89.37,167.03L90.65,163.17L91.92,169.92L93.2,286.16L94.48,278.6L95.75,279.82L97.03,279.91L98.31,285L99.58,264.21L100.86,287.71L102.14,267.8L103.41,216.69L104.69,264.42L105.97,270.26L107.24,269.42L108.52,277.4L109.8,290.48L111.07,298.74L112.35,139.73L113.63,154.68L114.9,142.47L117.46,290.23L118.73,293.39L120.01,247.38L121.29,245.26L122.56,287.48L123.84,293.03L125.12,248.76L126.39,254.05L127.67,295.52L128.95,295.51L130.22,296.83L131.5,296.14L134.05,279.54L135.33,281.96L136.61,289.72L137.88,286.64L139.16,180.07L140.44,272.82L141.72,250.24L142.99,262.2L144.27,275.83L145.55,300.53L148.1,300.42L149.38,293.91L150.65,294.5L151.93,292.99L155.76,299.58L157.04,297.78L159.59,303.35L160.87,292.06L162.14,286.17L163.42,300.76L164.7,304L165.97,295.52L168.53,16L169.8,192.62L172.36,274.77L173.63,273.54L174.91,267.84L176.19,265.81L177.46,265.48L178.74,271.09L180.02,233.95L181.29,267.57L182.57,190.2L183.85,65.08L186.4,152.69L187.68,257.76L188.95,280.62L190.23,257.2L191.51,278.7L192.78,269.9L195.34,284.96L196.61,289.26L197.89,281.42L199.17,286.51L200.44,289.15L201.72,286.79L203,291.48L204.27,288.38L206.83,219.15L208.1,302.7L209.38,302.74L210.66,280.24L213.21,248.32L214.49,274.32L215.76,276.5L217.04,301.18L218.32,298.99L219.59,281.21L220.87,279.8L222.15,247.82L223.42,288.29L224.7,282.2L225.98,259.82L227.25,279.82L228.53,239.53L229.81,248.76L232.36,269.37L233.64,268.74L234.92,281.07L236.19,268.81L237.47,255.72L238.75,266.27L240.02,238.8L241.3,140.01L243.85,244.9L245.13,231.94L246.41,271.5L247.68,232.88L248.96,246.13L250.24,238.9L251.51,207.22L252.79,233.64L254.07,230.74L255.34,175.78L256.62,218.42L259.17,160.01L260.45,228.32L261.73,227.91L263,234.44L264.28,225.25L265.56,234.51L266.83,207.46L268.11,241.83L269.39,197.11L270.66,233.89L271.94,248.55L275.77,215.33L277.05,241.31L278.32,205.5L279.6,242.17L280.88,246.1L282.15,219.33L283.43,211.64L284.71,213.07L285.98,245.04L287.26,207.71L288.54,257.87L289.81,258.84L291.09,255.56L292.37,205.91L293.64,232.79L294.92,223.07L296.2,215.77L297.47,249.11L298.75,245.66L300.03,224.45L301.3,201.01L302.58,229.99L303.86,141.8L305.13,189.8L306.41,236.29L307.69,222.74L308.96,196.57L310.24,245.13L311.52,168.01L312.79,245.31L314.07,244.75L315.35,264.24L316.62,267.97L317.9,260.91L320.45,246.13L321.73,258.03L323.01,234.39L324.28,271.37L325.56,273.59L326.84,256.42L328.12,267.13L329.39,269.37L330.67,245.69L331.95,265.32L333.22,276.89L334.5,277.98L335.78,278.15L337.05,276.5L338.33,280.4L339.61,215.59L340.88,274.94L342.16,285.13L344.71,281.7L345.99,281.59L347.27,284.51L348.54,283.06L349.82,275.05L351.1,285.23L353.65,276.5L354.93,252.77L356.2,250.66L357.48,251.3L358.76,248.35L360.03,252.38L363.86,280.78L365.14,271.04L366.42,284.26L367.69,267.81L368.97,286.29L370.25,286.02L371.52,275.5L372.8,205.49L374.08,199.45L375.35,243.14L377.91,280.12L379.18,285.22L380.46,278.94L381.74,284.16L383.01,288.12L384.29,284.6L385.57,285.56L386.84,294.33L388.12,290.96L389.4,275.99L390.67,279.01L391.95,277.65L393.23,289.27L394.5,290.34L397.06,295.06L398.33,275.68L399.61,282.77L400.89,277.99L402.16,287.19L403.44,286.82L404.72,293.77L405.99,295.59L407.27,290.61L408.55,293.78L411.1,291.71L412.38,291.96L413.65,299.31L414.93,296.49L416.21,293.68L417.48,272.5L420.04,288.43L421.32,268.55L422.59,293.81L423.87,296.82L425.15,295.09L426.42,288.85L427.7,297.41L428.98,296.58L431.53,302.4L432.81,299.81L434.08,301.07L435.36,295.21L437.91,295.39L439.19,299.08L441.74,303.31L443.02,292.85L444.3,289.41L445.57,272.26L446.85,296.04L448.13,292.93L449.4,293.59L450.68,288.41L451.96,272.16L453.23,282.62L454.51,281.1L455.79,254.11L457.06,264.85L458.34,253.39L459.62,264.74L460.89,250.19L462.17,270.74L463.45,257.04L464.72,289.25L466,271.15" style="vector-effect: non-scaling-stroke; fill: none; stroke: rgb(99, 110, 250); stroke-opacity: 1; stroke-width: 2px; opacity: 1;"/></g><g class="points"/><g class="text"/></g></g></g><g class="overplot"/><path class="xlines-above crisp" d="M0,0" style="fill: none;"/><path class="ylines-above crisp" d="M0,0" style="fill: none;"/><g class="overlines-above"/><g class="xaxislayer-above"><g class="xtick"><text text-anchor="middle" x="0" y="433" transform="translate(131.07,0)" style="font-family: 'Open Sans', verdana, arial, sans-serif; font-size: 12px; fill: rgb(42, 63, 95); fill-opacity: 1; white-space: pre; opacity: 1;">Mar 2022</text></g><g class="xtick"><text text-anchor="middle" x="0" y="433" style="font-family: 'Open Sans', verdana, arial, sans-serif; font-size: 12px; fill: rgb(42, 63, 95); fill-opacity: 1; white-space: pre; opacity: 1;" transform="translate(208.95,0)">May 2022</text></g><g class="xtick"><text text-anchor="middle" x="0" y="433" style="font-family: 'Open Sans', verdana, arial, sans-serif; font-size: 12px; fill: rgb(42, 63, 95); fill-opacity: 1; white-space: pre; opacity: 1;" transform="translate(286.83000000000004,0)">Jul 2022</text></g><g class="xtick"><text text-anchor="middle" x="0" y="433" style="font-family: 'Open Sans', verdana, arial, sans-serif; font-size: 12px; fill: rgb(42, 63, 95); fill-opacity: 1; white-space: pre; opacity: 1;" transform="translate(365.98,0)">Sep 2022</text></g><g class="xtick"><text text-anchor="middle" x="0" y="433" style="font-family: 'Open Sans', verdana, arial, sans-serif; font-size: 12px; fill: rgb(42, 63, 95); fill-opacity: 1; white-space: pre; opacity: 1;" transform="translate(443.86,0)">Nov 2022</text></g><g class="xtick"><text text-anchor="middle" x="0" y="433" style="font-family: 'Open Sans', verdana, arial, sans-serif; font-size: 12px; fill: rgb(42, 63, 95); fill-opacity: 1; white-space: pre; opacity: 1;" transform="translate(521.74,0)">Jan 2023</text></g></g><g class="yaxislayer-above"><g class="ytick"><text text-anchor="end" x="79" y="4.199999999999999" transform="translate(0,409.28)" style="font-family: 'Open Sans', verdana, arial, sans-serif; font-size: 12px; fill: rgb(42, 63, 95); fill-opacity: 1; white-space: pre; opacity: 1;">$0</text></g><g class="ytick"><text text-anchor="end" x="79" y="4.199999999999999" style="font-family: 'Open Sans', verdana, arial, sans-serif; font-size: 12px; fill: rgb(42, 63, 95); fill-opacity: 1; white-space: pre; opacity: 1;" transform="translate(0,341.08000000000004)">$200k</text></g><g class="ytick"><text text-anchor="end" x="79" y="4.199999999999999" style="font-family: 'Open Sans', verdana, arial, sans-serif; font-size: 12px; fill: rgb(42, 63, 95); fill-opacity: 1; white-space: pre; opacity: 1;" transform="translate(0,272.88)">$400k</text></g><g class="ytick"><text text-anchor="end" x="79" y="4.199999999999999" style="font-family: 'Open Sans', verdana, arial, sans-serif; font-size: 12px; fill: rgb(42, 63, 95); fill-opacity: 1; white-space: pre; opacity: 1;" transform="translate(0,204.69)">$600k</text></g><g class="ytick"><text text-anchor="end" x="79" y="4.199999999999999" style="font-family: 'Open Sans', verdana, arial, sans-serif; font-size: 12px; fill: rgb(42, 63, 95); fill-opacity: 1; white-space: pre; opacity: 1;" transform="translate(0,136.49)">$800k</text></g></g><g class="overaxes-above"/></g></g><g class="polarlayer"/><g class="smithlayer"/><g class="ternarylayer"/><g class="geolayer"/><g class="funnelarealayer"/><g class="pielayer"/><g class="iciclelayer"/><g class="treemaplayer"/><g class="sunburstlayer"/><g class="glimages"/><defs id="topdefs-26a1b8"><g class="clips"/><clipPath id="legend26a1b8"><rect width="133" height="48" x="0" y="0"/></clipPath></defs><g class="layer-above"><g class="imagelayer"/><g class="shapelayer"/></g><g class="infolayer"><g class="legend" pointer-events="all" transform="translate(555.3199999999999,100)"><rect class="bg" shape-rendering="crispEdges" style="stroke: rgb(68, 68, 68); stroke-opacity: 1; fill: rgb(255, 255, 255); fill-opacity: 1; stroke-width: 0px;" width="133" height="48" x="0" y="0"/><g class="scrollbox" transform="" clip-path="url(#legend26a1b8)"><text class="legendtitletext" text-anchor="start" x="2" y="18.2" style="font-family: 'Open Sans', verdana, arial, sans-serif; font-size: 14px; fill: rgb(42, 63, 95); fill-opacity: 1; white-space: pre;">metadata.blockchain</text><g class="groups" transform=""><g class="traces" transform="translate(0,32.7)" style="opacity: 1;"><text class="legendtext" text-anchor="start" x="40" y="4.680000000000001" style="font-family: 'Open Sans', verdana, arial, sans-serif; font-size: 12px; fill: rgb(42, 63, 95); fill-opacity: 1; white-space: pre;">Optimism</text><g class="layers" style="opacity: 1;"><g class="legendfill"/><g class="legendlines"><path class="js-line" d="M5,0h30" style="fill: none; stroke: rgb(99, 110, 250); stroke-opacity: 1; stroke-width: 2px;"/></g><g class="legendsymbols"><g class="legendpoints"/></g></g><rect class="legendtoggle" x="0" y="-9.5" width="90.671875" height="19" style="fill: rgb(0, 0, 0); fill-opacity: 0;"/></g></g></g><rect class="scrollbar" rx="20" ry="3" width="0" height="0" style="fill: rgb(128, 139, 164); fill-opacity: 1;" x="0" y="0"/></g><g class="g-gtitle"><text class="gtitle" x="35" y="50" text-anchor="start" dy="0em" style="font-family: 'Open Sans', verdana, arial, sans-serif; font-size: 17px; fill: rgb(42, 63, 95); opacity: 1; font-weight: normal; white-space: pre;">Sum Fees Earned on apps by Chain (USD)</text></g><g class="g-xtitle"><text class="xtitle" x="313" y="460.8" text-anchor="middle" style="font-family: 'Open Sans', verdana, arial, sans-serif; font-size: 14px; fill: rgb(42, 63, 95); opacity: 1; font-weight: normal; white-space: pre;">date</text></g><g class="g-ytitle"><text class="ytitle" transform="rotate(-90,21.496875000000003,260)" x="21.496875000000003" y="260" text-anchor="middle" style="font-family: 'Open Sans', verdana, arial, sans-serif; font-size: 14px; fill: rgb(42, 63, 95); opacity: 1; font-weight: normal; white-space: pre;">results.oneDayTotalFees</text></g></g></svg>