<svg class="main-svg" xmlns="http://www.w3.org/2000/svg" xmlns:xlink="http://www.w3.org/1999/xlink" width="700" height="500" style="" viewBox="0 0 700 500"><rect x="0" y="0" width="700" height="500" style="fill: rgb(255, 255, 255); fill-opacity: 1;"/><defs id="defs-49775e"><g class="clips"><clipPath id="clip49775exyplot" class="plotclip"><rect width="466" height="320"/></clipPath><clipPath class="axesclip" id="clip49775ex"><rect x="80" y="0" width="466" height="500"/></clipPath><clipPath class="axesclip" id="clip49775ey"><rect x="0" y="100" width="700" height="320"/></clipPath><clipPath class="axesclip" id="clip49775exy"><rect x="80" y="100" width="466" height="320"/></clipPath></g><g class="gradients"/><g class="patterns"/></defs><g class="bglayer"><rect class="bg" x="80" y="100" width="466" height="320" style="fill: rgb(229, 236, 246); fill-opacity: 1; stroke-width: 0;"/></g><g class="layer-below"><g class="imagelayer"/><g class="shapelayer"/></g><g class="cartesianlayer"><g class="subplot xy"><g class="layer-subplot"><g class="shapelayer"/><g class="imagelayer"/></g><g class="minor-gridlayer"><g class="x"/><g class="y"/></g><g class="gridlayer"><g class="x"><path class="xgrid crisp" transform="translate(82.55,0)" d="M0,100v320" style="stroke: rgb(255, 255, 255); stroke-opacity: 1; stroke-width: 1px;"/><path class="xgrid crisp" transform="translate(157.88,0)" d="M0,100v320" style="stroke: rgb(255, 255, 255); stroke-opacity: 1; stroke-width: 1px;"/><path class="xgrid crisp" transform="translate(235.76,0)" d="M0,100v320" style="stroke: rgb(255, 255, 255); stroke-opacity: 1; stroke-width: 1px;"/><path class="xgrid crisp" transform="translate(313.64,0)" d="M0,100v320" style="stroke: rgb(255, 255, 255); stroke-opacity: 1; stroke-width: 1px;"/><path class="xgrid crisp" transform="translate(392.79,0)" d="M0,100v320" style="stroke: rgb(255, 255, 255); stroke-opacity: 1; stroke-width: 1px;"/><path class="xgrid crisp" transform="translate(470.67,0)" d="M0,100v320" style="stroke: rgb(255, 255, 255); stroke-opacity: 1; stroke-width: 1px;"/></g><g class="y"><path class="ygrid crisp" transform="translate(0,341.08000000000004)" d="M80,0h466" style="stroke: rgb(255, 255, 255); stroke-opacity: 1; stroke-width: 1px;"/><path class="ygrid crisp" transform="translate(0,272.88)" d="M80,0h466" style="stroke: rgb(255, 255, 255); stroke-opacity: 1; stroke-width: 1px;"/><path class="ygrid crisp" transform="translate(0,204.69)" d="M80,0h466" style="stroke: rgb(255, 255, 255); stroke-opacity: 1; stroke-width: 1px;"/><path class="ygrid crisp" transform="translate(0,136.49)" d="M80,0h466" style="stroke: rgb(255, 255, 255); stroke-opacity: 1; stroke-width: 1px;"/></g></g><g class="zerolinelayer"><path class="yzl zl crisp" transform="translate(0,409.28)" d="M80,0h466" style="stroke: rgb(255, 255, 255); stroke-opacity: 1; stroke-width: 2px;"/></g><path class="xlines-below"/><path class="ylines-below"/><g class="overlines-below"/><g class="xaxislayer-below"/><g class="yaxislayer-below"/><g class="overaxes-below"/><g class="plot" transform="translate(80,100)" clip-path="url(#clip49775exyplot)"><g class="scatterlayer mlayer"><g class="trace scatter tracea429fe" style="stroke-miterlimit: 2; opacity: 1;"><g class="fills"/><g class="errorbars"/><g class="lines"><path class="js-line" d="M0,298.94L1.28,296.2L2.55,301.91L3.83,302.23L5.11,301.08L6.38,300.61L7.66,284.42L8.94,292.4L10.21,280.78L12.77,299.45L14.04,296.58L15.32,300.22L16.6,300.24L17.87,300.43L19.15,293.69L20.43,299.05L21.7,298.69L22.98,299.63L24.26,293.76L25.53,293.51L26.81,295.75L28.09,276.9L29.36,290.07L30.64,299.64L31.92,293.38L33.19,296.84L34.47,294.23L35.75,300.45L37.02,292.14L38.3,302.68L39.58,303.21L40.85,300.7L42.13,300.7L43.41,299.05L44.68,302.43L45.96,289.63L47.24,301.72L48.52,303.37L49.79,295.64L51.07,300.06L52.35,300.11L54.9,295.28L56.18,301.82L61.28,300.53L62.56,301.12L63.84,301.4L65.11,303.42L67.67,299.64L68.94,300.17L70.22,298.11L71.5,294.43L72.77,301.16L74.05,302.33L75.33,298.17L76.6,297.97L77.88,297.38L79.16,300.62L80.43,301.79L81.71,297.62L82.99,303.63L84.26,301.96L85.54,299.38L86.82,299.49L88.09,298.87L89.37,300.61L90.65,300.1L91.92,303.87L93.2,302.62L94.48,302.69L95.75,300.47L97.03,294.93L98.31,297.22L99.58,294.94L102.14,303.01L103.41,302.7L105.97,297.82L107.24,280.69L108.52,282.05L109.8,269.8L112.35,177.42L113.63,196.61L114.9,113.76L116.18,167.03L117.46,163.17L118.73,169.92L120.01,286.16L121.29,278.6L122.56,279.82L123.84,279.91L125.12,285L126.39,264.21L127.67,287.71L128.95,267.8L130.22,216.69L131.5,264.42L132.78,270.26L134.05,269.42L135.33,277.4L136.61,290.48L137.88,298.74L139.16,139.73L140.44,154.68L141.72,142.47L144.27,290.23L145.55,293.39L146.82,247.38L148.1,245.26L149.38,287.48L150.65,293.03L151.93,248.76L153.21,254.05L154.48,295.52L155.76,295.51L157.04,296.83L158.31,296.14L160.87,279.54L162.14,281.96L163.42,289.72L164.7,286.64L165.97,180.07L167.25,272.82L168.53,250.24L169.8,262.2L171.08,275.83L172.36,300.53L173.63,301.18L174.91,300.42L176.19,293.91L177.46,294.5L178.74,292.99L180.02,295.18L181.29,298.67L182.57,299.58L183.85,297.78L185.12,300.46L186.4,303.35L187.68,292.06L188.95,286.17L190.23,300.76L191.51,304L192.78,295.52L195.34,16L196.61,192.62L199.17,274.77L200.44,273.54L201.72,267.84L203,265.81L204.27,265.48L205.55,271.09L206.83,233.95L208.1,267.57L209.38,190.2L210.66,65.08L213.21,152.69L214.49,257.76L215.76,280.62L217.04,257.2L218.32,278.7L219.59,269.9L222.15,284.96L223.42,289.26L224.7,281.42L225.98,286.51L227.25,289.15L228.53,286.79L229.81,291.48L231.08,288.38L233.64,219.15L234.92,302.7L236.19,302.74L237.47,280.24L240.02,248.32L241.3,274.32L242.58,276.5L243.85,301.18L245.13,298.99L246.41,281.21L247.68,279.8L248.96,247.82L250.24,288.29L251.51,282.2L252.79,259.82L254.07,279.82L255.34,239.53L256.62,248.76L259.17,269.37L260.45,268.74L261.73,281.07L263,268.81L264.28,255.72L265.56,266.27L266.83,238.8L268.11,140.01L270.66,244.9L271.94,231.94L273.22,271.5L274.49,232.88L275.77,246.13L277.05,238.9L278.32,207.22L279.6,233.64L280.88,230.74L282.15,175.78L283.43,218.42L284.71,107.89L287.26,228.32L288.54,227.91L289.81,234.44L291.09,225.25L292.37,234.51L293.64,207.46L294.92,241.83L296.2,197.11L297.47,233.89L298.75,248.55L302.58,215.33L303.86,241.31L305.13,205.5L306.41,242.17L307.69,246.1L308.96,219.33L310.24,211.64L311.52,213.07L312.79,245.04L314.07,207.71L315.35,257.87L316.62,258.84L317.9,255.56L319.18,205.91L320.45,232.79L321.73,223.07L323.01,215.77L324.28,249.11L325.56,245.66L326.84,224.45L328.12,201.01L329.39,229.99L330.67,141.8L331.95,189.8L333.22,236.29L334.5,222.74L335.78,196.57L337.05,245.13L338.33,168.01L339.61,245.31L340.88,244.75L342.16,264.24L343.44,267.97L344.71,260.91L347.27,246.13L348.54,258.03L349.82,234.39L351.1,271.37L352.37,273.59L353.65,256.42L354.93,267.13L356.2,269.37L357.48,245.69L358.76,265.32L360.03,276.89L361.31,277.98L362.59,278.15L363.86,276.5L365.14,280.4L366.42,215.59L367.69,274.94L368.97,285.13L371.52,281.7L372.8,281.59L374.08,284.51L375.35,283.06L376.63,275.05L377.91,285.23L380.46,276.5L381.74,252.77L383.01,250.66L384.29,251.3L385.57,248.35L386.84,252.38L390.67,280.78L391.95,271.04L393.23,284.26L394.5,267.81L395.78,286.29L397.06,286.02L398.33,275.5L399.61,205.49L400.89,199.45L402.16,243.14L404.72,280.12L405.99,285.22L407.27,278.94L408.55,284.16L409.82,288.12L411.1,284.6L412.38,285.56L413.65,294.33L414.93,290.96L416.21,275.99L417.48,279.01L418.76,277.65L420.04,289.27L421.32,290.34L423.87,295.06L425.15,275.68L426.42,282.77L427.7,277.99L428.98,287.19L430.25,286.82L431.53,293.77L432.81,295.59L434.08,290.61L435.36,293.78L437.91,291.71L439.19,291.96L440.47,299.31L441.74,296.49L443.02,293.68L444.3,272.5L446.85,288.43L448.13,268.55L449.4,293.81L450.68,296.82L451.96,295.09L453.23,288.85L454.51,297.41L455.79,296.58L458.34,302.4L459.62,299.81L460.89,301.07L462.17,295.21L464.72,295.39L466,299.08" style="vector-effect: non-scaling-stroke; fill: none; stroke: rgb(99, 110, 250); stroke-opacity: 1; stroke-width: 2px; opacity: 1;"/></g><g class="points"/><g class="text"/></g></g></g><g class="overplot"/><path class="xlines-above crisp" d="M0,0" style="fill: none;"/><path class="ylines-above crisp" d="M0,0" style="fill: none;"/><g class="overlines-above"/><g class="xaxislayer-above"><g class="xtick"><text text-anchor="middle" x="0" y="433" transform="translate(82.55,0)" style="font-family: 'Open Sans', verdana, arial, sans-serif; font-size: 12px; fill: rgb(42, 63, 95); fill-opacity: 1; white-space: pre; opacity: 1;">Jan 2022</text></g><g class="xtick"><text text-anchor="middle" x="0" y="433" style="font-family: 'Open Sans', verdana, arial, sans-serif; font-size: 12px; fill: rgb(42, 63, 95); fill-opacity: 1; white-space: pre; opacity: 1;" transform="translate(157.88,0)">Mar 2022</text></g><g class="xtick"><text text-anchor="middle" x="0" y="433" style="font-family: 'Open Sans', verdana, arial, sans-serif; font-size: 12px; fill: rgb(42, 63, 95); fill-opacity: 1; white-space: pre; opacity: 1;" transform="translate(235.76,0)">May 2022</text></g><g class="xtick"><text text-anchor="middle" x="0" y="433" style="font-family: 'Open Sans', verdana, arial, sans-serif; font-size: 12px; fill: rgb(42, 63, 95); fill-opacity: 1; white-space: pre; opacity: 1;" transform="translate(313.64,0)">Jul 2022</text></g><g class="xtick"><text text-anchor="middle" x="0" y="433" style="font-family: 'Open Sans', verdana, arial, sans-serif; font-size: 12px; fill: rgb(42, 63, 95); fill-opacity: 1; white-space: pre; opacity: 1;" transform="translate(392.79,0)">Sep 2022</text></g><g class="xtick"><text text-anchor="middle" x="0" y="433" style="font-family: 'Open Sans', verdana, arial, sans-serif; font-size: 12px; fill: rgb(42, 63, 95); fill-opacity: 1; white-space: pre; opacity: 1;" transform="translate(470.67,0)">Nov 2022</text></g></g><g class="yaxislayer-above"><g class="ytick"><text text-anchor="end" x="79" y="4.199999999999999" transform="translate(0,409.28)" style="font-family: 'Open Sans', verdana, arial, sans-serif; font-size: 12px; fill: rgb(42, 63, 95); fill-opacity: 1; white-space: pre; opacity: 1;">$0</text></g><g class="ytick"><text text-anchor="end" x="79" y="4.199999999999999" style="font-family: 'Open Sans', verdana, arial, sans-serif; font-size: 12px; fill: rgb(42, 63, 95); fill-opacity: 1; white-space: pre; opacity: 1;" transform="translate(0,341.08000000000004)">$200k</text></g><g class="ytick"><text text-anchor="end" x="79" y="4.199999999999999" style="font-family: 'Open Sans', verdana, arial, sans-serif; font-size: 12px; fill: rgb(42, 63, 95); fill-opacity: 1; white-space: pre; opacity: 1;" transform="translate(0,272.88)">$400k</text></g><g class="ytick"><text text-anchor="end" x="79" y="4.199999999999999" style="font-family: 'Open Sans', verdana, arial, sans-serif; font-size: 12px; fill: rgb(42, 63, 95); fill-opacity: 1; white-space: pre; opacity: 1;" transform="translate(0,204.69)">$600k</text></g><g class="ytick"><text text-anchor="end" x="79" y="4.199999999999999" style="font-family: 'Open Sans', verdana, arial, sans-serif; font-size: 12px; fill: rgb(42, 63, 95); fill-opacity: 1; white-space: pre; opacity: 1;" transform="translate(0,136.49)">$800k</text></g></g><g class="overaxes-above"/></g></g><g class="polarlayer"/><g class="smithlayer"/><g class="ternarylayer"/><g class="geolayer"/><g class="funnelarealayer"/><g class="pielayer"/><g class="iciclelayer"/><g class="treemaplayer"/><g class="sunburstlayer"/><g class="glimages"/><defs id="topdefs-49775e"><g class="clips"/><clipPath id="legend49775e"><rect width="133" height="48" x="0" y="0"/></clipPath></defs><g class="layer-above"><g class="imagelayer"/><g class="shapelayer"/></g><g class="infolayer"><g class="legend" pointer-events="all" transform="translate(555.3199999999999,100)"><rect class="bg" shape-rendering="crispEdges" style="stroke: rgb(68, 68, 68); stroke-opacity: 1; fill: rgb(255, 255, 255); fill-opacity: 1; stroke-width: 0px;" width="133" height="48" x="0" y="0"/><g class="scrollbox" transform="" clip-path="url(#legend49775e)"><text class="legendtitletext" text-anchor="start" x="2" y="18.2" style="font-family: 'Open Sans', verdana, arial, sans-serif; font-size: 14px; fill: rgb(42, 63, 95); fill-opacity: 1; white-space: pre;">metadata.blockchain</text><g class="groups" transform=""><g class="traces" transform="translate(0,32.7)" style="opacity: 1;"><text class="legendtext" text-anchor="start" x="40" y="4.680000000000001" style="font-family: 'Open Sans', verdana, arial, sans-serif; font-size: 12px; fill: rgb(42, 63, 95); fill-opacity: 1; white-space: pre;">Optimism</text><g class="layers" style="opacity: 1;"><g class="legendfill"/><g class="legendlines"><path class="js-line" d="M5,0h30" style="fill: none; stroke: rgb(99, 110, 250); stroke-opacity: 1; stroke-width: 2px;"/></g><g class="legendsymbols"><g class="legendpoints"/></g></g><rect class="legendtoggle" x="0" y="-9.5" width="90.671875" height="19" style="fill: rgb(0, 0, 0); fill-opacity: 0;"/></g></g></g><rect class="scrollbar" rx="20" ry="3" width="0" height="0" style="fill: rgb(128, 139, 164); fill-opacity: 1;" x="0" y="0"/></g><g class="g-gtitle"><text class="gtitle" x="35" y="50" text-anchor="start" dy="0em" style="font-family: 'Open Sans', verdana, arial, sans-serif; font-size: 17px; fill: rgb(42, 63, 95); opacity: 1; font-weight: normal; white-space: pre;">Sum Fees Earned on apps by Chain (USD)</text></g><g class="g-xtitle"><text class="xtitle" x="313" y="460.8" text-anchor="middle" style="font-family: 'Open Sans', verdana, arial, sans-serif; font-size: 14px; fill: rgb(42, 63, 95); opacity: 1; font-weight: normal; white-space: pre;">date</text></g><g class="g-ytitle"><text class="ytitle" transform="rotate(-90,21.496875000000003,260)" x="21.496875000000003" y="260" text-anchor="middle" style="font-family: 'Open Sans', verdana, arial, sans-serif; font-size: 14px; fill: rgb(42, 63, 95); opacity: 1; font-weight: normal; white-space: pre;">results.oneDayTotalFees</text></g></g></svg>