<svg class="main-svg" xmlns="http://www.w3.org/2000/svg" xmlns:xlink="http://www.w3.org/1999/xlink" width="700" height="500" style="" viewBox="0 0 700 500"><rect x="0" y="0" width="700" height="500" style="fill: rgb(255, 255, 255); fill-opacity: 1;"/><defs id="defs-c15df6"><g class="clips"><clipPath id="clipc15df6xyplot" class="plotclip"><rect width="466" height="320"/></clipPath><clipPath class="axesclip" id="clipc15df6x"><rect x="80" y="0" width="466" height="500"/></clipPath><clipPath class="axesclip" id="clipc15df6y"><rect x="0" y="100" width="700" height="320"/></clipPath><clipPath class="axesclip" id="clipc15df6xy"><rect x="80" y="100" width="466" height="320"/></clipPath></g><g class="gradients"/><g class="patterns"/></defs><g class="bglayer"><rect class="bg" x="80" y="100" width="466" height="320" style="fill: rgb(229, 236, 246); fill-opacity: 1; stroke-width: 0;"/></g><g class="layer-below"><g class="imagelayer"/><g class="shapelayer"/></g><g class="cartesianlayer"><g class="subplot xy"><g class="layer-subplot"><g class="shapelayer"/><g class="imagelayer"/></g><g class="minor-gridlayer"><g class="x"/><g class="y"/></g><g class="gridlayer"><g class="x"><path class="xgrid crisp" transform="translate(134.9,0)" d="M0,100v320" style="stroke: rgb(255, 255, 255); stroke-opacity: 1; stroke-width: 1px;"/><path class="xgrid crisp" transform="translate(210.22,0)" d="M0,100v320" style="stroke: rgb(255, 255, 255); stroke-opacity: 1; stroke-width: 1px;"/><path class="xgrid crisp" transform="translate(288.1,0)" d="M0,100v320" style="stroke: rgb(255, 255, 255); stroke-opacity: 1; stroke-width: 1px;"/><path class="xgrid crisp" transform="translate(365.98,0)" d="M0,100v320" style="stroke: rgb(255, 255, 255); stroke-opacity: 1; stroke-width: 1px;"/><path class="xgrid crisp" transform="translate(445.14,0)" d="M0,100v320" style="stroke: rgb(255, 255, 255); stroke-opacity: 1; stroke-width: 1px;"/><path class="xgrid crisp" transform="translate(523.02,0)" d="M0,100v320" style="stroke: rgb(255, 255, 255); stroke-opacity: 1; stroke-width: 1px;"/></g><g class="y"><path class="ygrid crisp" transform="translate(0,341.08000000000004)" d="M80,0h466" style="stroke: rgb(255, 255, 255); stroke-opacity: 1; stroke-width: 1px;"/><path class="ygrid crisp" transform="translate(0,272.88)" d="M80,0h466" style="stroke: rgb(255, 255, 255); stroke-opacity: 1; stroke-width: 1px;"/><path class="ygrid crisp" transform="translate(0,204.69)" d="M80,0h466" style="stroke: rgb(255, 255, 255); stroke-opacity: 1; stroke-width: 1px;"/><path class="ygrid crisp" transform="translate(0,136.49)" d="M80,0h466" style="stroke: rgb(255, 255, 255); stroke-opacity: 1; stroke-width: 1px;"/></g></g><g class="zerolinelayer"><path class="yzl zl crisp" transform="translate(0,409.28)" d="M80,0h466" style="stroke: rgb(255, 255, 255); stroke-opacity: 1; stroke-width: 2px;"/></g><path class="xlines-below"/><path class="ylines-below"/><g class="overlines-below"/><g class="xaxislayer-below"/><g class="yaxislayer-below"/><g class="overaxes-below"/><g class="plot" transform="translate(80,100)" clip-path="url(#clipc15df6xyplot)"><g class="scatterlayer mlayer"><g class="trace scatter trace3dc44a" style="stroke-miterlimit: 2; opacity: 1;"><g class="fills"/><g class="errorbars"/><g class="lines"><path class="js-line" d="M0,281.13L1.28,293.58L2.55,291.83L5.11,293.96L6.38,292.11L7.66,296.36L8.94,290.66L10.21,297.69L11.49,295.54L14.04,291.19L15.32,295.99L19.15,292.51L20.43,298.72L21.7,295.22L22.98,296.83L24.26,296.14L25.53,297.42L26.81,285.43L28.09,286.66L29.36,299.87L30.64,293.92L31.92,280.14L33.19,292.04L34.47,291.25L35.75,295.86L37.02,293.93L38.3,297.41L39.58,297.44L40.85,300.34L43.41,298.89L44.68,295.92L45.96,298.52L47.24,284.11L48.52,297.31L49.79,295.47L51.07,301.05L52.35,298.94L53.62,296.2L54.9,301.91L56.18,302.23L57.45,301.08L58.73,300.61L60.01,284.42L61.28,292.4L62.56,280.78L65.11,299.45L66.39,296.58L67.67,300.22L68.94,300.24L70.22,300.43L71.5,293.69L72.77,299.05L74.05,298.69L75.33,299.63L76.6,293.76L77.88,293.51L79.16,295.75L80.43,276.9L81.71,290.07L82.99,299.64L84.26,293.38L85.54,296.84L86.82,294.23L88.09,300.45L89.37,292.14L90.65,302.68L91.92,303.21L93.2,300.7L94.48,300.7L95.75,299.05L97.03,302.43L98.31,289.63L99.58,301.72L100.86,303.37L102.14,295.64L103.41,300.06L104.69,300.11L107.24,295.28L108.52,301.82L113.63,300.53L114.9,301.12L116.18,301.4L117.46,303.42L120.01,299.64L121.29,300.17L122.56,298.11L123.84,294.43L125.12,301.16L126.39,302.33L127.67,298.17L128.95,297.97L130.22,297.38L131.5,300.62L132.78,301.79L134.05,297.62L135.33,303.63L136.61,301.96L137.88,299.38L139.16,299.49L140.44,298.87L141.72,300.61L142.99,300.1L144.27,303.87L145.55,302.62L146.82,302.69L148.1,300.47L149.38,294.93L150.65,297.22L151.93,294.94L154.48,303.01L155.76,302.7L158.31,297.82L159.59,280.69L160.87,282.05L162.14,269.8L164.7,177.42L165.97,196.61L167.25,113.76L168.53,167.03L169.8,163.17L171.08,169.92L172.36,286.16L173.63,278.6L174.91,279.82L176.19,279.91L177.46,285L178.74,264.21L180.02,287.71L181.29,267.8L182.57,216.69L183.85,264.42L185.12,270.26L186.4,269.42L187.68,277.4L188.95,290.48L190.23,298.74L191.51,139.73L192.78,154.68L194.06,142.47L196.61,290.23L197.89,293.39L199.17,247.38L200.44,245.26L201.72,287.48L203,293.03L204.27,248.76L205.55,254.05L206.83,295.52L208.1,295.51L209.38,296.83L210.66,296.14L213.21,279.54L214.49,281.96L215.76,289.72L217.04,286.64L218.32,180.07L219.59,272.82L220.87,250.24L222.15,262.2L223.42,275.83L224.7,300.53L225.98,301.18L227.25,300.42L228.53,293.91L229.81,294.5L231.08,292.99L232.36,295.18L233.64,298.67L234.92,299.58L236.19,297.78L237.47,300.46L238.75,303.35L240.02,292.06L241.3,286.17L242.58,300.76L243.85,304L245.13,295.52L247.68,16L248.96,192.62L251.51,274.77L252.79,273.54L254.07,267.84L255.34,265.81L256.62,265.48L257.9,271.09L259.17,233.95L260.45,267.57L261.73,190.2L263,65.08L265.56,152.69L266.83,257.76L268.11,280.62L269.39,257.2L270.66,278.7L271.94,269.9L274.49,284.96L275.77,289.26L277.05,281.42L278.32,286.51L279.6,289.15L280.88,286.79L282.15,291.48L283.43,288.38L285.98,219.15L287.26,302.7L288.54,302.74L289.81,280.24L292.37,248.32L293.64,274.32L294.92,276.5L296.2,301.18L297.47,298.99L298.75,281.21L300.03,279.8L301.3,247.82L302.58,288.29L303.86,282.2L305.13,259.82L306.41,279.82L307.69,239.53L308.96,248.76L311.52,269.37L312.79,268.74L314.07,281.07L315.35,268.81L316.62,255.72L317.9,266.27L319.18,238.8L320.45,140.01L323.01,244.9L324.28,231.94L325.56,271.5L326.84,232.88L328.12,246.13L329.39,238.9L330.67,207.22L331.95,233.64L333.22,230.74L334.5,175.78L335.78,218.42L337.05,107.89L339.61,228.32L340.88,227.91L342.16,234.44L343.44,225.25L344.71,234.51L345.99,207.46L347.27,241.83L348.54,197.11L349.82,233.89L351.1,248.55L354.93,215.33L356.2,241.31L357.48,205.5L358.76,242.17L360.03,246.1L361.31,219.33L362.59,211.64L363.86,213.07L365.14,245.04L366.42,207.71L367.69,257.87L368.97,258.84L370.25,255.56L371.52,205.91L372.8,232.79L374.08,223.07L375.35,215.77L376.63,249.11L377.91,245.66L379.18,224.45L380.46,201.01L381.74,229.99L383.01,141.8L384.29,189.8L385.57,236.29L386.84,222.74L388.12,196.57L389.4,245.13L390.67,168.01L391.95,245.31L393.23,244.75L394.5,264.24L395.78,267.97L397.06,260.91L399.61,246.13L400.89,258.03L402.16,234.39L403.44,271.37L404.72,273.59L405.99,256.42L407.27,267.13L408.55,269.37L409.82,245.69L411.1,265.32L412.38,276.89L413.65,277.98L414.93,278.15L416.21,276.5L417.48,280.4L418.76,215.59L420.04,274.94L421.32,285.13L423.87,281.7L425.15,281.59L426.42,284.51L427.7,283.06L428.98,275.05L430.25,285.23L432.81,276.5L434.08,252.77L435.36,250.66L436.64,251.3L437.91,248.35L439.19,252.38L443.02,280.78L444.3,271.04L445.57,284.26L446.85,267.81L448.13,286.29L449.4,286.02L450.68,275.5L451.96,205.49L453.23,199.45L454.51,243.14L457.06,280.12L458.34,285.22L459.62,278.94L460.89,284.16L462.17,288.12L463.45,284.6L464.72,285.56L466,294.33" style="vector-effect: non-scaling-stroke; fill: none; stroke: rgb(99, 110, 250); stroke-opacity: 1; stroke-width: 2px; opacity: 1;"/></g><g class="points"/><g class="text"/></g></g></g><g class="overplot"/><path class="xlines-above crisp" d="M0,0" style="fill: none;"/><path class="ylines-above crisp" d="M0,0" style="fill: none;"/><g class="overlines-above"/><g class="xaxislayer-above"><g class="xtick"><text text-anchor="middle" x="0" y="433" transform="translate(134.9,0)" style="font-family: 'Open Sans', verdana, arial, sans-serif; font-size: 12px; fill: rgb(42, 63, 95); fill-opacity: 1; white-space: pre; opacity: 1;">Jan 2022</text></g><g class="xtick"><text text-anchor="middle" x="0" y="433" style="font-family: 'Open Sans', verdana, arial, sans-serif; font-size: 12px; fill: rgb(42, 63, 95); fill-opacity: 1; white-space: pre; opacity: 1;" transform="translate(210.22,0)">Mar 2022</text></g><g class="xtick"><text text-anchor="middle" x="0" y="433" style="font-family: 'Open Sans', verdana, arial, sans-serif; font-size: 12px; fill: rgb(42, 63, 95); fill-opacity: 1; white-space: pre; opacity: 1;" transform="translate(288.1,0)">May 2022</text></g><g class="xtick"><text text-anchor="middle" x="0" y="433" style="font-family: 'Open Sans', verdana, arial, sans-serif; font-size: 12px; fill: rgb(42, 63, 95); fill-opacity: 1; white-space: pre; opacity: 1;" transform="translate(365.98,0)">Jul 2022</text></g><g class="xtick"><text text-anchor="middle" x="0" y="433" style="font-family: 'Open Sans', verdana, arial, sans-serif; font-size: 12px; fill: rgb(42, 63, 95); fill-opacity: 1; white-space: pre; opacity: 1;" transform="translate(445.14,0)">Sep 2022</text></g><g class="xtick"><text text-anchor="middle" x="0" y="433" style="font-family: 'Open Sans', verdana, arial, sans-serif; font-size: 12px; fill: rgb(42, 63, 95); fill-opacity: 1; white-space: pre; opacity: 1;" transform="translate(523.02,0)">Nov 2022</text></g></g><g class="yaxislayer-above"><g class="ytick"><text text-anchor="end" x="79" y="4.199999999999999" transform="translate(0,409.28)" style="font-family: 'Open Sans', verdana, arial, sans-serif; font-size: 12px; fill: rgb(42, 63, 95); fill-opacity: 1; white-space: pre; opacity: 1;">$0</text></g><g class="ytick"><text text-anchor="end" x="79" y="4.199999999999999" style="font-family: 'Open Sans', verdana, arial, sans-serif; font-size: 12px; fill: rgb(42, 63, 95); fill-opacity: 1; white-space: pre; opacity: 1;" transform="translate(0,341.08000000000004)">$200k</text></g><g class="ytick"><text text-anchor="end" x="79" y="4.199999999999999" style="font-family: 'Open Sans', verdana, arial, sans-serif; font-size: 12px; fill: rgb(42, 63, 95); fill-opacity: 1; white-space: pre; opacity: 1;" transform="translate(0,272.88)">$400k</text></g><g class="ytick"><text text-anchor="end" x="79" y="4.199999999999999" style="font-family: 'Open Sans', verdana, arial, sans-serif; font-size: 12px; fill: rgb(42, 63, 95); fill-opacity: 1; white-space: pre; opacity: 1;" transform="translate(0,204.69)">$600k</text></g><g class="ytick"><text text-anchor="end" x="79" y="4.199999999999999" style="font-family: 'Open Sans', verdana, arial, sans-serif; font-size: 12px; fill: rgb(42, 63, 95); fill-opacity: 1; white-space: pre; opacity: 1;" transform="translate(0,136.49)">$800k</text></g></g><g class="overaxes-above"/></g></g><g class="polarlayer"/><g class="smithlayer"/><g class="ternarylayer"/><g class="geolayer"/><g class="funnelarealayer"/><g class="pielayer"/><g class="iciclelayer"/><g class="treemaplayer"/><g class="sunburstlayer"/><g class="glimages"/><defs id="topdefs-c15df6"><g class="clips"/><clipPath id="legendc15df6"><rect width="133" height="48" x="0" y="0"/></clipPath></defs><g class="layer-above"><g class="imagelayer"/><g class="shapelayer"/></g><g class="infolayer"><g class="legend" pointer-events="all" transform="translate(555.3199999999999,100)"><rect class="bg" shape-rendering="crispEdges" style="stroke: rgb(68, 68, 68); stroke-opacity: 1; fill: rgb(255, 255, 255); fill-opacity: 1; stroke-width: 0px;" width="133" height="48" x="0" y="0"/><g class="scrollbox" transform="" clip-path="url(#legendc15df6)"><text class="legendtitletext" text-anchor="start" x="2" y="18.2" style="font-family: 'Open Sans', verdana, arial, sans-serif; font-size: 14px; fill: rgb(42, 63, 95); fill-opacity: 1; white-space: pre;">metadata.blockchain</text><g class="groups" transform=""><g class="traces" transform="translate(0,32.7)" style="opacity: 1;"><text class="legendtext" text-anchor="start" x="40" y="4.680000000000001" style="font-family: 'Open Sans', verdana, arial, sans-serif; font-size: 12px; fill: rgb(42, 63, 95); fill-opacity: 1; white-space: pre;">Optimism</text><g class="layers" style="opacity: 1;"><g class="legendfill"/><g class="legendlines"><path class="js-line" d="M5,0h30" style="fill: none; stroke: rgb(99, 110, 250); stroke-opacity: 1; stroke-width: 2px;"/></g><g class="legendsymbols"><g class="legendpoints"/></g></g><rect class="legendtoggle" x="0" y="-9.5" width="90.671875" height="19" style="fill: rgb(0, 0, 0); fill-opacity: 0;"/></g></g></g><rect class="scrollbar" rx="20" ry="3" width="0" height="0" style="fill: rgb(128, 139, 164); fill-opacity: 1;" x="0" y="0"/></g><g class="g-gtitle"><text class="gtitle" x="35" y="50" text-anchor="start" dy="0em" style="font-family: 'Open Sans', verdana, arial, sans-serif; font-size: 17px; fill: rgb(42, 63, 95); opacity: 1; font-weight: normal; white-space: pre;">Sum Fees Earned on apps by Chain (USD)</text></g><g class="g-xtitle"><text class="xtitle" x="313" y="460.8" text-anchor="middle" style="font-family: 'Open Sans', verdana, arial, sans-serif; font-size: 14px; fill: rgb(42, 63, 95); opacity: 1; font-weight: normal; white-space: pre;">date</text></g><g class="g-ytitle"><text class="ytitle" transform="rotate(-90,21.496875000000003,260)" x="21.496875000000003" y="260" text-anchor="middle" style="font-family: 'Open Sans', verdana, arial, sans-serif; font-size: 14px; fill: rgb(42, 63, 95); opacity: 1; font-weight: normal; white-space: pre;">results.oneDayTotalFees</text></g></g></svg>