<svg class="main-svg" xmlns="http://www.w3.org/2000/svg" xmlns:xlink="http://www.w3.org/1999/xlink" width="700" height="500" style="" viewBox="0 0 700 500"><rect x="0" y="0" width="700" height="500" style="fill: rgb(255, 255, 255); fill-opacity: 1;"/><defs id="defs-eab28a"><g class="clips"><clipPath id="clipeab28axyplot" class="plotclip"><rect width="466" height="320"/></clipPath><clipPath class="axesclip" id="clipeab28ax"><rect x="80" y="0" width="466" height="500"/></clipPath><clipPath class="axesclip" id="clipeab28ay"><rect x="0" y="100" width="700" height="320"/></clipPath><clipPath class="axesclip" id="clipeab28axy"><rect x="80" y="100" width="466" height="320"/></clipPath></g><g class="gradients"/><g class="patterns"/></defs><g class="bglayer"><rect class="bg" x="80" y="100" width="466" height="320" style="fill: rgb(229, 236, 246); fill-opacity: 1; stroke-width: 0;"/></g><g class="layer-below"><g class="imagelayer"/><g class="shapelayer"/></g><g class="cartesianlayer"><g class="subplot xy"><g class="layer-subplot"><g class="shapelayer"/><g class="imagelayer"/></g><g class="minor-gridlayer"><g class="x"/><g class="y"/></g><g class="gridlayer"><g class="x"><path class="xgrid crisp" transform="translate(156.39,0)" d="M0,100v320" style="stroke: rgb(255, 255, 255); stroke-opacity: 1; stroke-width: 1px;"/><path class="xgrid crisp" transform="translate(246.54,0)" d="M0,100v320" style="stroke: rgb(255, 255, 255); stroke-opacity: 1; stroke-width: 1px;"/><path class="xgrid crisp" transform="translate(339.74,0)" d="M0,100v320" style="stroke: rgb(255, 255, 255); stroke-opacity: 1; stroke-width: 1px;"/><path class="xgrid crisp" transform="translate(432.94,0)" d="M0,100v320" style="stroke: rgb(255, 255, 255); stroke-opacity: 1; stroke-width: 1px;"/><path class="xgrid crisp" transform="translate(527.6700000000001,0)" d="M0,100v320" style="stroke: rgb(255, 255, 255); stroke-opacity: 1; stroke-width: 1px;"/></g><g class="y"><path class="ygrid crisp" transform="translate(0,341.08000000000004)" d="M80,0h466" style="stroke: rgb(255, 255, 255); stroke-opacity: 1; stroke-width: 1px;"/><path class="ygrid crisp" transform="translate(0,272.88)" d="M80,0h466" style="stroke: rgb(255, 255, 255); stroke-opacity: 1; stroke-width: 1px;"/><path class="ygrid crisp" transform="translate(0,204.69)" d="M80,0h466" style="stroke: rgb(255, 255, 255); stroke-opacity: 1; stroke-width: 1px;"/><path class="ygrid crisp" transform="translate(0,136.49)" d="M80,0h466" style="stroke: rgb(255, 255, 255); stroke-opacity: 1; stroke-width: 1px;"/></g></g><g class="zerolinelayer"><path class="yzl zl crisp" transform="translate(0,409.28)" d="M80,0h466" style="stroke: rgb(255, 255, 255); stroke-opacity: 1; stroke-width: 2px;"/></g><path class="xlines-below"/><path class="ylines-below"/><g class="overlines-below"/><g class="xaxislayer-below"/><g class="yaxislayer-below"/><g class="overaxes-below"/><g class="plot" transform="translate(80,100)" clip-path="url(#clipeab28axyplot)"><g class="scatterlayer mlayer"><g class="trace scatter traceadcbef" style="stroke-miterlimit: 2; opacity: 1;"><g class="fills"/><g class="errorbars"/><g class="lines"><path class="js-line" d="M0,295.36L3.06,288.59L4.58,291.34L7.64,284.43L9.17,290.43L10.7,281.13L12.22,293.58L13.75,291.83L15.28,293.32L16.81,293.96L18.33,292.11L19.86,296.36L21.39,290.66L22.92,297.69L24.45,295.54L27.5,291.19L29.03,295.99L33.61,292.51L35.14,298.72L36.67,295.22L38.2,296.83L39.72,296.14L41.25,297.42L42.78,285.43L44.31,286.66L45.84,299.87L47.36,293.92L48.89,280.14L50.42,292.04L51.95,291.25L53.48,295.86L55,293.93L56.53,297.41L58.06,297.44L59.59,300.34L62.64,298.89L64.17,295.92L65.7,298.52L67.23,284.11L68.75,297.31L70.28,295.47L71.81,301.05L73.34,298.94L74.87,296.2L76.39,301.91L77.92,302.23L79.45,301.08L80.98,300.61L82.5,284.42L84.03,292.4L85.56,280.78L88.62,299.45L90.14,296.58L91.67,300.22L93.2,300.24L94.73,300.43L96.26,293.69L97.78,299.05L99.31,298.69L100.84,299.63L102.37,293.76L103.9,293.51L105.42,295.75L106.95,276.9L108.48,290.07L110.01,299.64L111.53,293.38L113.06,296.84L114.59,294.23L116.12,300.45L117.65,292.14L119.17,302.68L120.7,303.21L122.23,300.7L123.76,300.7L125.29,299.05L126.81,302.43L128.34,289.63L129.87,301.72L131.4,303.37L132.92,295.64L134.45,300.06L135.98,300.11L139.04,295.28L140.56,301.82L146.68,300.53L148.2,301.12L149.73,301.4L151.26,303.42L154.31,299.64L155.84,300.17L157.37,298.11L158.9,294.43L160.43,301.16L161.95,302.33L163.48,298.17L165.01,297.97L166.54,297.38L168.07,300.62L169.59,301.79L171.12,297.62L172.65,303.63L174.18,301.96L175.7,299.38L177.23,299.49L178.76,298.87L180.29,300.61L181.82,300.1L183.34,303.87L184.87,302.62L186.4,302.69L187.93,300.47L189.46,294.93L190.98,297.22L192.51,294.94L195.57,303.01L197.1,302.7L200.15,297.82L201.68,280.69L203.21,282.05L204.73,269.8L207.79,177.42L209.32,196.61L210.85,113.76L212.37,167.03L213.9,163.17L215.43,169.92L216.96,286.16L218.49,278.6L220.01,279.82L221.54,279.91L223.07,285L224.6,264.21L226.12,287.71L227.65,267.8L229.18,216.69L230.71,264.42L232.24,270.26L233.76,269.42L235.29,277.4L236.82,290.48L238.35,298.74L239.88,139.73L241.4,154.68L242.93,142.47L245.99,290.23L247.51,293.39L249.04,247.38L250.57,245.26L252.1,287.48L253.63,293.03L255.15,248.76L256.68,254.05L258.21,295.52L259.74,295.51L261.27,296.83L262.79,296.14L265.85,279.54L267.38,281.96L268.9,289.72L270.43,286.64L271.96,180.07L273.49,272.82L275.02,250.24L276.54,262.2L278.07,275.83L279.6,300.53L281.13,301.18L282.66,300.42L284.18,293.91L285.71,294.5L287.24,292.99L288.77,295.18L290.3,298.67L291.82,299.58L293.35,297.78L294.88,300.46L296.41,303.35L297.93,292.06L299.46,286.17L300.99,300.76L302.52,304L305.57,162.99L307.1,16L308.63,192.62L311.69,274.77L313.21,273.54L314.74,267.84L316.27,265.81L317.8,265.48L319.32,271.09L320.85,233.95L322.38,267.57L323.91,190.2L325.44,65.08L328.49,152.69L330.02,257.76L331.55,280.62L333.08,257.2L334.6,278.7L336.13,269.9L339.19,284.96L340.71,289.26L343.77,286.51L345.3,289.15L346.83,286.79L348.35,291.48L349.88,288.38L351.41,257.38L352.94,219.15L354.47,302.7L355.99,302.74L357.52,280.24L359.05,257.84L360.58,248.32L362.1,274.32L363.63,276.5L365.16,301.18L366.69,298.99L368.22,281.21L369.74,279.8L371.27,247.82L372.8,288.29L374.33,282.2L375.86,259.82L377.38,279.82L378.91,239.53L383.5,269.37L385.02,268.74L386.55,281.07L388.08,268.81L389.61,255.72L391.13,266.27L392.66,238.8L394.19,140.01L397.25,244.9L398.77,231.94L400.3,271.5L401.83,232.88L403.36,246.13L404.89,238.9L406.41,207.22L407.94,233.64L409.47,230.74L411,175.78L412.52,218.42L414.05,107.89L417.11,228.32L418.64,227.91L420.16,234.44L423.22,234.51L424.75,207.46L426.28,241.83L427.8,197.11L429.33,233.89L430.86,248.55L432.39,236.31L433.91,229.31L435.44,215.33L436.97,241.31L438.5,205.5L440.03,242.17L441.55,246.1L443.08,219.33L444.61,211.64L447.67,245.04L449.19,207.71L450.72,257.87L452.25,258.84L455.3,205.91L456.83,232.79L459.89,215.77L461.42,249.11L462.94,245.66L464.47,224.45L466,201.01" style="vector-effect: non-scaling-stroke; fill: none; stroke: rgb(99, 110, 250); stroke-opacity: 1; stroke-width: 2px; opacity: 1;"/></g><g class="points"/><g class="text"/></g></g></g><g class="overplot"/><path class="xlines-above crisp" d="M0,0" style="fill: none;"/><path class="ylines-above crisp" d="M0,0" style="fill: none;"/><g class="overlines-above"/><g class="xaxislayer-above"><g class="xtick"><text text-anchor="middle" x="0" y="433" transform="translate(156.39,0)" style="font-family: 'Open Sans', verdana, arial, sans-serif; font-size: 12px; fill: rgb(42, 63, 95); fill-opacity: 1; white-space: pre; opacity: 1;">Jan 2022</text></g><g class="xtick"><text text-anchor="middle" x="0" y="433" style="font-family: 'Open Sans', verdana, arial, sans-serif; font-size: 12px; fill: rgb(42, 63, 95); fill-opacity: 1; white-space: pre; opacity: 1;" transform="translate(246.54,0)">Mar 2022</text></g><g class="xtick"><text text-anchor="middle" x="0" y="433" style="font-family: 'Open Sans', verdana, arial, sans-serif; font-size: 12px; fill: rgb(42, 63, 95); fill-opacity: 1; white-space: pre; opacity: 1;" transform="translate(339.74,0)">May 2022</text></g><g class="xtick"><text text-anchor="middle" x="0" y="433" style="font-family: 'Open Sans', verdana, arial, sans-serif; font-size: 12px; fill: rgb(42, 63, 95); fill-opacity: 1; white-space: pre; opacity: 1;" transform="translate(432.94,0)">Jul 2022</text></g><g class="xtick"><text text-anchor="middle" x="0" y="433" style="font-family: 'Open Sans', verdana, arial, sans-serif; font-size: 12px; fill: rgb(42, 63, 95); fill-opacity: 1; white-space: pre; opacity: 1;" transform="translate(527.6700000000001,0)">Sep 2022</text></g></g><g class="yaxislayer-above"><g class="ytick"><text text-anchor="end" x="79" y="4.199999999999999" transform="translate(0,409.28)" style="font-family: 'Open Sans', verdana, arial, sans-serif; font-size: 12px; fill: rgb(42, 63, 95); fill-opacity: 1; white-space: pre; opacity: 1;">$0</text></g><g class="ytick"><text text-anchor="end" x="79" y="4.199999999999999" style="font-family: 'Open Sans', verdana, arial, sans-serif; font-size: 12px; fill: rgb(42, 63, 95); fill-opacity: 1; white-space: pre; opacity: 1;" transform="translate(0,341.08000000000004)">$200k</text></g><g class="ytick"><text text-anchor="end" x="79" y="4.199999999999999" style="font-family: 'Open Sans', verdana, arial, sans-serif; font-size: 12px; fill: rgb(42, 63, 95); fill-opacity: 1; white-space: pre; opacity: 1;" transform="translate(0,272.88)">$400k</text></g><g class="ytick"><text text-anchor="end" x="79" y="4.199999999999999" style="font-family: 'Open Sans', verdana, arial, sans-serif; font-size: 12px; fill: rgb(42, 63, 95); fill-opacity: 1; white-space: pre; opacity: 1;" transform="translate(0,204.69)">$600k</text></g><g class="ytick"><text text-anchor="end" x="79" y="4.199999999999999" style="font-family: 'Open Sans', verdana, arial, sans-serif; font-size: 12px; fill: rgb(42, 63, 95); fill-opacity: 1; white-space: pre; opacity: 1;" transform="translate(0,136.49)">$800k</text></g></g><g class="overaxes-above"/></g></g><g class="polarlayer"/><g class="smithlayer"/><g class="ternarylayer"/><g class="geolayer"/><g class="funnelarealayer"/><g class="pielayer"/><g class="iciclelayer"/><g class="treemaplayer"/><g class="sunburstlayer"/><g class="glimages"/><defs id="topdefs-eab28a"><g class="clips"/><clipPath id="legendeab28a"><rect width="133" height="48" x="0" y="0"/></clipPath></defs><g class="layer-above"><g class="imagelayer"/><g class="shapelayer"/></g><g class="infolayer"><g class="legend" pointer-events="all" transform="translate(555.3199999999999,100)"><rect class="bg" shape-rendering="crispEdges" style="stroke: rgb(68, 68, 68); stroke-opacity: 1; fill: rgb(255, 255, 255); fill-opacity: 1; stroke-width: 0px;" width="133" height="48" x="0" y="0"/><g class="scrollbox" transform="" clip-path="url(#legendeab28a)"><text class="legendtitletext" text-anchor="start" x="2" y="18.2" style="font-family: 'Open Sans', verdana, arial, sans-serif; font-size: 14px; fill: rgb(42, 63, 95); fill-opacity: 1; white-space: pre;">metadata.blockchain</text><g class="groups" transform=""><g class="traces" transform="translate(0,32.7)" style="opacity: 1;"><text class="legendtext" text-anchor="start" x="40" y="4.680000000000001" style="font-family: 'Open Sans', verdana, arial, sans-serif; font-size: 12px; fill: rgb(42, 63, 95); fill-opacity: 1; white-space: pre;">Optimism</text><g class="layers" style="opacity: 1;"><g class="legendfill"/><g class="legendlines"><path class="js-line" d="M5,0h30" style="fill: none; stroke: rgb(99, 110, 250); stroke-opacity: 1; stroke-width: 2px;"/></g><g class="legendsymbols"><g class="legendpoints"/></g></g><rect class="legendtoggle" x="0" y="-9.5" width="90.671875" height="19" style="fill: rgb(0, 0, 0); fill-opacity: 0;"/></g></g></g><rect class="scrollbar" rx="20" ry="3" width="0" height="0" style="fill: rgb(128, 139, 164); fill-opacity: 1;" x="0" y="0"/></g><g class="g-gtitle"><text class="gtitle" x="35" y="50" text-anchor="start" dy="0em" style="font-family: 'Open Sans', verdana, arial, sans-serif; font-size: 17px; fill: rgb(42, 63, 95); opacity: 1; font-weight: normal; white-space: pre;">Sum Fees Earned on apps by Chain (USD)</text></g><g class="g-xtitle"><text class="xtitle" x="313" y="460.8" text-anchor="middle" style="font-family: 'Open Sans', verdana, arial, sans-serif; font-size: 14px; fill: rgb(42, 63, 95); opacity: 1; font-weight: normal; white-space: pre;">date</text></g><g class="g-ytitle"><text class="ytitle" transform="rotate(-90,21.496875000000003,260)" x="21.496875000000003" y="260" text-anchor="middle" style="font-family: 'Open Sans', verdana, arial, sans-serif; font-size: 14px; fill: rgb(42, 63, 95); opacity: 1; font-weight: normal; white-space: pre;">results.oneDayTotalFees</text></g></g></svg>