<svg class="main-svg" xmlns="http://www.w3.org/2000/svg" xmlns:xlink="http://www.w3.org/1999/xlink" width="700" height="500" style="" viewBox="0 0 700 500"><rect x="0" y="0" width="700" height="500" style="fill: rgb(255, 255, 255); fill-opacity: 1;"/><defs id="defs-724d5f"><g class="clips"><clipPath id="clip724d5fxyplot" class="plotclip"><rect width="466" height="320"/></clipPath><clipPath class="axesclip" id="clip724d5fx"><rect x="80" y="0" width="466" height="500"/></clipPath><clipPath class="axesclip" id="clip724d5fy"><rect x="0" y="100" width="700" height="320"/></clipPath><clipPath class="axesclip" id="clip724d5fxy"><rect x="80" y="100" width="466" height="320"/></clipPath></g><g class="gradients"/><g class="patterns"/></defs><g class="bglayer"><rect class="bg" x="80" y="100" width="466" height="320" style="fill: rgb(229, 236, 246); fill-opacity: 1; stroke-width: 0;"/></g><g class="layer-below"><g class="imagelayer"/><g class="shapelayer"/></g><g class="cartesianlayer"><g class="subplot xy"><g class="layer-subplot"><g class="shapelayer"/><g class="imagelayer"/></g><g class="minor-gridlayer"><g class="x"/><g class="y"/></g><g class="gridlayer"><g class="x"><path class="xgrid crisp" transform="translate(152.14,0)" d="M0,100v320" style="stroke: rgb(255, 255, 255); stroke-opacity: 1; stroke-width: 1px;"/><path class="xgrid crisp" transform="translate(237.26,0)" d="M0,100v320" style="stroke: rgb(255, 255, 255); stroke-opacity: 1; stroke-width: 1px;"/><path class="xgrid crisp" transform="translate(325.26,0)" d="M0,100v320" style="stroke: rgb(255, 255, 255); stroke-opacity: 1; stroke-width: 1px;"/><path class="xgrid crisp" transform="translate(413.27,0)" d="M0,100v320" style="stroke: rgb(255, 255, 255); stroke-opacity: 1; stroke-width: 1px;"/><path class="xgrid crisp" transform="translate(502.72,0)" d="M0,100v320" style="stroke: rgb(255, 255, 255); stroke-opacity: 1; stroke-width: 1px;"/></g><g class="y"><path class="ygrid crisp" transform="translate(0,341.08000000000004)" d="M80,0h466" style="stroke: rgb(255, 255, 255); stroke-opacity: 1; stroke-width: 1px;"/><path class="ygrid crisp" transform="translate(0,272.88)" d="M80,0h466" style="stroke: rgb(255, 255, 255); stroke-opacity: 1; stroke-width: 1px;"/><path class="ygrid crisp" transform="translate(0,204.69)" d="M80,0h466" style="stroke: rgb(255, 255, 255); stroke-opacity: 1; stroke-width: 1px;"/><path class="ygrid crisp" transform="translate(0,136.49)" d="M80,0h466" style="stroke: rgb(255, 255, 255); stroke-opacity: 1; stroke-width: 1px;"/></g></g><g class="zerolinelayer"><path class="yzl zl crisp" transform="translate(0,409.28)" d="M80,0h466" style="stroke: rgb(255, 255, 255); stroke-opacity: 1; stroke-width: 2px;"/></g><path class="xlines-below"/><path class="ylines-below"/><g class="overlines-below"/><g class="xaxislayer-below"/><g class="yaxislayer-below"/><g class="overaxes-below"/><g class="plot" transform="translate(80,100)" clip-path="url(#clip724d5fxyplot)"><g class="scatterlayer mlayer"><g class="trace scatter tracef9eba1" style="stroke-miterlimit: 2; opacity: 1;"><g class="fills"/><g class="errorbars"/><g class="lines"><path class="js-line" d="M0,295.36L2.89,288.59L4.33,291.34L7.21,284.43L8.66,290.43L10.1,281.13L11.54,293.58L12.98,291.83L14.43,293.32L15.87,293.96L17.31,292.11L18.76,296.36L20.2,290.66L21.64,297.69L23.08,295.54L25.97,291.19L27.41,295.99L31.74,292.51L33.18,298.72L34.63,295.22L36.07,296.83L37.51,296.14L38.95,297.42L40.4,285.43L41.84,286.66L43.28,299.87L44.72,293.92L46.17,280.14L47.61,292.04L49.05,291.25L50.5,295.86L51.94,293.93L53.38,297.41L54.82,297.44L56.27,300.34L59.15,298.89L60.59,295.92L62.04,298.52L63.48,284.11L64.92,297.31L66.37,295.47L67.81,301.05L69.25,298.94L70.69,296.2L72.14,301.91L73.58,302.23L75.02,301.08L76.46,300.61L77.91,284.42L79.35,292.4L80.79,280.78L83.68,299.45L85.12,296.58L86.56,300.22L88.01,300.24L89.45,300.43L90.89,293.69L92.33,299.05L93.78,298.69L95.22,299.63L96.66,293.76L98.11,293.51L99.55,295.75L100.99,276.9L102.43,290.07L103.88,299.64L105.32,293.38L106.76,296.84L108.2,294.23L109.65,300.45L111.09,292.14L112.53,302.68L113.98,303.21L115.42,300.7L116.86,300.7L118.3,299.05L119.75,302.43L121.19,289.63L122.63,301.72L124.07,303.37L125.52,295.64L126.96,300.06L128.4,300.11L131.29,295.28L132.73,301.82L138.5,300.53L139.94,301.12L141.39,301.4L142.83,303.42L145.72,299.64L147.16,300.17L148.6,298.11L150.04,294.43L151.49,301.16L152.93,302.33L154.37,298.17L155.81,297.97L157.26,297.38L158.7,300.62L160.14,301.79L161.59,297.62L163.03,303.63L164.47,301.96L165.91,299.38L167.36,299.49L168.8,298.87L170.24,300.61L171.68,300.1L173.13,303.87L174.57,302.62L176.01,302.69L177.46,300.47L178.9,294.93L180.34,297.22L181.78,294.94L184.67,303.01L186.11,302.7L189,297.82L190.44,280.69L191.88,282.05L193.33,269.8L196.21,177.42L197.65,196.61L199.1,113.76L200.54,167.03L201.98,163.17L203.42,169.92L204.87,286.16L206.31,278.6L207.75,279.82L209.2,279.91L210.64,285L212.08,264.21L213.52,287.71L214.97,267.8L216.41,216.69L217.85,264.42L219.29,270.26L220.74,269.42L222.18,277.4L223.62,290.48L225.07,298.74L226.51,139.73L227.95,154.68L229.39,142.47L232.28,290.23L233.72,293.39L235.16,247.38L236.61,245.26L238.05,287.48L239.49,293.03L240.93,248.76L242.38,254.05L243.82,295.52L245.26,295.51L246.71,296.83L248.15,296.14L251.03,279.54L252.48,281.96L253.92,289.72L255.36,286.64L256.8,180.07L258.25,272.82L259.69,250.24L261.13,262.2L262.58,275.83L264.02,300.53L265.46,301.18L266.9,300.42L268.35,293.91L269.79,294.5L271.23,292.99L272.67,295.18L274.12,298.67L275.56,299.58L277,297.78L278.45,300.46L279.89,303.35L281.33,292.06L282.77,286.17L284.22,300.76L285.66,304L287.1,295.52L289.99,16L291.43,192.62L294.32,274.77L295.76,273.54L297.2,267.84L298.64,265.81L300.09,265.48L301.53,271.09L302.97,233.95L304.41,267.57L305.86,190.2L307.3,65.08L310.19,152.69L311.63,257.76L313.07,280.62L314.51,257.2L315.96,278.7L317.4,269.9L320.28,284.96L321.73,289.26L323.17,281.42L324.61,286.51L326.06,289.15L327.5,286.79L328.94,291.48L330.38,288.38L333.27,219.15L334.71,302.7L336.15,302.74L337.6,280.24L339.04,257.84L340.48,248.32L341.93,274.32L343.37,276.5L344.81,301.18L346.25,298.99L347.7,281.21L349.14,279.8L350.58,247.82L352.02,288.29L353.47,282.2L354.91,259.82L356.35,279.82L357.8,239.53L362.12,269.37L363.57,268.74L365.01,281.07L366.45,268.81L367.89,255.72L369.34,266.27L370.78,238.8L372.22,140.01L375.11,244.9L376.55,231.94L377.99,271.5L379.44,232.88L380.88,246.13L382.32,238.9L383.76,207.22L385.21,233.64L386.65,230.74L388.09,175.78L389.54,218.42L390.98,107.89L393.86,228.32L395.31,227.91L396.75,234.44L398.19,225.25L399.63,234.51L401.08,207.46L402.52,241.83L403.96,197.11L405.41,233.89L406.85,248.55L411.18,215.33L412.62,241.31L414.06,205.5L415.5,242.17L416.95,246.1L418.39,219.33L419.83,211.64L421.28,213.07L422.72,245.04L424.16,207.71L425.6,257.87L427.05,258.84L428.49,255.56L429.93,205.91L431.37,232.79L432.82,223.07L434.26,215.77L435.7,249.11L437.15,245.66L438.59,224.45L440.03,201.01L441.47,229.99L442.92,141.8L444.36,189.8L445.8,236.29L447.24,222.74L448.69,196.57L450.13,245.13L451.57,168.01L453.02,245.31L454.46,244.75L455.9,264.24L457.34,267.97L458.79,260.91L461.67,246.13L463.11,258.03L464.56,234.39L466,271.37" style="vector-effect: non-scaling-stroke; fill: none; stroke: rgb(99, 110, 250); stroke-opacity: 1; stroke-width: 2px; opacity: 1;"/></g><g class="points"/><g class="text"/></g></g></g><g class="overplot"/><path class="xlines-above crisp" d="M0,0" style="fill: none;"/><path class="ylines-above crisp" d="M0,0" style="fill: none;"/><g class="overlines-above"/><g class="xaxislayer-above"><g class="xtick"><text text-anchor="middle" x="0" y="433" transform="translate(152.14,0)" style="font-family: 'Open Sans', verdana, arial, sans-serif; font-size: 12px; fill: rgb(42, 63, 95); fill-opacity: 1; white-space: pre; opacity: 1;">Jan 2022</text></g><g class="xtick"><text text-anchor="middle" x="0" y="433" style="font-family: 'Open Sans', verdana, arial, sans-serif; font-size: 12px; fill: rgb(42, 63, 95); fill-opacity: 1; white-space: pre; opacity: 1;" transform="translate(237.26,0)">Mar 2022</text></g><g class="xtick"><text text-anchor="middle" x="0" y="433" style="font-family: 'Open Sans', verdana, arial, sans-serif; font-size: 12px; fill: rgb(42, 63, 95); fill-opacity: 1; white-space: pre; opacity: 1;" transform="translate(325.26,0)">May 2022</text></g><g class="xtick"><text text-anchor="middle" x="0" y="433" style="font-family: 'Open Sans', verdana, arial, sans-serif; font-size: 12px; fill: rgb(42, 63, 95); fill-opacity: 1; white-space: pre; opacity: 1;" transform="translate(413.27,0)">Jul 2022</text></g><g class="xtick"><text text-anchor="middle" x="0" y="433" style="font-family: 'Open Sans', verdana, arial, sans-serif; font-size: 12px; fill: rgb(42, 63, 95); fill-opacity: 1; white-space: pre; opacity: 1;" transform="translate(502.72,0)">Sep 2022</text></g></g><g class="yaxislayer-above"><g class="ytick"><text text-anchor="end" x="79" y="4.199999999999999" transform="translate(0,409.28)" style="font-family: 'Open Sans', verdana, arial, sans-serif; font-size: 12px; fill: rgb(42, 63, 95); fill-opacity: 1; white-space: pre; opacity: 1;">$0</text></g><g class="ytick"><text text-anchor="end" x="79" y="4.199999999999999" style="font-family: 'Open Sans', verdana, arial, sans-serif; font-size: 12px; fill: rgb(42, 63, 95); fill-opacity: 1; white-space: pre; opacity: 1;" transform="translate(0,341.08000000000004)">$200k</text></g><g class="ytick"><text text-anchor="end" x="79" y="4.199999999999999" style="font-family: 'Open Sans', verdana, arial, sans-serif; font-size: 12px; fill: rgb(42, 63, 95); fill-opacity: 1; white-space: pre; opacity: 1;" transform="translate(0,272.88)">$400k</text></g><g class="ytick"><text text-anchor="end" x="79" y="4.199999999999999" style="font-family: 'Open Sans', verdana, arial, sans-serif; font-size: 12px; fill: rgb(42, 63, 95); fill-opacity: 1; white-space: pre; opacity: 1;" transform="translate(0,204.69)">$600k</text></g><g class="ytick"><text text-anchor="end" x="79" y="4.199999999999999" style="font-family: 'Open Sans', verdana, arial, sans-serif; font-size: 12px; fill: rgb(42, 63, 95); fill-opacity: 1; white-space: pre; opacity: 1;" transform="translate(0,136.49)">$800k</text></g></g><g class="overaxes-above"/></g></g><g class="polarlayer"/><g class="smithlayer"/><g class="ternarylayer"/><g class="geolayer"/><g class="funnelarealayer"/><g class="pielayer"/><g class="iciclelayer"/><g class="treemaplayer"/><g class="sunburstlayer"/><g class="glimages"/><defs id="topdefs-724d5f"><g class="clips"/><clipPath id="legend724d5f"><rect width="133" height="48" x="0" y="0"/></clipPath></defs><g class="layer-above"><g class="imagelayer"/><g class="shapelayer"/></g><g class="infolayer"><g class="legend" pointer-events="all" transform="translate(555.3199999999999,100)"><rect class="bg" shape-rendering="crispEdges" style="stroke: rgb(68, 68, 68); stroke-opacity: 1; fill: rgb(255, 255, 255); fill-opacity: 1; stroke-width: 0px;" width="133" height="48" x="0" y="0"/><g class="scrollbox" transform="" clip-path="url(#legend724d5f)"><text class="legendtitletext" text-anchor="start" x="2" y="18.2" style="font-family: 'Open Sans', verdana, arial, sans-serif; font-size: 14px; fill: rgb(42, 63, 95); fill-opacity: 1; white-space: pre;">metadata.blockchain</text><g class="groups" transform=""><g class="traces" transform="translate(0,32.7)" style="opacity: 1;"><text class="legendtext" text-anchor="start" x="40" y="4.680000000000001" style="font-family: 'Open Sans', verdana, arial, sans-serif; font-size: 12px; fill: rgb(42, 63, 95); fill-opacity: 1; white-space: pre;">Optimism</text><g class="layers" style="opacity: 1;"><g class="legendfill"/><g class="legendlines"><path class="js-line" d="M5,0h30" style="fill: none; stroke: rgb(99, 110, 250); stroke-opacity: 1; stroke-width: 2px;"/></g><g class="legendsymbols"><g class="legendpoints"/></g></g><rect class="legendtoggle" x="0" y="-9.5" width="90.671875" height="19" style="fill: rgb(0, 0, 0); fill-opacity: 0;"/></g></g></g><rect class="scrollbar" rx="20" ry="3" width="0" height="0" style="fill: rgb(128, 139, 164); fill-opacity: 1;" x="0" y="0"/></g><g class="g-gtitle"><text class="gtitle" x="35" y="50" text-anchor="start" dy="0em" style="font-family: 'Open Sans', verdana, arial, sans-serif; font-size: 17px; fill: rgb(42, 63, 95); opacity: 1; font-weight: normal; white-space: pre;">Sum Fees Earned on apps by Chain (USD)</text></g><g class="g-xtitle"><text class="xtitle" x="313" y="460.8" text-anchor="middle" style="font-family: 'Open Sans', verdana, arial, sans-serif; font-size: 14px; fill: rgb(42, 63, 95); opacity: 1; font-weight: normal; white-space: pre;">date</text></g><g class="g-ytitle"><text class="ytitle" transform="rotate(-90,21.496875000000003,260)" x="21.496875000000003" y="260" text-anchor="middle" style="font-family: 'Open Sans', verdana, arial, sans-serif; font-size: 14px; fill: rgb(42, 63, 95); opacity: 1; font-weight: normal; white-space: pre;">results.oneDayTotalFees</text></g></g></svg>