<svg class="main-svg" xmlns="http://www.w3.org/2000/svg" xmlns:xlink="http://www.w3.org/1999/xlink" width="700" height="500" style="" viewBox="0 0 700 500"><rect x="0" y="0" width="700" height="500" style="fill: rgb(255, 255, 255); fill-opacity: 1;"/><defs id="defs-99b7be"><g class="clips"><clipPath id="clip99b7bexyplot" class="plotclip"><rect width="466" height="320"/></clipPath><clipPath class="axesclip" id="clip99b7bex"><rect x="80" y="0" width="466" height="500"/></clipPath><clipPath class="axesclip" id="clip99b7bey"><rect x="0" y="100" width="700" height="320"/></clipPath><clipPath class="axesclip" id="clip99b7bexy"><rect x="80" y="100" width="466" height="320"/></clipPath></g><g class="gradients"/><g class="patterns"/></defs><g class="bglayer"><rect class="bg" x="80" y="100" width="466" height="320" style="fill: rgb(229, 236, 246); fill-opacity: 1; stroke-width: 0;"/></g><g class="layer-below"><g class="imagelayer"/><g class="shapelayer"/></g><g class="cartesianlayer"><g class="subplot xy"><g class="layer-subplot"><g class="shapelayer"/><g class="imagelayer"/></g><g class="minor-gridlayer"><g class="x"/><g class="y"/></g><g class="gridlayer"><g class="x"><path class="xgrid crisp" transform="translate(145.45,0)" d="M0,100v320" style="stroke: rgb(255, 255, 255); stroke-opacity: 1; stroke-width: 1px;"/><path class="xgrid crisp" transform="translate(222.68,0)" d="M0,100v320" style="stroke: rgb(255, 255, 255); stroke-opacity: 1; stroke-width: 1px;"/><path class="xgrid crisp" transform="translate(302.53,0)" d="M0,100v320" style="stroke: rgb(255, 255, 255); stroke-opacity: 1; stroke-width: 1px;"/><path class="xgrid crisp" transform="translate(382.38,0)" d="M0,100v320" style="stroke: rgb(255, 255, 255); stroke-opacity: 1; stroke-width: 1px;"/><path class="xgrid crisp" transform="translate(463.53,0)" d="M0,100v320" style="stroke: rgb(255, 255, 255); stroke-opacity: 1; stroke-width: 1px;"/><path class="xgrid crisp" transform="translate(543.38,0)" d="M0,100v320" style="stroke: rgb(255, 255, 255); stroke-opacity: 1; stroke-width: 1px;"/></g><g class="y"><path class="ygrid crisp" transform="translate(0,341.08000000000004)" d="M80,0h466" style="stroke: rgb(255, 255, 255); stroke-opacity: 1; stroke-width: 1px;"/><path class="ygrid crisp" transform="translate(0,272.88)" d="M80,0h466" style="stroke: rgb(255, 255, 255); stroke-opacity: 1; stroke-width: 1px;"/><path class="ygrid crisp" transform="translate(0,204.69)" d="M80,0h466" style="stroke: rgb(255, 255, 255); stroke-opacity: 1; stroke-width: 1px;"/><path class="ygrid crisp" transform="translate(0,136.49)" d="M80,0h466" style="stroke: rgb(255, 255, 255); stroke-opacity: 1; stroke-width: 1px;"/></g></g><g class="zerolinelayer"><path class="yzl zl crisp" transform="translate(0,409.28)" d="M80,0h466" style="stroke: rgb(255, 255, 255); stroke-opacity: 1; stroke-width: 2px;"/></g><path class="xlines-below"/><path class="ylines-below"/><g class="overlines-below"/><g class="xaxislayer-below"/><g class="yaxislayer-below"/><g class="overaxes-below"/><g class="plot" transform="translate(80,100)" clip-path="url(#clip99b7bexyplot)"><g class="scatterlayer mlayer"><g class="trace scatter trace53c524" style="stroke-miterlimit: 2; opacity: 1;"><g class="fills"/><g class="errorbars"/><g class="lines"><path class="js-line" d="M0,295.36L2.62,288.59L3.93,291.34L6.54,284.43L7.85,290.43L9.16,281.13L10.47,293.58L11.78,291.83L13.09,293.32L14.4,293.96L15.71,292.11L17.02,296.36L18.33,290.66L19.63,297.69L20.94,295.54L23.56,291.19L24.87,295.99L28.8,292.51L30.11,298.72L31.42,295.22L32.72,296.83L34.03,296.14L35.34,297.42L36.65,285.43L37.96,286.66L39.27,299.87L40.58,293.92L41.89,280.14L43.2,292.04L44.51,291.25L45.81,295.86L47.12,293.93L48.43,297.41L49.74,297.44L51.05,300.34L53.67,298.89L54.98,295.92L56.29,298.52L57.6,284.11L58.9,297.31L60.21,295.47L61.52,301.05L62.83,298.94L64.14,296.2L65.45,301.91L66.76,302.23L68.07,301.08L69.38,300.61L70.69,284.42L71.99,292.4L73.3,280.78L75.92,299.45L77.23,296.58L78.54,300.22L79.85,300.24L81.16,300.43L82.47,293.69L83.78,299.05L85.08,298.69L86.39,299.63L87.7,293.76L89.01,293.51L90.32,295.75L91.63,276.9L92.94,290.07L94.25,299.64L95.56,293.38L96.87,296.84L98.17,294.23L99.48,300.45L100.79,292.14L102.1,302.68L103.41,303.21L104.72,300.7L106.03,300.7L107.34,299.05L108.65,302.43L109.96,289.63L111.26,301.72L112.57,303.37L113.88,295.64L115.19,300.06L116.5,300.11L119.12,295.28L120.43,301.82L125.66,300.53L126.97,301.12L128.28,301.4L129.59,303.42L132.21,299.64L133.52,300.17L134.83,298.11L136.13,294.43L137.44,301.16L138.75,302.33L140.06,298.17L141.37,297.97L142.68,297.38L143.99,300.62L145.3,301.79L146.61,297.62L147.92,303.63L149.22,301.96L150.53,299.38L151.84,299.49L153.15,298.87L154.46,300.61L155.77,300.1L157.08,303.87L158.39,302.62L159.7,302.69L161.01,300.47L162.31,294.93L163.62,297.22L164.93,294.94L167.55,303.01L168.86,302.7L171.48,297.82L172.79,280.69L174.1,282.05L175.4,269.8L178.02,177.42L179.33,196.61L180.64,113.76L181.95,167.03L183.26,163.17L184.57,169.92L185.88,286.16L187.19,278.6L188.49,279.82L189.8,279.91L191.11,285L192.42,264.21L193.73,287.71L195.04,267.8L196.35,216.69L197.66,264.42L198.97,270.26L200.28,269.42L201.58,277.4L202.89,290.48L204.2,298.74L205.51,139.73L206.82,154.68L208.13,142.47L210.75,290.23L212.06,293.39L213.37,247.38L214.67,245.26L215.98,287.48L217.29,293.03L218.6,248.76L219.91,254.05L221.22,295.52L222.53,295.51L223.84,296.83L225.15,296.14L227.76,279.54L229.07,281.96L230.38,289.72L231.69,286.64L233,180.07L234.31,272.82L235.62,250.24L236.93,262.2L238.24,275.83L239.54,300.53L240.85,301.18L242.16,300.42L243.47,293.91L244.78,294.5L246.09,292.99L247.4,295.18L248.71,298.67L250.02,299.58L251.33,297.78L252.63,300.46L253.94,303.35L255.25,292.06L256.56,286.17L257.87,300.76L259.18,304L260.49,295.52L263.11,16L264.42,192.62L267.03,274.77L268.34,273.54L269.65,267.84L270.96,265.81L272.27,265.48L273.58,271.09L274.89,233.95L276.2,267.57L277.51,190.2L278.81,65.08L281.43,152.69L282.74,257.76L284.05,280.62L285.36,257.2L286.67,278.7L287.98,269.9L290.6,284.96L291.9,289.26L293.21,281.42L294.52,286.51L295.83,289.15L297.14,286.79L298.45,291.48L299.76,288.38L302.38,219.15L303.69,302.7L304.99,302.74L306.3,280.24L307.61,257.84L308.92,248.32L310.23,274.32L311.54,276.5L312.85,301.18L314.16,298.99L316.78,279.8L318.08,247.82L319.39,288.29L320.7,282.2L322.01,259.82L323.32,279.82L324.63,239.53L325.94,248.76L328.56,269.37L329.87,268.74L331.17,281.07L332.48,268.81L333.79,255.72L335.1,266.27L336.41,238.8L337.72,140.01L340.34,244.9L341.65,231.94L342.96,271.5L344.26,232.88L345.57,246.13L346.88,238.9L348.19,207.22L349.5,233.64L350.81,230.74L352.12,175.78L353.43,218.42L354.74,107.89L357.35,228.32L358.66,227.91L359.97,234.44L361.28,225.25L362.59,234.51L363.9,207.46L365.21,241.83L366.52,197.11L367.83,233.89L369.13,248.55L373.06,215.33L374.37,241.31L375.68,205.5L376.99,242.17L378.3,246.1L379.61,219.33L380.92,211.64L382.22,213.07L383.53,245.04L384.84,207.71L386.15,257.87L387.46,258.84L388.77,255.56L390.08,205.91L391.39,232.79L392.7,223.07L394.01,215.77L395.31,249.11L396.62,245.66L397.93,224.45L399.24,201.01L400.55,229.99L401.86,141.8L403.17,189.8L404.48,236.29L405.79,222.74L407.1,196.57L408.4,245.13L409.71,168.01L411.02,245.31L413.64,264.24L414.95,267.97L418.88,246.13L420.19,258.03L421.49,234.39L422.8,271.37L424.11,273.59L425.42,256.42L426.73,267.13L428.04,269.37L429.35,245.69L430.66,265.32L431.97,276.89L433.28,277.98L434.58,278.15L435.89,276.5L437.2,280.4L438.51,215.59L439.82,274.94L441.13,285.13L443.75,281.7L445.06,281.59L446.37,284.51L447.67,283.06L448.98,275.05L450.29,285.23L452.91,276.5L454.22,252.77L455.53,250.66L456.84,251.3L458.15,248.35L459.46,252.38L463.38,280.78L464.69,271.04L466,284.26" style="vector-effect: non-scaling-stroke; fill: none; stroke: rgb(99, 110, 250); stroke-opacity: 1; stroke-width: 2px; opacity: 1;"/></g><g class="points"/><g class="text"/></g></g></g><g class="overplot"/><path class="xlines-above crisp" d="M0,0" style="fill: none;"/><path class="ylines-above crisp" d="M0,0" style="fill: none;"/><g class="overlines-above"/><g class="xaxislayer-above"><g class="xtick"><text text-anchor="middle" x="0" y="433" transform="translate(145.45,0)" style="font-family: 'Open Sans', verdana, arial, sans-serif; font-size: 12px; fill: rgb(42, 63, 95); fill-opacity: 1; white-space: pre; opacity: 1;">Jan 2022</text></g><g class="xtick"><text text-anchor="middle" x="0" y="433" style="font-family: 'Open Sans', verdana, arial, sans-serif; font-size: 12px; fill: rgb(42, 63, 95); fill-opacity: 1; white-space: pre; opacity: 1;" transform="translate(222.68,0)">Mar 2022</text></g><g class="xtick"><text text-anchor="middle" x="0" y="433" style="font-family: 'Open Sans', verdana, arial, sans-serif; font-size: 12px; fill: rgb(42, 63, 95); fill-opacity: 1; white-space: pre; opacity: 1;" transform="translate(302.53,0)">May 2022</text></g><g class="xtick"><text text-anchor="middle" x="0" y="433" style="font-family: 'Open Sans', verdana, arial, sans-serif; font-size: 12px; fill: rgb(42, 63, 95); fill-opacity: 1; white-space: pre; opacity: 1;" transform="translate(382.38,0)">Jul 2022</text></g><g class="xtick"><text text-anchor="middle" x="0" y="433" style="font-family: 'Open Sans', verdana, arial, sans-serif; font-size: 12px; fill: rgb(42, 63, 95); fill-opacity: 1; white-space: pre; opacity: 1;" transform="translate(463.53,0)">Sep 2022</text></g><g class="xtick"><text text-anchor="middle" x="0" y="433" style="font-family: 'Open Sans', verdana, arial, sans-serif; font-size: 12px; fill: rgb(42, 63, 95); fill-opacity: 1; white-space: pre; opacity: 1;" transform="translate(543.38,0)">Nov 2022</text></g></g><g class="yaxislayer-above"><g class="ytick"><text text-anchor="end" x="79" y="4.199999999999999" transform="translate(0,409.28)" style="font-family: 'Open Sans', verdana, arial, sans-serif; font-size: 12px; fill: rgb(42, 63, 95); fill-opacity: 1; white-space: pre; opacity: 1;">$0</text></g><g class="ytick"><text text-anchor="end" x="79" y="4.199999999999999" style="font-family: 'Open Sans', verdana, arial, sans-serif; font-size: 12px; fill: rgb(42, 63, 95); fill-opacity: 1; white-space: pre; opacity: 1;" transform="translate(0,341.08000000000004)">$200k</text></g><g class="ytick"><text text-anchor="end" x="79" y="4.199999999999999" style="font-family: 'Open Sans', verdana, arial, sans-serif; font-size: 12px; fill: rgb(42, 63, 95); fill-opacity: 1; white-space: pre; opacity: 1;" transform="translate(0,272.88)">$400k</text></g><g class="ytick"><text text-anchor="end" x="79" y="4.199999999999999" style="font-family: 'Open Sans', verdana, arial, sans-serif; font-size: 12px; fill: rgb(42, 63, 95); fill-opacity: 1; white-space: pre; opacity: 1;" transform="translate(0,204.69)">$600k</text></g><g class="ytick"><text text-anchor="end" x="79" y="4.199999999999999" style="font-family: 'Open Sans', verdana, arial, sans-serif; font-size: 12px; fill: rgb(42, 63, 95); fill-opacity: 1; white-space: pre; opacity: 1;" transform="translate(0,136.49)">$800k</text></g></g><g class="overaxes-above"/></g></g><g class="polarlayer"/><g class="smithlayer"/><g class="ternarylayer"/><g class="geolayer"/><g class="funnelarealayer"/><g class="pielayer"/><g class="iciclelayer"/><g class="treemaplayer"/><g class="sunburstlayer"/><g class="glimages"/><defs id="topdefs-99b7be"><g class="clips"/><clipPath id="legend99b7be"><rect width="133" height="48" x="0" y="0"/></clipPath></defs><g class="layer-above"><g class="imagelayer"/><g class="shapelayer"/></g><g class="infolayer"><g class="legend" pointer-events="all" transform="translate(555.3199999999999,100)"><rect class="bg" shape-rendering="crispEdges" style="stroke: rgb(68, 68, 68); stroke-opacity: 1; fill: rgb(255, 255, 255); fill-opacity: 1; stroke-width: 0px;" width="133" height="48" x="0" y="0"/><g class="scrollbox" transform="" clip-path="url(#legend99b7be)"><text class="legendtitletext" text-anchor="start" x="2" y="18.2" style="font-family: 'Open Sans', verdana, arial, sans-serif; font-size: 14px; fill: rgb(42, 63, 95); fill-opacity: 1; white-space: pre;">metadata.blockchain</text><g class="groups" transform=""><g class="traces" transform="translate(0,32.7)" style="opacity: 1;"><text class="legendtext" text-anchor="start" x="40" y="4.680000000000001" style="font-family: 'Open Sans', verdana, arial, sans-serif; font-size: 12px; fill: rgb(42, 63, 95); fill-opacity: 1; white-space: pre;">Optimism</text><g class="layers" style="opacity: 1;"><g class="legendfill"/><g class="legendlines"><path class="js-line" d="M5,0h30" style="fill: none; stroke: rgb(99, 110, 250); stroke-opacity: 1; stroke-width: 2px;"/></g><g class="legendsymbols"><g class="legendpoints"/></g></g><rect class="legendtoggle" x="0" y="-9.5" width="90.671875" height="19" style="fill: rgb(0, 0, 0); fill-opacity: 0;"/></g></g></g><rect class="scrollbar" rx="20" ry="3" width="0" height="0" style="fill: rgb(128, 139, 164); fill-opacity: 1;" x="0" y="0"/></g><g class="g-gtitle"><text class="gtitle" x="35" y="50" text-anchor="start" dy="0em" style="font-family: 'Open Sans', verdana, arial, sans-serif; font-size: 17px; fill: rgb(42, 63, 95); opacity: 1; font-weight: normal; white-space: pre;">Sum Fees Earned on apps by Chain (USD)</text></g><g class="g-xtitle"><text class="xtitle" x="313" y="460.8" text-anchor="middle" style="font-family: 'Open Sans', verdana, arial, sans-serif; font-size: 14px; fill: rgb(42, 63, 95); opacity: 1; font-weight: normal; white-space: pre;">date</text></g><g class="g-ytitle"><text class="ytitle" transform="rotate(-90,21.496875000000003,260)" x="21.496875000000003" y="260" text-anchor="middle" style="font-family: 'Open Sans', verdana, arial, sans-serif; font-size: 14px; fill: rgb(42, 63, 95); opacity: 1; font-weight: normal; white-space: pre;">results.oneDayTotalFees</text></g></g></svg>