<svg class="main-svg" xmlns="http://www.w3.org/2000/svg" xmlns:xlink="http://www.w3.org/1999/xlink" width="700" height="500" style="" viewBox="0 0 700 500"><rect x="0" y="0" width="700" height="500" style="fill: rgb(255, 255, 255); fill-opacity: 1;"/><defs id="defs-397d89"><g class="clips"><clipPath id="clip397d89xyplot" class="plotclip"><rect width="466" height="320"/></clipPath><clipPath class="axesclip" id="clip397d89x"><rect x="80" y="0" width="466" height="500"/></clipPath><clipPath class="axesclip" id="clip397d89y"><rect x="0" y="100" width="700" height="320"/></clipPath><clipPath class="axesclip" id="clip397d89xy"><rect x="80" y="100" width="466" height="320"/></clipPath></g><g class="gradients"/><g class="patterns"/></defs><g class="bglayer"><rect class="bg" x="80" y="100" width="466" height="320" style="fill: rgb(229, 236, 246); fill-opacity: 1; stroke-width: 0;"/></g><g class="layer-below"><g class="imagelayer"/><g class="shapelayer"/></g><g class="cartesianlayer"><g class="subplot xy"><g class="layer-subplot"><g class="shapelayer"/><g class="imagelayer"/></g><g class="minor-gridlayer"><g class="x"/><g class="y"/></g><g class="gridlayer"><g class="x"><path class="xgrid crisp" transform="translate(153.97,0)" d="M0,100v320" style="stroke: rgb(255, 255, 255); stroke-opacity: 1; stroke-width: 1px;"/><path class="xgrid crisp" transform="translate(241.25,0)" d="M0,100v320" style="stroke: rgb(255, 255, 255); stroke-opacity: 1; stroke-width: 1px;"/><path class="xgrid crisp" transform="translate(331.49,0)" d="M0,100v320" style="stroke: rgb(255, 255, 255); stroke-opacity: 1; stroke-width: 1px;"/><path class="xgrid crisp" transform="translate(421.73,0)" d="M0,100v320" style="stroke: rgb(255, 255, 255); stroke-opacity: 1; stroke-width: 1px;"/><path class="xgrid crisp" transform="translate(513.45,0)" d="M0,100v320" style="stroke: rgb(255, 255, 255); stroke-opacity: 1; stroke-width: 1px;"/></g><g class="y"><path class="ygrid crisp" transform="translate(0,341.08000000000004)" d="M80,0h466" style="stroke: rgb(255, 255, 255); stroke-opacity: 1; stroke-width: 1px;"/><path class="ygrid crisp" transform="translate(0,272.88)" d="M80,0h466" style="stroke: rgb(255, 255, 255); stroke-opacity: 1; stroke-width: 1px;"/><path class="ygrid crisp" transform="translate(0,204.69)" d="M80,0h466" style="stroke: rgb(255, 255, 255); stroke-opacity: 1; stroke-width: 1px;"/><path class="ygrid crisp" transform="translate(0,136.49)" d="M80,0h466" style="stroke: rgb(255, 255, 255); stroke-opacity: 1; stroke-width: 1px;"/></g></g><g class="zerolinelayer"><path class="yzl zl crisp" transform="translate(0,409.28)" d="M80,0h466" style="stroke: rgb(255, 255, 255); stroke-opacity: 1; stroke-width: 2px;"/></g><path class="xlines-below"/><path class="ylines-below"/><g class="overlines-below"/><g class="xaxislayer-below"/><g class="yaxislayer-below"/><g class="overaxes-below"/><g class="plot" transform="translate(80,100)" clip-path="url(#clip397d89xyplot)"><g class="scatterlayer mlayer"><g class="trace scatter tracea48cd2" style="stroke-miterlimit: 2; opacity: 1;"><g class="fills"/><g class="errorbars"/><g class="lines"><path class="js-line" d="M0,295.36L2.96,288.59L4.44,291.34L7.4,284.43L8.88,290.43L10.36,281.13L11.83,293.58L13.31,291.83L14.79,293.32L16.27,293.96L17.75,292.11L19.23,296.36L20.71,290.66L22.19,297.69L23.67,295.54L26.63,291.19L28.11,295.99L32.55,292.51L34.03,298.72L35.5,295.22L36.98,296.83L38.46,296.14L39.94,297.42L41.42,285.43L42.9,286.66L44.38,299.87L45.86,293.92L47.34,280.14L48.82,292.04L50.3,291.25L51.78,295.86L53.26,293.93L54.74,297.41L56.22,297.44L57.7,300.34L60.65,298.89L62.13,295.92L63.61,298.52L65.09,284.11L66.57,297.31L68.05,295.47L69.53,301.05L71.01,298.94L72.49,296.2L73.97,301.91L75.45,302.23L76.93,301.08L78.41,300.61L79.89,284.42L81.37,292.4L82.84,280.78L85.8,299.45L87.28,296.58L88.76,300.22L90.24,300.24L91.72,300.43L93.2,293.69L94.68,299.05L96.16,298.69L97.64,299.63L99.12,293.76L100.6,293.51L102.08,295.75L103.56,276.9L105.03,290.07L106.51,299.64L107.99,293.38L109.47,296.84L110.95,294.23L112.43,300.45L113.91,292.14L115.39,302.68L116.87,303.21L118.35,300.7L119.83,300.7L121.31,299.05L122.79,302.43L124.27,289.63L125.75,301.72L127.23,303.37L128.7,295.64L130.18,300.06L131.66,300.11L134.62,295.28L136.1,301.82L142.02,300.53L143.5,301.12L144.98,301.4L146.46,303.42L149.42,299.64L150.9,300.17L152.37,298.11L153.85,294.43L155.33,301.16L156.81,302.33L158.29,298.17L159.77,297.97L161.25,297.38L162.73,300.62L164.21,301.79L165.69,297.62L167.17,303.63L168.65,301.96L170.13,299.38L171.61,299.49L173.09,298.87L174.57,300.61L176.04,300.1L177.52,303.87L179,302.62L180.48,302.69L181.96,300.47L183.44,294.93L184.92,297.22L186.4,294.94L189.36,303.01L190.84,302.7L193.8,297.82L195.28,280.69L196.76,282.05L198.23,269.8L201.19,177.42L202.67,196.61L204.15,113.76L205.63,167.03L207.11,163.17L208.59,169.92L210.07,286.16L211.55,278.6L213.03,279.82L214.51,279.91L215.99,285L217.47,264.21L218.95,287.71L220.43,267.8L221.9,216.69L223.38,264.42L224.86,270.26L226.34,269.42L227.82,277.4L229.3,290.48L230.78,298.74L232.26,139.73L233.74,154.68L235.22,142.47L238.18,290.23L239.66,293.39L241.14,247.38L242.62,245.26L244.1,287.48L245.57,293.03L247.05,248.76L248.53,254.05L250.01,295.52L251.49,295.51L252.97,296.83L254.45,296.14L257.41,279.54L258.89,281.96L260.37,289.72L261.85,286.64L263.33,180.07L264.81,272.82L266.29,250.24L267.77,262.2L269.24,275.83L270.72,300.53L272.2,301.18L273.68,300.42L275.16,293.91L276.64,294.5L278.12,292.99L279.6,295.18L281.08,298.67L282.56,299.58L284.04,297.78L285.52,300.46L287,303.35L288.48,292.06L289.96,286.17L291.43,300.76L292.91,304L294.39,295.52L297.35,16L298.83,192.62L301.79,274.77L303.27,273.54L304.75,267.84L306.23,265.81L307.71,265.48L309.19,271.09L310.67,233.95L312.15,267.57L313.63,190.2L315.1,65.08L318.06,152.69L319.54,257.76L321.02,280.62L322.5,257.2L323.98,278.7L325.46,269.9L328.42,284.96L329.9,289.26L331.38,281.42L332.86,286.51L334.34,289.15L335.82,286.79L337.3,291.48L338.77,288.38L341.73,219.15L343.21,302.7L344.69,302.74L346.17,280.24L347.65,257.84L349.13,248.32L350.61,274.32L352.09,276.5L353.57,301.18L355.05,298.99L356.53,281.21L358.01,279.8L359.49,247.82L360.97,288.29L362.44,282.2L363.92,259.82L365.4,279.82L366.88,239.53L371.32,269.37L372.8,268.74L374.28,281.07L375.76,268.81L377.24,255.72L378.72,266.27L380.2,238.8L381.68,140.01L384.63,244.9L386.11,231.94L387.59,271.5L389.07,232.88L390.55,246.13L392.03,238.9L393.51,207.22L394.99,233.64L396.47,230.74L397.95,175.78L399.43,218.42L400.91,107.89L403.87,228.32L405.35,227.91L406.83,234.44L408.3,225.25L409.78,234.51L411.26,207.46L412.74,241.83L414.22,197.11L415.7,233.89L417.18,248.55L421.62,215.33L423.1,241.31L424.58,205.5L426.06,242.17L427.54,246.1L429.02,219.33L430.5,211.64L431.97,213.07L433.45,245.04L434.93,207.71L436.41,257.87L437.89,258.84L439.37,255.56L440.85,205.91L442.33,232.79L443.81,223.07L445.29,215.77L446.77,249.11L448.25,245.66L449.73,224.45L451.21,201.01L452.69,229.99L454.17,141.8L455.64,189.8L457.12,236.29L458.6,222.74L460.08,196.57L461.56,245.13L463.04,168.01L464.52,245.31L466,244.75" style="vector-effect: non-scaling-stroke; fill: none; stroke: rgb(99, 110, 250); stroke-opacity: 1; stroke-width: 2px; opacity: 1;"/></g><g class="points"/><g class="text"/></g></g></g><g class="overplot"/><path class="xlines-above crisp" d="M0,0" style="fill: none;"/><path class="ylines-above crisp" d="M0,0" style="fill: none;"/><g class="overlines-above"/><g class="xaxislayer-above"><g class="xtick"><text text-anchor="middle" x="0" y="433" transform="translate(153.97,0)" style="font-family: 'Open Sans', verdana, arial, sans-serif; font-size: 12px; fill: rgb(42, 63, 95); fill-opacity: 1; white-space: pre; opacity: 1;">Jan 2022</text></g><g class="xtick"><text text-anchor="middle" x="0" y="433" style="font-family: 'Open Sans', verdana, arial, sans-serif; font-size: 12px; fill: rgb(42, 63, 95); fill-opacity: 1; white-space: pre; opacity: 1;" transform="translate(241.25,0)">Mar 2022</text></g><g class="xtick"><text text-anchor="middle" x="0" y="433" style="font-family: 'Open Sans', verdana, arial, sans-serif; font-size: 12px; fill: rgb(42, 63, 95); fill-opacity: 1; white-space: pre; opacity: 1;" transform="translate(331.49,0)">May 2022</text></g><g class="xtick"><text text-anchor="middle" x="0" y="433" style="font-family: 'Open Sans', verdana, arial, sans-serif; font-size: 12px; fill: rgb(42, 63, 95); fill-opacity: 1; white-space: pre; opacity: 1;" transform="translate(421.73,0)">Jul 2022</text></g><g class="xtick"><text text-anchor="middle" x="0" y="433" style="font-family: 'Open Sans', verdana, arial, sans-serif; font-size: 12px; fill: rgb(42, 63, 95); fill-opacity: 1; white-space: pre; opacity: 1;" transform="translate(513.45,0)">Sep 2022</text></g></g><g class="yaxislayer-above"><g class="ytick"><text text-anchor="end" x="79" y="4.199999999999999" transform="translate(0,409.28)" style="font-family: 'Open Sans', verdana, arial, sans-serif; font-size: 12px; fill: rgb(42, 63, 95); fill-opacity: 1; white-space: pre; opacity: 1;">$0</text></g><g class="ytick"><text text-anchor="end" x="79" y="4.199999999999999" style="font-family: 'Open Sans', verdana, arial, sans-serif; font-size: 12px; fill: rgb(42, 63, 95); fill-opacity: 1; white-space: pre; opacity: 1;" transform="translate(0,341.08000000000004)">$200k</text></g><g class="ytick"><text text-anchor="end" x="79" y="4.199999999999999" style="font-family: 'Open Sans', verdana, arial, sans-serif; font-size: 12px; fill: rgb(42, 63, 95); fill-opacity: 1; white-space: pre; opacity: 1;" transform="translate(0,272.88)">$400k</text></g><g class="ytick"><text text-anchor="end" x="79" y="4.199999999999999" style="font-family: 'Open Sans', verdana, arial, sans-serif; font-size: 12px; fill: rgb(42, 63, 95); fill-opacity: 1; white-space: pre; opacity: 1;" transform="translate(0,204.69)">$600k</text></g><g class="ytick"><text text-anchor="end" x="79" y="4.199999999999999" style="font-family: 'Open Sans', verdana, arial, sans-serif; font-size: 12px; fill: rgb(42, 63, 95); fill-opacity: 1; white-space: pre; opacity: 1;" transform="translate(0,136.49)">$800k</text></g></g><g class="overaxes-above"/></g></g><g class="polarlayer"/><g class="smithlayer"/><g class="ternarylayer"/><g class="geolayer"/><g class="funnelarealayer"/><g class="pielayer"/><g class="iciclelayer"/><g class="treemaplayer"/><g class="sunburstlayer"/><g class="glimages"/><defs id="topdefs-397d89"><g class="clips"/><clipPath id="legend397d89"><rect width="133" height="48" x="0" y="0"/></clipPath></defs><g class="layer-above"><g class="imagelayer"/><g class="shapelayer"/></g><g class="infolayer"><g class="legend" pointer-events="all" transform="translate(555.3199999999999,100)"><rect class="bg" shape-rendering="crispEdges" style="stroke: rgb(68, 68, 68); stroke-opacity: 1; fill: rgb(255, 255, 255); fill-opacity: 1; stroke-width: 0px;" width="133" height="48" x="0" y="0"/><g class="scrollbox" transform="" clip-path="url(#legend397d89)"><text class="legendtitletext" text-anchor="start" x="2" y="18.2" style="font-family: 'Open Sans', verdana, arial, sans-serif; font-size: 14px; fill: rgb(42, 63, 95); fill-opacity: 1; white-space: pre;">metadata.blockchain</text><g class="groups" transform=""><g class="traces" transform="translate(0,32.7)" style="opacity: 1;"><text class="legendtext" text-anchor="start" x="40" y="4.680000000000001" style="font-family: 'Open Sans', verdana, arial, sans-serif; font-size: 12px; fill: rgb(42, 63, 95); fill-opacity: 1; white-space: pre;">Optimism</text><g class="layers" style="opacity: 1;"><g class="legendfill"/><g class="legendlines"><path class="js-line" d="M5,0h30" style="fill: none; stroke: rgb(99, 110, 250); stroke-opacity: 1; stroke-width: 2px;"/></g><g class="legendsymbols"><g class="legendpoints"/></g></g><rect class="legendtoggle" x="0" y="-9.5" width="90.671875" height="19" style="fill: rgb(0, 0, 0); fill-opacity: 0;"/></g></g></g><rect class="scrollbar" rx="20" ry="3" width="0" height="0" style="fill: rgb(128, 139, 164); fill-opacity: 1;" x="0" y="0"/></g><g class="g-gtitle"><text class="gtitle" x="35" y="50" text-anchor="start" dy="0em" style="font-family: 'Open Sans', verdana, arial, sans-serif; font-size: 17px; fill: rgb(42, 63, 95); opacity: 1; font-weight: normal; white-space: pre;">Sum Fees Earned on apps by Chain (USD)</text></g><g class="g-xtitle"><text class="xtitle" x="313" y="460.8" text-anchor="middle" style="font-family: 'Open Sans', verdana, arial, sans-serif; font-size: 14px; fill: rgb(42, 63, 95); opacity: 1; font-weight: normal; white-space: pre;">date</text></g><g class="g-ytitle"><text class="ytitle" transform="rotate(-90,21.496875000000003,260)" x="21.496875000000003" y="260" text-anchor="middle" style="font-family: 'Open Sans', verdana, arial, sans-serif; font-size: 14px; fill: rgb(42, 63, 95); opacity: 1; font-weight: normal; white-space: pre;">results.oneDayTotalFees</text></g></g></svg>