<svg class="main-svg" xmlns="http://www.w3.org/2000/svg" xmlns:xlink="http://www.w3.org/1999/xlink" width="700" height="500" style="" viewBox="0 0 700 500"><rect x="0" y="0" width="700" height="500" style="fill: rgb(255, 255, 255); fill-opacity: 1;"/><defs id="defs-7222dd"><g class="clips"><clipPath id="clip7222ddxyplot" class="plotclip"><rect width="466" height="320"/></clipPath><clipPath class="axesclip" id="clip7222ddx"><rect x="80" y="0" width="466" height="500"/></clipPath><clipPath class="axesclip" id="clip7222ddy"><rect x="0" y="100" width="700" height="320"/></clipPath><clipPath class="axesclip" id="clip7222ddxy"><rect x="80" y="100" width="466" height="320"/></clipPath></g><g class="gradients"/><g class="patterns"/></defs><g class="bglayer"><rect class="bg" x="80" y="100" width="466" height="320" style="fill: rgb(229, 236, 246); fill-opacity: 1; stroke-width: 0;"/></g><g class="layer-below"><g class="imagelayer"/><g class="shapelayer"/></g><g class="cartesianlayer"><g class="subplot xy"><g class="layer-subplot"><g class="shapelayer"/><g class="imagelayer"/></g><g class="minor-gridlayer"><g class="x"/><g class="y"/></g><g class="gridlayer"><g class="x"><path class="xgrid crisp" transform="translate(138.73,0)" d="M0,100v320" style="stroke: rgb(255, 255, 255); stroke-opacity: 1; stroke-width: 1px;"/><path class="xgrid crisp" transform="translate(216.61,0)" d="M0,100v320" style="stroke: rgb(255, 255, 255); stroke-opacity: 1; stroke-width: 1px;"/><path class="xgrid crisp" transform="translate(294.49,0)" d="M0,100v320" style="stroke: rgb(255, 255, 255); stroke-opacity: 1; stroke-width: 1px;"/><path class="xgrid crisp" transform="translate(373.64,0)" d="M0,100v320" style="stroke: rgb(255, 255, 255); stroke-opacity: 1; stroke-width: 1px;"/><path class="xgrid crisp" transform="translate(451.52,0)" d="M0,100v320" style="stroke: rgb(255, 255, 255); stroke-opacity: 1; stroke-width: 1px;"/><path class="xgrid crisp" transform="translate(529.4,0)" d="M0,100v320" style="stroke: rgb(255, 255, 255); stroke-opacity: 1; stroke-width: 1px;"/></g><g class="y"><path class="ygrid crisp" transform="translate(0,341.08000000000004)" d="M80,0h466" style="stroke: rgb(255, 255, 255); stroke-opacity: 1; stroke-width: 1px;"/><path class="ygrid crisp" transform="translate(0,272.88)" d="M80,0h466" style="stroke: rgb(255, 255, 255); stroke-opacity: 1; stroke-width: 1px;"/><path class="ygrid crisp" transform="translate(0,204.69)" d="M80,0h466" style="stroke: rgb(255, 255, 255); stroke-opacity: 1; stroke-width: 1px;"/><path class="ygrid crisp" transform="translate(0,136.49)" d="M80,0h466" style="stroke: rgb(255, 255, 255); stroke-opacity: 1; stroke-width: 1px;"/></g></g><g class="zerolinelayer"><path class="yzl zl crisp" transform="translate(0,409.28)" d="M80,0h466" style="stroke: rgb(255, 255, 255); stroke-opacity: 1; stroke-width: 2px;"/></g><path class="xlines-below"/><path class="ylines-below"/><g class="overlines-below"/><g class="xaxislayer-below"/><g class="yaxislayer-below"/><g class="overaxes-below"/><g class="plot" transform="translate(80,100)" clip-path="url(#clip7222ddxyplot)"><g class="scatterlayer mlayer"><g class="trace scatter traceabd4c3" style="stroke-miterlimit: 2; opacity: 1;"><g class="fills"/><g class="errorbars"/><g class="lines"><path class="js-line" d="M0,293.69L1.28,299.05L2.55,298.69L3.83,299.63L5.11,293.76L6.38,293.51L7.66,295.75L8.94,276.9L10.21,290.07L11.49,299.64L12.77,293.38L14.04,296.84L15.32,294.23L16.6,300.45L17.87,292.14L19.15,302.68L20.43,303.21L21.7,300.7L22.98,300.7L24.26,299.05L25.53,302.43L26.81,289.63L28.09,301.72L29.36,303.37L30.64,295.64L31.92,300.06L33.19,300.11L35.75,295.28L37.02,301.82L42.13,300.53L43.41,301.12L44.68,301.4L45.96,303.42L48.52,299.64L49.79,300.17L51.07,298.11L52.35,294.43L53.62,301.16L54.9,302.33L56.18,298.17L57.45,297.97L58.73,297.38L60.01,300.62L61.28,301.79L62.56,297.62L63.84,303.63L65.11,301.96L66.39,299.38L67.67,299.49L68.94,298.87L70.22,300.61L71.5,300.1L72.77,303.87L74.05,302.62L75.33,302.69L76.6,300.47L77.88,294.93L79.16,297.22L80.43,294.94L82.99,303.01L84.26,302.7L86.82,297.82L88.09,280.69L89.37,282.05L90.65,269.8L93.2,177.42L94.48,196.61L95.75,113.76L97.03,167.03L98.31,163.17L99.58,169.92L100.86,286.16L102.14,278.6L103.41,279.82L104.69,279.91L105.97,285L107.24,264.21L108.52,287.71L109.8,267.8L111.07,216.69L112.35,264.42L113.63,270.26L114.9,269.42L116.18,277.4L117.46,290.48L118.73,298.74L120.01,139.73L121.29,154.68L122.56,142.47L125.12,290.23L126.39,293.39L127.67,247.38L128.95,245.26L130.22,287.48L131.5,293.03L132.78,248.76L134.05,254.05L135.33,295.52L136.61,295.51L137.88,296.83L139.16,296.14L141.72,279.54L142.99,281.96L144.27,289.72L145.55,286.64L146.82,180.07L148.1,272.82L149.38,250.24L150.65,262.2L151.93,275.83L153.21,300.53L154.48,301.18L155.76,300.42L157.04,293.91L158.31,294.5L159.59,292.99L160.87,295.18L162.14,298.67L163.42,299.58L164.7,297.78L165.97,300.46L167.25,303.35L168.53,292.06L169.8,286.17L171.08,300.76L172.36,304L173.63,295.52L176.19,16L177.46,192.62L180.02,274.77L181.29,273.54L182.57,267.84L183.85,265.81L185.12,265.48L186.4,271.09L187.68,233.95L188.95,267.57L190.23,190.2L191.51,65.08L194.06,152.69L195.34,257.76L196.61,280.62L197.89,257.2L199.17,278.7L200.44,269.9L203,284.96L204.27,289.26L205.55,281.42L206.83,286.51L208.1,289.15L209.38,286.79L210.66,291.48L211.93,288.38L214.49,219.15L215.76,302.7L217.04,302.74L218.32,280.24L220.87,248.32L222.15,274.32L223.42,276.5L224.7,301.18L225.98,298.99L227.25,281.21L228.53,279.8L229.81,247.82L231.08,288.29L232.36,282.2L233.64,259.82L234.92,279.82L236.19,239.53L237.47,248.76L240.02,269.37L241.3,268.74L242.58,281.07L243.85,268.81L245.13,255.72L246.41,266.27L247.68,238.8L248.96,140.01L251.51,244.9L252.79,231.94L254.07,271.5L255.34,232.88L256.62,246.13L257.9,238.9L259.17,207.22L260.45,233.64L261.73,230.74L263,175.78L264.28,218.42L265.56,107.89L268.11,228.32L269.39,227.91L270.66,234.44L271.94,225.25L273.22,234.51L274.49,207.46L275.77,241.83L277.05,197.11L278.32,233.89L279.6,248.55L283.43,215.33L284.71,241.31L285.98,205.5L287.26,242.17L288.54,246.1L289.81,219.33L291.09,211.64L292.37,213.07L293.64,245.04L294.92,207.71L296.2,257.87L297.47,258.84L298.75,255.56L300.03,205.91L301.3,232.79L302.58,223.07L303.86,215.77L305.13,249.11L306.41,245.66L307.69,224.45L308.96,201.01L310.24,229.99L311.52,141.8L312.79,189.8L314.07,236.29L315.35,222.74L316.62,196.57L317.9,245.13L319.18,168.01L320.45,245.31L321.73,244.75L323.01,264.24L324.28,267.97L325.56,260.91L328.12,246.13L329.39,258.03L330.67,234.39L331.95,271.37L333.22,273.59L334.5,256.42L335.78,267.13L337.05,269.37L338.33,245.69L339.61,265.32L340.88,276.89L342.16,277.98L343.44,278.15L344.71,276.5L345.99,280.4L347.27,215.59L348.54,274.94L349.82,285.13L352.37,281.7L353.65,281.59L354.93,284.51L356.2,283.06L357.48,275.05L358.76,285.23L361.31,276.5L362.59,252.77L363.86,250.66L365.14,251.3L366.42,248.35L367.69,252.38L371.52,280.78L372.8,271.04L374.08,284.26L375.35,267.81L376.63,286.29L377.91,286.02L379.18,275.5L380.46,205.49L381.74,199.45L383.01,243.14L385.57,280.12L386.84,285.22L388.12,278.94L389.4,284.16L390.67,288.12L391.95,284.6L393.23,285.56L394.5,294.33L395.78,290.96L397.06,275.99L398.33,279.01L399.61,277.65L400.89,289.27L402.16,290.34L404.72,295.06L405.99,275.68L407.27,282.77L408.55,277.99L409.82,287.19L411.1,286.82L412.38,293.77L413.65,295.59L414.93,290.61L416.21,293.78L418.76,291.71L420.04,291.96L421.32,299.31L422.59,296.49L423.87,293.68L425.15,272.5L427.7,288.43L428.98,268.55L430.25,293.81L431.53,296.82L432.81,295.09L434.08,288.85L435.36,297.41L436.64,296.58L439.19,302.4L440.47,299.81L441.74,301.07L443.02,295.21L445.57,295.39L446.85,299.08L449.4,303.31L450.68,292.85L451.96,289.41L453.23,272.26L455.79,292.93L457.06,293.59L458.34,288.41L459.62,272.16L460.89,282.62L462.17,281.1L463.45,254.11L464.72,264.85L466,255.01" style="vector-effect: non-scaling-stroke; fill: none; stroke: rgb(99, 110, 250); stroke-opacity: 1; stroke-width: 2px; opacity: 1;"/></g><g class="points"/><g class="text"/></g></g></g><g class="overplot"/><path class="xlines-above crisp" d="M0,0" style="fill: none;"/><path class="ylines-above crisp" d="M0,0" style="fill: none;"/><g class="overlines-above"/><g class="xaxislayer-above"><g class="xtick"><text text-anchor="middle" x="0" y="433" transform="translate(138.73,0)" style="font-family: 'Open Sans', verdana, arial, sans-serif; font-size: 12px; fill: rgb(42, 63, 95); fill-opacity: 1; white-space: pre; opacity: 1;">Mar 2022</text></g><g class="xtick"><text text-anchor="middle" x="0" y="433" style="font-family: 'Open Sans', verdana, arial, sans-serif; font-size: 12px; fill: rgb(42, 63, 95); fill-opacity: 1; white-space: pre; opacity: 1;" transform="translate(216.61,0)">May 2022</text></g><g class="xtick"><text text-anchor="middle" x="0" y="433" style="font-family: 'Open Sans', verdana, arial, sans-serif; font-size: 12px; fill: rgb(42, 63, 95); fill-opacity: 1; white-space: pre; opacity: 1;" transform="translate(294.49,0)">Jul 2022</text></g><g class="xtick"><text text-anchor="middle" x="0" y="433" style="font-family: 'Open Sans', verdana, arial, sans-serif; font-size: 12px; fill: rgb(42, 63, 95); fill-opacity: 1; white-space: pre; opacity: 1;" transform="translate(373.64,0)">Sep 2022</text></g><g class="xtick"><text text-anchor="middle" x="0" y="433" style="font-family: 'Open Sans', verdana, arial, sans-serif; font-size: 12px; fill: rgb(42, 63, 95); fill-opacity: 1; white-space: pre; opacity: 1;" transform="translate(451.52,0)">Nov 2022</text></g><g class="xtick"><text text-anchor="middle" x="0" y="433" style="font-family: 'Open Sans', verdana, arial, sans-serif; font-size: 12px; fill: rgb(42, 63, 95); fill-opacity: 1; white-space: pre; opacity: 1;" transform="translate(529.4,0)">Jan 2023</text></g></g><g class="yaxislayer-above"><g class="ytick"><text text-anchor="end" x="79" y="4.199999999999999" transform="translate(0,409.28)" style="font-family: 'Open Sans', verdana, arial, sans-serif; font-size: 12px; fill: rgb(42, 63, 95); fill-opacity: 1; white-space: pre; opacity: 1;">$0</text></g><g class="ytick"><text text-anchor="end" x="79" y="4.199999999999999" style="font-family: 'Open Sans', verdana, arial, sans-serif; font-size: 12px; fill: rgb(42, 63, 95); fill-opacity: 1; white-space: pre; opacity: 1;" transform="translate(0,341.08000000000004)">$200k</text></g><g class="ytick"><text text-anchor="end" x="79" y="4.199999999999999" style="font-family: 'Open Sans', verdana, arial, sans-serif; font-size: 12px; fill: rgb(42, 63, 95); fill-opacity: 1; white-space: pre; opacity: 1;" transform="translate(0,272.88)">$400k</text></g><g class="ytick"><text text-anchor="end" x="79" y="4.199999999999999" style="font-family: 'Open Sans', verdana, arial, sans-serif; font-size: 12px; fill: rgb(42, 63, 95); fill-opacity: 1; white-space: pre; opacity: 1;" transform="translate(0,204.69)">$600k</text></g><g class="ytick"><text text-anchor="end" x="79" y="4.199999999999999" style="font-family: 'Open Sans', verdana, arial, sans-serif; font-size: 12px; fill: rgb(42, 63, 95); fill-opacity: 1; white-space: pre; opacity: 1;" transform="translate(0,136.49)">$800k</text></g></g><g class="overaxes-above"/></g></g><g class="polarlayer"/><g class="smithlayer"/><g class="ternarylayer"/><g class="geolayer"/><g class="funnelarealayer"/><g class="pielayer"/><g class="iciclelayer"/><g class="treemaplayer"/><g class="sunburstlayer"/><g class="glimages"/><defs id="topdefs-7222dd"><g class="clips"/><clipPath id="legend7222dd"><rect width="133" height="48" x="0" y="0"/></clipPath></defs><g class="layer-above"><g class="imagelayer"/><g class="shapelayer"/></g><g class="infolayer"><g class="legend" pointer-events="all" transform="translate(555.3199999999999,100)"><rect class="bg" shape-rendering="crispEdges" style="stroke: rgb(68, 68, 68); stroke-opacity: 1; fill: rgb(255, 255, 255); fill-opacity: 1; stroke-width: 0px;" width="133" height="48" x="0" y="0"/><g class="scrollbox" transform="" clip-path="url(#legend7222dd)"><text class="legendtitletext" text-anchor="start" x="2" y="18.2" style="font-family: 'Open Sans', verdana, arial, sans-serif; font-size: 14px; fill: rgb(42, 63, 95); fill-opacity: 1; white-space: pre;">metadata.blockchain</text><g class="groups" transform=""><g class="traces" transform="translate(0,32.7)" style="opacity: 1;"><text class="legendtext" text-anchor="start" x="40" y="4.680000000000001" style="font-family: 'Open Sans', verdana, arial, sans-serif; font-size: 12px; fill: rgb(42, 63, 95); fill-opacity: 1; white-space: pre;">Optimism</text><g class="layers" style="opacity: 1;"><g class="legendfill"/><g class="legendlines"><path class="js-line" d="M5,0h30" style="fill: none; stroke: rgb(99, 110, 250); stroke-opacity: 1; stroke-width: 2px;"/></g><g class="legendsymbols"><g class="legendpoints"/></g></g><rect class="legendtoggle" x="0" y="-9.5" width="90.671875" height="19" style="fill: rgb(0, 0, 0); fill-opacity: 0;"/></g></g></g><rect class="scrollbar" rx="20" ry="3" width="0" height="0" style="fill: rgb(128, 139, 164); fill-opacity: 1;" x="0" y="0"/></g><g class="g-gtitle"><text class="gtitle" x="35" y="50" text-anchor="start" dy="0em" style="font-family: 'Open Sans', verdana, arial, sans-serif; font-size: 17px; fill: rgb(42, 63, 95); opacity: 1; font-weight: normal; white-space: pre;">Sum Fees Earned on apps by Chain (USD)</text></g><g class="g-xtitle"><text class="xtitle" x="313" y="460.8" text-anchor="middle" style="font-family: 'Open Sans', verdana, arial, sans-serif; font-size: 14px; fill: rgb(42, 63, 95); opacity: 1; font-weight: normal; white-space: pre;">date</text></g><g class="g-ytitle"><text class="ytitle" transform="rotate(-90,21.496875000000003,260)" x="21.496875000000003" y="260" text-anchor="middle" style="font-family: 'Open Sans', verdana, arial, sans-serif; font-size: 14px; fill: rgb(42, 63, 95); opacity: 1; font-weight: normal; white-space: pre;">results.oneDayTotalFees</text></g></g></svg>