<svg class="main-svg" xmlns="http://www.w3.org/2000/svg" xmlns:xlink="http://www.w3.org/1999/xlink" width="700" height="500" style="" viewBox="0 0 700 500"><rect x="0" y="0" width="700" height="500" style="fill: rgb(255, 255, 255); fill-opacity: 1;"/><defs id="defs-c106fd"><g class="clips"><clipPath id="clipc106fdxyplot" class="plotclip"><rect width="540" height="320"/></clipPath><clipPath class="axesclip" id="clipc106fdx"><rect x="80" y="0" width="540" height="500"/></clipPath><clipPath class="axesclip" id="clipc106fdy"><rect x="0" y="100" width="700" height="320"/></clipPath><clipPath class="axesclip" id="clipc106fdxy"><rect x="80" y="100" width="540" height="320"/></clipPath></g><g class="gradients"/><g class="patterns"/></defs><g class="bglayer"><rect class="bg" x="80" y="100" width="540" height="320" style="fill: rgb(229, 236, 246); fill-opacity: 1; stroke-width: 0;"/></g><g class="layer-below"><g class="imagelayer"/><g class="shapelayer"/></g><g class="cartesianlayer"><g class="subplot xy"><g class="layer-subplot"><g class="shapelayer"/><g class="imagelayer"/></g><g class="minor-gridlayer"><g class="x"/><g class="y"/></g><g class="gridlayer"><g class="x"><path class="xgrid crisp" transform="translate(104.23,0)" d="M0,100v320" style="stroke: rgb(255, 255, 255); stroke-opacity: 1; stroke-width: 1px;"/><path class="xgrid crisp" transform="translate(208.08,0)" d="M0,100v320" style="stroke: rgb(255, 255, 255); stroke-opacity: 1; stroke-width: 1px;"/><path class="xgrid crisp" transform="translate(315.38,0)" d="M0,100v320" style="stroke: rgb(255, 255, 255); stroke-opacity: 1; stroke-width: 1px;"/><path class="xgrid crisp" transform="translate(419.23,0)" d="M0,100v320" style="stroke: rgb(255, 255, 255); stroke-opacity: 1; stroke-width: 1px;"/><path class="xgrid crisp" transform="translate(526.54,0)" d="M0,100v320" style="stroke: rgb(255, 255, 255); stroke-opacity: 1; stroke-width: 1px;"/></g><g class="y"><path class="ygrid crisp" transform="translate(0,346.27)" d="M80,0h540" style="stroke: rgb(255, 255, 255); stroke-opacity: 1; stroke-width: 1px;"/><path class="ygrid crisp" transform="translate(0,288.59000000000003)" d="M80,0h540" style="stroke: rgb(255, 255, 255); stroke-opacity: 1; stroke-width: 1px;"/><path class="ygrid crisp" transform="translate(0,230.92)" d="M80,0h540" style="stroke: rgb(255, 255, 255); stroke-opacity: 1; stroke-width: 1px;"/><path class="ygrid crisp" transform="translate(0,173.24)" d="M80,0h540" style="stroke: rgb(255, 255, 255); stroke-opacity: 1; stroke-width: 1px;"/><path class="ygrid crisp" transform="translate(0,115.57)" d="M80,0h540" style="stroke: rgb(255, 255, 255); stroke-opacity: 1; stroke-width: 1px;"/></g></g><g class="zerolinelayer"><path class="yzl zl crisp" transform="translate(0,403.94)" d="M80,0h540" style="stroke: rgb(255, 255, 255); stroke-opacity: 1; stroke-width: 2px;"/></g><path class="xlines-below"/><path class="ylines-below"/><g class="overlines-below"/><g class="xaxislayer-below"/><g class="yaxislayer-below"/><g class="overaxes-below"/><g class="plot" transform="translate(80,100)" clip-path="url(#clipc106fdxyplot)"><g class="scatterlayer mlayer"><g class="trace scatter tracec910a8" style="stroke-miterlimit: 2;"><g class="fills"><g><path class="js-fill" d="M540,303.94L0,303.94L0,304L3.46,253.86L6.92,243.84L10.38,239.95L13.85,239.87L17.31,232.57L20.77,229.26L24.23,227.52L27.69,229.62L31.15,222.21L34.62,219.27L38.08,215.18L41.54,226.07L45,222.89L48.46,225.83L51.92,213.88L55.38,208.66L58.85,205.45L62.31,204.42L65.77,207.77L69.23,212.65L72.69,214.17L76.15,197.32L79.62,187L83.08,185.36L86.54,182.16L90,188.59L93.46,188.37L96.92,184.83L103.85,184.77L107.31,185.8L110.77,183.75L114.23,183.01L117.69,147.95L121.15,150.42L124.62,157.82L128.08,156.28L131.54,156.17L135,157.84L141.92,160.5L145.38,169.41L148.85,164.94L152.31,175.41L155.77,175.39L159.23,176.82L162.69,181.27L166.15,177.89L169.62,177.83L173.08,177.02L176.54,174.15L180,173.83L183.46,173.66L186.92,171.55L190.38,173.36L193.85,173.08L211.15,173.42L214.62,171.58L218.08,172.45L221.54,187.89L225,185.23L228.46,170.99L245.77,171.17L249.23,171.57L252.69,172.69L256.15,170.35L259.62,170.13L263.08,218.15L266.54,224.37L270,211.23L273.46,203.89L276.92,211.58L280.38,199.03L283.85,197.46L287.31,196.32L290.77,198.67L294.23,203.93L297.69,202.7L301.15,201.52L304.62,203.81L308.08,204.45L311.54,204L315,197.09L318.46,197.62L321.92,196.37L325.38,196.19L339.23,195.95L342.69,192.84L346.15,192.94L349.62,187.85L353.08,187.24L356.54,180.69L360,164.92L363.46,157.63L366.92,158.17L370.38,155.89L373.85,155.76L377.31,153.97L380.77,149.47L384.23,148.61L387.69,142.97L391.15,139.17L394.62,144.15L398.08,144.15L401.54,144.23L405,148.18L408.46,163.75L411.92,164.26L415.38,164.82L418.85,163.79L429.23,163.85L432.69,170.73L436.15,170.59L439.62,166.58L443.08,149.95L446.54,146.53L450,151.92L453.46,151.83L456.92,158.53L460.38,159.16L463.85,155.57L467.31,155.6L470.77,159.86L474.23,157.39L477.69,141.38L481.15,129.13L484.62,127.33L488.08,133.69L491.54,128.93L495,127.45L498.46,129.88L501.92,129.17L505.38,128.81L508.85,132.9L512.31,127.41L515.77,115.71L519.23,111.74L522.69,110.71L526.15,108.33L529.62,78.16L533.08,20.67L536.54,16L540,19.15" style="fill: rgb(99, 110, 250); fill-opacity: 0.5; stroke-width: 0;"/></g></g><g class="errorbars"/><g class="lines"><path class="js-line" d="M0,304L3.46,253.86L6.92,243.84L10.38,239.95L13.85,239.87L17.31,232.57L20.77,229.26L24.23,227.52L27.69,229.62L31.15,222.21L34.62,219.27L38.08,215.18L41.54,226.07L45,222.89L48.46,225.83L51.92,213.88L55.38,208.66L58.85,205.45L62.31,204.42L65.77,207.77L69.23,212.65L72.69,214.17L76.15,197.32L79.62,187L83.08,185.36L86.54,182.16L90,188.59L93.46,188.37L96.92,184.83L103.85,184.77L107.31,185.8L110.77,183.75L114.23,183.01L117.69,147.95L121.15,150.42L124.62,157.82L128.08,156.28L131.54,156.17L135,157.84L141.92,160.5L145.38,169.41L148.85,164.94L152.31,175.41L155.77,175.39L159.23,176.82L162.69,181.27L166.15,177.89L169.62,177.83L173.08,177.02L176.54,174.15L180,173.83L183.46,173.66L186.92,171.55L190.38,173.36L193.85,173.08L211.15,173.42L214.62,171.58L218.08,172.45L221.54,187.89L225,185.23L228.46,170.99L245.77,171.17L249.23,171.57L252.69,172.69L256.15,170.35L259.62,170.13L263.08,218.15L266.54,224.37L270,211.23L273.46,203.89L276.92,211.58L280.38,199.03L283.85,197.46L287.31,196.32L290.77,198.67L294.23,203.93L297.69,202.7L301.15,201.52L304.62,203.81L308.08,204.45L311.54,204L315,197.09L318.46,197.62L321.92,196.37L325.38,196.19L339.23,195.95L342.69,192.84L346.15,192.94L349.62,187.85L353.08,187.24L356.54,180.69L360,164.92L363.46,157.63L366.92,158.17L370.38,155.89L373.85,155.76L377.31,153.97L380.77,149.47L384.23,148.61L387.69,142.97L391.15,139.17L394.62,144.15L398.08,144.15L401.54,144.23L405,148.18L408.46,163.75L411.92,164.26L415.38,164.82L418.85,163.79L429.23,163.85L432.69,170.73L436.15,170.59L439.62,166.58L443.08,149.95L446.54,146.53L450,151.92L453.46,151.83L456.92,158.53L460.38,159.16L463.85,155.57L467.31,155.6L470.77,159.86L474.23,157.39L477.69,141.38L481.15,129.13L484.62,127.33L488.08,133.69L491.54,128.93L495,127.45L498.46,129.88L501.92,129.17L505.38,128.81L508.85,132.9L512.31,127.41L515.77,115.71L519.23,111.74L522.69,110.71L526.15,108.33L529.62,78.16L533.08,20.67L536.54,16L540,19.15" style="vector-effect: non-scaling-stroke; fill: none; stroke: rgb(99, 110, 250); stroke-opacity: 1; stroke-width: 2px; opacity: 1;"/></g><g class="points"/><g class="text"/></g></g></g><g class="overplot"/><path class="xlines-above crisp" d="M0,0" style="fill: none;"/><path class="ylines-above crisp" d="M0,0" style="fill: none;"/><g class="overlines-above"/><g class="xaxislayer-above"><g class="xtick"><text text-anchor="middle" x="0" y="433" transform="translate(104.23,0)" style="font-family: 'Open Sans', verdana, arial, sans-serif; font-size: 12px; fill: rgb(42, 63, 95); fill-opacity: 1; white-space: pre; opacity: 1;">Sep 2022</text></g><g class="xtick"><text text-anchor="middle" x="0" y="433" style="font-family: 'Open Sans', verdana, arial, sans-serif; font-size: 12px; fill: rgb(42, 63, 95); fill-opacity: 1; white-space: pre; opacity: 1;" transform="translate(208.08,0)">Oct 2022</text></g><g class="xtick"><text text-anchor="middle" x="0" y="433" style="font-family: 'Open Sans', verdana, arial, sans-serif; font-size: 12px; fill: rgb(42, 63, 95); fill-opacity: 1; white-space: pre; opacity: 1;" transform="translate(315.38,0)">Nov 2022</text></g><g class="xtick"><text text-anchor="middle" x="0" y="433" style="font-family: 'Open Sans', verdana, arial, sans-serif; font-size: 12px; fill: rgb(42, 63, 95); fill-opacity: 1; white-space: pre; opacity: 1;" transform="translate(419.23,0)">Dec 2022</text></g><g class="xtick"><text text-anchor="middle" x="0" y="433" style="font-family: 'Open Sans', verdana, arial, sans-serif; font-size: 12px; fill: rgb(42, 63, 95); fill-opacity: 1; white-space: pre; opacity: 1;" transform="translate(526.54,0)">Jan 2023</text></g></g><g class="yaxislayer-above"><g class="ytick"><text text-anchor="end" x="79" y="4.199999999999999" transform="translate(0,403.94)" style="font-family: 'Open Sans', verdana, arial, sans-serif; font-size: 12px; fill: rgb(42, 63, 95); fill-opacity: 1; white-space: pre; opacity: 1;">$0</text></g><g class="ytick"><text text-anchor="end" x="79" y="4.199999999999999" style="font-family: 'Open Sans', verdana, arial, sans-serif; font-size: 12px; fill: rgb(42, 63, 95); fill-opacity: 1; white-space: pre; opacity: 1;" transform="translate(0,346.27)">$5M</text></g><g class="ytick"><text text-anchor="end" x="79" y="4.199999999999999" style="font-family: 'Open Sans', verdana, arial, sans-serif; font-size: 12px; fill: rgb(42, 63, 95); fill-opacity: 1; white-space: pre; opacity: 1;" transform="translate(0,288.59000000000003)">$10M</text></g><g class="ytick"><text text-anchor="end" x="79" y="4.199999999999999" style="font-family: 'Open Sans', verdana, arial, sans-serif; font-size: 12px; fill: rgb(42, 63, 95); fill-opacity: 1; white-space: pre; opacity: 1;" transform="translate(0,230.92)">$15M</text></g><g class="ytick"><text text-anchor="end" x="79" y="4.199999999999999" style="font-family: 'Open Sans', verdana, arial, sans-serif; font-size: 12px; fill: rgb(42, 63, 95); fill-opacity: 1; white-space: pre; opacity: 1;" transform="translate(0,173.24)">$20M</text></g><g class="ytick"><text text-anchor="end" x="79" y="4.199999999999999" style="font-family: 'Open Sans', verdana, arial, sans-serif; font-size: 12px; fill: rgb(42, 63, 95); fill-opacity: 1; white-space: pre; opacity: 1;" transform="translate(0,115.57)">$25M</text></g></g><g class="overaxes-above"/></g></g><g class="polarlayer"/><g class="smithlayer"/><g class="ternarylayer"/><g class="geolayer"/><g class="funnelarealayer"/><g class="pielayer"/><g class="iciclelayer"/><g class="treemaplayer"/><g class="sunburstlayer"/><g class="glimages"/><defs id="topdefs-c106fd"><g class="clips"/></defs><g class="layer-above"><g class="imagelayer"/><g class="shapelayer"/></g><g class="infolayer"><g class="g-gtitle"><text class="gtitle" x="35" y="50" text-anchor="start" dy="0em" style="font-family: 'Open Sans', verdana, arial, sans-serif; font-size: 17px; fill: rgb(42, 63, 95); opacity: 1; font-weight: normal; white-space: pre;"><tspan class="line" dy="0em" x="35" y="50">Synthetix - sETH-ETH: Curve</tspan><tspan class="line" dy="1.3em" x="35" y="50">​<tspan style="font-size:70%" dy="-0.6em">Cumulative Net Dollar Flow since Program Announcement, Until Program End + 30 Days - At Last Price</tspan><tspan dy="0.42em">​</tspan></tspan></text></g><g class="g-xtitle"><text class="xtitle" x="350" y="460.8" text-anchor="middle" style="font-family: 'Open Sans', verdana, arial, sans-serif; font-size: 14px; fill: rgb(42, 63, 95); opacity: 1; font-weight: normal; white-space: pre;">Day</text></g><g class="g-ytitle"><text class="ytitle" transform="rotate(-90,24.168750000000003,260)" x="24.168750000000003" y="260" text-anchor="middle" style="font-family: 'Open Sans', verdana, arial, sans-serif; font-size: 14px; fill: rgb(42, 63, 95); opacity: 1; font-weight: normal; white-space: pre;">Cumulative Net Dollar Flow (N$F)</text></g></g></svg>