<svg class="main-svg" xmlns="http://www.w3.org/2000/svg" xmlns:xlink="http://www.w3.org/1999/xlink" width="700" height="500" style="" viewBox="0 0 700 500"><rect x="0" y="0" width="700" height="500" style="fill: rgb(255, 255, 255); fill-opacity: 1;"/><defs id="defs-ce2cad"><g class="clips"><clipPath id="clipce2cadxyplot" class="plotclip"><rect width="540" height="320"/></clipPath><clipPath class="axesclip" id="clipce2cadx"><rect x="80" y="0" width="540" height="500"/></clipPath><clipPath class="axesclip" id="clipce2cady"><rect x="0" y="100" width="700" height="320"/></clipPath><clipPath class="axesclip" id="clipce2cadxy"><rect x="80" y="100" width="540" height="320"/></clipPath></g><g class="gradients"/><g class="patterns"/></defs><g class="bglayer"><rect class="bg" x="80" y="100" width="540" height="320" style="fill: rgb(229, 236, 246); fill-opacity: 1; stroke-width: 0;"/></g><g class="layer-below"><g class="imagelayer"/><g class="shapelayer"/></g><g class="cartesianlayer"><g class="subplot xy"><g class="layer-subplot"><g class="shapelayer"/><g class="imagelayer"/></g><g class="minor-gridlayer"><g class="x"/><g class="y"/></g><g class="gridlayer"><g class="x"><path class="xgrid crisp" transform="translate(163.51,0)" d="M0,100v320" style="stroke: rgb(255, 255, 255); stroke-opacity: 1; stroke-width: 1px;"/><path class="xgrid crisp" transform="translate(247.01,0)" d="M0,100v320" style="stroke: rgb(255, 255, 255); stroke-opacity: 1; stroke-width: 1px;"/><path class="xgrid crisp" transform="translate(333.3,0)" d="M0,100v320" style="stroke: rgb(255, 255, 255); stroke-opacity: 1; stroke-width: 1px;"/><path class="xgrid crisp" transform="translate(416.8,0)" d="M0,100v320" style="stroke: rgb(255, 255, 255); stroke-opacity: 1; stroke-width: 1px;"/><path class="xgrid crisp" transform="translate(503.09,0)" d="M0,100v320" style="stroke: rgb(255, 255, 255); stroke-opacity: 1; stroke-width: 1px;"/><path class="xgrid crisp" transform="translate(589.38,0)" d="M0,100v320" style="stroke: rgb(255, 255, 255); stroke-opacity: 1; stroke-width: 1px;"/></g><g class="y"><path class="ygrid crisp" transform="translate(0,381.78)" d="M80,0h540" style="stroke: rgb(255, 255, 255); stroke-opacity: 1; stroke-width: 1px;"/><path class="ygrid crisp" transform="translate(0,343.56)" d="M80,0h540" style="stroke: rgb(255, 255, 255); stroke-opacity: 1; stroke-width: 1px;"/><path class="ygrid crisp" transform="translate(0,305.34000000000003)" d="M80,0h540" style="stroke: rgb(255, 255, 255); stroke-opacity: 1; stroke-width: 1px;"/><path class="ygrid crisp" transform="translate(0,267.12)" d="M80,0h540" style="stroke: rgb(255, 255, 255); stroke-opacity: 1; stroke-width: 1px;"/><path class="ygrid crisp" transform="translate(0,228.91)" d="M80,0h540" style="stroke: rgb(255, 255, 255); stroke-opacity: 1; stroke-width: 1px;"/><path class="ygrid crisp" transform="translate(0,190.69)" d="M80,0h540" style="stroke: rgb(255, 255, 255); stroke-opacity: 1; stroke-width: 1px;"/><path class="ygrid crisp" transform="translate(0,152.47)" d="M80,0h540" style="stroke: rgb(255, 255, 255); stroke-opacity: 1; stroke-width: 1px;"/><path class="ygrid crisp" transform="translate(0,114.25)" d="M80,0h540" style="stroke: rgb(255, 255, 255); stroke-opacity: 1; stroke-width: 1px;"/></g></g><g class="zerolinelayer"><path class="yzl zl crisp" transform="translate(0,420)" d="M80,0h540" style="stroke: rgb(255, 255, 255); stroke-opacity: 1; stroke-width: 2px;"/></g><path class="xlines-below"/><path class="ylines-below"/><g class="overlines-below"/><g class="xaxislayer-below"/><g class="yaxislayer-below"/><g class="overaxes-below"/><g class="plot" transform="translate(80,100)" clip-path="url(#clipce2cadxyplot)"><g class="scatterlayer mlayer"><g class="trace scatter trace2daba7" style="stroke-miterlimit: 2;"><g class="fills"><g><path class="js-fill" d="M540,320L0,320L0,319.62L2.78,284.74L5.57,201.55L8.35,166.12L11.13,157.49L13.92,143.96L16.7,121.83L19.48,110.42L22.27,55.92L25.05,52.67L27.84,50.79L30.62,34.11L33.4,28.12L36.19,26.48L38.97,18.14L41.75,40.94L44.54,16L50.1,17.33L52.89,29.64L58.45,35.69L61.24,37.44L64.02,46.39L66.8,47.72L69.59,41.44L72.37,40.97L75.15,42.54L77.94,47.01L80.72,48.02L83.51,45.38L86.29,45.64L89.07,59.33L94.64,59.22L97.42,61.22L100.21,63.22L102.99,69.26L105.77,70.23L108.56,81.7L111.34,90.46L114.12,95.79L116.91,103.29L119.69,113.72L122.47,118.58L125.26,109.4L128.04,65.16L130.82,63.59L133.61,51.21L136.39,54.57L139.18,52.46L141.96,52.01L144.74,61.89L147.53,40.4L150.31,37.16L153.09,28.5L155.88,27.43L158.66,29.57L161.44,34.09L164.23,32.94L169.79,26.86L172.58,27.02L175.36,26.49L178.14,32.4L183.71,38.1L186.49,33.96L189.28,31.84L192.06,40.94L194.85,46.33L197.63,44.71L200.41,43.49L203.2,46.39L205.98,45.08L208.76,40.56L211.55,72.18L214.33,80.23L217.11,82.12L219.9,83.1L222.68,84.06L225.46,119.61L228.25,117.05L231.03,123.46L233.81,129.39L236.6,156.07L239.38,181.48L242.16,174.45L244.95,148.55L247.73,149.44L250.52,154.69L253.3,153.7L258.87,158.13L261.65,151.16L264.43,153.94L267.22,149.61L270,149.38L272.78,144.38L275.57,146.83L278.35,156.32L281.13,156.14L283.92,146.18L286.7,151.23L289.48,149.97L292.27,177.94L295.05,179.59L297.84,179.94L300.62,179.27L303.4,168.87L306.19,165.07L308.97,161.79L311.75,157.02L314.54,155.02L317.32,167.19L320.1,173.29L322.89,173.58L325.67,176.03L328.45,176.69L331.24,169.97L334.02,177.68L336.8,187.19L339.59,186.5L342.37,176.51L345.15,174.49L347.94,178.15L350.72,174.65L353.51,173.87L356.29,171.39L359.07,174.28L361.86,183.92L364.64,183.19L367.42,184.21L370.21,186.03L372.99,190.59L378.56,181.95L381.34,183.6L384.12,180.76L386.91,180.46L389.69,177.85L392.47,191.1L395.26,194.34L398.04,195.37L400.82,196.72L403.61,197.03L409.18,193.94L411.96,196.54L414.74,195.86L417.53,196L420.31,205.17L423.09,205.42L425.88,202.69L428.66,203.99L431.44,204.46L434.23,208.75L437.01,210.01L439.79,207.15L448.14,212.3L450.93,215.9L453.71,217.36L456.49,191.52L459.28,191.66L462.06,194.34L464.85,191.72L467.63,190.79L475.98,180.94L478.76,186.97L481.55,183.55L484.33,182.62L487.11,174.19L489.9,171.54L492.68,174.77L495.46,162.36L498.25,169.4L501.03,164.05L503.81,168.41L506.6,163.39L509.38,166.44L512.16,163.43L514.95,162.57L517.73,163.95L520.52,172.78L523.3,174.9L528.87,173.73L531.65,170.14L534.43,168.24L537.22,173.24L540,170.01" style="fill: rgb(99, 110, 250); fill-opacity: 0.5; stroke-width: 0;"/></g></g><g class="errorbars"/><g class="lines"><path class="js-line" d="M0,319.62L2.78,284.74L5.57,201.55L8.35,166.12L11.13,157.49L13.92,143.96L16.7,121.83L19.48,110.42L22.27,55.92L25.05,52.67L27.84,50.79L30.62,34.11L33.4,28.12L36.19,26.48L38.97,18.14L41.75,40.94L44.54,16L50.1,17.33L52.89,29.64L58.45,35.69L61.24,37.44L64.02,46.39L66.8,47.72L69.59,41.44L72.37,40.97L75.15,42.54L77.94,47.01L80.72,48.02L83.51,45.38L86.29,45.64L89.07,59.33L94.64,59.22L97.42,61.22L100.21,63.22L102.99,69.26L105.77,70.23L108.56,81.7L111.34,90.46L114.12,95.79L116.91,103.29L119.69,113.72L122.47,118.58L125.26,109.4L128.04,65.16L130.82,63.59L133.61,51.21L136.39,54.57L139.18,52.46L141.96,52.01L144.74,61.89L147.53,40.4L150.31,37.16L153.09,28.5L155.88,27.43L158.66,29.57L161.44,34.09L164.23,32.94L169.79,26.86L172.58,27.02L175.36,26.49L178.14,32.4L183.71,38.1L186.49,33.96L189.28,31.84L192.06,40.94L194.85,46.33L197.63,44.71L200.41,43.49L203.2,46.39L205.98,45.08L208.76,40.56L211.55,72.18L214.33,80.23L217.11,82.12L219.9,83.1L222.68,84.06L225.46,119.61L228.25,117.05L231.03,123.46L233.81,129.39L236.6,156.07L239.38,181.48L242.16,174.45L244.95,148.55L247.73,149.44L250.52,154.69L253.3,153.7L258.87,158.13L261.65,151.16L264.43,153.94L267.22,149.61L270,149.38L272.78,144.38L275.57,146.83L278.35,156.32L281.13,156.14L283.92,146.18L286.7,151.23L289.48,149.97L292.27,177.94L295.05,179.59L297.84,179.94L300.62,179.27L303.4,168.87L306.19,165.07L308.97,161.79L311.75,157.02L314.54,155.02L317.32,167.19L320.1,173.29L322.89,173.58L325.67,176.03L328.45,176.69L331.24,169.97L334.02,177.68L336.8,187.19L339.59,186.5L342.37,176.51L345.15,174.49L347.94,178.15L350.72,174.65L353.51,173.87L356.29,171.39L359.07,174.28L361.86,183.92L364.64,183.19L367.42,184.21L370.21,186.03L372.99,190.59L378.56,181.95L381.34,183.6L384.12,180.76L386.91,180.46L389.69,177.85L392.47,191.1L395.26,194.34L398.04,195.37L400.82,196.72L403.61,197.03L409.18,193.94L411.96,196.54L414.74,195.86L417.53,196L420.31,205.17L423.09,205.42L425.88,202.69L428.66,203.99L431.44,204.46L434.23,208.75L437.01,210.01L439.79,207.15L448.14,212.3L450.93,215.9L453.71,217.36L456.49,191.52L459.28,191.66L462.06,194.34L464.85,191.72L467.63,190.79L475.98,180.94L478.76,186.97L481.55,183.55L484.33,182.62L487.11,174.19L489.9,171.54L492.68,174.77L495.46,162.36L498.25,169.4L501.03,164.05L503.81,168.41L506.6,163.39L509.38,166.44L512.16,163.43L514.95,162.57L517.73,163.95L520.52,172.78L523.3,174.9L528.87,173.73L531.65,170.14L534.43,168.24L537.22,173.24L540,170.01" style="vector-effect: non-scaling-stroke; fill: none; stroke: rgb(99, 110, 250); stroke-opacity: 1; stroke-width: 2px; opacity: 1;"/></g><g class="points"/><g class="text"/></g></g></g><g class="overplot"/><path class="xlines-above crisp" d="M0,0" style="fill: none;"/><path class="ylines-above crisp" d="M0,0" style="fill: none;"/><g class="overlines-above"/><g class="xaxislayer-above"><g class="xtick"><text text-anchor="middle" x="0" y="433" transform="translate(163.51,0)" style="font-family: 'Open Sans', verdana, arial, sans-serif; font-size: 12px; fill: rgb(42, 63, 95); fill-opacity: 1; white-space: pre; opacity: 1;">Sep 2022</text></g><g class="xtick"><text text-anchor="middle" x="0" y="433" style="font-family: 'Open Sans', verdana, arial, sans-serif; font-size: 12px; fill: rgb(42, 63, 95); fill-opacity: 1; white-space: pre; opacity: 1;" transform="translate(247.01,0)">Oct 2022</text></g><g class="xtick"><text text-anchor="middle" x="0" y="433" style="font-family: 'Open Sans', verdana, arial, sans-serif; font-size: 12px; fill: rgb(42, 63, 95); fill-opacity: 1; white-space: pre; opacity: 1;" transform="translate(333.3,0)">Nov 2022</text></g><g class="xtick"><text text-anchor="middle" x="0" y="433" style="font-family: 'Open Sans', verdana, arial, sans-serif; font-size: 12px; fill: rgb(42, 63, 95); fill-opacity: 1; white-space: pre; opacity: 1;" transform="translate(416.8,0)">Dec 2022</text></g><g class="xtick"><text text-anchor="middle" x="0" y="433" style="font-family: 'Open Sans', verdana, arial, sans-serif; font-size: 12px; fill: rgb(42, 63, 95); fill-opacity: 1; white-space: pre; opacity: 1;" transform="translate(503.09,0)">Jan 2023</text></g><g class="xtick"><text text-anchor="middle" x="0" y="433" style="font-family: 'Open Sans', verdana, arial, sans-serif; font-size: 12px; fill: rgb(42, 63, 95); fill-opacity: 1; white-space: pre; opacity: 1;" transform="translate(589.38,0)">Feb 2023</text></g></g><g class="yaxislayer-above"><g class="ytick"><text text-anchor="end" x="79" y="4.199999999999999" transform="translate(0,420)" style="font-family: 'Open Sans', verdana, arial, sans-serif; font-size: 12px; fill: rgb(42, 63, 95); fill-opacity: 1; white-space: pre; opacity: 1;">$0</text></g><g class="ytick"><text text-anchor="end" x="79" y="4.199999999999999" style="font-family: 'Open Sans', verdana, arial, sans-serif; font-size: 12px; fill: rgb(42, 63, 95); fill-opacity: 1; white-space: pre; opacity: 1;" transform="translate(0,381.78)">$2M</text></g><g class="ytick"><text text-anchor="end" x="79" y="4.199999999999999" style="font-family: 'Open Sans', verdana, arial, sans-serif; font-size: 12px; fill: rgb(42, 63, 95); fill-opacity: 1; white-space: pre; opacity: 1;" transform="translate(0,343.56)">$4M</text></g><g class="ytick"><text text-anchor="end" x="79" y="4.199999999999999" style="font-family: 'Open Sans', verdana, arial, sans-serif; font-size: 12px; fill: rgb(42, 63, 95); fill-opacity: 1; white-space: pre; opacity: 1;" transform="translate(0,305.34000000000003)">$6M</text></g><g class="ytick"><text text-anchor="end" x="79" y="4.199999999999999" style="font-family: 'Open Sans', verdana, arial, sans-serif; font-size: 12px; fill: rgb(42, 63, 95); fill-opacity: 1; white-space: pre; opacity: 1;" transform="translate(0,267.12)">$8M</text></g><g class="ytick"><text text-anchor="end" x="79" y="4.199999999999999" style="font-family: 'Open Sans', verdana, arial, sans-serif; font-size: 12px; fill: rgb(42, 63, 95); fill-opacity: 1; white-space: pre; opacity: 1;" transform="translate(0,228.91)">$10M</text></g><g class="ytick"><text text-anchor="end" x="79" y="4.199999999999999" style="font-family: 'Open Sans', verdana, arial, sans-serif; font-size: 12px; fill: rgb(42, 63, 95); fill-opacity: 1; white-space: pre; opacity: 1;" transform="translate(0,190.69)">$12M</text></g><g class="ytick"><text text-anchor="end" x="79" y="4.199999999999999" style="font-family: 'Open Sans', verdana, arial, sans-serif; font-size: 12px; fill: rgb(42, 63, 95); fill-opacity: 1; white-space: pre; opacity: 1;" transform="translate(0,152.47)">$14M</text></g><g class="ytick"><text text-anchor="end" x="79" y="4.199999999999999" style="font-family: 'Open Sans', verdana, arial, sans-serif; font-size: 12px; fill: rgb(42, 63, 95); fill-opacity: 1; white-space: pre; opacity: 1;" transform="translate(0,114.25)">$16M</text></g></g><g class="overaxes-above"/></g></g><g class="polarlayer"/><g class="smithlayer"/><g class="ternarylayer"/><g class="geolayer"/><g class="funnelarealayer"/><g class="pielayer"/><g class="iciclelayer"/><g class="treemaplayer"/><g class="sunburstlayer"/><g class="glimages"/><defs id="topdefs-ce2cad"><g class="clips"/></defs><g class="layer-above"><g class="imagelayer"/><g class="shapelayer"/></g><g class="infolayer"><g class="g-gtitle"><text class="gtitle" x="35" y="50" text-anchor="start" dy="0em" style="font-family: 'Open Sans', verdana, arial, sans-serif; font-size: 17px; fill: rgb(42, 63, 95); opacity: 1; font-weight: normal; white-space: pre;"><tspan class="line" dy="0em" x="35" y="50">Lyra</tspan><tspan class="line" dy="1.3em" x="35" y="50">​<tspan style="font-size:70%" dy="-0.6em">Cumulative Net Flows since Program Announcement, Until Program End + 30 Days - At Last Price</tspan><tspan dy="0.42em">​</tspan></tspan></text></g><g class="g-xtitle"><text class="xtitle" x="350" y="460.8" text-anchor="middle" style="font-family: 'Open Sans', verdana, arial, sans-serif; font-size: 14px; fill: rgb(42, 63, 95); opacity: 1; font-weight: normal; white-space: pre;">Day</text></g><g class="g-ytitle"><text class="ytitle" transform="rotate(-90,24.168750000000003,260)" x="24.168750000000003" y="260" text-anchor="middle" style="font-family: 'Open Sans', verdana, arial, sans-serif; font-size: 14px; fill: rgb(42, 63, 95); opacity: 1; font-weight: normal; white-space: pre;">Cumulative Net Flows (USD)</text></g></g></svg>