<svg class="main-svg" xmlns="http://www.w3.org/2000/svg" xmlns:xlink="http://www.w3.org/1999/xlink" width="700" height="500" style="" viewBox="0 0 700 500"><rect x="0" y="0" width="700" height="500" style="fill: rgb(255, 255, 255); fill-opacity: 1;"/><defs id="defs-0735bb"><g class="clips"><clipPath id="clip0735bbxyplot" class="plotclip"><rect width="540" height="320"/></clipPath><clipPath class="axesclip" id="clip0735bbx"><rect x="80" y="0" width="540" height="500"/></clipPath><clipPath class="axesclip" id="clip0735bby"><rect x="0" y="100" width="700" height="320"/></clipPath><clipPath class="axesclip" id="clip0735bbxy"><rect x="80" y="100" width="540" height="320"/></clipPath></g><g class="gradients"/><g class="patterns"/></defs><g class="bglayer"><rect class="bg" x="80" y="100" width="540" height="320" style="fill: rgb(229, 236, 246); fill-opacity: 1; stroke-width: 0;"/></g><g class="layer-below"><g class="imagelayer"/><g class="shapelayer"/></g><g class="cartesianlayer"><g class="subplot xy"><g class="layer-subplot"><g class="shapelayer"/><g class="imagelayer"/></g><g class="minor-gridlayer"><g class="x"/><g class="y"/></g><g class="gridlayer"><g class="x"><path class="xgrid crisp" transform="translate(171.01,0)" d="M0,100v320" style="stroke: rgb(255, 255, 255); stroke-opacity: 1; stroke-width: 1px;"/><path class="xgrid crisp" transform="translate(262.02,0)" d="M0,100v320" style="stroke: rgb(255, 255, 255); stroke-opacity: 1; stroke-width: 1px;"/><path class="xgrid crisp" transform="translate(356.07,0)" d="M0,100v320" style="stroke: rgb(255, 255, 255); stroke-opacity: 1; stroke-width: 1px;"/><path class="xgrid crisp" transform="translate(447.08,0)" d="M0,100v320" style="stroke: rgb(255, 255, 255); stroke-opacity: 1; stroke-width: 1px;"/><path class="xgrid crisp" transform="translate(541.12,0)" d="M0,100v320" style="stroke: rgb(255, 255, 255); stroke-opacity: 1; stroke-width: 1px;"/></g><g class="y"><path class="ygrid crisp" transform="translate(0,381.78)" d="M80,0h540" style="stroke: rgb(255, 255, 255); stroke-opacity: 1; stroke-width: 1px;"/><path class="ygrid crisp" transform="translate(0,343.56)" d="M80,0h540" style="stroke: rgb(255, 255, 255); stroke-opacity: 1; stroke-width: 1px;"/><path class="ygrid crisp" transform="translate(0,305.34000000000003)" d="M80,0h540" style="stroke: rgb(255, 255, 255); stroke-opacity: 1; stroke-width: 1px;"/><path class="ygrid crisp" transform="translate(0,267.12)" d="M80,0h540" style="stroke: rgb(255, 255, 255); stroke-opacity: 1; stroke-width: 1px;"/><path class="ygrid crisp" transform="translate(0,228.91)" d="M80,0h540" style="stroke: rgb(255, 255, 255); stroke-opacity: 1; stroke-width: 1px;"/><path class="ygrid crisp" transform="translate(0,190.69)" d="M80,0h540" style="stroke: rgb(255, 255, 255); stroke-opacity: 1; stroke-width: 1px;"/><path class="ygrid crisp" transform="translate(0,152.47)" d="M80,0h540" style="stroke: rgb(255, 255, 255); stroke-opacity: 1; stroke-width: 1px;"/><path class="ygrid crisp" transform="translate(0,114.25)" d="M80,0h540" style="stroke: rgb(255, 255, 255); stroke-opacity: 1; stroke-width: 1px;"/></g></g><g class="zerolinelayer"><path class="yzl zl crisp" transform="translate(0,420)" d="M80,0h540" style="stroke: rgb(255, 255, 255); stroke-opacity: 1; stroke-width: 2px;"/></g><path class="xlines-below"/><path class="ylines-below"/><g class="overlines-below"/><g class="xaxislayer-below"/><g class="yaxislayer-below"/><g class="overaxes-below"/><g class="plot" transform="translate(80,100)" clip-path="url(#clip0735bbxyplot)"><g class="scatterlayer mlayer"><g class="trace scatter trace7f1efe" style="stroke-miterlimit: 2;"><g class="fills"><g><path class="js-fill" d="M540,320L0,320L0,319.62L3.03,284.74L6.07,201.55L9.1,166.12L12.13,157.49L15.17,143.96L18.2,121.83L21.24,110.42L24.27,55.92L27.3,52.67L30.34,50.79L33.37,34.11L36.4,28.12L39.44,26.48L42.47,18.14L45.51,40.94L48.54,16L54.61,17.33L57.64,29.64L63.71,35.69L66.74,37.44L69.78,46.39L72.81,47.72L75.84,41.44L78.88,40.97L81.91,42.54L84.94,47.01L87.98,48.02L91.01,45.38L94.04,45.64L97.08,59.33L103.15,59.22L106.18,61.22L109.21,63.22L112.25,69.26L115.28,70.23L118.31,81.7L121.35,90.46L124.38,95.79L127.42,103.29L130.45,113.72L133.48,118.58L136.52,109.4L139.55,65.16L142.58,63.59L145.62,51.21L148.65,54.57L151.69,52.46L154.72,52.01L157.75,61.89L160.79,40.4L163.82,37.16L166.85,28.5L169.89,27.43L172.92,29.57L175.96,34.09L178.99,32.94L185.06,26.86L188.09,27.02L191.12,26.49L194.16,32.4L200.22,38.1L203.26,33.96L206.29,31.84L209.33,40.94L212.36,46.33L215.39,44.71L218.43,43.49L221.46,46.39L224.49,45.08L227.53,40.56L230.56,72.18L233.6,80.23L236.63,82.12L239.66,83.1L242.7,84.06L245.73,119.61L248.76,117.05L251.8,123.46L254.83,129.39L257.87,156.07L260.9,181.48L263.93,174.45L266.97,148.55L270,149.44L273.03,154.69L276.07,153.7L282.13,158.13L285.17,151.16L288.2,153.94L291.24,149.61L294.27,149.38L297.3,144.38L300.34,146.83L303.37,156.32L306.4,156.14L309.44,146.18L312.47,151.23L315.51,149.97L318.54,177.94L321.57,179.59L324.61,179.94L327.64,179.27L330.67,168.87L333.71,165.07L336.74,161.79L339.78,157.02L342.81,155.02L345.84,167.19L348.88,173.29L351.91,173.58L354.94,176.03L357.98,176.69L361.01,169.97L364.04,177.68L367.08,187.19L370.11,186.5L373.15,176.51L376.18,174.49L379.21,178.15L382.25,174.65L385.28,173.87L388.31,171.39L391.35,174.28L394.38,183.92L397.42,183.19L400.45,184.21L403.48,186.03L406.52,190.59L412.58,181.95L415.62,183.6L418.65,180.76L421.69,180.46L424.72,177.85L427.75,191.1L430.79,194.34L433.82,195.37L436.85,196.72L439.89,197.03L445.96,193.94L448.99,196.54L452.02,195.86L455.06,196L458.09,205.17L461.12,205.42L464.16,202.69L467.19,203.99L470.22,204.46L473.26,208.75L476.29,210.01L479.33,207.15L488.43,212.3L491.46,215.9L494.49,217.36L497.53,191.52L500.56,191.66L503.6,194.34L506.63,191.72L509.66,190.79L515.73,184.53L518.76,180.94L521.8,186.97L524.83,183.55L527.87,182.62L530.9,174.19L533.93,171.54L536.97,174.77L540,162.36" style="fill: rgb(99, 110, 250); fill-opacity: 0.5; stroke-width: 0;"/></g></g><g class="errorbars"/><g class="lines"><path class="js-line" d="M0,319.62L3.03,284.74L6.07,201.55L9.1,166.12L12.13,157.49L15.17,143.96L18.2,121.83L21.24,110.42L24.27,55.92L27.3,52.67L30.34,50.79L33.37,34.11L36.4,28.12L39.44,26.48L42.47,18.14L45.51,40.94L48.54,16L54.61,17.33L57.64,29.64L63.71,35.69L66.74,37.44L69.78,46.39L72.81,47.72L75.84,41.44L78.88,40.97L81.91,42.54L84.94,47.01L87.98,48.02L91.01,45.38L94.04,45.64L97.08,59.33L103.15,59.22L106.18,61.22L109.21,63.22L112.25,69.26L115.28,70.23L118.31,81.7L121.35,90.46L124.38,95.79L127.42,103.29L130.45,113.72L133.48,118.58L136.52,109.4L139.55,65.16L142.58,63.59L145.62,51.21L148.65,54.57L151.69,52.46L154.72,52.01L157.75,61.89L160.79,40.4L163.82,37.16L166.85,28.5L169.89,27.43L172.92,29.57L175.96,34.09L178.99,32.94L185.06,26.86L188.09,27.02L191.12,26.49L194.16,32.4L200.22,38.1L203.26,33.96L206.29,31.84L209.33,40.94L212.36,46.33L215.39,44.71L218.43,43.49L221.46,46.39L224.49,45.08L227.53,40.56L230.56,72.18L233.6,80.23L236.63,82.12L239.66,83.1L242.7,84.06L245.73,119.61L248.76,117.05L251.8,123.46L254.83,129.39L257.87,156.07L260.9,181.48L263.93,174.45L266.97,148.55L270,149.44L273.03,154.69L276.07,153.7L282.13,158.13L285.17,151.16L288.2,153.94L291.24,149.61L294.27,149.38L297.3,144.38L300.34,146.83L303.37,156.32L306.4,156.14L309.44,146.18L312.47,151.23L315.51,149.97L318.54,177.94L321.57,179.59L324.61,179.94L327.64,179.27L330.67,168.87L333.71,165.07L336.74,161.79L339.78,157.02L342.81,155.02L345.84,167.19L348.88,173.29L351.91,173.58L354.94,176.03L357.98,176.69L361.01,169.97L364.04,177.68L367.08,187.19L370.11,186.5L373.15,176.51L376.18,174.49L379.21,178.15L382.25,174.65L385.28,173.87L388.31,171.39L391.35,174.28L394.38,183.92L397.42,183.19L400.45,184.21L403.48,186.03L406.52,190.59L412.58,181.95L415.62,183.6L418.65,180.76L421.69,180.46L424.72,177.85L427.75,191.1L430.79,194.34L433.82,195.37L436.85,196.72L439.89,197.03L445.96,193.94L448.99,196.54L452.02,195.86L455.06,196L458.09,205.17L461.12,205.42L464.16,202.69L467.19,203.99L470.22,204.46L473.26,208.75L476.29,210.01L479.33,207.15L488.43,212.3L491.46,215.9L494.49,217.36L497.53,191.52L500.56,191.66L503.6,194.34L506.63,191.72L509.66,190.79L515.73,184.53L518.76,180.94L521.8,186.97L524.83,183.55L527.87,182.62L530.9,174.19L533.93,171.54L536.97,174.77L540,162.36" style="vector-effect: non-scaling-stroke; fill: none; stroke: rgb(99, 110, 250); stroke-opacity: 1; stroke-width: 2px; opacity: 1;"/></g><g class="points"/><g class="text"/></g></g></g><g class="overplot"/><path class="xlines-above crisp" d="M0,0" style="fill: none;"/><path class="ylines-above crisp" d="M0,0" style="fill: none;"/><g class="overlines-above"/><g class="xaxislayer-above"><g class="xtick"><text text-anchor="middle" x="0" y="433" transform="translate(171.01,0)" style="font-family: 'Open Sans', verdana, arial, sans-serif; font-size: 12px; fill: rgb(42, 63, 95); fill-opacity: 1; white-space: pre; opacity: 1;">Sep 2022</text></g><g class="xtick"><text text-anchor="middle" x="0" y="433" style="font-family: 'Open Sans', verdana, arial, sans-serif; font-size: 12px; fill: rgb(42, 63, 95); fill-opacity: 1; white-space: pre; opacity: 1;" transform="translate(262.02,0)">Oct 2022</text></g><g class="xtick"><text text-anchor="middle" x="0" y="433" style="font-family: 'Open Sans', verdana, arial, sans-serif; font-size: 12px; fill: rgb(42, 63, 95); fill-opacity: 1; white-space: pre; opacity: 1;" transform="translate(356.07,0)">Nov 2022</text></g><g class="xtick"><text text-anchor="middle" x="0" y="433" style="font-family: 'Open Sans', verdana, arial, sans-serif; font-size: 12px; fill: rgb(42, 63, 95); fill-opacity: 1; white-space: pre; opacity: 1;" transform="translate(447.08,0)">Dec 2022</text></g><g class="xtick"><text text-anchor="middle" x="0" y="433" style="font-family: 'Open Sans', verdana, arial, sans-serif; font-size: 12px; fill: rgb(42, 63, 95); fill-opacity: 1; white-space: pre; opacity: 1;" transform="translate(541.12,0)">Jan 2023</text></g></g><g class="yaxislayer-above"><g class="ytick"><text text-anchor="end" x="79" y="4.199999999999999" transform="translate(0,420)" style="font-family: 'Open Sans', verdana, arial, sans-serif; font-size: 12px; fill: rgb(42, 63, 95); fill-opacity: 1; white-space: pre; opacity: 1;">$0</text></g><g class="ytick"><text text-anchor="end" x="79" y="4.199999999999999" style="font-family: 'Open Sans', verdana, arial, sans-serif; font-size: 12px; fill: rgb(42, 63, 95); fill-opacity: 1; white-space: pre; opacity: 1;" transform="translate(0,381.78)">$2M</text></g><g class="ytick"><text text-anchor="end" x="79" y="4.199999999999999" style="font-family: 'Open Sans', verdana, arial, sans-serif; font-size: 12px; fill: rgb(42, 63, 95); fill-opacity: 1; white-space: pre; opacity: 1;" transform="translate(0,343.56)">$4M</text></g><g class="ytick"><text text-anchor="end" x="79" y="4.199999999999999" style="font-family: 'Open Sans', verdana, arial, sans-serif; font-size: 12px; fill: rgb(42, 63, 95); fill-opacity: 1; white-space: pre; opacity: 1;" transform="translate(0,305.34000000000003)">$6M</text></g><g class="ytick"><text text-anchor="end" x="79" y="4.199999999999999" style="font-family: 'Open Sans', verdana, arial, sans-serif; font-size: 12px; fill: rgb(42, 63, 95); fill-opacity: 1; white-space: pre; opacity: 1;" transform="translate(0,267.12)">$8M</text></g><g class="ytick"><text text-anchor="end" x="79" y="4.199999999999999" style="font-family: 'Open Sans', verdana, arial, sans-serif; font-size: 12px; fill: rgb(42, 63, 95); fill-opacity: 1; white-space: pre; opacity: 1;" transform="translate(0,228.91)">$10M</text></g><g class="ytick"><text text-anchor="end" x="79" y="4.199999999999999" style="font-family: 'Open Sans', verdana, arial, sans-serif; font-size: 12px; fill: rgb(42, 63, 95); fill-opacity: 1; white-space: pre; opacity: 1;" transform="translate(0,190.69)">$12M</text></g><g class="ytick"><text text-anchor="end" x="79" y="4.199999999999999" style="font-family: 'Open Sans', verdana, arial, sans-serif; font-size: 12px; fill: rgb(42, 63, 95); fill-opacity: 1; white-space: pre; opacity: 1;" transform="translate(0,152.47)">$14M</text></g><g class="ytick"><text text-anchor="end" x="79" y="4.199999999999999" style="font-family: 'Open Sans', verdana, arial, sans-serif; font-size: 12px; fill: rgb(42, 63, 95); fill-opacity: 1; white-space: pre; opacity: 1;" transform="translate(0,114.25)">$16M</text></g></g><g class="overaxes-above"/></g></g><g class="polarlayer"/><g class="smithlayer"/><g class="ternarylayer"/><g class="geolayer"/><g class="funnelarealayer"/><g class="pielayer"/><g class="iciclelayer"/><g class="treemaplayer"/><g class="sunburstlayer"/><g class="glimages"/><defs id="topdefs-0735bb"><g class="clips"/></defs><g class="layer-above"><g class="imagelayer"/><g class="shapelayer"/></g><g class="infolayer"><g class="g-gtitle"><text class="gtitle" x="35" y="50" text-anchor="start" dy="0em" style="font-family: 'Open Sans', verdana, arial, sans-serif; font-size: 17px; fill: rgb(42, 63, 95); opacity: 1; font-weight: normal; white-space: pre;"><tspan class="line" dy="0em" x="35" y="50">Lyra</tspan><tspan class="line" dy="1.3em" x="35" y="50">​<tspan style="font-size:70%" dy="-0.6em">Cumulative Net Dollar Flow since Program Announcement, Until Program End + 30 Days - At Last Price</tspan><tspan dy="0.42em">​</tspan></tspan></text></g><g class="g-xtitle"><text class="xtitle" x="350" y="460.8" text-anchor="middle" style="font-family: 'Open Sans', verdana, arial, sans-serif; font-size: 14px; fill: rgb(42, 63, 95); opacity: 1; font-weight: normal; white-space: pre;">Day</text></g><g class="g-ytitle"><text class="ytitle" transform="rotate(-90,24.168750000000003,260)" x="24.168750000000003" y="260" text-anchor="middle" style="font-family: 'Open Sans', verdana, arial, sans-serif; font-size: 14px; fill: rgb(42, 63, 95); opacity: 1; font-weight: normal; white-space: pre;">Cumulative Net Dollar Flow (N$F)</text></g></g></svg>