<svg class="main-svg" xmlns="http://www.w3.org/2000/svg" xmlns:xlink="http://www.w3.org/1999/xlink" width="700" height="500" style="" viewBox="0 0 700 500"><rect x="0" y="0" width="700" height="500" style="fill: rgb(255, 255, 255); fill-opacity: 1;"/><defs id="defs-47a768"><g class="clips"><clipPath id="clip47a768xyplot" class="plotclip"><rect width="540" height="320"/></clipPath><clipPath class="axesclip" id="clip47a768x"><rect x="80" y="0" width="540" height="500"/></clipPath><clipPath class="axesclip" id="clip47a768y"><rect x="0" y="100" width="700" height="320"/></clipPath><clipPath class="axesclip" id="clip47a768xy"><rect x="80" y="100" width="540" height="320"/></clipPath></g><g class="gradients"/><g class="patterns"/></defs><g class="bglayer"><rect class="bg" x="80" y="100" width="540" height="320" style="fill: rgb(229, 236, 246); fill-opacity: 1; stroke-width: 0;"/></g><g class="layer-below"><g class="imagelayer"/><g class="shapelayer"/></g><g class="cartesianlayer"><g class="subplot xy"><g class="layer-subplot"><g class="shapelayer"/><g class="imagelayer"/></g><g class="minor-gridlayer"><g class="x"/><g class="y"/></g><g class="gridlayer"><g class="x"><path class="xgrid crisp" transform="translate(91.55,0)" d="M0,100v320" style="stroke: rgb(255, 255, 255); stroke-opacity: 1; stroke-width: 1px;"/><path class="xgrid crisp" transform="translate(181.07,0)" d="M0,100v320" style="stroke: rgb(255, 255, 255); stroke-opacity: 1; stroke-width: 1px;"/><path class="xgrid crisp" transform="translate(267.7,0)" d="M0,100v320" style="stroke: rgb(255, 255, 255); stroke-opacity: 1; stroke-width: 1px;"/><path class="xgrid crisp" transform="translate(357.22,0)" d="M0,100v320" style="stroke: rgb(255, 255, 255); stroke-opacity: 1; stroke-width: 1px;"/><path class="xgrid crisp" transform="translate(446.74,0)" d="M0,100v320" style="stroke: rgb(255, 255, 255); stroke-opacity: 1; stroke-width: 1px;"/><path class="xgrid crisp" transform="translate(527.5899999999999,0)" d="M0,100v320" style="stroke: rgb(255, 255, 255); stroke-opacity: 1; stroke-width: 1px;"/><path class="xgrid crisp" transform="translate(617.11,0)" d="M0,100v320" style="stroke: rgb(255, 255, 255); stroke-opacity: 1; stroke-width: 1px;"/></g><g class="y"><path class="ygrid crisp" transform="translate(0,348.72)" d="M80,0h540" style="stroke: rgb(255, 255, 255); stroke-opacity: 1; stroke-width: 1px;"/><path class="ygrid crisp" transform="translate(0,301.12)" d="M80,0h540" style="stroke: rgb(255, 255, 255); stroke-opacity: 1; stroke-width: 1px;"/><path class="ygrid crisp" transform="translate(0,253.52)" d="M80,0h540" style="stroke: rgb(255, 255, 255); stroke-opacity: 1; stroke-width: 1px;"/><path class="ygrid crisp" transform="translate(0,205.92000000000002)" d="M80,0h540" style="stroke: rgb(255, 255, 255); stroke-opacity: 1; stroke-width: 1px;"/><path class="ygrid crisp" transform="translate(0,158.32)" d="M80,0h540" style="stroke: rgb(255, 255, 255); stroke-opacity: 1; stroke-width: 1px;"/><path class="ygrid crisp" transform="translate(0,110.71000000000001)" d="M80,0h540" style="stroke: rgb(255, 255, 255); stroke-opacity: 1; stroke-width: 1px;"/></g></g><g class="zerolinelayer"><path class="yzl zl crisp" transform="translate(0,396.32)" d="M80,0h540" style="stroke: rgb(255, 255, 255); stroke-opacity: 1; stroke-width: 2px;"/></g><path class="xlines-below"/><path class="ylines-below"/><g class="overlines-below"/><g class="xaxislayer-below"/><g class="yaxislayer-below"/><g class="overaxes-below"/><g class="plot" transform="translate(80,100)" clip-path="url(#clip47a768xyplot)"><g class="scatterlayer mlayer"><g class="trace scatter trace0f731f" style="stroke-miterlimit: 2;"><g class="fills"><g><path class="js-fill" d="M540,296.32L0,296.32L0,301.94L5.78,301.29L8.66,301.03L11.55,300.34L14.44,300.51L17.33,300.44L20.21,299.07L23.1,294.17L25.99,294.35L28.88,298.81L31.76,294.06L37.54,294.73L40.43,294.76L43.32,294.89L46.2,292.36L49.09,286.41L51.98,285.53L54.87,285.53L57.75,287.08L60.64,277.43L63.53,277.31L66.42,277.19L69.3,279.72L72.19,280.04L75.08,278.21L80.86,279.85L83.74,285.58L86.63,282.26L89.52,277.12L92.41,275.82L95.29,276.36L101.07,275.03L103.96,275.55L115.51,275.35L118.4,274.55L121.28,288.88L124.17,290.28L127.06,303.56L129.95,301.88L135.72,302.62L138.61,304L141.5,292.28L144.39,290.79L147.27,295.89L150.16,294.35L153.05,293.36L155.94,293.83L158.82,295.09L161.71,295.21L164.6,296.82L167.49,296.27L170.37,295.03L173.26,288.96L176.15,288.49L179.04,294.84L181.93,295.33L184.81,294.45L187.7,285.77L190.59,283.12L196.36,283.61L199.25,281.27L202.14,280.33L205.03,275.22L207.91,274.92L210.8,272.03L213.69,280.27L216.58,251.55L219.47,266.36L222.35,266.78L225.24,272.68L228.13,290.81L231.02,290.67L233.9,298.23L236.79,299.32L239.68,298.72L242.57,290.64L245.45,290.44L248.34,292.4L251.23,292.79L262.78,292.59L265.67,293.81L274.33,293.43L277.22,293.42L282.99,293.34L285.88,292.33L288.77,291.98L291.66,294.17L294.55,291.05L297.43,290.82L300.32,286.77L303.21,285.61L306.1,285.4L308.98,283.71L311.87,281.91L314.76,281.19L320.53,281.45L323.42,278.05L326.31,277.46L329.2,269.29L332.09,262.43L334.97,259.35L337.86,264.01L340.75,252.62L343.64,241.51L346.52,237.63L352.3,212.74L355.19,207.82L358.07,207.81L360.96,204.42L363.85,192.58L366.74,189.23L369.63,183.3L372.51,179.82L375.4,178.47L378.29,172.97L381.18,142.39L384.06,140L386.95,121.38L389.84,124.81L392.73,124.76L395.61,116.74L398.5,108.82L401.39,107.86L404.28,107.89L407.17,103.62L410.05,105.46L412.94,98.24L415.83,96.38L418.72,83.07L421.6,76.01L424.49,71.01L427.38,80.69L430.27,75.32L433.16,59.15L436.04,60.03L438.93,58.83L441.82,52.21L444.71,41.3L447.59,25.74L450.48,18.15L453.37,17.82L456.26,16L459.14,17.4L462.03,16.28L464.92,20.48L467.81,22.5L470.7,29.26L473.58,119.48L476.47,300.28L479.36,297L482.25,268L485.13,208.06L488.02,199.26L490.91,185.09L493.8,153.41L496.68,109.13L499.57,84.07L502.46,80.53L505.35,84.05L508.24,83.58L511.12,92.2L516.9,99.9L519.79,100.34L522.67,108.51L525.56,107.84L528.45,112.31L531.34,112.84L534.22,103.95L537.11,103.01L540,103.1" style="fill: rgb(99, 110, 250); fill-opacity: 0.5; stroke-width: 0;"/></g></g><g class="errorbars"/><g class="lines"><path class="js-line" d="M0,301.94L5.78,301.29L8.66,301.03L11.55,300.34L14.44,300.51L17.33,300.44L20.21,299.07L23.1,294.17L25.99,294.35L28.88,298.81L31.76,294.06L37.54,294.73L40.43,294.76L43.32,294.89L46.2,292.36L49.09,286.41L51.98,285.53L54.87,285.53L57.75,287.08L60.64,277.43L63.53,277.31L66.42,277.19L69.3,279.72L72.19,280.04L75.08,278.21L80.86,279.85L83.74,285.58L86.63,282.26L89.52,277.12L92.41,275.82L95.29,276.36L101.07,275.03L103.96,275.55L115.51,275.35L118.4,274.55L121.28,288.88L124.17,290.28L127.06,303.56L129.95,301.88L135.72,302.62L138.61,304L141.5,292.28L144.39,290.79L147.27,295.89L150.16,294.35L153.05,293.36L155.94,293.83L158.82,295.09L161.71,295.21L164.6,296.82L167.49,296.27L170.37,295.03L173.26,288.96L176.15,288.49L179.04,294.84L181.93,295.33L184.81,294.45L187.7,285.77L190.59,283.12L196.36,283.61L199.25,281.27L202.14,280.33L205.03,275.22L207.91,274.92L210.8,272.03L213.69,280.27L216.58,251.55L219.47,266.36L222.35,266.78L225.24,272.68L228.13,290.81L231.02,290.67L233.9,298.23L236.79,299.32L239.68,298.72L242.57,290.64L245.45,290.44L248.34,292.4L251.23,292.79L262.78,292.59L265.67,293.81L274.33,293.43L277.22,293.42L282.99,293.34L285.88,292.33L288.77,291.98L291.66,294.17L294.55,291.05L297.43,290.82L300.32,286.77L303.21,285.61L306.1,285.4L308.98,283.71L311.87,281.91L314.76,281.19L320.53,281.45L323.42,278.05L326.31,277.46L329.2,269.29L332.09,262.43L334.97,259.35L337.86,264.01L340.75,252.62L343.64,241.51L346.52,237.63L352.3,212.74L355.19,207.82L358.07,207.81L360.96,204.42L363.85,192.58L366.74,189.23L369.63,183.3L372.51,179.82L375.4,178.47L378.29,172.97L381.18,142.39L384.06,140L386.95,121.38L389.84,124.81L392.73,124.76L395.61,116.74L398.5,108.82L401.39,107.86L404.28,107.89L407.17,103.62L410.05,105.46L412.94,98.24L415.83,96.38L418.72,83.07L421.6,76.01L424.49,71.01L427.38,80.69L430.27,75.32L433.16,59.15L436.04,60.03L438.93,58.83L441.82,52.21L444.71,41.3L447.59,25.74L450.48,18.15L453.37,17.82L456.26,16L459.14,17.4L462.03,16.28L464.92,20.48L467.81,22.5L470.7,29.26L473.58,119.48L476.47,300.28L479.36,297L482.25,268L485.13,208.06L488.02,199.26L490.91,185.09L493.8,153.41L496.68,109.13L499.57,84.07L502.46,80.53L505.35,84.05L508.24,83.58L511.12,92.2L516.9,99.9L519.79,100.34L522.67,108.51L525.56,107.84L528.45,112.31L531.34,112.84L534.22,103.95L537.11,103.01L540,103.1" style="vector-effect: non-scaling-stroke; fill: none; stroke: rgb(99, 110, 250); stroke-opacity: 1; stroke-width: 2px; opacity: 1;"/></g><g class="points"/><g class="text"/></g></g></g><g class="overplot"/><path class="xlines-above crisp" d="M0,0" style="fill: none;"/><path class="ylines-above crisp" d="M0,0" style="fill: none;"/><g class="overlines-above"/><g class="xaxislayer-above"><g class="xtick"><text text-anchor="middle" x="0" y="433" transform="translate(91.55,0)" style="font-family: 'Open Sans', verdana, arial, sans-serif; font-size: 12px; fill: rgb(42, 63, 95); fill-opacity: 1; white-space: pre; opacity: 1;">Oct 2022</text></g><g class="xtick"><text text-anchor="middle" x="0" y="433" style="font-family: 'Open Sans', verdana, arial, sans-serif; font-size: 12px; fill: rgb(42, 63, 95); fill-opacity: 1; white-space: pre; opacity: 1;" transform="translate(181.07,0)">Nov 2022</text></g><g class="xtick"><text text-anchor="middle" x="0" y="433" style="font-family: 'Open Sans', verdana, arial, sans-serif; font-size: 12px; fill: rgb(42, 63, 95); fill-opacity: 1; white-space: pre; opacity: 1;" transform="translate(267.7,0)">Dec 2022</text></g><g class="xtick"><text text-anchor="middle" x="0" y="433" style="font-family: 'Open Sans', verdana, arial, sans-serif; font-size: 12px; fill: rgb(42, 63, 95); fill-opacity: 1; white-space: pre; opacity: 1;" transform="translate(357.22,0)">Jan 2023</text></g><g class="xtick"><text text-anchor="middle" x="0" y="433" style="font-family: 'Open Sans', verdana, arial, sans-serif; font-size: 12px; fill: rgb(42, 63, 95); fill-opacity: 1; white-space: pre; opacity: 1;" transform="translate(446.74,0)">Feb 2023</text></g><g class="xtick"><text text-anchor="middle" x="0" y="433" style="font-family: 'Open Sans', verdana, arial, sans-serif; font-size: 12px; fill: rgb(42, 63, 95); fill-opacity: 1; white-space: pre; opacity: 1;" transform="translate(527.5899999999999,0)">Mar 2023</text></g><g class="xtick"><text text-anchor="middle" x="0" y="433" style="font-family: 'Open Sans', verdana, arial, sans-serif; font-size: 12px; fill: rgb(42, 63, 95); fill-opacity: 1; white-space: pre; opacity: 1;" transform="translate(617.11,0)">Apr 2023</text></g></g><g class="yaxislayer-above"><g class="ytick"><text text-anchor="end" x="79" y="4.199999999999999" transform="translate(0,396.32)" style="font-family: 'Open Sans', verdana, arial, sans-serif; font-size: 12px; fill: rgb(42, 63, 95); fill-opacity: 1; white-space: pre; opacity: 1;">$0</text></g><g class="ytick"><text text-anchor="end" x="79" y="4.199999999999999" style="font-family: 'Open Sans', verdana, arial, sans-serif; font-size: 12px; fill: rgb(42, 63, 95); fill-opacity: 1; white-space: pre; opacity: 1;" transform="translate(0,348.72)">$5M</text></g><g class="ytick"><text text-anchor="end" x="79" y="4.199999999999999" style="font-family: 'Open Sans', verdana, arial, sans-serif; font-size: 12px; fill: rgb(42, 63, 95); fill-opacity: 1; white-space: pre; opacity: 1;" transform="translate(0,301.12)">$10M</text></g><g class="ytick"><text text-anchor="end" x="79" y="4.199999999999999" style="font-family: 'Open Sans', verdana, arial, sans-serif; font-size: 12px; fill: rgb(42, 63, 95); fill-opacity: 1; white-space: pre; opacity: 1;" transform="translate(0,253.52)">$15M</text></g><g class="ytick"><text text-anchor="end" x="79" y="4.199999999999999" style="font-family: 'Open Sans', verdana, arial, sans-serif; font-size: 12px; fill: rgb(42, 63, 95); fill-opacity: 1; white-space: pre; opacity: 1;" transform="translate(0,205.92000000000002)">$20M</text></g><g class="ytick"><text text-anchor="end" x="79" y="4.199999999999999" style="font-family: 'Open Sans', verdana, arial, sans-serif; font-size: 12px; fill: rgb(42, 63, 95); fill-opacity: 1; white-space: pre; opacity: 1;" transform="translate(0,158.32)">$25M</text></g><g class="ytick"><text text-anchor="end" x="79" y="4.199999999999999" style="font-family: 'Open Sans', verdana, arial, sans-serif; font-size: 12px; fill: rgb(42, 63, 95); fill-opacity: 1; white-space: pre; opacity: 1;" transform="translate(0,110.71000000000001)">$30M</text></g></g><g class="overaxes-above"/></g></g><g class="polarlayer"/><g class="smithlayer"/><g class="ternarylayer"/><g class="geolayer"/><g class="funnelarealayer"/><g class="pielayer"/><g class="iciclelayer"/><g class="treemaplayer"/><g class="sunburstlayer"/><g class="glimages"/><defs id="topdefs-47a768"><g class="clips"/></defs><g class="layer-above"><g class="imagelayer"/><g class="shapelayer"/></g><g class="infolayer"><g class="g-gtitle"><text class="gtitle" x="35" y="50" text-anchor="start" dy="0em" style="font-family: 'Open Sans', verdana, arial, sans-serif; font-size: 17px; fill: rgb(42, 63, 95); opacity: 1; font-weight: normal; white-space: pre;"><tspan class="line" dy="0em" x="35" y="50">Synthetix - USDC/sUSD: Velodrome</tspan><tspan class="line" dy="1.3em" x="35" y="50">​<tspan style="font-size:70%" dy="-0.6em">Cumulative Net Flows since Program Announcement, Until Program End + 30 Days - At Last Price</tspan><tspan dy="0.42em">​</tspan></tspan></text></g><g class="g-xtitle"><text class="xtitle" x="350" y="460.8" text-anchor="middle" style="font-family: 'Open Sans', verdana, arial, sans-serif; font-size: 14px; fill: rgb(42, 63, 95); opacity: 1; font-weight: normal; white-space: pre;">Day</text></g><g class="g-ytitle"><text class="ytitle" transform="rotate(-90,24.168750000000003,260)" x="24.168750000000003" y="260" text-anchor="middle" style="font-family: 'Open Sans', verdana, arial, sans-serif; font-size: 14px; fill: rgb(42, 63, 95); opacity: 1; font-weight: normal; white-space: pre;">Cumulative Net Flows (USD)</text></g></g></svg>