<svg class="main-svg" xmlns="http://www.w3.org/2000/svg" xmlns:xlink="http://www.w3.org/1999/xlink" width="700" height="500" style="" viewBox="0 0 700 500"><rect x="0" y="0" width="700" height="500" style="fill: rgb(255, 255, 255); fill-opacity: 1;"/><defs id="defs-d89121"><g class="clips"><clipPath id="clipd89121xyplot" class="plotclip"><rect width="540" height="320"/></clipPath><clipPath class="axesclip" id="clipd89121x"><rect x="80" y="0" width="540" height="500"/></clipPath><clipPath class="axesclip" id="clipd89121y"><rect x="0" y="100" width="700" height="320"/></clipPath><clipPath class="axesclip" id="clipd89121xy"><rect x="80" y="100" width="540" height="320"/></clipPath></g><g class="gradients"/><g class="patterns"/></defs><g class="bglayer"><rect class="bg" x="80" y="100" width="540" height="320" style="fill: rgb(229, 236, 246); fill-opacity: 1; stroke-width: 0;"/></g><g class="layer-below"><g class="imagelayer"/><g class="shapelayer"/></g><g class="cartesianlayer"><g class="subplot xy"><g class="layer-subplot"><g class="shapelayer"/><g class="imagelayer"/></g><g class="minor-gridlayer"><g class="x"/><g class="y"/></g><g class="gridlayer"><g class="x"><path class="xgrid crisp" transform="translate(135.23,0)" d="M0,100v320" style="stroke: rgb(255, 255, 255); stroke-opacity: 1; stroke-width: 1px;"/><path class="xgrid crisp" transform="translate(230.34,0)" d="M0,100v320" style="stroke: rgb(255, 255, 255); stroke-opacity: 1; stroke-width: 1px;"/><path class="xgrid crisp" transform="translate(322.39,0)" d="M0,100v320" style="stroke: rgb(255, 255, 255); stroke-opacity: 1; stroke-width: 1px;"/><path class="xgrid crisp" transform="translate(417.5,0)" d="M0,100v320" style="stroke: rgb(255, 255, 255); stroke-opacity: 1; stroke-width: 1px;"/><path class="xgrid crisp" transform="translate(509.55,0)" d="M0,100v320" style="stroke: rgb(255, 255, 255); stroke-opacity: 1; stroke-width: 1px;"/><path class="xgrid crisp" transform="translate(604.66,0)" d="M0,100v320" style="stroke: rgb(255, 255, 255); stroke-opacity: 1; stroke-width: 1px;"/></g><g class="y"><path class="ygrid crisp" transform="translate(0,373.82)" d="M80,0h540" style="stroke: rgb(255, 255, 255); stroke-opacity: 1; stroke-width: 1px;"/><path class="ygrid crisp" transform="translate(0,322.35)" d="M80,0h540" style="stroke: rgb(255, 255, 255); stroke-opacity: 1; stroke-width: 1px;"/><path class="ygrid crisp" transform="translate(0,270.89)" d="M80,0h540" style="stroke: rgb(255, 255, 255); stroke-opacity: 1; stroke-width: 1px;"/><path class="ygrid crisp" transform="translate(0,219.42000000000002)" d="M80,0h540" style="stroke: rgb(255, 255, 255); stroke-opacity: 1; stroke-width: 1px;"/><path class="ygrid crisp" transform="translate(0,167.95)" d="M80,0h540" style="stroke: rgb(255, 255, 255); stroke-opacity: 1; stroke-width: 1px;"/></g></g><g class="zerolinelayer"><path class="yzl zl crisp" transform="translate(0,116.48)" d="M80,0h540" style="stroke: rgb(255, 255, 255); stroke-opacity: 1; stroke-width: 2px;"/></g><path class="xlines-below"/><path class="ylines-below"/><g class="overlines-below"/><g class="xaxislayer-below"/><g class="yaxislayer-below"/><g class="overaxes-below"/><g class="plot" transform="translate(80,100)" clip-path="url(#clipd89121xyplot)"><g class="scatterlayer mlayer"><g class="trace scatter trace4c5809" style="stroke-miterlimit: 2;"><g class="fills"><g><path class="js-fill" d="M540,16.48L0,16.48L0,17.7L6.14,16.72L9.2,16.07L12.27,16L15.34,83.04L18.41,78.1L21.48,76.93L24.55,79.6L27.61,80.8L30.68,77.41L33.75,77.53L36.82,77.37L39.89,80.87L46.02,80.3L49.09,80.12L52.16,80.22L55.23,81.25L58.3,81.31L61.36,83.49L64.43,75.95L67.5,73.66L70.57,71.81L73.64,74.36L76.7,76.67L79.77,74.43L82.84,75.98L85.91,75.34L88.98,73.39L92.05,69.1L95.11,69.41L98.18,68.6L101.25,67.92L104.32,68.02L107.39,65.77L110.45,65.19L113.52,64.78L116.59,65.76L122.73,66.21L125.8,70.2L128.86,70.38L131.93,73.59L135,74.58L138.07,72.68L141.14,72.53L144.2,78.49L147.27,78.82L150.34,80.33L156.48,81.76L159.55,81.71L168.75,81.39L171.82,80.98L174.89,75.82L177.95,76.02L184.09,76.18L187.16,73.84L190.23,73.92L193.3,79.11L202.5,77.54L205.57,77.9L211.7,76.89L214.77,76.46L217.84,72.06L220.91,72.64L239.32,71.81L242.39,69.96L248.52,69.83L251.59,69.16L266.93,69.13L270,69.14L282.27,68.24L285.34,67.41L294.55,67.49L297.61,65.1L300.68,65.06L303.75,66.06L309.89,66.37L312.95,66.98L319.09,69.55L322.16,70.1L328.3,72.48L331.36,73.02L334.43,73.05L337.5,75.06L340.57,74.22L343.64,74.7L346.7,79.24L349.77,78.97L355.91,78.92L358.98,78.12L362.05,80.82L365.11,80.91L368.18,90.93L371.25,92.39L374.32,94.94L377.39,95.87L383.52,102.18L386.59,101.99L389.66,122.19L392.73,126.09L398.86,125.1L401.93,125.7L405,124.64L408.07,127.44L417.27,127.15L420.34,125.48L423.41,129.16L426.48,129.17L429.55,131.77L432.61,132.2L435.68,135L438.75,128.83L441.82,128.62L444.89,130.85L447.95,130.18L451.02,128.52L454.09,128.36L457.16,131.04L466.36,130.75L469.43,130.25L472.5,132.28L475.57,132.11L478.64,129.93L481.7,128.81L490.91,128.7L493.98,127.74L497.05,128.43L500.11,127.65L509.32,127.49L512.39,127.25L518.52,126.04L521.59,126.12L527.73,126.07L530.8,126.04L536.93,125.4L540,127.79L540,304" style="fill: rgb(99, 110, 250); fill-opacity: 0.5; stroke-width: 0;"/></g></g><g class="errorbars"/><g class="lines"><path class="js-line" d="M0,17.7L6.14,16.72L9.2,16.07L12.27,16L15.34,83.04L18.41,78.1L21.48,76.93L24.55,79.6L27.61,80.8L30.68,77.41L33.75,77.53L36.82,77.37L39.89,80.87L46.02,80.3L49.09,80.12L52.16,80.22L55.23,81.25L58.3,81.31L61.36,83.49L64.43,75.95L67.5,73.66L70.57,71.81L73.64,74.36L76.7,76.67L79.77,74.43L82.84,75.98L85.91,75.34L88.98,73.39L92.05,69.1L95.11,69.41L98.18,68.6L101.25,67.92L104.32,68.02L107.39,65.77L110.45,65.19L113.52,64.78L116.59,65.76L122.73,66.21L125.8,70.2L128.86,70.38L131.93,73.59L135,74.58L138.07,72.68L141.14,72.53L144.2,78.49L147.27,78.82L150.34,80.33L156.48,81.76L159.55,81.71L168.75,81.39L171.82,80.98L174.89,75.82L177.95,76.02L184.09,76.18L187.16,73.84L190.23,73.92L193.3,79.11L202.5,77.54L205.57,77.9L211.7,76.89L214.77,76.46L217.84,72.06L220.91,72.64L239.32,71.81L242.39,69.96L248.52,69.83L251.59,69.16L266.93,69.13L270,69.14L282.27,68.24L285.34,67.41L294.55,67.49L297.61,65.1L300.68,65.06L303.75,66.06L309.89,66.37L312.95,66.98L319.09,69.55L322.16,70.1L328.3,72.48L331.36,73.02L334.43,73.05L337.5,75.06L340.57,74.22L343.64,74.7L346.7,79.24L349.77,78.97L355.91,78.92L358.98,78.12L362.05,80.82L365.11,80.91L368.18,90.93L371.25,92.39L374.32,94.94L377.39,95.87L383.52,102.18L386.59,101.99L389.66,122.19L392.73,126.09L398.86,125.1L401.93,125.7L405,124.64L408.07,127.44L417.27,127.15L420.34,125.48L423.41,129.16L426.48,129.17L429.55,131.77L432.61,132.2L435.68,135L438.75,128.83L441.82,128.62L444.89,130.85L447.95,130.18L451.02,128.52L454.09,128.36L457.16,131.04L466.36,130.75L469.43,130.25L472.5,132.28L475.57,132.11L478.64,129.93L481.7,128.81L490.91,128.7L493.98,127.74L497.05,128.43L500.11,127.65L509.32,127.49L512.39,127.25L518.52,126.04L521.59,126.12L527.73,126.07L530.8,126.04L536.93,125.4L540,127.79L540,304" style="vector-effect: non-scaling-stroke; fill: none; stroke: rgb(99, 110, 250); stroke-opacity: 1; stroke-width: 2px; opacity: 1;"/></g><g class="points"/><g class="text"/></g></g></g><g class="overplot"/><path class="xlines-above crisp" d="M0,0" style="fill: none;"/><path class="ylines-above crisp" d="M0,0" style="fill: none;"/><g class="overlines-above"/><g class="xaxislayer-above"><g class="xtick"><text text-anchor="middle" x="0" y="433" transform="translate(135.23,0)" style="font-family: 'Open Sans', verdana, arial, sans-serif; font-size: 12px; fill: rgb(42, 63, 95); fill-opacity: 1; white-space: pre; opacity: 1;">Aug 2022</text></g><g class="xtick"><text text-anchor="middle" x="0" y="433" style="font-family: 'Open Sans', verdana, arial, sans-serif; font-size: 12px; fill: rgb(42, 63, 95); fill-opacity: 1; white-space: pre; opacity: 1;" transform="translate(230.34,0)">Sep 2022</text></g><g class="xtick"><text text-anchor="middle" x="0" y="433" style="font-family: 'Open Sans', verdana, arial, sans-serif; font-size: 12px; fill: rgb(42, 63, 95); fill-opacity: 1; white-space: pre; opacity: 1;" transform="translate(322.39,0)">Oct 2022</text></g><g class="xtick"><text text-anchor="middle" x="0" y="433" style="font-family: 'Open Sans', verdana, arial, sans-serif; font-size: 12px; fill: rgb(42, 63, 95); fill-opacity: 1; white-space: pre; opacity: 1;" transform="translate(417.5,0)">Nov 2022</text></g><g class="xtick"><text text-anchor="middle" x="0" y="433" style="font-family: 'Open Sans', verdana, arial, sans-serif; font-size: 12px; fill: rgb(42, 63, 95); fill-opacity: 1; white-space: pre; opacity: 1;" transform="translate(509.55,0)">Dec 2022</text></g><g class="xtick"><text text-anchor="middle" x="0" y="433" style="font-family: 'Open Sans', verdana, arial, sans-serif; font-size: 12px; fill: rgb(42, 63, 95); fill-opacity: 1; white-space: pre; opacity: 1;" transform="translate(604.66,0)">Jan 2023</text></g></g><g class="yaxislayer-above"><g class="ytick"><text text-anchor="end" x="79" y="4.199999999999999" transform="translate(0,373.82)" style="font-family: 'Open Sans', verdana, arial, sans-serif; font-size: 12px; fill: rgb(42, 63, 95); fill-opacity: 1; white-space: pre; opacity: 1;">$−25M</text></g><g class="ytick"><text text-anchor="end" x="79" y="4.199999999999999" style="font-family: 'Open Sans', verdana, arial, sans-serif; font-size: 12px; fill: rgb(42, 63, 95); fill-opacity: 1; white-space: pre; opacity: 1;" transform="translate(0,322.35)">$−20M</text></g><g class="ytick"><text text-anchor="end" x="79" y="4.199999999999999" style="font-family: 'Open Sans', verdana, arial, sans-serif; font-size: 12px; fill: rgb(42, 63, 95); fill-opacity: 1; white-space: pre; opacity: 1;" transform="translate(0,270.89)">$−15M</text></g><g class="ytick"><text text-anchor="end" x="79" y="4.199999999999999" style="font-family: 'Open Sans', verdana, arial, sans-serif; font-size: 12px; fill: rgb(42, 63, 95); fill-opacity: 1; white-space: pre; opacity: 1;" transform="translate(0,219.42000000000002)">$−10M</text></g><g class="ytick"><text text-anchor="end" x="79" y="4.199999999999999" style="font-family: 'Open Sans', verdana, arial, sans-serif; font-size: 12px; fill: rgb(42, 63, 95); fill-opacity: 1; white-space: pre; opacity: 1;" transform="translate(0,167.95)">$−5M</text></g><g class="ytick"><text text-anchor="end" x="79" y="4.199999999999999" style="font-family: 'Open Sans', verdana, arial, sans-serif; font-size: 12px; fill: rgb(42, 63, 95); fill-opacity: 1; white-space: pre; opacity: 1;" transform="translate(0,116.48)">$0</text></g></g><g class="overaxes-above"/></g></g><g class="polarlayer"/><g class="smithlayer"/><g class="ternarylayer"/><g class="geolayer"/><g class="funnelarealayer"/><g class="pielayer"/><g class="iciclelayer"/><g class="treemaplayer"/><g class="sunburstlayer"/><g class="glimages"/><defs id="topdefs-d89121"><g class="clips"/></defs><g class="layer-above"><g class="imagelayer"/><g class="shapelayer"/></g><g class="infolayer"><g class="g-gtitle"><text class="gtitle" x="35" y="50" text-anchor="start" dy="0em" style="font-family: 'Open Sans', verdana, arial, sans-serif; font-size: 17px; fill: rgb(42, 63, 95); opacity: 1; font-weight: normal; white-space: pre;"><tspan class="line" dy="0em" x="35" y="50">Perpetual Protocol</tspan><tspan class="line" dy="1.3em" x="35" y="50">​<tspan style="font-size:70%" dy="-0.6em">Cumulative Net Dollar Flow since Program Announcement, Until Program End + 30 Days - At Last Price</tspan><tspan dy="0.42em">​</tspan></tspan></text></g><g class="g-xtitle"><text class="xtitle" x="350" y="460.8" text-anchor="middle" style="font-family: 'Open Sans', verdana, arial, sans-serif; font-size: 14px; fill: rgb(42, 63, 95); opacity: 1; font-weight: normal; white-space: pre;">Day</text></g><g class="g-ytitle"><text class="ytitle" transform="rotate(-90,17.168750000000003,260)" x="17.168750000000003" y="260" text-anchor="middle" style="font-family: 'Open Sans', verdana, arial, sans-serif; font-size: 14px; fill: rgb(42, 63, 95); opacity: 1; font-weight: normal; white-space: pre;">Cumulative Net Dollar Flow (N$F)</text></g></g></svg>