<svg class="main-svg" xmlns="http://www.w3.org/2000/svg" xmlns:xlink="http://www.w3.org/1999/xlink" width="700" height="500" style="" viewBox="0 0 700 500"><rect x="0" y="0" width="700" height="500" style="fill: rgb(255, 255, 255); fill-opacity: 1;"/><defs id="defs-868153"><g class="clips"><clipPath id="clip868153xyplot" class="plotclip"><rect width="540" height="320"/></clipPath><clipPath class="axesclip" id="clip868153x"><rect x="80" y="0" width="540" height="500"/></clipPath><clipPath class="axesclip" id="clip868153y"><rect x="0" y="100" width="700" height="320"/></clipPath><clipPath class="axesclip" id="clip868153xy"><rect x="80" y="100" width="540" height="320"/></clipPath></g><g class="gradients"/><g class="patterns"/></defs><g class="bglayer"><rect class="bg" x="80" y="100" width="540" height="320" style="fill: rgb(229, 236, 246); fill-opacity: 1; stroke-width: 0;"/></g><g class="layer-below"><g class="imagelayer"/><g class="shapelayer"/></g><g class="cartesianlayer"><g class="subplot xy"><g class="layer-subplot"><g class="shapelayer"/><g class="imagelayer"/></g><g class="minor-gridlayer"><g class="x"/><g class="y"/></g><g class="gridlayer"><g class="x"><path class="xgrid crisp" transform="translate(169.5,0)" d="M0,100v320" style="stroke: rgb(255, 255, 255); stroke-opacity: 1; stroke-width: 1px;"/><path class="xgrid crisp" transform="translate(259.01,0)" d="M0,100v320" style="stroke: rgb(255, 255, 255); stroke-opacity: 1; stroke-width: 1px;"/><path class="xgrid crisp" transform="translate(351.49,0)" d="M0,100v320" style="stroke: rgb(255, 255, 255); stroke-opacity: 1; stroke-width: 1px;"/><path class="xgrid crisp" transform="translate(440.99,0)" d="M0,100v320" style="stroke: rgb(255, 255, 255); stroke-opacity: 1; stroke-width: 1px;"/><path class="xgrid crisp" transform="translate(533.48,0)" d="M0,100v320" style="stroke: rgb(255, 255, 255); stroke-opacity: 1; stroke-width: 1px;"/></g><g class="y"><path class="ygrid crisp" transform="translate(0,383.21)" d="M80,0h540" style="stroke: rgb(255, 255, 255); stroke-opacity: 1; stroke-width: 1px;"/><path class="ygrid crisp" transform="translate(0,255.41)" d="M80,0h540" style="stroke: rgb(255, 255, 255); stroke-opacity: 1; stroke-width: 1px;"/><path class="ygrid crisp" transform="translate(0,191.51)" d="M80,0h540" style="stroke: rgb(255, 255, 255); stroke-opacity: 1; stroke-width: 1px;"/><path class="ygrid crisp" transform="translate(0,127.61)" d="M80,0h540" style="stroke: rgb(255, 255, 255); stroke-opacity: 1; stroke-width: 1px;"/></g></g><g class="zerolinelayer"><path class="yzl zl crisp" transform="translate(0,319.31)" d="M80,0h540" style="stroke: rgb(255, 255, 255); stroke-opacity: 1; stroke-width: 2px;"/></g><path class="xlines-below"/><path class="ylines-below"/><g class="overlines-below"/><g class="xaxislayer-below"/><g class="yaxislayer-below"/><g class="overaxes-below"/><g class="plot" transform="translate(80,100)" clip-path="url(#clip868153xyplot)"><g class="scatterlayer mlayer"><g class="trace scatter tracea8c05d" style="stroke-miterlimit: 2;"><g class="fills"><g><path class="js-fill" d="M540,219.31L0,219.31L0,219.05L2.98,195.73L5.97,140.09L8.95,116.39L11.93,110.62L14.92,101.58L17.9,86.78L20.88,79.15L23.87,42.7L29.83,39.26L32.82,28.11L35.8,24.11L38.78,23.01L41.77,17.43L44.75,32.68L47.73,16L50.72,16.37L53.7,16.89L56.69,25.12L62.65,29.17L65.64,30.34L68.62,36.33L71.6,37.21L74.59,33.02L77.57,32.7L80.55,33.75L83.54,36.74L86.52,37.41L89.5,35.65L92.49,35.82L95.47,44.98L101.44,44.91L104.42,46.24L107.4,47.58L110.39,51.62L113.37,52.27L116.35,59.94L119.34,65.79L122.32,69.36L125.3,74.37L128.29,81.35L131.27,84.6L134.25,78.46L137.24,48.88L140.22,47.83L143.2,39.55L146.19,41.8L149.17,40.39L152.15,40.08L155.14,46.69L158.12,32.32L161.1,30.15L164.09,24.36L167.07,23.65L170.06,25.07L173.04,28.1L176.02,27.33L181.99,23.26L184.97,23.37L187.96,23.01L190.94,26.97L196.91,30.78L199.89,28.01L202.87,26.59L205.86,32.68L208.84,36.28L211.82,35.2L214.81,34.39L217.79,36.33L220.77,35.45L223.76,32.42L226.74,53.57L229.72,58.95L235.69,60.87L238.67,61.51L241.66,85.29L244.64,83.58L250.61,91.83L253.59,109.67L256.57,126.67L259.56,121.97L262.54,104.64L265.52,105.24L268.51,108.75L271.49,108.09L277.46,111.06L280.44,106.39L283.43,108.25L286.41,105.36L289.39,105.2L292.38,101.86L295.36,103.5L298.34,109.85L301.33,109.72L304.31,103.06L307.29,106.44L310.28,105.6L313.26,124.3L316.24,125.41L322.21,125.19L325.19,118.24L334.14,110.31L337.13,108.97L340.11,117.11L343.09,121.19L346.08,121.38L349.06,123.02L352.04,123.47L355.03,118.97L360.99,130.49L363.98,130.02L366.96,123.34L369.94,122L372.93,124.44L375.91,122.1L378.9,121.58L381.88,119.92L384.86,121.85L387.85,128.3L390.83,127.81L393.81,128.49L396.8,129.71L399.78,132.76L405.75,126.99L408.73,128.09L411.71,126.19L414.7,125.99L417.68,124.24L420.66,133.1L423.65,135.27L426.63,135.96L432.6,137.07L435.58,136.22L438.56,135L441.55,136.74L447.51,136.38L450.5,142.52L453.48,142.68L456.46,140.85L462.43,142.04L465.41,144.91L468.4,145.75L471.38,143.84L480.33,147.28L483.31,149.69L486.3,150.67L489.28,133.38L492.27,133.48L495.25,135.27L498.23,133.52L501.22,132.9L510.17,126.31L513.15,130.34L516.13,128.05L519.12,127.43L522.1,121.79L525.08,120.02L528.07,122.18L531.05,113.88L534.03,118.59L537.02,115.01L540,118.87L540,304" style="fill: rgb(99, 110, 250); fill-opacity: 0.5; stroke-width: 0;"/></g></g><g class="errorbars"/><g class="lines"><path class="js-line" d="M0,219.05L2.98,195.73L5.97,140.09L8.95,116.39L11.93,110.62L14.92,101.58L17.9,86.78L20.88,79.15L23.87,42.7L29.83,39.26L32.82,28.11L35.8,24.11L38.78,23.01L41.77,17.43L44.75,32.68L47.73,16L50.72,16.37L53.7,16.89L56.69,25.12L62.65,29.17L65.64,30.34L68.62,36.33L71.6,37.21L74.59,33.02L77.57,32.7L80.55,33.75L83.54,36.74L86.52,37.41L89.5,35.65L92.49,35.82L95.47,44.98L101.44,44.91L104.42,46.24L107.4,47.58L110.39,51.62L113.37,52.27L116.35,59.94L119.34,65.79L122.32,69.36L125.3,74.37L128.29,81.35L131.27,84.6L134.25,78.46L137.24,48.88L140.22,47.83L143.2,39.55L146.19,41.8L149.17,40.39L152.15,40.08L155.14,46.69L158.12,32.32L161.1,30.15L164.09,24.36L167.07,23.65L170.06,25.07L173.04,28.1L176.02,27.33L181.99,23.26L184.97,23.37L187.96,23.01L190.94,26.97L196.91,30.78L199.89,28.01L202.87,26.59L205.86,32.68L208.84,36.28L211.82,35.2L214.81,34.39L217.79,36.33L220.77,35.45L223.76,32.42L226.74,53.57L229.72,58.95L235.69,60.87L238.67,61.51L241.66,85.29L244.64,83.58L250.61,91.83L253.59,109.67L256.57,126.67L259.56,121.97L262.54,104.64L265.52,105.24L268.51,108.75L271.49,108.09L277.46,111.06L280.44,106.39L283.43,108.25L286.41,105.36L289.39,105.2L292.38,101.86L295.36,103.5L298.34,109.85L301.33,109.72L304.31,103.06L307.29,106.44L310.28,105.6L313.26,124.3L316.24,125.41L322.21,125.19L325.19,118.24L334.14,110.31L337.13,108.97L340.11,117.11L343.09,121.19L346.08,121.38L349.06,123.02L352.04,123.47L355.03,118.97L360.99,130.49L363.98,130.02L366.96,123.34L369.94,122L372.93,124.44L375.91,122.1L378.9,121.58L381.88,119.92L384.86,121.85L387.85,128.3L390.83,127.81L393.81,128.49L396.8,129.71L399.78,132.76L405.75,126.99L408.73,128.09L411.71,126.19L414.7,125.99L417.68,124.24L420.66,133.1L423.65,135.27L426.63,135.96L432.6,137.07L435.58,136.22L438.56,135L441.55,136.74L447.51,136.38L450.5,142.52L453.48,142.68L456.46,140.85L462.43,142.04L465.41,144.91L468.4,145.75L471.38,143.84L480.33,147.28L483.31,149.69L486.3,150.67L489.28,133.38L492.27,133.48L495.25,135.27L498.23,133.52L501.22,132.9L510.17,126.31L513.15,130.34L516.13,128.05L519.12,127.43L522.1,121.79L525.08,120.02L528.07,122.18L531.05,113.88L534.03,118.59L537.02,115.01L540,118.87L540,304" style="vector-effect: non-scaling-stroke; fill: none; stroke: rgb(99, 110, 250); stroke-opacity: 1; stroke-width: 2px; opacity: 1;"/></g><g class="points"/><g class="text"/></g></g></g><g class="overplot"/><path class="xlines-above crisp" d="M0,0" style="fill: none;"/><path class="ylines-above crisp" d="M0,0" style="fill: none;"/><g class="overlines-above"/><g class="xaxislayer-above"><g class="xtick"><text text-anchor="middle" x="0" y="433" transform="translate(169.5,0)" style="font-family: 'Open Sans', verdana, arial, sans-serif; font-size: 12px; fill: rgb(42, 63, 95); fill-opacity: 1; white-space: pre; opacity: 1;">Sep 2022</text></g><g class="xtick"><text text-anchor="middle" x="0" y="433" style="font-family: 'Open Sans', verdana, arial, sans-serif; font-size: 12px; fill: rgb(42, 63, 95); fill-opacity: 1; white-space: pre; opacity: 1;" transform="translate(259.01,0)">Oct 2022</text></g><g class="xtick"><text text-anchor="middle" x="0" y="433" style="font-family: 'Open Sans', verdana, arial, sans-serif; font-size: 12px; fill: rgb(42, 63, 95); fill-opacity: 1; white-space: pre; opacity: 1;" transform="translate(351.49,0)">Nov 2022</text></g><g class="xtick"><text text-anchor="middle" x="0" y="433" style="font-family: 'Open Sans', verdana, arial, sans-serif; font-size: 12px; fill: rgb(42, 63, 95); fill-opacity: 1; white-space: pre; opacity: 1;" transform="translate(440.99,0)">Dec 2022</text></g><g class="xtick"><text text-anchor="middle" x="0" y="433" style="font-family: 'Open Sans', verdana, arial, sans-serif; font-size: 12px; fill: rgb(42, 63, 95); fill-opacity: 1; white-space: pre; opacity: 1;" transform="translate(533.48,0)">Jan 2023</text></g></g><g class="yaxislayer-above"><g class="ytick"><text text-anchor="end" x="79" y="4.199999999999999" transform="translate(0,383.21)" style="font-family: 'Open Sans', verdana, arial, sans-serif; font-size: 12px; fill: rgb(42, 63, 95); fill-opacity: 1; white-space: pre; opacity: 1;">$−5M</text></g><g class="ytick"><text text-anchor="end" x="79" y="4.199999999999999" style="font-family: 'Open Sans', verdana, arial, sans-serif; font-size: 12px; fill: rgb(42, 63, 95); fill-opacity: 1; white-space: pre; opacity: 1;" transform="translate(0,319.31)">$0</text></g><g class="ytick"><text text-anchor="end" x="79" y="4.199999999999999" style="font-family: 'Open Sans', verdana, arial, sans-serif; font-size: 12px; fill: rgb(42, 63, 95); fill-opacity: 1; white-space: pre; opacity: 1;" transform="translate(0,255.41)">$5M</text></g><g class="ytick"><text text-anchor="end" x="79" y="4.199999999999999" style="font-family: 'Open Sans', verdana, arial, sans-serif; font-size: 12px; fill: rgb(42, 63, 95); fill-opacity: 1; white-space: pre; opacity: 1;" transform="translate(0,191.51)">$10M</text></g><g class="ytick"><text text-anchor="end" x="79" y="4.199999999999999" style="font-family: 'Open Sans', verdana, arial, sans-serif; font-size: 12px; fill: rgb(42, 63, 95); fill-opacity: 1; white-space: pre; opacity: 1;" transform="translate(0,127.61)">$15M</text></g></g><g class="overaxes-above"/></g></g><g class="polarlayer"/><g class="smithlayer"/><g class="ternarylayer"/><g class="geolayer"/><g class="funnelarealayer"/><g class="pielayer"/><g class="iciclelayer"/><g class="treemaplayer"/><g class="sunburstlayer"/><g class="glimages"/><defs id="topdefs-868153"><g class="clips"/></defs><g class="layer-above"><g class="imagelayer"/><g class="shapelayer"/></g><g class="infolayer"><g class="g-gtitle"><text class="gtitle" x="35" y="50" text-anchor="start" dy="0em" style="font-family: 'Open Sans', verdana, arial, sans-serif; font-size: 17px; fill: rgb(42, 63, 95); opacity: 1; font-weight: normal; white-space: pre;"><tspan class="line" dy="0em" x="35" y="50">Lyra</tspan><tspan class="line" dy="1.3em" x="35" y="50">​<tspan style="font-size:70%" dy="-0.6em">Cumulative Net Dollar Flow since Program Announcement, Until Program End + 30 Days - At Last Price</tspan><tspan dy="0.42em">​</tspan></tspan></text></g><g class="g-xtitle"><text class="xtitle" x="350" y="460.8" text-anchor="middle" style="font-family: 'Open Sans', verdana, arial, sans-serif; font-size: 14px; fill: rgb(42, 63, 95); opacity: 1; font-weight: normal; white-space: pre;">Day</text></g><g class="g-ytitle"><text class="ytitle" transform="rotate(-90,23.840625000000003,260)" x="23.840625000000003" y="260" text-anchor="middle" style="font-family: 'Open Sans', verdana, arial, sans-serif; font-size: 14px; fill: rgb(42, 63, 95); opacity: 1; font-weight: normal; white-space: pre;">Cumulative Net Dollar Flow (N$F)</text></g></g></svg>