<svg class="main-svg" xmlns="http://www.w3.org/2000/svg" xmlns:xlink="http://www.w3.org/1999/xlink" width="700" height="500" style="" viewBox="0 0 700 500"><rect x="0" y="0" width="700" height="500" style="fill: rgb(255, 255, 255); fill-opacity: 1;"/><defs id="defs-6592fc"><g class="clips"><clipPath id="clip6592fcxyplot" class="plotclip"><rect width="540" height="320"/></clipPath><clipPath class="axesclip" id="clip6592fcx"><rect x="80" y="0" width="540" height="500"/></clipPath><clipPath class="axesclip" id="clip6592fcy"><rect x="0" y="100" width="700" height="320"/></clipPath><clipPath class="axesclip" id="clip6592fcxy"><rect x="80" y="100" width="540" height="320"/></clipPath></g><g class="gradients"/><g class="patterns"/></defs><g class="bglayer"><rect class="bg" x="80" y="100" width="540" height="320" style="fill: rgb(229, 236, 246); fill-opacity: 1; stroke-width: 0;"/></g><g class="layer-below"><g class="imagelayer"/><g class="shapelayer"/></g><g class="cartesianlayer"><g class="subplot xy"><g class="layer-subplot"><g class="shapelayer"/><g class="imagelayer"/></g><g class="minor-gridlayer"><g class="x"/><g class="y"/></g><g class="gridlayer"><g class="x"><path class="xgrid crisp" transform="translate(174.19,0)" d="M0,100v320" style="stroke: rgb(255, 255, 255); stroke-opacity: 1; stroke-width: 1px;"/><path class="xgrid crisp" transform="translate(268.37,0)" d="M0,100v320" style="stroke: rgb(255, 255, 255); stroke-opacity: 1; stroke-width: 1px;"/><path class="xgrid crisp" transform="translate(365.7,0)" d="M0,100v320" style="stroke: rgb(255, 255, 255); stroke-opacity: 1; stroke-width: 1px;"/><path class="xgrid crisp" transform="translate(459.88,0)" d="M0,100v320" style="stroke: rgb(255, 255, 255); stroke-opacity: 1; stroke-width: 1px;"/><path class="xgrid crisp" transform="translate(557.21,0)" d="M0,100v320" style="stroke: rgb(255, 255, 255); stroke-opacity: 1; stroke-width: 1px;"/></g><g class="y"><path class="ygrid crisp" transform="translate(0,383.12)" d="M80,0h540" style="stroke: rgb(255, 255, 255); stroke-opacity: 1; stroke-width: 1px;"/><path class="ygrid crisp" transform="translate(0,255.36)" d="M80,0h540" style="stroke: rgb(255, 255, 255); stroke-opacity: 1; stroke-width: 1px;"/><path class="ygrid crisp" transform="translate(0,191.48000000000002)" d="M80,0h540" style="stroke: rgb(255, 255, 255); stroke-opacity: 1; stroke-width: 1px;"/><path class="ygrid crisp" transform="translate(0,127.61)" d="M80,0h540" style="stroke: rgb(255, 255, 255); stroke-opacity: 1; stroke-width: 1px;"/></g></g><g class="zerolinelayer"><path class="yzl zl crisp" transform="translate(0,319.24)" d="M80,0h540" style="stroke: rgb(255, 255, 255); stroke-opacity: 1; stroke-width: 2px;"/></g><path class="xlines-below"/><path class="ylines-below"/><g class="overlines-below"/><g class="xaxislayer-below"/><g class="yaxislayer-below"/><g class="overaxes-below"/><g class="plot" transform="translate(80,100)" clip-path="url(#clip6592fcxyplot)"><g class="scatterlayer mlayer"><g class="trace scatter trace92e0da" style="stroke-miterlimit: 2;"><g class="fills"><g><path class="js-fill" d="M540,219.24L0,219.24L0,218.98L3.14,195.66L6.28,140.05L9.42,116.36L12.56,110.59L15.7,101.55L18.84,86.75L21.98,79.13L25.12,42.69L28.26,40.51L31.4,39.26L34.53,28.11L37.67,24.1L40.81,23.01L43.95,17.43L47.09,32.67L50.23,16L56.51,16.89L59.65,25.12L65.93,29.16L69.07,30.34L72.21,36.32L75.35,37.21L78.49,33.01L81.63,32.69L84.77,33.74L87.91,36.73L91.05,37.41L94.19,35.64L97.33,35.82L100.47,44.97L106.74,44.9L109.88,46.23L113.02,47.57L116.16,51.61L119.3,52.26L122.44,59.93L125.58,65.78L128.72,69.34L131.86,74.35L135,81.33L138.14,84.58L141.28,78.44L144.42,48.87L147.56,47.82L150.7,39.54L153.84,41.79L156.98,40.38L160.12,40.07L163.26,46.68L166.4,32.31L169.53,30.15L172.67,24.36L175.81,23.64L178.95,25.07L182.09,28.1L185.23,27.33L191.51,23.26L194.65,23.37L197.79,23.01L200.93,26.96L207.21,30.77L210.35,28.01L213.49,26.59L216.63,32.67L219.77,36.27L222.91,35.2L226.05,34.38L229.19,36.32L232.33,35.44L235.47,32.42L238.6,53.56L241.74,58.94L248.02,60.86L251.16,61.5L254.3,85.27L257.44,83.56L263.72,91.81L266.86,109.64L270,126.63L273.14,121.93L276.28,104.61L279.42,105.21L282.56,108.72L285.7,108.06L291.98,111.02L295.12,106.36L298.26,108.22L301.4,105.32L304.53,105.17L307.67,101.83L310.81,103.47L313.95,109.81L317.09,109.69L320.23,103.03L323.37,106.41L326.51,105.57L329.65,124.27L332.79,125.37L339.07,125.15L342.21,118.2L351.63,110.28L354.77,108.94L357.91,117.08L361.05,121.16L364.19,121.35L367.33,122.99L370.47,123.43L373.6,118.94L379.88,130.45L383.02,129.98L386.16,123.31L389.3,121.96L392.44,124.41L395.58,122.06L398.72,121.55L401.86,119.88L405,121.82L408.14,128.27L411.28,127.77L414.42,128.46L417.56,129.68L420.7,132.72L426.98,126.95L430.12,128.05L433.26,126.15L436.4,125.95L439.53,124.21L442.67,133.06L445.81,135.23L448.95,135.92L455.23,137.03L458.37,136.17L461.51,134.96L464.65,136.7L470.93,136.34L474.07,142.47L477.21,142.64L480.35,140.81L486.63,142L489.77,144.86L492.91,145.71L496.05,143.79L505.47,147.24L508.6,149.64L511.74,150.62L514.88,133.34L518.02,133.44L521.16,135.23L524.3,133.48L527.44,132.86L536.86,126.27L540,130.36L540,304" style="fill: rgb(99, 110, 250); fill-opacity: 0.5; stroke-width: 0;"/></g></g><g class="errorbars"/><g class="lines"><path class="js-line" d="M0,218.98L3.14,195.66L6.28,140.05L9.42,116.36L12.56,110.59L15.7,101.55L18.84,86.75L21.98,79.13L25.12,42.69L28.26,40.51L31.4,39.26L34.53,28.11L37.67,24.1L40.81,23.01L43.95,17.43L47.09,32.67L50.23,16L56.51,16.89L59.65,25.12L65.93,29.16L69.07,30.34L72.21,36.32L75.35,37.21L78.49,33.01L81.63,32.69L84.77,33.74L87.91,36.73L91.05,37.41L94.19,35.64L97.33,35.82L100.47,44.97L106.74,44.9L109.88,46.23L113.02,47.57L116.16,51.61L119.3,52.26L122.44,59.93L125.58,65.78L128.72,69.34L131.86,74.35L135,81.33L138.14,84.58L141.28,78.44L144.42,48.87L147.56,47.82L150.7,39.54L153.84,41.79L156.98,40.38L160.12,40.07L163.26,46.68L166.4,32.31L169.53,30.15L172.67,24.36L175.81,23.64L178.95,25.07L182.09,28.1L185.23,27.33L191.51,23.26L194.65,23.37L197.79,23.01L200.93,26.96L207.21,30.77L210.35,28.01L213.49,26.59L216.63,32.67L219.77,36.27L222.91,35.2L226.05,34.38L229.19,36.32L232.33,35.44L235.47,32.42L238.6,53.56L241.74,58.94L248.02,60.86L251.16,61.5L254.3,85.27L257.44,83.56L263.72,91.81L266.86,109.64L270,126.63L273.14,121.93L276.28,104.61L279.42,105.21L282.56,108.72L285.7,108.06L291.98,111.02L295.12,106.36L298.26,108.22L301.4,105.32L304.53,105.17L307.67,101.83L310.81,103.47L313.95,109.81L317.09,109.69L320.23,103.03L323.37,106.41L326.51,105.57L329.65,124.27L332.79,125.37L339.07,125.15L342.21,118.2L351.63,110.28L354.77,108.94L357.91,117.08L361.05,121.16L364.19,121.35L367.33,122.99L370.47,123.43L373.6,118.94L379.88,130.45L383.02,129.98L386.16,123.31L389.3,121.96L392.44,124.41L395.58,122.06L398.72,121.55L401.86,119.88L405,121.82L408.14,128.27L411.28,127.77L414.42,128.46L417.56,129.68L420.7,132.72L426.98,126.95L430.12,128.05L433.26,126.15L436.4,125.95L439.53,124.21L442.67,133.06L445.81,135.23L448.95,135.92L455.23,137.03L458.37,136.17L461.51,134.96L464.65,136.7L470.93,136.34L474.07,142.47L477.21,142.64L480.35,140.81L486.63,142L489.77,144.86L492.91,145.71L496.05,143.79L505.47,147.24L508.6,149.64L511.74,150.62L514.88,133.34L518.02,133.44L521.16,135.23L524.3,133.48L527.44,132.86L536.86,126.27L540,130.36L540,304" style="vector-effect: non-scaling-stroke; fill: none; stroke: rgb(99, 110, 250); stroke-opacity: 1; stroke-width: 2px; opacity: 1;"/></g><g class="points"/><g class="text"/></g></g></g><g class="overplot"/><path class="xlines-above crisp" d="M0,0" style="fill: none;"/><path class="ylines-above crisp" d="M0,0" style="fill: none;"/><g class="overlines-above"/><g class="xaxislayer-above"><g class="xtick"><text text-anchor="middle" x="0" y="433" transform="translate(174.19,0)" style="font-family: 'Open Sans', verdana, arial, sans-serif; font-size: 12px; fill: rgb(42, 63, 95); fill-opacity: 1; white-space: pre; opacity: 1;">Sep 2022</text></g><g class="xtick"><text text-anchor="middle" x="0" y="433" style="font-family: 'Open Sans', verdana, arial, sans-serif; font-size: 12px; fill: rgb(42, 63, 95); fill-opacity: 1; white-space: pre; opacity: 1;" transform="translate(268.37,0)">Oct 2022</text></g><g class="xtick"><text text-anchor="middle" x="0" y="433" style="font-family: 'Open Sans', verdana, arial, sans-serif; font-size: 12px; fill: rgb(42, 63, 95); fill-opacity: 1; white-space: pre; opacity: 1;" transform="translate(365.7,0)">Nov 2022</text></g><g class="xtick"><text text-anchor="middle" x="0" y="433" style="font-family: 'Open Sans', verdana, arial, sans-serif; font-size: 12px; fill: rgb(42, 63, 95); fill-opacity: 1; white-space: pre; opacity: 1;" transform="translate(459.88,0)">Dec 2022</text></g><g class="xtick"><text text-anchor="middle" x="0" y="433" style="font-family: 'Open Sans', verdana, arial, sans-serif; font-size: 12px; fill: rgb(42, 63, 95); fill-opacity: 1; white-space: pre; opacity: 1;" transform="translate(557.21,0)">Jan 2023</text></g></g><g class="yaxislayer-above"><g class="ytick"><text text-anchor="end" x="79" y="4.199999999999999" transform="translate(0,383.12)" style="font-family: 'Open Sans', verdana, arial, sans-serif; font-size: 12px; fill: rgb(42, 63, 95); fill-opacity: 1; white-space: pre; opacity: 1;">$−5M</text></g><g class="ytick"><text text-anchor="end" x="79" y="4.199999999999999" style="font-family: 'Open Sans', verdana, arial, sans-serif; font-size: 12px; fill: rgb(42, 63, 95); fill-opacity: 1; white-space: pre; opacity: 1;" transform="translate(0,319.24)">$0</text></g><g class="ytick"><text text-anchor="end" x="79" y="4.199999999999999" style="font-family: 'Open Sans', verdana, arial, sans-serif; font-size: 12px; fill: rgb(42, 63, 95); fill-opacity: 1; white-space: pre; opacity: 1;" transform="translate(0,255.36)">$5M</text></g><g class="ytick"><text text-anchor="end" x="79" y="4.199999999999999" style="font-family: 'Open Sans', verdana, arial, sans-serif; font-size: 12px; fill: rgb(42, 63, 95); fill-opacity: 1; white-space: pre; opacity: 1;" transform="translate(0,191.48000000000002)">$10M</text></g><g class="ytick"><text text-anchor="end" x="79" y="4.199999999999999" style="font-family: 'Open Sans', verdana, arial, sans-serif; font-size: 12px; fill: rgb(42, 63, 95); fill-opacity: 1; white-space: pre; opacity: 1;" transform="translate(0,127.61)">$15M</text></g></g><g class="overaxes-above"/></g></g><g class="polarlayer"/><g class="smithlayer"/><g class="ternarylayer"/><g class="geolayer"/><g class="funnelarealayer"/><g class="pielayer"/><g class="iciclelayer"/><g class="treemaplayer"/><g class="sunburstlayer"/><g class="glimages"/><defs id="topdefs-6592fc"><g class="clips"/></defs><g class="layer-above"><g class="imagelayer"/><g class="shapelayer"/></g><g class="infolayer"><g class="g-gtitle"><text class="gtitle" x="35" y="50" text-anchor="start" dy="0em" style="font-family: 'Open Sans', verdana, arial, sans-serif; font-size: 17px; fill: rgb(42, 63, 95); opacity: 1; font-weight: normal; white-space: pre;"><tspan class="line" dy="0em" x="35" y="50">Lyra</tspan><tspan class="line" dy="1.3em" x="35" y="50">​<tspan style="font-size:70%" dy="-0.6em">Cumulative Net Dollar Flow since Program Announcement, Until Program End + 30 Days - At Last Price</tspan><tspan dy="0.42em">​</tspan></tspan></text></g><g class="g-xtitle"><text class="xtitle" x="350" y="460.8" text-anchor="middle" style="font-family: 'Open Sans', verdana, arial, sans-serif; font-size: 14px; fill: rgb(42, 63, 95); opacity: 1; font-weight: normal; white-space: pre;">Day</text></g><g class="g-ytitle"><text class="ytitle" transform="rotate(-90,23.840625000000003,260)" x="23.840625000000003" y="260" text-anchor="middle" style="font-family: 'Open Sans', verdana, arial, sans-serif; font-size: 14px; fill: rgb(42, 63, 95); opacity: 1; font-weight: normal; white-space: pre;">Cumulative Net Dollar Flow (N$F)</text></g></g></svg>