<svg class="main-svg" xmlns="http://www.w3.org/2000/svg" xmlns:xlink="http://www.w3.org/1999/xlink" width="700" height="500" style="" viewBox="0 0 700 500"><rect x="0" y="0" width="700" height="500" style="fill: rgb(255, 255, 255); fill-opacity: 1;"/><defs id="defs-5f5454"><g class="clips"><clipPath id="clip5f5454xyplot" class="plotclip"><rect width="540" height="320"/></clipPath><clipPath class="axesclip" id="clip5f5454x"><rect x="80" y="0" width="540" height="500"/></clipPath><clipPath class="axesclip" id="clip5f5454y"><rect x="0" y="100" width="700" height="320"/></clipPath><clipPath class="axesclip" id="clip5f5454xy"><rect x="80" y="100" width="540" height="320"/></clipPath></g><g class="gradients"/><g class="patterns"/></defs><g class="bglayer"><rect class="bg" x="80" y="100" width="540" height="320" style="fill: rgb(229, 236, 246); fill-opacity: 1; stroke-width: 0;"/></g><g class="layer-below"><g class="imagelayer"/><g class="shapelayer"/></g><g class="cartesianlayer"><g class="subplot xy"><g class="layer-subplot"><g class="shapelayer"/><g class="imagelayer"/></g><g class="minor-gridlayer"><g class="x"/><g class="y"/></g><g class="gridlayer"><g class="x"><path class="xgrid crisp" transform="translate(98,0)" d="M0,100v320" style="stroke: rgb(255, 255, 255); stroke-opacity: 1; stroke-width: 1px;"/><path class="xgrid crisp" transform="translate(237.5,0)" d="M0,100v320" style="stroke: rgb(255, 255, 255); stroke-opacity: 1; stroke-width: 1px;"/><path class="xgrid crisp" transform="translate(372.5,0)" d="M0,100v320" style="stroke: rgb(255, 255, 255); stroke-opacity: 1; stroke-width: 1px;"/><path class="xgrid crisp" transform="translate(512,0)" d="M0,100v320" style="stroke: rgb(255, 255, 255); stroke-opacity: 1; stroke-width: 1px;"/></g><g class="y"><path class="ygrid crisp" transform="translate(0,356.48)" d="M80,0h540" style="stroke: rgb(255, 255, 255); stroke-opacity: 1; stroke-width: 1px;"/><path class="ygrid crisp" transform="translate(0,318.6)" d="M80,0h540" style="stroke: rgb(255, 255, 255); stroke-opacity: 1; stroke-width: 1px;"/><path class="ygrid crisp" transform="translate(0,280.72)" d="M80,0h540" style="stroke: rgb(255, 255, 255); stroke-opacity: 1; stroke-width: 1px;"/><path class="ygrid crisp" transform="translate(0,242.84)" d="M80,0h540" style="stroke: rgb(255, 255, 255); stroke-opacity: 1; stroke-width: 1px;"/><path class="ygrid crisp" transform="translate(0,204.95999999999998)" d="M80,0h540" style="stroke: rgb(255, 255, 255); stroke-opacity: 1; stroke-width: 1px;"/><path class="ygrid crisp" transform="translate(0,167.07999999999998)" d="M80,0h540" style="stroke: rgb(255, 255, 255); stroke-opacity: 1; stroke-width: 1px;"/><path class="ygrid crisp" transform="translate(0,129.21)" d="M80,0h540" style="stroke: rgb(255, 255, 255); stroke-opacity: 1; stroke-width: 1px;"/></g></g><g class="zerolinelayer"><path class="yzl zl crisp" transform="translate(0,394.36)" d="M80,0h540" style="stroke: rgb(255, 255, 255); stroke-opacity: 1; stroke-width: 2px;"/></g><path class="xlines-below"/><path class="ylines-below"/><g class="overlines-below"/><g class="xaxislayer-below"/><g class="yaxislayer-below"/><g class="overaxes-below"/><g class="plot" transform="translate(80,100)" clip-path="url(#clip5f5454xyplot)"><g class="scatterlayer mlayer"><g class="trace scatter trace45d7c8" style="stroke-miterlimit: 2;"><g class="fills"><g><path class="js-fill" d="M540,294.36L0,294.36L0,304L4.5,302.4L9,285.95L18,282.57L22.5,275.6L27,273.99L31.5,266.34L36,241.67L40.5,247.59L45,252.04L49.5,240.24L54,240.1L58.5,238.03L63,243.86L67.5,246.61L72,246.28L76.5,222.87L81,222.73L85.5,219.68L90,219.87L94.5,200.75L99,202.01L103.5,201.31L108,205.55L112.5,206.59L117,202.25L121.5,203.18L126,208.55L130.5,222.52L135,217.66L139.5,205.3L144,201.51L148.5,202.25L153,200.67L157.5,198.13L162,196.6L166.5,184.44L171,182.58L175.5,181.84L180,178.39L184.5,168.4L189,208.89L193.5,213.15L198,243.29L202.5,244.2L207,253.41L211.5,260.26L216,262.33L220.5,238.1L225,237.66L229.5,234L243,229.67L247.5,231.08L252,228.51L256.5,232.37L261,222.63L265.5,217.91L270,205.6L274.5,203.54L279,215.11L283.5,216.47L288,213.04L292.5,195.76L297,189.98L301.5,189.39L306,188.52L310.5,184.05L315,196L319.5,187.71L324,193.86L328.5,181.93L333,196.37L337.5,138.21L342,156.84L346.5,148.48L351,159.27L355.5,212.13L360,211.92L364.5,227.23L369,229.35L373.5,226.8L378,207.67L382.5,205.46L387,204.75L391.5,204.93L405,205.37L409.5,208.03L414,212.81L418.5,213.04L423,213.57L427.5,215.39L432,215.45L436.5,213.2L441,213.44L445.5,209.96L450,208.84L454.5,214.24L459,207.72L463.5,207.73L468,197.72L472.5,194.44L477,190.21L481.5,184.51L486,176.64L490.5,175.04L495,174.5L499.5,171.64L504,157.9L508.5,150L513,127.05L517.5,113.81L522,85.01L526.5,87.73L531,63.29L535.5,16.13L540,16" style="fill: rgb(99, 110, 250); fill-opacity: 0.5; stroke-width: 0;"/></g></g><g class="errorbars"/><g class="lines"><path class="js-line" d="M0,304L4.5,302.4L9,285.95L18,282.57L22.5,275.6L27,273.99L31.5,266.34L36,241.67L40.5,247.59L45,252.04L49.5,240.24L54,240.1L58.5,238.03L63,243.86L67.5,246.61L72,246.28L76.5,222.87L81,222.73L85.5,219.68L90,219.87L94.5,200.75L99,202.01L103.5,201.31L108,205.55L112.5,206.59L117,202.25L121.5,203.18L126,208.55L130.5,222.52L135,217.66L139.5,205.3L144,201.51L148.5,202.25L153,200.67L157.5,198.13L162,196.6L166.5,184.44L171,182.58L175.5,181.84L180,178.39L184.5,168.4L189,208.89L193.5,213.15L198,243.29L202.5,244.2L207,253.41L211.5,260.26L216,262.33L220.5,238.1L225,237.66L229.5,234L243,229.67L247.5,231.08L252,228.51L256.5,232.37L261,222.63L265.5,217.91L270,205.6L274.5,203.54L279,215.11L283.5,216.47L288,213.04L292.5,195.76L297,189.98L301.5,189.39L306,188.52L310.5,184.05L315,196L319.5,187.71L324,193.86L328.5,181.93L333,196.37L337.5,138.21L342,156.84L346.5,148.48L351,159.27L355.5,212.13L360,211.92L364.5,227.23L369,229.35L373.5,226.8L378,207.67L382.5,205.46L387,204.75L391.5,204.93L405,205.37L409.5,208.03L414,212.81L418.5,213.04L423,213.57L427.5,215.39L432,215.45L436.5,213.2L441,213.44L445.5,209.96L450,208.84L454.5,214.24L459,207.72L463.5,207.73L468,197.72L472.5,194.44L477,190.21L481.5,184.51L486,176.64L490.5,175.04L495,174.5L499.5,171.64L504,157.9L508.5,150L513,127.05L517.5,113.81L522,85.01L526.5,87.73L531,63.29L535.5,16.13L540,16" style="vector-effect: non-scaling-stroke; fill: none; stroke: rgb(99, 110, 250); stroke-opacity: 1; stroke-width: 2px; opacity: 1;"/></g><g class="points"/><g class="text"/></g></g></g><g class="overplot"/><path class="xlines-above crisp" d="M0,0" style="fill: none;"/><path class="ylines-above crisp" d="M0,0" style="fill: none;"/><g class="overlines-above"/><g class="xaxislayer-above"><g class="xtick"><text text-anchor="middle" x="0" y="433" transform="translate(98,0)" style="font-family: 'Open Sans', verdana, arial, sans-serif; font-size: 12px; fill: rgb(42, 63, 95); fill-opacity: 1; white-space: pre; opacity: 1;">Oct 2022</text></g><g class="xtick"><text text-anchor="middle" x="0" y="433" style="font-family: 'Open Sans', verdana, arial, sans-serif; font-size: 12px; fill: rgb(42, 63, 95); fill-opacity: 1; white-space: pre; opacity: 1;" transform="translate(237.5,0)">Nov 2022</text></g><g class="xtick"><text text-anchor="middle" x="0" y="433" style="font-family: 'Open Sans', verdana, arial, sans-serif; font-size: 12px; fill: rgb(42, 63, 95); fill-opacity: 1; white-space: pre; opacity: 1;" transform="translate(372.5,0)">Dec 2022</text></g><g class="xtick"><text text-anchor="middle" x="0" y="433" style="font-family: 'Open Sans', verdana, arial, sans-serif; font-size: 12px; fill: rgb(42, 63, 95); fill-opacity: 1; white-space: pre; opacity: 1;" transform="translate(512,0)">Jan 2023</text></g></g><g class="yaxislayer-above"><g class="ytick"><text text-anchor="end" x="79" y="4.199999999999999" transform="translate(0,394.36)" style="font-family: 'Open Sans', verdana, arial, sans-serif; font-size: 12px; fill: rgb(42, 63, 95); fill-opacity: 1; white-space: pre; opacity: 1;">$0</text></g><g class="ytick"><text text-anchor="end" x="79" y="4.199999999999999" style="font-family: 'Open Sans', verdana, arial, sans-serif; font-size: 12px; fill: rgb(42, 63, 95); fill-opacity: 1; white-space: pre; opacity: 1;" transform="translate(0,356.48)">$2M</text></g><g class="ytick"><text text-anchor="end" x="79" y="4.199999999999999" style="font-family: 'Open Sans', verdana, arial, sans-serif; font-size: 12px; fill: rgb(42, 63, 95); fill-opacity: 1; white-space: pre; opacity: 1;" transform="translate(0,318.6)">$4M</text></g><g class="ytick"><text text-anchor="end" x="79" y="4.199999999999999" style="font-family: 'Open Sans', verdana, arial, sans-serif; font-size: 12px; fill: rgb(42, 63, 95); fill-opacity: 1; white-space: pre; opacity: 1;" transform="translate(0,280.72)">$6M</text></g><g class="ytick"><text text-anchor="end" x="79" y="4.199999999999999" style="font-family: 'Open Sans', verdana, arial, sans-serif; font-size: 12px; fill: rgb(42, 63, 95); fill-opacity: 1; white-space: pre; opacity: 1;" transform="translate(0,242.84)">$8M</text></g><g class="ytick"><text text-anchor="end" x="79" y="4.199999999999999" style="font-family: 'Open Sans', verdana, arial, sans-serif; font-size: 12px; fill: rgb(42, 63, 95); fill-opacity: 1; white-space: pre; opacity: 1;" transform="translate(0,204.95999999999998)">$10M</text></g><g class="ytick"><text text-anchor="end" x="79" y="4.199999999999999" style="font-family: 'Open Sans', verdana, arial, sans-serif; font-size: 12px; fill: rgb(42, 63, 95); fill-opacity: 1; white-space: pre; opacity: 1;" transform="translate(0,167.07999999999998)">$12M</text></g><g class="ytick"><text text-anchor="end" x="79" y="4.199999999999999" style="font-family: 'Open Sans', verdana, arial, sans-serif; font-size: 12px; fill: rgb(42, 63, 95); fill-opacity: 1; white-space: pre; opacity: 1;" transform="translate(0,129.21)">$14M</text></g></g><g class="overaxes-above"/></g></g><g class="polarlayer"/><g class="smithlayer"/><g class="ternarylayer"/><g class="geolayer"/><g class="funnelarealayer"/><g class="pielayer"/><g class="iciclelayer"/><g class="treemaplayer"/><g class="sunburstlayer"/><g class="glimages"/><defs id="topdefs-5f5454"><g class="clips"/></defs><g class="layer-above"><g class="imagelayer"/><g class="shapelayer"/></g><g class="infolayer"><g class="g-gtitle"><text class="gtitle" x="35" y="50" text-anchor="start" dy="0em" style="font-family: 'Open Sans', verdana, arial, sans-serif; font-size: 17px; fill: rgb(42, 63, 95); opacity: 1; font-weight: normal; white-space: pre;"><tspan class="line" dy="0em" x="35" y="50">Synthetix - All Synthetix Velo Pools</tspan><tspan class="line" dy="1.3em" x="35" y="50">​<tspan style="font-size:70%" dy="-0.6em">Cumulative Net Dollar Flow since Program Announcement, Until Program End + 30 Days - At Last Price</tspan><tspan dy="0.42em">​</tspan></tspan></text></g><g class="g-xtitle"><text class="xtitle" x="350" y="460.8" text-anchor="middle" style="font-family: 'Open Sans', verdana, arial, sans-serif; font-size: 14px; fill: rgb(42, 63, 95); opacity: 1; font-weight: normal; white-space: pre;">Day</text></g><g class="g-ytitle"><text class="ytitle" transform="rotate(-90,24.168750000000003,260)" x="24.168750000000003" y="260" text-anchor="middle" style="font-family: 'Open Sans', verdana, arial, sans-serif; font-size: 14px; fill: rgb(42, 63, 95); opacity: 1; font-weight: normal; white-space: pre;">Cumulative Net Dollar Flow (N$F)</text></g></g></svg>