<svg class="main-svg" xmlns="http://www.w3.org/2000/svg" xmlns:xlink="http://www.w3.org/1999/xlink" width="700" height="500" style="" viewBox="0 0 700 500"><rect x="0" y="0" width="700" height="500" style="fill: rgb(255, 255, 255); fill-opacity: 1;"/><defs id="defs-1bbbc5"><g class="clips"><clipPath id="clip1bbbc5xyplot" class="plotclip"><rect width="540" height="320"/></clipPath><clipPath class="axesclip" id="clip1bbbc5x"><rect x="80" y="0" width="540" height="500"/></clipPath><clipPath class="axesclip" id="clip1bbbc5y"><rect x="0" y="100" width="700" height="320"/></clipPath><clipPath class="axesclip" id="clip1bbbc5xy"><rect x="80" y="100" width="540" height="320"/></clipPath></g><g class="gradients"/><g class="patterns"/></defs><g class="bglayer"><rect class="bg" x="80" y="100" width="540" height="320" style="fill: rgb(229, 236, 246); fill-opacity: 1; stroke-width: 0;"/></g><g class="layer-below"><g class="imagelayer"/><g class="shapelayer"/></g><g class="cartesianlayer"><g class="subplot xy"><g class="layer-subplot"><g class="shapelayer"/><g class="imagelayer"/></g><g class="minor-gridlayer"><g class="x"/><g class="y"/></g><g class="gridlayer"><g class="x"><path class="xgrid crisp" transform="translate(130.54,0)" d="M0,100v320" style="stroke: rgb(255, 255, 255); stroke-opacity: 1; stroke-width: 1px;"/><path class="xgrid crisp" transform="translate(210.34,0)" d="M0,100v320" style="stroke: rgb(255, 255, 255); stroke-opacity: 1; stroke-width: 1px;"/><path class="xgrid crisp" transform="translate(292.81,0)" d="M0,100v320" style="stroke: rgb(255, 255, 255); stroke-opacity: 1; stroke-width: 1px;"/><path class="xgrid crisp" transform="translate(372.61,0)" d="M0,100v320" style="stroke: rgb(255, 255, 255); stroke-opacity: 1; stroke-width: 1px;"/><path class="xgrid crisp" transform="translate(455.07,0)" d="M0,100v320" style="stroke: rgb(255, 255, 255); stroke-opacity: 1; stroke-width: 1px;"/><path class="xgrid crisp" transform="translate(537.54,0)" d="M0,100v320" style="stroke: rgb(255, 255, 255); stroke-opacity: 1; stroke-width: 1px;"/><path class="xgrid crisp" transform="translate(612.02,0)" d="M0,100v320" style="stroke: rgb(255, 255, 255); stroke-opacity: 1; stroke-width: 1px;"/></g><g class="y"><path class="ygrid crisp" transform="translate(0,389.7)" d="M80,0h540" style="stroke: rgb(255, 255, 255); stroke-opacity: 1; stroke-width: 1px;"/><path class="ygrid crisp" transform="translate(0,345.38)" d="M80,0h540" style="stroke: rgb(255, 255, 255); stroke-opacity: 1; stroke-width: 1px;"/><path class="ygrid crisp" transform="translate(0,301.05)" d="M80,0h540" style="stroke: rgb(255, 255, 255); stroke-opacity: 1; stroke-width: 1px;"/><path class="ygrid crisp" transform="translate(0,212.39)" d="M80,0h540" style="stroke: rgb(255, 255, 255); stroke-opacity: 1; stroke-width: 1px;"/><path class="ygrid crisp" transform="translate(0,168.07)" d="M80,0h540" style="stroke: rgb(255, 255, 255); stroke-opacity: 1; stroke-width: 1px;"/><path class="ygrid crisp" transform="translate(0,123.74)" d="M80,0h540" style="stroke: rgb(255, 255, 255); stroke-opacity: 1; stroke-width: 1px;"/></g></g><g class="zerolinelayer"><path class="yzl zl crisp" transform="translate(0,256.72)" d="M80,0h540" style="stroke: rgb(255, 255, 255); stroke-opacity: 1; stroke-width: 2px;"/></g><path class="xlines-below"/><path class="ylines-below"/><g class="overlines-below"/><g class="xaxislayer-below"/><g class="yaxislayer-below"/><g class="overaxes-below"/><g class="plot" transform="translate(80,100)" clip-path="url(#clip1bbbc5xyplot)"><g class="scatterlayer mlayer"><g class="trace scatter tracef82e96" style="stroke-miterlimit: 2;"><g class="fills"><g><path class="js-fill" d="M540,156.72L0,156.72L0,184.84L2.66,199.07L5.32,198.71L7.98,200.07L10.64,207.47L13.3,209.11L15.96,113.59L18.62,232L21.28,223.63L23.94,229.9L26.6,229.39L29.26,233.17L31.92,235.09L34.58,223.15L37.24,229.13L39.9,232.83L42.56,234.77L45.22,215.1L47.88,208.83L50.54,207.09L53.2,220.64L55.86,218.33L58.52,213.91L61.18,212.39L63.84,216.46L66.5,215.35L69.16,207.48L71.82,200.79L74.48,182.83L77.14,177.13L79.8,175.39L82.46,201.48L85.12,190.72L87.78,186.48L90.44,206.95L93.1,210.91L95.76,210.87L103.74,216.48L106.4,220.31L109.06,233.05L111.72,233.99L117.04,230.22L119.7,236.71L122.36,234.67L125.02,238.48L127.68,240L130.34,243.66L133,245.4L135.67,259.2L138.33,261.53L140.99,255.62L143.65,260.38L146.31,260.7L148.97,255.91L151.63,267.88L154.29,264.77L156.95,269.47L159.61,265.18L162.27,265.41L164.93,280.1L167.59,277.71L170.25,279.09L172.91,281.52L178.23,280.52L180.89,275.89L183.55,276.91L186.21,276.15L191.53,276.08L194.19,276.93L196.85,267.57L199.51,261.36L207.49,253.51L210.15,254.41L212.81,251L215.47,254.41L218.13,226.19L220.79,235.92L223.45,246.51L226.11,244.72L228.77,244.92L231.43,232.09L234.09,247.94L236.75,300.51L239.41,260.08L242.07,255.21L244.73,256.76L247.39,263.64L250.05,271.85L252.71,249.49L255.37,208.8L258.03,240L260.69,220.13L263.35,208.34L268.67,229.12L271.33,249.58L273.99,260.82L276.65,290.57L279.31,293.24L281.97,266.18L284.63,273.4L287.29,274.29L289.95,269.48L292.61,257.37L295.27,264.94L297.93,304L300.59,289.29L303.25,257.4L305.91,268.16L308.57,260.17L311.23,270.55L313.89,263.21L316.55,275.66L319.21,261.59L321.87,296.41L324.53,277.23L327.19,299.71L329.85,285.09L332.51,276.93L335.17,258.73L337.83,270.04L340.49,261.97L343.15,278.95L345.81,240.38L348.47,197.27L351.13,249.59L353.79,212.02L356.45,214.53L359.11,220.53L361.77,217.71L364.43,250.37L367.09,244.82L369.75,146.77L372.41,184.83L375.07,158.76L377.73,177.33L383.05,173.85L385.71,171.8L388.37,179.03L391.03,181.24L393.69,178.63L396.35,188.59L399.01,188.72L401.67,187.01L407,208.37L409.66,180.12L412.32,170.07L414.98,167.83L417.64,183.69L420.3,183.97L422.96,177.53L425.62,197.2L428.28,208.47L430.94,186.84L433.6,176.12L436.26,174.86L438.92,185.2L441.58,179.95L444.24,190.49L446.9,165.79L449.56,152.48L452.22,174.19L454.88,181.9L457.54,161.28L460.2,161.28L462.86,202.97L465.52,205.27L468.18,222.56L470.84,204.25L473.5,207.05L476.16,171.35L478.82,116.93L481.48,154.68L484.14,94.77L486.8,120L489.46,124.62L492.12,128.94L494.78,112.2L497.44,85.49L500.1,106.21L505.42,37.16L508.08,31.83L510.74,16.06L513.4,44.64L516.06,52.4L518.72,39.96L521.38,16L524.04,42.02L526.7,28.46L529.36,29.78L532.02,54.92L534.68,56.81L537.34,55.29L540,80.98" style="fill: rgb(99, 110, 250); fill-opacity: 0.5; stroke-width: 0;"/></g></g><g class="errorbars"/><g class="lines"><path class="js-line" d="M0,184.84L2.66,199.07L5.32,198.71L7.98,200.07L10.64,207.47L13.3,209.11L15.96,113.59L18.62,232L21.28,223.63L23.94,229.9L26.6,229.39L29.26,233.17L31.92,235.09L34.58,223.15L37.24,229.13L39.9,232.83L42.56,234.77L45.22,215.1L47.88,208.83L50.54,207.09L53.2,220.64L55.86,218.33L58.52,213.91L61.18,212.39L63.84,216.46L66.5,215.35L69.16,207.48L71.82,200.79L74.48,182.83L77.14,177.13L79.8,175.39L82.46,201.48L85.12,190.72L87.78,186.48L90.44,206.95L93.1,210.91L95.76,210.87L103.74,216.48L106.4,220.31L109.06,233.05L111.72,233.99L117.04,230.22L119.7,236.71L122.36,234.67L125.02,238.48L127.68,240L130.34,243.66L133,245.4L135.67,259.2L138.33,261.53L140.99,255.62L143.65,260.38L146.31,260.7L148.97,255.91L151.63,267.88L154.29,264.77L156.95,269.47L159.61,265.18L162.27,265.41L164.93,280.1L167.59,277.71L170.25,279.09L172.91,281.52L178.23,280.52L180.89,275.89L183.55,276.91L186.21,276.15L191.53,276.08L194.19,276.93L196.85,267.57L199.51,261.36L207.49,253.51L210.15,254.41L212.81,251L215.47,254.41L218.13,226.19L220.79,235.92L223.45,246.51L226.11,244.72L228.77,244.92L231.43,232.09L234.09,247.94L236.75,300.51L239.41,260.08L242.07,255.21L244.73,256.76L247.39,263.64L250.05,271.85L252.71,249.49L255.37,208.8L258.03,240L260.69,220.13L263.35,208.34L268.67,229.12L271.33,249.58L273.99,260.82L276.65,290.57L279.31,293.24L281.97,266.18L284.63,273.4L287.29,274.29L289.95,269.48L292.61,257.37L295.27,264.94L297.93,304L300.59,289.29L303.25,257.4L305.91,268.16L308.57,260.17L311.23,270.55L313.89,263.21L316.55,275.66L319.21,261.59L321.87,296.41L324.53,277.23L327.19,299.71L329.85,285.09L332.51,276.93L335.17,258.73L337.83,270.04L340.49,261.97L343.15,278.95L345.81,240.38L348.47,197.27L351.13,249.59L353.79,212.02L356.45,214.53L359.11,220.53L361.77,217.71L364.43,250.37L367.09,244.82L369.75,146.77L372.41,184.83L375.07,158.76L377.73,177.33L383.05,173.85L385.71,171.8L388.37,179.03L391.03,181.24L393.69,178.63L396.35,188.59L399.01,188.72L401.67,187.01L407,208.37L409.66,180.12L412.32,170.07L414.98,167.83L417.64,183.69L420.3,183.97L422.96,177.53L425.62,197.2L428.28,208.47L430.94,186.84L433.6,176.12L436.26,174.86L438.92,185.2L441.58,179.95L444.24,190.49L446.9,165.79L449.56,152.48L452.22,174.19L454.88,181.9L457.54,161.28L460.2,161.28L462.86,202.97L465.52,205.27L468.18,222.56L470.84,204.25L473.5,207.05L476.16,171.35L478.82,116.93L481.48,154.68L484.14,94.77L486.8,120L489.46,124.62L492.12,128.94L494.78,112.2L497.44,85.49L500.1,106.21L505.42,37.16L508.08,31.83L510.74,16.06L513.4,44.64L516.06,52.4L518.72,39.96L521.38,16L524.04,42.02L526.7,28.46L529.36,29.78L532.02,54.92L534.68,56.81L537.34,55.29L540,80.98" style="vector-effect: non-scaling-stroke; fill: none; stroke: rgb(99, 110, 250); stroke-opacity: 1; stroke-width: 2px; opacity: 1;"/></g><g class="points"/><g class="text"/></g></g></g><g class="overplot"/><path class="xlines-above crisp" d="M0,0" style="fill: none;"/><path class="ylines-above crisp" d="M0,0" style="fill: none;"/><g class="overlines-above"/><g class="xaxislayer-above"><g class="xtick"><text text-anchor="middle" x="0" y="433" transform="translate(130.54,0)" style="font-family: 'Open Sans', verdana, arial, sans-serif; font-size: 12px; fill: rgb(42, 63, 95); fill-opacity: 1; white-space: pre; opacity: 1;">Sep 2022</text></g><g class="xtick"><text text-anchor="middle" x="0" y="433" style="font-family: 'Open Sans', verdana, arial, sans-serif; font-size: 12px; fill: rgb(42, 63, 95); fill-opacity: 1; white-space: pre; opacity: 1;" transform="translate(210.34,0)">Oct 2022</text></g><g class="xtick"><text text-anchor="middle" x="0" y="433" style="font-family: 'Open Sans', verdana, arial, sans-serif; font-size: 12px; fill: rgb(42, 63, 95); fill-opacity: 1; white-space: pre; opacity: 1;" transform="translate(292.81,0)">Nov 2022</text></g><g class="xtick"><text text-anchor="middle" x="0" y="433" style="font-family: 'Open Sans', verdana, arial, sans-serif; font-size: 12px; fill: rgb(42, 63, 95); fill-opacity: 1; white-space: pre; opacity: 1;" transform="translate(372.61,0)">Dec 2022</text></g><g class="xtick"><text text-anchor="middle" x="0" y="433" style="font-family: 'Open Sans', verdana, arial, sans-serif; font-size: 12px; fill: rgb(42, 63, 95); fill-opacity: 1; white-space: pre; opacity: 1;" transform="translate(455.07,0)">Jan 2023</text></g><g class="xtick"><text text-anchor="middle" x="0" y="433" style="font-family: 'Open Sans', verdana, arial, sans-serif; font-size: 12px; fill: rgb(42, 63, 95); fill-opacity: 1; white-space: pre; opacity: 1;" transform="translate(537.54,0)">Feb 2023</text></g><g class="xtick"><text text-anchor="middle" x="0" y="433" style="font-family: 'Open Sans', verdana, arial, sans-serif; font-size: 12px; fill: rgb(42, 63, 95); fill-opacity: 1; white-space: pre; opacity: 1;" transform="translate(612.02,0)">Mar 2023</text></g></g><g class="yaxislayer-above"><g class="ytick"><text text-anchor="end" x="79" y="4.199999999999999" transform="translate(0,389.7)" style="font-family: 'Open Sans', verdana, arial, sans-serif; font-size: 12px; fill: rgb(42, 63, 95); fill-opacity: 1; white-space: pre; opacity: 1;">$−6M</text></g><g class="ytick"><text text-anchor="end" x="79" y="4.199999999999999" style="font-family: 'Open Sans', verdana, arial, sans-serif; font-size: 12px; fill: rgb(42, 63, 95); fill-opacity: 1; white-space: pre; opacity: 1;" transform="translate(0,345.38)">$−4M</text></g><g class="ytick"><text text-anchor="end" x="79" y="4.199999999999999" style="font-family: 'Open Sans', verdana, arial, sans-serif; font-size: 12px; fill: rgb(42, 63, 95); fill-opacity: 1; white-space: pre; opacity: 1;" transform="translate(0,301.05)">$−2M</text></g><g class="ytick"><text text-anchor="end" x="79" y="4.199999999999999" style="font-family: 'Open Sans', verdana, arial, sans-serif; font-size: 12px; fill: rgb(42, 63, 95); fill-opacity: 1; white-space: pre; opacity: 1;" transform="translate(0,256.72)">$0</text></g><g class="ytick"><text text-anchor="end" x="79" y="4.199999999999999" style="font-family: 'Open Sans', verdana, arial, sans-serif; font-size: 12px; fill: rgb(42, 63, 95); fill-opacity: 1; white-space: pre; opacity: 1;" transform="translate(0,212.39)">$2M</text></g><g class="ytick"><text text-anchor="end" x="79" y="4.199999999999999" style="font-family: 'Open Sans', verdana, arial, sans-serif; font-size: 12px; fill: rgb(42, 63, 95); fill-opacity: 1; white-space: pre; opacity: 1;" transform="translate(0,168.07)">$4M</text></g><g class="ytick"><text text-anchor="end" x="79" y="4.199999999999999" style="font-family: 'Open Sans', verdana, arial, sans-serif; font-size: 12px; fill: rgb(42, 63, 95); fill-opacity: 1; white-space: pre; opacity: 1;" transform="translate(0,123.74)">$6M</text></g></g><g class="overaxes-above"/></g></g><g class="polarlayer"/><g class="smithlayer"/><g class="ternarylayer"/><g class="geolayer"/><g class="funnelarealayer"/><g class="pielayer"/><g class="iciclelayer"/><g class="treemaplayer"/><g class="sunburstlayer"/><g class="glimages"/><defs id="topdefs-1bbbc5"><g class="clips"/></defs><g class="layer-above"><g class="imagelayer"/><g class="shapelayer"/></g><g class="infolayer"><g class="g-gtitle"><text class="gtitle" x="35" y="50" text-anchor="start" dy="0em" style="font-family: 'Open Sans', verdana, arial, sans-serif; font-size: 17px; fill: rgb(42, 63, 95); opacity: 1; font-weight: normal; white-space: pre;"><tspan class="line" dy="0em" x="35" y="50">Cbridge - Celer*</tspan><tspan class="line" dy="1.3em" x="35" y="50">​<tspan style="font-size:70%" dy="-0.6em">Cumulative Net Flows since Program Announcement, Until Program End + 30 Days - At Last Price</tspan><tspan dy="0.42em">​</tspan></tspan></text></g><g class="g-xtitle"><text class="xtitle" x="350" y="460.8" text-anchor="middle" style="font-family: 'Open Sans', verdana, arial, sans-serif; font-size: 14px; fill: rgb(42, 63, 95); opacity: 1; font-weight: normal; white-space: pre;">Day</text></g><g class="g-ytitle"><text class="ytitle" transform="rotate(-90,23.840625000000003,260)" x="23.840625000000003" y="260" text-anchor="middle" style="font-family: 'Open Sans', verdana, arial, sans-serif; font-size: 14px; fill: rgb(42, 63, 95); opacity: 1; font-weight: normal; white-space: pre;">Cumulative Net Flows (USD)</text></g></g></svg>