<svg class="main-svg" xmlns="http://www.w3.org/2000/svg" xmlns:xlink="http://www.w3.org/1999/xlink" width="700" height="500" style="" viewBox="0 0 700 500"><rect x="0" y="0" width="700" height="500" style="fill: rgb(255, 255, 255); fill-opacity: 1;"/><defs id="defs-0fc0d2"><g class="clips"><clipPath id="clip0fc0d2xyplot" class="plotclip"><rect width="540" height="320"/></clipPath><clipPath class="axesclip" id="clip0fc0d2x"><rect x="80" y="0" width="540" height="500"/></clipPath><clipPath class="axesclip" id="clip0fc0d2y"><rect x="0" y="100" width="700" height="320"/></clipPath><clipPath class="axesclip" id="clip0fc0d2xy"><rect x="80" y="100" width="540" height="320"/></clipPath></g><g class="gradients"/><g class="patterns"/></defs><g class="bglayer"><rect class="bg" x="80" y="100" width="540" height="320" style="fill: rgb(229, 236, 246); fill-opacity: 1; stroke-width: 0;"/></g><g class="layer-below"><g class="imagelayer"/><g class="shapelayer"/></g><g class="cartesianlayer"><g class="subplot xy"><g class="layer-subplot"><g class="shapelayer"/><g class="imagelayer"/></g><g class="minor-gridlayer"><g class="x"/><g class="y"/></g><g class="gridlayer"><g class="x"><path class="xgrid crisp" transform="translate(172.87,0)" d="M0,100v320" style="stroke: rgb(255, 255, 255); stroke-opacity: 1; stroke-width: 1px;"/><path class="xgrid crisp" transform="translate(276.05,0)" d="M0,100v320" style="stroke: rgb(255, 255, 255); stroke-opacity: 1; stroke-width: 1px;"/><path class="xgrid crisp" transform="translate(382.68,0)" d="M0,100v320" style="stroke: rgb(255, 255, 255); stroke-opacity: 1; stroke-width: 1px;"/><path class="xgrid crisp" transform="translate(485.86,0)" d="M0,100v320" style="stroke: rgb(255, 255, 255); stroke-opacity: 1; stroke-width: 1px;"/><path class="xgrid crisp" transform="translate(592.48,0)" d="M0,100v320" style="stroke: rgb(255, 255, 255); stroke-opacity: 1; stroke-width: 1px;"/></g><g class="y"><path class="ygrid crisp" transform="translate(0,329.43)" d="M80,0h540" style="stroke: rgb(255, 255, 255); stroke-opacity: 1; stroke-width: 1px;"/><path class="ygrid crisp" transform="translate(0,270.48)" d="M80,0h540" style="stroke: rgb(255, 255, 255); stroke-opacity: 1; stroke-width: 1px;"/><path class="ygrid crisp" transform="translate(0,211.53)" d="M80,0h540" style="stroke: rgb(255, 255, 255); stroke-opacity: 1; stroke-width: 1px;"/><path class="ygrid crisp" transform="translate(0,152.57999999999998)" d="M80,0h540" style="stroke: rgb(255, 255, 255); stroke-opacity: 1; stroke-width: 1px;"/></g></g><g class="zerolinelayer"><path class="yzl zl crisp" transform="translate(0,388.38)" d="M80,0h540" style="stroke: rgb(255, 255, 255); stroke-opacity: 1; stroke-width: 2px;"/></g><path class="xlines-below"/><path class="ylines-below"/><g class="overlines-below"/><g class="xaxislayer-below"/><g class="yaxislayer-below"/><g class="overaxes-below"/><g class="plot" transform="translate(80,100)" clip-path="url(#clip0fc0d2xyplot)"><g class="scatterlayer mlayer"><g class="trace scatter trace1d74bc" style="stroke-miterlimit: 2;"><g class="fills"><g><path class="js-fill" d="M540,288.38L0,288.38L0,299.23L3.44,231.88L6.88,241.25L10.32,244.22L13.76,250.57L17.2,252.32L20.64,251.29L24.08,245.37L27.52,233.11L30.96,249.39L34.39,244.36L37.83,242.41L41.27,236.72L48.15,240.82L51.59,231.06L55.03,232.12L58.47,229.89L61.91,225.75L65.35,219.41L68.79,223.85L72.23,227.04L82.55,222.59L85.99,215.44L89.43,208.53L92.87,205.31L96.31,191.4L99.75,190.96L103.18,185.74L106.62,178.55L110.06,198.19L113.5,204.2L116.94,209.23L120.38,186.65L123.82,181.26L127.26,179.77L130.7,176.45L134.14,167.97L137.58,161.66L141.02,183.4L144.46,182.8L147.9,181.15L151.34,178.85L154.78,179.11L158.22,176.04L161.66,180.77L165.1,200.26L168.54,196.3L171.97,196.24L175.41,202.92L178.85,204.65L182.29,194.86L185.73,188.13L189.17,184.15L192.61,191.23L196.05,192.96L199.49,192.55L202.93,185.58L206.37,192.65L209.81,197.45L216.69,177.32L220.13,161.18L223.57,156.29L227.01,156.46L230.45,152.83L233.89,109.6L237.32,101.84L240.76,100.28L244.2,102.01L247.64,102.61L251.08,102.66L254.52,104.81L257.96,98.15L261.4,97.01L264.84,97.55L268.28,96.28L271.72,97.55L275.16,97.19L278.6,95.67L282.04,106.2L285.48,103.1L288.92,103.04L292.36,99.81L295.8,99.82L299.24,96.03L302.68,73.87L309.55,65.75L312.99,41.76L316.43,32.93L319.87,16L330.19,38.26L333.63,55.51L337.07,226.1L340.51,290.17L343.95,301.7L347.39,293.27L350.83,297.05L354.27,304L357.71,291.29L361.15,296.5L368.03,291.56L371.46,296.04L374.9,297.75L378.34,288.16L381.78,293.6L385.22,291.51L388.66,285.39L392.1,289.4L395.54,288.36L398.98,290.25L402.42,283.14L405.86,271.27L409.3,269.34L412.74,266.41L416.18,264.43L419.62,265.36L423.06,260.57L426.5,259.99L433.38,251.72L436.82,250.34L440.25,250.29L443.69,248.65L450.57,258.77L454.01,258.25L457.45,256.25L460.89,257.68L464.33,272.62L467.77,267.13L471.21,268.74L474.65,255.35L478.09,243.88L481.53,238.8L484.97,237.86L488.41,237.87L495.29,240.2L498.73,242.26L505.61,241.33L509.04,236.82L512.48,243.17L515.92,242.3L519.36,234.5L522.8,234.81L526.24,231.1L529.68,233.73L533.12,238.32L536.56,247.16L540,249.21" style="fill: rgb(99, 110, 250); fill-opacity: 0.5; stroke-width: 0;"/></g></g><g class="errorbars"/><g class="lines"><path class="js-line" d="M0,299.23L3.44,231.88L6.88,241.25L10.32,244.22L13.76,250.57L17.2,252.32L20.64,251.29L24.08,245.37L27.52,233.11L30.96,249.39L34.39,244.36L37.83,242.41L41.27,236.72L48.15,240.82L51.59,231.06L55.03,232.12L58.47,229.89L61.91,225.75L65.35,219.41L68.79,223.85L72.23,227.04L82.55,222.59L85.99,215.44L89.43,208.53L92.87,205.31L96.31,191.4L99.75,190.96L103.18,185.74L106.62,178.55L110.06,198.19L113.5,204.2L116.94,209.23L120.38,186.65L123.82,181.26L127.26,179.77L130.7,176.45L134.14,167.97L137.58,161.66L141.02,183.4L144.46,182.8L147.9,181.15L151.34,178.85L154.78,179.11L158.22,176.04L161.66,180.77L165.1,200.26L168.54,196.3L171.97,196.24L175.41,202.92L178.85,204.65L182.29,194.86L185.73,188.13L189.17,184.15L192.61,191.23L196.05,192.96L199.49,192.55L202.93,185.58L206.37,192.65L209.81,197.45L216.69,177.32L220.13,161.18L223.57,156.29L227.01,156.46L230.45,152.83L233.89,109.6L237.32,101.84L240.76,100.28L244.2,102.01L247.64,102.61L251.08,102.66L254.52,104.81L257.96,98.15L261.4,97.01L264.84,97.55L268.28,96.28L271.72,97.55L275.16,97.19L278.6,95.67L282.04,106.2L285.48,103.1L288.92,103.04L292.36,99.81L295.8,99.82L299.24,96.03L302.68,73.87L309.55,65.75L312.99,41.76L316.43,32.93L319.87,16L330.19,38.26L333.63,55.51L337.07,226.1L340.51,290.17L343.95,301.7L347.39,293.27L350.83,297.05L354.27,304L357.71,291.29L361.15,296.5L368.03,291.56L371.46,296.04L374.9,297.75L378.34,288.16L381.78,293.6L385.22,291.51L388.66,285.39L392.1,289.4L395.54,288.36L398.98,290.25L402.42,283.14L405.86,271.27L409.3,269.34L412.74,266.41L416.18,264.43L419.62,265.36L423.06,260.57L426.5,259.99L433.38,251.72L436.82,250.34L440.25,250.29L443.69,248.65L450.57,258.77L454.01,258.25L457.45,256.25L460.89,257.68L464.33,272.62L467.77,267.13L471.21,268.74L474.65,255.35L478.09,243.88L481.53,238.8L484.97,237.86L488.41,237.87L495.29,240.2L498.73,242.26L505.61,241.33L509.04,236.82L512.48,243.17L515.92,242.3L519.36,234.5L522.8,234.81L526.24,231.1L529.68,233.73L533.12,238.32L536.56,247.16L540,249.21" style="vector-effect: non-scaling-stroke; fill: none; stroke: rgb(99, 110, 250); stroke-opacity: 1; stroke-width: 2px; opacity: 1;"/></g><g class="points"/><g class="text"/></g></g></g><g class="overplot"/><path class="xlines-above crisp" d="M0,0" style="fill: none;"/><path class="ylines-above crisp" d="M0,0" style="fill: none;"/><g class="overlines-above"/><g class="xaxislayer-above"><g class="xtick"><text text-anchor="middle" x="0" y="433" transform="translate(172.87,0)" style="font-family: 'Open Sans', verdana, arial, sans-serif; font-size: 12px; fill: rgb(42, 63, 95); fill-opacity: 1; white-space: pre; opacity: 1;">Sep 2022</text></g><g class="xtick"><text text-anchor="middle" x="0" y="433" style="font-family: 'Open Sans', verdana, arial, sans-serif; font-size: 12px; fill: rgb(42, 63, 95); fill-opacity: 1; white-space: pre; opacity: 1;" transform="translate(276.05,0)">Oct 2022</text></g><g class="xtick"><text text-anchor="middle" x="0" y="433" style="font-family: 'Open Sans', verdana, arial, sans-serif; font-size: 12px; fill: rgb(42, 63, 95); fill-opacity: 1; white-space: pre; opacity: 1;" transform="translate(382.68,0)">Nov 2022</text></g><g class="xtick"><text text-anchor="middle" x="0" y="433" style="font-family: 'Open Sans', verdana, arial, sans-serif; font-size: 12px; fill: rgb(42, 63, 95); fill-opacity: 1; white-space: pre; opacity: 1;" transform="translate(485.86,0)">Dec 2022</text></g><g class="xtick"><text text-anchor="middle" x="0" y="433" style="font-family: 'Open Sans', verdana, arial, sans-serif; font-size: 12px; fill: rgb(42, 63, 95); fill-opacity: 1; white-space: pre; opacity: 1;" transform="translate(592.48,0)">Jan 2023</text></g></g><g class="yaxislayer-above"><g class="ytick"><text text-anchor="end" x="79" y="4.199999999999999" transform="translate(0,388.38)" style="font-family: 'Open Sans', verdana, arial, sans-serif; font-size: 12px; fill: rgb(42, 63, 95); fill-opacity: 1; white-space: pre; opacity: 1;">$0</text></g><g class="ytick"><text text-anchor="end" x="79" y="4.199999999999999" style="font-family: 'Open Sans', verdana, arial, sans-serif; font-size: 12px; fill: rgb(42, 63, 95); fill-opacity: 1; white-space: pre; opacity: 1;" transform="translate(0,329.43)">$10M</text></g><g class="ytick"><text text-anchor="end" x="79" y="4.199999999999999" style="font-family: 'Open Sans', verdana, arial, sans-serif; font-size: 12px; fill: rgb(42, 63, 95); fill-opacity: 1; white-space: pre; opacity: 1;" transform="translate(0,270.48)">$20M</text></g><g class="ytick"><text text-anchor="end" x="79" y="4.199999999999999" style="font-family: 'Open Sans', verdana, arial, sans-serif; font-size: 12px; fill: rgb(42, 63, 95); fill-opacity: 1; white-space: pre; opacity: 1;" transform="translate(0,211.53)">$30M</text></g><g class="ytick"><text text-anchor="end" x="79" y="4.199999999999999" style="font-family: 'Open Sans', verdana, arial, sans-serif; font-size: 12px; fill: rgb(42, 63, 95); fill-opacity: 1; white-space: pre; opacity: 1;" transform="translate(0,152.57999999999998)">$40M</text></g></g><g class="overaxes-above"/></g></g><g class="polarlayer"/><g class="smithlayer"/><g class="ternarylayer"/><g class="geolayer"/><g class="funnelarealayer"/><g class="pielayer"/><g class="iciclelayer"/><g class="treemaplayer"/><g class="sunburstlayer"/><g class="glimages"/><defs id="topdefs-0fc0d2"><g class="clips"/></defs><g class="layer-above"><g class="imagelayer"/><g class="shapelayer"/></g><g class="infolayer"><g class="g-gtitle"><text class="gtitle" x="35" y="50" text-anchor="start" dy="0em" style="font-family: 'Open Sans', verdana, arial, sans-serif; font-size: 17px; fill: rgb(42, 63, 95); opacity: 1; font-weight: normal; white-space: pre;"><tspan class="line" dy="0em" x="35" y="50">Stargate</tspan><tspan class="line" dy="1.3em" x="35" y="50">​<tspan style="font-size:70%" dy="-0.6em">Cumulative Net Dollar Flow since Program Announcement, Until Program End + 30 Days - At Last Price</tspan><tspan dy="0.42em">​</tspan></tspan></text></g><g class="g-xtitle"><text class="xtitle" x="350" y="460.8" text-anchor="middle" style="font-family: 'Open Sans', verdana, arial, sans-serif; font-size: 14px; fill: rgb(42, 63, 95); opacity: 1; font-weight: normal; white-space: pre;">Day</text></g><g class="g-ytitle"><text class="ytitle" transform="rotate(-90,24.168750000000003,260)" x="24.168750000000003" y="260" text-anchor="middle" style="font-family: 'Open Sans', verdana, arial, sans-serif; font-size: 14px; fill: rgb(42, 63, 95); opacity: 1; font-weight: normal; white-space: pre;">Cumulative Net Dollar Flow (N$F)</text></g></g></svg>