<svg class="main-svg" xmlns="http://www.w3.org/2000/svg" xmlns:xlink="http://www.w3.org/1999/xlink" width="700" height="500" style="" viewBox="0 0 700 500"><rect x="0" y="0" width="700" height="500" style="fill: rgb(255, 255, 255); fill-opacity: 1;"/><defs id="defs-c36eef"><g class="clips"><clipPath id="clipc36eefxyplot" class="plotclip"><rect width="540" height="320"/></clipPath><clipPath class="axesclip" id="clipc36eefx"><rect x="80" y="0" width="540" height="500"/></clipPath><clipPath class="axesclip" id="clipc36eefy"><rect x="0" y="100" width="700" height="320"/></clipPath><clipPath class="axesclip" id="clipc36eefxy"><rect x="80" y="100" width="540" height="320"/></clipPath></g><g class="gradients"/><g class="patterns"/></defs><g class="bglayer"><rect class="bg" x="80" y="100" width="540" height="320" style="fill: rgb(229, 236, 246); fill-opacity: 1; stroke-width: 0;"/></g><g class="layer-below"><g class="imagelayer"/><g class="shapelayer"/></g><g class="cartesianlayer"><g class="subplot xy"><g class="layer-subplot"><g class="shapelayer"/><g class="imagelayer"/></g><g class="minor-gridlayer"><g class="x"/><g class="y"/></g><g class="gridlayer"><g class="x"><path class="xgrid crisp" transform="translate(132.46,0)" d="M0,100v320" style="stroke: rgb(255, 255, 255); stroke-opacity: 1; stroke-width: 1px;"/><path class="xgrid crisp" transform="translate(228.11,0)" d="M0,100v320" style="stroke: rgb(255, 255, 255); stroke-opacity: 1; stroke-width: 1px;"/><path class="xgrid crisp" transform="translate(320.69,0)" d="M0,100v320" style="stroke: rgb(255, 255, 255); stroke-opacity: 1; stroke-width: 1px;"/><path class="xgrid crisp" transform="translate(416.34,0)" d="M0,100v320" style="stroke: rgb(255, 255, 255); stroke-opacity: 1; stroke-width: 1px;"/><path class="xgrid crisp" transform="translate(508.91,0)" d="M0,100v320" style="stroke: rgb(255, 255, 255); stroke-opacity: 1; stroke-width: 1px;"/><path class="xgrid crisp" transform="translate(604.57,0)" d="M0,100v320" style="stroke: rgb(255, 255, 255); stroke-opacity: 1; stroke-width: 1px;"/></g><g class="y"><path class="ygrid crisp" transform="translate(0,375.9)" d="M80,0h540" style="stroke: rgb(255, 255, 255); stroke-opacity: 1; stroke-width: 1px;"/><path class="ygrid crisp" transform="translate(0,331.78999999999996)" d="M80,0h540" style="stroke: rgb(255, 255, 255); stroke-opacity: 1; stroke-width: 1px;"/><path class="ygrid crisp" transform="translate(0,287.69)" d="M80,0h540" style="stroke: rgb(255, 255, 255); stroke-opacity: 1; stroke-width: 1px;"/><path class="ygrid crisp" transform="translate(0,243.58)" d="M80,0h540" style="stroke: rgb(255, 255, 255); stroke-opacity: 1; stroke-width: 1px;"/><path class="ygrid crisp" transform="translate(0,199.48000000000002)" d="M80,0h540" style="stroke: rgb(255, 255, 255); stroke-opacity: 1; stroke-width: 1px;"/><path class="ygrid crisp" transform="translate(0,155.37)" d="M80,0h540" style="stroke: rgb(255, 255, 255); stroke-opacity: 1; stroke-width: 1px;"/><path class="ygrid crisp" transform="translate(0,111.27)" d="M80,0h540" style="stroke: rgb(255, 255, 255); stroke-opacity: 1; stroke-width: 1px;"/></g></g><g class="zerolinelayer"><path class="yzl zl crisp" transform="translate(0,420)" d="M80,0h540" style="stroke: rgb(255, 255, 255); stroke-opacity: 1; stroke-width: 2px;"/></g><path class="xlines-below"/><path class="ylines-below"/><g class="overlines-below"/><g class="xaxislayer-below"/><g class="yaxislayer-below"/><g class="overaxes-below"/><g class="plot" transform="translate(80,100)" clip-path="url(#clipc36eefxyplot)"><g class="scatterlayer mlayer"><g class="trace scatter trace72cabd" style="stroke-miterlimit: 2;"><g class="fills"><g><path class="js-fill" d="M540,320L0,320L0,319.88L6.17,313.44L9.26,311.82L12.34,308.84L15.43,308.08L18.51,306.6L21.6,288.74L24.69,283.92L27.77,283.36L30.86,275.3L33.94,274.05L37.03,270.15L40.11,270.07L46.29,257.07L49.37,253.99L52.46,248.3L55.54,226.85L58.63,225.6L61.71,228.49L64.8,222.78L67.89,112.52L70.97,96.98L74.06,58.17L77.14,42.96L80.23,61.1L83.31,66.86L86.4,68.17L89.49,71.28L92.57,72.32L95.66,74.04L98.74,77.79L101.83,81.82L104.91,105.62L111.09,125.78L114.17,122.01L117.26,121.84L120.34,158.32L123.43,154.19L126.51,156.41L132.69,157.45L135.77,156.8L138.86,157.66L141.94,156.18L145.03,155.96L148.11,154.64L151.2,151.3L154.29,150.61L157.37,147.76L160.46,146.57L163.54,148.44L166.63,151.71L169.71,147.98L172.8,117.81L175.89,106.17L178.97,105.01L182.06,105.63L185.14,98.5L188.23,158.17L191.31,162.74L197.49,156.54L200.57,151.58L203.66,144.08L206.74,131.99L209.83,146.26L212.91,142.6L216,135.85L219.09,121.03L222.17,82.03L225.26,81.32L228.34,80.75L231.43,68.16L234.51,76.43L237.6,71.19L240.69,62L243.77,59.51L246.86,60.04L249.94,76.41L253.03,69.49L256.11,70.17L259.2,71.2L262.29,71L265.37,68.83L268.46,57.54L271.54,53.09L274.63,55.63L277.71,59.41L280.8,67.46L283.89,26.27L286.97,32.82L290.06,56L293.14,56.25L296.23,56.03L299.31,61.18L302.4,60.56L305.49,60.83L308.57,61.5L311.66,60.79L314.74,62.58L317.83,63.06L320.91,64.16L324,75.78L327.09,76.12L330.17,81.76L333.26,79.97L336.34,70.81L339.43,71.12L342.51,50.42L345.6,49.73L348.69,46.36L354.86,44.84L357.94,44.11L361.03,61.06L364.11,90.62L370.29,92.96L373.37,91.48L376.46,91.81L379.54,90.14L388.8,86.79L391.89,86.97L398.06,82.67L401.14,80.57L404.23,79.42L407.31,52.91L410.4,48.57L413.49,56.85L416.57,64.57L419.66,38.44L422.74,38.11L425.83,41.23L428.91,39.02L432,40.76L435.09,65.81L438.17,67.08L444.34,69.97L447.43,67.88L450.51,69.31L453.6,67.27L456.69,66.26L459.77,53.95L462.86,46.02L465.94,41.83L469.03,40.85L472.11,38.57L475.2,36.86L478.29,58.71L481.37,57.38L484.46,39.73L487.54,38.44L490.63,38.53L496.8,36.15L499.89,19.89L502.97,20.07L506.06,17.36L512.23,16L515.31,26.84L521.49,24.72L524.57,18.91L530.74,22.71L533.83,30.94L536.91,29.12L540,28.41" style="fill: rgb(99, 110, 250); fill-opacity: 0.5; stroke-width: 0;"/></g></g><g class="errorbars"/><g class="lines"><path class="js-line" d="M0,319.88L6.17,313.44L9.26,311.82L12.34,308.84L15.43,308.08L18.51,306.6L21.6,288.74L24.69,283.92L27.77,283.36L30.86,275.3L33.94,274.05L37.03,270.15L40.11,270.07L46.29,257.07L49.37,253.99L52.46,248.3L55.54,226.85L58.63,225.6L61.71,228.49L64.8,222.78L67.89,112.52L70.97,96.98L74.06,58.17L77.14,42.96L80.23,61.1L83.31,66.86L86.4,68.17L89.49,71.28L92.57,72.32L95.66,74.04L98.74,77.79L101.83,81.82L104.91,105.62L111.09,125.78L114.17,122.01L117.26,121.84L120.34,158.32L123.43,154.19L126.51,156.41L132.69,157.45L135.77,156.8L138.86,157.66L141.94,156.18L145.03,155.96L148.11,154.64L151.2,151.3L154.29,150.61L157.37,147.76L160.46,146.57L163.54,148.44L166.63,151.71L169.71,147.98L172.8,117.81L175.89,106.17L178.97,105.01L182.06,105.63L185.14,98.5L188.23,158.17L191.31,162.74L197.49,156.54L200.57,151.58L203.66,144.08L206.74,131.99L209.83,146.26L212.91,142.6L216,135.85L219.09,121.03L222.17,82.03L225.26,81.32L228.34,80.75L231.43,68.16L234.51,76.43L237.6,71.19L240.69,62L243.77,59.51L246.86,60.04L249.94,76.41L253.03,69.49L256.11,70.17L259.2,71.2L262.29,71L265.37,68.83L268.46,57.54L271.54,53.09L274.63,55.63L277.71,59.41L280.8,67.46L283.89,26.27L286.97,32.82L290.06,56L293.14,56.25L296.23,56.03L299.31,61.18L302.4,60.56L305.49,60.83L308.57,61.5L311.66,60.79L314.74,62.58L317.83,63.06L320.91,64.16L324,75.78L327.09,76.12L330.17,81.76L333.26,79.97L336.34,70.81L339.43,71.12L342.51,50.42L345.6,49.73L348.69,46.36L354.86,44.84L357.94,44.11L361.03,61.06L364.11,90.62L370.29,92.96L373.37,91.48L376.46,91.81L379.54,90.14L388.8,86.79L391.89,86.97L398.06,82.67L401.14,80.57L404.23,79.42L407.31,52.91L410.4,48.57L413.49,56.85L416.57,64.57L419.66,38.44L422.74,38.11L425.83,41.23L428.91,39.02L432,40.76L435.09,65.81L438.17,67.08L444.34,69.97L447.43,67.88L450.51,69.31L453.6,67.27L456.69,66.26L459.77,53.95L462.86,46.02L465.94,41.83L469.03,40.85L472.11,38.57L475.2,36.86L478.29,58.71L481.37,57.38L484.46,39.73L487.54,38.44L490.63,38.53L496.8,36.15L499.89,19.89L502.97,20.07L506.06,17.36L512.23,16L515.31,26.84L521.49,24.72L524.57,18.91L530.74,22.71L533.83,30.94L536.91,29.12L540,28.41" style="vector-effect: non-scaling-stroke; fill: none; stroke: rgb(99, 110, 250); stroke-opacity: 1; stroke-width: 2px; opacity: 1;"/></g><g class="points"/><g class="text"/></g></g></g><g class="overplot"/><path class="xlines-above crisp" d="M0,0" style="fill: none;"/><path class="ylines-above crisp" d="M0,0" style="fill: none;"/><g class="overlines-above"/><g class="xaxislayer-above"><g class="xtick"><text text-anchor="middle" x="0" y="433" transform="translate(132.46,0)" style="font-family: 'Open Sans', verdana, arial, sans-serif; font-size: 12px; fill: rgb(42, 63, 95); fill-opacity: 1; white-space: pre; opacity: 1;">Aug 2022</text></g><g class="xtick"><text text-anchor="middle" x="0" y="433" style="font-family: 'Open Sans', verdana, arial, sans-serif; font-size: 12px; fill: rgb(42, 63, 95); fill-opacity: 1; white-space: pre; opacity: 1;" transform="translate(228.11,0)">Sep 2022</text></g><g class="xtick"><text text-anchor="middle" x="0" y="433" style="font-family: 'Open Sans', verdana, arial, sans-serif; font-size: 12px; fill: rgb(42, 63, 95); fill-opacity: 1; white-space: pre; opacity: 1;" transform="translate(320.69,0)">Oct 2022</text></g><g class="xtick"><text text-anchor="middle" x="0" y="433" style="font-family: 'Open Sans', verdana, arial, sans-serif; font-size: 12px; fill: rgb(42, 63, 95); fill-opacity: 1; white-space: pre; opacity: 1;" transform="translate(416.34,0)">Nov 2022</text></g><g class="xtick"><text text-anchor="middle" x="0" y="433" style="font-family: 'Open Sans', verdana, arial, sans-serif; font-size: 12px; fill: rgb(42, 63, 95); fill-opacity: 1; white-space: pre; opacity: 1;" transform="translate(508.91,0)">Dec 2022</text></g><g class="xtick"><text text-anchor="middle" x="0" y="433" style="font-family: 'Open Sans', verdana, arial, sans-serif; font-size: 12px; fill: rgb(42, 63, 95); fill-opacity: 1; white-space: pre; opacity: 1;" transform="translate(604.57,0)">Jan 2023</text></g></g><g class="yaxislayer-above"><g class="ytick"><text text-anchor="end" x="79" y="4.199999999999999" transform="translate(0,420)" style="font-family: 'Open Sans', verdana, arial, sans-serif; font-size: 12px; fill: rgb(42, 63, 95); fill-opacity: 1; white-space: pre; opacity: 1;">$0</text></g><g class="ytick"><text text-anchor="end" x="79" y="4.199999999999999" style="font-family: 'Open Sans', verdana, arial, sans-serif; font-size: 12px; fill: rgb(42, 63, 95); fill-opacity: 1; white-space: pre; opacity: 1;" transform="translate(0,375.9)">$1M</text></g><g class="ytick"><text text-anchor="end" x="79" y="4.199999999999999" style="font-family: 'Open Sans', verdana, arial, sans-serif; font-size: 12px; fill: rgb(42, 63, 95); fill-opacity: 1; white-space: pre; opacity: 1;" transform="translate(0,331.78999999999996)">$2M</text></g><g class="ytick"><text text-anchor="end" x="79" y="4.199999999999999" style="font-family: 'Open Sans', verdana, arial, sans-serif; font-size: 12px; fill: rgb(42, 63, 95); fill-opacity: 1; white-space: pre; opacity: 1;" transform="translate(0,287.69)">$3M</text></g><g class="ytick"><text text-anchor="end" x="79" y="4.199999999999999" style="font-family: 'Open Sans', verdana, arial, sans-serif; font-size: 12px; fill: rgb(42, 63, 95); fill-opacity: 1; white-space: pre; opacity: 1;" transform="translate(0,243.58)">$4M</text></g><g class="ytick"><text text-anchor="end" x="79" y="4.199999999999999" style="font-family: 'Open Sans', verdana, arial, sans-serif; font-size: 12px; fill: rgb(42, 63, 95); fill-opacity: 1; white-space: pre; opacity: 1;" transform="translate(0,199.48000000000002)">$5M</text></g><g class="ytick"><text text-anchor="end" x="79" y="4.199999999999999" style="font-family: 'Open Sans', verdana, arial, sans-serif; font-size: 12px; fill: rgb(42, 63, 95); fill-opacity: 1; white-space: pre; opacity: 1;" transform="translate(0,155.37)">$6M</text></g><g class="ytick"><text text-anchor="end" x="79" y="4.199999999999999" style="font-family: 'Open Sans', verdana, arial, sans-serif; font-size: 12px; fill: rgb(42, 63, 95); fill-opacity: 1; white-space: pre; opacity: 1;" transform="translate(0,111.27)">$7M</text></g></g><g class="overaxes-above"/></g></g><g class="polarlayer"/><g class="smithlayer"/><g class="ternarylayer"/><g class="geolayer"/><g class="funnelarealayer"/><g class="pielayer"/><g class="iciclelayer"/><g class="treemaplayer"/><g class="sunburstlayer"/><g class="glimages"/><defs id="topdefs-c36eef"><g class="clips"/></defs><g class="layer-above"><g class="imagelayer"/><g class="shapelayer"/></g><g class="infolayer"><g class="g-gtitle"><text class="gtitle" x="35" y="50" text-anchor="start" dy="0em" style="font-family: 'Open Sans', verdana, arial, sans-serif; font-size: 17px; fill: rgb(42, 63, 95); opacity: 1; font-weight: normal; white-space: pre;"><tspan class="line" dy="0em" x="35" y="50">Rubicon</tspan><tspan class="line" dy="1.3em" x="35" y="50">​<tspan style="font-size:70%" dy="-0.6em">Cumulative Net Dollar Flow since Program Announcement, Until Program End + 30 Days - At Last Price</tspan><tspan dy="0.42em">​</tspan></tspan></text></g><g class="g-xtitle"><text class="xtitle" x="350" y="460.8" text-anchor="middle" style="font-family: 'Open Sans', verdana, arial, sans-serif; font-size: 14px; fill: rgb(42, 63, 95); opacity: 1; font-weight: normal; white-space: pre;">Day</text></g><g class="g-ytitle"><text class="ytitle" transform="rotate(-90,30.856250000000003,260)" x="30.856250000000003" y="260" text-anchor="middle" style="font-family: 'Open Sans', verdana, arial, sans-serif; font-size: 14px; fill: rgb(42, 63, 95); opacity: 1; font-weight: normal; white-space: pre;">Cumulative Net Dollar Flow (N$F)</text></g></g></svg>