<svg class="main-svg" xmlns="http://www.w3.org/2000/svg" xmlns:xlink="http://www.w3.org/1999/xlink" width="700" height="500" style="" viewBox="0 0 700 500"><rect x="0" y="0" width="700" height="500" style="fill: rgb(255, 255, 255); fill-opacity: 1;"/><defs id="defs-799ca3"><g class="clips"><clipPath id="clip799ca3xyplot" class="plotclip"><rect width="540" height="320"/></clipPath><clipPath class="axesclip" id="clip799ca3x"><rect x="80" y="0" width="540" height="500"/></clipPath><clipPath class="axesclip" id="clip799ca3y"><rect x="0" y="100" width="700" height="320"/></clipPath><clipPath class="axesclip" id="clip799ca3xy"><rect x="80" y="100" width="540" height="320"/></clipPath></g><g class="gradients"/><g class="patterns"/></defs><g class="bglayer"><rect class="bg" x="80" y="100" width="540" height="320" style="fill: rgb(229, 236, 246); fill-opacity: 1; stroke-width: 0;"/></g><g class="layer-below"><g class="imagelayer"/><g class="shapelayer"/></g><g class="cartesianlayer"><g class="subplot xy"><g class="layer-subplot"><g class="shapelayer"/><g class="imagelayer"/></g><g class="minor-gridlayer"><g class="x"/><g class="y"/></g><g class="gridlayer"><g class="x"><path class="xgrid crisp" transform="translate(114.56,0)" d="M0,100v320" style="stroke: rgb(255, 255, 255); stroke-opacity: 1; stroke-width: 1px;"/><path class="xgrid crisp" transform="translate(244.16,0)" d="M0,100v320" style="stroke: rgb(255, 255, 255); stroke-opacity: 1; stroke-width: 1px;"/><path class="xgrid crisp" transform="translate(378.08,0)" d="M0,100v320" style="stroke: rgb(255, 255, 255); stroke-opacity: 1; stroke-width: 1px;"/><path class="xgrid crisp" transform="translate(512,0)" d="M0,100v320" style="stroke: rgb(255, 255, 255); stroke-opacity: 1; stroke-width: 1px;"/></g><g class="y"><path class="ygrid crisp" transform="translate(0,397.88)" d="M80,0h540" style="stroke: rgb(255, 255, 255); stroke-opacity: 1; stroke-width: 1px;"/><path class="ygrid crisp" transform="translate(0,359.82)" d="M80,0h540" style="stroke: rgb(255, 255, 255); stroke-opacity: 1; stroke-width: 1px;"/><path class="ygrid crisp" transform="translate(0,321.76)" d="M80,0h540" style="stroke: rgb(255, 255, 255); stroke-opacity: 1; stroke-width: 1px;"/><path class="ygrid crisp" transform="translate(0,245.63)" d="M80,0h540" style="stroke: rgb(255, 255, 255); stroke-opacity: 1; stroke-width: 1px;"/><path class="ygrid crisp" transform="translate(0,207.57)" d="M80,0h540" style="stroke: rgb(255, 255, 255); stroke-opacity: 1; stroke-width: 1px;"/><path class="ygrid crisp" transform="translate(0,169.51)" d="M80,0h540" style="stroke: rgb(255, 255, 255); stroke-opacity: 1; stroke-width: 1px;"/><path class="ygrid crisp" transform="translate(0,131.45)" d="M80,0h540" style="stroke: rgb(255, 255, 255); stroke-opacity: 1; stroke-width: 1px;"/></g></g><g class="zerolinelayer"><path class="yzl zl crisp" transform="translate(0,283.7)" d="M80,0h540" style="stroke: rgb(255, 255, 255); stroke-opacity: 1; stroke-width: 2px;"/></g><path class="xlines-below"/><path class="ylines-below"/><g class="overlines-below"/><g class="xaxislayer-below"/><g class="yaxislayer-below"/><g class="overaxes-below"/><g class="plot" transform="translate(80,100)" clip-path="url(#clip799ca3xyplot)"><g class="scatterlayer mlayer"><g class="trace scatter tracedc889e" style="stroke-miterlimit: 2;"><g class="fills"><g><path class="js-fill" d="M540,183.7L0,183.7L0,182.3L4.32,181.63L8.64,172.88L12.96,166.11L17.28,168.42L21.6,156.13L25.92,148.31L30.24,148.51L34.56,141.85L38.88,138.82L43.2,131.75L51.84,107.52L56.16,108.37L64.8,115.57L69.12,140.05L73.44,158.03L77.76,155.65L82.08,158.47L86.4,158.99L90.72,161.72L95.04,169.81L99.36,172.21L103.68,181.82L108,176.19L112.32,174.47L116.64,172.52L120.96,178.04L125.28,180.22L129.6,177.05L138.24,171.65L142.56,177.06L151.2,177.35L155.52,178.54L159.84,173.87L164.16,171.34L168.48,172.52L172.8,169.96L177.12,171.72L181.44,168.84L185.76,168.08L190.08,163.2L203.04,162.88L207.36,161.49L211.68,158.96L216,158.79L220.32,156.8L224.64,155.98L228.96,158.76L233.28,166.62L237.6,165.39L241.92,165.18L254.88,167.58L259.2,154.75L263.52,216.49L267.84,152.89L272.16,153.04L276.48,151.57L280.8,151.49L285.12,155.06L289.44,153.55L293.76,153.22L298.08,155.61L302.4,156.21L306.72,155.12L311.04,155.58L315.36,151.5L319.68,151.84L324,146.23L328.32,144.55L332.64,141.14L336.96,135.88L341.28,135.06L345.6,128.57L349.92,124.76L354.24,116.18L358.56,119.54L362.88,115.57L371.52,116.37L375.84,133.32L380.16,127.42L384.48,119.35L393.12,118.81L397.44,115.89L401.76,119.93L406.08,106.78L410.4,101.15L414.72,101.01L419.04,98.24L423.36,92.98L427.68,97.96L432,94.89L436.32,88.79L440.64,88.49L444.96,90.4L449.28,83.23L453.6,84.29L457.92,92.66L462.24,84.29L466.56,86.89L470.88,87.46L475.2,79.13L479.52,70.31L483.84,70.41L488.16,60.84L492.48,59.17L496.8,45.72L501.12,49.32L505.44,42.71L509.76,39.79L518.4,27.08L522.72,25.84L527.04,22.62L531.36,23.45L535.68,18.97L540,16L540,304" style="fill: rgb(99, 110, 250); fill-opacity: 0.5; stroke-width: 0;"/></g></g><g class="errorbars"/><g class="lines"><path class="js-line" d="M0,182.3L4.32,181.63L8.64,172.88L12.96,166.11L17.28,168.42L21.6,156.13L25.92,148.31L30.24,148.51L34.56,141.85L38.88,138.82L43.2,131.75L51.84,107.52L56.16,108.37L64.8,115.57L69.12,140.05L73.44,158.03L77.76,155.65L82.08,158.47L86.4,158.99L90.72,161.72L95.04,169.81L99.36,172.21L103.68,181.82L108,176.19L112.32,174.47L116.64,172.52L120.96,178.04L125.28,180.22L129.6,177.05L138.24,171.65L142.56,177.06L151.2,177.35L155.52,178.54L159.84,173.87L164.16,171.34L168.48,172.52L172.8,169.96L177.12,171.72L181.44,168.84L185.76,168.08L190.08,163.2L203.04,162.88L207.36,161.49L211.68,158.96L216,158.79L220.32,156.8L224.64,155.98L228.96,158.76L233.28,166.62L237.6,165.39L241.92,165.18L254.88,167.58L259.2,154.75L263.52,216.49L267.84,152.89L272.16,153.04L276.48,151.57L280.8,151.49L285.12,155.06L289.44,153.55L293.76,153.22L298.08,155.61L302.4,156.21L306.72,155.12L311.04,155.58L315.36,151.5L319.68,151.84L324,146.23L328.32,144.55L332.64,141.14L336.96,135.88L341.28,135.06L345.6,128.57L349.92,124.76L354.24,116.18L358.56,119.54L362.88,115.57L371.52,116.37L375.84,133.32L380.16,127.42L384.48,119.35L393.12,118.81L397.44,115.89L401.76,119.93L406.08,106.78L410.4,101.15L414.72,101.01L419.04,98.24L423.36,92.98L427.68,97.96L432,94.89L436.32,88.79L440.64,88.49L444.96,90.4L449.28,83.23L453.6,84.29L457.92,92.66L462.24,84.29L466.56,86.89L470.88,87.46L475.2,79.13L479.52,70.31L483.84,70.41L488.16,60.84L492.48,59.17L496.8,45.72L501.12,49.32L505.44,42.71L509.76,39.79L518.4,27.08L522.72,25.84L527.04,22.62L531.36,23.45L535.68,18.97L540,16L540,304" style="vector-effect: non-scaling-stroke; fill: none; stroke: rgb(99, 110, 250); stroke-opacity: 1; stroke-width: 2px; opacity: 1;"/></g><g class="points"/><g class="text"/></g></g></g><g class="overplot"/><path class="xlines-above crisp" d="M0,0" style="fill: none;"/><path class="ylines-above crisp" d="M0,0" style="fill: none;"/><g class="overlines-above"/><g class="xaxislayer-above"><g class="xtick"><text text-anchor="middle" x="0" y="433" transform="translate(114.56,0)" style="font-family: 'Open Sans', verdana, arial, sans-serif; font-size: 12px; fill: rgb(42, 63, 95); fill-opacity: 1; white-space: pre; opacity: 1;">Nov 2022</text></g><g class="xtick"><text text-anchor="middle" x="0" y="433" style="font-family: 'Open Sans', verdana, arial, sans-serif; font-size: 12px; fill: rgb(42, 63, 95); fill-opacity: 1; white-space: pre; opacity: 1;" transform="translate(244.16,0)">Dec 2022</text></g><g class="xtick"><text text-anchor="middle" x="0" y="433" style="font-family: 'Open Sans', verdana, arial, sans-serif; font-size: 12px; fill: rgb(42, 63, 95); fill-opacity: 1; white-space: pre; opacity: 1;" transform="translate(378.08,0)">Jan 2023</text></g><g class="xtick"><text text-anchor="middle" x="0" y="433" style="font-family: 'Open Sans', verdana, arial, sans-serif; font-size: 12px; fill: rgb(42, 63, 95); fill-opacity: 1; white-space: pre; opacity: 1;" transform="translate(512,0)">Feb 2023</text></g></g><g class="yaxislayer-above"><g class="ytick"><text text-anchor="end" x="79" y="4.199999999999999" transform="translate(0,397.88)" style="font-family: 'Open Sans', verdana, arial, sans-serif; font-size: 12px; fill: rgb(42, 63, 95); fill-opacity: 1; white-space: pre; opacity: 1;">$−30M</text></g><g class="ytick"><text text-anchor="end" x="79" y="4.199999999999999" style="font-family: 'Open Sans', verdana, arial, sans-serif; font-size: 12px; fill: rgb(42, 63, 95); fill-opacity: 1; white-space: pre; opacity: 1;" transform="translate(0,359.82)">$−20M</text></g><g class="ytick"><text text-anchor="end" x="79" y="4.199999999999999" style="font-family: 'Open Sans', verdana, arial, sans-serif; font-size: 12px; fill: rgb(42, 63, 95); fill-opacity: 1; white-space: pre; opacity: 1;" transform="translate(0,321.76)">$−10M</text></g><g class="ytick"><text text-anchor="end" x="79" y="4.199999999999999" style="font-family: 'Open Sans', verdana, arial, sans-serif; font-size: 12px; fill: rgb(42, 63, 95); fill-opacity: 1; white-space: pre; opacity: 1;" transform="translate(0,283.7)">$0</text></g><g class="ytick"><text text-anchor="end" x="79" y="4.199999999999999" style="font-family: 'Open Sans', verdana, arial, sans-serif; font-size: 12px; fill: rgb(42, 63, 95); fill-opacity: 1; white-space: pre; opacity: 1;" transform="translate(0,245.63)">$10M</text></g><g class="ytick"><text text-anchor="end" x="79" y="4.199999999999999" style="font-family: 'Open Sans', verdana, arial, sans-serif; font-size: 12px; fill: rgb(42, 63, 95); fill-opacity: 1; white-space: pre; opacity: 1;" transform="translate(0,207.57)">$20M</text></g><g class="ytick"><text text-anchor="end" x="79" y="4.199999999999999" style="font-family: 'Open Sans', verdana, arial, sans-serif; font-size: 12px; fill: rgb(42, 63, 95); fill-opacity: 1; white-space: pre; opacity: 1;" transform="translate(0,169.51)">$30M</text></g><g class="ytick"><text text-anchor="end" x="79" y="4.199999999999999" style="font-family: 'Open Sans', verdana, arial, sans-serif; font-size: 12px; fill: rgb(42, 63, 95); fill-opacity: 1; white-space: pre; opacity: 1;" transform="translate(0,131.45)">$40M</text></g></g><g class="overaxes-above"/></g></g><g class="polarlayer"/><g class="smithlayer"/><g class="ternarylayer"/><g class="geolayer"/><g class="funnelarealayer"/><g class="pielayer"/><g class="iciclelayer"/><g class="treemaplayer"/><g class="sunburstlayer"/><g class="glimages"/><defs id="topdefs-799ca3"><g class="clips"/></defs><g class="layer-above"><g class="imagelayer"/><g class="shapelayer"/></g><g class="infolayer"><g class="g-gtitle"><text class="gtitle" x="35" y="50" text-anchor="start" dy="0em" style="font-family: 'Open Sans', verdana, arial, sans-serif; font-size: 17px; fill: rgb(42, 63, 95); opacity: 1; font-weight: normal; white-space: pre;"><tspan class="line" dy="0em" x="35" y="50">Beefy*</tspan><tspan class="line" dy="1.3em" x="35" y="50">​<tspan style="font-size:70%" dy="-0.6em">Cumulative Net Flows since Program Announcement, Until Program End + 30 Days - At Last Price</tspan><tspan dy="0.42em">​</tspan></tspan></text></g><g class="g-xtitle"><text class="xtitle" x="350" y="460.8" text-anchor="middle" style="font-family: 'Open Sans', verdana, arial, sans-serif; font-size: 14px; fill: rgb(42, 63, 95); opacity: 1; font-weight: normal; white-space: pre;">Day</text></g><g class="g-ytitle"><text class="ytitle" transform="rotate(-90,17.168750000000003,260)" x="17.168750000000003" y="260" text-anchor="middle" style="font-family: 'Open Sans', verdana, arial, sans-serif; font-size: 14px; fill: rgb(42, 63, 95); opacity: 1; font-weight: normal; white-space: pre;">Cumulative Net Flows (USD)</text></g></g></svg>