<svg class="main-svg" xmlns="http://www.w3.org/2000/svg" xmlns:xlink="http://www.w3.org/1999/xlink" width="700" height="500" style="" viewBox="0 0 700 500"><rect x="0" y="0" width="700" height="500" style="fill: rgb(255, 255, 255); fill-opacity: 1;"/><defs id="defs-224c1c"><g class="clips"><clipPath id="clip224c1cxyplot" class="plotclip"><rect width="540" height="320"/></clipPath><clipPath class="axesclip" id="clip224c1cx"><rect x="80" y="0" width="540" height="500"/></clipPath><clipPath class="axesclip" id="clip224c1cy"><rect x="0" y="100" width="700" height="320"/></clipPath><clipPath class="axesclip" id="clip224c1cxy"><rect x="80" y="100" width="540" height="320"/></clipPath></g><g class="gradients"/><g class="patterns"/></defs><g class="bglayer"><rect class="bg" x="80" y="100" width="540" height="320" style="fill: rgb(229, 236, 246); fill-opacity: 1; stroke-width: 0;"/></g><g class="layer-below"><g class="imagelayer"/><g class="shapelayer"/></g><g class="cartesianlayer"><g class="subplot xy"><g class="layer-subplot"><g class="shapelayer"/><g class="imagelayer"/></g><g class="minor-gridlayer"><g class="x"/><g class="y"/></g><g class="gridlayer"><g class="x"><path class="xgrid crisp" transform="translate(142.5,0)" d="M0,100v320" style="stroke: rgb(255, 255, 255); stroke-opacity: 1; stroke-width: 1px;"/><path class="xgrid crisp" transform="translate(256.48,0)" d="M0,100v320" style="stroke: rgb(255, 255, 255); stroke-opacity: 1; stroke-width: 1px;"/><path class="xgrid crisp" transform="translate(366.77,0)" d="M0,100v320" style="stroke: rgb(255, 255, 255); stroke-opacity: 1; stroke-width: 1px;"/><path class="xgrid crisp" transform="translate(480.75,0)" d="M0,100v320" style="stroke: rgb(255, 255, 255); stroke-opacity: 1; stroke-width: 1px;"/><path class="xgrid crisp" transform="translate(591.05,0)" d="M0,100v320" style="stroke: rgb(255, 255, 255); stroke-opacity: 1; stroke-width: 1px;"/></g><g class="y"><path class="ygrid crisp" transform="translate(0,374.35)" d="M80,0h540" style="stroke: rgb(255, 255, 255); stroke-opacity: 1; stroke-width: 1px;"/><path class="ygrid crisp" transform="translate(0,328.71000000000004)" d="M80,0h540" style="stroke: rgb(255, 255, 255); stroke-opacity: 1; stroke-width: 1px;"/><path class="ygrid crisp" transform="translate(0,283.06)" d="M80,0h540" style="stroke: rgb(255, 255, 255); stroke-opacity: 1; stroke-width: 1px;"/><path class="ygrid crisp" transform="translate(0,237.42)" d="M80,0h540" style="stroke: rgb(255, 255, 255); stroke-opacity: 1; stroke-width: 1px;"/><path class="ygrid crisp" transform="translate(0,191.76999999999998)" d="M80,0h540" style="stroke: rgb(255, 255, 255); stroke-opacity: 1; stroke-width: 1px;"/><path class="ygrid crisp" transform="translate(0,146.12)" d="M80,0h540" style="stroke: rgb(255, 255, 255); stroke-opacity: 1; stroke-width: 1px;"/></g></g><g class="zerolinelayer"><path class="yzl zl crisp" transform="translate(0,420)" d="M80,0h540" style="stroke: rgb(255, 255, 255); stroke-opacity: 1; stroke-width: 2px;"/></g><path class="xlines-below"/><path class="ylines-below"/><g class="overlines-below"/><g class="xaxislayer-below"/><g class="yaxislayer-below"/><g class="overaxes-below"/><g class="plot" transform="translate(80,100)" clip-path="url(#clip224c1cxyplot)"><g class="scatterlayer mlayer"><g class="trace scatter tracedf9637" style="stroke-miterlimit: 2;"><g class="fills"><g><path class="js-fill" d="M540,320L0,320L0,319.88L7.35,313.21L11.03,311.53L14.71,308.45L18.38,307.67L22.06,306.13L25.74,287.65L29.41,282.66L33.09,282.08L36.77,273.74L40.44,272.44L44.12,268.4L47.8,268.32L55.15,254.87L58.83,251.68L62.5,245.79L66.18,223.6L69.86,222.3L73.53,225.29L77.21,219.38L80.89,105.27L84.56,89.19L88.24,49.02L91.91,33.28L95.59,52.05L99.27,58.01L102.94,59.36L106.62,62.59L110.3,63.67L113.97,65.44L117.65,69.32L121.33,73.49L125,98.13L132.36,118.99L136.03,115.09L139.71,114.92L143.39,152.67L147.06,148.39L150.74,150.69L158.09,151.77L161.77,151.1L165.45,151.99L169.12,150.45L172.8,150.23L176.48,148.86L180.15,145.4L183.83,144.69L187.51,141.74L191.18,140.51L194.86,142.45L198.54,145.83L202.21,141.97L205.89,110.74L209.57,98.7L213.24,97.5L216.92,98.14L220.6,90.76L224.27,152.52L227.95,157.24L235.3,150.82L238.98,145.69L242.66,137.93L246.33,125.42L250.01,140.19L253.69,136.41L257.36,129.41L261.04,114.08L264.72,73.71L268.39,72.98L272.07,72.39L275.74,59.36L279.42,67.92L283.1,62.49L286.77,52.98L290.45,50.41L294.13,50.95L297.8,67.9L301.48,60.74L305.16,61.44L308.83,62.51L312.51,62.3L316.19,60.05L319.86,48.37L323.54,43.76L327.22,46.39L330.89,50.3L334.57,58.63L338.25,16L341.92,22.78L345.6,46.78L349.28,47.03L352.95,46.8L356.63,52.14L360.31,51.49L363.98,51.77L367.66,52.46L371.34,51.73L375.01,53.59L378.69,54.08L382.37,55.21L386.04,67.24L389.72,67.6L393.4,73.43L397.07,71.58L400.75,62.11L404.43,62.42L408.1,41L411.78,40.28L415.46,36.8L422.81,35.22L426.49,34.47L430.16,52.01L433.84,82.6L441.19,85.02L444.87,83.49L448.55,83.84L452.22,82.1L463.25,78.64L466.93,78.83L474.28,74.38L477.96,72.2L481.63,71.01L485.31,43.57L488.99,39.09L492.66,47.66L496.34,55.64L500.02,28.6L503.69,28.26L507.37,31.49L511.05,29.2L514.72,31L518.4,56.93L522.08,58.24L529.43,61.23L533.11,59.07L536.78,60.54L540,58.52" style="fill: rgb(99, 110, 250); fill-opacity: 0.5; stroke-width: 0;"/></g></g><g class="errorbars"/><g class="lines"><path class="js-line" d="M0,319.88L7.35,313.21L11.03,311.53L14.71,308.45L18.38,307.67L22.06,306.13L25.74,287.65L29.41,282.66L33.09,282.08L36.77,273.74L40.44,272.44L44.12,268.4L47.8,268.32L55.15,254.87L58.83,251.68L62.5,245.79L66.18,223.6L69.86,222.3L73.53,225.29L77.21,219.38L80.89,105.27L84.56,89.19L88.24,49.02L91.91,33.28L95.59,52.05L99.27,58.01L102.94,59.36L106.62,62.59L110.3,63.67L113.97,65.44L117.65,69.32L121.33,73.49L125,98.13L132.36,118.99L136.03,115.09L139.71,114.92L143.39,152.67L147.06,148.39L150.74,150.69L158.09,151.77L161.77,151.1L165.45,151.99L169.12,150.45L172.8,150.23L176.48,148.86L180.15,145.4L183.83,144.69L187.51,141.74L191.18,140.51L194.86,142.45L198.54,145.83L202.21,141.97L205.89,110.74L209.57,98.7L213.24,97.5L216.92,98.14L220.6,90.76L224.27,152.52L227.95,157.24L235.3,150.82L238.98,145.69L242.66,137.93L246.33,125.42L250.01,140.19L253.69,136.41L257.36,129.41L261.04,114.08L264.72,73.71L268.39,72.98L272.07,72.39L275.74,59.36L279.42,67.92L283.1,62.49L286.77,52.98L290.45,50.41L294.13,50.95L297.8,67.9L301.48,60.74L305.16,61.44L308.83,62.51L312.51,62.3L316.19,60.05L319.86,48.37L323.54,43.76L327.22,46.39L330.89,50.3L334.57,58.63L338.25,16L341.92,22.78L345.6,46.78L349.28,47.03L352.95,46.8L356.63,52.14L360.31,51.49L363.98,51.77L367.66,52.46L371.34,51.73L375.01,53.59L378.69,54.08L382.37,55.21L386.04,67.24L389.72,67.6L393.4,73.43L397.07,71.58L400.75,62.11L404.43,62.42L408.1,41L411.78,40.28L415.46,36.8L422.81,35.22L426.49,34.47L430.16,52.01L433.84,82.6L441.19,85.02L444.87,83.49L448.55,83.84L452.22,82.1L463.25,78.64L466.93,78.83L474.28,74.38L477.96,72.2L481.63,71.01L485.31,43.57L488.99,39.09L492.66,47.66L496.34,55.64L500.02,28.6L503.69,28.26L507.37,31.49L511.05,29.2L514.72,31L518.4,56.93L522.08,58.24L529.43,61.23L533.11,59.07L536.78,60.54L540,58.52" style="vector-effect: non-scaling-stroke; fill: none; stroke: rgb(99, 110, 250); stroke-opacity: 1; stroke-width: 2px; opacity: 1;"/></g><g class="points"/><g class="text"/></g></g></g><g class="overplot"/><path class="xlines-above crisp" d="M0,0" style="fill: none;"/><path class="ylines-above crisp" d="M0,0" style="fill: none;"/><g class="overlines-above"/><g class="xaxislayer-above"><g class="xtick"><text text-anchor="middle" x="0" y="433" transform="translate(142.5,0)" style="font-family: 'Open Sans', verdana, arial, sans-serif; font-size: 12px; fill: rgb(42, 63, 95); fill-opacity: 1; white-space: pre; opacity: 1;">Aug 2022</text></g><g class="xtick"><text text-anchor="middle" x="0" y="433" style="font-family: 'Open Sans', verdana, arial, sans-serif; font-size: 12px; fill: rgb(42, 63, 95); fill-opacity: 1; white-space: pre; opacity: 1;" transform="translate(256.48,0)">Sep 2022</text></g><g class="xtick"><text text-anchor="middle" x="0" y="433" style="font-family: 'Open Sans', verdana, arial, sans-serif; font-size: 12px; fill: rgb(42, 63, 95); fill-opacity: 1; white-space: pre; opacity: 1;" transform="translate(366.77,0)">Oct 2022</text></g><g class="xtick"><text text-anchor="middle" x="0" y="433" style="font-family: 'Open Sans', verdana, arial, sans-serif; font-size: 12px; fill: rgb(42, 63, 95); fill-opacity: 1; white-space: pre; opacity: 1;" transform="translate(480.75,0)">Nov 2022</text></g><g class="xtick"><text text-anchor="middle" x="0" y="433" style="font-family: 'Open Sans', verdana, arial, sans-serif; font-size: 12px; fill: rgb(42, 63, 95); fill-opacity: 1; white-space: pre; opacity: 1;" transform="translate(591.05,0)">Dec 2022</text></g></g><g class="yaxislayer-above"><g class="ytick"><text text-anchor="end" x="79" y="4.199999999999999" transform="translate(0,420)" style="font-family: 'Open Sans', verdana, arial, sans-serif; font-size: 12px; fill: rgb(42, 63, 95); fill-opacity: 1; white-space: pre; opacity: 1;">$0</text></g><g class="ytick"><text text-anchor="end" x="79" y="4.199999999999999" style="font-family: 'Open Sans', verdana, arial, sans-serif; font-size: 12px; fill: rgb(42, 63, 95); fill-opacity: 1; white-space: pre; opacity: 1;" transform="translate(0,374.35)">$1M</text></g><g class="ytick"><text text-anchor="end" x="79" y="4.199999999999999" style="font-family: 'Open Sans', verdana, arial, sans-serif; font-size: 12px; fill: rgb(42, 63, 95); fill-opacity: 1; white-space: pre; opacity: 1;" transform="translate(0,328.71000000000004)">$2M</text></g><g class="ytick"><text text-anchor="end" x="79" y="4.199999999999999" style="font-family: 'Open Sans', verdana, arial, sans-serif; font-size: 12px; fill: rgb(42, 63, 95); fill-opacity: 1; white-space: pre; opacity: 1;" transform="translate(0,283.06)">$3M</text></g><g class="ytick"><text text-anchor="end" x="79" y="4.199999999999999" style="font-family: 'Open Sans', verdana, arial, sans-serif; font-size: 12px; fill: rgb(42, 63, 95); fill-opacity: 1; white-space: pre; opacity: 1;" transform="translate(0,237.42)">$4M</text></g><g class="ytick"><text text-anchor="end" x="79" y="4.199999999999999" style="font-family: 'Open Sans', verdana, arial, sans-serif; font-size: 12px; fill: rgb(42, 63, 95); fill-opacity: 1; white-space: pre; opacity: 1;" transform="translate(0,191.76999999999998)">$5M</text></g><g class="ytick"><text text-anchor="end" x="79" y="4.199999999999999" style="font-family: 'Open Sans', verdana, arial, sans-serif; font-size: 12px; fill: rgb(42, 63, 95); fill-opacity: 1; white-space: pre; opacity: 1;" transform="translate(0,146.12)">$6M</text></g><g class="ytick"><text text-anchor="end" x="79" y="4.199999999999999" style="font-family: 'Open Sans', verdana, arial, sans-serif; font-size: 12px; fill: rgb(42, 63, 95); fill-opacity: 1; white-space: pre; opacity: 1;" transform="translate(0,100.48)">$7M</text></g></g><g class="overaxes-above"/></g></g><g class="polarlayer"/><g class="smithlayer"/><g class="ternarylayer"/><g class="geolayer"/><g class="funnelarealayer"/><g class="pielayer"/><g class="iciclelayer"/><g class="treemaplayer"/><g class="sunburstlayer"/><g class="glimages"/><defs id="topdefs-224c1c"><g class="clips"/></defs><g class="layer-above"><g class="imagelayer"/><g class="shapelayer"/></g><g class="infolayer"><g class="g-gtitle"><text class="gtitle" x="35" y="50" text-anchor="start" dy="0em" style="font-family: 'Open Sans', verdana, arial, sans-serif; font-size: 17px; fill: rgb(42, 63, 95); opacity: 1; font-weight: normal; white-space: pre;">Rubicon: Cumulative Net Dollar Flow since Program Announcement - At Last Price</text></g><g class="g-xtitle"><text class="xtitle" x="350" y="460.8" text-anchor="middle" style="font-family: 'Open Sans', verdana, arial, sans-serif; font-size: 14px; fill: rgb(42, 63, 95); opacity: 1; font-weight: normal; white-space: pre;">Day</text></g><g class="g-ytitle"><text class="ytitle" transform="rotate(-90,30.856250000000003,260)" x="30.856250000000003" y="260" text-anchor="middle" style="font-family: 'Open Sans', verdana, arial, sans-serif; font-size: 14px; fill: rgb(42, 63, 95); opacity: 1; font-weight: normal; white-space: pre;">Cumulative Net Dollar Flow (N$F)</text></g></g></svg>