<svg class="main-svg" xmlns="http://www.w3.org/2000/svg" xmlns:xlink="http://www.w3.org/1999/xlink" width="700" height="500" style="" viewBox="0 0 700 500"><rect x="0" y="0" width="700" height="500" style="fill: rgb(255, 255, 255); fill-opacity: 1;"/><defs id="defs-8b7705"><g class="clips"><clipPath id="clip8b7705xyplot" class="plotclip"><rect width="540" height="320"/></clipPath><clipPath class="axesclip" id="clip8b7705x"><rect x="80" y="0" width="540" height="500"/></clipPath><clipPath class="axesclip" id="clip8b7705y"><rect x="0" y="100" width="700" height="320"/></clipPath><clipPath class="axesclip" id="clip8b7705xy"><rect x="80" y="100" width="540" height="320"/></clipPath></g><g class="gradients"/><g class="patterns"/></defs><g class="bglayer"><rect class="bg" x="80" y="100" width="540" height="320" style="fill: rgb(229, 236, 246); fill-opacity: 1; stroke-width: 0;"/></g><g class="layer-below"><g class="imagelayer"/><g class="shapelayer"/></g><g class="cartesianlayer"><g class="subplot xy"><g class="layer-subplot"><g class="shapelayer"/><g class="imagelayer"/></g><g class="minor-gridlayer"><g class="x"/><g class="y"/></g><g class="gridlayer"><g class="x"><path class="xgrid crisp" transform="translate(144.4,0)" d="M0,100v320" style="stroke: rgb(255, 255, 255); stroke-opacity: 1; stroke-width: 1px;"/><path class="xgrid crisp" transform="translate(213.76,0)" d="M0,100v320" style="stroke: rgb(255, 255, 255); stroke-opacity: 1; stroke-width: 1px;"/><path class="xgrid crisp" transform="translate(283.12,0)" d="M0,100v320" style="stroke: rgb(255, 255, 255); stroke-opacity: 1; stroke-width: 1px;"/><path class="xgrid crisp" transform="translate(352.48,0)" d="M0,100v320" style="stroke: rgb(255, 255, 255); stroke-opacity: 1; stroke-width: 1px;"/><path class="xgrid crisp" transform="translate(421.83,0)" d="M0,100v320" style="stroke: rgb(255, 255, 255); stroke-opacity: 1; stroke-width: 1px;"/><path class="xgrid crisp" transform="translate(491.19,0)" d="M0,100v320" style="stroke: rgb(255, 255, 255); stroke-opacity: 1; stroke-width: 1px;"/><path class="xgrid crisp" transform="translate(560.55,0)" d="M0,100v320" style="stroke: rgb(255, 255, 255); stroke-opacity: 1; stroke-width: 1px;"/></g><g class="y"><path class="ygrid crisp" transform="translate(0,315.59000000000003)" d="M80,0h540" style="stroke: rgb(255, 255, 255); stroke-opacity: 1; stroke-width: 1px;"/><path class="ygrid crisp" transform="translate(0,260.01)" d="M80,0h540" style="stroke: rgb(255, 255, 255); stroke-opacity: 1; stroke-width: 1px;"/><path class="ygrid crisp" transform="translate(0,204.43)" d="M80,0h540" style="stroke: rgb(255, 255, 255); stroke-opacity: 1; stroke-width: 1px;"/><path class="ygrid crisp" transform="translate(0,148.85)" d="M80,0h540" style="stroke: rgb(255, 255, 255); stroke-opacity: 1; stroke-width: 1px;"/></g></g><g class="zerolinelayer"><path class="yzl zl crisp" transform="translate(0,371.17)" d="M80,0h540" style="stroke: rgb(255, 255, 255); stroke-opacity: 1; stroke-width: 2px;"/></g><path class="xlines-below"/><path class="ylines-below"/><g class="overlines-below"/><g class="xaxislayer-below"/><g class="yaxislayer-below"/><g class="overaxes-below"/><g class="plot" transform="translate(80,100)" clip-path="url(#clip8b7705xyplot)"><g class="scatterlayer mlayer"><g class="trace scatter trace9b1745" style="stroke-miterlimit: 2;"><g class="fills"><g><path class="js-fill" d="M540,271.17L0,271.17L0,271.03L14.86,268.92L19.82,267.8L24.77,265.2L29.72,264.03L34.68,263.42L39.63,236.51L44.59,209.04L49.54,190.75L54.5,166.5L59.45,162L64.4,158.7L69.36,152.23L74.31,131.75L79.27,125.34L89.17,124.15L94.13,97.86L99.08,101L104.04,85.72L108.99,87.75L113.94,66.09L118.9,55.73L123.85,51.43L128.81,29.3L133.76,25.96L138.72,23.55L143.67,38.66L148.62,49.88L153.58,47.42L158.53,46.27L163.49,42.32L173.39,40.32L178.35,28.29L183.3,34.16L188.26,28.3L193.21,24.09L198.17,25.76L203.12,25.01L208.07,26.84L217.98,23.38L222.94,27.19L227.89,29.43L232.84,27.42L237.8,23.9L242.75,24.52L247.71,27.18L252.66,27.17L262.57,28.27L267.52,28.65L272.48,28.34L277.43,28.84L282.39,36.95L287.34,36.8L292.29,37.25L297.25,29.88L307.16,26.98L312.11,26.57L317.06,23.99L322.02,19.1L326.97,17.66L331.93,21.34L341.83,21.96L346.79,20.33L356.7,16L361.65,28.11L366.61,40.63L371.56,38.67L376.51,35.37L381.47,43.15L386.42,52.51L391.38,51.2L396.33,52.76L401.28,56.81L406.24,58.65L411.19,57.5L421.1,55.98L426.06,53.73L431.01,60.43L435.96,59.37L440.92,59.4L445.87,58.45L450.83,56.67L455.78,63.39L460.73,64.03L465.69,63.29L470.64,63.46L475.6,60.89L485.5,61.67L490.46,58.98L495.41,63.34L500.37,64.21L505.32,60.08L510.28,62.36L515.23,70.12L520.18,70.21L525.14,65.86L530.09,65.8L540,61.74L540,304" style="fill: rgb(99, 110, 250); fill-opacity: 0.5; stroke-width: 0;"/></g></g><g class="errorbars"/><g class="lines"><path class="js-line" d="M0,271.03L14.86,268.92L19.82,267.8L24.77,265.2L29.72,264.03L34.68,263.42L39.63,236.51L44.59,209.04L49.54,190.75L54.5,166.5L59.45,162L64.4,158.7L69.36,152.23L74.31,131.75L79.27,125.34L89.17,124.15L94.13,97.86L99.08,101L104.04,85.72L108.99,87.75L113.94,66.09L118.9,55.73L123.85,51.43L128.81,29.3L133.76,25.96L138.72,23.55L143.67,38.66L148.62,49.88L153.58,47.42L158.53,46.27L163.49,42.32L173.39,40.32L178.35,28.29L183.3,34.16L188.26,28.3L193.21,24.09L198.17,25.76L203.12,25.01L208.07,26.84L217.98,23.38L222.94,27.19L227.89,29.43L232.84,27.42L237.8,23.9L242.75,24.52L247.71,27.18L252.66,27.17L262.57,28.27L267.52,28.65L272.48,28.34L277.43,28.84L282.39,36.95L287.34,36.8L292.29,37.25L297.25,29.88L307.16,26.98L312.11,26.57L317.06,23.99L322.02,19.1L326.97,17.66L331.93,21.34L341.83,21.96L346.79,20.33L356.7,16L361.65,28.11L366.61,40.63L371.56,38.67L376.51,35.37L381.47,43.15L386.42,52.51L391.38,51.2L396.33,52.76L401.28,56.81L406.24,58.65L411.19,57.5L421.1,55.98L426.06,53.73L431.01,60.43L435.96,59.37L440.92,59.4L445.87,58.45L450.83,56.67L455.78,63.39L460.73,64.03L465.69,63.29L470.64,63.46L475.6,60.89L485.5,61.67L490.46,58.98L495.41,63.34L500.37,64.21L505.32,60.08L510.28,62.36L515.23,70.12L520.18,70.21L525.14,65.86L530.09,65.8L540,61.74L540,304" style="vector-effect: non-scaling-stroke; fill: none; stroke: rgb(99, 110, 250); stroke-opacity: 1; stroke-width: 2px; opacity: 1;"/></g><g class="points"/><g class="text"/></g></g></g><g class="overplot"/><path class="xlines-above crisp" d="M0,0" style="fill: none;"/><path class="ylines-above crisp" d="M0,0" style="fill: none;"/><g class="overlines-above"/><g class="xaxislayer-above"><g class="xtick"><text text-anchor="middle" x="0" y="433" transform="translate(144.4,0)" style="font-family: 'Open Sans', verdana, arial, sans-serif; font-size: 12px; fill: rgb(42, 63, 95); fill-opacity: 1; white-space: pre; opacity: 1;"><tspan class="line" dy="0em" x="0" y="433">Sep 11</tspan><tspan class="line" dy="1.3em" x="0" y="433">2022</tspan></text></g><g class="xtick"><text text-anchor="middle" x="0" y="433" style="font-family: 'Open Sans', verdana, arial, sans-serif; font-size: 12px; fill: rgb(42, 63, 95); fill-opacity: 1; white-space: pre; opacity: 1;" transform="translate(213.76,0)">Sep 25</text></g><g class="xtick"><text text-anchor="middle" x="0" y="433" style="font-family: 'Open Sans', verdana, arial, sans-serif; font-size: 12px; fill: rgb(42, 63, 95); fill-opacity: 1; white-space: pre; opacity: 1;" transform="translate(283.12,0)">Oct 9</text></g><g class="xtick"><text text-anchor="middle" x="0" y="433" style="font-family: 'Open Sans', verdana, arial, sans-serif; font-size: 12px; fill: rgb(42, 63, 95); fill-opacity: 1; white-space: pre; opacity: 1;" transform="translate(352.48,0)">Oct 23</text></g><g class="xtick"><text text-anchor="middle" x="0" y="433" style="font-family: 'Open Sans', verdana, arial, sans-serif; font-size: 12px; fill: rgb(42, 63, 95); fill-opacity: 1; white-space: pre; opacity: 1;" transform="translate(421.83,0)">Nov 6</text></g><g class="xtick"><text text-anchor="middle" x="0" y="433" style="font-family: 'Open Sans', verdana, arial, sans-serif; font-size: 12px; fill: rgb(42, 63, 95); fill-opacity: 1; white-space: pre; opacity: 1;" transform="translate(491.19,0)">Nov 20</text></g><g class="xtick"><text text-anchor="middle" x="0" y="433" style="font-family: 'Open Sans', verdana, arial, sans-serif; font-size: 12px; fill: rgb(42, 63, 95); fill-opacity: 1; white-space: pre; opacity: 1;" transform="translate(560.55,0)">Dec 4</text></g></g><g class="yaxislayer-above"><g class="ytick"><text text-anchor="end" x="79" y="4.199999999999999" transform="translate(0,371.17)" style="font-family: 'Open Sans', verdana, arial, sans-serif; font-size: 12px; fill: rgb(42, 63, 95); fill-opacity: 1; white-space: pre; opacity: 1;">$0</text></g><g class="ytick"><text text-anchor="end" x="79" y="4.199999999999999" style="font-family: 'Open Sans', verdana, arial, sans-serif; font-size: 12px; fill: rgb(42, 63, 95); fill-opacity: 1; white-space: pre; opacity: 1;" transform="translate(0,315.59000000000003)">$2M</text></g><g class="ytick"><text text-anchor="end" x="79" y="4.199999999999999" style="font-family: 'Open Sans', verdana, arial, sans-serif; font-size: 12px; fill: rgb(42, 63, 95); fill-opacity: 1; white-space: pre; opacity: 1;" transform="translate(0,260.01)">$4M</text></g><g class="ytick"><text text-anchor="end" x="79" y="4.199999999999999" style="font-family: 'Open Sans', verdana, arial, sans-serif; font-size: 12px; fill: rgb(42, 63, 95); fill-opacity: 1; white-space: pre; opacity: 1;" transform="translate(0,204.43)">$6M</text></g><g class="ytick"><text text-anchor="end" x="79" y="4.199999999999999" style="font-family: 'Open Sans', verdana, arial, sans-serif; font-size: 12px; fill: rgb(42, 63, 95); fill-opacity: 1; white-space: pre; opacity: 1;" transform="translate(0,148.85)">$8M</text></g></g><g class="overaxes-above"/></g></g><g class="polarlayer"/><g class="smithlayer"/><g class="ternarylayer"/><g class="geolayer"/><g class="funnelarealayer"/><g class="pielayer"/><g class="iciclelayer"/><g class="treemaplayer"/><g class="sunburstlayer"/><g class="glimages"/><defs id="topdefs-8b7705"><g class="clips"/></defs><g class="layer-above"><g class="imagelayer"/><g class="shapelayer"/></g><g class="infolayer"><g class="g-gtitle"><text class="gtitle" x="35" y="50" text-anchor="start" dy="0em" style="font-family: 'Open Sans', verdana, arial, sans-serif; font-size: 17px; fill: rgb(42, 63, 95); opacity: 1; font-weight: normal; white-space: pre;">Pika Protocol: Cumulative Net Dollar Flow since Program Announcement - At Last Price</text></g><g class="g-xtitle"><text class="xtitle" x="350" y="476.409375" text-anchor="middle" style="font-family: 'Open Sans', verdana, arial, sans-serif; font-size: 14px; fill: rgb(42, 63, 95); opacity: 1; font-weight: normal; white-space: pre;">Day</text></g><g class="g-ytitle"><text class="ytitle" transform="rotate(-90,30.856250000000003,260)" x="30.856250000000003" y="260" text-anchor="middle" style="font-family: 'Open Sans', verdana, arial, sans-serif; font-size: 14px; fill: rgb(42, 63, 95); opacity: 1; font-weight: normal; white-space: pre;">Cumulative Net Dollar Flow (N$F)</text></g></g></svg>