<svg class="main-svg" xmlns="http://www.w3.org/2000/svg" xmlns:xlink="http://www.w3.org/1999/xlink" width="700" height="500" style="" viewBox="0 0 700 500"><rect x="0" y="0" width="700" height="500" style="fill: rgb(255, 255, 255); fill-opacity: 1;"/><defs id="defs-9077cf"><g class="clips"><clipPath id="clip9077cfxyplot" class="plotclip"><rect width="540" height="320"/></clipPath><clipPath class="axesclip" id="clip9077cfx"><rect x="80" y="0" width="540" height="500"/></clipPath><clipPath class="axesclip" id="clip9077cfy"><rect x="0" y="100" width="700" height="320"/></clipPath><clipPath class="axesclip" id="clip9077cfxy"><rect x="80" y="100" width="540" height="320"/></clipPath></g><g class="gradients"/><g class="patterns"/></defs><g class="bglayer"><rect class="bg" x="80" y="100" width="540" height="320" style="fill: rgb(229, 236, 246); fill-opacity: 1; stroke-width: 0;"/></g><g class="layer-below"><g class="imagelayer"/><g class="shapelayer"/></g><g class="cartesianlayer"><g class="subplot xy"><g class="layer-subplot"><g class="shapelayer"/><g class="imagelayer"/></g><g class="minor-gridlayer"><g class="x"/><g class="y"/></g><g class="gridlayer"><g class="x"><path class="xgrid crisp" transform="translate(136.32,0)" d="M0,100v320" style="stroke: rgb(255, 255, 255); stroke-opacity: 1; stroke-width: 1px;"/><path class="xgrid crisp" transform="translate(239.02,0)" d="M0,100v320" style="stroke: rgb(255, 255, 255); stroke-opacity: 1; stroke-width: 1px;"/><path class="xgrid crisp" transform="translate(338.4,0)" d="M0,100v320" style="stroke: rgb(255, 255, 255); stroke-opacity: 1; stroke-width: 1px;"/><path class="xgrid crisp" transform="translate(441.1,0)" d="M0,100v320" style="stroke: rgb(255, 255, 255); stroke-opacity: 1; stroke-width: 1px;"/><path class="xgrid crisp" transform="translate(540.49,0)" d="M0,100v320" style="stroke: rgb(255, 255, 255); stroke-opacity: 1; stroke-width: 1px;"/></g><g class="y"><path class="ygrid crisp" transform="translate(0,375.32)" d="M80,0h540" style="stroke: rgb(255, 255, 255); stroke-opacity: 1; stroke-width: 1px;"/><path class="ygrid crisp" transform="translate(0,330.65)" d="M80,0h540" style="stroke: rgb(255, 255, 255); stroke-opacity: 1; stroke-width: 1px;"/><path class="ygrid crisp" transform="translate(0,285.97)" d="M80,0h540" style="stroke: rgb(255, 255, 255); stroke-opacity: 1; stroke-width: 1px;"/><path class="ygrid crisp" transform="translate(0,241.3)" d="M80,0h540" style="stroke: rgb(255, 255, 255); stroke-opacity: 1; stroke-width: 1px;"/><path class="ygrid crisp" transform="translate(0,196.62)" d="M80,0h540" style="stroke: rgb(255, 255, 255); stroke-opacity: 1; stroke-width: 1px;"/><path class="ygrid crisp" transform="translate(0,151.94)" d="M80,0h540" style="stroke: rgb(255, 255, 255); stroke-opacity: 1; stroke-width: 1px;"/><path class="ygrid crisp" transform="translate(0,107.27)" d="M80,0h540" style="stroke: rgb(255, 255, 255); stroke-opacity: 1; stroke-width: 1px;"/></g></g><g class="zerolinelayer"><path class="yzl zl crisp" transform="translate(0,420)" d="M80,0h540" style="stroke: rgb(255, 255, 255); stroke-opacity: 1; stroke-width: 2px;"/></g><path class="xlines-below"/><path class="ylines-below"/><g class="overlines-below"/><g class="xaxislayer-below"/><g class="yaxislayer-below"/><g class="overaxes-below"/><g class="plot" transform="translate(80,100)" clip-path="url(#clip9077cfxyplot)"><g class="scatterlayer mlayer"><g class="trace scatter tracee5ce79" style="stroke-miterlimit: 2;"><g class="fills"><g><path class="js-fill" d="M540,320L0,320L0,319.88L6.63,313.35L9.94,311.71L13.25,308.7L16.56,307.93L19.88,306.43L23.19,288.34L26.5,283.45L29.82,282.88L33.13,274.72L36.44,273.45L39.75,269.5L43.07,269.42L49.69,256.26L53.01,253.13L56.32,247.37L59.63,225.65L62.94,224.37L66.26,227.31L69.57,221.52L72.88,109.83L76.2,94.09L79.51,54.78L82.82,39.38L86.13,57.74L89.45,63.58L92.76,64.9L96.07,68.06L99.39,69.11L102.7,70.85L106.01,74.65L109.33,78.73L112.64,102.85L119.26,123.26L122.58,119.45L125.89,119.28L129.2,156.23L132.52,152.04L135.83,154.29L142.45,155.35L145.77,154.69L149.08,155.56L152.39,154.05L155.71,153.84L159.02,152.5L162.33,149.11L165.64,148.42L168.96,145.53L172.27,144.32L175.58,146.22L178.9,149.53L182.21,145.75L185.52,115.19L188.83,103.4L192.15,102.23L195.46,102.85L198.77,95.63L202.09,156.08L205.4,160.7L212.02,154.42L215.34,149.39L218.65,141.8L221.96,129.55L225.28,144.01L228.59,140.31L231.9,133.46L235.21,118.45L238.53,78.95L241.84,78.23L245.15,77.65L248.47,64.9L251.78,73.27L255.09,67.96L258.4,58.65L261.72,56.13L265.03,56.67L268.34,73.26L271.66,66.25L274.97,66.93L278.28,67.98L281.6,67.78L284.91,65.58L288.22,54.15L291.53,49.63L294.85,52.2L298.16,56.03L301.47,64.18L304.79,22.46L308.1,29.1L311.41,52.59L314.72,52.83L318.04,52.61L321.35,57.83L324.66,57.2L327.98,57.47L331.29,58.15L334.6,57.43L337.91,59.25L341.23,59.73L344.54,60.84L347.85,72.62L351.17,72.96L354.48,78.67L357.79,76.86L361.1,67.59L364.42,67.9L367.73,46.93L371.04,46.22L374.36,42.82L380.98,41.27L384.29,40.54L387.61,57.7L390.92,87.65L397.55,90.02L400.86,88.52L404.17,88.86L407.48,87.16L417.42,83.77L420.74,83.95L427.36,79.6L430.67,77.47L433.99,76.3L437.3,49.45L440.61,45.06L443.93,53.44L447.24,61.26L450.55,34.8L453.87,34.46L457.18,37.62L460.49,35.38L463.8,37.14L467.12,62.52L470.43,63.8L477.06,66.73L480.37,64.62L483.68,66.06L486.99,63.99L490.31,62.98L493.62,50.51L496.93,42.47L500.25,38.23L503.56,37.24L506.87,34.93L510.18,33.2L513.5,55.33L516.81,53.97L520.12,36.1L523.44,34.79L526.75,34.89L533.37,32.48L536.69,16L540,16.19" style="fill: rgb(99, 110, 250); fill-opacity: 0.5; stroke-width: 0;"/></g></g><g class="errorbars"/><g class="lines"><path class="js-line" d="M0,319.88L6.63,313.35L9.94,311.71L13.25,308.7L16.56,307.93L19.88,306.43L23.19,288.34L26.5,283.45L29.82,282.88L33.13,274.72L36.44,273.45L39.75,269.5L43.07,269.42L49.69,256.26L53.01,253.13L56.32,247.37L59.63,225.65L62.94,224.37L66.26,227.31L69.57,221.52L72.88,109.83L76.2,94.09L79.51,54.78L82.82,39.38L86.13,57.74L89.45,63.58L92.76,64.9L96.07,68.06L99.39,69.11L102.7,70.85L106.01,74.65L109.33,78.73L112.64,102.85L119.26,123.26L122.58,119.45L125.89,119.28L129.2,156.23L132.52,152.04L135.83,154.29L142.45,155.35L145.77,154.69L149.08,155.56L152.39,154.05L155.71,153.84L159.02,152.5L162.33,149.11L165.64,148.42L168.96,145.53L172.27,144.32L175.58,146.22L178.9,149.53L182.21,145.75L185.52,115.19L188.83,103.4L192.15,102.23L195.46,102.85L198.77,95.63L202.09,156.08L205.4,160.7L212.02,154.42L215.34,149.39L218.65,141.8L221.96,129.55L225.28,144.01L228.59,140.31L231.9,133.46L235.21,118.45L238.53,78.95L241.84,78.23L245.15,77.65L248.47,64.9L251.78,73.27L255.09,67.96L258.4,58.65L261.72,56.13L265.03,56.67L268.34,73.26L271.66,66.25L274.97,66.93L278.28,67.98L281.6,67.78L284.91,65.58L288.22,54.15L291.53,49.63L294.85,52.2L298.16,56.03L301.47,64.18L304.79,22.46L308.1,29.1L311.41,52.59L314.72,52.83L318.04,52.61L321.35,57.83L324.66,57.2L327.98,57.47L331.29,58.15L334.6,57.43L337.91,59.25L341.23,59.73L344.54,60.84L347.85,72.62L351.17,72.96L354.48,78.67L357.79,76.86L361.1,67.59L364.42,67.9L367.73,46.93L371.04,46.22L374.36,42.82L380.98,41.27L384.29,40.54L387.61,57.7L390.92,87.65L397.55,90.02L400.86,88.52L404.17,88.86L407.48,87.16L417.42,83.77L420.74,83.95L427.36,79.6L430.67,77.47L433.99,76.3L437.3,49.45L440.61,45.06L443.93,53.44L447.24,61.26L450.55,34.8L453.87,34.46L457.18,37.62L460.49,35.38L463.8,37.14L467.12,62.52L470.43,63.8L477.06,66.73L480.37,64.62L483.68,66.06L486.99,63.99L490.31,62.98L493.62,50.51L496.93,42.47L500.25,38.23L503.56,37.24L506.87,34.93L510.18,33.2L513.5,55.33L516.81,53.97L520.12,36.1L523.44,34.79L526.75,34.89L533.37,32.48L536.69,16L540,16.19" style="vector-effect: non-scaling-stroke; fill: none; stroke: rgb(99, 110, 250); stroke-opacity: 1; stroke-width: 2px; opacity: 1;"/></g><g class="points"/><g class="text"/></g></g></g><g class="overplot"/><path class="xlines-above crisp" d="M0,0" style="fill: none;"/><path class="ylines-above crisp" d="M0,0" style="fill: none;"/><g class="overlines-above"/><g class="xaxislayer-above"><g class="xtick"><text text-anchor="middle" x="0" y="433" transform="translate(136.32,0)" style="font-family: 'Open Sans', verdana, arial, sans-serif; font-size: 12px; fill: rgb(42, 63, 95); fill-opacity: 1; white-space: pre; opacity: 1;">Aug 2022</text></g><g class="xtick"><text text-anchor="middle" x="0" y="433" style="font-family: 'Open Sans', verdana, arial, sans-serif; font-size: 12px; fill: rgb(42, 63, 95); fill-opacity: 1; white-space: pre; opacity: 1;" transform="translate(239.02,0)">Sep 2022</text></g><g class="xtick"><text text-anchor="middle" x="0" y="433" style="font-family: 'Open Sans', verdana, arial, sans-serif; font-size: 12px; fill: rgb(42, 63, 95); fill-opacity: 1; white-space: pre; opacity: 1;" transform="translate(338.4,0)">Oct 2022</text></g><g class="xtick"><text text-anchor="middle" x="0" y="433" style="font-family: 'Open Sans', verdana, arial, sans-serif; font-size: 12px; fill: rgb(42, 63, 95); fill-opacity: 1; white-space: pre; opacity: 1;" transform="translate(441.1,0)">Nov 2022</text></g><g class="xtick"><text text-anchor="middle" x="0" y="433" style="font-family: 'Open Sans', verdana, arial, sans-serif; font-size: 12px; fill: rgb(42, 63, 95); fill-opacity: 1; white-space: pre; opacity: 1;" transform="translate(540.49,0)">Dec 2022</text></g></g><g class="yaxislayer-above"><g class="ytick"><text text-anchor="end" x="79" y="4.199999999999999" transform="translate(0,420)" style="font-family: 'Open Sans', verdana, arial, sans-serif; font-size: 12px; fill: rgb(42, 63, 95); fill-opacity: 1; white-space: pre; opacity: 1;">$0</text></g><g class="ytick"><text text-anchor="end" x="79" y="4.199999999999999" style="font-family: 'Open Sans', verdana, arial, sans-serif; font-size: 12px; fill: rgb(42, 63, 95); fill-opacity: 1; white-space: pre; opacity: 1;" transform="translate(0,375.32)">$1M</text></g><g class="ytick"><text text-anchor="end" x="79" y="4.199999999999999" style="font-family: 'Open Sans', verdana, arial, sans-serif; font-size: 12px; fill: rgb(42, 63, 95); fill-opacity: 1; white-space: pre; opacity: 1;" transform="translate(0,330.65)">$2M</text></g><g class="ytick"><text text-anchor="end" x="79" y="4.199999999999999" style="font-family: 'Open Sans', verdana, arial, sans-serif; font-size: 12px; fill: rgb(42, 63, 95); fill-opacity: 1; white-space: pre; opacity: 1;" transform="translate(0,285.97)">$3M</text></g><g class="ytick"><text text-anchor="end" x="79" y="4.199999999999999" style="font-family: 'Open Sans', verdana, arial, sans-serif; font-size: 12px; fill: rgb(42, 63, 95); fill-opacity: 1; white-space: pre; opacity: 1;" transform="translate(0,241.3)">$4M</text></g><g class="ytick"><text text-anchor="end" x="79" y="4.199999999999999" style="font-family: 'Open Sans', verdana, arial, sans-serif; font-size: 12px; fill: rgb(42, 63, 95); fill-opacity: 1; white-space: pre; opacity: 1;" transform="translate(0,196.62)">$5M</text></g><g class="ytick"><text text-anchor="end" x="79" y="4.199999999999999" style="font-family: 'Open Sans', verdana, arial, sans-serif; font-size: 12px; fill: rgb(42, 63, 95); fill-opacity: 1; white-space: pre; opacity: 1;" transform="translate(0,151.94)">$6M</text></g><g class="ytick"><text text-anchor="end" x="79" y="4.199999999999999" style="font-family: 'Open Sans', verdana, arial, sans-serif; font-size: 12px; fill: rgb(42, 63, 95); fill-opacity: 1; white-space: pre; opacity: 1;" transform="translate(0,107.27)">$7M</text></g></g><g class="overaxes-above"/></g></g><g class="polarlayer"/><g class="smithlayer"/><g class="ternarylayer"/><g class="geolayer"/><g class="funnelarealayer"/><g class="pielayer"/><g class="iciclelayer"/><g class="treemaplayer"/><g class="sunburstlayer"/><g class="glimages"/><defs id="topdefs-9077cf"><g class="clips"/></defs><g class="layer-above"><g class="imagelayer"/><g class="shapelayer"/></g><g class="infolayer"><g class="g-gtitle"><text class="gtitle" x="35" y="50" text-anchor="start" dy="0em" style="font-family: 'Open Sans', verdana, arial, sans-serif; font-size: 17px; fill: rgb(42, 63, 95); opacity: 1; font-weight: normal; white-space: pre;"><tspan class="line" dy="0em" x="35" y="50">Rubicon</tspan><tspan class="line" dy="1.3em" x="35" y="50">​<tspan style="font-size:70%" dy="-0.6em">Cumulative Net Dollar Flow since Program Announcement, Until Program End + 30 Days - At Last Price</tspan><tspan dy="0.42em">​</tspan></tspan></text></g><g class="g-xtitle"><text class="xtitle" x="350" y="460.8" text-anchor="middle" style="font-family: 'Open Sans', verdana, arial, sans-serif; font-size: 14px; fill: rgb(42, 63, 95); opacity: 1; font-weight: normal; white-space: pre;">Day</text></g><g class="g-ytitle"><text class="ytitle" transform="rotate(-90,30.856250000000003,260)" x="30.856250000000003" y="260" text-anchor="middle" style="font-family: 'Open Sans', verdana, arial, sans-serif; font-size: 14px; fill: rgb(42, 63, 95); opacity: 1; font-weight: normal; white-space: pre;">Cumulative Net Dollar Flow (N$F)</text></g></g></svg>