<svg class="main-svg" xmlns="http://www.w3.org/2000/svg" xmlns:xlink="http://www.w3.org/1999/xlink" width="700" height="500" style="" viewBox="0 0 700 500"><rect x="0" y="0" width="700" height="500" style="fill: rgb(255, 255, 255); fill-opacity: 1;"/><defs id="defs-ca0368"><g class="clips"><clipPath id="clipca0368xyplot" class="plotclip"><rect width="458" height="320"/></clipPath><clipPath class="axesclip" id="clipca0368x"><rect x="80" y="0" width="458" height="500"/></clipPath><clipPath class="axesclip" id="clipca0368y"><rect x="0" y="100" width="700" height="320"/></clipPath><clipPath class="axesclip" id="clipca0368xy"><rect x="80" y="100" width="458" height="320"/></clipPath></g><g class="gradients"/><g class="patterns"/></defs><g class="bglayer"><rect class="bg" x="80" y="100" width="458" height="320" style="fill: rgb(229, 236, 246); fill-opacity: 1; stroke-width: 0;"/></g><g class="layer-below"><g class="imagelayer"/><g class="shapelayer"/></g><g class="cartesianlayer"><g class="subplot xy"><g class="layer-subplot"><g class="shapelayer"/><g class="imagelayer"/></g><g class="minor-gridlayer"><g class="x"/><g class="y"/></g><g class="gridlayer"><g class="x"><path class="xgrid crisp" transform="translate(139.2,0)" d="M0,100v320" style="stroke: rgb(255, 255, 255); stroke-opacity: 1; stroke-width: 1px;"/><path class="xgrid crisp" transform="translate(235.78,0)" d="M0,100v320" style="stroke: rgb(255, 255, 255); stroke-opacity: 1; stroke-width: 1px;"/><path class="xgrid crisp" transform="translate(329.25,0)" d="M0,100v320" style="stroke: rgb(255, 255, 255); stroke-opacity: 1; stroke-width: 1px;"/><path class="xgrid crisp" transform="translate(425.84,0)" d="M0,100v320" style="stroke: rgb(255, 255, 255); stroke-opacity: 1; stroke-width: 1px;"/><path class="xgrid crisp" transform="translate(519.31,0)" d="M0,100v320" style="stroke: rgb(255, 255, 255); stroke-opacity: 1; stroke-width: 1px;"/></g><g class="y"><path class="ygrid crisp" transform="translate(0,359.46)" d="M80,0h458" style="stroke: rgb(255, 255, 255); stroke-opacity: 1; stroke-width: 1px;"/><path class="ygrid crisp" transform="translate(0,298.93)" d="M80,0h458" style="stroke: rgb(255, 255, 255); stroke-opacity: 1; stroke-width: 1px;"/><path class="ygrid crisp" transform="translate(0,238.39)" d="M80,0h458" style="stroke: rgb(255, 255, 255); stroke-opacity: 1; stroke-width: 1px;"/><path class="ygrid crisp" transform="translate(0,177.85)" d="M80,0h458" style="stroke: rgb(255, 255, 255); stroke-opacity: 1; stroke-width: 1px;"/><path class="ygrid crisp" transform="translate(0,117.32)" d="M80,0h458" style="stroke: rgb(255, 255, 255); stroke-opacity: 1; stroke-width: 1px;"/></g></g><g class="zerolinelayer"><path class="yzl zl crisp" transform="translate(0,420)" d="M80,0h458" style="stroke: rgb(255, 255, 255); stroke-opacity: 1; stroke-width: 2px;"/></g><path class="xlines-below"/><path class="ylines-below"/><g class="overlines-below"/><g class="xaxislayer-below"/><g class="yaxislayer-below"/><g class="overaxes-below"/><g class="plot" transform="translate(80,100)" clip-path="url(#clipca0368xyplot)"><g class="scatterlayer mlayer"><g class="trace scatter trace67ab60" style="stroke-miterlimit: 2;"><g class="fills"><g><path class="js-fill" d="M395.69,320L0,320L0,318.72L3.12,314.81L6.23,299.48L9.35,285.33L12.46,250.94L15.58,242.27L18.69,222.07L21.81,209.6L24.93,188.7L28.04,183.53L31.16,175.76L34.27,169.89L37.39,162.35L40.5,148.97L43.62,140.45L46.73,106.63L49.85,93.66L56.08,22.53L59.2,17.24L62.31,16L65.43,28.57L68.54,26.07L71.66,55.68L74.78,38.75L77.89,43.29L81.01,49.91L84.12,48.71L90.35,68.52L93.47,100.15L99.7,143.91L102.82,155.89L105.93,177.35L109.05,181.57L112.16,189.64L115.28,177.71L118.39,180.19L121.51,192.81L124.63,193.37L127.74,192.33L130.86,192.33L133.97,188.42L137.09,194.04L140.2,194.49L143.32,194.09L146.44,194.86L152.67,202.63L155.78,202.22L158.9,202.58L165.13,201.78L168.24,202.53L171.36,212L174.48,212.82L177.59,209.82L180.71,216.38L183.82,218.61L193.17,221.21L196.29,229.95L199.4,239.6L202.52,239.05L205.63,234.55L208.75,226.92L214.98,229.45L218.1,228.82L224.33,229.68L227.44,228.69L230.56,229.34L233.67,229.27L236.79,226.8L239.9,228.32L243.02,228.03L246.14,228.12L249.25,227.31L258.6,225.36L261.71,224.28L264.83,221.61L267.95,203.69L271.06,212.49L274.18,208.11L277.29,189.22L280.41,184.51L283.52,185.1L286.64,194.55L289.76,162.84L292.87,156.93L295.99,156.58L299.1,154.25L302.22,151.29L305.33,143.34L308.45,142.98L311.56,149.91L314.68,160.29L317.8,162.4L320.91,164.03L324.03,163.44L333.37,166.36L336.49,157.36L339.61,152.25L342.72,152.36L348.95,152.3L352.07,151.71L355.18,152.29L358.3,150.73L364.53,151.42L367.65,154.09L370.76,181.68L373.88,192.49L376.99,202.19L380.11,203.81L383.22,206.93L386.34,206.87L389.46,214.56L392.57,211.16L395.69,205.01" style="fill: rgb(99, 110, 250); fill-opacity: 0.5; stroke-width: 0;"/></g></g><g class="errorbars"/><g class="lines"><path class="js-line" d="M0,318.72L3.12,314.81L6.23,299.48L9.35,285.33L12.46,250.94L15.58,242.27L18.69,222.07L21.81,209.6L24.93,188.7L28.04,183.53L31.16,175.76L34.27,169.89L37.39,162.35L40.5,148.97L43.62,140.45L46.73,106.63L49.85,93.66L56.08,22.53L59.2,17.24L62.31,16L65.43,28.57L68.54,26.07L71.66,55.68L74.78,38.75L77.89,43.29L81.01,49.91L84.12,48.71L90.35,68.52L93.47,100.15L99.7,143.91L102.82,155.89L105.93,177.35L109.05,181.57L112.16,189.64L115.28,177.71L118.39,180.19L121.51,192.81L124.63,193.37L127.74,192.33L130.86,192.33L133.97,188.42L137.09,194.04L140.2,194.49L143.32,194.09L146.44,194.86L152.67,202.63L155.78,202.22L158.9,202.58" style="vector-effect: non-scaling-stroke; fill: none; stroke: rgb(99, 110, 250); stroke-opacity: 1; stroke-width: 2px; opacity: 1;"/><path class="js-line" d="M165.13,201.78L168.24,202.53L171.36,212L174.48,212.82L177.59,209.82L180.71,216.38L183.82,218.61L193.17,221.21L196.29,229.95L199.4,239.6L202.52,239.05L205.63,234.55L208.75,226.92L214.98,229.45L218.1,228.82" style="vector-effect: non-scaling-stroke; fill: none; stroke: rgb(99, 110, 250); stroke-opacity: 1; stroke-width: 2px; opacity: 1;"/><path class="js-line" d="M224.33,229.68L227.44,228.69L230.56,229.34L233.67,229.27L236.79,226.8L239.9,228.32L243.02,228.03L246.14,228.12L249.25,227.31L258.6,225.36L261.71,224.28L264.83,221.61L267.95,203.69L271.06,212.49L274.18,208.11L277.29,189.22L280.41,184.51L283.52,185.1L286.64,194.55L289.76,162.84L292.87,156.93L295.99,156.58L299.1,154.25L302.22,151.29L305.33,143.34L308.45,142.98L311.56,149.91L314.68,160.29L317.8,162.4L320.91,164.03L324.03,163.44L333.37,166.36L336.49,157.36L339.61,152.25L342.72,152.36L348.95,152.3L352.07,151.71L355.18,152.29L358.3,150.73L364.53,151.42L367.65,154.09L370.76,181.68L373.88,192.49L376.99,202.19L380.11,203.81L383.22,206.93L386.34,206.87L389.46,214.56L392.57,211.16L395.69,205.01" style="vector-effect: non-scaling-stroke; fill: none; stroke: rgb(99, 110, 250); stroke-opacity: 1; stroke-width: 2px; opacity: 1;"/></g><g class="points"/><g class="text"/></g><g class="trace scatter tracebefca8" style="stroke-miterlimit: 2;"><g class="fills"><g><path class="js-fill" d="M458,320L398.8,320L398.8,200.37L405.03,198.27L408.15,198.87L411.27,199.3L414.38,197.26L417.5,194.02L420.61,193.46L426.84,188.23L429.96,189.55L436.19,191.71L439.31,190.94L442.42,189.66L445.54,185.26L448.65,181.67L451.77,180.47L454.88,180.1L458,174.84" style="fill: rgb(239, 85, 59); fill-opacity: 0.5; stroke-width: 0;"/></g></g><g class="errorbars"/><g class="lines"><path class="js-line" d="M398.8,200.37L405.03,198.27L408.15,198.87L411.27,199.3L414.38,197.26L417.5,194.02L420.61,193.46L426.84,188.23L429.96,189.55L436.19,191.71L439.31,190.94L442.42,189.66L445.54,185.26L448.65,181.67L451.77,180.47L454.88,180.1L458,174.84" style="vector-effect: non-scaling-stroke; fill: none; stroke: rgb(239, 85, 59); stroke-opacity: 1; stroke-width: 2px; opacity: 1;"/></g><g class="points"/><g class="text"/></g></g></g><g class="overplot"/><path class="xlines-above crisp" d="M0,0" style="fill: none;"/><path class="ylines-above crisp" d="M0,0" style="fill: none;"/><g class="overlines-above"/><g class="xaxislayer-above"><g class="xtick"><text text-anchor="middle" x="0" y="433" transform="translate(139.2,0)" style="font-family: 'Open Sans', verdana, arial, sans-serif; font-size: 12px; fill: rgb(42, 63, 95); fill-opacity: 1; white-space: pre; opacity: 1;">Aug 2022</text></g><g class="xtick"><text text-anchor="middle" x="0" y="433" style="font-family: 'Open Sans', verdana, arial, sans-serif; font-size: 12px; fill: rgb(42, 63, 95); fill-opacity: 1; white-space: pre; opacity: 1;" transform="translate(235.78,0)">Sep 2022</text></g><g class="xtick"><text text-anchor="middle" x="0" y="433" style="font-family: 'Open Sans', verdana, arial, sans-serif; font-size: 12px; fill: rgb(42, 63, 95); fill-opacity: 1; white-space: pre; opacity: 1;" transform="translate(329.25,0)">Oct 2022</text></g><g class="xtick"><text text-anchor="middle" x="0" y="433" style="font-family: 'Open Sans', verdana, arial, sans-serif; font-size: 12px; fill: rgb(42, 63, 95); fill-opacity: 1; white-space: pre; opacity: 1;" transform="translate(425.84,0)">Nov 2022</text></g><g class="xtick"><text text-anchor="middle" x="0" y="433" style="font-family: 'Open Sans', verdana, arial, sans-serif; font-size: 12px; fill: rgb(42, 63, 95); fill-opacity: 1; white-space: pre; opacity: 1;" transform="translate(519.31,0)">Dec 2022</text></g></g><g class="yaxislayer-above"><g class="ytick"><text text-anchor="end" x="79" y="4.199999999999999" transform="translate(0,420)" style="font-family: 'Open Sans', verdana, arial, sans-serif; font-size: 12px; fill: rgb(42, 63, 95); fill-opacity: 1; white-space: pre; opacity: 1;">$0</text></g><g class="ytick"><text text-anchor="end" x="79" y="4.199999999999999" style="font-family: 'Open Sans', verdana, arial, sans-serif; font-size: 12px; fill: rgb(42, 63, 95); fill-opacity: 1; white-space: pre; opacity: 1;" transform="translate(0,359.46)">$20M</text></g><g class="ytick"><text text-anchor="end" x="79" y="4.199999999999999" style="font-family: 'Open Sans', verdana, arial, sans-serif; font-size: 12px; fill: rgb(42, 63, 95); fill-opacity: 1; white-space: pre; opacity: 1;" transform="translate(0,298.93)">$40M</text></g><g class="ytick"><text text-anchor="end" x="79" y="4.199999999999999" style="font-family: 'Open Sans', verdana, arial, sans-serif; font-size: 12px; fill: rgb(42, 63, 95); fill-opacity: 1; white-space: pre; opacity: 1;" transform="translate(0,238.39)">$60M</text></g><g class="ytick"><text text-anchor="end" x="79" y="4.199999999999999" style="font-family: 'Open Sans', verdana, arial, sans-serif; font-size: 12px; fill: rgb(42, 63, 95); fill-opacity: 1; white-space: pre; opacity: 1;" transform="translate(0,177.85)">$80M</text></g><g class="ytick"><text text-anchor="end" x="79" y="4.199999999999999" style="font-family: 'Open Sans', verdana, arial, sans-serif; font-size: 12px; fill: rgb(42, 63, 95); fill-opacity: 1; white-space: pre; opacity: 1;" transform="translate(0,117.32)">$100M</text></g></g><g class="overaxes-above"/></g></g><g class="polarlayer"/><g class="smithlayer"/><g class="ternarylayer"/><g class="geolayer"/><g class="funnelarealayer"/><g class="pielayer"/><g class="iciclelayer"/><g class="treemaplayer"/><g class="sunburstlayer"/><g class="glimages"/><defs id="topdefs-ca0368"><g class="clips"/><clipPath id="legendca0368"><rect width="141" height="67" x="0" y="0"/></clipPath></defs><g class="layer-above"><g class="imagelayer"/><g class="shapelayer"/></g><g class="infolayer"><g class="legend" pointer-events="all" transform="translate(547.1600000000001,100)"><rect class="bg" shape-rendering="crispEdges" width="141" height="67" x="0" y="0" style="stroke: rgb(68, 68, 68); stroke-opacity: 1; fill: rgb(255, 255, 255); fill-opacity: 1; stroke-width: 0px;"/><g class="scrollbox" transform="" clip-path="url(#legendca0368)"><text class="legendtitletext" text-anchor="start" x="2" y="18.2" style="font-family: 'Open Sans', verdana, arial, sans-serif; font-size: 14px; fill: rgb(42, 63, 95); fill-opacity: 1; white-space: pre;">Period</text><g class="groups"><g class="traces" transform="translate(0,32.7)" style="opacity: 1;"><text class="legendtext" text-anchor="start" x="40" y="4.680000000000001" style="font-family: 'Open Sans', verdana, arial, sans-serif; font-size: 12px; fill: rgb(42, 63, 95); fill-opacity: 1; white-space: pre;">During Program</text><g class="layers"><g class="legendfill"><path class="js-fill" d="M5,-2h30v6h-30z" style="stroke-width: 0; fill: rgb(99, 110, 250); fill-opacity: 0.5;"/></g><g class="legendlines"><path class="js-line" d="M5,-2h30" style="fill: none; stroke: rgb(99, 110, 250); stroke-opacity: 1; stroke-width: 2px;"/></g><g class="legendsymbols"><g class="legendpoints"/></g></g><rect class="legendtoggle" x="0" y="-9.5" width="135.671875" height="19" style="fill: rgb(0, 0, 0); fill-opacity: 0;"/></g><g class="traces" transform="translate(0,51.7)" style="opacity: 1;"><text class="legendtext" text-anchor="start" x="40" y="4.680000000000001" style="font-family: 'Open Sans', verdana, arial, sans-serif; font-size: 12px; fill: rgb(42, 63, 95); fill-opacity: 1; white-space: pre;">Post-Program</text><g class="layers"><g class="legendfill"><path class="js-fill" d="M5,-2h30v6h-30z" style="stroke-width: 0; fill: rgb(239, 85, 59); fill-opacity: 0.5;"/></g><g class="legendlines"><path class="js-line" d="M5,-2h30" style="fill: none; stroke: rgb(239, 85, 59); stroke-opacity: 1; stroke-width: 2px;"/></g><g class="legendsymbols"><g class="legendpoints"/></g></g><rect class="legendtoggle" x="0" y="-9.5" width="135.671875" height="19" style="fill: rgb(0, 0, 0); fill-opacity: 0;"/></g></g></g><rect class="scrollbar" rx="20" ry="3" width="0" height="0" x="0" y="0" style="fill: rgb(128, 139, 164); fill-opacity: 1;"/></g><g class="g-gtitle"><text class="gtitle" x="35" y="50" text-anchor="start" dy="0em" style="font-family: 'Open Sans', verdana, arial, sans-serif; font-size: 17px; fill: rgb(42, 63, 95); opacity: 1; font-weight: normal; white-space: pre;">Velodrome: Cumulative Net Dollar Flow since Program Announcement - At Last Price</text></g><g class="g-xtitle"><text class="xtitle" x="309" y="460.3" text-anchor="middle" style="font-family: 'Open Sans', verdana, arial, sans-serif; font-size: 14px; fill: rgb(42, 63, 95); opacity: 1; font-weight: normal; white-space: pre;">Day</text></g><g class="g-ytitle" transform="translate(0.4404296875,0)"><text class="ytitle" transform="rotate(-90,13.559375000000003,260)" x="13.559375000000003" y="260" text-anchor="middle" style="font-family: 'Open Sans', verdana, arial, sans-serif; font-size: 14px; fill: rgb(42, 63, 95); opacity: 1; font-weight: normal; white-space: pre;">Cumulative Net Dollar Flow (N$F)</text></g></g></svg>