<svg class="main-svg" xmlns="http://www.w3.org/2000/svg" xmlns:xlink="http://www.w3.org/1999/xlink" width="700" height="500" style="" viewBox="0 0 700 500"><rect x="0" y="0" width="700" height="500" style="fill: rgb(255, 255, 255); fill-opacity: 1;"/><defs id="defs-b055ac"><g class="clips"><clipPath id="clipb055acxyplot" class="plotclip"><rect width="540" height="320"/></clipPath><clipPath class="axesclip" id="clipb055acx"><rect x="80" y="0" width="540" height="500"/></clipPath><clipPath class="axesclip" id="clipb055acy"><rect x="0" y="100" width="700" height="320"/></clipPath><clipPath class="axesclip" id="clipb055acxy"><rect x="80" y="100" width="540" height="320"/></clipPath></g><g class="gradients"/><g class="patterns"/></defs><g class="bglayer"><rect class="bg" x="80" y="100" width="540" height="320" style="fill: rgb(229, 236, 246); fill-opacity: 1; stroke-width: 0;"/></g><g class="layer-below"><g class="imagelayer"/><g class="shapelayer"/></g><g class="cartesianlayer"><g class="subplot xy"><g class="layer-subplot"><g class="shapelayer"/><g class="imagelayer"/></g><g class="minor-gridlayer"><g class="x"/><g class="y"/></g><g class="gridlayer"><g class="x"><path class="xgrid crisp" transform="translate(94.12,0)" d="M0,100v320" style="stroke: rgb(255, 255, 255); stroke-opacity: 1; stroke-width: 1px;"/><path class="xgrid crisp" transform="translate(203.53,0)" d="M0,100v320" style="stroke: rgb(255, 255, 255); stroke-opacity: 1; stroke-width: 1px;"/><path class="xgrid crisp" transform="translate(309.40999999999997,0)" d="M0,100v320" style="stroke: rgb(255, 255, 255); stroke-opacity: 1; stroke-width: 1px;"/><path class="xgrid crisp" transform="translate(418.82,0)" d="M0,100v320" style="stroke: rgb(255, 255, 255); stroke-opacity: 1; stroke-width: 1px;"/><path class="xgrid crisp" transform="translate(528.24,0)" d="M0,100v320" style="stroke: rgb(255, 255, 255); stroke-opacity: 1; stroke-width: 1px;"/></g><g class="y"><path class="ygrid crisp" transform="translate(0,370.88)" d="M80,0h540" style="stroke: rgb(255, 255, 255); stroke-opacity: 1; stroke-width: 1px;"/><path class="ygrid crisp" transform="translate(0,321.77)" d="M80,0h540" style="stroke: rgb(255, 255, 255); stroke-opacity: 1; stroke-width: 1px;"/><path class="ygrid crisp" transform="translate(0,272.65)" d="M80,0h540" style="stroke: rgb(255, 255, 255); stroke-opacity: 1; stroke-width: 1px;"/><path class="ygrid crisp" transform="translate(0,223.53)" d="M80,0h540" style="stroke: rgb(255, 255, 255); stroke-opacity: 1; stroke-width: 1px;"/><path class="ygrid crisp" transform="translate(0,174.42000000000002)" d="M80,0h540" style="stroke: rgb(255, 255, 255); stroke-opacity: 1; stroke-width: 1px;"/><path class="ygrid crisp" transform="translate(0,125.3)" d="M80,0h540" style="stroke: rgb(255, 255, 255); stroke-opacity: 1; stroke-width: 1px;"/></g></g><g class="zerolinelayer"><path class="yzl zl crisp" transform="translate(0,420)" d="M80,0h540" style="stroke: rgb(255, 255, 255); stroke-opacity: 1; stroke-width: 2px;"/></g><path class="xlines-below"/><path class="ylines-below"/><g class="overlines-below"/><g class="xaxislayer-below"/><g class="yaxislayer-below"/><g class="overaxes-below"/><g class="plot" transform="translate(80,100)" clip-path="url(#clipb055acxyplot)"><g class="scatterlayer mlayer"><g class="trace scatter trace16f3eb" style="stroke-miterlimit: 2;"><g class="fills"><g><path class="js-fill" d="M540,320L0,320L0,298.88L3.53,298.47L7.06,294.2L14.12,293.32L17.65,291.52L21.18,291.1L24.71,289.11L28.24,282.72L31.76,284.25L35.29,285.41L38.82,282.34L45.88,281.77L49.41,283.28L52.94,284L56.47,283.91L60,277.84L63.53,277.8L67.06,277.01L70.59,277.06L74.12,272.1L77.65,272.43L81.18,272.25L84.71,273.35L88.24,273.62L91.76,272.49L95.29,272.73L98.82,274.13L102.35,277.75L105.88,276.49L109.41,273.28L112.94,272.3L120,272.08L123.53,271.42L127.06,271.03L130.59,267.87L141.18,266.3L144.71,263.71L148.24,274.21L151.76,275.32L155.29,283.14L158.82,283.37L165.88,287.54L169.41,288.07L172.94,281.79L176.47,281.68L183.53,280.39L187.06,279.9L197.65,279.3L201.18,280.3L204.71,277.78L208.24,276.56L211.76,273.36L215.29,272.83L218.82,275.83L222.35,276.18L225.88,275.29L229.41,270.81L232.94,269.31L236.47,269.16L240,268.93L243.53,267.77L247.06,270.87L250.59,268.72L254.12,270.32L257.65,267.22L261.18,270.97L264.71,255.89L268.24,260.72L271.76,258.55L275.29,261.35L278.82,275.06L282.35,275L285.88,278.97L289.41,279.52L292.94,278.86L296.47,273.9L300,273.33L314.12,273.18L317.65,273.3L328.24,275.29L331.76,275.43L338.82,275.92L342.35,275.33L345.88,275.39L349.41,274.49L352.94,274.2L356.47,275.6L360,273.91L363.53,273.92L367.06,271.32L370.59,270.47L377.65,267.89L381.18,265.85L391.76,264.56L395.29,260.99L398.82,258.94L402.35,252.99L405.88,249.56L409.41,242.09L412.94,242.79L416.47,236.46L423.53,214.58L427.06,202.65L430.59,195.88L434.12,191.95L437.65,190.67L441.18,188.15L444.71,182.27L448.24,179.69L451.76,175.23L455.29,172.53L458.82,171L462.35,167.5L465.88,149.04L469.41,138.4L472.94,123L476.47,124.1L480,125.17L483.53,120.33L487.06,116.06L490.59,115.5L494.12,113.74L497.65,108.13L501.18,99.68L504.71,95.86L508.24,96.52L511.76,82.68L515.29,76.75L518.82,56.08L522.35,59.88L525.88,57.05L529.41,36.91L532.94,33.99L536.47,16.72L540,16" style="fill: rgb(99, 110, 250); fill-opacity: 0.5; stroke-width: 0;"/></g></g><g class="errorbars"/><g class="lines"><path class="js-line" d="M0,298.88L3.53,298.47L7.06,294.2L14.12,293.32L17.65,291.52L21.18,291.1L24.71,289.11L28.24,282.72L31.76,284.25L35.29,285.41L38.82,282.34L45.88,281.77L49.41,283.28L52.94,284L56.47,283.91L60,277.84L63.53,277.8L67.06,277.01L70.59,277.06L74.12,272.1L77.65,272.43L81.18,272.25L84.71,273.35L88.24,273.62L91.76,272.49L95.29,272.73L98.82,274.13L102.35,277.75L105.88,276.49L109.41,273.28L112.94,272.3L120,272.08L123.53,271.42L127.06,271.03L130.59,267.87L141.18,266.3L144.71,263.71L148.24,274.21L151.76,275.32L155.29,283.14L158.82,283.37L165.88,287.54L169.41,288.07L172.94,281.79L176.47,281.68L183.53,280.39L187.06,279.9L197.65,279.3L201.18,280.3L204.71,277.78L208.24,276.56L211.76,273.36L215.29,272.83L218.82,275.83L222.35,276.18L225.88,275.29L229.41,270.81L232.94,269.31L236.47,269.16L240,268.93L243.53,267.77L247.06,270.87L250.59,268.72L254.12,270.32L257.65,267.22L261.18,270.97L264.71,255.89L268.24,260.72L271.76,258.55L275.29,261.35L278.82,275.06L282.35,275L285.88,278.97L289.41,279.52L292.94,278.86L296.47,273.9L300,273.33L314.12,273.18L317.65,273.3L328.24,275.29L331.76,275.43L338.82,275.92L342.35,275.33L345.88,275.39L349.41,274.49L352.94,274.2L356.47,275.6L360,273.91L363.53,273.92L367.06,271.32L370.59,270.47L377.65,267.89L381.18,265.85L391.76,264.56L395.29,260.99L398.82,258.94L402.35,252.99L405.88,249.56L409.41,242.09L412.94,242.79L416.47,236.46L423.53,214.58L427.06,202.65L430.59,195.88L434.12,191.95L437.65,190.67L441.18,188.15L444.71,182.27L448.24,179.69L451.76,175.23L455.29,172.53L458.82,171L462.35,167.5L465.88,149.04L469.41,138.4L472.94,123L476.47,124.1L480,125.17L483.53,120.33L487.06,116.06L490.59,115.5L494.12,113.74L497.65,108.13L501.18,99.68L504.71,95.86L508.24,96.52L511.76,82.68L515.29,76.75L518.82,56.08L522.35,59.88L525.88,57.05L529.41,36.91L532.94,33.99L536.47,16.72L540,16" style="vector-effect: non-scaling-stroke; fill: none; stroke: rgb(99, 110, 250); stroke-opacity: 1; stroke-width: 2px; opacity: 1;"/></g><g class="points"/><g class="text"/></g></g></g><g class="overplot"/><path class="xlines-above crisp" d="M0,0" style="fill: none;"/><path class="ylines-above crisp" d="M0,0" style="fill: none;"/><g class="overlines-above"/><g class="xaxislayer-above"><g class="xtick"><text text-anchor="middle" x="0" y="433" transform="translate(94.12,0)" style="font-family: 'Open Sans', verdana, arial, sans-serif; font-size: 12px; fill: rgb(42, 63, 95); fill-opacity: 1; white-space: pre; opacity: 1;">Oct 2022</text></g><g class="xtick"><text text-anchor="middle" x="0" y="433" style="font-family: 'Open Sans', verdana, arial, sans-serif; font-size: 12px; fill: rgb(42, 63, 95); fill-opacity: 1; white-space: pre; opacity: 1;" transform="translate(203.53,0)">Nov 2022</text></g><g class="xtick"><text text-anchor="middle" x="0" y="433" style="font-family: 'Open Sans', verdana, arial, sans-serif; font-size: 12px; fill: rgb(42, 63, 95); fill-opacity: 1; white-space: pre; opacity: 1;" transform="translate(309.40999999999997,0)">Dec 2022</text></g><g class="xtick"><text text-anchor="middle" x="0" y="433" style="font-family: 'Open Sans', verdana, arial, sans-serif; font-size: 12px; fill: rgb(42, 63, 95); fill-opacity: 1; white-space: pre; opacity: 1;" transform="translate(418.82,0)">Jan 2023</text></g><g class="xtick"><text text-anchor="middle" x="0" y="433" style="font-family: 'Open Sans', verdana, arial, sans-serif; font-size: 12px; fill: rgb(42, 63, 95); fill-opacity: 1; white-space: pre; opacity: 1;" transform="translate(528.24,0)">Feb 2023</text></g></g><g class="yaxislayer-above"><g class="ytick"><text text-anchor="end" x="79" y="4.199999999999999" transform="translate(0,420)" style="font-family: 'Open Sans', verdana, arial, sans-serif; font-size: 12px; fill: rgb(42, 63, 95); fill-opacity: 1; white-space: pre; opacity: 1;">$0</text></g><g class="ytick"><text text-anchor="end" x="79" y="4.199999999999999" style="font-family: 'Open Sans', verdana, arial, sans-serif; font-size: 12px; fill: rgb(42, 63, 95); fill-opacity: 1; white-space: pre; opacity: 1;" transform="translate(0,370.88)">$10M</text></g><g class="ytick"><text text-anchor="end" x="79" y="4.199999999999999" style="font-family: 'Open Sans', verdana, arial, sans-serif; font-size: 12px; fill: rgb(42, 63, 95); fill-opacity: 1; white-space: pre; opacity: 1;" transform="translate(0,321.77)">$20M</text></g><g class="ytick"><text text-anchor="end" x="79" y="4.199999999999999" style="font-family: 'Open Sans', verdana, arial, sans-serif; font-size: 12px; fill: rgb(42, 63, 95); fill-opacity: 1; white-space: pre; opacity: 1;" transform="translate(0,272.65)">$30M</text></g><g class="ytick"><text text-anchor="end" x="79" y="4.199999999999999" style="font-family: 'Open Sans', verdana, arial, sans-serif; font-size: 12px; fill: rgb(42, 63, 95); fill-opacity: 1; white-space: pre; opacity: 1;" transform="translate(0,223.53)">$40M</text></g><g class="ytick"><text text-anchor="end" x="79" y="4.199999999999999" style="font-family: 'Open Sans', verdana, arial, sans-serif; font-size: 12px; fill: rgb(42, 63, 95); fill-opacity: 1; white-space: pre; opacity: 1;" transform="translate(0,174.42000000000002)">$50M</text></g><g class="ytick"><text text-anchor="end" x="79" y="4.199999999999999" style="font-family: 'Open Sans', verdana, arial, sans-serif; font-size: 12px; fill: rgb(42, 63, 95); fill-opacity: 1; white-space: pre; opacity: 1;" transform="translate(0,125.3)">$60M</text></g></g><g class="overaxes-above"/></g></g><g class="polarlayer"/><g class="smithlayer"/><g class="ternarylayer"/><g class="geolayer"/><g class="funnelarealayer"/><g class="pielayer"/><g class="iciclelayer"/><g class="treemaplayer"/><g class="sunburstlayer"/><g class="glimages"/><defs id="topdefs-b055ac"><g class="clips"/></defs><g class="layer-above"><g class="imagelayer"/><g class="shapelayer"/></g><g class="infolayer"><g class="g-gtitle"><text class="gtitle" x="35" y="50" text-anchor="start" dy="0em" style="font-family: 'Open Sans', verdana, arial, sans-serif; font-size: 17px; fill: rgb(42, 63, 95); opacity: 1; font-weight: normal; white-space: pre;"><tspan class="line" dy="0em" x="35" y="50">Synthetix - All Synthetix Velo Pools</tspan><tspan class="line" dy="1.3em" x="35" y="50">​<tspan style="font-size:70%" dy="-0.6em">Cumulative Net Flows since Program Announcement, Until Program End + 30 Days - At Last Price</tspan><tspan dy="0.42em">​</tspan></tspan></text></g><g class="g-xtitle"><text class="xtitle" x="350" y="460.8" text-anchor="middle" style="font-family: 'Open Sans', verdana, arial, sans-serif; font-size: 14px; fill: rgb(42, 63, 95); opacity: 1; font-weight: normal; white-space: pre;">Day</text></g><g class="g-ytitle"><text class="ytitle" transform="rotate(-90,24.168750000000003,260)" x="24.168750000000003" y="260" text-anchor="middle" style="font-family: 'Open Sans', verdana, arial, sans-serif; font-size: 14px; fill: rgb(42, 63, 95); opacity: 1; font-weight: normal; white-space: pre;">Cumulative Net Flows (USD)</text></g></g></svg>