<svg class="main-svg" xmlns="http://www.w3.org/2000/svg" xmlns:xlink="http://www.w3.org/1999/xlink" width="700" height="500" style="" viewBox="0 0 700 500"><rect x="0" y="0" width="700" height="500" style="fill: rgb(255, 255, 255); fill-opacity: 1;"/><defs id="defs-36a4ad"><g class="clips"><clipPath id="clip36a4adxyplot" class="plotclip"><rect width="540" height="320"/></clipPath><clipPath class="axesclip" id="clip36a4adx"><rect x="80" y="0" width="540" height="500"/></clipPath><clipPath class="axesclip" id="clip36a4ady"><rect x="0" y="100" width="700" height="320"/></clipPath><clipPath class="axesclip" id="clip36a4adxy"><rect x="80" y="100" width="540" height="320"/></clipPath></g><g class="gradients"/><g class="patterns"/></defs><g class="bglayer"><rect class="bg" x="80" y="100" width="540" height="320" style="fill: rgb(229, 236, 246); fill-opacity: 1; stroke-width: 0;"/></g><g class="layer-below"><g class="imagelayer"/><g class="shapelayer"/></g><g class="cartesianlayer"><g class="subplot xy"><g class="layer-subplot"><g class="shapelayer"/><g class="imagelayer"/></g><g class="minor-gridlayer"><g class="x"/><g class="y"/></g><g class="gridlayer"><g class="x"><path class="xgrid crisp" transform="translate(94.59,0)" d="M0,100v320" style="stroke: rgb(255, 255, 255); stroke-opacity: 1; stroke-width: 1px;"/><path class="xgrid crisp" transform="translate(207.7,0)" d="M0,100v320" style="stroke: rgb(255, 255, 255); stroke-opacity: 1; stroke-width: 1px;"/><path class="xgrid crisp" transform="translate(317.15999999999997,0)" d="M0,100v320" style="stroke: rgb(255, 255, 255); stroke-opacity: 1; stroke-width: 1px;"/><path class="xgrid crisp" transform="translate(430.27,0)" d="M0,100v320" style="stroke: rgb(255, 255, 255); stroke-opacity: 1; stroke-width: 1px;"/><path class="xgrid crisp" transform="translate(543.38,0)" d="M0,100v320" style="stroke: rgb(255, 255, 255); stroke-opacity: 1; stroke-width: 1px;"/></g><g class="y"><path class="ygrid crisp" transform="translate(0,363.42)" d="M80,0h540" style="stroke: rgb(255, 255, 255); stroke-opacity: 1; stroke-width: 1px;"/><path class="ygrid crisp" transform="translate(0,306.85)" d="M80,0h540" style="stroke: rgb(255, 255, 255); stroke-opacity: 1; stroke-width: 1px;"/><path class="ygrid crisp" transform="translate(0,250.27)" d="M80,0h540" style="stroke: rgb(255, 255, 255); stroke-opacity: 1; stroke-width: 1px;"/><path class="ygrid crisp" transform="translate(0,193.7)" d="M80,0h540" style="stroke: rgb(255, 255, 255); stroke-opacity: 1; stroke-width: 1px;"/><path class="ygrid crisp" transform="translate(0,137.12)" d="M80,0h540" style="stroke: rgb(255, 255, 255); stroke-opacity: 1; stroke-width: 1px;"/></g></g><g class="zerolinelayer"><path class="yzl zl crisp" transform="translate(0,420)" d="M80,0h540" style="stroke: rgb(255, 255, 255); stroke-opacity: 1; stroke-width: 2px;"/></g><path class="xlines-below"/><path class="ylines-below"/><g class="overlines-below"/><g class="xaxislayer-below"/><g class="yaxislayer-below"/><g class="overaxes-below"/><g class="plot" transform="translate(80,100)" clip-path="url(#clip36a4adxyplot)"><g class="scatterlayer mlayer"><g class="trace scatter trace370acc" style="stroke-miterlimit: 2;"><g class="fills"><g><path class="js-fill" d="M540,320L0,320L0,295.67L3.65,295.2L7.3,290.28L14.59,289.27L18.24,287.19L21.89,286.71L25.54,284.42L29.19,277.05L32.84,278.82L36.49,280.15L40.14,276.63L47.43,275.97L51.08,277.71L54.73,278.53L58.38,278.43L62.03,271.44L65.68,271.4L69.32,270.48L72.97,270.54L76.62,264.83L80.27,265.21L83.92,265L87.57,266.26L91.22,266.57L94.86,265.28L98.51,265.56L102.16,267.16L105.81,271.33L109.46,269.88L113.11,266.19L116.76,265.06L124.05,264.81L127.7,264.05L131.35,263.59L135,259.96L145.95,258.15L149.59,255.17L153.24,267.26L156.89,268.53L160.54,277.54L164.19,277.81L171.49,282.61L175.14,283.23L178.78,275.99L182.43,275.86L189.73,274.37L193.38,273.81L197.03,273.47L200.68,273.89L204.32,273.12L207.97,274.27L211.62,271.37L215.27,269.96L218.92,266.28L222.57,265.66L226.22,269.12L229.86,269.52L233.51,268.5L237.16,263.34L240.81,261.61L244.46,261.44L248.11,261.18L251.76,259.84L255.41,263.41L259.05,260.94L262.7,262.77L266.35,259.21L270,263.52L273.65,246.15L277.3,251.71L280.95,249.22L284.59,252.44L288.24,268.23L291.89,268.17L295.54,272.74L299.19,273.37L302.84,272.61L306.49,266.9L310.14,266.24L324.73,266.07L328.38,266.21L339.32,268.5L342.97,268.66L350.27,269.22L353.92,268.55L357.57,268.62L361.22,267.58L364.86,267.25L368.51,268.86L372.16,266.91L375.81,266.92L379.46,263.93L383.11,262.95L390.41,259.98L394.05,257.63L405,256.14L408.65,252.03L412.3,249.67L415.95,242.81L419.59,238.86L423.24,230.26L426.89,231.07L430.54,223.77L437.84,198.58L441.49,184.83L445.14,177.03L448.78,172.5L452.43,171.02L456.08,168.12L459.73,161.35L463.38,158.38L467.03,153.24L470.68,150.14L474.32,148.37L477.97,144.34L481.62,123.07L485.27,110.82L488.92,93.09L492.57,94.35L496.22,95.59L499.86,90.01L503.51,85.08L507.16,84.44L510.81,82.42L514.46,75.95L518.11,66.23L521.76,61.81L525.41,62.58L529.05,46.64L532.7,39.8L536.35,16L540,20.51" style="fill: rgb(99, 110, 250); fill-opacity: 0.5; stroke-width: 0;"/></g></g><g class="errorbars"/><g class="lines"><path class="js-line" d="M0,295.67L3.65,295.2L7.3,290.28L14.59,289.27L18.24,287.19L21.89,286.71L25.54,284.42L29.19,277.05L32.84,278.82L36.49,280.15L40.14,276.63L47.43,275.97L51.08,277.71L54.73,278.53L58.38,278.43L62.03,271.44L65.68,271.4L69.32,270.48L72.97,270.54L76.62,264.83L80.27,265.21L83.92,265L87.57,266.26L91.22,266.57L94.86,265.28L98.51,265.56L102.16,267.16L105.81,271.33L109.46,269.88L113.11,266.19L116.76,265.06L124.05,264.81L127.7,264.05L131.35,263.59L135,259.96L145.95,258.15L149.59,255.17L153.24,267.26L156.89,268.53L160.54,277.54L164.19,277.81L171.49,282.61L175.14,283.23L178.78,275.99L182.43,275.86L189.73,274.37L193.38,273.81L197.03,273.47L200.68,273.89L204.32,273.12L207.97,274.27L211.62,271.37L215.27,269.96L218.92,266.28L222.57,265.66L226.22,269.12L229.86,269.52L233.51,268.5L237.16,263.34L240.81,261.61L244.46,261.44L248.11,261.18L251.76,259.84L255.41,263.41L259.05,260.94L262.7,262.77L266.35,259.21L270,263.52L273.65,246.15L277.3,251.71L280.95,249.22L284.59,252.44L288.24,268.23L291.89,268.17L295.54,272.74L299.19,273.37L302.84,272.61L306.49,266.9L310.14,266.24L324.73,266.07L328.38,266.21L339.32,268.5L342.97,268.66L350.27,269.22L353.92,268.55L357.57,268.62L361.22,267.58L364.86,267.25L368.51,268.86L372.16,266.91L375.81,266.92L379.46,263.93L383.11,262.95L390.41,259.98L394.05,257.63L405,256.14L408.65,252.03L412.3,249.67L415.95,242.81L419.59,238.86L423.24,230.26L426.89,231.07L430.54,223.77L437.84,198.58L441.49,184.83L445.14,177.03L448.78,172.5L452.43,171.02L456.08,168.12L459.73,161.35L463.38,158.38L467.03,153.24L470.68,150.14L474.32,148.37L477.97,144.34L481.62,123.07L485.27,110.82L488.92,93.09L492.57,94.35L496.22,95.59L499.86,90.01L503.51,85.08L507.16,84.44L510.81,82.42L514.46,75.95L518.11,66.23L521.76,61.81L525.41,62.58L529.05,46.64L532.7,39.8L536.35,16L540,20.51" style="vector-effect: non-scaling-stroke; fill: none; stroke: rgb(99, 110, 250); stroke-opacity: 1; stroke-width: 2px; opacity: 1;"/></g><g class="points"/><g class="text"/></g></g></g><g class="overplot"/><path class="xlines-above crisp" d="M0,0" style="fill: none;"/><path class="ylines-above crisp" d="M0,0" style="fill: none;"/><g class="overlines-above"/><g class="xaxislayer-above"><g class="xtick"><text text-anchor="middle" x="0" y="433" transform="translate(94.59,0)" style="font-family: 'Open Sans', verdana, arial, sans-serif; font-size: 12px; fill: rgb(42, 63, 95); fill-opacity: 1; white-space: pre; opacity: 1;">Oct 2022</text></g><g class="xtick"><text text-anchor="middle" x="0" y="433" style="font-family: 'Open Sans', verdana, arial, sans-serif; font-size: 12px; fill: rgb(42, 63, 95); fill-opacity: 1; white-space: pre; opacity: 1;" transform="translate(207.7,0)">Nov 2022</text></g><g class="xtick"><text text-anchor="middle" x="0" y="433" style="font-family: 'Open Sans', verdana, arial, sans-serif; font-size: 12px; fill: rgb(42, 63, 95); fill-opacity: 1; white-space: pre; opacity: 1;" transform="translate(317.15999999999997,0)">Dec 2022</text></g><g class="xtick"><text text-anchor="middle" x="0" y="433" style="font-family: 'Open Sans', verdana, arial, sans-serif; font-size: 12px; fill: rgb(42, 63, 95); fill-opacity: 1; white-space: pre; opacity: 1;" transform="translate(430.27,0)">Jan 2023</text></g><g class="xtick"><text text-anchor="middle" x="0" y="433" style="font-family: 'Open Sans', verdana, arial, sans-serif; font-size: 12px; fill: rgb(42, 63, 95); fill-opacity: 1; white-space: pre; opacity: 1;" transform="translate(543.38,0)">Feb 2023</text></g></g><g class="yaxislayer-above"><g class="ytick"><text text-anchor="end" x="79" y="4.199999999999999" transform="translate(0,420)" style="font-family: 'Open Sans', verdana, arial, sans-serif; font-size: 12px; fill: rgb(42, 63, 95); fill-opacity: 1; white-space: pre; opacity: 1;">$0</text></g><g class="ytick"><text text-anchor="end" x="79" y="4.199999999999999" style="font-family: 'Open Sans', verdana, arial, sans-serif; font-size: 12px; fill: rgb(42, 63, 95); fill-opacity: 1; white-space: pre; opacity: 1;" transform="translate(0,363.42)">$10M</text></g><g class="ytick"><text text-anchor="end" x="79" y="4.199999999999999" style="font-family: 'Open Sans', verdana, arial, sans-serif; font-size: 12px; fill: rgb(42, 63, 95); fill-opacity: 1; white-space: pre; opacity: 1;" transform="translate(0,306.85)">$20M</text></g><g class="ytick"><text text-anchor="end" x="79" y="4.199999999999999" style="font-family: 'Open Sans', verdana, arial, sans-serif; font-size: 12px; fill: rgb(42, 63, 95); fill-opacity: 1; white-space: pre; opacity: 1;" transform="translate(0,250.27)">$30M</text></g><g class="ytick"><text text-anchor="end" x="79" y="4.199999999999999" style="font-family: 'Open Sans', verdana, arial, sans-serif; font-size: 12px; fill: rgb(42, 63, 95); fill-opacity: 1; white-space: pre; opacity: 1;" transform="translate(0,193.7)">$40M</text></g><g class="ytick"><text text-anchor="end" x="79" y="4.199999999999999" style="font-family: 'Open Sans', verdana, arial, sans-serif; font-size: 12px; fill: rgb(42, 63, 95); fill-opacity: 1; white-space: pre; opacity: 1;" transform="translate(0,137.12)">$50M</text></g></g><g class="overaxes-above"/></g></g><g class="polarlayer"/><g class="smithlayer"/><g class="ternarylayer"/><g class="geolayer"/><g class="funnelarealayer"/><g class="pielayer"/><g class="iciclelayer"/><g class="treemaplayer"/><g class="sunburstlayer"/><g class="glimages"/><defs id="topdefs-36a4ad"><g class="clips"/></defs><g class="layer-above"><g class="imagelayer"/><g class="shapelayer"/></g><g class="infolayer"><g class="g-gtitle"><text class="gtitle" x="35" y="50" text-anchor="start" dy="0em" style="font-family: 'Open Sans', verdana, arial, sans-serif; font-size: 17px; fill: rgb(42, 63, 95); opacity: 1; font-weight: normal; white-space: pre;"><tspan class="line" dy="0em" x="35" y="50">Synthetix - All Synthetix Velo Pools</tspan><tspan class="line" dy="1.3em" x="35" y="50">​<tspan style="font-size:70%" dy="-0.6em">Cumulative Net Flows since Program Announcement, Until Program End + 30 Days - At Last Price</tspan><tspan dy="0.42em">​</tspan></tspan></text></g><g class="g-xtitle"><text class="xtitle" x="350" y="460.8" text-anchor="middle" style="font-family: 'Open Sans', verdana, arial, sans-serif; font-size: 14px; fill: rgb(42, 63, 95); opacity: 1; font-weight: normal; white-space: pre;">Day</text></g><g class="g-ytitle"><text class="ytitle" transform="rotate(-90,24.168750000000003,260)" x="24.168750000000003" y="260" text-anchor="middle" style="font-family: 'Open Sans', verdana, arial, sans-serif; font-size: 14px; fill: rgb(42, 63, 95); opacity: 1; font-weight: normal; white-space: pre;">Cumulative Net Flows (USD)</text></g></g></svg>