<svg class="main-svg" xmlns="http://www.w3.org/2000/svg" xmlns:xlink="http://www.w3.org/1999/xlink" width="700" height="500" style="" viewBox="0 0 700 500"><rect x="0" y="0" width="700" height="500" style="fill: rgb(255, 255, 255); fill-opacity: 1;"/><defs id="defs-30b9fd"><g class="clips"><clipPath id="clip30b9fdxyplot" class="plotclip"><rect width="540" height="320"/></clipPath><clipPath class="axesclip" id="clip30b9fdx"><rect x="80" y="0" width="540" height="500"/></clipPath><clipPath class="axesclip" id="clip30b9fdy"><rect x="0" y="100" width="700" height="320"/></clipPath><clipPath class="axesclip" id="clip30b9fdxy"><rect x="80" y="100" width="540" height="320"/></clipPath></g><g class="gradients"/><g class="patterns"/></defs><g class="bglayer"><rect class="bg" x="80" y="100" width="540" height="320" style="fill: rgb(229, 236, 246); fill-opacity: 1; stroke-width: 0;"/></g><g class="layer-below"><g class="imagelayer"/><g class="shapelayer"/></g><g class="cartesianlayer"><g class="subplot xy"><g class="layer-subplot"><g class="shapelayer"/><g class="imagelayer"/></g><g class="minor-gridlayer"><g class="x"/><g class="y"/></g><g class="gridlayer"><g class="x"><path class="xgrid crisp" transform="translate(190.2,0)" d="M0,100v320" style="stroke: rgb(255, 255, 255); stroke-opacity: 1; stroke-width: 1px;"/><path class="xgrid crisp" transform="translate(300.40999999999997,0)" d="M0,100v320" style="stroke: rgb(255, 255, 255); stroke-opacity: 1; stroke-width: 1px;"/><path class="xgrid crisp" transform="translate(414.29,0)" d="M0,100v320" style="stroke: rgb(255, 255, 255); stroke-opacity: 1; stroke-width: 1px;"/><path class="xgrid crisp" transform="translate(524.49,0)" d="M0,100v320" style="stroke: rgb(255, 255, 255); stroke-opacity: 1; stroke-width: 1px;"/></g><g class="y"><path class="ygrid crisp" transform="translate(0,381.78)" d="M80,0h540" style="stroke: rgb(255, 255, 255); stroke-opacity: 1; stroke-width: 1px;"/><path class="ygrid crisp" transform="translate(0,343.56)" d="M80,0h540" style="stroke: rgb(255, 255, 255); stroke-opacity: 1; stroke-width: 1px;"/><path class="ygrid crisp" transform="translate(0,305.34000000000003)" d="M80,0h540" style="stroke: rgb(255, 255, 255); stroke-opacity: 1; stroke-width: 1px;"/><path class="ygrid crisp" transform="translate(0,267.12)" d="M80,0h540" style="stroke: rgb(255, 255, 255); stroke-opacity: 1; stroke-width: 1px;"/><path class="ygrid crisp" transform="translate(0,228.91)" d="M80,0h540" style="stroke: rgb(255, 255, 255); stroke-opacity: 1; stroke-width: 1px;"/><path class="ygrid crisp" transform="translate(0,190.69)" d="M80,0h540" style="stroke: rgb(255, 255, 255); stroke-opacity: 1; stroke-width: 1px;"/><path class="ygrid crisp" transform="translate(0,152.47)" d="M80,0h540" style="stroke: rgb(255, 255, 255); stroke-opacity: 1; stroke-width: 1px;"/><path class="ygrid crisp" transform="translate(0,114.25)" d="M80,0h540" style="stroke: rgb(255, 255, 255); stroke-opacity: 1; stroke-width: 1px;"/></g></g><g class="zerolinelayer"><path class="yzl zl crisp" transform="translate(0,420)" d="M80,0h540" style="stroke: rgb(255, 255, 255); stroke-opacity: 1; stroke-width: 2px;"/></g><path class="xlines-below"/><path class="ylines-below"/><g class="overlines-below"/><g class="xaxislayer-below"/><g class="yaxislayer-below"/><g class="overaxes-below"/><g class="plot" transform="translate(80,100)" clip-path="url(#clip30b9fdxyplot)"><g class="scatterlayer mlayer"><g class="trace scatter traceac157c" style="stroke-miterlimit: 2;"><g class="fills"><g><path class="js-fill" d="M540,320L0,320L0,319.62L3.67,284.74L7.35,201.55L11.02,166.12L14.69,157.49L18.37,143.96L22.04,121.83L25.71,110.42L29.39,55.92L33.06,52.67L36.73,50.79L40.41,34.11L44.08,28.12L47.76,26.48L51.43,18.14L55.1,40.94L58.78,16L66.12,17.33L69.8,29.64L77.14,35.69L80.82,37.44L84.49,46.39L88.16,47.72L91.84,41.44L95.51,40.97L99.18,42.54L102.86,47.01L106.53,48.02L110.2,45.38L113.88,45.64L117.55,59.33L124.9,59.22L128.57,61.22L132.24,63.22L135.92,69.26L139.59,70.23L143.27,81.7L146.94,90.46L150.61,95.79L154.29,103.29L157.96,113.72L161.63,118.58L165.31,109.4L168.98,65.16L172.65,63.59L176.33,51.21L180,54.57L183.67,52.46L187.35,52.01L191.02,61.89L194.69,40.4L198.37,37.16L202.04,28.5L205.71,27.43L209.39,29.57L213.06,34.09L216.73,32.94L220.41,30.39L224.08,26.86L231.43,26.49L235.1,32.4L242.45,38.1L246.12,33.96L249.8,31.84L253.47,40.94L257.14,46.33L260.82,44.71L264.49,43.49L268.16,46.39L271.84,45.08L275.51,40.56L279.18,72.18L282.86,80.23L286.53,82.12L290.2,83.1L293.88,84.06L297.55,119.61L301.22,117.05L304.9,123.46L308.57,129.39L312.24,156.07L315.92,181.48L319.59,174.45L323.27,148.55L326.94,149.44L330.61,154.69L334.29,153.7L341.63,158.13L345.31,151.16L348.98,153.94L352.65,149.61L356.33,149.38L360,144.38L363.67,146.83L367.35,156.32L371.02,156.14L374.69,146.18L378.37,151.23L382.04,149.97L385.71,177.94L389.39,179.59L393.06,179.94L396.73,179.27L400.41,168.87L404.08,165.07L407.76,161.79L411.43,157.02L415.1,155.02L418.78,167.19L422.45,173.29L426.12,173.58L429.8,176.03L433.47,176.69L437.14,169.97L440.82,177.68L444.49,187.19L448.16,186.5L451.84,176.51L455.51,174.49L459.18,178.15L462.86,174.65L466.53,173.87L470.2,171.39L473.88,174.28L477.55,183.92L481.22,183.19L484.9,184.21L488.57,186.03L492.24,190.59L499.59,181.95L503.27,183.6L506.94,180.76L510.61,180.46L514.29,177.85L517.96,191.1L521.63,194.34L525.31,195.37L528.98,196.72L532.65,197.03L540,193.94" style="fill: rgb(99, 110, 250); fill-opacity: 0.5; stroke-width: 0;"/></g></g><g class="errorbars"/><g class="lines"><path class="js-line" d="M0,319.62L3.67,284.74L7.35,201.55L11.02,166.12L14.69,157.49L18.37,143.96L22.04,121.83L25.71,110.42L29.39,55.92L33.06,52.67L36.73,50.79L40.41,34.11L44.08,28.12L47.76,26.48L51.43,18.14L55.1,40.94L58.78,16L66.12,17.33L69.8,29.64L77.14,35.69L80.82,37.44L84.49,46.39L88.16,47.72L91.84,41.44L95.51,40.97L99.18,42.54L102.86,47.01L106.53,48.02L110.2,45.38L113.88,45.64L117.55,59.33L124.9,59.22L128.57,61.22L132.24,63.22L135.92,69.26L139.59,70.23L143.27,81.7L146.94,90.46L150.61,95.79L154.29,103.29L157.96,113.72L161.63,118.58L165.31,109.4L168.98,65.16L172.65,63.59L176.33,51.21L180,54.57L183.67,52.46L187.35,52.01L191.02,61.89L194.69,40.4L198.37,37.16L202.04,28.5L205.71,27.43L209.39,29.57L213.06,34.09L216.73,32.94L220.41,30.39L224.08,26.86L231.43,26.49L235.1,32.4L242.45,38.1L246.12,33.96L249.8,31.84L253.47,40.94L257.14,46.33L260.82,44.71L264.49,43.49L268.16,46.39L271.84,45.08L275.51,40.56L279.18,72.18L282.86,80.23L286.53,82.12L290.2,83.1L293.88,84.06L297.55,119.61L301.22,117.05L304.9,123.46L308.57,129.39L312.24,156.07L315.92,181.48L319.59,174.45L323.27,148.55L326.94,149.44L330.61,154.69L334.29,153.7L341.63,158.13L345.31,151.16L348.98,153.94L352.65,149.61L356.33,149.38L360,144.38L363.67,146.83L367.35,156.32L371.02,156.14L374.69,146.18L378.37,151.23L382.04,149.97L385.71,177.94L389.39,179.59L393.06,179.94L396.73,179.27L400.41,168.87L404.08,165.07L407.76,161.79L411.43,157.02L415.1,155.02L418.78,167.19L422.45,173.29L426.12,173.58L429.8,176.03L433.47,176.69L437.14,169.97L440.82,177.68L444.49,187.19L448.16,186.5L451.84,176.51L455.51,174.49L459.18,178.15L462.86,174.65L466.53,173.87L470.2,171.39L473.88,174.28L477.55,183.92L481.22,183.19L484.9,184.21L488.57,186.03L492.24,190.59L499.59,181.95L503.27,183.6L506.94,180.76L510.61,180.46L514.29,177.85L517.96,191.1L521.63,194.34L525.31,195.37L528.98,196.72L532.65,197.03L540,193.94" style="vector-effect: non-scaling-stroke; fill: none; stroke: rgb(99, 110, 250); stroke-opacity: 1; stroke-width: 2px; opacity: 1;"/></g><g class="points"/><g class="text"/></g></g></g><g class="overplot"/><path class="xlines-above crisp" d="M0,0" style="fill: none;"/><path class="ylines-above crisp" d="M0,0" style="fill: none;"/><g class="overlines-above"/><g class="xaxislayer-above"><g class="xtick"><text text-anchor="middle" x="0" y="433" transform="translate(190.2,0)" style="font-family: 'Open Sans', verdana, arial, sans-serif; font-size: 12px; fill: rgb(42, 63, 95); fill-opacity: 1; white-space: pre; opacity: 1;">Sep 2022</text></g><g class="xtick"><text text-anchor="middle" x="0" y="433" style="font-family: 'Open Sans', verdana, arial, sans-serif; font-size: 12px; fill: rgb(42, 63, 95); fill-opacity: 1; white-space: pre; opacity: 1;" transform="translate(300.40999999999997,0)">Oct 2022</text></g><g class="xtick"><text text-anchor="middle" x="0" y="433" style="font-family: 'Open Sans', verdana, arial, sans-serif; font-size: 12px; fill: rgb(42, 63, 95); fill-opacity: 1; white-space: pre; opacity: 1;" transform="translate(414.29,0)">Nov 2022</text></g><g class="xtick"><text text-anchor="middle" x="0" y="433" style="font-family: 'Open Sans', verdana, arial, sans-serif; font-size: 12px; fill: rgb(42, 63, 95); fill-opacity: 1; white-space: pre; opacity: 1;" transform="translate(524.49,0)">Dec 2022</text></g></g><g class="yaxislayer-above"><g class="ytick"><text text-anchor="end" x="79" y="4.199999999999999" transform="translate(0,420)" style="font-family: 'Open Sans', verdana, arial, sans-serif; font-size: 12px; fill: rgb(42, 63, 95); fill-opacity: 1; white-space: pre; opacity: 1;">$0</text></g><g class="ytick"><text text-anchor="end" x="79" y="4.199999999999999" style="font-family: 'Open Sans', verdana, arial, sans-serif; font-size: 12px; fill: rgb(42, 63, 95); fill-opacity: 1; white-space: pre; opacity: 1;" transform="translate(0,381.78)">$2M</text></g><g class="ytick"><text text-anchor="end" x="79" y="4.199999999999999" style="font-family: 'Open Sans', verdana, arial, sans-serif; font-size: 12px; fill: rgb(42, 63, 95); fill-opacity: 1; white-space: pre; opacity: 1;" transform="translate(0,343.56)">$4M</text></g><g class="ytick"><text text-anchor="end" x="79" y="4.199999999999999" style="font-family: 'Open Sans', verdana, arial, sans-serif; font-size: 12px; fill: rgb(42, 63, 95); fill-opacity: 1; white-space: pre; opacity: 1;" transform="translate(0,305.34000000000003)">$6M</text></g><g class="ytick"><text text-anchor="end" x="79" y="4.199999999999999" style="font-family: 'Open Sans', verdana, arial, sans-serif; font-size: 12px; fill: rgb(42, 63, 95); fill-opacity: 1; white-space: pre; opacity: 1;" transform="translate(0,267.12)">$8M</text></g><g class="ytick"><text text-anchor="end" x="79" y="4.199999999999999" style="font-family: 'Open Sans', verdana, arial, sans-serif; font-size: 12px; fill: rgb(42, 63, 95); fill-opacity: 1; white-space: pre; opacity: 1;" transform="translate(0,228.91)">$10M</text></g><g class="ytick"><text text-anchor="end" x="79" y="4.199999999999999" style="font-family: 'Open Sans', verdana, arial, sans-serif; font-size: 12px; fill: rgb(42, 63, 95); fill-opacity: 1; white-space: pre; opacity: 1;" transform="translate(0,190.69)">$12M</text></g><g class="ytick"><text text-anchor="end" x="79" y="4.199999999999999" style="font-family: 'Open Sans', verdana, arial, sans-serif; font-size: 12px; fill: rgb(42, 63, 95); fill-opacity: 1; white-space: pre; opacity: 1;" transform="translate(0,152.47)">$14M</text></g><g class="ytick"><text text-anchor="end" x="79" y="4.199999999999999" style="font-family: 'Open Sans', verdana, arial, sans-serif; font-size: 12px; fill: rgb(42, 63, 95); fill-opacity: 1; white-space: pre; opacity: 1;" transform="translate(0,114.25)">$16M</text></g></g><g class="overaxes-above"/></g></g><g class="polarlayer"/><g class="smithlayer"/><g class="ternarylayer"/><g class="geolayer"/><g class="funnelarealayer"/><g class="pielayer"/><g class="iciclelayer"/><g class="treemaplayer"/><g class="sunburstlayer"/><g class="glimages"/><defs id="topdefs-30b9fd"><g class="clips"/></defs><g class="layer-above"><g class="imagelayer"/><g class="shapelayer"/></g><g class="infolayer"><g class="g-gtitle"><text class="gtitle" x="35" y="50" text-anchor="start" dy="0em" style="font-family: 'Open Sans', verdana, arial, sans-serif; font-size: 17px; fill: rgb(42, 63, 95); opacity: 1; font-weight: normal; white-space: pre;"><tspan class="line" dy="0em" x="35" y="50">Lyra</tspan><tspan class="line" dy="1.3em" x="35" y="50">​<tspan style="font-size:70%" dy="-0.6em">Cumulative Net Dollar Flow since Program Announcement, Until Program End + 30 Days - At Last Price</tspan><tspan dy="0.42em">​</tspan></tspan></text></g><g class="g-xtitle"><text class="xtitle" x="350" y="460.8" text-anchor="middle" style="font-family: 'Open Sans', verdana, arial, sans-serif; font-size: 14px; fill: rgb(42, 63, 95); opacity: 1; font-weight: normal; white-space: pre;">Day</text></g><g class="g-ytitle"><text class="ytitle" transform="rotate(-90,24.168750000000003,260)" x="24.168750000000003" y="260" text-anchor="middle" style="font-family: 'Open Sans', verdana, arial, sans-serif; font-size: 14px; fill: rgb(42, 63, 95); opacity: 1; font-weight: normal; white-space: pre;">Cumulative Net Dollar Flow (N$F)</text></g></g></svg>