<svg class="main-svg" xmlns="http://www.w3.org/2000/svg" xmlns:xlink="http://www.w3.org/1999/xlink" width="700" height="500" style="" viewBox="0 0 700 500"><rect x="0" y="0" width="700" height="500" style="fill: rgb(255, 255, 255); fill-opacity: 1;"/><defs id="defs-b7642f"><g class="clips"><clipPath id="clipb7642fxyplot" class="plotclip"><rect width="540" height="320"/></clipPath><clipPath class="axesclip" id="clipb7642fx"><rect x="80" y="0" width="540" height="500"/></clipPath><clipPath class="axesclip" id="clipb7642fy"><rect x="0" y="100" width="700" height="320"/></clipPath><clipPath class="axesclip" id="clipb7642fxy"><rect x="80" y="100" width="540" height="320"/></clipPath></g><g class="gradients"/><g class="patterns"/></defs><g class="bglayer"><rect class="bg" x="80" y="100" width="540" height="320" style="fill: rgb(229, 236, 246); fill-opacity: 1; stroke-width: 0;"/></g><g class="layer-below"><g class="imagelayer"/><g class="shapelayer"/></g><g class="cartesianlayer"><g class="subplot xy"><g class="layer-subplot"><g class="shapelayer"/><g class="imagelayer"/></g><g class="minor-gridlayer"><g class="x"/><g class="y"/></g><g class="gridlayer"><g class="x"><path class="xgrid crisp" transform="translate(144.2,0)" d="M0,100v320" style="stroke: rgb(255, 255, 255); stroke-opacity: 1; stroke-width: 1px;"/><path class="xgrid crisp" transform="translate(261.26,0)" d="M0,100v320" style="stroke: rgb(255, 255, 255); stroke-opacity: 1; stroke-width: 1px;"/><path class="xgrid crisp" transform="translate(374.55,0)" d="M0,100v320" style="stroke: rgb(255, 255, 255); stroke-opacity: 1; stroke-width: 1px;"/><path class="xgrid crisp" transform="translate(491.61,0)" d="M0,100v320" style="stroke: rgb(255, 255, 255); stroke-opacity: 1; stroke-width: 1px;"/><path class="xgrid crisp" transform="translate(608.67,0)" d="M0,100v320" style="stroke: rgb(255, 255, 255); stroke-opacity: 1; stroke-width: 1px;"/></g><g class="y"><path class="ygrid crisp" transform="translate(0,319.26)" d="M80,0h540" style="stroke: rgb(255, 255, 255); stroke-opacity: 1; stroke-width: 1px;"/><path class="ygrid crisp" transform="translate(0,253.1)" d="M80,0h540" style="stroke: rgb(255, 255, 255); stroke-opacity: 1; stroke-width: 1px;"/><path class="ygrid crisp" transform="translate(0,186.95)" d="M80,0h540" style="stroke: rgb(255, 255, 255); stroke-opacity: 1; stroke-width: 1px;"/><path class="ygrid crisp" transform="translate(0,120.8)" d="M80,0h540" style="stroke: rgb(255, 255, 255); stroke-opacity: 1; stroke-width: 1px;"/></g></g><g class="zerolinelayer"><path class="yzl zl crisp" transform="translate(0,385.41)" d="M80,0h540" style="stroke: rgb(255, 255, 255); stroke-opacity: 1; stroke-width: 2px;"/></g><path class="xlines-below"/><path class="ylines-below"/><g class="overlines-below"/><g class="xaxislayer-below"/><g class="yaxislayer-below"/><g class="overaxes-below"/><g class="plot" transform="translate(80,100)" clip-path="url(#clipb7642fxyplot)"><g class="scatterlayer mlayer"><g class="trace scatter tracef3690f" style="stroke-miterlimit: 2;"><g class="fills"><g><path class="js-fill" d="M540,285.41L0,285.41L0,285.71L3.78,287.39L7.55,287.15L11.33,300.96L15.1,299.32L18.88,299.22L22.66,297.63L26.43,304L30.21,301.45L33.99,299.86L37.76,297.45L41.54,296.01L45.31,297.39L49.09,293.91L52.87,291.81L56.64,287.49L60.42,287.56L64.2,282.27L67.97,278.47L71.75,272.35L75.52,273.7L83.08,270.24L86.85,254.63L90.63,252.68L94.41,249.32L98.18,250.19L101.96,249.74L109.51,245.83L113.29,245.22L117.06,242.04L120.84,240.87L124.62,236.06L128.39,233.94L132.17,233.88L135.94,228.75L139.72,209.34L143.5,201.18L147.27,191.67L151.05,197.85L154.83,192.33L158.6,146.32L162.38,158.94L166.15,161.16L169.93,171.12L173.71,169.95L177.48,168.26L181.26,165.22L185.03,163.25L188.81,166.19L192.59,145.39L196.36,145.26L200.14,140.73L203.92,134.18L207.69,130.38L211.47,133.85L215.24,154.87L219.02,162.33L222.8,179.13L226.57,179.4L230.35,207.95L234.13,206.56L237.9,206.18L241.68,209.54L245.45,201.58L249.23,203.98L253.01,194.46L256.78,195.78L260.56,196.24L264.34,195.92L275.66,182.96L279.44,177.11L283.22,180.44L286.99,177.42L290.77,177.37L294.55,176.25L298.32,168.8L302.1,167.38L305.87,160.64L309.65,162.88L313.43,162.43L317.2,155.35L320.98,153.81L324.76,140.43L328.53,138.92L332.31,132.94L336.08,132.52L339.86,142.59L343.64,135.31L347.41,130.19L351.19,131.45L354.97,126.35L358.74,129.31L362.52,123.79L366.29,126.66L370.07,124.41L373.85,114.97L377.62,113.58L381.4,117.35L385.17,116.78L388.95,115.75L392.73,117.16L400.28,113.19L404.06,117.97L407.83,124.94L411.61,124.98L415.38,125.53L419.16,118.33L422.94,108.14L426.71,87.25L430.49,82.1L434.27,91.29L441.82,55.81L445.59,32.74L449.37,16L453.15,18.22L456.92,29.46L460.7,48.29L464.48,52.94L468.25,60.66L472.03,84.46L475.8,103.02L479.58,108.78L483.36,111.44L487.13,163.56L490.91,179.01L494.69,191.87L498.46,194.84L506.01,198.83L509.79,201.43L513.57,204.91L517.34,209.52L521.12,211.4L524.9,211.31L528.67,211.99L532.45,213.54L536.22,214.27L540,219.73" style="fill: rgb(99, 110, 250); fill-opacity: 0.5; stroke-width: 0;"/></g></g><g class="errorbars"/><g class="lines"><path class="js-line" d="M0,285.71L3.78,287.39L7.55,287.15L11.33,300.96L15.1,299.32L18.88,299.22L22.66,297.63L26.43,304L30.21,301.45L33.99,299.86L37.76,297.45L41.54,296.01L45.31,297.39L49.09,293.91L52.87,291.81L56.64,287.49L60.42,287.56L64.2,282.27L67.97,278.47L71.75,272.35L75.52,273.7L83.08,270.24L86.85,254.63L90.63,252.68L94.41,249.32L98.18,250.19L101.96,249.74L109.51,245.83L113.29,245.22L117.06,242.04L120.84,240.87L124.62,236.06L128.39,233.94L132.17,233.88L135.94,228.75L139.72,209.34L143.5,201.18L147.27,191.67L151.05,197.85L154.83,192.33L158.6,146.32L162.38,158.94L166.15,161.16L169.93,171.12L173.71,169.95L177.48,168.26L181.26,165.22L185.03,163.25L188.81,166.19L192.59,145.39L196.36,145.26L200.14,140.73L203.92,134.18L207.69,130.38L211.47,133.85L215.24,154.87L219.02,162.33L222.8,179.13L226.57,179.4L230.35,207.95L234.13,206.56L237.9,206.18L241.68,209.54L245.45,201.58L249.23,203.98L253.01,194.46L256.78,195.78L260.56,196.24L264.34,195.92L275.66,182.96L279.44,177.11L283.22,180.44L286.99,177.42L290.77,177.37L294.55,176.25L298.32,168.8L302.1,167.38L305.87,160.64L309.65,162.88L313.43,162.43L317.2,155.35L320.98,153.81L324.76,140.43L328.53,138.92L332.31,132.94L336.08,132.52L339.86,142.59L343.64,135.31L347.41,130.19L351.19,131.45L354.97,126.35L358.74,129.31L362.52,123.79L366.29,126.66L370.07,124.41L373.85,114.97L377.62,113.58L381.4,117.35L385.17,116.78L388.95,115.75L392.73,117.16L400.28,113.19L404.06,117.97L407.83,124.94L411.61,124.98L415.38,125.53L419.16,118.33L422.94,108.14L426.71,87.25L430.49,82.1L434.27,91.29L441.82,55.81L445.59,32.74L449.37,16L453.15,18.22L456.92,29.46L460.7,48.29L464.48,52.94L468.25,60.66L472.03,84.46L475.8,103.02L479.58,108.78L483.36,111.44L487.13,163.56L490.91,179.01L494.69,191.87L498.46,194.84L506.01,198.83L509.79,201.43L513.57,204.91L517.34,209.52L521.12,211.4L524.9,211.31L528.67,211.99L532.45,213.54L536.22,214.27L540,219.73" style="vector-effect: non-scaling-stroke; fill: none; stroke: rgb(99, 110, 250); stroke-opacity: 1; stroke-width: 2px; opacity: 1;"/></g><g class="points"/><g class="text"/></g></g></g><g class="overplot"/><path class="xlines-above crisp" d="M0,0" style="fill: none;"/><path class="ylines-above crisp" d="M0,0" style="fill: none;"/><g class="overlines-above"/><g class="xaxislayer-above"><g class="xtick"><text text-anchor="middle" x="0" y="433" transform="translate(144.2,0)" style="font-family: 'Open Sans', verdana, arial, sans-serif; font-size: 12px; fill: rgb(42, 63, 95); fill-opacity: 1; white-space: pre; opacity: 1;">Oct 2022</text></g><g class="xtick"><text text-anchor="middle" x="0" y="433" style="font-family: 'Open Sans', verdana, arial, sans-serif; font-size: 12px; fill: rgb(42, 63, 95); fill-opacity: 1; white-space: pre; opacity: 1;" transform="translate(261.26,0)">Nov 2022</text></g><g class="xtick"><text text-anchor="middle" x="0" y="433" style="font-family: 'Open Sans', verdana, arial, sans-serif; font-size: 12px; fill: rgb(42, 63, 95); fill-opacity: 1; white-space: pre; opacity: 1;" transform="translate(374.55,0)">Dec 2022</text></g><g class="xtick"><text text-anchor="middle" x="0" y="433" style="font-family: 'Open Sans', verdana, arial, sans-serif; font-size: 12px; fill: rgb(42, 63, 95); fill-opacity: 1; white-space: pre; opacity: 1;" transform="translate(491.61,0)">Jan 2023</text></g><g class="xtick"><text text-anchor="middle" x="0" y="433" style="font-family: 'Open Sans', verdana, arial, sans-serif; font-size: 12px; fill: rgb(42, 63, 95); fill-opacity: 1; white-space: pre; opacity: 1;" transform="translate(608.67,0)">Feb 2023</text></g></g><g class="yaxislayer-above"><g class="ytick"><text text-anchor="end" x="79" y="4.199999999999999" transform="translate(0,385.41)" style="font-family: 'Open Sans', verdana, arial, sans-serif; font-size: 12px; fill: rgb(42, 63, 95); fill-opacity: 1; white-space: pre; opacity: 1;">$0</text></g><g class="ytick"><text text-anchor="end" x="79" y="4.199999999999999" style="font-family: 'Open Sans', verdana, arial, sans-serif; font-size: 12px; fill: rgb(42, 63, 95); fill-opacity: 1; white-space: pre; opacity: 1;" transform="translate(0,319.26)">$200k</text></g><g class="ytick"><text text-anchor="end" x="79" y="4.199999999999999" style="font-family: 'Open Sans', verdana, arial, sans-serif; font-size: 12px; fill: rgb(42, 63, 95); fill-opacity: 1; white-space: pre; opacity: 1;" transform="translate(0,253.1)">$400k</text></g><g class="ytick"><text text-anchor="end" x="79" y="4.199999999999999" style="font-family: 'Open Sans', verdana, arial, sans-serif; font-size: 12px; fill: rgb(42, 63, 95); fill-opacity: 1; white-space: pre; opacity: 1;" transform="translate(0,186.95)">$600k</text></g><g class="ytick"><text text-anchor="end" x="79" y="4.199999999999999" style="font-family: 'Open Sans', verdana, arial, sans-serif; font-size: 12px; fill: rgb(42, 63, 95); fill-opacity: 1; white-space: pre; opacity: 1;" transform="translate(0,120.8)">$800k</text></g></g><g class="overaxes-above"/></g></g><g class="polarlayer"/><g class="smithlayer"/><g class="ternarylayer"/><g class="geolayer"/><g class="funnelarealayer"/><g class="pielayer"/><g class="iciclelayer"/><g class="treemaplayer"/><g class="sunburstlayer"/><g class="glimages"/><defs id="topdefs-b7642f"><g class="clips"/></defs><g class="layer-above"><g class="imagelayer"/><g class="shapelayer"/></g><g class="infolayer"><g class="g-gtitle"><text class="gtitle" x="35" y="50" text-anchor="start" dy="0em" style="font-family: 'Open Sans', verdana, arial, sans-serif; font-size: 17px; fill: rgb(42, 63, 95); opacity: 1; font-weight: normal; white-space: pre;"><tspan class="line" dy="0em" x="35" y="50">Polynomial Protocol</tspan><tspan class="line" dy="1.3em" x="35" y="50">​<tspan style="font-size:70%" dy="-0.6em">Cumulative Net Dollar Flow since Program Announcement, Until Program End + 30 Days - At Last Price</tspan><tspan dy="0.42em">​</tspan></tspan></text></g><g class="g-xtitle"><text class="xtitle" x="350" y="460.8" text-anchor="middle" style="font-family: 'Open Sans', verdana, arial, sans-serif; font-size: 14px; fill: rgb(42, 63, 95); opacity: 1; font-weight: normal; white-space: pre;">Day</text></g><g class="g-ytitle"><text class="ytitle" transform="rotate(-90,21.496875000000003,260)" x="21.496875000000003" y="260" text-anchor="middle" style="font-family: 'Open Sans', verdana, arial, sans-serif; font-size: 14px; fill: rgb(42, 63, 95); opacity: 1; font-weight: normal; white-space: pre;">Cumulative Net Dollar Flow (N$F)</text></g></g></svg>