<svg class="main-svg" xmlns="http://www.w3.org/2000/svg" xmlns:xlink="http://www.w3.org/1999/xlink" width="700" height="500" style="" viewBox="0 0 700 500"><rect x="0" y="0" width="700" height="500" style="fill: rgb(255, 255, 255); fill-opacity: 1;"/><defs id="defs-2ac4ed"><g class="clips"><clipPath id="clip2ac4edxyplot" class="plotclip"><rect width="540" height="320"/></clipPath><clipPath class="axesclip" id="clip2ac4edx"><rect x="80" y="0" width="540" height="500"/></clipPath><clipPath class="axesclip" id="clip2ac4edy"><rect x="0" y="100" width="700" height="320"/></clipPath><clipPath class="axesclip" id="clip2ac4edxy"><rect x="80" y="100" width="540" height="320"/></clipPath></g><g class="gradients"/><g class="patterns"/></defs><g class="bglayer"><rect class="bg" x="80" y="100" width="540" height="320" style="fill: rgb(229, 236, 246); fill-opacity: 1; stroke-width: 0;"/></g><g class="layer-below"><g class="imagelayer"/><g class="shapelayer"/></g><g class="cartesianlayer"><g class="subplot xy"><g class="layer-subplot"><g class="shapelayer"/><g class="imagelayer"/></g><g class="minor-gridlayer"><g class="x"/><g class="y"/></g><g class="gridlayer"><g class="x"><path class="xgrid crisp" transform="translate(94.78999999999999,0)" d="M0,100v320" style="stroke: rgb(255, 255, 255); stroke-opacity: 1; stroke-width: 1px;"/><path class="xgrid crisp" transform="translate(209.45,0)" d="M0,100v320" style="stroke: rgb(255, 255, 255); stroke-opacity: 1; stroke-width: 1px;"/><path class="xgrid crisp" transform="translate(320.40999999999997,0)" d="M0,100v320" style="stroke: rgb(255, 255, 255); stroke-opacity: 1; stroke-width: 1px;"/><path class="xgrid crisp" transform="translate(435.07,0)" d="M0,100v320" style="stroke: rgb(255, 255, 255); stroke-opacity: 1; stroke-width: 1px;"/><path class="xgrid crisp" transform="translate(549.73,0)" d="M0,100v320" style="stroke: rgb(255, 255, 255); stroke-opacity: 1; stroke-width: 1px;"/></g><g class="y"><path class="ygrid crisp" transform="translate(0,334.37)" d="M80,0h540" style="stroke: rgb(255, 255, 255); stroke-opacity: 1; stroke-width: 1px;"/><path class="ygrid crisp" transform="translate(0,274.40999999999997)" d="M80,0h540" style="stroke: rgb(255, 255, 255); stroke-opacity: 1; stroke-width: 1px;"/><path class="ygrid crisp" transform="translate(0,214.45999999999998)" d="M80,0h540" style="stroke: rgb(255, 255, 255); stroke-opacity: 1; stroke-width: 1px;"/><path class="ygrid crisp" transform="translate(0,154.5)" d="M80,0h540" style="stroke: rgb(255, 255, 255); stroke-opacity: 1; stroke-width: 1px;"/></g></g><g class="zerolinelayer"><path class="yzl zl crisp" transform="translate(0,394.33)" d="M80,0h540" style="stroke: rgb(255, 255, 255); stroke-opacity: 1; stroke-width: 2px;"/></g><path class="xlines-below"/><path class="ylines-below"/><g class="overlines-below"/><g class="xaxislayer-below"/><g class="yaxislayer-below"/><g class="overaxes-below"/><g class="plot" transform="translate(80,100)" clip-path="url(#clip2ac4edxyplot)"><g class="scatterlayer mlayer"><g class="trace scatter tracea5a648" style="stroke-miterlimit: 2;"><g class="fills"><g><path class="js-fill" d="M540,294.33L0,294.33L0,301.41L3.7,301.42L7.4,300.59L18.49,299.61L22.19,299.52L25.89,297.79L29.59,291.62L33.29,291.84L36.99,297.46L40.68,291.47L44.38,292.29L55.48,292.52L59.18,289.33L62.88,281.85L66.58,280.74L70.27,280.74L73.97,282.69L77.67,270.53L81.37,270.38L85.07,270.23L88.77,273.42L92.47,273.82L96.16,271.52L99.86,272.11L103.56,273.59L107.26,280.8L110.96,276.62L114.66,270.14L118.36,268.5L122.05,269.19L125.75,268.75L129.45,267.51L133.15,268.17L147.95,267.91L151.64,266.9L155.34,284.95L159.04,286.72L162.74,303.45L166.44,301.33L173.84,302.26L177.53,304L181.23,289.24L184.93,287.36L188.63,293.78L192.33,291.85L196.03,290.6L199.73,291.19L203.42,292.77L207.12,292.93L210.82,294.95L214.52,294.26L218.22,292.7L221.92,285.06L225.62,284.47L229.32,292.47L233.01,293.08L236.71,291.97L240.41,281.04L244.11,277.7L247.81,277.62L251.51,278.32L255.21,275.37L258.9,274.19L262.6,267.74L266.3,267.37L270,263.73L273.7,274.11L277.4,237.93L281.1,256.59L284.79,257.12L288.49,264.54L292.19,287.39L295.89,287.21L299.59,296.73L303.29,298.1L306.99,297.35L310.68,287.18L314.38,286.92L318.08,289.39L325.48,289.76L329.18,289.88L332.88,289.21L336.58,289.63L340.27,291.17L343.97,291.3L355.07,290.67L358.77,290.66L362.47,290.58L366.16,289.3L369.86,288.87L373.56,291.61L377.26,287.69L380.96,287.4L384.66,282.3L388.36,280.83L392.05,280.57L395.75,278.44L399.45,276.17L403.15,275.27L410.55,275.6L414.25,271.31L417.95,270.57L421.64,260.28L425.34,251.65L429.04,247.76L432.74,253.64L436.44,239.28L440.14,225.29L443.84,220.41L451.23,189.06L454.93,182.85L458.63,182.85L462.33,178.57L466.03,163.66L469.73,159.44L473.42,151.97L477.12,147.58L480.82,145.89L484.52,138.96L488.22,100.44L491.92,97.43L495.62,73.98L499.32,78.3L503.01,78.24L506.71,68.13L510.41,58.16L514.11,56.95L517.81,56.98L521.51,51.61L525.21,53.93L528.9,44.83L532.6,42.49L536.3,25.72L540,16" style="fill: rgb(99, 110, 250); fill-opacity: 0.5; stroke-width: 0;"/></g></g><g class="errorbars"/><g class="lines"><path class="js-line" d="M0,301.41L3.7,301.42L7.4,300.59L18.49,299.61L22.19,299.52L25.89,297.79L29.59,291.62L33.29,291.84L36.99,297.46L40.68,291.47L44.38,292.29L55.48,292.52L59.18,289.33L62.88,281.85L66.58,280.74L70.27,280.74L73.97,282.69L77.67,270.53L81.37,270.38L85.07,270.23L88.77,273.42L92.47,273.82L96.16,271.52L99.86,272.11L103.56,273.59L107.26,280.8L110.96,276.62L114.66,270.14L118.36,268.5L122.05,269.19L125.75,268.75L129.45,267.51L133.15,268.17L147.95,267.91L151.64,266.9L155.34,284.95L159.04,286.72L162.74,303.45L166.44,301.33L173.84,302.26L177.53,304L181.23,289.24L184.93,287.36L188.63,293.78L192.33,291.85L196.03,290.6L199.73,291.19L203.42,292.77L207.12,292.93L210.82,294.95L214.52,294.26L218.22,292.7L221.92,285.06L225.62,284.47L229.32,292.47L233.01,293.08L236.71,291.97L240.41,281.04L244.11,277.7L247.81,277.62L251.51,278.32L255.21,275.37L258.9,274.19L262.6,267.74L266.3,267.37L270,263.73L273.7,274.11L277.4,237.93L281.1,256.59L284.79,257.12L288.49,264.54L292.19,287.39L295.89,287.21L299.59,296.73L303.29,298.1L306.99,297.35L310.68,287.18L314.38,286.92L318.08,289.39L325.48,289.76L329.18,289.88L332.88,289.21L336.58,289.63L340.27,291.17L343.97,291.3L355.07,290.67L358.77,290.66L362.47,290.58L366.16,289.3L369.86,288.87L373.56,291.61L377.26,287.69L380.96,287.4L384.66,282.3L388.36,280.83L392.05,280.57L395.75,278.44L399.45,276.17L403.15,275.27L410.55,275.6L414.25,271.31L417.95,270.57L421.64,260.28L425.34,251.65L429.04,247.76L432.74,253.64L436.44,239.28L440.14,225.29L443.84,220.41L451.23,189.06L454.93,182.85L458.63,182.85L462.33,178.57L466.03,163.66L469.73,159.44L473.42,151.97L477.12,147.58L480.82,145.89L484.52,138.96L488.22,100.44L491.92,97.43L495.62,73.98L499.32,78.3L503.01,78.24L506.71,68.13L510.41,58.16L514.11,56.95L517.81,56.98L521.51,51.61L525.21,53.93L528.9,44.83L532.6,42.49L536.3,25.72L540,16" style="vector-effect: non-scaling-stroke; fill: none; stroke: rgb(99, 110, 250); stroke-opacity: 1; stroke-width: 2px; opacity: 1;"/></g><g class="points"/><g class="text"/></g></g></g><g class="overplot"/><path class="xlines-above crisp" d="M0,0" style="fill: none;"/><path class="ylines-above crisp" d="M0,0" style="fill: none;"/><g class="overlines-above"/><g class="xaxislayer-above"><g class="xtick"><text text-anchor="middle" x="0" y="433" transform="translate(94.78999999999999,0)" style="font-family: 'Open Sans', verdana, arial, sans-serif; font-size: 12px; fill: rgb(42, 63, 95); fill-opacity: 1; white-space: pre; opacity: 1;">Oct 2022</text></g><g class="xtick"><text text-anchor="middle" x="0" y="433" style="font-family: 'Open Sans', verdana, arial, sans-serif; font-size: 12px; fill: rgb(42, 63, 95); fill-opacity: 1; white-space: pre; opacity: 1;" transform="translate(209.45,0)">Nov 2022</text></g><g class="xtick"><text text-anchor="middle" x="0" y="433" style="font-family: 'Open Sans', verdana, arial, sans-serif; font-size: 12px; fill: rgb(42, 63, 95); fill-opacity: 1; white-space: pre; opacity: 1;" transform="translate(320.40999999999997,0)">Dec 2022</text></g><g class="xtick"><text text-anchor="middle" x="0" y="433" style="font-family: 'Open Sans', verdana, arial, sans-serif; font-size: 12px; fill: rgb(42, 63, 95); fill-opacity: 1; white-space: pre; opacity: 1;" transform="translate(435.07,0)">Jan 2023</text></g><g class="xtick"><text text-anchor="middle" x="0" y="433" style="font-family: 'Open Sans', verdana, arial, sans-serif; font-size: 12px; fill: rgb(42, 63, 95); fill-opacity: 1; white-space: pre; opacity: 1;" transform="translate(549.73,0)">Feb 2023</text></g></g><g class="yaxislayer-above"><g class="ytick"><text text-anchor="end" x="79" y="4.199999999999999" transform="translate(0,394.33)" style="font-family: 'Open Sans', verdana, arial, sans-serif; font-size: 12px; fill: rgb(42, 63, 95); fill-opacity: 1; white-space: pre; opacity: 1;">$0</text></g><g class="ytick"><text text-anchor="end" x="79" y="4.199999999999999" style="font-family: 'Open Sans', verdana, arial, sans-serif; font-size: 12px; fill: rgb(42, 63, 95); fill-opacity: 1; white-space: pre; opacity: 1;" transform="translate(0,334.37)">$5M</text></g><g class="ytick"><text text-anchor="end" x="79" y="4.199999999999999" style="font-family: 'Open Sans', verdana, arial, sans-serif; font-size: 12px; fill: rgb(42, 63, 95); fill-opacity: 1; white-space: pre; opacity: 1;" transform="translate(0,274.40999999999997)">$10M</text></g><g class="ytick"><text text-anchor="end" x="79" y="4.199999999999999" style="font-family: 'Open Sans', verdana, arial, sans-serif; font-size: 12px; fill: rgb(42, 63, 95); fill-opacity: 1; white-space: pre; opacity: 1;" transform="translate(0,214.45999999999998)">$15M</text></g><g class="ytick"><text text-anchor="end" x="79" y="4.199999999999999" style="font-family: 'Open Sans', verdana, arial, sans-serif; font-size: 12px; fill: rgb(42, 63, 95); fill-opacity: 1; white-space: pre; opacity: 1;" transform="translate(0,154.5)">$20M</text></g></g><g class="overaxes-above"/></g></g><g class="polarlayer"/><g class="smithlayer"/><g class="ternarylayer"/><g class="geolayer"/><g class="funnelarealayer"/><g class="pielayer"/><g class="iciclelayer"/><g class="treemaplayer"/><g class="sunburstlayer"/><g class="glimages"/><defs id="topdefs-2ac4ed"><g class="clips"/></defs><g class="layer-above"><g class="imagelayer"/><g class="shapelayer"/></g><g class="infolayer"><g class="g-gtitle"><text class="gtitle" x="35" y="50" text-anchor="start" dy="0em" style="font-family: 'Open Sans', verdana, arial, sans-serif; font-size: 17px; fill: rgb(42, 63, 95); opacity: 1; font-weight: normal; white-space: pre;"><tspan class="line" dy="0em" x="35" y="50">Synthetix - USDC/sUSD: Velo</tspan><tspan class="line" dy="1.3em" x="35" y="50">​<tspan style="font-size:70%" dy="-0.6em">Cumulative Net Flows since Program Announcement, Until Program End + 30 Days - At Last Price</tspan><tspan dy="0.42em">​</tspan></tspan></text></g><g class="g-xtitle"><text class="xtitle" x="350" y="460.8" text-anchor="middle" style="font-family: 'Open Sans', verdana, arial, sans-serif; font-size: 14px; fill: rgb(42, 63, 95); opacity: 1; font-weight: normal; white-space: pre;">Day</text></g><g class="g-ytitle"><text class="ytitle" transform="rotate(-90,24.168750000000003,260)" x="24.168750000000003" y="260" text-anchor="middle" style="font-family: 'Open Sans', verdana, arial, sans-serif; font-size: 14px; fill: rgb(42, 63, 95); opacity: 1; font-weight: normal; white-space: pre;">Cumulative Net Flows (USD)</text></g></g></svg>