<svg class="main-svg" xmlns="http://www.w3.org/2000/svg" xmlns:xlink="http://www.w3.org/1999/xlink" width="700" height="500" style="" viewBox="0 0 700 500"><rect x="0" y="0" width="700" height="500" style="fill: rgb(255, 255, 255); fill-opacity: 1;"/><defs id="defs-ec42d9"><g class="clips"><clipPath id="clipec42d9xyplot" class="plotclip"><rect width="540" height="320"/></clipPath><clipPath class="axesclip" id="clipec42d9x"><rect x="80" y="0" width="540" height="500"/></clipPath><clipPath class="axesclip" id="clipec42d9y"><rect x="0" y="100" width="700" height="320"/></clipPath><clipPath class="axesclip" id="clipec42d9xy"><rect x="80" y="100" width="540" height="320"/></clipPath></g><g class="gradients"/><g class="patterns"/></defs><g class="bglayer"><rect class="bg" x="80" y="100" width="540" height="320" style="fill: rgb(229, 236, 246); fill-opacity: 1; stroke-width: 0;"/></g><g class="layer-below"><g class="imagelayer"/><g class="shapelayer"/></g><g class="cartesianlayer"><g class="subplot xy"><g class="layer-subplot"><g class="shapelayer"/><g class="imagelayer"/></g><g class="minor-gridlayer"><g class="x"/><g class="y"/></g><g class="gridlayer"><g class="x"><path class="xgrid crisp" transform="translate(94.09,0)" d="M0,100v320" style="stroke: rgb(255, 255, 255); stroke-opacity: 1; stroke-width: 1px;"/><path class="xgrid crisp" transform="translate(159.82999999999998,0)" d="M0,100v320" style="stroke: rgb(255, 255, 255); stroke-opacity: 1; stroke-width: 1px;"/><path class="xgrid crisp" transform="translate(225.57,0)" d="M0,100v320" style="stroke: rgb(255, 255, 255); stroke-opacity: 1; stroke-width: 1px;"/><path class="xgrid crisp" transform="translate(291.3,0)" d="M0,100v320" style="stroke: rgb(255, 255, 255); stroke-opacity: 1; stroke-width: 1px;"/><path class="xgrid crisp" transform="translate(357.04,0)" d="M0,100v320" style="stroke: rgb(255, 255, 255); stroke-opacity: 1; stroke-width: 1px;"/><path class="xgrid crisp" transform="translate(422.78,0)" d="M0,100v320" style="stroke: rgb(255, 255, 255); stroke-opacity: 1; stroke-width: 1px;"/><path class="xgrid crisp" transform="translate(488.52,0)" d="M0,100v320" style="stroke: rgb(255, 255, 255); stroke-opacity: 1; stroke-width: 1px;"/><path class="xgrid crisp" transform="translate(554.26,0)" d="M0,100v320" style="stroke: rgb(255, 255, 255); stroke-opacity: 1; stroke-width: 1px;"/></g><g class="y"><path class="ygrid crisp" transform="translate(0,370.1)" d="M80,0h540" style="stroke: rgb(255, 255, 255); stroke-opacity: 1; stroke-width: 1px;"/><path class="ygrid crisp" transform="translate(0,320.21000000000004)" d="M80,0h540" style="stroke: rgb(255, 255, 255); stroke-opacity: 1; stroke-width: 1px;"/><path class="ygrid crisp" transform="translate(0,270.31)" d="M80,0h540" style="stroke: rgb(255, 255, 255); stroke-opacity: 1; stroke-width: 1px;"/><path class="ygrid crisp" transform="translate(0,220.42000000000002)" d="M80,0h540" style="stroke: rgb(255, 255, 255); stroke-opacity: 1; stroke-width: 1px;"/><path class="ygrid crisp" transform="translate(0,170.51999999999998)" d="M80,0h540" style="stroke: rgb(255, 255, 255); stroke-opacity: 1; stroke-width: 1px;"/><path class="ygrid crisp" transform="translate(0,120.63)" d="M80,0h540" style="stroke: rgb(255, 255, 255); stroke-opacity: 1; stroke-width: 1px;"/></g></g><g class="zerolinelayer"><path class="yzl zl crisp" transform="translate(0,420)" d="M80,0h540" style="stroke: rgb(255, 255, 255); stroke-opacity: 1; stroke-width: 2px;"/></g><path class="xlines-below"/><path class="ylines-below"/><g class="overlines-below"/><g class="xaxislayer-below"/><g class="yaxislayer-below"/><g class="overaxes-below"/><g class="plot" transform="translate(80,100)" clip-path="url(#clipec42d9xyplot)"><g class="scatterlayer mlayer"><g class="trace scatter trace44d986" style="stroke-miterlimit: 2;"><g class="fills"><g><path class="js-fill" d="M540,320L0,320L0,319.64L4.7,317.83L9.39,311.11L14.09,293.21L18.78,214.92L23.48,113.47L28.17,145.9L32.87,180.49L37.57,196.47L42.26,188.48L46.96,188.65L51.65,180.22L56.35,179.2L65.74,175.29L70.43,171.14L75.13,155.41L79.83,153.38L89.22,149.28L93.91,138.84L98.61,143.16L103.3,140.93L108,140.54L112.7,139.09L117.39,143.13L122.09,146.15L126.78,148.61L131.48,149.86L136.17,131.12L140.87,85.84L145.57,78.81L150.26,66.78L154.96,67.56L159.65,58.69L164.35,59.35L169.04,47.92L173.74,40.04L178.43,41.26L183.13,37.92L187.83,16L197.22,19.96L201.91,18.46L206.61,36.21L211.3,31.7L216,30.61L220.7,27.83L225.39,23.5L230.09,23.03L239.48,21.99L244.17,23.82L248.87,23.02L253.57,26.78L258.26,19.49L262.96,18.63L267.65,19.23L272.35,18.06L277.04,34.35L281.74,34.44L286.43,35.92L291.13,29.26L295.83,31.61L300.52,39.74L305.22,29.98L309.91,34.74L314.61,56.6L319.3,55.38L324,56.31L328.7,59.82L333.39,82.67L338.09,140.28L342.78,186.28L347.48,189.28L352.17,190.24L356.87,194.56L361.57,199.44L366.26,199.44L370.96,198.67L375.65,203.37L380.35,193.65L385.04,155.66L389.74,140.27L394.43,154.38L399.13,145.88L403.83,149.29L408.52,147.79L413.22,136.96L417.91,135.77L422.61,133.33L427.3,143.3L432,144.5L436.7,132.16L441.39,129.08L446.09,138.47L450.78,130.89L455.48,126.36L460.17,125.08L469.57,107.33L474.26,104.51L478.96,102.34L483.65,84.31L488.35,89.25L493.04,100.76L497.74,108.47L502.43,99.66L507.13,123.92L511.83,125.6L516.52,127.87L521.22,126.13L525.91,116.36L530.61,117.62L535.3,111.33L540,110.9" style="fill: rgb(99, 110, 250); fill-opacity: 0.5; stroke-width: 0;"/></g></g><g class="errorbars"/><g class="lines"><path class="js-line" d="M0,319.64L4.7,317.83L9.39,311.11L14.09,293.21L18.78,214.92L23.48,113.47L28.17,145.9L32.87,180.49L37.57,196.47L42.26,188.48L46.96,188.65L51.65,180.22L56.35,179.2L65.74,175.29L70.43,171.14L75.13,155.41L79.83,153.38L89.22,149.28L93.91,138.84L98.61,143.16L103.3,140.93L108,140.54L112.7,139.09L117.39,143.13L122.09,146.15L126.78,148.61L131.48,149.86L136.17,131.12L140.87,85.84L145.57,78.81L150.26,66.78L154.96,67.56L159.65,58.69L164.35,59.35L169.04,47.92L173.74,40.04L178.43,41.26L183.13,37.92L187.83,16L197.22,19.96L201.91,18.46L206.61,36.21L211.3,31.7L216,30.61L220.7,27.83L225.39,23.5L230.09,23.03L239.48,21.99L244.17,23.82L248.87,23.02L253.57,26.78L258.26,19.49L262.96,18.63L267.65,19.23L272.35,18.06L277.04,34.35L281.74,34.44L286.43,35.92L291.13,29.26L295.83,31.61L300.52,39.74L305.22,29.98L309.91,34.74L314.61,56.6L319.3,55.38L324,56.31L328.7,59.82L333.39,82.67L338.09,140.28L342.78,186.28L347.48,189.28L352.17,190.24L356.87,194.56L361.57,199.44L366.26,199.44L370.96,198.67L375.65,203.37L380.35,193.65L385.04,155.66L389.74,140.27L394.43,154.38L399.13,145.88L403.83,149.29L408.52,147.79L413.22,136.96L417.91,135.77L422.61,133.33L427.3,143.3L432,144.5L436.7,132.16L441.39,129.08L446.09,138.47L450.78,130.89L455.48,126.36L460.17,125.08L469.57,107.33L474.26,104.51L478.96,102.34L483.65,84.31L488.35,89.25L493.04,100.76L497.74,108.47L502.43,99.66L507.13,123.92L511.83,125.6L516.52,127.87L521.22,126.13L525.91,116.36L530.61,117.62L535.3,111.33L540,110.9" style="vector-effect: non-scaling-stroke; fill: none; stroke: rgb(99, 110, 250); stroke-opacity: 1; stroke-width: 2px; opacity: 1;"/></g><g class="points"/><g class="text"/></g></g></g><g class="overplot"/><path class="xlines-above crisp" d="M0,0" style="fill: none;"/><path class="ylines-above crisp" d="M0,0" style="fill: none;"/><g class="overlines-above"/><g class="xaxislayer-above"><g class="xtick"><text text-anchor="middle" x="0" y="433" transform="translate(94.09,0)" style="font-family: 'Open Sans', verdana, arial, sans-serif; font-size: 12px; fill: rgb(42, 63, 95); fill-opacity: 1; white-space: pre; opacity: 1;"><tspan class="line" dy="0em" x="0" y="433">Nov 6</tspan><tspan class="line" dy="1.3em" x="0" y="433">2022</tspan></text></g><g class="xtick"><text text-anchor="middle" x="0" y="433" style="font-family: 'Open Sans', verdana, arial, sans-serif; font-size: 12px; fill: rgb(42, 63, 95); fill-opacity: 1; white-space: pre; opacity: 1;" transform="translate(159.82999999999998,0)">Nov 20</text></g><g class="xtick"><text text-anchor="middle" x="0" y="433" style="font-family: 'Open Sans', verdana, arial, sans-serif; font-size: 12px; fill: rgb(42, 63, 95); fill-opacity: 1; white-space: pre; opacity: 1;" transform="translate(225.57,0)">Dec 4</text></g><g class="xtick"><text text-anchor="middle" x="0" y="433" style="font-family: 'Open Sans', verdana, arial, sans-serif; font-size: 12px; fill: rgb(42, 63, 95); fill-opacity: 1; white-space: pre; opacity: 1;" transform="translate(291.3,0)">Dec 18</text></g><g class="xtick"><text text-anchor="middle" x="0" y="433" style="font-family: 'Open Sans', verdana, arial, sans-serif; font-size: 12px; fill: rgb(42, 63, 95); fill-opacity: 1; white-space: pre; opacity: 1;" transform="translate(357.04,0)"><tspan class="line" dy="0em" x="0" y="433">Jan 1</tspan><tspan class="line" dy="1.3em" x="0" y="433">2023</tspan></text></g><g class="xtick"><text text-anchor="middle" x="0" y="433" style="font-family: 'Open Sans', verdana, arial, sans-serif; font-size: 12px; fill: rgb(42, 63, 95); fill-opacity: 1; white-space: pre; opacity: 1;" transform="translate(422.78,0)">Jan 15</text></g><g class="xtick"><text text-anchor="middle" x="0" y="433" style="font-family: 'Open Sans', verdana, arial, sans-serif; font-size: 12px; fill: rgb(42, 63, 95); fill-opacity: 1; white-space: pre; opacity: 1;" transform="translate(488.52,0)">Jan 29</text></g><g class="xtick"><text text-anchor="middle" x="0" y="433" style="font-family: 'Open Sans', verdana, arial, sans-serif; font-size: 12px; fill: rgb(42, 63, 95); fill-opacity: 1; white-space: pre; opacity: 1;" transform="translate(554.26,0)">Feb 12</text></g><g class="xtick"><text text-anchor="middle" x="0" y="433" style="font-family: 'Open Sans', verdana, arial, sans-serif; font-size: 12px; fill: rgb(42, 63, 95); fill-opacity: 1; white-space: pre; opacity: 1;" transform="translate(620,0)">Feb 26</text></g></g><g class="yaxislayer-above"><g class="ytick"><text text-anchor="end" x="79" y="4.199999999999999" transform="translate(0,420)" style="font-family: 'Open Sans', verdana, arial, sans-serif; font-size: 12px; fill: rgb(42, 63, 95); fill-opacity: 1; white-space: pre; opacity: 1;">$0</text></g><g class="ytick"><text text-anchor="end" x="79" y="4.199999999999999" style="font-family: 'Open Sans', verdana, arial, sans-serif; font-size: 12px; fill: rgb(42, 63, 95); fill-opacity: 1; white-space: pre; opacity: 1;" transform="translate(0,370.1)">$1M</text></g><g class="ytick"><text text-anchor="end" x="79" y="4.199999999999999" style="font-family: 'Open Sans', verdana, arial, sans-serif; font-size: 12px; fill: rgb(42, 63, 95); fill-opacity: 1; white-space: pre; opacity: 1;" transform="translate(0,320.21000000000004)">$2M</text></g><g class="ytick"><text text-anchor="end" x="79" y="4.199999999999999" style="font-family: 'Open Sans', verdana, arial, sans-serif; font-size: 12px; fill: rgb(42, 63, 95); fill-opacity: 1; white-space: pre; opacity: 1;" transform="translate(0,270.31)">$3M</text></g><g class="ytick"><text text-anchor="end" x="79" y="4.199999999999999" style="font-family: 'Open Sans', verdana, arial, sans-serif; font-size: 12px; fill: rgb(42, 63, 95); fill-opacity: 1; white-space: pre; opacity: 1;" transform="translate(0,220.42000000000002)">$4M</text></g><g class="ytick"><text text-anchor="end" x="79" y="4.199999999999999" style="font-family: 'Open Sans', verdana, arial, sans-serif; font-size: 12px; fill: rgb(42, 63, 95); fill-opacity: 1; white-space: pre; opacity: 1;" transform="translate(0,170.51999999999998)">$5M</text></g><g class="ytick"><text text-anchor="end" x="79" y="4.199999999999999" style="font-family: 'Open Sans', verdana, arial, sans-serif; font-size: 12px; fill: rgb(42, 63, 95); fill-opacity: 1; white-space: pre; opacity: 1;" transform="translate(0,120.63)">$6M</text></g></g><g class="overaxes-above"/></g></g><g class="polarlayer"/><g class="smithlayer"/><g class="ternarylayer"/><g class="geolayer"/><g class="funnelarealayer"/><g class="pielayer"/><g class="iciclelayer"/><g class="treemaplayer"/><g class="sunburstlayer"/><g class="glimages"/><defs id="topdefs-ec42d9"><g class="clips"/></defs><g class="layer-above"><g class="imagelayer"/><g class="shapelayer"/></g><g class="infolayer"><g class="g-gtitle"><text class="gtitle" x="35" y="50" text-anchor="start" dy="0em" style="font-family: 'Open Sans', verdana, arial, sans-serif; font-size: 17px; fill: rgb(42, 63, 95); opacity: 1; font-weight: normal; white-space: pre;"><tspan class="line" dy="0em" x="35" y="50">Revert Compoundor</tspan><tspan class="line" dy="1.3em" x="35" y="50">​<tspan style="font-size:70%" dy="-0.6em">Cumulative Net Flows since Program Announcement, Until Program End + 30 Days - At Last Price</tspan><tspan dy="0.42em">​</tspan></tspan></text></g><g class="g-xtitle"><text class="xtitle" x="350" y="476.409375" text-anchor="middle" style="font-family: 'Open Sans', verdana, arial, sans-serif; font-size: 14px; fill: rgb(42, 63, 95); opacity: 1; font-weight: normal; white-space: pre;">Day</text></g><g class="g-ytitle"><text class="ytitle" transform="rotate(-90,30.856250000000003,260)" x="30.856250000000003" y="260" text-anchor="middle" style="font-family: 'Open Sans', verdana, arial, sans-serif; font-size: 14px; fill: rgb(42, 63, 95); opacity: 1; font-weight: normal; white-space: pre;">Cumulative Net Flows (USD)</text></g></g></svg>