<svg class="main-svg" xmlns="http://www.w3.org/2000/svg" xmlns:xlink="http://www.w3.org/1999/xlink" width="700" height="500" style="" viewBox="0 0 700 500"><rect x="0" y="0" width="700" height="500" style="fill: rgb(255, 255, 255); fill-opacity: 1;"/><defs id="defs-1c9990"><g class="clips"><clipPath id="clip1c9990xyplot" class="plotclip"><rect width="540" height="320"/></clipPath><clipPath class="axesclip" id="clip1c9990x"><rect x="80" y="0" width="540" height="500"/></clipPath><clipPath class="axesclip" id="clip1c9990y"><rect x="0" y="100" width="700" height="320"/></clipPath><clipPath class="axesclip" id="clip1c9990xy"><rect x="80" y="100" width="540" height="320"/></clipPath></g><g class="gradients"/><g class="patterns"/></defs><g class="bglayer"><rect class="bg" x="80" y="100" width="540" height="320" style="fill: rgb(229, 236, 246); fill-opacity: 1; stroke-width: 0;"/></g><g class="layer-below"><g class="imagelayer"/><g class="shapelayer"/></g><g class="cartesianlayer"><g class="subplot xy"><g class="layer-subplot"><g class="shapelayer"/><g class="imagelayer"/></g><g class="minor-gridlayer"><g class="x"/><g class="y"/></g><g class="gridlayer"><g class="x"><path class="xgrid crisp" transform="translate(131.57,0)" d="M0,100v320" style="stroke: rgb(255, 255, 255); stroke-opacity: 1; stroke-width: 1px;"/><path class="xgrid crisp" transform="translate(225.62,0)" d="M0,100v320" style="stroke: rgb(255, 255, 255); stroke-opacity: 1; stroke-width: 1px;"/><path class="xgrid crisp" transform="translate(316.63,0)" d="M0,100v320" style="stroke: rgb(255, 255, 255); stroke-opacity: 1; stroke-width: 1px;"/><path class="xgrid crisp" transform="translate(410.67,0)" d="M0,100v320" style="stroke: rgb(255, 255, 255); stroke-opacity: 1; stroke-width: 1px;"/><path class="xgrid crisp" transform="translate(501.69,0)" d="M0,100v320" style="stroke: rgb(255, 255, 255); stroke-opacity: 1; stroke-width: 1px;"/><path class="xgrid crisp" transform="translate(595.73,0)" d="M0,100v320" style="stroke: rgb(255, 255, 255); stroke-opacity: 1; stroke-width: 1px;"/></g><g class="y"><path class="ygrid crisp" transform="translate(0,375.9)" d="M80,0h540" style="stroke: rgb(255, 255, 255); stroke-opacity: 1; stroke-width: 1px;"/><path class="ygrid crisp" transform="translate(0,331.78999999999996)" d="M80,0h540" style="stroke: rgb(255, 255, 255); stroke-opacity: 1; stroke-width: 1px;"/><path class="ygrid crisp" transform="translate(0,287.69)" d="M80,0h540" style="stroke: rgb(255, 255, 255); stroke-opacity: 1; stroke-width: 1px;"/><path class="ygrid crisp" transform="translate(0,243.58)" d="M80,0h540" style="stroke: rgb(255, 255, 255); stroke-opacity: 1; stroke-width: 1px;"/><path class="ygrid crisp" transform="translate(0,199.48000000000002)" d="M80,0h540" style="stroke: rgb(255, 255, 255); stroke-opacity: 1; stroke-width: 1px;"/><path class="ygrid crisp" transform="translate(0,155.37)" d="M80,0h540" style="stroke: rgb(255, 255, 255); stroke-opacity: 1; stroke-width: 1px;"/><path class="ygrid crisp" transform="translate(0,111.27)" d="M80,0h540" style="stroke: rgb(255, 255, 255); stroke-opacity: 1; stroke-width: 1px;"/></g></g><g class="zerolinelayer"><path class="yzl zl crisp" transform="translate(0,420)" d="M80,0h540" style="stroke: rgb(255, 255, 255); stroke-opacity: 1; stroke-width: 2px;"/></g><path class="xlines-below"/><path class="ylines-below"/><g class="overlines-below"/><g class="xaxislayer-below"/><g class="yaxislayer-below"/><g class="overaxes-below"/><g class="plot" transform="translate(80,100)" clip-path="url(#clip1c9990xyplot)"><g class="scatterlayer mlayer"><g class="trace scatter trace44bab1" style="stroke-miterlimit: 2;"><g class="fills"><g><path class="js-fill" d="M540,320L0,320L0,319.88L6.07,313.44L9.1,311.82L12.13,308.84L15.17,308.08L18.2,306.6L21.24,288.74L24.27,283.92L27.3,283.36L30.34,275.3L33.37,274.05L36.4,270.15L39.44,270.07L45.51,257.07L48.54,253.99L51.57,248.3L54.61,226.85L57.64,225.6L60.67,228.49L63.71,222.78L66.74,112.52L69.78,96.98L72.81,58.17L75.84,42.96L78.88,61.1L81.91,66.86L84.94,68.17L87.98,71.28L91.01,72.32L94.04,74.04L97.08,77.79L100.11,81.82L103.15,105.62L109.21,125.78L112.25,122.01L115.28,121.84L118.31,158.32L121.35,154.19L124.38,156.41L130.45,157.45L133.48,156.8L136.52,157.66L139.55,156.18L142.58,155.96L145.62,154.64L148.65,151.3L151.69,150.61L154.72,147.76L157.75,146.57L160.79,148.44L163.82,151.71L166.85,147.98L169.89,117.81L172.92,106.17L175.96,105.01L178.99,105.63L182.02,98.5L185.06,158.17L188.09,162.74L194.16,156.54L197.19,151.58L200.22,144.08L203.26,131.99L206.29,146.26L209.33,142.6L212.36,135.85L215.39,121.03L218.43,82.03L221.46,81.32L224.49,80.75L227.53,68.16L230.56,76.43L233.6,71.19L236.63,62L239.66,59.51L242.7,60.04L245.73,76.41L248.76,69.49L251.8,70.17L254.83,71.2L257.87,71L260.9,68.83L263.93,57.54L266.97,53.09L270,55.63L273.03,59.41L276.07,67.46L279.1,26.27L282.13,32.82L285.17,56L288.2,56.25L291.24,56.03L294.27,61.18L297.3,60.56L300.34,60.83L303.37,61.5L306.4,60.79L309.44,62.58L312.47,63.06L315.51,64.16L318.54,75.78L321.57,76.12L324.61,81.76L327.64,79.97L330.67,70.81L333.71,71.12L336.74,50.42L339.78,49.73L342.81,46.36L348.88,44.84L351.91,44.11L354.94,61.06L357.98,90.62L364.04,92.96L367.08,91.48L370.11,91.81L373.15,90.14L382.25,86.79L385.28,86.97L391.35,82.67L394.38,80.57L397.42,79.42L400.45,52.91L403.48,48.57L406.52,56.85L409.55,64.57L412.58,38.44L415.62,38.11L418.65,41.23L421.69,39.02L424.72,40.76L427.75,65.81L430.79,67.08L436.85,69.97L439.89,67.88L442.92,69.31L445.96,67.27L448.99,66.26L452.02,53.95L455.06,46.02L458.09,41.83L461.12,40.85L464.16,38.57L467.19,36.86L470.22,58.71L473.26,57.38L476.29,39.73L479.33,38.44L482.36,38.53L488.43,36.15L491.46,19.89L494.49,20.07L497.53,17.36L503.6,16L506.63,26.84L512.7,24.72L515.73,18.91L521.8,22.71L524.83,30.94L527.87,29.12L530.9,28.41L533.93,31.74L536.97,29.58L540,28.33" style="fill: rgb(99, 110, 250); fill-opacity: 0.5; stroke-width: 0;"/></g></g><g class="errorbars"/><g class="lines"><path class="js-line" d="M0,319.88L6.07,313.44L9.1,311.82L12.13,308.84L15.17,308.08L18.2,306.6L21.24,288.74L24.27,283.92L27.3,283.36L30.34,275.3L33.37,274.05L36.4,270.15L39.44,270.07L45.51,257.07L48.54,253.99L51.57,248.3L54.61,226.85L57.64,225.6L60.67,228.49L63.71,222.78L66.74,112.52L69.78,96.98L72.81,58.17L75.84,42.96L78.88,61.1L81.91,66.86L84.94,68.17L87.98,71.28L91.01,72.32L94.04,74.04L97.08,77.79L100.11,81.82L103.15,105.62L109.21,125.78L112.25,122.01L115.28,121.84L118.31,158.32L121.35,154.19L124.38,156.41L130.45,157.45L133.48,156.8L136.52,157.66L139.55,156.18L142.58,155.96L145.62,154.64L148.65,151.3L151.69,150.61L154.72,147.76L157.75,146.57L160.79,148.44L163.82,151.71L166.85,147.98L169.89,117.81L172.92,106.17L175.96,105.01L178.99,105.63L182.02,98.5L185.06,158.17L188.09,162.74L194.16,156.54L197.19,151.58L200.22,144.08L203.26,131.99L206.29,146.26L209.33,142.6L212.36,135.85L215.39,121.03L218.43,82.03L221.46,81.32L224.49,80.75L227.53,68.16L230.56,76.43L233.6,71.19L236.63,62L239.66,59.51L242.7,60.04L245.73,76.41L248.76,69.49L251.8,70.17L254.83,71.2L257.87,71L260.9,68.83L263.93,57.54L266.97,53.09L270,55.63L273.03,59.41L276.07,67.46L279.1,26.27L282.13,32.82L285.17,56L288.2,56.25L291.24,56.03L294.27,61.18L297.3,60.56L300.34,60.83L303.37,61.5L306.4,60.79L309.44,62.58L312.47,63.06L315.51,64.16L318.54,75.78L321.57,76.12L324.61,81.76L327.64,79.97L330.67,70.81L333.71,71.12L336.74,50.42L339.78,49.73L342.81,46.36L348.88,44.84L351.91,44.11L354.94,61.06L357.98,90.62L364.04,92.96L367.08,91.48L370.11,91.81L373.15,90.14L382.25,86.79L385.28,86.97L391.35,82.67L394.38,80.57L397.42,79.42L400.45,52.91L403.48,48.57L406.52,56.85L409.55,64.57L412.58,38.44L415.62,38.11L418.65,41.23L421.69,39.02L424.72,40.76L427.75,65.81L430.79,67.08L436.85,69.97L439.89,67.88L442.92,69.31L445.96,67.27L448.99,66.26L452.02,53.95L455.06,46.02L458.09,41.83L461.12,40.85L464.16,38.57L467.19,36.86L470.22,58.71L473.26,57.38L476.29,39.73L479.33,38.44L482.36,38.53L488.43,36.15L491.46,19.89L494.49,20.07L497.53,17.36L503.6,16L506.63,26.84L512.7,24.72L515.73,18.91L521.8,22.71L524.83,30.94L527.87,29.12L530.9,28.41L533.93,31.74L536.97,29.58L540,28.33" style="vector-effect: non-scaling-stroke; fill: none; stroke: rgb(99, 110, 250); stroke-opacity: 1; stroke-width: 2px; opacity: 1;"/></g><g class="points"/><g class="text"/></g></g></g><g class="overplot"/><path class="xlines-above crisp" d="M0,0" style="fill: none;"/><path class="ylines-above crisp" d="M0,0" style="fill: none;"/><g class="overlines-above"/><g class="xaxislayer-above"><g class="xtick"><text text-anchor="middle" x="0" y="433" transform="translate(131.57,0)" style="font-family: 'Open Sans', verdana, arial, sans-serif; font-size: 12px; fill: rgb(42, 63, 95); fill-opacity: 1; white-space: pre; opacity: 1;">Aug 2022</text></g><g class="xtick"><text text-anchor="middle" x="0" y="433" style="font-family: 'Open Sans', verdana, arial, sans-serif; font-size: 12px; fill: rgb(42, 63, 95); fill-opacity: 1; white-space: pre; opacity: 1;" transform="translate(225.62,0)">Sep 2022</text></g><g class="xtick"><text text-anchor="middle" x="0" y="433" style="font-family: 'Open Sans', verdana, arial, sans-serif; font-size: 12px; fill: rgb(42, 63, 95); fill-opacity: 1; white-space: pre; opacity: 1;" transform="translate(316.63,0)">Oct 2022</text></g><g class="xtick"><text text-anchor="middle" x="0" y="433" style="font-family: 'Open Sans', verdana, arial, sans-serif; font-size: 12px; fill: rgb(42, 63, 95); fill-opacity: 1; white-space: pre; opacity: 1;" transform="translate(410.67,0)">Nov 2022</text></g><g class="xtick"><text text-anchor="middle" x="0" y="433" style="font-family: 'Open Sans', verdana, arial, sans-serif; font-size: 12px; fill: rgb(42, 63, 95); fill-opacity: 1; white-space: pre; opacity: 1;" transform="translate(501.69,0)">Dec 2022</text></g><g class="xtick"><text text-anchor="middle" x="0" y="433" style="font-family: 'Open Sans', verdana, arial, sans-serif; font-size: 12px; fill: rgb(42, 63, 95); fill-opacity: 1; white-space: pre; opacity: 1;" transform="translate(595.73,0)">Jan 2023</text></g></g><g class="yaxislayer-above"><g class="ytick"><text text-anchor="end" x="79" y="4.199999999999999" transform="translate(0,420)" style="font-family: 'Open Sans', verdana, arial, sans-serif; font-size: 12px; fill: rgb(42, 63, 95); fill-opacity: 1; white-space: pre; opacity: 1;">$0</text></g><g class="ytick"><text text-anchor="end" x="79" y="4.199999999999999" style="font-family: 'Open Sans', verdana, arial, sans-serif; font-size: 12px; fill: rgb(42, 63, 95); fill-opacity: 1; white-space: pre; opacity: 1;" transform="translate(0,375.9)">$1M</text></g><g class="ytick"><text text-anchor="end" x="79" y="4.199999999999999" style="font-family: 'Open Sans', verdana, arial, sans-serif; font-size: 12px; fill: rgb(42, 63, 95); fill-opacity: 1; white-space: pre; opacity: 1;" transform="translate(0,331.78999999999996)">$2M</text></g><g class="ytick"><text text-anchor="end" x="79" y="4.199999999999999" style="font-family: 'Open Sans', verdana, arial, sans-serif; font-size: 12px; fill: rgb(42, 63, 95); fill-opacity: 1; white-space: pre; opacity: 1;" transform="translate(0,287.69)">$3M</text></g><g class="ytick"><text text-anchor="end" x="79" y="4.199999999999999" style="font-family: 'Open Sans', verdana, arial, sans-serif; font-size: 12px; fill: rgb(42, 63, 95); fill-opacity: 1; white-space: pre; opacity: 1;" transform="translate(0,243.58)">$4M</text></g><g class="ytick"><text text-anchor="end" x="79" y="4.199999999999999" style="font-family: 'Open Sans', verdana, arial, sans-serif; font-size: 12px; fill: rgb(42, 63, 95); fill-opacity: 1; white-space: pre; opacity: 1;" transform="translate(0,199.48000000000002)">$5M</text></g><g class="ytick"><text text-anchor="end" x="79" y="4.199999999999999" style="font-family: 'Open Sans', verdana, arial, sans-serif; font-size: 12px; fill: rgb(42, 63, 95); fill-opacity: 1; white-space: pre; opacity: 1;" transform="translate(0,155.37)">$6M</text></g><g class="ytick"><text text-anchor="end" x="79" y="4.199999999999999" style="font-family: 'Open Sans', verdana, arial, sans-serif; font-size: 12px; fill: rgb(42, 63, 95); fill-opacity: 1; white-space: pre; opacity: 1;" transform="translate(0,111.27)">$7M</text></g></g><g class="overaxes-above"/></g></g><g class="polarlayer"/><g class="smithlayer"/><g class="ternarylayer"/><g class="geolayer"/><g class="funnelarealayer"/><g class="pielayer"/><g class="iciclelayer"/><g class="treemaplayer"/><g class="sunburstlayer"/><g class="glimages"/><defs id="topdefs-1c9990"><g class="clips"/></defs><g class="layer-above"><g class="imagelayer"/><g class="shapelayer"/></g><g class="infolayer"><g class="g-gtitle"><text class="gtitle" x="35" y="50" text-anchor="start" dy="0em" style="font-family: 'Open Sans', verdana, arial, sans-serif; font-size: 17px; fill: rgb(42, 63, 95); opacity: 1; font-weight: normal; white-space: pre;"><tspan class="line" dy="0em" x="35" y="50">Rubicon</tspan><tspan class="line" dy="1.3em" x="35" y="50">​<tspan style="font-size:70%" dy="-0.6em">Cumulative Net Dollar Flow since Program Announcement, Until Program End + 30 Days - At Last Price</tspan><tspan dy="0.42em">​</tspan></tspan></text></g><g class="g-xtitle"><text class="xtitle" x="350" y="460.8" text-anchor="middle" style="font-family: 'Open Sans', verdana, arial, sans-serif; font-size: 14px; fill: rgb(42, 63, 95); opacity: 1; font-weight: normal; white-space: pre;">Day</text></g><g class="g-ytitle"><text class="ytitle" transform="rotate(-90,30.856250000000003,260)" x="30.856250000000003" y="260" text-anchor="middle" style="font-family: 'Open Sans', verdana, arial, sans-serif; font-size: 14px; fill: rgb(42, 63, 95); opacity: 1; font-weight: normal; white-space: pre;">Cumulative Net Dollar Flow (N$F)</text></g></g></svg>