<svg class="main-svg" xmlns="http://www.w3.org/2000/svg" xmlns:xlink="http://www.w3.org/1999/xlink" width="700" height="500" style="" viewBox="0 0 700 500"><rect x="0" y="0" width="700" height="500" style="fill: rgb(255, 255, 255); fill-opacity: 1;"/><defs id="defs-c93e5e"><g class="clips"><clipPath id="clipc93e5exyplot" class="plotclip"><rect width="540" height="320"/></clipPath><clipPath class="axesclip" id="clipc93e5ex"><rect x="80" y="0" width="540" height="500"/></clipPath><clipPath class="axesclip" id="clipc93e5ey"><rect x="0" y="100" width="700" height="320"/></clipPath><clipPath class="axesclip" id="clipc93e5exy"><rect x="80" y="100" width="540" height="320"/></clipPath></g><g class="gradients"/><g class="patterns"/></defs><g class="bglayer"><rect class="bg" x="80" y="100" width="540" height="320" style="fill: rgb(229, 236, 246); fill-opacity: 1; stroke-width: 0;"/></g><g class="layer-below"><g class="imagelayer"/><g class="shapelayer"/></g><g class="cartesianlayer"><g class="subplot xy"><g class="layer-subplot"><g class="shapelayer"/><g class="imagelayer"/></g><g class="minor-gridlayer"><g class="x"/><g class="y"/></g><g class="gridlayer"><g class="x"><path class="xgrid crisp" transform="translate(94.4,0)" d="M0,100v320" style="stroke: rgb(255, 255, 255); stroke-opacity: 1; stroke-width: 1px;"/><path class="xgrid crisp" transform="translate(206,0)" d="M0,100v320" style="stroke: rgb(255, 255, 255); stroke-opacity: 1; stroke-width: 1px;"/><path class="xgrid crisp" transform="translate(314,0)" d="M0,100v320" style="stroke: rgb(255, 255, 255); stroke-opacity: 1; stroke-width: 1px;"/><path class="xgrid crisp" transform="translate(425.6,0)" d="M0,100v320" style="stroke: rgb(255, 255, 255); stroke-opacity: 1; stroke-width: 1px;"/><path class="xgrid crisp" transform="translate(537.2,0)" d="M0,100v320" style="stroke: rgb(255, 255, 255); stroke-opacity: 1; stroke-width: 1px;"/></g><g class="y"><path class="ygrid crisp" transform="translate(0,333.94)" d="M80,0h540" style="stroke: rgb(255, 255, 255); stroke-opacity: 1; stroke-width: 1px;"/><path class="ygrid crisp" transform="translate(0,281.05)" d="M80,0h540" style="stroke: rgb(255, 255, 255); stroke-opacity: 1; stroke-width: 1px;"/><path class="ygrid crisp" transform="translate(0,228.15)" d="M80,0h540" style="stroke: rgb(255, 255, 255); stroke-opacity: 1; stroke-width: 1px;"/><path class="ygrid crisp" transform="translate(0,175.25)" d="M80,0h540" style="stroke: rgb(255, 255, 255); stroke-opacity: 1; stroke-width: 1px;"/><path class="ygrid crisp" transform="translate(0,122.35)" d="M80,0h540" style="stroke: rgb(255, 255, 255); stroke-opacity: 1; stroke-width: 1px;"/></g></g><g class="zerolinelayer"><path class="yzl zl crisp" transform="translate(0,386.84)" d="M80,0h540" style="stroke: rgb(255, 255, 255); stroke-opacity: 1; stroke-width: 2px;"/></g><path class="xlines-below"/><path class="ylines-below"/><g class="overlines-below"/><g class="xaxislayer-below"/><g class="yaxislayer-below"/><g class="overaxes-below"/><g class="plot" transform="translate(80,100)" clip-path="url(#clipc93e5exyplot)"><g class="scatterlayer mlayer"><g class="trace scatter trace9ea90e" style="stroke-miterlimit: 2;"><g class="fills"><g><path class="js-fill" d="M540,286.84L0,286.84L0,235.46L3.6,234.43L7.2,225.59L10.8,224.6L14.4,224.5L18,220.61L21.6,219.87L25.2,217.37L28.8,209.15L32.4,212.13L36,209.95L39.6,209.23L43.2,209.57L46.8,208.72L50.4,211.97L54,213.37L57.6,216.34L61.2,214.52L64.8,214.33L68.4,214.3L72,212.38L75.6,212.23L79.2,212.91L90,212.28L93.6,212.16L97.2,212.15L100.8,213.4L115.2,210.21L118.8,210.07L126,209.15L129.6,207.72L133.2,203.55L136.8,202.72L140.4,202.47L144,200.33L147.6,195.32L151.2,195.98L154.8,196.13L158.4,198.46L162,201.09L165.6,205.47L169.2,208.96L172.8,208.74L176.4,208.76L180,209.56L183.6,202.96L187.2,205.14L190.8,205.32L194.4,203.92L198,203.43L201.6,201.55L208.8,202.11L212.4,200.84L219.6,200.17L223.2,199.53L226.8,200.04L230.4,198.85L241.2,198.63L244.8,198.41L248.4,198.5L252,203.62L255.6,204.65L259.2,204.13L266.4,202.04L270,201.74L273.6,196.36L277.2,192.52L280.8,192.06L284.4,201.39L295.2,201.3L298.8,200.22L302.4,198.63L306,198.46L313.2,197.19L316.8,197.29L327.6,196.69L331.2,198.1L356.4,197.68L360,197.1L370.8,197.3L374.4,196.43L378,195.83L381.6,193.88L385.2,192.77L388.8,190.41L396,189.41L399.6,188.11L406.8,180.84L410.4,178.46L414,177.54L417.6,167.61L421.2,164.11L424.8,162.96L428.4,151.78L432,145.42L435.6,135.99L439.2,135.68L446.4,129.93L450,129.27L453.6,129.85L457.2,128.15L464.4,126.04L468,127.4L471.6,126.81L475.2,123.78L478.8,103.56L482.4,92.59L489.6,91.62L493.2,91.05L500.4,90.82L504,85.06L507.6,81.22L511.2,67.19L514.8,64.69L518.4,67.99L522,63.56L525.6,57.9L529.2,19.35L532.8,16L536.4,16.05L540,304" style="fill: rgb(99, 110, 250); fill-opacity: 0.5; stroke-width: 0;"/></g></g><g class="errorbars"/><g class="lines"><path class="js-line" d="M0,235.46L3.6,234.43L7.2,225.59L10.8,224.6L14.4,224.5L18,220.61L21.6,219.87L25.2,217.37L28.8,209.15L32.4,212.13L36,209.95L39.6,209.23L43.2,209.57L46.8,208.72L50.4,211.97L54,213.37L57.6,216.34L61.2,214.52L64.8,214.33L68.4,214.3L72,212.38L75.6,212.23L79.2,212.91L90,212.28L93.6,212.16L97.2,212.15L100.8,213.4L115.2,210.21L118.8,210.07L126,209.15L129.6,207.72L133.2,203.55L136.8,202.72L140.4,202.47L144,200.33L147.6,195.32L151.2,195.98L154.8,196.13L158.4,198.46L162,201.09L165.6,205.47L169.2,208.96L172.8,208.74L176.4,208.76L180,209.56L183.6,202.96L187.2,205.14L190.8,205.32L194.4,203.92L198,203.43L201.6,201.55L208.8,202.11L212.4,200.84L219.6,200.17L223.2,199.53L226.8,200.04L230.4,198.85L241.2,198.63L244.8,198.41L248.4,198.5L252,203.62L255.6,204.65L259.2,204.13L266.4,202.04L270,201.74L273.6,196.36L277.2,192.52L280.8,192.06L284.4,201.39L295.2,201.3L298.8,200.22L302.4,198.63L306,198.46L313.2,197.19L316.8,197.29L327.6,196.69L331.2,198.1L356.4,197.68L360,197.1L370.8,197.3L374.4,196.43L378,195.83L381.6,193.88L385.2,192.77L388.8,190.41L396,189.41L399.6,188.11L406.8,180.84L410.4,178.46L414,177.54L417.6,167.61L421.2,164.11L424.8,162.96L428.4,151.78L432,145.42L435.6,135.99L439.2,135.68L446.4,129.93L450,129.27L453.6,129.85L457.2,128.15L464.4,126.04L468,127.4L471.6,126.81L475.2,123.78L478.8,103.56L482.4,92.59L489.6,91.62L493.2,91.05L500.4,90.82L504,85.06L507.6,81.22L511.2,67.19L514.8,64.69L518.4,67.99L522,63.56L525.6,57.9L529.2,19.35L532.8,16L536.4,16.05L540,304" style="vector-effect: non-scaling-stroke; fill: none; stroke: rgb(99, 110, 250); stroke-opacity: 1; stroke-width: 2px; opacity: 1;"/></g><g class="points"/><g class="text"/></g></g></g><g class="overplot"/><path class="xlines-above crisp" d="M0,0" style="fill: none;"/><path class="ylines-above crisp" d="M0,0" style="fill: none;"/><g class="overlines-above"/><g class="xaxislayer-above"><g class="xtick"><text text-anchor="middle" x="0" y="433" transform="translate(94.4,0)" style="font-family: 'Open Sans', verdana, arial, sans-serif; font-size: 12px; fill: rgb(42, 63, 95); fill-opacity: 1; white-space: pre; opacity: 1;">Oct 2022</text></g><g class="xtick"><text text-anchor="middle" x="0" y="433" style="font-family: 'Open Sans', verdana, arial, sans-serif; font-size: 12px; fill: rgb(42, 63, 95); fill-opacity: 1; white-space: pre; opacity: 1;" transform="translate(206,0)">Nov 2022</text></g><g class="xtick"><text text-anchor="middle" x="0" y="433" style="font-family: 'Open Sans', verdana, arial, sans-serif; font-size: 12px; fill: rgb(42, 63, 95); fill-opacity: 1; white-space: pre; opacity: 1;" transform="translate(314,0)">Dec 2022</text></g><g class="xtick"><text text-anchor="middle" x="0" y="433" style="font-family: 'Open Sans', verdana, arial, sans-serif; font-size: 12px; fill: rgb(42, 63, 95); fill-opacity: 1; white-space: pre; opacity: 1;" transform="translate(425.6,0)">Jan 2023</text></g><g class="xtick"><text text-anchor="middle" x="0" y="433" style="font-family: 'Open Sans', verdana, arial, sans-serif; font-size: 12px; fill: rgb(42, 63, 95); fill-opacity: 1; white-space: pre; opacity: 1;" transform="translate(537.2,0)">Feb 2023</text></g></g><g class="yaxislayer-above"><g class="ytick"><text text-anchor="end" x="79" y="4.199999999999999" transform="translate(0,386.84)" style="font-family: 'Open Sans', verdana, arial, sans-serif; font-size: 12px; fill: rgb(42, 63, 95); fill-opacity: 1; white-space: pre; opacity: 1;">$0</text></g><g class="ytick"><text text-anchor="end" x="79" y="4.199999999999999" style="font-family: 'Open Sans', verdana, arial, sans-serif; font-size: 12px; fill: rgb(42, 63, 95); fill-opacity: 1; white-space: pre; opacity: 1;" transform="translate(0,333.94)">$5M</text></g><g class="ytick"><text text-anchor="end" x="79" y="4.199999999999999" style="font-family: 'Open Sans', verdana, arial, sans-serif; font-size: 12px; fill: rgb(42, 63, 95); fill-opacity: 1; white-space: pre; opacity: 1;" transform="translate(0,281.05)">$10M</text></g><g class="ytick"><text text-anchor="end" x="79" y="4.199999999999999" style="font-family: 'Open Sans', verdana, arial, sans-serif; font-size: 12px; fill: rgb(42, 63, 95); fill-opacity: 1; white-space: pre; opacity: 1;" transform="translate(0,228.15)">$15M</text></g><g class="ytick"><text text-anchor="end" x="79" y="4.199999999999999" style="font-family: 'Open Sans', verdana, arial, sans-serif; font-size: 12px; fill: rgb(42, 63, 95); fill-opacity: 1; white-space: pre; opacity: 1;" transform="translate(0,175.25)">$20M</text></g><g class="ytick"><text text-anchor="end" x="79" y="4.199999999999999" style="font-family: 'Open Sans', verdana, arial, sans-serif; font-size: 12px; fill: rgb(42, 63, 95); fill-opacity: 1; white-space: pre; opacity: 1;" transform="translate(0,122.35)">$25M</text></g></g><g class="overaxes-above"/></g></g><g class="polarlayer"/><g class="smithlayer"/><g class="ternarylayer"/><g class="geolayer"/><g class="funnelarealayer"/><g class="pielayer"/><g class="iciclelayer"/><g class="treemaplayer"/><g class="sunburstlayer"/><g class="glimages"/><defs id="topdefs-c93e5e"><g class="clips"/></defs><g class="layer-above"><g class="imagelayer"/><g class="shapelayer"/></g><g class="infolayer"><g class="g-gtitle"><text class="gtitle" x="35" y="50" text-anchor="start" dy="0em" style="font-family: 'Open Sans', verdana, arial, sans-serif; font-size: 17px; fill: rgb(42, 63, 95); opacity: 1; font-weight: normal; white-space: pre;"><tspan class="line" dy="0em" x="35" y="50">Synthetix - ETH/sETH: Velo</tspan><tspan class="line" dy="1.3em" x="35" y="50">​<tspan style="font-size:70%" dy="-0.6em">Cumulative Net Flows since Program Announcement, Until Program End + 30 Days - At Last Price</tspan><tspan dy="0.42em">​</tspan></tspan></text></g><g class="g-xtitle"><text class="xtitle" x="350" y="460.8" text-anchor="middle" style="font-family: 'Open Sans', verdana, arial, sans-serif; font-size: 14px; fill: rgb(42, 63, 95); opacity: 1; font-weight: normal; white-space: pre;">Day</text></g><g class="g-ytitle"><text class="ytitle" transform="rotate(-90,24.168750000000003,260)" x="24.168750000000003" y="260" text-anchor="middle" style="font-family: 'Open Sans', verdana, arial, sans-serif; font-size: 14px; fill: rgb(42, 63, 95); opacity: 1; font-weight: normal; white-space: pre;">Cumulative Net Flows (USD)</text></g></g></svg>