<svg class="main-svg" xmlns="http://www.w3.org/2000/svg" xmlns:xlink="http://www.w3.org/1999/xlink" width="700" height="500" style="" viewBox="0 0 700 500"><rect x="0" y="0" width="700" height="500" style="fill: rgb(255, 255, 255); fill-opacity: 1;"/><defs id="defs-4a585c"><g class="clips"><clipPath id="clip4a585cxyplot" class="plotclip"><rect width="540" height="320"/></clipPath><clipPath class="axesclip" id="clip4a585cx"><rect x="80" y="0" width="540" height="500"/></clipPath><clipPath class="axesclip" id="clip4a585cy"><rect x="0" y="100" width="700" height="320"/></clipPath><clipPath class="axesclip" id="clip4a585cxy"><rect x="80" y="100" width="540" height="320"/></clipPath></g><g class="gradients"/><g class="patterns"/></defs><g class="bglayer"><rect class="bg" x="80" y="100" width="540" height="320" style="fill: rgb(229, 236, 246); fill-opacity: 1; stroke-width: 0;"/></g><g class="layer-below"><g class="imagelayer"/><g class="shapelayer"/></g><g class="cartesianlayer"><g class="subplot xy"><g class="layer-subplot"><g class="shapelayer"/><g class="imagelayer"/></g><g class="minor-gridlayer"><g class="x"/><g class="y"/></g><g class="gridlayer"><g class="x"><path class="xgrid crisp" transform="translate(134,0)" d="M0,100v320" style="stroke: rgb(255, 255, 255); stroke-opacity: 1; stroke-width: 1px;"/><path class="xgrid crisp" transform="translate(232.47,0)" d="M0,100v320" style="stroke: rgb(255, 255, 255); stroke-opacity: 1; stroke-width: 1px;"/><path class="xgrid crisp" transform="translate(327.76,0)" d="M0,100v320" style="stroke: rgb(255, 255, 255); stroke-opacity: 1; stroke-width: 1px;"/><path class="xgrid crisp" transform="translate(426.24,0)" d="M0,100v320" style="stroke: rgb(255, 255, 255); stroke-opacity: 1; stroke-width: 1px;"/><path class="xgrid crisp" transform="translate(521.53,0)" d="M0,100v320" style="stroke: rgb(255, 255, 255); stroke-opacity: 1; stroke-width: 1px;"/></g><g class="y"><path class="ygrid crisp" transform="translate(0,344.68)" d="M80,0h540" style="stroke: rgb(255, 255, 255); stroke-opacity: 1; stroke-width: 1px;"/><path class="ygrid crisp" transform="translate(0,305.87)" d="M80,0h540" style="stroke: rgb(255, 255, 255); stroke-opacity: 1; stroke-width: 1px;"/><path class="ygrid crisp" transform="translate(0,267.07)" d="M80,0h540" style="stroke: rgb(255, 255, 255); stroke-opacity: 1; stroke-width: 1px;"/><path class="ygrid crisp" transform="translate(0,228.26)" d="M80,0h540" style="stroke: rgb(255, 255, 255); stroke-opacity: 1; stroke-width: 1px;"/><path class="ygrid crisp" transform="translate(0,189.45)" d="M80,0h540" style="stroke: rgb(255, 255, 255); stroke-opacity: 1; stroke-width: 1px;"/><path class="ygrid crisp" transform="translate(0,150.64)" d="M80,0h540" style="stroke: rgb(255, 255, 255); stroke-opacity: 1; stroke-width: 1px;"/><path class="ygrid crisp" transform="translate(0,111.83)" d="M80,0h540" style="stroke: rgb(255, 255, 255); stroke-opacity: 1; stroke-width: 1px;"/></g></g><g class="zerolinelayer"><path class="yzl zl crisp" transform="translate(0,383.49)" d="M80,0h540" style="stroke: rgb(255, 255, 255); stroke-opacity: 1; stroke-width: 2px;"/></g><path class="xlines-below"/><path class="ylines-below"/><g class="overlines-below"/><g class="xaxislayer-below"/><g class="yaxislayer-below"/><g class="overaxes-below"/><g class="plot" transform="translate(80,100)" clip-path="url(#clip4a585cxyplot)"><g class="scatterlayer mlayer"><g class="trace scatter traced9afd4" style="stroke-miterlimit: 2;"><g class="fills"><g><path class="js-fill" d="M540,283.49L0,283.49L0,283.39L6.35,277.71L9.53,276.29L12.71,273.67L15.88,273L19.06,271.7L22.24,255.99L25.41,251.74L28.59,251.25L31.76,244.16L34.94,243.06L38.12,239.62L41.29,239.56L47.65,228.12L50.82,225.4L54,220.4L57.18,201.53L60.35,200.42L63.53,202.97L66.71,197.95L69.88,100.93L73.06,87.26L76.24,53.11L79.41,39.73L82.59,55.68L85.76,60.75L88.94,61.9L92.12,64.64L95.29,65.56L98.47,67.07L101.65,70.37L104.82,73.91L108,94.86L114.35,112.59L117.53,109.28L120.71,109.13L123.88,141.23L127.06,137.59L130.24,139.54L136.59,140.46L139.76,139.89L142.94,140.65L146.12,139.34L149.29,139.15L152.47,137.99L155.65,135.05L158.82,134.45L162,131.94L165.18,130.89L168.35,132.53L171.53,135.41L174.71,132.13L177.88,105.58L181.06,95.34L184.24,94.32L187.41,94.86L190.59,88.59L193.76,141.1L196.94,145.11L203.29,139.66L206.47,135.29L209.65,128.69L212.82,118.06L216,130.62L219.18,127.4L222.35,121.45L225.53,108.42L228.71,74.1L231.88,73.48L235.06,72.98L238.24,61.9L241.41,69.17L244.59,64.56L247.76,56.47L250.94,54.28L254.12,54.75L257.29,69.16L260.47,63.07L263.65,63.66L266.82,64.57L270,64.4L273.18,62.48L276.35,52.56L279.53,48.63L282.71,50.87L285.88,54.19L289.06,61.28L292.24,25.03L295.41,30.8L298.59,51.2L301.76,51.41L304.94,51.22L308.12,55.76L311.29,55.21L314.47,55.44L317.65,56.03L320.82,55.41L324,56.99L327.18,57.41L330.35,58.37L333.53,68.6L336.71,68.9L339.88,73.86L343.06,72.29L346.24,64.23L349.41,64.5L352.59,46.29L355.76,45.68L358.94,42.72L365.29,41.37L368.47,40.74L371.65,55.65L374.82,81.66L381.18,83.72L384.35,82.41L387.53,82.71L390.71,81.23L400.24,78.29L403.41,78.45L409.76,74.67L412.94,72.82L416.12,71.8L419.29,48.47L422.47,44.66L425.65,51.95L428.82,58.74L432,35.75L435.18,35.45L438.35,38.2L441.53,36.26L444.71,37.79L447.88,59.83L451.06,60.94L457.41,63.49L460.59,61.65L463.76,62.9L466.94,61.11L470.12,60.23L473.29,49.4L476.47,42.41L479.65,38.73L482.82,37.87L486,35.86L489.18,34.36L492.35,53.58L495.53,52.41L498.71,36.88L501.88,35.75L505.06,35.83L511.41,33.73L514.59,19.42L517.76,19.59L520.94,17.2L527.29,16L530.47,25.54L536.82,23.68L540,18.55L540,304" style="fill: rgb(99, 110, 250); fill-opacity: 0.5; stroke-width: 0;"/></g></g><g class="errorbars"/><g class="lines"><path class="js-line" d="M0,283.39L6.35,277.71L9.53,276.29L12.71,273.67L15.88,273L19.06,271.7L22.24,255.99L25.41,251.74L28.59,251.25L31.76,244.16L34.94,243.06L38.12,239.62L41.29,239.56L47.65,228.12L50.82,225.4L54,220.4L57.18,201.53L60.35,200.42L63.53,202.97L66.71,197.95L69.88,100.93L73.06,87.26L76.24,53.11L79.41,39.73L82.59,55.68L85.76,60.75L88.94,61.9L92.12,64.64L95.29,65.56L98.47,67.07L101.65,70.37L104.82,73.91L108,94.86L114.35,112.59L117.53,109.28L120.71,109.13L123.88,141.23L127.06,137.59L130.24,139.54L136.59,140.46L139.76,139.89L142.94,140.65L146.12,139.34L149.29,139.15L152.47,137.99L155.65,135.05L158.82,134.45L162,131.94L165.18,130.89L168.35,132.53L171.53,135.41L174.71,132.13L177.88,105.58L181.06,95.34L184.24,94.32L187.41,94.86L190.59,88.59L193.76,141.1L196.94,145.11L203.29,139.66L206.47,135.29L209.65,128.69L212.82,118.06L216,130.62L219.18,127.4L222.35,121.45L225.53,108.42L228.71,74.1L231.88,73.48L235.06,72.98L238.24,61.9L241.41,69.17L244.59,64.56L247.76,56.47L250.94,54.28L254.12,54.75L257.29,69.16L260.47,63.07L263.65,63.66L266.82,64.57L270,64.4L273.18,62.48L276.35,52.56L279.53,48.63L282.71,50.87L285.88,54.19L289.06,61.28L292.24,25.03L295.41,30.8L298.59,51.2L301.76,51.41L304.94,51.22L308.12,55.76L311.29,55.21L314.47,55.44L317.65,56.03L320.82,55.41L324,56.99L327.18,57.41L330.35,58.37L333.53,68.6L336.71,68.9L339.88,73.86L343.06,72.29L346.24,64.23L349.41,64.5L352.59,46.29L355.76,45.68L358.94,42.72L365.29,41.37L368.47,40.74L371.65,55.65L374.82,81.66L381.18,83.72L384.35,82.41L387.53,82.71L390.71,81.23L400.24,78.29L403.41,78.45L409.76,74.67L412.94,72.82L416.12,71.8L419.29,48.47L422.47,44.66L425.65,51.95L428.82,58.74L432,35.75L435.18,35.45L438.35,38.2L441.53,36.26L444.71,37.79L447.88,59.83L451.06,60.94L457.41,63.49L460.59,61.65L463.76,62.9L466.94,61.11L470.12,60.23L473.29,49.4L476.47,42.41L479.65,38.73L482.82,37.87L486,35.86L489.18,34.36L492.35,53.58L495.53,52.41L498.71,36.88L501.88,35.75L505.06,35.83L511.41,33.73L514.59,19.42L517.76,19.59L520.94,17.2L527.29,16L530.47,25.54L536.82,23.68L540,18.55L540,304" style="vector-effect: non-scaling-stroke; fill: none; stroke: rgb(99, 110, 250); stroke-opacity: 1; stroke-width: 2px; opacity: 1;"/></g><g class="points"/><g class="text"/></g></g></g><g class="overplot"/><path class="xlines-above crisp" d="M0,0" style="fill: none;"/><path class="ylines-above crisp" d="M0,0" style="fill: none;"/><g class="overlines-above"/><g class="xaxislayer-above"><g class="xtick"><text text-anchor="middle" x="0" y="433" transform="translate(134,0)" style="font-family: 'Open Sans', verdana, arial, sans-serif; font-size: 12px; fill: rgb(42, 63, 95); fill-opacity: 1; white-space: pre; opacity: 1;">Aug 2022</text></g><g class="xtick"><text text-anchor="middle" x="0" y="433" style="font-family: 'Open Sans', verdana, arial, sans-serif; font-size: 12px; fill: rgb(42, 63, 95); fill-opacity: 1; white-space: pre; opacity: 1;" transform="translate(232.47,0)">Sep 2022</text></g><g class="xtick"><text text-anchor="middle" x="0" y="433" style="font-family: 'Open Sans', verdana, arial, sans-serif; font-size: 12px; fill: rgb(42, 63, 95); fill-opacity: 1; white-space: pre; opacity: 1;" transform="translate(327.76,0)">Oct 2022</text></g><g class="xtick"><text text-anchor="middle" x="0" y="433" style="font-family: 'Open Sans', verdana, arial, sans-serif; font-size: 12px; fill: rgb(42, 63, 95); fill-opacity: 1; white-space: pre; opacity: 1;" transform="translate(426.24,0)">Nov 2022</text></g><g class="xtick"><text text-anchor="middle" x="0" y="433" style="font-family: 'Open Sans', verdana, arial, sans-serif; font-size: 12px; fill: rgb(42, 63, 95); fill-opacity: 1; white-space: pre; opacity: 1;" transform="translate(521.53,0)">Dec 2022</text></g><g class="xtick"><text text-anchor="middle" x="0" y="433" style="font-family: 'Open Sans', verdana, arial, sans-serif; font-size: 12px; fill: rgb(42, 63, 95); fill-opacity: 1; white-space: pre; opacity: 1;" transform="translate(620,0)">Jan 2023</text></g></g><g class="yaxislayer-above"><g class="ytick"><text text-anchor="end" x="79" y="4.199999999999999" transform="translate(0,383.49)" style="font-family: 'Open Sans', verdana, arial, sans-serif; font-size: 12px; fill: rgb(42, 63, 95); fill-opacity: 1; white-space: pre; opacity: 1;">$0</text></g><g class="ytick"><text text-anchor="end" x="79" y="4.199999999999999" style="font-family: 'Open Sans', verdana, arial, sans-serif; font-size: 12px; fill: rgb(42, 63, 95); fill-opacity: 1; white-space: pre; opacity: 1;" transform="translate(0,344.68)">$1M</text></g><g class="ytick"><text text-anchor="end" x="79" y="4.199999999999999" style="font-family: 'Open Sans', verdana, arial, sans-serif; font-size: 12px; fill: rgb(42, 63, 95); fill-opacity: 1; white-space: pre; opacity: 1;" transform="translate(0,305.87)">$2M</text></g><g class="ytick"><text text-anchor="end" x="79" y="4.199999999999999" style="font-family: 'Open Sans', verdana, arial, sans-serif; font-size: 12px; fill: rgb(42, 63, 95); fill-opacity: 1; white-space: pre; opacity: 1;" transform="translate(0,267.07)">$3M</text></g><g class="ytick"><text text-anchor="end" x="79" y="4.199999999999999" style="font-family: 'Open Sans', verdana, arial, sans-serif; font-size: 12px; fill: rgb(42, 63, 95); fill-opacity: 1; white-space: pre; opacity: 1;" transform="translate(0,228.26)">$4M</text></g><g class="ytick"><text text-anchor="end" x="79" y="4.199999999999999" style="font-family: 'Open Sans', verdana, arial, sans-serif; font-size: 12px; fill: rgb(42, 63, 95); fill-opacity: 1; white-space: pre; opacity: 1;" transform="translate(0,189.45)">$5M</text></g><g class="ytick"><text text-anchor="end" x="79" y="4.199999999999999" style="font-family: 'Open Sans', verdana, arial, sans-serif; font-size: 12px; fill: rgb(42, 63, 95); fill-opacity: 1; white-space: pre; opacity: 1;" transform="translate(0,150.64)">$6M</text></g><g class="ytick"><text text-anchor="end" x="79" y="4.199999999999999" style="font-family: 'Open Sans', verdana, arial, sans-serif; font-size: 12px; fill: rgb(42, 63, 95); fill-opacity: 1; white-space: pre; opacity: 1;" transform="translate(0,111.83)">$7M</text></g></g><g class="overaxes-above"/></g></g><g class="polarlayer"/><g class="smithlayer"/><g class="ternarylayer"/><g class="geolayer"/><g class="funnelarealayer"/><g class="pielayer"/><g class="iciclelayer"/><g class="treemaplayer"/><g class="sunburstlayer"/><g class="glimages"/><defs id="topdefs-4a585c"><g class="clips"/></defs><g class="layer-above"><g class="imagelayer"/><g class="shapelayer"/></g><g class="infolayer"><g class="g-gtitle"><text class="gtitle" x="35" y="50" text-anchor="start" dy="0em" style="font-family: 'Open Sans', verdana, arial, sans-serif; font-size: 17px; fill: rgb(42, 63, 95); opacity: 1; font-weight: normal; white-space: pre;"><tspan class="line" dy="0em" x="35" y="50">Rubicon</tspan><tspan class="line" dy="1.3em" x="35" y="50">​<tspan style="font-size:70%" dy="-0.6em">Cumulative Net Dollar Flow since Program Announcement, Until Program End + 30 Days - At Last Price</tspan><tspan dy="0.42em">​</tspan></tspan></text></g><g class="g-xtitle"><text class="xtitle" x="350" y="460.8" text-anchor="middle" style="font-family: 'Open Sans', verdana, arial, sans-serif; font-size: 14px; fill: rgb(42, 63, 95); opacity: 1; font-weight: normal; white-space: pre;">Day</text></g><g class="g-ytitle"><text class="ytitle" transform="rotate(-90,30.856250000000003,260)" x="30.856250000000003" y="260" text-anchor="middle" style="font-family: 'Open Sans', verdana, arial, sans-serif; font-size: 14px; fill: rgb(42, 63, 95); opacity: 1; font-weight: normal; white-space: pre;">Cumulative Net Dollar Flow (N$F)</text></g></g></svg>