<svg class="main-svg" xmlns="http://www.w3.org/2000/svg" xmlns:xlink="http://www.w3.org/1999/xlink" width="700" height="500" style="" viewBox="0 0 700 500"><rect x="0" y="0" width="700" height="500" style="fill: rgb(255, 255, 255); fill-opacity: 1;"/><defs id="defs-01ecaa"><g class="clips"><clipPath id="clip01ecaaxyplot" class="plotclip"><rect width="540" height="320"/></clipPath><clipPath class="axesclip" id="clip01ecaax"><rect x="80" y="0" width="540" height="500"/></clipPath><clipPath class="axesclip" id="clip01ecaay"><rect x="0" y="100" width="700" height="320"/></clipPath><clipPath class="axesclip" id="clip01ecaaxy"><rect x="80" y="100" width="540" height="320"/></clipPath></g><g class="gradients"/><g class="patterns"/></defs><g class="bglayer"><rect class="bg" x="80" y="100" width="540" height="320" style="fill: rgb(229, 236, 246); fill-opacity: 1; stroke-width: 0;"/></g><g class="layer-below"><g class="imagelayer"/><g class="shapelayer"/></g><g class="cartesianlayer"><g class="subplot xy"><g class="layer-subplot"><g class="shapelayer"/><g class="imagelayer"/></g><g class="minor-gridlayer"><g class="x"/><g class="y"/></g><g class="gridlayer"><g class="x"><path class="xgrid crisp" transform="translate(117.97,0)" d="M0,100v320" style="stroke: rgb(255, 255, 255); stroke-opacity: 1; stroke-width: 1px;"/><path class="xgrid crisp" transform="translate(248.75,0)" d="M0,100v320" style="stroke: rgb(255, 255, 255); stroke-opacity: 1; stroke-width: 1px;"/><path class="xgrid crisp" transform="translate(375.31,0)" d="M0,100v320" style="stroke: rgb(255, 255, 255); stroke-opacity: 1; stroke-width: 1px;"/><path class="xgrid crisp" transform="translate(506.09,0)" d="M0,100v320" style="stroke: rgb(255, 255, 255); stroke-opacity: 1; stroke-width: 1px;"/></g><g class="y"><path class="ygrid crisp" transform="translate(0,381.13)" d="M80,0h540" style="stroke: rgb(255, 255, 255); stroke-opacity: 1; stroke-width: 1px;"/><path class="ygrid crisp" transform="translate(0,342.25)" d="M80,0h540" style="stroke: rgb(255, 255, 255); stroke-opacity: 1; stroke-width: 1px;"/><path class="ygrid crisp" transform="translate(0,303.38)" d="M80,0h540" style="stroke: rgb(255, 255, 255); stroke-opacity: 1; stroke-width: 1px;"/><path class="ygrid crisp" transform="translate(0,264.51)" d="M80,0h540" style="stroke: rgb(255, 255, 255); stroke-opacity: 1; stroke-width: 1px;"/><path class="ygrid crisp" transform="translate(0,225.63)" d="M80,0h540" style="stroke: rgb(255, 255, 255); stroke-opacity: 1; stroke-width: 1px;"/><path class="ygrid crisp" transform="translate(0,186.76)" d="M80,0h540" style="stroke: rgb(255, 255, 255); stroke-opacity: 1; stroke-width: 1px;"/><path class="ygrid crisp" transform="translate(0,147.89)" d="M80,0h540" style="stroke: rgb(255, 255, 255); stroke-opacity: 1; stroke-width: 1px;"/><path class="ygrid crisp" transform="translate(0,109.01)" d="M80,0h540" style="stroke: rgb(255, 255, 255); stroke-opacity: 1; stroke-width: 1px;"/></g></g><g class="zerolinelayer"><path class="yzl zl crisp" transform="translate(0,420)" d="M80,0h540" style="stroke: rgb(255, 255, 255); stroke-opacity: 1; stroke-width: 2px;"/></g><path class="xlines-below"/><path class="ylines-below"/><g class="overlines-below"/><g class="xaxislayer-below"/><g class="yaxislayer-below"/><g class="overaxes-below"/><g class="plot" transform="translate(80,100)" clip-path="url(#clip01ecaaxyplot)"><g class="scatterlayer mlayer"><g class="trace scatter tracea24ba6" style="stroke-miterlimit: 2;"><g class="fills"><g><path class="js-fill" d="M540,320L0,320L0,312.92L4.22,303.21L8.44,305.22L12.66,302.74L16.88,315.4L21.09,306.48L25.31,304.03L29.53,304.17L33.75,295.97L37.97,313.02L42.19,299.04L46.41,289.67L50.63,291.59L54.84,296.92L59.06,288.63L63.28,289.14L67.5,282.9L71.72,283.06L75.94,288.14L80.16,284.94L84.38,285.52L88.59,292.39L92.81,288.51L97.03,288L101.25,291.38L105.47,291.27L109.69,287.69L113.91,282.76L118.13,281.41L122.34,274.55L126.56,275.69L130.78,273.78L135,276.7L139.22,278.3L143.44,264.94L147.66,204.05L151.88,94.18L156.09,69.07L160.31,67.3L168.75,41.98L172.97,45.55L177.19,16L181.41,18.95L185.63,21.01L189.84,29.69L194.06,33.16L198.28,24.06L202.5,49.44L206.72,82.46L210.94,72.38L215.16,78L219.38,80.42L223.59,85.39L227.81,85.09L232.03,78.78L236.25,76.56L240.47,79.04L244.69,78.74L248.91,88.74L253.13,77.21L257.34,73.07L261.56,73.31L265.78,76.4L270,73.81L274.22,73.18L278.44,81.85L282.66,95.07L286.88,85.4L291.09,47.97L295.31,44.75L299.53,48.63L303.75,60.3L307.97,62.31L312.19,66.17L316.41,60.4L324.84,61.53L329.06,62.17L333.28,72.96L337.5,71.79L345.94,72.75L350.16,60.31L354.38,64L358.59,52.19L362.81,53.02L367.03,29.28L371.25,38.83L375.47,36.1L379.69,55.29L383.91,48.33L388.13,61.05L392.34,58.42L396.56,60.08L400.78,62.8L405,60.51L409.22,70.87L413.44,74.04L417.66,75.23L421.88,75.21L426.09,76.44L430.31,72.02L434.53,69.52L438.75,57.67L442.97,75.38L447.19,84.63L451.41,90.54L455.63,91.93L459.84,87.42L464.06,85.08L468.28,100.84L472.5,106.65L476.72,103.49L480.94,113.14L485.16,113.29L489.38,135.6L493.59,153.43L497.81,186.26L502.03,189.69L506.25,184.76L510.47,188.23L514.69,176.56L518.91,181.7L523.13,175.66L527.34,183.55L531.56,172.98L535.78,169.5L540,171.53" style="fill: rgb(99, 110, 250); fill-opacity: 0.5; stroke-width: 0;"/></g></g><g class="errorbars"/><g class="lines"><path class="js-line" d="M0,312.92L4.22,303.21L8.44,305.22L12.66,302.74L16.88,315.4L21.09,306.48L25.31,304.03L29.53,304.17L33.75,295.97L37.97,313.02L42.19,299.04L46.41,289.67L50.63,291.59L54.84,296.92L59.06,288.63L63.28,289.14L67.5,282.9L71.72,283.06L75.94,288.14L80.16,284.94L84.38,285.52L88.59,292.39L92.81,288.51L97.03,288L101.25,291.38L105.47,291.27L109.69,287.69L113.91,282.76L118.13,281.41L122.34,274.55L126.56,275.69L130.78,273.78L135,276.7L139.22,278.3L143.44,264.94L147.66,204.05L151.88,94.18L156.09,69.07L160.31,67.3L168.75,41.98L172.97,45.55L177.19,16L181.41,18.95L185.63,21.01L189.84,29.69L194.06,33.16L198.28,24.06L202.5,49.44L206.72,82.46L210.94,72.38L215.16,78L219.38,80.42L223.59,85.39L227.81,85.09L232.03,78.78L236.25,76.56L240.47,79.04L244.69,78.74L248.91,88.74L253.13,77.21L257.34,73.07L261.56,73.31L265.78,76.4L270,73.81L274.22,73.18L278.44,81.85L282.66,95.07L286.88,85.4L291.09,47.97L295.31,44.75L299.53,48.63L303.75,60.3L307.97,62.31L312.19,66.17L316.41,60.4L324.84,61.53L329.06,62.17L333.28,72.96L337.5,71.79L345.94,72.75L350.16,60.31L354.38,64L358.59,52.19L362.81,53.02L367.03,29.28L371.25,38.83L375.47,36.1L379.69,55.29L383.91,48.33L388.13,61.05L392.34,58.42L396.56,60.08L400.78,62.8L405,60.51L409.22,70.87L413.44,74.04L417.66,75.23L421.88,75.21L426.09,76.44L430.31,72.02L434.53,69.52L438.75,57.67L442.97,75.38L447.19,84.63L451.41,90.54L455.63,91.93L459.84,87.42L464.06,85.08L468.28,100.84L472.5,106.65L476.72,103.49L480.94,113.14L485.16,113.29L489.38,135.6L493.59,153.43L497.81,186.26L502.03,189.69L506.25,184.76L510.47,188.23L514.69,176.56L518.91,181.7L523.13,175.66L527.34,183.55L531.56,172.98L535.78,169.5L540,171.53" style="vector-effect: non-scaling-stroke; fill: none; stroke: rgb(99, 110, 250); stroke-opacity: 1; stroke-width: 2px; opacity: 1;"/></g><g class="points"/><g class="text"/></g></g></g><g class="overplot"/><path class="xlines-above crisp" d="M0,0" style="fill: none;"/><path class="ylines-above crisp" d="M0,0" style="fill: none;"/><g class="overlines-above"/><g class="xaxislayer-above"><g class="xtick"><text text-anchor="middle" x="0" y="433" transform="translate(117.97,0)" style="font-family: 'Open Sans', verdana, arial, sans-serif; font-size: 12px; fill: rgb(42, 63, 95); fill-opacity: 1; white-space: pre; opacity: 1;">Oct 2022</text></g><g class="xtick"><text text-anchor="middle" x="0" y="433" style="font-family: 'Open Sans', verdana, arial, sans-serif; font-size: 12px; fill: rgb(42, 63, 95); fill-opacity: 1; white-space: pre; opacity: 1;" transform="translate(248.75,0)">Nov 2022</text></g><g class="xtick"><text text-anchor="middle" x="0" y="433" style="font-family: 'Open Sans', verdana, arial, sans-serif; font-size: 12px; fill: rgb(42, 63, 95); fill-opacity: 1; white-space: pre; opacity: 1;" transform="translate(375.31,0)">Dec 2022</text></g><g class="xtick"><text text-anchor="middle" x="0" y="433" style="font-family: 'Open Sans', verdana, arial, sans-serif; font-size: 12px; fill: rgb(42, 63, 95); fill-opacity: 1; white-space: pre; opacity: 1;" transform="translate(506.09,0)">Jan 2023</text></g></g><g class="yaxislayer-above"><g class="ytick"><text text-anchor="end" x="79" y="4.199999999999999" transform="translate(0,420)" style="font-family: 'Open Sans', verdana, arial, sans-serif; font-size: 12px; fill: rgb(42, 63, 95); fill-opacity: 1; white-space: pre; opacity: 1;">$0</text></g><g class="ytick"><text text-anchor="end" x="79" y="4.199999999999999" style="font-family: 'Open Sans', verdana, arial, sans-serif; font-size: 12px; fill: rgb(42, 63, 95); fill-opacity: 1; white-space: pre; opacity: 1;" transform="translate(0,381.13)">$1M</text></g><g class="ytick"><text text-anchor="end" x="79" y="4.199999999999999" style="font-family: 'Open Sans', verdana, arial, sans-serif; font-size: 12px; fill: rgb(42, 63, 95); fill-opacity: 1; white-space: pre; opacity: 1;" transform="translate(0,342.25)">$2M</text></g><g class="ytick"><text text-anchor="end" x="79" y="4.199999999999999" style="font-family: 'Open Sans', verdana, arial, sans-serif; font-size: 12px; fill: rgb(42, 63, 95); fill-opacity: 1; white-space: pre; opacity: 1;" transform="translate(0,303.38)">$3M</text></g><g class="ytick"><text text-anchor="end" x="79" y="4.199999999999999" style="font-family: 'Open Sans', verdana, arial, sans-serif; font-size: 12px; fill: rgb(42, 63, 95); fill-opacity: 1; white-space: pre; opacity: 1;" transform="translate(0,264.51)">$4M</text></g><g class="ytick"><text text-anchor="end" x="79" y="4.199999999999999" style="font-family: 'Open Sans', verdana, arial, sans-serif; font-size: 12px; fill: rgb(42, 63, 95); fill-opacity: 1; white-space: pre; opacity: 1;" transform="translate(0,225.63)">$5M</text></g><g class="ytick"><text text-anchor="end" x="79" y="4.199999999999999" style="font-family: 'Open Sans', verdana, arial, sans-serif; font-size: 12px; fill: rgb(42, 63, 95); fill-opacity: 1; white-space: pre; opacity: 1;" transform="translate(0,186.76)">$6M</text></g><g class="ytick"><text text-anchor="end" x="79" y="4.199999999999999" style="font-family: 'Open Sans', verdana, arial, sans-serif; font-size: 12px; fill: rgb(42, 63, 95); fill-opacity: 1; white-space: pre; opacity: 1;" transform="translate(0,147.89)">$7M</text></g><g class="ytick"><text text-anchor="end" x="79" y="4.199999999999999" style="font-family: 'Open Sans', verdana, arial, sans-serif; font-size: 12px; fill: rgb(42, 63, 95); fill-opacity: 1; white-space: pre; opacity: 1;" transform="translate(0,109.01)">$8M</text></g></g><g class="overaxes-above"/></g></g><g class="polarlayer"/><g class="smithlayer"/><g class="ternarylayer"/><g class="geolayer"/><g class="funnelarealayer"/><g class="pielayer"/><g class="iciclelayer"/><g class="treemaplayer"/><g class="sunburstlayer"/><g class="glimages"/><defs id="topdefs-01ecaa"><g class="clips"/></defs><g class="layer-above"><g class="imagelayer"/><g class="shapelayer"/></g><g class="infolayer"><g class="g-gtitle"><text class="gtitle" x="35" y="50" text-anchor="start" dy="0em" style="font-family: 'Open Sans', verdana, arial, sans-serif; font-size: 17px; fill: rgb(42, 63, 95); opacity: 1; font-weight: normal; white-space: pre;"><tspan class="line" dy="0em" x="35" y="50">Hop Protocol</tspan><tspan class="line" dy="1.3em" x="35" y="50">​<tspan style="font-size:70%" dy="-0.6em">Cumulative Net Dollar Flow since Program Announcement, Until Program End + 30 Days - At Last Price</tspan><tspan dy="0.42em">​</tspan></tspan></text></g><g class="g-xtitle"><text class="xtitle" x="350" y="460.8" text-anchor="middle" style="font-family: 'Open Sans', verdana, arial, sans-serif; font-size: 14px; fill: rgb(42, 63, 95); opacity: 1; font-weight: normal; white-space: pre;">Day</text></g><g class="g-ytitle"><text class="ytitle" transform="rotate(-90,30.856250000000003,260)" x="30.856250000000003" y="260" text-anchor="middle" style="font-family: 'Open Sans', verdana, arial, sans-serif; font-size: 14px; fill: rgb(42, 63, 95); opacity: 1; font-weight: normal; white-space: pre;">Cumulative Net Dollar Flow (N$F)</text></g></g></svg>