<svg class="main-svg" xmlns="http://www.w3.org/2000/svg" xmlns:xlink="http://www.w3.org/1999/xlink" width="700" height="500" style="" viewBox="0 0 700 500"><rect x="0" y="0" width="700" height="500" style="fill: rgb(255, 255, 255); fill-opacity: 1;"/><defs id="defs-6d2664"><g class="clips"><clipPath id="clip6d2664xyplot" class="plotclip"><rect width="540" height="320"/></clipPath><clipPath class="axesclip" id="clip6d2664x"><rect x="80" y="0" width="540" height="500"/></clipPath><clipPath class="axesclip" id="clip6d2664y"><rect x="0" y="100" width="700" height="320"/></clipPath><clipPath class="axesclip" id="clip6d2664xy"><rect x="80" y="100" width="540" height="320"/></clipPath></g><g class="gradients"/><g class="patterns"/></defs><g class="bglayer"><rect class="bg" x="80" y="100" width="540" height="320" style="fill: rgb(229, 236, 246); fill-opacity: 1; stroke-width: 0;"/></g><g class="layer-below"><g class="imagelayer"/><g class="shapelayer"/></g><g class="cartesianlayer"><g class="subplot xy"><g class="layer-subplot"><g class="shapelayer"/><g class="imagelayer"/></g><g class="minor-gridlayer"><g class="x"/><g class="y"/></g><g class="gridlayer"><g class="x"><path class="xgrid crisp" transform="translate(97.1,0)" d="M0,100v320" style="stroke: rgb(255, 255, 255); stroke-opacity: 1; stroke-width: 1px;"/><path class="xgrid crisp" transform="translate(170.41,0)" d="M0,100v320" style="stroke: rgb(255, 255, 255); stroke-opacity: 1; stroke-width: 1px;"/><path class="xgrid crisp" transform="translate(246.15,0)" d="M0,100v320" style="stroke: rgb(255, 255, 255); stroke-opacity: 1; stroke-width: 1px;"/><path class="xgrid crisp" transform="translate(319.46000000000004,0)" d="M0,100v320" style="stroke: rgb(255, 255, 255); stroke-opacity: 1; stroke-width: 1px;"/><path class="xgrid crisp" transform="translate(395.2,0)" d="M0,100v320" style="stroke: rgb(255, 255, 255); stroke-opacity: 1; stroke-width: 1px;"/><path class="xgrid crisp" transform="translate(470.95,0)" d="M0,100v320" style="stroke: rgb(255, 255, 255); stroke-opacity: 1; stroke-width: 1px;"/><path class="xgrid crisp" transform="translate(539.37,0)" d="M0,100v320" style="stroke: rgb(255, 255, 255); stroke-opacity: 1; stroke-width: 1px;"/><path class="xgrid crisp" transform="translate(615.11,0)" d="M0,100v320" style="stroke: rgb(255, 255, 255); stroke-opacity: 1; stroke-width: 1px;"/></g><g class="y"><path class="ygrid crisp" transform="translate(0,365.49)" d="M80,0h540" style="stroke: rgb(255, 255, 255); stroke-opacity: 1; stroke-width: 1px;"/><path class="ygrid crisp" transform="translate(0,310.97)" d="M80,0h540" style="stroke: rgb(255, 255, 255); stroke-opacity: 1; stroke-width: 1px;"/><path class="ygrid crisp" transform="translate(0,256.46000000000004)" d="M80,0h540" style="stroke: rgb(255, 255, 255); stroke-opacity: 1; stroke-width: 1px;"/><path class="ygrid crisp" transform="translate(0,201.95)" d="M80,0h540" style="stroke: rgb(255, 255, 255); stroke-opacity: 1; stroke-width: 1px;"/><path class="ygrid crisp" transform="translate(0,147.43)" d="M80,0h540" style="stroke: rgb(255, 255, 255); stroke-opacity: 1; stroke-width: 1px;"/></g></g><g class="zerolinelayer"><path class="yzl zl crisp" transform="translate(0,420)" d="M80,0h540" style="stroke: rgb(255, 255, 255); stroke-opacity: 1; stroke-width: 2px;"/></g><path class="xlines-below"/><path class="ylines-below"/><g class="overlines-below"/><g class="xaxislayer-below"/><g class="yaxislayer-below"/><g class="overaxes-below"/><g class="plot" transform="translate(80,100)" clip-path="url(#clip6d2664xyplot)"><g class="scatterlayer mlayer"><g class="trace scatter trace00e13c" style="stroke-miterlimit: 2;"><g class="fills"><g><path class="js-fill" d="M540,320L0,320L0,318.87L2.44,271.47L4.89,262.01L7.33,258.32L9.77,258.25L12.22,251.35L14.66,248.22L17.1,246.58L19.55,248.57L21.99,241.56L24.43,238.78L26.88,234.92L29.32,245.2L31.76,242.21L34.21,244.98L36.65,233.69L39.1,228.75L41.54,225.72L43.98,224.74L46.43,227.91L48.87,232.52L51.31,233.96L53.76,218.04L56.2,208.28L58.64,206.73L61.09,203.7L63.53,209.78L65.97,209.58L68.42,206.23L73.3,206.17L75.75,207.14L78.19,205.21L80.63,204.51L83.08,171.37L85.52,173.71L87.96,180.7L90.41,179.25L92.85,179.14L95.29,180.71L100.18,183.24L102.62,191.65L105.07,187.43L107.51,197.32L109.95,197.3L112.4,198.66L114.84,202.87L117.29,199.67L122.17,198.85L124.62,196.13L129.5,195.67L131.95,193.68L134.39,195.39L136.83,195.12L149.05,195.45L151.49,193.7L153.94,194.53L156.38,209.12L158.82,206.61L161.27,193.15L173.48,193.32L175.93,193.69L178.37,194.75L180.81,192.54L183.26,192.34L185.7,237.72L188.14,243.6L190.59,231.18L193.03,224.25L195.48,231.51L197.92,219.65L200.36,218.17L202.81,217.09L205.25,219.31L207.69,224.28L210.14,223.12L212.58,222.01L215.02,224.16L217.47,224.77L219.91,224.35L222.35,217.82L224.8,218.32L227.24,217.13L229.68,216.97L239.46,216.74L241.9,213.8L244.34,213.89L246.79,209.08L249.23,208.51L251.67,202.31L254.12,187.41L256.56,180.52L259,181.03L261.45,178.87L263.89,178.75L266.33,177.06L268.78,172.81L271.22,171.99L276.11,163.07L278.55,167.78L283.44,167.85L285.88,171.58L288.33,186.3L290.77,186.78L293.21,187.32L295.66,186.34L302.99,186.4L305.43,192.9L307.87,192.77L310.32,188.98L312.76,173.27L315.2,170.02L317.65,175.12L320.09,175.04L322.53,181.37L324.98,181.96L327.42,178.57L329.86,178.6L332.31,182.63L334.75,180.29L339.64,153.58L342.08,151.88L344.52,157.89L346.97,153.39L349.41,151.99L351.86,154.29L356.74,153.28L359.19,157.15L361.63,151.95L364.07,140.9L366.52,137.14L368.96,136.17L371.4,133.92L373.85,105.4L376.29,51.07L378.73,46.65L381.18,49.63L383.62,37.46L386.06,36.53L388.51,18.44L390.95,17.96L393.39,16L395.84,21.39L398.28,34.07L400.72,39.32L403.17,39.3L405.61,49.84L408.05,68.24L410.5,71.02L412.94,71.5L415.38,71.18L417.83,46.35L420.27,48.94L422.71,46.13L425.16,46.46L427.6,43.92L430.05,50.33L432.49,61.53L434.93,61.82L437.38,63L439.82,79.92L442.26,80.8L444.71,81.73L447.15,80.69L449.59,78.04L452.04,72.65L454.48,71.39L456.92,71.27L459.37,71.38L461.81,70.68L464.25,72.4L466.7,72.07L469.14,71.97L471.58,68.03L474.03,69.64L476.47,67.02L478.91,61.69L481.36,62.27L483.8,60L486.24,75.4L488.69,72.22L491.13,70.47L493.57,60.38L496.02,57.71L498.46,61.07L500.9,66.46L505.79,72.58L508.24,72.84L510.68,71.14L513.12,71.77L515.57,72.3L518.01,73.82L520.45,93.58L522.9,106.29L527.78,218.56L530.23,248.15L532.67,251.04L535.11,260.02L540,268.57" style="fill: rgb(99, 110, 250); fill-opacity: 0.5; stroke-width: 0;"/></g></g><g class="errorbars"/><g class="lines"><path class="js-line" d="M0,318.87L2.44,271.47L4.89,262.01L7.33,258.32L9.77,258.25L12.22,251.35L14.66,248.22L17.1,246.58L19.55,248.57L21.99,241.56L24.43,238.78L26.88,234.92L29.32,245.2L31.76,242.21L34.21,244.98L36.65,233.69L39.1,228.75L41.54,225.72L43.98,224.74L46.43,227.91L48.87,232.52L51.31,233.96L53.76,218.04L56.2,208.28L58.64,206.73L61.09,203.7L63.53,209.78L65.97,209.58L68.42,206.23L73.3,206.17L75.75,207.14L78.19,205.21L80.63,204.51L83.08,171.37L85.52,173.71L87.96,180.7L90.41,179.25L92.85,179.14L95.29,180.71L100.18,183.24L102.62,191.65L105.07,187.43L107.51,197.32L109.95,197.3L112.4,198.66L114.84,202.87L117.29,199.67L122.17,198.85L124.62,196.13L129.5,195.67L131.95,193.68L134.39,195.39L136.83,195.12L149.05,195.45L151.49,193.7L153.94,194.53L156.38,209.12L158.82,206.61L161.27,193.15L173.48,193.32L175.93,193.69L178.37,194.75L180.81,192.54L183.26,192.34L185.7,237.72L188.14,243.6L190.59,231.18L193.03,224.25L195.48,231.51L197.92,219.65L200.36,218.17L202.81,217.09L205.25,219.31L207.69,224.28L210.14,223.12L212.58,222.01L215.02,224.16L217.47,224.77L219.91,224.35L222.35,217.82L224.8,218.32L227.24,217.13L229.68,216.97L239.46,216.74L241.9,213.8L244.34,213.89L246.79,209.08L249.23,208.51L251.67,202.31L254.12,187.41L256.56,180.52L259,181.03L261.45,178.87L263.89,178.75L266.33,177.06L268.78,172.81L271.22,171.99L276.11,163.07L278.55,167.78L283.44,167.85L285.88,171.58L288.33,186.3L290.77,186.78L293.21,187.32L295.66,186.34L302.99,186.4L305.43,192.9L307.87,192.77L310.32,188.98L312.76,173.27L315.2,170.02L317.65,175.12L320.09,175.04L322.53,181.37L324.98,181.96L327.42,178.57L329.86,178.6L332.31,182.63L334.75,180.29L339.64,153.58L342.08,151.88L344.52,157.89L346.97,153.39L349.41,151.99L351.86,154.29L356.74,153.28L359.19,157.15L361.63,151.95L364.07,140.9L366.52,137.14L368.96,136.17L371.4,133.92L373.85,105.4L376.29,51.07L378.73,46.65L381.18,49.63L383.62,37.46L386.06,36.53L388.51,18.44L390.95,17.96L393.39,16L395.84,21.39L398.28,34.07L400.72,39.32L403.17,39.3L405.61,49.84L408.05,68.24L410.5,71.02L412.94,71.5L415.38,71.18L417.83,46.35L420.27,48.94L422.71,46.13L425.16,46.46L427.6,43.92L430.05,50.33L432.49,61.53L434.93,61.82L437.38,63L439.82,79.92L442.26,80.8L444.71,81.73L447.15,80.69L449.59,78.04L452.04,72.65L454.48,71.39L456.92,71.27L459.37,71.38L461.81,70.68L464.25,72.4L466.7,72.07L469.14,71.97L471.58,68.03L474.03,69.64L476.47,67.02L478.91,61.69L481.36,62.27L483.8,60L486.24,75.4L488.69,72.22L491.13,70.47L493.57,60.38L496.02,57.71L498.46,61.07L500.9,66.46L505.79,72.58L508.24,72.84L510.68,71.14L513.12,71.77L515.57,72.3L518.01,73.82L520.45,93.58L522.9,106.29L527.78,218.56L530.23,248.15L532.67,251.04L535.11,260.02L540,268.57" style="vector-effect: non-scaling-stroke; fill: none; stroke: rgb(99, 110, 250); stroke-opacity: 1; stroke-width: 2px; opacity: 1;"/></g><g class="points"/><g class="text"/></g></g></g><g class="overplot"/><path class="xlines-above crisp" d="M0,0" style="fill: none;"/><path class="ylines-above crisp" d="M0,0" style="fill: none;"/><g class="overlines-above"/><g class="xaxislayer-above"><g class="xtick"><text text-anchor="middle" x="0" y="433" transform="translate(97.1,0)" style="font-family: 'Open Sans', verdana, arial, sans-serif; font-size: 12px; fill: rgb(42, 63, 95); fill-opacity: 1; white-space: pre; opacity: 1;">Sep 2022</text></g><g class="xtick"><text text-anchor="middle" x="0" y="433" style="font-family: 'Open Sans', verdana, arial, sans-serif; font-size: 12px; fill: rgb(42, 63, 95); fill-opacity: 1; white-space: pre; opacity: 1;" transform="translate(170.41,0)">Oct 2022</text></g><g class="xtick"><text text-anchor="middle" x="0" y="433" style="font-family: 'Open Sans', verdana, arial, sans-serif; font-size: 12px; fill: rgb(42, 63, 95); fill-opacity: 1; white-space: pre; opacity: 1;" transform="translate(246.15,0)">Nov 2022</text></g><g class="xtick"><text text-anchor="middle" x="0" y="433" style="font-family: 'Open Sans', verdana, arial, sans-serif; font-size: 12px; fill: rgb(42, 63, 95); fill-opacity: 1; white-space: pre; opacity: 1;" transform="translate(319.46000000000004,0)">Dec 2022</text></g><g class="xtick"><text text-anchor="middle" x="0" y="433" style="font-family: 'Open Sans', verdana, arial, sans-serif; font-size: 12px; fill: rgb(42, 63, 95); fill-opacity: 1; white-space: pre; opacity: 1;" transform="translate(395.2,0)">Jan 2023</text></g><g class="xtick"><text text-anchor="middle" x="0" y="433" style="font-family: 'Open Sans', verdana, arial, sans-serif; font-size: 12px; fill: rgb(42, 63, 95); fill-opacity: 1; white-space: pre; opacity: 1;" transform="translate(470.95,0)">Feb 2023</text></g><g class="xtick"><text text-anchor="middle" x="0" y="433" style="font-family: 'Open Sans', verdana, arial, sans-serif; font-size: 12px; fill: rgb(42, 63, 95); fill-opacity: 1; white-space: pre; opacity: 1;" transform="translate(539.37,0)">Mar 2023</text></g><g class="xtick"><text text-anchor="middle" x="0" y="433" style="font-family: 'Open Sans', verdana, arial, sans-serif; font-size: 12px; fill: rgb(42, 63, 95); fill-opacity: 1; white-space: pre; opacity: 1;" transform="translate(615.11,0)">Apr 2023</text></g></g><g class="yaxislayer-above"><g class="ytick"><text text-anchor="end" x="79" y="4.199999999999999" transform="translate(0,420)" style="font-family: 'Open Sans', verdana, arial, sans-serif; font-size: 12px; fill: rgb(42, 63, 95); fill-opacity: 1; white-space: pre; opacity: 1;">$0</text></g><g class="ytick"><text text-anchor="end" x="79" y="4.199999999999999" style="font-family: 'Open Sans', verdana, arial, sans-serif; font-size: 12px; fill: rgb(42, 63, 95); fill-opacity: 1; white-space: pre; opacity: 1;" transform="translate(0,365.49)">$5M</text></g><g class="ytick"><text text-anchor="end" x="79" y="4.199999999999999" style="font-family: 'Open Sans', verdana, arial, sans-serif; font-size: 12px; fill: rgb(42, 63, 95); fill-opacity: 1; white-space: pre; opacity: 1;" transform="translate(0,310.97)">$10M</text></g><g class="ytick"><text text-anchor="end" x="79" y="4.199999999999999" style="font-family: 'Open Sans', verdana, arial, sans-serif; font-size: 12px; fill: rgb(42, 63, 95); fill-opacity: 1; white-space: pre; opacity: 1;" transform="translate(0,256.46000000000004)">$15M</text></g><g class="ytick"><text text-anchor="end" x="79" y="4.199999999999999" style="font-family: 'Open Sans', verdana, arial, sans-serif; font-size: 12px; fill: rgb(42, 63, 95); fill-opacity: 1; white-space: pre; opacity: 1;" transform="translate(0,201.95)">$20M</text></g><g class="ytick"><text text-anchor="end" x="79" y="4.199999999999999" style="font-family: 'Open Sans', verdana, arial, sans-serif; font-size: 12px; fill: rgb(42, 63, 95); fill-opacity: 1; white-space: pre; opacity: 1;" transform="translate(0,147.43)">$25M</text></g></g><g class="overaxes-above"/></g></g><g class="polarlayer"/><g class="smithlayer"/><g class="ternarylayer"/><g class="geolayer"/><g class="funnelarealayer"/><g class="pielayer"/><g class="iciclelayer"/><g class="treemaplayer"/><g class="sunburstlayer"/><g class="glimages"/><defs id="topdefs-6d2664"><g class="clips"/></defs><g class="layer-above"><g class="imagelayer"/><g class="shapelayer"/></g><g class="infolayer"><g class="g-gtitle"><text class="gtitle" x="35" y="50" text-anchor="start" dy="0em" style="font-family: 'Open Sans', verdana, arial, sans-serif; font-size: 17px; fill: rgb(42, 63, 95); opacity: 1; font-weight: normal; white-space: pre;"><tspan class="line" dy="0em" x="35" y="50">Synthetix - sETH-ETH: Curve</tspan><tspan class="line" dy="1.3em" x="35" y="50">​<tspan style="font-size:70%" dy="-0.6em">Cumulative Net Flows since Program Announcement, Until Program End + 30 Days - At Last Price</tspan><tspan dy="0.42em">​</tspan></tspan></text></g><g class="g-xtitle"><text class="xtitle" x="350" y="460.8" text-anchor="middle" style="font-family: 'Open Sans', verdana, arial, sans-serif; font-size: 14px; fill: rgb(42, 63, 95); opacity: 1; font-weight: normal; white-space: pre;">Day</text></g><g class="g-ytitle"><text class="ytitle" transform="rotate(-90,24.168750000000003,260)" x="24.168750000000003" y="260" text-anchor="middle" style="font-family: 'Open Sans', verdana, arial, sans-serif; font-size: 14px; fill: rgb(42, 63, 95); opacity: 1; font-weight: normal; white-space: pre;">Cumulative Net Flows (USD)</text></g></g></svg>