<svg class="main-svg" xmlns="http://www.w3.org/2000/svg" xmlns:xlink="http://www.w3.org/1999/xlink" width="700" height="500" style="" viewBox="0 0 700 500"><rect x="0" y="0" width="700" height="500" style="fill: rgb(255, 255, 255); fill-opacity: 1;"/><defs id="defs-79693a"><g class="clips"><clipPath id="clip79693axyplot" class="plotclip"><rect width="540" height="320"/></clipPath><clipPath class="axesclip" id="clip79693ax"><rect x="80" y="0" width="540" height="500"/></clipPath><clipPath class="axesclip" id="clip79693ay"><rect x="0" y="100" width="700" height="320"/></clipPath><clipPath class="axesclip" id="clip79693axy"><rect x="80" y="100" width="540" height="320"/></clipPath></g><g class="gradients"/><g class="patterns"/></defs><g class="bglayer"><rect class="bg" x="80" y="100" width="540" height="320" style="fill: rgb(229, 236, 246); fill-opacity: 1; stroke-width: 0;"/></g><g class="layer-below"><g class="imagelayer"/><g class="shapelayer"/></g><g class="cartesianlayer"><g class="subplot xy"><g class="layer-subplot"><g class="shapelayer"/><g class="imagelayer"/></g><g class="minor-gridlayer"><g class="x"/><g class="y"/></g><g class="gridlayer"><g class="x"><path class="xgrid crisp" transform="translate(170,0)" d="M0,100v320" style="stroke: rgb(255, 255, 255); stroke-opacity: 1; stroke-width: 1px;"/><path class="xgrid crisp" transform="translate(260,0)" d="M0,100v320" style="stroke: rgb(255, 255, 255); stroke-opacity: 1; stroke-width: 1px;"/><path class="xgrid crisp" transform="translate(353,0)" d="M0,100v320" style="stroke: rgb(255, 255, 255); stroke-opacity: 1; stroke-width: 1px;"/><path class="xgrid crisp" transform="translate(443,0)" d="M0,100v320" style="stroke: rgb(255, 255, 255); stroke-opacity: 1; stroke-width: 1px;"/><path class="xgrid crisp" transform="translate(536,0)" d="M0,100v320" style="stroke: rgb(255, 255, 255); stroke-opacity: 1; stroke-width: 1px;"/></g><g class="y"><path class="ygrid crisp" transform="translate(0,384)" d="M80,0h540" style="stroke: rgb(255, 255, 255); stroke-opacity: 1; stroke-width: 1px;"/><path class="ygrid crisp" transform="translate(0,255.82)" d="M80,0h540" style="stroke: rgb(255, 255, 255); stroke-opacity: 1; stroke-width: 1px;"/><path class="ygrid crisp" transform="translate(0,191.73000000000002)" d="M80,0h540" style="stroke: rgb(255, 255, 255); stroke-opacity: 1; stroke-width: 1px;"/><path class="ygrid crisp" transform="translate(0,127.64)" d="M80,0h540" style="stroke: rgb(255, 255, 255); stroke-opacity: 1; stroke-width: 1px;"/></g></g><g class="zerolinelayer"><path class="yzl zl crisp" transform="translate(0,319.90999999999997)" d="M80,0h540" style="stroke: rgb(255, 255, 255); stroke-opacity: 1; stroke-width: 2px;"/></g><path class="xlines-below"/><path class="ylines-below"/><g class="overlines-below"/><g class="xaxislayer-below"/><g class="yaxislayer-below"/><g class="overaxes-below"/><g class="plot" transform="translate(80,100)" clip-path="url(#clip79693axyplot)"><g class="scatterlayer mlayer"><g class="trace scatter trace22a97a" style="stroke-miterlimit: 2;"><g class="fills"><g><path class="js-fill" d="M540,219.91L0,219.91L0,219.66L3,196.26L6,140.46L9,116.69L12,110.9L15,101.83L18,86.99L21,79.33L24,42.78L27,40.59L30,39.33L33,28.15L36,24.13L39,23.03L42,17.44L45,32.73L48,16L54,16.89L57,25.15L63,29.21L66,30.38L69,36.39L72,37.28L75,33.07L78,32.75L81,33.8L84,36.8L87,37.48L90,35.71L93,35.88L96,45.06L102,44.99L105,46.33L108,47.67L111,51.73L114,52.38L117,60.07L120,65.94L123,69.52L126,74.55L129,81.55L132,84.81L135,78.65L138,48.98L141,47.92L144,39.62L147,41.87L150,40.46L153,40.15L156,46.78L159,32.36L162,30.19L165,24.39L168,23.67L171,25.1L174,28.14L177,27.37L183,23.29L186,23.39L189,23.04L192,27L198,30.82L201,28.05L204,26.62L207,32.73L210,36.34L213,35.26L216,34.44L219,36.39L222,35.5L225,32.47L228,53.68L231,59.08L237,61.01L240,61.65L243,85.5L246,83.78L252,92.06L255,109.95L258,127L261,122.28L264,104.91L267,105.5L270,109.03L273,108.37L279,111.34L282,106.66L285,108.53L288,105.62L291,105.47L294,102.11L297,103.76L300,110.12L303,110L306,103.32L309,106.71L312,105.87L315,124.63L318,125.73L324,125.52L327,118.54L336,110.59L339,109.25L342,117.41L345,121.51L348,121.7L351,123.34L354,123.79L357,119.28L363,130.83L366,130.36L369,123.66L372,122.31L375,124.76L378,122.42L381,121.9L384,120.23L387,122.17L390,128.64L393,128.14L396,128.83L399,130.05L402,133.11L408,127.32L411,128.42L414,126.52L417,126.31L420,124.57L423,133.45L426,135.63L429,136.31L435,137.43L438,136.57L441,135.35L444,137.1L450,136.74L453,142.89L456,143.06L459,141.23L465,142.41L468,145.29L471,146.14L474,144.22L483,147.67L486,150.09L489,151.07L492,133.73L495,133.83L498,135.62L501,133.86L504,133.25L513,126.63L516,130.68L519,128.39L522,127.76L525,122.11L528,120.33L531,122.5L534,114.17L537,118.9L540,115.33L540,304" style="fill: rgb(99, 110, 250); fill-opacity: 0.5; stroke-width: 0;"/></g></g><g class="errorbars"/><g class="lines"><path class="js-line" d="M0,219.66L3,196.26L6,140.46L9,116.69L12,110.9L15,101.83L18,86.99L21,79.33L24,42.78L27,40.59L30,39.33L33,28.15L36,24.13L39,23.03L42,17.44L45,32.73L48,16L54,16.89L57,25.15L63,29.21L66,30.38L69,36.39L72,37.28L75,33.07L78,32.75L81,33.8L84,36.8L87,37.48L90,35.71L93,35.88L96,45.06L102,44.99L105,46.33L108,47.67L111,51.73L114,52.38L117,60.07L120,65.94L123,69.52L126,74.55L129,81.55L132,84.81L135,78.65L138,48.98L141,47.92L144,39.62L147,41.87L150,40.46L153,40.15L156,46.78L159,32.36L162,30.19L165,24.39L168,23.67L171,25.1L174,28.14L177,27.37L183,23.29L186,23.39L189,23.04L192,27L198,30.82L201,28.05L204,26.62L207,32.73L210,36.34L213,35.26L216,34.44L219,36.39L222,35.5L225,32.47L228,53.68L231,59.08L237,61.01L240,61.65L243,85.5L246,83.78L252,92.06L255,109.95L258,127L261,122.28L264,104.91L267,105.5L270,109.03L273,108.37L279,111.34L282,106.66L285,108.53L288,105.62L291,105.47L294,102.11L297,103.76L300,110.12L303,110L306,103.32L309,106.71L312,105.87L315,124.63L318,125.73L324,125.52L327,118.54L336,110.59L339,109.25L342,117.41L345,121.51L348,121.7L351,123.34L354,123.79L357,119.28L363,130.83L366,130.36L369,123.66L372,122.31L375,124.76L378,122.42L381,121.9L384,120.23L387,122.17L390,128.64L393,128.14L396,128.83L399,130.05L402,133.11L408,127.32L411,128.42L414,126.52L417,126.31L420,124.57L423,133.45L426,135.63L429,136.31L435,137.43L438,136.57L441,135.35L444,137.1L450,136.74L453,142.89L456,143.06L459,141.23L465,142.41L468,145.29L471,146.14L474,144.22L483,147.67L486,150.09L489,151.07L492,133.73L495,133.83L498,135.62L501,133.86L504,133.25L513,126.63L516,130.68L519,128.39L522,127.76L525,122.11L528,120.33L531,122.5L534,114.17L537,118.9L540,115.33L540,304" style="vector-effect: non-scaling-stroke; fill: none; stroke: rgb(99, 110, 250); stroke-opacity: 1; stroke-width: 2px; opacity: 1;"/></g><g class="points"/><g class="text"/></g></g></g><g class="overplot"/><path class="xlines-above crisp" d="M0,0" style="fill: none;"/><path class="ylines-above crisp" d="M0,0" style="fill: none;"/><g class="overlines-above"/><g class="xaxislayer-above"><g class="xtick"><text text-anchor="middle" x="0" y="433" transform="translate(170,0)" style="font-family: 'Open Sans', verdana, arial, sans-serif; font-size: 12px; fill: rgb(42, 63, 95); fill-opacity: 1; white-space: pre; opacity: 1;">Sep 2022</text></g><g class="xtick"><text text-anchor="middle" x="0" y="433" style="font-family: 'Open Sans', verdana, arial, sans-serif; font-size: 12px; fill: rgb(42, 63, 95); fill-opacity: 1; white-space: pre; opacity: 1;" transform="translate(260,0)">Oct 2022</text></g><g class="xtick"><text text-anchor="middle" x="0" y="433" style="font-family: 'Open Sans', verdana, arial, sans-serif; font-size: 12px; fill: rgb(42, 63, 95); fill-opacity: 1; white-space: pre; opacity: 1;" transform="translate(353,0)">Nov 2022</text></g><g class="xtick"><text text-anchor="middle" x="0" y="433" style="font-family: 'Open Sans', verdana, arial, sans-serif; font-size: 12px; fill: rgb(42, 63, 95); fill-opacity: 1; white-space: pre; opacity: 1;" transform="translate(443,0)">Dec 2022</text></g><g class="xtick"><text text-anchor="middle" x="0" y="433" style="font-family: 'Open Sans', verdana, arial, sans-serif; font-size: 12px; fill: rgb(42, 63, 95); fill-opacity: 1; white-space: pre; opacity: 1;" transform="translate(536,0)">Jan 2023</text></g></g><g class="yaxislayer-above"><g class="ytick"><text text-anchor="end" x="79" y="4.199999999999999" transform="translate(0,384)" style="font-family: 'Open Sans', verdana, arial, sans-serif; font-size: 12px; fill: rgb(42, 63, 95); fill-opacity: 1; white-space: pre; opacity: 1;">$−5M</text></g><g class="ytick"><text text-anchor="end" x="79" y="4.199999999999999" style="font-family: 'Open Sans', verdana, arial, sans-serif; font-size: 12px; fill: rgb(42, 63, 95); fill-opacity: 1; white-space: pre; opacity: 1;" transform="translate(0,319.90999999999997)">$0</text></g><g class="ytick"><text text-anchor="end" x="79" y="4.199999999999999" style="font-family: 'Open Sans', verdana, arial, sans-serif; font-size: 12px; fill: rgb(42, 63, 95); fill-opacity: 1; white-space: pre; opacity: 1;" transform="translate(0,255.82)">$5M</text></g><g class="ytick"><text text-anchor="end" x="79" y="4.199999999999999" style="font-family: 'Open Sans', verdana, arial, sans-serif; font-size: 12px; fill: rgb(42, 63, 95); fill-opacity: 1; white-space: pre; opacity: 1;" transform="translate(0,191.73000000000002)">$10M</text></g><g class="ytick"><text text-anchor="end" x="79" y="4.199999999999999" style="font-family: 'Open Sans', verdana, arial, sans-serif; font-size: 12px; fill: rgb(42, 63, 95); fill-opacity: 1; white-space: pre; opacity: 1;" transform="translate(0,127.64)">$15M</text></g></g><g class="overaxes-above"/></g></g><g class="polarlayer"/><g class="smithlayer"/><g class="ternarylayer"/><g class="geolayer"/><g class="funnelarealayer"/><g class="pielayer"/><g class="iciclelayer"/><g class="treemaplayer"/><g class="sunburstlayer"/><g class="glimages"/><defs id="topdefs-79693a"><g class="clips"/></defs><g class="layer-above"><g class="imagelayer"/><g class="shapelayer"/></g><g class="infolayer"><g class="g-gtitle"><text class="gtitle" x="35" y="50" text-anchor="start" dy="0em" style="font-family: 'Open Sans', verdana, arial, sans-serif; font-size: 17px; fill: rgb(42, 63, 95); opacity: 1; font-weight: normal; white-space: pre;"><tspan class="line" dy="0em" x="35" y="50">Lyra</tspan><tspan class="line" dy="1.3em" x="35" y="50">​<tspan style="font-size:70%" dy="-0.6em">Cumulative Net Dollar Flow since Program Announcement, Until Program End + 30 Days - At Last Price</tspan><tspan dy="0.42em">​</tspan></tspan></text></g><g class="g-xtitle"><text class="xtitle" x="350" y="460.8" text-anchor="middle" style="font-family: 'Open Sans', verdana, arial, sans-serif; font-size: 14px; fill: rgb(42, 63, 95); opacity: 1; font-weight: normal; white-space: pre;">Day</text></g><g class="g-ytitle"><text class="ytitle" transform="rotate(-90,23.840625000000003,260)" x="23.840625000000003" y="260" text-anchor="middle" style="font-family: 'Open Sans', verdana, arial, sans-serif; font-size: 14px; fill: rgb(42, 63, 95); opacity: 1; font-weight: normal; white-space: pre;">Cumulative Net Dollar Flow (N$F)</text></g></g></svg>