<svg class="main-svg" xmlns="http://www.w3.org/2000/svg" xmlns:xlink="http://www.w3.org/1999/xlink" width="700" height="500" style="" viewBox="0 0 700 500"><rect x="0" y="0" width="700" height="500" style="fill: rgb(255, 255, 255); fill-opacity: 1;"/><defs id="defs-162555"><g class="clips"><clipPath id="clip162555xyplot" class="plotclip"><rect width="540" height="320"/></clipPath><clipPath class="axesclip" id="clip162555x"><rect x="80" y="0" width="540" height="500"/></clipPath><clipPath class="axesclip" id="clip162555y"><rect x="0" y="100" width="700" height="320"/></clipPath><clipPath class="axesclip" id="clip162555xy"><rect x="80" y="100" width="540" height="320"/></clipPath></g><g class="gradients"/><g class="patterns"/></defs><g class="bglayer"><rect class="bg" x="80" y="100" width="540" height="320" style="fill: rgb(229, 236, 246); fill-opacity: 1; stroke-width: 0;"/></g><g class="layer-below"><g class="imagelayer"/><g class="shapelayer"/></g><g class="cartesianlayer"><g class="subplot xy"><g class="layer-subplot"><g class="shapelayer"/><g class="imagelayer"/></g><g class="minor-gridlayer"><g class="x"/><g class="y"/></g><g class="gridlayer"><g class="x"><path class="xgrid crisp" transform="translate(124.59,0)" d="M0,100v320" style="stroke: rgb(255, 255, 255); stroke-opacity: 1; stroke-width: 1px;"/><path class="xgrid crisp" transform="translate(201.38,0)" d="M0,100v320" style="stroke: rgb(255, 255, 255); stroke-opacity: 1; stroke-width: 1px;"/><path class="xgrid crisp" transform="translate(275.69,0)" d="M0,100v320" style="stroke: rgb(255, 255, 255); stroke-opacity: 1; stroke-width: 1px;"/><path class="xgrid crisp" transform="translate(352.48,0)" d="M0,100v320" style="stroke: rgb(255, 255, 255); stroke-opacity: 1; stroke-width: 1px;"/><path class="xgrid crisp" transform="translate(426.79,0)" d="M0,100v320" style="stroke: rgb(255, 255, 255); stroke-opacity: 1; stroke-width: 1px;"/><path class="xgrid crisp" transform="translate(503.58,0)" d="M0,100v320" style="stroke: rgb(255, 255, 255); stroke-opacity: 1; stroke-width: 1px;"/><path class="xgrid crisp" transform="translate(580.37,0)" d="M0,100v320" style="stroke: rgb(255, 255, 255); stroke-opacity: 1; stroke-width: 1px;"/></g><g class="y"><path class="ygrid crisp" transform="translate(0,372.25)" d="M80,0h540" style="stroke: rgb(255, 255, 255); stroke-opacity: 1; stroke-width: 1px;"/><path class="ygrid crisp" transform="translate(0,321.1)" d="M80,0h540" style="stroke: rgb(255, 255, 255); stroke-opacity: 1; stroke-width: 1px;"/><path class="ygrid crisp" transform="translate(0,269.94)" d="M80,0h540" style="stroke: rgb(255, 255, 255); stroke-opacity: 1; stroke-width: 1px;"/><path class="ygrid crisp" transform="translate(0,218.79000000000002)" d="M80,0h540" style="stroke: rgb(255, 255, 255); stroke-opacity: 1; stroke-width: 1px;"/><path class="ygrid crisp" transform="translate(0,167.63)" d="M80,0h540" style="stroke: rgb(255, 255, 255); stroke-opacity: 1; stroke-width: 1px;"/></g></g><g class="zerolinelayer"><path class="yzl zl crisp" transform="translate(0,116.48)" d="M80,0h540" style="stroke: rgb(255, 255, 255); stroke-opacity: 1; stroke-width: 2px;"/></g><path class="xlines-below"/><path class="ylines-below"/><g class="overlines-below"/><g class="xaxislayer-below"/><g class="yaxislayer-below"/><g class="overaxes-below"/><g class="plot" transform="translate(80,100)" clip-path="url(#clip162555xyplot)"><g class="scatterlayer mlayer"><g class="trace scatter trace4618f3" style="stroke-miterlimit: 2;"><g class="fills"><g><path class="js-fill" d="M540,16.48L0,16.48L0,17.69L4.95,16.72L7.43,16.07L9.91,16L12.39,82.63L14.86,77.72L17.34,76.56L19.82,79.21L22.29,80.4L24.77,77.03L27.25,77.16L29.72,77L32.2,80.48L37.16,79.91L39.63,79.73L42.11,79.83L44.59,80.85L47.06,80.91L49.54,83.08L52.02,75.58L54.5,73.31L56.97,71.47L59.45,74.01L61.93,76.3L64.4,74.07L66.88,75.62L69.36,74.98L71.83,73.05L74.31,68.77L76.79,69.09L79.27,68.28L81.74,67.6L84.22,67.7L86.7,65.46L89.17,64.89L91.65,64.49L94.13,65.46L99.08,65.91L101.56,69.87L104.04,70.05L106.51,73.24L108.99,74.22L111.47,72.33L113.94,72.19L116.42,78.11L118.9,78.44L121.38,79.94L126.33,81.36L128.81,81.31L136.24,80.99L138.72,80.58L141.19,75.46L143.67,75.66L148.62,75.81L151.1,73.49L153.58,73.56L156.06,78.72L163.49,77.17L165.96,77.52L170.92,76.52L173.39,76.1L175.87,71.72L178.35,72.3L193.21,71.47L195.69,69.63L200.64,69.5L203.12,68.84L215.5,68.81L217.98,68.81L227.89,67.92L230.37,67.1L237.8,67.17L240.28,64.8L242.75,64.76L245.23,65.76L250.18,66.07L252.66,66.67L257.61,69.23L260.09,69.77L265.05,72.14L267.52,72.68L270,72.71L272.48,74.7L274.95,73.87L277.43,74.34L279.91,78.85L282.39,78.59L287.34,78.54L289.82,77.75L292.29,80.43L294.77,80.52L297.25,90.48L299.72,91.92L302.2,94.46L304.68,95.38L309.63,101.65L312.11,101.47L314.59,121.54L317.06,125.42L322.02,124.43L324.5,125.03L326.97,123.98L329.45,126.76L336.88,126.47L339.36,124.81L341.83,128.47L344.31,128.48L346.79,131.06L349.27,131.49L351.74,134.28L354.22,128.14L356.7,127.93L359.17,130.15L361.65,129.48L364.13,127.84L366.61,127.67L369.08,130.34L376.51,130.05L378.99,129.56L381.47,131.57L383.94,131.41L386.42,129.24L388.9,128.13L396.33,128.02L398.81,127.06L401.28,127.75L403.76,126.97L411.19,126.81L413.67,126.57L418.62,125.37L421.1,125.45L426.06,125.4L428.53,125.37L433.49,124.74L435.96,127.11L440.92,126.16L443.39,126.03L448.35,123.44L450.83,123.58L453.3,124.35L455.78,122.6L458.26,128.94L460.73,129.44L463.21,129.8L465.69,131.35L468.17,131.51L470.64,130.61L475.6,133L478.07,132.26L483.03,130.8L485.5,132.29L490.46,131.42L492.94,131.89L495.41,131.99L497.89,131.16L500.37,131.65L502.84,131.3L507.8,132.27L510.28,131.55L512.75,131.84L515.23,130.9L517.71,130.51L520.18,131.12L522.66,129.93L525.14,129.61L527.61,128.59L530.09,129.03L535.05,128.23L537.52,128.01L540,128.61L540,304" style="fill: rgb(99, 110, 250); fill-opacity: 0.5; stroke-width: 0;"/></g></g><g class="errorbars"/><g class="lines"><path class="js-line" d="M0,17.69L4.95,16.72L7.43,16.07L9.91,16L12.39,82.63L14.86,77.72L17.34,76.56L19.82,79.21L22.29,80.4L24.77,77.03L27.25,77.16L29.72,77L32.2,80.48L37.16,79.91L39.63,79.73L42.11,79.83L44.59,80.85L47.06,80.91L49.54,83.08L52.02,75.58L54.5,73.31L56.97,71.47L59.45,74.01L61.93,76.3L64.4,74.07L66.88,75.62L69.36,74.98L71.83,73.05L74.31,68.77L76.79,69.09L79.27,68.28L81.74,67.6L84.22,67.7L86.7,65.46L89.17,64.89L91.65,64.49L94.13,65.46L99.08,65.91L101.56,69.87L104.04,70.05L106.51,73.24L108.99,74.22L111.47,72.33L113.94,72.19L116.42,78.11L118.9,78.44L121.38,79.94L126.33,81.36L128.81,81.31L136.24,80.99L138.72,80.58L141.19,75.46L143.67,75.66L148.62,75.81L151.1,73.49L153.58,73.56L156.06,78.72L163.49,77.17L165.96,77.52L170.92,76.52L173.39,76.1L175.87,71.72L178.35,72.3L193.21,71.47L195.69,69.63L200.64,69.5L203.12,68.84L215.5,68.81L217.98,68.81L227.89,67.92L230.37,67.1L237.8,67.17L240.28,64.8L242.75,64.76L245.23,65.76L250.18,66.07L252.66,66.67L257.61,69.23L260.09,69.77L265.05,72.14L267.52,72.68L270,72.71L272.48,74.7L274.95,73.87L277.43,74.34L279.91,78.85L282.39,78.59L287.34,78.54L289.82,77.75L292.29,80.43L294.77,80.52L297.25,90.48L299.72,91.92L302.2,94.46L304.68,95.38L309.63,101.65L312.11,101.47L314.59,121.54L317.06,125.42L322.02,124.43L324.5,125.03L326.97,123.98L329.45,126.76L336.88,126.47L339.36,124.81L341.83,128.47L344.31,128.48L346.79,131.06L349.27,131.49L351.74,134.28L354.22,128.14L356.7,127.93L359.17,130.15L361.65,129.48L364.13,127.84L366.61,127.67L369.08,130.34L376.51,130.05L378.99,129.56L381.47,131.57L383.94,131.41L386.42,129.24L388.9,128.13L396.33,128.02L398.81,127.06L401.28,127.75L403.76,126.97L411.19,126.81L413.67,126.57L418.62,125.37L421.1,125.45L426.06,125.4L428.53,125.37L433.49,124.74L435.96,127.11L440.92,126.16L443.39,126.03L448.35,123.44L450.83,123.58L453.3,124.35L455.78,122.6L458.26,128.94L460.73,129.44L463.21,129.8L465.69,131.35L468.17,131.51L470.64,130.61L475.6,133L478.07,132.26L483.03,130.8L485.5,132.29L490.46,131.42L492.94,131.89L495.41,131.99L497.89,131.16L500.37,131.65L502.84,131.3L507.8,132.27L510.28,131.55L512.75,131.84L515.23,130.9L517.71,130.51L520.18,131.12L522.66,129.93L525.14,129.61L527.61,128.59L530.09,129.03L535.05,128.23L537.52,128.01L540,128.61L540,304" style="vector-effect: non-scaling-stroke; fill: none; stroke: rgb(99, 110, 250); stroke-opacity: 1; stroke-width: 2px; opacity: 1;"/></g><g class="points"/><g class="text"/></g></g></g><g class="overplot"/><path class="xlines-above crisp" d="M0,0" style="fill: none;"/><path class="ylines-above crisp" d="M0,0" style="fill: none;"/><g class="overlines-above"/><g class="xaxislayer-above"><g class="xtick"><text text-anchor="middle" x="0" y="433" transform="translate(124.59,0)" style="font-family: 'Open Sans', verdana, arial, sans-serif; font-size: 12px; fill: rgb(42, 63, 95); fill-opacity: 1; white-space: pre; opacity: 1;">Aug 2022</text></g><g class="xtick"><text text-anchor="middle" x="0" y="433" style="font-family: 'Open Sans', verdana, arial, sans-serif; font-size: 12px; fill: rgb(42, 63, 95); fill-opacity: 1; white-space: pre; opacity: 1;" transform="translate(201.38,0)">Sep 2022</text></g><g class="xtick"><text text-anchor="middle" x="0" y="433" style="font-family: 'Open Sans', verdana, arial, sans-serif; font-size: 12px; fill: rgb(42, 63, 95); fill-opacity: 1; white-space: pre; opacity: 1;" transform="translate(275.69,0)">Oct 2022</text></g><g class="xtick"><text text-anchor="middle" x="0" y="433" style="font-family: 'Open Sans', verdana, arial, sans-serif; font-size: 12px; fill: rgb(42, 63, 95); fill-opacity: 1; white-space: pre; opacity: 1;" transform="translate(352.48,0)">Nov 2022</text></g><g class="xtick"><text text-anchor="middle" x="0" y="433" style="font-family: 'Open Sans', verdana, arial, sans-serif; font-size: 12px; fill: rgb(42, 63, 95); fill-opacity: 1; white-space: pre; opacity: 1;" transform="translate(426.79,0)">Dec 2022</text></g><g class="xtick"><text text-anchor="middle" x="0" y="433" style="font-family: 'Open Sans', verdana, arial, sans-serif; font-size: 12px; fill: rgb(42, 63, 95); fill-opacity: 1; white-space: pre; opacity: 1;" transform="translate(503.58,0)">Jan 2023</text></g><g class="xtick"><text text-anchor="middle" x="0" y="433" style="font-family: 'Open Sans', verdana, arial, sans-serif; font-size: 12px; fill: rgb(42, 63, 95); fill-opacity: 1; white-space: pre; opacity: 1;" transform="translate(580.37,0)">Feb 2023</text></g></g><g class="yaxislayer-above"><g class="ytick"><text text-anchor="end" x="79" y="4.199999999999999" transform="translate(0,372.25)" style="font-family: 'Open Sans', verdana, arial, sans-serif; font-size: 12px; fill: rgb(42, 63, 95); fill-opacity: 1; white-space: pre; opacity: 1;">$−25M</text></g><g class="ytick"><text text-anchor="end" x="79" y="4.199999999999999" style="font-family: 'Open Sans', verdana, arial, sans-serif; font-size: 12px; fill: rgb(42, 63, 95); fill-opacity: 1; white-space: pre; opacity: 1;" transform="translate(0,321.1)">$−20M</text></g><g class="ytick"><text text-anchor="end" x="79" y="4.199999999999999" style="font-family: 'Open Sans', verdana, arial, sans-serif; font-size: 12px; fill: rgb(42, 63, 95); fill-opacity: 1; white-space: pre; opacity: 1;" transform="translate(0,269.94)">$−15M</text></g><g class="ytick"><text text-anchor="end" x="79" y="4.199999999999999" style="font-family: 'Open Sans', verdana, arial, sans-serif; font-size: 12px; fill: rgb(42, 63, 95); fill-opacity: 1; white-space: pre; opacity: 1;" transform="translate(0,218.79000000000002)">$−10M</text></g><g class="ytick"><text text-anchor="end" x="79" y="4.199999999999999" style="font-family: 'Open Sans', verdana, arial, sans-serif; font-size: 12px; fill: rgb(42, 63, 95); fill-opacity: 1; white-space: pre; opacity: 1;" transform="translate(0,167.63)">$−5M</text></g><g class="ytick"><text text-anchor="end" x="79" y="4.199999999999999" style="font-family: 'Open Sans', verdana, arial, sans-serif; font-size: 12px; fill: rgb(42, 63, 95); fill-opacity: 1; white-space: pre; opacity: 1;" transform="translate(0,116.48)">$0</text></g></g><g class="overaxes-above"/></g></g><g class="polarlayer"/><g class="smithlayer"/><g class="ternarylayer"/><g class="geolayer"/><g class="funnelarealayer"/><g class="pielayer"/><g class="iciclelayer"/><g class="treemaplayer"/><g class="sunburstlayer"/><g class="glimages"/><defs id="topdefs-162555"><g class="clips"/></defs><g class="layer-above"><g class="imagelayer"/><g class="shapelayer"/></g><g class="infolayer"><g class="g-gtitle"><text class="gtitle" x="35" y="50" text-anchor="start" dy="0em" style="font-family: 'Open Sans', verdana, arial, sans-serif; font-size: 17px; fill: rgb(42, 63, 95); opacity: 1; font-weight: normal; white-space: pre;"><tspan class="line" dy="0em" x="35" y="50">Perpetual Protocol</tspan><tspan class="line" dy="1.3em" x="35" y="50">​<tspan style="font-size:70%" dy="-0.6em">Cumulative Net Flows since Program Announcement, Until Program End + 30 Days - At Last Price</tspan><tspan dy="0.42em">​</tspan></tspan></text></g><g class="g-xtitle"><text class="xtitle" x="350" y="460.8" text-anchor="middle" style="font-family: 'Open Sans', verdana, arial, sans-serif; font-size: 14px; fill: rgb(42, 63, 95); opacity: 1; font-weight: normal; white-space: pre;">Day</text></g><g class="g-ytitle"><text class="ytitle" transform="rotate(-90,17.168750000000003,260)" x="17.168750000000003" y="260" text-anchor="middle" style="font-family: 'Open Sans', verdana, arial, sans-serif; font-size: 14px; fill: rgb(42, 63, 95); opacity: 1; font-weight: normal; white-space: pre;">Cumulative Net Flows (USD)</text></g></g></svg>