<svg class="main-svg" xmlns="http://www.w3.org/2000/svg" xmlns:xlink="http://www.w3.org/1999/xlink" width="700" height="500" style="" viewBox="0 0 700 500"><rect x="0" y="0" width="700" height="500" style="fill: rgb(255, 255, 255); fill-opacity: 1;"/><defs id="defs-5aa26d"><g class="clips"><clipPath id="clip5aa26dxyplot" class="plotclip"><rect width="540" height="320"/></clipPath><clipPath class="axesclip" id="clip5aa26dx"><rect x="80" y="0" width="540" height="500"/></clipPath><clipPath class="axesclip" id="clip5aa26dy"><rect x="0" y="100" width="700" height="320"/></clipPath><clipPath class="axesclip" id="clip5aa26dxy"><rect x="80" y="100" width="540" height="320"/></clipPath></g><g class="gradients"/><g class="patterns"/></defs><g class="bglayer"><rect class="bg" x="80" y="100" width="540" height="320" style="fill: rgb(229, 236, 246); fill-opacity: 1; stroke-width: 0;"/></g><g class="layer-below"><g class="imagelayer"/><g class="shapelayer"/></g><g class="cartesianlayer"><g class="subplot xy"><g class="layer-subplot"><g class="shapelayer"/><g class="imagelayer"/></g><g class="minor-gridlayer"><g class="x"/><g class="y"/></g><g class="gridlayer"><g class="x"><path class="xgrid crisp" transform="translate(140,0)" d="M0,100v320" style="stroke: rgb(255, 255, 255); stroke-opacity: 1; stroke-width: 1px;"/><path class="xgrid crisp" transform="translate(204.62,0)" d="M0,100v320" style="stroke: rgb(255, 255, 255); stroke-opacity: 1; stroke-width: 1px;"/><path class="xgrid crisp" transform="translate(269.23,0)" d="M0,100v320" style="stroke: rgb(255, 255, 255); stroke-opacity: 1; stroke-width: 1px;"/><path class="xgrid crisp" transform="translate(333.85,0)" d="M0,100v320" style="stroke: rgb(255, 255, 255); stroke-opacity: 1; stroke-width: 1px;"/><path class="xgrid crisp" transform="translate(398.46,0)" d="M0,100v320" style="stroke: rgb(255, 255, 255); stroke-opacity: 1; stroke-width: 1px;"/><path class="xgrid crisp" transform="translate(463.08,0)" d="M0,100v320" style="stroke: rgb(255, 255, 255); stroke-opacity: 1; stroke-width: 1px;"/><path class="xgrid crisp" transform="translate(527.69,0)" d="M0,100v320" style="stroke: rgb(255, 255, 255); stroke-opacity: 1; stroke-width: 1px;"/><path class="xgrid crisp" transform="translate(592.31,0)" d="M0,100v320" style="stroke: rgb(255, 255, 255); stroke-opacity: 1; stroke-width: 1px;"/></g><g class="y"><path class="ygrid crisp" transform="translate(0,315.43)" d="M80,0h540" style="stroke: rgb(255, 255, 255); stroke-opacity: 1; stroke-width: 1px;"/><path class="ygrid crisp" transform="translate(0,259.89)" d="M80,0h540" style="stroke: rgb(255, 255, 255); stroke-opacity: 1; stroke-width: 1px;"/><path class="ygrid crisp" transform="translate(0,204.36)" d="M80,0h540" style="stroke: rgb(255, 255, 255); stroke-opacity: 1; stroke-width: 1px;"/><path class="ygrid crisp" transform="translate(0,148.82)" d="M80,0h540" style="stroke: rgb(255, 255, 255); stroke-opacity: 1; stroke-width: 1px;"/></g></g><g class="zerolinelayer"><path class="yzl zl crisp" transform="translate(0,370.96)" d="M80,0h540" style="stroke: rgb(255, 255, 255); stroke-opacity: 1; stroke-width: 2px;"/></g><path class="xlines-below"/><path class="ylines-below"/><g class="overlines-below"/><g class="xaxislayer-below"/><g class="yaxislayer-below"/><g class="overaxes-below"/><g class="plot" transform="translate(80,100)" clip-path="url(#clip5aa26dxyplot)"><g class="scatterlayer mlayer"><g class="trace scatter trace0932cd" style="stroke-miterlimit: 2;"><g class="fills"><g><path class="js-fill" d="M540,270.96L0,270.96L0,270.82L13.85,268.71L18.46,267.59L23.08,264.99L27.69,263.82L32.31,263.21L36.92,236.32L41.54,208.87L46.15,190.6L50.77,166.37L55.38,161.88L60,158.58L64.62,152.12L69.23,131.66L73.85,125.25L83.08,124.06L87.69,97.79L92.31,100.93L96.92,85.66L101.54,87.69L106.15,66.05L110.77,55.69L115.38,51.4L120,29.29L124.62,25.95L129.23,23.54L133.85,38.64L138.46,49.85L143.08,47.4L147.69,46.24L152.31,42.3L161.54,40.3L166.15,28.28L170.77,34.15L175.38,28.29L180,24.08L184.62,25.75L189.23,25L193.85,26.83L203.08,23.38L207.69,27.18L212.31,29.42L216.92,27.41L221.54,23.89L226.15,24.51L230.77,27.17L235.38,27.16L244.62,28.26L249.23,28.64L253.85,28.33L258.46,28.83L263.08,36.94L267.69,36.78L272.31,37.23L276.92,29.87L286.15,26.97L290.77,26.56L295.38,23.98L300,19.1L304.62,17.66L309.23,21.34L318.46,21.95L323.08,20.32L332.31,16L336.92,28.1L341.54,40.61L346.15,38.65L350.77,35.35L355.38,43.13L360,52.48L364.62,51.17L369.23,52.73L373.85,56.78L378.46,58.61L383.08,57.47L392.31,55.95L396.92,53.7L401.54,60.39L406.15,59.34L410.77,59.37L415.38,58.41L420,56.64L424.62,63.35L429.23,63.99L433.85,63.25L438.46,63.42L443.08,60.86L452.31,61.63L456.92,58.94L461.54,63.3L466.15,64.17L470.77,60.04L475.38,62.33L480,70.08L484.62,70.16L489.23,65.82L493.85,65.76L498.46,63.81L503.08,59.74L507.69,66.5L512.31,63.71L516.92,64.56L521.54,64.01L526.15,63.15L530.77,64.29L535.38,62.08L540,92.53L540,304" style="fill: rgb(99, 110, 250); fill-opacity: 0.5; stroke-width: 0;"/></g></g><g class="errorbars"/><g class="lines"><path class="js-line" d="M0,270.82L13.85,268.71L18.46,267.59L23.08,264.99L27.69,263.82L32.31,263.21L36.92,236.32L41.54,208.87L46.15,190.6L50.77,166.37L55.38,161.88L60,158.58L64.62,152.12L69.23,131.66L73.85,125.25L83.08,124.06L87.69,97.79L92.31,100.93L96.92,85.66L101.54,87.69L106.15,66.05L110.77,55.69L115.38,51.4L120,29.29L124.62,25.95L129.23,23.54L133.85,38.64L138.46,49.85L143.08,47.4L147.69,46.24L152.31,42.3L161.54,40.3L166.15,28.28L170.77,34.15L175.38,28.29L180,24.08L184.62,25.75L189.23,25L193.85,26.83L203.08,23.38L207.69,27.18L212.31,29.42L216.92,27.41L221.54,23.89L226.15,24.51L230.77,27.17L235.38,27.16L244.62,28.26L249.23,28.64L253.85,28.33L258.46,28.83L263.08,36.94L267.69,36.78L272.31,37.23L276.92,29.87L286.15,26.97L290.77,26.56L295.38,23.98L300,19.1L304.62,17.66L309.23,21.34L318.46,21.95L323.08,20.32L332.31,16L336.92,28.1L341.54,40.61L346.15,38.65L350.77,35.35L355.38,43.13L360,52.48L364.62,51.17L369.23,52.73L373.85,56.78L378.46,58.61L383.08,57.47L392.31,55.95L396.92,53.7L401.54,60.39L406.15,59.34L410.77,59.37L415.38,58.41L420,56.64L424.62,63.35L429.23,63.99L433.85,63.25L438.46,63.42L443.08,60.86L452.31,61.63L456.92,58.94L461.54,63.3L466.15,64.17L470.77,60.04L475.38,62.33L480,70.08L484.62,70.16L489.23,65.82L493.85,65.76L498.46,63.81L503.08,59.74L507.69,66.5L512.31,63.71L516.92,64.56L521.54,64.01L526.15,63.15L530.77,64.29L535.38,62.08L540,92.53L540,304" style="vector-effect: non-scaling-stroke; fill: none; stroke: rgb(99, 110, 250); stroke-opacity: 1; stroke-width: 2px; opacity: 1;"/></g><g class="points"/><g class="text"/></g></g></g><g class="overplot"/><path class="xlines-above crisp" d="M0,0" style="fill: none;"/><path class="ylines-above crisp" d="M0,0" style="fill: none;"/><g class="overlines-above"/><g class="xaxislayer-above"><g class="xtick"><text text-anchor="middle" x="0" y="433" transform="translate(140,0)" style="font-family: 'Open Sans', verdana, arial, sans-serif; font-size: 12px; fill: rgb(42, 63, 95); fill-opacity: 1; white-space: pre; opacity: 1;"><tspan class="line" dy="0em" x="0" y="433">Sep 11</tspan><tspan class="line" dy="1.3em" x="0" y="433">2022</tspan></text></g><g class="xtick"><text text-anchor="middle" x="0" y="433" style="font-family: 'Open Sans', verdana, arial, sans-serif; font-size: 12px; fill: rgb(42, 63, 95); fill-opacity: 1; white-space: pre; opacity: 1;" transform="translate(204.62,0)">Sep 25</text></g><g class="xtick"><text text-anchor="middle" x="0" y="433" style="font-family: 'Open Sans', verdana, arial, sans-serif; font-size: 12px; fill: rgb(42, 63, 95); fill-opacity: 1; white-space: pre; opacity: 1;" transform="translate(269.23,0)">Oct 9</text></g><g class="xtick"><text text-anchor="middle" x="0" y="433" style="font-family: 'Open Sans', verdana, arial, sans-serif; font-size: 12px; fill: rgb(42, 63, 95); fill-opacity: 1; white-space: pre; opacity: 1;" transform="translate(333.85,0)">Oct 23</text></g><g class="xtick"><text text-anchor="middle" x="0" y="433" style="font-family: 'Open Sans', verdana, arial, sans-serif; font-size: 12px; fill: rgb(42, 63, 95); fill-opacity: 1; white-space: pre; opacity: 1;" transform="translate(398.46,0)">Nov 6</text></g><g class="xtick"><text text-anchor="middle" x="0" y="433" style="font-family: 'Open Sans', verdana, arial, sans-serif; font-size: 12px; fill: rgb(42, 63, 95); fill-opacity: 1; white-space: pre; opacity: 1;" transform="translate(463.08,0)">Nov 20</text></g><g class="xtick"><text text-anchor="middle" x="0" y="433" style="font-family: 'Open Sans', verdana, arial, sans-serif; font-size: 12px; fill: rgb(42, 63, 95); fill-opacity: 1; white-space: pre; opacity: 1;" transform="translate(527.69,0)">Dec 4</text></g><g class="xtick"><text text-anchor="middle" x="0" y="433" style="font-family: 'Open Sans', verdana, arial, sans-serif; font-size: 12px; fill: rgb(42, 63, 95); fill-opacity: 1; white-space: pre; opacity: 1;" transform="translate(592.31,0)">Dec 18</text></g></g><g class="yaxislayer-above"><g class="ytick"><text text-anchor="end" x="79" y="4.199999999999999" transform="translate(0,370.96)" style="font-family: 'Open Sans', verdana, arial, sans-serif; font-size: 12px; fill: rgb(42, 63, 95); fill-opacity: 1; white-space: pre; opacity: 1;">$0</text></g><g class="ytick"><text text-anchor="end" x="79" y="4.199999999999999" style="font-family: 'Open Sans', verdana, arial, sans-serif; font-size: 12px; fill: rgb(42, 63, 95); fill-opacity: 1; white-space: pre; opacity: 1;" transform="translate(0,315.43)">$2M</text></g><g class="ytick"><text text-anchor="end" x="79" y="4.199999999999999" style="font-family: 'Open Sans', verdana, arial, sans-serif; font-size: 12px; fill: rgb(42, 63, 95); fill-opacity: 1; white-space: pre; opacity: 1;" transform="translate(0,259.89)">$4M</text></g><g class="ytick"><text text-anchor="end" x="79" y="4.199999999999999" style="font-family: 'Open Sans', verdana, arial, sans-serif; font-size: 12px; fill: rgb(42, 63, 95); fill-opacity: 1; white-space: pre; opacity: 1;" transform="translate(0,204.36)">$6M</text></g><g class="ytick"><text text-anchor="end" x="79" y="4.199999999999999" style="font-family: 'Open Sans', verdana, arial, sans-serif; font-size: 12px; fill: rgb(42, 63, 95); fill-opacity: 1; white-space: pre; opacity: 1;" transform="translate(0,148.82)">$8M</text></g></g><g class="overaxes-above"/></g></g><g class="polarlayer"/><g class="smithlayer"/><g class="ternarylayer"/><g class="geolayer"/><g class="funnelarealayer"/><g class="pielayer"/><g class="iciclelayer"/><g class="treemaplayer"/><g class="sunburstlayer"/><g class="glimages"/><defs id="topdefs-5aa26d"><g class="clips"/></defs><g class="layer-above"><g class="imagelayer"/><g class="shapelayer"/></g><g class="infolayer"><g class="g-gtitle"><text class="gtitle" x="35" y="50" text-anchor="start" dy="0em" style="font-family: 'Open Sans', verdana, arial, sans-serif; font-size: 17px; fill: rgb(42, 63, 95); opacity: 1; font-weight: normal; white-space: pre;"><tspan class="line" dy="0em" x="35" y="50">Pika Protocol</tspan><tspan class="line" dy="1.3em" x="35" y="50">​<tspan style="font-size:70%" dy="-0.6em">Cumulative Net Dollar Flow since Program Announcement, Until Program End + 30 Days - At Last Price</tspan><tspan dy="0.42em">​</tspan></tspan></text></g><g class="g-xtitle"><text class="xtitle" x="350" y="476.409375" text-anchor="middle" style="font-family: 'Open Sans', verdana, arial, sans-serif; font-size: 14px; fill: rgb(42, 63, 95); opacity: 1; font-weight: normal; white-space: pre;">Day</text></g><g class="g-ytitle"><text class="ytitle" transform="rotate(-90,30.856250000000003,260)" x="30.856250000000003" y="260" text-anchor="middle" style="font-family: 'Open Sans', verdana, arial, sans-serif; font-size: 14px; fill: rgb(42, 63, 95); opacity: 1; font-weight: normal; white-space: pre;">Cumulative Net Dollar Flow (N$F)</text></g></g></svg>