<svg class="main-svg" xmlns="http://www.w3.org/2000/svg" xmlns:xlink="http://www.w3.org/1999/xlink" width="700" height="500" style="" viewBox="0 0 700 500"><rect x="0" y="0" width="700" height="500" style="fill: rgb(255, 255, 255); fill-opacity: 1;"/><defs id="defs-1c40c1"><g class="clips"><clipPath id="clip1c40c1xyplot" class="plotclip"><rect width="540" height="320"/></clipPath><clipPath class="axesclip" id="clip1c40c1x"><rect x="80" y="0" width="540" height="500"/></clipPath><clipPath class="axesclip" id="clip1c40c1y"><rect x="0" y="100" width="700" height="320"/></clipPath><clipPath class="axesclip" id="clip1c40c1xy"><rect x="80" y="100" width="540" height="320"/></clipPath></g><g class="gradients"/><g class="patterns"/></defs><g class="bglayer"><rect class="bg" x="80" y="100" width="540" height="320" style="fill: rgb(229, 236, 246); fill-opacity: 1; stroke-width: 0;"/></g><g class="layer-below"><g class="imagelayer"/><g class="shapelayer"/></g><g class="cartesianlayer"><g class="subplot xy"><g class="layer-subplot"><g class="shapelayer"/><g class="imagelayer"/></g><g class="minor-gridlayer"><g class="x"/><g class="y"/></g><g class="gridlayer"><g class="x"><path class="xgrid crisp" transform="translate(119.50999999999999,0)" d="M0,100v320" style="stroke: rgb(255, 255, 255); stroke-opacity: 1; stroke-width: 1px;"/><path class="xgrid crisp" transform="translate(221.59,0)" d="M0,100v320" style="stroke: rgb(255, 255, 255); stroke-opacity: 1; stroke-width: 1px;"/><path class="xgrid crisp" transform="translate(320.37,0)" d="M0,100v320" style="stroke: rgb(255, 255, 255); stroke-opacity: 1; stroke-width: 1px;"/><path class="xgrid crisp" transform="translate(422.44,0)" d="M0,100v320" style="stroke: rgb(255, 255, 255); stroke-opacity: 1; stroke-width: 1px;"/><path class="xgrid crisp" transform="translate(524.51,0)" d="M0,100v320" style="stroke: rgb(255, 255, 255); stroke-opacity: 1; stroke-width: 1px;"/><path class="xgrid crisp" transform="translate(616.71,0)" d="M0,100v320" style="stroke: rgb(255, 255, 255); stroke-opacity: 1; stroke-width: 1px;"/></g><g class="y"><path class="ygrid crisp" transform="translate(0,354.74)" d="M80,0h540" style="stroke: rgb(255, 255, 255); stroke-opacity: 1; stroke-width: 1px;"/><path class="ygrid crisp" transform="translate(0,289.47)" d="M80,0h540" style="stroke: rgb(255, 255, 255); stroke-opacity: 1; stroke-width: 1px;"/><path class="ygrid crisp" transform="translate(0,224.20999999999998)" d="M80,0h540" style="stroke: rgb(255, 255, 255); stroke-opacity: 1; stroke-width: 1px;"/><path class="ygrid crisp" transform="translate(0,158.95)" d="M80,0h540" style="stroke: rgb(255, 255, 255); stroke-opacity: 1; stroke-width: 1px;"/></g></g><g class="zerolinelayer"><path class="yzl zl crisp" transform="translate(0,420)" d="M80,0h540" style="stroke: rgb(255, 255, 255); stroke-opacity: 1; stroke-width: 2px;"/></g><path class="xlines-below"/><path class="ylines-below"/><g class="overlines-below"/><g class="xaxislayer-below"/><g class="yaxislayer-below"/><g class="overaxes-below"/><g class="plot" transform="translate(80,100)" clip-path="url(#clip1c40c1xyplot)"><g class="scatterlayer mlayer"><g class="trace scatter trace710bbd" style="stroke-miterlimit: 2;"><g class="fills"><g><path class="js-fill" d="M540,320L0,320L0,320L3.29,318.12L6.59,312.68L9.88,296.03L13.17,288.3L16.46,287.23L19.76,281.93L23.05,278.03L26.34,277.88L29.63,275.73L32.93,272.28L36.22,276.63L39.51,276.27L42.8,278.09L46.1,276.67L49.39,275.86L52.68,275.88L65.85,276.21L69.15,275.12L72.44,274.63L75.73,273.06L82.32,272.22L85.61,273.18L88.9,270.39L92.2,270.36L98.78,270.19L102.07,268.11L105.37,268.1L108.66,272.58L118.54,272.79L121.83,271.98L125.12,225.63L128.41,158.26L131.71,132.87L135,130.14L138.29,124.13L141.59,122.66L144.88,128.82L148.17,131.9L151.46,125.26L154.76,128.21L158.05,125.3L161.34,126.78L164.63,119.15L167.93,137.38L171.22,153.1L174.51,162.43L177.8,180.82L181.1,186.64L184.39,188.83L187.68,188.95L194.27,188.39L197.56,198.4L204.15,198.1L207.44,204.26L210.73,203.15L214.02,204.94L220.61,205.55L223.9,207.05L240.37,206.68L243.66,205.95L246.95,202.65L250.24,200.65L253.54,200.54L256.83,198.4L266.71,198.02L270,194.96L273.29,193.85L276.59,193.84L279.88,193.82L283.17,200.73L296.34,200.36L299.63,201.88L306.22,201.82L309.51,199.74L316.1,199.32L319.39,198.09L322.68,197.98L325.98,198.71L332.56,198.35L335.85,196.23L339.15,197.61L342.44,197.55L349.02,197.46L352.32,196.24L355.61,196.08L358.9,193.65L365.49,193.62L368.78,213.31L372.07,215.32L375.37,215.42L378.66,212.93L381.95,213.3L388.54,221.05L391.83,215.01L395.12,215.03L398.41,212.81L401.71,210.09L405,91.77L408.29,90.07L411.59,75.53L414.88,48.24L418.17,39.44L421.46,30.05L424.76,35.1L428.05,40.04L431.34,33.61L434.63,18.37L437.93,16L441.22,17.82L444.51,27.92L447.8,24.25L451.1,32.72L454.39,34L457.68,36.77L460.98,32.75L464.27,22.29L470.85,33.38L474.15,113.9L477.44,223.66L480.73,235.57L484.02,239.9L487.32,238.62L490.61,243.18L493.9,244.28L497.2,243.64L500.49,235.77L510.37,235.36L513.66,235.1L516.95,238.54L520.24,237.77L526.83,237.44L530.12,238.45L533.41,230.95L536.71,216.66L540,210.6" style="fill: rgb(99, 110, 250); fill-opacity: 0.5; stroke-width: 0;"/></g></g><g class="errorbars"/><g class="lines"><path class="js-line" d="M0,320L3.29,318.12L6.59,312.68L9.88,296.03L13.17,288.3L16.46,287.23L19.76,281.93L23.05,278.03L26.34,277.88L29.63,275.73L32.93,272.28L36.22,276.63L39.51,276.27L42.8,278.09L46.1,276.67L49.39,275.86L52.68,275.88L65.85,276.21L69.15,275.12L72.44,274.63L75.73,273.06L82.32,272.22L85.61,273.18L88.9,270.39L92.2,270.36L98.78,270.19L102.07,268.11L105.37,268.1L108.66,272.58L118.54,272.79L121.83,271.98L125.12,225.63L128.41,158.26L131.71,132.87L135,130.14L138.29,124.13L141.59,122.66L144.88,128.82L148.17,131.9L151.46,125.26L154.76,128.21L158.05,125.3L161.34,126.78L164.63,119.15L167.93,137.38L171.22,153.1L174.51,162.43L177.8,180.82L181.1,186.64L184.39,188.83L187.68,188.95L194.27,188.39L197.56,198.4L204.15,198.1L207.44,204.26L210.73,203.15L214.02,204.94L220.61,205.55L223.9,207.05L240.37,206.68L243.66,205.95L246.95,202.65L250.24,200.65L253.54,200.54L256.83,198.4L266.71,198.02L270,194.96L273.29,193.85L276.59,193.84L279.88,193.82L283.17,200.73L296.34,200.36L299.63,201.88L306.22,201.82L309.51,199.74L316.1,199.32L319.39,198.09L322.68,197.98L325.98,198.71L332.56,198.35L335.85,196.23L339.15,197.61L342.44,197.55L349.02,197.46L352.32,196.24L355.61,196.08L358.9,193.65L365.49,193.62L368.78,213.31L372.07,215.32L375.37,215.42L378.66,212.93L381.95,213.3L388.54,221.05L391.83,215.01L395.12,215.03L398.41,212.81L401.71,210.09L405,91.77L408.29,90.07L411.59,75.53L414.88,48.24L418.17,39.44L421.46,30.05L424.76,35.1L428.05,40.04L431.34,33.61L434.63,18.37L437.93,16L441.22,17.82L444.51,27.92L447.8,24.25L451.1,32.72L454.39,34L457.68,36.77L460.98,32.75L464.27,22.29L470.85,33.38L474.15,113.9L477.44,223.66L480.73,235.57L484.02,239.9L487.32,238.62L490.61,243.18L493.9,244.28L497.2,243.64L500.49,235.77L510.37,235.36L513.66,235.1L516.95,238.54L520.24,237.77L526.83,237.44L530.12,238.45L533.41,230.95L536.71,216.66L540,210.6" style="vector-effect: non-scaling-stroke; fill: none; stroke: rgb(99, 110, 250); stroke-opacity: 1; stroke-width: 2px; opacity: 1;"/></g><g class="points"/><g class="text"/></g></g></g><g class="overplot"/><path class="xlines-above crisp" d="M0,0" style="fill: none;"/><path class="ylines-above crisp" d="M0,0" style="fill: none;"/><g class="overlines-above"/><g class="xaxislayer-above"><g class="xtick"><text text-anchor="middle" x="0" y="433" transform="translate(119.50999999999999,0)" style="font-family: 'Open Sans', verdana, arial, sans-serif; font-size: 12px; fill: rgb(42, 63, 95); fill-opacity: 1; white-space: pre; opacity: 1;">Oct 2022</text></g><g class="xtick"><text text-anchor="middle" x="0" y="433" style="font-family: 'Open Sans', verdana, arial, sans-serif; font-size: 12px; fill: rgb(42, 63, 95); fill-opacity: 1; white-space: pre; opacity: 1;" transform="translate(221.59,0)">Nov 2022</text></g><g class="xtick"><text text-anchor="middle" x="0" y="433" style="font-family: 'Open Sans', verdana, arial, sans-serif; font-size: 12px; fill: rgb(42, 63, 95); fill-opacity: 1; white-space: pre; opacity: 1;" transform="translate(320.37,0)">Dec 2022</text></g><g class="xtick"><text text-anchor="middle" x="0" y="433" style="font-family: 'Open Sans', verdana, arial, sans-serif; font-size: 12px; fill: rgb(42, 63, 95); fill-opacity: 1; white-space: pre; opacity: 1;" transform="translate(422.44,0)">Jan 2023</text></g><g class="xtick"><text text-anchor="middle" x="0" y="433" style="font-family: 'Open Sans', verdana, arial, sans-serif; font-size: 12px; fill: rgb(42, 63, 95); fill-opacity: 1; white-space: pre; opacity: 1;" transform="translate(524.51,0)">Feb 2023</text></g><g class="xtick"><text text-anchor="middle" x="0" y="433" style="font-family: 'Open Sans', verdana, arial, sans-serif; font-size: 12px; fill: rgb(42, 63, 95); fill-opacity: 1; white-space: pre; opacity: 1;" transform="translate(616.71,0)">Mar 2023</text></g></g><g class="yaxislayer-above"><g class="ytick"><text text-anchor="end" x="79" y="4.199999999999999" transform="translate(0,420)" style="font-family: 'Open Sans', verdana, arial, sans-serif; font-size: 12px; fill: rgb(42, 63, 95); fill-opacity: 1; white-space: pre; opacity: 1;">$0</text></g><g class="ytick"><text text-anchor="end" x="79" y="4.199999999999999" style="font-family: 'Open Sans', verdana, arial, sans-serif; font-size: 12px; fill: rgb(42, 63, 95); fill-opacity: 1; white-space: pre; opacity: 1;" transform="translate(0,354.74)">$1M</text></g><g class="ytick"><text text-anchor="end" x="79" y="4.199999999999999" style="font-family: 'Open Sans', verdana, arial, sans-serif; font-size: 12px; fill: rgb(42, 63, 95); fill-opacity: 1; white-space: pre; opacity: 1;" transform="translate(0,289.47)">$2M</text></g><g class="ytick"><text text-anchor="end" x="79" y="4.199999999999999" style="font-family: 'Open Sans', verdana, arial, sans-serif; font-size: 12px; fill: rgb(42, 63, 95); fill-opacity: 1; white-space: pre; opacity: 1;" transform="translate(0,224.20999999999998)">$3M</text></g><g class="ytick"><text text-anchor="end" x="79" y="4.199999999999999" style="font-family: 'Open Sans', verdana, arial, sans-serif; font-size: 12px; fill: rgb(42, 63, 95); fill-opacity: 1; white-space: pre; opacity: 1;" transform="translate(0,158.95)">$4M</text></g></g><g class="overaxes-above"/></g></g><g class="polarlayer"/><g class="smithlayer"/><g class="ternarylayer"/><g class="geolayer"/><g class="funnelarealayer"/><g class="pielayer"/><g class="iciclelayer"/><g class="treemaplayer"/><g class="sunburstlayer"/><g class="glimages"/><defs id="topdefs-1c40c1"><g class="clips"/></defs><g class="layer-above"><g class="imagelayer"/><g class="shapelayer"/></g><g class="infolayer"><g class="g-gtitle"><text class="gtitle" x="35" y="50" text-anchor="start" dy="0em" style="font-family: 'Open Sans', verdana, arial, sans-serif; font-size: 17px; fill: rgb(42, 63, 95); opacity: 1; font-weight: normal; white-space: pre;"><tspan class="line" dy="0em" x="35" y="50">Xtoken</tspan><tspan class="line" dy="1.3em" x="35" y="50">​<tspan style="font-size:70%" dy="-0.6em">Cumulative Net Flows since Program Announcement, Until Program End + 30 Days - At Last Price</tspan><tspan dy="0.42em">​</tspan></tspan></text></g><g class="g-xtitle"><text class="xtitle" x="350" y="460.8" text-anchor="middle" style="font-family: 'Open Sans', verdana, arial, sans-serif; font-size: 14px; fill: rgb(42, 63, 95); opacity: 1; font-weight: normal; white-space: pre;">Day</text></g><g class="g-ytitle"><text class="ytitle" transform="rotate(-90,30.856250000000003,260)" x="30.856250000000003" y="260" text-anchor="middle" style="font-family: 'Open Sans', verdana, arial, sans-serif; font-size: 14px; fill: rgb(42, 63, 95); opacity: 1; font-weight: normal; white-space: pre;">Cumulative Net Flows (USD)</text></g></g></svg>