<svg class="main-svg" xmlns="http://www.w3.org/2000/svg" xmlns:xlink="http://www.w3.org/1999/xlink" width="700" height="500" style="" viewBox="0 0 700 500"><rect x="0" y="0" width="700" height="500" style="fill: rgb(255, 255, 255); fill-opacity: 1;"/><defs id="defs-40dfcf"><g class="clips"><clipPath id="clip40dfcfxyplot" class="plotclip"><rect width="540" height="320"/></clipPath><clipPath class="axesclip" id="clip40dfcfx"><rect x="80" y="0" width="540" height="500"/></clipPath><clipPath class="axesclip" id="clip40dfcfy"><rect x="0" y="100" width="700" height="320"/></clipPath><clipPath class="axesclip" id="clip40dfcfxy"><rect x="80" y="100" width="540" height="320"/></clipPath></g><g class="gradients"/><g class="patterns"/></defs><g class="bglayer"><rect class="bg" x="80" y="100" width="540" height="320" style="fill: rgb(229, 236, 246); fill-opacity: 1; stroke-width: 0;"/></g><g class="layer-below"><g class="imagelayer"/><g class="shapelayer"/></g><g class="cartesianlayer"><g class="subplot xy"><g class="layer-subplot"><g class="shapelayer"/><g class="imagelayer"/></g><g class="minor-gridlayer"><g class="x"/><g class="y"/></g><g class="gridlayer"><g class="x"><path class="xgrid crisp" transform="translate(109.76,0)" d="M0,100v320" style="stroke: rgb(255, 255, 255); stroke-opacity: 1; stroke-width: 1px;"/><path class="xgrid crisp" transform="translate(237.32,0)" d="M0,100v320" style="stroke: rgb(255, 255, 255); stroke-opacity: 1; stroke-width: 1px;"/><path class="xgrid crisp" transform="translate(369.13,0)" d="M0,100v320" style="stroke: rgb(255, 255, 255); stroke-opacity: 1; stroke-width: 1px;"/><path class="xgrid crisp" transform="translate(500.94,0)" d="M0,100v320" style="stroke: rgb(255, 255, 255); stroke-opacity: 1; stroke-width: 1px;"/></g><g class="y"><path class="ygrid crisp" transform="translate(0,418.25)" d="M80,0h540" style="stroke: rgb(255, 255, 255); stroke-opacity: 1; stroke-width: 1px;"/><path class="ygrid crisp" transform="translate(0,258.40999999999997)" d="M80,0h540" style="stroke: rgb(255, 255, 255); stroke-opacity: 1; stroke-width: 1px;"/><path class="ygrid crisp" transform="translate(0,178.5)" d="M80,0h540" style="stroke: rgb(255, 255, 255); stroke-opacity: 1; stroke-width: 1px;"/></g></g><g class="zerolinelayer"><path class="yzl zl crisp" transform="translate(0,338.33000000000004)" d="M80,0h540" style="stroke: rgb(255, 255, 255); stroke-opacity: 1; stroke-width: 2px;"/></g><path class="xlines-below"/><path class="ylines-below"/><g class="overlines-below"/><g class="xaxislayer-below"/><g class="yaxislayer-below"/><g class="overaxes-below"/><g class="plot" transform="translate(80,100)" clip-path="url(#clip40dfcfxyplot)"><g class="scatterlayer mlayer"><g class="trace scatter trace54bffd" style="stroke-miterlimit: 2;"><g class="fills"><g><path class="js-fill" d="M540,238.33L0,238.33L0,238.33L4.25,238.33L8.5,186.5L12.76,111.53L17.01,122.49L21.26,125.58L25.51,110.7L29.76,114.03L34.02,102.42L38.27,98.17L42.52,125.29L46.77,124.55L51.02,122.71L55.28,122.43L59.53,125.45L63.78,145.99L68.03,159.31L72.28,158.89L76.54,150.69L80.79,149.44L85.04,114.4L89.29,114.87L93.54,112.77L97.8,119.5L102.05,128.79L106.3,134.4L110.55,130.9L114.8,128.92L119.06,129.9L123.31,129.78L127.56,128.27L131.81,127.96L136.06,123.44L140.31,113.36L144.57,96.31L148.82,106.41L153.07,109.66L157.32,135.72L161.57,120.07L170.08,100.41L174.33,123.19L178.58,124.35L182.83,146.31L187.09,130.67L191.34,130.21L195.59,131.09L199.84,141.29L204.09,140.28L208.35,140.5L216.85,140.4L221.1,134.32L225.35,124.76L229.61,124.14L233.86,124.14L238.11,125.15L242.36,122.29L246.61,122.55L250.87,122.63L255.12,120.62L259.37,121.07L263.62,120.24L267.87,116.53L272.13,116.19L276.38,120.57L280.63,119.03L284.88,121.79L289.13,121.55L293.39,120.59L297.64,117.64L301.89,113.83L306.14,115.48L318.9,115.19L323.15,113.13L327.4,114.7L331.65,117.95L335.91,110.33L340.16,104.76L344.41,103.6L348.66,101.06L352.91,92.85L357.17,129.53L361.42,123.72L365.67,128.32L369.92,152.99L374.17,157.76L378.43,154.12L382.68,149.27L391.18,144.39L395.43,130.31L399.69,133.21L403.94,132.21L408.19,130.22L412.44,106.77L416.69,119.2L420.94,113.44L425.2,98.32L429.45,108.94L433.7,108.43L437.95,102.68L442.2,103L446.46,81.52L450.71,103.4L454.96,105.68L459.21,104.75L463.46,95.69L467.72,94.39L471.97,95.27L476.22,66.6L480.47,69.69L488.98,79.4L493.23,70.34L497.48,77.23L501.73,76.79L505.98,80.63L510.24,69.89L514.49,60.53L518.74,33.03L522.99,24.61L527.24,31.97L531.5,31.61L535.75,16.78L540,16L540,304" style="fill: rgb(99, 110, 250); fill-opacity: 0.5; stroke-width: 0;"/></g></g><g class="errorbars"/><g class="lines"><path class="js-line" d="M0,238.33L4.25,238.33L8.5,186.5L12.76,111.53L17.01,122.49L21.26,125.58L25.51,110.7L29.76,114.03L34.02,102.42L38.27,98.17L42.52,125.29L46.77,124.55L51.02,122.71L55.28,122.43L59.53,125.45L63.78,145.99L68.03,159.31L72.28,158.89L76.54,150.69L80.79,149.44L85.04,114.4L89.29,114.87L93.54,112.77L97.8,119.5L102.05,128.79L106.3,134.4L110.55,130.9L114.8,128.92L119.06,129.9L123.31,129.78L127.56,128.27L131.81,127.96L136.06,123.44L140.31,113.36L144.57,96.31L148.82,106.41L153.07,109.66L157.32,135.72L161.57,120.07L170.08,100.41L174.33,123.19L178.58,124.35L182.83,146.31L187.09,130.67L191.34,130.21L195.59,131.09L199.84,141.29L204.09,140.28L208.35,140.5L216.85,140.4L221.1,134.32L225.35,124.76L229.61,124.14L233.86,124.14L238.11,125.15L242.36,122.29L246.61,122.55L250.87,122.63L255.12,120.62L259.37,121.07L263.62,120.24L267.87,116.53L272.13,116.19L276.38,120.57L280.63,119.03L284.88,121.79L289.13,121.55L293.39,120.59L297.64,117.64L301.89,113.83L306.14,115.48L318.9,115.19L323.15,113.13L327.4,114.7L331.65,117.95L335.91,110.33L340.16,104.76L344.41,103.6L348.66,101.06L352.91,92.85L357.17,129.53L361.42,123.72L365.67,128.32L369.92,152.99L374.17,157.76L378.43,154.12L382.68,149.27L391.18,144.39L395.43,130.31L399.69,133.21L403.94,132.21L408.19,130.22L412.44,106.77L416.69,119.2L420.94,113.44L425.2,98.32L429.45,108.94L433.7,108.43L437.95,102.68L442.2,103L446.46,81.52L450.71,103.4L454.96,105.68L459.21,104.75L463.46,95.69L467.72,94.39L471.97,95.27L476.22,66.6L480.47,69.69L488.98,79.4L493.23,70.34L497.48,77.23L501.73,76.79L505.98,80.63L510.24,69.89L514.49,60.53L518.74,33.03L522.99,24.61L527.24,31.97L531.5,31.61L535.75,16.78L540,16L540,304" style="vector-effect: non-scaling-stroke; fill: none; stroke: rgb(99, 110, 250); stroke-opacity: 1; stroke-width: 2px; opacity: 1;"/></g><g class="points"/><g class="text"/></g></g></g><g class="overplot"/><path class="xlines-above crisp" d="M0,0" style="fill: none;"/><path class="ylines-above crisp" d="M0,0" style="fill: none;"/><g class="overlines-above"/><g class="xaxislayer-above"><g class="xtick"><text text-anchor="middle" x="0" y="433" transform="translate(109.76,0)" style="font-family: 'Open Sans', verdana, arial, sans-serif; font-size: 12px; fill: rgb(42, 63, 95); fill-opacity: 1; white-space: pre; opacity: 1;">Nov 2022</text></g><g class="xtick"><text text-anchor="middle" x="0" y="433" style="font-family: 'Open Sans', verdana, arial, sans-serif; font-size: 12px; fill: rgb(42, 63, 95); fill-opacity: 1; white-space: pre; opacity: 1;" transform="translate(237.32,0)">Dec 2022</text></g><g class="xtick"><text text-anchor="middle" x="0" y="433" style="font-family: 'Open Sans', verdana, arial, sans-serif; font-size: 12px; fill: rgb(42, 63, 95); fill-opacity: 1; white-space: pre; opacity: 1;" transform="translate(369.13,0)">Jan 2023</text></g><g class="xtick"><text text-anchor="middle" x="0" y="433" style="font-family: 'Open Sans', verdana, arial, sans-serif; font-size: 12px; fill: rgb(42, 63, 95); fill-opacity: 1; white-space: pre; opacity: 1;" transform="translate(500.94,0)">Feb 2023</text></g><g class="xtick"><text text-anchor="middle" x="0" y="433" style="font-family: 'Open Sans', verdana, arial, sans-serif; font-size: 12px; fill: rgb(42, 63, 95); fill-opacity: 1; white-space: pre; opacity: 1;" transform="translate(620,0)">Mar 2023</text></g></g><g class="yaxislayer-above"><g class="ytick"><text text-anchor="end" x="79" y="4.199999999999999" transform="translate(0,418.25)" style="font-family: 'Open Sans', verdana, arial, sans-serif; font-size: 12px; fill: rgb(42, 63, 95); fill-opacity: 1; white-space: pre; opacity: 1;">$−0.5M</text></g><g class="ytick"><text text-anchor="end" x="79" y="4.199999999999999" style="font-family: 'Open Sans', verdana, arial, sans-serif; font-size: 12px; fill: rgb(42, 63, 95); fill-opacity: 1; white-space: pre; opacity: 1;" transform="translate(0,338.33000000000004)">$0</text></g><g class="ytick"><text text-anchor="end" x="79" y="4.199999999999999" style="font-family: 'Open Sans', verdana, arial, sans-serif; font-size: 12px; fill: rgb(42, 63, 95); fill-opacity: 1; white-space: pre; opacity: 1;" transform="translate(0,258.40999999999997)">$0.5M</text></g><g class="ytick"><text text-anchor="end" x="79" y="4.199999999999999" style="font-family: 'Open Sans', verdana, arial, sans-serif; font-size: 12px; fill: rgb(42, 63, 95); fill-opacity: 1; white-space: pre; opacity: 1;" transform="translate(0,178.5)">$1M</text></g></g><g class="overaxes-above"/></g></g><g class="polarlayer"/><g class="smithlayer"/><g class="ternarylayer"/><g class="geolayer"/><g class="funnelarealayer"/><g class="pielayer"/><g class="iciclelayer"/><g class="treemaplayer"/><g class="sunburstlayer"/><g class="glimages"/><defs id="topdefs-40dfcf"><g class="clips"/></defs><g class="layer-above"><g class="imagelayer"/><g class="shapelayer"/></g><g class="infolayer"><g class="g-gtitle"><text class="gtitle" x="35" y="50" text-anchor="start" dy="0em" style="font-family: 'Open Sans', verdana, arial, sans-serif; font-size: 17px; fill: rgb(42, 63, 95); opacity: 1; font-weight: normal; white-space: pre;"><tspan class="line" dy="0em" x="35" y="50">Synthetix - SNX Bridge: Hop</tspan><tspan class="line" dy="1.3em" x="35" y="50">​<tspan style="font-size:70%" dy="-0.6em">Cumulative Net Flows since Program Announcement, Until Program End + 30 Days - At Last Price</tspan><tspan dy="0.42em">​</tspan></tspan></text></g><g class="g-xtitle"><text class="xtitle" x="350" y="460.8" text-anchor="middle" style="font-family: 'Open Sans', verdana, arial, sans-serif; font-size: 14px; fill: rgb(42, 63, 95); opacity: 1; font-weight: normal; white-space: pre;">Day</text></g><g class="g-ytitle"><text class="ytitle" transform="rotate(-90,13.840625000000003,260)" x="13.840625000000003" y="260" text-anchor="middle" style="font-family: 'Open Sans', verdana, arial, sans-serif; font-size: 14px; fill: rgb(42, 63, 95); opacity: 1; font-weight: normal; white-space: pre;">Cumulative Net Flows (USD)</text></g></g></svg>