<svg class="main-svg" xmlns="http://www.w3.org/2000/svg" xmlns:xlink="http://www.w3.org/1999/xlink" width="700" height="500" style="" viewBox="0 0 700 500"><rect x="0" y="0" width="700" height="500" style="fill: rgb(255, 255, 255); fill-opacity: 1;"/><defs id="defs-63d150"><g class="clips"><clipPath id="clip63d150xyplot" class="plotclip"><rect width="540" height="320"/></clipPath><clipPath class="axesclip" id="clip63d150x"><rect x="80" y="0" width="540" height="500"/></clipPath><clipPath class="axesclip" id="clip63d150y"><rect x="0" y="100" width="700" height="320"/></clipPath><clipPath class="axesclip" id="clip63d150xy"><rect x="80" y="100" width="540" height="320"/></clipPath></g><g class="gradients"/><g class="patterns"/></defs><g class="bglayer"><rect class="bg" x="80" y="100" width="540" height="320" style="fill: rgb(229, 236, 246); fill-opacity: 1; stroke-width: 0;"/></g><g class="layer-below"><g class="imagelayer"/><g class="shapelayer"/></g><g class="cartesianlayer"><g class="subplot xy"><g class="layer-subplot"><g class="shapelayer"/><g class="imagelayer"/></g><g class="minor-gridlayer"><g class="x"/><g class="y"/></g><g class="gridlayer"><g class="x"><path class="xgrid crisp" transform="translate(97.34,0)" d="M0,100v320" style="stroke: rgb(255, 255, 255); stroke-opacity: 1; stroke-width: 1px;"/><path class="xgrid crisp" transform="translate(171.65,0)" d="M0,100v320" style="stroke: rgb(255, 255, 255); stroke-opacity: 1; stroke-width: 1px;"/><path class="xgrid crisp" transform="translate(248.44,0)" d="M0,100v320" style="stroke: rgb(255, 255, 255); stroke-opacity: 1; stroke-width: 1px;"/><path class="xgrid crisp" transform="translate(322.75,0)" d="M0,100v320" style="stroke: rgb(255, 255, 255); stroke-opacity: 1; stroke-width: 1px;"/><path class="xgrid crisp" transform="translate(399.54,0)" d="M0,100v320" style="stroke: rgb(255, 255, 255); stroke-opacity: 1; stroke-width: 1px;"/><path class="xgrid crisp" transform="translate(476.33,0)" d="M0,100v320" style="stroke: rgb(255, 255, 255); stroke-opacity: 1; stroke-width: 1px;"/><path class="xgrid crisp" transform="translate(545.69,0)" d="M0,100v320" style="stroke: rgb(255, 255, 255); stroke-opacity: 1; stroke-width: 1px;"/></g><g class="y"><path class="ygrid crisp" transform="translate(0,377.9)" d="M80,0h540" style="stroke: rgb(255, 255, 255); stroke-opacity: 1; stroke-width: 1px;"/><path class="ygrid crisp" transform="translate(0,335.8)" d="M80,0h540" style="stroke: rgb(255, 255, 255); stroke-opacity: 1; stroke-width: 1px;"/><path class="ygrid crisp" transform="translate(0,293.7)" d="M80,0h540" style="stroke: rgb(255, 255, 255); stroke-opacity: 1; stroke-width: 1px;"/><path class="ygrid crisp" transform="translate(0,251.6)" d="M80,0h540" style="stroke: rgb(255, 255, 255); stroke-opacity: 1; stroke-width: 1px;"/><path class="ygrid crisp" transform="translate(0,209.5)" d="M80,0h540" style="stroke: rgb(255, 255, 255); stroke-opacity: 1; stroke-width: 1px;"/><path class="ygrid crisp" transform="translate(0,167.4)" d="M80,0h540" style="stroke: rgb(255, 255, 255); stroke-opacity: 1; stroke-width: 1px;"/><path class="ygrid crisp" transform="translate(0,125.3)" d="M80,0h540" style="stroke: rgb(255, 255, 255); stroke-opacity: 1; stroke-width: 1px;"/></g></g><g class="zerolinelayer"><path class="yzl zl crisp" transform="translate(0,420)" d="M80,0h540" style="stroke: rgb(255, 255, 255); stroke-opacity: 1; stroke-width: 2px;"/></g><path class="xlines-below"/><path class="ylines-below"/><g class="overlines-below"/><g class="xaxislayer-below"/><g class="yaxislayer-below"/><g class="overaxes-below"/><g class="plot" transform="translate(80,100)" clip-path="url(#clip63d150xyplot)"><g class="scatterlayer mlayer"><g class="trace scatter trace5672f6" style="stroke-miterlimit: 2;"><g class="fills"><g><path class="js-fill" d="M540,320L0,320L0,230.06L2.48,212.33L4.95,207.62L7.43,204.88L9.91,203.47L12.39,200.39L14.86,188.19L17.34,185.6L19.82,188.42L24.77,180.8L27.25,179.91L29.72,180.18L32.2,177.11L37.16,160.59L39.63,155.14L44.59,149.93L47.06,150.78L49.54,153.17L52.02,157.06L54.5,152.83L56.97,145.7L61.93,150.11L64.4,153.1L69.36,154.99L71.83,158.88L74.31,159.95L76.79,160.12L79.27,159.79L81.74,161.64L84.22,149.06L86.7,151.79L89.17,163.68L91.65,163.62L96.61,164.57L99.08,165.6L104.04,172.11L106.51,169.19L108.99,173.56L111.47,175L116.42,178.27L118.9,177.39L123.85,178.36L126.33,169.95L131.28,169.77L133.76,170.99L136.24,171.8L138.72,171.45L146.15,171L148.62,170.71L151.1,168.92L153.58,168.76L156.06,168.63L158.53,176.02L161.01,175.02L163.49,169.79L165.96,170.21L168.44,165.79L173.39,160.86L175.87,143.37L178.35,141.89L180.83,142.3L185.78,141.43L188.26,162.23L190.73,168.9L193.21,172.4L195.69,168.81L198.17,173.07L200.64,168.77L203.12,168.54L205.6,168.17L208.07,172.06L210.55,175.63L213.03,174.78L215.5,174.87L217.98,177.41L220.46,179.64L222.94,178.98L225.41,174.68L227.89,175.14L235.32,174.91L237.8,175.25L240.28,174.11L242.75,176.5L245.23,175.46L247.71,172.85L250.18,171.3L252.66,171L255.14,168.61L257.61,162.84L260.09,157.63L262.57,158.58L265.05,157.46L267.52,157.95L270,157.24L272.48,151.35L274.95,151.55L277.43,140.92L279.91,150.58L282.39,152.97L287.34,153.51L289.82,154.96L292.29,159.66L294.77,158.82L297.25,159.34L299.72,158.83L304.68,159L307.16,158.71L309.63,162.51L312.11,162.65L314.59,161.18L317.06,155.17L319.54,161.22L322.02,163.04L324.5,162.96L326.97,164.95L329.45,164.93L331.93,162.78L334.4,159.28L336.88,159.39L339.36,155.22L341.83,149.1L344.31,139.57L346.79,138.14L349.27,140.74L351.74,138.09L354.22,131.58L356.7,131.57L361.65,129.77L364.13,130.38L366.61,127.59L369.08,122.06L371.56,119.08L374.04,117.94L376.51,116.08L378.99,105.65L381.47,83.44L383.94,71.76L386.42,72.55L388.9,56.45L391.38,55.66L393.85,44.43L396.33,43.28L398.81,37.87L401.28,16L403.76,18.98L406.24,23L408.72,22.65L411.19,23.54L413.67,26.84L416.15,50.45L418.62,49.16L421.1,48.95L423.58,37.93L426.06,39.05L428.53,37.77L431.01,38.36L433.49,36.06L435.96,36.96L438.44,41.92L440.92,41.68L443.39,42.67L445.87,54.5L448.35,55.16L450.83,55.58L453.3,55.15L455.78,53.92L458.26,51.64L463.21,51.6L465.69,44.78L468.17,44.52L470.64,46.18L473.12,32.98L475.6,32.39L478.07,30.84L480.55,31.26L483.03,30.57L485.5,32.26L487.98,35.39L490.46,40.8L492.94,128.72L495.41,127.55L497.89,112.78L500.37,90.6L502.84,88.12L505.32,77.72L507.8,81.77L510.28,90.99L512.75,91.79L515.23,91.7L517.71,89.42L520.18,74.55L522.66,55.72L525.14,56.15L530.09,89.49L532.57,112.82L535.05,160.65L537.52,176.3L540,180.69" style="fill: rgb(99, 110, 250); fill-opacity: 0.5; stroke-width: 0;"/></g></g><g class="errorbars"/><g class="lines"><path class="js-line" d="M0,230.06L2.48,212.33L4.95,207.62L7.43,204.88L9.91,203.47L12.39,200.39L14.86,188.19L17.34,185.6L19.82,188.42L24.77,180.8L27.25,179.91L29.72,180.18L32.2,177.11L37.16,160.59L39.63,155.14L44.59,149.93L47.06,150.78L49.54,153.17L52.02,157.06L54.5,152.83L56.97,145.7L61.93,150.11L64.4,153.1L69.36,154.99L71.83,158.88L74.31,159.95L76.79,160.12L79.27,159.79L81.74,161.64L84.22,149.06L86.7,151.79L89.17,163.68L91.65,163.62L96.61,164.57L99.08,165.6L104.04,172.11L106.51,169.19L108.99,173.56L111.47,175L116.42,178.27L118.9,177.39L123.85,178.36L126.33,169.95L131.28,169.77L133.76,170.99L136.24,171.8L138.72,171.45L146.15,171L148.62,170.71L151.1,168.92L153.58,168.76L156.06,168.63L158.53,176.02L161.01,175.02L163.49,169.79L165.96,170.21L168.44,165.79L173.39,160.86L175.87,143.37L178.35,141.89L180.83,142.3L185.78,141.43L188.26,162.23L190.73,168.9L193.21,172.4L195.69,168.81L198.17,173.07L200.64,168.77L203.12,168.54L205.6,168.17L208.07,172.06L210.55,175.63L213.03,174.78L215.5,174.87L217.98,177.41L220.46,179.64L222.94,178.98L225.41,174.68L227.89,175.14L235.32,174.91L237.8,175.25L240.28,174.11L242.75,176.5L245.23,175.46L247.71,172.85L250.18,171.3L252.66,171L255.14,168.61L257.61,162.84L260.09,157.63L262.57,158.58L265.05,157.46L267.52,157.95L270,157.24L272.48,151.35L274.95,151.55L277.43,140.92L279.91,150.58L282.39,152.97L287.34,153.51L289.82,154.96L292.29,159.66L294.77,158.82L297.25,159.34L299.72,158.83L304.68,159L307.16,158.71L309.63,162.51L312.11,162.65L314.59,161.18L317.06,155.17L319.54,161.22L322.02,163.04L324.5,162.96L326.97,164.95L329.45,164.93L331.93,162.78L334.4,159.28L336.88,159.39L339.36,155.22L341.83,149.1L344.31,139.57L346.79,138.14L349.27,140.74L351.74,138.09L354.22,131.58L356.7,131.57L361.65,129.77L364.13,130.38L366.61,127.59L369.08,122.06L371.56,119.08L374.04,117.94L376.51,116.08L378.99,105.65L381.47,83.44L383.94,71.76L386.42,72.55L388.9,56.45L391.38,55.66L393.85,44.43L396.33,43.28L398.81,37.87L401.28,16L403.76,18.98L406.24,23L408.72,22.65L411.19,23.54L413.67,26.84L416.15,50.45L418.62,49.16L421.1,48.95L423.58,37.93L426.06,39.05L428.53,37.77L431.01,38.36L433.49,36.06L435.96,36.96L438.44,41.92L440.92,41.68L443.39,42.67L445.87,54.5L448.35,55.16L450.83,55.58L453.3,55.15L455.78,53.92L458.26,51.64L463.21,51.6L465.69,44.78L468.17,44.52L470.64,46.18L473.12,32.98L475.6,32.39L478.07,30.84L480.55,31.26L483.03,30.57L485.5,32.26L487.98,35.39L490.46,40.8L492.94,128.72L495.41,127.55L497.89,112.78L500.37,90.6L502.84,88.12L505.32,77.72L507.8,81.77L510.28,90.99L512.75,91.79L515.23,91.7L517.71,89.42L520.18,74.55L522.66,55.72L525.14,56.15L530.09,89.49L532.57,112.82L535.05,160.65L537.52,176.3L540,180.69" style="vector-effect: non-scaling-stroke; fill: none; stroke: rgb(99, 110, 250); stroke-opacity: 1; stroke-width: 2px; opacity: 1;"/></g><g class="points"/><g class="text"/></g></g></g><g class="overplot"/><path class="xlines-above crisp" d="M0,0" style="fill: none;"/><path class="ylines-above crisp" d="M0,0" style="fill: none;"/><g class="overlines-above"/><g class="xaxislayer-above"><g class="xtick"><text text-anchor="middle" x="0" y="433" transform="translate(97.34,0)" style="font-family: 'Open Sans', verdana, arial, sans-serif; font-size: 12px; fill: rgb(42, 63, 95); fill-opacity: 1; white-space: pre; opacity: 1;">Sep 2022</text></g><g class="xtick"><text text-anchor="middle" x="0" y="433" style="font-family: 'Open Sans', verdana, arial, sans-serif; font-size: 12px; fill: rgb(42, 63, 95); fill-opacity: 1; white-space: pre; opacity: 1;" transform="translate(171.65,0)">Oct 2022</text></g><g class="xtick"><text text-anchor="middle" x="0" y="433" style="font-family: 'Open Sans', verdana, arial, sans-serif; font-size: 12px; fill: rgb(42, 63, 95); fill-opacity: 1; white-space: pre; opacity: 1;" transform="translate(248.44,0)">Nov 2022</text></g><g class="xtick"><text text-anchor="middle" x="0" y="433" style="font-family: 'Open Sans', verdana, arial, sans-serif; font-size: 12px; fill: rgb(42, 63, 95); fill-opacity: 1; white-space: pre; opacity: 1;" transform="translate(322.75,0)">Dec 2022</text></g><g class="xtick"><text text-anchor="middle" x="0" y="433" style="font-family: 'Open Sans', verdana, arial, sans-serif; font-size: 12px; fill: rgb(42, 63, 95); fill-opacity: 1; white-space: pre; opacity: 1;" transform="translate(399.54,0)">Jan 2023</text></g><g class="xtick"><text text-anchor="middle" x="0" y="433" style="font-family: 'Open Sans', verdana, arial, sans-serif; font-size: 12px; fill: rgb(42, 63, 95); fill-opacity: 1; white-space: pre; opacity: 1;" transform="translate(476.33,0)">Feb 2023</text></g><g class="xtick"><text text-anchor="middle" x="0" y="433" style="font-family: 'Open Sans', verdana, arial, sans-serif; font-size: 12px; fill: rgb(42, 63, 95); fill-opacity: 1; white-space: pre; opacity: 1;" transform="translate(545.69,0)">Mar 2023</text></g></g><g class="yaxislayer-above"><g class="ytick"><text text-anchor="end" x="79" y="4.199999999999999" transform="translate(0,420)" style="font-family: 'Open Sans', verdana, arial, sans-serif; font-size: 12px; fill: rgb(42, 63, 95); fill-opacity: 1; white-space: pre; opacity: 1;">$0</text></g><g class="ytick"><text text-anchor="end" x="79" y="4.199999999999999" style="font-family: 'Open Sans', verdana, arial, sans-serif; font-size: 12px; fill: rgb(42, 63, 95); fill-opacity: 1; white-space: pre; opacity: 1;" transform="translate(0,377.9)">$10M</text></g><g class="ytick"><text text-anchor="end" x="79" y="4.199999999999999" style="font-family: 'Open Sans', verdana, arial, sans-serif; font-size: 12px; fill: rgb(42, 63, 95); fill-opacity: 1; white-space: pre; opacity: 1;" transform="translate(0,335.8)">$20M</text></g><g class="ytick"><text text-anchor="end" x="79" y="4.199999999999999" style="font-family: 'Open Sans', verdana, arial, sans-serif; font-size: 12px; fill: rgb(42, 63, 95); fill-opacity: 1; white-space: pre; opacity: 1;" transform="translate(0,293.7)">$30M</text></g><g class="ytick"><text text-anchor="end" x="79" y="4.199999999999999" style="font-family: 'Open Sans', verdana, arial, sans-serif; font-size: 12px; fill: rgb(42, 63, 95); fill-opacity: 1; white-space: pre; opacity: 1;" transform="translate(0,251.6)">$40M</text></g><g class="ytick"><text text-anchor="end" x="79" y="4.199999999999999" style="font-family: 'Open Sans', verdana, arial, sans-serif; font-size: 12px; fill: rgb(42, 63, 95); fill-opacity: 1; white-space: pre; opacity: 1;" transform="translate(0,209.5)">$50M</text></g><g class="ytick"><text text-anchor="end" x="79" y="4.199999999999999" style="font-family: 'Open Sans', verdana, arial, sans-serif; font-size: 12px; fill: rgb(42, 63, 95); fill-opacity: 1; white-space: pre; opacity: 1;" transform="translate(0,167.4)">$60M</text></g><g class="ytick"><text text-anchor="end" x="79" y="4.199999999999999" style="font-family: 'Open Sans', verdana, arial, sans-serif; font-size: 12px; fill: rgb(42, 63, 95); fill-opacity: 1; white-space: pre; opacity: 1;" transform="translate(0,125.3)">$70M</text></g></g><g class="overaxes-above"/></g></g><g class="polarlayer"/><g class="smithlayer"/><g class="ternarylayer"/><g class="geolayer"/><g class="funnelarealayer"/><g class="pielayer"/><g class="iciclelayer"/><g class="treemaplayer"/><g class="sunburstlayer"/><g class="glimages"/><defs id="topdefs-63d150"><g class="clips"/></defs><g class="layer-above"><g class="imagelayer"/><g class="shapelayer"/></g><g class="infolayer"><g class="g-gtitle"><text class="gtitle" x="35" y="50" text-anchor="start" dy="0em" style="font-family: 'Open Sans', verdana, arial, sans-serif; font-size: 17px; fill: rgb(42, 63, 95); opacity: 1; font-weight: normal; white-space: pre;"><tspan class="line" dy="0em" x="35" y="50">Synthetix - All Synthetix Curve Pools</tspan><tspan class="line" dy="1.3em" x="35" y="50">​<tspan style="font-size:70%" dy="-0.6em">Cumulative Net Flows since Program Announcement, Until Program End + 30 Days - At Last Price</tspan><tspan dy="0.42em">​</tspan></tspan></text></g><g class="g-xtitle"><text class="xtitle" x="350" y="460.8" text-anchor="middle" style="font-family: 'Open Sans', verdana, arial, sans-serif; font-size: 14px; fill: rgb(42, 63, 95); opacity: 1; font-weight: normal; white-space: pre;">Day</text></g><g class="g-ytitle"><text class="ytitle" transform="rotate(-90,24.168750000000003,260)" x="24.168750000000003" y="260" text-anchor="middle" style="font-family: 'Open Sans', verdana, arial, sans-serif; font-size: 14px; fill: rgb(42, 63, 95); opacity: 1; font-weight: normal; white-space: pre;">Cumulative Net Flows (USD)</text></g></g></svg>