<svg class="main-svg" xmlns="http://www.w3.org/2000/svg" xmlns:xlink="http://www.w3.org/1999/xlink" width="700" height="500" style="" viewBox="0 0 700 500"><rect x="0" y="0" width="700" height="500" style="fill: rgb(255, 255, 255); fill-opacity: 1;"/><defs id="defs-9e9be2"><g class="clips"><clipPath id="clip9e9be2xyplot" class="plotclip"><rect width="540" height="320"/></clipPath><clipPath class="axesclip" id="clip9e9be2x"><rect x="80" y="0" width="540" height="500"/></clipPath><clipPath class="axesclip" id="clip9e9be2y"><rect x="0" y="100" width="700" height="320"/></clipPath><clipPath class="axesclip" id="clip9e9be2xy"><rect x="80" y="100" width="540" height="320"/></clipPath></g><g class="gradients"/><g class="patterns"/></defs><g class="bglayer"><rect class="bg" x="80" y="100" width="540" height="320" style="fill: rgb(229, 236, 246); fill-opacity: 1; stroke-width: 0;"/></g><g class="layer-below"><g class="imagelayer"/><g class="shapelayer"/></g><g class="cartesianlayer"><g class="subplot xy"><g class="layer-subplot"><g class="shapelayer"/><g class="imagelayer"/></g><g class="minor-gridlayer"><g class="x"/><g class="y"/></g><g class="gridlayer"><g class="x"><path class="xgrid crisp" transform="translate(157.14,0)" d="M0,100v320" style="stroke: rgb(255, 255, 255); stroke-opacity: 1; stroke-width: 1px;"/><path class="xgrid crisp" transform="translate(265.84000000000003,0)" d="M0,100v320" style="stroke: rgb(255, 255, 255); stroke-opacity: 1; stroke-width: 1px;"/><path class="xgrid crisp" transform="translate(371.04,0)" d="M0,100v320" style="stroke: rgb(255, 255, 255); stroke-opacity: 1; stroke-width: 1px;"/><path class="xgrid crisp" transform="translate(479.74,0)" d="M0,100v320" style="stroke: rgb(255, 255, 255); stroke-opacity: 1; stroke-width: 1px;"/><path class="xgrid crisp" transform="translate(588.44,0)" d="M0,100v320" style="stroke: rgb(255, 255, 255); stroke-opacity: 1; stroke-width: 1px;"/></g><g class="y"><path class="ygrid crisp" transform="translate(0,361.83)" d="M80,0h540" style="stroke: rgb(255, 255, 255); stroke-opacity: 1; stroke-width: 1px;"/><path class="ygrid crisp" transform="translate(0,303.65999999999997)" d="M80,0h540" style="stroke: rgb(255, 255, 255); stroke-opacity: 1; stroke-width: 1px;"/><path class="ygrid crisp" transform="translate(0,245.5)" d="M80,0h540" style="stroke: rgb(255, 255, 255); stroke-opacity: 1; stroke-width: 1px;"/><path class="ygrid crisp" transform="translate(0,187.32999999999998)" d="M80,0h540" style="stroke: rgb(255, 255, 255); stroke-opacity: 1; stroke-width: 1px;"/><path class="ygrid crisp" transform="translate(0,129.16)" d="M80,0h540" style="stroke: rgb(255, 255, 255); stroke-opacity: 1; stroke-width: 1px;"/></g></g><g class="zerolinelayer"><path class="yzl zl crisp" transform="translate(0,420)" d="M80,0h540" style="stroke: rgb(255, 255, 255); stroke-opacity: 1; stroke-width: 2px;"/></g><path class="xlines-below"/><path class="ylines-below"/><g class="overlines-below"/><g class="xaxislayer-below"/><g class="yaxislayer-below"/><g class="overaxes-below"/><g class="plot" transform="translate(80,100)" clip-path="url(#clip9e9be2xyplot)"><g class="scatterlayer mlayer"><g class="trace scatter tracecc17c4" style="stroke-miterlimit: 2;"><g class="fills"><g><path class="js-fill" d="M540,320L0,320L0,303.05L3.51,277.64L7.01,280.9L10.52,264.48L14.03,243.24L17.53,246.07L21.04,244.48L24.55,253.36L28.05,204.11L31.56,199.01L35.06,195.3L38.57,185.78L42.08,189.11L45.58,195.1L49.09,182.45L56.1,178.6L59.61,167.89L63.12,170.02L66.62,158.5L70.13,159.06L73.64,147.26L77.14,134.81L80.65,116.51L84.16,123.47L87.66,109.28L94.68,90.42L98.18,88.33L105.19,110.3L108.7,103.36L112.21,104.88L115.71,114.8L119.22,137.44L122.73,144.36L126.23,153.11L129.74,154.05L133.25,152.33L136.75,148.69L140.26,151.3L143.77,173.08L147.27,169.48L150.78,174.24L154.29,173.03L157.79,176.02L161.3,176.44L164.81,167.08L168.31,161.67L171.82,161.84L175.32,159.93L178.83,154.67L182.34,158.17L185.84,152.44L189.35,140.67L192.86,138.72L196.36,134.11L199.87,127.88L203.38,122.44L206.88,131.44L210.39,141.16L213.9,162.56L217.4,180.98L220.91,173.99L224.42,171.52L227.92,179.5L231.43,179.47L234.94,177.72L238.44,175.38L241.95,175.4L248.96,173.28L252.47,158.4L259.48,175.68L262.99,182.59L266.49,179.52L270,179.05L273.51,180.36L277.01,180.4L284.03,185.68L287.53,179.45L291.04,169.13L294.55,173.07L298.05,158.43L301.56,160.62L305.06,158.95L308.57,161.3L312.08,157.83L315.58,166.96L319.09,165.04L322.6,169.11L329.61,173.82L333.12,172.79L336.62,169.16L340.13,169.48L343.64,172.12L347.14,178.96L350.65,182.75L354.16,182.58L357.66,185.63L361.17,181.99L364.68,181.19L368.18,182.43L371.69,182.13L375.19,175.68L378.7,176.26L382.21,182.44L385.71,174.44L389.22,175.53L392.73,172.86L396.23,174.22L399.74,169.54L403.25,169.31L406.75,167.85L410.26,168L413.77,162.34L417.27,163.96L420.78,160.99L424.29,161.72L431.3,148.85L434.81,146.3L438.31,130.5L441.82,138.06L445.32,141.14L448.83,142.94L452.34,138.73L455.84,132.96L459.35,127.64L462.86,114.83L466.36,108.17L469.87,96.29L473.38,96.16L476.88,87.68L480.39,91.55L483.9,91.87L487.4,68.23L490.91,66.64L494.42,57.91L497.92,60.52L501.43,55.93L504.94,53.31L508.44,50.01L511.95,37.61L515.45,32.39L518.96,35.12L522.47,41.39L525.97,45.66L529.48,25.49L532.99,16L536.49,23.51L540,34.3" style="fill: rgb(99, 110, 250); fill-opacity: 0.5; stroke-width: 0;"/></g></g><g class="errorbars"/><g class="lines"><path class="js-line" d="M0,303.05L3.51,277.64L7.01,280.9L10.52,264.48L14.03,243.24L17.53,246.07L21.04,244.48L24.55,253.36L28.05,204.11L31.56,199.01L35.06,195.3L38.57,185.78L42.08,189.11L45.58,195.1L49.09,182.45L56.1,178.6L59.61,167.89L63.12,170.02L66.62,158.5L70.13,159.06L73.64,147.26L77.14,134.81L80.65,116.51L84.16,123.47L87.66,109.28L94.68,90.42L98.18,88.33L105.19,110.3L108.7,103.36L112.21,104.88L115.71,114.8L119.22,137.44L122.73,144.36L126.23,153.11L129.74,154.05L133.25,152.33L136.75,148.69L140.26,151.3L143.77,173.08L147.27,169.48L150.78,174.24L154.29,173.03L157.79,176.02L161.3,176.44L164.81,167.08L168.31,161.67L171.82,161.84L175.32,159.93L178.83,154.67L182.34,158.17L185.84,152.44L189.35,140.67L192.86,138.72L196.36,134.11L199.87,127.88L203.38,122.44L206.88,131.44L210.39,141.16L213.9,162.56L217.4,180.98L220.91,173.99L224.42,171.52L227.92,179.5L231.43,179.47L234.94,177.72L238.44,175.38L241.95,175.4L248.96,173.28L252.47,158.4L259.48,175.68L262.99,182.59L266.49,179.52L270,179.05L273.51,180.36L277.01,180.4L284.03,185.68L287.53,179.45L291.04,169.13L294.55,173.07L298.05,158.43L301.56,160.62L305.06,158.95L308.57,161.3L312.08,157.83L315.58,166.96L319.09,165.04L322.6,169.11L329.61,173.82L333.12,172.79L336.62,169.16L340.13,169.48L343.64,172.12L347.14,178.96L350.65,182.75L354.16,182.58L357.66,185.63L361.17,181.99L364.68,181.19L368.18,182.43L371.69,182.13L375.19,175.68L378.7,176.26L382.21,182.44L385.71,174.44L389.22,175.53L392.73,172.86L396.23,174.22L399.74,169.54L403.25,169.31L406.75,167.85L410.26,168L413.77,162.34L417.27,163.96L420.78,160.99L424.29,161.72L431.3,148.85L434.81,146.3L438.31,130.5L441.82,138.06L445.32,141.14L448.83,142.94L452.34,138.73L455.84,132.96L459.35,127.64L462.86,114.83L466.36,108.17L469.87,96.29L473.38,96.16L476.88,87.68L480.39,91.55L483.9,91.87L487.4,68.23L490.91,66.64L494.42,57.91L497.92,60.52L501.43,55.93L504.94,53.31L508.44,50.01L511.95,37.61L515.45,32.39L518.96,35.12L522.47,41.39L525.97,45.66L529.48,25.49L532.99,16L536.49,23.51L540,34.3" style="vector-effect: non-scaling-stroke; fill: none; stroke: rgb(99, 110, 250); stroke-opacity: 1; stroke-width: 2px; opacity: 1;"/></g><g class="points"/><g class="text"/></g></g></g><g class="overplot"/><path class="xlines-above crisp" d="M0,0" style="fill: none;"/><path class="ylines-above crisp" d="M0,0" style="fill: none;"/><g class="overlines-above"/><g class="xaxislayer-above"><g class="xtick"><text text-anchor="middle" x="0" y="433" transform="translate(157.14,0)" style="font-family: 'Open Sans', verdana, arial, sans-serif; font-size: 12px; fill: rgb(42, 63, 95); fill-opacity: 1; white-space: pre; opacity: 1;">Oct 2022</text></g><g class="xtick"><text text-anchor="middle" x="0" y="433" style="font-family: 'Open Sans', verdana, arial, sans-serif; font-size: 12px; fill: rgb(42, 63, 95); fill-opacity: 1; white-space: pre; opacity: 1;" transform="translate(265.84000000000003,0)">Nov 2022</text></g><g class="xtick"><text text-anchor="middle" x="0" y="433" style="font-family: 'Open Sans', verdana, arial, sans-serif; font-size: 12px; fill: rgb(42, 63, 95); fill-opacity: 1; white-space: pre; opacity: 1;" transform="translate(371.04,0)">Dec 2022</text></g><g class="xtick"><text text-anchor="middle" x="0" y="433" style="font-family: 'Open Sans', verdana, arial, sans-serif; font-size: 12px; fill: rgb(42, 63, 95); fill-opacity: 1; white-space: pre; opacity: 1;" transform="translate(479.74,0)">Jan 2023</text></g><g class="xtick"><text text-anchor="middle" x="0" y="433" style="font-family: 'Open Sans', verdana, arial, sans-serif; font-size: 12px; fill: rgb(42, 63, 95); fill-opacity: 1; white-space: pre; opacity: 1;" transform="translate(588.44,0)">Feb 2023</text></g></g><g class="yaxislayer-above"><g class="ytick"><text text-anchor="end" x="79" y="4.199999999999999" transform="translate(0,420)" style="font-family: 'Open Sans', verdana, arial, sans-serif; font-size: 12px; fill: rgb(42, 63, 95); fill-opacity: 1; white-space: pre; opacity: 1;">$0</text></g><g class="ytick"><text text-anchor="end" x="79" y="4.199999999999999" style="font-family: 'Open Sans', verdana, arial, sans-serif; font-size: 12px; fill: rgb(42, 63, 95); fill-opacity: 1; white-space: pre; opacity: 1;" transform="translate(0,361.83)">$0.5M</text></g><g class="ytick"><text text-anchor="end" x="79" y="4.199999999999999" style="font-family: 'Open Sans', verdana, arial, sans-serif; font-size: 12px; fill: rgb(42, 63, 95); fill-opacity: 1; white-space: pre; opacity: 1;" transform="translate(0,303.65999999999997)">$1M</text></g><g class="ytick"><text text-anchor="end" x="79" y="4.199999999999999" style="font-family: 'Open Sans', verdana, arial, sans-serif; font-size: 12px; fill: rgb(42, 63, 95); fill-opacity: 1; white-space: pre; opacity: 1;" transform="translate(0,245.5)">$1.5M</text></g><g class="ytick"><text text-anchor="end" x="79" y="4.199999999999999" style="font-family: 'Open Sans', verdana, arial, sans-serif; font-size: 12px; fill: rgb(42, 63, 95); fill-opacity: 1; white-space: pre; opacity: 1;" transform="translate(0,187.32999999999998)">$2M</text></g><g class="ytick"><text text-anchor="end" x="79" y="4.199999999999999" style="font-family: 'Open Sans', verdana, arial, sans-serif; font-size: 12px; fill: rgb(42, 63, 95); fill-opacity: 1; white-space: pre; opacity: 1;" transform="translate(0,129.16)">$2.5M</text></g></g><g class="overaxes-above"/></g></g><g class="polarlayer"/><g class="smithlayer"/><g class="ternarylayer"/><g class="geolayer"/><g class="funnelarealayer"/><g class="pielayer"/><g class="iciclelayer"/><g class="treemaplayer"/><g class="sunburstlayer"/><g class="glimages"/><defs id="topdefs-9e9be2"><g class="clips"/></defs><g class="layer-above"><g class="imagelayer"/><g class="shapelayer"/></g><g class="infolayer"><g class="g-gtitle"><text class="gtitle" x="35" y="50" text-anchor="start" dy="0em" style="font-family: 'Open Sans', verdana, arial, sans-serif; font-size: 17px; fill: rgb(42, 63, 95); opacity: 1; font-weight: normal; white-space: pre;"><tspan class="line" dy="0em" x="35" y="50">Pickle - Pickle Finance*</tspan><tspan class="line" dy="1.3em" x="35" y="50">​<tspan style="font-size:70%" dy="-0.6em">Cumulative Net Flows since Program Announcement, Until Program End + 30 Days - At Last Price</tspan><tspan dy="0.42em">​</tspan></tspan></text></g><g class="g-xtitle"><text class="xtitle" x="350" y="460.8" text-anchor="middle" style="font-family: 'Open Sans', verdana, arial, sans-serif; font-size: 14px; fill: rgb(42, 63, 95); opacity: 1; font-weight: normal; white-space: pre;">Day</text></g><g class="g-ytitle"><text class="ytitle" transform="rotate(-90,20.840625000000003,260)" x="20.840625000000003" y="260" text-anchor="middle" style="font-family: 'Open Sans', verdana, arial, sans-serif; font-size: 14px; fill: rgb(42, 63, 95); opacity: 1; font-weight: normal; white-space: pre;">Cumulative Net Flows (USD)</text></g></g></svg>