<svg class="main-svg" xmlns="http://www.w3.org/2000/svg" xmlns:xlink="http://www.w3.org/1999/xlink" width="700" height="500" style="" viewBox="0 0 700 500"><rect x="0" y="0" width="700" height="500" style="fill: rgb(255, 255, 255); fill-opacity: 1;"/><defs id="defs-6ec2f8"><g class="clips"><clipPath id="clip6ec2f8xyplot" class="plotclip"><rect width="540" height="320"/></clipPath><clipPath class="axesclip" id="clip6ec2f8x"><rect x="80" y="0" width="540" height="500"/></clipPath><clipPath class="axesclip" id="clip6ec2f8y"><rect x="0" y="100" width="700" height="320"/></clipPath><clipPath class="axesclip" id="clip6ec2f8xy"><rect x="80" y="100" width="540" height="320"/></clipPath></g><g class="gradients"/><g class="patterns"/></defs><g class="bglayer"><rect class="bg" x="80" y="100" width="540" height="320" style="fill: rgb(229, 236, 246); fill-opacity: 1; stroke-width: 0;"/></g><g class="layer-below"><g class="imagelayer"/><g class="shapelayer"/></g><g class="cartesianlayer"><g class="subplot xy"><g class="layer-subplot"><g class="shapelayer"/><g class="imagelayer"/></g><g class="minor-gridlayer"><g class="x"/><g class="y"/></g><g class="gridlayer"><g class="x"><path class="xgrid crisp" transform="translate(107.39,0)" d="M0,100v320" style="stroke: rgb(255, 255, 255); stroke-opacity: 1; stroke-width: 1px;"/><path class="xgrid crisp" transform="translate(224.78,0)" d="M0,100v320" style="stroke: rgb(255, 255, 255); stroke-opacity: 1; stroke-width: 1px;"/><path class="xgrid crisp" transform="translate(346.09,0)" d="M0,100v320" style="stroke: rgb(255, 255, 255); stroke-opacity: 1; stroke-width: 1px;"/><path class="xgrid crisp" transform="translate(463.48,0)" d="M0,100v320" style="stroke: rgb(255, 255, 255); stroke-opacity: 1; stroke-width: 1px;"/><path class="xgrid crisp" transform="translate(584.78,0)" d="M0,100v320" style="stroke: rgb(255, 255, 255); stroke-opacity: 1; stroke-width: 1px;"/></g><g class="y"><path class="ygrid crisp" transform="translate(0,363.15)" d="M80,0h540" style="stroke: rgb(255, 255, 255); stroke-opacity: 1; stroke-width: 1px;"/><path class="ygrid crisp" transform="translate(0,306.3)" d="M80,0h540" style="stroke: rgb(255, 255, 255); stroke-opacity: 1; stroke-width: 1px;"/><path class="ygrid crisp" transform="translate(0,249.46)" d="M80,0h540" style="stroke: rgb(255, 255, 255); stroke-opacity: 1; stroke-width: 1px;"/><path class="ygrid crisp" transform="translate(0,192.61)" d="M80,0h540" style="stroke: rgb(255, 255, 255); stroke-opacity: 1; stroke-width: 1px;"/><path class="ygrid crisp" transform="translate(0,135.76)" d="M80,0h540" style="stroke: rgb(255, 255, 255); stroke-opacity: 1; stroke-width: 1px;"/></g></g><g class="zerolinelayer"><path class="yzl zl crisp" transform="translate(0,420)" d="M80,0h540" style="stroke: rgb(255, 255, 255); stroke-opacity: 1; stroke-width: 2px;"/></g><path class="xlines-below"/><path class="ylines-below"/><g class="overlines-below"/><g class="xaxislayer-below"/><g class="yaxislayer-below"/><g class="overaxes-below"/><g class="plot" transform="translate(80,100)" clip-path="url(#clip6ec2f8xyplot)"><g class="scatterlayer mlayer"><g class="trace scatter traced2de3f" style="stroke-miterlimit: 2;"><g class="fills"><g><path class="js-fill" d="M540,320L0,320L0,314.11L3.91,317.95L7.83,310.83L15.65,292.61L19.57,289.85L23.48,215.57L27.39,202.39L31.3,216.26L35.22,203.86L39.13,190.3L43.04,194.36L46.96,169.4L50.87,156.45L54.78,85.75L58.7,67.12L62.61,43.25L66.52,36.39L70.43,18.5L74.35,16L78.26,20.08L82.17,42.63L86.09,55.58L90,32.88L93.91,50.04L97.83,74.54L105.65,84.29L109.57,100.96L113.48,128.07L117.39,134.55L121.3,133.17L125.22,136L129.13,150.3L133.04,151.77L136.96,164.1L140.87,226.18L148.7,231.99L152.61,232.15L156.52,234.96L160.43,252.21L164.35,254.5L168.26,245.78L172.17,249.5L176.09,259.26L180,265.7L183.91,266.83L187.83,269.28L191.74,274.27L195.65,277.93L199.57,228.23L207.39,228.26L211.3,241.65L215.22,242.68L219.13,241.01L223.04,241.39L226.96,237.42L230.87,237.26L234.78,235.3L238.7,223.06L242.61,226.56L246.52,223.54L250.43,235.35L258.26,234.93L262.17,237.78L266.09,208.11L270,188.16L273.91,175.12L277.83,56.12L281.74,45.18L285.65,45.14L289.57,46.44L293.48,45.61L297.39,67.72L301.3,97.42L305.22,153.4L309.13,147.24L313.04,157.08L316.96,158.94L320.87,161.27L324.78,161.56L328.7,182.09L332.61,193.21L336.52,190.51L340.43,193.98L348.26,219.05L352.17,215.68L356.09,203.63L360,205.45L363.91,206.87L367.83,207.35L371.74,207.26L375.65,209.1L379.57,201.97L383.48,218.74L387.39,219.42L391.3,201.51L395.22,203.57L399.13,203.07L406.96,202.96L410.87,185.79L414.78,190.87L418.7,188.9L422.61,192.57L426.52,192.15L430.43,163.5L434.35,166.93L438.26,109.08L442.17,183.7L446.09,187.55L450,186.97L453.91,191L457.83,191.04L465.65,177.45L469.57,179.61L473.48,178.71L477.39,180.58L481.3,179.57L485.22,177.72L489.13,186.44L493.04,187.75L500.87,188.1L504.78,237.37L512.61,236.02L516.52,233L520.43,231.33L524.35,225.61L528.26,201.93L532.17,192.19L536.09,170.1L540,168.2" style="fill: rgb(99, 110, 250); fill-opacity: 0.5; stroke-width: 0;"/></g></g><g class="errorbars"/><g class="lines"><path class="js-line" d="M0,314.11L3.91,317.95L7.83,310.83L15.65,292.61L19.57,289.85L23.48,215.57L27.39,202.39L31.3,216.26L35.22,203.86L39.13,190.3L43.04,194.36L46.96,169.4L50.87,156.45L54.78,85.75L58.7,67.12L62.61,43.25L66.52,36.39L70.43,18.5L74.35,16L78.26,20.08L82.17,42.63L86.09,55.58L90,32.88L93.91,50.04L97.83,74.54L105.65,84.29L109.57,100.96L113.48,128.07L117.39,134.55L121.3,133.17L125.22,136L129.13,150.3L133.04,151.77L136.96,164.1L140.87,226.18L148.7,231.99L152.61,232.15L156.52,234.96L160.43,252.21L164.35,254.5L168.26,245.78L172.17,249.5L176.09,259.26L180,265.7L183.91,266.83L187.83,269.28L191.74,274.27L195.65,277.93L199.57,228.23L207.39,228.26L211.3,241.65L215.22,242.68L219.13,241.01L223.04,241.39L226.96,237.42L230.87,237.26L234.78,235.3L238.7,223.06L242.61,226.56L246.52,223.54L250.43,235.35L258.26,234.93L262.17,237.78L266.09,208.11L270,188.16L273.91,175.12L277.83,56.12L281.74,45.18L285.65,45.14L289.57,46.44L293.48,45.61L297.39,67.72L301.3,97.42L305.22,153.4L309.13,147.24L313.04,157.08L316.96,158.94L320.87,161.27L324.78,161.56L328.7,182.09L332.61,193.21L336.52,190.51L340.43,193.98L348.26,219.05L352.17,215.68L356.09,203.63L360,205.45L363.91,206.87L367.83,207.35L371.74,207.26L375.65,209.1L379.57,201.97L383.48,218.74L387.39,219.42L391.3,201.51L395.22,203.57L399.13,203.07L406.96,202.96L410.87,185.79L414.78,190.87L418.7,188.9L422.61,192.57L426.52,192.15L430.43,163.5L434.35,166.93L438.26,109.08L442.17,183.7L446.09,187.55L450,186.97L453.91,191L457.83,191.04L465.65,177.45L469.57,179.61L473.48,178.71L477.39,180.58L481.3,179.57L485.22,177.72L489.13,186.44L493.04,187.75L500.87,188.1L504.78,237.37L512.61,236.02L516.52,233L520.43,231.33L524.35,225.61L528.26,201.93L532.17,192.19L536.09,170.1L540,168.2" style="vector-effect: non-scaling-stroke; fill: none; stroke: rgb(99, 110, 250); stroke-opacity: 1; stroke-width: 2px; opacity: 1;"/></g><g class="points"/><g class="text"/></g></g></g><g class="overplot"/><path class="xlines-above crisp" d="M0,0" style="fill: none;"/><path class="ylines-above crisp" d="M0,0" style="fill: none;"/><g class="overlines-above"/><g class="xaxislayer-above"><g class="xtick"><text text-anchor="middle" x="0" y="433" transform="translate(107.39,0)" style="font-family: 'Open Sans', verdana, arial, sans-serif; font-size: 12px; fill: rgb(42, 63, 95); fill-opacity: 1; white-space: pre; opacity: 1;">Sep 2022</text></g><g class="xtick"><text text-anchor="middle" x="0" y="433" style="font-family: 'Open Sans', verdana, arial, sans-serif; font-size: 12px; fill: rgb(42, 63, 95); fill-opacity: 1; white-space: pre; opacity: 1;" transform="translate(224.78,0)">Oct 2022</text></g><g class="xtick"><text text-anchor="middle" x="0" y="433" style="font-family: 'Open Sans', verdana, arial, sans-serif; font-size: 12px; fill: rgb(42, 63, 95); fill-opacity: 1; white-space: pre; opacity: 1;" transform="translate(346.09,0)">Nov 2022</text></g><g class="xtick"><text text-anchor="middle" x="0" y="433" style="font-family: 'Open Sans', verdana, arial, sans-serif; font-size: 12px; fill: rgb(42, 63, 95); fill-opacity: 1; white-space: pre; opacity: 1;" transform="translate(463.48,0)">Dec 2022</text></g><g class="xtick"><text text-anchor="middle" x="0" y="433" style="font-family: 'Open Sans', verdana, arial, sans-serif; font-size: 12px; fill: rgb(42, 63, 95); fill-opacity: 1; white-space: pre; opacity: 1;" transform="translate(584.78,0)">Jan 2023</text></g></g><g class="yaxislayer-above"><g class="ytick"><text text-anchor="end" x="79" y="4.199999999999999" transform="translate(0,420)" style="font-family: 'Open Sans', verdana, arial, sans-serif; font-size: 12px; fill: rgb(42, 63, 95); fill-opacity: 1; white-space: pre; opacity: 1;">$0</text></g><g class="ytick"><text text-anchor="end" x="79" y="4.199999999999999" style="font-family: 'Open Sans', verdana, arial, sans-serif; font-size: 12px; fill: rgb(42, 63, 95); fill-opacity: 1; white-space: pre; opacity: 1;" transform="translate(0,363.15)">$2M</text></g><g class="ytick"><text text-anchor="end" x="79" y="4.199999999999999" style="font-family: 'Open Sans', verdana, arial, sans-serif; font-size: 12px; fill: rgb(42, 63, 95); fill-opacity: 1; white-space: pre; opacity: 1;" transform="translate(0,306.3)">$4M</text></g><g class="ytick"><text text-anchor="end" x="79" y="4.199999999999999" style="font-family: 'Open Sans', verdana, arial, sans-serif; font-size: 12px; fill: rgb(42, 63, 95); fill-opacity: 1; white-space: pre; opacity: 1;" transform="translate(0,249.46)">$6M</text></g><g class="ytick"><text text-anchor="end" x="79" y="4.199999999999999" style="font-family: 'Open Sans', verdana, arial, sans-serif; font-size: 12px; fill: rgb(42, 63, 95); fill-opacity: 1; white-space: pre; opacity: 1;" transform="translate(0,192.61)">$8M</text></g><g class="ytick"><text text-anchor="end" x="79" y="4.199999999999999" style="font-family: 'Open Sans', verdana, arial, sans-serif; font-size: 12px; fill: rgb(42, 63, 95); fill-opacity: 1; white-space: pre; opacity: 1;" transform="translate(0,135.76)">$10M</text></g></g><g class="overaxes-above"/></g></g><g class="polarlayer"/><g class="smithlayer"/><g class="ternarylayer"/><g class="geolayer"/><g class="funnelarealayer"/><g class="pielayer"/><g class="iciclelayer"/><g class="treemaplayer"/><g class="sunburstlayer"/><g class="glimages"/><defs id="topdefs-6ec2f8"><g class="clips"/></defs><g class="layer-above"><g class="imagelayer"/><g class="shapelayer"/></g><g class="infolayer"><g class="g-gtitle"><text class="gtitle" x="35" y="50" text-anchor="start" dy="0em" style="font-family: 'Open Sans', verdana, arial, sans-serif; font-size: 17px; fill: rgb(42, 63, 95); opacity: 1; font-weight: normal; white-space: pre;"><tspan class="line" dy="0em" x="35" y="50">Synthetix - sUSD-3Crv: Curve</tspan><tspan class="line" dy="1.3em" x="35" y="50">​<tspan style="font-size:70%" dy="-0.6em">Cumulative Net Dollar Flow since Program Announcement, Until Program End + 30 Days - At Last Price</tspan><tspan dy="0.42em">​</tspan></tspan></text></g><g class="g-xtitle"><text class="xtitle" x="350" y="460.3" text-anchor="middle" style="font-family: 'Open Sans', verdana, arial, sans-serif; font-size: 14px; fill: rgb(42, 63, 95); opacity: 1; font-weight: normal; white-space: pre;">Day</text></g><g class="g-ytitle"><text class="ytitle" transform="rotate(-90,21.200000000000003,260)" x="21.200000000000003" y="260" text-anchor="middle" style="font-family: 'Open Sans', verdana, arial, sans-serif; font-size: 14px; fill: rgb(42, 63, 95); opacity: 1; font-weight: normal; white-space: pre;">Cumulative Net Dollar Flow (N$F)</text></g></g></svg>