<svg class="main-svg" xmlns="http://www.w3.org/2000/svg" xmlns:xlink="http://www.w3.org/1999/xlink" width="700" height="500" style="" viewBox="0 0 700 500"><rect x="0" y="0" width="700" height="500" style="fill: rgb(255, 255, 255); fill-opacity: 1;"/><defs id="defs-33ea71"><g class="clips"><clipPath id="clip33ea71xyplot" class="plotclip"><rect width="540" height="320"/></clipPath><clipPath class="axesclip" id="clip33ea71x"><rect x="80" y="0" width="540" height="500"/></clipPath><clipPath class="axesclip" id="clip33ea71y"><rect x="0" y="100" width="700" height="320"/></clipPath><clipPath class="axesclip" id="clip33ea71xy"><rect x="80" y="100" width="540" height="320"/></clipPath></g><g class="gradients"/><g class="patterns"/></defs><g class="bglayer"><rect class="bg" x="80" y="100" width="540" height="320" style="fill: rgb(229, 236, 246); fill-opacity: 1; stroke-width: 0;"/></g><g class="layer-below"><g class="imagelayer"/><g class="shapelayer"/></g><g class="cartesianlayer"><g class="subplot xy"><g class="layer-subplot"><g class="shapelayer"/><g class="imagelayer"/></g><g class="minor-gridlayer"><g class="x"/><g class="y"/></g><g class="gridlayer"><g class="x"><path class="xgrid crisp" transform="translate(94.69,0)" d="M0,100v320" style="stroke: rgb(255, 255, 255); stroke-opacity: 1; stroke-width: 1px;"/><path class="xgrid crisp" transform="translate(208.57,0)" d="M0,100v320" style="stroke: rgb(255, 255, 255); stroke-opacity: 1; stroke-width: 1px;"/><path class="xgrid crisp" transform="translate(318.78,0)" d="M0,100v320" style="stroke: rgb(255, 255, 255); stroke-opacity: 1; stroke-width: 1px;"/><path class="xgrid crisp" transform="translate(432.65,0)" d="M0,100v320" style="stroke: rgb(255, 255, 255); stroke-opacity: 1; stroke-width: 1px;"/><path class="xgrid crisp" transform="translate(546.53,0)" d="M0,100v320" style="stroke: rgb(255, 255, 255); stroke-opacity: 1; stroke-width: 1px;"/></g><g class="y"><path class="ygrid crisp" transform="translate(0,334.36)" d="M80,0h540" style="stroke: rgb(255, 255, 255); stroke-opacity: 1; stroke-width: 1px;"/><path class="ygrid crisp" transform="translate(0,274.4)" d="M80,0h540" style="stroke: rgb(255, 255, 255); stroke-opacity: 1; stroke-width: 1px;"/><path class="ygrid crisp" transform="translate(0,214.43)" d="M80,0h540" style="stroke: rgb(255, 255, 255); stroke-opacity: 1; stroke-width: 1px;"/><path class="ygrid crisp" transform="translate(0,154.47)" d="M80,0h540" style="stroke: rgb(255, 255, 255); stroke-opacity: 1; stroke-width: 1px;"/></g></g><g class="zerolinelayer"><path class="yzl zl crisp" transform="translate(0,394.32)" d="M80,0h540" style="stroke: rgb(255, 255, 255); stroke-opacity: 1; stroke-width: 2px;"/></g><path class="xlines-below"/><path class="ylines-below"/><g class="overlines-below"/><g class="xaxislayer-below"/><g class="yaxislayer-below"/><g class="overaxes-below"/><g class="plot" transform="translate(80,100)" clip-path="url(#clip33ea71xyplot)"><g class="scatterlayer mlayer"><g class="trace scatter trace62e5cb" style="stroke-miterlimit: 2;"><g class="fills"><g><path class="js-fill" d="M540,294.32L0,294.32L0,301.41L3.67,301.42L7.35,300.59L18.37,299.61L22.04,299.52L25.71,297.79L29.39,291.61L33.06,291.84L36.73,297.46L40.41,291.47L44.08,292.28L55.1,292.52L58.78,289.33L62.45,281.84L66.12,280.73L69.8,280.74L73.47,282.68L77.14,270.52L80.82,270.38L84.49,270.22L88.16,273.41L91.84,273.81L95.51,271.51L99.18,272.11L102.86,273.58L106.53,280.8L110.2,276.62L113.88,270.14L117.55,268.5L121.22,269.19L124.9,268.74L128.57,267.5L132.24,268.16L146.94,267.91L150.61,266.9L154.29,284.95L157.96,286.72L161.63,303.45L165.31,301.33L172.65,302.26L176.33,304L180,289.24L183.67,287.36L187.35,293.78L191.02,291.85L194.69,290.59L198.37,291.19L202.04,292.77L205.71,292.93L209.39,294.95L213.06,294.26L216.73,292.7L220.41,285.05L224.08,284.47L227.76,292.46L231.43,293.08L235.1,291.97L238.78,281.04L242.45,277.7L246.12,277.62L249.8,278.32L253.47,275.36L257.14,274.18L260.82,267.74L264.49,267.37L268.16,263.73L271.84,274.11L275.51,237.93L279.18,256.58L282.86,257.12L286.53,264.54L290.2,287.39L293.88,287.21L297.55,296.73L301.22,298.1L304.9,297.35L308.57,287.17L312.24,286.91L315.92,289.39L323.27,289.76L326.94,289.88L330.61,289.21L334.29,289.63L337.96,291.17L341.63,291.3L352.65,290.67L356.33,290.66L360,290.57L363.67,289.3L367.35,288.86L371.02,291.61L374.69,287.69L378.37,287.4L382.04,282.3L385.71,280.83L389.39,280.57L393.06,278.44L396.73,276.17L400.41,275.26L407.76,275.59L411.43,271.31L415.1,270.57L418.78,260.27L422.45,251.64L426.12,247.75L429.8,253.63L433.47,239.27L437.14,225.28L440.82,220.4L448.16,189.04L451.84,182.84L455.51,182.83L459.18,178.55L462.86,163.64L466.53,159.42L470.2,151.95L473.88,147.56L477.55,145.87L481.22,138.94L484.9,100.41L488.57,97.4L492.24,73.95L495.92,78.27L499.59,78.21L503.27,68.1L506.94,58.13L510.61,56.92L514.29,56.95L517.96,51.58L521.63,53.89L525.31,44.79L528.98,42.45L532.65,25.68L536.33,16.79L540,16" style="fill: rgb(99, 110, 250); fill-opacity: 0.5; stroke-width: 0;"/></g></g><g class="errorbars"/><g class="lines"><path class="js-line" d="M0,301.41L3.67,301.42L7.35,300.59L18.37,299.61L22.04,299.52L25.71,297.79L29.39,291.61L33.06,291.84L36.73,297.46L40.41,291.47L44.08,292.28L55.1,292.52L58.78,289.33L62.45,281.84L66.12,280.73L69.8,280.74L73.47,282.68L77.14,270.52L80.82,270.38L84.49,270.22L88.16,273.41L91.84,273.81L95.51,271.51L99.18,272.11L102.86,273.58L106.53,280.8L110.2,276.62L113.88,270.14L117.55,268.5L121.22,269.19L124.9,268.74L128.57,267.5L132.24,268.16L146.94,267.91L150.61,266.9L154.29,284.95L157.96,286.72L161.63,303.45L165.31,301.33L172.65,302.26L176.33,304L180,289.24L183.67,287.36L187.35,293.78L191.02,291.85L194.69,290.59L198.37,291.19L202.04,292.77L205.71,292.93L209.39,294.95L213.06,294.26L216.73,292.7L220.41,285.05L224.08,284.47L227.76,292.46L231.43,293.08L235.1,291.97L238.78,281.04L242.45,277.7L246.12,277.62L249.8,278.32L253.47,275.36L257.14,274.18L260.82,267.74L264.49,267.37L268.16,263.73L271.84,274.11L275.51,237.93L279.18,256.58L282.86,257.12L286.53,264.54L290.2,287.39L293.88,287.21L297.55,296.73L301.22,298.1L304.9,297.35L308.57,287.17L312.24,286.91L315.92,289.39L323.27,289.76L326.94,289.88L330.61,289.21L334.29,289.63L337.96,291.17L341.63,291.3L352.65,290.67L356.33,290.66L360,290.57L363.67,289.3L367.35,288.86L371.02,291.61L374.69,287.69L378.37,287.4L382.04,282.3L385.71,280.83L389.39,280.57L393.06,278.44L396.73,276.17L400.41,275.26L407.76,275.59L411.43,271.31L415.1,270.57L418.78,260.27L422.45,251.64L426.12,247.75L429.8,253.63L433.47,239.27L437.14,225.28L440.82,220.4L448.16,189.04L451.84,182.84L455.51,182.83L459.18,178.55L462.86,163.64L466.53,159.42L470.2,151.95L473.88,147.56L477.55,145.87L481.22,138.94L484.9,100.41L488.57,97.4L492.24,73.95L495.92,78.27L499.59,78.21L503.27,68.1L506.94,58.13L510.61,56.92L514.29,56.95L517.96,51.58L521.63,53.89L525.31,44.79L528.98,42.45L532.65,25.68L536.33,16.79L540,16" style="vector-effect: non-scaling-stroke; fill: none; stroke: rgb(99, 110, 250); stroke-opacity: 1; stroke-width: 2px; opacity: 1;"/></g><g class="points"/><g class="text"/></g></g></g><g class="overplot"/><path class="xlines-above crisp" d="M0,0" style="fill: none;"/><path class="ylines-above crisp" d="M0,0" style="fill: none;"/><g class="overlines-above"/><g class="xaxislayer-above"><g class="xtick"><text text-anchor="middle" x="0" y="433" transform="translate(94.69,0)" style="font-family: 'Open Sans', verdana, arial, sans-serif; font-size: 12px; fill: rgb(42, 63, 95); fill-opacity: 1; white-space: pre; opacity: 1;">Oct 2022</text></g><g class="xtick"><text text-anchor="middle" x="0" y="433" style="font-family: 'Open Sans', verdana, arial, sans-serif; font-size: 12px; fill: rgb(42, 63, 95); fill-opacity: 1; white-space: pre; opacity: 1;" transform="translate(208.57,0)">Nov 2022</text></g><g class="xtick"><text text-anchor="middle" x="0" y="433" style="font-family: 'Open Sans', verdana, arial, sans-serif; font-size: 12px; fill: rgb(42, 63, 95); fill-opacity: 1; white-space: pre; opacity: 1;" transform="translate(318.78,0)">Dec 2022</text></g><g class="xtick"><text text-anchor="middle" x="0" y="433" style="font-family: 'Open Sans', verdana, arial, sans-serif; font-size: 12px; fill: rgb(42, 63, 95); fill-opacity: 1; white-space: pre; opacity: 1;" transform="translate(432.65,0)">Jan 2023</text></g><g class="xtick"><text text-anchor="middle" x="0" y="433" style="font-family: 'Open Sans', verdana, arial, sans-serif; font-size: 12px; fill: rgb(42, 63, 95); fill-opacity: 1; white-space: pre; opacity: 1;" transform="translate(546.53,0)">Feb 2023</text></g></g><g class="yaxislayer-above"><g class="ytick"><text text-anchor="end" x="79" y="4.199999999999999" transform="translate(0,394.32)" style="font-family: 'Open Sans', verdana, arial, sans-serif; font-size: 12px; fill: rgb(42, 63, 95); fill-opacity: 1; white-space: pre; opacity: 1;">$0</text></g><g class="ytick"><text text-anchor="end" x="79" y="4.199999999999999" style="font-family: 'Open Sans', verdana, arial, sans-serif; font-size: 12px; fill: rgb(42, 63, 95); fill-opacity: 1; white-space: pre; opacity: 1;" transform="translate(0,334.36)">$5M</text></g><g class="ytick"><text text-anchor="end" x="79" y="4.199999999999999" style="font-family: 'Open Sans', verdana, arial, sans-serif; font-size: 12px; fill: rgb(42, 63, 95); fill-opacity: 1; white-space: pre; opacity: 1;" transform="translate(0,274.4)">$10M</text></g><g class="ytick"><text text-anchor="end" x="79" y="4.199999999999999" style="font-family: 'Open Sans', verdana, arial, sans-serif; font-size: 12px; fill: rgb(42, 63, 95); fill-opacity: 1; white-space: pre; opacity: 1;" transform="translate(0,214.43)">$15M</text></g><g class="ytick"><text text-anchor="end" x="79" y="4.199999999999999" style="font-family: 'Open Sans', verdana, arial, sans-serif; font-size: 12px; fill: rgb(42, 63, 95); fill-opacity: 1; white-space: pre; opacity: 1;" transform="translate(0,154.47)">$20M</text></g></g><g class="overaxes-above"/></g></g><g class="polarlayer"/><g class="smithlayer"/><g class="ternarylayer"/><g class="geolayer"/><g class="funnelarealayer"/><g class="pielayer"/><g class="iciclelayer"/><g class="treemaplayer"/><g class="sunburstlayer"/><g class="glimages"/><defs id="topdefs-33ea71"><g class="clips"/></defs><g class="layer-above"><g class="imagelayer"/><g class="shapelayer"/></g><g class="infolayer"><g class="g-gtitle"><text class="gtitle" x="35" y="50" text-anchor="start" dy="0em" style="font-family: 'Open Sans', verdana, arial, sans-serif; font-size: 17px; fill: rgb(42, 63, 95); opacity: 1; font-weight: normal; white-space: pre;"><tspan class="line" dy="0em" x="35" y="50">Synthetix - USDC/sUSD: Velo</tspan><tspan class="line" dy="1.3em" x="35" y="50">​<tspan style="font-size:70%" dy="-0.6em">Cumulative Net Flows since Program Announcement, Until Program End + 30 Days - At Last Price</tspan><tspan dy="0.42em">​</tspan></tspan></text></g><g class="g-xtitle"><text class="xtitle" x="350" y="460.8" text-anchor="middle" style="font-family: 'Open Sans', verdana, arial, sans-serif; font-size: 14px; fill: rgb(42, 63, 95); opacity: 1; font-weight: normal; white-space: pre;">Day</text></g><g class="g-ytitle"><text class="ytitle" transform="rotate(-90,24.168750000000003,260)" x="24.168750000000003" y="260" text-anchor="middle" style="font-family: 'Open Sans', verdana, arial, sans-serif; font-size: 14px; fill: rgb(42, 63, 95); opacity: 1; font-weight: normal; white-space: pre;">Cumulative Net Flows (USD)</text></g></g></svg>