<svg class="main-svg" xmlns="http://www.w3.org/2000/svg" xmlns:xlink="http://www.w3.org/1999/xlink" width="700" height="500" style="" viewBox="0 0 700 500"><rect x="0" y="0" width="700" height="500" style="fill: rgb(255, 255, 255); fill-opacity: 1;"/><defs id="defs-2b75ec"><g class="clips"><clipPath id="clip2b75ecxyplot" class="plotclip"><rect width="540" height="320"/></clipPath><clipPath class="axesclip" id="clip2b75ecx"><rect x="80" y="0" width="540" height="500"/></clipPath><clipPath class="axesclip" id="clip2b75ecy"><rect x="0" y="100" width="700" height="320"/></clipPath><clipPath class="axesclip" id="clip2b75ecxy"><rect x="80" y="100" width="540" height="320"/></clipPath></g><g class="gradients"/><g class="patterns"/></defs><g class="bglayer"><rect class="bg" x="80" y="100" width="540" height="320" style="fill: rgb(229, 236, 246); fill-opacity: 1; stroke-width: 0;"/></g><g class="layer-below"><g class="imagelayer"/><g class="shapelayer"/></g><g class="cartesianlayer"><g class="subplot xy"><g class="layer-subplot"><g class="shapelayer"/><g class="imagelayer"/></g><g class="minor-gridlayer"><g class="x"/><g class="y"/></g><g class="gridlayer"><g class="x"><path class="xgrid crisp" transform="translate(92.49,0)" d="M0,100v320" style="stroke: rgb(255, 255, 255); stroke-opacity: 1; stroke-width: 1px;"/><path class="xgrid crisp" transform="translate(189.25,0)" d="M0,100v320" style="stroke: rgb(255, 255, 255); stroke-opacity: 1; stroke-width: 1px;"/><path class="xgrid crisp" transform="translate(282.89,0)" d="M0,100v320" style="stroke: rgb(255, 255, 255); stroke-opacity: 1; stroke-width: 1px;"/><path class="xgrid crisp" transform="translate(379.65,0)" d="M0,100v320" style="stroke: rgb(255, 255, 255); stroke-opacity: 1; stroke-width: 1px;"/><path class="xgrid crisp" transform="translate(476.42,0)" d="M0,100v320" style="stroke: rgb(255, 255, 255); stroke-opacity: 1; stroke-width: 1px;"/><path class="xgrid crisp" transform="translate(563.8199999999999,0)" d="M0,100v320" style="stroke: rgb(255, 255, 255); stroke-opacity: 1; stroke-width: 1px;"/></g><g class="y"><path class="ygrid crisp" transform="translate(0,348.72)" d="M80,0h540" style="stroke: rgb(255, 255, 255); stroke-opacity: 1; stroke-width: 1px;"/><path class="ygrid crisp" transform="translate(0,301.12)" d="M80,0h540" style="stroke: rgb(255, 255, 255); stroke-opacity: 1; stroke-width: 1px;"/><path class="ygrid crisp" transform="translate(0,253.52)" d="M80,0h540" style="stroke: rgb(255, 255, 255); stroke-opacity: 1; stroke-width: 1px;"/><path class="ygrid crisp" transform="translate(0,205.92000000000002)" d="M80,0h540" style="stroke: rgb(255, 255, 255); stroke-opacity: 1; stroke-width: 1px;"/><path class="ygrid crisp" transform="translate(0,158.32)" d="M80,0h540" style="stroke: rgb(255, 255, 255); stroke-opacity: 1; stroke-width: 1px;"/><path class="ygrid crisp" transform="translate(0,110.71000000000001)" d="M80,0h540" style="stroke: rgb(255, 255, 255); stroke-opacity: 1; stroke-width: 1px;"/></g></g><g class="zerolinelayer"><path class="yzl zl crisp" transform="translate(0,396.32)" d="M80,0h540" style="stroke: rgb(255, 255, 255); stroke-opacity: 1; stroke-width: 2px;"/></g><path class="xlines-below"/><path class="ylines-below"/><g class="overlines-below"/><g class="xaxislayer-below"/><g class="yaxislayer-below"/><g class="overaxes-below"/><g class="plot" transform="translate(80,100)" clip-path="url(#clip2b75ecxyplot)"><g class="scatterlayer mlayer"><g class="trace scatter traced7bca2" style="stroke-miterlimit: 2;"><g class="fills"><g><path class="js-fill" d="M540,296.32L0,296.32L0,301.94L6.24,301.29L9.36,301.03L12.49,300.34L15.61,300.51L18.73,300.44L21.85,299.07L24.97,294.17L28.09,294.35L31.21,298.81L34.34,294.06L40.58,294.73L43.7,294.76L46.82,294.89L49.94,292.36L53.06,286.41L56.18,285.53L59.31,285.53L62.43,287.08L65.55,277.43L68.67,277.31L71.79,277.19L74.91,279.72L78.03,280.04L81.16,278.21L87.4,279.85L90.52,285.58L93.64,282.26L96.76,277.12L99.88,275.82L103.01,276.36L109.25,275.03L112.37,275.55L124.86,275.35L127.98,274.55L131.1,288.88L134.22,290.28L137.34,303.56L140.46,301.88L146.71,302.62L149.83,304L152.95,292.28L156.07,290.79L159.19,295.89L162.31,294.35L165.43,293.36L168.55,293.83L171.68,295.09L174.8,295.21L177.92,296.82L181.04,296.27L184.16,295.03L187.28,288.96L190.4,288.49L193.53,294.84L196.65,295.33L199.77,294.45L202.89,285.77L206.01,283.12L212.25,283.61L215.38,281.27L218.5,280.33L221.62,275.22L224.74,274.92L227.86,272.03L230.98,280.27L234.1,251.55L237.23,266.36L240.35,266.78L243.47,272.68L246.59,290.81L249.71,290.67L252.83,298.23L255.95,299.32L259.08,298.72L262.2,290.64L265.32,290.44L268.44,292.4L271.56,292.79L284.05,292.59L287.17,293.81L296.53,293.43L299.65,293.42L305.9,293.34L309.02,292.33L312.14,291.98L315.26,294.17L318.38,291.05L321.5,290.82L324.62,286.77L327.75,285.61L330.87,285.4L333.99,283.71L337.11,281.91L340.23,281.19L346.47,281.45L349.6,278.05L352.72,277.46L355.84,269.29L358.96,262.43L362.08,259.35L365.2,264.01L368.32,252.62L371.45,241.51L374.57,237.63L380.81,212.74L383.93,207.82L387.05,207.81L390.17,204.42L393.29,192.58L396.42,189.23L399.54,183.3L402.66,179.82L405.78,178.47L408.9,172.97L412.02,142.39L415.14,140L418.27,121.38L421.39,124.81L424.51,124.76L427.63,116.74L430.75,108.82L433.87,107.86L436.99,107.89L440.12,103.62L443.24,105.46L446.36,98.24L449.48,96.38L452.6,83.07L455.72,76.01L458.84,71.01L461.97,80.69L465.09,75.32L468.21,59.15L471.33,60.03L474.45,58.83L477.57,52.21L480.69,41.3L483.82,25.74L486.94,18.15L490.06,17.82L493.18,16L496.3,17.4L499.42,16.28L502.54,20.48L505.66,22.5L508.79,29.26L511.91,119.48L515.03,300.28L518.15,297L521.27,268L524.39,208.06L527.51,199.26L530.64,185.09L533.76,153.41L536.88,109.13L540,98.96" style="fill: rgb(99, 110, 250); fill-opacity: 0.5; stroke-width: 0;"/></g></g><g class="errorbars"/><g class="lines"><path class="js-line" d="M0,301.94L6.24,301.29L9.36,301.03L12.49,300.34L15.61,300.51L18.73,300.44L21.85,299.07L24.97,294.17L28.09,294.35L31.21,298.81L34.34,294.06L40.58,294.73L43.7,294.76L46.82,294.89L49.94,292.36L53.06,286.41L56.18,285.53L59.31,285.53L62.43,287.08L65.55,277.43L68.67,277.31L71.79,277.19L74.91,279.72L78.03,280.04L81.16,278.21L87.4,279.85L90.52,285.58L93.64,282.26L96.76,277.12L99.88,275.82L103.01,276.36L109.25,275.03L112.37,275.55L124.86,275.35L127.98,274.55L131.1,288.88L134.22,290.28L137.34,303.56L140.46,301.88L146.71,302.62L149.83,304L152.95,292.28L156.07,290.79L159.19,295.89L162.31,294.35L165.43,293.36L168.55,293.83L171.68,295.09L174.8,295.21L177.92,296.82L181.04,296.27L184.16,295.03L187.28,288.96L190.4,288.49L193.53,294.84L196.65,295.33L199.77,294.45L202.89,285.77L206.01,283.12L212.25,283.61L215.38,281.27L218.5,280.33L221.62,275.22L224.74,274.92L227.86,272.03L230.98,280.27L234.1,251.55L237.23,266.36L240.35,266.78L243.47,272.68L246.59,290.81L249.71,290.67L252.83,298.23L255.95,299.32L259.08,298.72L262.2,290.64L265.32,290.44L268.44,292.4L271.56,292.79L284.05,292.59L287.17,293.81L296.53,293.43L299.65,293.42L305.9,293.34L309.02,292.33L312.14,291.98L315.26,294.17L318.38,291.05L321.5,290.82L324.62,286.77L327.75,285.61L330.87,285.4L333.99,283.71L337.11,281.91L340.23,281.19L346.47,281.45L349.6,278.05L352.72,277.46L355.84,269.29L358.96,262.43L362.08,259.35L365.2,264.01L368.32,252.62L371.45,241.51L374.57,237.63L380.81,212.74L383.93,207.82L387.05,207.81L390.17,204.42L393.29,192.58L396.42,189.23L399.54,183.3L402.66,179.82L405.78,178.47L408.9,172.97L412.02,142.39L415.14,140L418.27,121.38L421.39,124.81L424.51,124.76L427.63,116.74L430.75,108.82L433.87,107.86L436.99,107.89L440.12,103.62L443.24,105.46L446.36,98.24L449.48,96.38L452.6,83.07L455.72,76.01L458.84,71.01L461.97,80.69L465.09,75.32L468.21,59.15L471.33,60.03L474.45,58.83L477.57,52.21L480.69,41.3L483.82,25.74L486.94,18.15L490.06,17.82L493.18,16L496.3,17.4L499.42,16.28L502.54,20.48L505.66,22.5L508.79,29.26L511.91,119.48L515.03,300.28L518.15,297L521.27,268L524.39,208.06L527.51,199.26L530.64,185.09L533.76,153.41L536.88,109.13L540,98.96" style="vector-effect: non-scaling-stroke; fill: none; stroke: rgb(99, 110, 250); stroke-opacity: 1; stroke-width: 2px; opacity: 1;"/></g><g class="points"/><g class="text"/></g></g></g><g class="overplot"/><path class="xlines-above crisp" d="M0,0" style="fill: none;"/><path class="ylines-above crisp" d="M0,0" style="fill: none;"/><g class="overlines-above"/><g class="xaxislayer-above"><g class="xtick"><text text-anchor="middle" x="0" y="433" transform="translate(92.49,0)" style="font-family: 'Open Sans', verdana, arial, sans-serif; font-size: 12px; fill: rgb(42, 63, 95); fill-opacity: 1; white-space: pre; opacity: 1;">Oct 2022</text></g><g class="xtick"><text text-anchor="middle" x="0" y="433" style="font-family: 'Open Sans', verdana, arial, sans-serif; font-size: 12px; fill: rgb(42, 63, 95); fill-opacity: 1; white-space: pre; opacity: 1;" transform="translate(189.25,0)">Nov 2022</text></g><g class="xtick"><text text-anchor="middle" x="0" y="433" style="font-family: 'Open Sans', verdana, arial, sans-serif; font-size: 12px; fill: rgb(42, 63, 95); fill-opacity: 1; white-space: pre; opacity: 1;" transform="translate(282.89,0)">Dec 2022</text></g><g class="xtick"><text text-anchor="middle" x="0" y="433" style="font-family: 'Open Sans', verdana, arial, sans-serif; font-size: 12px; fill: rgb(42, 63, 95); fill-opacity: 1; white-space: pre; opacity: 1;" transform="translate(379.65,0)">Jan 2023</text></g><g class="xtick"><text text-anchor="middle" x="0" y="433" style="font-family: 'Open Sans', verdana, arial, sans-serif; font-size: 12px; fill: rgb(42, 63, 95); fill-opacity: 1; white-space: pre; opacity: 1;" transform="translate(476.42,0)">Feb 2023</text></g><g class="xtick"><text text-anchor="middle" x="0" y="433" style="font-family: 'Open Sans', verdana, arial, sans-serif; font-size: 12px; fill: rgb(42, 63, 95); fill-opacity: 1; white-space: pre; opacity: 1;" transform="translate(563.8199999999999,0)">Mar 2023</text></g></g><g class="yaxislayer-above"><g class="ytick"><text text-anchor="end" x="79" y="4.199999999999999" transform="translate(0,396.32)" style="font-family: 'Open Sans', verdana, arial, sans-serif; font-size: 12px; fill: rgb(42, 63, 95); fill-opacity: 1; white-space: pre; opacity: 1;">$0</text></g><g class="ytick"><text text-anchor="end" x="79" y="4.199999999999999" style="font-family: 'Open Sans', verdana, arial, sans-serif; font-size: 12px; fill: rgb(42, 63, 95); fill-opacity: 1; white-space: pre; opacity: 1;" transform="translate(0,348.72)">$5M</text></g><g class="ytick"><text text-anchor="end" x="79" y="4.199999999999999" style="font-family: 'Open Sans', verdana, arial, sans-serif; font-size: 12px; fill: rgb(42, 63, 95); fill-opacity: 1; white-space: pre; opacity: 1;" transform="translate(0,301.12)">$10M</text></g><g class="ytick"><text text-anchor="end" x="79" y="4.199999999999999" style="font-family: 'Open Sans', verdana, arial, sans-serif; font-size: 12px; fill: rgb(42, 63, 95); fill-opacity: 1; white-space: pre; opacity: 1;" transform="translate(0,253.52)">$15M</text></g><g class="ytick"><text text-anchor="end" x="79" y="4.199999999999999" style="font-family: 'Open Sans', verdana, arial, sans-serif; font-size: 12px; fill: rgb(42, 63, 95); fill-opacity: 1; white-space: pre; opacity: 1;" transform="translate(0,205.92000000000002)">$20M</text></g><g class="ytick"><text text-anchor="end" x="79" y="4.199999999999999" style="font-family: 'Open Sans', verdana, arial, sans-serif; font-size: 12px; fill: rgb(42, 63, 95); fill-opacity: 1; white-space: pre; opacity: 1;" transform="translate(0,158.32)">$25M</text></g><g class="ytick"><text text-anchor="end" x="79" y="4.199999999999999" style="font-family: 'Open Sans', verdana, arial, sans-serif; font-size: 12px; fill: rgb(42, 63, 95); fill-opacity: 1; white-space: pre; opacity: 1;" transform="translate(0,110.71000000000001)">$30M</text></g></g><g class="overaxes-above"/></g></g><g class="polarlayer"/><g class="smithlayer"/><g class="ternarylayer"/><g class="geolayer"/><g class="funnelarealayer"/><g class="pielayer"/><g class="iciclelayer"/><g class="treemaplayer"/><g class="sunburstlayer"/><g class="glimages"/><defs id="topdefs-2b75ec"><g class="clips"/></defs><g class="layer-above"><g class="imagelayer"/><g class="shapelayer"/></g><g class="infolayer"><g class="g-gtitle"><text class="gtitle" x="35" y="50" text-anchor="start" dy="0em" style="font-family: 'Open Sans', verdana, arial, sans-serif; font-size: 17px; fill: rgb(42, 63, 95); opacity: 1; font-weight: normal; white-space: pre;"><tspan class="line" dy="0em" x="35" y="50">Synthetix - USDC/sUSD: Velodrome</tspan><tspan class="line" dy="1.3em" x="35" y="50">​<tspan style="font-size:70%" dy="-0.6em">Cumulative Net Flows since Program Announcement, Until Program End + 30 Days - At Last Price</tspan><tspan dy="0.42em">​</tspan></tspan></text></g><g class="g-xtitle"><text class="xtitle" x="350" y="460.8" text-anchor="middle" style="font-family: 'Open Sans', verdana, arial, sans-serif; font-size: 14px; fill: rgb(42, 63, 95); opacity: 1; font-weight: normal; white-space: pre;">Day</text></g><g class="g-ytitle"><text class="ytitle" transform="rotate(-90,24.168750000000003,260)" x="24.168750000000003" y="260" text-anchor="middle" style="font-family: 'Open Sans', verdana, arial, sans-serif; font-size: 14px; fill: rgb(42, 63, 95); opacity: 1; font-weight: normal; white-space: pre;">Cumulative Net Flows (USD)</text></g></g></svg>