<svg class="main-svg" xmlns="http://www.w3.org/2000/svg" xmlns:xlink="http://www.w3.org/1999/xlink" width="700" height="500" style="" viewBox="0 0 700 500"><rect x="0" y="0" width="700" height="500" style="fill: rgb(255, 255, 255); fill-opacity: 1;"/><defs id="defs-e05745"><g class="clips"><clipPath id="clipe05745xyplot" class="plotclip"><rect width="540" height="320"/></clipPath><clipPath class="axesclip" id="clipe05745x"><rect x="80" y="0" width="540" height="500"/></clipPath><clipPath class="axesclip" id="clipe05745y"><rect x="0" y="100" width="700" height="320"/></clipPath><clipPath class="axesclip" id="clipe05745xy"><rect x="80" y="100" width="540" height="320"/></clipPath></g><g class="gradients"/><g class="patterns"/></defs><g class="bglayer"><rect class="bg" x="80" y="100" width="540" height="320" style="fill: rgb(229, 236, 246); fill-opacity: 1; stroke-width: 0;"/></g><g class="layer-below"><g class="imagelayer"/><g class="shapelayer"/></g><g class="cartesianlayer"><g class="subplot xy"><g class="layer-subplot"><g class="shapelayer"/><g class="imagelayer"/></g><g class="minor-gridlayer"><g class="x"/><g class="y"/></g><g class="gridlayer"><g class="x"><path class="xgrid crisp" transform="translate(106.81,0)" d="M0,100v320" style="stroke: rgb(255, 255, 255); stroke-opacity: 1; stroke-width: 1px;"/><path class="xgrid crisp" transform="translate(221.7,0)" d="M0,100v320" style="stroke: rgb(255, 255, 255); stroke-opacity: 1; stroke-width: 1px;"/><path class="xgrid crisp" transform="translate(340.43,0)" d="M0,100v320" style="stroke: rgb(255, 255, 255); stroke-opacity: 1; stroke-width: 1px;"/><path class="xgrid crisp" transform="translate(455.32,0)" d="M0,100v320" style="stroke: rgb(255, 255, 255); stroke-opacity: 1; stroke-width: 1px;"/><path class="xgrid crisp" transform="translate(574.04,0)" d="M0,100v320" style="stroke: rgb(255, 255, 255); stroke-opacity: 1; stroke-width: 1px;"/></g><g class="y"><path class="ygrid crisp" transform="translate(0,366.3)" d="M80,0h540" style="stroke: rgb(255, 255, 255); stroke-opacity: 1; stroke-width: 1px;"/><path class="ygrid crisp" transform="translate(0,328.69)" d="M80,0h540" style="stroke: rgb(255, 255, 255); stroke-opacity: 1; stroke-width: 1px;"/><path class="ygrid crisp" transform="translate(0,291.09000000000003)" d="M80,0h540" style="stroke: rgb(255, 255, 255); stroke-opacity: 1; stroke-width: 1px;"/><path class="ygrid crisp" transform="translate(0,253.48)" d="M80,0h540" style="stroke: rgb(255, 255, 255); stroke-opacity: 1; stroke-width: 1px;"/><path class="ygrid crisp" transform="translate(0,215.87)" d="M80,0h540" style="stroke: rgb(255, 255, 255); stroke-opacity: 1; stroke-width: 1px;"/><path class="ygrid crisp" transform="translate(0,178.26)" d="M80,0h540" style="stroke: rgb(255, 255, 255); stroke-opacity: 1; stroke-width: 1px;"/><path class="ygrid crisp" transform="translate(0,140.66)" d="M80,0h540" style="stroke: rgb(255, 255, 255); stroke-opacity: 1; stroke-width: 1px;"/><path class="ygrid crisp" transform="translate(0,103.05)" d="M80,0h540" style="stroke: rgb(255, 255, 255); stroke-opacity: 1; stroke-width: 1px;"/></g></g><g class="zerolinelayer"><path class="yzl zl crisp" transform="translate(0,403.91)" d="M80,0h540" style="stroke: rgb(255, 255, 255); stroke-opacity: 1; stroke-width: 2px;"/></g><path class="xlines-below"/><path class="ylines-below"/><g class="overlines-below"/><g class="xaxislayer-below"/><g class="yaxislayer-below"/><g class="overaxes-below"/><g class="plot" transform="translate(80,100)" clip-path="url(#clipe05745xyplot)"><g class="scatterlayer mlayer"><g class="trace scatter trace37dd77" style="stroke-miterlimit: 2;"><g class="fills"><g><path class="js-fill" d="M540,303.91L0,303.91L0,304L3.83,222.26L7.66,205.93L11.49,199.58L15.32,199.45L19.15,187.55L22.98,182.16L26.81,179.33L30.64,182.76L34.47,170.67L38.3,165.88L42.13,159.21L45.96,176.96L49.79,171.78L53.62,176.57L57.45,157.1L61.28,148.58L65.11,143.35L68.94,141.67L72.77,147.13L76.6,155.09L80.43,157.56L84.26,130.1L88.09,113.28L91.91,110.61L95.74,105.38L99.57,115.87L103.4,115.51L107.23,109.73L111.06,109.17L114.89,109.64L118.72,111.31L122.55,107.98L126.38,106.77L130.21,49.62L134.04,53.65L137.87,65.71L141.7,63.2L145.53,63.02L153.19,68.44L157.02,70.08L160.85,84.59L164.68,77.32L168.51,94.37L172.34,94.34L176.17,96.68L180,103.94L183.83,98.42L187.66,98.33L191.49,97.01L195.32,92.32L202.98,91.52L206.81,88.09L210.64,91.04L214.47,90.58L218.3,90.6L222.13,91.43L229.79,91.07L233.62,91.14L237.45,88.13L241.28,89.56L245.11,114.72L248.94,110.39L252.77,87.17L256.6,87.16L268.09,86.85L271.91,87.47L275.74,88.12L279.57,89.94L283.4,86.13L287.23,85.78L291.06,164.05L294.89,174.19L298.72,152.77L302.55,140.81L306.38,153.34L310.21,132.89L317.87,128.47L321.7,132.3L325.53,140.88L329.36,138.87L333.19,136.95L337.02,140.67L340.85,141.71L344.68,140.99L348.51,129.72L352.34,130.59L356.17,128.54L360,128.26L371.49,128.28L375.32,127.87L379.15,122.8L382.98,122.95L386.81,114.66L390.64,113.67L394.47,102.98L398.3,77.29L402.13,65.4L405.96,66.27L409.79,62.55L413.62,62.34L417.45,59.43L421.28,52.1L425.11,50.69L428.94,41.49L432.77,35.3L436.6,43.43L444.26,43.54L448.09,49.99L451.91,75.37L455.74,76.2L459.57,77.12L463.4,75.44L474.89,75.53L478.72,86.74L482.55,86.52L486.38,79.98L490.21,52.89L494.04,47.3L497.87,56.09L501.7,55.94L505.53,66.87L509.36,67.89L513.19,62.04L517.02,62.09L520.85,69.03L524.68,65L528.51,38.9L532.34,18.94L536.17,16L540,26.37" style="fill: rgb(99, 110, 250); fill-opacity: 0.5; stroke-width: 0;"/></g></g><g class="errorbars"/><g class="lines"><path class="js-line" d="M0,304L3.83,222.26L7.66,205.93L11.49,199.58L15.32,199.45L19.15,187.55L22.98,182.16L26.81,179.33L30.64,182.76L34.47,170.67L38.3,165.88L42.13,159.21L45.96,176.96L49.79,171.78L53.62,176.57L57.45,157.1L61.28,148.58L65.11,143.35L68.94,141.67L72.77,147.13L76.6,155.09L80.43,157.56L84.26,130.1L88.09,113.28L91.91,110.61L95.74,105.38L99.57,115.87L103.4,115.51L107.23,109.73L111.06,109.17L114.89,109.64L118.72,111.31L122.55,107.98L126.38,106.77L130.21,49.62L134.04,53.65L137.87,65.71L141.7,63.2L145.53,63.02L153.19,68.44L157.02,70.08L160.85,84.59L164.68,77.32L168.51,94.37L172.34,94.34L176.17,96.68L180,103.94L183.83,98.42L187.66,98.33L191.49,97.01L195.32,92.32L202.98,91.52L206.81,88.09L210.64,91.04L214.47,90.58L218.3,90.6L222.13,91.43L229.79,91.07L233.62,91.14L237.45,88.13L241.28,89.56L245.11,114.72L248.94,110.39L252.77,87.17L256.6,87.16L268.09,86.85L271.91,87.47L275.74,88.12L279.57,89.94L283.4,86.13L287.23,85.78L291.06,164.05L294.89,174.19L298.72,152.77L302.55,140.81L306.38,153.34L310.21,132.89L317.87,128.47L321.7,132.3L325.53,140.88L329.36,138.87L333.19,136.95L337.02,140.67L340.85,141.71L344.68,140.99L348.51,129.72L352.34,130.59L356.17,128.54L360,128.26L371.49,128.28L375.32,127.87L379.15,122.8L382.98,122.95L386.81,114.66L390.64,113.67L394.47,102.98L398.3,77.29L402.13,65.4L405.96,66.27L409.79,62.55L413.62,62.34L417.45,59.43L421.28,52.1L425.11,50.69L428.94,41.49L432.77,35.3L436.6,43.43L444.26,43.54L448.09,49.99L451.91,75.37L455.74,76.2L459.57,77.12L463.4,75.44L474.89,75.53L478.72,86.74L482.55,86.52L486.38,79.98L490.21,52.89L494.04,47.3L497.87,56.09L501.7,55.94L505.53,66.87L509.36,67.89L513.19,62.04L517.02,62.09L520.85,69.03L524.68,65L528.51,38.9L532.34,18.94L536.17,16L540,26.37" style="vector-effect: non-scaling-stroke; fill: none; stroke: rgb(99, 110, 250); stroke-opacity: 1; stroke-width: 2px; opacity: 1;"/></g><g class="points"/><g class="text"/></g></g></g><g class="overplot"/><path class="xlines-above crisp" d="M0,0" style="fill: none;"/><path class="ylines-above crisp" d="M0,0" style="fill: none;"/><g class="overlines-above"/><g class="xaxislayer-above"><g class="xtick"><text text-anchor="middle" x="0" y="433" transform="translate(106.81,0)" style="font-family: 'Open Sans', verdana, arial, sans-serif; font-size: 12px; fill: rgb(42, 63, 95); fill-opacity: 1; white-space: pre; opacity: 1;">Sep 2022</text></g><g class="xtick"><text text-anchor="middle" x="0" y="433" style="font-family: 'Open Sans', verdana, arial, sans-serif; font-size: 12px; fill: rgb(42, 63, 95); fill-opacity: 1; white-space: pre; opacity: 1;" transform="translate(221.7,0)">Oct 2022</text></g><g class="xtick"><text text-anchor="middle" x="0" y="433" style="font-family: 'Open Sans', verdana, arial, sans-serif; font-size: 12px; fill: rgb(42, 63, 95); fill-opacity: 1; white-space: pre; opacity: 1;" transform="translate(340.43,0)">Nov 2022</text></g><g class="xtick"><text text-anchor="middle" x="0" y="433" style="font-family: 'Open Sans', verdana, arial, sans-serif; font-size: 12px; fill: rgb(42, 63, 95); fill-opacity: 1; white-space: pre; opacity: 1;" transform="translate(455.32,0)">Dec 2022</text></g><g class="xtick"><text text-anchor="middle" x="0" y="433" style="font-family: 'Open Sans', verdana, arial, sans-serif; font-size: 12px; fill: rgb(42, 63, 95); fill-opacity: 1; white-space: pre; opacity: 1;" transform="translate(574.04,0)">Jan 2023</text></g></g><g class="yaxislayer-above"><g class="ytick"><text text-anchor="end" x="79" y="4.199999999999999" transform="translate(0,403.91)" style="font-family: 'Open Sans', verdana, arial, sans-serif; font-size: 12px; fill: rgb(42, 63, 95); fill-opacity: 1; white-space: pre; opacity: 1;">$0</text></g><g class="ytick"><text text-anchor="end" x="79" y="4.199999999999999" style="font-family: 'Open Sans', verdana, arial, sans-serif; font-size: 12px; fill: rgb(42, 63, 95); fill-opacity: 1; white-space: pre; opacity: 1;" transform="translate(0,366.3)">$2M</text></g><g class="ytick"><text text-anchor="end" x="79" y="4.199999999999999" style="font-family: 'Open Sans', verdana, arial, sans-serif; font-size: 12px; fill: rgb(42, 63, 95); fill-opacity: 1; white-space: pre; opacity: 1;" transform="translate(0,328.69)">$4M</text></g><g class="ytick"><text text-anchor="end" x="79" y="4.199999999999999" style="font-family: 'Open Sans', verdana, arial, sans-serif; font-size: 12px; fill: rgb(42, 63, 95); fill-opacity: 1; white-space: pre; opacity: 1;" transform="translate(0,291.09000000000003)">$6M</text></g><g class="ytick"><text text-anchor="end" x="79" y="4.199999999999999" style="font-family: 'Open Sans', verdana, arial, sans-serif; font-size: 12px; fill: rgb(42, 63, 95); fill-opacity: 1; white-space: pre; opacity: 1;" transform="translate(0,253.48)">$8M</text></g><g class="ytick"><text text-anchor="end" x="79" y="4.199999999999999" style="font-family: 'Open Sans', verdana, arial, sans-serif; font-size: 12px; fill: rgb(42, 63, 95); fill-opacity: 1; white-space: pre; opacity: 1;" transform="translate(0,215.87)">$10M</text></g><g class="ytick"><text text-anchor="end" x="79" y="4.199999999999999" style="font-family: 'Open Sans', verdana, arial, sans-serif; font-size: 12px; fill: rgb(42, 63, 95); fill-opacity: 1; white-space: pre; opacity: 1;" transform="translate(0,178.26)">$12M</text></g><g class="ytick"><text text-anchor="end" x="79" y="4.199999999999999" style="font-family: 'Open Sans', verdana, arial, sans-serif; font-size: 12px; fill: rgb(42, 63, 95); fill-opacity: 1; white-space: pre; opacity: 1;" transform="translate(0,140.66)">$14M</text></g><g class="ytick"><text text-anchor="end" x="79" y="4.199999999999999" style="font-family: 'Open Sans', verdana, arial, sans-serif; font-size: 12px; fill: rgb(42, 63, 95); fill-opacity: 1; white-space: pre; opacity: 1;" transform="translate(0,103.05)">$16M</text></g></g><g class="overaxes-above"/></g></g><g class="polarlayer"/><g class="smithlayer"/><g class="ternarylayer"/><g class="geolayer"/><g class="funnelarealayer"/><g class="pielayer"/><g class="iciclelayer"/><g class="treemaplayer"/><g class="sunburstlayer"/><g class="glimages"/><defs id="topdefs-e05745"><g class="clips"/></defs><g class="layer-above"><g class="imagelayer"/><g class="shapelayer"/></g><g class="infolayer"><g class="g-gtitle"><text class="gtitle" x="35" y="50" text-anchor="start" dy="0em" style="font-family: 'Open Sans', verdana, arial, sans-serif; font-size: 17px; fill: rgb(42, 63, 95); opacity: 1; font-weight: normal; white-space: pre;"><tspan class="line" dy="0em" x="35" y="50">Synthetix - sETH-ETH: Curve</tspan><tspan class="line" dy="1.3em" x="35" y="50">​<tspan style="font-size:70%" dy="-0.6em">Cumulative Net Dollar Flow since Program Announcement, Until Program End + 30 Days - At Last Price</tspan><tspan dy="0.42em">​</tspan></tspan></text></g><g class="g-xtitle"><text class="xtitle" x="350" y="460.8" text-anchor="middle" style="font-family: 'Open Sans', verdana, arial, sans-serif; font-size: 14px; fill: rgb(42, 63, 95); opacity: 1; font-weight: normal; white-space: pre;">Day</text></g><g class="g-ytitle"><text class="ytitle" transform="rotate(-90,24.168750000000003,260)" x="24.168750000000003" y="260" text-anchor="middle" style="font-family: 'Open Sans', verdana, arial, sans-serif; font-size: 14px; fill: rgb(42, 63, 95); opacity: 1; font-weight: normal; white-space: pre;">Cumulative Net Dollar Flow (N$F)</text></g></g></svg>