<svg class="main-svg" xmlns="http://www.w3.org/2000/svg" xmlns:xlink="http://www.w3.org/1999/xlink" width="700" height="500" style="" viewBox="0 0 700 500"><rect x="0" y="0" width="700" height="500" style="fill: rgb(255, 255, 255); fill-opacity: 1;"/><defs id="defs-a855fc"><g class="clips"><clipPath id="clipa855fcxyplot" class="plotclip"><rect width="540" height="320"/></clipPath><clipPath class="axesclip" id="clipa855fcx"><rect x="80" y="0" width="540" height="500"/></clipPath><clipPath class="axesclip" id="clipa855fcy"><rect x="0" y="100" width="700" height="320"/></clipPath><clipPath class="axesclip" id="clipa855fcxy"><rect x="80" y="100" width="540" height="320"/></clipPath></g><g class="gradients"/><g class="patterns"/></defs><g class="bglayer"><rect class="bg" x="80" y="100" width="540" height="320" style="fill: rgb(229, 236, 246); fill-opacity: 1; stroke-width: 0;"/></g><g class="layer-below"><g class="imagelayer"/><g class="shapelayer"/></g><g class="cartesianlayer"><g class="subplot xy"><g class="layer-subplot"><g class="shapelayer"/><g class="imagelayer"/></g><g class="minor-gridlayer"><g class="x"/><g class="y"/></g><g class="gridlayer"><g class="x"><path class="xgrid crisp" transform="translate(175.81,0)" d="M0,100v320" style="stroke: rgb(255, 255, 255); stroke-opacity: 1; stroke-width: 1px;"/><path class="xgrid crisp" transform="translate(310.81,0)" d="M0,100v320" style="stroke: rgb(255, 255, 255); stroke-opacity: 1; stroke-width: 1px;"/><path class="xgrid crisp" transform="translate(445.81,0)" d="M0,100v320" style="stroke: rgb(255, 255, 255); stroke-opacity: 1; stroke-width: 1px;"/><path class="xgrid crisp" transform="translate(567.74,0)" d="M0,100v320" style="stroke: rgb(255, 255, 255); stroke-opacity: 1; stroke-width: 1px;"/></g><g class="y"><path class="ygrid crisp" transform="translate(0,330.15)" d="M80,0h540" style="stroke: rgb(255, 255, 255); stroke-opacity: 1; stroke-width: 1px;"/><path class="ygrid crisp" transform="translate(0,256.46000000000004)" d="M80,0h540" style="stroke: rgb(255, 255, 255); stroke-opacity: 1; stroke-width: 1px;"/><path class="ygrid crisp" transform="translate(0,182.76)" d="M80,0h540" style="stroke: rgb(255, 255, 255); stroke-opacity: 1; stroke-width: 1px;"/><path class="ygrid crisp" transform="translate(0,109.06)" d="M80,0h540" style="stroke: rgb(255, 255, 255); stroke-opacity: 1; stroke-width: 1px;"/></g></g><g class="zerolinelayer"><path class="yzl zl crisp" transform="translate(0,403.85)" d="M80,0h540" style="stroke: rgb(255, 255, 255); stroke-opacity: 1; stroke-width: 2px;"/></g><path class="xlines-below"/><path class="ylines-below"/><g class="overlines-below"/><g class="xaxislayer-below"/><g class="yaxislayer-below"/><g class="overaxes-below"/><g class="plot" transform="translate(80,100)" clip-path="url(#clipa855fcxyplot)"><g class="scatterlayer mlayer"><g class="trace scatter trace67a1b5" style="stroke-miterlimit: 2;"><g class="fills"><g><path class="js-fill" d="M540,303.85L0,303.85L0,304L8.71,296.57L13.06,294.71L26.13,293.71L30.48,293.86L34.84,293.52L39.19,294.31L52.26,292.57L56.61,290.83L60.97,290.28L65.32,288.96L69.68,290.44L74.03,290.62L95.81,291.76L100.16,291.66L113.23,291.19L117.58,289.83L121.94,292.89L126.29,292.39L135,292.16L139.35,291.71L143.71,291.76L148.06,294.07L152.42,295.59L156.77,295.29L161.13,293.43L165.48,293.18L182.9,292.49L187.26,289.34L191.61,290.16L195.97,289.32L200.32,287.57L204.68,287.44L209.03,286.9L213.39,287.13L217.74,286.58L222.1,283.05L230.81,283.11L235.16,278.93L239.52,278.3L243.87,282.93L248.23,279.74L252.58,280.34L256.94,279.58L261.29,279.61L265.65,280.4L270,280.39L274.35,277.24L278.71,275.07L283.06,275.8L287.42,272.31L291.77,271.89L296.13,269.5L300.48,267.19L304.84,266.91L313.55,268.75L317.9,265.9L322.26,263.94L326.61,239.26L330.97,241.67L335.32,241.27L339.68,233.92L344.03,233.44L348.39,234.06L352.74,224.83L357.1,279.34L361.45,282.33L365.81,278.12L370.16,259.2L374.52,259.27L378.87,258.04L383.23,248.74L387.58,247.77L391.94,202.15L396.29,200.5L400.65,186.66L405,187.79L409.35,174L413.71,174.48L418.06,131.86L422.42,132.47L426.77,130.97L431.13,130.44L435.48,113.47L439.84,113.44L444.19,115.15L448.55,90.62L452.9,90.7L457.26,88.35L461.61,87.18L465.97,76.5L470.32,57.63L474.68,55.4L483.39,54.32L487.74,49.62L492.1,49.54L496.45,35L505.16,35.81L509.52,26.22L513.87,23.14L518.23,22.05L522.58,16L526.94,25.38L531.29,25.64L535.65,30.42L540,30.42" style="fill: rgb(99, 110, 250); fill-opacity: 0.5; stroke-width: 0;"/></g></g><g class="errorbars"/><g class="lines"><path class="js-line" d="M0,304L8.71,296.57L13.06,294.71L26.13,293.71L30.48,293.86L34.84,293.52L39.19,294.31L52.26,292.57L56.61,290.83L60.97,290.28L65.32,288.96L69.68,290.44L74.03,290.62L95.81,291.76L100.16,291.66L113.23,291.19L117.58,289.83L121.94,292.89L126.29,292.39L135,292.16L139.35,291.71L143.71,291.76L148.06,294.07L152.42,295.59L156.77,295.29L161.13,293.43L165.48,293.18L182.9,292.49L187.26,289.34L191.61,290.16L195.97,289.32L200.32,287.57L204.68,287.44L209.03,286.9L213.39,287.13L217.74,286.58L222.1,283.05L230.81,283.11L235.16,278.93L239.52,278.3L243.87,282.93L248.23,279.74L252.58,280.34L256.94,279.58L261.29,279.61L265.65,280.4L270,280.39L274.35,277.24L278.71,275.07L283.06,275.8L287.42,272.31L291.77,271.89L296.13,269.5L300.48,267.19L304.84,266.91L313.55,268.75L317.9,265.9L322.26,263.94L326.61,239.26L330.97,241.67L335.32,241.27L339.68,233.92L344.03,233.44L348.39,234.06L352.74,224.83L357.1,279.34L361.45,282.33L365.81,278.12L370.16,259.2L374.52,259.27L378.87,258.04L383.23,248.74L387.58,247.77L391.94,202.15L396.29,200.5L400.65,186.66L405,187.79L409.35,174L413.71,174.48L418.06,131.86L422.42,132.47L426.77,130.97L431.13,130.44L435.48,113.47L439.84,113.44L444.19,115.15L448.55,90.62L452.9,90.7L457.26,88.35L461.61,87.18L465.97,76.5L470.32,57.63L474.68,55.4L483.39,54.32L487.74,49.62L492.1,49.54L496.45,35L505.16,35.81L509.52,26.22L513.87,23.14L518.23,22.05L522.58,16L526.94,25.38L531.29,25.64L535.65,30.42L540,30.42" style="vector-effect: non-scaling-stroke; fill: none; stroke: rgb(99, 110, 250); stroke-opacity: 1; stroke-width: 2px; opacity: 1;"/></g><g class="points"/><g class="text"/></g></g></g><g class="overplot"/><path class="xlines-above crisp" d="M0,0" style="fill: none;"/><path class="ylines-above crisp" d="M0,0" style="fill: none;"/><g class="overlines-above"/><g class="xaxislayer-above"><g class="xtick"><text text-anchor="middle" x="0" y="433" transform="translate(175.81,0)" style="font-family: 'Open Sans', verdana, arial, sans-serif; font-size: 12px; fill: rgb(42, 63, 95); fill-opacity: 1; white-space: pre; opacity: 1;">Dec 2022</text></g><g class="xtick"><text text-anchor="middle" x="0" y="433" style="font-family: 'Open Sans', verdana, arial, sans-serif; font-size: 12px; fill: rgb(42, 63, 95); fill-opacity: 1; white-space: pre; opacity: 1;" transform="translate(310.81,0)">Jan 2023</text></g><g class="xtick"><text text-anchor="middle" x="0" y="433" style="font-family: 'Open Sans', verdana, arial, sans-serif; font-size: 12px; fill: rgb(42, 63, 95); fill-opacity: 1; white-space: pre; opacity: 1;" transform="translate(445.81,0)">Feb 2023</text></g><g class="xtick"><text text-anchor="middle" x="0" y="433" style="font-family: 'Open Sans', verdana, arial, sans-serif; font-size: 12px; fill: rgb(42, 63, 95); fill-opacity: 1; white-space: pre; opacity: 1;" transform="translate(567.74,0)">Mar 2023</text></g></g><g class="yaxislayer-above"><g class="ytick"><text text-anchor="end" x="79" y="4.199999999999999" transform="translate(0,403.85)" style="font-family: 'Open Sans', verdana, arial, sans-serif; font-size: 12px; fill: rgb(42, 63, 95); fill-opacity: 1; white-space: pre; opacity: 1;">$0</text></g><g class="ytick"><text text-anchor="end" x="79" y="4.199999999999999" style="font-family: 'Open Sans', verdana, arial, sans-serif; font-size: 12px; fill: rgb(42, 63, 95); fill-opacity: 1; white-space: pre; opacity: 1;" transform="translate(0,330.15)">$5M</text></g><g class="ytick"><text text-anchor="end" x="79" y="4.199999999999999" style="font-family: 'Open Sans', verdana, arial, sans-serif; font-size: 12px; fill: rgb(42, 63, 95); fill-opacity: 1; white-space: pre; opacity: 1;" transform="translate(0,256.46000000000004)">$10M</text></g><g class="ytick"><text text-anchor="end" x="79" y="4.199999999999999" style="font-family: 'Open Sans', verdana, arial, sans-serif; font-size: 12px; fill: rgb(42, 63, 95); fill-opacity: 1; white-space: pre; opacity: 1;" transform="translate(0,182.76)">$15M</text></g><g class="ytick"><text text-anchor="end" x="79" y="4.199999999999999" style="font-family: 'Open Sans', verdana, arial, sans-serif; font-size: 12px; fill: rgb(42, 63, 95); fill-opacity: 1; white-space: pre; opacity: 1;" transform="translate(0,109.06)">$20M</text></g></g><g class="overaxes-above"/></g></g><g class="polarlayer"/><g class="smithlayer"/><g class="ternarylayer"/><g class="geolayer"/><g class="funnelarealayer"/><g class="pielayer"/><g class="iciclelayer"/><g class="treemaplayer"/><g class="sunburstlayer"/><g class="glimages"/><defs id="topdefs-a855fc"><g class="clips"/></defs><g class="layer-above"><g class="imagelayer"/><g class="shapelayer"/></g><g class="infolayer"><g class="g-gtitle"><text class="gtitle" x="35" y="50" text-anchor="start" dy="0em" style="font-family: 'Open Sans', verdana, arial, sans-serif; font-size: 17px; fill: rgb(42, 63, 95); opacity: 1; font-weight: normal; white-space: pre;"><tspan class="line" dy="0em" x="35" y="50">Rocket Pool - WETH/rETH: Beethoven X</tspan><tspan class="line" dy="1.3em" x="35" y="50">​<tspan style="font-size:70%" dy="-0.6em">Cumulative Net Flows since Program Announcement, Until Program End + 30 Days - At Last Price</tspan><tspan dy="0.42em">​</tspan></tspan></text></g><g class="g-xtitle"><text class="xtitle" x="350" y="460.8" text-anchor="middle" style="font-family: 'Open Sans', verdana, arial, sans-serif; font-size: 14px; fill: rgb(42, 63, 95); opacity: 1; font-weight: normal; white-space: pre;">Day</text></g><g class="g-ytitle"><text class="ytitle" transform="rotate(-90,24.168750000000003,260)" x="24.168750000000003" y="260" text-anchor="middle" style="font-family: 'Open Sans', verdana, arial, sans-serif; font-size: 14px; fill: rgb(42, 63, 95); opacity: 1; font-weight: normal; white-space: pre;">Cumulative Net Flows (USD)</text></g></g></svg>