<svg class="main-svg" xmlns="http://www.w3.org/2000/svg" xmlns:xlink="http://www.w3.org/1999/xlink" width="700" height="500" style="" viewBox="0 0 700 500"><rect x="0" y="0" width="700" height="500" style="fill: rgb(255, 255, 255); fill-opacity: 1;"/><defs id="defs-1404a7"><g class="clips"><clipPath id="clip1404a7xyplot" class="plotclip"><rect width="540" height="320"/></clipPath><clipPath class="axesclip" id="clip1404a7x"><rect x="80" y="0" width="540" height="500"/></clipPath><clipPath class="axesclip" id="clip1404a7y"><rect x="0" y="100" width="700" height="320"/></clipPath><clipPath class="axesclip" id="clip1404a7xy"><rect x="80" y="100" width="540" height="320"/></clipPath></g><g class="gradients"/><g class="patterns"/></defs><g class="bglayer"><rect class="bg" x="80" y="100" width="540" height="320" style="fill: rgb(229, 236, 246); fill-opacity: 1; stroke-width: 0;"/></g><g class="layer-below"><g class="imagelayer"/><g class="shapelayer"/></g><g class="cartesianlayer"><g class="subplot xy"><g class="layer-subplot"><g class="shapelayer"/><g class="imagelayer"/></g><g class="minor-gridlayer"><g class="x"/><g class="y"/></g><g class="gridlayer"><g class="x"><path class="xgrid crisp" transform="translate(143.53,0)" d="M0,100v320" style="stroke: rgb(255, 255, 255); stroke-opacity: 1; stroke-width: 1px;"/><path class="xgrid crisp" transform="translate(252.94,0)" d="M0,100v320" style="stroke: rgb(255, 255, 255); stroke-opacity: 1; stroke-width: 1px;"/><path class="xgrid crisp" transform="translate(358.82,0)" d="M0,100v320" style="stroke: rgb(255, 255, 255); stroke-opacity: 1; stroke-width: 1px;"/><path class="xgrid crisp" transform="translate(468.24,0)" d="M0,100v320" style="stroke: rgb(255, 255, 255); stroke-opacity: 1; stroke-width: 1px;"/><path class="xgrid crisp" transform="translate(574.12,0)" d="M0,100v320" style="stroke: rgb(255, 255, 255); stroke-opacity: 1; stroke-width: 1px;"/></g><g class="y"><path class="ygrid crisp" transform="translate(0,373.95)" d="M80,0h540" style="stroke: rgb(255, 255, 255); stroke-opacity: 1; stroke-width: 1px;"/><path class="ygrid crisp" transform="translate(0,322.46000000000004)" d="M80,0h540" style="stroke: rgb(255, 255, 255); stroke-opacity: 1; stroke-width: 1px;"/><path class="ygrid crisp" transform="translate(0,270.96000000000004)" d="M80,0h540" style="stroke: rgb(255, 255, 255); stroke-opacity: 1; stroke-width: 1px;"/><path class="ygrid crisp" transform="translate(0,219.47)" d="M80,0h540" style="stroke: rgb(255, 255, 255); stroke-opacity: 1; stroke-width: 1px;"/><path class="ygrid crisp" transform="translate(0,167.98000000000002)" d="M80,0h540" style="stroke: rgb(255, 255, 255); stroke-opacity: 1; stroke-width: 1px;"/></g></g><g class="zerolinelayer"><path class="yzl zl crisp" transform="translate(0,116.48)" d="M80,0h540" style="stroke: rgb(255, 255, 255); stroke-opacity: 1; stroke-width: 2px;"/></g><path class="xlines-below"/><path class="ylines-below"/><g class="overlines-below"/><g class="xaxislayer-below"/><g class="yaxislayer-below"/><g class="overaxes-below"/><g class="plot" transform="translate(80,100)" clip-path="url(#clip1404a7xyplot)"><g class="scatterlayer mlayer"><g class="trace scatter tracea0da03" style="stroke-miterlimit: 2;"><g class="fills"><g><path class="js-fill" d="M540,16.48L0,16.48L0,17.7L3.53,16.82L7.06,16.72L14.12,16L17.65,83.07L21.18,78.13L24.71,76.96L28.24,79.63L31.76,80.83L35.29,77.44L38.82,77.56L42.35,77.4L45.88,80.91L52.94,80.34L56.47,80.16L60,80.25L63.53,81.28L67.06,81.34L70.59,83.52L74.12,75.98L77.65,73.69L81.18,71.83L84.71,74.39L88.24,76.7L91.76,74.46L95.29,76.01L98.82,75.37L102.35,73.42L105.88,69.12L109.41,69.44L112.94,68.63L116.47,67.95L120,68.04L123.53,65.79L127.06,65.21L130.59,64.81L134.12,65.79L141.18,66.24L144.71,70.23L148.24,70.41L151.76,73.62L155.29,74.61L158.82,72.71L162.35,72.56L165.88,78.52L169.41,78.85L172.94,80.36L180,81.8L183.53,81.74L194.12,81.42L197.65,81.01L201.18,75.85L204.71,76.05L211.76,76.21L215.29,73.87L218.82,73.94L222.35,79.14L232.94,77.57L236.47,77.93L243.53,76.92L247.06,76.49L250.59,72.09L254.12,72.67L275.29,71.84L278.82,69.99L285.88,69.86L289.41,69.19L307.06,69.16L310.59,69.17L324.71,68.26L328.24,67.44L338.82,67.51L342.35,65.12L345.88,65.08L349.41,66.09L356.47,66.4L360,67.01L367.06,69.58L370.59,70.13L377.65,72.51L381.18,73.05L384.71,73.08L388.24,75.08L391.76,74.25L395.29,74.72L398.82,79.27L402.35,79.01L409.41,78.95L412.94,78.16L416.47,80.86L420,80.94L423.53,90.97L427.06,92.43L430.59,94.98L434.12,95.91L441.18,102.22L444.71,102.04L448.24,122.24L451.76,126.14L458.82,125.15L462.35,125.76L465.88,124.69L469.41,127.49L480,127.2L483.53,125.53L487.06,129.22L490.59,129.22L494.12,131.83L497.65,132.26L501.18,135.06L504.71,128.88L508.24,128.67L511.76,130.9L515.29,130.24L518.82,128.58L522.35,128.41L525.88,131.1L536.47,130.81L540,130.3L540,304" style="fill: rgb(99, 110, 250); fill-opacity: 0.5; stroke-width: 0;"/></g></g><g class="errorbars"/><g class="lines"><path class="js-line" d="M0,17.7L3.53,16.82L7.06,16.72L14.12,16L17.65,83.07L21.18,78.13L24.71,76.96L28.24,79.63L31.76,80.83L35.29,77.44L38.82,77.56L42.35,77.4L45.88,80.91L52.94,80.34L56.47,80.16L60,80.25L63.53,81.28L67.06,81.34L70.59,83.52L74.12,75.98L77.65,73.69L81.18,71.83L84.71,74.39L88.24,76.7L91.76,74.46L95.29,76.01L98.82,75.37L102.35,73.42L105.88,69.12L109.41,69.44L112.94,68.63L116.47,67.95L120,68.04L123.53,65.79L127.06,65.21L130.59,64.81L134.12,65.79L141.18,66.24L144.71,70.23L148.24,70.41L151.76,73.62L155.29,74.61L158.82,72.71L162.35,72.56L165.88,78.52L169.41,78.85L172.94,80.36L180,81.8L183.53,81.74L194.12,81.42L197.65,81.01L201.18,75.85L204.71,76.05L211.76,76.21L215.29,73.87L218.82,73.94L222.35,79.14L232.94,77.57L236.47,77.93L243.53,76.92L247.06,76.49L250.59,72.09L254.12,72.67L275.29,71.84L278.82,69.99L285.88,69.86L289.41,69.19L307.06,69.16L310.59,69.17L324.71,68.26L328.24,67.44L338.82,67.51L342.35,65.12L345.88,65.08L349.41,66.09L356.47,66.4L360,67.01L367.06,69.58L370.59,70.13L377.65,72.51L381.18,73.05L384.71,73.08L388.24,75.08L391.76,74.25L395.29,74.72L398.82,79.27L402.35,79.01L409.41,78.95L412.94,78.16L416.47,80.86L420,80.94L423.53,90.97L427.06,92.43L430.59,94.98L434.12,95.91L441.18,102.22L444.71,102.04L448.24,122.24L451.76,126.14L458.82,125.15L462.35,125.76L465.88,124.69L469.41,127.49L480,127.2L483.53,125.53L487.06,129.22L490.59,129.22L494.12,131.83L497.65,132.26L501.18,135.06L504.71,128.88L508.24,128.67L511.76,130.9L515.29,130.24L518.82,128.58L522.35,128.41L525.88,131.1L536.47,130.81L540,130.3L540,304" style="vector-effect: non-scaling-stroke; fill: none; stroke: rgb(99, 110, 250); stroke-opacity: 1; stroke-width: 2px; opacity: 1;"/></g><g class="points"/><g class="text"/></g></g></g><g class="overplot"/><path class="xlines-above crisp" d="M0,0" style="fill: none;"/><path class="ylines-above crisp" d="M0,0" style="fill: none;"/><g class="overlines-above"/><g class="xaxislayer-above"><g class="xtick"><text text-anchor="middle" x="0" y="433" transform="translate(143.53,0)" style="font-family: 'Open Sans', verdana, arial, sans-serif; font-size: 12px; fill: rgb(42, 63, 95); fill-opacity: 1; white-space: pre; opacity: 1;">Aug 2022</text></g><g class="xtick"><text text-anchor="middle" x="0" y="433" style="font-family: 'Open Sans', verdana, arial, sans-serif; font-size: 12px; fill: rgb(42, 63, 95); fill-opacity: 1; white-space: pre; opacity: 1;" transform="translate(252.94,0)">Sep 2022</text></g><g class="xtick"><text text-anchor="middle" x="0" y="433" style="font-family: 'Open Sans', verdana, arial, sans-serif; font-size: 12px; fill: rgb(42, 63, 95); fill-opacity: 1; white-space: pre; opacity: 1;" transform="translate(358.82,0)">Oct 2022</text></g><g class="xtick"><text text-anchor="middle" x="0" y="433" style="font-family: 'Open Sans', verdana, arial, sans-serif; font-size: 12px; fill: rgb(42, 63, 95); fill-opacity: 1; white-space: pre; opacity: 1;" transform="translate(468.24,0)">Nov 2022</text></g><g class="xtick"><text text-anchor="middle" x="0" y="433" style="font-family: 'Open Sans', verdana, arial, sans-serif; font-size: 12px; fill: rgb(42, 63, 95); fill-opacity: 1; white-space: pre; opacity: 1;" transform="translate(574.12,0)">Dec 2022</text></g></g><g class="yaxislayer-above"><g class="ytick"><text text-anchor="end" x="79" y="4.199999999999999" transform="translate(0,373.95)" style="font-family: 'Open Sans', verdana, arial, sans-serif; font-size: 12px; fill: rgb(42, 63, 95); fill-opacity: 1; white-space: pre; opacity: 1;">$−25M</text></g><g class="ytick"><text text-anchor="end" x="79" y="4.199999999999999" style="font-family: 'Open Sans', verdana, arial, sans-serif; font-size: 12px; fill: rgb(42, 63, 95); fill-opacity: 1; white-space: pre; opacity: 1;" transform="translate(0,322.46000000000004)">$−20M</text></g><g class="ytick"><text text-anchor="end" x="79" y="4.199999999999999" style="font-family: 'Open Sans', verdana, arial, sans-serif; font-size: 12px; fill: rgb(42, 63, 95); fill-opacity: 1; white-space: pre; opacity: 1;" transform="translate(0,270.96000000000004)">$−15M</text></g><g class="ytick"><text text-anchor="end" x="79" y="4.199999999999999" style="font-family: 'Open Sans', verdana, arial, sans-serif; font-size: 12px; fill: rgb(42, 63, 95); fill-opacity: 1; white-space: pre; opacity: 1;" transform="translate(0,219.47)">$−10M</text></g><g class="ytick"><text text-anchor="end" x="79" y="4.199999999999999" style="font-family: 'Open Sans', verdana, arial, sans-serif; font-size: 12px; fill: rgb(42, 63, 95); fill-opacity: 1; white-space: pre; opacity: 1;" transform="translate(0,167.98000000000002)">$−5M</text></g><g class="ytick"><text text-anchor="end" x="79" y="4.199999999999999" style="font-family: 'Open Sans', verdana, arial, sans-serif; font-size: 12px; fill: rgb(42, 63, 95); fill-opacity: 1; white-space: pre; opacity: 1;" transform="translate(0,116.48)">$0</text></g></g><g class="overaxes-above"/></g></g><g class="polarlayer"/><g class="smithlayer"/><g class="ternarylayer"/><g class="geolayer"/><g class="funnelarealayer"/><g class="pielayer"/><g class="iciclelayer"/><g class="treemaplayer"/><g class="sunburstlayer"/><g class="glimages"/><defs id="topdefs-1404a7"><g class="clips"/></defs><g class="layer-above"><g class="imagelayer"/><g class="shapelayer"/></g><g class="infolayer"><g class="g-gtitle"><text class="gtitle" x="35" y="50" text-anchor="start" dy="0em" style="font-family: 'Open Sans', verdana, arial, sans-serif; font-size: 17px; fill: rgb(42, 63, 95); opacity: 1; font-weight: normal; white-space: pre;">Perpetual Protocol: Cumulative Net Dollar Flow since Program Announcement - At Last Price</text></g><g class="g-xtitle"><text class="xtitle" x="350" y="460.8" text-anchor="middle" style="font-family: 'Open Sans', verdana, arial, sans-serif; font-size: 14px; fill: rgb(42, 63, 95); opacity: 1; font-weight: normal; white-space: pre;">Day</text></g><g class="g-ytitle"><text class="ytitle" transform="rotate(-90,17.168750000000003,260)" x="17.168750000000003" y="260" text-anchor="middle" style="font-family: 'Open Sans', verdana, arial, sans-serif; font-size: 14px; fill: rgb(42, 63, 95); opacity: 1; font-weight: normal; white-space: pre;">Cumulative Net Dollar Flow (N$F)</text></g></g></svg>