<svg class="main-svg" xmlns="http://www.w3.org/2000/svg" xmlns:xlink="http://www.w3.org/1999/xlink" width="700" height="500" style="" viewBox="0 0 700 500"><rect x="0" y="0" width="700" height="500" style="fill: rgb(255, 255, 255); fill-opacity: 1;"/><defs id="defs-7e6024"><g class="clips"><clipPath id="clip7e6024xyplot" class="plotclip"><rect width="540" height="320"/></clipPath><clipPath class="axesclip" id="clip7e6024x"><rect x="80" y="0" width="540" height="500"/></clipPath><clipPath class="axesclip" id="clip7e6024y"><rect x="0" y="100" width="700" height="320"/></clipPath><clipPath class="axesclip" id="clip7e6024xy"><rect x="80" y="100" width="540" height="320"/></clipPath></g><g class="gradients"/><g class="patterns"/></defs><g class="bglayer"><rect class="bg" x="80" y="100" width="540" height="320" style="fill: rgb(229, 236, 246); fill-opacity: 1; stroke-width: 0;"/></g><g class="layer-below"><g class="imagelayer"/><g class="shapelayer"/></g><g class="cartesianlayer"><g class="subplot xy"><g class="layer-subplot"><g class="shapelayer"/><g class="imagelayer"/></g><g class="minor-gridlayer"><g class="x"/><g class="y"/></g><g class="gridlayer"><g class="x"><path class="xgrid crisp" transform="translate(142.71,0)" d="M0,100v320" style="stroke: rgb(255, 255, 255); stroke-opacity: 1; stroke-width: 1px;"/><path class="xgrid crisp" transform="translate(250.71,0)" d="M0,100v320" style="stroke: rgb(255, 255, 255); stroke-opacity: 1; stroke-width: 1px;"/><path class="xgrid crisp" transform="translate(355.23,0)" d="M0,100v320" style="stroke: rgb(255, 255, 255); stroke-opacity: 1; stroke-width: 1px;"/><path class="xgrid crisp" transform="translate(463.23,0)" d="M0,100v320" style="stroke: rgb(255, 255, 255); stroke-opacity: 1; stroke-width: 1px;"/><path class="xgrid crisp" transform="translate(567.74,0)" d="M0,100v320" style="stroke: rgb(255, 255, 255); stroke-opacity: 1; stroke-width: 1px;"/></g><g class="y"><path class="ygrid crisp" transform="translate(0,416.11)" d="M80,0h540" style="stroke: rgb(255, 255, 255); stroke-opacity: 1; stroke-width: 1px;"/><path class="ygrid crisp" transform="translate(0,366.29)" d="M80,0h540" style="stroke: rgb(255, 255, 255); stroke-opacity: 1; stroke-width: 1px;"/><path class="ygrid crisp" transform="translate(0,316.46000000000004)" d="M80,0h540" style="stroke: rgb(255, 255, 255); stroke-opacity: 1; stroke-width: 1px;"/><path class="ygrid crisp" transform="translate(0,266.64)" d="M80,0h540" style="stroke: rgb(255, 255, 255); stroke-opacity: 1; stroke-width: 1px;"/><path class="ygrid crisp" transform="translate(0,216.81)" d="M80,0h540" style="stroke: rgb(255, 255, 255); stroke-opacity: 1; stroke-width: 1px;"/><path class="ygrid crisp" transform="translate(0,166.99)" d="M80,0h540" style="stroke: rgb(255, 255, 255); stroke-opacity: 1; stroke-width: 1px;"/></g></g><g class="zerolinelayer"><path class="yzl zl crisp" transform="translate(0,117.16)" d="M80,0h540" style="stroke: rgb(255, 255, 255); stroke-opacity: 1; stroke-width: 2px;"/></g><path class="xlines-below"/><path class="ylines-below"/><g class="overlines-below"/><g class="xaxislayer-below"/><g class="yaxislayer-below"/><g class="overaxes-below"/><g class="plot" transform="translate(80,100)" clip-path="url(#clip7e6024xyplot)"><g class="scatterlayer mlayer"><g class="trace scatter tracea99487" style="stroke-miterlimit: 2;"><g class="fills"><g><path class="js-fill" d="M540,17.16L0,17.16L0,20.12L3.48,17.98L6.97,17.74L10.45,16.16L13.94,16L17.42,178.25L20.9,166.28L24.39,163.46L27.87,169.91L31.35,172.81L34.84,164.61L41.81,164.53L45.29,173L48.77,173.18L52.26,171.62L59.23,171.42L62.71,173.92L66.19,174.06L69.68,179.33L73.16,161.09L76.65,155.55L80.13,151.06L83.61,157.25L87.1,162.82L90.58,157.41L94.06,161.17L97.55,159.61L101.03,154.9L104.52,144.5L108,145.27L111.48,143.3L114.97,141.65L118.45,141.89L121.94,136.44L125.42,135.04L128.9,134.06L132.39,136.43L139.35,137.52L142.84,147.18L146.32,147.61L149.81,155.38L153.29,157.77L156.77,153.17L160.26,152.82L163.74,167.23L167.23,168.04L170.71,171.69L174.19,174.3L177.68,175.16L184.65,174.87L188.13,176.02L195.1,173.26L198.58,160.78L209.03,161.65L212.52,155.99L216,156.16L219.48,168.73L226.45,165.12L229.94,164.94L233.42,165.8L236.9,165.32L240.39,163.35L243.87,162.33L247.35,151.68L250.84,153.08L268.26,151.63L271.74,151.08L275.23,146.6L278.71,146.57L282.19,146.28L285.68,144.65L289.16,145L292.65,144.1L296.13,145.19L299.61,144.49L310.06,144.13L313.55,143.69L317.03,143.82L320.52,142.42L324,140.43L327.48,140.35L330.97,139.24L334.45,140.6L337.94,134.82L341.42,134.73L344.9,137.16L348.39,136.76L355.35,139.38L358.84,143.33L362.32,145.6L365.81,146.93L369.29,150.48L372.77,152.69L376.26,154.01L379.74,154.08L383.23,158.92L386.71,156.9L390.19,158.05L393.68,169.04L397.16,168.41L400.65,168.85L404.13,168.28L407.61,166.35L411.1,172.88L414.58,173.1L418.06,197.35L421.55,200.87L425.03,207.05L428.52,209.29L432,215.96L435.48,224.56L438.97,224.12L442.45,272.99L445.94,282.42L449.42,281.73L452.9,280.03L456.39,281.49L459.87,278.92L463.35,285.69L470.32,284.91L473.81,284.99L477.29,280.95L480.77,289.87L484.26,289.88L487.74,296.18L491.23,297.23L494.71,304L498.19,289.06L501.68,288.55L505.16,293.94L508.65,292.33L512.13,288.33L515.61,287.92L519.1,294.42L522.58,294.54L529.55,293.72L533.03,292.51L536.52,297.4L540,297.01" style="fill: rgb(99, 110, 250); fill-opacity: 0.5; stroke-width: 0;"/></g></g><g class="errorbars"/><g class="lines"><path class="js-line" d="M0,20.12L3.48,17.98L6.97,17.74L10.45,16.16L13.94,16L17.42,178.25L20.9,166.28L24.39,163.46L27.87,169.91L31.35,172.81L34.84,164.61L41.81,164.53L45.29,173L48.77,173.18L52.26,171.62L59.23,171.42L62.71,173.92L66.19,174.06L69.68,179.33L73.16,161.09L76.65,155.55L80.13,151.06L83.61,157.25L87.1,162.82L90.58,157.41L94.06,161.17L97.55,159.61L101.03,154.9L104.52,144.5L108,145.27L111.48,143.3L114.97,141.65L118.45,141.89L121.94,136.44L125.42,135.04L128.9,134.06L132.39,136.43L139.35,137.52L142.84,147.18L146.32,147.61L149.81,155.38L153.29,157.77L156.77,153.17L160.26,152.82L163.74,167.23L167.23,168.04L170.71,171.69L174.19,174.3L177.68,175.16L184.65,174.87L188.13,176.02L195.1,173.26L198.58,160.78L209.03,161.65L212.52,155.99L216,156.16L219.48,168.73L226.45,165.12L229.94,164.94L233.42,165.8L236.9,165.32L240.39,163.35L243.87,162.33L247.35,151.68L250.84,153.08L268.26,151.63L271.74,151.08L275.23,146.6L278.71,146.57L282.19,146.28L285.68,144.65L289.16,145L292.65,144.1L296.13,145.19L299.61,144.49L310.06,144.13L313.55,143.69L317.03,143.82L320.52,142.42L324,140.43L327.48,140.35L330.97,139.24L334.45,140.6L337.94,134.82L341.42,134.73L344.9,137.16L348.39,136.76L355.35,139.38L358.84,143.33L362.32,145.6L365.81,146.93L369.29,150.48L372.77,152.69L376.26,154.01L379.74,154.08L383.23,158.92L386.71,156.9L390.19,158.05L393.68,169.04L397.16,168.41L400.65,168.85L404.13,168.28L407.61,166.35L411.1,172.88L414.58,173.1L418.06,197.35L421.55,200.87L425.03,207.05L428.52,209.29L432,215.96L435.48,224.56L438.97,224.12L442.45,272.99L445.94,282.42L449.42,281.73L452.9,280.03L456.39,281.49L459.87,278.92L463.35,285.69L470.32,284.91L473.81,284.99L477.29,280.95L480.77,289.87L484.26,289.88L487.74,296.18L491.23,297.23L494.71,304L498.19,289.06L501.68,288.55L505.16,293.94L508.65,292.33L512.13,288.33L515.61,287.92L519.1,294.42L522.58,294.54L529.55,293.72L533.03,292.51L536.52,297.4L540,297.01" style="vector-effect: non-scaling-stroke; fill: none; stroke: rgb(99, 110, 250); stroke-opacity: 1; stroke-width: 2px; opacity: 1;"/></g><g class="points"/><g class="text"/></g></g></g><g class="overplot"/><path class="xlines-above crisp" d="M0,0" style="fill: none;"/><path class="ylines-above crisp" d="M0,0" style="fill: none;"/><g class="overlines-above"/><g class="xaxislayer-above"><g class="xtick"><text text-anchor="middle" x="0" y="433" transform="translate(142.71,0)" style="font-family: 'Open Sans', verdana, arial, sans-serif; font-size: 12px; fill: rgb(42, 63, 95); fill-opacity: 1; white-space: pre; opacity: 1;">Aug 2022</text></g><g class="xtick"><text text-anchor="middle" x="0" y="433" style="font-family: 'Open Sans', verdana, arial, sans-serif; font-size: 12px; fill: rgb(42, 63, 95); fill-opacity: 1; white-space: pre; opacity: 1;" transform="translate(250.71,0)">Sep 2022</text></g><g class="xtick"><text text-anchor="middle" x="0" y="433" style="font-family: 'Open Sans', verdana, arial, sans-serif; font-size: 12px; fill: rgb(42, 63, 95); fill-opacity: 1; white-space: pre; opacity: 1;" transform="translate(355.23,0)">Oct 2022</text></g><g class="xtick"><text text-anchor="middle" x="0" y="433" style="font-family: 'Open Sans', verdana, arial, sans-serif; font-size: 12px; fill: rgb(42, 63, 95); fill-opacity: 1; white-space: pre; opacity: 1;" transform="translate(463.23,0)">Nov 2022</text></g><g class="xtick"><text text-anchor="middle" x="0" y="433" style="font-family: 'Open Sans', verdana, arial, sans-serif; font-size: 12px; fill: rgb(42, 63, 95); fill-opacity: 1; white-space: pre; opacity: 1;" transform="translate(567.74,0)">Dec 2022</text></g></g><g class="yaxislayer-above"><g class="ytick"><text text-anchor="end" x="79" y="4.199999999999999" transform="translate(0,416.11)" style="font-family: 'Open Sans', verdana, arial, sans-serif; font-size: 12px; fill: rgb(42, 63, 95); fill-opacity: 1; white-space: pre; opacity: 1;">$−12M</text></g><g class="ytick"><text text-anchor="end" x="79" y="4.199999999999999" style="font-family: 'Open Sans', verdana, arial, sans-serif; font-size: 12px; fill: rgb(42, 63, 95); fill-opacity: 1; white-space: pre; opacity: 1;" transform="translate(0,366.29)">$−10M</text></g><g class="ytick"><text text-anchor="end" x="79" y="4.199999999999999" style="font-family: 'Open Sans', verdana, arial, sans-serif; font-size: 12px; fill: rgb(42, 63, 95); fill-opacity: 1; white-space: pre; opacity: 1;" transform="translate(0,316.46000000000004)">$−8M</text></g><g class="ytick"><text text-anchor="end" x="79" y="4.199999999999999" style="font-family: 'Open Sans', verdana, arial, sans-serif; font-size: 12px; fill: rgb(42, 63, 95); fill-opacity: 1; white-space: pre; opacity: 1;" transform="translate(0,266.64)">$−6M</text></g><g class="ytick"><text text-anchor="end" x="79" y="4.199999999999999" style="font-family: 'Open Sans', verdana, arial, sans-serif; font-size: 12px; fill: rgb(42, 63, 95); fill-opacity: 1; white-space: pre; opacity: 1;" transform="translate(0,216.81)">$−4M</text></g><g class="ytick"><text text-anchor="end" x="79" y="4.199999999999999" style="font-family: 'Open Sans', verdana, arial, sans-serif; font-size: 12px; fill: rgb(42, 63, 95); fill-opacity: 1; white-space: pre; opacity: 1;" transform="translate(0,166.99)">$−2M</text></g><g class="ytick"><text text-anchor="end" x="79" y="4.199999999999999" style="font-family: 'Open Sans', verdana, arial, sans-serif; font-size: 12px; fill: rgb(42, 63, 95); fill-opacity: 1; white-space: pre; opacity: 1;" transform="translate(0,117.16)">$0</text></g></g><g class="overaxes-above"/></g></g><g class="polarlayer"/><g class="smithlayer"/><g class="ternarylayer"/><g class="geolayer"/><g class="funnelarealayer"/><g class="pielayer"/><g class="iciclelayer"/><g class="treemaplayer"/><g class="sunburstlayer"/><g class="glimages"/><defs id="topdefs-7e6024"><g class="clips"/></defs><g class="layer-above"><g class="imagelayer"/><g class="shapelayer"/></g><g class="infolayer"><g class="g-gtitle"><text class="gtitle" x="35" y="50" text-anchor="start" dy="0em" style="font-family: 'Open Sans', verdana, arial, sans-serif; font-size: 17px; fill: rgb(42, 63, 95); opacity: 1; font-weight: normal; white-space: pre;">Perpetual Protocol: Cumulative Net Dollar Flow since Program Announcement - At Last Price</text></g><g class="g-xtitle"><text class="xtitle" x="350" y="460.8" text-anchor="middle" style="font-family: 'Open Sans', verdana, arial, sans-serif; font-size: 14px; fill: rgb(42, 63, 95); opacity: 1; font-weight: normal; white-space: pre;">Day</text></g><g class="g-ytitle"><text class="ytitle" transform="rotate(-90,17.168750000000003,260)" x="17.168750000000003" y="260" text-anchor="middle" style="font-family: 'Open Sans', verdana, arial, sans-serif; font-size: 14px; fill: rgb(42, 63, 95); opacity: 1; font-weight: normal; white-space: pre;">Cumulative Net Dollar Flow (N$F)</text></g></g></svg>