<svg class="main-svg" xmlns="http://www.w3.org/2000/svg" xmlns:xlink="http://www.w3.org/1999/xlink" width="700" height="500" style="" viewBox="0 0 700 500"><rect x="0" y="0" width="700" height="500" style="fill: rgb(255, 255, 255); fill-opacity: 1;"/><defs id="defs-688dbb"><g class="clips"><clipPath id="clip688dbbxyplot" class="plotclip"><rect width="540" height="320"/></clipPath><clipPath class="axesclip" id="clip688dbbx"><rect x="80" y="0" width="540" height="500"/></clipPath><clipPath class="axesclip" id="clip688dbby"><rect x="0" y="100" width="700" height="320"/></clipPath><clipPath class="axesclip" id="clip688dbbxy"><rect x="80" y="100" width="540" height="320"/></clipPath></g><g class="gradients"/><g class="patterns"/></defs><g class="bglayer"><rect class="bg" x="80" y="100" width="540" height="320" style="fill: rgb(229, 236, 246); fill-opacity: 1; stroke-width: 0;"/></g><g class="layer-below"><g class="imagelayer"/><g class="shapelayer"/></g><g class="cartesianlayer"><g class="subplot xy"><g class="layer-subplot"><g class="shapelayer"/><g class="imagelayer"/></g><g class="minor-gridlayer"><g class="x"/><g class="y"/></g><g class="gridlayer"><g class="x"><path class="xgrid crisp" transform="translate(96.74,0)" d="M0,100v320" style="stroke: rgb(255, 255, 255); stroke-opacity: 1; stroke-width: 1px;"/><path class="xgrid crisp" transform="translate(226.51,0)" d="M0,100v320" style="stroke: rgb(255, 255, 255); stroke-opacity: 1; stroke-width: 1px;"/><path class="xgrid crisp" transform="translate(352.09,0)" d="M0,100v320" style="stroke: rgb(255, 255, 255); stroke-opacity: 1; stroke-width: 1px;"/><path class="xgrid crisp" transform="translate(481.86,0)" d="M0,100v320" style="stroke: rgb(255, 255, 255); stroke-opacity: 1; stroke-width: 1px;"/><path class="xgrid crisp" transform="translate(611.63,0)" d="M0,100v320" style="stroke: rgb(255, 255, 255); stroke-opacity: 1; stroke-width: 1px;"/></g><g class="y"><path class="ygrid crisp" transform="translate(0,341.96000000000004)" d="M80,0h540" style="stroke: rgb(255, 255, 255); stroke-opacity: 1; stroke-width: 1px;"/><path class="ygrid crisp" transform="translate(0,297.75)" d="M80,0h540" style="stroke: rgb(255, 255, 255); stroke-opacity: 1; stroke-width: 1px;"/><path class="ygrid crisp" transform="translate(0,253.54)" d="M80,0h540" style="stroke: rgb(255, 255, 255); stroke-opacity: 1; stroke-width: 1px;"/><path class="ygrid crisp" transform="translate(0,209.32999999999998)" d="M80,0h540" style="stroke: rgb(255, 255, 255); stroke-opacity: 1; stroke-width: 1px;"/><path class="ygrid crisp" transform="translate(0,165.12)" d="M80,0h540" style="stroke: rgb(255, 255, 255); stroke-opacity: 1; stroke-width: 1px;"/><path class="ygrid crisp" transform="translate(0,120.91)" d="M80,0h540" style="stroke: rgb(255, 255, 255); stroke-opacity: 1; stroke-width: 1px;"/></g></g><g class="zerolinelayer"><path class="yzl zl crisp" transform="translate(0,386.17)" d="M80,0h540" style="stroke: rgb(255, 255, 255); stroke-opacity: 1; stroke-width: 2px;"/></g><path class="xlines-below"/><path class="ylines-below"/><g class="overlines-below"/><g class="xaxislayer-below"/><g class="yaxislayer-below"/><g class="overaxes-below"/><g class="plot" transform="translate(80,100)" clip-path="url(#clip688dbbxyplot)"><g class="scatterlayer mlayer"><g class="trace scatter trace1b548e" style="stroke-miterlimit: 2;"><g class="fills"><g><path class="js-fill" d="M540,286.17L0,286.17L0,299.23L4.19,299.24L8.37,297.71L12.56,297.1L16.74,295.51L25.12,295.74L29.3,292.55L33.49,281.17L37.67,281.59L41.86,291.95L46.05,280.91L50.23,282.41L54.42,282.47L62.79,282.84L66.98,276.96L71.16,263.16L75.35,261.12L79.53,261.12L83.72,264.71L87.91,242.3L92.09,242.03L96.28,241.75L100.47,247.63L104.65,248.36L108.84,244.12L113.02,245.22L117.21,247.94L121.4,261.24L125.58,253.53L129.77,241.59L133.95,238.56L138.14,239.83L142.33,239.01L146.51,236.73L150.7,237.95L167.44,237.48L171.63,235.61L175.81,268.89L180,272.14L184.19,302.99L188.37,299.08L196.74,300.78L200.93,304L205.12,276.79L209.3,273.33L213.49,285.17L217.67,281.6L221.86,279.29L226.05,280.39L230.23,283.3L234.42,283.59L238.6,287.33L242.79,286.04L246.98,283.17L251.16,269.08L255.35,268L259.53,282.74L263.72,283.87L267.91,281.83L272.09,261.68L276.28,255.52L280.47,255.37L284.65,256.66L288.84,251.22L293.02,249.04L297.21,237.17L301.4,236.48L305.58,229.77L309.77,248.9L313.95,182.22L318.14,216.6L322.33,217.58L326.51,231.27L330.7,273.39L334.88,273.05L339.07,290.59L343.26,293.13L347.44,291.75L351.63,272.99L355.81,272.51L360,277.08L364.19,277.98L368.37,277.75L372.56,277.97L376.74,276.74L380.93,277.52L385.12,280.35L393.49,280.67L397.67,279.46L410.23,279.25L414.42,276.9L418.6,276.1L422.79,281.17L426.98,273.93L431.16,273.4L435.35,264L439.53,261.29L443.72,260.81L447.91,256.89L452.09,252.7L456.28,251.04L460.47,251.93L464.65,251.64L468.84,243.74L473.02,242.38L481.4,207.49L485.58,200.33L489.77,211.16L493.95,184.69L498.14,158.9L502.33,149.9L510.7,92.11L514.88,80.67L519.07,80.66L523.26,72.78L527.44,45.3L531.63,37.51L535.81,23.75L540,16" style="fill: rgb(99, 110, 250); fill-opacity: 0.5; stroke-width: 0;"/></g></g><g class="errorbars"/><g class="lines"><path class="js-line" d="M0,299.23L4.19,299.24L8.37,297.71L12.56,297.1L16.74,295.51L25.12,295.74L29.3,292.55L33.49,281.17L37.67,281.59L41.86,291.95L46.05,280.91L50.23,282.41L54.42,282.47L62.79,282.84L66.98,276.96L71.16,263.16L75.35,261.12L79.53,261.12L83.72,264.71L87.91,242.3L92.09,242.03L96.28,241.75L100.47,247.63L104.65,248.36L108.84,244.12L113.02,245.22L117.21,247.94L121.4,261.24L125.58,253.53L129.77,241.59L133.95,238.56L138.14,239.83L142.33,239.01L146.51,236.73L150.7,237.95L167.44,237.48L171.63,235.61L175.81,268.89L180,272.14L184.19,302.99L188.37,299.08L196.74,300.78L200.93,304L205.12,276.79L209.3,273.33L213.49,285.17L217.67,281.6L221.86,279.29L226.05,280.39L230.23,283.3L234.42,283.59L238.6,287.33L242.79,286.04L246.98,283.17L251.16,269.08L255.35,268L259.53,282.74L263.72,283.87L267.91,281.83L272.09,261.68L276.28,255.52L280.47,255.37L284.65,256.66L288.84,251.22L293.02,249.04L297.21,237.17L301.4,236.48L305.58,229.77L309.77,248.9L313.95,182.22L318.14,216.6L322.33,217.58L326.51,231.27L330.7,273.39L334.88,273.05L339.07,290.59L343.26,293.13L347.44,291.75L351.63,272.99L355.81,272.51L360,277.08L364.19,277.98L368.37,277.75L372.56,277.97L376.74,276.74L380.93,277.52L385.12,280.35L393.49,280.67L397.67,279.46L410.23,279.25L414.42,276.9L418.6,276.1L422.79,281.17L426.98,273.93L431.16,273.4L435.35,264L439.53,261.29L443.72,260.81L447.91,256.89L452.09,252.7L456.28,251.04L460.47,251.93L464.65,251.64L468.84,243.74L473.02,242.38L481.4,207.49L485.58,200.33L489.77,211.16L493.95,184.69L498.14,158.9L502.33,149.9L510.7,92.11L514.88,80.67L519.07,80.66L523.26,72.78L527.44,45.3L531.63,37.51L535.81,23.75L540,16" style="vector-effect: non-scaling-stroke; fill: none; stroke: rgb(99, 110, 250); stroke-opacity: 1; stroke-width: 2px; opacity: 1;"/></g><g class="points"/><g class="text"/></g></g></g><g class="overplot"/><path class="xlines-above crisp" d="M0,0" style="fill: none;"/><path class="ylines-above crisp" d="M0,0" style="fill: none;"/><g class="overlines-above"/><g class="xaxislayer-above"><g class="xtick"><text text-anchor="middle" x="0" y="433" transform="translate(96.74,0)" style="font-family: 'Open Sans', verdana, arial, sans-serif; font-size: 12px; fill: rgb(42, 63, 95); fill-opacity: 1; white-space: pre; opacity: 1;">Oct 2022</text></g><g class="xtick"><text text-anchor="middle" x="0" y="433" style="font-family: 'Open Sans', verdana, arial, sans-serif; font-size: 12px; fill: rgb(42, 63, 95); fill-opacity: 1; white-space: pre; opacity: 1;" transform="translate(226.51,0)">Nov 2022</text></g><g class="xtick"><text text-anchor="middle" x="0" y="433" style="font-family: 'Open Sans', verdana, arial, sans-serif; font-size: 12px; fill: rgb(42, 63, 95); fill-opacity: 1; white-space: pre; opacity: 1;" transform="translate(352.09,0)">Dec 2022</text></g><g class="xtick"><text text-anchor="middle" x="0" y="433" style="font-family: 'Open Sans', verdana, arial, sans-serif; font-size: 12px; fill: rgb(42, 63, 95); fill-opacity: 1; white-space: pre; opacity: 1;" transform="translate(481.86,0)">Jan 2023</text></g><g class="xtick"><text text-anchor="middle" x="0" y="433" style="font-family: 'Open Sans', verdana, arial, sans-serif; font-size: 12px; fill: rgb(42, 63, 95); fill-opacity: 1; white-space: pre; opacity: 1;" transform="translate(611.63,0)">Feb 2023</text></g></g><g class="yaxislayer-above"><g class="ytick"><text text-anchor="end" x="79" y="4.199999999999999" transform="translate(0,386.17)" style="font-family: 'Open Sans', verdana, arial, sans-serif; font-size: 12px; fill: rgb(42, 63, 95); fill-opacity: 1; white-space: pre; opacity: 1;">$0</text></g><g class="ytick"><text text-anchor="end" x="79" y="4.199999999999999" style="font-family: 'Open Sans', verdana, arial, sans-serif; font-size: 12px; fill: rgb(42, 63, 95); fill-opacity: 1; white-space: pre; opacity: 1;" transform="translate(0,341.96000000000004)">$2M</text></g><g class="ytick"><text text-anchor="end" x="79" y="4.199999999999999" style="font-family: 'Open Sans', verdana, arial, sans-serif; font-size: 12px; fill: rgb(42, 63, 95); fill-opacity: 1; white-space: pre; opacity: 1;" transform="translate(0,297.75)">$4M</text></g><g class="ytick"><text text-anchor="end" x="79" y="4.199999999999999" style="font-family: 'Open Sans', verdana, arial, sans-serif; font-size: 12px; fill: rgb(42, 63, 95); fill-opacity: 1; white-space: pre; opacity: 1;" transform="translate(0,253.54)">$6M</text></g><g class="ytick"><text text-anchor="end" x="79" y="4.199999999999999" style="font-family: 'Open Sans', verdana, arial, sans-serif; font-size: 12px; fill: rgb(42, 63, 95); fill-opacity: 1; white-space: pre; opacity: 1;" transform="translate(0,209.32999999999998)">$8M</text></g><g class="ytick"><text text-anchor="end" x="79" y="4.199999999999999" style="font-family: 'Open Sans', verdana, arial, sans-serif; font-size: 12px; fill: rgb(42, 63, 95); fill-opacity: 1; white-space: pre; opacity: 1;" transform="translate(0,165.12)">$10M</text></g><g class="ytick"><text text-anchor="end" x="79" y="4.199999999999999" style="font-family: 'Open Sans', verdana, arial, sans-serif; font-size: 12px; fill: rgb(42, 63, 95); fill-opacity: 1; white-space: pre; opacity: 1;" transform="translate(0,120.91)">$12M</text></g></g><g class="overaxes-above"/></g></g><g class="polarlayer"/><g class="smithlayer"/><g class="ternarylayer"/><g class="geolayer"/><g class="funnelarealayer"/><g class="pielayer"/><g class="iciclelayer"/><g class="treemaplayer"/><g class="sunburstlayer"/><g class="glimages"/><defs id="topdefs-688dbb"><g class="clips"/></defs><g class="layer-above"><g class="imagelayer"/><g class="shapelayer"/></g><g class="infolayer"><g class="g-gtitle"><text class="gtitle" x="35" y="50" text-anchor="start" dy="0em" style="font-family: 'Open Sans', verdana, arial, sans-serif; font-size: 17px; fill: rgb(42, 63, 95); opacity: 1; font-weight: normal; white-space: pre;"><tspan class="line" dy="0em" x="35" y="50">Synthetix - USDC/sUSD: Velo</tspan><tspan class="line" dy="1.3em" x="35" y="50">​<tspan style="font-size:70%" dy="-0.6em">Cumulative Net Dollar Flow since Program Announcement, Until Program End + 30 Days - At Last Price</tspan><tspan dy="0.42em">​</tspan></tspan></text></g><g class="g-xtitle"><text class="xtitle" x="350" y="460.8" text-anchor="middle" style="font-family: 'Open Sans', verdana, arial, sans-serif; font-size: 14px; fill: rgb(42, 63, 95); opacity: 1; font-weight: normal; white-space: pre;">Day</text></g><g class="g-ytitle"><text class="ytitle" transform="rotate(-90,24.168750000000003,260)" x="24.168750000000003" y="260" text-anchor="middle" style="font-family: 'Open Sans', verdana, arial, sans-serif; font-size: 14px; fill: rgb(42, 63, 95); opacity: 1; font-weight: normal; white-space: pre;">Cumulative Net Dollar Flow (N$F)</text></g></g></svg>