<svg class="main-svg" xmlns="http://www.w3.org/2000/svg" xmlns:xlink="http://www.w3.org/1999/xlink" width="700" height="500" style="" viewBox="0 0 700 500"><rect x="0" y="0" width="700" height="500" style="fill: rgb(255, 255, 255); fill-opacity: 1;"/><defs id="defs-035cfe"><g class="clips"><clipPath id="clip035cfexyplot" class="plotclip"><rect width="540" height="320"/></clipPath><clipPath class="axesclip" id="clip035cfex"><rect x="80" y="0" width="540" height="500"/></clipPath><clipPath class="axesclip" id="clip035cfey"><rect x="0" y="100" width="700" height="320"/></clipPath><clipPath class="axesclip" id="clip035cfexy"><rect x="80" y="100" width="540" height="320"/></clipPath></g><g class="gradients"/><g class="patterns"/></defs><g class="bglayer"><rect class="bg" x="80" y="100" width="540" height="320" style="fill: rgb(229, 236, 246); fill-opacity: 1; stroke-width: 0;"/></g><g class="layer-below"><g class="imagelayer"/><g class="shapelayer"/></g><g class="cartesianlayer"><g class="subplot xy"><g class="layer-subplot"><g class="shapelayer"/><g class="imagelayer"/></g><g class="minor-gridlayer"><g class="x"/><g class="y"/></g><g class="gridlayer"><g class="x"><path class="xgrid crisp" transform="translate(107,0)" d="M0,100v320" style="stroke: rgb(255, 255, 255); stroke-opacity: 1; stroke-width: 1px;"/><path class="xgrid crisp" transform="translate(222.71,0)" d="M0,100v320" style="stroke: rgb(255, 255, 255); stroke-opacity: 1; stroke-width: 1px;"/><path class="xgrid crisp" transform="translate(342.29,0)" d="M0,100v320" style="stroke: rgb(255, 255, 255); stroke-opacity: 1; stroke-width: 1px;"/><path class="xgrid crisp" transform="translate(461.86,0)" d="M0,100v320" style="stroke: rgb(255, 255, 255); stroke-opacity: 1; stroke-width: 1px;"/><path class="xgrid crisp" transform="translate(569.86,0)" d="M0,100v320" style="stroke: rgb(255, 255, 255); stroke-opacity: 1; stroke-width: 1px;"/></g><g class="y"><path class="ygrid crisp" transform="translate(0,381.86)" d="M80,0h540" style="stroke: rgb(255, 255, 255); stroke-opacity: 1; stroke-width: 1px;"/><path class="ygrid crisp" transform="translate(0,343.71000000000004)" d="M80,0h540" style="stroke: rgb(255, 255, 255); stroke-opacity: 1; stroke-width: 1px;"/><path class="ygrid crisp" transform="translate(0,305.57)" d="M80,0h540" style="stroke: rgb(255, 255, 255); stroke-opacity: 1; stroke-width: 1px;"/><path class="ygrid crisp" transform="translate(0,267.41999999999996)" d="M80,0h540" style="stroke: rgb(255, 255, 255); stroke-opacity: 1; stroke-width: 1px;"/><path class="ygrid crisp" transform="translate(0,229.28)" d="M80,0h540" style="stroke: rgb(255, 255, 255); stroke-opacity: 1; stroke-width: 1px;"/><path class="ygrid crisp" transform="translate(0,191.13)" d="M80,0h540" style="stroke: rgb(255, 255, 255); stroke-opacity: 1; stroke-width: 1px;"/><path class="ygrid crisp" transform="translate(0,152.99)" d="M80,0h540" style="stroke: rgb(255, 255, 255); stroke-opacity: 1; stroke-width: 1px;"/><path class="ygrid crisp" transform="translate(0,114.84)" d="M80,0h540" style="stroke: rgb(255, 255, 255); stroke-opacity: 1; stroke-width: 1px;"/></g></g><g class="zerolinelayer"><path class="yzl zl crisp" transform="translate(0,420)" d="M80,0h540" style="stroke: rgb(255, 255, 255); stroke-opacity: 1; stroke-width: 2px;"/></g><path class="xlines-below"/><path class="ylines-below"/><g class="overlines-below"/><g class="xaxislayer-below"/><g class="yaxislayer-below"/><g class="overaxes-below"/><g class="plot" transform="translate(80,100)" clip-path="url(#clip035cfexyplot)"><g class="scatterlayer mlayer"><g class="trace scatter tracee07f74" style="stroke-miterlimit: 2;"><g class="fills"><g><path class="js-fill" d="M540,320L0,320L0,320L3.86,320L7.71,258.16L11.57,168.69L15.43,181.77L19.29,185.46L23.14,167.7L27,171.68L30.86,157.82L34.71,152.75L38.57,185.11L42.43,184.22L46.29,182.04L50.14,181.7L54,185.31L57.86,209.81L61.71,225.71L65.57,225.2L69.43,215.42L73.29,213.93L77.14,172.12L81,172.68L84.86,170.17L88.71,178.21L92.57,189.28L96.43,195.98L100.29,191.81L104.14,189.45L108,190.62L111.86,190.47L115.71,188.67L119.57,188.3L123.43,182.91L127.29,170.88L131.14,150.53L135,162.58L138.86,166.46L142.71,197.56L146.57,178.88L154.29,155.42L158.14,182.6L162,183.99L165.86,210.2L169.71,191.54L173.57,190.98L177.43,192.04L181.29,204.2L185.14,203L189,203.27L196.71,203.14L200.57,195.89L204.43,184.47L208.29,183.74L212.14,183.75L216,184.94L219.86,181.54L223.71,181.85L227.57,181.94L231.43,179.53L235.29,180.07L239.14,179.09L243,174.66L246.86,174.26L250.71,179.48L254.57,177.65L258.43,180.93L262.29,180.65L266.14,179.5L270,175.98L273.86,171.43L277.71,173.41L289.29,173.06L293.14,170.6L297,172.48L300.86,176.36L304.71,167.26L308.57,160.61L312.43,159.23L316.29,156.19L320.14,146.41L324,190.17L327.86,183.24L331.71,188.73L335.57,218.17L339.43,223.86L343.29,219.52L347.14,213.72L354.86,207.9L358.71,191.1L362.57,194.56L366.43,193.37L370.29,191L374.14,163.01L378,177.84L381.86,170.98L385.71,152.94L389.57,165.6L393.43,164.99L397.29,158.13L401.14,158.51L405,132.89L408.86,158.99L412.71,161.72L416.57,160.6L420.43,149.79L424.29,148.24L428.14,149.3L432,115.08L435.86,118.77L443.57,130.36L447.43,119.54L451.29,127.76L455.14,127.24L459,131.83L462.86,119.01L466.71,107.83L470.57,75.02L474.43,64.97L478.29,73.76L482.14,73.33L486,55.63L489.86,54.8L493.71,75.94L497.57,57.95L501.43,63.47L505.29,68.14L509.14,51.83L513,65.45L516.86,74.75L520.71,62.48L524.57,37.41L528.43,67.32L532.29,16L536.14,46.31L540,91.94" style="fill: rgb(99, 110, 250); fill-opacity: 0.5; stroke-width: 0;"/></g></g><g class="errorbars"/><g class="lines"><path class="js-line" d="M0,320L3.86,320L7.71,258.16L11.57,168.69L15.43,181.77L19.29,185.46L23.14,167.7L27,171.68L30.86,157.82L34.71,152.75L38.57,185.11L42.43,184.22L46.29,182.04L50.14,181.7L54,185.31L57.86,209.81L61.71,225.71L65.57,225.2L69.43,215.42L73.29,213.93L77.14,172.12L81,172.68L84.86,170.17L88.71,178.21L92.57,189.28L96.43,195.98L100.29,191.81L104.14,189.45L108,190.62L111.86,190.47L115.71,188.67L119.57,188.3L123.43,182.91L127.29,170.88L131.14,150.53L135,162.58L138.86,166.46L142.71,197.56L146.57,178.88L154.29,155.42L158.14,182.6L162,183.99L165.86,210.2L169.71,191.54L173.57,190.98L177.43,192.04L181.29,204.2L185.14,203L189,203.27L196.71,203.14L200.57,195.89L204.43,184.47L208.29,183.74L212.14,183.75L216,184.94L219.86,181.54L223.71,181.85L227.57,181.94L231.43,179.53L235.29,180.07L239.14,179.09L243,174.66L246.86,174.26L250.71,179.48L254.57,177.65L258.43,180.93L262.29,180.65L266.14,179.5L270,175.98L273.86,171.43L277.71,173.41L289.29,173.06L293.14,170.6L297,172.48L300.86,176.36L304.71,167.26L308.57,160.61L312.43,159.23L316.29,156.19L320.14,146.41L324,190.17L327.86,183.24L331.71,188.73L335.57,218.17L339.43,223.86L343.29,219.52L347.14,213.72L354.86,207.9L358.71,191.1L362.57,194.56L366.43,193.37L370.29,191L374.14,163.01L378,177.84L381.86,170.98L385.71,152.94L389.57,165.6L393.43,164.99L397.29,158.13L401.14,158.51L405,132.89L408.86,158.99L412.71,161.72L416.57,160.6L420.43,149.79L424.29,148.24L428.14,149.3L432,115.08L435.86,118.77L443.57,130.36L447.43,119.54L451.29,127.76L455.14,127.24L459,131.83L462.86,119.01L466.71,107.83L470.57,75.02L474.43,64.97L478.29,73.76L482.14,73.33L486,55.63L489.86,54.8L493.71,75.94L497.57,57.95L501.43,63.47L505.29,68.14L509.14,51.83L513,65.45L516.86,74.75L520.71,62.48L524.57,37.41L528.43,67.32L532.29,16L536.14,46.31L540,91.94" style="vector-effect: non-scaling-stroke; fill: none; stroke: rgb(99, 110, 250); stroke-opacity: 1; stroke-width: 2px; opacity: 1;"/></g><g class="points"/><g class="text"/></g></g></g><g class="overplot"/><path class="xlines-above crisp" d="M0,0" style="fill: none;"/><path class="ylines-above crisp" d="M0,0" style="fill: none;"/><g class="overlines-above"/><g class="xaxislayer-above"><g class="xtick"><text text-anchor="middle" x="0" y="433" transform="translate(107,0)" style="font-family: 'Open Sans', verdana, arial, sans-serif; font-size: 12px; fill: rgb(42, 63, 95); fill-opacity: 1; white-space: pre; opacity: 1;">Nov 2022</text></g><g class="xtick"><text text-anchor="middle" x="0" y="433" style="font-family: 'Open Sans', verdana, arial, sans-serif; font-size: 12px; fill: rgb(42, 63, 95); fill-opacity: 1; white-space: pre; opacity: 1;" transform="translate(222.71,0)">Dec 2022</text></g><g class="xtick"><text text-anchor="middle" x="0" y="433" style="font-family: 'Open Sans', verdana, arial, sans-serif; font-size: 12px; fill: rgb(42, 63, 95); fill-opacity: 1; white-space: pre; opacity: 1;" transform="translate(342.29,0)">Jan 2023</text></g><g class="xtick"><text text-anchor="middle" x="0" y="433" style="font-family: 'Open Sans', verdana, arial, sans-serif; font-size: 12px; fill: rgb(42, 63, 95); fill-opacity: 1; white-space: pre; opacity: 1;" transform="translate(461.86,0)">Feb 2023</text></g><g class="xtick"><text text-anchor="middle" x="0" y="433" style="font-family: 'Open Sans', verdana, arial, sans-serif; font-size: 12px; fill: rgb(42, 63, 95); fill-opacity: 1; white-space: pre; opacity: 1;" transform="translate(569.86,0)">Mar 2023</text></g></g><g class="yaxislayer-above"><g class="ytick"><text text-anchor="end" x="79" y="4.199999999999999" transform="translate(0,420)" style="font-family: 'Open Sans', verdana, arial, sans-serif; font-size: 12px; fill: rgb(42, 63, 95); fill-opacity: 1; white-space: pre; opacity: 1;">$0</text></g><g class="ytick"><text text-anchor="end" x="79" y="4.199999999999999" style="font-family: 'Open Sans', verdana, arial, sans-serif; font-size: 12px; fill: rgb(42, 63, 95); fill-opacity: 1; white-space: pre; opacity: 1;" transform="translate(0,381.86)">$0.2M</text></g><g class="ytick"><text text-anchor="end" x="79" y="4.199999999999999" style="font-family: 'Open Sans', verdana, arial, sans-serif; font-size: 12px; fill: rgb(42, 63, 95); fill-opacity: 1; white-space: pre; opacity: 1;" transform="translate(0,343.71000000000004)">$0.4M</text></g><g class="ytick"><text text-anchor="end" x="79" y="4.199999999999999" style="font-family: 'Open Sans', verdana, arial, sans-serif; font-size: 12px; fill: rgb(42, 63, 95); fill-opacity: 1; white-space: pre; opacity: 1;" transform="translate(0,305.57)">$0.6M</text></g><g class="ytick"><text text-anchor="end" x="79" y="4.199999999999999" style="font-family: 'Open Sans', verdana, arial, sans-serif; font-size: 12px; fill: rgb(42, 63, 95); fill-opacity: 1; white-space: pre; opacity: 1;" transform="translate(0,267.41999999999996)">$0.8M</text></g><g class="ytick"><text text-anchor="end" x="79" y="4.199999999999999" style="font-family: 'Open Sans', verdana, arial, sans-serif; font-size: 12px; fill: rgb(42, 63, 95); fill-opacity: 1; white-space: pre; opacity: 1;" transform="translate(0,229.28)">$1M</text></g><g class="ytick"><text text-anchor="end" x="79" y="4.199999999999999" style="font-family: 'Open Sans', verdana, arial, sans-serif; font-size: 12px; fill: rgb(42, 63, 95); fill-opacity: 1; white-space: pre; opacity: 1;" transform="translate(0,191.13)">$1.2M</text></g><g class="ytick"><text text-anchor="end" x="79" y="4.199999999999999" style="font-family: 'Open Sans', verdana, arial, sans-serif; font-size: 12px; fill: rgb(42, 63, 95); fill-opacity: 1; white-space: pre; opacity: 1;" transform="translate(0,152.99)">$1.4M</text></g><g class="ytick"><text text-anchor="end" x="79" y="4.199999999999999" style="font-family: 'Open Sans', verdana, arial, sans-serif; font-size: 12px; fill: rgb(42, 63, 95); fill-opacity: 1; white-space: pre; opacity: 1;" transform="translate(0,114.84)">$1.6M</text></g></g><g class="overaxes-above"/></g></g><g class="polarlayer"/><g class="smithlayer"/><g class="ternarylayer"/><g class="geolayer"/><g class="funnelarealayer"/><g class="pielayer"/><g class="iciclelayer"/><g class="treemaplayer"/><g class="sunburstlayer"/><g class="glimages"/><defs id="topdefs-035cfe"><g class="clips"/></defs><g class="layer-above"><g class="imagelayer"/><g class="shapelayer"/></g><g class="infolayer"><g class="g-gtitle"><text class="gtitle" x="35" y="50" text-anchor="start" dy="0em" style="font-family: 'Open Sans', verdana, arial, sans-serif; font-size: 17px; fill: rgb(42, 63, 95); opacity: 1; font-weight: normal; white-space: pre;"><tspan class="line" dy="0em" x="35" y="50">Synthetix - SNX Bridge: Hop</tspan><tspan class="line" dy="1.3em" x="35" y="50">​<tspan style="font-size:70%" dy="-0.6em">Cumulative Net Flows since Program Announcement, Until Program End + 30 Days - At Last Price</tspan><tspan dy="0.42em">​</tspan></tspan></text></g><g class="g-xtitle"><text class="xtitle" x="350" y="460.8" text-anchor="middle" style="font-family: 'Open Sans', verdana, arial, sans-serif; font-size: 14px; fill: rgb(42, 63, 95); opacity: 1; font-weight: normal; white-space: pre;">Day</text></g><g class="g-ytitle"><text class="ytitle" transform="rotate(-90,20.840625000000003,260)" x="20.840625000000003" y="260" text-anchor="middle" style="font-family: 'Open Sans', verdana, arial, sans-serif; font-size: 14px; fill: rgb(42, 63, 95); opacity: 1; font-weight: normal; white-space: pre;">Cumulative Net Flows (USD)</text></g></g></svg>