<svg class="main-svg" xmlns="http://www.w3.org/2000/svg" xmlns:xlink="http://www.w3.org/1999/xlink" width="700" height="500" style="" viewBox="0 0 700 500"><rect x="0" y="0" width="700" height="500" style="fill: rgb(255, 255, 255); fill-opacity: 1;"/><defs id="defs-1e09e2"><g class="clips"><clipPath id="clip1e09e2xyplot" class="plotclip"><rect width="540" height="320"/></clipPath><clipPath class="axesclip" id="clip1e09e2x"><rect x="80" y="0" width="540" height="500"/></clipPath><clipPath class="axesclip" id="clip1e09e2y"><rect x="0" y="100" width="700" height="320"/></clipPath><clipPath class="axesclip" id="clip1e09e2xy"><rect x="80" y="100" width="540" height="320"/></clipPath></g><g class="gradients"/><g class="patterns"/></defs><g class="bglayer"><rect class="bg" x="80" y="100" width="540" height="320" style="fill: rgb(229, 236, 246); fill-opacity: 1; stroke-width: 0;"/></g><g class="layer-below"><g class="imagelayer"/><g class="shapelayer"/></g><g class="cartesianlayer"><g class="subplot xy"><g class="layer-subplot"><g class="shapelayer"/><g class="imagelayer"/></g><g class="minor-gridlayer"><g class="x"/><g class="y"/></g><g class="gridlayer"><g class="x"><path class="xgrid crisp" transform="translate(138.55,0)" d="M0,100v320" style="stroke: rgb(255, 255, 255); stroke-opacity: 1; stroke-width: 1px;"/><path class="xgrid crisp" transform="translate(239.4,0)" d="M0,100v320" style="stroke: rgb(255, 255, 255); stroke-opacity: 1; stroke-width: 1px;"/><path class="xgrid crisp" transform="translate(336.99,0)" d="M0,100v320" style="stroke: rgb(255, 255, 255); stroke-opacity: 1; stroke-width: 1px;"/><path class="xgrid crisp" transform="translate(437.83,0)" d="M0,100v320" style="stroke: rgb(255, 255, 255); stroke-opacity: 1; stroke-width: 1px;"/><path class="xgrid crisp" transform="translate(535.4200000000001,0)" d="M0,100v320" style="stroke: rgb(255, 255, 255); stroke-opacity: 1; stroke-width: 1px;"/></g><g class="y"><path class="ygrid crisp" transform="translate(0,416.11)" d="M80,0h540" style="stroke: rgb(255, 255, 255); stroke-opacity: 1; stroke-width: 1px;"/><path class="ygrid crisp" transform="translate(0,366.29)" d="M80,0h540" style="stroke: rgb(255, 255, 255); stroke-opacity: 1; stroke-width: 1px;"/><path class="ygrid crisp" transform="translate(0,316.46000000000004)" d="M80,0h540" style="stroke: rgb(255, 255, 255); stroke-opacity: 1; stroke-width: 1px;"/><path class="ygrid crisp" transform="translate(0,266.64)" d="M80,0h540" style="stroke: rgb(255, 255, 255); stroke-opacity: 1; stroke-width: 1px;"/><path class="ygrid crisp" transform="translate(0,216.81)" d="M80,0h540" style="stroke: rgb(255, 255, 255); stroke-opacity: 1; stroke-width: 1px;"/><path class="ygrid crisp" transform="translate(0,166.99)" d="M80,0h540" style="stroke: rgb(255, 255, 255); stroke-opacity: 1; stroke-width: 1px;"/></g></g><g class="zerolinelayer"><path class="yzl zl crisp" transform="translate(0,117.16)" d="M80,0h540" style="stroke: rgb(255, 255, 255); stroke-opacity: 1; stroke-width: 2px;"/></g><path class="xlines-below"/><path class="ylines-below"/><g class="overlines-below"/><g class="xaxislayer-below"/><g class="yaxislayer-below"/><g class="overaxes-below"/><g class="plot" transform="translate(80,100)" clip-path="url(#clip1e09e2xyplot)"><g class="scatterlayer mlayer"><g class="trace scatter trace322735" style="stroke-miterlimit: 2;"><g class="fills"><g><path class="js-fill" d="M540,17.16L0,17.16L0,20.12L3.25,17.98L6.51,17.74L9.76,16.16L13.01,16L16.27,178.25L19.52,166.28L22.77,163.46L26.02,169.91L29.28,172.81L32.53,164.61L39.04,164.53L42.29,173L45.54,173.18L48.8,171.62L55.3,171.42L58.55,173.92L61.81,174.06L65.06,179.33L68.31,161.09L71.57,155.55L74.82,151.06L78.07,157.25L81.33,162.82L84.58,157.41L87.83,161.17L91.08,159.61L94.34,154.9L97.59,144.5L100.84,145.27L104.1,143.3L107.35,141.65L110.6,141.89L113.86,136.44L117.11,135.04L120.36,134.06L123.61,136.43L130.12,137.52L133.37,147.18L136.63,147.61L139.88,155.38L143.13,157.77L146.39,153.17L149.64,152.82L152.89,167.23L156.14,168.04L159.4,171.69L162.65,174.3L165.9,175.16L172.41,174.87L175.66,176.02L182.17,173.26L185.42,160.78L195.18,161.65L198.43,155.99L201.69,156.16L204.94,168.73L211.45,165.12L214.7,164.94L217.95,165.8L221.2,165.32L224.46,163.35L227.71,162.33L230.96,151.68L234.22,153.08L250.48,151.63L253.73,151.08L256.99,146.6L260.24,146.57L263.49,146.28L266.75,144.65L270,145L273.25,144.1L276.51,145.19L279.76,144.49L289.52,144.13L292.77,143.69L296.02,143.82L299.28,142.42L302.53,140.43L305.78,140.35L309.04,139.24L312.29,140.6L315.54,134.82L318.8,134.73L322.05,137.16L325.3,136.76L331.81,139.38L335.06,143.33L338.31,145.6L341.57,146.93L344.82,150.48L348.07,152.69L351.33,154.01L354.58,154.08L357.83,158.92L361.08,156.9L364.34,158.05L367.59,169.04L370.84,168.41L374.1,168.85L377.35,168.28L380.6,166.35L383.86,172.88L387.11,173.1L390.36,197.35L393.61,200.87L396.87,207.05L400.12,209.29L403.37,215.96L406.63,224.56L409.88,224.12L413.13,272.99L416.39,282.42L419.64,281.73L422.89,280.03L426.14,281.49L429.4,278.92L432.65,285.69L439.16,284.91L442.41,284.99L445.66,280.95L448.92,289.87L452.17,289.88L455.42,296.18L458.67,297.23L461.93,304L465.18,289.06L468.43,288.55L471.69,293.94L474.94,292.33L478.19,288.33L481.45,287.92L484.7,294.42L487.95,294.54L494.46,293.72L497.71,292.51L500.96,297.4L504.22,297.01L507.47,291.74L510.72,289.03L520.48,288.76L523.73,286.43L526.99,288.1L530.24,286.21L536.75,286.54L540,285.83" style="fill: rgb(99, 110, 250); fill-opacity: 0.5; stroke-width: 0;"/></g></g><g class="errorbars"/><g class="lines"><path class="js-line" d="M0,20.12L3.25,17.98L6.51,17.74L9.76,16.16L13.01,16L16.27,178.25L19.52,166.28L22.77,163.46L26.02,169.91L29.28,172.81L32.53,164.61L39.04,164.53L42.29,173L45.54,173.18L48.8,171.62L55.3,171.42L58.55,173.92L61.81,174.06L65.06,179.33L68.31,161.09L71.57,155.55L74.82,151.06L78.07,157.25L81.33,162.82L84.58,157.41L87.83,161.17L91.08,159.61L94.34,154.9L97.59,144.5L100.84,145.27L104.1,143.3L107.35,141.65L110.6,141.89L113.86,136.44L117.11,135.04L120.36,134.06L123.61,136.43L130.12,137.52L133.37,147.18L136.63,147.61L139.88,155.38L143.13,157.77L146.39,153.17L149.64,152.82L152.89,167.23L156.14,168.04L159.4,171.69L162.65,174.3L165.9,175.16L172.41,174.87L175.66,176.02L182.17,173.26L185.42,160.78L195.18,161.65L198.43,155.99L201.69,156.16L204.94,168.73L211.45,165.12L214.7,164.94L217.95,165.8L221.2,165.32L224.46,163.35L227.71,162.33L230.96,151.68L234.22,153.08L250.48,151.63L253.73,151.08L256.99,146.6L260.24,146.57L263.49,146.28L266.75,144.65L270,145L273.25,144.1L276.51,145.19L279.76,144.49L289.52,144.13L292.77,143.69L296.02,143.82L299.28,142.42L302.53,140.43L305.78,140.35L309.04,139.24L312.29,140.6L315.54,134.82L318.8,134.73L322.05,137.16L325.3,136.76L331.81,139.38L335.06,143.33L338.31,145.6L341.57,146.93L344.82,150.48L348.07,152.69L351.33,154.01L354.58,154.08L357.83,158.92L361.08,156.9L364.34,158.05L367.59,169.04L370.84,168.41L374.1,168.85L377.35,168.28L380.6,166.35L383.86,172.88L387.11,173.1L390.36,197.35L393.61,200.87L396.87,207.05L400.12,209.29L403.37,215.96L406.63,224.56L409.88,224.12L413.13,272.99L416.39,282.42L419.64,281.73L422.89,280.03L426.14,281.49L429.4,278.92L432.65,285.69L439.16,284.91L442.41,284.99L445.66,280.95L448.92,289.87L452.17,289.88L455.42,296.18L458.67,297.23L461.93,304L465.18,289.06L468.43,288.55L471.69,293.94L474.94,292.33L478.19,288.33L481.45,287.92L484.7,294.42L487.95,294.54L494.46,293.72L497.71,292.51L500.96,297.4L504.22,297.01L507.47,291.74L510.72,289.03L520.48,288.76L523.73,286.43L526.99,288.1L530.24,286.21L536.75,286.54L540,285.83" style="vector-effect: non-scaling-stroke; fill: none; stroke: rgb(99, 110, 250); stroke-opacity: 1; stroke-width: 2px; opacity: 1;"/></g><g class="points"/><g class="text"/></g></g></g><g class="overplot"/><path class="xlines-above crisp" d="M0,0" style="fill: none;"/><path class="ylines-above crisp" d="M0,0" style="fill: none;"/><g class="overlines-above"/><g class="xaxislayer-above"><g class="xtick"><text text-anchor="middle" x="0" y="433" transform="translate(138.55,0)" style="font-family: 'Open Sans', verdana, arial, sans-serif; font-size: 12px; fill: rgb(42, 63, 95); fill-opacity: 1; white-space: pre; opacity: 1;">Aug 2022</text></g><g class="xtick"><text text-anchor="middle" x="0" y="433" style="font-family: 'Open Sans', verdana, arial, sans-serif; font-size: 12px; fill: rgb(42, 63, 95); fill-opacity: 1; white-space: pre; opacity: 1;" transform="translate(239.4,0)">Sep 2022</text></g><g class="xtick"><text text-anchor="middle" x="0" y="433" style="font-family: 'Open Sans', verdana, arial, sans-serif; font-size: 12px; fill: rgb(42, 63, 95); fill-opacity: 1; white-space: pre; opacity: 1;" transform="translate(336.99,0)">Oct 2022</text></g><g class="xtick"><text text-anchor="middle" x="0" y="433" style="font-family: 'Open Sans', verdana, arial, sans-serif; font-size: 12px; fill: rgb(42, 63, 95); fill-opacity: 1; white-space: pre; opacity: 1;" transform="translate(437.83,0)">Nov 2022</text></g><g class="xtick"><text text-anchor="middle" x="0" y="433" style="font-family: 'Open Sans', verdana, arial, sans-serif; font-size: 12px; fill: rgb(42, 63, 95); fill-opacity: 1; white-space: pre; opacity: 1;" transform="translate(535.4200000000001,0)">Dec 2022</text></g></g><g class="yaxislayer-above"><g class="ytick"><text text-anchor="end" x="79" y="4.199999999999999" transform="translate(0,416.11)" style="font-family: 'Open Sans', verdana, arial, sans-serif; font-size: 12px; fill: rgb(42, 63, 95); fill-opacity: 1; white-space: pre; opacity: 1;">$−12M</text></g><g class="ytick"><text text-anchor="end" x="79" y="4.199999999999999" style="font-family: 'Open Sans', verdana, arial, sans-serif; font-size: 12px; fill: rgb(42, 63, 95); fill-opacity: 1; white-space: pre; opacity: 1;" transform="translate(0,366.29)">$−10M</text></g><g class="ytick"><text text-anchor="end" x="79" y="4.199999999999999" style="font-family: 'Open Sans', verdana, arial, sans-serif; font-size: 12px; fill: rgb(42, 63, 95); fill-opacity: 1; white-space: pre; opacity: 1;" transform="translate(0,316.46000000000004)">$−8M</text></g><g class="ytick"><text text-anchor="end" x="79" y="4.199999999999999" style="font-family: 'Open Sans', verdana, arial, sans-serif; font-size: 12px; fill: rgb(42, 63, 95); fill-opacity: 1; white-space: pre; opacity: 1;" transform="translate(0,266.64)">$−6M</text></g><g class="ytick"><text text-anchor="end" x="79" y="4.199999999999999" style="font-family: 'Open Sans', verdana, arial, sans-serif; font-size: 12px; fill: rgb(42, 63, 95); fill-opacity: 1; white-space: pre; opacity: 1;" transform="translate(0,216.81)">$−4M</text></g><g class="ytick"><text text-anchor="end" x="79" y="4.199999999999999" style="font-family: 'Open Sans', verdana, arial, sans-serif; font-size: 12px; fill: rgb(42, 63, 95); fill-opacity: 1; white-space: pre; opacity: 1;" transform="translate(0,166.99)">$−2M</text></g><g class="ytick"><text text-anchor="end" x="79" y="4.199999999999999" style="font-family: 'Open Sans', verdana, arial, sans-serif; font-size: 12px; fill: rgb(42, 63, 95); fill-opacity: 1; white-space: pre; opacity: 1;" transform="translate(0,117.16)">$0</text></g></g><g class="overaxes-above"/></g></g><g class="polarlayer"/><g class="smithlayer"/><g class="ternarylayer"/><g class="geolayer"/><g class="funnelarealayer"/><g class="pielayer"/><g class="iciclelayer"/><g class="treemaplayer"/><g class="sunburstlayer"/><g class="glimages"/><defs id="topdefs-1e09e2"><g class="clips"/></defs><g class="layer-above"><g class="imagelayer"/><g class="shapelayer"/></g><g class="infolayer"><g class="g-gtitle"><text class="gtitle" x="35" y="50" text-anchor="start" dy="0em" style="font-family: 'Open Sans', verdana, arial, sans-serif; font-size: 17px; fill: rgb(42, 63, 95); opacity: 1; font-weight: normal; white-space: pre;"><tspan class="line" dy="0em" x="35" y="50">Perpetual Protocol</tspan><tspan class="line" dy="1.3em" x="35" y="50">​<tspan style="font-size:70%" dy="-0.6em">Cumulative Net Dollar Flow since Program Announcement, Until Program End + 30 Days - At Last Price</tspan><tspan dy="0.42em">​</tspan></tspan></text></g><g class="g-xtitle"><text class="xtitle" x="350" y="460.8" text-anchor="middle" style="font-family: 'Open Sans', verdana, arial, sans-serif; font-size: 14px; fill: rgb(42, 63, 95); opacity: 1; font-weight: normal; white-space: pre;">Day</text></g><g class="g-ytitle"><text class="ytitle" transform="rotate(-90,17.168750000000003,260)" x="17.168750000000003" y="260" text-anchor="middle" style="font-family: 'Open Sans', verdana, arial, sans-serif; font-size: 14px; fill: rgb(42, 63, 95); opacity: 1; font-weight: normal; white-space: pre;">Cumulative Net Dollar Flow (N$F)</text></g></g></svg>