<svg class="main-svg" xmlns="http://www.w3.org/2000/svg" xmlns:xlink="http://www.w3.org/1999/xlink" width="700" height="500" style="" viewBox="0 0 700 500"><rect x="0" y="0" width="700" height="500" style="fill: rgb(255, 255, 255); fill-opacity: 1;"/><defs id="defs-efd688"><g class="clips"><clipPath id="clipefd688xyplot" class="plotclip"><rect width="540" height="320"/></clipPath><clipPath class="axesclip" id="clipefd688x"><rect x="80" y="0" width="540" height="500"/></clipPath><clipPath class="axesclip" id="clipefd688y"><rect x="0" y="100" width="700" height="320"/></clipPath><clipPath class="axesclip" id="clipefd688xy"><rect x="80" y="100" width="540" height="320"/></clipPath></g><g class="gradients"/><g class="patterns"/></defs><g class="bglayer"><rect class="bg" x="80" y="100" width="540" height="320" style="fill: rgb(229, 236, 246); fill-opacity: 1; stroke-width: 0;"/></g><g class="layer-below"><g class="imagelayer"/><g class="shapelayer"/></g><g class="cartesianlayer"><g class="subplot xy"><g class="layer-subplot"><g class="shapelayer"/><g class="imagelayer"/></g><g class="minor-gridlayer"><g class="x"/><g class="y"/></g><g class="gridlayer"><g class="x"><path class="xgrid crisp" transform="translate(200,0)" d="M0,100v320" style="stroke: rgb(255, 255, 255); stroke-opacity: 1; stroke-width: 1px;"/><path class="xgrid crisp" transform="translate(320,0)" d="M0,100v320" style="stroke: rgb(255, 255, 255); stroke-opacity: 1; stroke-width: 1px;"/><path class="xgrid crisp" transform="translate(444,0)" d="M0,100v320" style="stroke: rgb(255, 255, 255); stroke-opacity: 1; stroke-width: 1px;"/><path class="xgrid crisp" transform="translate(564,0)" d="M0,100v320" style="stroke: rgb(255, 255, 255); stroke-opacity: 1; stroke-width: 1px;"/></g><g class="y"><path class="ygrid crisp" transform="translate(0,386.83)" d="M80,0h540" style="stroke: rgb(255, 255, 255); stroke-opacity: 1; stroke-width: 1px;"/><path class="ygrid crisp" transform="translate(0,257.3)" d="M80,0h540" style="stroke: rgb(255, 255, 255); stroke-opacity: 1; stroke-width: 1px;"/><path class="ygrid crisp" transform="translate(0,192.53)" d="M80,0h540" style="stroke: rgb(255, 255, 255); stroke-opacity: 1; stroke-width: 1px;"/><path class="ygrid crisp" transform="translate(0,127.77)" d="M80,0h540" style="stroke: rgb(255, 255, 255); stroke-opacity: 1; stroke-width: 1px;"/></g></g><g class="zerolinelayer"><path class="yzl zl crisp" transform="translate(0,322.07)" d="M80,0h540" style="stroke: rgb(255, 255, 255); stroke-opacity: 1; stroke-width: 2px;"/></g><path class="xlines-below"/><path class="ylines-below"/><g class="overlines-below"/><g class="xaxislayer-below"/><g class="yaxislayer-below"/><g class="overaxes-below"/><g class="plot" transform="translate(80,100)" clip-path="url(#clipefd688xyplot)"><g class="scatterlayer mlayer"><g class="trace scatter trace89a67b" style="stroke-miterlimit: 2;"><g class="fills"><g><path class="js-fill" d="M540,222.07L0,222.07L0,221.81L4,198.16L8,141.78L12,117.76L16,111.91L20,102.74L24,87.74L28,80L32,43.06L36,40.85L40,39.58L44,28.28L48,24.22L52,23.1L56,17.45L60,32.9L64,16L72,16.9L76,25.24L84,29.34L88,30.54L92,36.6L96,37.5L100,33.25L104,32.92L108,33.99L112,37.02L116,37.7L120,35.91L124,36.09L128,45.37L136,45.3L140,46.65L144,48.01L148,52.1L152,52.76L156,60.54L160,66.47L164,70.08L168,75.17L172,82.24L176,85.53L180,79.31L184,49.32L188,48.26L192,39.87L196,42.15L200,40.72L204,40.41L208,47.1L212,32.54L216,30.34L220,24.48L224,23.75L228,25.2L232,28.27L236,27.49L244,23.36L248,23.47L252,23.11L256,27.12L264,30.98L268,28.18L272,26.73L276,32.91L280,36.56L284,35.46L288,34.64L292,36.6L296,35.71L300,32.65L304,54.08L308,59.54L316,61.48L320,62.13L324,86.24L328,84.5L336,92.86L340,110.94L344,128.17L348,123.41L352,105.85L356,106.45L360,110.01L364,109.34L372,112.35L376,107.62L380,109.5L384,106.57L388,106.41L392,103.02L396,104.68L400,111.12L404,111L408,104.24L412,107.67L416,106.81L420,125.77L424,126.89L432,126.67L436,119.62L448,111.59L452,110.23L456,118.48L460,122.62L464,122.81L468,124.48L472,124.92L476,120.37L484,132.04L488,131.57L492,124.8L496,123.44L500,125.91L504,123.54L508,123.01L512,121.33L516,123.29L520,129.83L524,129.33L528,130.02L532,131.26L536,134.34L540,131.55L540,304" style="fill: rgb(99, 110, 250); fill-opacity: 0.5; stroke-width: 0;"/></g></g><g class="errorbars"/><g class="lines"><path class="js-line" d="M0,221.81L4,198.16L8,141.78L12,117.76L16,111.91L20,102.74L24,87.74L28,80L32,43.06L36,40.85L40,39.58L44,28.28L48,24.22L52,23.1L56,17.45L60,32.9L64,16L72,16.9L76,25.24L84,29.34L88,30.54L92,36.6L96,37.5L100,33.25L104,32.92L108,33.99L112,37.02L116,37.7L120,35.91L124,36.09L128,45.37L136,45.3L140,46.65L144,48.01L148,52.1L152,52.76L156,60.54L160,66.47L164,70.08L168,75.17L172,82.24L176,85.53L180,79.31L184,49.32L188,48.26L192,39.87L196,42.15L200,40.72L204,40.41L208,47.1L212,32.54L216,30.34L220,24.48L224,23.75L228,25.2L232,28.27L236,27.49L244,23.36L248,23.47L252,23.11L256,27.12L264,30.98L268,28.18L272,26.73L276,32.91L280,36.56L284,35.46L288,34.64L292,36.6L296,35.71L300,32.65L304,54.08L308,59.54L316,61.48L320,62.13L324,86.24L328,84.5L336,92.86L340,110.94L344,128.17L348,123.41L352,105.85L356,106.45L360,110.01L364,109.34L372,112.35L376,107.62L380,109.5L384,106.57L388,106.41L392,103.02L396,104.68L400,111.12L404,111L408,104.24L412,107.67L416,106.81L420,125.77L424,126.89L432,126.67L436,119.62L448,111.59L452,110.23L456,118.48L460,122.62L464,122.81L468,124.48L472,124.92L476,120.37L484,132.04L488,131.57L492,124.8L496,123.44L500,125.91L504,123.54L508,123.01L512,121.33L516,123.29L520,129.83L524,129.33L528,130.02L532,131.26L536,134.34L540,131.55L540,304" style="vector-effect: non-scaling-stroke; fill: none; stroke: rgb(99, 110, 250); stroke-opacity: 1; stroke-width: 2px; opacity: 1;"/></g><g class="points"/><g class="text"/></g></g></g><g class="overplot"/><path class="xlines-above crisp" d="M0,0" style="fill: none;"/><path class="ylines-above crisp" d="M0,0" style="fill: none;"/><g class="overlines-above"/><g class="xaxislayer-above"><g class="xtick"><text text-anchor="middle" x="0" y="433" transform="translate(200,0)" style="font-family: 'Open Sans', verdana, arial, sans-serif; font-size: 12px; fill: rgb(42, 63, 95); fill-opacity: 1; white-space: pre; opacity: 1;">Sep 2022</text></g><g class="xtick"><text text-anchor="middle" x="0" y="433" style="font-family: 'Open Sans', verdana, arial, sans-serif; font-size: 12px; fill: rgb(42, 63, 95); fill-opacity: 1; white-space: pre; opacity: 1;" transform="translate(320,0)">Oct 2022</text></g><g class="xtick"><text text-anchor="middle" x="0" y="433" style="font-family: 'Open Sans', verdana, arial, sans-serif; font-size: 12px; fill: rgb(42, 63, 95); fill-opacity: 1; white-space: pre; opacity: 1;" transform="translate(444,0)">Nov 2022</text></g><g class="xtick"><text text-anchor="middle" x="0" y="433" style="font-family: 'Open Sans', verdana, arial, sans-serif; font-size: 12px; fill: rgb(42, 63, 95); fill-opacity: 1; white-space: pre; opacity: 1;" transform="translate(564,0)">Dec 2022</text></g></g><g class="yaxislayer-above"><g class="ytick"><text text-anchor="end" x="79" y="4.199999999999999" transform="translate(0,386.83)" style="font-family: 'Open Sans', verdana, arial, sans-serif; font-size: 12px; fill: rgb(42, 63, 95); fill-opacity: 1; white-space: pre; opacity: 1;">$−5M</text></g><g class="ytick"><text text-anchor="end" x="79" y="4.199999999999999" style="font-family: 'Open Sans', verdana, arial, sans-serif; font-size: 12px; fill: rgb(42, 63, 95); fill-opacity: 1; white-space: pre; opacity: 1;" transform="translate(0,322.07)">$0</text></g><g class="ytick"><text text-anchor="end" x="79" y="4.199999999999999" style="font-family: 'Open Sans', verdana, arial, sans-serif; font-size: 12px; fill: rgb(42, 63, 95); fill-opacity: 1; white-space: pre; opacity: 1;" transform="translate(0,257.3)">$5M</text></g><g class="ytick"><text text-anchor="end" x="79" y="4.199999999999999" style="font-family: 'Open Sans', verdana, arial, sans-serif; font-size: 12px; fill: rgb(42, 63, 95); fill-opacity: 1; white-space: pre; opacity: 1;" transform="translate(0,192.53)">$10M</text></g><g class="ytick"><text text-anchor="end" x="79" y="4.199999999999999" style="font-family: 'Open Sans', verdana, arial, sans-serif; font-size: 12px; fill: rgb(42, 63, 95); fill-opacity: 1; white-space: pre; opacity: 1;" transform="translate(0,127.77)">$15M</text></g></g><g class="overaxes-above"/></g></g><g class="polarlayer"/><g class="smithlayer"/><g class="ternarylayer"/><g class="geolayer"/><g class="funnelarealayer"/><g class="pielayer"/><g class="iciclelayer"/><g class="treemaplayer"/><g class="sunburstlayer"/><g class="glimages"/><defs id="topdefs-efd688"><g class="clips"/></defs><g class="layer-above"><g class="imagelayer"/><g class="shapelayer"/></g><g class="infolayer"><g class="g-gtitle"><text class="gtitle" x="35" y="50" text-anchor="start" dy="0em" style="font-family: 'Open Sans', verdana, arial, sans-serif; font-size: 17px; fill: rgb(42, 63, 95); opacity: 1; font-weight: normal; white-space: pre;">Lyra: Cumulative Net Dollar Flow since Program Announcement - At Last Price</text></g><g class="g-xtitle"><text class="xtitle" x="350" y="460.8" text-anchor="middle" style="font-family: 'Open Sans', verdana, arial, sans-serif; font-size: 14px; fill: rgb(42, 63, 95); opacity: 1; font-weight: normal; white-space: pre;">Day</text></g><g class="g-ytitle"><text class="ytitle" transform="rotate(-90,23.840625000000003,260)" x="23.840625000000003" y="260" text-anchor="middle" style="font-family: 'Open Sans', verdana, arial, sans-serif; font-size: 14px; fill: rgb(42, 63, 95); opacity: 1; font-weight: normal; white-space: pre;">Cumulative Net Dollar Flow (N$F)</text></g></g></svg>