<svg class="main-svg" xmlns="http://www.w3.org/2000/svg" xmlns:xlink="http://www.w3.org/1999/xlink" width="700" height="500" style="" viewBox="0 0 700 500"><rect x="0" y="0" width="700" height="500" style="fill: rgb(255, 255, 255); fill-opacity: 1;"/><defs id="defs-b4e832"><g class="clips"><clipPath id="clipb4e832xyplot" class="plotclip"><rect width="540" height="320"/></clipPath><clipPath class="axesclip" id="clipb4e832x"><rect x="80" y="0" width="540" height="500"/></clipPath><clipPath class="axesclip" id="clipb4e832y"><rect x="0" y="100" width="700" height="320"/></clipPath><clipPath class="axesclip" id="clipb4e832xy"><rect x="80" y="100" width="540" height="320"/></clipPath></g><g class="gradients"/><g class="patterns"/></defs><g class="bglayer"><rect class="bg" x="80" y="100" width="540" height="320" style="fill: rgb(229, 236, 246); fill-opacity: 1; stroke-width: 0;"/></g><g class="layer-below"><g class="imagelayer"/><g class="shapelayer"/></g><g class="cartesianlayer"><g class="subplot xy"><g class="layer-subplot"><g class="shapelayer"/><g class="imagelayer"/></g><g class="minor-gridlayer"><g class="x"/><g class="y"/></g><g class="gridlayer"><g class="x"><path class="xgrid crisp" transform="translate(91.49,0)" d="M0,100v320" style="stroke: rgb(255, 255, 255); stroke-opacity: 1; stroke-width: 1px;"/><path class="xgrid crisp" transform="translate(180.53,0)" d="M0,100v320" style="stroke: rgb(255, 255, 255); stroke-opacity: 1; stroke-width: 1px;"/><path class="xgrid crisp" transform="translate(266.7,0)" d="M0,100v320" style="stroke: rgb(255, 255, 255); stroke-opacity: 1; stroke-width: 1px;"/><path class="xgrid crisp" transform="translate(355.74,0)" d="M0,100v320" style="stroke: rgb(255, 255, 255); stroke-opacity: 1; stroke-width: 1px;"/><path class="xgrid crisp" transform="translate(444.79,0)" d="M0,100v320" style="stroke: rgb(255, 255, 255); stroke-opacity: 1; stroke-width: 1px;"/><path class="xgrid crisp" transform="translate(525.21,0)" d="M0,100v320" style="stroke: rgb(255, 255, 255); stroke-opacity: 1; stroke-width: 1px;"/><path class="xgrid crisp" transform="translate(614.26,0)" d="M0,100v320" style="stroke: rgb(255, 255, 255); stroke-opacity: 1; stroke-width: 1px;"/></g><g class="y"><path class="ygrid crisp" transform="translate(0,348.72)" d="M80,0h540" style="stroke: rgb(255, 255, 255); stroke-opacity: 1; stroke-width: 1px;"/><path class="ygrid crisp" transform="translate(0,301.12)" d="M80,0h540" style="stroke: rgb(255, 255, 255); stroke-opacity: 1; stroke-width: 1px;"/><path class="ygrid crisp" transform="translate(0,253.52)" d="M80,0h540" style="stroke: rgb(255, 255, 255); stroke-opacity: 1; stroke-width: 1px;"/><path class="ygrid crisp" transform="translate(0,205.92000000000002)" d="M80,0h540" style="stroke: rgb(255, 255, 255); stroke-opacity: 1; stroke-width: 1px;"/><path class="ygrid crisp" transform="translate(0,158.32)" d="M80,0h540" style="stroke: rgb(255, 255, 255); stroke-opacity: 1; stroke-width: 1px;"/><path class="ygrid crisp" transform="translate(0,110.71000000000001)" d="M80,0h540" style="stroke: rgb(255, 255, 255); stroke-opacity: 1; stroke-width: 1px;"/></g></g><g class="zerolinelayer"><path class="yzl zl crisp" transform="translate(0,396.32)" d="M80,0h540" style="stroke: rgb(255, 255, 255); stroke-opacity: 1; stroke-width: 2px;"/></g><path class="xlines-below"/><path class="ylines-below"/><g class="overlines-below"/><g class="xaxislayer-below"/><g class="yaxislayer-below"/><g class="overaxes-below"/><g class="plot" transform="translate(80,100)" clip-path="url(#clipb4e832xyplot)"><g class="scatterlayer mlayer"><g class="trace scatter traceec6b84" style="stroke-miterlimit: 2;"><g class="fills"><g><path class="js-fill" d="M540,296.32L0,296.32L0,301.94L5.74,301.29L8.62,301.03L11.49,300.34L14.36,300.51L17.23,300.44L20.11,299.07L22.98,294.17L25.85,294.35L28.72,298.81L31.6,294.06L37.34,294.73L40.21,294.76L43.09,294.89L45.96,292.36L48.83,286.41L51.7,285.53L54.57,285.53L57.45,287.08L60.32,277.43L63.19,277.31L66.06,277.19L68.94,279.72L71.81,280.04L74.68,278.21L80.43,279.85L83.3,285.58L86.17,282.26L89.04,277.12L91.91,275.82L94.79,276.36L100.53,275.03L103.4,275.55L114.89,275.35L117.77,274.55L120.64,288.88L123.51,290.28L126.38,303.56L129.26,301.88L135,302.62L137.87,304L140.74,292.28L143.62,290.79L146.49,295.89L149.36,294.35L152.23,293.36L155.11,293.83L157.98,295.09L160.85,295.21L163.72,296.82L166.6,296.27L169.47,295.03L172.34,288.96L175.21,288.49L178.09,294.84L180.96,295.33L183.83,294.45L186.7,285.77L189.57,283.12L195.32,283.61L198.19,281.27L201.06,280.33L203.94,275.22L206.81,274.92L209.68,272.03L212.55,280.27L215.43,251.55L218.3,266.36L221.17,266.78L224.04,272.68L226.91,290.81L229.79,290.67L232.66,298.23L235.53,299.32L238.4,298.72L241.28,290.64L244.15,290.44L247.02,292.4L249.89,292.79L261.38,292.59L264.26,293.81L272.87,293.43L275.74,293.42L281.49,293.34L284.36,292.33L287.23,291.98L290.11,294.17L292.98,291.05L295.85,290.82L298.72,286.77L301.6,285.61L304.47,285.4L307.34,283.71L310.21,281.91L313.09,281.19L318.83,281.45L321.7,278.05L324.57,277.46L327.45,269.29L330.32,262.43L333.19,259.35L336.06,264.01L338.94,252.62L341.81,241.51L344.68,237.63L350.43,212.74L353.3,207.82L356.17,207.81L359.04,204.42L361.91,192.58L364.79,189.23L367.66,183.3L370.53,179.82L373.4,178.47L376.28,172.97L379.15,142.39L382.02,140L384.89,121.38L387.77,124.81L390.64,124.76L393.51,116.74L396.38,108.82L399.26,107.86L402.13,107.89L405,103.62L407.87,105.46L410.74,98.24L413.62,96.38L416.49,83.07L419.36,76.01L422.23,71.01L425.11,80.69L427.98,75.32L430.85,59.15L433.72,60.03L436.6,58.83L439.47,52.21L442.34,41.3L445.21,25.74L448.09,18.15L450.96,17.82L453.83,16L456.7,17.4L459.57,16.28L462.45,20.48L465.32,22.5L468.19,29.26L471.06,119.48L473.94,300.28L476.81,297L479.68,268L482.55,208.06L485.43,199.26L488.3,185.09L491.17,153.41L494.04,109.13L496.91,84.07L499.79,80.53L502.66,84.05L505.53,83.58L508.4,92.2L514.15,99.9L517.02,100.34L519.89,108.51L522.77,107.84L525.64,112.31L528.51,112.84L531.38,103.95L534.26,103.01L540,103.06" style="fill: rgb(99, 110, 250); fill-opacity: 0.5; stroke-width: 0;"/></g></g><g class="errorbars"/><g class="lines"><path class="js-line" d="M0,301.94L5.74,301.29L8.62,301.03L11.49,300.34L14.36,300.51L17.23,300.44L20.11,299.07L22.98,294.17L25.85,294.35L28.72,298.81L31.6,294.06L37.34,294.73L40.21,294.76L43.09,294.89L45.96,292.36L48.83,286.41L51.7,285.53L54.57,285.53L57.45,287.08L60.32,277.43L63.19,277.31L66.06,277.19L68.94,279.72L71.81,280.04L74.68,278.21L80.43,279.85L83.3,285.58L86.17,282.26L89.04,277.12L91.91,275.82L94.79,276.36L100.53,275.03L103.4,275.55L114.89,275.35L117.77,274.55L120.64,288.88L123.51,290.28L126.38,303.56L129.26,301.88L135,302.62L137.87,304L140.74,292.28L143.62,290.79L146.49,295.89L149.36,294.35L152.23,293.36L155.11,293.83L157.98,295.09L160.85,295.21L163.72,296.82L166.6,296.27L169.47,295.03L172.34,288.96L175.21,288.49L178.09,294.84L180.96,295.33L183.83,294.45L186.7,285.77L189.57,283.12L195.32,283.61L198.19,281.27L201.06,280.33L203.94,275.22L206.81,274.92L209.68,272.03L212.55,280.27L215.43,251.55L218.3,266.36L221.17,266.78L224.04,272.68L226.91,290.81L229.79,290.67L232.66,298.23L235.53,299.32L238.4,298.72L241.28,290.64L244.15,290.44L247.02,292.4L249.89,292.79L261.38,292.59L264.26,293.81L272.87,293.43L275.74,293.42L281.49,293.34L284.36,292.33L287.23,291.98L290.11,294.17L292.98,291.05L295.85,290.82L298.72,286.77L301.6,285.61L304.47,285.4L307.34,283.71L310.21,281.91L313.09,281.19L318.83,281.45L321.7,278.05L324.57,277.46L327.45,269.29L330.32,262.43L333.19,259.35L336.06,264.01L338.94,252.62L341.81,241.51L344.68,237.63L350.43,212.74L353.3,207.82L356.17,207.81L359.04,204.42L361.91,192.58L364.79,189.23L367.66,183.3L370.53,179.82L373.4,178.47L376.28,172.97L379.15,142.39L382.02,140L384.89,121.38L387.77,124.81L390.64,124.76L393.51,116.74L396.38,108.82L399.26,107.86L402.13,107.89L405,103.62L407.87,105.46L410.74,98.24L413.62,96.38L416.49,83.07L419.36,76.01L422.23,71.01L425.11,80.69L427.98,75.32L430.85,59.15L433.72,60.03L436.6,58.83L439.47,52.21L442.34,41.3L445.21,25.74L448.09,18.15L450.96,17.82L453.83,16L456.7,17.4L459.57,16.28L462.45,20.48L465.32,22.5L468.19,29.26L471.06,119.48L473.94,300.28L476.81,297L479.68,268L482.55,208.06L485.43,199.26L488.3,185.09L491.17,153.41L494.04,109.13L496.91,84.07L499.79,80.53L502.66,84.05L505.53,83.58L508.4,92.2L514.15,99.9L517.02,100.34L519.89,108.51L522.77,107.84L525.64,112.31L528.51,112.84L531.38,103.95L534.26,103.01L540,103.06" style="vector-effect: non-scaling-stroke; fill: none; stroke: rgb(99, 110, 250); stroke-opacity: 1; stroke-width: 2px; opacity: 1;"/></g><g class="points"/><g class="text"/></g></g></g><g class="overplot"/><path class="xlines-above crisp" d="M0,0" style="fill: none;"/><path class="ylines-above crisp" d="M0,0" style="fill: none;"/><g class="overlines-above"/><g class="xaxislayer-above"><g class="xtick"><text text-anchor="middle" x="0" y="433" transform="translate(91.49,0)" style="font-family: 'Open Sans', verdana, arial, sans-serif; font-size: 12px; fill: rgb(42, 63, 95); fill-opacity: 1; white-space: pre; opacity: 1;">Oct 2022</text></g><g class="xtick"><text text-anchor="middle" x="0" y="433" style="font-family: 'Open Sans', verdana, arial, sans-serif; font-size: 12px; fill: rgb(42, 63, 95); fill-opacity: 1; white-space: pre; opacity: 1;" transform="translate(180.53,0)">Nov 2022</text></g><g class="xtick"><text text-anchor="middle" x="0" y="433" style="font-family: 'Open Sans', verdana, arial, sans-serif; font-size: 12px; fill: rgb(42, 63, 95); fill-opacity: 1; white-space: pre; opacity: 1;" transform="translate(266.7,0)">Dec 2022</text></g><g class="xtick"><text text-anchor="middle" x="0" y="433" style="font-family: 'Open Sans', verdana, arial, sans-serif; font-size: 12px; fill: rgb(42, 63, 95); fill-opacity: 1; white-space: pre; opacity: 1;" transform="translate(355.74,0)">Jan 2023</text></g><g class="xtick"><text text-anchor="middle" x="0" y="433" style="font-family: 'Open Sans', verdana, arial, sans-serif; font-size: 12px; fill: rgb(42, 63, 95); fill-opacity: 1; white-space: pre; opacity: 1;" transform="translate(444.79,0)">Feb 2023</text></g><g class="xtick"><text text-anchor="middle" x="0" y="433" style="font-family: 'Open Sans', verdana, arial, sans-serif; font-size: 12px; fill: rgb(42, 63, 95); fill-opacity: 1; white-space: pre; opacity: 1;" transform="translate(525.21,0)">Mar 2023</text></g><g class="xtick"><text text-anchor="middle" x="0" y="433" style="font-family: 'Open Sans', verdana, arial, sans-serif; font-size: 12px; fill: rgb(42, 63, 95); fill-opacity: 1; white-space: pre; opacity: 1;" transform="translate(614.26,0)">Apr 2023</text></g></g><g class="yaxislayer-above"><g class="ytick"><text text-anchor="end" x="79" y="4.199999999999999" transform="translate(0,396.32)" style="font-family: 'Open Sans', verdana, arial, sans-serif; font-size: 12px; fill: rgb(42, 63, 95); fill-opacity: 1; white-space: pre; opacity: 1;">$0</text></g><g class="ytick"><text text-anchor="end" x="79" y="4.199999999999999" style="font-family: 'Open Sans', verdana, arial, sans-serif; font-size: 12px; fill: rgb(42, 63, 95); fill-opacity: 1; white-space: pre; opacity: 1;" transform="translate(0,348.72)">$5M</text></g><g class="ytick"><text text-anchor="end" x="79" y="4.199999999999999" style="font-family: 'Open Sans', verdana, arial, sans-serif; font-size: 12px; fill: rgb(42, 63, 95); fill-opacity: 1; white-space: pre; opacity: 1;" transform="translate(0,301.12)">$10M</text></g><g class="ytick"><text text-anchor="end" x="79" y="4.199999999999999" style="font-family: 'Open Sans', verdana, arial, sans-serif; font-size: 12px; fill: rgb(42, 63, 95); fill-opacity: 1; white-space: pre; opacity: 1;" transform="translate(0,253.52)">$15M</text></g><g class="ytick"><text text-anchor="end" x="79" y="4.199999999999999" style="font-family: 'Open Sans', verdana, arial, sans-serif; font-size: 12px; fill: rgb(42, 63, 95); fill-opacity: 1; white-space: pre; opacity: 1;" transform="translate(0,205.92000000000002)">$20M</text></g><g class="ytick"><text text-anchor="end" x="79" y="4.199999999999999" style="font-family: 'Open Sans', verdana, arial, sans-serif; font-size: 12px; fill: rgb(42, 63, 95); fill-opacity: 1; white-space: pre; opacity: 1;" transform="translate(0,158.32)">$25M</text></g><g class="ytick"><text text-anchor="end" x="79" y="4.199999999999999" style="font-family: 'Open Sans', verdana, arial, sans-serif; font-size: 12px; fill: rgb(42, 63, 95); fill-opacity: 1; white-space: pre; opacity: 1;" transform="translate(0,110.71000000000001)">$30M</text></g></g><g class="overaxes-above"/></g></g><g class="polarlayer"/><g class="smithlayer"/><g class="ternarylayer"/><g class="geolayer"/><g class="funnelarealayer"/><g class="pielayer"/><g class="iciclelayer"/><g class="treemaplayer"/><g class="sunburstlayer"/><g class="glimages"/><defs id="topdefs-b4e832"><g class="clips"/></defs><g class="layer-above"><g class="imagelayer"/><g class="shapelayer"/></g><g class="infolayer"><g class="g-gtitle"><text class="gtitle" x="35" y="50" text-anchor="start" dy="0em" style="font-family: 'Open Sans', verdana, arial, sans-serif; font-size: 17px; fill: rgb(42, 63, 95); opacity: 1; font-weight: normal; white-space: pre;"><tspan class="line" dy="0em" x="35" y="50">Synthetix - USDC/sUSD: Velodrome</tspan><tspan class="line" dy="1.3em" x="35" y="50">​<tspan style="font-size:70%" dy="-0.6em">Cumulative Net Flows since Program Announcement, Until Program End + 30 Days - At Last Price</tspan><tspan dy="0.42em">​</tspan></tspan></text></g><g class="g-xtitle"><text class="xtitle" x="350" y="460.8" text-anchor="middle" style="font-family: 'Open Sans', verdana, arial, sans-serif; font-size: 14px; fill: rgb(42, 63, 95); opacity: 1; font-weight: normal; white-space: pre;">Day</text></g><g class="g-ytitle"><text class="ytitle" transform="rotate(-90,24.168750000000003,260)" x="24.168750000000003" y="260" text-anchor="middle" style="font-family: 'Open Sans', verdana, arial, sans-serif; font-size: 14px; fill: rgb(42, 63, 95); opacity: 1; font-weight: normal; white-space: pre;">Cumulative Net Flows (USD)</text></g></g></svg>