<svg class="main-svg" xmlns="http://www.w3.org/2000/svg" xmlns:xlink="http://www.w3.org/1999/xlink" width="700" height="500" style="" viewBox="0 0 700 500"><rect x="0" y="0" width="700" height="500" style="fill: rgb(255, 255, 255); fill-opacity: 1;"/><defs id="defs-ba06c5"><g class="clips"><clipPath id="clipba06c5xyplot" class="plotclip"><rect width="540" height="320"/></clipPath><clipPath class="axesclip" id="clipba06c5x"><rect x="80" y="0" width="540" height="500"/></clipPath><clipPath class="axesclip" id="clipba06c5y"><rect x="0" y="100" width="700" height="320"/></clipPath><clipPath class="axesclip" id="clipba06c5xy"><rect x="80" y="100" width="540" height="320"/></clipPath></g><g class="gradients"/><g class="patterns"/></defs><g class="bglayer"><rect class="bg" x="80" y="100" width="540" height="320" style="fill: rgb(229, 236, 246); fill-opacity: 1; stroke-width: 0;"/></g><g class="layer-below"><g class="imagelayer"/><g class="shapelayer"/></g><g class="cartesianlayer"><g class="subplot xy"><g class="layer-subplot"><g class="shapelayer"/><g class="imagelayer"/></g><g class="minor-gridlayer"><g class="x"/><g class="y"/></g><g class="gridlayer"><g class="x"><path class="xgrid crisp" transform="translate(93.5,0)" d="M0,100v320" style="stroke: rgb(255, 255, 255); stroke-opacity: 1; stroke-width: 1px;"/><path class="xgrid crisp" transform="translate(198.13,0)" d="M0,100v320" style="stroke: rgb(255, 255, 255); stroke-opacity: 1; stroke-width: 1px;"/><path class="xgrid crisp" transform="translate(299.38,0)" d="M0,100v320" style="stroke: rgb(255, 255, 255); stroke-opacity: 1; stroke-width: 1px;"/><path class="xgrid crisp" transform="translate(404,0)" d="M0,100v320" style="stroke: rgb(255, 255, 255); stroke-opacity: 1; stroke-width: 1px;"/><path class="xgrid crisp" transform="translate(508.63,0)" d="M0,100v320" style="stroke: rgb(255, 255, 255); stroke-opacity: 1; stroke-width: 1px;"/><path class="xgrid crisp" transform="translate(603.13,0)" d="M0,100v320" style="stroke: rgb(255, 255, 255); stroke-opacity: 1; stroke-width: 1px;"/></g><g class="y"><path class="ygrid crisp" transform="translate(0,363.54)" d="M80,0h540" style="stroke: rgb(255, 255, 255); stroke-opacity: 1; stroke-width: 1px;"/><path class="ygrid crisp" transform="translate(0,327.65)" d="M80,0h540" style="stroke: rgb(255, 255, 255); stroke-opacity: 1; stroke-width: 1px;"/><path class="ygrid crisp" transform="translate(0,291.76)" d="M80,0h540" style="stroke: rgb(255, 255, 255); stroke-opacity: 1; stroke-width: 1px;"/><path class="ygrid crisp" transform="translate(0,255.88)" d="M80,0h540" style="stroke: rgb(255, 255, 255); stroke-opacity: 1; stroke-width: 1px;"/><path class="ygrid crisp" transform="translate(0,219.99)" d="M80,0h540" style="stroke: rgb(255, 255, 255); stroke-opacity: 1; stroke-width: 1px;"/><path class="ygrid crisp" transform="translate(0,184.1)" d="M80,0h540" style="stroke: rgb(255, 255, 255); stroke-opacity: 1; stroke-width: 1px;"/><path class="ygrid crisp" transform="translate(0,148.21)" d="M80,0h540" style="stroke: rgb(255, 255, 255); stroke-opacity: 1; stroke-width: 1px;"/><path class="ygrid crisp" transform="translate(0,112.32)" d="M80,0h540" style="stroke: rgb(255, 255, 255); stroke-opacity: 1; stroke-width: 1px;"/></g></g><g class="zerolinelayer"><path class="yzl zl crisp" transform="translate(0,399.43)" d="M80,0h540" style="stroke: rgb(255, 255, 255); stroke-opacity: 1; stroke-width: 2px;"/></g><path class="xlines-below"/><path class="ylines-below"/><g class="overlines-below"/><g class="xaxislayer-below"/><g class="yaxislayer-below"/><g class="overaxes-below"/><g class="plot" transform="translate(80,100)" clip-path="url(#clipba06c5xyplot)"><g class="scatterlayer mlayer"><g class="trace scatter trace800178" style="stroke-miterlimit: 2;"><g class="fills"><g><path class="js-fill" d="M540,299.43L0,299.43L0,298L3.38,298.31L6.75,299.72L10.13,300.81L13.5,300.78L27,298.67L30.38,299.19L37.13,296.05L40.5,291.92L43.88,290.8L47.25,290.74L50.63,290.77L54,289.48L57.38,272.97L60.75,276.99L64.13,270.59L67.5,271.57L74.25,273.3L77.63,273.68L84.38,273.63L87.75,272.66L91.13,272.76L94.5,274.26L101.25,289.27L104.63,288.27L114.75,287.14L118.13,287.93L121.5,287.99L124.88,278.57L135,278.57L138.38,279.73L141.75,301.31L145.13,304L151.88,301.73L155.25,302.74L158.63,302.84L162,302.15L165.38,300.47L168.75,302.7L175.5,294.43L178.88,294.03L182.25,294.91L185.63,294.53L189,295.57L192.38,294.77L195.75,277.53L199.13,277.6L209.25,277.51L212.63,276.46L216,277.3L219.38,277.05L226.13,276.51L229.5,273.25L232.88,273.21L236.25,282.57L239.63,282.78L243,298.19L246.38,289.69L249.75,289.2L253.13,289.03L256.5,286.35L259.88,281.7L263.25,281.31L266.63,280.92L270,281.82L276.75,281.77L280.13,283.04L283.5,282.47L286.88,279.53L290.25,274.03L293.63,273.81L300.38,273.66L303.75,276.52L307.13,282.02L310.5,281.72L313.88,281.69L317.25,283.05L320.63,288.8L324,288.66L327.38,284.71L330.75,285.15L334.13,283.28L337.5,284.43L340.88,285.43L344.25,284.82L347.63,285.97L351,285.22L357.75,284.75L361.13,284.09L364.5,283.95L367.88,284.88L378,284.17L381.38,282.69L384.75,277.99L388.13,281.83L391.5,272.55L394.88,272.03L398.25,272.4L401.63,262.86L405,227.71L408.38,221.86L411.75,218.06L415.13,218.21L418.5,218.23L421.88,215.06L428.63,214.22L432,207.48L435.38,204.51L438.75,193.37L442.13,190.66L445.5,181.57L448.88,181.29L452.25,176.59L455.63,174.72L459,183.44L462.38,180.32L465.75,180.14L469.13,179.29L472.5,186L475.88,173.66L479.25,152.39L482.63,160.2L486,160.94L489.38,124.3L492.75,126.71L496.13,125.57L499.5,128.19L502.88,127.57L506.25,118.55L509.63,113.8L513,83.64L516.38,72.66L519.75,75.25L523.13,75.57L526.5,21.18L529.87,16L533.25,24.71L536.62,34.67L540,30.53" style="fill: rgb(99, 110, 250); fill-opacity: 0.5; stroke-width: 0;"/></g></g><g class="errorbars"/><g class="lines"><path class="js-line" d="M0,298L3.38,298.31L6.75,299.72L10.13,300.81L13.5,300.78L27,298.67L30.38,299.19L37.13,296.05L40.5,291.92L43.88,290.8L47.25,290.74L50.63,290.77L54,289.48L57.38,272.97L60.75,276.99L64.13,270.59L67.5,271.57L74.25,273.3L77.63,273.68L84.38,273.63L87.75,272.66L91.13,272.76L94.5,274.26L101.25,289.27L104.63,288.27L114.75,287.14L118.13,287.93L121.5,287.99L124.88,278.57L135,278.57L138.38,279.73L141.75,301.31L145.13,304L151.88,301.73L155.25,302.74L158.63,302.84L162,302.15L165.38,300.47L168.75,302.7L175.5,294.43L178.88,294.03L182.25,294.91L185.63,294.53L189,295.57L192.38,294.77L195.75,277.53L199.13,277.6L209.25,277.51L212.63,276.46L216,277.3L219.38,277.05L226.13,276.51L229.5,273.25L232.88,273.21L236.25,282.57L239.63,282.78L243,298.19L246.38,289.69L249.75,289.2L253.13,289.03L256.5,286.35L259.88,281.7L263.25,281.31L266.63,280.92L270,281.82L276.75,281.77L280.13,283.04L283.5,282.47L286.88,279.53L290.25,274.03L293.63,273.81L300.38,273.66L303.75,276.52L307.13,282.02L310.5,281.72L313.88,281.69L317.25,283.05L320.63,288.8L324,288.66L327.38,284.71L330.75,285.15L334.13,283.28L337.5,284.43L340.88,285.43L344.25,284.82L347.63,285.97L351,285.22L357.75,284.75L361.13,284.09L364.5,283.95L367.88,284.88L378,284.17L381.38,282.69L384.75,277.99L388.13,281.83L391.5,272.55L394.88,272.03L398.25,272.4L401.63,262.86L405,227.71L408.38,221.86L411.75,218.06L415.13,218.21L418.5,218.23L421.88,215.06L428.63,214.22L432,207.48L435.38,204.51L438.75,193.37L442.13,190.66L445.5,181.57L448.88,181.29L452.25,176.59L455.63,174.72L459,183.44L462.38,180.32L465.75,180.14L469.13,179.29L472.5,186L475.88,173.66L479.25,152.39L482.63,160.2L486,160.94L489.38,124.3L492.75,126.71L496.13,125.57L499.5,128.19L502.88,127.57L506.25,118.55L509.63,113.8L513,83.64L516.38,72.66L519.75,75.25L523.13,75.57L526.5,21.18L529.87,16L533.25,24.71L536.62,34.67L540,30.53" style="vector-effect: non-scaling-stroke; fill: none; stroke: rgb(99, 110, 250); stroke-opacity: 1; stroke-width: 2px; opacity: 1;"/></g><g class="points"/><g class="text"/></g></g></g><g class="overplot"/><path class="xlines-above crisp" d="M0,0" style="fill: none;"/><path class="ylines-above crisp" d="M0,0" style="fill: none;"/><g class="overlines-above"/><g class="xaxislayer-above"><g class="xtick"><text text-anchor="middle" x="0" y="433" transform="translate(93.5,0)" style="font-family: 'Open Sans', verdana, arial, sans-serif; font-size: 12px; fill: rgb(42, 63, 95); fill-opacity: 1; white-space: pre; opacity: 1;">Oct 2022</text></g><g class="xtick"><text text-anchor="middle" x="0" y="433" style="font-family: 'Open Sans', verdana, arial, sans-serif; font-size: 12px; fill: rgb(42, 63, 95); fill-opacity: 1; white-space: pre; opacity: 1;" transform="translate(198.13,0)">Nov 2022</text></g><g class="xtick"><text text-anchor="middle" x="0" y="433" style="font-family: 'Open Sans', verdana, arial, sans-serif; font-size: 12px; fill: rgb(42, 63, 95); fill-opacity: 1; white-space: pre; opacity: 1;" transform="translate(299.38,0)">Dec 2022</text></g><g class="xtick"><text text-anchor="middle" x="0" y="433" style="font-family: 'Open Sans', verdana, arial, sans-serif; font-size: 12px; fill: rgb(42, 63, 95); fill-opacity: 1; white-space: pre; opacity: 1;" transform="translate(404,0)">Jan 2023</text></g><g class="xtick"><text text-anchor="middle" x="0" y="433" style="font-family: 'Open Sans', verdana, arial, sans-serif; font-size: 12px; fill: rgb(42, 63, 95); fill-opacity: 1; white-space: pre; opacity: 1;" transform="translate(508.63,0)">Feb 2023</text></g><g class="xtick"><text text-anchor="middle" x="0" y="433" style="font-family: 'Open Sans', verdana, arial, sans-serif; font-size: 12px; fill: rgb(42, 63, 95); fill-opacity: 1; white-space: pre; opacity: 1;" transform="translate(603.13,0)">Mar 2023</text></g></g><g class="yaxislayer-above"><g class="ytick"><text text-anchor="end" x="79" y="4.199999999999999" transform="translate(0,399.43)" style="font-family: 'Open Sans', verdana, arial, sans-serif; font-size: 12px; fill: rgb(42, 63, 95); fill-opacity: 1; white-space: pre; opacity: 1;">$0</text></g><g class="ytick"><text text-anchor="end" x="79" y="4.199999999999999" style="font-family: 'Open Sans', verdana, arial, sans-serif; font-size: 12px; fill: rgb(42, 63, 95); fill-opacity: 1; white-space: pre; opacity: 1;" transform="translate(0,363.54)">$1M</text></g><g class="ytick"><text text-anchor="end" x="79" y="4.199999999999999" style="font-family: 'Open Sans', verdana, arial, sans-serif; font-size: 12px; fill: rgb(42, 63, 95); fill-opacity: 1; white-space: pre; opacity: 1;" transform="translate(0,327.65)">$2M</text></g><g class="ytick"><text text-anchor="end" x="79" y="4.199999999999999" style="font-family: 'Open Sans', verdana, arial, sans-serif; font-size: 12px; fill: rgb(42, 63, 95); fill-opacity: 1; white-space: pre; opacity: 1;" transform="translate(0,291.76)">$3M</text></g><g class="ytick"><text text-anchor="end" x="79" y="4.199999999999999" style="font-family: 'Open Sans', verdana, arial, sans-serif; font-size: 12px; fill: rgb(42, 63, 95); fill-opacity: 1; white-space: pre; opacity: 1;" transform="translate(0,255.88)">$4M</text></g><g class="ytick"><text text-anchor="end" x="79" y="4.199999999999999" style="font-family: 'Open Sans', verdana, arial, sans-serif; font-size: 12px; fill: rgb(42, 63, 95); fill-opacity: 1; white-space: pre; opacity: 1;" transform="translate(0,219.99)">$5M</text></g><g class="ytick"><text text-anchor="end" x="79" y="4.199999999999999" style="font-family: 'Open Sans', verdana, arial, sans-serif; font-size: 12px; fill: rgb(42, 63, 95); fill-opacity: 1; white-space: pre; opacity: 1;" transform="translate(0,184.1)">$6M</text></g><g class="ytick"><text text-anchor="end" x="79" y="4.199999999999999" style="font-family: 'Open Sans', verdana, arial, sans-serif; font-size: 12px; fill: rgb(42, 63, 95); fill-opacity: 1; white-space: pre; opacity: 1;" transform="translate(0,148.21)">$7M</text></g><g class="ytick"><text text-anchor="end" x="79" y="4.199999999999999" style="font-family: 'Open Sans', verdana, arial, sans-serif; font-size: 12px; fill: rgb(42, 63, 95); fill-opacity: 1; white-space: pre; opacity: 1;" transform="translate(0,112.32)">$8M</text></g></g><g class="overaxes-above"/></g></g><g class="polarlayer"/><g class="smithlayer"/><g class="ternarylayer"/><g class="geolayer"/><g class="funnelarealayer"/><g class="pielayer"/><g class="iciclelayer"/><g class="treemaplayer"/><g class="sunburstlayer"/><g class="glimages"/><defs id="topdefs-ba06c5"><g class="clips"/></defs><g class="layer-above"><g class="imagelayer"/><g class="shapelayer"/></g><g class="infolayer"><g class="g-gtitle"><text class="gtitle" x="35" y="50" text-anchor="start" dy="0em" style="font-family: 'Open Sans', verdana, arial, sans-serif; font-size: 17px; fill: rgb(42, 63, 95); opacity: 1; font-weight: normal; white-space: pre;"><tspan class="line" dy="0em" x="35" y="50">Synthetix - USDC/SNX: Velo</tspan><tspan class="line" dy="1.3em" x="35" y="50">​<tspan style="font-size:70%" dy="-0.6em">Cumulative Net Flows since Program Announcement, Until Program End + 30 Days - At Last Price</tspan><tspan dy="0.42em">​</tspan></tspan></text></g><g class="g-xtitle"><text class="xtitle" x="350" y="460.8" text-anchor="middle" style="font-family: 'Open Sans', verdana, arial, sans-serif; font-size: 14px; fill: rgb(42, 63, 95); opacity: 1; font-weight: normal; white-space: pre;">Day</text></g><g class="g-ytitle"><text class="ytitle" transform="rotate(-90,30.856250000000003,260)" x="30.856250000000003" y="260" text-anchor="middle" style="font-family: 'Open Sans', verdana, arial, sans-serif; font-size: 14px; fill: rgb(42, 63, 95); opacity: 1; font-weight: normal; white-space: pre;">Cumulative Net Flows (USD)</text></g></g></svg>