<svg class="main-svg" xmlns="http://www.w3.org/2000/svg" xmlns:xlink="http://www.w3.org/1999/xlink" width="700" height="500" style="" viewBox="0 0 700 500"><rect x="0" y="0" width="700" height="500" style="fill: rgb(255, 255, 255); fill-opacity: 1;"/><defs id="defs-c505f9"><g class="clips"><clipPath id="clipc505f9xyplot" class="plotclip"><rect width="540" height="320"/></clipPath><clipPath class="axesclip" id="clipc505f9x"><rect x="80" y="0" width="540" height="500"/></clipPath><clipPath class="axesclip" id="clipc505f9y"><rect x="0" y="100" width="700" height="320"/></clipPath><clipPath class="axesclip" id="clipc505f9xy"><rect x="80" y="100" width="540" height="320"/></clipPath></g><g class="gradients"/><g class="patterns"/></defs><g class="bglayer"><rect class="bg" x="80" y="100" width="540" height="320" style="fill: rgb(229, 236, 246); fill-opacity: 1; stroke-width: 0;"/></g><g class="layer-below"><g class="imagelayer"/><g class="shapelayer"/></g><g class="cartesianlayer"><g class="subplot xy"><g class="layer-subplot"><g class="shapelayer"/><g class="imagelayer"/></g><g class="minor-gridlayer"><g class="x"/><g class="y"/></g><g class="gridlayer"><g class="x"><path class="xgrid crisp" transform="translate(125.96000000000001,0)" d="M0,100v320" style="stroke: rgb(255, 255, 255); stroke-opacity: 1; stroke-width: 1px;"/><path class="xgrid crisp" transform="translate(244.68,0)" d="M0,100v320" style="stroke: rgb(255, 255, 255); stroke-opacity: 1; stroke-width: 1px;"/><path class="xgrid crisp" transform="translate(359.57,0)" d="M0,100v320" style="stroke: rgb(255, 255, 255); stroke-opacity: 1; stroke-width: 1px;"/><path class="xgrid crisp" transform="translate(478.3,0)" d="M0,100v320" style="stroke: rgb(255, 255, 255); stroke-opacity: 1; stroke-width: 1px;"/><path class="xgrid crisp" transform="translate(597.02,0)" d="M0,100v320" style="stroke: rgb(255, 255, 255); stroke-opacity: 1; stroke-width: 1px;"/></g><g class="y"><path class="ygrid crisp" transform="translate(0,354.74)" d="M80,0h540" style="stroke: rgb(255, 255, 255); stroke-opacity: 1; stroke-width: 1px;"/><path class="ygrid crisp" transform="translate(0,289.47)" d="M80,0h540" style="stroke: rgb(255, 255, 255); stroke-opacity: 1; stroke-width: 1px;"/><path class="ygrid crisp" transform="translate(0,224.20999999999998)" d="M80,0h540" style="stroke: rgb(255, 255, 255); stroke-opacity: 1; stroke-width: 1px;"/><path class="ygrid crisp" transform="translate(0,158.95)" d="M80,0h540" style="stroke: rgb(255, 255, 255); stroke-opacity: 1; stroke-width: 1px;"/></g></g><g class="zerolinelayer"><path class="yzl zl crisp" transform="translate(0,420)" d="M80,0h540" style="stroke: rgb(255, 255, 255); stroke-opacity: 1; stroke-width: 2px;"/></g><path class="xlines-below"/><path class="ylines-below"/><g class="overlines-below"/><g class="xaxislayer-below"/><g class="yaxislayer-below"/><g class="overaxes-below"/><g class="plot" transform="translate(80,100)" clip-path="url(#clipc505f9xyplot)"><g class="scatterlayer mlayer"><g class="trace scatter tracec319c1" style="stroke-miterlimit: 2;"><g class="fills"><g><path class="js-fill" d="M540,320L0,320L0,320L3.83,318.12L7.66,312.68L11.49,296.03L15.32,288.3L19.15,287.23L22.98,281.93L26.81,278.03L30.64,277.88L34.47,275.73L38.3,272.28L42.13,276.63L45.96,276.27L49.79,278.09L53.62,276.67L57.45,275.86L61.28,275.88L76.6,276.21L80.43,275.12L84.26,274.63L88.09,273.06L95.74,272.22L99.57,273.18L103.4,270.39L107.23,270.36L114.89,270.19L118.72,268.11L122.55,268.1L126.38,272.58L137.87,272.79L141.7,271.98L145.53,225.63L149.36,158.26L153.19,132.87L157.02,130.14L160.85,124.13L164.68,122.66L168.51,128.82L172.34,131.9L176.17,125.26L180,128.21L183.83,125.3L187.66,126.78L191.49,119.15L195.32,137.38L199.15,153.1L202.98,162.43L206.81,180.82L210.64,186.64L214.47,188.83L218.3,188.95L225.96,188.39L229.79,198.4L237.45,198.1L241.28,204.26L245.11,203.15L248.94,204.94L256.6,205.55L260.43,207.05L279.57,206.68L283.4,205.95L287.23,202.65L291.06,200.65L294.89,200.54L298.72,198.4L310.21,198.02L314.04,194.96L317.87,193.85L321.7,193.84L325.53,193.82L329.36,200.73L344.68,200.36L348.51,201.88L356.17,201.82L360,199.74L367.66,199.32L371.49,198.09L375.32,197.98L379.15,198.71L386.81,198.35L390.64,196.23L394.47,197.61L398.3,197.55L405.96,197.46L409.79,196.24L413.62,196.08L417.45,193.65L425.11,193.62L428.94,213.31L432.77,215.32L436.6,215.42L440.43,212.93L444.26,213.3L448.09,216.65L451.91,221.05L455.74,215.01L459.57,215.03L467.23,210.09L471.06,91.77L474.89,90.07L478.72,75.53L482.55,48.24L486.38,39.44L490.21,30.05L494.04,35.1L497.87,40.04L501.7,33.61L505.53,18.37L509.36,16L513.19,17.82L517.02,27.92L520.85,24.25L524.68,32.72L528.51,34L532.34,36.77L536.17,32.75L540,22.29" style="fill: rgb(99, 110, 250); fill-opacity: 0.5; stroke-width: 0;"/></g></g><g class="errorbars"/><g class="lines"><path class="js-line" d="M0,320L3.83,318.12L7.66,312.68L11.49,296.03L15.32,288.3L19.15,287.23L22.98,281.93L26.81,278.03L30.64,277.88L34.47,275.73L38.3,272.28L42.13,276.63L45.96,276.27L49.79,278.09L53.62,276.67L57.45,275.86L61.28,275.88L76.6,276.21L80.43,275.12L84.26,274.63L88.09,273.06L95.74,272.22L99.57,273.18L103.4,270.39L107.23,270.36L114.89,270.19L118.72,268.11L122.55,268.1L126.38,272.58L137.87,272.79L141.7,271.98L145.53,225.63L149.36,158.26L153.19,132.87L157.02,130.14L160.85,124.13L164.68,122.66L168.51,128.82L172.34,131.9L176.17,125.26L180,128.21L183.83,125.3L187.66,126.78L191.49,119.15L195.32,137.38L199.15,153.1L202.98,162.43L206.81,180.82L210.64,186.64L214.47,188.83L218.3,188.95L225.96,188.39L229.79,198.4L237.45,198.1L241.28,204.26L245.11,203.15L248.94,204.94L256.6,205.55L260.43,207.05L279.57,206.68L283.4,205.95L287.23,202.65L291.06,200.65L294.89,200.54L298.72,198.4L310.21,198.02L314.04,194.96L317.87,193.85L321.7,193.84L325.53,193.82L329.36,200.73L344.68,200.36L348.51,201.88L356.17,201.82L360,199.74L367.66,199.32L371.49,198.09L375.32,197.98L379.15,198.71L386.81,198.35L390.64,196.23L394.47,197.61L398.3,197.55L405.96,197.46L409.79,196.24L413.62,196.08L417.45,193.65L425.11,193.62L428.94,213.31L432.77,215.32L436.6,215.42L440.43,212.93L444.26,213.3L448.09,216.65L451.91,221.05L455.74,215.01L459.57,215.03L467.23,210.09L471.06,91.77L474.89,90.07L478.72,75.53L482.55,48.24L486.38,39.44L490.21,30.05L494.04,35.1L497.87,40.04L501.7,33.61L505.53,18.37L509.36,16L513.19,17.82L517.02,27.92L520.85,24.25L524.68,32.72L528.51,34L532.34,36.77L536.17,32.75L540,22.29" style="vector-effect: non-scaling-stroke; fill: none; stroke: rgb(99, 110, 250); stroke-opacity: 1; stroke-width: 2px; opacity: 1;"/></g><g class="points"/><g class="text"/></g></g></g><g class="overplot"/><path class="xlines-above crisp" d="M0,0" style="fill: none;"/><path class="ylines-above crisp" d="M0,0" style="fill: none;"/><g class="overlines-above"/><g class="xaxislayer-above"><g class="xtick"><text text-anchor="middle" x="0" y="433" transform="translate(125.96000000000001,0)" style="font-family: 'Open Sans', verdana, arial, sans-serif; font-size: 12px; fill: rgb(42, 63, 95); fill-opacity: 1; white-space: pre; opacity: 1;">Oct 2022</text></g><g class="xtick"><text text-anchor="middle" x="0" y="433" style="font-family: 'Open Sans', verdana, arial, sans-serif; font-size: 12px; fill: rgb(42, 63, 95); fill-opacity: 1; white-space: pre; opacity: 1;" transform="translate(244.68,0)">Nov 2022</text></g><g class="xtick"><text text-anchor="middle" x="0" y="433" style="font-family: 'Open Sans', verdana, arial, sans-serif; font-size: 12px; fill: rgb(42, 63, 95); fill-opacity: 1; white-space: pre; opacity: 1;" transform="translate(359.57,0)">Dec 2022</text></g><g class="xtick"><text text-anchor="middle" x="0" y="433" style="font-family: 'Open Sans', verdana, arial, sans-serif; font-size: 12px; fill: rgb(42, 63, 95); fill-opacity: 1; white-space: pre; opacity: 1;" transform="translate(478.3,0)">Jan 2023</text></g><g class="xtick"><text text-anchor="middle" x="0" y="433" style="font-family: 'Open Sans', verdana, arial, sans-serif; font-size: 12px; fill: rgb(42, 63, 95); fill-opacity: 1; white-space: pre; opacity: 1;" transform="translate(597.02,0)">Feb 2023</text></g></g><g class="yaxislayer-above"><g class="ytick"><text text-anchor="end" x="79" y="4.199999999999999" transform="translate(0,420)" style="font-family: 'Open Sans', verdana, arial, sans-serif; font-size: 12px; fill: rgb(42, 63, 95); fill-opacity: 1; white-space: pre; opacity: 1;">$0</text></g><g class="ytick"><text text-anchor="end" x="79" y="4.199999999999999" style="font-family: 'Open Sans', verdana, arial, sans-serif; font-size: 12px; fill: rgb(42, 63, 95); fill-opacity: 1; white-space: pre; opacity: 1;" transform="translate(0,354.74)">$1M</text></g><g class="ytick"><text text-anchor="end" x="79" y="4.199999999999999" style="font-family: 'Open Sans', verdana, arial, sans-serif; font-size: 12px; fill: rgb(42, 63, 95); fill-opacity: 1; white-space: pre; opacity: 1;" transform="translate(0,289.47)">$2M</text></g><g class="ytick"><text text-anchor="end" x="79" y="4.199999999999999" style="font-family: 'Open Sans', verdana, arial, sans-serif; font-size: 12px; fill: rgb(42, 63, 95); fill-opacity: 1; white-space: pre; opacity: 1;" transform="translate(0,224.20999999999998)">$3M</text></g><g class="ytick"><text text-anchor="end" x="79" y="4.199999999999999" style="font-family: 'Open Sans', verdana, arial, sans-serif; font-size: 12px; fill: rgb(42, 63, 95); fill-opacity: 1; white-space: pre; opacity: 1;" transform="translate(0,158.95)">$4M</text></g></g><g class="overaxes-above"/></g></g><g class="polarlayer"/><g class="smithlayer"/><g class="ternarylayer"/><g class="geolayer"/><g class="funnelarealayer"/><g class="pielayer"/><g class="iciclelayer"/><g class="treemaplayer"/><g class="sunburstlayer"/><g class="glimages"/><defs id="topdefs-c505f9"><g class="clips"/></defs><g class="layer-above"><g class="imagelayer"/><g class="shapelayer"/></g><g class="infolayer"><g class="g-gtitle"><text class="gtitle" x="35" y="50" text-anchor="start" dy="0em" style="font-family: 'Open Sans', verdana, arial, sans-serif; font-size: 17px; fill: rgb(42, 63, 95); opacity: 1; font-weight: normal; white-space: pre;"><tspan class="line" dy="0em" x="35" y="50">Xtoken</tspan><tspan class="line" dy="1.3em" x="35" y="50">​<tspan style="font-size:70%" dy="-0.6em">Cumulative Net Flows since Program Announcement, Until Program End + 30 Days - At Last Price</tspan><tspan dy="0.42em">​</tspan></tspan></text></g><g class="g-xtitle"><text class="xtitle" x="350" y="460.8" text-anchor="middle" style="font-family: 'Open Sans', verdana, arial, sans-serif; font-size: 14px; fill: rgb(42, 63, 95); opacity: 1; font-weight: normal; white-space: pre;">Day</text></g><g class="g-ytitle"><text class="ytitle" transform="rotate(-90,30.856250000000003,260)" x="30.856250000000003" y="260" text-anchor="middle" style="font-family: 'Open Sans', verdana, arial, sans-serif; font-size: 14px; fill: rgb(42, 63, 95); opacity: 1; font-weight: normal; white-space: pre;">Cumulative Net Flows (USD)</text></g></g></svg>