<svg class="main-svg" xmlns="http://www.w3.org/2000/svg" xmlns:xlink="http://www.w3.org/1999/xlink" width="700" height="500" style="" viewBox="0 0 700 500"><rect x="0" y="0" width="700" height="500" style="fill: rgb(255, 255, 255); fill-opacity: 1;"/><defs id="defs-7c6dbf"><g class="clips"><clipPath id="clip7c6dbfxyplot" class="plotclip"><rect width="540" height="320"/></clipPath><clipPath class="axesclip" id="clip7c6dbfx"><rect x="80" y="0" width="540" height="500"/></clipPath><clipPath class="axesclip" id="clip7c6dbfy"><rect x="0" y="100" width="700" height="320"/></clipPath><clipPath class="axesclip" id="clip7c6dbfxy"><rect x="80" y="100" width="540" height="320"/></clipPath></g><g class="gradients"/><g class="patterns"/></defs><g class="bglayer"><rect class="bg" x="80" y="100" width="540" height="320" style="fill: rgb(229, 236, 246); fill-opacity: 1; stroke-width: 0;"/></g><g class="layer-below"><g class="imagelayer"/><g class="shapelayer"/></g><g class="cartesianlayer"><g class="subplot xy"><g class="layer-subplot"><g class="shapelayer"/><g class="imagelayer"/></g><g class="minor-gridlayer"><g class="x"/><g class="y"/></g><g class="gridlayer"><g class="x"><path class="xgrid crisp" transform="translate(106.34,0)" d="M0,100v320" style="stroke: rgb(255, 255, 255); stroke-opacity: 1; stroke-width: 1px;"/><path class="xgrid crisp" transform="translate(188,0)" d="M0,100v320" style="stroke: rgb(255, 255, 255); stroke-opacity: 1; stroke-width: 1px;"/><path class="xgrid crisp" transform="translate(267.02,0)" d="M0,100v320" style="stroke: rgb(255, 255, 255); stroke-opacity: 1; stroke-width: 1px;"/><path class="xgrid crisp" transform="translate(348.68,0)" d="M0,100v320" style="stroke: rgb(255, 255, 255); stroke-opacity: 1; stroke-width: 1px;"/><path class="xgrid crisp" transform="translate(427.71,0)" d="M0,100v320" style="stroke: rgb(255, 255, 255); stroke-opacity: 1; stroke-width: 1px;"/><path class="xgrid crisp" transform="translate(509.37,0)" d="M0,100v320" style="stroke: rgb(255, 255, 255); stroke-opacity: 1; stroke-width: 1px;"/><path class="xgrid crisp" transform="translate(591.02,0)" d="M0,100v320" style="stroke: rgb(255, 255, 255); stroke-opacity: 1; stroke-width: 1px;"/></g><g class="y"><path class="ygrid crisp" transform="translate(0,315.37)" d="M80,0h540" style="stroke: rgb(255, 255, 255); stroke-opacity: 1; stroke-width: 1px;"/><path class="ygrid crisp" transform="translate(0,244.42)" d="M80,0h540" style="stroke: rgb(255, 255, 255); stroke-opacity: 1; stroke-width: 1px;"/><path class="ygrid crisp" transform="translate(0,173.47)" d="M80,0h540" style="stroke: rgb(255, 255, 255); stroke-opacity: 1; stroke-width: 1px;"/><path class="ygrid crisp" transform="translate(0,102.52)" d="M80,0h540" style="stroke: rgb(255, 255, 255); stroke-opacity: 1; stroke-width: 1px;"/></g></g><g class="zerolinelayer"><path class="yzl zl crisp" transform="translate(0,386.32)" d="M80,0h540" style="stroke: rgb(255, 255, 255); stroke-opacity: 1; stroke-width: 2px;"/></g><path class="xlines-below"/><path class="ylines-below"/><g class="overlines-below"/><g class="xaxislayer-below"/><g class="yaxislayer-below"/><g class="overaxes-below"/><g class="plot" transform="translate(80,100)" clip-path="url(#clip7c6dbfxyplot)"><g class="scatterlayer mlayer"><g class="trace scatter trace5ba4b6" style="stroke-miterlimit: 2;"><g class="fills"><g><path class="js-fill" d="M540,286.32L0,286.32L0,285.87L2.63,283.17L5.27,277.37L10.54,272.96L13.17,250.74L15.8,201.48L18.44,168.54L21.07,155.14L23.71,150.18L31.61,136.92L34.24,129.77L36.88,107.12L39.51,98.7L42.15,76.44L44.78,74.53L50.05,50.91L52.68,48.1L55.32,44.19L57.95,50.55L60.59,67.04L63.22,101.21L65.85,83.25L68.49,75.4L71.12,78.59L73.76,78.58L76.39,75.99L79.02,75.93L81.66,77.97L84.29,91.91L86.93,89.82L89.56,80.96L92.2,44.77L94.83,55.21L97.46,53.86L100.1,53.83L102.73,54.67L105.37,58.43L110.63,74.01L113.27,74.65L118.54,74.72L121.17,78.87L123.8,78.02L126.44,78.78L129.07,78.96L131.71,81.61L134.34,82.07L136.98,81.37L139.61,87.73L142.24,97.41L144.88,117.37L147.51,304L173.85,64.88L176.49,64.88L179.12,64.88L181.76,63.93L187.02,62.73L189.66,59.96L192.29,55.22L194.93,40.97L200.2,41.9L202.83,43.68L205.46,303.98L208.1,45.11L210.73,44.72L213.37,38.76L216,46.66L218.63,45.67L221.27,52.63L223.9,52.97L231.8,51.39L234.44,58.63L237.07,59.34L239.71,53.62L242.34,50.1L244.98,50.07L247.61,55.85L250.24,55.25L252.88,56.62L255.51,54.01L258.15,56.15L260.78,56.24L266.05,52.52L268.68,52.8L271.32,48.69L273.95,46.03L276.59,52.56L279.22,53.38L281.85,53.14L284.49,50.61L287.12,49.59L289.76,56.13L292.39,69.89L295.02,62.38L297.66,67.49L300.29,68.98L302.93,65.99L305.56,64.83L308.2,57.54L310.83,79.62L313.46,80.67L316.1,80.08L321.37,82.02L324,83.31L326.63,92.09L329.27,93.33L331.9,93.78L334.54,95.54L339.8,94.82L342.44,96.16L345.07,109.17L347.71,107.05L350.34,95.95L352.98,96.11L355.61,95.37L358.24,95.41L360.88,95.83L363.51,79.96L366.15,67.34L368.78,66.95L374.05,66.49L376.68,93.47L379.32,93.88L381.95,91.47L389.85,89.29L392.49,77.28L395.12,80.17L397.76,79.27L400.39,54.03L403.02,54.14L405.66,54.51L408.29,49.18L410.93,53.77L413.56,52.75L416.2,47.5L418.83,47.17L424.1,49.18L426.73,62.86L429.37,74.42L432,74.34L437.27,76.92L439.9,79.02L442.54,81.5L445.17,81.19L447.8,77.23L450.44,76.61L453.07,77.06L455.71,75.18L458.34,70.62L460.98,69.16L463.61,68.7L466.24,70.76L468.88,73.58L471.51,71.97L474.15,73.84L476.78,73.21L479.41,71.22L482.05,62.92L484.68,57.38L487.32,59L489.95,59.53L492.59,59.11L495.22,57.43L497.85,57.09L500.49,58.7L503.12,55.43L505.76,54.57L508.39,55.97L511.02,49.56L513.66,52.38L516.29,41.54L518.93,38.33L521.56,37.56L524.2,33.67L529.46,33.8L532.1,16.24L534.73,20.52L537.37,18.13L540,16" style="fill: rgb(99, 110, 250); fill-opacity: 0.5; stroke-width: 0;"/></g></g><g class="errorbars"/><g class="lines"><path class="js-line" d="M0,285.87L2.63,283.17L5.27,277.37L10.54,272.96L13.17,250.74L15.8,201.48L18.44,168.54L21.07,155.14L23.71,150.18L31.61,136.92L34.24,129.77L36.88,107.12L39.51,98.7L42.15,76.44L44.78,74.53L50.05,50.91L52.68,48.1L55.32,44.19L57.95,50.55L60.59,67.04L63.22,101.21L65.85,83.25L68.49,75.4L71.12,78.59L73.76,78.58L76.39,75.99L79.02,75.93L81.66,77.97L84.29,91.91L86.93,89.82L89.56,80.96L92.2,44.77L94.83,55.21L97.46,53.86L100.1,53.83L102.73,54.67L105.37,58.43L110.63,74.01L113.27,74.65L118.54,74.72L121.17,78.87L123.8,78.02L126.44,78.78L129.07,78.96L131.71,81.61L134.34,82.07L136.98,81.37L139.61,87.73L142.24,97.41L144.88,117.37L147.51,304L173.85,64.88L176.49,64.88L179.12,64.88L181.76,63.93L187.02,62.73L189.66,59.96L192.29,55.22L194.93,40.97L200.2,41.9L202.83,43.68L205.46,303.98L208.1,45.11L210.73,44.72L213.37,38.76L216,46.66L218.63,45.67L221.27,52.63L223.9,52.97L231.8,51.39L234.44,58.63L237.07,59.34L239.71,53.62L242.34,50.1L244.98,50.07L247.61,55.85L250.24,55.25L252.88,56.62L255.51,54.01L258.15,56.15L260.78,56.24L266.05,52.52L268.68,52.8L271.32,48.69L273.95,46.03L276.59,52.56L279.22,53.38L281.85,53.14L284.49,50.61L287.12,49.59L289.76,56.13L292.39,69.89L295.02,62.38L297.66,67.49L300.29,68.98L302.93,65.99L305.56,64.83L308.2,57.54L310.83,79.62L313.46,80.67L316.1,80.08L321.37,82.02L324,83.31L326.63,92.09L329.27,93.33L331.9,93.78L334.54,95.54L339.8,94.82L342.44,96.16L345.07,109.17L347.71,107.05L350.34,95.95L352.98,96.11L355.61,95.37L358.24,95.41L360.88,95.83L363.51,79.96L366.15,67.34L368.78,66.95L374.05,66.49L376.68,93.47L379.32,93.88L381.95,91.47L389.85,89.29L392.49,77.28L395.12,80.17L397.76,79.27L400.39,54.03L403.02,54.14L405.66,54.51L408.29,49.18L410.93,53.77L413.56,52.75L416.2,47.5L418.83,47.17L424.1,49.18L426.73,62.86L429.37,74.42L432,74.34L437.27,76.92L439.9,79.02L442.54,81.5L445.17,81.19L447.8,77.23L450.44,76.61L453.07,77.06L455.71,75.18L458.34,70.62L460.98,69.16L463.61,68.7L466.24,70.76L468.88,73.58L471.51,71.97L474.15,73.84L476.78,73.21L479.41,71.22L482.05,62.92L484.68,57.38L487.32,59L489.95,59.53L492.59,59.11L495.22,57.43L497.85,57.09L500.49,58.7L503.12,55.43L505.76,54.57L508.39,55.97L511.02,49.56L513.66,52.38L516.29,41.54L518.93,38.33L521.56,37.56L524.2,33.67L529.46,33.8L532.1,16.24L534.73,20.52L537.37,18.13L540,16" style="vector-effect: non-scaling-stroke; fill: none; stroke: rgb(99, 110, 250); stroke-opacity: 1; stroke-width: 2px; opacity: 1;"/></g><g class="points"/><g class="text"/></g></g></g><g class="overplot"/><path class="xlines-above crisp" d="M0,0" style="fill: none;"/><path class="ylines-above crisp" d="M0,0" style="fill: none;"/><g class="overlines-above"/><g class="xaxislayer-above"><g class="xtick"><text text-anchor="middle" x="0" y="433" transform="translate(106.34,0)" style="font-family: 'Open Sans', verdana, arial, sans-serif; font-size: 12px; fill: rgb(42, 63, 95); fill-opacity: 1; white-space: pre; opacity: 1;">Aug 2022</text></g><g class="xtick"><text text-anchor="middle" x="0" y="433" style="font-family: 'Open Sans', verdana, arial, sans-serif; font-size: 12px; fill: rgb(42, 63, 95); fill-opacity: 1; white-space: pre; opacity: 1;" transform="translate(188,0)">Sep 2022</text></g><g class="xtick"><text text-anchor="middle" x="0" y="433" style="font-family: 'Open Sans', verdana, arial, sans-serif; font-size: 12px; fill: rgb(42, 63, 95); fill-opacity: 1; white-space: pre; opacity: 1;" transform="translate(267.02,0)">Oct 2022</text></g><g class="xtick"><text text-anchor="middle" x="0" y="433" style="font-family: 'Open Sans', verdana, arial, sans-serif; font-size: 12px; fill: rgb(42, 63, 95); fill-opacity: 1; white-space: pre; opacity: 1;" transform="translate(348.68,0)">Nov 2022</text></g><g class="xtick"><text text-anchor="middle" x="0" y="433" style="font-family: 'Open Sans', verdana, arial, sans-serif; font-size: 12px; fill: rgb(42, 63, 95); fill-opacity: 1; white-space: pre; opacity: 1;" transform="translate(427.71,0)">Dec 2022</text></g><g class="xtick"><text text-anchor="middle" x="0" y="433" style="font-family: 'Open Sans', verdana, arial, sans-serif; font-size: 12px; fill: rgb(42, 63, 95); fill-opacity: 1; white-space: pre; opacity: 1;" transform="translate(509.37,0)">Jan 2023</text></g><g class="xtick"><text text-anchor="middle" x="0" y="433" style="font-family: 'Open Sans', verdana, arial, sans-serif; font-size: 12px; fill: rgb(42, 63, 95); fill-opacity: 1; white-space: pre; opacity: 1;" transform="translate(591.02,0)">Feb 2023</text></g></g><g class="yaxislayer-above"><g class="ytick"><text text-anchor="end" x="79" y="4.199999999999999" transform="translate(0,386.32)" style="font-family: 'Open Sans', verdana, arial, sans-serif; font-size: 12px; fill: rgb(42, 63, 95); fill-opacity: 1; white-space: pre; opacity: 1;">$0</text></g><g class="ytick"><text text-anchor="end" x="79" y="4.199999999999999" style="font-family: 'Open Sans', verdana, arial, sans-serif; font-size: 12px; fill: rgb(42, 63, 95); fill-opacity: 1; white-space: pre; opacity: 1;" transform="translate(0,315.37)">$10M</text></g><g class="ytick"><text text-anchor="end" x="79" y="4.199999999999999" style="font-family: 'Open Sans', verdana, arial, sans-serif; font-size: 12px; fill: rgb(42, 63, 95); fill-opacity: 1; white-space: pre; opacity: 1;" transform="translate(0,244.42)">$20M</text></g><g class="ytick"><text text-anchor="end" x="79" y="4.199999999999999" style="font-family: 'Open Sans', verdana, arial, sans-serif; font-size: 12px; fill: rgb(42, 63, 95); fill-opacity: 1; white-space: pre; opacity: 1;" transform="translate(0,173.47)">$30M</text></g><g class="ytick"><text text-anchor="end" x="79" y="4.199999999999999" style="font-family: 'Open Sans', verdana, arial, sans-serif; font-size: 12px; fill: rgb(42, 63, 95); fill-opacity: 1; white-space: pre; opacity: 1;" transform="translate(0,102.52)">$40M</text></g></g><g class="overaxes-above"/></g></g><g class="polarlayer"/><g class="smithlayer"/><g class="ternarylayer"/><g class="geolayer"/><g class="funnelarealayer"/><g class="pielayer"/><g class="iciclelayer"/><g class="treemaplayer"/><g class="sunburstlayer"/><g class="glimages"/><defs id="topdefs-7c6dbf"><g class="clips"/></defs><g class="layer-above"><g class="imagelayer"/><g class="shapelayer"/></g><g class="infolayer"><g class="g-gtitle"><text class="gtitle" x="35" y="50" text-anchor="start" dy="0em" style="font-family: 'Open Sans', verdana, arial, sans-serif; font-size: 17px; fill: rgb(42, 63, 95); opacity: 1; font-weight: normal; white-space: pre;"><tspan class="line" dy="0em" x="35" y="50">Pooltogether</tspan><tspan class="line" dy="1.3em" x="35" y="50">​<tspan style="font-size:70%" dy="-0.6em">Cumulative Net Flows since Program Announcement, Until Program End + 30 Days - At Last Price</tspan><tspan dy="0.42em">​</tspan></tspan></text></g><g class="g-xtitle"><text class="xtitle" x="350" y="460.8" text-anchor="middle" style="font-family: 'Open Sans', verdana, arial, sans-serif; font-size: 14px; fill: rgb(42, 63, 95); opacity: 1; font-weight: normal; white-space: pre;">Day</text></g><g class="g-ytitle"><text class="ytitle" transform="rotate(-90,24.168750000000003,260)" x="24.168750000000003" y="260" text-anchor="middle" style="font-family: 'Open Sans', verdana, arial, sans-serif; font-size: 14px; fill: rgb(42, 63, 95); opacity: 1; font-weight: normal; white-space: pre;">Cumulative Net Flows (USD)</text></g></g></svg>