<svg class="main-svg" xmlns="http://www.w3.org/2000/svg" xmlns:xlink="http://www.w3.org/1999/xlink" width="700" height="500" style="" viewBox="0 0 700 500"><rect x="0" y="0" width="700" height="500" style="fill: rgb(255, 255, 255); fill-opacity: 1;"/><defs id="defs-368049"><g class="clips"><clipPath id="clip368049xyplot" class="plotclip"><rect width="540" height="320"/></clipPath><clipPath class="axesclip" id="clip368049x"><rect x="80" y="0" width="540" height="500"/></clipPath><clipPath class="axesclip" id="clip368049y"><rect x="0" y="100" width="700" height="320"/></clipPath><clipPath class="axesclip" id="clip368049xy"><rect x="80" y="100" width="540" height="320"/></clipPath></g><g class="gradients"/><g class="patterns"/></defs><g class="bglayer"><rect class="bg" x="80" y="100" width="540" height="320" style="fill: rgb(229, 236, 246); fill-opacity: 1; stroke-width: 0;"/></g><g class="layer-below"><g class="imagelayer"/><g class="shapelayer"/></g><g class="cartesianlayer"><g class="subplot xy"><g class="layer-subplot"><g class="shapelayer"/><g class="imagelayer"/></g><g class="minor-gridlayer"><g class="x"/><g class="y"/></g><g class="gridlayer"><g class="x"><path class="xgrid crisp" transform="translate(158.39,0)" d="M0,100v320" style="stroke: rgb(255, 255, 255); stroke-opacity: 1; stroke-width: 1px;"/><path class="xgrid crisp" transform="translate(245.48,0)" d="M0,100v320" style="stroke: rgb(255, 255, 255); stroke-opacity: 1; stroke-width: 1px;"/><path class="xgrid crisp" transform="translate(335.48,0)" d="M0,100v320" style="stroke: rgb(255, 255, 255); stroke-opacity: 1; stroke-width: 1px;"/><path class="xgrid crisp" transform="translate(422.58,0)" d="M0,100v320" style="stroke: rgb(255, 255, 255); stroke-opacity: 1; stroke-width: 1px;"/><path class="xgrid crisp" transform="translate(512.5799999999999,0)" d="M0,100v320" style="stroke: rgb(255, 255, 255); stroke-opacity: 1; stroke-width: 1px;"/><path class="xgrid crisp" transform="translate(602.58,0)" d="M0,100v320" style="stroke: rgb(255, 255, 255); stroke-opacity: 1; stroke-width: 1px;"/></g><g class="y"><path class="ygrid crisp" transform="translate(0,329.43)" d="M80,0h540" style="stroke: rgb(255, 255, 255); stroke-opacity: 1; stroke-width: 1px;"/><path class="ygrid crisp" transform="translate(0,270.48)" d="M80,0h540" style="stroke: rgb(255, 255, 255); stroke-opacity: 1; stroke-width: 1px;"/><path class="ygrid crisp" transform="translate(0,211.53)" d="M80,0h540" style="stroke: rgb(255, 255, 255); stroke-opacity: 1; stroke-width: 1px;"/><path class="ygrid crisp" transform="translate(0,152.57999999999998)" d="M80,0h540" style="stroke: rgb(255, 255, 255); stroke-opacity: 1; stroke-width: 1px;"/></g></g><g class="zerolinelayer"><path class="yzl zl crisp" transform="translate(0,388.38)" d="M80,0h540" style="stroke: rgb(255, 255, 255); stroke-opacity: 1; stroke-width: 2px;"/></g><path class="xlines-below"/><path class="ylines-below"/><g class="overlines-below"/><g class="xaxislayer-below"/><g class="yaxislayer-below"/><g class="overaxes-below"/><g class="plot" transform="translate(80,100)" clip-path="url(#clip368049xyplot)"><g class="scatterlayer mlayer"><g class="trace scatter tracea552c3" style="stroke-miterlimit: 2;"><g class="fills"><g><path class="js-fill" d="M540,288.38L0,288.38L0,299.23L2.9,231.88L5.81,241.25L8.71,244.22L11.61,250.57L14.52,252.32L17.42,251.29L20.32,245.37L23.23,233.11L26.13,249.39L29.03,244.36L31.94,242.41L34.84,236.72L40.65,240.82L43.55,231.06L46.45,232.12L49.35,229.89L52.26,225.75L55.16,219.41L60.97,227.04L63.87,225.75L69.68,222.59L72.58,215.44L75.48,208.53L78.39,205.31L81.29,191.4L84.19,190.96L87.1,185.74L90,178.55L92.9,198.19L95.81,204.2L98.71,209.23L101.61,186.65L104.52,181.26L107.42,179.77L110.32,176.45L113.23,167.97L116.13,161.66L119.03,183.4L121.94,182.8L124.84,181.15L127.74,178.85L130.65,179.11L133.55,176.04L136.45,180.77L139.35,200.26L142.26,196.3L145.16,196.24L148.06,202.92L150.97,204.65L153.87,194.86L156.77,188.13L159.68,184.15L162.58,191.23L165.48,192.96L168.39,192.55L171.29,185.58L174.19,192.65L177.1,197.45L182.9,177.32L185.81,161.18L188.71,156.29L191.61,156.46L194.52,152.83L197.42,109.6L200.32,101.84L203.23,100.28L206.13,102.01L209.03,102.61L211.94,102.66L214.84,104.81L217.74,98.15L220.65,97.01L223.55,97.55L226.45,96.28L229.35,97.55L232.26,97.19L235.16,95.67L238.06,106.2L240.97,103.1L243.87,103.04L246.77,99.81L249.68,99.82L252.58,96.03L255.48,73.87L261.29,65.75L264.19,41.76L267.1,32.93L270,16L278.71,38.26L281.61,55.51L284.52,226.1L287.42,290.17L290.32,301.7L293.23,293.27L296.13,297.05L299.03,304L301.94,291.29L304.84,296.5L310.65,291.56L313.55,296.04L316.45,297.75L319.35,288.16L322.26,293.6L325.16,291.51L328.06,285.39L330.97,289.4L333.87,288.36L336.77,290.25L339.68,283.14L342.58,271.27L345.48,269.34L348.39,266.41L351.29,264.43L354.19,265.36L357.1,260.57L360,259.99L365.81,251.72L368.71,250.34L371.61,250.29L374.52,248.65L380.32,258.77L383.23,258.25L386.13,256.25L389.03,257.68L391.94,272.62L394.84,267.13L397.74,268.74L400.65,255.35L403.55,243.88L406.45,238.8L409.35,237.86L412.26,237.87L418.06,240.2L420.97,242.26L426.77,241.33L429.68,236.82L432.58,243.17L435.48,242.3L438.39,234.5L441.29,234.81L444.19,231.1L447.1,233.73L450,238.32L452.9,247.16L455.81,249.21L458.71,249.89L461.61,249.79L464.52,253.32L467.42,251.09L470.32,257.76L476.13,260.77L479.03,255.98L481.94,242.63L484.84,237.54L490.65,240.26L493.55,237.89L496.45,230.55L499.35,230.76L502.26,228.92L505.16,232.83L508.06,235.31L510.97,236.52L513.87,235.85L516.77,228.88L519.68,219.4L522.58,188.82L525.48,194.83L528.39,195.68L531.29,191.87L534.19,189.98L537.1,186.53L540,191.1" style="fill: rgb(99, 110, 250); fill-opacity: 0.5; stroke-width: 0;"/></g></g><g class="errorbars"/><g class="lines"><path class="js-line" d="M0,299.23L2.9,231.88L5.81,241.25L8.71,244.22L11.61,250.57L14.52,252.32L17.42,251.29L20.32,245.37L23.23,233.11L26.13,249.39L29.03,244.36L31.94,242.41L34.84,236.72L40.65,240.82L43.55,231.06L46.45,232.12L49.35,229.89L52.26,225.75L55.16,219.41L60.97,227.04L63.87,225.75L69.68,222.59L72.58,215.44L75.48,208.53L78.39,205.31L81.29,191.4L84.19,190.96L87.1,185.74L90,178.55L92.9,198.19L95.81,204.2L98.71,209.23L101.61,186.65L104.52,181.26L107.42,179.77L110.32,176.45L113.23,167.97L116.13,161.66L119.03,183.4L121.94,182.8L124.84,181.15L127.74,178.85L130.65,179.11L133.55,176.04L136.45,180.77L139.35,200.26L142.26,196.3L145.16,196.24L148.06,202.92L150.97,204.65L153.87,194.86L156.77,188.13L159.68,184.15L162.58,191.23L165.48,192.96L168.39,192.55L171.29,185.58L174.19,192.65L177.1,197.45L182.9,177.32L185.81,161.18L188.71,156.29L191.61,156.46L194.52,152.83L197.42,109.6L200.32,101.84L203.23,100.28L206.13,102.01L209.03,102.61L211.94,102.66L214.84,104.81L217.74,98.15L220.65,97.01L223.55,97.55L226.45,96.28L229.35,97.55L232.26,97.19L235.16,95.67L238.06,106.2L240.97,103.1L243.87,103.04L246.77,99.81L249.68,99.82L252.58,96.03L255.48,73.87L261.29,65.75L264.19,41.76L267.1,32.93L270,16L278.71,38.26L281.61,55.51L284.52,226.1L287.42,290.17L290.32,301.7L293.23,293.27L296.13,297.05L299.03,304L301.94,291.29L304.84,296.5L310.65,291.56L313.55,296.04L316.45,297.75L319.35,288.16L322.26,293.6L325.16,291.51L328.06,285.39L330.97,289.4L333.87,288.36L336.77,290.25L339.68,283.14L342.58,271.27L345.48,269.34L348.39,266.41L351.29,264.43L354.19,265.36L357.1,260.57L360,259.99L365.81,251.72L368.71,250.34L371.61,250.29L374.52,248.65L380.32,258.77L383.23,258.25L386.13,256.25L389.03,257.68L391.94,272.62L394.84,267.13L397.74,268.74L400.65,255.35L403.55,243.88L406.45,238.8L409.35,237.86L412.26,237.87L418.06,240.2L420.97,242.26L426.77,241.33L429.68,236.82L432.58,243.17L435.48,242.3L438.39,234.5L441.29,234.81L444.19,231.1L447.1,233.73L450,238.32L452.9,247.16L455.81,249.21L458.71,249.89L461.61,249.79L464.52,253.32L467.42,251.09L470.32,257.76L476.13,260.77L479.03,255.98L481.94,242.63L484.84,237.54L490.65,240.26L493.55,237.89L496.45,230.55L499.35,230.76L502.26,228.92L505.16,232.83L508.06,235.31L510.97,236.52L513.87,235.85L516.77,228.88L519.68,219.4L522.58,188.82L525.48,194.83L528.39,195.68L531.29,191.87L534.19,189.98L537.1,186.53L540,191.1" style="vector-effect: non-scaling-stroke; fill: none; stroke: rgb(99, 110, 250); stroke-opacity: 1; stroke-width: 2px; opacity: 1;"/></g><g class="points"/><g class="text"/></g></g></g><g class="overplot"/><path class="xlines-above crisp" d="M0,0" style="fill: none;"/><path class="ylines-above crisp" d="M0,0" style="fill: none;"/><g class="overlines-above"/><g class="xaxislayer-above"><g class="xtick"><text text-anchor="middle" x="0" y="433" transform="translate(158.39,0)" style="font-family: 'Open Sans', verdana, arial, sans-serif; font-size: 12px; fill: rgb(42, 63, 95); fill-opacity: 1; white-space: pre; opacity: 1;">Sep 2022</text></g><g class="xtick"><text text-anchor="middle" x="0" y="433" style="font-family: 'Open Sans', verdana, arial, sans-serif; font-size: 12px; fill: rgb(42, 63, 95); fill-opacity: 1; white-space: pre; opacity: 1;" transform="translate(245.48,0)">Oct 2022</text></g><g class="xtick"><text text-anchor="middle" x="0" y="433" style="font-family: 'Open Sans', verdana, arial, sans-serif; font-size: 12px; fill: rgb(42, 63, 95); fill-opacity: 1; white-space: pre; opacity: 1;" transform="translate(335.48,0)">Nov 2022</text></g><g class="xtick"><text text-anchor="middle" x="0" y="433" style="font-family: 'Open Sans', verdana, arial, sans-serif; font-size: 12px; fill: rgb(42, 63, 95); fill-opacity: 1; white-space: pre; opacity: 1;" transform="translate(422.58,0)">Dec 2022</text></g><g class="xtick"><text text-anchor="middle" x="0" y="433" style="font-family: 'Open Sans', verdana, arial, sans-serif; font-size: 12px; fill: rgb(42, 63, 95); fill-opacity: 1; white-space: pre; opacity: 1;" transform="translate(512.5799999999999,0)">Jan 2023</text></g><g class="xtick"><text text-anchor="middle" x="0" y="433" style="font-family: 'Open Sans', verdana, arial, sans-serif; font-size: 12px; fill: rgb(42, 63, 95); fill-opacity: 1; white-space: pre; opacity: 1;" transform="translate(602.58,0)">Feb 2023</text></g></g><g class="yaxislayer-above"><g class="ytick"><text text-anchor="end" x="79" y="4.199999999999999" transform="translate(0,388.38)" style="font-family: 'Open Sans', verdana, arial, sans-serif; font-size: 12px; fill: rgb(42, 63, 95); fill-opacity: 1; white-space: pre; opacity: 1;">$0</text></g><g class="ytick"><text text-anchor="end" x="79" y="4.199999999999999" style="font-family: 'Open Sans', verdana, arial, sans-serif; font-size: 12px; fill: rgb(42, 63, 95); fill-opacity: 1; white-space: pre; opacity: 1;" transform="translate(0,329.43)">$10M</text></g><g class="ytick"><text text-anchor="end" x="79" y="4.199999999999999" style="font-family: 'Open Sans', verdana, arial, sans-serif; font-size: 12px; fill: rgb(42, 63, 95); fill-opacity: 1; white-space: pre; opacity: 1;" transform="translate(0,270.48)">$20M</text></g><g class="ytick"><text text-anchor="end" x="79" y="4.199999999999999" style="font-family: 'Open Sans', verdana, arial, sans-serif; font-size: 12px; fill: rgb(42, 63, 95); fill-opacity: 1; white-space: pre; opacity: 1;" transform="translate(0,211.53)">$30M</text></g><g class="ytick"><text text-anchor="end" x="79" y="4.199999999999999" style="font-family: 'Open Sans', verdana, arial, sans-serif; font-size: 12px; fill: rgb(42, 63, 95); fill-opacity: 1; white-space: pre; opacity: 1;" transform="translate(0,152.57999999999998)">$40M</text></g></g><g class="overaxes-above"/></g></g><g class="polarlayer"/><g class="smithlayer"/><g class="ternarylayer"/><g class="geolayer"/><g class="funnelarealayer"/><g class="pielayer"/><g class="iciclelayer"/><g class="treemaplayer"/><g class="sunburstlayer"/><g class="glimages"/><defs id="topdefs-368049"><g class="clips"/></defs><g class="layer-above"><g class="imagelayer"/><g class="shapelayer"/></g><g class="infolayer"><g class="g-gtitle"><text class="gtitle" x="35" y="50" text-anchor="start" dy="0em" style="font-family: 'Open Sans', verdana, arial, sans-serif; font-size: 17px; fill: rgb(42, 63, 95); opacity: 1; font-weight: normal; white-space: pre;"><tspan class="line" dy="0em" x="35" y="50">Stargate</tspan><tspan class="line" dy="1.3em" x="35" y="50">​<tspan style="font-size:70%" dy="-0.6em">Cumulative Net Flows since Program Announcement, Until Program End + 30 Days - At Last Price</tspan><tspan dy="0.42em">​</tspan></tspan></text></g><g class="g-xtitle"><text class="xtitle" x="350" y="459.8" text-anchor="middle" style="font-family: 'Open Sans', verdana, arial, sans-serif; font-size: 14px; fill: rgb(42, 63, 95); opacity: 1; font-weight: normal; white-space: pre;">Day</text></g><g class="g-ytitle"><text class="ytitle" transform="rotate(-90,21.700000000000003,260)" x="21.700000000000003" y="260" text-anchor="middle" style="font-family: 'Open Sans', verdana, arial, sans-serif; font-size: 14px; fill: rgb(42, 63, 95); opacity: 1; font-weight: normal; white-space: pre;">Cumulative Net Flows (USD)</text></g></g></svg>