<svg class="main-svg" xmlns="http://www.w3.org/2000/svg" xmlns:xlink="http://www.w3.org/1999/xlink" width="700" height="500" style="" viewBox="0 0 700 500"><rect x="0" y="0" width="700" height="500" style="fill: rgb(255, 255, 255); fill-opacity: 1;"/><defs id="defs-b65e0e"><g class="clips"><clipPath id="clipb65e0exyplot" class="plotclip"><rect width="540" height="320"/></clipPath><clipPath class="axesclip" id="clipb65e0ex"><rect x="80" y="0" width="540" height="500"/></clipPath><clipPath class="axesclip" id="clipb65e0ey"><rect x="0" y="100" width="700" height="320"/></clipPath><clipPath class="axesclip" id="clipb65e0exy"><rect x="80" y="100" width="540" height="320"/></clipPath></g><g class="gradients"/><g class="patterns"/></defs><g class="bglayer"><rect class="bg" x="80" y="100" width="540" height="320" style="fill: rgb(229, 236, 246); fill-opacity: 1; stroke-width: 0;"/></g><g class="layer-below"><g class="imagelayer"/><g class="shapelayer"/></g><g class="cartesianlayer"><g class="subplot xy"><g class="layer-subplot"><g class="shapelayer"/><g class="imagelayer"/></g><g class="minor-gridlayer"><g class="x"/><g class="y"/></g><g class="gridlayer"><g class="x"><path class="xgrid crisp" transform="translate(92.63,0)" d="M0,100v320" style="stroke: rgb(255, 255, 255); stroke-opacity: 1; stroke-width: 1px;"/><path class="xgrid crisp" transform="translate(190.53,0)" d="M0,100v320" style="stroke: rgb(255, 255, 255); stroke-opacity: 1; stroke-width: 1px;"/><path class="xgrid crisp" transform="translate(285.26,0)" d="M0,100v320" style="stroke: rgb(255, 255, 255); stroke-opacity: 1; stroke-width: 1px;"/><path class="xgrid crisp" transform="translate(383.16,0)" d="M0,100v320" style="stroke: rgb(255, 255, 255); stroke-opacity: 1; stroke-width: 1px;"/><path class="xgrid crisp" transform="translate(481.05,0)" d="M0,100v320" style="stroke: rgb(255, 255, 255); stroke-opacity: 1; stroke-width: 1px;"/><path class="xgrid crisp" transform="translate(569.47,0)" d="M0,100v320" style="stroke: rgb(255, 255, 255); stroke-opacity: 1; stroke-width: 1px;"/></g><g class="y"><path class="ygrid crisp" transform="translate(0,333.28999999999996)" d="M80,0h540" style="stroke: rgb(255, 255, 255); stroke-opacity: 1; stroke-width: 1px;"/><path class="ygrid crisp" transform="translate(0,266.81)" d="M80,0h540" style="stroke: rgb(255, 255, 255); stroke-opacity: 1; stroke-width: 1px;"/><path class="ygrid crisp" transform="translate(0,200.34)" d="M80,0h540" style="stroke: rgb(255, 255, 255); stroke-opacity: 1; stroke-width: 1px;"/><path class="ygrid crisp" transform="translate(0,133.86)" d="M80,0h540" style="stroke: rgb(255, 255, 255); stroke-opacity: 1; stroke-width: 1px;"/></g></g><g class="zerolinelayer"><path class="yzl zl crisp" transform="translate(0,399.77)" d="M80,0h540" style="stroke: rgb(255, 255, 255); stroke-opacity: 1; stroke-width: 2px;"/></g><path class="xlines-below"/><path class="ylines-below"/><g class="overlines-below"/><g class="xaxislayer-below"/><g class="yaxislayer-below"/><g class="overaxes-below"/><g class="plot" transform="translate(80,100)" clip-path="url(#clipb65e0exyplot)"><g class="scatterlayer mlayer"><g class="trace scatter tracee86acc" style="stroke-miterlimit: 2;"><g class="fills"><g><path class="js-fill" d="M540,299.77L0,299.77L0,298.44L3.16,298.73L6.32,300.04L9.47,301.05L12.63,301.02L25.26,299.06L28.42,299.54L34.74,296.64L37.89,292.81L41.05,291.78L44.21,291.72L47.37,291.74L50.53,290.55L53.68,275.27L56.84,278.98L60,273.05L63.16,273.96L69.47,275.57L72.63,275.92L78.95,275.87L82.11,274.98L85.26,275.07L88.42,276.45L94.74,290.35L97.89,289.43L107.37,288.38L110.53,289.12L113.68,289.17L116.84,280.45L126.32,280.45L129.47,281.52L132.63,301.51L135.79,304L142.11,301.9L145.26,302.83L151.58,302.29L154.74,300.73L157.89,302.8L161.05,299.08L164.21,295.13L167.37,294.77L170.53,295.58L173.68,295.22L176.84,296.19L180,295.46L183.16,279.48L186.32,279.55L195.79,279.47L198.95,278.49L202.11,279.27L205.26,279.04L211.58,278.54L214.74,275.52L217.89,275.48L221.05,284.16L224.21,284.35L227.37,298.62L230.53,290.75L233.68,290.29L236.84,290.14L240,287.65L243.16,283.34L246.32,282.99L249.47,282.62L252.63,283.46L258.95,283.41L262.11,284.59L265.26,284.06L268.42,281.34L271.58,276.25L274.74,276.04L281.05,275.9L284.21,278.55L287.37,283.64L290.53,283.36L293.68,283.34L296.84,284.6L300,289.93L303.16,289.79L306.32,286.13L309.47,286.54L312.63,284.81L315.79,285.87L318.95,286.8L322.11,286.24L325.26,287.31L328.42,286.61L334.74,286.17L337.89,285.56L341.05,285.43L344.21,286.29L353.68,285.63L356.84,284.27L360,279.91L363.16,283.47L366.32,274.88L369.47,274.39L372.63,274.73L375.79,265.9L378.95,233.34L382.11,227.93L385.26,224.41L388.42,224.55L391.58,224.56L394.74,221.63L401.05,220.85L404.21,214.61L407.37,211.86L410.53,201.54L413.68,199.03L416.84,190.61L420,190.35L423.16,186L426.32,184.26L429.47,192.34L432.63,189.45L435.79,189.29L438.95,188.5L442.11,194.71L445.26,183.29L448.42,163.59L451.58,170.82L454.74,171.5L457.89,137.57L461.05,139.8L464.21,138.74L467.37,141.17L470.53,140.6L473.68,132.24L476.84,127.85L480,99.91L483.16,89.74L486.32,92.14L489.47,92.43L492.63,42.06L495.79,37.26L498.95,45.33L502.11,54.56L505.26,47.52L508.42,16L511.58,21.69L517.89,93.17L521.05,195.06L524.21,192.73L527.37,164.18L530.53,168.29L533.68,137.64L536.84,125.33L540,78.98" style="fill: rgb(99, 110, 250); fill-opacity: 0.5; stroke-width: 0;"/></g></g><g class="errorbars"/><g class="lines"><path class="js-line" d="M0,298.44L3.16,298.73L6.32,300.04L9.47,301.05L12.63,301.02L25.26,299.06L28.42,299.54L34.74,296.64L37.89,292.81L41.05,291.78L44.21,291.72L47.37,291.74L50.53,290.55L53.68,275.27L56.84,278.98L60,273.05L63.16,273.96L69.47,275.57L72.63,275.92L78.95,275.87L82.11,274.98L85.26,275.07L88.42,276.45L94.74,290.35L97.89,289.43L107.37,288.38L110.53,289.12L113.68,289.17L116.84,280.45L126.32,280.45L129.47,281.52L132.63,301.51L135.79,304L142.11,301.9L145.26,302.83L151.58,302.29L154.74,300.73L157.89,302.8L161.05,299.08L164.21,295.13L167.37,294.77L170.53,295.58L173.68,295.22L176.84,296.19L180,295.46L183.16,279.48L186.32,279.55L195.79,279.47L198.95,278.49L202.11,279.27L205.26,279.04L211.58,278.54L214.74,275.52L217.89,275.48L221.05,284.16L224.21,284.35L227.37,298.62L230.53,290.75L233.68,290.29L236.84,290.14L240,287.65L243.16,283.34L246.32,282.99L249.47,282.62L252.63,283.46L258.95,283.41L262.11,284.59L265.26,284.06L268.42,281.34L271.58,276.25L274.74,276.04L281.05,275.9L284.21,278.55L287.37,283.64L290.53,283.36L293.68,283.34L296.84,284.6L300,289.93L303.16,289.79L306.32,286.13L309.47,286.54L312.63,284.81L315.79,285.87L318.95,286.8L322.11,286.24L325.26,287.31L328.42,286.61L334.74,286.17L337.89,285.56L341.05,285.43L344.21,286.29L353.68,285.63L356.84,284.27L360,279.91L363.16,283.47L366.32,274.88L369.47,274.39L372.63,274.73L375.79,265.9L378.95,233.34L382.11,227.93L385.26,224.41L388.42,224.55L391.58,224.56L394.74,221.63L401.05,220.85L404.21,214.61L407.37,211.86L410.53,201.54L413.68,199.03L416.84,190.61L420,190.35L423.16,186L426.32,184.26L429.47,192.34L432.63,189.45L435.79,189.29L438.95,188.5L442.11,194.71L445.26,183.29L448.42,163.59L451.58,170.82L454.74,171.5L457.89,137.57L461.05,139.8L464.21,138.74L467.37,141.17L470.53,140.6L473.68,132.24L476.84,127.85L480,99.91L483.16,89.74L486.32,92.14L489.47,92.43L492.63,42.06L495.79,37.26L498.95,45.33L502.11,54.56L505.26,47.52L508.42,16L511.58,21.69L517.89,93.17L521.05,195.06L524.21,192.73L527.37,164.18L530.53,168.29L533.68,137.64L536.84,125.33L540,78.98" style="vector-effect: non-scaling-stroke; fill: none; stroke: rgb(99, 110, 250); stroke-opacity: 1; stroke-width: 2px; opacity: 1;"/></g><g class="points"/><g class="text"/></g></g></g><g class="overplot"/><path class="xlines-above crisp" d="M0,0" style="fill: none;"/><path class="ylines-above crisp" d="M0,0" style="fill: none;"/><g class="overlines-above"/><g class="xaxislayer-above"><g class="xtick"><text text-anchor="middle" x="0" y="433" transform="translate(92.63,0)" style="font-family: 'Open Sans', verdana, arial, sans-serif; font-size: 12px; fill: rgb(42, 63, 95); fill-opacity: 1; white-space: pre; opacity: 1;">Oct 2022</text></g><g class="xtick"><text text-anchor="middle" x="0" y="433" style="font-family: 'Open Sans', verdana, arial, sans-serif; font-size: 12px; fill: rgb(42, 63, 95); fill-opacity: 1; white-space: pre; opacity: 1;" transform="translate(190.53,0)">Nov 2022</text></g><g class="xtick"><text text-anchor="middle" x="0" y="433" style="font-family: 'Open Sans', verdana, arial, sans-serif; font-size: 12px; fill: rgb(42, 63, 95); fill-opacity: 1; white-space: pre; opacity: 1;" transform="translate(285.26,0)">Dec 2022</text></g><g class="xtick"><text text-anchor="middle" x="0" y="433" style="font-family: 'Open Sans', verdana, arial, sans-serif; font-size: 12px; fill: rgb(42, 63, 95); fill-opacity: 1; white-space: pre; opacity: 1;" transform="translate(383.16,0)">Jan 2023</text></g><g class="xtick"><text text-anchor="middle" x="0" y="433" style="font-family: 'Open Sans', verdana, arial, sans-serif; font-size: 12px; fill: rgb(42, 63, 95); fill-opacity: 1; white-space: pre; opacity: 1;" transform="translate(481.05,0)">Feb 2023</text></g><g class="xtick"><text text-anchor="middle" x="0" y="433" style="font-family: 'Open Sans', verdana, arial, sans-serif; font-size: 12px; fill: rgb(42, 63, 95); fill-opacity: 1; white-space: pre; opacity: 1;" transform="translate(569.47,0)">Mar 2023</text></g></g><g class="yaxislayer-above"><g class="ytick"><text text-anchor="end" x="79" y="4.199999999999999" transform="translate(0,399.77)" style="font-family: 'Open Sans', verdana, arial, sans-serif; font-size: 12px; fill: rgb(42, 63, 95); fill-opacity: 1; white-space: pre; opacity: 1;">$0</text></g><g class="ytick"><text text-anchor="end" x="79" y="4.199999999999999" style="font-family: 'Open Sans', verdana, arial, sans-serif; font-size: 12px; fill: rgb(42, 63, 95); fill-opacity: 1; white-space: pre; opacity: 1;" transform="translate(0,333.28999999999996)">$2M</text></g><g class="ytick"><text text-anchor="end" x="79" y="4.199999999999999" style="font-family: 'Open Sans', verdana, arial, sans-serif; font-size: 12px; fill: rgb(42, 63, 95); fill-opacity: 1; white-space: pre; opacity: 1;" transform="translate(0,266.81)">$4M</text></g><g class="ytick"><text text-anchor="end" x="79" y="4.199999999999999" style="font-family: 'Open Sans', verdana, arial, sans-serif; font-size: 12px; fill: rgb(42, 63, 95); fill-opacity: 1; white-space: pre; opacity: 1;" transform="translate(0,200.34)">$6M</text></g><g class="ytick"><text text-anchor="end" x="79" y="4.199999999999999" style="font-family: 'Open Sans', verdana, arial, sans-serif; font-size: 12px; fill: rgb(42, 63, 95); fill-opacity: 1; white-space: pre; opacity: 1;" transform="translate(0,133.86)">$8M</text></g></g><g class="overaxes-above"/></g></g><g class="polarlayer"/><g class="smithlayer"/><g class="ternarylayer"/><g class="geolayer"/><g class="funnelarealayer"/><g class="pielayer"/><g class="iciclelayer"/><g class="treemaplayer"/><g class="sunburstlayer"/><g class="glimages"/><defs id="topdefs-b65e0e"><g class="clips"/></defs><g class="layer-above"><g class="imagelayer"/><g class="shapelayer"/></g><g class="infolayer"><g class="g-gtitle"><text class="gtitle" x="35" y="50" text-anchor="start" dy="0em" style="font-family: 'Open Sans', verdana, arial, sans-serif; font-size: 17px; fill: rgb(42, 63, 95); opacity: 1; font-weight: normal; white-space: pre;"><tspan class="line" dy="0em" x="35" y="50">Synthetix - USDC/SNX: Velodrome</tspan><tspan class="line" dy="1.3em" x="35" y="50">​<tspan style="font-size:70%" dy="-0.6em">Cumulative Net Flows since Program Announcement, Until Program End + 30 Days - At Last Price</tspan><tspan dy="0.42em">​</tspan></tspan></text></g><g class="g-xtitle"><text class="xtitle" x="350" y="460.8" text-anchor="middle" style="font-family: 'Open Sans', verdana, arial, sans-serif; font-size: 14px; fill: rgb(42, 63, 95); opacity: 1; font-weight: normal; white-space: pre;">Day</text></g><g class="g-ytitle"><text class="ytitle" transform="rotate(-90,30.856250000000003,260)" x="30.856250000000003" y="260" text-anchor="middle" style="font-family: 'Open Sans', verdana, arial, sans-serif; font-size: 14px; fill: rgb(42, 63, 95); opacity: 1; font-weight: normal; white-space: pre;">Cumulative Net Flows (USD)</text></g></g></svg>