<svg class="main-svg" xmlns="http://www.w3.org/2000/svg" xmlns:xlink="http://www.w3.org/1999/xlink" width="700" height="500" style="" viewBox="0 0 700 500"><rect x="0" y="0" width="700" height="500" style="fill: rgb(255, 255, 255); fill-opacity: 1;"/><defs id="defs-008684"><g class="clips"><clipPath id="clip008684xyplot" class="plotclip"><rect width="540" height="320"/></clipPath><clipPath class="axesclip" id="clip008684x"><rect x="80" y="0" width="540" height="500"/></clipPath><clipPath class="axesclip" id="clip008684y"><rect x="0" y="100" width="700" height="320"/></clipPath><clipPath class="axesclip" id="clip008684xy"><rect x="80" y="100" width="540" height="320"/></clipPath></g><g class="gradients"/><g class="patterns"/></defs><g class="bglayer"><rect class="bg" x="80" y="100" width="540" height="320" style="fill: rgb(229, 236, 246); fill-opacity: 1; stroke-width: 0;"/></g><g class="layer-below"><g class="imagelayer"/><g class="shapelayer"/></g><g class="cartesianlayer"><g class="subplot xy"><g class="layer-subplot"><g class="shapelayer"/><g class="imagelayer"/></g><g class="minor-gridlayer"><g class="x"/><g class="y"/></g><g class="gridlayer"><g class="x"><path class="xgrid crisp" transform="translate(101.12,0)" d="M0,100v320" style="stroke: rgb(255, 255, 255); stroke-opacity: 1; stroke-width: 1px;"/><path class="xgrid crisp" transform="translate(191.62,0)" d="M0,100v320" style="stroke: rgb(255, 255, 255); stroke-opacity: 1; stroke-width: 1px;"/><path class="xgrid crisp" transform="translate(285.14,0)" d="M0,100v320" style="stroke: rgb(255, 255, 255); stroke-opacity: 1; stroke-width: 1px;"/><path class="xgrid crisp" transform="translate(375.64,0)" d="M0,100v320" style="stroke: rgb(255, 255, 255); stroke-opacity: 1; stroke-width: 1px;"/><path class="xgrid crisp" transform="translate(469.16,0)" d="M0,100v320" style="stroke: rgb(255, 255, 255); stroke-opacity: 1; stroke-width: 1px;"/><path class="xgrid crisp" transform="translate(562.6800000000001,0)" d="M0,100v320" style="stroke: rgb(255, 255, 255); stroke-opacity: 1; stroke-width: 1px;"/></g><g class="y"><path class="ygrid crisp" transform="translate(0,354.68)" d="M80,0h540" style="stroke: rgb(255, 255, 255); stroke-opacity: 1; stroke-width: 1px;"/><path class="ygrid crisp" transform="translate(0,289.37)" d="M80,0h540" style="stroke: rgb(255, 255, 255); stroke-opacity: 1; stroke-width: 1px;"/><path class="ygrid crisp" transform="translate(0,224.05)" d="M80,0h540" style="stroke: rgb(255, 255, 255); stroke-opacity: 1; stroke-width: 1px;"/><path class="ygrid crisp" transform="translate(0,158.73)" d="M80,0h540" style="stroke: rgb(255, 255, 255); stroke-opacity: 1; stroke-width: 1px;"/></g></g><g class="zerolinelayer"><path class="yzl zl crisp" transform="translate(0,420)" d="M80,0h540" style="stroke: rgb(255, 255, 255); stroke-opacity: 1; stroke-width: 2px;"/></g><path class="xlines-below"/><path class="ylines-below"/><g class="overlines-below"/><g class="xaxislayer-below"/><g class="yaxislayer-below"/><g class="overaxes-below"/><g class="plot" transform="translate(80,100)" clip-path="url(#clip008684xyplot)"><g class="scatterlayer mlayer"><g class="trace scatter tracefa9060" style="stroke-miterlimit: 2;"><g class="fills"><g><path class="js-fill" d="M540,320L0,320L0,181.14L3.02,182.02L6.03,180.39L12.07,176.2L15.08,175.57L18.1,158.5L21.12,155.47L24.13,158.65L27.15,155.81L30.17,152.69L33.18,153.62L36.2,147.89L39.22,144.91L42.23,128.66L45.25,124.38L48.27,118.9L51.28,117.32L54.3,113.21L57.32,112.64L60.34,113.57L63.35,118.76L66.37,121.73L69.39,116.52L72.4,120.46L75.42,126.09L81.45,128.33L84.47,132.16L87.49,138.39L90.5,139.88L93.52,139.56L96.54,140.21L99.55,143.5L102.57,143.83L105.59,146.67L108.6,160.93L114.64,162.27L117.65,162.31L120.67,162.95L123.69,166.92L126.7,167.44L129.72,165.44L132.74,166.29L135.75,168.54L138.77,170.02L141.79,170.28L147.82,171.98L150.84,172.83L153.85,161.41L156.87,161.35L159.89,161.41L162.91,164.49L168.94,164.34L171.96,164.43L174.97,163.52L177.99,163.48L181.01,163.03L184.02,160.22L187.04,161.02L190.06,160.33L193.07,163.04L196.09,162.99L202.12,163.6L205.14,156.78L208.16,152.2L211.17,149.2L214.19,121.86L217.21,119.34L226.26,119.44L229.27,124.52L232.29,131.35L235.31,144.21L238.32,142.8L241.34,145.06L250.39,146.09L253.41,150.8L256.42,153.36L259.44,152.74L262.46,153.54L265.47,156.19L268.49,159.3L271.51,158.52L274.53,155.75L277.54,156.17L289.61,157.01L292.63,155.37L295.64,159.22L298.66,159.38L301.68,155.27L304.69,155.74L313.74,155.6L316.76,151.65L319.78,152.82L322.79,152.37L325.81,153.21L328.83,153.12L331.84,146.53L334.86,147.32L337.88,134.03L340.89,151.17L343.91,152.06L346.93,151.92L349.94,152.85L352.96,152.86L358.99,149.74L362.01,150.23L374.08,149.8L377.09,151.8L386.15,152.18L389.16,163.51L401.23,162.12L404.25,160.8L407.26,155.36L410.28,153.12L413.3,148.05L416.31,147.61L419.33,139.77L422.35,138.57L425.36,139L428.38,137.59L431.4,128.33L434.41,126.94L437.43,126.5L440.45,124.74L449.5,120.2L452.51,117.82L458.55,115.1L461.56,116.01L464.58,114.1L467.6,98.62L470.61,98.06L473.63,80.38L476.65,79.71L479.66,73.12L482.68,71.63L485.7,64.41L488.72,27.25L491.73,24.27L494.75,27.37L497.77,26.84L503.8,16L506.82,50.97L509.83,48.67L512.85,48.55L515.87,46.33L518.88,46.5L521.9,46.2L524.92,46.92L530.95,42.43L533.97,43.42L536.98,42.87L540,43.7" style="fill: rgb(99, 110, 250); fill-opacity: 0.5; stroke-width: 0;"/></g></g><g class="errorbars"/><g class="lines"><path class="js-line" d="M0,181.14L3.02,182.02L6.03,180.39L12.07,176.2L15.08,175.57L18.1,158.5L21.12,155.47L24.13,158.65L27.15,155.81L30.17,152.69L33.18,153.62L36.2,147.89L39.22,144.91L42.23,128.66L45.25,124.38L48.27,118.9L51.28,117.32L54.3,113.21L57.32,112.64L60.34,113.57L63.35,118.76L66.37,121.73L69.39,116.52L72.4,120.46L75.42,126.09L81.45,128.33L84.47,132.16L87.49,138.39L90.5,139.88L93.52,139.56L96.54,140.21L99.55,143.5L102.57,143.83L105.59,146.67L108.6,160.93L114.64,162.27L117.65,162.31L120.67,162.95L123.69,166.92L126.7,167.44L129.72,165.44L132.74,166.29L135.75,168.54L138.77,170.02L141.79,170.28L147.82,171.98L150.84,172.83L153.85,161.41L156.87,161.35L159.89,161.41L162.91,164.49L168.94,164.34L171.96,164.43L174.97,163.52L177.99,163.48L181.01,163.03L184.02,160.22L187.04,161.02L190.06,160.33L193.07,163.04L196.09,162.99L202.12,163.6L205.14,156.78L208.16,152.2L211.17,149.2L214.19,121.86L217.21,119.34L226.26,119.44L229.27,124.52L232.29,131.35L235.31,144.21L238.32,142.8L241.34,145.06L250.39,146.09L253.41,150.8L256.42,153.36L259.44,152.74L262.46,153.54L265.47,156.19L268.49,159.3L271.51,158.52L274.53,155.75L277.54,156.17L289.61,157.01L292.63,155.37L295.64,159.22L298.66,159.38L301.68,155.27L304.69,155.74L313.74,155.6L316.76,151.65L319.78,152.82L322.79,152.37L325.81,153.21L328.83,153.12L331.84,146.53L334.86,147.32L337.88,134.03L340.89,151.17L343.91,152.06L346.93,151.92L349.94,152.85L352.96,152.86L358.99,149.74L362.01,150.23L374.08,149.8L377.09,151.8L386.15,152.18L389.16,163.51L401.23,162.12L404.25,160.8L407.26,155.36L410.28,153.12L413.3,148.05L416.31,147.61L419.33,139.77L422.35,138.57L425.36,139L428.38,137.59L431.4,128.33L434.41,126.94L437.43,126.5L440.45,124.74L449.5,120.2L452.51,117.82L458.55,115.1L461.56,116.01L464.58,114.1L467.6,98.62L470.61,98.06L473.63,80.38L476.65,79.71L479.66,73.12L482.68,71.63L485.7,64.41L488.72,27.25L491.73,24.27L494.75,27.37L497.77,26.84L503.8,16L506.82,50.97L509.83,48.67L512.85,48.55L515.87,46.33L518.88,46.5L521.9,46.2L524.92,46.92L530.95,42.43L533.97,43.42L536.98,42.87L540,43.7" style="vector-effect: non-scaling-stroke; fill: none; stroke: rgb(99, 110, 250); stroke-opacity: 1; stroke-width: 2px; opacity: 1;"/></g><g class="points"/><g class="text"/></g></g></g><g class="overplot"/><path class="xlines-above crisp" d="M0,0" style="fill: none;"/><path class="ylines-above crisp" d="M0,0" style="fill: none;"/><g class="overlines-above"/><g class="xaxislayer-above"><g class="xtick"><text text-anchor="middle" x="0" y="433" transform="translate(101.12,0)" style="font-family: 'Open Sans', verdana, arial, sans-serif; font-size: 12px; fill: rgb(42, 63, 95); fill-opacity: 1; white-space: pre; opacity: 1;">Sep 2022</text></g><g class="xtick"><text text-anchor="middle" x="0" y="433" style="font-family: 'Open Sans', verdana, arial, sans-serif; font-size: 12px; fill: rgb(42, 63, 95); fill-opacity: 1; white-space: pre; opacity: 1;" transform="translate(191.62,0)">Oct 2022</text></g><g class="xtick"><text text-anchor="middle" x="0" y="433" style="font-family: 'Open Sans', verdana, arial, sans-serif; font-size: 12px; fill: rgb(42, 63, 95); fill-opacity: 1; white-space: pre; opacity: 1;" transform="translate(285.14,0)">Nov 2022</text></g><g class="xtick"><text text-anchor="middle" x="0" y="433" style="font-family: 'Open Sans', verdana, arial, sans-serif; font-size: 12px; fill: rgb(42, 63, 95); fill-opacity: 1; white-space: pre; opacity: 1;" transform="translate(375.64,0)">Dec 2022</text></g><g class="xtick"><text text-anchor="middle" x="0" y="433" style="font-family: 'Open Sans', verdana, arial, sans-serif; font-size: 12px; fill: rgb(42, 63, 95); fill-opacity: 1; white-space: pre; opacity: 1;" transform="translate(469.16,0)">Jan 2023</text></g><g class="xtick"><text text-anchor="middle" x="0" y="433" style="font-family: 'Open Sans', verdana, arial, sans-serif; font-size: 12px; fill: rgb(42, 63, 95); fill-opacity: 1; white-space: pre; opacity: 1;" transform="translate(562.6800000000001,0)">Feb 2023</text></g></g><g class="yaxislayer-above"><g class="ytick"><text text-anchor="end" x="79" y="4.199999999999999" transform="translate(0,420)" style="font-family: 'Open Sans', verdana, arial, sans-serif; font-size: 12px; fill: rgb(42, 63, 95); fill-opacity: 1; white-space: pre; opacity: 1;">$0</text></g><g class="ytick"><text text-anchor="end" x="79" y="4.199999999999999" style="font-family: 'Open Sans', verdana, arial, sans-serif; font-size: 12px; fill: rgb(42, 63, 95); fill-opacity: 1; white-space: pre; opacity: 1;" transform="translate(0,354.68)">$10M</text></g><g class="ytick"><text text-anchor="end" x="79" y="4.199999999999999" style="font-family: 'Open Sans', verdana, arial, sans-serif; font-size: 12px; fill: rgb(42, 63, 95); fill-opacity: 1; white-space: pre; opacity: 1;" transform="translate(0,289.37)">$20M</text></g><g class="ytick"><text text-anchor="end" x="79" y="4.199999999999999" style="font-family: 'Open Sans', verdana, arial, sans-serif; font-size: 12px; fill: rgb(42, 63, 95); fill-opacity: 1; white-space: pre; opacity: 1;" transform="translate(0,224.05)">$30M</text></g><g class="ytick"><text text-anchor="end" x="79" y="4.199999999999999" style="font-family: 'Open Sans', verdana, arial, sans-serif; font-size: 12px; fill: rgb(42, 63, 95); fill-opacity: 1; white-space: pre; opacity: 1;" transform="translate(0,158.73)">$40M</text></g></g><g class="overaxes-above"/></g></g><g class="polarlayer"/><g class="smithlayer"/><g class="ternarylayer"/><g class="geolayer"/><g class="funnelarealayer"/><g class="pielayer"/><g class="iciclelayer"/><g class="treemaplayer"/><g class="sunburstlayer"/><g class="glimages"/><defs id="topdefs-008684"><g class="clips"/></defs><g class="layer-above"><g class="imagelayer"/><g class="shapelayer"/></g><g class="infolayer"><g class="g-gtitle"><text class="gtitle" x="35" y="50" text-anchor="start" dy="0em" style="font-family: 'Open Sans', verdana, arial, sans-serif; font-size: 17px; fill: rgb(42, 63, 95); opacity: 1; font-weight: normal; white-space: pre;"><tspan class="line" dy="0em" x="35" y="50">Synthetix - sUSD-3Crv: Curve</tspan><tspan class="line" dy="1.3em" x="35" y="50">​<tspan style="font-size:70%" dy="-0.6em">Cumulative Net Flows since Program Announcement, Until Program End + 30 Days - At Last Price</tspan><tspan dy="0.42em">​</tspan></tspan></text></g><g class="g-xtitle"><text class="xtitle" x="350" y="460.8" text-anchor="middle" style="font-family: 'Open Sans', verdana, arial, sans-serif; font-size: 14px; fill: rgb(42, 63, 95); opacity: 1; font-weight: normal; white-space: pre;">Day</text></g><g class="g-ytitle"><text class="ytitle" transform="rotate(-90,24.168750000000003,260)" x="24.168750000000003" y="260" text-anchor="middle" style="font-family: 'Open Sans', verdana, arial, sans-serif; font-size: 14px; fill: rgb(42, 63, 95); opacity: 1; font-weight: normal; white-space: pre;">Cumulative Net Flows (USD)</text></g></g></svg>