<svg class="main-svg" xmlns="http://www.w3.org/2000/svg" xmlns:xlink="http://www.w3.org/1999/xlink" width="700" height="500" style="" viewBox="0 0 700 500"><rect x="0" y="0" width="700" height="500" style="fill: rgb(255, 255, 255); fill-opacity: 1;"/><defs id="defs-b91346"><g class="clips"><clipPath id="clipb91346xyplot" class="plotclip"><rect width="540" height="320"/></clipPath><clipPath class="axesclip" id="clipb91346x"><rect x="80" y="0" width="540" height="500"/></clipPath><clipPath class="axesclip" id="clipb91346y"><rect x="0" y="100" width="700" height="320"/></clipPath><clipPath class="axesclip" id="clipb91346xy"><rect x="80" y="100" width="540" height="320"/></clipPath></g><g class="gradients"/><g class="patterns"/></defs><g class="bglayer"><rect class="bg" x="80" y="100" width="540" height="320" style="fill: rgb(229, 236, 246); fill-opacity: 1; stroke-width: 0;"/></g><g class="layer-below"><g class="imagelayer"/><g class="shapelayer"/></g><g class="cartesianlayer"><g class="subplot xy"><g class="layer-subplot"><g class="shapelayer"/><g class="imagelayer"/></g><g class="minor-gridlayer"><g class="x"/><g class="y"/></g><g class="gridlayer"><g class="x"><path class="xgrid crisp" transform="translate(125,0)" d="M0,100v320" style="stroke: rgb(255, 255, 255); stroke-opacity: 1; stroke-width: 1px;"/><path class="xgrid crisp" transform="translate(241.25,0)" d="M0,100v320" style="stroke: rgb(255, 255, 255); stroke-opacity: 1; stroke-width: 1px;"/><path class="xgrid crisp" transform="translate(353.75,0)" d="M0,100v320" style="stroke: rgb(255, 255, 255); stroke-opacity: 1; stroke-width: 1px;"/><path class="xgrid crisp" transform="translate(470,0)" d="M0,100v320" style="stroke: rgb(255, 255, 255); stroke-opacity: 1; stroke-width: 1px;"/><path class="xgrid crisp" transform="translate(586.25,0)" d="M0,100v320" style="stroke: rgb(255, 255, 255); stroke-opacity: 1; stroke-width: 1px;"/></g><g class="y"><path class="ygrid crisp" transform="translate(0,354.74)" d="M80,0h540" style="stroke: rgb(255, 255, 255); stroke-opacity: 1; stroke-width: 1px;"/><path class="ygrid crisp" transform="translate(0,289.47)" d="M80,0h540" style="stroke: rgb(255, 255, 255); stroke-opacity: 1; stroke-width: 1px;"/><path class="ygrid crisp" transform="translate(0,224.20999999999998)" d="M80,0h540" style="stroke: rgb(255, 255, 255); stroke-opacity: 1; stroke-width: 1px;"/><path class="ygrid crisp" transform="translate(0,158.95)" d="M80,0h540" style="stroke: rgb(255, 255, 255); stroke-opacity: 1; stroke-width: 1px;"/></g></g><g class="zerolinelayer"><path class="yzl zl crisp" transform="translate(0,420)" d="M80,0h540" style="stroke: rgb(255, 255, 255); stroke-opacity: 1; stroke-width: 2px;"/></g><path class="xlines-below"/><path class="ylines-below"/><g class="overlines-below"/><g class="xaxislayer-below"/><g class="yaxislayer-below"/><g class="overaxes-below"/><g class="plot" transform="translate(80,100)" clip-path="url(#clipb91346xyplot)"><g class="scatterlayer mlayer"><g class="trace scatter tracefae8dd" style="stroke-miterlimit: 2;"><g class="fills"><g><path class="js-fill" d="M540,320L0,320L0,320L3.75,318.12L7.5,312.68L11.25,296.03L15,288.3L18.75,287.23L22.5,281.93L26.25,278.03L30,277.88L33.75,275.73L37.5,272.28L41.25,276.63L45,276.27L48.75,278.09L52.5,276.67L56.25,275.86L60,275.88L75,276.21L78.75,275.12L82.5,274.63L86.25,273.06L93.75,272.22L97.5,273.18L101.25,270.39L105,270.36L112.5,270.19L116.25,268.11L120,268.1L123.75,272.58L135,272.79L138.75,271.98L142.5,225.63L146.25,158.26L150,132.87L153.75,130.14L157.5,124.13L161.25,122.66L165,128.82L168.75,131.9L172.5,125.26L176.25,128.21L180,125.3L183.75,126.78L187.5,119.15L191.25,137.38L195,153.1L198.75,162.43L202.5,180.82L206.25,186.64L210,188.83L213.75,188.95L221.25,188.39L225,198.4L232.5,198.1L236.25,204.26L240,203.15L243.75,204.94L251.25,205.55L255,207.05L273.75,206.68L277.5,205.95L281.25,202.65L285,200.65L288.75,200.54L292.5,198.4L303.75,198.02L307.5,194.96L311.25,193.85L315,193.84L318.75,193.82L322.5,200.73L337.5,200.36L341.25,201.88L348.75,201.82L352.5,199.74L360,199.32L363.75,198.09L367.5,197.98L371.25,198.71L378.75,198.35L382.5,196.23L386.25,197.61L390,197.55L397.5,197.46L401.25,196.24L405,196.08L408.75,193.65L416.25,193.62L420,213.31L423.75,215.32L427.5,215.42L431.25,212.93L435,213.3L438.75,216.65L442.5,221.05L446.25,215.01L450,215.03L457.5,210.09L461.25,91.77L465,90.07L468.75,75.53L472.5,48.24L476.25,39.44L480,30.05L483.75,35.1L487.5,40.04L491.25,33.61L495,18.37L498.75,16L502.5,17.82L506.25,27.92L510,24.25L513.75,32.72L517.5,34L521.25,36.77L525,32.75L528.75,22.29L536.25,33.38L540,113.9" style="fill: rgb(99, 110, 250); fill-opacity: 0.5; stroke-width: 0;"/></g></g><g class="errorbars"/><g class="lines"><path class="js-line" d="M0,320L3.75,318.12L7.5,312.68L11.25,296.03L15,288.3L18.75,287.23L22.5,281.93L26.25,278.03L30,277.88L33.75,275.73L37.5,272.28L41.25,276.63L45,276.27L48.75,278.09L52.5,276.67L56.25,275.86L60,275.88L75,276.21L78.75,275.12L82.5,274.63L86.25,273.06L93.75,272.22L97.5,273.18L101.25,270.39L105,270.36L112.5,270.19L116.25,268.11L120,268.1L123.75,272.58L135,272.79L138.75,271.98L142.5,225.63L146.25,158.26L150,132.87L153.75,130.14L157.5,124.13L161.25,122.66L165,128.82L168.75,131.9L172.5,125.26L176.25,128.21L180,125.3L183.75,126.78L187.5,119.15L191.25,137.38L195,153.1L198.75,162.43L202.5,180.82L206.25,186.64L210,188.83L213.75,188.95L221.25,188.39L225,198.4L232.5,198.1L236.25,204.26L240,203.15L243.75,204.94L251.25,205.55L255,207.05L273.75,206.68L277.5,205.95L281.25,202.65L285,200.65L288.75,200.54L292.5,198.4L303.75,198.02L307.5,194.96L311.25,193.85L315,193.84L318.75,193.82L322.5,200.73L337.5,200.36L341.25,201.88L348.75,201.82L352.5,199.74L360,199.32L363.75,198.09L367.5,197.98L371.25,198.71L378.75,198.35L382.5,196.23L386.25,197.61L390,197.55L397.5,197.46L401.25,196.24L405,196.08L408.75,193.65L416.25,193.62L420,213.31L423.75,215.32L427.5,215.42L431.25,212.93L435,213.3L438.75,216.65L442.5,221.05L446.25,215.01L450,215.03L457.5,210.09L461.25,91.77L465,90.07L468.75,75.53L472.5,48.24L476.25,39.44L480,30.05L483.75,35.1L487.5,40.04L491.25,33.61L495,18.37L498.75,16L502.5,17.82L506.25,27.92L510,24.25L513.75,32.72L517.5,34L521.25,36.77L525,32.75L528.75,22.29L536.25,33.38L540,113.9" style="vector-effect: non-scaling-stroke; fill: none; stroke: rgb(99, 110, 250); stroke-opacity: 1; stroke-width: 2px; opacity: 1;"/></g><g class="points"/><g class="text"/></g></g></g><g class="overplot"/><path class="xlines-above crisp" d="M0,0" style="fill: none;"/><path class="ylines-above crisp" d="M0,0" style="fill: none;"/><g class="overlines-above"/><g class="xaxislayer-above"><g class="xtick"><text text-anchor="middle" x="0" y="433" transform="translate(125,0)" style="font-family: 'Open Sans', verdana, arial, sans-serif; font-size: 12px; fill: rgb(42, 63, 95); fill-opacity: 1; white-space: pre; opacity: 1;">Oct 2022</text></g><g class="xtick"><text text-anchor="middle" x="0" y="433" style="font-family: 'Open Sans', verdana, arial, sans-serif; font-size: 12px; fill: rgb(42, 63, 95); fill-opacity: 1; white-space: pre; opacity: 1;" transform="translate(241.25,0)">Nov 2022</text></g><g class="xtick"><text text-anchor="middle" x="0" y="433" style="font-family: 'Open Sans', verdana, arial, sans-serif; font-size: 12px; fill: rgb(42, 63, 95); fill-opacity: 1; white-space: pre; opacity: 1;" transform="translate(353.75,0)">Dec 2022</text></g><g class="xtick"><text text-anchor="middle" x="0" y="433" style="font-family: 'Open Sans', verdana, arial, sans-serif; font-size: 12px; fill: rgb(42, 63, 95); fill-opacity: 1; white-space: pre; opacity: 1;" transform="translate(470,0)">Jan 2023</text></g><g class="xtick"><text text-anchor="middle" x="0" y="433" style="font-family: 'Open Sans', verdana, arial, sans-serif; font-size: 12px; fill: rgb(42, 63, 95); fill-opacity: 1; white-space: pre; opacity: 1;" transform="translate(586.25,0)">Feb 2023</text></g></g><g class="yaxislayer-above"><g class="ytick"><text text-anchor="end" x="79" y="4.199999999999999" transform="translate(0,420)" style="font-family: 'Open Sans', verdana, arial, sans-serif; font-size: 12px; fill: rgb(42, 63, 95); fill-opacity: 1; white-space: pre; opacity: 1;">$0</text></g><g class="ytick"><text text-anchor="end" x="79" y="4.199999999999999" style="font-family: 'Open Sans', verdana, arial, sans-serif; font-size: 12px; fill: rgb(42, 63, 95); fill-opacity: 1; white-space: pre; opacity: 1;" transform="translate(0,354.74)">$1M</text></g><g class="ytick"><text text-anchor="end" x="79" y="4.199999999999999" style="font-family: 'Open Sans', verdana, arial, sans-serif; font-size: 12px; fill: rgb(42, 63, 95); fill-opacity: 1; white-space: pre; opacity: 1;" transform="translate(0,289.47)">$2M</text></g><g class="ytick"><text text-anchor="end" x="79" y="4.199999999999999" style="font-family: 'Open Sans', verdana, arial, sans-serif; font-size: 12px; fill: rgb(42, 63, 95); fill-opacity: 1; white-space: pre; opacity: 1;" transform="translate(0,224.20999999999998)">$3M</text></g><g class="ytick"><text text-anchor="end" x="79" y="4.199999999999999" style="font-family: 'Open Sans', verdana, arial, sans-serif; font-size: 12px; fill: rgb(42, 63, 95); fill-opacity: 1; white-space: pre; opacity: 1;" transform="translate(0,158.95)">$4M</text></g></g><g class="overaxes-above"/></g></g><g class="polarlayer"/><g class="smithlayer"/><g class="ternarylayer"/><g class="geolayer"/><g class="funnelarealayer"/><g class="pielayer"/><g class="iciclelayer"/><g class="treemaplayer"/><g class="sunburstlayer"/><g class="glimages"/><defs id="topdefs-b91346"><g class="clips"/></defs><g class="layer-above"><g class="imagelayer"/><g class="shapelayer"/></g><g class="infolayer"><g class="g-gtitle"><text class="gtitle" x="35" y="50" text-anchor="start" dy="0em" style="font-family: 'Open Sans', verdana, arial, sans-serif; font-size: 17px; fill: rgb(42, 63, 95); opacity: 1; font-weight: normal; white-space: pre;"><tspan class="line" dy="0em" x="35" y="50">Xtoken</tspan><tspan class="line" dy="1.3em" x="35" y="50">​<tspan style="font-size:70%" dy="-0.6em">Cumulative Net Flows since Program Announcement, Until Program End + 30 Days - At Last Price</tspan><tspan dy="0.42em">​</tspan></tspan></text></g><g class="g-xtitle"><text class="xtitle" x="350" y="460.8" text-anchor="middle" style="font-family: 'Open Sans', verdana, arial, sans-serif; font-size: 14px; fill: rgb(42, 63, 95); opacity: 1; font-weight: normal; white-space: pre;">Day</text></g><g class="g-ytitle"><text class="ytitle" transform="rotate(-90,30.856250000000003,260)" x="30.856250000000003" y="260" text-anchor="middle" style="font-family: 'Open Sans', verdana, arial, sans-serif; font-size: 14px; fill: rgb(42, 63, 95); opacity: 1; font-weight: normal; white-space: pre;">Cumulative Net Flows (USD)</text></g></g></svg>