<svg class="main-svg" xmlns="http://www.w3.org/2000/svg" xmlns:xlink="http://www.w3.org/1999/xlink" width="700" height="500" style="" viewBox="0 0 700 500"><rect x="0" y="0" width="700" height="500" style="fill: rgb(255, 255, 255); fill-opacity: 1;"/><defs id="defs-29638e"><g class="clips"><clipPath id="clip29638exyplot" class="plotclip"><rect width="540" height="320"/></clipPath><clipPath class="axesclip" id="clip29638ex"><rect x="80" y="0" width="540" height="500"/></clipPath><clipPath class="axesclip" id="clip29638ey"><rect x="0" y="100" width="700" height="320"/></clipPath><clipPath class="axesclip" id="clip29638exy"><rect x="80" y="100" width="540" height="320"/></clipPath></g><g class="gradients"/><g class="patterns"/></defs><g class="bglayer"><rect class="bg" x="80" y="100" width="540" height="320" style="fill: rgb(229, 236, 246); fill-opacity: 1; stroke-width: 0;"/></g><g class="layer-below"><g class="imagelayer"/><g class="shapelayer"/></g><g class="cartesianlayer"><g class="subplot xy"><g class="layer-subplot"><g class="shapelayer"/><g class="imagelayer"/></g><g class="minor-gridlayer"><g class="x"/><g class="y"/></g><g class="gridlayer"><g class="x"><path class="xgrid crisp" transform="translate(121.53999999999999,0)" d="M0,100v320" style="stroke: rgb(255, 255, 255); stroke-opacity: 1; stroke-width: 1px;"/><path class="xgrid crisp" transform="translate(193.07999999999998,0)" d="M0,100v320" style="stroke: rgb(255, 255, 255); stroke-opacity: 1; stroke-width: 1px;"/><path class="xgrid crisp" transform="translate(262.31,0)" d="M0,100v320" style="stroke: rgb(255, 255, 255); stroke-opacity: 1; stroke-width: 1px;"/><path class="xgrid crisp" transform="translate(333.85,0)" d="M0,100v320" style="stroke: rgb(255, 255, 255); stroke-opacity: 1; stroke-width: 1px;"/><path class="xgrid crisp" transform="translate(403.08,0)" d="M0,100v320" style="stroke: rgb(255, 255, 255); stroke-opacity: 1; stroke-width: 1px;"/><path class="xgrid crisp" transform="translate(474.62,0)" d="M0,100v320" style="stroke: rgb(255, 255, 255); stroke-opacity: 1; stroke-width: 1px;"/><path class="xgrid crisp" transform="translate(546.15,0)" d="M0,100v320" style="stroke: rgb(255, 255, 255); stroke-opacity: 1; stroke-width: 1px;"/><path class="xgrid crisp" transform="translate(610.77,0)" d="M0,100v320" style="stroke: rgb(255, 255, 255); stroke-opacity: 1; stroke-width: 1px;"/></g><g class="y"><path class="ygrid crisp" transform="translate(0,416.11)" d="M80,0h540" style="stroke: rgb(255, 255, 255); stroke-opacity: 1; stroke-width: 1px;"/><path class="ygrid crisp" transform="translate(0,366.29)" d="M80,0h540" style="stroke: rgb(255, 255, 255); stroke-opacity: 1; stroke-width: 1px;"/><path class="ygrid crisp" transform="translate(0,316.46000000000004)" d="M80,0h540" style="stroke: rgb(255, 255, 255); stroke-opacity: 1; stroke-width: 1px;"/><path class="ygrid crisp" transform="translate(0,266.64)" d="M80,0h540" style="stroke: rgb(255, 255, 255); stroke-opacity: 1; stroke-width: 1px;"/><path class="ygrid crisp" transform="translate(0,216.81)" d="M80,0h540" style="stroke: rgb(255, 255, 255); stroke-opacity: 1; stroke-width: 1px;"/><path class="ygrid crisp" transform="translate(0,166.99)" d="M80,0h540" style="stroke: rgb(255, 255, 255); stroke-opacity: 1; stroke-width: 1px;"/></g></g><g class="zerolinelayer"><path class="yzl zl crisp" transform="translate(0,117.16)" d="M80,0h540" style="stroke: rgb(255, 255, 255); stroke-opacity: 1; stroke-width: 2px;"/></g><path class="xlines-below"/><path class="ylines-below"/><g class="overlines-below"/><g class="xaxislayer-below"/><g class="yaxislayer-below"/><g class="overaxes-below"/><g class="plot" transform="translate(80,100)" clip-path="url(#clip29638exyplot)"><g class="scatterlayer mlayer"><g class="trace scatter trace24552a" style="stroke-miterlimit: 2;"><g class="fills"><g><path class="js-fill" d="M540,17.16L0,17.16L0,20.12L2.31,17.98L4.62,17.74L6.92,16.16L9.23,16L11.54,178.25L13.85,166.28L16.15,163.46L18.46,169.91L20.77,172.81L23.08,164.61L27.69,164.53L30,173L32.31,173.18L34.62,171.62L39.23,171.42L41.54,173.92L43.85,174.06L46.15,179.33L48.46,161.09L50.77,155.55L53.08,151.06L55.38,157.25L57.69,162.82L60,157.41L62.31,161.17L64.62,159.61L66.92,154.9L69.23,144.5L71.54,145.27L73.85,143.3L76.15,141.65L78.46,141.89L80.77,136.44L83.08,135.04L85.38,134.06L87.69,136.43L92.31,137.52L94.62,147.18L96.92,147.61L99.23,155.38L101.54,157.77L103.85,153.17L106.15,152.82L108.46,167.23L110.77,168.04L113.08,171.69L115.38,174.3L117.69,175.16L122.31,174.87L124.62,176.02L129.23,173.26L131.54,160.78L138.46,161.65L140.77,155.99L143.08,156.16L145.38,168.73L150,165.12L152.31,164.94L154.62,165.8L156.92,165.32L161.54,162.33L163.85,151.68L166.15,153.08L168.46,152.8L173.08,152.44L175.38,152.6L180,151.08L182.31,146.6L186.92,146.28L189.23,144.65L191.54,145L193.85,144.1L196.15,145.19L198.46,144.49L205.38,144.13L207.69,143.69L210,143.82L212.31,142.42L214.62,140.43L216.92,140.35L219.23,139.24L221.54,140.6L223.85,134.82L226.15,134.73L228.46,137.16L230.77,136.76L235.38,139.38L237.69,143.33L242.31,146.93L244.62,150.48L249.23,154.01L251.54,154.08L253.85,158.92L256.15,156.9L258.46,158.05L260.77,169.04L263.08,168.41L265.38,168.85L267.69,168.28L270,166.35L272.31,172.88L274.62,173.1L276.92,197.35L279.23,200.87L281.54,207.05L283.85,209.29L288.46,224.56L290.77,224.12L293.08,272.99L295.38,282.42L297.69,281.73L300,280.03L302.31,281.49L304.62,278.92L306.92,285.69L309.23,284.98L313.85,284.99L316.15,280.95L318.46,289.87L320.77,289.88L323.08,296.18L325.38,297.23L327.69,304L330,289.06L332.31,288.55L334.62,293.94L336.92,292.33L339.23,288.33L341.54,287.92L343.85,294.42L348.46,294.26L350.77,293.72L353.08,292.51L355.38,297.4L357.69,297.01L360,291.74L362.31,289.03L364.62,288.91L366.92,288.27L369.23,288.76L371.54,286.43L373.85,288.1L376.15,286.21L378.46,286.45L380.77,286.54L383.08,285.83L385.38,285.25L387.69,283.18L390,282.31L392.31,282.5L394.62,283.34L396.92,282.38L399.23,282.31L401.54,281.36L403.85,280.77L406.15,286.55L408.46,284.74L410.77,284.24L413.08,283.92L415.38,280.46L417.69,277.62L420,277.95L422.31,279.82L424.62,275.57L426.92,291.01L429.23,292.23L431.54,293.1L433.85,296.87L436.15,297.26L438.46,295.07L440.77,299.02L443.08,300.89L450,295.53L452.31,299.17L454.62,297.42L456.92,297.05L459.23,298.2L461.54,298.44L463.85,296.42L466.15,297.61L468.46,296.76L470.77,298.2L473.08,299.13L475.38,297.36L477.69,298.06L480,295.77L482.31,294.82L484.62,296.31L486.92,293.41L489.23,292.63L491.54,290.15L493.85,291.24L496.15,289.51L498.46,289.27L500.77,288.75L503.08,290.18L505.38,289.29L507.69,292.93L510,291.43L512.31,292.29L514.62,284.27L516.92,282.89L519.23,282.88L521.54,281.62L523.85,281.75L526.15,279.88L528.46,277.63L530.77,276.91L533.08,278.35L535.38,276.94L540,279.35" style="fill: rgb(99, 110, 250); fill-opacity: 0.5; stroke-width: 0;"/></g></g><g class="errorbars"/><g class="lines"><path class="js-line" d="M0,20.12L2.31,17.98L4.62,17.74L6.92,16.16L9.23,16L11.54,178.25L13.85,166.28L16.15,163.46L18.46,169.91L20.77,172.81L23.08,164.61L27.69,164.53L30,173L32.31,173.18L34.62,171.62L39.23,171.42L41.54,173.92L43.85,174.06L46.15,179.33L48.46,161.09L50.77,155.55L53.08,151.06L55.38,157.25L57.69,162.82L60,157.41L62.31,161.17L64.62,159.61L66.92,154.9L69.23,144.5L71.54,145.27L73.85,143.3L76.15,141.65L78.46,141.89L80.77,136.44L83.08,135.04L85.38,134.06L87.69,136.43L92.31,137.52L94.62,147.18L96.92,147.61L99.23,155.38L101.54,157.77L103.85,153.17L106.15,152.82L108.46,167.23L110.77,168.04L113.08,171.69L115.38,174.3L117.69,175.16L122.31,174.87L124.62,176.02L129.23,173.26L131.54,160.78L138.46,161.65L140.77,155.99L143.08,156.16L145.38,168.73L150,165.12L152.31,164.94L154.62,165.8L156.92,165.32L161.54,162.33L163.85,151.68L166.15,153.08L168.46,152.8L173.08,152.44L175.38,152.6L180,151.08L182.31,146.6L186.92,146.28L189.23,144.65L191.54,145L193.85,144.1L196.15,145.19L198.46,144.49L205.38,144.13L207.69,143.69L210,143.82L212.31,142.42L214.62,140.43L216.92,140.35L219.23,139.24L221.54,140.6L223.85,134.82L226.15,134.73L228.46,137.16L230.77,136.76L235.38,139.38L237.69,143.33L242.31,146.93L244.62,150.48L249.23,154.01L251.54,154.08L253.85,158.92L256.15,156.9L258.46,158.05L260.77,169.04L263.08,168.41L265.38,168.85L267.69,168.28L270,166.35L272.31,172.88L274.62,173.1L276.92,197.35L279.23,200.87L281.54,207.05L283.85,209.29L288.46,224.56L290.77,224.12L293.08,272.99L295.38,282.42L297.69,281.73L300,280.03L302.31,281.49L304.62,278.92L306.92,285.69L309.23,284.98L313.85,284.99L316.15,280.95L318.46,289.87L320.77,289.88L323.08,296.18L325.38,297.23L327.69,304L330,289.06L332.31,288.55L334.62,293.94L336.92,292.33L339.23,288.33L341.54,287.92L343.85,294.42L348.46,294.26L350.77,293.72L353.08,292.51L355.38,297.4L357.69,297.01L360,291.74L362.31,289.03L364.62,288.91L366.92,288.27L369.23,288.76L371.54,286.43L373.85,288.1L376.15,286.21L378.46,286.45L380.77,286.54L383.08,285.83L385.38,285.25L387.69,283.18L390,282.31L392.31,282.5L394.62,283.34L396.92,282.38L399.23,282.31L401.54,281.36L403.85,280.77L406.15,286.55L408.46,284.74L410.77,284.24L413.08,283.92L415.38,280.46L417.69,277.62L420,277.95L422.31,279.82L424.62,275.57L426.92,291.01L429.23,292.23L431.54,293.1L433.85,296.87L436.15,297.26L438.46,295.07L440.77,299.02L443.08,300.89L450,295.53L452.31,299.17L454.62,297.42L456.92,297.05L459.23,298.2L461.54,298.44L463.85,296.42L466.15,297.61L468.46,296.76L470.77,298.2L473.08,299.13L475.38,297.36L477.69,298.06L480,295.77L482.31,294.82L484.62,296.31L486.92,293.41L489.23,292.63L491.54,290.15L493.85,291.24L496.15,289.51L498.46,289.27L500.77,288.75L503.08,290.18L505.38,289.29L507.69,292.93L510,291.43L512.31,292.29L514.62,284.27L516.92,282.89L519.23,282.88L521.54,281.62L523.85,281.75L526.15,279.88L528.46,277.63L530.77,276.91L533.08,278.35L535.38,276.94L540,279.35" style="vector-effect: non-scaling-stroke; fill: none; stroke: rgb(99, 110, 250); stroke-opacity: 1; stroke-width: 2px; opacity: 1;"/></g><g class="points"/><g class="text"/></g></g></g><g class="overplot"/><path class="xlines-above crisp" d="M0,0" style="fill: none;"/><path class="ylines-above crisp" d="M0,0" style="fill: none;"/><g class="overlines-above"/><g class="xaxislayer-above"><g class="xtick"><text text-anchor="middle" x="0" y="433" transform="translate(121.53999999999999,0)" style="font-family: 'Open Sans', verdana, arial, sans-serif; font-size: 12px; fill: rgb(42, 63, 95); fill-opacity: 1; white-space: pre; opacity: 1;">Aug 2022</text></g><g class="xtick"><text text-anchor="middle" x="0" y="433" style="font-family: 'Open Sans', verdana, arial, sans-serif; font-size: 12px; fill: rgb(42, 63, 95); fill-opacity: 1; white-space: pre; opacity: 1;" transform="translate(193.07999999999998,0)">Sep 2022</text></g><g class="xtick"><text text-anchor="middle" x="0" y="433" style="font-family: 'Open Sans', verdana, arial, sans-serif; font-size: 12px; fill: rgb(42, 63, 95); fill-opacity: 1; white-space: pre; opacity: 1;" transform="translate(262.31,0)">Oct 2022</text></g><g class="xtick"><text text-anchor="middle" x="0" y="433" style="font-family: 'Open Sans', verdana, arial, sans-serif; font-size: 12px; fill: rgb(42, 63, 95); fill-opacity: 1; white-space: pre; opacity: 1;" transform="translate(333.85,0)">Nov 2022</text></g><g class="xtick"><text text-anchor="middle" x="0" y="433" style="font-family: 'Open Sans', verdana, arial, sans-serif; font-size: 12px; fill: rgb(42, 63, 95); fill-opacity: 1; white-space: pre; opacity: 1;" transform="translate(403.08,0)">Dec 2022</text></g><g class="xtick"><text text-anchor="middle" x="0" y="433" style="font-family: 'Open Sans', verdana, arial, sans-serif; font-size: 12px; fill: rgb(42, 63, 95); fill-opacity: 1; white-space: pre; opacity: 1;" transform="translate(474.62,0)">Jan 2023</text></g><g class="xtick"><text text-anchor="middle" x="0" y="433" style="font-family: 'Open Sans', verdana, arial, sans-serif; font-size: 12px; fill: rgb(42, 63, 95); fill-opacity: 1; white-space: pre; opacity: 1;" transform="translate(546.15,0)">Feb 2023</text></g><g class="xtick"><text text-anchor="middle" x="0" y="433" style="font-family: 'Open Sans', verdana, arial, sans-serif; font-size: 12px; fill: rgb(42, 63, 95); fill-opacity: 1; white-space: pre; opacity: 1;" transform="translate(610.77,0)">Mar 2023</text></g></g><g class="yaxislayer-above"><g class="ytick"><text text-anchor="end" x="79" y="4.199999999999999" transform="translate(0,416.11)" style="font-family: 'Open Sans', verdana, arial, sans-serif; font-size: 12px; fill: rgb(42, 63, 95); fill-opacity: 1; white-space: pre; opacity: 1;">$−12M</text></g><g class="ytick"><text text-anchor="end" x="79" y="4.199999999999999" style="font-family: 'Open Sans', verdana, arial, sans-serif; font-size: 12px; fill: rgb(42, 63, 95); fill-opacity: 1; white-space: pre; opacity: 1;" transform="translate(0,366.29)">$−10M</text></g><g class="ytick"><text text-anchor="end" x="79" y="4.199999999999999" style="font-family: 'Open Sans', verdana, arial, sans-serif; font-size: 12px; fill: rgb(42, 63, 95); fill-opacity: 1; white-space: pre; opacity: 1;" transform="translate(0,316.46000000000004)">$−8M</text></g><g class="ytick"><text text-anchor="end" x="79" y="4.199999999999999" style="font-family: 'Open Sans', verdana, arial, sans-serif; font-size: 12px; fill: rgb(42, 63, 95); fill-opacity: 1; white-space: pre; opacity: 1;" transform="translate(0,266.64)">$−6M</text></g><g class="ytick"><text text-anchor="end" x="79" y="4.199999999999999" style="font-family: 'Open Sans', verdana, arial, sans-serif; font-size: 12px; fill: rgb(42, 63, 95); fill-opacity: 1; white-space: pre; opacity: 1;" transform="translate(0,216.81)">$−4M</text></g><g class="ytick"><text text-anchor="end" x="79" y="4.199999999999999" style="font-family: 'Open Sans', verdana, arial, sans-serif; font-size: 12px; fill: rgb(42, 63, 95); fill-opacity: 1; white-space: pre; opacity: 1;" transform="translate(0,166.99)">$−2M</text></g><g class="ytick"><text text-anchor="end" x="79" y="4.199999999999999" style="font-family: 'Open Sans', verdana, arial, sans-serif; font-size: 12px; fill: rgb(42, 63, 95); fill-opacity: 1; white-space: pre; opacity: 1;" transform="translate(0,117.16)">$0</text></g></g><g class="overaxes-above"/></g></g><g class="polarlayer"/><g class="smithlayer"/><g class="ternarylayer"/><g class="geolayer"/><g class="funnelarealayer"/><g class="pielayer"/><g class="iciclelayer"/><g class="treemaplayer"/><g class="sunburstlayer"/><g class="glimages"/><defs id="topdefs-29638e"><g class="clips"/></defs><g class="layer-above"><g class="imagelayer"/><g class="shapelayer"/></g><g class="infolayer"><g class="g-gtitle"><text class="gtitle" x="35" y="50" text-anchor="start" dy="0em" style="font-family: 'Open Sans', verdana, arial, sans-serif; font-size: 17px; fill: rgb(42, 63, 95); opacity: 1; font-weight: normal; white-space: pre;"><tspan class="line" dy="0em" x="35" y="50">Perpetual Protocol</tspan><tspan class="line" dy="1.3em" x="35" y="50">​<tspan style="font-size:70%" dy="-0.6em">Cumulative Net Flows since Program Announcement, Until Program End + 30 Days - At Last Price</tspan><tspan dy="0.42em">​</tspan></tspan></text></g><g class="g-xtitle"><text class="xtitle" x="350" y="460.8" text-anchor="middle" style="font-family: 'Open Sans', verdana, arial, sans-serif; font-size: 14px; fill: rgb(42, 63, 95); opacity: 1; font-weight: normal; white-space: pre;">Day</text></g><g class="g-ytitle"><text class="ytitle" transform="rotate(-90,17.168750000000003,260)" x="17.168750000000003" y="260" text-anchor="middle" style="font-family: 'Open Sans', verdana, arial, sans-serif; font-size: 14px; fill: rgb(42, 63, 95); opacity: 1; font-weight: normal; white-space: pre;">Cumulative Net Flows (USD)</text></g></g></svg>