<svg class="main-svg" xmlns="http://www.w3.org/2000/svg" xmlns:xlink="http://www.w3.org/1999/xlink" width="700" height="500" style="" viewBox="0 0 700 500"><rect x="0" y="0" width="700" height="500" style="fill: rgb(255, 255, 255); fill-opacity: 1;"/><defs id="defs-d50ea7"><g class="clips"><clipPath id="clipd50ea7xyplot" class="plotclip"><rect width="540" height="320"/></clipPath><clipPath class="axesclip" id="clipd50ea7x"><rect x="80" y="0" width="540" height="500"/></clipPath><clipPath class="axesclip" id="clipd50ea7y"><rect x="0" y="100" width="700" height="320"/></clipPath><clipPath class="axesclip" id="clipd50ea7xy"><rect x="80" y="100" width="540" height="320"/></clipPath></g><g class="gradients"/><g class="patterns"/></defs><g class="bglayer"><rect class="bg" x="80" y="100" width="540" height="320" style="fill: rgb(229, 236, 246); fill-opacity: 1; stroke-width: 0;"/></g><g class="layer-below"><g class="imagelayer"/><g class="shapelayer"/></g><g class="cartesianlayer"><g class="subplot xy"><g class="layer-subplot"><g class="shapelayer"/><g class="imagelayer"/></g><g class="minor-gridlayer"><g class="x"/><g class="y"/></g><g class="gridlayer"><g class="x"><path class="xgrid crisp" transform="translate(103.33,0)" d="M0,100v320" style="stroke: rgb(255, 255, 255); stroke-opacity: 1; stroke-width: 1px;"/><path class="xgrid crisp" transform="translate(203.32999999999998,0)" d="M0,100v320" style="stroke: rgb(255, 255, 255); stroke-opacity: 1; stroke-width: 1px;"/><path class="xgrid crisp" transform="translate(306.66999999999996,0)" d="M0,100v320" style="stroke: rgb(255, 255, 255); stroke-opacity: 1; stroke-width: 1px;"/><path class="xgrid crisp" transform="translate(406.67,0)" d="M0,100v320" style="stroke: rgb(255, 255, 255); stroke-opacity: 1; stroke-width: 1px;"/><path class="xgrid crisp" transform="translate(510,0)" d="M0,100v320" style="stroke: rgb(255, 255, 255); stroke-opacity: 1; stroke-width: 1px;"/><path class="xgrid crisp" transform="translate(613.33,0)" d="M0,100v320" style="stroke: rgb(255, 255, 255); stroke-opacity: 1; stroke-width: 1px;"/></g><g class="y"><path class="ygrid crisp" transform="translate(0,360.45)" d="M80,0h540" style="stroke: rgb(255, 255, 255); stroke-opacity: 1; stroke-width: 1px;"/><path class="ygrid crisp" transform="translate(0,300.9)" d="M80,0h540" style="stroke: rgb(255, 255, 255); stroke-opacity: 1; stroke-width: 1px;"/><path class="ygrid crisp" transform="translate(0,241.34)" d="M80,0h540" style="stroke: rgb(255, 255, 255); stroke-opacity: 1; stroke-width: 1px;"/><path class="ygrid crisp" transform="translate(0,181.79000000000002)" d="M80,0h540" style="stroke: rgb(255, 255, 255); stroke-opacity: 1; stroke-width: 1px;"/><path class="ygrid crisp" transform="translate(0,122.24)" d="M80,0h540" style="stroke: rgb(255, 255, 255); stroke-opacity: 1; stroke-width: 1px;"/></g></g><g class="zerolinelayer"><path class="yzl zl crisp" transform="translate(0,420)" d="M80,0h540" style="stroke: rgb(255, 255, 255); stroke-opacity: 1; stroke-width: 2px;"/></g><path class="xlines-below"/><path class="ylines-below"/><g class="overlines-below"/><g class="xaxislayer-below"/><g class="yaxislayer-below"/><g class="overaxes-below"/><g class="plot" transform="translate(80,100)" clip-path="url(#clipd50ea7xyplot)"><g class="scatterlayer mlayer"><g class="trace scatter trace3b1e80" style="stroke-miterlimit: 2;"><g class="fills"><g><path class="js-fill" d="M540,320L0,320L0,318.79L3.33,293.71L6.67,287.05L10,283.18L13.33,281.18L16.67,276.83L20,259.56L23.33,255.91L26.67,259.9L30,253.47L33.33,249.11L36.67,247.85L40,248.24L43.33,243.89L46.67,230.59L53.33,212.82L56.67,209.73L60,205.45L63.33,206.66L66.67,210.03L70,215.54L73.33,209.56L76.67,199.47L83.33,205.7L86.67,209.93L93.33,212.61L96.67,218.12L100,219.62L103.33,219.86L106.67,219.4L110,222.01L113.33,204.22L116.67,208.08L120,224.91L123.33,224.81L130,226.16L133.33,227.61L140,236.82L143.33,232.69L146.67,238.87L150,240.9L156.67,245.53L160,244.29L166.67,245.66L170,233.76L176.67,233.52L180,235.23L183.33,236.39L186.67,235.89L193.33,235.41L196.67,235.26L200,234.85L203.33,232.31L210,231.9L213.33,242.35L216.67,240.93L220,233.54L223.33,234.13L226.67,227.89L230,223.58L233.33,220.91L236.67,196.17L240,194.08L243.33,194.65L246.67,193.72L250,193.43L253.33,222.85L256.67,232.29L260,237.23L263.33,232.15L266.67,238.18L270,232.09L273.33,231.77L276.67,231.24L280,236.76L283.33,241.8L286.67,240.6L290,240.72L293.33,244.32L296.67,247.48L300,246.55L303.33,240.45L306.67,241.11L316.67,240.78L320,241.26L323.33,239.65L326.67,243.03L330,241.57L333.33,237.87L336.67,235.67L340,235.25L343.33,231.87L346.67,223.71L350,216.34L353.33,217.69L356.67,216.1L360,216.8L363.33,215.79L366.67,207.46L370,207.74L373.33,192.7L376.67,206.37L380,209.75L383.33,209.63L386.67,210.52L390,212.56L393.33,219.21L396.67,218.02L400,218.76L403.33,218.04L406.67,218.49L413.33,217.86L416.67,223.24L420,223.45L423.33,221.36L426.67,212.87L430,221.42L433.33,224L436.67,223.87L440,226.7L443.33,226.67L446.67,223.62L450,218.68L453.33,218.84L456.67,212.93L460,204.27L463.33,190.79L466.67,188.77L470,192.45L473.33,188.7L476.67,179.49L483.33,178.72L486.67,176.93L490,177.8L493.33,173.85L496.67,166.03L500,161.8L503.33,160.2L506.67,157.56L510,142.81L513.33,111.4L516.67,94.87L520,95.99L523.33,73.22L526.67,72.1L530,56.21L533.33,54.59L536.67,46.94L540,16" style="fill: rgb(99, 110, 250); fill-opacity: 0.5; stroke-width: 0;"/></g></g><g class="errorbars"/><g class="lines"><path class="js-line" d="M0,318.79L3.33,293.71L6.67,287.05L10,283.18L13.33,281.18L16.67,276.83L20,259.56L23.33,255.91L26.67,259.9L30,253.47L33.33,249.11L36.67,247.85L40,248.24L43.33,243.89L46.67,230.59L53.33,212.82L56.67,209.73L60,205.45L63.33,206.66L66.67,210.03L70,215.54L73.33,209.56L76.67,199.47L83.33,205.7L86.67,209.93L93.33,212.61L96.67,218.12L100,219.62L103.33,219.86L106.67,219.4L110,222.01L113.33,204.22L116.67,208.08L120,224.91L123.33,224.81L130,226.16L133.33,227.61L140,236.82L143.33,232.69L146.67,238.87L150,240.9L156.67,245.53L160,244.29L166.67,245.66L170,233.76L176.67,233.52L180,235.23L183.33,236.39L186.67,235.89L193.33,235.41L196.67,235.26L200,234.85L203.33,232.31L210,231.9L213.33,242.35L216.67,240.93L220,233.54L223.33,234.13L226.67,227.89L230,223.58L233.33,220.91L236.67,196.17L240,194.08L243.33,194.65L246.67,193.72L250,193.43L253.33,222.85L256.67,232.29L260,237.23L263.33,232.15L266.67,238.18L270,232.09L273.33,231.77L276.67,231.24L280,236.76L283.33,241.8L286.67,240.6L290,240.72L293.33,244.32L296.67,247.48L300,246.55L303.33,240.45L306.67,241.11L316.67,240.78L320,241.26L323.33,239.65L326.67,243.03L330,241.57L333.33,237.87L336.67,235.67L340,235.25L343.33,231.87L346.67,223.71L350,216.34L353.33,217.69L356.67,216.1L360,216.8L363.33,215.79L366.67,207.46L370,207.74L373.33,192.7L376.67,206.37L380,209.75L383.33,209.63L386.67,210.52L390,212.56L393.33,219.21L396.67,218.02L400,218.76L403.33,218.04L406.67,218.49L413.33,217.86L416.67,223.24L420,223.45L423.33,221.36L426.67,212.87L430,221.42L433.33,224L436.67,223.87L440,226.7L443.33,226.67L446.67,223.62L450,218.68L453.33,218.84L456.67,212.93L460,204.27L463.33,190.79L466.67,188.77L470,192.45L473.33,188.7L476.67,179.49L483.33,178.72L486.67,176.93L490,177.8L493.33,173.85L496.67,166.03L500,161.8L503.33,160.2L506.67,157.56L510,142.81L513.33,111.4L516.67,94.87L520,95.99L523.33,73.22L526.67,72.1L530,56.21L533.33,54.59L536.67,46.94L540,16" style="vector-effect: non-scaling-stroke; fill: none; stroke: rgb(99, 110, 250); stroke-opacity: 1; stroke-width: 2px; opacity: 1;"/></g><g class="points"/><g class="text"/></g></g></g><g class="overplot"/><path class="xlines-above crisp" d="M0,0" style="fill: none;"/><path class="ylines-above crisp" d="M0,0" style="fill: none;"/><g class="overlines-above"/><g class="xaxislayer-above"><g class="xtick"><text text-anchor="middle" x="0" y="433" transform="translate(103.33,0)" style="font-family: 'Open Sans', verdana, arial, sans-serif; font-size: 12px; fill: rgb(42, 63, 95); fill-opacity: 1; white-space: pre; opacity: 1;">Sep 2022</text></g><g class="xtick"><text text-anchor="middle" x="0" y="433" style="font-family: 'Open Sans', verdana, arial, sans-serif; font-size: 12px; fill: rgb(42, 63, 95); fill-opacity: 1; white-space: pre; opacity: 1;" transform="translate(203.32999999999998,0)">Oct 2022</text></g><g class="xtick"><text text-anchor="middle" x="0" y="433" style="font-family: 'Open Sans', verdana, arial, sans-serif; font-size: 12px; fill: rgb(42, 63, 95); fill-opacity: 1; white-space: pre; opacity: 1;" transform="translate(306.66999999999996,0)">Nov 2022</text></g><g class="xtick"><text text-anchor="middle" x="0" y="433" style="font-family: 'Open Sans', verdana, arial, sans-serif; font-size: 12px; fill: rgb(42, 63, 95); fill-opacity: 1; white-space: pre; opacity: 1;" transform="translate(406.67,0)">Dec 2022</text></g><g class="xtick"><text text-anchor="middle" x="0" y="433" style="font-family: 'Open Sans', verdana, arial, sans-serif; font-size: 12px; fill: rgb(42, 63, 95); fill-opacity: 1; white-space: pre; opacity: 1;" transform="translate(510,0)">Jan 2023</text></g><g class="xtick"><text text-anchor="middle" x="0" y="433" style="font-family: 'Open Sans', verdana, arial, sans-serif; font-size: 12px; fill: rgb(42, 63, 95); fill-opacity: 1; white-space: pre; opacity: 1;" transform="translate(613.33,0)">Feb 2023</text></g></g><g class="yaxislayer-above"><g class="ytick"><text text-anchor="end" x="79" y="4.199999999999999" transform="translate(0,420)" style="font-family: 'Open Sans', verdana, arial, sans-serif; font-size: 12px; fill: rgb(42, 63, 95); fill-opacity: 1; white-space: pre; opacity: 1;">$0</text></g><g class="ytick"><text text-anchor="end" x="79" y="4.199999999999999" style="font-family: 'Open Sans', verdana, arial, sans-serif; font-size: 12px; fill: rgb(42, 63, 95); fill-opacity: 1; white-space: pre; opacity: 1;" transform="translate(0,360.45)">$10M</text></g><g class="ytick"><text text-anchor="end" x="79" y="4.199999999999999" style="font-family: 'Open Sans', verdana, arial, sans-serif; font-size: 12px; fill: rgb(42, 63, 95); fill-opacity: 1; white-space: pre; opacity: 1;" transform="translate(0,300.9)">$20M</text></g><g class="ytick"><text text-anchor="end" x="79" y="4.199999999999999" style="font-family: 'Open Sans', verdana, arial, sans-serif; font-size: 12px; fill: rgb(42, 63, 95); fill-opacity: 1; white-space: pre; opacity: 1;" transform="translate(0,241.34)">$30M</text></g><g class="ytick"><text text-anchor="end" x="79" y="4.199999999999999" style="font-family: 'Open Sans', verdana, arial, sans-serif; font-size: 12px; fill: rgb(42, 63, 95); fill-opacity: 1; white-space: pre; opacity: 1;" transform="translate(0,181.79000000000002)">$40M</text></g><g class="ytick"><text text-anchor="end" x="79" y="4.199999999999999" style="font-family: 'Open Sans', verdana, arial, sans-serif; font-size: 12px; fill: rgb(42, 63, 95); fill-opacity: 1; white-space: pre; opacity: 1;" transform="translate(0,122.24)">$50M</text></g></g><g class="overaxes-above"/></g></g><g class="polarlayer"/><g class="smithlayer"/><g class="ternarylayer"/><g class="geolayer"/><g class="funnelarealayer"/><g class="pielayer"/><g class="iciclelayer"/><g class="treemaplayer"/><g class="sunburstlayer"/><g class="glimages"/><defs id="topdefs-d50ea7"><g class="clips"/></defs><g class="layer-above"><g class="imagelayer"/><g class="shapelayer"/></g><g class="infolayer"><g class="g-gtitle"><text class="gtitle" x="35" y="50" text-anchor="start" dy="0em" style="font-family: 'Open Sans', verdana, arial, sans-serif; font-size: 17px; fill: rgb(42, 63, 95); opacity: 1; font-weight: normal; white-space: pre;"><tspan class="line" dy="0em" x="35" y="50">Synthetix - All Synthetix Curve Pools</tspan><tspan class="line" dy="1.3em" x="35" y="50">​<tspan style="font-size:70%" dy="-0.6em">Cumulative Net Dollar Flow since Program Announcement, Until Program End + 30 Days - At Last Price</tspan><tspan dy="0.42em">​</tspan></tspan></text></g><g class="g-xtitle"><text class="xtitle" x="350" y="460.8" text-anchor="middle" style="font-family: 'Open Sans', verdana, arial, sans-serif; font-size: 14px; fill: rgb(42, 63, 95); opacity: 1; font-weight: normal; white-space: pre;">Day</text></g><g class="g-ytitle"><text class="ytitle" transform="rotate(-90,24.168750000000003,260)" x="24.168750000000003" y="260" text-anchor="middle" style="font-family: 'Open Sans', verdana, arial, sans-serif; font-size: 14px; fill: rgb(42, 63, 95); opacity: 1; font-weight: normal; white-space: pre;">Cumulative Net Dollar Flow (N$F)</text></g></g></svg>