<svg class="main-svg" xmlns="http://www.w3.org/2000/svg" xmlns:xlink="http://www.w3.org/1999/xlink" width="700" height="500" style="" viewBox="0 0 700 500"><rect x="0" y="0" width="700" height="500" style="fill: rgb(255, 255, 255); fill-opacity: 1;"/><defs id="defs-882b32"><g class="clips"><clipPath id="clip882b32xyplot" class="plotclip"><rect width="469" height="320"/></clipPath><clipPath class="axesclip" id="clip882b32x"><rect x="80" y="0" width="469" height="500"/></clipPath><clipPath class="axesclip" id="clip882b32y"><rect x="0" y="100" width="700" height="320"/></clipPath><clipPath class="axesclip" id="clip882b32xy"><rect x="80" y="100" width="469" height="320"/></clipPath></g><g class="gradients"/><g class="patterns"/></defs><g class="bglayer"><rect class="bg" x="80" y="100" width="469" height="320" style="fill: rgb(229, 236, 246); fill-opacity: 1; stroke-width: 0;"/></g><g class="layer-below"><g class="imagelayer"/><g class="shapelayer"/></g><g class="cartesianlayer"><g class="subplot xy"><g class="layer-subplot"><g class="shapelayer"/><g class="imagelayer"/></g><g class="minor-gridlayer"><g class="x"/><g class="y"/></g><g class="gridlayer"><g class="x"><path class="xgrid crisp" transform="translate(184.05,0)" d="M0,100v320" style="stroke: rgb(255, 255, 255); stroke-opacity: 1; stroke-width: 1px;"/><path class="xgrid crisp" transform="translate(295.53,0)" d="M0,100v320" style="stroke: rgb(255, 255, 255); stroke-opacity: 1; stroke-width: 1px;"/><path class="xgrid crisp" transform="translate(410.73,0)" d="M0,100v320" style="stroke: rgb(255, 255, 255); stroke-opacity: 1; stroke-width: 1px;"/><path class="xgrid crisp" transform="translate(522.21,0)" d="M0,100v320" style="stroke: rgb(255, 255, 255); stroke-opacity: 1; stroke-width: 1px;"/></g><g class="y"><path class="ygrid crisp" transform="translate(0,364.65)" d="M80,0h469" style="stroke: rgb(255, 255, 255); stroke-opacity: 1; stroke-width: 1px;"/><path class="ygrid crisp" transform="translate(0,309.3)" d="M80,0h469" style="stroke: rgb(255, 255, 255); stroke-opacity: 1; stroke-width: 1px;"/><path class="ygrid crisp" transform="translate(0,253.95)" d="M80,0h469" style="stroke: rgb(255, 255, 255); stroke-opacity: 1; stroke-width: 1px;"/><path class="ygrid crisp" transform="translate(0,198.6)" d="M80,0h469" style="stroke: rgb(255, 255, 255); stroke-opacity: 1; stroke-width: 1px;"/><path class="ygrid crisp" transform="translate(0,143.25)" d="M80,0h469" style="stroke: rgb(255, 255, 255); stroke-opacity: 1; stroke-width: 1px;"/></g></g><g class="zerolinelayer"><path class="yzl zl crisp" transform="translate(0,420)" d="M80,0h469" style="stroke: rgb(255, 255, 255); stroke-opacity: 1; stroke-width: 2px;"/></g><path class="xlines-below"/><path class="ylines-below"/><g class="overlines-below"/><g class="xaxislayer-below"/><g class="yaxislayer-below"/><g class="overaxes-below"/><g class="plot" transform="translate(80,100)" clip-path="url(#clip882b32xyplot)"><g class="scatterlayer mlayer"><g class="trace scatter trace10f398" style="stroke-miterlimit: 2;"><g class="fills"><g><path class="js-fill" d="M341.88,320L0,320L0,319.5L3.72,185.88L7.43,94.72L11.15,58.96L14.86,37.14L18.58,40.59L22.3,32.53L26.01,16.5L29.73,16L33.44,16.74L37.16,36.42L40.88,44.55L44.59,44.46L52.03,52.48L55.74,112.23L63.17,114.51L66.89,113.65L70.61,121.79L74.32,116.88L78.04,114.76L81.75,107.37L85.47,108.62L89.19,104.94L92.9,109.03L96.62,110.97L100.33,97.94L104.05,95.66L107.77,95.12L111.48,95.75L115.2,96.94L118.91,96.7L126.35,117.89L130.06,119.14L133.78,126.57L137.5,118.75L144.93,117.12L148.64,114.38L152.36,114.81L156.08,121.93L159.79,115.59L163.51,111.39L167.22,109.05L170.94,109.71L174.66,105.93L178.37,105.5L182.09,104.4L185.8,101.99L189.52,101.8L193.24,100.15L196.95,103.9L200.67,102.27L204.38,100.25L208.1,86.6L211.82,80.76L215.53,81.8L219.25,81.74L222.96,80.38L226.68,75.95L230.4,74.53L234.11,76.84L237.83,77.63L241.55,78.65L245.26,75.49L248.98,79.34L252.69,81.45L256.41,81.84L260.13,84.72L263.84,86.15L267.56,83.36L271.27,83.62L274.99,84.95L278.71,106.32L282.42,103.1L286.14,99.88L289.85,99.45L297.29,98.73L301,100.69L304.72,100.46L308.43,101.1L312.15,100.98L315.87,85.43L319.58,85.32L323.3,79.12L327.02,82.14L330.73,101.36L334.45,110.06L338.16,139.62L341.88,173.52" style="fill: rgb(99, 110, 250); fill-opacity: 0.5; stroke-width: 0;"/></g></g><g class="errorbars"/><g class="lines"><path class="js-line" d="M0,319.5L3.72,185.88L7.43,94.72L11.15,58.96L14.86,37.14L18.58,40.59L22.3,32.53L26.01,16.5L29.73,16L33.44,16.74L37.16,36.42L40.88,44.55L44.59,44.46L52.03,52.48L55.74,112.23L63.17,114.51L66.89,113.65L70.61,121.79L74.32,116.88L78.04,114.76L81.75,107.37L85.47,108.62L89.19,104.94L92.9,109.03L96.62,110.97L100.33,97.94L104.05,95.66L107.77,95.12L111.48,95.75L115.2,96.94L118.91,96.7L126.35,117.89L130.06,119.14L133.78,126.57L137.5,118.75L144.93,117.12L148.64,114.38L152.36,114.81L156.08,121.93L159.79,115.59L163.51,111.39L167.22,109.05L170.94,109.71L174.66,105.93L178.37,105.5L182.09,104.4L185.8,101.99L189.52,101.8L193.24,100.15L196.95,103.9L200.67,102.27L204.38,100.25L208.1,86.6L211.82,80.76L215.53,81.8L219.25,81.74L222.96,80.38L226.68,75.95L230.4,74.53L234.11,76.84L237.83,77.63L241.55,78.65L245.26,75.49L248.98,79.34L252.69,81.45L256.41,81.84L260.13,84.72L263.84,86.15L267.56,83.36L271.27,83.62L274.99,84.95L278.71,106.32L282.42,103.1L286.14,99.88L289.85,99.45L297.29,98.73L301,100.69L304.72,100.46L308.43,101.1L312.15,100.98L315.87,85.43L319.58,85.32L323.3,79.12L327.02,82.14L330.73,101.36L334.45,110.06L338.16,139.62L341.88,173.52" style="vector-effect: non-scaling-stroke; fill: none; stroke: rgb(99, 110, 250); stroke-opacity: 1; stroke-width: 2px; opacity: 1;"/></g><g class="points"/><g class="text"/></g><g class="trace scatter trace0e0cd5" style="stroke-miterlimit: 2;"><g class="fills"><g><path class="js-fill" d="M469,320L345.6,320L345.6,182.4L353.03,192.68L356.74,189.21L364.18,212.06L367.89,220.22L375.32,221.51L379.04,221.79L382.76,250.34L386.47,251.75L390.19,254.16L393.9,260.24L401.34,260.38L405.05,259.63L408.77,260.07L412.49,261.94L419.92,263.91L423.63,273.64L427.35,274.1L431.07,276.6L434.78,276.75L438.5,277.81L442.21,277.68L445.93,276.67L453.36,277.2L457.08,276.62L460.79,276.7L464.51,275.37L469,274.72" style="fill: rgb(239, 85, 59); fill-opacity: 0.5; stroke-width: 0;"/></g></g><g class="errorbars"/><g class="lines"><path class="js-line" d="M345.6,182.4L353.03,192.68L356.74,189.21L364.18,212.06L367.89,220.22L375.32,221.51L379.04,221.79L382.76,250.34L386.47,251.75L390.19,254.16L393.9,260.24L401.34,260.38L405.05,259.63L408.77,260.07L412.49,261.94L419.92,263.91L423.63,273.64L427.35,274.1L431.07,276.6L434.78,276.75L438.5,277.81L442.21,277.68L445.93,276.67L453.36,277.2L457.08,276.62L460.79,276.7L464.51,275.37L469,274.72" style="vector-effect: non-scaling-stroke; fill: none; stroke: rgb(239, 85, 59); stroke-opacity: 1; stroke-width: 2px; opacity: 1;"/></g><g class="points"/><g class="text"/></g></g></g><g class="overplot"/><path class="xlines-above crisp" d="M0,0" style="fill: none;"/><path class="ylines-above crisp" d="M0,0" style="fill: none;"/><g class="overlines-above"/><g class="xaxislayer-above"><g class="xtick"><text text-anchor="middle" x="0" y="433" transform="translate(184.05,0)" style="font-family: 'Open Sans', verdana, arial, sans-serif; font-size: 12px; fill: rgb(42, 63, 95); fill-opacity: 1; white-space: pre; opacity: 1;">Sep 2022</text></g><g class="xtick"><text text-anchor="middle" x="0" y="433" style="font-family: 'Open Sans', verdana, arial, sans-serif; font-size: 12px; fill: rgb(42, 63, 95); fill-opacity: 1; white-space: pre; opacity: 1;" transform="translate(295.53,0)">Oct 2022</text></g><g class="xtick"><text text-anchor="middle" x="0" y="433" style="font-family: 'Open Sans', verdana, arial, sans-serif; font-size: 12px; fill: rgb(42, 63, 95); fill-opacity: 1; white-space: pre; opacity: 1;" transform="translate(410.73,0)">Nov 2022</text></g><g class="xtick"><text text-anchor="middle" x="0" y="433" style="font-family: 'Open Sans', verdana, arial, sans-serif; font-size: 12px; fill: rgb(42, 63, 95); fill-opacity: 1; white-space: pre; opacity: 1;" transform="translate(522.21,0)">Dec 2022</text></g></g><g class="yaxislayer-above"><g class="ytick"><text text-anchor="end" x="79" y="4.199999999999999" transform="translate(0,420)" style="font-family: 'Open Sans', verdana, arial, sans-serif; font-size: 12px; fill: rgb(42, 63, 95); fill-opacity: 1; white-space: pre; opacity: 1;">$0</text></g><g class="ytick"><text text-anchor="end" x="79" y="4.199999999999999" style="font-family: 'Open Sans', verdana, arial, sans-serif; font-size: 12px; fill: rgb(42, 63, 95); fill-opacity: 1; white-space: pre; opacity: 1;" transform="translate(0,364.65)">$100M</text></g><g class="ytick"><text text-anchor="end" x="79" y="4.199999999999999" style="font-family: 'Open Sans', verdana, arial, sans-serif; font-size: 12px; fill: rgb(42, 63, 95); fill-opacity: 1; white-space: pre; opacity: 1;" transform="translate(0,309.3)">$200M</text></g><g class="ytick"><text text-anchor="end" x="79" y="4.199999999999999" style="font-family: 'Open Sans', verdana, arial, sans-serif; font-size: 12px; fill: rgb(42, 63, 95); fill-opacity: 1; white-space: pre; opacity: 1;" transform="translate(0,253.95)">$300M</text></g><g class="ytick"><text text-anchor="end" x="79" y="4.199999999999999" style="font-family: 'Open Sans', verdana, arial, sans-serif; font-size: 12px; fill: rgb(42, 63, 95); fill-opacity: 1; white-space: pre; opacity: 1;" transform="translate(0,198.6)">$400M</text></g><g class="ytick"><text text-anchor="end" x="79" y="4.199999999999999" style="font-family: 'Open Sans', verdana, arial, sans-serif; font-size: 12px; fill: rgb(42, 63, 95); fill-opacity: 1; white-space: pre; opacity: 1;" transform="translate(0,143.25)">$500M</text></g></g><g class="overaxes-above"/></g></g><g class="polarlayer"/><g class="smithlayer"/><g class="ternarylayer"/><g class="geolayer"/><g class="funnelarealayer"/><g class="pielayer"/><g class="iciclelayer"/><g class="treemaplayer"/><g class="sunburstlayer"/><g class="glimages"/><defs id="topdefs-882b32"><g class="clips"/><clipPath id="legend882b32"><rect width="130" height="67" x="0" y="0"/></clipPath></defs><g class="layer-above"><g class="imagelayer"/><g class="shapelayer"/></g><g class="infolayer"><g class="legend" pointer-events="all" transform="translate(558.38,100)"><rect class="bg" shape-rendering="crispEdges" width="130" height="67" x="0" y="0" style="stroke: rgb(68, 68, 68); stroke-opacity: 1; fill: rgb(255, 255, 255); fill-opacity: 1; stroke-width: 0px;"/><g class="scrollbox" transform="" clip-path="url(#legend882b32)"><text class="legendtitletext" text-anchor="start" x="2" y="18.2" style="font-family: 'Open Sans', verdana, arial, sans-serif; font-size: 14px; fill: rgb(42, 63, 95); fill-opacity: 1; white-space: pre;">Period</text><g class="groups"><g class="traces" transform="translate(0,32.7)" style="opacity: 1;"><text class="legendtext" text-anchor="start" x="40" y="4.680000000000001" style="font-family: 'Open Sans', verdana, arial, sans-serif; font-size: 12px; fill: rgb(42, 63, 95); fill-opacity: 1; white-space: pre;">During Program</text><g class="layers"><g class="legendfill"><path class="js-fill" d="M5,-2h30v6h-30z" style="stroke-width: 0; fill: rgb(99, 110, 250); fill-opacity: 0.5;"/></g><g class="legendlines"><path class="js-line" d="M5,-2h30" style="fill: none; stroke: rgb(99, 110, 250); stroke-opacity: 1; stroke-width: 2px;"/></g><g class="legendsymbols"><g class="legendpoints"/></g></g><rect class="legendtoggle" x="0" y="-9.5" width="124.703125" height="19" style="fill: rgb(0, 0, 0); fill-opacity: 0;"/></g><g class="traces" transform="translate(0,51.7)" style="opacity: 1;"><text class="legendtext" text-anchor="start" x="40" y="4.680000000000001" style="font-family: 'Open Sans', verdana, arial, sans-serif; font-size: 12px; fill: rgb(42, 63, 95); fill-opacity: 1; white-space: pre;">Post-Program</text><g class="layers"><g class="legendfill"><path class="js-fill" d="M5,-2h30v6h-30z" style="stroke-width: 0; fill: rgb(239, 85, 59); fill-opacity: 0.5;"/></g><g class="legendlines"><path class="js-line" d="M5,-2h30" style="fill: none; stroke: rgb(239, 85, 59); stroke-opacity: 1; stroke-width: 2px;"/></g><g class="legendsymbols"><g class="legendpoints"/></g></g><rect class="legendtoggle" x="0" y="-9.5" width="124.703125" height="19" style="fill: rgb(0, 0, 0); fill-opacity: 0;"/></g></g></g><rect class="scrollbar" rx="20" ry="3" width="0" height="0" x="0" y="0" style="fill: rgb(128, 139, 164); fill-opacity: 1;"/></g><g class="g-gtitle"><text class="gtitle" x="35" y="50" text-anchor="start" dy="0em" style="font-family: 'Open Sans', verdana, arial, sans-serif; font-size: 17px; fill: rgb(42, 63, 95); opacity: 1; font-weight: normal; white-space: pre;">Aave V3 - Aave - Liquidity Mining: Cumulative Net Dollar Flow since Program Announcement - At Last Price</text></g><g class="g-xtitle"><text class="xtitle" x="314.5" y="460.8" text-anchor="middle" style="font-family: 'Open Sans', verdana, arial, sans-serif; font-size: 14px; fill: rgb(42, 63, 95); opacity: 1; font-weight: normal; white-space: pre;">Day</text></g><g class="g-ytitle"><text class="ytitle" transform="rotate(-90,17.496875000000003,260)" x="17.496875000000003" y="260" text-anchor="middle" style="font-family: 'Open Sans', verdana, arial, sans-serif; font-size: 14px; fill: rgb(42, 63, 95); opacity: 1; font-weight: normal; white-space: pre;">Cumulative Net Dollar Flow (N$F)</text></g></g></svg>