<svg class="main-svg" xmlns="http://www.w3.org/2000/svg" xmlns:xlink="http://www.w3.org/1999/xlink" width="700" height="500" style="" viewBox="0 0 700 500"><rect x="0" y="0" width="700" height="500" style="fill: rgb(255, 255, 255); fill-opacity: 1;"/><defs id="defs-14f35a"><g class="clips"><clipPath id="clip14f35axyplot" class="plotclip"><rect width="540" height="320"/></clipPath><clipPath class="axesclip" id="clip14f35ax"><rect x="80" y="0" width="540" height="500"/></clipPath><clipPath class="axesclip" id="clip14f35ay"><rect x="0" y="100" width="700" height="320"/></clipPath><clipPath class="axesclip" id="clip14f35axy"><rect x="80" y="100" width="540" height="320"/></clipPath></g><g class="gradients"/><g class="patterns"/></defs><g class="bglayer"><rect class="bg" x="80" y="100" width="540" height="320" style="fill: rgb(229, 236, 246); fill-opacity: 1; stroke-width: 0;"/></g><g class="layer-below"><g class="imagelayer"/><g class="shapelayer"/></g><g class="cartesianlayer"><g class="subplot xy"><g class="layer-subplot"><g class="shapelayer"/><g class="imagelayer"/></g><g class="minor-gridlayer"><g class="x"/><g class="y"/></g><g class="gridlayer"><g class="x"><path class="xgrid crisp" transform="translate(118.27000000000001,0)" d="M0,100v320" style="stroke: rgb(255, 255, 255); stroke-opacity: 1; stroke-width: 1px;"/><path class="xgrid crisp" transform="translate(250.08,0)" d="M0,100v320" style="stroke: rgb(255, 255, 255); stroke-opacity: 1; stroke-width: 1px;"/><path class="xgrid crisp" transform="translate(377.64,0)" d="M0,100v320" style="stroke: rgb(255, 255, 255); stroke-opacity: 1; stroke-width: 1px;"/><path class="xgrid crisp" transform="translate(509.45,0)" d="M0,100v320" style="stroke: rgb(255, 255, 255); stroke-opacity: 1; stroke-width: 1px;"/></g><g class="y"><path class="ygrid crisp" transform="translate(0,418.89)" d="M80,0h540" style="stroke: rgb(255, 255, 255); stroke-opacity: 1; stroke-width: 1px;"/><path class="ygrid crisp" transform="translate(0,367.64)" d="M80,0h540" style="stroke: rgb(255, 255, 255); stroke-opacity: 1; stroke-width: 1px;"/><path class="ygrid crisp" transform="translate(0,265.14)" d="M80,0h540" style="stroke: rgb(255, 255, 255); stroke-opacity: 1; stroke-width: 1px;"/><path class="ygrid crisp" transform="translate(0,213.89)" d="M80,0h540" style="stroke: rgb(255, 255, 255); stroke-opacity: 1; stroke-width: 1px;"/><path class="ygrid crisp" transform="translate(0,162.64)" d="M80,0h540" style="stroke: rgb(255, 255, 255); stroke-opacity: 1; stroke-width: 1px;"/><path class="ygrid crisp" transform="translate(0,111.39)" d="M80,0h540" style="stroke: rgb(255, 255, 255); stroke-opacity: 1; stroke-width: 1px;"/></g></g><g class="zerolinelayer"><path class="yzl zl crisp" transform="translate(0,316.39)" d="M80,0h540" style="stroke: rgb(255, 255, 255); stroke-opacity: 1; stroke-width: 2px;"/></g><path class="xlines-below"/><path class="ylines-below"/><g class="overlines-below"/><g class="xaxislayer-below"/><g class="yaxislayer-below"/><g class="overaxes-below"/><g class="plot" transform="translate(80,100)" clip-path="url(#clip14f35axyplot)"><g class="scatterlayer mlayer"><g class="trace scatter tracef93049" style="stroke-miterlimit: 2;"><g class="fills"><g><path class="js-fill" d="M540,216.39L0,216.39L0,211.72L4.25,205.32L8.5,206.65L12.76,205.02L17.01,213.36L21.26,207.48L25.51,205.87L29.76,205.96L34.02,200.55L38.27,211.79L42.52,202.58L46.77,196.4L51.02,197.67L55.28,201.18L59.53,195.72L63.78,196.05L68.03,191.94L72.28,192.04L76.54,195.39L80.79,193.28L85.04,193.67L89.29,198.2L93.54,195.63L97.8,195.3L102.05,197.53L106.3,197.45L110.55,195.1L114.8,191.85L119.06,190.95L123.31,186.43L127.56,187.18L131.81,185.92L136.06,187.85L140.31,188.91L144.57,180.1L148.82,139.96L153.07,67.53L157.32,50.98L161.57,49.82L170.08,33.13L174.33,35.48L178.58,16L182.83,17.95L187.09,19.3L191.34,25.03L195.59,27.31L199.84,21.32L204.09,38.04L208.35,59.81L212.6,53.16L216.85,56.87L221.1,58.46L225.35,61.74L229.61,61.55L233.86,57.38L238.11,55.92L242.36,57.55L246.61,57.36L250.87,63.95L255.12,56.35L259.37,53.62L263.62,53.78L267.87,55.82L272.13,54.11L276.38,53.69L280.63,59.41L284.88,68.12L289.13,61.75L293.39,37.07L297.64,34.95L301.89,37.51L306.14,45.2L310.39,46.53L314.65,49.07L318.9,45.27L327.4,46.02L331.65,46.43L335.91,53.55L340.16,52.78L348.66,53.41L352.91,45.21L357.17,47.64L361.42,39.86L365.67,40.4L369.92,24.75L374.17,31.05L378.43,29.25L382.68,41.9L386.93,37.31L391.18,45.7L395.43,43.96L403.94,46.85L408.19,45.34L412.44,52.17L416.69,54.26L420.94,55.05L425.2,55.03L429.45,55.84L433.7,52.93L437.95,51.28L442.2,43.47L446.46,55.14L450.71,61.24L454.96,65.14L459.21,66.06L463.46,63.08L467.72,61.54L471.97,71.93L476.22,75.75L480.47,73.68L484.72,80.04L488.98,80.13L493.23,94.84L497.48,106.59L501.73,128.24L505.98,130.49L510.24,127.25L514.49,129.53L518.74,121.84L522.99,125.23L527.24,121.25L531.5,126.45L535.75,119.48L540,117.28L540,304" style="fill: rgb(99, 110, 250); fill-opacity: 0.5; stroke-width: 0;"/></g></g><g class="errorbars"/><g class="lines"><path class="js-line" d="M0,211.72L4.25,205.32L8.5,206.65L12.76,205.02L17.01,213.36L21.26,207.48L25.51,205.87L29.76,205.96L34.02,200.55L38.27,211.79L42.52,202.58L46.77,196.4L51.02,197.67L55.28,201.18L59.53,195.72L63.78,196.05L68.03,191.94L72.28,192.04L76.54,195.39L80.79,193.28L85.04,193.67L89.29,198.2L93.54,195.63L97.8,195.3L102.05,197.53L106.3,197.45L110.55,195.1L114.8,191.85L119.06,190.95L123.31,186.43L127.56,187.18L131.81,185.92L136.06,187.85L140.31,188.91L144.57,180.1L148.82,139.96L153.07,67.53L157.32,50.98L161.57,49.82L170.08,33.13L174.33,35.48L178.58,16L182.83,17.95L187.09,19.3L191.34,25.03L195.59,27.31L199.84,21.32L204.09,38.04L208.35,59.81L212.6,53.16L216.85,56.87L221.1,58.46L225.35,61.74L229.61,61.55L233.86,57.38L238.11,55.92L242.36,57.55L246.61,57.36L250.87,63.95L255.12,56.35L259.37,53.62L263.62,53.78L267.87,55.82L272.13,54.11L276.38,53.69L280.63,59.41L284.88,68.12L289.13,61.75L293.39,37.07L297.64,34.95L301.89,37.51L306.14,45.2L310.39,46.53L314.65,49.07L318.9,45.27L327.4,46.02L331.65,46.43L335.91,53.55L340.16,52.78L348.66,53.41L352.91,45.21L357.17,47.64L361.42,39.86L365.67,40.4L369.92,24.75L374.17,31.05L378.43,29.25L382.68,41.9L386.93,37.31L391.18,45.7L395.43,43.96L403.94,46.85L408.19,45.34L412.44,52.17L416.69,54.26L420.94,55.05L425.2,55.03L429.45,55.84L433.7,52.93L437.95,51.28L442.2,43.47L446.46,55.14L450.71,61.24L454.96,65.14L459.21,66.06L463.46,63.08L467.72,61.54L471.97,71.93L476.22,75.75L480.47,73.68L484.72,80.04L488.98,80.13L493.23,94.84L497.48,106.59L501.73,128.24L505.98,130.49L510.24,127.25L514.49,129.53L518.74,121.84L522.99,125.23L527.24,121.25L531.5,126.45L535.75,119.48L540,117.28L540,304" style="vector-effect: non-scaling-stroke; fill: none; stroke: rgb(99, 110, 250); stroke-opacity: 1; stroke-width: 2px; opacity: 1;"/></g><g class="points"/><g class="text"/></g></g></g><g class="overplot"/><path class="xlines-above crisp" d="M0,0" style="fill: none;"/><path class="ylines-above crisp" d="M0,0" style="fill: none;"/><g class="overlines-above"/><g class="xaxislayer-above"><g class="xtick"><text text-anchor="middle" x="0" y="433" transform="translate(118.27000000000001,0)" style="font-family: 'Open Sans', verdana, arial, sans-serif; font-size: 12px; fill: rgb(42, 63, 95); fill-opacity: 1; white-space: pre; opacity: 1;">Oct 2022</text></g><g class="xtick"><text text-anchor="middle" x="0" y="433" style="font-family: 'Open Sans', verdana, arial, sans-serif; font-size: 12px; fill: rgb(42, 63, 95); fill-opacity: 1; white-space: pre; opacity: 1;" transform="translate(250.08,0)">Nov 2022</text></g><g class="xtick"><text text-anchor="middle" x="0" y="433" style="font-family: 'Open Sans', verdana, arial, sans-serif; font-size: 12px; fill: rgb(42, 63, 95); fill-opacity: 1; white-space: pre; opacity: 1;" transform="translate(377.64,0)">Dec 2022</text></g><g class="xtick"><text text-anchor="middle" x="0" y="433" style="font-family: 'Open Sans', verdana, arial, sans-serif; font-size: 12px; fill: rgb(42, 63, 95); fill-opacity: 1; white-space: pre; opacity: 1;" transform="translate(509.45,0)">Jan 2023</text></g></g><g class="yaxislayer-above"><g class="ytick"><text text-anchor="end" x="79" y="4.199999999999999" transform="translate(0,418.89)" style="font-family: 'Open Sans', verdana, arial, sans-serif; font-size: 12px; fill: rgb(42, 63, 95); fill-opacity: 1; white-space: pre; opacity: 1;">$−4M</text></g><g class="ytick"><text text-anchor="end" x="79" y="4.199999999999999" style="font-family: 'Open Sans', verdana, arial, sans-serif; font-size: 12px; fill: rgb(42, 63, 95); fill-opacity: 1; white-space: pre; opacity: 1;" transform="translate(0,367.64)">$−2M</text></g><g class="ytick"><text text-anchor="end" x="79" y="4.199999999999999" style="font-family: 'Open Sans', verdana, arial, sans-serif; font-size: 12px; fill: rgb(42, 63, 95); fill-opacity: 1; white-space: pre; opacity: 1;" transform="translate(0,316.39)">$0</text></g><g class="ytick"><text text-anchor="end" x="79" y="4.199999999999999" style="font-family: 'Open Sans', verdana, arial, sans-serif; font-size: 12px; fill: rgb(42, 63, 95); fill-opacity: 1; white-space: pre; opacity: 1;" transform="translate(0,265.14)">$2M</text></g><g class="ytick"><text text-anchor="end" x="79" y="4.199999999999999" style="font-family: 'Open Sans', verdana, arial, sans-serif; font-size: 12px; fill: rgb(42, 63, 95); fill-opacity: 1; white-space: pre; opacity: 1;" transform="translate(0,213.89)">$4M</text></g><g class="ytick"><text text-anchor="end" x="79" y="4.199999999999999" style="font-family: 'Open Sans', verdana, arial, sans-serif; font-size: 12px; fill: rgb(42, 63, 95); fill-opacity: 1; white-space: pre; opacity: 1;" transform="translate(0,162.64)">$6M</text></g><g class="ytick"><text text-anchor="end" x="79" y="4.199999999999999" style="font-family: 'Open Sans', verdana, arial, sans-serif; font-size: 12px; fill: rgb(42, 63, 95); fill-opacity: 1; white-space: pre; opacity: 1;" transform="translate(0,111.39)">$8M</text></g></g><g class="overaxes-above"/></g></g><g class="polarlayer"/><g class="smithlayer"/><g class="ternarylayer"/><g class="geolayer"/><g class="funnelarealayer"/><g class="pielayer"/><g class="iciclelayer"/><g class="treemaplayer"/><g class="sunburstlayer"/><g class="glimages"/><defs id="topdefs-14f35a"><g class="clips"/></defs><g class="layer-above"><g class="imagelayer"/><g class="shapelayer"/></g><g class="infolayer"><g class="g-gtitle"><text class="gtitle" x="35" y="50" text-anchor="start" dy="0em" style="font-family: 'Open Sans', verdana, arial, sans-serif; font-size: 17px; fill: rgb(42, 63, 95); opacity: 1; font-weight: normal; white-space: pre;"><tspan class="line" dy="0em" x="35" y="50">Hop Protocol</tspan><tspan class="line" dy="1.3em" x="35" y="50">​<tspan style="font-size:70%" dy="-0.6em">Cumulative Net Dollar Flow since Program Announcement, Until Program End + 30 Days - At Last Price</tspan><tspan dy="0.42em">​</tspan></tspan></text></g><g class="g-xtitle"><text class="xtitle" x="350" y="460.8" text-anchor="middle" style="font-family: 'Open Sans', verdana, arial, sans-serif; font-size: 14px; fill: rgb(42, 63, 95); opacity: 1; font-weight: normal; white-space: pre;">Day</text></g><g class="g-ytitle"><text class="ytitle" transform="rotate(-90,23.840625000000003,260)" x="23.840625000000003" y="260" text-anchor="middle" style="font-family: 'Open Sans', verdana, arial, sans-serif; font-size: 14px; fill: rgb(42, 63, 95); opacity: 1; font-weight: normal; white-space: pre;">Cumulative Net Dollar Flow (N$F)</text></g></g></svg>