<svg class="main-svg" xmlns="http://www.w3.org/2000/svg" xmlns:xlink="http://www.w3.org/1999/xlink" width="700" height="500" style="" viewBox="0 0 700 500"><rect x="0" y="0" width="700" height="500" style="fill: rgb(255, 255, 255); fill-opacity: 1;"/><defs id="defs-cda139"><g class="clips"><clipPath id="clipcda139xyplot" class="plotclip"><rect width="540" height="320"/></clipPath><clipPath class="axesclip" id="clipcda139x"><rect x="80" y="0" width="540" height="500"/></clipPath><clipPath class="axesclip" id="clipcda139y"><rect x="0" y="100" width="700" height="320"/></clipPath><clipPath class="axesclip" id="clipcda139xy"><rect x="80" y="100" width="540" height="320"/></clipPath></g><g class="gradients"/><g class="patterns"/></defs><g class="bglayer"><rect class="bg" x="80" y="100" width="540" height="320" style="fill: rgb(229, 236, 246); fill-opacity: 1; stroke-width: 0;"/></g><g class="layer-below"><g class="imagelayer"/><g class="shapelayer"/></g><g class="cartesianlayer"><g class="subplot xy"><g class="layer-subplot"><g class="shapelayer"/><g class="imagelayer"/></g><g class="minor-gridlayer"><g class="x"/><g class="y"/></g><g class="gridlayer"><g class="x"><path class="xgrid crisp" transform="translate(178.18,0)" d="M0,100v320" style="stroke: rgb(255, 255, 255); stroke-opacity: 1; stroke-width: 1px;"/><path class="xgrid crisp" transform="translate(316.53,0)" d="M0,100v320" style="stroke: rgb(255, 255, 255); stroke-opacity: 1; stroke-width: 1px;"/><path class="xgrid crisp" transform="translate(450.41,0)" d="M0,100v320" style="stroke: rgb(255, 255, 255); stroke-opacity: 1; stroke-width: 1px;"/><path class="xgrid crisp" transform="translate(588.76,0)" d="M0,100v320" style="stroke: rgb(255, 255, 255); stroke-opacity: 1; stroke-width: 1px;"/></g><g class="y"><path class="ygrid crisp" transform="translate(0,298.07)" d="M80,0h540" style="stroke: rgb(255, 255, 255); stroke-opacity: 1; stroke-width: 1px;"/><path class="ygrid crisp" transform="translate(0,236.95)" d="M80,0h540" style="stroke: rgb(255, 255, 255); stroke-opacity: 1; stroke-width: 1px;"/><path class="ygrid crisp" transform="translate(0,175.84)" d="M80,0h540" style="stroke: rgb(255, 255, 255); stroke-opacity: 1; stroke-width: 1px;"/><path class="ygrid crisp" transform="translate(0,114.73)" d="M80,0h540" style="stroke: rgb(255, 255, 255); stroke-opacity: 1; stroke-width: 1px;"/></g></g><g class="zerolinelayer"><path class="yzl zl crisp" transform="translate(0,359.18)" d="M80,0h540" style="stroke: rgb(255, 255, 255); stroke-opacity: 1; stroke-width: 2px;"/></g><path class="xlines-below"/><path class="ylines-below"/><g class="overlines-below"/><g class="xaxislayer-below"/><g class="yaxislayer-below"/><g class="overaxes-below"/><g class="plot" transform="translate(80,100)" clip-path="url(#clipcda139xyplot)"><g class="scatterlayer mlayer"><g class="trace scatter trace8956be" style="stroke-miterlimit: 2;"><g class="fills"><g><path class="js-fill" d="M540,259.18L0,259.18L0,241.43L4.46,214.74L8.93,218.17L13.39,200.91L17.85,178.6L22.31,181.35L26.78,179.78L31.24,188.95L35.7,137.43L44.63,128.17L49.09,118.35L53.55,121.55L58.02,128.32L62.48,114.65L66.94,112.86L71.4,110.6L75.87,99.76L80.33,101.07L84.79,89.94L89.26,90.53L93.72,77.9L98.18,64.83L102.64,45.34L107.11,52.65L111.57,38.01L120.5,18.49L124.96,16L133.88,39.07L138.35,31.03L142.81,33.09L147.27,43.55L151.74,67.27L156.2,74.81L160.66,84L165.12,84.77L169.59,82.74L174.05,79.36L178.51,81.88L182.98,105.76L187.44,100.96L191.9,105.93L196.36,104.69L200.83,107.83L205.29,108.47L209.75,98.63L214.21,92.74L218.68,93.13L223.14,90.86L227.6,85.39L232.07,89.07L236.53,83.05L240.99,70.6L245.45,68.43L249.92,63.74L254.38,56.05L258.84,51.33L263.31,61L267.77,71.44L272.23,93.51L276.69,112.97L281.16,105.69L285.62,103.11L290.08,111.88L299.01,110.01L303.47,107.17L307.93,107.14L312.4,105.7L316.86,105.16L321.32,89.31L330.25,107.65L334.71,114.91L339.17,111.49L343.64,111.2L348.1,112.29L352.56,112.42L361.49,118.16L365.95,111.8L370.41,101.16L374.88,105.3L379.34,89.49L383.8,91.58L388.26,90.25L392.73,92.51L397.19,88.86L401.65,98.46L406.12,96.23L410.58,100.5L419.5,105.66L423.97,104.35L428.43,100.55L432.89,100.83L437.36,103.65L441.82,111.04L446.28,115.03L450.74,114.66L455.21,118.05L459.67,114.42L464.13,113.39L468.6,114.69L473.06,114.37L477.52,107.59L481.98,108.21L486.45,114.7L490.91,106.01L495.37,107.24L499.83,104.64L504.3,105.86L508.76,101.15L513.22,100.7L517.69,99.17L522.15,99.33L526.61,93.59L531.07,95.08L535.54,91.97L540,92.68L540,304" style="fill: rgb(99, 110, 250); fill-opacity: 0.5; stroke-width: 0;"/></g></g><g class="errorbars"/><g class="lines"><path class="js-line" d="M0,241.43L4.46,214.74L8.93,218.17L13.39,200.91L17.85,178.6L22.31,181.35L26.78,179.78L31.24,188.95L35.7,137.43L44.63,128.17L49.09,118.35L53.55,121.55L58.02,128.32L62.48,114.65L66.94,112.86L71.4,110.6L75.87,99.76L80.33,101.07L84.79,89.94L89.26,90.53L93.72,77.9L98.18,64.83L102.64,45.34L107.11,52.65L111.57,38.01L120.5,18.49L124.96,16L133.88,39.07L138.35,31.03L142.81,33.09L147.27,43.55L151.74,67.27L156.2,74.81L160.66,84L165.12,84.77L169.59,82.74L174.05,79.36L178.51,81.88L182.98,105.76L187.44,100.96L191.9,105.93L196.36,104.69L200.83,107.83L205.29,108.47L209.75,98.63L214.21,92.74L218.68,93.13L223.14,90.86L227.6,85.39L232.07,89.07L236.53,83.05L240.99,70.6L245.45,68.43L249.92,63.74L254.38,56.05L258.84,51.33L263.31,61L267.77,71.44L272.23,93.51L276.69,112.97L281.16,105.69L285.62,103.11L290.08,111.88L299.01,110.01L303.47,107.17L307.93,107.14L312.4,105.7L316.86,105.16L321.32,89.31L330.25,107.65L334.71,114.91L339.17,111.49L343.64,111.2L348.1,112.29L352.56,112.42L361.49,118.16L365.95,111.8L370.41,101.16L374.88,105.3L379.34,89.49L383.8,91.58L388.26,90.25L392.73,92.51L397.19,88.86L401.65,98.46L406.12,96.23L410.58,100.5L419.5,105.66L423.97,104.35L428.43,100.55L432.89,100.83L437.36,103.65L441.82,111.04L446.28,115.03L450.74,114.66L455.21,118.05L459.67,114.42L464.13,113.39L468.6,114.69L473.06,114.37L477.52,107.59L481.98,108.21L486.45,114.7L490.91,106.01L495.37,107.24L499.83,104.64L504.3,105.86L508.76,101.15L513.22,100.7L517.69,99.17L522.15,99.33L526.61,93.59L531.07,95.08L535.54,91.97L540,92.68L540,304" style="vector-effect: non-scaling-stroke; fill: none; stroke: rgb(99, 110, 250); stroke-opacity: 1; stroke-width: 2px; opacity: 1;"/></g><g class="points"/><g class="text"/></g></g></g><g class="overplot"/><path class="xlines-above crisp" d="M0,0" style="fill: none;"/><path class="ylines-above crisp" d="M0,0" style="fill: none;"/><g class="overlines-above"/><g class="xaxislayer-above"><g class="xtick"><text text-anchor="middle" x="0" y="433" transform="translate(178.18,0)" style="font-family: 'Open Sans', verdana, arial, sans-serif; font-size: 12px; fill: rgb(42, 63, 95); fill-opacity: 1; white-space: pre; opacity: 1;">Oct 2022</text></g><g class="xtick"><text text-anchor="middle" x="0" y="433" style="font-family: 'Open Sans', verdana, arial, sans-serif; font-size: 12px; fill: rgb(42, 63, 95); fill-opacity: 1; white-space: pre; opacity: 1;" transform="translate(316.53,0)">Nov 2022</text></g><g class="xtick"><text text-anchor="middle" x="0" y="433" style="font-family: 'Open Sans', verdana, arial, sans-serif; font-size: 12px; fill: rgb(42, 63, 95); fill-opacity: 1; white-space: pre; opacity: 1;" transform="translate(450.41,0)">Dec 2022</text></g><g class="xtick"><text text-anchor="middle" x="0" y="433" style="font-family: 'Open Sans', verdana, arial, sans-serif; font-size: 12px; fill: rgb(42, 63, 95); fill-opacity: 1; white-space: pre; opacity: 1;" transform="translate(588.76,0)">Jan 2023</text></g></g><g class="yaxislayer-above"><g class="ytick"><text text-anchor="end" x="79" y="4.199999999999999" transform="translate(0,359.18)" style="font-family: 'Open Sans', verdana, arial, sans-serif; font-size: 12px; fill: rgb(42, 63, 95); fill-opacity: 1; white-space: pre; opacity: 1;">$0</text></g><g class="ytick"><text text-anchor="end" x="79" y="4.199999999999999" style="font-family: 'Open Sans', verdana, arial, sans-serif; font-size: 12px; fill: rgb(42, 63, 95); fill-opacity: 1; white-space: pre; opacity: 1;" transform="translate(0,298.07)">$0.5M</text></g><g class="ytick"><text text-anchor="end" x="79" y="4.199999999999999" style="font-family: 'Open Sans', verdana, arial, sans-serif; font-size: 12px; fill: rgb(42, 63, 95); fill-opacity: 1; white-space: pre; opacity: 1;" transform="translate(0,236.95)">$1M</text></g><g class="ytick"><text text-anchor="end" x="79" y="4.199999999999999" style="font-family: 'Open Sans', verdana, arial, sans-serif; font-size: 12px; fill: rgb(42, 63, 95); fill-opacity: 1; white-space: pre; opacity: 1;" transform="translate(0,175.84)">$1.5M</text></g><g class="ytick"><text text-anchor="end" x="79" y="4.199999999999999" style="font-family: 'Open Sans', verdana, arial, sans-serif; font-size: 12px; fill: rgb(42, 63, 95); fill-opacity: 1; white-space: pre; opacity: 1;" transform="translate(0,114.73)">$2M</text></g></g><g class="overaxes-above"/></g></g><g class="polarlayer"/><g class="smithlayer"/><g class="ternarylayer"/><g class="geolayer"/><g class="funnelarealayer"/><g class="pielayer"/><g class="iciclelayer"/><g class="treemaplayer"/><g class="sunburstlayer"/><g class="glimages"/><defs id="topdefs-cda139"><g class="clips"/></defs><g class="layer-above"><g class="imagelayer"/><g class="shapelayer"/></g><g class="infolayer"><g class="g-gtitle"><text class="gtitle" x="35" y="50" text-anchor="start" dy="0em" style="font-family: 'Open Sans', verdana, arial, sans-serif; font-size: 17px; fill: rgb(42, 63, 95); opacity: 1; font-weight: normal; white-space: pre;"><tspan class="line" dy="0em" x="35" y="50">Pickle</tspan><tspan class="line" dy="1.3em" x="35" y="50">​<tspan style="font-size:70%" dy="-0.6em">Cumulative Net Dollar Flow since Program Announcement, Until Program End + 30 Days - At Last Price</tspan><tspan dy="0.42em">​</tspan></tspan></text></g><g class="g-xtitle"><text class="xtitle" x="350" y="460.8" text-anchor="middle" style="font-family: 'Open Sans', verdana, arial, sans-serif; font-size: 14px; fill: rgb(42, 63, 95); opacity: 1; font-weight: normal; white-space: pre;">Day</text></g><g class="g-ytitle"><text class="ytitle" transform="rotate(-90,20.840625000000003,260)" x="20.840625000000003" y="260" text-anchor="middle" style="font-family: 'Open Sans', verdana, arial, sans-serif; font-size: 14px; fill: rgb(42, 63, 95); opacity: 1; font-weight: normal; white-space: pre;">Cumulative Net Dollar Flow (N$F)</text></g></g></svg>