<svg class="main-svg" xmlns="http://www.w3.org/2000/svg" xmlns:xlink="http://www.w3.org/1999/xlink" width="700" height="500" style="" viewBox="0 0 700 500"><rect x="0" y="0" width="700" height="500" style="fill: rgb(255, 255, 255); fill-opacity: 1;"/><defs id="defs-a63c30"><g class="clips"><clipPath id="clipa63c30xyplot" class="plotclip"><rect width="540" height="320"/></clipPath><clipPath class="axesclip" id="clipa63c30x"><rect x="80" y="0" width="540" height="500"/></clipPath><clipPath class="axesclip" id="clipa63c30y"><rect x="0" y="100" width="700" height="320"/></clipPath><clipPath class="axesclip" id="clipa63c30xy"><rect x="80" y="100" width="540" height="320"/></clipPath></g><g class="gradients"/><g class="patterns"/></defs><g class="bglayer"><rect class="bg" x="80" y="100" width="540" height="320" style="fill: rgb(229, 236, 246); fill-opacity: 1; stroke-width: 0;"/></g><g class="layer-below"><g class="imagelayer"/><g class="shapelayer"/></g><g class="cartesianlayer"><g class="subplot xy"><g class="layer-subplot"><g class="shapelayer"/><g class="imagelayer"/></g><g class="minor-gridlayer"><g class="x"/><g class="y"/></g><g class="gridlayer"><g class="x"><path class="xgrid crisp" transform="translate(106.81,0)" d="M0,100v320" style="stroke: rgb(255, 255, 255); stroke-opacity: 1; stroke-width: 1px;"/><path class="xgrid crisp" transform="translate(221.7,0)" d="M0,100v320" style="stroke: rgb(255, 255, 255); stroke-opacity: 1; stroke-width: 1px;"/><path class="xgrid crisp" transform="translate(340.43,0)" d="M0,100v320" style="stroke: rgb(255, 255, 255); stroke-opacity: 1; stroke-width: 1px;"/><path class="xgrid crisp" transform="translate(459.15,0)" d="M0,100v320" style="stroke: rgb(255, 255, 255); stroke-opacity: 1; stroke-width: 1px;"/><path class="xgrid crisp" transform="translate(566.38,0)" d="M0,100v320" style="stroke: rgb(255, 255, 255); stroke-opacity: 1; stroke-width: 1px;"/></g><g class="y"><path class="ygrid crisp" transform="translate(0,381.86)" d="M80,0h540" style="stroke: rgb(255, 255, 255); stroke-opacity: 1; stroke-width: 1px;"/><path class="ygrid crisp" transform="translate(0,343.71000000000004)" d="M80,0h540" style="stroke: rgb(255, 255, 255); stroke-opacity: 1; stroke-width: 1px;"/><path class="ygrid crisp" transform="translate(0,305.57)" d="M80,0h540" style="stroke: rgb(255, 255, 255); stroke-opacity: 1; stroke-width: 1px;"/><path class="ygrid crisp" transform="translate(0,267.41999999999996)" d="M80,0h540" style="stroke: rgb(255, 255, 255); stroke-opacity: 1; stroke-width: 1px;"/><path class="ygrid crisp" transform="translate(0,229.28)" d="M80,0h540" style="stroke: rgb(255, 255, 255); stroke-opacity: 1; stroke-width: 1px;"/><path class="ygrid crisp" transform="translate(0,191.13)" d="M80,0h540" style="stroke: rgb(255, 255, 255); stroke-opacity: 1; stroke-width: 1px;"/><path class="ygrid crisp" transform="translate(0,152.99)" d="M80,0h540" style="stroke: rgb(255, 255, 255); stroke-opacity: 1; stroke-width: 1px;"/><path class="ygrid crisp" transform="translate(0,114.84)" d="M80,0h540" style="stroke: rgb(255, 255, 255); stroke-opacity: 1; stroke-width: 1px;"/></g></g><g class="zerolinelayer"><path class="yzl zl crisp" transform="translate(0,420)" d="M80,0h540" style="stroke: rgb(255, 255, 255); stroke-opacity: 1; stroke-width: 2px;"/></g><path class="xlines-below"/><path class="ylines-below"/><g class="overlines-below"/><g class="xaxislayer-below"/><g class="yaxislayer-below"/><g class="overaxes-below"/><g class="plot" transform="translate(80,100)" clip-path="url(#clipa63c30xyplot)"><g class="scatterlayer mlayer"><g class="trace scatter trace50b6ab" style="stroke-miterlimit: 2;"><g class="fills"><g><path class="js-fill" d="M540,320L0,320L0,320L3.83,320L7.66,258.16L11.49,168.69L15.32,181.77L19.15,185.46L22.98,167.7L26.81,171.68L30.64,157.82L34.47,152.75L38.3,185.11L42.13,184.22L45.96,182.04L49.79,181.7L53.62,185.31L57.45,209.81L61.28,225.71L65.11,225.2L68.94,215.42L72.77,213.93L76.6,172.12L80.43,172.68L84.26,170.17L88.09,178.21L91.91,189.28L95.74,195.98L99.57,191.81L103.4,189.45L107.23,190.62L111.06,190.47L114.89,188.67L118.72,188.3L122.55,182.91L126.38,170.88L130.21,150.53L134.04,162.58L137.87,166.46L141.7,197.56L145.53,178.88L153.19,155.42L157.02,182.6L160.85,183.99L164.68,210.2L168.51,191.54L172.34,190.98L176.17,192.04L180,204.2L183.83,203L187.66,203.27L195.32,203.14L199.15,195.89L202.98,184.47L206.81,183.74L210.64,183.75L214.47,184.94L218.3,181.54L222.13,181.85L225.96,181.94L229.79,179.53L233.62,180.07L237.45,179.09L241.28,174.66L245.11,174.26L248.94,179.48L252.77,177.65L256.6,180.93L260.43,180.65L264.26,179.5L268.09,175.98L271.91,171.43L275.74,173.41L287.23,173.06L291.06,170.6L294.89,172.48L298.72,176.36L302.55,167.26L306.38,160.61L310.21,159.23L314.04,156.19L317.87,146.41L321.7,190.17L325.53,183.24L329.36,188.73L333.19,218.17L337.02,223.86L340.85,219.52L344.68,213.72L352.34,207.9L356.17,191.1L360,194.56L363.83,193.37L367.66,191L371.49,163.01L375.32,177.84L379.15,170.98L382.98,152.94L386.81,165.6L390.64,164.99L394.47,158.13L398.3,158.51L402.13,132.89L405.96,158.99L409.79,161.72L413.62,160.6L417.45,149.79L421.28,148.24L425.11,149.3L428.94,115.08L432.77,118.77L440.43,130.36L444.26,119.54L448.09,127.76L451.91,127.24L455.74,131.83L459.57,119.01L463.4,107.83L467.23,75.02L471.06,64.97L474.89,73.76L478.72,73.33L482.55,55.63L486.38,54.8L490.21,75.94L494.04,57.95L497.87,63.47L501.7,68.14L505.53,51.83L509.36,65.45L513.19,74.75L517.02,62.48L520.85,37.41L524.68,67.32L528.51,16L532.34,46.31L536.17,91.94L540,156.15" style="fill: rgb(99, 110, 250); fill-opacity: 0.5; stroke-width: 0;"/></g></g><g class="errorbars"/><g class="lines"><path class="js-line" d="M0,320L3.83,320L7.66,258.16L11.49,168.69L15.32,181.77L19.15,185.46L22.98,167.7L26.81,171.68L30.64,157.82L34.47,152.75L38.3,185.11L42.13,184.22L45.96,182.04L49.79,181.7L53.62,185.31L57.45,209.81L61.28,225.71L65.11,225.2L68.94,215.42L72.77,213.93L76.6,172.12L80.43,172.68L84.26,170.17L88.09,178.21L91.91,189.28L95.74,195.98L99.57,191.81L103.4,189.45L107.23,190.62L111.06,190.47L114.89,188.67L118.72,188.3L122.55,182.91L126.38,170.88L130.21,150.53L134.04,162.58L137.87,166.46L141.7,197.56L145.53,178.88L153.19,155.42L157.02,182.6L160.85,183.99L164.68,210.2L168.51,191.54L172.34,190.98L176.17,192.04L180,204.2L183.83,203L187.66,203.27L195.32,203.14L199.15,195.89L202.98,184.47L206.81,183.74L210.64,183.75L214.47,184.94L218.3,181.54L222.13,181.85L225.96,181.94L229.79,179.53L233.62,180.07L237.45,179.09L241.28,174.66L245.11,174.26L248.94,179.48L252.77,177.65L256.6,180.93L260.43,180.65L264.26,179.5L268.09,175.98L271.91,171.43L275.74,173.41L287.23,173.06L291.06,170.6L294.89,172.48L298.72,176.36L302.55,167.26L306.38,160.61L310.21,159.23L314.04,156.19L317.87,146.41L321.7,190.17L325.53,183.24L329.36,188.73L333.19,218.17L337.02,223.86L340.85,219.52L344.68,213.72L352.34,207.9L356.17,191.1L360,194.56L363.83,193.37L367.66,191L371.49,163.01L375.32,177.84L379.15,170.98L382.98,152.94L386.81,165.6L390.64,164.99L394.47,158.13L398.3,158.51L402.13,132.89L405.96,158.99L409.79,161.72L413.62,160.6L417.45,149.79L421.28,148.24L425.11,149.3L428.94,115.08L432.77,118.77L440.43,130.36L444.26,119.54L448.09,127.76L451.91,127.24L455.74,131.83L459.57,119.01L463.4,107.83L467.23,75.02L471.06,64.97L474.89,73.76L478.72,73.33L482.55,55.63L486.38,54.8L490.21,75.94L494.04,57.95L497.87,63.47L501.7,68.14L505.53,51.83L509.36,65.45L513.19,74.75L517.02,62.48L520.85,37.41L524.68,67.32L528.51,16L532.34,46.31L536.17,91.94L540,156.15" style="vector-effect: non-scaling-stroke; fill: none; stroke: rgb(99, 110, 250); stroke-opacity: 1; stroke-width: 2px; opacity: 1;"/></g><g class="points"/><g class="text"/></g></g></g><g class="overplot"/><path class="xlines-above crisp" d="M0,0" style="fill: none;"/><path class="ylines-above crisp" d="M0,0" style="fill: none;"/><g class="overlines-above"/><g class="xaxislayer-above"><g class="xtick"><text text-anchor="middle" x="0" y="433" transform="translate(106.81,0)" style="font-family: 'Open Sans', verdana, arial, sans-serif; font-size: 12px; fill: rgb(42, 63, 95); fill-opacity: 1; white-space: pre; opacity: 1;">Nov 2022</text></g><g class="xtick"><text text-anchor="middle" x="0" y="433" style="font-family: 'Open Sans', verdana, arial, sans-serif; font-size: 12px; fill: rgb(42, 63, 95); fill-opacity: 1; white-space: pre; opacity: 1;" transform="translate(221.7,0)">Dec 2022</text></g><g class="xtick"><text text-anchor="middle" x="0" y="433" style="font-family: 'Open Sans', verdana, arial, sans-serif; font-size: 12px; fill: rgb(42, 63, 95); fill-opacity: 1; white-space: pre; opacity: 1;" transform="translate(340.43,0)">Jan 2023</text></g><g class="xtick"><text text-anchor="middle" x="0" y="433" style="font-family: 'Open Sans', verdana, arial, sans-serif; font-size: 12px; fill: rgb(42, 63, 95); fill-opacity: 1; white-space: pre; opacity: 1;" transform="translate(459.15,0)">Feb 2023</text></g><g class="xtick"><text text-anchor="middle" x="0" y="433" style="font-family: 'Open Sans', verdana, arial, sans-serif; font-size: 12px; fill: rgb(42, 63, 95); fill-opacity: 1; white-space: pre; opacity: 1;" transform="translate(566.38,0)">Mar 2023</text></g></g><g class="yaxislayer-above"><g class="ytick"><text text-anchor="end" x="79" y="4.199999999999999" transform="translate(0,420)" style="font-family: 'Open Sans', verdana, arial, sans-serif; font-size: 12px; fill: rgb(42, 63, 95); fill-opacity: 1; white-space: pre; opacity: 1;">$0</text></g><g class="ytick"><text text-anchor="end" x="79" y="4.199999999999999" style="font-family: 'Open Sans', verdana, arial, sans-serif; font-size: 12px; fill: rgb(42, 63, 95); fill-opacity: 1; white-space: pre; opacity: 1;" transform="translate(0,381.86)">$0.2M</text></g><g class="ytick"><text text-anchor="end" x="79" y="4.199999999999999" style="font-family: 'Open Sans', verdana, arial, sans-serif; font-size: 12px; fill: rgb(42, 63, 95); fill-opacity: 1; white-space: pre; opacity: 1;" transform="translate(0,343.71000000000004)">$0.4M</text></g><g class="ytick"><text text-anchor="end" x="79" y="4.199999999999999" style="font-family: 'Open Sans', verdana, arial, sans-serif; font-size: 12px; fill: rgb(42, 63, 95); fill-opacity: 1; white-space: pre; opacity: 1;" transform="translate(0,305.57)">$0.6M</text></g><g class="ytick"><text text-anchor="end" x="79" y="4.199999999999999" style="font-family: 'Open Sans', verdana, arial, sans-serif; font-size: 12px; fill: rgb(42, 63, 95); fill-opacity: 1; white-space: pre; opacity: 1;" transform="translate(0,267.41999999999996)">$0.8M</text></g><g class="ytick"><text text-anchor="end" x="79" y="4.199999999999999" style="font-family: 'Open Sans', verdana, arial, sans-serif; font-size: 12px; fill: rgb(42, 63, 95); fill-opacity: 1; white-space: pre; opacity: 1;" transform="translate(0,229.28)">$1M</text></g><g class="ytick"><text text-anchor="end" x="79" y="4.199999999999999" style="font-family: 'Open Sans', verdana, arial, sans-serif; font-size: 12px; fill: rgb(42, 63, 95); fill-opacity: 1; white-space: pre; opacity: 1;" transform="translate(0,191.13)">$1.2M</text></g><g class="ytick"><text text-anchor="end" x="79" y="4.199999999999999" style="font-family: 'Open Sans', verdana, arial, sans-serif; font-size: 12px; fill: rgb(42, 63, 95); fill-opacity: 1; white-space: pre; opacity: 1;" transform="translate(0,152.99)">$1.4M</text></g><g class="ytick"><text text-anchor="end" x="79" y="4.199999999999999" style="font-family: 'Open Sans', verdana, arial, sans-serif; font-size: 12px; fill: rgb(42, 63, 95); fill-opacity: 1; white-space: pre; opacity: 1;" transform="translate(0,114.84)">$1.6M</text></g></g><g class="overaxes-above"/></g></g><g class="polarlayer"/><g class="smithlayer"/><g class="ternarylayer"/><g class="geolayer"/><g class="funnelarealayer"/><g class="pielayer"/><g class="iciclelayer"/><g class="treemaplayer"/><g class="sunburstlayer"/><g class="glimages"/><defs id="topdefs-a63c30"><g class="clips"/></defs><g class="layer-above"><g class="imagelayer"/><g class="shapelayer"/></g><g class="infolayer"><g class="g-gtitle"><text class="gtitle" x="35" y="50" text-anchor="start" dy="0em" style="font-family: 'Open Sans', verdana, arial, sans-serif; font-size: 17px; fill: rgb(42, 63, 95); opacity: 1; font-weight: normal; white-space: pre;"><tspan class="line" dy="0em" x="35" y="50">Synthetix - SNX Bridge: Hop</tspan><tspan class="line" dy="1.3em" x="35" y="50">​<tspan style="font-size:70%" dy="-0.6em">Cumulative Net Flows since Program Announcement, Until Program End + 30 Days - At Last Price</tspan><tspan dy="0.42em">​</tspan></tspan></text></g><g class="g-xtitle"><text class="xtitle" x="350" y="460.8" text-anchor="middle" style="font-family: 'Open Sans', verdana, arial, sans-serif; font-size: 14px; fill: rgb(42, 63, 95); opacity: 1; font-weight: normal; white-space: pre;">Day</text></g><g class="g-ytitle"><text class="ytitle" transform="rotate(-90,20.840625000000003,260)" x="20.840625000000003" y="260" text-anchor="middle" style="font-family: 'Open Sans', verdana, arial, sans-serif; font-size: 14px; fill: rgb(42, 63, 95); opacity: 1; font-weight: normal; white-space: pre;">Cumulative Net Flows (USD)</text></g></g></svg>