<svg class="main-svg" xmlns="http://www.w3.org/2000/svg" xmlns:xlink="http://www.w3.org/1999/xlink" width="700" height="500" style="" viewBox="0 0 700 500"><rect x="0" y="0" width="700" height="500" style="fill: rgb(255, 255, 255); fill-opacity: 1;"/><defs id="defs-af217e"><g class="clips"><clipPath id="clipaf217exyplot" class="plotclip"><rect width="540" height="320"/></clipPath><clipPath class="axesclip" id="clipaf217ex"><rect x="80" y="0" width="540" height="500"/></clipPath><clipPath class="axesclip" id="clipaf217ey"><rect x="0" y="100" width="700" height="320"/></clipPath><clipPath class="axesclip" id="clipaf217exy"><rect x="80" y="100" width="540" height="320"/></clipPath></g><g class="gradients"/><g class="patterns"/></defs><g class="bglayer"><rect class="bg" x="80" y="100" width="540" height="320" style="fill: rgb(229, 236, 246); fill-opacity: 1; stroke-width: 0;"/></g><g class="layer-below"><g class="imagelayer"/><g class="shapelayer"/></g><g class="cartesianlayer"><g class="subplot xy"><g class="layer-subplot"><g class="shapelayer"/><g class="imagelayer"/></g><g class="minor-gridlayer"><g class="x"/><g class="y"/></g><g class="gridlayer"><g class="x"><path class="xgrid crisp" transform="translate(98.31,0)" d="M0,100v320" style="stroke: rgb(255, 255, 255); stroke-opacity: 1; stroke-width: 1px;"/><path class="xgrid crisp" transform="translate(240.17,0)" d="M0,100v320" style="stroke: rgb(255, 255, 255); stroke-opacity: 1; stroke-width: 1px;"/><path class="xgrid crisp" transform="translate(377.46,0)" d="M0,100v320" style="stroke: rgb(255, 255, 255); stroke-opacity: 1; stroke-width: 1px;"/><path class="xgrid crisp" transform="translate(519.3199999999999,0)" d="M0,100v320" style="stroke: rgb(255, 255, 255); stroke-opacity: 1; stroke-width: 1px;"/></g><g class="y"><path class="ygrid crisp" transform="translate(0,375.34)" d="M80,0h540" style="stroke: rgb(255, 255, 255); stroke-opacity: 1; stroke-width: 1px;"/><path class="ygrid crisp" transform="translate(0,330.68)" d="M80,0h540" style="stroke: rgb(255, 255, 255); stroke-opacity: 1; stroke-width: 1px;"/><path class="ygrid crisp" transform="translate(0,286.02)" d="M80,0h540" style="stroke: rgb(255, 255, 255); stroke-opacity: 1; stroke-width: 1px;"/><path class="ygrid crisp" transform="translate(0,241.36)" d="M80,0h540" style="stroke: rgb(255, 255, 255); stroke-opacity: 1; stroke-width: 1px;"/><path class="ygrid crisp" transform="translate(0,196.7)" d="M80,0h540" style="stroke: rgb(255, 255, 255); stroke-opacity: 1; stroke-width: 1px;"/><path class="ygrid crisp" transform="translate(0,152.04)" d="M80,0h540" style="stroke: rgb(255, 255, 255); stroke-opacity: 1; stroke-width: 1px;"/><path class="ygrid crisp" transform="translate(0,107.38)" d="M80,0h540" style="stroke: rgb(255, 255, 255); stroke-opacity: 1; stroke-width: 1px;"/></g></g><g class="zerolinelayer"><path class="yzl zl crisp" transform="translate(0,420)" d="M80,0h540" style="stroke: rgb(255, 255, 255); stroke-opacity: 1; stroke-width: 2px;"/></g><path class="xlines-below"/><path class="ylines-below"/><g class="overlines-below"/><g class="xaxislayer-below"/><g class="yaxislayer-below"/><g class="overaxes-below"/><g class="plot" transform="translate(80,100)" clip-path="url(#clipaf217exyplot)"><g class="scatterlayer mlayer"><g class="trace scatter tracecedfda" style="stroke-miterlimit: 2;"><g class="fills"><g><path class="js-fill" d="M540,320L0,320L0,317.85L4.58,313.51L9.15,276.21L13.73,272.01L18.31,271.6L22.88,255.2L27.46,252.05L32.03,241.51L36.61,206.79L41.19,219.38L45.76,210.17L50.34,207.15L54.92,208.57L59.49,205L64.07,218.71L68.64,224.6L73.22,237.14L77.8,229.48L82.37,228.67L86.95,228.56L91.53,220.46L96.1,219.79L100.68,222.66L109.83,219.1L114.41,220.04L123.56,219.46L128.14,224.75L132.71,221.63L137.29,217.11L141.86,213.47L146.44,211.29L151.02,210.7L155.59,209.04L160.17,206.79L164.75,200.78L169.32,183.17L173.9,179.65L178.47,178.6L183.05,169.57L187.63,148.42L192.2,151.19L196.78,151.83L201.36,161.68L205.93,172.8L210.51,191.27L215.08,206.01L219.66,205.07L224.24,205.17L228.81,208.53L233.39,180.68L237.97,189.87L242.54,190.63L247.12,184.72L251.69,182.64L256.27,174.73L260.85,177.12L265.42,177.07L270,171.73L274.58,171.5L283.73,166.21L288.31,168.35L292.88,163.33L297.46,163.89L311.19,161.47L315.76,161.87L320.34,183.47L324.92,187.79L329.49,185.59L334.07,181.1L338.64,176.81L343.22,175.52L347.8,152.8L352.37,136.59L356.95,134.65L361.53,174.04L366.1,173.5L370.68,173.89L375.25,173.67L379.83,169.09L384.41,162.41L388.98,161.69L393.56,157.42L398.14,156.32L407.29,156.51L411.86,156.45L416.44,154.22L421.02,160.14L430.17,159.63L434.75,159.08L448.47,159.64L453.05,158.36L457.63,155.95L462.2,157.11L471.36,156.78L475.93,153.09L480.51,150.6L485.08,142.36L489.66,137.67L494.24,127.71L498.81,126.08L503.39,123.48L507.97,117.97L512.54,101.28L517.12,87.29L521.69,77.23L526.27,73.38L530.85,31.44L535.42,16.67L540,16" style="fill: rgb(99, 110, 250); fill-opacity: 0.5; stroke-width: 0;"/></g></g><g class="errorbars"/><g class="lines"><path class="js-line" d="M0,317.85L4.58,313.51L9.15,276.21L13.73,272.01L18.31,271.6L22.88,255.2L27.46,252.05L32.03,241.51L36.61,206.79L41.19,219.38L45.76,210.17L50.34,207.15L54.92,208.57L59.49,205L64.07,218.71L68.64,224.6L73.22,237.14L77.8,229.48L82.37,228.67L86.95,228.56L91.53,220.46L96.1,219.79L100.68,222.66L109.83,219.1L114.41,220.04L123.56,219.46L128.14,224.75L132.71,221.63L137.29,217.11L141.86,213.47L146.44,211.29L151.02,210.7L155.59,209.04L160.17,206.79L164.75,200.78L169.32,183.17L173.9,179.65L178.47,178.6L183.05,169.57L187.63,148.42L192.2,151.19L196.78,151.83L201.36,161.68L205.93,172.8L210.51,191.27L215.08,206.01L219.66,205.07L224.24,205.17L228.81,208.53L233.39,180.68L237.97,189.87L242.54,190.63L247.12,184.72L251.69,182.64L256.27,174.73L260.85,177.12L265.42,177.07L270,171.73L274.58,171.5L283.73,166.21L288.31,168.35L292.88,163.33L297.46,163.89L311.19,161.47L315.76,161.87L320.34,183.47L324.92,187.79L329.49,185.59L334.07,181.1L338.64,176.81L343.22,175.52L347.8,152.8L352.37,136.59L356.95,134.65L361.53,174.04L366.1,173.5L370.68,173.89L375.25,173.67L379.83,169.09L384.41,162.41L388.98,161.69L393.56,157.42L398.14,156.32L407.29,156.51L411.86,156.45L416.44,154.22L421.02,160.14L430.17,159.63L434.75,159.08L448.47,159.64L453.05,158.36L457.63,155.95L462.2,157.11L471.36,156.78L475.93,153.09L480.51,150.6L485.08,142.36L489.66,137.67L494.24,127.71L498.81,126.08L503.39,123.48L507.97,117.97L512.54,101.28L517.12,87.29L521.69,77.23L526.27,73.38L530.85,31.44L535.42,16.67L540,16" style="vector-effect: non-scaling-stroke; fill: none; stroke: rgb(99, 110, 250); stroke-opacity: 1; stroke-width: 2px; opacity: 1;"/></g><g class="points"/><g class="text"/></g></g></g><g class="overplot"/><path class="xlines-above crisp" d="M0,0" style="fill: none;"/><path class="ylines-above crisp" d="M0,0" style="fill: none;"/><g class="overlines-above"/><g class="xaxislayer-above"><g class="xtick"><text text-anchor="middle" x="0" y="433" transform="translate(98.31,0)" style="font-family: 'Open Sans', verdana, arial, sans-serif; font-size: 12px; fill: rgb(42, 63, 95); fill-opacity: 1; white-space: pre; opacity: 1;">Oct 2022</text></g><g class="xtick"><text text-anchor="middle" x="0" y="433" style="font-family: 'Open Sans', verdana, arial, sans-serif; font-size: 12px; fill: rgb(42, 63, 95); fill-opacity: 1; white-space: pre; opacity: 1;" transform="translate(240.17,0)">Nov 2022</text></g><g class="xtick"><text text-anchor="middle" x="0" y="433" style="font-family: 'Open Sans', verdana, arial, sans-serif; font-size: 12px; fill: rgb(42, 63, 95); fill-opacity: 1; white-space: pre; opacity: 1;" transform="translate(377.46,0)">Dec 2022</text></g><g class="xtick"><text text-anchor="middle" x="0" y="433" style="font-family: 'Open Sans', verdana, arial, sans-serif; font-size: 12px; fill: rgb(42, 63, 95); fill-opacity: 1; white-space: pre; opacity: 1;" transform="translate(519.3199999999999,0)">Jan 2023</text></g></g><g class="yaxislayer-above"><g class="ytick"><text text-anchor="end" x="79" y="4.199999999999999" transform="translate(0,420)" style="font-family: 'Open Sans', verdana, arial, sans-serif; font-size: 12px; fill: rgb(42, 63, 95); fill-opacity: 1; white-space: pre; opacity: 1;">$0</text></g><g class="ytick"><text text-anchor="end" x="79" y="4.199999999999999" style="font-family: 'Open Sans', verdana, arial, sans-serif; font-size: 12px; fill: rgb(42, 63, 95); fill-opacity: 1; white-space: pre; opacity: 1;" transform="translate(0,375.34)">$1M</text></g><g class="ytick"><text text-anchor="end" x="79" y="4.199999999999999" style="font-family: 'Open Sans', verdana, arial, sans-serif; font-size: 12px; fill: rgb(42, 63, 95); fill-opacity: 1; white-space: pre; opacity: 1;" transform="translate(0,330.68)">$2M</text></g><g class="ytick"><text text-anchor="end" x="79" y="4.199999999999999" style="font-family: 'Open Sans', verdana, arial, sans-serif; font-size: 12px; fill: rgb(42, 63, 95); fill-opacity: 1; white-space: pre; opacity: 1;" transform="translate(0,286.02)">$3M</text></g><g class="ytick"><text text-anchor="end" x="79" y="4.199999999999999" style="font-family: 'Open Sans', verdana, arial, sans-serif; font-size: 12px; fill: rgb(42, 63, 95); fill-opacity: 1; white-space: pre; opacity: 1;" transform="translate(0,241.36)">$4M</text></g><g class="ytick"><text text-anchor="end" x="79" y="4.199999999999999" style="font-family: 'Open Sans', verdana, arial, sans-serif; font-size: 12px; fill: rgb(42, 63, 95); fill-opacity: 1; white-space: pre; opacity: 1;" transform="translate(0,196.7)">$5M</text></g><g class="ytick"><text text-anchor="end" x="79" y="4.199999999999999" style="font-family: 'Open Sans', verdana, arial, sans-serif; font-size: 12px; fill: rgb(42, 63, 95); fill-opacity: 1; white-space: pre; opacity: 1;" transform="translate(0,152.04)">$6M</text></g><g class="ytick"><text text-anchor="end" x="79" y="4.199999999999999" style="font-family: 'Open Sans', verdana, arial, sans-serif; font-size: 12px; fill: rgb(42, 63, 95); fill-opacity: 1; white-space: pre; opacity: 1;" transform="translate(0,107.38)">$7M</text></g></g><g class="overaxes-above"/></g></g><g class="polarlayer"/><g class="smithlayer"/><g class="ternarylayer"/><g class="geolayer"/><g class="funnelarealayer"/><g class="pielayer"/><g class="iciclelayer"/><g class="treemaplayer"/><g class="sunburstlayer"/><g class="glimages"/><defs id="topdefs-af217e"><g class="clips"/></defs><g class="layer-above"><g class="imagelayer"/><g class="shapelayer"/></g><g class="infolayer"><g class="g-gtitle"><text class="gtitle" x="35" y="50" text-anchor="start" dy="0em" style="font-family: 'Open Sans', verdana, arial, sans-serif; font-size: 17px; fill: rgb(42, 63, 95); opacity: 1; font-weight: normal; white-space: pre;"><tspan class="line" dy="0em" x="35" y="50">Synthetix - ETH/sETH: Velo</tspan><tspan class="line" dy="1.3em" x="35" y="50">​<tspan style="font-size:70%" dy="-0.6em">Cumulative Net Dollar Flow since Program Announcement, Until Program End + 30 Days - At Last Price</tspan><tspan dy="0.42em">​</tspan></tspan></text></g><g class="g-xtitle"><text class="xtitle" x="350" y="460.8" text-anchor="middle" style="font-family: 'Open Sans', verdana, arial, sans-serif; font-size: 14px; fill: rgb(42, 63, 95); opacity: 1; font-weight: normal; white-space: pre;">Day</text></g><g class="g-ytitle"><text class="ytitle" transform="rotate(-90,30.856250000000003,260)" x="30.856250000000003" y="260" text-anchor="middle" style="font-family: 'Open Sans', verdana, arial, sans-serif; font-size: 14px; fill: rgb(42, 63, 95); opacity: 1; font-weight: normal; white-space: pre;">Cumulative Net Dollar Flow (N$F)</text></g></g></svg>