<svg class="main-svg" xmlns="http://www.w3.org/2000/svg" xmlns:xlink="http://www.w3.org/1999/xlink" width="700" height="500" style="" viewBox="0 0 700 500"><rect x="0" y="0" width="700" height="500" style="fill: rgb(255, 255, 255); fill-opacity: 1;"/><defs id="defs-a9ad26"><g class="clips"><clipPath id="clipa9ad26xyplot" class="plotclip"><rect width="540" height="320"/></clipPath><clipPath class="axesclip" id="clipa9ad26x"><rect x="80" y="0" width="540" height="500"/></clipPath><clipPath class="axesclip" id="clipa9ad26y"><rect x="0" y="100" width="700" height="320"/></clipPath><clipPath class="axesclip" id="clipa9ad26xy"><rect x="80" y="100" width="540" height="320"/></clipPath></g><g class="gradients"/><g class="patterns"/></defs><g class="bglayer"><rect class="bg" x="80" y="100" width="540" height="320" style="fill: rgb(229, 236, 246); fill-opacity: 1; stroke-width: 0;"/></g><g class="layer-below"><g class="imagelayer"/><g class="shapelayer"/></g><g class="cartesianlayer"><g class="subplot xy"><g class="layer-subplot"><g class="shapelayer"/><g class="imagelayer"/></g><g class="minor-gridlayer"><g class="x"/><g class="y"/></g><g class="gridlayer"><g class="x"><path class="xgrid crisp" transform="translate(103.92,0)" d="M0,100v320" style="stroke: rgb(255, 255, 255); stroke-opacity: 1; stroke-width: 1px;"/><path class="xgrid crisp" transform="translate(206.45999999999998,0)" d="M0,100v320" style="stroke: rgb(255, 255, 255); stroke-opacity: 1; stroke-width: 1px;"/><path class="xgrid crisp" transform="translate(312.40999999999997,0)" d="M0,100v320" style="stroke: rgb(255, 255, 255); stroke-opacity: 1; stroke-width: 1px;"/><path class="xgrid crisp" transform="translate(418.35,0)" d="M0,100v320" style="stroke: rgb(255, 255, 255); stroke-opacity: 1; stroke-width: 1px;"/><path class="xgrid crisp" transform="translate(514.05,0)" d="M0,100v320" style="stroke: rgb(255, 255, 255); stroke-opacity: 1; stroke-width: 1px;"/></g><g class="y"><path class="ygrid crisp" transform="translate(0,281.72)" d="M80,0h540" style="stroke: rgb(255, 255, 255); stroke-opacity: 1; stroke-width: 1px;"/><path class="ygrid crisp" transform="translate(0,210.25)" d="M80,0h540" style="stroke: rgb(255, 255, 255); stroke-opacity: 1; stroke-width: 1px;"/><path class="ygrid crisp" transform="translate(0,138.79)" d="M80,0h540" style="stroke: rgb(255, 255, 255); stroke-opacity: 1; stroke-width: 1px;"/></g></g><g class="zerolinelayer"><path class="yzl zl crisp" transform="translate(0,353.19)" d="M80,0h540" style="stroke: rgb(255, 255, 255); stroke-opacity: 1; stroke-width: 2px;"/></g><path class="xlines-below"/><path class="ylines-below"/><g class="overlines-below"/><g class="xaxislayer-below"/><g class="yaxislayer-below"/><g class="overaxes-below"/><g class="plot" transform="translate(80,100)" clip-path="url(#clipa9ad26xyplot)"><g class="scatterlayer mlayer"><g class="trace scatter trace1d0839" style="stroke-miterlimit: 2;"><g class="fills"><g><path class="js-fill" d="M540,253.19L0,253.19L0,253.19L3.42,253.19L6.84,206.84L10.25,139.8L13.67,149.59L17.09,152.36L20.51,139.05L23.92,142.03L27.34,131.64L30.76,127.84L34.18,152.1L37.59,151.43L41.01,149.79L44.43,149.55L47.85,152.24L51.27,170.61L54.68,182.52L58.1,182.14L61.52,174.81L64.94,173.69L68.35,142.36L71.77,142.79L75.19,140.9L78.61,146.93L82.03,155.23L85.44,160.25L88.86,157.12L92.28,155.35L95.7,156.22L99.11,156.12L102.53,154.77L105.95,154.48L109.37,150.45L112.78,141.43L116.2,126.18L119.62,135.21L123.04,138.12L126.46,161.43L129.87,147.43L136.71,129.85L140.13,150.22L143.54,151.26L146.96,170.9L150.38,156.91L153.8,156.5L157.22,157.29L160.63,166.41L164.05,165.5L167.47,165.7L174.3,165.61L177.72,160.18L181.14,151.62L184.56,151.07L187.97,151.07L191.39,151.97L194.81,149.42L198.23,149.65L201.65,149.72L205.06,147.92L208.48,148.32L211.9,147.58L215.32,144.27L218.73,143.97L222.15,147.88L225.57,146.5L228.99,148.97L232.41,148.75L235.82,147.89L239.24,145.26L242.66,141.85L246.08,143.33L256.33,143.07L259.75,141.22L263.16,142.63L266.58,145.54L270,138.72L273.42,133.74L276.84,132.71L280.25,130.43L283.67,123.09L287.09,155.89L290.51,150.69L293.92,154.81L297.34,176.87L300.76,181.13L304.18,177.88L307.59,173.54L314.43,169.18L317.85,156.59L321.27,159.18L324.68,158.29L328.1,156.51L331.52,135.53L334.94,146.65L338.35,141.51L341.77,127.99L345.19,137.48L348.61,137.02L352.03,131.88L355.44,132.16L358.86,112.96L362.28,132.53L365.7,134.57L369.11,133.73L372.53,125.63L375.95,124.46L379.37,125.26L382.78,99.62L386.2,102.38L393.04,111.06L396.46,102.96L399.87,109.12L403.29,108.73L406.71,112.17L410.13,102.56L413.54,94.18L416.96,69.59L420.38,62.06L423.8,68.65L427.22,68.33L430.63,55.06L434.05,54.44L437.47,70.28L440.89,56.8L444.3,60.94L447.72,64.44L451.14,52.21L454.56,62.42L457.97,69.39L461.39,60.2L464.81,41.41L468.23,63.82L471.65,25.36L475.06,48.08L478.48,82.27L481.9,130.39L485.32,212.01L488.73,193.52L492.15,186.71L495.57,188.33L498.99,187.61L502.41,169.41L505.82,156.06L509.24,40.22L512.66,54.75L516.08,61.51L519.49,38.53L522.91,16L526.33,52.17L529.75,51.53L533.16,68.24L540,66.01L540,304" style="fill: rgb(99, 110, 250); fill-opacity: 0.5; stroke-width: 0;"/></g></g><g class="errorbars"/><g class="lines"><path class="js-line" d="M0,253.19L3.42,253.19L6.84,206.84L10.25,139.8L13.67,149.59L17.09,152.36L20.51,139.05L23.92,142.03L27.34,131.64L30.76,127.84L34.18,152.1L37.59,151.43L41.01,149.79L44.43,149.55L47.85,152.24L51.27,170.61L54.68,182.52L58.1,182.14L61.52,174.81L64.94,173.69L68.35,142.36L71.77,142.79L75.19,140.9L78.61,146.93L82.03,155.23L85.44,160.25L88.86,157.12L92.28,155.35L95.7,156.22L99.11,156.12L102.53,154.77L105.95,154.48L109.37,150.45L112.78,141.43L116.2,126.18L119.62,135.21L123.04,138.12L126.46,161.43L129.87,147.43L136.71,129.85L140.13,150.22L143.54,151.26L146.96,170.9L150.38,156.91L153.8,156.5L157.22,157.29L160.63,166.41L164.05,165.5L167.47,165.7L174.3,165.61L177.72,160.18L181.14,151.62L184.56,151.07L187.97,151.07L191.39,151.97L194.81,149.42L198.23,149.65L201.65,149.72L205.06,147.92L208.48,148.32L211.9,147.58L215.32,144.27L218.73,143.97L222.15,147.88L225.57,146.5L228.99,148.97L232.41,148.75L235.82,147.89L239.24,145.26L242.66,141.85L246.08,143.33L256.33,143.07L259.75,141.22L263.16,142.63L266.58,145.54L270,138.72L273.42,133.74L276.84,132.71L280.25,130.43L283.67,123.09L287.09,155.89L290.51,150.69L293.92,154.81L297.34,176.87L300.76,181.13L304.18,177.88L307.59,173.54L314.43,169.18L317.85,156.59L321.27,159.18L324.68,158.29L328.1,156.51L331.52,135.53L334.94,146.65L338.35,141.51L341.77,127.99L345.19,137.48L348.61,137.02L352.03,131.88L355.44,132.16L358.86,112.96L362.28,132.53L365.7,134.57L369.11,133.73L372.53,125.63L375.95,124.46L379.37,125.26L382.78,99.62L386.2,102.38L393.04,111.06L396.46,102.96L399.87,109.12L403.29,108.73L406.71,112.17L410.13,102.56L413.54,94.18L416.96,69.59L420.38,62.06L423.8,68.65L427.22,68.33L430.63,55.06L434.05,54.44L437.47,70.28L440.89,56.8L444.3,60.94L447.72,64.44L451.14,52.21L454.56,62.42L457.97,69.39L461.39,60.2L464.81,41.41L468.23,63.82L471.65,25.36L475.06,48.08L478.48,82.27L481.9,130.39L485.32,212.01L488.73,193.52L492.15,186.71L495.57,188.33L498.99,187.61L502.41,169.41L505.82,156.06L509.24,40.22L512.66,54.75L516.08,61.51L519.49,38.53L522.91,16L526.33,52.17L529.75,51.53L533.16,68.24L540,66.01L540,304" style="vector-effect: non-scaling-stroke; fill: none; stroke: rgb(99, 110, 250); stroke-opacity: 1; stroke-width: 2px; opacity: 1;"/></g><g class="points"/><g class="text"/></g></g></g><g class="overplot"/><path class="xlines-above crisp" d="M0,0" style="fill: none;"/><path class="ylines-above crisp" d="M0,0" style="fill: none;"/><g class="overlines-above"/><g class="xaxislayer-above"><g class="xtick"><text text-anchor="middle" x="0" y="433" transform="translate(103.92,0)" style="font-family: 'Open Sans', verdana, arial, sans-serif; font-size: 12px; fill: rgb(42, 63, 95); fill-opacity: 1; white-space: pre; opacity: 1;">Nov 2022</text></g><g class="xtick"><text text-anchor="middle" x="0" y="433" style="font-family: 'Open Sans', verdana, arial, sans-serif; font-size: 12px; fill: rgb(42, 63, 95); fill-opacity: 1; white-space: pre; opacity: 1;" transform="translate(206.45999999999998,0)">Dec 2022</text></g><g class="xtick"><text text-anchor="middle" x="0" y="433" style="font-family: 'Open Sans', verdana, arial, sans-serif; font-size: 12px; fill: rgb(42, 63, 95); fill-opacity: 1; white-space: pre; opacity: 1;" transform="translate(312.40999999999997,0)">Jan 2023</text></g><g class="xtick"><text text-anchor="middle" x="0" y="433" style="font-family: 'Open Sans', verdana, arial, sans-serif; font-size: 12px; fill: rgb(42, 63, 95); fill-opacity: 1; white-space: pre; opacity: 1;" transform="translate(418.35,0)">Feb 2023</text></g><g class="xtick"><text text-anchor="middle" x="0" y="433" style="font-family: 'Open Sans', verdana, arial, sans-serif; font-size: 12px; fill: rgb(42, 63, 95); fill-opacity: 1; white-space: pre; opacity: 1;" transform="translate(514.05,0)">Mar 2023</text></g><g class="xtick"><text text-anchor="middle" x="0" y="433" style="font-family: 'Open Sans', verdana, arial, sans-serif; font-size: 12px; fill: rgb(42, 63, 95); fill-opacity: 1; white-space: pre; opacity: 1;" transform="translate(620,0)">Apr 2023</text></g></g><g class="yaxislayer-above"><g class="ytick"><text text-anchor="end" x="79" y="4.199999999999999" transform="translate(0,353.19)" style="font-family: 'Open Sans', verdana, arial, sans-serif; font-size: 12px; fill: rgb(42, 63, 95); fill-opacity: 1; white-space: pre; opacity: 1;">$0</text></g><g class="ytick"><text text-anchor="end" x="79" y="4.199999999999999" style="font-family: 'Open Sans', verdana, arial, sans-serif; font-size: 12px; fill: rgb(42, 63, 95); fill-opacity: 1; white-space: pre; opacity: 1;" transform="translate(0,281.72)">$0.5M</text></g><g class="ytick"><text text-anchor="end" x="79" y="4.199999999999999" style="font-family: 'Open Sans', verdana, arial, sans-serif; font-size: 12px; fill: rgb(42, 63, 95); fill-opacity: 1; white-space: pre; opacity: 1;" transform="translate(0,210.25)">$1M</text></g><g class="ytick"><text text-anchor="end" x="79" y="4.199999999999999" style="font-family: 'Open Sans', verdana, arial, sans-serif; font-size: 12px; fill: rgb(42, 63, 95); fill-opacity: 1; white-space: pre; opacity: 1;" transform="translate(0,138.79)">$1.5M</text></g></g><g class="overaxes-above"/></g></g><g class="polarlayer"/><g class="smithlayer"/><g class="ternarylayer"/><g class="geolayer"/><g class="funnelarealayer"/><g class="pielayer"/><g class="iciclelayer"/><g class="treemaplayer"/><g class="sunburstlayer"/><g class="glimages"/><defs id="topdefs-a9ad26"><g class="clips"/></defs><g class="layer-above"><g class="imagelayer"/><g class="shapelayer"/></g><g class="infolayer"><g class="g-gtitle"><text class="gtitle" x="35" y="50" text-anchor="start" dy="0em" style="font-family: 'Open Sans', verdana, arial, sans-serif; font-size: 17px; fill: rgb(42, 63, 95); opacity: 1; font-weight: normal; white-space: pre;"><tspan class="line" dy="0em" x="35" y="50">Synthetix - SNX Bridge: Hop</tspan><tspan class="line" dy="1.3em" x="35" y="50">​<tspan style="font-size:70%" dy="-0.6em">Cumulative Net Flows since Program Announcement, Until Program End + 30 Days - At Last Price</tspan><tspan dy="0.42em">​</tspan></tspan></text></g><g class="g-xtitle"><text class="xtitle" x="350" y="460.8" text-anchor="middle" style="font-family: 'Open Sans', verdana, arial, sans-serif; font-size: 14px; fill: rgb(42, 63, 95); opacity: 1; font-weight: normal; white-space: pre;">Day</text></g><g class="g-ytitle"><text class="ytitle" transform="rotate(-90,20.840625000000003,260)" x="20.840625000000003" y="260" text-anchor="middle" style="font-family: 'Open Sans', verdana, arial, sans-serif; font-size: 14px; fill: rgb(42, 63, 95); opacity: 1; font-weight: normal; white-space: pre;">Cumulative Net Flows (USD)</text></g></g></svg>