<svg class="main-svg" xmlns="http://www.w3.org/2000/svg" xmlns:xlink="http://www.w3.org/1999/xlink" width="700" height="500" style="" viewBox="0 0 700 500"><rect x="0" y="0" width="700" height="500" style="fill: rgb(255, 255, 255); fill-opacity: 1;"/><defs id="defs-b90cba"><g class="clips"><clipPath id="clipb90cbaxyplot" class="plotclip"><rect width="469" height="320"/></clipPath><clipPath class="axesclip" id="clipb90cbax"><rect x="80" y="0" width="469" height="500"/></clipPath><clipPath class="axesclip" id="clipb90cbay"><rect x="0" y="100" width="700" height="320"/></clipPath><clipPath class="axesclip" id="clipb90cbaxy"><rect x="80" y="100" width="469" height="320"/></clipPath></g><g class="gradients"/><g class="patterns"/></defs><g class="bglayer"><rect class="bg" x="80" y="100" width="469" height="320" style="fill: rgb(229, 236, 246); fill-opacity: 1; stroke-width: 0;"/></g><g class="layer-below"><g class="imagelayer"/><g class="shapelayer"/></g><g class="cartesianlayer"><g class="subplot xy"><g class="layer-subplot"><g class="shapelayer"/><g class="imagelayer"/></g><g class="minor-gridlayer"><g class="x"/><g class="y"/></g><g class="gridlayer"><g class="x"><path class="xgrid crisp" transform="translate(158.17000000000002,0)" d="M0,100v320" style="stroke: rgb(255, 255, 255); stroke-opacity: 1; stroke-width: 1px;"/><path class="xgrid crisp" transform="translate(241.92,0)" d="M0,100v320" style="stroke: rgb(255, 255, 255); stroke-opacity: 1; stroke-width: 1px;"/><path class="xgrid crisp" transform="translate(328.46000000000004,0)" d="M0,100v320" style="stroke: rgb(255, 255, 255); stroke-opacity: 1; stroke-width: 1px;"/><path class="xgrid crisp" transform="translate(412.21,0)" d="M0,100v320" style="stroke: rgb(255, 255, 255); stroke-opacity: 1; stroke-width: 1px;"/><path class="xgrid crisp" transform="translate(498.75,0)" d="M0,100v320" style="stroke: rgb(255, 255, 255); stroke-opacity: 1; stroke-width: 1px;"/></g><g class="y"><path class="ygrid crisp" transform="translate(0,338.27)" d="M80,0h469" style="stroke: rgb(255, 255, 255); stroke-opacity: 1; stroke-width: 1px;"/><path class="ygrid crisp" transform="translate(0,288.78999999999996)" d="M80,0h469" style="stroke: rgb(255, 255, 255); stroke-opacity: 1; stroke-width: 1px;"/><path class="ygrid crisp" transform="translate(0,239.31)" d="M80,0h469" style="stroke: rgb(255, 255, 255); stroke-opacity: 1; stroke-width: 1px;"/><path class="ygrid crisp" transform="translate(0,189.84)" d="M80,0h469" style="stroke: rgb(255, 255, 255); stroke-opacity: 1; stroke-width: 1px;"/><path class="ygrid crisp" transform="translate(0,140.36)" d="M80,0h469" style="stroke: rgb(255, 255, 255); stroke-opacity: 1; stroke-width: 1px;"/></g></g><g class="zerolinelayer"><path class="yzl zl crisp" transform="translate(0,387.74)" d="M80,0h469" style="stroke: rgb(255, 255, 255); stroke-opacity: 1; stroke-width: 2px;"/></g><path class="xlines-below"/><path class="ylines-below"/><g class="overlines-below"/><g class="xaxislayer-below"/><g class="yaxislayer-below"/><g class="overaxes-below"/><g class="plot" transform="translate(80,100)" clip-path="url(#clipb90cbaxyplot)"><g class="scatterlayer mlayer"><g class="trace scatter trace791cac" style="stroke-miterlimit: 2;"><g class="fills"><g><path class="js-fill" d="M256.83,287.74L0,287.74L0,287.3L2.79,167.85L5.58,86.37L8.38,54.4L11.17,34.9L13.96,37.98L16.75,30.78L19.54,16.44L22.33,16L25.13,16.66L27.92,34.25L30.71,41.52L33.5,41.44L39.08,48.61L41.88,102.02L47.46,104.06L50.25,103.29L53.04,110.56L55.83,106.18L58.63,104.28L61.42,97.68L64.21,98.79L67,95.51L69.79,99.16L72.58,100.89L75.38,89.24L78.17,87.21L80.96,86.72L83.75,87.29L86.54,88.35L89.33,88.13L94.92,107.08L97.71,108.2L100.5,114.84L103.29,107.85L108.88,106.39L111.67,103.94L114.46,104.33L117.25,110.69L120.04,105.02L122.83,101.26L125.63,99.18L128.42,99.77L131.21,96.39L134,96L136.79,95.02L139.58,92.86L142.38,92.69L145.17,91.22L147.96,94.57L150.75,93.12L153.54,91.31L156.33,79.11L159.13,73.89L161.92,74.81L164.71,74.77L167.5,73.55L170.29,69.59L173.08,68.32L175.88,70.38L178.67,71.09L181.46,72.01L184.25,69.17L187.04,72.62L189.83,74.51L192.63,74.85L195.42,77.43L198.21,78.71L201,76.21L203.79,76.44L206.58,77.63L209.38,96.73L212.17,93.86L214.96,90.98L217.75,90.59L223.33,89.95L226.13,91.7L228.92,91.49L231.71,92.07L234.5,91.97L237.29,78.06L240.08,77.96L242.88,72.42L245.67,75.12L248.46,92.3L251.25,100.08L254.04,126.5L256.83,156.81" style="fill: rgb(99, 110, 250); fill-opacity: 0.5; stroke-width: 0;"/></g></g><g class="errorbars"/><g class="lines"><path class="js-line" d="M0,287.3L2.79,167.85L5.58,86.37L8.38,54.4L11.17,34.9L13.96,37.98L16.75,30.78L19.54,16.44L22.33,16L25.13,16.66L27.92,34.25L30.71,41.52L33.5,41.44L39.08,48.61L41.88,102.02L47.46,104.06L50.25,103.29L53.04,110.56L55.83,106.18L58.63,104.28L61.42,97.68L64.21,98.79L67,95.51L69.79,99.16L72.58,100.89L75.38,89.24L78.17,87.21L80.96,86.72L83.75,87.29L86.54,88.35L89.33,88.13L94.92,107.08L97.71,108.2L100.5,114.84L103.29,107.85L108.88,106.39L111.67,103.94L114.46,104.33L117.25,110.69L120.04,105.02L122.83,101.26L125.63,99.18L128.42,99.77L131.21,96.39L134,96L136.79,95.02L139.58,92.86L142.38,92.69L145.17,91.22L147.96,94.57L150.75,93.12L153.54,91.31L156.33,79.11L159.13,73.89L161.92,74.81L164.71,74.77L167.5,73.55L170.29,69.59L173.08,68.32L175.88,70.38L178.67,71.09L181.46,72.01L184.25,69.17L187.04,72.62L189.83,74.51L192.63,74.85L195.42,77.43L198.21,78.71L201,76.21L203.79,76.44L206.58,77.63L209.38,96.73L212.17,93.86L214.96,90.98L217.75,90.59L223.33,89.95L226.13,91.7L228.92,91.49L231.71,92.07L234.5,91.97L237.29,78.06L240.08,77.96L242.88,72.42L245.67,75.12L248.46,92.3L251.25,100.08L254.04,126.5L256.83,156.81" style="vector-effect: non-scaling-stroke; fill: none; stroke: rgb(99, 110, 250); stroke-opacity: 1; stroke-width: 2px; opacity: 1;"/></g><g class="points"/><g class="text"/></g><g class="trace scatter trace6b49dc" style="stroke-miterlimit: 2;"><g class="fills"><g><path class="js-fill" d="M469,287.74L259.63,287.74L259.63,164.74L265.21,173.93L268,170.83L276.38,198.55L279.17,199.27L284.75,199.95L287.54,225.48L290.33,226.74L293.13,228.89L295.92,234.33L298.71,234.34L301.5,234.45L304.29,233.78L307.08,234.17L309.88,235.84L315.46,237.6L318.25,246.3L321.04,246.71L323.83,248.95L326.63,249.08L329.42,250.02L332.21,249.91L335,249.01L340.58,249.48L343.38,248.96L346.17,249.04L348.96,247.85L354.54,247.3L357.33,247.31L360.13,247.43L362.92,249.2L365.71,249.53L368.5,248.78L374.08,248.72L376.88,248.9L379.67,248.15L382.46,248.22L385.25,248L388.04,246.84L402,248.51L404.79,248.21L410.38,248.47L413.17,254.43L418.75,256.37L421.54,256.58L427.13,256.96L429.92,258.36L441.08,258.93L443.88,259.41L455.04,259.66L457.83,260.42L463.42,261.2L466.21,262.26L469,262.51L469,304" style="fill: rgb(239, 85, 59); fill-opacity: 0.5; stroke-width: 0;"/></g></g><g class="errorbars"/><g class="lines"><path class="js-line" d="M259.63,164.74L265.21,173.93L268,170.83L276.38,198.55L279.17,199.27L284.75,199.95L287.54,225.48L290.33,226.74L293.13,228.89L295.92,234.33L298.71,234.34L301.5,234.45L304.29,233.78L307.08,234.17L309.88,235.84L315.46,237.6L318.25,246.3L321.04,246.71L323.83,248.95L326.63,249.08L329.42,250.02L332.21,249.91L335,249.01L340.58,249.48L343.38,248.96L346.17,249.04L348.96,247.85L354.54,247.3L357.33,247.31L360.13,247.43L362.92,249.2L365.71,249.53L368.5,248.78L374.08,248.72L376.88,248.9L379.67,248.15L382.46,248.22L385.25,248L388.04,246.84L402,248.51L404.79,248.21L410.38,248.47L413.17,254.43L418.75,256.37L421.54,256.58L427.13,256.96L429.92,258.36L441.08,258.93L443.88,259.41L455.04,259.66L457.83,260.42L463.42,261.2L466.21,262.26L469,262.51L469,304" style="vector-effect: non-scaling-stroke; fill: none; stroke: rgb(239, 85, 59); stroke-opacity: 1; stroke-width: 2px; opacity: 1;"/></g><g class="points"/><g class="text"/></g></g></g><g class="overplot"/><path class="xlines-above crisp" d="M0,0" style="fill: none;"/><path class="ylines-above crisp" d="M0,0" style="fill: none;"/><g class="overlines-above"/><g class="xaxislayer-above"><g class="xtick"><text text-anchor="middle" x="0" y="433" transform="translate(158.17000000000002,0)" style="font-family: 'Open Sans', verdana, arial, sans-serif; font-size: 12px; fill: rgb(42, 63, 95); fill-opacity: 1; white-space: pre; opacity: 1;">Sep 2022</text></g><g class="xtick"><text text-anchor="middle" x="0" y="433" style="font-family: 'Open Sans', verdana, arial, sans-serif; font-size: 12px; fill: rgb(42, 63, 95); fill-opacity: 1; white-space: pre; opacity: 1;" transform="translate(241.92,0)">Oct 2022</text></g><g class="xtick"><text text-anchor="middle" x="0" y="433" style="font-family: 'Open Sans', verdana, arial, sans-serif; font-size: 12px; fill: rgb(42, 63, 95); fill-opacity: 1; white-space: pre; opacity: 1;" transform="translate(328.46000000000004,0)">Nov 2022</text></g><g class="xtick"><text text-anchor="middle" x="0" y="433" style="font-family: 'Open Sans', verdana, arial, sans-serif; font-size: 12px; fill: rgb(42, 63, 95); fill-opacity: 1; white-space: pre; opacity: 1;" transform="translate(412.21,0)">Dec 2022</text></g><g class="xtick"><text text-anchor="middle" x="0" y="433" style="font-family: 'Open Sans', verdana, arial, sans-serif; font-size: 12px; fill: rgb(42, 63, 95); fill-opacity: 1; white-space: pre; opacity: 1;" transform="translate(498.75,0)">Jan 2023</text></g></g><g class="yaxislayer-above"><g class="ytick"><text text-anchor="end" x="79" y="4.199999999999999" transform="translate(0,387.74)" style="font-family: 'Open Sans', verdana, arial, sans-serif; font-size: 12px; fill: rgb(42, 63, 95); fill-opacity: 1; white-space: pre; opacity: 1;">$0</text></g><g class="ytick"><text text-anchor="end" x="79" y="4.199999999999999" style="font-family: 'Open Sans', verdana, arial, sans-serif; font-size: 12px; fill: rgb(42, 63, 95); fill-opacity: 1; white-space: pre; opacity: 1;" transform="translate(0,338.27)">$100M</text></g><g class="ytick"><text text-anchor="end" x="79" y="4.199999999999999" style="font-family: 'Open Sans', verdana, arial, sans-serif; font-size: 12px; fill: rgb(42, 63, 95); fill-opacity: 1; white-space: pre; opacity: 1;" transform="translate(0,288.78999999999996)">$200M</text></g><g class="ytick"><text text-anchor="end" x="79" y="4.199999999999999" style="font-family: 'Open Sans', verdana, arial, sans-serif; font-size: 12px; fill: rgb(42, 63, 95); fill-opacity: 1; white-space: pre; opacity: 1;" transform="translate(0,239.31)">$300M</text></g><g class="ytick"><text text-anchor="end" x="79" y="4.199999999999999" style="font-family: 'Open Sans', verdana, arial, sans-serif; font-size: 12px; fill: rgb(42, 63, 95); fill-opacity: 1; white-space: pre; opacity: 1;" transform="translate(0,189.84)">$400M</text></g><g class="ytick"><text text-anchor="end" x="79" y="4.199999999999999" style="font-family: 'Open Sans', verdana, arial, sans-serif; font-size: 12px; fill: rgb(42, 63, 95); fill-opacity: 1; white-space: pre; opacity: 1;" transform="translate(0,140.36)">$500M</text></g></g><g class="overaxes-above"/></g></g><g class="polarlayer"/><g class="smithlayer"/><g class="ternarylayer"/><g class="geolayer"/><g class="funnelarealayer"/><g class="pielayer"/><g class="iciclelayer"/><g class="treemaplayer"/><g class="sunburstlayer"/><g class="glimages"/><defs id="topdefs-b90cba"><g class="clips"/><clipPath id="legendb90cba"><rect width="130" height="67" x="0" y="0"/></clipPath></defs><g class="layer-above"><g class="imagelayer"/><g class="shapelayer"/></g><g class="infolayer"><g class="legend" pointer-events="all" transform="translate(558.38,100)"><rect class="bg" shape-rendering="crispEdges" width="130" height="67" x="0" y="0" style="stroke: rgb(68, 68, 68); stroke-opacity: 1; fill: rgb(255, 255, 255); fill-opacity: 1; stroke-width: 0px;"/><g class="scrollbox" transform="" clip-path="url(#legendb90cba)"><text class="legendtitletext" text-anchor="start" x="2" y="18.2" style="font-family: 'Open Sans', verdana, arial, sans-serif; font-size: 14px; fill: rgb(42, 63, 95); fill-opacity: 1; white-space: pre;">Period</text><g class="groups"><g class="traces" transform="translate(0,32.7)" style="opacity: 1;"><text class="legendtext" text-anchor="start" x="40" y="4.680000000000001" style="font-family: 'Open Sans', verdana, arial, sans-serif; font-size: 12px; fill: rgb(42, 63, 95); fill-opacity: 1; white-space: pre;">During Program</text><g class="layers"><g class="legendfill"><path class="js-fill" d="M5,-2h30v6h-30z" style="stroke-width: 0; fill: rgb(99, 110, 250); fill-opacity: 0.5;"/></g><g class="legendlines"><path class="js-line" d="M5,-2h30" style="fill: none; stroke: rgb(99, 110, 250); stroke-opacity: 1; stroke-width: 2px;"/></g><g class="legendsymbols"><g class="legendpoints"/></g></g><rect class="legendtoggle" x="0" y="-9.5" width="124.703125" height="19" style="fill: rgb(0, 0, 0); fill-opacity: 0;"/></g><g class="traces" transform="translate(0,51.7)" style="opacity: 1;"><text class="legendtext" text-anchor="start" x="40" y="4.680000000000001" style="font-family: 'Open Sans', verdana, arial, sans-serif; font-size: 12px; fill: rgb(42, 63, 95); fill-opacity: 1; white-space: pre;">Post-Program</text><g class="layers"><g class="legendfill"><path class="js-fill" d="M5,-2h30v6h-30z" style="stroke-width: 0; fill: rgb(239, 85, 59); fill-opacity: 0.5;"/></g><g class="legendlines"><path class="js-line" d="M5,-2h30" style="fill: none; stroke: rgb(239, 85, 59); stroke-opacity: 1; stroke-width: 2px;"/></g><g class="legendsymbols"><g class="legendpoints"/></g></g><rect class="legendtoggle" x="0" y="-9.5" width="124.703125" height="19" style="fill: rgb(0, 0, 0); fill-opacity: 0;"/></g></g></g><rect class="scrollbar" rx="20" ry="3" width="0" height="0" x="0" y="0" style="fill: rgb(128, 139, 164); fill-opacity: 1;"/></g><g class="g-gtitle"><text class="gtitle" x="35" y="50" text-anchor="start" dy="0em" style="font-family: 'Open Sans', verdana, arial, sans-serif; font-size: 17px; fill: rgb(42, 63, 95); opacity: 1; font-weight: normal; white-space: pre;"><tspan class="line" dy="0em" x="35" y="50">Aave V3 - Aave - Liquidity Mining</tspan><tspan class="line" dy="1.3em" x="35" y="50">​<tspan style="font-size:70%" dy="-0.6em">Cumulative Net Dollar Flow since Program Announcement, Until Program End + 30 Days - At Last Price</tspan><tspan dy="0.42em">​</tspan></tspan></text></g><g class="g-xtitle"><text class="xtitle" x="314.5" y="460.8" text-anchor="middle" style="font-family: 'Open Sans', verdana, arial, sans-serif; font-size: 14px; fill: rgb(42, 63, 95); opacity: 1; font-weight: normal; white-space: pre;">Day</text></g><g class="g-ytitle"><text class="ytitle" transform="rotate(-90,17.496875000000003,260)" x="17.496875000000003" y="260" text-anchor="middle" style="font-family: 'Open Sans', verdana, arial, sans-serif; font-size: 14px; fill: rgb(42, 63, 95); opacity: 1; font-weight: normal; white-space: pre;">Cumulative Net Dollar Flow (N$F)</text></g></g></svg>