<svg class="main-svg" xmlns="http://www.w3.org/2000/svg" xmlns:xlink="http://www.w3.org/1999/xlink" width="700" height="500" style="" viewBox="0 0 700 500"><rect x="0" y="0" width="700" height="500" style="fill: rgb(255, 255, 255); fill-opacity: 1;"/><defs id="defs-d6d39c"><g class="clips"><clipPath id="clipd6d39cxyplot" class="plotclip"><rect width="540" height="320"/></clipPath><clipPath class="axesclip" id="clipd6d39cx"><rect x="80" y="0" width="540" height="500"/></clipPath><clipPath class="axesclip" id="clipd6d39cy"><rect x="0" y="100" width="700" height="320"/></clipPath><clipPath class="axesclip" id="clipd6d39cxy"><rect x="80" y="100" width="540" height="320"/></clipPath></g><g class="gradients"/><g class="patterns"/></defs><g class="bglayer"><rect class="bg" x="80" y="100" width="540" height="320" style="fill: rgb(229, 236, 246); fill-opacity: 1; stroke-width: 0;"/></g><g class="layer-below"><g class="imagelayer"/><g class="shapelayer"/></g><g class="cartesianlayer"><g class="subplot xy"><g class="layer-subplot"><g class="shapelayer"/><g class="imagelayer"/></g><g class="minor-gridlayer"><g class="x"/><g class="y"/></g><g class="gridlayer"><g class="x"><path class="xgrid crisp" transform="translate(140.75,0)" d="M0,100v320" style="stroke: rgb(255, 255, 255); stroke-opacity: 1; stroke-width: 1px;"/><path class="xgrid crisp" transform="translate(245.38,0)" d="M0,100v320" style="stroke: rgb(255, 255, 255); stroke-opacity: 1; stroke-width: 1px;"/><path class="xgrid crisp" transform="translate(346.63,0)" d="M0,100v320" style="stroke: rgb(255, 255, 255); stroke-opacity: 1; stroke-width: 1px;"/><path class="xgrid crisp" transform="translate(451.25,0)" d="M0,100v320" style="stroke: rgb(255, 255, 255); stroke-opacity: 1; stroke-width: 1px;"/><path class="xgrid crisp" transform="translate(555.88,0)" d="M0,100v320" style="stroke: rgb(255, 255, 255); stroke-opacity: 1; stroke-width: 1px;"/></g><g class="y"><path class="ygrid crisp" transform="translate(0,350.65)" d="M80,0h540" style="stroke: rgb(255, 255, 255); stroke-opacity: 1; stroke-width: 1px;"/><path class="ygrid crisp" transform="translate(0,281.3)" d="M80,0h540" style="stroke: rgb(255, 255, 255); stroke-opacity: 1; stroke-width: 1px;"/><path class="ygrid crisp" transform="translate(0,211.95)" d="M80,0h540" style="stroke: rgb(255, 255, 255); stroke-opacity: 1; stroke-width: 1px;"/><path class="ygrid crisp" transform="translate(0,142.6)" d="M80,0h540" style="stroke: rgb(255, 255, 255); stroke-opacity: 1; stroke-width: 1px;"/></g></g><g class="zerolinelayer"><path class="yzl zl crisp" transform="translate(0,420)" d="M80,0h540" style="stroke: rgb(255, 255, 255); stroke-opacity: 1; stroke-width: 2px;"/></g><path class="xlines-below"/><path class="ylines-below"/><g class="overlines-below"/><g class="xaxislayer-below"/><g class="yaxislayer-below"/><g class="overaxes-below"/><g class="plot" transform="translate(80,100)" clip-path="url(#clipd6d39cxyplot)"><g class="scatterlayer mlayer"><g class="trace scatter tracee0a46e" style="stroke-miterlimit: 2;"><g class="fills"><g><path class="js-fill" d="M540,320L0,320L0,218.7L3.38,218.21L6.75,193.45L10.13,138.35L13.5,115.18L16.88,106.41L20.25,101.9L23.63,102.49L27,101.17L30.38,93.53L33.75,93.25L43.88,91.14L47.25,94.96L60.75,94.14L64.13,92.79L70.88,92.7L74.25,91.21L77.63,89.01L81,67.87L84.38,37.56L87.75,16.95L94.5,16L97.88,16.45L101.25,60.88L104.63,60.14L114.75,58.43L118.13,56.49L121.5,54.92L124.88,54.79L131.63,55.34L135,49.42L138.38,51.05L141.75,49.78L145.13,49.27L148.5,82.27L151.88,84.83L155.25,84.34L158.63,84.11L162,82.51L165.38,81.23L168.75,87.12L172.13,86.85L175.5,91.04L178.88,83.85L182.25,94.24L185.63,92.77L189,92.5L192.38,123.07L195.75,109.87L199.13,109.43L202.5,108.03L205.88,106.9L209.25,106.73L216,105.81L219.38,93.67L226.13,92.64L229.5,90.56L236.25,87.84L239.63,87.17L243,86.94L246.38,107.39L249.75,106.08L253.13,106.02L263.25,104.74L266.63,105.33L270,105.17L273.38,103.59L276.75,103.38L280.13,105.47L283.5,115.79L286.88,102.83L290.25,105.45L293.63,105.29L307.13,104.34L310.5,103.52L317.25,103.28L320.63,103.76L327.38,101.64L330.75,101.36L340.88,100.85L344.25,111.94L354.38,110.72L357.75,110.11L374.63,108.81L378,109.61L381.38,111.38L384.75,111.26L388.13,111.17L391.5,114.46L398.25,114.91L401.63,114.23L405,114.12L408.38,114.84L411.75,114.56L415.13,116.45L418.5,123.49L421.88,123.18L428.63,122.29L432,111.85L435.38,110.13L438.75,110.24L442.13,109.7L445.5,106.09L455.63,98.34L459,97.84L462.38,97.08L465.75,97.24L475.88,93.88L479.25,94L482.63,103.74L486,103.45L489.38,100.82L492.75,99.59L496.13,95.9L499.5,76.47L502.88,84.38L506.25,83.59L509.63,83.39L513,73.41L516.38,72.24L519.75,66.72L523.13,78.57L526.5,74.87L529.88,58.84L533.25,57.89L536.63,20.09L540,19.88" style="fill: rgb(99, 110, 250); fill-opacity: 0.5; stroke-width: 0;"/></g></g><g class="errorbars"/><g class="lines"><path class="js-line" d="M0,218.7L3.38,218.21L6.75,193.45L10.13,138.35L13.5,115.18L16.88,106.41L20.25,101.9L23.63,102.49L27,101.17L30.38,93.53L33.75,93.25L43.88,91.14L47.25,94.96L60.75,94.14L64.13,92.79L70.88,92.7L74.25,91.21L77.63,89.01L81,67.87L84.38,37.56L87.75,16.95L94.5,16L97.88,16.45L101.25,60.88L104.63,60.14L114.75,58.43L118.13,56.49L121.5,54.92L124.88,54.79L131.63,55.34L135,49.42L138.38,51.05L141.75,49.78L145.13,49.27L148.5,82.27L151.88,84.83L155.25,84.34L158.63,84.11L162,82.51L165.38,81.23L168.75,87.12L172.13,86.85L175.5,91.04L178.88,83.85L182.25,94.24L185.63,92.77L189,92.5L192.38,123.07L195.75,109.87L199.13,109.43L202.5,108.03L205.88,106.9L209.25,106.73L216,105.81L219.38,93.67L226.13,92.64L229.5,90.56L236.25,87.84L239.63,87.17L243,86.94L246.38,107.39L249.75,106.08L253.13,106.02L263.25,104.74L266.63,105.33L270,105.17L273.38,103.59L276.75,103.38L280.13,105.47L283.5,115.79L286.88,102.83L290.25,105.45L293.63,105.29L307.13,104.34L310.5,103.52L317.25,103.28L320.63,103.76L327.38,101.64L330.75,101.36L340.88,100.85L344.25,111.94L354.38,110.72L357.75,110.11L374.63,108.81L378,109.61L381.38,111.38L384.75,111.26L388.13,111.17L391.5,114.46L398.25,114.91L401.63,114.23L405,114.12L408.38,114.84L411.75,114.56L415.13,116.45L418.5,123.49L421.88,123.18L428.63,122.29L432,111.85L435.38,110.13L438.75,110.24L442.13,109.7L445.5,106.09L455.63,98.34L459,97.84L462.38,97.08L465.75,97.24L475.88,93.88L479.25,94L482.63,103.74L486,103.45L489.38,100.82L492.75,99.59L496.13,95.9L499.5,76.47L502.88,84.38L506.25,83.59L509.63,83.39L513,73.41L516.38,72.24L519.75,66.72L523.13,78.57L526.5,74.87L529.88,58.84L533.25,57.89L536.63,20.09L540,19.88" style="vector-effect: non-scaling-stroke; fill: none; stroke: rgb(99, 110, 250); stroke-opacity: 1; stroke-width: 2px; opacity: 1;"/></g><g class="points"/><g class="text"/></g></g></g><g class="overplot"/><path class="xlines-above crisp" d="M0,0" style="fill: none;"/><path class="ylines-above crisp" d="M0,0" style="fill: none;"/><g class="overlines-above"/><g class="xaxislayer-above"><g class="xtick"><text text-anchor="middle" x="0" y="433" transform="translate(140.75,0)" style="font-family: 'Open Sans', verdana, arial, sans-serif; font-size: 12px; fill: rgb(42, 63, 95); fill-opacity: 1; white-space: pre; opacity: 1;">Oct 2022</text></g><g class="xtick"><text text-anchor="middle" x="0" y="433" style="font-family: 'Open Sans', verdana, arial, sans-serif; font-size: 12px; fill: rgb(42, 63, 95); fill-opacity: 1; white-space: pre; opacity: 1;" transform="translate(245.38,0)">Nov 2022</text></g><g class="xtick"><text text-anchor="middle" x="0" y="433" style="font-family: 'Open Sans', verdana, arial, sans-serif; font-size: 12px; fill: rgb(42, 63, 95); fill-opacity: 1; white-space: pre; opacity: 1;" transform="translate(346.63,0)">Dec 2022</text></g><g class="xtick"><text text-anchor="middle" x="0" y="433" style="font-family: 'Open Sans', verdana, arial, sans-serif; font-size: 12px; fill: rgb(42, 63, 95); fill-opacity: 1; white-space: pre; opacity: 1;" transform="translate(451.25,0)">Jan 2023</text></g><g class="xtick"><text text-anchor="middle" x="0" y="433" style="font-family: 'Open Sans', verdana, arial, sans-serif; font-size: 12px; fill: rgb(42, 63, 95); fill-opacity: 1; white-space: pre; opacity: 1;" transform="translate(555.88,0)">Feb 2023</text></g></g><g class="yaxislayer-above"><g class="ytick"><text text-anchor="end" x="79" y="4.199999999999999" transform="translate(0,420)" style="font-family: 'Open Sans', verdana, arial, sans-serif; font-size: 12px; fill: rgb(42, 63, 95); fill-opacity: 1; white-space: pre; opacity: 1;">$0</text></g><g class="ytick"><text text-anchor="end" x="79" y="4.199999999999999" style="font-family: 'Open Sans', verdana, arial, sans-serif; font-size: 12px; fill: rgb(42, 63, 95); fill-opacity: 1; white-space: pre; opacity: 1;" transform="translate(0,350.65)">$100k</text></g><g class="ytick"><text text-anchor="end" x="79" y="4.199999999999999" style="font-family: 'Open Sans', verdana, arial, sans-serif; font-size: 12px; fill: rgb(42, 63, 95); fill-opacity: 1; white-space: pre; opacity: 1;" transform="translate(0,281.3)">$200k</text></g><g class="ytick"><text text-anchor="end" x="79" y="4.199999999999999" style="font-family: 'Open Sans', verdana, arial, sans-serif; font-size: 12px; fill: rgb(42, 63, 95); fill-opacity: 1; white-space: pre; opacity: 1;" transform="translate(0,211.95)">$300k</text></g><g class="ytick"><text text-anchor="end" x="79" y="4.199999999999999" style="font-family: 'Open Sans', verdana, arial, sans-serif; font-size: 12px; fill: rgb(42, 63, 95); fill-opacity: 1; white-space: pre; opacity: 1;" transform="translate(0,142.6)">$400k</text></g></g><g class="overaxes-above"/></g></g><g class="polarlayer"/><g class="smithlayer"/><g class="ternarylayer"/><g class="geolayer"/><g class="funnelarealayer"/><g class="pielayer"/><g class="iciclelayer"/><g class="treemaplayer"/><g class="sunburstlayer"/><g class="glimages"/><defs id="topdefs-d6d39c"><g class="clips"/></defs><g class="layer-above"><g class="imagelayer"/><g class="shapelayer"/></g><g class="infolayer"><g class="g-gtitle"><text class="gtitle" x="35" y="50" text-anchor="start" dy="0em" style="font-family: 'Open Sans', verdana, arial, sans-serif; font-size: 17px; fill: rgb(42, 63, 95); opacity: 1; font-weight: normal; white-space: pre;"><tspan class="line" dy="0em" x="35" y="50">Beefy - BIFI/OP: Velodrome</tspan><tspan class="line" dy="1.3em" x="35" y="50">​<tspan style="font-size:70%" dy="-0.6em">Cumulative Net Flows since Program Announcement, Until Program End + 30 Days - At Last Price</tspan><tspan dy="0.42em">​</tspan></tspan></text></g><g class="g-xtitle"><text class="xtitle" x="350" y="460.8" text-anchor="middle" style="font-family: 'Open Sans', verdana, arial, sans-serif; font-size: 14px; fill: rgb(42, 63, 95); opacity: 1; font-weight: normal; white-space: pre;">Day</text></g><g class="g-ytitle"><text class="ytitle" transform="rotate(-90,21.496875000000003,260)" x="21.496875000000003" y="260" text-anchor="middle" style="font-family: 'Open Sans', verdana, arial, sans-serif; font-size: 14px; fill: rgb(42, 63, 95); opacity: 1; font-weight: normal; white-space: pre;">Cumulative Net Flows (USD)</text></g></g></svg>