<svg class="main-svg" xmlns="http://www.w3.org/2000/svg" xmlns:xlink="http://www.w3.org/1999/xlink" width="700" height="500" style="" viewBox="0 0 700 500"><rect x="0" y="0" width="700" height="500" style="fill: rgb(255, 255, 255); fill-opacity: 1;"/><defs id="defs-724e92"><g class="clips"><clipPath id="clip724e92xyplot" class="plotclip"><rect width="540" height="320"/></clipPath><clipPath class="axesclip" id="clip724e92x"><rect x="80" y="0" width="540" height="500"/></clipPath><clipPath class="axesclip" id="clip724e92y"><rect x="0" y="100" width="700" height="320"/></clipPath><clipPath class="axesclip" id="clip724e92xy"><rect x="80" y="100" width="540" height="320"/></clipPath></g><g class="gradients"/><g class="patterns"/></defs><g class="bglayer"><rect class="bg" x="80" y="100" width="540" height="320" style="fill: rgb(229, 236, 246); fill-opacity: 1; stroke-width: 0;"/></g><g class="layer-below"><g class="imagelayer"/><g class="shapelayer"/></g><g class="cartesianlayer"><g class="subplot xy"><g class="layer-subplot"><g class="shapelayer"/><g class="imagelayer"/></g><g class="minor-gridlayer"><g class="x"/><g class="y"/></g><g class="gridlayer"><g class="x"><path class="xgrid crisp" transform="translate(122.08,0)" d="M0,100v320" style="stroke: rgb(255, 255, 255); stroke-opacity: 1; stroke-width: 1px;"/><path class="xgrid crisp" transform="translate(230.78,0)" d="M0,100v320" style="stroke: rgb(255, 255, 255); stroke-opacity: 1; stroke-width: 1px;"/><path class="xgrid crisp" transform="translate(335.97,0)" d="M0,100v320" style="stroke: rgb(255, 255, 255); stroke-opacity: 1; stroke-width: 1px;"/><path class="xgrid crisp" transform="translate(444.68,0)" d="M0,100v320" style="stroke: rgb(255, 255, 255); stroke-opacity: 1; stroke-width: 1px;"/><path class="xgrid crisp" transform="translate(553.38,0)" d="M0,100v320" style="stroke: rgb(255, 255, 255); stroke-opacity: 1; stroke-width: 1px;"/></g><g class="y"><path class="ygrid crisp" transform="translate(0,390.88)" d="M80,0h540" style="stroke: rgb(255, 255, 255); stroke-opacity: 1; stroke-width: 1px;"/><path class="ygrid crisp" transform="translate(0,293.71000000000004)" d="M80,0h540" style="stroke: rgb(255, 255, 255); stroke-opacity: 1; stroke-width: 1px;"/><path class="ygrid crisp" transform="translate(0,245.13)" d="M80,0h540" style="stroke: rgb(255, 255, 255); stroke-opacity: 1; stroke-width: 1px;"/><path class="ygrid crisp" transform="translate(0,196.55)" d="M80,0h540" style="stroke: rgb(255, 255, 255); stroke-opacity: 1; stroke-width: 1px;"/><path class="ygrid crisp" transform="translate(0,147.97)" d="M80,0h540" style="stroke: rgb(255, 255, 255); stroke-opacity: 1; stroke-width: 1px;"/></g></g><g class="zerolinelayer"><path class="yzl zl crisp" transform="translate(0,342.3)" d="M80,0h540" style="stroke: rgb(255, 255, 255); stroke-opacity: 1; stroke-width: 2px;"/></g><path class="xlines-below"/><path class="ylines-below"/><g class="overlines-below"/><g class="xaxislayer-below"/><g class="yaxislayer-below"/><g class="overaxes-below"/><g class="plot" transform="translate(80,100)" clip-path="url(#clip724e92xyplot)"><g class="scatterlayer mlayer"><g class="trace scatter trace5e4746" style="stroke-miterlimit: 2;"><g class="fills"><g><path class="js-fill" d="M540,242.3L0,242.3L0,242.3L3.51,240.9L7.01,236.84L10.52,224.45L14.03,218.7L17.53,217.9L21.04,213.96L24.55,211.05L28.05,210.94L31.56,209.34L35.06,206.77L38.57,210.01L42.08,209.74L45.58,211.09L49.09,210.04L56.1,209.45L59.61,209.49L70.13,209.7L73.64,208.89L77.14,208.53L80.65,207.35L87.66,206.73L91.17,207.44L94.68,205.37L98.18,205.34L105.19,205.22L108.7,203.67L112.21,203.66L115.71,207L129.74,206.55L133.25,172.05L136.75,121.9L140.26,103L143.77,100.96L147.27,96.49L150.78,95.39L154.29,99.98L157.79,102.28L161.3,97.33L164.81,99.53L168.31,97.36L171.82,98.46L175.32,92.78L182.34,118.05L185.84,125L189.35,138.69L192.86,143.03L196.36,144.66L199.87,144.74L206.88,144.32L210.39,151.78L217.4,151.56L220.91,156.14L224.42,155.31L227.92,156.65L245.45,158.4L248.96,158.27L259.48,157.4L262.99,154.94L266.49,153.45L270,153.37L273.51,151.78L277.01,151.73L284.03,151.49L287.53,149.22L291.04,148.39L294.55,148.38L298.05,148.37L301.56,153.51L315.58,153.23L319.09,154.37L326.1,154.32L329.61,152.78L343.64,151.47L347.14,152.01L354.16,151.74L357.66,150.16L361.17,151.19L364.68,151.15L371.69,151.07L375.19,150.17L378.7,150.05L382.21,148.24L389.22,148.22L392.73,162.88L396.23,164.37L399.74,164.45L403.25,162.6L406.75,162.87L413.77,168.64L417.27,164.14L420.78,164.16L424.29,162.51L427.79,160.48L431.3,72.4L434.81,71.14L438.31,60.31L441.82,40L445.32,33.45L448.83,26.46L452.34,30.22L455.84,33.89L459.35,29.11L462.86,17.76L466.36,16L469.87,17.36L473.38,24.87L476.88,22.14L480.39,28.45L483.9,29.4L487.4,31.46L490.91,28.47L494.42,20.68L501.43,28.94L504.94,88.88L508.44,170.58L511.95,179.44L515.45,182.67L518.96,181.72L522.47,185.11L525.97,185.93L529.48,185.46L532.99,179.59L540,179.57L540,304" style="fill: rgb(99, 110, 250); fill-opacity: 0.5; stroke-width: 0;"/></g></g><g class="errorbars"/><g class="lines"><path class="js-line" d="M0,242.3L3.51,240.9L7.01,236.84L10.52,224.45L14.03,218.7L17.53,217.9L21.04,213.96L24.55,211.05L28.05,210.94L31.56,209.34L35.06,206.77L38.57,210.01L42.08,209.74L45.58,211.09L49.09,210.04L56.1,209.45L59.61,209.49L70.13,209.7L73.64,208.89L77.14,208.53L80.65,207.35L87.66,206.73L91.17,207.44L94.68,205.37L98.18,205.34L105.19,205.22L108.7,203.67L112.21,203.66L115.71,207L129.74,206.55L133.25,172.05L136.75,121.9L140.26,103L143.77,100.96L147.27,96.49L150.78,95.39L154.29,99.98L157.79,102.28L161.3,97.33L164.81,99.53L168.31,97.36L171.82,98.46L175.32,92.78L182.34,118.05L185.84,125L189.35,138.69L192.86,143.03L196.36,144.66L199.87,144.74L206.88,144.32L210.39,151.78L217.4,151.56L220.91,156.14L224.42,155.31L227.92,156.65L245.45,158.4L248.96,158.27L259.48,157.4L262.99,154.94L266.49,153.45L270,153.37L273.51,151.78L277.01,151.73L284.03,151.49L287.53,149.22L291.04,148.39L294.55,148.38L298.05,148.37L301.56,153.51L315.58,153.23L319.09,154.37L326.1,154.32L329.61,152.78L343.64,151.47L347.14,152.01L354.16,151.74L357.66,150.16L361.17,151.19L364.68,151.15L371.69,151.07L375.19,150.17L378.7,150.05L382.21,148.24L389.22,148.22L392.73,162.88L396.23,164.37L399.74,164.45L403.25,162.6L406.75,162.87L413.77,168.64L417.27,164.14L420.78,164.16L424.29,162.51L427.79,160.48L431.3,72.4L434.81,71.14L438.31,60.31L441.82,40L445.32,33.45L448.83,26.46L452.34,30.22L455.84,33.89L459.35,29.11L462.86,17.76L466.36,16L469.87,17.36L473.38,24.87L476.88,22.14L480.39,28.45L483.9,29.4L487.4,31.46L490.91,28.47L494.42,20.68L501.43,28.94L504.94,88.88L508.44,170.58L511.95,179.44L515.45,182.67L518.96,181.72L522.47,185.11L525.97,185.93L529.48,185.46L532.99,179.59L540,179.57L540,304" style="vector-effect: non-scaling-stroke; fill: none; stroke: rgb(99, 110, 250); stroke-opacity: 1; stroke-width: 2px; opacity: 1;"/></g><g class="points"/><g class="text"/></g></g></g><g class="overplot"/><path class="xlines-above crisp" d="M0,0" style="fill: none;"/><path class="ylines-above crisp" d="M0,0" style="fill: none;"/><g class="overlines-above"/><g class="xaxislayer-above"><g class="xtick"><text text-anchor="middle" x="0" y="433" transform="translate(122.08,0)" style="font-family: 'Open Sans', verdana, arial, sans-serif; font-size: 12px; fill: rgb(42, 63, 95); fill-opacity: 1; white-space: pre; opacity: 1;">Oct 2022</text></g><g class="xtick"><text text-anchor="middle" x="0" y="433" style="font-family: 'Open Sans', verdana, arial, sans-serif; font-size: 12px; fill: rgb(42, 63, 95); fill-opacity: 1; white-space: pre; opacity: 1;" transform="translate(230.78,0)">Nov 2022</text></g><g class="xtick"><text text-anchor="middle" x="0" y="433" style="font-family: 'Open Sans', verdana, arial, sans-serif; font-size: 12px; fill: rgb(42, 63, 95); fill-opacity: 1; white-space: pre; opacity: 1;" transform="translate(335.97,0)">Dec 2022</text></g><g class="xtick"><text text-anchor="middle" x="0" y="433" style="font-family: 'Open Sans', verdana, arial, sans-serif; font-size: 12px; fill: rgb(42, 63, 95); fill-opacity: 1; white-space: pre; opacity: 1;" transform="translate(444.68,0)">Jan 2023</text></g><g class="xtick"><text text-anchor="middle" x="0" y="433" style="font-family: 'Open Sans', verdana, arial, sans-serif; font-size: 12px; fill: rgb(42, 63, 95); fill-opacity: 1; white-space: pre; opacity: 1;" transform="translate(553.38,0)">Feb 2023</text></g></g><g class="yaxislayer-above"><g class="ytick"><text text-anchor="end" x="79" y="4.199999999999999" transform="translate(0,390.88)" style="font-family: 'Open Sans', verdana, arial, sans-serif; font-size: 12px; fill: rgb(42, 63, 95); fill-opacity: 1; white-space: pre; opacity: 1;">$−1M</text></g><g class="ytick"><text text-anchor="end" x="79" y="4.199999999999999" style="font-family: 'Open Sans', verdana, arial, sans-serif; font-size: 12px; fill: rgb(42, 63, 95); fill-opacity: 1; white-space: pre; opacity: 1;" transform="translate(0,342.3)">$0</text></g><g class="ytick"><text text-anchor="end" x="79" y="4.199999999999999" style="font-family: 'Open Sans', verdana, arial, sans-serif; font-size: 12px; fill: rgb(42, 63, 95); fill-opacity: 1; white-space: pre; opacity: 1;" transform="translate(0,293.71000000000004)">$1M</text></g><g class="ytick"><text text-anchor="end" x="79" y="4.199999999999999" style="font-family: 'Open Sans', verdana, arial, sans-serif; font-size: 12px; fill: rgb(42, 63, 95); fill-opacity: 1; white-space: pre; opacity: 1;" transform="translate(0,245.13)">$2M</text></g><g class="ytick"><text text-anchor="end" x="79" y="4.199999999999999" style="font-family: 'Open Sans', verdana, arial, sans-serif; font-size: 12px; fill: rgb(42, 63, 95); fill-opacity: 1; white-space: pre; opacity: 1;" transform="translate(0,196.55)">$3M</text></g><g class="ytick"><text text-anchor="end" x="79" y="4.199999999999999" style="font-family: 'Open Sans', verdana, arial, sans-serif; font-size: 12px; fill: rgb(42, 63, 95); fill-opacity: 1; white-space: pre; opacity: 1;" transform="translate(0,147.97)">$4M</text></g></g><g class="overaxes-above"/></g></g><g class="polarlayer"/><g class="smithlayer"/><g class="ternarylayer"/><g class="geolayer"/><g class="funnelarealayer"/><g class="pielayer"/><g class="iciclelayer"/><g class="treemaplayer"/><g class="sunburstlayer"/><g class="glimages"/><defs id="topdefs-724e92"><g class="clips"/></defs><g class="layer-above"><g class="imagelayer"/><g class="shapelayer"/></g><g class="infolayer"><g class="g-gtitle"><text class="gtitle" x="35" y="50" text-anchor="start" dy="0em" style="font-family: 'Open Sans', verdana, arial, sans-serif; font-size: 17px; fill: rgb(42, 63, 95); opacity: 1; font-weight: normal; white-space: pre;"><tspan class="line" dy="0em" x="35" y="50">Xtoken</tspan><tspan class="line" dy="1.3em" x="35" y="50">​<tspan style="font-size:70%" dy="-0.6em">Cumulative Net Flows since Program Announcement, Until Program End + 30 Days - At Last Price</tspan><tspan dy="0.42em">​</tspan></tspan></text></g><g class="g-xtitle"><text class="xtitle" x="350" y="460.8" text-anchor="middle" style="font-family: 'Open Sans', verdana, arial, sans-serif; font-size: 14px; fill: rgb(42, 63, 95); opacity: 1; font-weight: normal; white-space: pre;">Day</text></g><g class="g-ytitle"><text class="ytitle" transform="rotate(-90,23.840625000000003,260)" x="23.840625000000003" y="260" text-anchor="middle" style="font-family: 'Open Sans', verdana, arial, sans-serif; font-size: 14px; fill: rgb(42, 63, 95); opacity: 1; font-weight: normal; white-space: pre;">Cumulative Net Flows (USD)</text></g></g></svg>