<svg class="main-svg" xmlns="http://www.w3.org/2000/svg" xmlns:xlink="http://www.w3.org/1999/xlink" width="700" height="500" style="" viewBox="0 0 700 500"><rect x="0" y="0" width="700" height="500" style="fill: rgb(255, 255, 255); fill-opacity: 1;"/><defs id="defs-1b6a33"><g class="clips"><clipPath id="clip1b6a33xyplot" class="plotclip"><rect width="540" height="320"/></clipPath><clipPath class="axesclip" id="clip1b6a33x"><rect x="80" y="0" width="540" height="500"/></clipPath><clipPath class="axesclip" id="clip1b6a33y"><rect x="0" y="100" width="700" height="320"/></clipPath><clipPath class="axesclip" id="clip1b6a33xy"><rect x="80" y="100" width="540" height="320"/></clipPath></g><g class="gradients"/><g class="patterns"/></defs><g class="bglayer"><rect class="bg" x="80" y="100" width="540" height="320" style="fill: rgb(229, 236, 246); fill-opacity: 1; stroke-width: 0;"/></g><g class="layer-below"><g class="imagelayer"/><g class="shapelayer"/></g><g class="cartesianlayer"><g class="subplot xy"><g class="layer-subplot"><g class="shapelayer"/><g class="imagelayer"/></g><g class="minor-gridlayer"><g class="x"/><g class="y"/></g><g class="gridlayer"><g class="x"><path class="xgrid crisp" transform="translate(100.11,0)" d="M0,100v320" style="stroke: rgb(255, 255, 255); stroke-opacity: 1; stroke-width: 1px;"/><path class="xgrid crisp" transform="translate(186.28,0)" d="M0,100v320" style="stroke: rgb(255, 255, 255); stroke-opacity: 1; stroke-width: 1px;"/><path class="xgrid crisp" transform="translate(275.32,0)" d="M0,100v320" style="stroke: rgb(255, 255, 255); stroke-opacity: 1; stroke-width: 1px;"/><path class="xgrid crisp" transform="translate(361.49,0)" d="M0,100v320" style="stroke: rgb(255, 255, 255); stroke-opacity: 1; stroke-width: 1px;"/><path class="xgrid crisp" transform="translate(450.53,0)" d="M0,100v320" style="stroke: rgb(255, 255, 255); stroke-opacity: 1; stroke-width: 1px;"/><path class="xgrid crisp" transform="translate(539.5699999999999,0)" d="M0,100v320" style="stroke: rgb(255, 255, 255); stroke-opacity: 1; stroke-width: 1px;"/></g><g class="y"><path class="ygrid crisp" transform="translate(0,377.9)" d="M80,0h540" style="stroke: rgb(255, 255, 255); stroke-opacity: 1; stroke-width: 1px;"/><path class="ygrid crisp" transform="translate(0,335.8)" d="M80,0h540" style="stroke: rgb(255, 255, 255); stroke-opacity: 1; stroke-width: 1px;"/><path class="ygrid crisp" transform="translate(0,293.7)" d="M80,0h540" style="stroke: rgb(255, 255, 255); stroke-opacity: 1; stroke-width: 1px;"/><path class="ygrid crisp" transform="translate(0,251.6)" d="M80,0h540" style="stroke: rgb(255, 255, 255); stroke-opacity: 1; stroke-width: 1px;"/><path class="ygrid crisp" transform="translate(0,209.5)" d="M80,0h540" style="stroke: rgb(255, 255, 255); stroke-opacity: 1; stroke-width: 1px;"/><path class="ygrid crisp" transform="translate(0,167.4)" d="M80,0h540" style="stroke: rgb(255, 255, 255); stroke-opacity: 1; stroke-width: 1px;"/><path class="ygrid crisp" transform="translate(0,125.3)" d="M80,0h540" style="stroke: rgb(255, 255, 255); stroke-opacity: 1; stroke-width: 1px;"/></g></g><g class="zerolinelayer"><path class="yzl zl crisp" transform="translate(0,420)" d="M80,0h540" style="stroke: rgb(255, 255, 255); stroke-opacity: 1; stroke-width: 2px;"/></g><path class="xlines-below"/><path class="ylines-below"/><g class="overlines-below"/><g class="xaxislayer-below"/><g class="yaxislayer-below"/><g class="overaxes-below"/><g class="plot" transform="translate(80,100)" clip-path="url(#clip1b6a33xyplot)"><g class="scatterlayer mlayer"><g class="trace scatter trace5ef412" style="stroke-miterlimit: 2;"><g class="fills"><g><path class="js-fill" d="M540,320L0,320L0,230.06L2.87,212.33L5.74,207.62L8.62,204.88L11.49,203.47L14.36,200.39L17.23,188.19L20.11,185.6L22.98,188.42L25.85,183.88L28.72,180.8L31.6,179.91L34.47,180.18L37.34,177.11L40.21,167.71L45.96,155.14L48.83,152.96L51.7,149.93L54.57,150.78L57.45,153.17L60.32,157.06L63.19,152.83L66.06,145.7L71.81,150.11L74.68,153.1L80.43,154.99L83.3,158.88L86.17,159.95L89.04,160.12L91.91,159.79L94.79,161.64L97.66,149.06L100.53,151.79L103.4,163.68L106.28,163.62L112.02,164.57L114.89,165.6L120.64,172.11L123.51,169.19L126.38,173.56L129.26,175L135,178.27L137.87,177.39L143.62,178.36L146.49,169.95L152.23,169.77L155.11,170.99L157.98,171.8L160.85,171.45L169.47,171L172.34,170.71L175.21,168.92L178.09,168.76L180.96,168.63L183.83,176.02L186.7,175.02L189.57,169.79L192.45,170.21L195.32,165.79L198.19,162.75L201.06,160.86L203.94,143.37L206.81,141.89L209.68,142.3L212.55,141.64L215.43,141.43L218.3,162.23L221.17,168.9L224.04,172.4L226.91,168.81L229.79,173.07L232.66,168.77L235.53,168.54L238.4,168.17L241.28,172.06L244.15,175.63L247.02,174.78L249.89,174.87L252.77,177.41L255.64,179.64L258.51,178.98L261.38,174.68L264.26,175.14L272.87,174.91L275.74,175.25L278.62,174.11L281.49,176.5L284.36,175.46L287.23,172.85L290.11,171.3L292.98,171L295.85,168.61L298.72,162.84L301.6,157.63L304.47,158.58L307.34,157.46L310.21,157.95L313.09,157.24L315.96,151.35L318.83,151.55L321.7,140.92L324.57,150.58L327.45,152.97L333.19,153.51L336.06,154.96L338.94,159.66L341.81,158.82L344.68,159.34L347.55,158.83L353.3,159L356.17,158.71L359.04,162.51L361.91,162.65L364.79,161.18L367.66,155.17L370.53,161.22L373.4,163.04L376.28,162.96L379.15,164.95L382.02,164.93L384.89,162.78L387.77,159.28L390.64,159.39L393.51,155.22L396.38,149.1L399.26,139.57L402.13,138.14L405,140.74L407.87,138.09L410.74,131.58L413.62,131.57L419.36,129.77L422.23,130.38L425.11,127.59L427.98,122.06L430.85,119.08L433.72,117.94L436.6,116.08L439.47,105.65L442.34,83.44L445.21,71.76L448.09,72.55L450.96,56.45L453.83,55.66L456.7,44.43L459.57,43.28L462.45,37.87L465.32,16L468.19,18.98L471.06,23L473.94,22.65L476.81,23.54L479.68,26.84L482.55,50.45L485.43,49.16L488.3,48.95L491.17,37.93L494.04,39.05L496.91,37.77L499.79,38.36L502.66,36.06L505.53,36.96L508.4,41.92L511.28,41.68L514.15,42.67L517.02,54.5L519.89,55.16L522.77,55.58L525.64,55.15L528.51,53.92L531.38,51.64L537.13,51.6L540,44.78" style="fill: rgb(99, 110, 250); fill-opacity: 0.5; stroke-width: 0;"/></g></g><g class="errorbars"/><g class="lines"><path class="js-line" d="M0,230.06L2.87,212.33L5.74,207.62L8.62,204.88L11.49,203.47L14.36,200.39L17.23,188.19L20.11,185.6L22.98,188.42L25.85,183.88L28.72,180.8L31.6,179.91L34.47,180.18L37.34,177.11L40.21,167.71L45.96,155.14L48.83,152.96L51.7,149.93L54.57,150.78L57.45,153.17L60.32,157.06L63.19,152.83L66.06,145.7L71.81,150.11L74.68,153.1L80.43,154.99L83.3,158.88L86.17,159.95L89.04,160.12L91.91,159.79L94.79,161.64L97.66,149.06L100.53,151.79L103.4,163.68L106.28,163.62L112.02,164.57L114.89,165.6L120.64,172.11L123.51,169.19L126.38,173.56L129.26,175L135,178.27L137.87,177.39L143.62,178.36L146.49,169.95L152.23,169.77L155.11,170.99L157.98,171.8L160.85,171.45L169.47,171L172.34,170.71L175.21,168.92L178.09,168.76L180.96,168.63L183.83,176.02L186.7,175.02L189.57,169.79L192.45,170.21L195.32,165.79L198.19,162.75L201.06,160.86L203.94,143.37L206.81,141.89L209.68,142.3L212.55,141.64L215.43,141.43L218.3,162.23L221.17,168.9L224.04,172.4L226.91,168.81L229.79,173.07L232.66,168.77L235.53,168.54L238.4,168.17L241.28,172.06L244.15,175.63L247.02,174.78L249.89,174.87L252.77,177.41L255.64,179.64L258.51,178.98L261.38,174.68L264.26,175.14L272.87,174.91L275.74,175.25L278.62,174.11L281.49,176.5L284.36,175.46L287.23,172.85L290.11,171.3L292.98,171L295.85,168.61L298.72,162.84L301.6,157.63L304.47,158.58L307.34,157.46L310.21,157.95L313.09,157.24L315.96,151.35L318.83,151.55L321.7,140.92L324.57,150.58L327.45,152.97L333.19,153.51L336.06,154.96L338.94,159.66L341.81,158.82L344.68,159.34L347.55,158.83L353.3,159L356.17,158.71L359.04,162.51L361.91,162.65L364.79,161.18L367.66,155.17L370.53,161.22L373.4,163.04L376.28,162.96L379.15,164.95L382.02,164.93L384.89,162.78L387.77,159.28L390.64,159.39L393.51,155.22L396.38,149.1L399.26,139.57L402.13,138.14L405,140.74L407.87,138.09L410.74,131.58L413.62,131.57L419.36,129.77L422.23,130.38L425.11,127.59L427.98,122.06L430.85,119.08L433.72,117.94L436.6,116.08L439.47,105.65L442.34,83.44L445.21,71.76L448.09,72.55L450.96,56.45L453.83,55.66L456.7,44.43L459.57,43.28L462.45,37.87L465.32,16L468.19,18.98L471.06,23L473.94,22.65L476.81,23.54L479.68,26.84L482.55,50.45L485.43,49.16L488.3,48.95L491.17,37.93L494.04,39.05L496.91,37.77L499.79,38.36L502.66,36.06L505.53,36.96L508.4,41.92L511.28,41.68L514.15,42.67L517.02,54.5L519.89,55.16L522.77,55.58L525.64,55.15L528.51,53.92L531.38,51.64L537.13,51.6L540,44.78" style="vector-effect: non-scaling-stroke; fill: none; stroke: rgb(99, 110, 250); stroke-opacity: 1; stroke-width: 2px; opacity: 1;"/></g><g class="points"/><g class="text"/></g></g></g><g class="overplot"/><path class="xlines-above crisp" d="M0,0" style="fill: none;"/><path class="ylines-above crisp" d="M0,0" style="fill: none;"/><g class="overlines-above"/><g class="xaxislayer-above"><g class="xtick"><text text-anchor="middle" x="0" y="433" transform="translate(100.11,0)" style="font-family: 'Open Sans', verdana, arial, sans-serif; font-size: 12px; fill: rgb(42, 63, 95); fill-opacity: 1; white-space: pre; opacity: 1;">Sep 2022</text></g><g class="xtick"><text text-anchor="middle" x="0" y="433" style="font-family: 'Open Sans', verdana, arial, sans-serif; font-size: 12px; fill: rgb(42, 63, 95); fill-opacity: 1; white-space: pre; opacity: 1;" transform="translate(186.28,0)">Oct 2022</text></g><g class="xtick"><text text-anchor="middle" x="0" y="433" style="font-family: 'Open Sans', verdana, arial, sans-serif; font-size: 12px; fill: rgb(42, 63, 95); fill-opacity: 1; white-space: pre; opacity: 1;" transform="translate(275.32,0)">Nov 2022</text></g><g class="xtick"><text text-anchor="middle" x="0" y="433" style="font-family: 'Open Sans', verdana, arial, sans-serif; font-size: 12px; fill: rgb(42, 63, 95); fill-opacity: 1; white-space: pre; opacity: 1;" transform="translate(361.49,0)">Dec 2022</text></g><g class="xtick"><text text-anchor="middle" x="0" y="433" style="font-family: 'Open Sans', verdana, arial, sans-serif; font-size: 12px; fill: rgb(42, 63, 95); fill-opacity: 1; white-space: pre; opacity: 1;" transform="translate(450.53,0)">Jan 2023</text></g><g class="xtick"><text text-anchor="middle" x="0" y="433" style="font-family: 'Open Sans', verdana, arial, sans-serif; font-size: 12px; fill: rgb(42, 63, 95); fill-opacity: 1; white-space: pre; opacity: 1;" transform="translate(539.5699999999999,0)">Feb 2023</text></g><g class="xtick"><text text-anchor="middle" x="0" y="433" style="font-family: 'Open Sans', verdana, arial, sans-serif; font-size: 12px; fill: rgb(42, 63, 95); fill-opacity: 1; white-space: pre; opacity: 1;" transform="translate(620,0)">Mar 2023</text></g></g><g class="yaxislayer-above"><g class="ytick"><text text-anchor="end" x="79" y="4.199999999999999" transform="translate(0,420)" style="font-family: 'Open Sans', verdana, arial, sans-serif; font-size: 12px; fill: rgb(42, 63, 95); fill-opacity: 1; white-space: pre; opacity: 1;">$0</text></g><g class="ytick"><text text-anchor="end" x="79" y="4.199999999999999" style="font-family: 'Open Sans', verdana, arial, sans-serif; font-size: 12px; fill: rgb(42, 63, 95); fill-opacity: 1; white-space: pre; opacity: 1;" transform="translate(0,377.9)">$10M</text></g><g class="ytick"><text text-anchor="end" x="79" y="4.199999999999999" style="font-family: 'Open Sans', verdana, arial, sans-serif; font-size: 12px; fill: rgb(42, 63, 95); fill-opacity: 1; white-space: pre; opacity: 1;" transform="translate(0,335.8)">$20M</text></g><g class="ytick"><text text-anchor="end" x="79" y="4.199999999999999" style="font-family: 'Open Sans', verdana, arial, sans-serif; font-size: 12px; fill: rgb(42, 63, 95); fill-opacity: 1; white-space: pre; opacity: 1;" transform="translate(0,293.7)">$30M</text></g><g class="ytick"><text text-anchor="end" x="79" y="4.199999999999999" style="font-family: 'Open Sans', verdana, arial, sans-serif; font-size: 12px; fill: rgb(42, 63, 95); fill-opacity: 1; white-space: pre; opacity: 1;" transform="translate(0,251.6)">$40M</text></g><g class="ytick"><text text-anchor="end" x="79" y="4.199999999999999" style="font-family: 'Open Sans', verdana, arial, sans-serif; font-size: 12px; fill: rgb(42, 63, 95); fill-opacity: 1; white-space: pre; opacity: 1;" transform="translate(0,209.5)">$50M</text></g><g class="ytick"><text text-anchor="end" x="79" y="4.199999999999999" style="font-family: 'Open Sans', verdana, arial, sans-serif; font-size: 12px; fill: rgb(42, 63, 95); fill-opacity: 1; white-space: pre; opacity: 1;" transform="translate(0,167.4)">$60M</text></g><g class="ytick"><text text-anchor="end" x="79" y="4.199999999999999" style="font-family: 'Open Sans', verdana, arial, sans-serif; font-size: 12px; fill: rgb(42, 63, 95); fill-opacity: 1; white-space: pre; opacity: 1;" transform="translate(0,125.3)">$70M</text></g></g><g class="overaxes-above"/></g></g><g class="polarlayer"/><g class="smithlayer"/><g class="ternarylayer"/><g class="geolayer"/><g class="funnelarealayer"/><g class="pielayer"/><g class="iciclelayer"/><g class="treemaplayer"/><g class="sunburstlayer"/><g class="glimages"/><defs id="topdefs-1b6a33"><g class="clips"/></defs><g class="layer-above"><g class="imagelayer"/><g class="shapelayer"/></g><g class="infolayer"><g class="g-gtitle"><text class="gtitle" x="35" y="50" text-anchor="start" dy="0em" style="font-family: 'Open Sans', verdana, arial, sans-serif; font-size: 17px; fill: rgb(42, 63, 95); opacity: 1; font-weight: normal; white-space: pre;"><tspan class="line" dy="0em" x="35" y="50">Synthetix - All Synthetix Curve Pools</tspan><tspan class="line" dy="1.3em" x="35" y="50">​<tspan style="font-size:70%" dy="-0.6em">Cumulative Net Flows since Program Announcement, Until Program End + 30 Days - At Last Price</tspan><tspan dy="0.42em">​</tspan></tspan></text></g><g class="g-xtitle"><text class="xtitle" x="350" y="460.8" text-anchor="middle" style="font-family: 'Open Sans', verdana, arial, sans-serif; font-size: 14px; fill: rgb(42, 63, 95); opacity: 1; font-weight: normal; white-space: pre;">Day</text></g><g class="g-ytitle"><text class="ytitle" transform="rotate(-90,24.168750000000003,260)" x="24.168750000000003" y="260" text-anchor="middle" style="font-family: 'Open Sans', verdana, arial, sans-serif; font-size: 14px; fill: rgb(42, 63, 95); opacity: 1; font-weight: normal; white-space: pre;">Cumulative Net Flows (USD)</text></g></g></svg>