<svg class="main-svg" xmlns="http://www.w3.org/2000/svg" xmlns:xlink="http://www.w3.org/1999/xlink" width="700" height="500" style="" viewBox="0 0 700 500"><rect x="0" y="0" width="700" height="500" style="fill: rgb(255, 255, 255); fill-opacity: 1;"/><defs id="defs-2c591f"><g class="clips"><clipPath id="clip2c591fxyplot" class="plotclip"><rect width="540" height="320"/></clipPath><clipPath class="axesclip" id="clip2c591fx"><rect x="80" y="0" width="540" height="500"/></clipPath><clipPath class="axesclip" id="clip2c591fy"><rect x="0" y="100" width="700" height="320"/></clipPath><clipPath class="axesclip" id="clip2c591fxy"><rect x="80" y="100" width="540" height="320"/></clipPath></g><g class="gradients"/><g class="patterns"/></defs><g class="bglayer"><rect class="bg" x="80" y="100" width="540" height="320" style="fill: rgb(229, 236, 246); fill-opacity: 1; stroke-width: 0;"/></g><g class="layer-below"><g class="imagelayer"/><g class="shapelayer"/></g><g class="cartesianlayer"><g class="subplot xy"><g class="layer-subplot"><g class="shapelayer"/><g class="imagelayer"/></g><g class="minor-gridlayer"><g class="x"/><g class="y"/></g><g class="gridlayer"><g class="x"><path class="xgrid crisp" transform="translate(101.12,0)" d="M0,100v320" style="stroke: rgb(255, 255, 255); stroke-opacity: 1; stroke-width: 1px;"/><path class="xgrid crisp" transform="translate(191.62,0)" d="M0,100v320" style="stroke: rgb(255, 255, 255); stroke-opacity: 1; stroke-width: 1px;"/><path class="xgrid crisp" transform="translate(285.14,0)" d="M0,100v320" style="stroke: rgb(255, 255, 255); stroke-opacity: 1; stroke-width: 1px;"/><path class="xgrid crisp" transform="translate(375.64,0)" d="M0,100v320" style="stroke: rgb(255, 255, 255); stroke-opacity: 1; stroke-width: 1px;"/><path class="xgrid crisp" transform="translate(469.16,0)" d="M0,100v320" style="stroke: rgb(255, 255, 255); stroke-opacity: 1; stroke-width: 1px;"/><path class="xgrid crisp" transform="translate(562.6800000000001,0)" d="M0,100v320" style="stroke: rgb(255, 255, 255); stroke-opacity: 1; stroke-width: 1px;"/></g><g class="y"><path class="ygrid crisp" transform="translate(0,365.49)" d="M80,0h540" style="stroke: rgb(255, 255, 255); stroke-opacity: 1; stroke-width: 1px;"/><path class="ygrid crisp" transform="translate(0,310.97)" d="M80,0h540" style="stroke: rgb(255, 255, 255); stroke-opacity: 1; stroke-width: 1px;"/><path class="ygrid crisp" transform="translate(0,256.46000000000004)" d="M80,0h540" style="stroke: rgb(255, 255, 255); stroke-opacity: 1; stroke-width: 1px;"/><path class="ygrid crisp" transform="translate(0,201.95)" d="M80,0h540" style="stroke: rgb(255, 255, 255); stroke-opacity: 1; stroke-width: 1px;"/><path class="ygrid crisp" transform="translate(0,147.43)" d="M80,0h540" style="stroke: rgb(255, 255, 255); stroke-opacity: 1; stroke-width: 1px;"/></g></g><g class="zerolinelayer"><path class="yzl zl crisp" transform="translate(0,420)" d="M80,0h540" style="stroke: rgb(255, 255, 255); stroke-opacity: 1; stroke-width: 2px;"/></g><path class="xlines-below"/><path class="ylines-below"/><g class="overlines-below"/><g class="xaxislayer-below"/><g class="yaxislayer-below"/><g class="overaxes-below"/><g class="plot" transform="translate(80,100)" clip-path="url(#clip2c591fxyplot)"><g class="scatterlayer mlayer"><g class="trace scatter trace10e310" style="stroke-miterlimit: 2;"><g class="fills"><g><path class="js-fill" d="M540,320L0,320L0,318.87L3.02,271.47L6.03,262.01L9.05,258.32L12.07,258.25L15.08,251.35L18.1,248.22L21.12,246.58L24.13,248.57L27.15,241.56L30.17,238.78L33.18,234.92L36.2,245.2L39.22,242.21L42.23,244.98L45.25,233.69L48.27,228.75L51.28,225.72L54.3,224.74L57.32,227.91L60.34,232.52L63.35,233.96L66.37,218.04L69.39,208.28L72.4,206.73L75.42,203.7L78.44,209.78L81.45,209.58L84.47,206.23L90.5,206.17L93.52,207.14L96.54,205.21L99.55,204.51L102.57,171.37L105.59,173.71L108.6,180.7L111.62,179.25L114.64,179.14L117.65,180.71L123.69,183.24L126.7,191.65L129.72,187.43L132.74,197.32L135.75,197.3L138.77,198.66L141.79,202.87L144.8,199.67L150.84,198.85L153.85,196.13L159.89,195.67L162.91,193.68L165.92,195.39L168.94,195.12L184.02,195.45L187.04,193.7L190.06,194.53L193.07,209.12L196.09,206.61L199.11,193.15L214.19,193.32L217.21,193.69L220.22,194.75L223.24,192.54L226.26,192.34L229.27,237.72L232.29,243.6L235.31,231.18L238.32,224.25L241.34,231.51L244.36,219.65L247.37,218.17L250.39,217.09L253.41,219.31L256.42,224.28L259.44,223.12L262.46,222.01L265.47,224.16L268.49,224.77L271.51,224.35L274.53,217.82L277.54,218.32L280.56,217.13L283.58,216.97L295.64,216.74L298.66,213.8L301.68,213.89L304.69,209.08L307.71,208.51L310.73,202.31L313.74,187.41L316.76,180.52L319.78,181.03L322.79,178.87L325.81,178.75L328.83,177.06L331.84,172.81L334.86,171.99L337.88,166.66L340.89,163.07L343.91,167.78L346.93,167.78L349.94,167.85L352.96,171.58L355.98,186.3L358.99,186.78L362.01,187.32L365.03,186.34L374.08,186.4L377.09,192.9L380.11,192.77L383.13,188.98L386.15,173.27L389.16,170.02L392.18,175.12L395.2,175.04L398.21,181.37L401.23,181.96L404.25,178.57L407.26,178.6L410.28,182.63L413.3,180.29L419.33,153.58L422.35,151.88L425.36,157.89L428.38,153.39L431.4,151.99L434.41,154.29L440.45,153.28L443.46,157.15L446.48,151.95L449.5,140.9L452.51,137.14L455.53,136.17L458.55,133.92L461.56,105.4L464.58,51.07L467.6,46.65L470.61,49.63L473.63,37.46L476.65,36.53L479.66,18.44L482.68,17.96L485.7,16L488.72,21.39L491.73,34.07L494.75,39.32L497.77,39.3L500.78,49.84L503.8,68.24L506.82,71.02L509.83,71.5L512.85,71.18L515.87,46.35L518.88,48.94L521.9,46.13L524.92,46.46L527.93,43.92L530.95,50.33L533.97,61.53L536.98,61.82L540,63" style="fill: rgb(99, 110, 250); fill-opacity: 0.5; stroke-width: 0;"/></g></g><g class="errorbars"/><g class="lines"><path class="js-line" d="M0,318.87L3.02,271.47L6.03,262.01L9.05,258.32L12.07,258.25L15.08,251.35L18.1,248.22L21.12,246.58L24.13,248.57L27.15,241.56L30.17,238.78L33.18,234.92L36.2,245.2L39.22,242.21L42.23,244.98L45.25,233.69L48.27,228.75L51.28,225.72L54.3,224.74L57.32,227.91L60.34,232.52L63.35,233.96L66.37,218.04L69.39,208.28L72.4,206.73L75.42,203.7L78.44,209.78L81.45,209.58L84.47,206.23L90.5,206.17L93.52,207.14L96.54,205.21L99.55,204.51L102.57,171.37L105.59,173.71L108.6,180.7L111.62,179.25L114.64,179.14L117.65,180.71L123.69,183.24L126.7,191.65L129.72,187.43L132.74,197.32L135.75,197.3L138.77,198.66L141.79,202.87L144.8,199.67L150.84,198.85L153.85,196.13L159.89,195.67L162.91,193.68L165.92,195.39L168.94,195.12L184.02,195.45L187.04,193.7L190.06,194.53L193.07,209.12L196.09,206.61L199.11,193.15L214.19,193.32L217.21,193.69L220.22,194.75L223.24,192.54L226.26,192.34L229.27,237.72L232.29,243.6L235.31,231.18L238.32,224.25L241.34,231.51L244.36,219.65L247.37,218.17L250.39,217.09L253.41,219.31L256.42,224.28L259.44,223.12L262.46,222.01L265.47,224.16L268.49,224.77L271.51,224.35L274.53,217.82L277.54,218.32L280.56,217.13L283.58,216.97L295.64,216.74L298.66,213.8L301.68,213.89L304.69,209.08L307.71,208.51L310.73,202.31L313.74,187.41L316.76,180.52L319.78,181.03L322.79,178.87L325.81,178.75L328.83,177.06L331.84,172.81L334.86,171.99L337.88,166.66L340.89,163.07L343.91,167.78L346.93,167.78L349.94,167.85L352.96,171.58L355.98,186.3L358.99,186.78L362.01,187.32L365.03,186.34L374.08,186.4L377.09,192.9L380.11,192.77L383.13,188.98L386.15,173.27L389.16,170.02L392.18,175.12L395.2,175.04L398.21,181.37L401.23,181.96L404.25,178.57L407.26,178.6L410.28,182.63L413.3,180.29L419.33,153.58L422.35,151.88L425.36,157.89L428.38,153.39L431.4,151.99L434.41,154.29L440.45,153.28L443.46,157.15L446.48,151.95L449.5,140.9L452.51,137.14L455.53,136.17L458.55,133.92L461.56,105.4L464.58,51.07L467.6,46.65L470.61,49.63L473.63,37.46L476.65,36.53L479.66,18.44L482.68,17.96L485.7,16L488.72,21.39L491.73,34.07L494.75,39.32L497.77,39.3L500.78,49.84L503.8,68.24L506.82,71.02L509.83,71.5L512.85,71.18L515.87,46.35L518.88,48.94L521.9,46.13L524.92,46.46L527.93,43.92L530.95,50.33L533.97,61.53L536.98,61.82L540,63" style="vector-effect: non-scaling-stroke; fill: none; stroke: rgb(99, 110, 250); stroke-opacity: 1; stroke-width: 2px; opacity: 1;"/></g><g class="points"/><g class="text"/></g></g></g><g class="overplot"/><path class="xlines-above crisp" d="M0,0" style="fill: none;"/><path class="ylines-above crisp" d="M0,0" style="fill: none;"/><g class="overlines-above"/><g class="xaxislayer-above"><g class="xtick"><text text-anchor="middle" x="0" y="433" transform="translate(101.12,0)" style="font-family: 'Open Sans', verdana, arial, sans-serif; font-size: 12px; fill: rgb(42, 63, 95); fill-opacity: 1; white-space: pre; opacity: 1;">Sep 2022</text></g><g class="xtick"><text text-anchor="middle" x="0" y="433" style="font-family: 'Open Sans', verdana, arial, sans-serif; font-size: 12px; fill: rgb(42, 63, 95); fill-opacity: 1; white-space: pre; opacity: 1;" transform="translate(191.62,0)">Oct 2022</text></g><g class="xtick"><text text-anchor="middle" x="0" y="433" style="font-family: 'Open Sans', verdana, arial, sans-serif; font-size: 12px; fill: rgb(42, 63, 95); fill-opacity: 1; white-space: pre; opacity: 1;" transform="translate(285.14,0)">Nov 2022</text></g><g class="xtick"><text text-anchor="middle" x="0" y="433" style="font-family: 'Open Sans', verdana, arial, sans-serif; font-size: 12px; fill: rgb(42, 63, 95); fill-opacity: 1; white-space: pre; opacity: 1;" transform="translate(375.64,0)">Dec 2022</text></g><g class="xtick"><text text-anchor="middle" x="0" y="433" style="font-family: 'Open Sans', verdana, arial, sans-serif; font-size: 12px; fill: rgb(42, 63, 95); fill-opacity: 1; white-space: pre; opacity: 1;" transform="translate(469.16,0)">Jan 2023</text></g><g class="xtick"><text text-anchor="middle" x="0" y="433" style="font-family: 'Open Sans', verdana, arial, sans-serif; font-size: 12px; fill: rgb(42, 63, 95); fill-opacity: 1; white-space: pre; opacity: 1;" transform="translate(562.6800000000001,0)">Feb 2023</text></g></g><g class="yaxislayer-above"><g class="ytick"><text text-anchor="end" x="79" y="4.199999999999999" transform="translate(0,420)" style="font-family: 'Open Sans', verdana, arial, sans-serif; font-size: 12px; fill: rgb(42, 63, 95); fill-opacity: 1; white-space: pre; opacity: 1;">$0</text></g><g class="ytick"><text text-anchor="end" x="79" y="4.199999999999999" style="font-family: 'Open Sans', verdana, arial, sans-serif; font-size: 12px; fill: rgb(42, 63, 95); fill-opacity: 1; white-space: pre; opacity: 1;" transform="translate(0,365.49)">$5M</text></g><g class="ytick"><text text-anchor="end" x="79" y="4.199999999999999" style="font-family: 'Open Sans', verdana, arial, sans-serif; font-size: 12px; fill: rgb(42, 63, 95); fill-opacity: 1; white-space: pre; opacity: 1;" transform="translate(0,310.97)">$10M</text></g><g class="ytick"><text text-anchor="end" x="79" y="4.199999999999999" style="font-family: 'Open Sans', verdana, arial, sans-serif; font-size: 12px; fill: rgb(42, 63, 95); fill-opacity: 1; white-space: pre; opacity: 1;" transform="translate(0,256.46000000000004)">$15M</text></g><g class="ytick"><text text-anchor="end" x="79" y="4.199999999999999" style="font-family: 'Open Sans', verdana, arial, sans-serif; font-size: 12px; fill: rgb(42, 63, 95); fill-opacity: 1; white-space: pre; opacity: 1;" transform="translate(0,201.95)">$20M</text></g><g class="ytick"><text text-anchor="end" x="79" y="4.199999999999999" style="font-family: 'Open Sans', verdana, arial, sans-serif; font-size: 12px; fill: rgb(42, 63, 95); fill-opacity: 1; white-space: pre; opacity: 1;" transform="translate(0,147.43)">$25M</text></g></g><g class="overaxes-above"/></g></g><g class="polarlayer"/><g class="smithlayer"/><g class="ternarylayer"/><g class="geolayer"/><g class="funnelarealayer"/><g class="pielayer"/><g class="iciclelayer"/><g class="treemaplayer"/><g class="sunburstlayer"/><g class="glimages"/><defs id="topdefs-2c591f"><g class="clips"/></defs><g class="layer-above"><g class="imagelayer"/><g class="shapelayer"/></g><g class="infolayer"><g class="g-gtitle"><text class="gtitle" x="35" y="50" text-anchor="start" dy="0em" style="font-family: 'Open Sans', verdana, arial, sans-serif; font-size: 17px; fill: rgb(42, 63, 95); opacity: 1; font-weight: normal; white-space: pre;"><tspan class="line" dy="0em" x="35" y="50">Synthetix - sETH-ETH: Curve</tspan><tspan class="line" dy="1.3em" x="35" y="50">​<tspan style="font-size:70%" dy="-0.6em">Cumulative Net Flows since Program Announcement, Until Program End + 30 Days - At Last Price</tspan><tspan dy="0.42em">​</tspan></tspan></text></g><g class="g-xtitle"><text class="xtitle" x="350" y="460.8" text-anchor="middle" style="font-family: 'Open Sans', verdana, arial, sans-serif; font-size: 14px; fill: rgb(42, 63, 95); opacity: 1; font-weight: normal; white-space: pre;">Day</text></g><g class="g-ytitle"><text class="ytitle" transform="rotate(-90,24.168750000000003,260)" x="24.168750000000003" y="260" text-anchor="middle" style="font-family: 'Open Sans', verdana, arial, sans-serif; font-size: 14px; fill: rgb(42, 63, 95); opacity: 1; font-weight: normal; white-space: pre;">Cumulative Net Flows (USD)</text></g></g></svg>