<svg class="main-svg" xmlns="http://www.w3.org/2000/svg" xmlns:xlink="http://www.w3.org/1999/xlink" width="700" height="500" style="" viewBox="0 0 700 500"><rect x="0" y="0" width="700" height="500" style="fill: rgb(255, 255, 255); fill-opacity: 1;"/><defs id="defs-fab83c"><g class="clips"><clipPath id="clipfab83cxyplot" class="plotclip"><rect width="540" height="320"/></clipPath><clipPath class="axesclip" id="clipfab83cx"><rect x="80" y="0" width="540" height="500"/></clipPath><clipPath class="axesclip" id="clipfab83cy"><rect x="0" y="100" width="700" height="320"/></clipPath><clipPath class="axesclip" id="clipfab83cxy"><rect x="80" y="100" width="540" height="320"/></clipPath></g><g class="gradients"/><g class="patterns"/></defs><g class="bglayer"><rect class="bg" x="80" y="100" width="540" height="320" style="fill: rgb(229, 236, 246); fill-opacity: 1; stroke-width: 0;"/></g><g class="layer-below"><g class="imagelayer"/><g class="shapelayer"/></g><g class="cartesianlayer"><g class="subplot xy"><g class="layer-subplot"><g class="shapelayer"/><g class="imagelayer"/></g><g class="minor-gridlayer"><g class="x"/><g class="y"/></g><g class="gridlayer"><g class="x"><path class="xgrid crisp" transform="translate(128.06,0)" d="M0,100v320" style="stroke: rgb(255, 255, 255); stroke-opacity: 1; stroke-width: 1px;"/><path class="xgrid crisp" transform="translate(215.71,0)" d="M0,100v320" style="stroke: rgb(255, 255, 255); stroke-opacity: 1; stroke-width: 1px;"/><path class="xgrid crisp" transform="translate(300.52,0)" d="M0,100v320" style="stroke: rgb(255, 255, 255); stroke-opacity: 1; stroke-width: 1px;"/><path class="xgrid crisp" transform="translate(388.17,0)" d="M0,100v320" style="stroke: rgb(255, 255, 255); stroke-opacity: 1; stroke-width: 1px;"/><path class="xgrid crisp" transform="translate(472.98,0)" d="M0,100v320" style="stroke: rgb(255, 255, 255); stroke-opacity: 1; stroke-width: 1px;"/><path class="xgrid crisp" transform="translate(560.63,0)" d="M0,100v320" style="stroke: rgb(255, 255, 255); stroke-opacity: 1; stroke-width: 1px;"/></g><g class="y"><path class="ygrid crisp" transform="translate(0,380.67)" d="M80,0h540" style="stroke: rgb(255, 255, 255); stroke-opacity: 1; stroke-width: 1px;"/><path class="ygrid crisp" transform="translate(0,341.34000000000003)" d="M80,0h540" style="stroke: rgb(255, 255, 255); stroke-opacity: 1; stroke-width: 1px;"/><path class="ygrid crisp" transform="translate(0,302.01)" d="M80,0h540" style="stroke: rgb(255, 255, 255); stroke-opacity: 1; stroke-width: 1px;"/><path class="ygrid crisp" transform="translate(0,262.69)" d="M80,0h540" style="stroke: rgb(255, 255, 255); stroke-opacity: 1; stroke-width: 1px;"/><path class="ygrid crisp" transform="translate(0,223.36)" d="M80,0h540" style="stroke: rgb(255, 255, 255); stroke-opacity: 1; stroke-width: 1px;"/><path class="ygrid crisp" transform="translate(0,184.03)" d="M80,0h540" style="stroke: rgb(255, 255, 255); stroke-opacity: 1; stroke-width: 1px;"/><path class="ygrid crisp" transform="translate(0,144.7)" d="M80,0h540" style="stroke: rgb(255, 255, 255); stroke-opacity: 1; stroke-width: 1px;"/><path class="ygrid crisp" transform="translate(0,105.37)" d="M80,0h540" style="stroke: rgb(255, 255, 255); stroke-opacity: 1; stroke-width: 1px;"/></g></g><g class="zerolinelayer"><path class="yzl zl crisp" transform="translate(0,420)" d="M80,0h540" style="stroke: rgb(255, 255, 255); stroke-opacity: 1; stroke-width: 2px;"/></g><path class="xlines-below"/><path class="ylines-below"/><g class="overlines-below"/><g class="xaxislayer-below"/><g class="yaxislayer-below"/><g class="overaxes-below"/><g class="plot" transform="translate(80,100)" clip-path="url(#clipfab83cxyplot)"><g class="scatterlayer mlayer"><g class="trace scatter trace4fc9a6" style="stroke-miterlimit: 2;"><g class="fills"><g><path class="js-fill" d="M540,320L0,320L0,319.89L5.65,314.15L8.48,312.7L11.31,310.05L14.14,309.37L16.96,308.05L19.79,292.13L22.62,287.83L25.45,287.33L28.27,280.14L31.1,279.03L33.93,275.54L36.75,275.48L42.41,263.89L45.24,261.14L48.06,256.06L50.89,236.94L53.72,235.82L56.54,238.4L59.37,233.31L62.2,134.99L65.03,121.13L67.85,86.53L70.68,72.97L73.51,89.14L76.34,94.28L79.16,95.44L81.99,98.21L84.82,99.14L87.64,100.68L90.47,104.02L93.3,107.61L96.13,128.84L101.78,146.81L104.61,143.46L107.43,143.3L110.26,175.83L113.09,172.15L115.92,174.12L121.57,175.05L124.4,174.48L127.23,175.24L130.05,173.92L132.88,173.73L135.71,172.55L138.53,169.57L141.36,168.96L144.19,166.41L147.02,165.35L149.84,167.02L152.67,169.94L155.5,166.61L158.32,139.71L161.15,129.33L163.98,128.29L166.81,128.84L169.63,122.49L172.46,175.7L175.29,179.77L180.94,174.24L183.77,169.82L186.6,163.13L189.42,152.35L192.25,165.08L195.08,161.82L197.91,155.79L200.73,142.58L203.56,107.8L206.39,107.17L209.21,106.66L212.04,95.43L214.87,102.81L217.7,98.13L220.52,89.94L223.35,87.72L226.18,88.19L229.01,102.79L231.83,96.62L234.66,97.23L237.49,98.14L240.31,97.97L243.14,96.03L245.97,85.97L248.8,81.99L251.62,84.26L254.45,87.63L257.28,94.81L260.1,58.08L262.93,63.92L265.76,84.6L268.59,84.81L271.41,84.61L274.24,89.21L277.07,88.66L279.9,88.89L282.72,89.49L285.55,88.86L288.38,90.46L291.2,90.89L294.03,91.86L296.86,102.23L299.69,102.53L302.51,107.56L305.34,105.96L308.17,97.8L310.99,98.07L313.82,79.61L316.65,79L319.48,76L325.13,74.64L327.96,73.99L330.79,89.1L333.61,115.46L339.27,117.55L342.09,116.23L344.92,116.53L347.75,115.03L356.23,112.05L359.06,112.21L364.71,108.37L367.54,106.5L370.37,105.47L373.19,81.83L376.02,77.97L378.85,85.35L381.68,92.23L384.5,68.94L387.33,68.64L390.16,71.42L392.98,69.45L395.81,71L398.64,93.34L401.47,94.47L407.12,97.05L409.95,95.19L412.77,96.46L415.6,94.64L418.43,93.74L421.26,82.77L424.08,75.69L426.91,71.95L429.74,71.09L432.57,69.05L435.39,67.53L438.22,87.01L441.05,85.82L443.87,70.08L446.7,68.93L449.53,69.01L455.18,66.89L458.01,52.39L460.84,52.56L463.66,50.13L469.32,48.92L472.15,58.59L477.8,56.7L480.63,51.52L486.28,54.9L489.11,62.24L491.94,60.62L494.76,59.99L497.59,62.95L500.42,61.03L503.25,59.92L506.07,55.68L508.9,53.63L511.73,49.23L517.38,49.89L520.21,41.68L523.04,39.63L525.86,33.14L528.69,23.31L531.52,25.55L534.35,24.53L537.17,16.27L540,16" style="fill: rgb(99, 110, 250); fill-opacity: 0.5; stroke-width: 0;"/></g></g><g class="errorbars"/><g class="lines"><path class="js-line" d="M0,319.89L5.65,314.15L8.48,312.7L11.31,310.05L14.14,309.37L16.96,308.05L19.79,292.13L22.62,287.83L25.45,287.33L28.27,280.14L31.1,279.03L33.93,275.54L36.75,275.48L42.41,263.89L45.24,261.14L48.06,256.06L50.89,236.94L53.72,235.82L56.54,238.4L59.37,233.31L62.2,134.99L65.03,121.13L67.85,86.53L70.68,72.97L73.51,89.14L76.34,94.28L79.16,95.44L81.99,98.21L84.82,99.14L87.64,100.68L90.47,104.02L93.3,107.61L96.13,128.84L101.78,146.81L104.61,143.46L107.43,143.3L110.26,175.83L113.09,172.15L115.92,174.12L121.57,175.05L124.4,174.48L127.23,175.24L130.05,173.92L132.88,173.73L135.71,172.55L138.53,169.57L141.36,168.96L144.19,166.41L147.02,165.35L149.84,167.02L152.67,169.94L155.5,166.61L158.32,139.71L161.15,129.33L163.98,128.29L166.81,128.84L169.63,122.49L172.46,175.7L175.29,179.77L180.94,174.24L183.77,169.82L186.6,163.13L189.42,152.35L192.25,165.08L195.08,161.82L197.91,155.79L200.73,142.58L203.56,107.8L206.39,107.17L209.21,106.66L212.04,95.43L214.87,102.81L217.7,98.13L220.52,89.94L223.35,87.72L226.18,88.19L229.01,102.79L231.83,96.62L234.66,97.23L237.49,98.14L240.31,97.97L243.14,96.03L245.97,85.97L248.8,81.99L251.62,84.26L254.45,87.63L257.28,94.81L260.1,58.08L262.93,63.92L265.76,84.6L268.59,84.81L271.41,84.61L274.24,89.21L277.07,88.66L279.9,88.89L282.72,89.49L285.55,88.86L288.38,90.46L291.2,90.89L294.03,91.86L296.86,102.23L299.69,102.53L302.51,107.56L305.34,105.96L308.17,97.8L310.99,98.07L313.82,79.61L316.65,79L319.48,76L325.13,74.64L327.96,73.99L330.79,89.1L333.61,115.46L339.27,117.55L342.09,116.23L344.92,116.53L347.75,115.03L356.23,112.05L359.06,112.21L364.71,108.37L367.54,106.5L370.37,105.47L373.19,81.83L376.02,77.97L378.85,85.35L381.68,92.23L384.5,68.94L387.33,68.64L390.16,71.42L392.98,69.45L395.81,71L398.64,93.34L401.47,94.47L407.12,97.05L409.95,95.19L412.77,96.46L415.6,94.64L418.43,93.74L421.26,82.77L424.08,75.69L426.91,71.95L429.74,71.09L432.57,69.05L435.39,67.53L438.22,87.01L441.05,85.82L443.87,70.08L446.7,68.93L449.53,69.01L455.18,66.89L458.01,52.39L460.84,52.56L463.66,50.13L469.32,48.92L472.15,58.59L477.8,56.7L480.63,51.52L486.28,54.9L489.11,62.24L491.94,60.62L494.76,59.99L497.59,62.95L500.42,61.03L503.25,59.92L506.07,55.68L508.9,53.63L511.73,49.23L517.38,49.89L520.21,41.68L523.04,39.63L525.86,33.14L528.69,23.31L531.52,25.55L534.35,24.53L537.17,16.27L540,16" style="vector-effect: non-scaling-stroke; fill: none; stroke: rgb(99, 110, 250); stroke-opacity: 1; stroke-width: 2px; opacity: 1;"/></g><g class="points"/><g class="text"/></g></g></g><g class="overplot"/><path class="xlines-above crisp" d="M0,0" style="fill: none;"/><path class="ylines-above crisp" d="M0,0" style="fill: none;"/><g class="overlines-above"/><g class="xaxislayer-above"><g class="xtick"><text text-anchor="middle" x="0" y="433" transform="translate(128.06,0)" style="font-family: 'Open Sans', verdana, arial, sans-serif; font-size: 12px; fill: rgb(42, 63, 95); fill-opacity: 1; white-space: pre; opacity: 1;">Aug 2022</text></g><g class="xtick"><text text-anchor="middle" x="0" y="433" style="font-family: 'Open Sans', verdana, arial, sans-serif; font-size: 12px; fill: rgb(42, 63, 95); fill-opacity: 1; white-space: pre; opacity: 1;" transform="translate(215.71,0)">Sep 2022</text></g><g class="xtick"><text text-anchor="middle" x="0" y="433" style="font-family: 'Open Sans', verdana, arial, sans-serif; font-size: 12px; fill: rgb(42, 63, 95); fill-opacity: 1; white-space: pre; opacity: 1;" transform="translate(300.52,0)">Oct 2022</text></g><g class="xtick"><text text-anchor="middle" x="0" y="433" style="font-family: 'Open Sans', verdana, arial, sans-serif; font-size: 12px; fill: rgb(42, 63, 95); fill-opacity: 1; white-space: pre; opacity: 1;" transform="translate(388.17,0)">Nov 2022</text></g><g class="xtick"><text text-anchor="middle" x="0" y="433" style="font-family: 'Open Sans', verdana, arial, sans-serif; font-size: 12px; fill: rgb(42, 63, 95); fill-opacity: 1; white-space: pre; opacity: 1;" transform="translate(472.98,0)">Dec 2022</text></g><g class="xtick"><text text-anchor="middle" x="0" y="433" style="font-family: 'Open Sans', verdana, arial, sans-serif; font-size: 12px; fill: rgb(42, 63, 95); fill-opacity: 1; white-space: pre; opacity: 1;" transform="translate(560.63,0)">Jan 2023</text></g></g><g class="yaxislayer-above"><g class="ytick"><text text-anchor="end" x="79" y="4.199999999999999" transform="translate(0,420)" style="font-family: 'Open Sans', verdana, arial, sans-serif; font-size: 12px; fill: rgb(42, 63, 95); fill-opacity: 1; white-space: pre; opacity: 1;">$0</text></g><g class="ytick"><text text-anchor="end" x="79" y="4.199999999999999" style="font-family: 'Open Sans', verdana, arial, sans-serif; font-size: 12px; fill: rgb(42, 63, 95); fill-opacity: 1; white-space: pre; opacity: 1;" transform="translate(0,380.67)">$1M</text></g><g class="ytick"><text text-anchor="end" x="79" y="4.199999999999999" style="font-family: 'Open Sans', verdana, arial, sans-serif; font-size: 12px; fill: rgb(42, 63, 95); fill-opacity: 1; white-space: pre; opacity: 1;" transform="translate(0,341.34000000000003)">$2M</text></g><g class="ytick"><text text-anchor="end" x="79" y="4.199999999999999" style="font-family: 'Open Sans', verdana, arial, sans-serif; font-size: 12px; fill: rgb(42, 63, 95); fill-opacity: 1; white-space: pre; opacity: 1;" transform="translate(0,302.01)">$3M</text></g><g class="ytick"><text text-anchor="end" x="79" y="4.199999999999999" style="font-family: 'Open Sans', verdana, arial, sans-serif; font-size: 12px; fill: rgb(42, 63, 95); fill-opacity: 1; white-space: pre; opacity: 1;" transform="translate(0,262.69)">$4M</text></g><g class="ytick"><text text-anchor="end" x="79" y="4.199999999999999" style="font-family: 'Open Sans', verdana, arial, sans-serif; font-size: 12px; fill: rgb(42, 63, 95); fill-opacity: 1; white-space: pre; opacity: 1;" transform="translate(0,223.36)">$5M</text></g><g class="ytick"><text text-anchor="end" x="79" y="4.199999999999999" style="font-family: 'Open Sans', verdana, arial, sans-serif; font-size: 12px; fill: rgb(42, 63, 95); fill-opacity: 1; white-space: pre; opacity: 1;" transform="translate(0,184.03)">$6M</text></g><g class="ytick"><text text-anchor="end" x="79" y="4.199999999999999" style="font-family: 'Open Sans', verdana, arial, sans-serif; font-size: 12px; fill: rgb(42, 63, 95); fill-opacity: 1; white-space: pre; opacity: 1;" transform="translate(0,144.7)">$7M</text></g><g class="ytick"><text text-anchor="end" x="79" y="4.199999999999999" style="font-family: 'Open Sans', verdana, arial, sans-serif; font-size: 12px; fill: rgb(42, 63, 95); fill-opacity: 1; white-space: pre; opacity: 1;" transform="translate(0,105.37)">$8M</text></g></g><g class="overaxes-above"/></g></g><g class="polarlayer"/><g class="smithlayer"/><g class="ternarylayer"/><g class="geolayer"/><g class="funnelarealayer"/><g class="pielayer"/><g class="iciclelayer"/><g class="treemaplayer"/><g class="sunburstlayer"/><g class="glimages"/><defs id="topdefs-fab83c"><g class="clips"/></defs><g class="layer-above"><g class="imagelayer"/><g class="shapelayer"/></g><g class="infolayer"><g class="g-gtitle"><text class="gtitle" x="35" y="50" text-anchor="start" dy="0em" style="font-family: 'Open Sans', verdana, arial, sans-serif; font-size: 17px; fill: rgb(42, 63, 95); opacity: 1; font-weight: normal; white-space: pre;"><tspan class="line" dy="0em" x="35" y="50">Rubicon</tspan><tspan class="line" dy="1.3em" x="35" y="50">​<tspan style="font-size:70%" dy="-0.6em">Cumulative Net Dollar Flow since Program Announcement, Until Program End + 30 Days - At Last Price</tspan><tspan dy="0.42em">​</tspan></tspan></text></g><g class="g-xtitle"><text class="xtitle" x="350" y="460.8" text-anchor="middle" style="font-family: 'Open Sans', verdana, arial, sans-serif; font-size: 14px; fill: rgb(42, 63, 95); opacity: 1; font-weight: normal; white-space: pre;">Day</text></g><g class="g-ytitle"><text class="ytitle" transform="rotate(-90,30.856250000000003,260)" x="30.856250000000003" y="260" text-anchor="middle" style="font-family: 'Open Sans', verdana, arial, sans-serif; font-size: 14px; fill: rgb(42, 63, 95); opacity: 1; font-weight: normal; white-space: pre;">Cumulative Net Dollar Flow (N$F)</text></g></g></svg>