<svg class="main-svg" xmlns="http://www.w3.org/2000/svg" xmlns:xlink="http://www.w3.org/1999/xlink" width="700" height="500" style="" viewBox="0 0 700 500"><rect x="0" y="0" width="700" height="500" style="fill: rgb(255, 255, 255); fill-opacity: 1;"/><defs id="defs-f89c76"><g class="clips"><clipPath id="clipf89c76xyplot" class="plotclip"><rect width="540" height="320"/></clipPath><clipPath class="axesclip" id="clipf89c76x"><rect x="80" y="0" width="540" height="500"/></clipPath><clipPath class="axesclip" id="clipf89c76y"><rect x="0" y="100" width="700" height="320"/></clipPath><clipPath class="axesclip" id="clipf89c76xy"><rect x="80" y="100" width="540" height="320"/></clipPath></g><g class="gradients"/><g class="patterns"/></defs><g class="bglayer"><rect class="bg" x="80" y="100" width="540" height="320" style="fill: rgb(229, 236, 246); fill-opacity: 1; stroke-width: 0;"/></g><g class="layer-below"><g class="imagelayer"/><g class="shapelayer"/></g><g class="cartesianlayer"><g class="subplot xy"><g class="layer-subplot"><g class="shapelayer"/><g class="imagelayer"/></g><g class="minor-gridlayer"><g class="x"/><g class="y"/></g><g class="gridlayer"><g class="x"><path class="xgrid crisp" transform="translate(94.3,0)" d="M0,100v320" style="stroke: rgb(255, 255, 255); stroke-opacity: 1; stroke-width: 1px;"/><path class="xgrid crisp" transform="translate(205.17000000000002,0)" d="M0,100v320" style="stroke: rgb(255, 255, 255); stroke-opacity: 1; stroke-width: 1px;"/><path class="xgrid crisp" transform="translate(312.45,0)" d="M0,100v320" style="stroke: rgb(255, 255, 255); stroke-opacity: 1; stroke-width: 1px;"/><path class="xgrid crisp" transform="translate(423.31,0)" d="M0,100v320" style="stroke: rgb(255, 255, 255); stroke-opacity: 1; stroke-width: 1px;"/><path class="xgrid crisp" transform="translate(534.1700000000001,0)" d="M0,100v320" style="stroke: rgb(255, 255, 255); stroke-opacity: 1; stroke-width: 1px;"/></g><g class="y"><path class="ygrid crisp" transform="translate(0,341.18)" d="M80,0h540" style="stroke: rgb(255, 255, 255); stroke-opacity: 1; stroke-width: 1px;"/><path class="ygrid crisp" transform="translate(0,285.45)" d="M80,0h540" style="stroke: rgb(255, 255, 255); stroke-opacity: 1; stroke-width: 1px;"/><path class="ygrid crisp" transform="translate(0,229.72)" d="M80,0h540" style="stroke: rgb(255, 255, 255); stroke-opacity: 1; stroke-width: 1px;"/><path class="ygrid crisp" transform="translate(0,174)" d="M80,0h540" style="stroke: rgb(255, 255, 255); stroke-opacity: 1; stroke-width: 1px;"/><path class="ygrid crisp" transform="translate(0,118.27)" d="M80,0h540" style="stroke: rgb(255, 255, 255); stroke-opacity: 1; stroke-width: 1px;"/></g></g><g class="zerolinelayer"><path class="yzl zl crisp" transform="translate(0,396.9)" d="M80,0h540" style="stroke: rgb(255, 255, 255); stroke-opacity: 1; stroke-width: 2px;"/></g><path class="xlines-below"/><path class="ylines-below"/><g class="overlines-below"/><g class="xaxislayer-below"/><g class="yaxislayer-below"/><g class="overaxes-below"/><g class="plot" transform="translate(80,100)" clip-path="url(#clipf89c76xyplot)"><g class="scatterlayer mlayer"><g class="trace scatter trace74718f" style="stroke-miterlimit: 2;"><g class="fills"><g><path class="js-fill" d="M540,296.9L0,296.9L0,294.69L3.58,295.17L7.15,297.36L10.73,299.05L14.3,299L25.03,296.08L28.61,295.73L32.19,296.53L35.76,294.71L39.34,291.66L42.91,285.24L46.49,283.51L50.07,283.41L53.64,283.45L57.22,281.45L60.79,255.83L64.37,262.05L67.95,252.12L71.52,253.64L78.68,256.33L82.25,256.92L89.4,256.84L92.98,255.34L96.56,255.49L100.13,257.82L107.28,281.12L110.86,279.57L118.01,278.44L121.59,277.82L125.17,279.05L128.74,279.14L132.32,264.51L135.89,264.28L143.05,264.51L146.62,266.31L150.2,299.83L153.77,304L157.35,301.73L160.93,300.48L164.5,302.04L168.08,302.2L171.66,301.13L175.23,298.52L178.81,301.98L182.38,295.75L185.96,289.14L189.54,288.52L193.11,289.89L196.69,289.29L200.26,290.91L203.84,289.67L207.42,262.9L210.99,263L221.72,262.87L225.3,261.24L228.87,262.54L232.45,262.16L239.6,261.32L243.18,256.26L246.75,256.19L250.33,270.73L253.91,271.05L257.48,294.98L261.06,281.78L264.64,281.01L268.21,280.76L271.79,276.59L275.36,269.37L278.94,268.77L282.52,268.16L286.09,269.56L293.25,269.49L296.82,271.45L300.4,270.56L303.97,266.01L307.55,257.47L311.13,257.13L318.28,256.9L321.85,261.34L325.43,269.87L329.01,269.4L332.58,269.36L336.16,271.47L339.74,280.4L343.31,280.18L346.89,274.05L350.46,274.73L354.04,271.83L357.62,273.61L361.19,275.16L364.77,274.22L368.34,276.01L371.92,274.84L375.5,275.05L379.07,274.1L382.65,273.09L386.23,272.87L389.8,274.32L393.38,273.67L396.95,272.91L400.53,273.21L404.11,270.91L407.68,263.61L411.26,269.58L414.83,255.17L418.41,254.36L421.99,254.94L425.56,240.12L429.14,185.54L432.72,176.46L436.29,170.56L443.44,170.82L447.02,165.89L450.6,165.82L454.17,164.59L457.75,154.13L461.32,149.52L464.9,132.22L468.48,128.01L472.05,113.89L475.63,113.46L479.21,106.17L482.78,103.26L486.36,116.8L489.93,111.96L493.51,111.68L497.09,110.35L500.66,120.77L504.24,101.62L507.81,68.59L511.39,80.71L514.97,81.86L518.54,24.97L522.12,28.72L525.7,26.94L529.27,31.01L532.85,30.05L536.42,16.04L540,16" style="fill: rgb(99, 110, 250); fill-opacity: 0.5; stroke-width: 0;"/></g></g><g class="errorbars"/><g class="lines"><path class="js-line" d="M0,294.69L3.58,295.17L7.15,297.36L10.73,299.05L14.3,299L25.03,296.08L28.61,295.73L32.19,296.53L35.76,294.71L39.34,291.66L42.91,285.24L46.49,283.51L50.07,283.41L53.64,283.45L57.22,281.45L60.79,255.83L64.37,262.05L67.95,252.12L71.52,253.64L78.68,256.33L82.25,256.92L89.4,256.84L92.98,255.34L96.56,255.49L100.13,257.82L107.28,281.12L110.86,279.57L118.01,278.44L121.59,277.82L125.17,279.05L128.74,279.14L132.32,264.51L135.89,264.28L143.05,264.51L146.62,266.31L150.2,299.83L153.77,304L157.35,301.73L160.93,300.48L164.5,302.04L168.08,302.2L171.66,301.13L175.23,298.52L178.81,301.98L182.38,295.75L185.96,289.14L189.54,288.52L193.11,289.89L196.69,289.29L200.26,290.91L203.84,289.67L207.42,262.9L210.99,263L221.72,262.87L225.3,261.24L228.87,262.54L232.45,262.16L239.6,261.32L243.18,256.26L246.75,256.19L250.33,270.73L253.91,271.05L257.48,294.98L261.06,281.78L264.64,281.01L268.21,280.76L271.79,276.59L275.36,269.37L278.94,268.77L282.52,268.16L286.09,269.56L293.25,269.49L296.82,271.45L300.4,270.56L303.97,266.01L307.55,257.47L311.13,257.13L318.28,256.9L321.85,261.34L325.43,269.87L329.01,269.4L332.58,269.36L336.16,271.47L339.74,280.4L343.31,280.18L346.89,274.05L350.46,274.73L354.04,271.83L357.62,273.61L361.19,275.16L364.77,274.22L368.34,276.01L371.92,274.84L375.5,275.05L379.07,274.1L382.65,273.09L386.23,272.87L389.8,274.32L393.38,273.67L396.95,272.91L400.53,273.21L404.11,270.91L407.68,263.61L411.26,269.58L414.83,255.17L418.41,254.36L421.99,254.94L425.56,240.12L429.14,185.54L432.72,176.46L436.29,170.56L443.44,170.82L447.02,165.89L450.6,165.82L454.17,164.59L457.75,154.13L461.32,149.52L464.9,132.22L468.48,128.01L472.05,113.89L475.63,113.46L479.21,106.17L482.78,103.26L486.36,116.8L489.93,111.96L493.51,111.68L497.09,110.35L500.66,120.77L504.24,101.62L507.81,68.59L511.39,80.71L514.97,81.86L518.54,24.97L522.12,28.72L525.7,26.94L529.27,31.01L532.85,30.05L536.42,16.04L540,16" style="vector-effect: non-scaling-stroke; fill: none; stroke: rgb(99, 110, 250); stroke-opacity: 1; stroke-width: 2px; opacity: 1;"/></g><g class="points"/><g class="text"/></g></g></g><g class="overplot"/><path class="xlines-above crisp" d="M0,0" style="fill: none;"/><path class="ylines-above crisp" d="M0,0" style="fill: none;"/><g class="overlines-above"/><g class="xaxislayer-above"><g class="xtick"><text text-anchor="middle" x="0" y="433" transform="translate(94.3,0)" style="font-family: 'Open Sans', verdana, arial, sans-serif; font-size: 12px; fill: rgb(42, 63, 95); fill-opacity: 1; white-space: pre; opacity: 1;">Oct 2022</text></g><g class="xtick"><text text-anchor="middle" x="0" y="433" style="font-family: 'Open Sans', verdana, arial, sans-serif; font-size: 12px; fill: rgb(42, 63, 95); fill-opacity: 1; white-space: pre; opacity: 1;" transform="translate(205.17000000000002,0)">Nov 2022</text></g><g class="xtick"><text text-anchor="middle" x="0" y="433" style="font-family: 'Open Sans', verdana, arial, sans-serif; font-size: 12px; fill: rgb(42, 63, 95); fill-opacity: 1; white-space: pre; opacity: 1;" transform="translate(312.45,0)">Dec 2022</text></g><g class="xtick"><text text-anchor="middle" x="0" y="433" style="font-family: 'Open Sans', verdana, arial, sans-serif; font-size: 12px; fill: rgb(42, 63, 95); fill-opacity: 1; white-space: pre; opacity: 1;" transform="translate(423.31,0)">Jan 2023</text></g><g class="xtick"><text text-anchor="middle" x="0" y="433" style="font-family: 'Open Sans', verdana, arial, sans-serif; font-size: 12px; fill: rgb(42, 63, 95); fill-opacity: 1; white-space: pre; opacity: 1;" transform="translate(534.1700000000001,0)">Feb 2023</text></g></g><g class="yaxislayer-above"><g class="ytick"><text text-anchor="end" x="79" y="4.199999999999999" transform="translate(0,396.9)" style="font-family: 'Open Sans', verdana, arial, sans-serif; font-size: 12px; fill: rgb(42, 63, 95); fill-opacity: 1; white-space: pre; opacity: 1;">$0</text></g><g class="ytick"><text text-anchor="end" x="79" y="4.199999999999999" style="font-family: 'Open Sans', verdana, arial, sans-serif; font-size: 12px; fill: rgb(42, 63, 95); fill-opacity: 1; white-space: pre; opacity: 1;" transform="translate(0,341.18)">$1M</text></g><g class="ytick"><text text-anchor="end" x="79" y="4.199999999999999" style="font-family: 'Open Sans', verdana, arial, sans-serif; font-size: 12px; fill: rgb(42, 63, 95); fill-opacity: 1; white-space: pre; opacity: 1;" transform="translate(0,285.45)">$2M</text></g><g class="ytick"><text text-anchor="end" x="79" y="4.199999999999999" style="font-family: 'Open Sans', verdana, arial, sans-serif; font-size: 12px; fill: rgb(42, 63, 95); fill-opacity: 1; white-space: pre; opacity: 1;" transform="translate(0,229.72)">$3M</text></g><g class="ytick"><text text-anchor="end" x="79" y="4.199999999999999" style="font-family: 'Open Sans', verdana, arial, sans-serif; font-size: 12px; fill: rgb(42, 63, 95); fill-opacity: 1; white-space: pre; opacity: 1;" transform="translate(0,174)">$4M</text></g><g class="ytick"><text text-anchor="end" x="79" y="4.199999999999999" style="font-family: 'Open Sans', verdana, arial, sans-serif; font-size: 12px; fill: rgb(42, 63, 95); fill-opacity: 1; white-space: pre; opacity: 1;" transform="translate(0,118.27)">$5M</text></g></g><g class="overaxes-above"/></g></g><g class="polarlayer"/><g class="smithlayer"/><g class="ternarylayer"/><g class="geolayer"/><g class="funnelarealayer"/><g class="pielayer"/><g class="iciclelayer"/><g class="treemaplayer"/><g class="sunburstlayer"/><g class="glimages"/><defs id="topdefs-f89c76"><g class="clips"/></defs><g class="layer-above"><g class="imagelayer"/><g class="shapelayer"/></g><g class="infolayer"><g class="g-gtitle"><text class="gtitle" x="35" y="50" text-anchor="start" dy="0em" style="font-family: 'Open Sans', verdana, arial, sans-serif; font-size: 17px; fill: rgb(42, 63, 95); opacity: 1; font-weight: normal; white-space: pre;"><tspan class="line" dy="0em" x="35" y="50">Synthetix - USDC/SNX: Velo</tspan><tspan class="line" dy="1.3em" x="35" y="50">​<tspan style="font-size:70%" dy="-0.6em">Cumulative Net Flows since Program Announcement, Until Program End + 30 Days - At Last Price</tspan><tspan dy="0.42em">​</tspan></tspan></text></g><g class="g-xtitle"><text class="xtitle" x="350" y="460.8" text-anchor="middle" style="font-family: 'Open Sans', verdana, arial, sans-serif; font-size: 14px; fill: rgb(42, 63, 95); opacity: 1; font-weight: normal; white-space: pre;">Day</text></g><g class="g-ytitle"><text class="ytitle" transform="rotate(-90,30.856250000000003,260)" x="30.856250000000003" y="260" text-anchor="middle" style="font-family: 'Open Sans', verdana, arial, sans-serif; font-size: 14px; fill: rgb(42, 63, 95); opacity: 1; font-weight: normal; white-space: pre;">Cumulative Net Flows (USD)</text></g></g></svg>