<svg class="main-svg" xmlns="http://www.w3.org/2000/svg" xmlns:xlink="http://www.w3.org/1999/xlink" width="700" height="500" style="" viewBox="0 0 700 500"><rect x="0" y="0" width="700" height="500" style="fill: rgb(255, 255, 255); fill-opacity: 1;"/><defs id="defs-c5f02c"><g class="clips"><clipPath id="clipc5f02cxyplot" class="plotclip"><rect width="540" height="320"/></clipPath><clipPath class="axesclip" id="clipc5f02cx"><rect x="80" y="0" width="540" height="500"/></clipPath><clipPath class="axesclip" id="clipc5f02cy"><rect x="0" y="100" width="700" height="320"/></clipPath><clipPath class="axesclip" id="clipc5f02cxy"><rect x="80" y="100" width="540" height="320"/></clipPath></g><g class="gradients"/><g class="patterns"/></defs><g class="bglayer"><rect class="bg" x="80" y="100" width="540" height="320" style="fill: rgb(229, 236, 246); fill-opacity: 1; stroke-width: 0;"/></g><g class="layer-below"><g class="imagelayer"/><g class="shapelayer"/></g><g class="cartesianlayer"><g class="subplot xy"><g class="layer-subplot"><g class="shapelayer"/><g class="imagelayer"/></g><g class="minor-gridlayer"><g class="x"/><g class="y"/></g><g class="gridlayer"><g class="x"><path class="xgrid crisp" transform="translate(93.33,0)" d="M0,100v320" style="stroke: rgb(255, 255, 255); stroke-opacity: 1; stroke-width: 1px;"/><path class="xgrid crisp" transform="translate(196.67000000000002,0)" d="M0,100v320" style="stroke: rgb(255, 255, 255); stroke-opacity: 1; stroke-width: 1px;"/><path class="xgrid crisp" transform="translate(296.66999999999996,0)" d="M0,100v320" style="stroke: rgb(255, 255, 255); stroke-opacity: 1; stroke-width: 1px;"/><path class="xgrid crisp" transform="translate(400,0)" d="M0,100v320" style="stroke: rgb(255, 255, 255); stroke-opacity: 1; stroke-width: 1px;"/><path class="xgrid crisp" transform="translate(503.33,0)" d="M0,100v320" style="stroke: rgb(255, 255, 255); stroke-opacity: 1; stroke-width: 1px;"/><path class="xgrid crisp" transform="translate(596.67,0)" d="M0,100v320" style="stroke: rgb(255, 255, 255); stroke-opacity: 1; stroke-width: 1px;"/></g><g class="y"><path class="ygrid crisp" transform="translate(0,373.92)" d="M80,0h540" style="stroke: rgb(255, 255, 255); stroke-opacity: 1; stroke-width: 1px;"/><path class="ygrid crisp" transform="translate(0,327.83000000000004)" d="M80,0h540" style="stroke: rgb(255, 255, 255); stroke-opacity: 1; stroke-width: 1px;"/><path class="ygrid crisp" transform="translate(0,281.75)" d="M80,0h540" style="stroke: rgb(255, 255, 255); stroke-opacity: 1; stroke-width: 1px;"/><path class="ygrid crisp" transform="translate(0,235.67)" d="M80,0h540" style="stroke: rgb(255, 255, 255); stroke-opacity: 1; stroke-width: 1px;"/><path class="ygrid crisp" transform="translate(0,189.57999999999998)" d="M80,0h540" style="stroke: rgb(255, 255, 255); stroke-opacity: 1; stroke-width: 1px;"/><path class="ygrid crisp" transform="translate(0,143.5)" d="M80,0h540" style="stroke: rgb(255, 255, 255); stroke-opacity: 1; stroke-width: 1px;"/></g></g><g class="zerolinelayer"><path class="yzl zl crisp" transform="translate(0,420)" d="M80,0h540" style="stroke: rgb(255, 255, 255); stroke-opacity: 1; stroke-width: 2px;"/></g><path class="xlines-below"/><path class="ylines-below"/><g class="overlines-below"/><g class="xaxislayer-below"/><g class="yaxislayer-below"/><g class="overaxes-below"/><g class="plot" transform="translate(80,100)" clip-path="url(#clipc5f02cxyplot)"><g class="scatterlayer mlayer"><g class="trace scatter traceafa3e1" style="stroke-miterlimit: 2;"><g class="fills"><g><path class="js-fill" d="M540,320L0,320L0,275.23L3.33,274.34L6.67,266.64L10,265.77L13.33,265.69L16.67,262.31L20,261.65L23.33,259.48L26.67,252.31L30,254.91L33.33,253.01L36.67,252.39L40,252.68L43.33,251.94L46.67,254.77L50,255.99L53.33,258.58L56.67,257L60,256.83L63.33,256.81L66.67,255.14L86.67,254.94L90,254.93L93.33,256.02L96.67,255.38L106.67,253.24L110,253.12L116.67,252.31L120,251.07L123.33,247.44L126.67,246.71L130,246.5L133.33,244.63L136.67,240.27L140,240.84L143.33,240.97L146.67,243L150,245.3L153.33,249.11L156.67,252.15L160,251.96L166.67,252.67L170,246.93L173.33,248.82L176.67,248.98L186.67,245.7L190,246.19L193.33,246.18L196.67,245.08L203.33,244.49L206.67,243.94L210,244.38L213.33,243.34L223.33,243.16L226.67,242.96L230,243.04L233.33,247.5L236.67,248.39L240,247.94L250,245.86L253.33,241.17L256.67,237.83L260,237.43L263.33,245.56L266.67,245.44L273.33,245.48L276.67,244.53L280,243.16L283.33,243.01L290,241.9L293.33,241.98L303.33,241.46L306.67,242.69L330,242.32L333.33,241.82L343.33,241.99L346.67,241.23L350,240.72L353.33,239.02L356.67,238.05L360,235.99L366.67,235.12L370,233.98L376.67,227.65L380,225.58L383.33,224.78L386.67,216.13L390,213.08L393.33,212.08L396.67,202.34L400,196.8L403.33,188.58L406.67,188.31L413.33,183.3L416.67,182.73L420,183.23L423.33,181.75L430,179.91L433.33,181.09L436.67,180.59L440,177.94L443.33,160.33L446.67,150.77L453.33,149.93L456.67,149.43L463.33,149.23L466.67,144.21L470,140.87L473.33,128.64L476.67,126.46L480,129.34L486.67,120.56L490,86.97L493.33,84.05L496.67,84.09L500,64.3L503.33,59.2L506.67,35.42L510,27.79L513.33,27.84L516.67,27.08L520,25.68L523.33,27.89L526.67,28.59L530,30.76L533.33,35.81L536.67,26.28L540,16" style="fill: rgb(99, 110, 250); fill-opacity: 0.5; stroke-width: 0;"/></g></g><g class="errorbars"/><g class="lines"><path class="js-line" d="M0,275.23L3.33,274.34L6.67,266.64L10,265.77L13.33,265.69L16.67,262.31L20,261.65L23.33,259.48L26.67,252.31L30,254.91L33.33,253.01L36.67,252.39L40,252.68L43.33,251.94L46.67,254.77L50,255.99L53.33,258.58L56.67,257L60,256.83L63.33,256.81L66.67,255.14L86.67,254.94L90,254.93L93.33,256.02L96.67,255.38L106.67,253.24L110,253.12L116.67,252.31L120,251.07L123.33,247.44L126.67,246.71L130,246.5L133.33,244.63L136.67,240.27L140,240.84L143.33,240.97L146.67,243L150,245.3L153.33,249.11L156.67,252.15L160,251.96L166.67,252.67L170,246.93L173.33,248.82L176.67,248.98L186.67,245.7L190,246.19L193.33,246.18L196.67,245.08L203.33,244.49L206.67,243.94L210,244.38L213.33,243.34L223.33,243.16L226.67,242.96L230,243.04L233.33,247.5L236.67,248.39L240,247.94L250,245.86L253.33,241.17L256.67,237.83L260,237.43L263.33,245.56L266.67,245.44L273.33,245.48L276.67,244.53L280,243.16L283.33,243.01L290,241.9L293.33,241.98L303.33,241.46L306.67,242.69L330,242.32L333.33,241.82L343.33,241.99L346.67,241.23L350,240.72L353.33,239.02L356.67,238.05L360,235.99L366.67,235.12L370,233.98L376.67,227.65L380,225.58L383.33,224.78L386.67,216.13L390,213.08L393.33,212.08L396.67,202.34L400,196.8L403.33,188.58L406.67,188.31L413.33,183.3L416.67,182.73L420,183.23L423.33,181.75L430,179.91L433.33,181.09L436.67,180.59L440,177.94L443.33,160.33L446.67,150.77L453.33,149.93L456.67,149.43L463.33,149.23L466.67,144.21L470,140.87L473.33,128.64L476.67,126.46L480,129.34L486.67,120.56L490,86.97L493.33,84.05L496.67,84.09L500,64.3L503.33,59.2L506.67,35.42L510,27.79L513.33,27.84L516.67,27.08L520,25.68L523.33,27.89L526.67,28.59L530,30.76L533.33,35.81L536.67,26.28L540,16" style="vector-effect: non-scaling-stroke; fill: none; stroke: rgb(99, 110, 250); stroke-opacity: 1; stroke-width: 2px; opacity: 1;"/></g><g class="points"/><g class="text"/></g></g></g><g class="overplot"/><path class="xlines-above crisp" d="M0,0" style="fill: none;"/><path class="ylines-above crisp" d="M0,0" style="fill: none;"/><g class="overlines-above"/><g class="xaxislayer-above"><g class="xtick"><text text-anchor="middle" x="0" y="433" transform="translate(93.33,0)" style="font-family: 'Open Sans', verdana, arial, sans-serif; font-size: 12px; fill: rgb(42, 63, 95); fill-opacity: 1; white-space: pre; opacity: 1;">Oct 2022</text></g><g class="xtick"><text text-anchor="middle" x="0" y="433" style="font-family: 'Open Sans', verdana, arial, sans-serif; font-size: 12px; fill: rgb(42, 63, 95); fill-opacity: 1; white-space: pre; opacity: 1;" transform="translate(196.67000000000002,0)">Nov 2022</text></g><g class="xtick"><text text-anchor="middle" x="0" y="433" style="font-family: 'Open Sans', verdana, arial, sans-serif; font-size: 12px; fill: rgb(42, 63, 95); fill-opacity: 1; white-space: pre; opacity: 1;" transform="translate(296.66999999999996,0)">Dec 2022</text></g><g class="xtick"><text text-anchor="middle" x="0" y="433" style="font-family: 'Open Sans', verdana, arial, sans-serif; font-size: 12px; fill: rgb(42, 63, 95); fill-opacity: 1; white-space: pre; opacity: 1;" transform="translate(400,0)">Jan 2023</text></g><g class="xtick"><text text-anchor="middle" x="0" y="433" style="font-family: 'Open Sans', verdana, arial, sans-serif; font-size: 12px; fill: rgb(42, 63, 95); fill-opacity: 1; white-space: pre; opacity: 1;" transform="translate(503.33,0)">Feb 2023</text></g><g class="xtick"><text text-anchor="middle" x="0" y="433" style="font-family: 'Open Sans', verdana, arial, sans-serif; font-size: 12px; fill: rgb(42, 63, 95); fill-opacity: 1; white-space: pre; opacity: 1;" transform="translate(596.67,0)">Mar 2023</text></g></g><g class="yaxislayer-above"><g class="ytick"><text text-anchor="end" x="79" y="4.199999999999999" transform="translate(0,420)" style="font-family: 'Open Sans', verdana, arial, sans-serif; font-size: 12px; fill: rgb(42, 63, 95); fill-opacity: 1; white-space: pre; opacity: 1;">$0</text></g><g class="ytick"><text text-anchor="end" x="79" y="4.199999999999999" style="font-family: 'Open Sans', verdana, arial, sans-serif; font-size: 12px; fill: rgb(42, 63, 95); fill-opacity: 1; white-space: pre; opacity: 1;" transform="translate(0,373.92)">$5M</text></g><g class="ytick"><text text-anchor="end" x="79" y="4.199999999999999" style="font-family: 'Open Sans', verdana, arial, sans-serif; font-size: 12px; fill: rgb(42, 63, 95); fill-opacity: 1; white-space: pre; opacity: 1;" transform="translate(0,327.83000000000004)">$10M</text></g><g class="ytick"><text text-anchor="end" x="79" y="4.199999999999999" style="font-family: 'Open Sans', verdana, arial, sans-serif; font-size: 12px; fill: rgb(42, 63, 95); fill-opacity: 1; white-space: pre; opacity: 1;" transform="translate(0,281.75)">$15M</text></g><g class="ytick"><text text-anchor="end" x="79" y="4.199999999999999" style="font-family: 'Open Sans', verdana, arial, sans-serif; font-size: 12px; fill: rgb(42, 63, 95); fill-opacity: 1; white-space: pre; opacity: 1;" transform="translate(0,235.67)">$20M</text></g><g class="ytick"><text text-anchor="end" x="79" y="4.199999999999999" style="font-family: 'Open Sans', verdana, arial, sans-serif; font-size: 12px; fill: rgb(42, 63, 95); fill-opacity: 1; white-space: pre; opacity: 1;" transform="translate(0,189.57999999999998)">$25M</text></g><g class="ytick"><text text-anchor="end" x="79" y="4.199999999999999" style="font-family: 'Open Sans', verdana, arial, sans-serif; font-size: 12px; fill: rgb(42, 63, 95); fill-opacity: 1; white-space: pre; opacity: 1;" transform="translate(0,143.5)">$30M</text></g></g><g class="overaxes-above"/></g></g><g class="polarlayer"/><g class="smithlayer"/><g class="ternarylayer"/><g class="geolayer"/><g class="funnelarealayer"/><g class="pielayer"/><g class="iciclelayer"/><g class="treemaplayer"/><g class="sunburstlayer"/><g class="glimages"/><defs id="topdefs-c5f02c"><g class="clips"/></defs><g class="layer-above"><g class="imagelayer"/><g class="shapelayer"/></g><g class="infolayer"><g class="g-gtitle"><text class="gtitle" x="35" y="50" text-anchor="start" dy="0em" style="font-family: 'Open Sans', verdana, arial, sans-serif; font-size: 17px; fill: rgb(42, 63, 95); opacity: 1; font-weight: normal; white-space: pre;"><tspan class="line" dy="0em" x="35" y="50">Synthetix - ETH/sETH: Velodrome</tspan><tspan class="line" dy="1.3em" x="35" y="50">​<tspan style="font-size:70%" dy="-0.6em">Cumulative Net Flows since Program Announcement, Until Program End + 30 Days - At Last Price</tspan><tspan dy="0.42em">​</tspan></tspan></text></g><g class="g-xtitle"><text class="xtitle" x="350" y="459.8" text-anchor="middle" style="font-family: 'Open Sans', verdana, arial, sans-serif; font-size: 14px; fill: rgb(42, 63, 95); opacity: 1; font-weight: normal; white-space: pre;">Day</text></g><g class="g-ytitle"><text class="ytitle" transform="rotate(-90,21.700000000000003,260)" x="21.700000000000003" y="260" text-anchor="middle" style="font-family: 'Open Sans', verdana, arial, sans-serif; font-size: 14px; fill: rgb(42, 63, 95); opacity: 1; font-weight: normal; white-space: pre;">Cumulative Net Flows (USD)</text></g></g></svg>