<svg class="main-svg" xmlns="http://www.w3.org/2000/svg" xmlns:xlink="http://www.w3.org/1999/xlink" width="700" height="500" style="" viewBox="0 0 700 500"><rect x="0" y="0" width="700" height="500" style="fill: rgb(255, 255, 255); fill-opacity: 1;"/><defs id="defs-7777af"><g class="clips"><clipPath id="clip7777afxyplot" class="plotclip"><rect width="540" height="320"/></clipPath><clipPath class="axesclip" id="clip7777afx"><rect x="80" y="0" width="540" height="500"/></clipPath><clipPath class="axesclip" id="clip7777afy"><rect x="0" y="100" width="700" height="320"/></clipPath><clipPath class="axesclip" id="clip7777afxy"><rect x="80" y="100" width="540" height="320"/></clipPath></g><g class="gradients"/><g class="patterns"/></defs><g class="bglayer"><rect class="bg" x="80" y="100" width="540" height="320" style="fill: rgb(229, 236, 246); fill-opacity: 1; stroke-width: 0;"/></g><g class="layer-below"><g class="imagelayer"/><g class="shapelayer"/></g><g class="cartesianlayer"><g class="subplot xy"><g class="layer-subplot"><g class="shapelayer"/><g class="imagelayer"/></g><g class="minor-gridlayer"><g class="x"/><g class="y"/></g><g class="gridlayer"><g class="x"><path class="xgrid crisp" transform="translate(114.71000000000001,0)" d="M0,100v320" style="stroke: rgb(255, 255, 255); stroke-opacity: 1; stroke-width: 1px;"/><path class="xgrid crisp" transform="translate(234.29,0)" d="M0,100v320" style="stroke: rgb(255, 255, 255); stroke-opacity: 1; stroke-width: 1px;"/><path class="xgrid crisp" transform="translate(350,0)" d="M0,100v320" style="stroke: rgb(255, 255, 255); stroke-opacity: 1; stroke-width: 1px;"/><path class="xgrid crisp" transform="translate(469.57,0)" d="M0,100v320" style="stroke: rgb(255, 255, 255); stroke-opacity: 1; stroke-width: 1px;"/><path class="xgrid crisp" transform="translate(589.14,0)" d="M0,100v320" style="stroke: rgb(255, 255, 255); stroke-opacity: 1; stroke-width: 1px;"/></g><g class="y"><path class="ygrid crisp" transform="translate(0,381.13)" d="M80,0h540" style="stroke: rgb(255, 255, 255); stroke-opacity: 1; stroke-width: 1px;"/><path class="ygrid crisp" transform="translate(0,342.25)" d="M80,0h540" style="stroke: rgb(255, 255, 255); stroke-opacity: 1; stroke-width: 1px;"/><path class="ygrid crisp" transform="translate(0,303.38)" d="M80,0h540" style="stroke: rgb(255, 255, 255); stroke-opacity: 1; stroke-width: 1px;"/><path class="ygrid crisp" transform="translate(0,264.51)" d="M80,0h540" style="stroke: rgb(255, 255, 255); stroke-opacity: 1; stroke-width: 1px;"/><path class="ygrid crisp" transform="translate(0,225.63)" d="M80,0h540" style="stroke: rgb(255, 255, 255); stroke-opacity: 1; stroke-width: 1px;"/><path class="ygrid crisp" transform="translate(0,186.76)" d="M80,0h540" style="stroke: rgb(255, 255, 255); stroke-opacity: 1; stroke-width: 1px;"/><path class="ygrid crisp" transform="translate(0,147.89)" d="M80,0h540" style="stroke: rgb(255, 255, 255); stroke-opacity: 1; stroke-width: 1px;"/><path class="ygrid crisp" transform="translate(0,109.01)" d="M80,0h540" style="stroke: rgb(255, 255, 255); stroke-opacity: 1; stroke-width: 1px;"/></g></g><g class="zerolinelayer"><path class="yzl zl crisp" transform="translate(0,420)" d="M80,0h540" style="stroke: rgb(255, 255, 255); stroke-opacity: 1; stroke-width: 2px;"/></g><path class="xlines-below"/><path class="ylines-below"/><g class="overlines-below"/><g class="xaxislayer-below"/><g class="yaxislayer-below"/><g class="overaxes-below"/><g class="plot" transform="translate(80,100)" clip-path="url(#clip7777afxyplot)"><g class="scatterlayer mlayer"><g class="trace scatter tracea99e26" style="stroke-miterlimit: 2;"><g class="fills"><g><path class="js-fill" d="M540,320L0,320L0,312.92L3.86,303.21L7.71,305.22L11.57,302.74L15.43,315.4L19.29,306.48L23.14,304.03L27,304.17L30.86,295.97L34.71,313.02L38.57,299.04L42.43,289.67L46.29,291.59L50.14,296.92L54,288.63L57.86,289.14L61.71,282.9L65.57,283.06L69.43,288.14L73.29,284.94L77.14,285.52L81,292.39L84.86,288.51L88.71,288L92.57,291.38L96.43,291.27L100.29,287.69L104.14,282.76L108,281.41L111.86,274.55L115.71,275.69L119.57,273.78L123.43,276.7L127.29,278.3L131.14,264.94L135,204.05L138.86,94.18L142.71,69.07L146.57,67.3L154.29,41.98L158.14,45.55L162,16L165.86,18.95L169.71,21.01L173.57,29.69L177.43,33.16L181.29,24.06L185.14,49.44L189,82.46L192.86,72.38L196.71,78L200.57,80.42L204.43,85.39L208.29,85.09L212.14,78.78L216,76.56L219.86,79.04L223.71,78.74L227.57,88.74L231.43,77.21L235.29,73.07L239.14,73.31L243,76.4L246.86,73.81L250.71,73.18L254.57,81.85L258.43,95.07L262.29,85.4L266.14,47.97L270,44.75L273.86,48.63L277.71,60.3L281.57,62.31L285.43,66.17L289.29,60.4L297,61.53L300.86,62.17L304.71,72.96L308.57,71.79L316.29,72.75L320.14,60.31L324,64L327.86,52.19L331.71,53.02L335.57,29.28L339.43,38.83L343.29,36.1L347.14,55.29L351,48.33L354.86,61.05L358.71,58.42L362.57,60.08L366.43,62.8L370.29,60.51L374.14,70.87L378,74.04L381.86,75.23L385.71,75.21L389.57,76.44L393.43,72.02L397.29,69.52L401.14,57.67L405,75.38L408.86,84.63L412.71,90.54L416.57,91.93L420.43,87.42L424.29,85.08L428.14,100.84L432,106.65L435.86,103.49L439.71,113.14L443.57,113.29L447.43,135.6L451.29,153.43L455.14,186.26L459,189.69L462.86,184.76L466.71,188.23L470.57,176.56L474.43,181.7L478.29,175.66L482.14,183.55L486,172.98L489.86,169.5L493.71,171.53L497.57,168.03L501.43,162.06L505.29,153.86L509.14,151.22L513,159.47L516.86,154.42L520.71,150.75L532.29,138.08L536.14,148.09L540,148.13" style="fill: rgb(99, 110, 250); fill-opacity: 0.5; stroke-width: 0;"/></g></g><g class="errorbars"/><g class="lines"><path class="js-line" d="M0,312.92L3.86,303.21L7.71,305.22L11.57,302.74L15.43,315.4L19.29,306.48L23.14,304.03L27,304.17L30.86,295.97L34.71,313.02L38.57,299.04L42.43,289.67L46.29,291.59L50.14,296.92L54,288.63L57.86,289.14L61.71,282.9L65.57,283.06L69.43,288.14L73.29,284.94L77.14,285.52L81,292.39L84.86,288.51L88.71,288L92.57,291.38L96.43,291.27L100.29,287.69L104.14,282.76L108,281.41L111.86,274.55L115.71,275.69L119.57,273.78L123.43,276.7L127.29,278.3L131.14,264.94L135,204.05L138.86,94.18L142.71,69.07L146.57,67.3L154.29,41.98L158.14,45.55L162,16L165.86,18.95L169.71,21.01L173.57,29.69L177.43,33.16L181.29,24.06L185.14,49.44L189,82.46L192.86,72.38L196.71,78L200.57,80.42L204.43,85.39L208.29,85.09L212.14,78.78L216,76.56L219.86,79.04L223.71,78.74L227.57,88.74L231.43,77.21L235.29,73.07L239.14,73.31L243,76.4L246.86,73.81L250.71,73.18L254.57,81.85L258.43,95.07L262.29,85.4L266.14,47.97L270,44.75L273.86,48.63L277.71,60.3L281.57,62.31L285.43,66.17L289.29,60.4L297,61.53L300.86,62.17L304.71,72.96L308.57,71.79L316.29,72.75L320.14,60.31L324,64L327.86,52.19L331.71,53.02L335.57,29.28L339.43,38.83L343.29,36.1L347.14,55.29L351,48.33L354.86,61.05L358.71,58.42L362.57,60.08L366.43,62.8L370.29,60.51L374.14,70.87L378,74.04L381.86,75.23L385.71,75.21L389.57,76.44L393.43,72.02L397.29,69.52L401.14,57.67L405,75.38L408.86,84.63L412.71,90.54L416.57,91.93L420.43,87.42L424.29,85.08L428.14,100.84L432,106.65L435.86,103.49L439.71,113.14L443.57,113.29L447.43,135.6L451.29,153.43L455.14,186.26L459,189.69L462.86,184.76L466.71,188.23L470.57,176.56L474.43,181.7L478.29,175.66L482.14,183.55L486,172.98L489.86,169.5L493.71,171.53L497.57,168.03L501.43,162.06L505.29,153.86L509.14,151.22L513,159.47L516.86,154.42L520.71,150.75L532.29,138.08L536.14,148.09L540,148.13" style="vector-effect: non-scaling-stroke; fill: none; stroke: rgb(99, 110, 250); stroke-opacity: 1; stroke-width: 2px; opacity: 1;"/></g><g class="points"/><g class="text"/></g></g></g><g class="overplot"/><path class="xlines-above crisp" d="M0,0" style="fill: none;"/><path class="ylines-above crisp" d="M0,0" style="fill: none;"/><g class="overlines-above"/><g class="xaxislayer-above"><g class="xtick"><text text-anchor="middle" x="0" y="433" transform="translate(114.71000000000001,0)" style="font-family: 'Open Sans', verdana, arial, sans-serif; font-size: 12px; fill: rgb(42, 63, 95); fill-opacity: 1; white-space: pre; opacity: 1;">Oct 2022</text></g><g class="xtick"><text text-anchor="middle" x="0" y="433" style="font-family: 'Open Sans', verdana, arial, sans-serif; font-size: 12px; fill: rgb(42, 63, 95); fill-opacity: 1; white-space: pre; opacity: 1;" transform="translate(234.29,0)">Nov 2022</text></g><g class="xtick"><text text-anchor="middle" x="0" y="433" style="font-family: 'Open Sans', verdana, arial, sans-serif; font-size: 12px; fill: rgb(42, 63, 95); fill-opacity: 1; white-space: pre; opacity: 1;" transform="translate(350,0)">Dec 2022</text></g><g class="xtick"><text text-anchor="middle" x="0" y="433" style="font-family: 'Open Sans', verdana, arial, sans-serif; font-size: 12px; fill: rgb(42, 63, 95); fill-opacity: 1; white-space: pre; opacity: 1;" transform="translate(469.57,0)">Jan 2023</text></g><g class="xtick"><text text-anchor="middle" x="0" y="433" style="font-family: 'Open Sans', verdana, arial, sans-serif; font-size: 12px; fill: rgb(42, 63, 95); fill-opacity: 1; white-space: pre; opacity: 1;" transform="translate(589.14,0)">Feb 2023</text></g></g><g class="yaxislayer-above"><g class="ytick"><text text-anchor="end" x="79" y="4.199999999999999" transform="translate(0,420)" style="font-family: 'Open Sans', verdana, arial, sans-serif; font-size: 12px; fill: rgb(42, 63, 95); fill-opacity: 1; white-space: pre; opacity: 1;">$0</text></g><g class="ytick"><text text-anchor="end" x="79" y="4.199999999999999" style="font-family: 'Open Sans', verdana, arial, sans-serif; font-size: 12px; fill: rgb(42, 63, 95); fill-opacity: 1; white-space: pre; opacity: 1;" transform="translate(0,381.13)">$1M</text></g><g class="ytick"><text text-anchor="end" x="79" y="4.199999999999999" style="font-family: 'Open Sans', verdana, arial, sans-serif; font-size: 12px; fill: rgb(42, 63, 95); fill-opacity: 1; white-space: pre; opacity: 1;" transform="translate(0,342.25)">$2M</text></g><g class="ytick"><text text-anchor="end" x="79" y="4.199999999999999" style="font-family: 'Open Sans', verdana, arial, sans-serif; font-size: 12px; fill: rgb(42, 63, 95); fill-opacity: 1; white-space: pre; opacity: 1;" transform="translate(0,303.38)">$3M</text></g><g class="ytick"><text text-anchor="end" x="79" y="4.199999999999999" style="font-family: 'Open Sans', verdana, arial, sans-serif; font-size: 12px; fill: rgb(42, 63, 95); fill-opacity: 1; white-space: pre; opacity: 1;" transform="translate(0,264.51)">$4M</text></g><g class="ytick"><text text-anchor="end" x="79" y="4.199999999999999" style="font-family: 'Open Sans', verdana, arial, sans-serif; font-size: 12px; fill: rgb(42, 63, 95); fill-opacity: 1; white-space: pre; opacity: 1;" transform="translate(0,225.63)">$5M</text></g><g class="ytick"><text text-anchor="end" x="79" y="4.199999999999999" style="font-family: 'Open Sans', verdana, arial, sans-serif; font-size: 12px; fill: rgb(42, 63, 95); fill-opacity: 1; white-space: pre; opacity: 1;" transform="translate(0,186.76)">$6M</text></g><g class="ytick"><text text-anchor="end" x="79" y="4.199999999999999" style="font-family: 'Open Sans', verdana, arial, sans-serif; font-size: 12px; fill: rgb(42, 63, 95); fill-opacity: 1; white-space: pre; opacity: 1;" transform="translate(0,147.89)">$7M</text></g><g class="ytick"><text text-anchor="end" x="79" y="4.199999999999999" style="font-family: 'Open Sans', verdana, arial, sans-serif; font-size: 12px; fill: rgb(42, 63, 95); fill-opacity: 1; white-space: pre; opacity: 1;" transform="translate(0,109.01)">$8M</text></g></g><g class="overaxes-above"/></g></g><g class="polarlayer"/><g class="smithlayer"/><g class="ternarylayer"/><g class="geolayer"/><g class="funnelarealayer"/><g class="pielayer"/><g class="iciclelayer"/><g class="treemaplayer"/><g class="sunburstlayer"/><g class="glimages"/><defs id="topdefs-7777af"><g class="clips"/></defs><g class="layer-above"><g class="imagelayer"/><g class="shapelayer"/></g><g class="infolayer"><g class="g-gtitle"><text class="gtitle" x="35" y="50" text-anchor="start" dy="0em" style="font-family: 'Open Sans', verdana, arial, sans-serif; font-size: 17px; fill: rgb(42, 63, 95); opacity: 1; font-weight: normal; white-space: pre;"><tspan class="line" dy="0em" x="35" y="50">Hop Protocol</tspan><tspan class="line" dy="1.3em" x="35" y="50">​<tspan style="font-size:70%" dy="-0.6em">Cumulative Net Flows since Program Announcement, Until Program End + 30 Days - At Last Price</tspan><tspan dy="0.42em">​</tspan></tspan></text></g><g class="g-xtitle"><text class="xtitle" x="350" y="460.3" text-anchor="middle" style="font-family: 'Open Sans', verdana, arial, sans-serif; font-size: 14px; fill: rgb(42, 63, 95); opacity: 1; font-weight: normal; white-space: pre;">Day</text></g><g class="g-ytitle"><text class="ytitle" transform="rotate(-90,28.825000000000003,260)" x="28.825000000000003" y="260" text-anchor="middle" style="font-family: 'Open Sans', verdana, arial, sans-serif; font-size: 14px; fill: rgb(42, 63, 95); opacity: 1; font-weight: normal; white-space: pre;">Cumulative Net Flows (USD)</text></g></g></svg>