<svg class="main-svg" xmlns="http://www.w3.org/2000/svg" xmlns:xlink="http://www.w3.org/1999/xlink" width="700" height="500" style="" viewBox="0 0 700 500"><rect x="0" y="0" width="700" height="500" style="fill: rgb(255, 255, 255); fill-opacity: 1;"/><defs id="defs-e2cb54"><g class="clips"><clipPath id="clipe2cb54xyplot" class="plotclip"><rect width="458" height="320"/></clipPath><clipPath class="axesclip" id="clipe2cb54x"><rect x="80" y="0" width="458" height="500"/></clipPath><clipPath class="axesclip" id="clipe2cb54y"><rect x="0" y="100" width="700" height="320"/></clipPath><clipPath class="axesclip" id="clipe2cb54xy"><rect x="80" y="100" width="458" height="320"/></clipPath></g><g class="gradients"/><g class="patterns"/></defs><g class="bglayer"><rect class="bg" x="80" y="100" width="458" height="320" style="fill: rgb(229, 236, 246); fill-opacity: 1; stroke-width: 0;"/></g><g class="layer-below"><g class="imagelayer"/><g class="shapelayer"/></g><g class="cartesianlayer"><g class="subplot xy"><g class="layer-subplot"><g class="shapelayer"/><g class="imagelayer"/></g><g class="minor-gridlayer"><g class="x"/><g class="y"/></g><g class="gridlayer"><g class="x"><path class="xgrid crisp" transform="translate(137.63,0)" d="M0,100v320" style="stroke: rgb(255, 255, 255); stroke-opacity: 1; stroke-width: 1px;"/><path class="xgrid crisp" transform="translate(231.66,0)" d="M0,100v320" style="stroke: rgb(255, 255, 255); stroke-opacity: 1; stroke-width: 1px;"/><path class="xgrid crisp" transform="translate(322.65,0)" d="M0,100v320" style="stroke: rgb(255, 255, 255); stroke-opacity: 1; stroke-width: 1px;"/><path class="xgrid crisp" transform="translate(416.68,0)" d="M0,100v320" style="stroke: rgb(255, 255, 255); stroke-opacity: 1; stroke-width: 1px;"/><path class="xgrid crisp" transform="translate(507.67,0)" d="M0,100v320" style="stroke: rgb(255, 255, 255); stroke-opacity: 1; stroke-width: 1px;"/></g><g class="y"><path class="ygrid crisp" transform="translate(0,359.46)" d="M80,0h458" style="stroke: rgb(255, 255, 255); stroke-opacity: 1; stroke-width: 1px;"/><path class="ygrid crisp" transform="translate(0,298.93)" d="M80,0h458" style="stroke: rgb(255, 255, 255); stroke-opacity: 1; stroke-width: 1px;"/><path class="ygrid crisp" transform="translate(0,238.39)" d="M80,0h458" style="stroke: rgb(255, 255, 255); stroke-opacity: 1; stroke-width: 1px;"/><path class="ygrid crisp" transform="translate(0,177.85)" d="M80,0h458" style="stroke: rgb(255, 255, 255); stroke-opacity: 1; stroke-width: 1px;"/><path class="ygrid crisp" transform="translate(0,117.32)" d="M80,0h458" style="stroke: rgb(255, 255, 255); stroke-opacity: 1; stroke-width: 1px;"/></g></g><g class="zerolinelayer"><path class="yzl zl crisp" transform="translate(0,420)" d="M80,0h458" style="stroke: rgb(255, 255, 255); stroke-opacity: 1; stroke-width: 2px;"/></g><path class="xlines-below"/><path class="ylines-below"/><g class="overlines-below"/><g class="xaxislayer-below"/><g class="yaxislayer-below"/><g class="overaxes-below"/><g class="plot" transform="translate(80,100)" clip-path="url(#clipe2cb54xyplot)"><g class="scatterlayer mlayer"><g class="trace scatter trace093864" style="stroke-miterlimit: 2;"><g class="fills"><g><path class="js-fill" d="M385.21,320L0,320L0,318.72L3.03,314.81L6.07,299.48L9.1,285.33L12.13,250.94L15.17,242.27L18.2,222.07L21.23,209.6L24.26,188.7L27.3,183.53L30.33,175.76L33.36,169.89L36.4,162.35L39.43,148.97L42.46,140.45L45.5,106.63L48.53,93.66L54.6,22.53L57.63,17.24L60.66,16L63.7,28.57L66.73,26.07L69.76,55.68L72.79,38.75L75.83,43.29L78.86,49.91L81.89,48.71L87.96,68.52L90.99,100.15L97.06,143.91L100.09,155.89L103.13,177.35L106.16,181.57L109.19,189.64L112.23,177.71L115.26,180.19L118.29,192.81L121.32,193.37L124.36,192.33L127.39,192.33L130.42,188.42L133.46,194.04L136.49,194.49L139.52,194.09L142.56,194.86L148.62,202.63L151.66,202.22L154.69,202.58L160.75,201.78L163.79,202.53L166.82,212L169.85,212.82L172.89,209.82L175.92,216.38L178.95,218.61L188.05,221.21L191.09,229.95L194.12,239.6L197.15,239.05L200.19,234.55L203.22,226.92L209.28,229.45L212.32,228.82L218.38,229.68L221.42,228.69L224.45,229.34L227.48,229.27L230.52,226.8L233.55,228.32L236.58,228.03L239.62,228.12L242.65,227.31L251.75,225.36L254.78,224.28L257.81,221.61L260.85,203.69L263.88,212.49L266.91,208.11L269.95,189.22L272.98,184.51L276.01,185.1L279.05,194.55L282.08,162.84L285.11,156.93L288.15,156.58L291.18,154.25L294.21,151.29L297.25,143.34L300.28,142.98L303.31,149.91L306.34,160.29L309.38,162.4L312.41,164.03L315.44,163.44L324.54,166.36L327.58,157.36L330.61,152.25L333.64,152.36L339.71,152.3L342.74,151.71L345.77,152.29L348.81,150.73L354.87,151.42L357.91,154.09L360.94,181.68L363.97,192.49L367.01,202.19L370.04,203.81L373.07,206.93L376.11,206.87L379.14,214.56L382.17,211.16L385.21,205.01" style="fill: rgb(99, 110, 250); fill-opacity: 0.5; stroke-width: 0;"/></g></g><g class="errorbars"/><g class="lines"><path class="js-line" d="M0,318.72L3.03,314.81L6.07,299.48L9.1,285.33L12.13,250.94L15.17,242.27L18.2,222.07L21.23,209.6L24.26,188.7L27.3,183.53L30.33,175.76L33.36,169.89L36.4,162.35L39.43,148.97L42.46,140.45L45.5,106.63L48.53,93.66L54.6,22.53L57.63,17.24L60.66,16L63.7,28.57L66.73,26.07L69.76,55.68L72.79,38.75L75.83,43.29L78.86,49.91L81.89,48.71L87.96,68.52L90.99,100.15L97.06,143.91L100.09,155.89L103.13,177.35L106.16,181.57L109.19,189.64L112.23,177.71L115.26,180.19L118.29,192.81L121.32,193.37L124.36,192.33L127.39,192.33L130.42,188.42L133.46,194.04L136.49,194.49L139.52,194.09L142.56,194.86L148.62,202.63L151.66,202.22L154.69,202.58" style="vector-effect: non-scaling-stroke; fill: none; stroke: rgb(99, 110, 250); stroke-opacity: 1; stroke-width: 2px; opacity: 1;"/><path class="js-line" d="M160.75,201.78L163.79,202.53L166.82,212L169.85,212.82L172.89,209.82L175.92,216.38L178.95,218.61L188.05,221.21L191.09,229.95L194.12,239.6L197.15,239.05L200.19,234.55L203.22,226.92L209.28,229.45L212.32,228.82" style="vector-effect: non-scaling-stroke; fill: none; stroke: rgb(99, 110, 250); stroke-opacity: 1; stroke-width: 2px; opacity: 1;"/><path class="js-line" d="M218.38,229.68L221.42,228.69L224.45,229.34L227.48,229.27L230.52,226.8L233.55,228.32L236.58,228.03L239.62,228.12L242.65,227.31L251.75,225.36L254.78,224.28L257.81,221.61L260.85,203.69L263.88,212.49L266.91,208.11L269.95,189.22L272.98,184.51L276.01,185.1L279.05,194.55L282.08,162.84L285.11,156.93L288.15,156.58L291.18,154.25L294.21,151.29L297.25,143.34L300.28,142.98L303.31,149.91L306.34,160.29L309.38,162.4L312.41,164.03L315.44,163.44L324.54,166.36L327.58,157.36L330.61,152.25L333.64,152.36L339.71,152.3L342.74,151.71L345.77,152.29L348.81,150.73L354.87,151.42L357.91,154.09L360.94,181.68L363.97,192.49L367.01,202.19L370.04,203.81L373.07,206.93L376.11,206.87L379.14,214.56L382.17,211.16L385.21,205.01" style="vector-effect: non-scaling-stroke; fill: none; stroke: rgb(99, 110, 250); stroke-opacity: 1; stroke-width: 2px; opacity: 1;"/></g><g class="points"/><g class="text"/></g><g class="trace scatter traceb69fb8" style="stroke-miterlimit: 2;"><g class="fills"><g><path class="js-fill" d="M458,320L388.24,320L388.24,200.37L394.3,198.27L397.34,198.87L400.37,199.3L403.4,197.26L406.44,194.02L409.47,193.46L415.54,188.23L418.57,189.55L424.64,191.71L427.67,190.94L430.7,189.66L433.74,185.26L436.77,181.67L439.8,180.47L442.83,180.1L445.87,174.84L451.93,171.25L454.97,171.32L458,174.65" style="fill: rgb(239, 85, 59); fill-opacity: 0.5; stroke-width: 0;"/></g></g><g class="errorbars"/><g class="lines"><path class="js-line" d="M388.24,200.37L394.3,198.27L397.34,198.87L400.37,199.3L403.4,197.26L406.44,194.02L409.47,193.46L415.54,188.23L418.57,189.55L424.64,191.71L427.67,190.94L430.7,189.66L433.74,185.26L436.77,181.67L439.8,180.47L442.83,180.1L445.87,174.84L451.93,171.25L454.97,171.32L458,174.65" style="vector-effect: non-scaling-stroke; fill: none; stroke: rgb(239, 85, 59); stroke-opacity: 1; stroke-width: 2px; opacity: 1;"/></g><g class="points"/><g class="text"/></g></g></g><g class="overplot"/><path class="xlines-above crisp" d="M0,0" style="fill: none;"/><path class="ylines-above crisp" d="M0,0" style="fill: none;"/><g class="overlines-above"/><g class="xaxislayer-above"><g class="xtick"><text text-anchor="middle" x="0" y="433" transform="translate(137.63,0)" style="font-family: 'Open Sans', verdana, arial, sans-serif; font-size: 12px; fill: rgb(42, 63, 95); fill-opacity: 1; white-space: pre; opacity: 1;">Aug 2022</text></g><g class="xtick"><text text-anchor="middle" x="0" y="433" style="font-family: 'Open Sans', verdana, arial, sans-serif; font-size: 12px; fill: rgb(42, 63, 95); fill-opacity: 1; white-space: pre; opacity: 1;" transform="translate(231.66,0)">Sep 2022</text></g><g class="xtick"><text text-anchor="middle" x="0" y="433" style="font-family: 'Open Sans', verdana, arial, sans-serif; font-size: 12px; fill: rgb(42, 63, 95); fill-opacity: 1; white-space: pre; opacity: 1;" transform="translate(322.65,0)">Oct 2022</text></g><g class="xtick"><text text-anchor="middle" x="0" y="433" style="font-family: 'Open Sans', verdana, arial, sans-serif; font-size: 12px; fill: rgb(42, 63, 95); fill-opacity: 1; white-space: pre; opacity: 1;" transform="translate(416.68,0)">Nov 2022</text></g><g class="xtick"><text text-anchor="middle" x="0" y="433" style="font-family: 'Open Sans', verdana, arial, sans-serif; font-size: 12px; fill: rgb(42, 63, 95); fill-opacity: 1; white-space: pre; opacity: 1;" transform="translate(507.67,0)">Dec 2022</text></g></g><g class="yaxislayer-above"><g class="ytick"><text text-anchor="end" x="79" y="4.199999999999999" transform="translate(0,420)" style="font-family: 'Open Sans', verdana, arial, sans-serif; font-size: 12px; fill: rgb(42, 63, 95); fill-opacity: 1; white-space: pre; opacity: 1;">$0</text></g><g class="ytick"><text text-anchor="end" x="79" y="4.199999999999999" style="font-family: 'Open Sans', verdana, arial, sans-serif; font-size: 12px; fill: rgb(42, 63, 95); fill-opacity: 1; white-space: pre; opacity: 1;" transform="translate(0,359.46)">$20M</text></g><g class="ytick"><text text-anchor="end" x="79" y="4.199999999999999" style="font-family: 'Open Sans', verdana, arial, sans-serif; font-size: 12px; fill: rgb(42, 63, 95); fill-opacity: 1; white-space: pre; opacity: 1;" transform="translate(0,298.93)">$40M</text></g><g class="ytick"><text text-anchor="end" x="79" y="4.199999999999999" style="font-family: 'Open Sans', verdana, arial, sans-serif; font-size: 12px; fill: rgb(42, 63, 95); fill-opacity: 1; white-space: pre; opacity: 1;" transform="translate(0,238.39)">$60M</text></g><g class="ytick"><text text-anchor="end" x="79" y="4.199999999999999" style="font-family: 'Open Sans', verdana, arial, sans-serif; font-size: 12px; fill: rgb(42, 63, 95); fill-opacity: 1; white-space: pre; opacity: 1;" transform="translate(0,177.85)">$80M</text></g><g class="ytick"><text text-anchor="end" x="79" y="4.199999999999999" style="font-family: 'Open Sans', verdana, arial, sans-serif; font-size: 12px; fill: rgb(42, 63, 95); fill-opacity: 1; white-space: pre; opacity: 1;" transform="translate(0,117.32)">$100M</text></g></g><g class="overaxes-above"/></g></g><g class="polarlayer"/><g class="smithlayer"/><g class="ternarylayer"/><g class="geolayer"/><g class="funnelarealayer"/><g class="pielayer"/><g class="iciclelayer"/><g class="treemaplayer"/><g class="sunburstlayer"/><g class="glimages"/><defs id="topdefs-e2cb54"><g class="clips"/><clipPath id="legende2cb54"><rect width="141" height="67" x="0" y="0"/></clipPath></defs><g class="layer-above"><g class="imagelayer"/><g class="shapelayer"/></g><g class="infolayer"><g class="legend" pointer-events="all" transform="translate(547.1600000000001,100)"><rect class="bg" shape-rendering="crispEdges" width="141" height="67" x="0" y="0" style="stroke: rgb(68, 68, 68); stroke-opacity: 1; fill: rgb(255, 255, 255); fill-opacity: 1; stroke-width: 0px;"/><g class="scrollbox" transform="" clip-path="url(#legende2cb54)"><text class="legendtitletext" text-anchor="start" x="2" y="18.2" style="font-family: 'Open Sans', verdana, arial, sans-serif; font-size: 14px; fill: rgb(42, 63, 95); fill-opacity: 1; white-space: pre;">Period</text><g class="groups"><g class="traces" transform="translate(0,32.7)" style="opacity: 1;"><text class="legendtext" text-anchor="start" x="40" y="4.680000000000001" style="font-family: 'Open Sans', verdana, arial, sans-serif; font-size: 12px; fill: rgb(42, 63, 95); fill-opacity: 1; white-space: pre;">During Program</text><g class="layers"><g class="legendfill"><path class="js-fill" d="M5,-2h30v6h-30z" style="stroke-width: 0; fill: rgb(99, 110, 250); fill-opacity: 0.5;"/></g><g class="legendlines"><path class="js-line" d="M5,-2h30" style="fill: none; stroke: rgb(99, 110, 250); stroke-opacity: 1; stroke-width: 2px;"/></g><g class="legendsymbols"><g class="legendpoints"/></g></g><rect class="legendtoggle" x="0" y="-9.5" width="135.671875" height="19" style="fill: rgb(0, 0, 0); fill-opacity: 0;"/></g><g class="traces" transform="translate(0,51.7)" style="opacity: 1;"><text class="legendtext" text-anchor="start" x="40" y="4.680000000000001" style="font-family: 'Open Sans', verdana, arial, sans-serif; font-size: 12px; fill: rgb(42, 63, 95); fill-opacity: 1; white-space: pre;">Post-Program</text><g class="layers"><g class="legendfill"><path class="js-fill" d="M5,-2h30v6h-30z" style="stroke-width: 0; fill: rgb(239, 85, 59); fill-opacity: 0.5;"/></g><g class="legendlines"><path class="js-line" d="M5,-2h30" style="fill: none; stroke: rgb(239, 85, 59); stroke-opacity: 1; stroke-width: 2px;"/></g><g class="legendsymbols"><g class="legendpoints"/></g></g><rect class="legendtoggle" x="0" y="-9.5" width="135.671875" height="19" style="fill: rgb(0, 0, 0); fill-opacity: 0;"/></g></g></g><rect class="scrollbar" rx="20" ry="3" width="0" height="0" x="0" y="0" style="fill: rgb(128, 139, 164); fill-opacity: 1;"/></g><g class="g-gtitle"><text class="gtitle" x="35" y="50" text-anchor="start" dy="0em" style="font-family: 'Open Sans', verdana, arial, sans-serif; font-size: 17px; fill: rgb(42, 63, 95); opacity: 1; font-weight: normal; white-space: pre;">Velodrome: Cumulative Net Dollar Flow since Program Announcement - At Last Price</text></g><g class="g-xtitle"><text class="xtitle" x="309" y="460.3" text-anchor="middle" style="font-family: 'Open Sans', verdana, arial, sans-serif; font-size: 14px; fill: rgb(42, 63, 95); opacity: 1; font-weight: normal; white-space: pre;">Day</text></g><g class="g-ytitle" transform="translate(0.4404296875,0)"><text class="ytitle" transform="rotate(-90,13.559375000000003,260)" x="13.559375000000003" y="260" text-anchor="middle" style="font-family: 'Open Sans', verdana, arial, sans-serif; font-size: 14px; fill: rgb(42, 63, 95); opacity: 1; font-weight: normal; white-space: pre;">Cumulative Net Dollar Flow (N$F)</text></g></g></svg>