<svg class="main-svg" xmlns="http://www.w3.org/2000/svg" xmlns:xlink="http://www.w3.org/1999/xlink" width="700" height="500" style="" viewBox="0 0 700 500"><rect x="0" y="0" width="700" height="500" style="fill: rgb(255, 255, 255); fill-opacity: 1;"/><defs id="defs-640fd2"><g class="clips"><clipPath id="clip640fd2xyplot" class="plotclip"><rect width="469" height="320"/></clipPath><clipPath class="axesclip" id="clip640fd2x"><rect x="80" y="0" width="469" height="500"/></clipPath><clipPath class="axesclip" id="clip640fd2y"><rect x="0" y="100" width="700" height="320"/></clipPath><clipPath class="axesclip" id="clip640fd2xy"><rect x="80" y="100" width="469" height="320"/></clipPath></g><g class="gradients"/><g class="patterns"/></defs><g class="bglayer"><rect class="bg" x="80" y="100" width="469" height="320" style="fill: rgb(229, 236, 246); fill-opacity: 1; stroke-width: 0;"/></g><g class="layer-below"><g class="imagelayer"/><g class="shapelayer"/></g><g class="cartesianlayer"><g class="subplot xy"><g class="layer-subplot"><g class="shapelayer"/><g class="imagelayer"/></g><g class="minor-gridlayer"><g class="x"/><g class="y"/></g><g class="gridlayer"><g class="x"><path class="xgrid crisp" transform="translate(137.49,0)" d="M0,100v320" style="stroke: rgb(255, 255, 255); stroke-opacity: 1; stroke-width: 1px;"/><path class="xgrid crisp" transform="translate(231.29,0)" d="M0,100v320" style="stroke: rgb(255, 255, 255); stroke-opacity: 1; stroke-width: 1px;"/><path class="xgrid crisp" transform="translate(322.06,0)" d="M0,100v320" style="stroke: rgb(255, 255, 255); stroke-opacity: 1; stroke-width: 1px;"/><path class="xgrid crisp" transform="translate(415.86,0)" d="M0,100v320" style="stroke: rgb(255, 255, 255); stroke-opacity: 1; stroke-width: 1px;"/><path class="xgrid crisp" transform="translate(506.64,0)" d="M0,100v320" style="stroke: rgb(255, 255, 255); stroke-opacity: 1; stroke-width: 1px;"/></g><g class="y"><path class="ygrid crisp" transform="translate(0,385)" d="M80,0h469" style="stroke: rgb(255, 255, 255); stroke-opacity: 1; stroke-width: 1px;"/><path class="ygrid crisp" transform="translate(0,295.65999999999997)" d="M80,0h469" style="stroke: rgb(255, 255, 255); stroke-opacity: 1; stroke-width: 1px;"/><path class="ygrid crisp" transform="translate(0,250.99)" d="M80,0h469" style="stroke: rgb(255, 255, 255); stroke-opacity: 1; stroke-width: 1px;"/><path class="ygrid crisp" transform="translate(0,206.32)" d="M80,0h469" style="stroke: rgb(255, 255, 255); stroke-opacity: 1; stroke-width: 1px;"/><path class="ygrid crisp" transform="translate(0,161.64)" d="M80,0h469" style="stroke: rgb(255, 255, 255); stroke-opacity: 1; stroke-width: 1px;"/><path class="ygrid crisp" transform="translate(0,116.97)" d="M80,0h469" style="stroke: rgb(255, 255, 255); stroke-opacity: 1; stroke-width: 1px;"/></g></g><g class="zerolinelayer"><path class="yzl zl crisp" transform="translate(0,340.33000000000004)" d="M80,0h469" style="stroke: rgb(255, 255, 255); stroke-opacity: 1; stroke-width: 2px;"/></g><path class="xlines-below"/><path class="ylines-below"/><g class="overlines-below"/><g class="xaxislayer-below"/><g class="yaxislayer-below"/><g class="overaxes-below"/><g class="plot" transform="translate(80,100)" clip-path="url(#clip640fd2xyplot)"><g class="scatterlayer mlayer"><g class="trace scatter trace22a333" style="stroke-miterlimit: 2;"><g class="fills"><g><path class="js-fill" d="M384.28,240.33L0,240.33L0,239.38L3.03,236.5L6.05,225.19L9.08,214.74L12.1,189.37L15.13,182.97L18.15,168.07L21.18,158.87L24.21,143.44L27.23,139.63L30.26,133.9L36.31,124L39.34,114.12L42.36,107.84L45.39,82.88L48.41,73.31L51.44,48.34L54.46,20.82L57.49,16.92L60.52,16L63.54,25.27L66.57,23.43L69.59,45.28L72.62,32.79L75.65,36.14L78.67,41.02L81.7,40.13L87.75,54.76L90.77,78.1L96.83,110.39L99.85,119.23L102.88,135.07L105.9,138.18L108.93,144.13L111.95,135.33L114.98,137.16L118.01,146.47L121.03,146.89L124.06,146.12L127.08,146.12L130.11,143.23L133.14,147.38L136.16,147.71L139.19,147.42L142.21,147.98L148.26,153.72L151.29,153.41L154.32,153.68L160.37,153.09L163.39,153.65L166.42,160.63L169.45,161.24L172.47,159.02L175.5,163.87L178.52,165.52L187.6,167.43L190.63,173.88L193.65,181L196.68,180.59L199.7,177.28L202.73,171.64L208.78,173.51L211.81,173.05L217.86,173.68L220.88,172.95L223.91,173.43L226.94,173.38L229.96,171.55L232.99,172.68L236.01,172.46L242.06,171.93L245.09,171.46L251.14,170.49L254.17,169.7L257.19,167.73L260.22,154.5L263.25,161L266.27,157.76L269.3,143.82L272.32,140.35L275.35,140.78L278.37,147.76L281.4,124.36L284.43,119.99L287.45,119.74L290.48,118.02L293.5,115.83L296.53,109.97L299.55,109.7L302.58,114.81L305.61,122.47L308.63,124.04L311.66,125.24L314.68,124.8L323.76,126.95L326.79,120.31L329.81,116.54L332.84,116.63L338.89,116.58L341.92,116.14L344.94,116.57L347.97,115.42L354.02,115.93L357.05,117.9L360.07,138.26L363.1,146.24L366.12,153.4L369.15,154.59L372.17,156.89L375.2,156.85L378.23,162.52L381.25,160.01L384.28,155.48" style="fill: rgb(99, 110, 250); fill-opacity: 0.5; stroke-width: 0;"/></g></g><g class="errorbars"/><g class="lines"><path class="js-line" d="M0,239.38L3.03,236.5L6.05,225.19L9.08,214.74L12.1,189.37L15.13,182.97L18.15,168.07L21.18,158.87L24.21,143.44L27.23,139.63L30.26,133.9L36.31,124L39.34,114.12L42.36,107.84L45.39,82.88L48.41,73.31L51.44,48.34L54.46,20.82L57.49,16.92L60.52,16L63.54,25.27L66.57,23.43L69.59,45.28L72.62,32.79L75.65,36.14L78.67,41.02L81.7,40.13L87.75,54.76L90.77,78.1L96.83,110.39L99.85,119.23L102.88,135.07L105.9,138.18L108.93,144.13L111.95,135.33L114.98,137.16L118.01,146.47L121.03,146.89L124.06,146.12L127.08,146.12L130.11,143.23L133.14,147.38L136.16,147.71L139.19,147.42L142.21,147.98L148.26,153.72L151.29,153.41L154.32,153.68" style="vector-effect: non-scaling-stroke; fill: none; stroke: rgb(99, 110, 250); stroke-opacity: 1; stroke-width: 2px; opacity: 1;"/><path class="js-line" d="M160.37,153.09L163.39,153.65L166.42,160.63L169.45,161.24L172.47,159.02L175.5,163.87L178.52,165.52L187.6,167.43L190.63,173.88L193.65,181L196.68,180.59L199.7,177.28L202.73,171.64L208.78,173.51L211.81,173.05" style="vector-effect: non-scaling-stroke; fill: none; stroke: rgb(99, 110, 250); stroke-opacity: 1; stroke-width: 2px; opacity: 1;"/><path class="js-line" d="M217.86,173.68L220.88,172.95L223.91,173.43L226.94,173.38L229.96,171.55L232.99,172.68L236.01,172.46L242.06,171.93L245.09,171.46L251.14,170.49L254.17,169.7L257.19,167.73L260.22,154.5L263.25,161L266.27,157.76L269.3,143.82L272.32,140.35L275.35,140.78L278.37,147.76L281.4,124.36L284.43,119.99L287.45,119.74L290.48,118.02L293.5,115.83L296.53,109.97L299.55,109.7L302.58,114.81L305.61,122.47L308.63,124.04L311.66,125.24L314.68,124.8L323.76,126.95L326.79,120.31L329.81,116.54L332.84,116.63L338.89,116.58L341.92,116.14L344.94,116.57L347.97,115.42L354.02,115.93L357.05,117.9L360.07,138.26L363.1,146.24L366.12,153.4L369.15,154.59L372.17,156.89L375.2,156.85L378.23,162.52L381.25,160.01L384.28,155.48" style="vector-effect: non-scaling-stroke; fill: none; stroke: rgb(99, 110, 250); stroke-opacity: 1; stroke-width: 2px; opacity: 1;"/></g><g class="points"/><g class="text"/></g><g class="trace scatter traceb54b94" style="stroke-miterlimit: 2;"><g class="fills"><g><path class="js-fill" d="M469,240.33L387.3,240.33L387.3,152.05L393.35,150.5L396.38,150.94L399.41,151.27L402.43,149.76L405.46,147.37L408.48,146.95L414.54,143.09L417.56,144.06L423.61,145.66L426.64,145.09L429.66,144.15L432.69,140.9L435.72,138.25L438.74,137.37L441.77,137.1L444.79,133.21L450.85,130.56L453.87,130.61L456.9,133.07L459.92,126.37L462.95,128.18L465.97,128.97L469,130.4L469,304" style="fill: rgb(239, 85, 59); fill-opacity: 0.5; stroke-width: 0;"/></g></g><g class="errorbars"/><g class="lines"><path class="js-line" d="M387.3,152.05L393.35,150.5L396.38,150.94L399.41,151.27L402.43,149.76L405.46,147.37L408.48,146.95L414.54,143.09L417.56,144.06L423.61,145.66L426.64,145.09L429.66,144.15L432.69,140.9L435.72,138.25L438.74,137.37L441.77,137.1L444.79,133.21L450.85,130.56L453.87,130.61L456.9,133.07L459.92,126.37L462.95,128.18L465.97,128.97L469,130.4L469,304" style="vector-effect: non-scaling-stroke; fill: none; stroke: rgb(239, 85, 59); stroke-opacity: 1; stroke-width: 2px; opacity: 1;"/></g><g class="points"/><g class="text"/></g></g></g><g class="overplot"/><path class="xlines-above crisp" d="M0,0" style="fill: none;"/><path class="ylines-above crisp" d="M0,0" style="fill: none;"/><g class="overlines-above"/><g class="xaxislayer-above"><g class="xtick"><text text-anchor="middle" x="0" y="433" transform="translate(137.49,0)" style="font-family: 'Open Sans', verdana, arial, sans-serif; font-size: 12px; fill: rgb(42, 63, 95); fill-opacity: 1; white-space: pre; opacity: 1;">Aug 2022</text></g><g class="xtick"><text text-anchor="middle" x="0" y="433" style="font-family: 'Open Sans', verdana, arial, sans-serif; font-size: 12px; fill: rgb(42, 63, 95); fill-opacity: 1; white-space: pre; opacity: 1;" transform="translate(231.29,0)">Sep 2022</text></g><g class="xtick"><text text-anchor="middle" x="0" y="433" style="font-family: 'Open Sans', verdana, arial, sans-serif; font-size: 12px; fill: rgb(42, 63, 95); fill-opacity: 1; white-space: pre; opacity: 1;" transform="translate(322.06,0)">Oct 2022</text></g><g class="xtick"><text text-anchor="middle" x="0" y="433" style="font-family: 'Open Sans', verdana, arial, sans-serif; font-size: 12px; fill: rgb(42, 63, 95); fill-opacity: 1; white-space: pre; opacity: 1;" transform="translate(415.86,0)">Nov 2022</text></g><g class="xtick"><text text-anchor="middle" x="0" y="433" style="font-family: 'Open Sans', verdana, arial, sans-serif; font-size: 12px; fill: rgb(42, 63, 95); fill-opacity: 1; white-space: pre; opacity: 1;" transform="translate(506.64,0)">Dec 2022</text></g></g><g class="yaxislayer-above"><g class="ytick"><text text-anchor="end" x="79" y="4.199999999999999" transform="translate(0,385)" style="font-family: 'Open Sans', verdana, arial, sans-serif; font-size: 12px; fill: rgb(42, 63, 95); fill-opacity: 1; white-space: pre; opacity: 1;">$−20M</text></g><g class="ytick"><text text-anchor="end" x="79" y="4.199999999999999" style="font-family: 'Open Sans', verdana, arial, sans-serif; font-size: 12px; fill: rgb(42, 63, 95); fill-opacity: 1; white-space: pre; opacity: 1;" transform="translate(0,340.33000000000004)">$0</text></g><g class="ytick"><text text-anchor="end" x="79" y="4.199999999999999" style="font-family: 'Open Sans', verdana, arial, sans-serif; font-size: 12px; fill: rgb(42, 63, 95); fill-opacity: 1; white-space: pre; opacity: 1;" transform="translate(0,295.65999999999997)">$20M</text></g><g class="ytick"><text text-anchor="end" x="79" y="4.199999999999999" style="font-family: 'Open Sans', verdana, arial, sans-serif; font-size: 12px; fill: rgb(42, 63, 95); fill-opacity: 1; white-space: pre; opacity: 1;" transform="translate(0,250.99)">$40M</text></g><g class="ytick"><text text-anchor="end" x="79" y="4.199999999999999" style="font-family: 'Open Sans', verdana, arial, sans-serif; font-size: 12px; fill: rgb(42, 63, 95); fill-opacity: 1; white-space: pre; opacity: 1;" transform="translate(0,206.32)">$60M</text></g><g class="ytick"><text text-anchor="end" x="79" y="4.199999999999999" style="font-family: 'Open Sans', verdana, arial, sans-serif; font-size: 12px; fill: rgb(42, 63, 95); fill-opacity: 1; white-space: pre; opacity: 1;" transform="translate(0,161.64)">$80M</text></g><g class="ytick"><text text-anchor="end" x="79" y="4.199999999999999" style="font-family: 'Open Sans', verdana, arial, sans-serif; font-size: 12px; fill: rgb(42, 63, 95); fill-opacity: 1; white-space: pre; opacity: 1;" transform="translate(0,116.97)">$100M</text></g></g><g class="overaxes-above"/></g></g><g class="polarlayer"/><g class="smithlayer"/><g class="ternarylayer"/><g class="geolayer"/><g class="funnelarealayer"/><g class="pielayer"/><g class="iciclelayer"/><g class="treemaplayer"/><g class="sunburstlayer"/><g class="glimages"/><defs id="topdefs-640fd2"><g class="clips"/><clipPath id="legend640fd2"><rect width="130" height="67" x="0" y="0"/></clipPath></defs><g class="layer-above"><g class="imagelayer"/><g class="shapelayer"/></g><g class="infolayer"><g class="legend" pointer-events="all" transform="translate(558.38,100)"><rect class="bg" shape-rendering="crispEdges" width="130" height="67" x="0" y="0" style="stroke: rgb(68, 68, 68); stroke-opacity: 1; fill: rgb(255, 255, 255); fill-opacity: 1; stroke-width: 0px;"/><g class="scrollbox" transform="" clip-path="url(#legend640fd2)"><text class="legendtitletext" text-anchor="start" x="2" y="18.2" style="font-family: 'Open Sans', verdana, arial, sans-serif; font-size: 14px; fill: rgb(42, 63, 95); fill-opacity: 1; white-space: pre;">Period</text><g class="groups"><g class="traces" transform="translate(0,32.7)" style="opacity: 1;"><text class="legendtext" text-anchor="start" x="40" y="4.680000000000001" style="font-family: 'Open Sans', verdana, arial, sans-serif; font-size: 12px; fill: rgb(42, 63, 95); fill-opacity: 1; white-space: pre;">During Program</text><g class="layers"><g class="legendfill"><path class="js-fill" d="M5,-2h30v6h-30z" style="stroke-width: 0; fill: rgb(99, 110, 250); fill-opacity: 0.5;"/></g><g class="legendlines"><path class="js-line" d="M5,-2h30" style="fill: none; stroke: rgb(99, 110, 250); stroke-opacity: 1; stroke-width: 2px;"/></g><g class="legendsymbols"><g class="legendpoints"/></g></g><rect class="legendtoggle" x="0" y="-9.5" width="124.703125" height="19" style="fill: rgb(0, 0, 0); fill-opacity: 0;"/></g><g class="traces" transform="translate(0,51.7)" style="opacity: 1;"><text class="legendtext" text-anchor="start" x="40" y="4.680000000000001" style="font-family: 'Open Sans', verdana, arial, sans-serif; font-size: 12px; fill: rgb(42, 63, 95); fill-opacity: 1; white-space: pre;">Post-Program</text><g class="layers"><g class="legendfill"><path class="js-fill" d="M5,-2h30v6h-30z" style="stroke-width: 0; fill: rgb(239, 85, 59); fill-opacity: 0.5;"/></g><g class="legendlines"><path class="js-line" d="M5,-2h30" style="fill: none; stroke: rgb(239, 85, 59); stroke-opacity: 1; stroke-width: 2px;"/></g><g class="legendsymbols"><g class="legendpoints"/></g></g><rect class="legendtoggle" x="0" y="-9.5" width="124.703125" height="19" style="fill: rgb(0, 0, 0); fill-opacity: 0;"/></g></g></g><rect class="scrollbar" rx="20" ry="3" width="0" height="0" x="0" y="0" style="fill: rgb(128, 139, 164); fill-opacity: 1;"/></g><g class="g-gtitle"><text class="gtitle" x="35" y="50" text-anchor="start" dy="0em" style="font-family: 'Open Sans', verdana, arial, sans-serif; font-size: 17px; fill: rgb(42, 63, 95); opacity: 1; font-weight: normal; white-space: pre;">Velodrome: Cumulative Net Dollar Flow since Program Announcement - At Last Price</text></g><g class="g-xtitle"><text class="xtitle" x="314.5" y="460.8" text-anchor="middle" style="font-family: 'Open Sans', verdana, arial, sans-serif; font-size: 14px; fill: rgb(42, 63, 95); opacity: 1; font-weight: normal; white-space: pre;">Day</text></g><g class="g-ytitle"><text class="ytitle" transform="rotate(-90,17.168750000000003,260)" x="17.168750000000003" y="260" text-anchor="middle" style="font-family: 'Open Sans', verdana, arial, sans-serif; font-size: 14px; fill: rgb(42, 63, 95); opacity: 1; font-weight: normal; white-space: pre;">Cumulative Net Dollar Flow (N$F)</text></g></g></svg>