<svg class="main-svg" xmlns="http://www.w3.org/2000/svg" xmlns:xlink="http://www.w3.org/1999/xlink" width="700" height="500" style="" viewBox="0 0 700 500"><rect x="0" y="0" width="700" height="500" style="fill: rgb(255, 255, 255); fill-opacity: 1;"/><defs id="defs-ef0dba"><g class="clips"><clipPath id="clipef0dbaxyplot" class="plotclip"><rect width="540" height="320"/></clipPath><clipPath class="axesclip" id="clipef0dbax"><rect x="80" y="0" width="540" height="500"/></clipPath><clipPath class="axesclip" id="clipef0dbay"><rect x="0" y="100" width="700" height="320"/></clipPath><clipPath class="axesclip" id="clipef0dbaxy"><rect x="80" y="100" width="540" height="320"/></clipPath></g><g class="gradients"/><g class="patterns"/></defs><g class="bglayer"><rect class="bg" x="80" y="100" width="540" height="320" style="fill: rgb(229, 236, 246); fill-opacity: 1; stroke-width: 0;"/></g><g class="layer-below"><g class="imagelayer"/><g class="shapelayer"/></g><g class="cartesianlayer"><g class="subplot xy"><g class="layer-subplot"><g class="shapelayer"/><g class="imagelayer"/></g><g class="minor-gridlayer"><g class="x"/><g class="y"/></g><g class="gridlayer"><g class="x"><path class="xgrid crisp" transform="translate(142.53,0)" d="M0,100v320" style="stroke: rgb(255, 255, 255); stroke-opacity: 1; stroke-width: 1px;"/><path class="xgrid crisp" transform="translate(222.11,0)" d="M0,100v320" style="stroke: rgb(255, 255, 255); stroke-opacity: 1; stroke-width: 1px;"/><path class="xgrid crisp" transform="translate(301.68,0)" d="M0,100v320" style="stroke: rgb(255, 255, 255); stroke-opacity: 1; stroke-width: 1px;"/><path class="xgrid crisp" transform="translate(381.26,0)" d="M0,100v320" style="stroke: rgb(255, 255, 255); stroke-opacity: 1; stroke-width: 1px;"/><path class="xgrid crisp" transform="translate(460.84,0)" d="M0,100v320" style="stroke: rgb(255, 255, 255); stroke-opacity: 1; stroke-width: 1px;"/><path class="xgrid crisp" transform="translate(540.4200000000001,0)" d="M0,100v320" style="stroke: rgb(255, 255, 255); stroke-opacity: 1; stroke-width: 1px;"/></g><g class="y"><path class="ygrid crisp" transform="translate(0,406.89)" d="M80,0h540" style="stroke: rgb(255, 255, 255); stroke-opacity: 1; stroke-width: 1px;"/><path class="ygrid crisp" transform="translate(0,353.07)" d="M80,0h540" style="stroke: rgb(255, 255, 255); stroke-opacity: 1; stroke-width: 1px;"/><path class="ygrid crisp" transform="translate(0,299.24)" d="M80,0h540" style="stroke: rgb(255, 255, 255); stroke-opacity: 1; stroke-width: 1px;"/><path class="ygrid crisp" transform="translate(0,191.59)" d="M80,0h540" style="stroke: rgb(255, 255, 255); stroke-opacity: 1; stroke-width: 1px;"/><path class="ygrid crisp" transform="translate(0,137.77)" d="M80,0h540" style="stroke: rgb(255, 255, 255); stroke-opacity: 1; stroke-width: 1px;"/></g></g><g class="zerolinelayer"><path class="yzl zl crisp" transform="translate(0,245.42)" d="M80,0h540" style="stroke: rgb(255, 255, 255); stroke-opacity: 1; stroke-width: 2px;"/></g><path class="xlines-below"/><path class="ylines-below"/><g class="overlines-below"/><g class="xaxislayer-below"/><g class="yaxislayer-below"/><g class="overaxes-below"/><g class="plot" transform="translate(80,100)" clip-path="url(#clipef0dbaxyplot)"><g class="scatterlayer mlayer"><g class="trace scatter trace7590de" style="stroke-miterlimit: 2;"><g class="fills"><g><path class="js-fill" d="M540,145.42L0,145.42L0,145.66L5.68,147.03L11.37,146.83L17.05,158.07L22.74,156.73L28.42,156.65L34.11,155.36L39.79,160.54L45.47,158.47L62.53,154.05L68.21,155.17L73.89,152.33L79.58,150.63L85.26,147.11L90.95,147.17L96.63,142.86L102.32,139.77L108,134.79L113.68,135.89L125.05,133.08L130.74,120.37L136.42,118.79L142.11,116.05L147.79,116.76L153.47,116.39L164.84,113.21L170.53,112.72L176.21,110.13L181.89,109.18L187.58,105.26L193.26,103.54L198.95,103.49L204.63,99.32L210.32,83.52L216,76.88L221.68,69.15L227.37,74.18L233.05,69.68L238.74,32.25L244.42,42.52L250.11,44.32L255.79,52.43L261.47,51.48L267.16,50.1L272.84,47.63L278.53,46.02L284.21,48.41L289.89,31.49L295.58,31.38L301.26,27.7L306.95,22.37L312.63,19.28L318.32,22.1L324,39.21L329.68,45.27L335.37,58.94L341.05,59.16L346.74,82.39L352.42,81.26L358.11,80.95L363.79,83.68L369.47,77.21L375.16,79.16L380.84,71.42L386.53,72.49L397.89,72.6L403.58,69.01L414.95,62.06L420.63,57.3L426.32,60.01L432,57.55L437.68,57.51L443.37,56.6L449.05,50.54L454.74,49.38L460.42,43.9L466.11,45.72L471.79,45.35L477.47,39.59L483.16,38.34L488.84,27.45L494.53,26.23L500.21,21.36L505.89,21.02L511.58,29.21L517.26,23.28L522.95,19.12L528.63,20.15L534.32,16L540,18.27L540,304" style="fill: rgb(99, 110, 250); fill-opacity: 0.5; stroke-width: 0;"/></g></g><g class="errorbars"/><g class="lines"><path class="js-line" d="M0,145.66L5.68,147.03L11.37,146.83L17.05,158.07L22.74,156.73L28.42,156.65L34.11,155.36L39.79,160.54L45.47,158.47L62.53,154.05L68.21,155.17L73.89,152.33L79.58,150.63L85.26,147.11L90.95,147.17L96.63,142.86L102.32,139.77L108,134.79L113.68,135.89L125.05,133.08L130.74,120.37L136.42,118.79L142.11,116.05L147.79,116.76L153.47,116.39L164.84,113.21L170.53,112.72L176.21,110.13L181.89,109.18L187.58,105.26L193.26,103.54L198.95,103.49L204.63,99.32L210.32,83.52L216,76.88L221.68,69.15L227.37,74.18L233.05,69.68L238.74,32.25L244.42,42.52L250.11,44.32L255.79,52.43L261.47,51.48L267.16,50.1L272.84,47.63L278.53,46.02L284.21,48.41L289.89,31.49L295.58,31.38L301.26,27.7L306.95,22.37L312.63,19.28L318.32,22.1L324,39.21L329.68,45.27L335.37,58.94L341.05,59.16L346.74,82.39L352.42,81.26L358.11,80.95L363.79,83.68L369.47,77.21L375.16,79.16L380.84,71.42L386.53,72.49L397.89,72.6L403.58,69.01L414.95,62.06L420.63,57.3L426.32,60.01L432,57.55L437.68,57.51L443.37,56.6L449.05,50.54L454.74,49.38L460.42,43.9L466.11,45.72L471.79,45.35L477.47,39.59L483.16,38.34L488.84,27.45L494.53,26.23L500.21,21.36L505.89,21.02L511.58,29.21L517.26,23.28L522.95,19.12L528.63,20.15L534.32,16L540,18.27L540,304" style="vector-effect: non-scaling-stroke; fill: none; stroke: rgb(99, 110, 250); stroke-opacity: 1; stroke-width: 2px; opacity: 1;"/></g><g class="points"/><g class="text"/></g></g></g><g class="overplot"/><path class="xlines-above crisp" d="M0,0" style="fill: none;"/><path class="ylines-above crisp" d="M0,0" style="fill: none;"/><g class="overlines-above"/><g class="xaxislayer-above"><g class="xtick"><text text-anchor="middle" x="0" y="433" transform="translate(142.53,0)" style="font-family: 'Open Sans', verdana, arial, sans-serif; font-size: 12px; fill: rgb(42, 63, 95); fill-opacity: 1; white-space: pre; opacity: 1;"><tspan class="line" dy="0em" x="0" y="433">Sep 25</tspan><tspan class="line" dy="1.3em" x="0" y="433">2022</tspan></text></g><g class="xtick"><text text-anchor="middle" x="0" y="433" style="font-family: 'Open Sans', verdana, arial, sans-serif; font-size: 12px; fill: rgb(42, 63, 95); fill-opacity: 1; white-space: pre; opacity: 1;" transform="translate(222.11,0)">Oct 9</text></g><g class="xtick"><text text-anchor="middle" x="0" y="433" style="font-family: 'Open Sans', verdana, arial, sans-serif; font-size: 12px; fill: rgb(42, 63, 95); fill-opacity: 1; white-space: pre; opacity: 1;" transform="translate(301.68,0)">Oct 23</text></g><g class="xtick"><text text-anchor="middle" x="0" y="433" style="font-family: 'Open Sans', verdana, arial, sans-serif; font-size: 12px; fill: rgb(42, 63, 95); fill-opacity: 1; white-space: pre; opacity: 1;" transform="translate(381.26,0)">Nov 6</text></g><g class="xtick"><text text-anchor="middle" x="0" y="433" style="font-family: 'Open Sans', verdana, arial, sans-serif; font-size: 12px; fill: rgb(42, 63, 95); fill-opacity: 1; white-space: pre; opacity: 1;" transform="translate(460.84,0)">Nov 20</text></g><g class="xtick"><text text-anchor="middle" x="0" y="433" style="font-family: 'Open Sans', verdana, arial, sans-serif; font-size: 12px; fill: rgb(42, 63, 95); fill-opacity: 1; white-space: pre; opacity: 1;" transform="translate(540.4200000000001,0)">Dec 4</text></g><g class="xtick"><text text-anchor="middle" x="0" y="433" style="font-family: 'Open Sans', verdana, arial, sans-serif; font-size: 12px; fill: rgb(42, 63, 95); fill-opacity: 1; white-space: pre; opacity: 1;" transform="translate(620,0)">Dec 18</text></g></g><g class="yaxislayer-above"><g class="ytick"><text text-anchor="end" x="79" y="4.199999999999999" transform="translate(0,406.89)" style="font-family: 'Open Sans', verdana, arial, sans-serif; font-size: 12px; fill: rgb(42, 63, 95); fill-opacity: 1; white-space: pre; opacity: 1;">$−600k</text></g><g class="ytick"><text text-anchor="end" x="79" y="4.199999999999999" style="font-family: 'Open Sans', verdana, arial, sans-serif; font-size: 12px; fill: rgb(42, 63, 95); fill-opacity: 1; white-space: pre; opacity: 1;" transform="translate(0,353.07)">$−400k</text></g><g class="ytick"><text text-anchor="end" x="79" y="4.199999999999999" style="font-family: 'Open Sans', verdana, arial, sans-serif; font-size: 12px; fill: rgb(42, 63, 95); fill-opacity: 1; white-space: pre; opacity: 1;" transform="translate(0,299.24)">$−200k</text></g><g class="ytick"><text text-anchor="end" x="79" y="4.199999999999999" style="font-family: 'Open Sans', verdana, arial, sans-serif; font-size: 12px; fill: rgb(42, 63, 95); fill-opacity: 1; white-space: pre; opacity: 1;" transform="translate(0,245.42)">$0</text></g><g class="ytick"><text text-anchor="end" x="79" y="4.199999999999999" style="font-family: 'Open Sans', verdana, arial, sans-serif; font-size: 12px; fill: rgb(42, 63, 95); fill-opacity: 1; white-space: pre; opacity: 1;" transform="translate(0,191.59)">$200k</text></g><g class="ytick"><text text-anchor="end" x="79" y="4.199999999999999" style="font-family: 'Open Sans', verdana, arial, sans-serif; font-size: 12px; fill: rgb(42, 63, 95); fill-opacity: 1; white-space: pre; opacity: 1;" transform="translate(0,137.77)">$400k</text></g></g><g class="overaxes-above"/></g></g><g class="polarlayer"/><g class="smithlayer"/><g class="ternarylayer"/><g class="geolayer"/><g class="funnelarealayer"/><g class="pielayer"/><g class="iciclelayer"/><g class="treemaplayer"/><g class="sunburstlayer"/><g class="glimages"/><defs id="topdefs-ef0dba"><g class="clips"/></defs><g class="layer-above"><g class="imagelayer"/><g class="shapelayer"/></g><g class="infolayer"><g class="g-gtitle"><text class="gtitle" x="35" y="50" text-anchor="start" dy="0em" style="font-family: 'Open Sans', verdana, arial, sans-serif; font-size: 17px; fill: rgb(42, 63, 95); opacity: 1; font-weight: normal; white-space: pre;">Polynomial Protocol: Cumulative Net Dollar Flow since Program Announcement - At Last Price</text></g><g class="g-xtitle"><text class="xtitle" x="350" y="476.409375" text-anchor="middle" style="font-family: 'Open Sans', verdana, arial, sans-serif; font-size: 14px; fill: rgb(42, 63, 95); opacity: 1; font-weight: normal; white-space: pre;">Day</text></g><g class="g-ytitle"><text class="ytitle" transform="rotate(-90,14.496875000000003,260)" x="14.496875000000003" y="260" text-anchor="middle" style="font-family: 'Open Sans', verdana, arial, sans-serif; font-size: 14px; fill: rgb(42, 63, 95); opacity: 1; font-weight: normal; white-space: pre;">Cumulative Net Dollar Flow (N$F)</text></g></g></svg>