<svg class="main-svg" xmlns="http://www.w3.org/2000/svg" xmlns:xlink="http://www.w3.org/1999/xlink" width="700" height="500" style="" viewBox="0 0 700 500"><rect x="0" y="0" width="700" height="500" style="fill: rgb(255, 255, 255); fill-opacity: 1;"/><defs id="defs-7b6a4e"><g class="clips"><clipPath id="clip7b6a4exyplot" class="plotclip"><rect width="540" height="320"/></clipPath><clipPath class="axesclip" id="clip7b6a4ex"><rect x="80" y="0" width="540" height="500"/></clipPath><clipPath class="axesclip" id="clip7b6a4ey"><rect x="0" y="100" width="700" height="320"/></clipPath><clipPath class="axesclip" id="clip7b6a4exy"><rect x="80" y="100" width="540" height="320"/></clipPath></g><g class="gradients"/><g class="patterns"/></defs><g class="bglayer"><rect class="bg" x="80" y="100" width="540" height="320" style="fill: rgb(229, 236, 246); fill-opacity: 1; stroke-width: 0;"/></g><g class="layer-below"><g class="imagelayer"/><g class="shapelayer"/></g><g class="cartesianlayer"><g class="subplot xy"><g class="layer-subplot"><g class="shapelayer"/><g class="imagelayer"/></g><g class="minor-gridlayer"><g class="x"/><g class="y"/></g><g class="gridlayer"><g class="x"><path class="xgrid crisp" transform="translate(200.45999999999998,0)" d="M0,100v320" style="stroke: rgb(255, 255, 255); stroke-opacity: 1; stroke-width: 1px;"/><path class="xgrid crisp" transform="translate(325.08000000000004,0)" d="M0,100v320" style="stroke: rgb(255, 255, 255); stroke-opacity: 1; stroke-width: 1px;"/><path class="xgrid crisp" transform="translate(453.85,0)" d="M0,100v320" style="stroke: rgb(255, 255, 255); stroke-opacity: 1; stroke-width: 1px;"/><path class="xgrid crisp" transform="translate(578.46,0)" d="M0,100v320" style="stroke: rgb(255, 255, 255); stroke-opacity: 1; stroke-width: 1px;"/></g><g class="y"><path class="ygrid crisp" transform="translate(0,304.66999999999996)" d="M80,0h540" style="stroke: rgb(255, 255, 255); stroke-opacity: 1; stroke-width: 1px;"/><path class="ygrid crisp" transform="translate(0,241.56)" d="M80,0h540" style="stroke: rgb(255, 255, 255); stroke-opacity: 1; stroke-width: 1px;"/><path class="ygrid crisp" transform="translate(0,178.45999999999998)" d="M80,0h540" style="stroke: rgb(255, 255, 255); stroke-opacity: 1; stroke-width: 1px;"/><path class="ygrid crisp" transform="translate(0,115.36)" d="M80,0h540" style="stroke: rgb(255, 255, 255); stroke-opacity: 1; stroke-width: 1px;"/></g></g><g class="zerolinelayer"><path class="yzl zl crisp" transform="translate(0,367.77)" d="M80,0h540" style="stroke: rgb(255, 255, 255); stroke-opacity: 1; stroke-width: 2px;"/></g><path class="xlines-below"/><path class="ylines-below"/><g class="overlines-below"/><g class="xaxislayer-below"/><g class="yaxislayer-below"/><g class="overaxes-below"/><g class="plot" transform="translate(80,100)" clip-path="url(#clip7b6a4exyplot)"><g class="scatterlayer mlayer"><g class="trace scatter trace6ef97f" style="stroke-miterlimit: 2;"><g class="fills"><g><path class="js-fill" d="M540,267.77L0,267.77L0,262.69L4.15,150.48L8.31,116.39L12.46,54.88L16.62,35.15L20.77,34.31L24.92,23.5L29.08,27.55L33.23,22.92L37.38,27.15L41.54,16L45.69,18.45L49.85,18.64L54,19L58.15,27.03L66.46,32.06L70.62,33.37L78.92,31.48L83.08,27.96L87.23,26.19L91.38,26.12L95.54,27.78L99.69,33.55L103.85,32.54L108,33.84L112.15,30.32L116.31,28.89L124.62,27.8L128.77,32.18L137.08,32.61L141.23,36.52L145.38,42.34L149.54,40.06L153.69,39.59L157.85,36.53L162,35.61L166.15,37.5L170.31,36.15L174.46,36.04L182.77,41.42L186.92,47.7L191.08,44.92L195.23,50.1L199.38,49.63L203.54,49.99L207.69,43.01L211.85,44.35L216,44.67L220.15,41.83L224.31,43.26L228.46,46.07L232.62,42.52L236.77,42.15L240.92,44.61L245.08,45.48L257.54,44.58L261.69,42.75L265.85,42.59L270,43.56L274.15,44.68L278.31,47.44L282.46,47.13L286.62,45.34L290.77,41.57L294.92,41.64L299.08,39.86L303.23,45.95L307.38,51.75L311.54,46.25L315.69,49.77L319.85,46.68L324,47.62L328.15,47.65L332.31,51.79L336.46,51.6L340.62,49.91L344.77,50.39L348.92,46.52L353.08,40.95L357.23,43.65L361.38,30.53L373.85,30.85L378,36.32L382.15,47.85L386.31,48.62L390.46,46.4L394.62,47.91L398.77,51.15L402.92,52.81L407.08,42.98L411.23,56.37L415.38,53.97L419.54,54.71L423.69,55.45L427.85,76.86L432,75.09L436.15,76.62L440.31,78.43L444.46,78.52L448.62,78.76L452.77,88.46L461.08,90.97L465.23,90.38L469.38,304L473.54,91.18L481.85,91.14L486,92.09L490.15,92.01L494.31,89.52L498.46,90.7L502.62,93.72L510.92,94.95L515.08,94.3L523.38,93.5L527.54,94.07L531.69,92.92L535.85,93.34L540,96.54" style="fill: rgb(99, 110, 250); fill-opacity: 0.5; stroke-width: 0;"/></g></g><g class="errorbars"/><g class="lines"><path class="js-line" d="M0,262.69L4.15,150.48L8.31,116.39L12.46,54.88L16.62,35.15L20.77,34.31L24.92,23.5L29.08,27.55L33.23,22.92L37.38,27.15L41.54,16L45.69,18.45L49.85,18.64L54,19L58.15,27.03L66.46,32.06L70.62,33.37L78.92,31.48L83.08,27.96L87.23,26.19L91.38,26.12L95.54,27.78L99.69,33.55L103.85,32.54L108,33.84L112.15,30.32L116.31,28.89L124.62,27.8L128.77,32.18L137.08,32.61L141.23,36.52L145.38,42.34L149.54,40.06L153.69,39.59L157.85,36.53L162,35.61L166.15,37.5L170.31,36.15L174.46,36.04L182.77,41.42L186.92,47.7L191.08,44.92L195.23,50.1L199.38,49.63L203.54,49.99L207.69,43.01L211.85,44.35L216,44.67L220.15,41.83L224.31,43.26L228.46,46.07L232.62,42.52L236.77,42.15L240.92,44.61L245.08,45.48L257.54,44.58L261.69,42.75L265.85,42.59L270,43.56L274.15,44.68L278.31,47.44L282.46,47.13L286.62,45.34L290.77,41.57L294.92,41.64L299.08,39.86L303.23,45.95L307.38,51.75L311.54,46.25L315.69,49.77L319.85,46.68L324,47.62L328.15,47.65L332.31,51.79L336.46,51.6L340.62,49.91L344.77,50.39L348.92,46.52L353.08,40.95L357.23,43.65L361.38,30.53L373.85,30.85L378,36.32L382.15,47.85L386.31,48.62L390.46,46.4L394.62,47.91L398.77,51.15L402.92,52.81L407.08,42.98L411.23,56.37L415.38,53.97L419.54,54.71L423.69,55.45L427.85,76.86L432,75.09L436.15,76.62L440.31,78.43L444.46,78.52L448.62,78.76L452.77,88.46L461.08,90.97L465.23,90.38L469.38,304L473.54,91.18L481.85,91.14L486,92.09L490.15,92.01L494.31,89.52L498.46,90.7L502.62,93.72L510.92,94.95L515.08,94.3L523.38,93.5L527.54,94.07L531.69,92.92L535.85,93.34L540,96.54" style="vector-effect: non-scaling-stroke; fill: none; stroke: rgb(99, 110, 250); stroke-opacity: 1; stroke-width: 2px; opacity: 1;"/></g><g class="points"/><g class="text"/></g></g></g><g class="overplot"/><path class="xlines-above crisp" d="M0,0" style="fill: none;"/><path class="ylines-above crisp" d="M0,0" style="fill: none;"/><g class="overlines-above"/><g class="xaxislayer-above"><g class="xtick"><text text-anchor="middle" x="0" y="433" transform="translate(200.45999999999998,0)" style="font-family: 'Open Sans', verdana, arial, sans-serif; font-size: 12px; fill: rgb(42, 63, 95); fill-opacity: 1; white-space: pre; opacity: 1;">Sep 2022</text></g><g class="xtick"><text text-anchor="middle" x="0" y="433" style="font-family: 'Open Sans', verdana, arial, sans-serif; font-size: 12px; fill: rgb(42, 63, 95); fill-opacity: 1; white-space: pre; opacity: 1;" transform="translate(325.08000000000004,0)">Oct 2022</text></g><g class="xtick"><text text-anchor="middle" x="0" y="433" style="font-family: 'Open Sans', verdana, arial, sans-serif; font-size: 12px; fill: rgb(42, 63, 95); fill-opacity: 1; white-space: pre; opacity: 1;" transform="translate(453.85,0)">Nov 2022</text></g><g class="xtick"><text text-anchor="middle" x="0" y="433" style="font-family: 'Open Sans', verdana, arial, sans-serif; font-size: 12px; fill: rgb(42, 63, 95); fill-opacity: 1; white-space: pre; opacity: 1;" transform="translate(578.46,0)">Dec 2022</text></g></g><g class="yaxislayer-above"><g class="ytick"><text text-anchor="end" x="79" y="4.199999999999999" transform="translate(0,367.77)" style="font-family: 'Open Sans', verdana, arial, sans-serif; font-size: 12px; fill: rgb(42, 63, 95); fill-opacity: 1; white-space: pre; opacity: 1;">$0</text></g><g class="ytick"><text text-anchor="end" x="79" y="4.199999999999999" style="font-family: 'Open Sans', verdana, arial, sans-serif; font-size: 12px; fill: rgb(42, 63, 95); fill-opacity: 1; white-space: pre; opacity: 1;" transform="translate(0,304.66999999999996)">$1M</text></g><g class="ytick"><text text-anchor="end" x="79" y="4.199999999999999" style="font-family: 'Open Sans', verdana, arial, sans-serif; font-size: 12px; fill: rgb(42, 63, 95); fill-opacity: 1; white-space: pre; opacity: 1;" transform="translate(0,241.56)">$2M</text></g><g class="ytick"><text text-anchor="end" x="79" y="4.199999999999999" style="font-family: 'Open Sans', verdana, arial, sans-serif; font-size: 12px; fill: rgb(42, 63, 95); fill-opacity: 1; white-space: pre; opacity: 1;" transform="translate(0,178.45999999999998)">$3M</text></g><g class="ytick"><text text-anchor="end" x="79" y="4.199999999999999" style="font-family: 'Open Sans', verdana, arial, sans-serif; font-size: 12px; fill: rgb(42, 63, 95); fill-opacity: 1; white-space: pre; opacity: 1;" transform="translate(0,115.36)">$4M</text></g></g><g class="overaxes-above"/></g></g><g class="polarlayer"/><g class="smithlayer"/><g class="ternarylayer"/><g class="geolayer"/><g class="funnelarealayer"/><g class="pielayer"/><g class="iciclelayer"/><g class="treemaplayer"/><g class="sunburstlayer"/><g class="glimages"/><defs id="topdefs-7b6a4e"><g class="clips"/></defs><g class="layer-above"><g class="imagelayer"/><g class="shapelayer"/></g><g class="infolayer"><g class="g-gtitle"><text class="gtitle" x="35" y="50" text-anchor="start" dy="0em" style="font-family: 'Open Sans', verdana, arial, sans-serif; font-size: 17px; fill: rgb(42, 63, 95); opacity: 1; font-weight: normal; white-space: pre;">Wepiggy: Cumulative Net Dollar Flow since Program Announcement - At Last Price</text></g><g class="g-xtitle"><text class="xtitle" x="350" y="460.8" text-anchor="middle" style="font-family: 'Open Sans', verdana, arial, sans-serif; font-size: 14px; fill: rgb(42, 63, 95); opacity: 1; font-weight: normal; white-space: pre;">Day</text></g><g class="g-ytitle"><text class="ytitle" transform="rotate(-90,30.856250000000003,260)" x="30.856250000000003" y="260" text-anchor="middle" style="font-family: 'Open Sans', verdana, arial, sans-serif; font-size: 14px; fill: rgb(42, 63, 95); opacity: 1; font-weight: normal; white-space: pre;">Cumulative Net Dollar Flow (N$F)</text></g></g></svg>