<svg class="main-svg" xmlns="http://www.w3.org/2000/svg" xmlns:xlink="http://www.w3.org/1999/xlink" width="700" height="500" style="" viewBox="0 0 700 500"><rect x="0" y="0" width="700" height="500" style="fill: rgb(255, 255, 255); fill-opacity: 1;"/><defs id="defs-bbe166"><g class="clips"><clipPath id="clipbbe166xyplot" class="plotclip"><rect width="540" height="320"/></clipPath><clipPath class="axesclip" id="clipbbe166x"><rect x="80" y="0" width="540" height="500"/></clipPath><clipPath class="axesclip" id="clipbbe166y"><rect x="0" y="100" width="700" height="320"/></clipPath><clipPath class="axesclip" id="clipbbe166xy"><rect x="80" y="100" width="540" height="320"/></clipPath></g><g class="gradients"/><g class="patterns"/></defs><g class="bglayer"><rect class="bg" x="80" y="100" width="540" height="320" style="fill: rgb(229, 236, 246); fill-opacity: 1; stroke-width: 0;"/></g><g class="layer-below"><g class="imagelayer"/><g class="shapelayer"/></g><g class="cartesianlayer"><g class="subplot xy"><g class="layer-subplot"><g class="shapelayer"/><g class="imagelayer"/></g><g class="minor-gridlayer"><g class="x"/><g class="y"/></g><g class="gridlayer"><g class="x"><path class="xgrid crisp" transform="translate(120.75,0)" d="M0,100v320" style="stroke: rgb(255, 255, 255); stroke-opacity: 1; stroke-width: 1px;"/><path class="xgrid crisp" transform="translate(226.04,0)" d="M0,100v320" style="stroke: rgb(255, 255, 255); stroke-opacity: 1; stroke-width: 1px;"/><path class="xgrid crisp" transform="translate(327.91999999999996,0)" d="M0,100v320" style="stroke: rgb(255, 255, 255); stroke-opacity: 1; stroke-width: 1px;"/><path class="xgrid crisp" transform="translate(433.21,0)" d="M0,100v320" style="stroke: rgb(255, 255, 255); stroke-opacity: 1; stroke-width: 1px;"/><path class="xgrid crisp" transform="translate(538.49,0)" d="M0,100v320" style="stroke: rgb(255, 255, 255); stroke-opacity: 1; stroke-width: 1px;"/></g><g class="y"><path class="ygrid crisp" transform="translate(0,354.74)" d="M80,0h540" style="stroke: rgb(255, 255, 255); stroke-opacity: 1; stroke-width: 1px;"/><path class="ygrid crisp" transform="translate(0,289.47)" d="M80,0h540" style="stroke: rgb(255, 255, 255); stroke-opacity: 1; stroke-width: 1px;"/><path class="ygrid crisp" transform="translate(0,224.20999999999998)" d="M80,0h540" style="stroke: rgb(255, 255, 255); stroke-opacity: 1; stroke-width: 1px;"/><path class="ygrid crisp" transform="translate(0,158.95)" d="M80,0h540" style="stroke: rgb(255, 255, 255); stroke-opacity: 1; stroke-width: 1px;"/></g></g><g class="zerolinelayer"><path class="yzl zl crisp" transform="translate(0,420)" d="M80,0h540" style="stroke: rgb(255, 255, 255); stroke-opacity: 1; stroke-width: 2px;"/></g><path class="xlines-below"/><path class="ylines-below"/><g class="overlines-below"/><g class="xaxislayer-below"/><g class="yaxislayer-below"/><g class="overaxes-below"/><g class="plot" transform="translate(80,100)" clip-path="url(#clipbbe166xyplot)"><g class="scatterlayer mlayer"><g class="trace scatter trace68be0b" style="stroke-miterlimit: 2;"><g class="fills"><g><path class="js-fill" d="M540,320L0,320L0,320L3.4,318.12L6.79,312.68L10.19,296.03L13.58,288.3L16.98,287.23L20.38,281.93L23.77,278.03L27.17,277.88L30.57,275.73L33.96,272.28L37.36,276.63L40.75,276.27L44.15,278.09L47.55,276.67L50.94,275.86L54.34,275.88L67.92,276.21L71.32,275.12L74.72,274.63L78.11,273.06L84.91,272.22L88.3,273.18L91.7,270.39L95.09,270.36L101.89,270.19L105.28,268.11L108.68,268.1L112.08,272.58L122.26,272.79L125.66,271.98L129.06,225.63L132.45,158.26L135.85,132.87L139.25,130.14L142.64,124.13L146.04,122.66L149.43,128.82L152.83,131.9L156.23,125.26L159.62,128.21L163.02,125.3L166.42,126.78L169.81,119.15L173.21,137.38L176.6,153.1L180,162.43L183.4,180.82L186.79,186.64L190.19,188.83L193.58,188.95L200.38,188.39L203.77,198.4L210.57,198.1L213.96,204.26L217.36,203.15L220.75,204.94L227.55,205.55L230.94,207.05L247.92,206.68L251.32,205.95L254.72,202.65L258.11,200.65L261.51,200.54L264.91,198.4L275.09,198.02L278.49,194.96L281.89,193.85L285.28,193.84L288.68,193.82L292.08,200.73L305.66,200.36L309.06,201.88L315.85,201.82L319.25,199.74L326.04,199.32L329.43,198.09L332.83,197.98L336.23,198.71L343.02,198.35L346.42,196.23L349.81,197.61L353.21,197.55L360,197.46L363.4,196.24L366.79,196.08L370.19,193.65L376.98,193.62L380.38,213.31L383.77,215.32L387.17,215.42L390.57,212.93L393.96,213.3L397.36,216.65L400.75,221.05L404.15,215.01L407.55,215.03L414.34,210.09L417.74,91.77L421.13,90.07L424.53,75.53L427.92,48.24L431.32,39.44L434.72,30.05L438.11,35.1L441.51,40.04L444.91,33.61L448.3,18.37L451.7,16L455.09,17.82L458.49,27.92L461.89,24.25L465.28,32.72L468.68,34L472.08,36.77L475.47,32.75L478.87,22.29L485.66,33.38L489.06,113.9L492.45,223.66L495.85,235.57L499.25,239.9L502.64,238.62L506.04,243.18L509.43,244.28L512.83,243.64L516.23,235.77L526.42,235.36L529.81,235.1L533.21,238.54L536.6,237.77L540,237.48" style="fill: rgb(99, 110, 250); fill-opacity: 0.5; stroke-width: 0;"/></g></g><g class="errorbars"/><g class="lines"><path class="js-line" d="M0,320L3.4,318.12L6.79,312.68L10.19,296.03L13.58,288.3L16.98,287.23L20.38,281.93L23.77,278.03L27.17,277.88L30.57,275.73L33.96,272.28L37.36,276.63L40.75,276.27L44.15,278.09L47.55,276.67L50.94,275.86L54.34,275.88L67.92,276.21L71.32,275.12L74.72,274.63L78.11,273.06L84.91,272.22L88.3,273.18L91.7,270.39L95.09,270.36L101.89,270.19L105.28,268.11L108.68,268.1L112.08,272.58L122.26,272.79L125.66,271.98L129.06,225.63L132.45,158.26L135.85,132.87L139.25,130.14L142.64,124.13L146.04,122.66L149.43,128.82L152.83,131.9L156.23,125.26L159.62,128.21L163.02,125.3L166.42,126.78L169.81,119.15L173.21,137.38L176.6,153.1L180,162.43L183.4,180.82L186.79,186.64L190.19,188.83L193.58,188.95L200.38,188.39L203.77,198.4L210.57,198.1L213.96,204.26L217.36,203.15L220.75,204.94L227.55,205.55L230.94,207.05L247.92,206.68L251.32,205.95L254.72,202.65L258.11,200.65L261.51,200.54L264.91,198.4L275.09,198.02L278.49,194.96L281.89,193.85L285.28,193.84L288.68,193.82L292.08,200.73L305.66,200.36L309.06,201.88L315.85,201.82L319.25,199.74L326.04,199.32L329.43,198.09L332.83,197.98L336.23,198.71L343.02,198.35L346.42,196.23L349.81,197.61L353.21,197.55L360,197.46L363.4,196.24L366.79,196.08L370.19,193.65L376.98,193.62L380.38,213.31L383.77,215.32L387.17,215.42L390.57,212.93L393.96,213.3L397.36,216.65L400.75,221.05L404.15,215.01L407.55,215.03L414.34,210.09L417.74,91.77L421.13,90.07L424.53,75.53L427.92,48.24L431.32,39.44L434.72,30.05L438.11,35.1L441.51,40.04L444.91,33.61L448.3,18.37L451.7,16L455.09,17.82L458.49,27.92L461.89,24.25L465.28,32.72L468.68,34L472.08,36.77L475.47,32.75L478.87,22.29L485.66,33.38L489.06,113.9L492.45,223.66L495.85,235.57L499.25,239.9L502.64,238.62L506.04,243.18L509.43,244.28L512.83,243.64L516.23,235.77L526.42,235.36L529.81,235.1L533.21,238.54L536.6,237.77L540,237.48" style="vector-effect: non-scaling-stroke; fill: none; stroke: rgb(99, 110, 250); stroke-opacity: 1; stroke-width: 2px; opacity: 1;"/></g><g class="points"/><g class="text"/></g></g></g><g class="overplot"/><path class="xlines-above crisp" d="M0,0" style="fill: none;"/><path class="ylines-above crisp" d="M0,0" style="fill: none;"/><g class="overlines-above"/><g class="xaxislayer-above"><g class="xtick"><text text-anchor="middle" x="0" y="433" transform="translate(120.75,0)" style="font-family: 'Open Sans', verdana, arial, sans-serif; font-size: 12px; fill: rgb(42, 63, 95); fill-opacity: 1; white-space: pre; opacity: 1;">Oct 2022</text></g><g class="xtick"><text text-anchor="middle" x="0" y="433" style="font-family: 'Open Sans', verdana, arial, sans-serif; font-size: 12px; fill: rgb(42, 63, 95); fill-opacity: 1; white-space: pre; opacity: 1;" transform="translate(226.04,0)">Nov 2022</text></g><g class="xtick"><text text-anchor="middle" x="0" y="433" style="font-family: 'Open Sans', verdana, arial, sans-serif; font-size: 12px; fill: rgb(42, 63, 95); fill-opacity: 1; white-space: pre; opacity: 1;" transform="translate(327.91999999999996,0)">Dec 2022</text></g><g class="xtick"><text text-anchor="middle" x="0" y="433" style="font-family: 'Open Sans', verdana, arial, sans-serif; font-size: 12px; fill: rgb(42, 63, 95); fill-opacity: 1; white-space: pre; opacity: 1;" transform="translate(433.21,0)">Jan 2023</text></g><g class="xtick"><text text-anchor="middle" x="0" y="433" style="font-family: 'Open Sans', verdana, arial, sans-serif; font-size: 12px; fill: rgb(42, 63, 95); fill-opacity: 1; white-space: pre; opacity: 1;" transform="translate(538.49,0)">Feb 2023</text></g></g><g class="yaxislayer-above"><g class="ytick"><text text-anchor="end" x="79" y="4.199999999999999" transform="translate(0,420)" style="font-family: 'Open Sans', verdana, arial, sans-serif; font-size: 12px; fill: rgb(42, 63, 95); fill-opacity: 1; white-space: pre; opacity: 1;">$0</text></g><g class="ytick"><text text-anchor="end" x="79" y="4.199999999999999" style="font-family: 'Open Sans', verdana, arial, sans-serif; font-size: 12px; fill: rgb(42, 63, 95); fill-opacity: 1; white-space: pre; opacity: 1;" transform="translate(0,354.74)">$1M</text></g><g class="ytick"><text text-anchor="end" x="79" y="4.199999999999999" style="font-family: 'Open Sans', verdana, arial, sans-serif; font-size: 12px; fill: rgb(42, 63, 95); fill-opacity: 1; white-space: pre; opacity: 1;" transform="translate(0,289.47)">$2M</text></g><g class="ytick"><text text-anchor="end" x="79" y="4.199999999999999" style="font-family: 'Open Sans', verdana, arial, sans-serif; font-size: 12px; fill: rgb(42, 63, 95); fill-opacity: 1; white-space: pre; opacity: 1;" transform="translate(0,224.20999999999998)">$3M</text></g><g class="ytick"><text text-anchor="end" x="79" y="4.199999999999999" style="font-family: 'Open Sans', verdana, arial, sans-serif; font-size: 12px; fill: rgb(42, 63, 95); fill-opacity: 1; white-space: pre; opacity: 1;" transform="translate(0,158.95)">$4M</text></g></g><g class="overaxes-above"/></g></g><g class="polarlayer"/><g class="smithlayer"/><g class="ternarylayer"/><g class="geolayer"/><g class="funnelarealayer"/><g class="pielayer"/><g class="iciclelayer"/><g class="treemaplayer"/><g class="sunburstlayer"/><g class="glimages"/><defs id="topdefs-bbe166"><g class="clips"/></defs><g class="layer-above"><g class="imagelayer"/><g class="shapelayer"/></g><g class="infolayer"><g class="g-gtitle"><text class="gtitle" x="35" y="50" text-anchor="start" dy="0em" style="font-family: 'Open Sans', verdana, arial, sans-serif; font-size: 17px; fill: rgb(42, 63, 95); opacity: 1; font-weight: normal; white-space: pre;"><tspan class="line" dy="0em" x="35" y="50">Xtoken</tspan><tspan class="line" dy="1.3em" x="35" y="50">​<tspan style="font-size:70%" dy="-0.6em">Cumulative Net Flows since Program Announcement, Until Program End + 30 Days - At Last Price</tspan><tspan dy="0.42em">​</tspan></tspan></text></g><g class="g-xtitle"><text class="xtitle" x="350" y="460.8" text-anchor="middle" style="font-family: 'Open Sans', verdana, arial, sans-serif; font-size: 14px; fill: rgb(42, 63, 95); opacity: 1; font-weight: normal; white-space: pre;">Day</text></g><g class="g-ytitle"><text class="ytitle" transform="rotate(-90,30.856250000000003,260)" x="30.856250000000003" y="260" text-anchor="middle" style="font-family: 'Open Sans', verdana, arial, sans-serif; font-size: 14px; fill: rgb(42, 63, 95); opacity: 1; font-weight: normal; white-space: pre;">Cumulative Net Flows (USD)</text></g></g></svg>