<svg class="main-svg" xmlns="http://www.w3.org/2000/svg" xmlns:xlink="http://www.w3.org/1999/xlink" width="700" height="500" style="" viewBox="0 0 700 500"><rect x="0" y="0" width="700" height="500" style="fill: rgb(255, 255, 255); fill-opacity: 1;"/><defs id="defs-60a750"><g class="clips"><clipPath id="clip60a750xyplot" class="plotclip"><rect width="540" height="320"/></clipPath><clipPath class="axesclip" id="clip60a750x"><rect x="80" y="0" width="540" height="500"/></clipPath><clipPath class="axesclip" id="clip60a750y"><rect x="0" y="100" width="700" height="320"/></clipPath><clipPath class="axesclip" id="clip60a750xy"><rect x="80" y="100" width="540" height="320"/></clipPath></g><g class="gradients"/><g class="patterns"/></defs><g class="bglayer"><rect class="bg" x="80" y="100" width="540" height="320" style="fill: rgb(229, 236, 246); fill-opacity: 1; stroke-width: 0;"/></g><g class="layer-below"><g class="imagelayer"/><g class="shapelayer"/></g><g class="cartesianlayer"><g class="subplot xy"><g class="layer-subplot"><g class="shapelayer"/><g class="imagelayer"/></g><g class="minor-gridlayer"><g class="x"/><g class="y"/></g><g class="gridlayer"><g class="x"><path class="xgrid crisp" transform="translate(96.74,0)" d="M0,100v320" style="stroke: rgb(255, 255, 255); stroke-opacity: 1; stroke-width: 1px;"/><path class="xgrid crisp" transform="translate(226.51,0)" d="M0,100v320" style="stroke: rgb(255, 255, 255); stroke-opacity: 1; stroke-width: 1px;"/><path class="xgrid crisp" transform="translate(352.09,0)" d="M0,100v320" style="stroke: rgb(255, 255, 255); stroke-opacity: 1; stroke-width: 1px;"/><path class="xgrid crisp" transform="translate(481.86,0)" d="M0,100v320" style="stroke: rgb(255, 255, 255); stroke-opacity: 1; stroke-width: 1px;"/><path class="xgrid crisp" transform="translate(611.63,0)" d="M0,100v320" style="stroke: rgb(255, 255, 255); stroke-opacity: 1; stroke-width: 1px;"/></g><g class="y"><path class="ygrid crisp" transform="translate(0,362.41)" d="M80,0h540" style="stroke: rgb(255, 255, 255); stroke-opacity: 1; stroke-width: 1px;"/><path class="ygrid crisp" transform="translate(0,304.81)" d="M80,0h540" style="stroke: rgb(255, 255, 255); stroke-opacity: 1; stroke-width: 1px;"/><path class="ygrid crisp" transform="translate(0,247.22)" d="M80,0h540" style="stroke: rgb(255, 255, 255); stroke-opacity: 1; stroke-width: 1px;"/><path class="ygrid crisp" transform="translate(0,189.62)" d="M80,0h540" style="stroke: rgb(255, 255, 255); stroke-opacity: 1; stroke-width: 1px;"/><path class="ygrid crisp" transform="translate(0,132.03)" d="M80,0h540" style="stroke: rgb(255, 255, 255); stroke-opacity: 1; stroke-width: 1px;"/></g></g><g class="zerolinelayer"><path class="yzl zl crisp" transform="translate(0,420)" d="M80,0h540" style="stroke: rgb(255, 255, 255); stroke-opacity: 1; stroke-width: 2px;"/></g><path class="xlines-below"/><path class="ylines-below"/><g class="overlines-below"/><g class="xaxislayer-below"/><g class="yaxislayer-below"/><g class="overaxes-below"/><g class="plot" transform="translate(80,100)" clip-path="url(#clip60a750xyplot)"><g class="scatterlayer mlayer"><g class="trace scatter trace25aa29" style="stroke-miterlimit: 2;"><g class="fills"><g><path class="js-fill" d="M540,320L0,320L0,318.61L4.19,315.82L8.37,291.76L12.56,289.06L16.74,288.79L20.93,278.22L25.12,276.18L29.3,269.39L33.49,247L37.67,255.12L41.86,249.18L46.05,247.23L50.23,248.15L54.42,245.84L58.6,254.69L62.79,258.49L66.98,266.57L71.16,261.63L75.35,261.11L79.53,261.04L83.72,255.82L87.91,255.39L92.09,257.23L100.47,254.94L104.65,255.54L113.02,255.17L117.21,258.58L121.4,256.57L125.58,253.65L129.77,251.31L133.95,249.9L142.33,248.46L146.51,247L150.7,243.13L154.88,231.77L159.07,229.5L163.26,228.82L167.44,223L171.63,209.36L175.81,211.15L180,211.56L188.37,225.08L192.56,236.99L196.74,246.5L200.93,245.89L205.12,245.96L209.3,248.13L213.49,230.17L217.67,236.09L221.86,236.58L226.05,232.77L230.23,231.43L234.42,226.33L238.6,227.87L242.79,227.84L246.98,224.4L251.16,224.25L259.53,220.84L263.72,222.21L267.91,218.98L272.09,219.34L284.65,217.78L288.84,218.03L293.02,231.97L297.21,234.75L301.4,233.33L305.58,230.44L309.77,227.67L313.95,226.84L318.14,212.19L322.33,201.74L326.51,200.49L330.7,225.89L339.07,225.79L343.26,225.65L347.44,222.69L351.63,218.39L355.81,217.92L360,215.17L364.19,214.46L368.37,214.72L376.74,214.54L380.93,213.1L385.12,216.92L389.3,216.98L401.86,216.5L406.05,216.39L410.23,216.6L414.42,215.78L418.6,214.22L422.79,214.97L431.16,214.75L435.35,212.38L439.53,210.77L443.72,205.46L447.91,202.43L452.09,196.01L460.47,193.28L464.65,189.73L473.02,169.95L477.21,163.46L481.4,160.98L485.58,133.94L489.77,124.41L493.95,121.28L498.14,90.86L502.33,73.54L506.51,47.86L510.7,47.02L519.07,31.38L523.26,29.58L527.44,31.15L531.63,26.53L535.81,23.78L540,16" style="fill: rgb(99, 110, 250); fill-opacity: 0.5; stroke-width: 0;"/></g></g><g class="errorbars"/><g class="lines"><path class="js-line" d="M0,318.61L4.19,315.82L8.37,291.76L12.56,289.06L16.74,288.79L20.93,278.22L25.12,276.18L29.3,269.39L33.49,247L37.67,255.12L41.86,249.18L46.05,247.23L50.23,248.15L54.42,245.84L58.6,254.69L62.79,258.49L66.98,266.57L71.16,261.63L75.35,261.11L79.53,261.04L83.72,255.82L87.91,255.39L92.09,257.23L100.47,254.94L104.65,255.54L113.02,255.17L117.21,258.58L121.4,256.57L125.58,253.65L129.77,251.31L133.95,249.9L142.33,248.46L146.51,247L150.7,243.13L154.88,231.77L159.07,229.5L163.26,228.82L167.44,223L171.63,209.36L175.81,211.15L180,211.56L188.37,225.08L192.56,236.99L196.74,246.5L200.93,245.89L205.12,245.96L209.3,248.13L213.49,230.17L217.67,236.09L221.86,236.58L226.05,232.77L230.23,231.43L234.42,226.33L238.6,227.87L242.79,227.84L246.98,224.4L251.16,224.25L259.53,220.84L263.72,222.21L267.91,218.98L272.09,219.34L284.65,217.78L288.84,218.03L293.02,231.97L297.21,234.75L301.4,233.33L305.58,230.44L309.77,227.67L313.95,226.84L318.14,212.19L322.33,201.74L326.51,200.49L330.7,225.89L339.07,225.79L343.26,225.65L347.44,222.69L351.63,218.39L355.81,217.92L360,215.17L364.19,214.46L368.37,214.72L376.74,214.54L380.93,213.1L385.12,216.92L389.3,216.98L401.86,216.5L406.05,216.39L410.23,216.6L414.42,215.78L418.6,214.22L422.79,214.97L431.16,214.75L435.35,212.38L439.53,210.77L443.72,205.46L447.91,202.43L452.09,196.01L460.47,193.28L464.65,189.73L473.02,169.95L477.21,163.46L481.4,160.98L485.58,133.94L489.77,124.41L493.95,121.28L498.14,90.86L502.33,73.54L506.51,47.86L510.7,47.02L519.07,31.38L523.26,29.58L527.44,31.15L531.63,26.53L535.81,23.78L540,16" style="vector-effect: non-scaling-stroke; fill: none; stroke: rgb(99, 110, 250); stroke-opacity: 1; stroke-width: 2px; opacity: 1;"/></g><g class="points"/><g class="text"/></g></g></g><g class="overplot"/><path class="xlines-above crisp" d="M0,0" style="fill: none;"/><path class="ylines-above crisp" d="M0,0" style="fill: none;"/><g class="overlines-above"/><g class="xaxislayer-above"><g class="xtick"><text text-anchor="middle" x="0" y="433" transform="translate(96.74,0)" style="font-family: 'Open Sans', verdana, arial, sans-serif; font-size: 12px; fill: rgb(42, 63, 95); fill-opacity: 1; white-space: pre; opacity: 1;">Oct 2022</text></g><g class="xtick"><text text-anchor="middle" x="0" y="433" style="font-family: 'Open Sans', verdana, arial, sans-serif; font-size: 12px; fill: rgb(42, 63, 95); fill-opacity: 1; white-space: pre; opacity: 1;" transform="translate(226.51,0)">Nov 2022</text></g><g class="xtick"><text text-anchor="middle" x="0" y="433" style="font-family: 'Open Sans', verdana, arial, sans-serif; font-size: 12px; fill: rgb(42, 63, 95); fill-opacity: 1; white-space: pre; opacity: 1;" transform="translate(352.09,0)">Dec 2022</text></g><g class="xtick"><text text-anchor="middle" x="0" y="433" style="font-family: 'Open Sans', verdana, arial, sans-serif; font-size: 12px; fill: rgb(42, 63, 95); fill-opacity: 1; white-space: pre; opacity: 1;" transform="translate(481.86,0)">Jan 2023</text></g><g class="xtick"><text text-anchor="middle" x="0" y="433" style="font-family: 'Open Sans', verdana, arial, sans-serif; font-size: 12px; fill: rgb(42, 63, 95); fill-opacity: 1; white-space: pre; opacity: 1;" transform="translate(611.63,0)">Feb 2023</text></g></g><g class="yaxislayer-above"><g class="ytick"><text text-anchor="end" x="79" y="4.199999999999999" transform="translate(0,420)" style="font-family: 'Open Sans', verdana, arial, sans-serif; font-size: 12px; fill: rgb(42, 63, 95); fill-opacity: 1; white-space: pre; opacity: 1;">$0</text></g><g class="ytick"><text text-anchor="end" x="79" y="4.199999999999999" style="font-family: 'Open Sans', verdana, arial, sans-serif; font-size: 12px; fill: rgb(42, 63, 95); fill-opacity: 1; white-space: pre; opacity: 1;" transform="translate(0,362.41)">$2M</text></g><g class="ytick"><text text-anchor="end" x="79" y="4.199999999999999" style="font-family: 'Open Sans', verdana, arial, sans-serif; font-size: 12px; fill: rgb(42, 63, 95); fill-opacity: 1; white-space: pre; opacity: 1;" transform="translate(0,304.81)">$4M</text></g><g class="ytick"><text text-anchor="end" x="79" y="4.199999999999999" style="font-family: 'Open Sans', verdana, arial, sans-serif; font-size: 12px; fill: rgb(42, 63, 95); fill-opacity: 1; white-space: pre; opacity: 1;" transform="translate(0,247.22)">$6M</text></g><g class="ytick"><text text-anchor="end" x="79" y="4.199999999999999" style="font-family: 'Open Sans', verdana, arial, sans-serif; font-size: 12px; fill: rgb(42, 63, 95); fill-opacity: 1; white-space: pre; opacity: 1;" transform="translate(0,189.62)">$8M</text></g><g class="ytick"><text text-anchor="end" x="79" y="4.199999999999999" style="font-family: 'Open Sans', verdana, arial, sans-serif; font-size: 12px; fill: rgb(42, 63, 95); fill-opacity: 1; white-space: pre; opacity: 1;" transform="translate(0,132.03)">$10M</text></g></g><g class="overaxes-above"/></g></g><g class="polarlayer"/><g class="smithlayer"/><g class="ternarylayer"/><g class="geolayer"/><g class="funnelarealayer"/><g class="pielayer"/><g class="iciclelayer"/><g class="treemaplayer"/><g class="sunburstlayer"/><g class="glimages"/><defs id="topdefs-60a750"><g class="clips"/></defs><g class="layer-above"><g class="imagelayer"/><g class="shapelayer"/></g><g class="infolayer"><g class="g-gtitle"><text class="gtitle" x="35" y="50" text-anchor="start" dy="0em" style="font-family: 'Open Sans', verdana, arial, sans-serif; font-size: 17px; fill: rgb(42, 63, 95); opacity: 1; font-weight: normal; white-space: pre;"><tspan class="line" dy="0em" x="35" y="50">Synthetix - ETH/sETH: Velo</tspan><tspan class="line" dy="1.3em" x="35" y="50">​<tspan style="font-size:70%" dy="-0.6em">Cumulative Net Dollar Flow since Program Announcement, Until Program End + 30 Days - At Last Price</tspan><tspan dy="0.42em">​</tspan></tspan></text></g><g class="g-xtitle"><text class="xtitle" x="350" y="460.8" text-anchor="middle" style="font-family: 'Open Sans', verdana, arial, sans-serif; font-size: 14px; fill: rgb(42, 63, 95); opacity: 1; font-weight: normal; white-space: pre;">Day</text></g><g class="g-ytitle"><text class="ytitle" transform="rotate(-90,24.168750000000003,260)" x="24.168750000000003" y="260" text-anchor="middle" style="font-family: 'Open Sans', verdana, arial, sans-serif; font-size: 14px; fill: rgb(42, 63, 95); opacity: 1; font-weight: normal; white-space: pre;">Cumulative Net Dollar Flow (N$F)</text></g></g></svg>