<svg class="main-svg" xmlns="http://www.w3.org/2000/svg" xmlns:xlink="http://www.w3.org/1999/xlink" width="700" height="500" style="" viewBox="0 0 700 500"><rect x="0" y="0" width="700" height="500" style="fill: rgb(255, 255, 255); fill-opacity: 1;"/><defs id="defs-4ab6e0"><g class="clips"><clipPath id="clip4ab6e0xyplot" class="plotclip"><rect width="540" height="320"/></clipPath><clipPath class="axesclip" id="clip4ab6e0x"><rect x="80" y="0" width="540" height="500"/></clipPath><clipPath class="axesclip" id="clip4ab6e0y"><rect x="0" y="100" width="700" height="320"/></clipPath><clipPath class="axesclip" id="clip4ab6e0xy"><rect x="80" y="100" width="540" height="320"/></clipPath></g><g class="gradients"/><g class="patterns"/></defs><g class="bglayer"><rect class="bg" x="80" y="100" width="540" height="320" style="fill: rgb(229, 236, 246); fill-opacity: 1; stroke-width: 0;"/></g><g class="layer-below"><g class="imagelayer"/><g class="shapelayer"/></g><g class="cartesianlayer"><g class="subplot xy"><g class="layer-subplot"><g class="shapelayer"/><g class="imagelayer"/></g><g class="minor-gridlayer"><g class="x"/><g class="y"/></g><g class="gridlayer"><g class="x"><path class="xgrid crisp" transform="translate(96.74,0)" d="M0,100v320" style="stroke: rgb(255, 255, 255); stroke-opacity: 1; stroke-width: 1px;"/><path class="xgrid crisp" transform="translate(226.51,0)" d="M0,100v320" style="stroke: rgb(255, 255, 255); stroke-opacity: 1; stroke-width: 1px;"/><path class="xgrid crisp" transform="translate(352.09,0)" d="M0,100v320" style="stroke: rgb(255, 255, 255); stroke-opacity: 1; stroke-width: 1px;"/><path class="xgrid crisp" transform="translate(481.86,0)" d="M0,100v320" style="stroke: rgb(255, 255, 255); stroke-opacity: 1; stroke-width: 1px;"/><path class="xgrid crisp" transform="translate(611.63,0)" d="M0,100v320" style="stroke: rgb(255, 255, 255); stroke-opacity: 1; stroke-width: 1px;"/></g><g class="y"><path class="ygrid crisp" transform="translate(0,338.16999999999996)" d="M80,0h540" style="stroke: rgb(255, 255, 255); stroke-opacity: 1; stroke-width: 1px;"/><path class="ygrid crisp" transform="translate(0,285.71000000000004)" d="M80,0h540" style="stroke: rgb(255, 255, 255); stroke-opacity: 1; stroke-width: 1px;"/><path class="ygrid crisp" transform="translate(0,233.24)" d="M80,0h540" style="stroke: rgb(255, 255, 255); stroke-opacity: 1; stroke-width: 1px;"/><path class="ygrid crisp" transform="translate(0,180.78)" d="M80,0h540" style="stroke: rgb(255, 255, 255); stroke-opacity: 1; stroke-width: 1px;"/><path class="ygrid crisp" transform="translate(0,128.31)" d="M80,0h540" style="stroke: rgb(255, 255, 255); stroke-opacity: 1; stroke-width: 1px;"/></g></g><g class="zerolinelayer"><path class="yzl zl crisp" transform="translate(0,390.63)" d="M80,0h540" style="stroke: rgb(255, 255, 255); stroke-opacity: 1; stroke-width: 2px;"/></g><path class="xlines-below"/><path class="ylines-below"/><g class="overlines-below"/><g class="xaxislayer-below"/><g class="yaxislayer-below"/><g class="overaxes-below"/><g class="plot" transform="translate(80,100)" clip-path="url(#clip4ab6e0xyplot)"><g class="scatterlayer mlayer"><g class="trace scatter tracece1ff3" style="stroke-miterlimit: 2;"><g class="fills"><g><path class="js-fill" d="M540,290.63L0,290.63L0,286.46L4.19,287.37L8.37,291.5L12.56,294.68L16.74,294.59L20.93,292.66L25.12,291.68L29.3,289.1L33.49,288.42L37.67,289.93L41.86,286.5L46.05,280.76L50.23,268.68L54.42,265.42L58.6,265.24L62.79,265.3L66.98,261.55L71.16,213.29L75.35,225.02L79.53,206.31L83.72,209.18L87.91,212.23L92.09,214.25L96.28,215.35L100.47,215.06L104.65,215.2L108.84,212.38L113.02,212.66L117.21,217.04L125.58,260.92L129.77,257.99L133.95,256.24L138.14,255.88L142.33,254.7L146.51,257.02L150.7,257.19L154.88,229.65L163.26,229.23L167.44,229.65L171.63,233.04L175.81,296.14L180,304L184.19,299.74L188.37,297.37L192.56,300.31L196.74,300.61L200.93,298.59L205.12,293.68L209.3,300.2L217.67,276.01L221.86,274.85L226.05,277.43L230.23,276.3L234.42,279.34L238.6,277.02L242.79,226.61L246.98,226.81L259.53,226.56L263.72,223.48L267.91,225.93L272.09,225.22L280.47,223.63L284.65,214.11L288.84,213.97L293.02,241.36L297.21,241.96L301.4,287.01L305.58,262.16L309.77,260.72L313.95,260.24L318.14,252.39L322.33,238.79L326.51,237.67L330.7,236.51L334.88,239.16L343.26,239.02L347.44,242.72L351.63,241.04L355.81,232.46L360,216.39L364.19,215.75L372.56,215.31L376.74,223.67L380.93,239.73L385.12,238.85L389.3,238.78L393.49,242.75L397.67,259.57L401.86,259.15L406.05,247.6L410.23,248.88L414.42,243.43L418.6,246.77L422.79,249.7L426.98,247.92L431.16,251.3L435.35,249.09L439.53,249.49L443.72,247.7L447.91,245.79L452.09,245.39L456.28,248.11L460.47,246.9L464.65,245.46L468.84,246.02L473.02,241.7L477.21,227.95L481.4,239.19L485.58,212.06L489.77,210.53L493.95,211.61L498.14,183.72L502.33,80.94L506.51,63.84L510.7,52.74L519.07,53.23L523.26,43.96L527.44,43.82L531.63,41.5L535.81,21.8L540,16" style="fill: rgb(99, 110, 250); fill-opacity: 0.5; stroke-width: 0;"/></g></g><g class="errorbars"/><g class="lines"><path class="js-line" d="M0,286.46L4.19,287.37L8.37,291.5L12.56,294.68L16.74,294.59L20.93,292.66L25.12,291.68L29.3,289.1L33.49,288.42L37.67,289.93L41.86,286.5L46.05,280.76L50.23,268.68L54.42,265.42L58.6,265.24L62.79,265.3L66.98,261.55L71.16,213.29L75.35,225.02L79.53,206.31L83.72,209.18L87.91,212.23L92.09,214.25L96.28,215.35L100.47,215.06L104.65,215.2L108.84,212.38L113.02,212.66L117.21,217.04L125.58,260.92L129.77,257.99L133.95,256.24L138.14,255.88L142.33,254.7L146.51,257.02L150.7,257.19L154.88,229.65L163.26,229.23L167.44,229.65L171.63,233.04L175.81,296.14L180,304L184.19,299.74L188.37,297.37L192.56,300.31L196.74,300.61L200.93,298.59L205.12,293.68L209.3,300.2L217.67,276.01L221.86,274.85L226.05,277.43L230.23,276.3L234.42,279.34L238.6,277.02L242.79,226.61L246.98,226.81L259.53,226.56L263.72,223.48L267.91,225.93L272.09,225.22L280.47,223.63L284.65,214.11L288.84,213.97L293.02,241.36L297.21,241.96L301.4,287.01L305.58,262.16L309.77,260.72L313.95,260.24L318.14,252.39L322.33,238.79L326.51,237.67L330.7,236.51L334.88,239.16L343.26,239.02L347.44,242.72L351.63,241.04L355.81,232.46L360,216.39L364.19,215.75L372.56,215.31L376.74,223.67L380.93,239.73L385.12,238.85L389.3,238.78L393.49,242.75L397.67,259.57L401.86,259.15L406.05,247.6L410.23,248.88L414.42,243.43L418.6,246.77L422.79,249.7L426.98,247.92L431.16,251.3L435.35,249.09L439.53,249.49L443.72,247.7L447.91,245.79L452.09,245.39L456.28,248.11L460.47,246.9L464.65,245.46L468.84,246.02L473.02,241.7L477.21,227.95L481.4,239.19L485.58,212.06L489.77,210.53L493.95,211.61L498.14,183.72L502.33,80.94L506.51,63.84L510.7,52.74L519.07,53.23L523.26,43.96L527.44,43.82L531.63,41.5L535.81,21.8L540,16" style="vector-effect: non-scaling-stroke; fill: none; stroke: rgb(99, 110, 250); stroke-opacity: 1; stroke-width: 2px; opacity: 1;"/></g><g class="points"/><g class="text"/></g></g></g><g class="overplot"/><path class="xlines-above crisp" d="M0,0" style="fill: none;"/><path class="ylines-above crisp" d="M0,0" style="fill: none;"/><g class="overlines-above"/><g class="xaxislayer-above"><g class="xtick"><text text-anchor="middle" x="0" y="433" transform="translate(96.74,0)" style="font-family: 'Open Sans', verdana, arial, sans-serif; font-size: 12px; fill: rgb(42, 63, 95); fill-opacity: 1; white-space: pre; opacity: 1;">Oct 2022</text></g><g class="xtick"><text text-anchor="middle" x="0" y="433" style="font-family: 'Open Sans', verdana, arial, sans-serif; font-size: 12px; fill: rgb(42, 63, 95); fill-opacity: 1; white-space: pre; opacity: 1;" transform="translate(226.51,0)">Nov 2022</text></g><g class="xtick"><text text-anchor="middle" x="0" y="433" style="font-family: 'Open Sans', verdana, arial, sans-serif; font-size: 12px; fill: rgb(42, 63, 95); fill-opacity: 1; white-space: pre; opacity: 1;" transform="translate(352.09,0)">Dec 2022</text></g><g class="xtick"><text text-anchor="middle" x="0" y="433" style="font-family: 'Open Sans', verdana, arial, sans-serif; font-size: 12px; fill: rgb(42, 63, 95); fill-opacity: 1; white-space: pre; opacity: 1;" transform="translate(481.86,0)">Jan 2023</text></g><g class="xtick"><text text-anchor="middle" x="0" y="433" style="font-family: 'Open Sans', verdana, arial, sans-serif; font-size: 12px; fill: rgb(42, 63, 95); fill-opacity: 1; white-space: pre; opacity: 1;" transform="translate(611.63,0)">Feb 2023</text></g></g><g class="yaxislayer-above"><g class="ytick"><text text-anchor="end" x="79" y="4.199999999999999" transform="translate(0,390.63)" style="font-family: 'Open Sans', verdana, arial, sans-serif; font-size: 12px; fill: rgb(42, 63, 95); fill-opacity: 1; white-space: pre; opacity: 1;">$0</text></g><g class="ytick"><text text-anchor="end" x="79" y="4.199999999999999" style="font-family: 'Open Sans', verdana, arial, sans-serif; font-size: 12px; fill: rgb(42, 63, 95); fill-opacity: 1; white-space: pre; opacity: 1;" transform="translate(0,338.16999999999996)">$0.5M</text></g><g class="ytick"><text text-anchor="end" x="79" y="4.199999999999999" style="font-family: 'Open Sans', verdana, arial, sans-serif; font-size: 12px; fill: rgb(42, 63, 95); fill-opacity: 1; white-space: pre; opacity: 1;" transform="translate(0,285.71000000000004)">$1M</text></g><g class="ytick"><text text-anchor="end" x="79" y="4.199999999999999" style="font-family: 'Open Sans', verdana, arial, sans-serif; font-size: 12px; fill: rgb(42, 63, 95); fill-opacity: 1; white-space: pre; opacity: 1;" transform="translate(0,233.24)">$1.5M</text></g><g class="ytick"><text text-anchor="end" x="79" y="4.199999999999999" style="font-family: 'Open Sans', verdana, arial, sans-serif; font-size: 12px; fill: rgb(42, 63, 95); fill-opacity: 1; white-space: pre; opacity: 1;" transform="translate(0,180.78)">$2M</text></g><g class="ytick"><text text-anchor="end" x="79" y="4.199999999999999" style="font-family: 'Open Sans', verdana, arial, sans-serif; font-size: 12px; fill: rgb(42, 63, 95); fill-opacity: 1; white-space: pre; opacity: 1;" transform="translate(0,128.31)">$2.5M</text></g></g><g class="overaxes-above"/></g></g><g class="polarlayer"/><g class="smithlayer"/><g class="ternarylayer"/><g class="geolayer"/><g class="funnelarealayer"/><g class="pielayer"/><g class="iciclelayer"/><g class="treemaplayer"/><g class="sunburstlayer"/><g class="glimages"/><defs id="topdefs-4ab6e0"><g class="clips"/></defs><g class="layer-above"><g class="imagelayer"/><g class="shapelayer"/></g><g class="infolayer"><g class="g-gtitle"><text class="gtitle" x="35" y="50" text-anchor="start" dy="0em" style="font-family: 'Open Sans', verdana, arial, sans-serif; font-size: 17px; fill: rgb(42, 63, 95); opacity: 1; font-weight: normal; white-space: pre;"><tspan class="line" dy="0em" x="35" y="50">Synthetix - USDC/SNX: Velo</tspan><tspan class="line" dy="1.3em" x="35" y="50">​<tspan style="font-size:70%" dy="-0.6em">Cumulative Net Dollar Flow since Program Announcement, Until Program End + 30 Days - At Last Price</tspan><tspan dy="0.42em">​</tspan></tspan></text></g><g class="g-xtitle"><text class="xtitle" x="350" y="460.8" text-anchor="middle" style="font-family: 'Open Sans', verdana, arial, sans-serif; font-size: 14px; fill: rgb(42, 63, 95); opacity: 1; font-weight: normal; white-space: pre;">Day</text></g><g class="g-ytitle"><text class="ytitle" transform="rotate(-90,20.840625000000003,260)" x="20.840625000000003" y="260" text-anchor="middle" style="font-family: 'Open Sans', verdana, arial, sans-serif; font-size: 14px; fill: rgb(42, 63, 95); opacity: 1; font-weight: normal; white-space: pre;">Cumulative Net Dollar Flow (N$F)</text></g></g></svg>