<svg class="main-svg" xmlns="http://www.w3.org/2000/svg" xmlns:xlink="http://www.w3.org/1999/xlink" width="700" height="500" style="" viewBox="0 0 700 500"><rect x="0" y="0" width="700" height="500" style="fill: rgb(255, 255, 255); fill-opacity: 1;"/><defs id="defs-c9a84b"><g class="clips"><clipPath id="clipc9a84bxyplot" class="plotclip"><rect width="540" height="320"/></clipPath><clipPath class="axesclip" id="clipc9a84bx"><rect x="80" y="0" width="540" height="500"/></clipPath><clipPath class="axesclip" id="clipc9a84by"><rect x="0" y="100" width="700" height="320"/></clipPath><clipPath class="axesclip" id="clipc9a84bxy"><rect x="80" y="100" width="540" height="320"/></clipPath></g><g class="gradients"/><g class="patterns"/></defs><g class="bglayer"><rect class="bg" x="80" y="100" width="540" height="320" style="fill: rgb(229, 236, 246); fill-opacity: 1; stroke-width: 0;"/></g><g class="layer-below"><g class="imagelayer"/><g class="shapelayer"/></g><g class="cartesianlayer"><g class="subplot xy"><g class="layer-subplot"><g class="shapelayer"/><g class="imagelayer"/></g><g class="minor-gridlayer"><g class="x"/><g class="y"/></g><g class="gridlayer"><g class="x"><path class="xgrid crisp" transform="translate(108.72,0)" d="M0,100v320" style="stroke: rgb(255, 255, 255); stroke-opacity: 1; stroke-width: 1px;"/><path class="xgrid crisp" transform="translate(197.76999999999998,0)" d="M0,100v320" style="stroke: rgb(255, 255, 255); stroke-opacity: 1; stroke-width: 1px;"/><path class="xgrid crisp" transform="translate(283.94,0)" d="M0,100v320" style="stroke: rgb(255, 255, 255); stroke-opacity: 1; stroke-width: 1px;"/><path class="xgrid crisp" transform="translate(372.98,0)" d="M0,100v320" style="stroke: rgb(255, 255, 255); stroke-opacity: 1; stroke-width: 1px;"/><path class="xgrid crisp" transform="translate(459.15,0)" d="M0,100v320" style="stroke: rgb(255, 255, 255); stroke-opacity: 1; stroke-width: 1px;"/><path class="xgrid crisp" transform="translate(548.19,0)" d="M0,100v320" style="stroke: rgb(255, 255, 255); stroke-opacity: 1; stroke-width: 1px;"/></g><g class="y"><path class="ygrid crisp" transform="translate(0,346.28)" d="M80,0h540" style="stroke: rgb(255, 255, 255); stroke-opacity: 1; stroke-width: 1px;"/><path class="ygrid crisp" transform="translate(0,307.76)" d="M80,0h540" style="stroke: rgb(255, 255, 255); stroke-opacity: 1; stroke-width: 1px;"/><path class="ygrid crisp" transform="translate(0,269.24)" d="M80,0h540" style="stroke: rgb(255, 255, 255); stroke-opacity: 1; stroke-width: 1px;"/><path class="ygrid crisp" transform="translate(0,230.72)" d="M80,0h540" style="stroke: rgb(255, 255, 255); stroke-opacity: 1; stroke-width: 1px;"/><path class="ygrid crisp" transform="translate(0,192.2)" d="M80,0h540" style="stroke: rgb(255, 255, 255); stroke-opacity: 1; stroke-width: 1px;"/><path class="ygrid crisp" transform="translate(0,153.68)" d="M80,0h540" style="stroke: rgb(255, 255, 255); stroke-opacity: 1; stroke-width: 1px;"/><path class="ygrid crisp" transform="translate(0,115.16)" d="M80,0h540" style="stroke: rgb(255, 255, 255); stroke-opacity: 1; stroke-width: 1px;"/></g></g><g class="zerolinelayer"><path class="yzl zl crisp" transform="translate(0,384.8)" d="M80,0h540" style="stroke: rgb(255, 255, 255); stroke-opacity: 1; stroke-width: 2px;"/></g><path class="xlines-below"/><path class="ylines-below"/><g class="overlines-below"/><g class="xaxislayer-below"/><g class="yaxislayer-below"/><g class="overaxes-below"/><g class="plot" transform="translate(80,100)" clip-path="url(#clipc9a84bxyplot)"><g class="scatterlayer mlayer"><g class="trace scatter traceab4cc2" style="stroke-miterlimit: 2;"><g class="fills"><g><path class="js-fill" d="M540,284.8L0,284.8L0,284.32L2.87,281.38L5.74,275.08L11.49,270.3L14.36,246.17L17.23,192.68L20.11,156.92L22.98,142.37L25.85,136.98L34.47,122.58L37.34,114.82L40.21,90.22L43.09,81.08L45.96,56.91L48.83,54.84L54.57,29.18L57.45,26.14L60.32,21.89L63.19,28.8L66.06,46.71L68.94,83.8L71.81,64.3L74.68,55.78L77.55,59.25L80.43,59.23L83.3,56.42L86.17,56.36L89.04,58.57L91.91,73.71L94.79,71.44L97.66,61.82L100.53,22.52L103.4,33.86L106.28,32.39L109.15,32.36L112.02,33.27L114.89,37.36L120.64,54.27L123.51,54.96L129.26,55.04L132.13,59.55L135,58.63L137.87,59.45L140.74,59.64L143.62,62.52L146.49,63.03L149.36,62.26L152.23,69.17L155.11,79.68L157.98,101.36L160.85,304L189.57,44.35L192.45,44.35L195.32,44.35L198.19,43.33L203.94,42.02L206.81,39.01L209.68,33.87L212.55,18.39L218.3,19.41L221.17,21.33L224.04,303.98L226.91,22.89L229.79,22.46L232.66,16L235.53,24.58L238.4,23.5L241.28,31.06L244.15,31.43L252.77,29.71L255.64,37.57L258.51,38.35L261.38,32.13L264.26,28.31L267.13,28.27L270,34.56L272.87,33.9L275.74,35.39L278.62,32.55L281.49,34.88L284.36,34.98L290.11,30.94L292.98,31.24L295.85,26.78L298.72,23.89L301.6,30.98L304.47,31.87L307.34,31.61L310.21,28.86L313.09,27.75L315.96,34.86L318.83,49.8L321.7,41.64L324.57,47.19L327.45,48.81L330.32,45.56L333.19,44.3L336.06,36.38L338.94,60.36L341.81,61.5L344.68,60.86L350.43,62.97L353.3,64.37L356.17,73.91L359.04,75.25L361.91,75.74L364.79,77.65L370.53,76.86L373.4,78.32L376.28,92.45L379.15,90.15L382.02,78.1L384.89,78.27L387.77,77.46L390.64,77.51L393.51,77.96L396.38,60.73L399.26,47.03L402.13,46.6L407.87,46.11L410.74,75.4L413.62,75.85L416.49,73.23L425.11,70.86L427.98,57.82L430.85,60.97L433.72,59.98L436.6,32.58L439.47,32.7L442.34,33.09L445.21,27.31L448.09,32.3L450.96,31.18L453.83,25.49L456.7,25.13L462.45,27.31L465.32,42.16L468.19,54.71L471.06,54.63L476.81,57.43L479.68,59.71L482.55,62.4L485.43,62.06L488.3,57.77L491.17,57.09L494.04,57.58L496.91,55.54L499.79,50.59L502.66,49.01L505.53,48.51L508.4,50.74L511.28,53.81L514.15,52.06L517.02,54.08L519.89,53.4L522.77,51.24L525.64,42.23L528.51,36.21L531.38,37.97L534.26,38.55L537.13,38.1L540,36.27" style="fill: rgb(99, 110, 250); fill-opacity: 0.5; stroke-width: 0;"/></g></g><g class="errorbars"/><g class="lines"><path class="js-line" d="M0,284.32L2.87,281.38L5.74,275.08L11.49,270.3L14.36,246.17L17.23,192.68L20.11,156.92L22.98,142.37L25.85,136.98L34.47,122.58L37.34,114.82L40.21,90.22L43.09,81.08L45.96,56.91L48.83,54.84L54.57,29.18L57.45,26.14L60.32,21.89L63.19,28.8L66.06,46.71L68.94,83.8L71.81,64.3L74.68,55.78L77.55,59.25L80.43,59.23L83.3,56.42L86.17,56.36L89.04,58.57L91.91,73.71L94.79,71.44L97.66,61.82L100.53,22.52L103.4,33.86L106.28,32.39L109.15,32.36L112.02,33.27L114.89,37.36L120.64,54.27L123.51,54.96L129.26,55.04L132.13,59.55L135,58.63L137.87,59.45L140.74,59.64L143.62,62.52L146.49,63.03L149.36,62.26L152.23,69.17L155.11,79.68L157.98,101.36L160.85,304L189.57,44.35L192.45,44.35L195.32,44.35L198.19,43.33L203.94,42.02L206.81,39.01L209.68,33.87L212.55,18.39L218.3,19.41L221.17,21.33L224.04,303.98L226.91,22.89L229.79,22.46L232.66,16L235.53,24.58L238.4,23.5L241.28,31.06L244.15,31.43L252.77,29.71L255.64,37.57L258.51,38.35L261.38,32.13L264.26,28.31L267.13,28.27L270,34.56L272.87,33.9L275.74,35.39L278.62,32.55L281.49,34.88L284.36,34.98L290.11,30.94L292.98,31.24L295.85,26.78L298.72,23.89L301.6,30.98L304.47,31.87L307.34,31.61L310.21,28.86L313.09,27.75L315.96,34.86L318.83,49.8L321.7,41.64L324.57,47.19L327.45,48.81L330.32,45.56L333.19,44.3L336.06,36.38L338.94,60.36L341.81,61.5L344.68,60.86L350.43,62.97L353.3,64.37L356.17,73.91L359.04,75.25L361.91,75.74L364.79,77.65L370.53,76.86L373.4,78.32L376.28,92.45L379.15,90.15L382.02,78.1L384.89,78.27L387.77,77.46L390.64,77.51L393.51,77.96L396.38,60.73L399.26,47.03L402.13,46.6L407.87,46.11L410.74,75.4L413.62,75.85L416.49,73.23L425.11,70.86L427.98,57.82L430.85,60.97L433.72,59.98L436.6,32.58L439.47,32.7L442.34,33.09L445.21,27.31L448.09,32.3L450.96,31.18L453.83,25.49L456.7,25.13L462.45,27.31L465.32,42.16L468.19,54.71L471.06,54.63L476.81,57.43L479.68,59.71L482.55,62.4L485.43,62.06L488.3,57.77L491.17,57.09L494.04,57.58L496.91,55.54L499.79,50.59L502.66,49.01L505.53,48.51L508.4,50.74L511.28,53.81L514.15,52.06L517.02,54.08L519.89,53.4L522.77,51.24L525.64,42.23L528.51,36.21L531.38,37.97L534.26,38.55L537.13,38.1L540,36.27" style="vector-effect: non-scaling-stroke; fill: none; stroke: rgb(99, 110, 250); stroke-opacity: 1; stroke-width: 2px; opacity: 1;"/></g><g class="points"/><g class="text"/></g></g></g><g class="overplot"/><path class="xlines-above crisp" d="M0,0" style="fill: none;"/><path class="ylines-above crisp" d="M0,0" style="fill: none;"/><g class="overlines-above"/><g class="xaxislayer-above"><g class="xtick"><text text-anchor="middle" x="0" y="433" transform="translate(108.72,0)" style="font-family: 'Open Sans', verdana, arial, sans-serif; font-size: 12px; fill: rgb(42, 63, 95); fill-opacity: 1; white-space: pre; opacity: 1;">Aug 2022</text></g><g class="xtick"><text text-anchor="middle" x="0" y="433" style="font-family: 'Open Sans', verdana, arial, sans-serif; font-size: 12px; fill: rgb(42, 63, 95); fill-opacity: 1; white-space: pre; opacity: 1;" transform="translate(197.76999999999998,0)">Sep 2022</text></g><g class="xtick"><text text-anchor="middle" x="0" y="433" style="font-family: 'Open Sans', verdana, arial, sans-serif; font-size: 12px; fill: rgb(42, 63, 95); fill-opacity: 1; white-space: pre; opacity: 1;" transform="translate(283.94,0)">Oct 2022</text></g><g class="xtick"><text text-anchor="middle" x="0" y="433" style="font-family: 'Open Sans', verdana, arial, sans-serif; font-size: 12px; fill: rgb(42, 63, 95); fill-opacity: 1; white-space: pre; opacity: 1;" transform="translate(372.98,0)">Nov 2022</text></g><g class="xtick"><text text-anchor="middle" x="0" y="433" style="font-family: 'Open Sans', verdana, arial, sans-serif; font-size: 12px; fill: rgb(42, 63, 95); fill-opacity: 1; white-space: pre; opacity: 1;" transform="translate(459.15,0)">Dec 2022</text></g><g class="xtick"><text text-anchor="middle" x="0" y="433" style="font-family: 'Open Sans', verdana, arial, sans-serif; font-size: 12px; fill: rgb(42, 63, 95); fill-opacity: 1; white-space: pre; opacity: 1;" transform="translate(548.19,0)">Jan 2023</text></g></g><g class="yaxislayer-above"><g class="ytick"><text text-anchor="end" x="79" y="4.199999999999999" transform="translate(0,384.8)" style="font-family: 'Open Sans', verdana, arial, sans-serif; font-size: 12px; fill: rgb(42, 63, 95); fill-opacity: 1; white-space: pre; opacity: 1;">$0</text></g><g class="ytick"><text text-anchor="end" x="79" y="4.199999999999999" style="font-family: 'Open Sans', verdana, arial, sans-serif; font-size: 12px; fill: rgb(42, 63, 95); fill-opacity: 1; white-space: pre; opacity: 1;" transform="translate(0,346.28)">$5M</text></g><g class="ytick"><text text-anchor="end" x="79" y="4.199999999999999" style="font-family: 'Open Sans', verdana, arial, sans-serif; font-size: 12px; fill: rgb(42, 63, 95); fill-opacity: 1; white-space: pre; opacity: 1;" transform="translate(0,307.76)">$10M</text></g><g class="ytick"><text text-anchor="end" x="79" y="4.199999999999999" style="font-family: 'Open Sans', verdana, arial, sans-serif; font-size: 12px; fill: rgb(42, 63, 95); fill-opacity: 1; white-space: pre; opacity: 1;" transform="translate(0,269.24)">$15M</text></g><g class="ytick"><text text-anchor="end" x="79" y="4.199999999999999" style="font-family: 'Open Sans', verdana, arial, sans-serif; font-size: 12px; fill: rgb(42, 63, 95); fill-opacity: 1; white-space: pre; opacity: 1;" transform="translate(0,230.72)">$20M</text></g><g class="ytick"><text text-anchor="end" x="79" y="4.199999999999999" style="font-family: 'Open Sans', verdana, arial, sans-serif; font-size: 12px; fill: rgb(42, 63, 95); fill-opacity: 1; white-space: pre; opacity: 1;" transform="translate(0,192.2)">$25M</text></g><g class="ytick"><text text-anchor="end" x="79" y="4.199999999999999" style="font-family: 'Open Sans', verdana, arial, sans-serif; font-size: 12px; fill: rgb(42, 63, 95); fill-opacity: 1; white-space: pre; opacity: 1;" transform="translate(0,153.68)">$30M</text></g><g class="ytick"><text text-anchor="end" x="79" y="4.199999999999999" style="font-family: 'Open Sans', verdana, arial, sans-serif; font-size: 12px; fill: rgb(42, 63, 95); fill-opacity: 1; white-space: pre; opacity: 1;" transform="translate(0,115.16)">$35M</text></g></g><g class="overaxes-above"/></g></g><g class="polarlayer"/><g class="smithlayer"/><g class="ternarylayer"/><g class="geolayer"/><g class="funnelarealayer"/><g class="pielayer"/><g class="iciclelayer"/><g class="treemaplayer"/><g class="sunburstlayer"/><g class="glimages"/><defs id="topdefs-c9a84b"><g class="clips"/></defs><g class="layer-above"><g class="imagelayer"/><g class="shapelayer"/></g><g class="infolayer"><g class="g-gtitle"><text class="gtitle" x="35" y="50" text-anchor="start" dy="0em" style="font-family: 'Open Sans', verdana, arial, sans-serif; font-size: 17px; fill: rgb(42, 63, 95); opacity: 1; font-weight: normal; white-space: pre;"><tspan class="line" dy="0em" x="35" y="50">Pooltogether</tspan><tspan class="line" dy="1.3em" x="35" y="50">​<tspan style="font-size:70%" dy="-0.6em">Cumulative Net Dollar Flow since Program Announcement, Until Program End + 30 Days - At Last Price</tspan><tspan dy="0.42em">​</tspan></tspan></text></g><g class="g-xtitle"><text class="xtitle" x="350" y="460.8" text-anchor="middle" style="font-family: 'Open Sans', verdana, arial, sans-serif; font-size: 14px; fill: rgb(42, 63, 95); opacity: 1; font-weight: normal; white-space: pre;">Day</text></g><g class="g-ytitle"><text class="ytitle" transform="rotate(-90,24.168750000000003,260)" x="24.168750000000003" y="260" text-anchor="middle" style="font-family: 'Open Sans', verdana, arial, sans-serif; font-size: 14px; fill: rgb(42, 63, 95); opacity: 1; font-weight: normal; white-space: pre;">Cumulative Net Dollar Flow (N$F)</text></g></g></svg>