<svg class="main-svg" xmlns="http://www.w3.org/2000/svg" xmlns:xlink="http://www.w3.org/1999/xlink" width="700" height="500" style="" viewBox="0 0 700 500"><rect x="0" y="0" width="700" height="500" style="fill: rgb(255, 255, 255); fill-opacity: 1;"/><defs id="defs-b19f54"><g class="clips"><clipPath id="clipb19f54xyplot" class="plotclip"><rect width="540" height="320"/></clipPath><clipPath class="axesclip" id="clipb19f54x"><rect x="80" y="0" width="540" height="500"/></clipPath><clipPath class="axesclip" id="clipb19f54y"><rect x="0" y="100" width="700" height="320"/></clipPath><clipPath class="axesclip" id="clipb19f54xy"><rect x="80" y="100" width="540" height="320"/></clipPath></g><g class="gradients"/><g class="patterns"/></defs><g class="bglayer"><rect class="bg" x="80" y="100" width="540" height="320" style="fill: rgb(229, 236, 246); fill-opacity: 1; stroke-width: 0;"/></g><g class="layer-below"><g class="imagelayer"/><g class="shapelayer"/></g><g class="cartesianlayer"><g class="subplot xy"><g class="layer-subplot"><g class="shapelayer"/><g class="imagelayer"/></g><g class="minor-gridlayer"><g class="x"/><g class="y"/></g><g class="gridlayer"><g class="x"><path class="xgrid crisp" transform="translate(158.3,0)" d="M0,100v320" style="stroke: rgb(255, 255, 255); stroke-opacity: 1; stroke-width: 1px;"/><path class="xgrid crisp" transform="translate(239.3,0)" d="M0,100v320" style="stroke: rgb(255, 255, 255); stroke-opacity: 1; stroke-width: 1px;"/><path class="xgrid crisp" transform="translate(323,0)" d="M0,100v320" style="stroke: rgb(255, 255, 255); stroke-opacity: 1; stroke-width: 1px;"/><path class="xgrid crisp" transform="translate(404,0)" d="M0,100v320" style="stroke: rgb(255, 255, 255); stroke-opacity: 1; stroke-width: 1px;"/><path class="xgrid crisp" transform="translate(487.7,0)" d="M0,100v320" style="stroke: rgb(255, 255, 255); stroke-opacity: 1; stroke-width: 1px;"/><path class="xgrid crisp" transform="translate(571.4,0)" d="M0,100v320" style="stroke: rgb(255, 255, 255); stroke-opacity: 1; stroke-width: 1px;"/></g><g class="y"><path class="ygrid crisp" transform="translate(0,304.57)" d="M80,0h540" style="stroke: rgb(255, 255, 255); stroke-opacity: 1; stroke-width: 1px;"/><path class="ygrid crisp" transform="translate(0,241.5)" d="M80,0h540" style="stroke: rgb(255, 255, 255); stroke-opacity: 1; stroke-width: 1px;"/><path class="ygrid crisp" transform="translate(0,178.43)" d="M80,0h540" style="stroke: rgb(255, 255, 255); stroke-opacity: 1; stroke-width: 1px;"/><path class="ygrid crisp" transform="translate(0,115.36)" d="M80,0h540" style="stroke: rgb(255, 255, 255); stroke-opacity: 1; stroke-width: 1px;"/></g></g><g class="zerolinelayer"><path class="yzl zl crisp" transform="translate(0,367.64)" d="M80,0h540" style="stroke: rgb(255, 255, 255); stroke-opacity: 1; stroke-width: 2px;"/></g><path class="xlines-below"/><path class="ylines-below"/><g class="overlines-below"/><g class="xaxislayer-below"/><g class="yaxislayer-below"/><g class="overaxes-below"/><g class="plot" transform="translate(80,100)" clip-path="url(#clipb19f54xyplot)"><g class="scatterlayer mlayer"><g class="trace scatter trace6545f8" style="stroke-miterlimit: 2;"><g class="fills"><g><path class="js-fill" d="M540,267.64L0,267.64L0,262.57L2.7,150.41L5.4,116.34L8.1,54.86L10.8,35.14L13.5,34.3L16.2,23.5L18.9,27.54L21.6,22.92L24.3,27.14L27,16L29.7,18.45L32.4,18.64L35.1,18.99L37.8,27.02L43.2,32.05L45.9,33.36L51.3,31.48L54,27.95L56.7,26.18L59.4,26.11L62.1,27.78L64.8,33.54L67.5,32.53L70.2,33.83L72.9,30.32L75.6,28.88L78.3,28.72L81,27.8L83.7,32.17L86.4,32.64L89.1,32.6L91.8,36.51L94.5,42.32L97.2,40.05L99.9,39.58L102.6,36.52L105.3,35.6L108,37.49L110.7,36.14L113.4,36.03L118.8,41.4L121.5,47.69L124.2,44.91L126.9,50.08L129.6,49.61L132.3,49.97L135,43L137.7,44.34L140.4,44.66L143.1,41.82L145.8,43.25L148.5,46.05L151.2,42.5L153.9,42.14L156.6,44.59L159.3,45.47L162,45.05L164.7,45.39L167.4,44.57L170.1,42.74L172.8,42.57L175.5,43.54L178.2,44.67L180.9,47.43L183.6,47.11L186.3,45.33L189,41.56L191.7,41.63L194.4,39.85L197.1,45.94L199.8,51.73L202.5,46.24L205.2,49.75L207.9,46.66L210.6,47.61L213.3,47.63L216,51.77L218.7,51.58L221.4,49.89L224.1,50.37L226.8,46.51L229.5,40.94L232.2,43.63L234.9,30.52L243,30.84L245.7,36.31L248.4,47.83L251.1,48.61L253.8,46.39L256.5,47.89L259.2,51.13L261.9,52.79L264.6,42.97L267.3,56.35L270,53.95L272.7,54.69L275.4,55.43L278.1,76.83L280.8,75.06L283.5,76.59L286.2,78.4L288.9,78.49L291.6,78.73L294.3,88.42L299.7,90.93L302.4,90.34L305.1,303.85L307.8,91.14L313.2,91.11L315.9,92.05L318.6,91.97L321.3,89.49L324,90.67L326.7,93.68L332.1,94.91L334.8,94.26L340.2,93.46L342.9,94.03L345.6,92.88L348.3,93.3L351,96.5L353.7,94.94L356.4,96.64L359.1,97.36L364.5,99.41L367.2,103.58L369.9,99.78L372.6,100.74L375.3,102.05L378,101.02L405,102.69L407.7,102.69L415.8,102.23L418.5,101.23L426.6,100.96L429.3,99.77L432,100.85L434.7,100.5L437.4,98.8L440.1,98.53L442.8,94.55L445.5,93.91L450.9,92.79L453.6,92.77L456.3,94.28L459,93.41L461.7,89.12L464.4,88.17L467.1,88.88L469.8,88.65L472.5,90.51L475.2,88.34L477.9,89.76L480.6,88.85L483.3,93.88L486,91.97L488.7,103.7L491.4,142.97L494.1,151.51L496.8,176.47L499.5,209.65L502.2,224.56L507.6,226.39L510.3,244.92L513,245.84L515.7,247.74L521.1,248.32L523.8,248.79L526.5,249.42L529.2,248.57L531.9,245.96L534.6,246.67L537.3,246.19L540,246.65L540,304" style="fill: rgb(99, 110, 250); fill-opacity: 0.5; stroke-width: 0;"/></g></g><g class="errorbars"/><g class="lines"><path class="js-line" d="M0,262.57L2.7,150.41L5.4,116.34L8.1,54.86L10.8,35.14L13.5,34.3L16.2,23.5L18.9,27.54L21.6,22.92L24.3,27.14L27,16L29.7,18.45L32.4,18.64L35.1,18.99L37.8,27.02L43.2,32.05L45.9,33.36L51.3,31.48L54,27.95L56.7,26.18L59.4,26.11L62.1,27.78L64.8,33.54L67.5,32.53L70.2,33.83L72.9,30.32L75.6,28.88L78.3,28.72L81,27.8L83.7,32.17L86.4,32.64L89.1,32.6L91.8,36.51L94.5,42.32L97.2,40.05L99.9,39.58L102.6,36.52L105.3,35.6L108,37.49L110.7,36.14L113.4,36.03L118.8,41.4L121.5,47.69L124.2,44.91L126.9,50.08L129.6,49.61L132.3,49.97L135,43L137.7,44.34L140.4,44.66L143.1,41.82L145.8,43.25L148.5,46.05L151.2,42.5L153.9,42.14L156.6,44.59L159.3,45.47L162,45.05L164.7,45.39L167.4,44.57L170.1,42.74L172.8,42.57L175.5,43.54L178.2,44.67L180.9,47.43L183.6,47.11L186.3,45.33L189,41.56L191.7,41.63L194.4,39.85L197.1,45.94L199.8,51.73L202.5,46.24L205.2,49.75L207.9,46.66L210.6,47.61L213.3,47.63L216,51.77L218.7,51.58L221.4,49.89L224.1,50.37L226.8,46.51L229.5,40.94L232.2,43.63L234.9,30.52L243,30.84L245.7,36.31L248.4,47.83L251.1,48.61L253.8,46.39L256.5,47.89L259.2,51.13L261.9,52.79L264.6,42.97L267.3,56.35L270,53.95L272.7,54.69L275.4,55.43L278.1,76.83L280.8,75.06L283.5,76.59L286.2,78.4L288.9,78.49L291.6,78.73L294.3,88.42L299.7,90.93L302.4,90.34L305.1,303.85L307.8,91.14L313.2,91.11L315.9,92.05L318.6,91.97L321.3,89.49L324,90.67L326.7,93.68L332.1,94.91L334.8,94.26L340.2,93.46L342.9,94.03L345.6,92.88L348.3,93.3L351,96.5L353.7,94.94L356.4,96.64L359.1,97.36L364.5,99.41L367.2,103.58L369.9,99.78L372.6,100.74L375.3,102.05L378,101.02L405,102.69L407.7,102.69L415.8,102.23L418.5,101.23L426.6,100.96L429.3,99.77L432,100.85L434.7,100.5L437.4,98.8L440.1,98.53L442.8,94.55L445.5,93.91L450.9,92.79L453.6,92.77L456.3,94.28L459,93.41L461.7,89.12L464.4,88.17L467.1,88.88L469.8,88.65L472.5,90.51L475.2,88.34L477.9,89.76L480.6,88.85L483.3,93.88L486,91.97L488.7,103.7L491.4,142.97L494.1,151.51L496.8,176.47L499.5,209.65L502.2,224.56L507.6,226.39L510.3,244.92L513,245.84L515.7,247.74L521.1,248.32L523.8,248.79L526.5,249.42L529.2,248.57L531.9,245.96L534.6,246.67L537.3,246.19L540,246.65L540,304" style="vector-effect: non-scaling-stroke; fill: none; stroke: rgb(99, 110, 250); stroke-opacity: 1; stroke-width: 2px; opacity: 1;"/></g><g class="points"/><g class="text"/></g></g></g><g class="overplot"/><path class="xlines-above crisp" d="M0,0" style="fill: none;"/><path class="ylines-above crisp" d="M0,0" style="fill: none;"/><g class="overlines-above"/><g class="xaxislayer-above"><g class="xtick"><text text-anchor="middle" x="0" y="433" transform="translate(158.3,0)" style="font-family: 'Open Sans', verdana, arial, sans-serif; font-size: 12px; fill: rgb(42, 63, 95); fill-opacity: 1; white-space: pre; opacity: 1;">Sep 2022</text></g><g class="xtick"><text text-anchor="middle" x="0" y="433" style="font-family: 'Open Sans', verdana, arial, sans-serif; font-size: 12px; fill: rgb(42, 63, 95); fill-opacity: 1; white-space: pre; opacity: 1;" transform="translate(239.3,0)">Oct 2022</text></g><g class="xtick"><text text-anchor="middle" x="0" y="433" style="font-family: 'Open Sans', verdana, arial, sans-serif; font-size: 12px; fill: rgb(42, 63, 95); fill-opacity: 1; white-space: pre; opacity: 1;" transform="translate(323,0)">Nov 2022</text></g><g class="xtick"><text text-anchor="middle" x="0" y="433" style="font-family: 'Open Sans', verdana, arial, sans-serif; font-size: 12px; fill: rgb(42, 63, 95); fill-opacity: 1; white-space: pre; opacity: 1;" transform="translate(404,0)">Dec 2022</text></g><g class="xtick"><text text-anchor="middle" x="0" y="433" style="font-family: 'Open Sans', verdana, arial, sans-serif; font-size: 12px; fill: rgb(42, 63, 95); fill-opacity: 1; white-space: pre; opacity: 1;" transform="translate(487.7,0)">Jan 2023</text></g><g class="xtick"><text text-anchor="middle" x="0" y="433" style="font-family: 'Open Sans', verdana, arial, sans-serif; font-size: 12px; fill: rgb(42, 63, 95); fill-opacity: 1; white-space: pre; opacity: 1;" transform="translate(571.4,0)">Feb 2023</text></g></g><g class="yaxislayer-above"><g class="ytick"><text text-anchor="end" x="79" y="4.199999999999999" transform="translate(0,367.64)" style="font-family: 'Open Sans', verdana, arial, sans-serif; font-size: 12px; fill: rgb(42, 63, 95); fill-opacity: 1; white-space: pre; opacity: 1;">$0</text></g><g class="ytick"><text text-anchor="end" x="79" y="4.199999999999999" style="font-family: 'Open Sans', verdana, arial, sans-serif; font-size: 12px; fill: rgb(42, 63, 95); fill-opacity: 1; white-space: pre; opacity: 1;" transform="translate(0,304.57)">$1M</text></g><g class="ytick"><text text-anchor="end" x="79" y="4.199999999999999" style="font-family: 'Open Sans', verdana, arial, sans-serif; font-size: 12px; fill: rgb(42, 63, 95); fill-opacity: 1; white-space: pre; opacity: 1;" transform="translate(0,241.5)">$2M</text></g><g class="ytick"><text text-anchor="end" x="79" y="4.199999999999999" style="font-family: 'Open Sans', verdana, arial, sans-serif; font-size: 12px; fill: rgb(42, 63, 95); fill-opacity: 1; white-space: pre; opacity: 1;" transform="translate(0,178.43)">$3M</text></g><g class="ytick"><text text-anchor="end" x="79" y="4.199999999999999" style="font-family: 'Open Sans', verdana, arial, sans-serif; font-size: 12px; fill: rgb(42, 63, 95); fill-opacity: 1; white-space: pre; opacity: 1;" transform="translate(0,115.36)">$4M</text></g></g><g class="overaxes-above"/></g></g><g class="polarlayer"/><g class="smithlayer"/><g class="ternarylayer"/><g class="geolayer"/><g class="funnelarealayer"/><g class="pielayer"/><g class="iciclelayer"/><g class="treemaplayer"/><g class="sunburstlayer"/><g class="glimages"/><defs id="topdefs-b19f54"><g class="clips"/></defs><g class="layer-above"><g class="imagelayer"/><g class="shapelayer"/></g><g class="infolayer"><g class="g-gtitle"><text class="gtitle" x="35" y="50" text-anchor="start" dy="0em" style="font-family: 'Open Sans', verdana, arial, sans-serif; font-size: 17px; fill: rgb(42, 63, 95); opacity: 1; font-weight: normal; white-space: pre;"><tspan class="line" dy="0em" x="35" y="50">Wepiggy</tspan><tspan class="line" dy="1.3em" x="35" y="50">​<tspan style="font-size:70%" dy="-0.6em">Cumulative Net Flows since Program Announcement, Until Program End + 30 Days - At Last Price</tspan><tspan dy="0.42em">​</tspan></tspan></text></g><g class="g-xtitle"><text class="xtitle" x="350" y="460.8" text-anchor="middle" style="font-family: 'Open Sans', verdana, arial, sans-serif; font-size: 14px; fill: rgb(42, 63, 95); opacity: 1; font-weight: normal; white-space: pre;">Day</text></g><g class="g-ytitle"><text class="ytitle" transform="rotate(-90,30.856250000000003,260)" x="30.856250000000003" y="260" text-anchor="middle" style="font-family: 'Open Sans', verdana, arial, sans-serif; font-size: 14px; fill: rgb(42, 63, 95); opacity: 1; font-weight: normal; white-space: pre;">Cumulative Net Flows (USD)</text></g></g></svg>