<svg class="main-svg" xmlns="http://www.w3.org/2000/svg" xmlns:xlink="http://www.w3.org/1999/xlink" width="700" height="500" style="" viewBox="0 0 700 500"><rect x="0" y="0" width="700" height="500" style="fill: rgb(255, 255, 255); fill-opacity: 1;"/><defs id="defs-7c2e5f"><g class="clips"><clipPath id="clip7c2e5fxyplot" class="plotclip"><rect width="540" height="320"/></clipPath><clipPath class="axesclip" id="clip7c2e5fx"><rect x="80" y="0" width="540" height="500"/></clipPath><clipPath class="axesclip" id="clip7c2e5fy"><rect x="0" y="100" width="700" height="320"/></clipPath><clipPath class="axesclip" id="clip7c2e5fxy"><rect x="80" y="100" width="540" height="320"/></clipPath></g><g class="gradients"/><g class="patterns"/></defs><g class="bglayer"><rect class="bg" x="80" y="100" width="540" height="320" style="fill: rgb(229, 236, 246); fill-opacity: 1; stroke-width: 0;"/></g><g class="layer-below"><g class="imagelayer"/><g class="shapelayer"/></g><g class="cartesianlayer"><g class="subplot xy"><g class="layer-subplot"><g class="shapelayer"/><g class="imagelayer"/></g><g class="minor-gridlayer"><g class="x"/><g class="y"/></g><g class="gridlayer"><g class="x"><path class="xgrid crisp" transform="translate(91.49,0)" d="M0,100v320" style="stroke: rgb(255, 255, 255); stroke-opacity: 1; stroke-width: 1px;"/><path class="xgrid crisp" transform="translate(180.53,0)" d="M0,100v320" style="stroke: rgb(255, 255, 255); stroke-opacity: 1; stroke-width: 1px;"/><path class="xgrid crisp" transform="translate(266.7,0)" d="M0,100v320" style="stroke: rgb(255, 255, 255); stroke-opacity: 1; stroke-width: 1px;"/><path class="xgrid crisp" transform="translate(355.74,0)" d="M0,100v320" style="stroke: rgb(255, 255, 255); stroke-opacity: 1; stroke-width: 1px;"/><path class="xgrid crisp" transform="translate(444.79,0)" d="M0,100v320" style="stroke: rgb(255, 255, 255); stroke-opacity: 1; stroke-width: 1px;"/><path class="xgrid crisp" transform="translate(525.21,0)" d="M0,100v320" style="stroke: rgb(255, 255, 255); stroke-opacity: 1; stroke-width: 1px;"/><path class="xgrid crisp" transform="translate(614.26,0)" d="M0,100v320" style="stroke: rgb(255, 255, 255); stroke-opacity: 1; stroke-width: 1px;"/></g><g class="y"><path class="ygrid crisp" transform="translate(0,376.58)" d="M80,0h540" style="stroke: rgb(255, 255, 255); stroke-opacity: 1; stroke-width: 1px;"/><path class="ygrid crisp" transform="translate(0,333.16999999999996)" d="M80,0h540" style="stroke: rgb(255, 255, 255); stroke-opacity: 1; stroke-width: 1px;"/><path class="ygrid crisp" transform="translate(0,289.75)" d="M80,0h540" style="stroke: rgb(255, 255, 255); stroke-opacity: 1; stroke-width: 1px;"/><path class="ygrid crisp" transform="translate(0,246.34)" d="M80,0h540" style="stroke: rgb(255, 255, 255); stroke-opacity: 1; stroke-width: 1px;"/><path class="ygrid crisp" transform="translate(0,202.92000000000002)" d="M80,0h540" style="stroke: rgb(255, 255, 255); stroke-opacity: 1; stroke-width: 1px;"/><path class="ygrid crisp" transform="translate(0,159.51)" d="M80,0h540" style="stroke: rgb(255, 255, 255); stroke-opacity: 1; stroke-width: 1px;"/><path class="ygrid crisp" transform="translate(0,116.09)" d="M80,0h540" style="stroke: rgb(255, 255, 255); stroke-opacity: 1; stroke-width: 1px;"/></g></g><g class="zerolinelayer"><path class="yzl zl crisp" transform="translate(0,420)" d="M80,0h540" style="stroke: rgb(255, 255, 255); stroke-opacity: 1; stroke-width: 2px;"/></g><path class="xlines-below"/><path class="ylines-below"/><g class="overlines-below"/><g class="xaxislayer-below"/><g class="yaxislayer-below"/><g class="overaxes-below"/><g class="plot" transform="translate(80,100)" clip-path="url(#clip7c2e5fxyplot)"><g class="scatterlayer mlayer"><g class="trace scatter trace06b32f" style="stroke-miterlimit: 2;"><g class="fills"><g><path class="js-fill" d="M540,320L0,320L0,301.33L2.87,300.97L5.74,297.19L11.49,296.42L14.36,294.82L17.23,294.45L20.11,292.7L22.98,287.04L25.85,288.4L28.72,289.42L31.6,286.72L37.34,286.21L40.21,287.54L45.96,288.1L48.83,282.73L57.45,282.05L60.32,277.66L71.81,279L74.68,278.01L77.55,278.22L80.43,279.45L83.3,282.65L86.17,281.54L89.04,278.71L91.91,277.84L97.66,277.65L100.53,277.06L103.4,276.71L106.28,273.92L114.89,272.54L117.77,270.25L120.64,279.53L123.51,280.51L126.38,287.42L129.26,287.62L135,291.3L137.87,291.78L140.74,286.22L143.62,286.12L149.36,284.99L152.23,284.55L160.85,284.03L163.72,284.91L166.6,282.68L169.47,281.6L172.34,278.77L175.21,278.3L178.09,280.96L180.96,281.27L183.83,280.48L186.7,276.52L189.57,275.19L192.45,275.06L195.32,274.86L198.19,273.84L201.06,276.57L203.94,274.68L206.81,276.08L209.68,273.35L212.55,276.66L215.43,263.33L218.3,267.6L221.17,265.68L224.04,268.16L226.91,280.27L229.79,280.23L232.66,283.73L235.53,284.22L238.4,283.64L241.28,279.25L244.15,278.74L255.64,278.62L258.51,278.72L267.13,280.48L270,280.6L275.74,281.03L278.62,280.52L281.49,280.57L284.36,279.78L287.23,279.52L290.11,280.76L292.98,279.26L295.85,279.26L298.72,276.97L301.6,276.22L307.34,273.94L310.21,272.14L318.83,270.99L321.7,267.84L324.57,266.03L327.45,260.77L330.32,257.73L333.19,251.13L336.06,251.76L338.94,246.15L347.55,216.27L350.43,210.28L353.3,206.81L356.17,205.68L359.04,203.45L361.91,198.26L364.79,195.98L367.66,192.03L370.53,189.65L373.4,188.29L376.28,185.2L379.15,168.88L382.02,159.48L384.89,145.87L390.64,147.79L393.51,143.51L396.38,139.73L399.26,139.23L402.13,137.68L405,132.72L407.87,125.26L410.74,121.87L413.62,122.46L416.49,110.23L419.36,104.98L422.23,86.72L425.11,90.07L427.98,87.57L430.85,69.77L433.72,67.19L436.6,51.92L439.47,44.02L442.34,39.33L445.21,31.9L448.09,21.36L450.96,21.64L453.83,22.14L456.7,25.03L459.57,26.01L462.45,19.44L465.32,16L468.19,24.2L471.06,72.36L473.94,181.61L476.81,183.33L479.68,161.37L482.55,130.29L485.43,123.66L488.3,118.56L491.17,98.32L494.04,75.74L496.91,65.15L499.79,60.67L502.66,65.46L505.53,61.52L508.4,66.85L511.28,69.25L514.15,73.24L517.02,75.26L519.89,80.73L522.77,78.73L525.64,80.85L528.51,94.79L531.38,144.61L534.26,144.76L537.13,151.61L540,155.14" style="fill: rgb(99, 110, 250); fill-opacity: 0.5; stroke-width: 0;"/></g></g><g class="errorbars"/><g class="lines"><path class="js-line" d="M0,301.33L2.87,300.97L5.74,297.19L11.49,296.42L14.36,294.82L17.23,294.45L20.11,292.7L22.98,287.04L25.85,288.4L28.72,289.42L31.6,286.72L37.34,286.21L40.21,287.54L45.96,288.1L48.83,282.73L57.45,282.05L60.32,277.66L71.81,279L74.68,278.01L77.55,278.22L80.43,279.45L83.3,282.65L86.17,281.54L89.04,278.71L91.91,277.84L97.66,277.65L100.53,277.06L103.4,276.71L106.28,273.92L114.89,272.54L117.77,270.25L120.64,279.53L123.51,280.51L126.38,287.42L129.26,287.62L135,291.3L137.87,291.78L140.74,286.22L143.62,286.12L149.36,284.99L152.23,284.55L160.85,284.03L163.72,284.91L166.6,282.68L169.47,281.6L172.34,278.77L175.21,278.3L178.09,280.96L180.96,281.27L183.83,280.48L186.7,276.52L189.57,275.19L192.45,275.06L195.32,274.86L198.19,273.84L201.06,276.57L203.94,274.68L206.81,276.08L209.68,273.35L212.55,276.66L215.43,263.33L218.3,267.6L221.17,265.68L224.04,268.16L226.91,280.27L229.79,280.23L232.66,283.73L235.53,284.22L238.4,283.64L241.28,279.25L244.15,278.74L255.64,278.62L258.51,278.72L267.13,280.48L270,280.6L275.74,281.03L278.62,280.52L281.49,280.57L284.36,279.78L287.23,279.52L290.11,280.76L292.98,279.26L295.85,279.26L298.72,276.97L301.6,276.22L307.34,273.94L310.21,272.14L318.83,270.99L321.7,267.84L324.57,266.03L327.45,260.77L330.32,257.73L333.19,251.13L336.06,251.76L338.94,246.15L347.55,216.27L350.43,210.28L353.3,206.81L356.17,205.68L359.04,203.45L361.91,198.26L364.79,195.98L367.66,192.03L370.53,189.65L373.4,188.29L376.28,185.2L379.15,168.88L382.02,159.48L384.89,145.87L390.64,147.79L393.51,143.51L396.38,139.73L399.26,139.23L402.13,137.68L405,132.72L407.87,125.26L410.74,121.87L413.62,122.46L416.49,110.23L419.36,104.98L422.23,86.72L425.11,90.07L427.98,87.57L430.85,69.77L433.72,67.19L436.6,51.92L439.47,44.02L442.34,39.33L445.21,31.9L448.09,21.36L450.96,21.64L453.83,22.14L456.7,25.03L459.57,26.01L462.45,19.44L465.32,16L468.19,24.2L471.06,72.36L473.94,181.61L476.81,183.33L479.68,161.37L482.55,130.29L485.43,123.66L488.3,118.56L491.17,98.32L494.04,75.74L496.91,65.15L499.79,60.67L502.66,65.46L505.53,61.52L508.4,66.85L511.28,69.25L514.15,73.24L517.02,75.26L519.89,80.73L522.77,78.73L525.64,80.85L528.51,94.79L531.38,144.61L534.26,144.76L537.13,151.61L540,155.14" style="vector-effect: non-scaling-stroke; fill: none; stroke: rgb(99, 110, 250); stroke-opacity: 1; stroke-width: 2px; opacity: 1;"/></g><g class="points"/><g class="text"/></g></g></g><g class="overplot"/><path class="xlines-above crisp" d="M0,0" style="fill: none;"/><path class="ylines-above crisp" d="M0,0" style="fill: none;"/><g class="overlines-above"/><g class="xaxislayer-above"><g class="xtick"><text text-anchor="middle" x="0" y="433" transform="translate(91.49,0)" style="font-family: 'Open Sans', verdana, arial, sans-serif; font-size: 12px; fill: rgb(42, 63, 95); fill-opacity: 1; white-space: pre; opacity: 1;">Oct 2022</text></g><g class="xtick"><text text-anchor="middle" x="0" y="433" style="font-family: 'Open Sans', verdana, arial, sans-serif; font-size: 12px; fill: rgb(42, 63, 95); fill-opacity: 1; white-space: pre; opacity: 1;" transform="translate(180.53,0)">Nov 2022</text></g><g class="xtick"><text text-anchor="middle" x="0" y="433" style="font-family: 'Open Sans', verdana, arial, sans-serif; font-size: 12px; fill: rgb(42, 63, 95); fill-opacity: 1; white-space: pre; opacity: 1;" transform="translate(266.7,0)">Dec 2022</text></g><g class="xtick"><text text-anchor="middle" x="0" y="433" style="font-family: 'Open Sans', verdana, arial, sans-serif; font-size: 12px; fill: rgb(42, 63, 95); fill-opacity: 1; white-space: pre; opacity: 1;" transform="translate(355.74,0)">Jan 2023</text></g><g class="xtick"><text text-anchor="middle" x="0" y="433" style="font-family: 'Open Sans', verdana, arial, sans-serif; font-size: 12px; fill: rgb(42, 63, 95); fill-opacity: 1; white-space: pre; opacity: 1;" transform="translate(444.79,0)">Feb 2023</text></g><g class="xtick"><text text-anchor="middle" x="0" y="433" style="font-family: 'Open Sans', verdana, arial, sans-serif; font-size: 12px; fill: rgb(42, 63, 95); fill-opacity: 1; white-space: pre; opacity: 1;" transform="translate(525.21,0)">Mar 2023</text></g><g class="xtick"><text text-anchor="middle" x="0" y="433" style="font-family: 'Open Sans', verdana, arial, sans-serif; font-size: 12px; fill: rgb(42, 63, 95); fill-opacity: 1; white-space: pre; opacity: 1;" transform="translate(614.26,0)">Apr 2023</text></g></g><g class="yaxislayer-above"><g class="ytick"><text text-anchor="end" x="79" y="4.199999999999999" transform="translate(0,420)" style="font-family: 'Open Sans', verdana, arial, sans-serif; font-size: 12px; fill: rgb(42, 63, 95); fill-opacity: 1; white-space: pre; opacity: 1;">$0</text></g><g class="ytick"><text text-anchor="end" x="79" y="4.199999999999999" style="font-family: 'Open Sans', verdana, arial, sans-serif; font-size: 12px; fill: rgb(42, 63, 95); fill-opacity: 1; white-space: pre; opacity: 1;" transform="translate(0,376.58)">$10M</text></g><g class="ytick"><text text-anchor="end" x="79" y="4.199999999999999" style="font-family: 'Open Sans', verdana, arial, sans-serif; font-size: 12px; fill: rgb(42, 63, 95); fill-opacity: 1; white-space: pre; opacity: 1;" transform="translate(0,333.16999999999996)">$20M</text></g><g class="ytick"><text text-anchor="end" x="79" y="4.199999999999999" style="font-family: 'Open Sans', verdana, arial, sans-serif; font-size: 12px; fill: rgb(42, 63, 95); fill-opacity: 1; white-space: pre; opacity: 1;" transform="translate(0,289.75)">$30M</text></g><g class="ytick"><text text-anchor="end" x="79" y="4.199999999999999" style="font-family: 'Open Sans', verdana, arial, sans-serif; font-size: 12px; fill: rgb(42, 63, 95); fill-opacity: 1; white-space: pre; opacity: 1;" transform="translate(0,246.34)">$40M</text></g><g class="ytick"><text text-anchor="end" x="79" y="4.199999999999999" style="font-family: 'Open Sans', verdana, arial, sans-serif; font-size: 12px; fill: rgb(42, 63, 95); fill-opacity: 1; white-space: pre; opacity: 1;" transform="translate(0,202.92000000000002)">$50M</text></g><g class="ytick"><text text-anchor="end" x="79" y="4.199999999999999" style="font-family: 'Open Sans', verdana, arial, sans-serif; font-size: 12px; fill: rgb(42, 63, 95); fill-opacity: 1; white-space: pre; opacity: 1;" transform="translate(0,159.51)">$60M</text></g><g class="ytick"><text text-anchor="end" x="79" y="4.199999999999999" style="font-family: 'Open Sans', verdana, arial, sans-serif; font-size: 12px; fill: rgb(42, 63, 95); fill-opacity: 1; white-space: pre; opacity: 1;" transform="translate(0,116.09)">$70M</text></g></g><g class="overaxes-above"/></g></g><g class="polarlayer"/><g class="smithlayer"/><g class="ternarylayer"/><g class="geolayer"/><g class="funnelarealayer"/><g class="pielayer"/><g class="iciclelayer"/><g class="treemaplayer"/><g class="sunburstlayer"/><g class="glimages"/><defs id="topdefs-7c2e5f"><g class="clips"/></defs><g class="layer-above"><g class="imagelayer"/><g class="shapelayer"/></g><g class="infolayer"><g class="g-gtitle"><text class="gtitle" x="35" y="50" text-anchor="start" dy="0em" style="font-family: 'Open Sans', verdana, arial, sans-serif; font-size: 17px; fill: rgb(42, 63, 95); opacity: 1; font-weight: normal; white-space: pre;"><tspan class="line" dy="0em" x="35" y="50">Synthetix - All Synthetix Velo Pools</tspan><tspan class="line" dy="1.3em" x="35" y="50">​<tspan style="font-size:70%" dy="-0.6em">Cumulative Net Flows since Program Announcement, Until Program End + 30 Days - At Last Price</tspan><tspan dy="0.42em">​</tspan></tspan></text></g><g class="g-xtitle"><text class="xtitle" x="350" y="460.8" text-anchor="middle" style="font-family: 'Open Sans', verdana, arial, sans-serif; font-size: 14px; fill: rgb(42, 63, 95); opacity: 1; font-weight: normal; white-space: pre;">Day</text></g><g class="g-ytitle"><text class="ytitle" transform="rotate(-90,24.168750000000003,260)" x="24.168750000000003" y="260" text-anchor="middle" style="font-family: 'Open Sans', verdana, arial, sans-serif; font-size: 14px; fill: rgb(42, 63, 95); opacity: 1; font-weight: normal; white-space: pre;">Cumulative Net Flows (USD)</text></g></g></svg>