<svg class="main-svg" xmlns="http://www.w3.org/2000/svg" xmlns:xlink="http://www.w3.org/1999/xlink" width="700" height="500" style="" viewBox="0 0 700 500"><rect x="0" y="0" width="700" height="500" style="fill: rgb(255, 255, 255); fill-opacity: 1;"/><defs id="defs-8b145e"><g class="clips"><clipPath id="clip8b145exyplot" class="plotclip"><rect width="540" height="320"/></clipPath><clipPath class="axesclip" id="clip8b145ex"><rect x="80" y="0" width="540" height="500"/></clipPath><clipPath class="axesclip" id="clip8b145ey"><rect x="0" y="100" width="700" height="320"/></clipPath><clipPath class="axesclip" id="clip8b145exy"><rect x="80" y="100" width="540" height="320"/></clipPath></g><g class="gradients"/><g class="patterns"/></defs><g class="bglayer"><rect class="bg" x="80" y="100" width="540" height="320" style="fill: rgb(229, 236, 246); fill-opacity: 1; stroke-width: 0;"/></g><g class="layer-below"><g class="imagelayer"/><g class="shapelayer"/></g><g class="cartesianlayer"><g class="subplot xy"><g class="layer-subplot"><g class="shapelayer"/><g class="imagelayer"/></g><g class="minor-gridlayer"><g class="x"/><g class="y"/></g><g class="gridlayer"><g class="x"><path class="xgrid crisp" transform="translate(105.37,0)" d="M0,100v320" style="stroke: rgb(255, 255, 255); stroke-opacity: 1; stroke-width: 1px;"/><path class="xgrid crisp" transform="translate(214.09,0)" d="M0,100v320" style="stroke: rgb(255, 255, 255); stroke-opacity: 1; stroke-width: 1px;"/><path class="xgrid crisp" transform="translate(326.44,0)" d="M0,100v320" style="stroke: rgb(255, 255, 255); stroke-opacity: 1; stroke-width: 1px;"/><path class="xgrid crisp" transform="translate(438.79,0)" d="M0,100v320" style="stroke: rgb(255, 255, 255); stroke-opacity: 1; stroke-width: 1px;"/><path class="xgrid crisp" transform="translate(540.27,0)" d="M0,100v320" style="stroke: rgb(255, 255, 255); stroke-opacity: 1; stroke-width: 1px;"/></g><g class="y"><path class="ygrid crisp" transform="translate(0,408.17)" d="M80,0h540" style="stroke: rgb(255, 255, 255); stroke-opacity: 1; stroke-width: 1px;"/><path class="ygrid crisp" transform="translate(0,268.64)" d="M80,0h540" style="stroke: rgb(255, 255, 255); stroke-opacity: 1; stroke-width: 1px;"/><path class="ygrid crisp" transform="translate(0,198.87)" d="M80,0h540" style="stroke: rgb(255, 255, 255); stroke-opacity: 1; stroke-width: 1px;"/><path class="ygrid crisp" transform="translate(0,129.11)" d="M80,0h540" style="stroke: rgb(255, 255, 255); stroke-opacity: 1; stroke-width: 1px;"/></g></g><g class="zerolinelayer"><path class="yzl zl crisp" transform="translate(0,338.4)" d="M80,0h540" style="stroke: rgb(255, 255, 255); stroke-opacity: 1; stroke-width: 2px;"/></g><path class="xlines-below"/><path class="ylines-below"/><g class="overlines-below"/><g class="xaxislayer-below"/><g class="yaxislayer-below"/><g class="overaxes-below"/><g class="plot" transform="translate(80,100)" clip-path="url(#clip8b145exyplot)"><g class="scatterlayer mlayer"><g class="trace scatter trace672b52" style="stroke-miterlimit: 2;"><g class="fills"><g><path class="js-fill" d="M540,238.4L0,238.4L0,238.4L3.62,238.4L7.25,193.16L10.87,127.71L14.5,137.28L18.12,139.97L21.74,126.98L25.37,129.89L28.99,119.75L32.62,116.04L36.24,139.72L39.87,139.07L43.49,137.47L47.11,137.23L50.74,139.86L54.36,157.79L57.99,169.42L61.61,169.05L65.23,161.89L68.86,160.8L72.48,130.22L76.11,130.63L79.73,128.79L83.36,134.67L86.98,142.77L90.6,147.67L94.23,144.62L97.85,142.89L101.48,143.75L105.1,143.64L108.72,142.32L112.35,142.05L115.97,138.11L119.6,129.31L123.22,114.42L126.85,123.24L130.47,126.08L134.09,148.83L137.72,135.16L144.97,118L148.59,137.88L152.21,138.9L155.84,158.07L159.46,144.42L163.09,144.02L166.71,144.79L170.34,153.69L173.96,152.8L177.58,153L184.83,152.91L188.46,147.61L192.08,139.25L195.7,138.72L199.33,138.72L202.95,139.6L206.58,137.11L210.2,137.33L213.83,137.4L217.45,135.64L221.07,136.03L224.7,135.31L228.32,132.08L231.95,131.78L235.57,135.6L239.19,134.26L242.82,136.66L246.44,136.45L250.07,135.61L253.69,133.04L257.32,129.71L260.94,131.16L271.81,130.9L275.44,129.1L279.06,130.48L282.68,133.31L286.31,126.66L289.93,121.8L293.56,120.79L297.18,118.56L300.81,111.41L304.43,143.42L308.05,138.35L311.68,142.37L315.3,163.9L318.93,168.06L322.55,164.89L326.17,160.65L333.42,156.39L337.05,144.1L340.67,146.63L344.3,145.76L347.92,144.03L351.54,123.55L355.17,134.4L358.79,129.38L362.42,116.18L366.04,125.45L369.66,125L373.29,119.98L376.91,120.26L380.54,101.51L384.16,120.61L387.79,122.6L391.41,121.79L395.03,113.88L398.66,112.74L402.28,113.52L405.91,88.49L409.53,91.18L416.78,99.66L420.4,91.75L424.03,97.76L427.65,97.38L431.28,100.74L434.9,91.36L438.52,83.18L442.15,59.18L445.77,51.83L449.4,58.26L453.02,57.94L456.64,44.99L460.27,44.38L463.89,59.85L467.52,46.69L471.14,50.73L474.77,54.14L478.39,42.21L482.01,52.18L485.64,58.98L489.26,50L492.89,31.66L496.51,53.54L500.13,16L503.76,38.18L507.38,71.56L511.01,118.53L514.63,198.21L518.26,180.16L521.88,173.5L525.5,175.09L529.13,174.39L532.75,156.62L536.38,143.59L539.85,32.37L540,304" style="fill: rgb(99, 110, 250); fill-opacity: 0.5; stroke-width: 0;"/></g></g><g class="errorbars"/><g class="lines"><path class="js-line" d="M0,238.4L3.62,238.4L7.25,193.16L10.87,127.71L14.5,137.28L18.12,139.97L21.74,126.98L25.37,129.89L28.99,119.75L32.62,116.04L36.24,139.72L39.87,139.07L43.49,137.47L47.11,137.23L50.74,139.86L54.36,157.79L57.99,169.42L61.61,169.05L65.23,161.89L68.86,160.8L72.48,130.22L76.11,130.63L79.73,128.79L83.36,134.67L86.98,142.77L90.6,147.67L94.23,144.62L97.85,142.89L101.48,143.75L105.1,143.64L108.72,142.32L112.35,142.05L115.97,138.11L119.6,129.31L123.22,114.42L126.85,123.24L130.47,126.08L134.09,148.83L137.72,135.16L144.97,118L148.59,137.88L152.21,138.9L155.84,158.07L159.46,144.42L163.09,144.02L166.71,144.79L170.34,153.69L173.96,152.8L177.58,153L184.83,152.91L188.46,147.61L192.08,139.25L195.7,138.72L199.33,138.72L202.95,139.6L206.58,137.11L210.2,137.33L213.83,137.4L217.45,135.64L221.07,136.03L224.7,135.31L228.32,132.08L231.95,131.78L235.57,135.6L239.19,134.26L242.82,136.66L246.44,136.45L250.07,135.61L253.69,133.04L257.32,129.71L260.94,131.16L271.81,130.9L275.44,129.1L279.06,130.48L282.68,133.31L286.31,126.66L289.93,121.8L293.56,120.79L297.18,118.56L300.81,111.41L304.43,143.42L308.05,138.35L311.68,142.37L315.3,163.9L318.93,168.06L322.55,164.89L326.17,160.65L333.42,156.39L337.05,144.1L340.67,146.63L344.3,145.76L347.92,144.03L351.54,123.55L355.17,134.4L358.79,129.38L362.42,116.18L366.04,125.45L369.66,125L373.29,119.98L376.91,120.26L380.54,101.51L384.16,120.61L387.79,122.6L391.41,121.79L395.03,113.88L398.66,112.74L402.28,113.52L405.91,88.49L409.53,91.18L416.78,99.66L420.4,91.75L424.03,97.76L427.65,97.38L431.28,100.74L434.9,91.36L438.52,83.18L442.15,59.18L445.77,51.83L449.4,58.26L453.02,57.94L456.64,44.99L460.27,44.38L463.89,59.85L467.52,46.69L471.14,50.73L474.77,54.14L478.39,42.21L482.01,52.18L485.64,58.98L489.26,50L492.89,31.66L496.51,53.54L500.13,16L503.76,38.18L507.38,71.56L511.01,118.53L514.63,198.21L518.26,180.16L521.88,173.5L525.5,175.09L529.13,174.39L532.75,156.62L536.38,143.59L539.85,32.37L540,304" style="vector-effect: non-scaling-stroke; fill: none; stroke: rgb(99, 110, 250); stroke-opacity: 1; stroke-width: 2px; opacity: 1;"/></g><g class="points"/><g class="text"/></g></g></g><g class="overplot"/><path class="xlines-above crisp" d="M0,0" style="fill: none;"/><path class="ylines-above crisp" d="M0,0" style="fill: none;"/><g class="overlines-above"/><g class="xaxislayer-above"><g class="xtick"><text text-anchor="middle" x="0" y="433" transform="translate(105.37,0)" style="font-family: 'Open Sans', verdana, arial, sans-serif; font-size: 12px; fill: rgb(42, 63, 95); fill-opacity: 1; white-space: pre; opacity: 1;">Nov 2022</text></g><g class="xtick"><text text-anchor="middle" x="0" y="433" style="font-family: 'Open Sans', verdana, arial, sans-serif; font-size: 12px; fill: rgb(42, 63, 95); fill-opacity: 1; white-space: pre; opacity: 1;" transform="translate(214.09,0)">Dec 2022</text></g><g class="xtick"><text text-anchor="middle" x="0" y="433" style="font-family: 'Open Sans', verdana, arial, sans-serif; font-size: 12px; fill: rgb(42, 63, 95); fill-opacity: 1; white-space: pre; opacity: 1;" transform="translate(326.44,0)">Jan 2023</text></g><g class="xtick"><text text-anchor="middle" x="0" y="433" style="font-family: 'Open Sans', verdana, arial, sans-serif; font-size: 12px; fill: rgb(42, 63, 95); fill-opacity: 1; white-space: pre; opacity: 1;" transform="translate(438.79,0)">Feb 2023</text></g><g class="xtick"><text text-anchor="middle" x="0" y="433" style="font-family: 'Open Sans', verdana, arial, sans-serif; font-size: 12px; fill: rgb(42, 63, 95); fill-opacity: 1; white-space: pre; opacity: 1;" transform="translate(540.27,0)">Mar 2023</text></g></g><g class="yaxislayer-above"><g class="ytick"><text text-anchor="end" x="79" y="4.199999999999999" transform="translate(0,408.17)" style="font-family: 'Open Sans', verdana, arial, sans-serif; font-size: 12px; fill: rgb(42, 63, 95); fill-opacity: 1; white-space: pre; opacity: 1;">$−0.5M</text></g><g class="ytick"><text text-anchor="end" x="79" y="4.199999999999999" style="font-family: 'Open Sans', verdana, arial, sans-serif; font-size: 12px; fill: rgb(42, 63, 95); fill-opacity: 1; white-space: pre; opacity: 1;" transform="translate(0,338.4)">$0</text></g><g class="ytick"><text text-anchor="end" x="79" y="4.199999999999999" style="font-family: 'Open Sans', verdana, arial, sans-serif; font-size: 12px; fill: rgb(42, 63, 95); fill-opacity: 1; white-space: pre; opacity: 1;" transform="translate(0,268.64)">$0.5M</text></g><g class="ytick"><text text-anchor="end" x="79" y="4.199999999999999" style="font-family: 'Open Sans', verdana, arial, sans-serif; font-size: 12px; fill: rgb(42, 63, 95); fill-opacity: 1; white-space: pre; opacity: 1;" transform="translate(0,198.87)">$1M</text></g><g class="ytick"><text text-anchor="end" x="79" y="4.199999999999999" style="font-family: 'Open Sans', verdana, arial, sans-serif; font-size: 12px; fill: rgb(42, 63, 95); fill-opacity: 1; white-space: pre; opacity: 1;" transform="translate(0,129.11)">$1.5M</text></g></g><g class="overaxes-above"/></g></g><g class="polarlayer"/><g class="smithlayer"/><g class="ternarylayer"/><g class="geolayer"/><g class="funnelarealayer"/><g class="pielayer"/><g class="iciclelayer"/><g class="treemaplayer"/><g class="sunburstlayer"/><g class="glimages"/><defs id="topdefs-8b145e"><g class="clips"/></defs><g class="layer-above"><g class="imagelayer"/><g class="shapelayer"/></g><g class="infolayer"><g class="g-gtitle"><text class="gtitle" x="35" y="50" text-anchor="start" dy="0em" style="font-family: 'Open Sans', verdana, arial, sans-serif; font-size: 17px; fill: rgb(42, 63, 95); opacity: 1; font-weight: normal; white-space: pre;"><tspan class="line" dy="0em" x="35" y="50">Synthetix - SNX Bridge: Hop</tspan><tspan class="line" dy="1.3em" x="35" y="50">​<tspan style="font-size:70%" dy="-0.6em">Cumulative Net Flows since Program Announcement, Until Program End + 30 Days - At Last Price</tspan><tspan dy="0.42em">​</tspan></tspan></text></g><g class="g-xtitle"><text class="xtitle" x="350" y="460.8" text-anchor="middle" style="font-family: 'Open Sans', verdana, arial, sans-serif; font-size: 14px; fill: rgb(42, 63, 95); opacity: 1; font-weight: normal; white-space: pre;">Day</text></g><g class="g-ytitle"><text class="ytitle" transform="rotate(-90,13.840625000000003,260)" x="13.840625000000003" y="260" text-anchor="middle" style="font-family: 'Open Sans', verdana, arial, sans-serif; font-size: 14px; fill: rgb(42, 63, 95); opacity: 1; font-weight: normal; white-space: pre;">Cumulative Net Flows (USD)</text></g></g></svg>