<svg class="main-svg" xmlns="http://www.w3.org/2000/svg" xmlns:xlink="http://www.w3.org/1999/xlink" width="700" height="500" style="" viewBox="0 0 700 500"><rect x="0" y="0" width="700" height="500" style="fill: rgb(255, 255, 255); fill-opacity: 1;"/><defs id="defs-fca5a7"><g class="clips"><clipPath id="clipfca5a7xyplot" class="plotclip"><rect width="540" height="320"/></clipPath><clipPath class="axesclip" id="clipfca5a7x"><rect x="80" y="0" width="540" height="500"/></clipPath><clipPath class="axesclip" id="clipfca5a7y"><rect x="0" y="100" width="700" height="320"/></clipPath><clipPath class="axesclip" id="clipfca5a7xy"><rect x="80" y="100" width="540" height="320"/></clipPath></g><g class="gradients"/><g class="patterns"/></defs><g class="bglayer"><rect class="bg" x="80" y="100" width="540" height="320" style="fill: rgb(229, 236, 246); fill-opacity: 1; stroke-width: 0;"/></g><g class="layer-below"><g class="imagelayer"/><g class="shapelayer"/></g><g class="cartesianlayer"><g class="subplot xy"><g class="layer-subplot"><g class="shapelayer"/><g class="imagelayer"/></g><g class="minor-gridlayer"><g class="x"/><g class="y"/></g><g class="gridlayer"><g class="x"><path class="xgrid crisp" transform="translate(143.19,0)" d="M0,100v320" style="stroke: rgb(255, 255, 255); stroke-opacity: 1; stroke-width: 1px;"/><path class="xgrid crisp" transform="translate(232.23,0)" d="M0,100v320" style="stroke: rgb(255, 255, 255); stroke-opacity: 1; stroke-width: 1px;"/><path class="xgrid crisp" transform="translate(318.4,0)" d="M0,100v320" style="stroke: rgb(255, 255, 255); stroke-opacity: 1; stroke-width: 1px;"/><path class="xgrid crisp" transform="translate(407.45,0)" d="M0,100v320" style="stroke: rgb(255, 255, 255); stroke-opacity: 1; stroke-width: 1px;"/><path class="xgrid crisp" transform="translate(496.49,0)" d="M0,100v320" style="stroke: rgb(255, 255, 255); stroke-opacity: 1; stroke-width: 1px;"/><path class="xgrid crisp" transform="translate(576.9100000000001,0)" d="M0,100v320" style="stroke: rgb(255, 255, 255); stroke-opacity: 1; stroke-width: 1px;"/></g><g class="y"><path class="ygrid crisp" transform="translate(0,338.96000000000004)" d="M80,0h540" style="stroke: rgb(255, 255, 255); stroke-opacity: 1; stroke-width: 1px;"/><path class="ygrid crisp" transform="translate(0,291.40999999999997)" d="M80,0h540" style="stroke: rgb(255, 255, 255); stroke-opacity: 1; stroke-width: 1px;"/><path class="ygrid crisp" transform="translate(0,243.87)" d="M80,0h540" style="stroke: rgb(255, 255, 255); stroke-opacity: 1; stroke-width: 1px;"/><path class="ygrid crisp" transform="translate(0,196.32)" d="M80,0h540" style="stroke: rgb(255, 255, 255); stroke-opacity: 1; stroke-width: 1px;"/><path class="ygrid crisp" transform="translate(0,148.78)" d="M80,0h540" style="stroke: rgb(255, 255, 255); stroke-opacity: 1; stroke-width: 1px;"/><path class="ygrid crisp" transform="translate(0,101.23)" d="M80,0h540" style="stroke: rgb(255, 255, 255); stroke-opacity: 1; stroke-width: 1px;"/></g></g><g class="zerolinelayer"><path class="yzl zl crisp" transform="translate(0,386.5)" d="M80,0h540" style="stroke: rgb(255, 255, 255); stroke-opacity: 1; stroke-width: 2px;"/></g><path class="xlines-below"/><path class="ylines-below"/><g class="overlines-below"/><g class="xaxislayer-below"/><g class="yaxislayer-below"/><g class="overaxes-below"/><g class="plot" transform="translate(80,100)" clip-path="url(#clipfca5a7xyplot)"><g class="scatterlayer mlayer"><g class="trace scatter trace39fe70" style="stroke-miterlimit: 2;"><g class="fills"><g><path class="js-fill" d="M540,286.5L0,286.5L0,279.57L2.87,269.19L5.74,270.53L8.62,263.81L11.49,255.13L14.36,256.29L17.23,255.64L20.11,259.27L22.98,239.14L28.72,235.54L31.6,231.65L34.47,233.01L37.34,235.46L40.21,230.29L43.09,229.6L45.96,228.72L48.83,224.34L51.7,225.21L54.57,220.5L57.45,220.73L60.32,215.91L63.19,210.82L66.06,203.34L68.94,206.19L71.81,200.38L77.55,192.68L80.43,191.82L86.17,200.8L89.04,197.96L91.91,198.59L94.79,202.64L97.66,211.89L100.53,214.72L103.4,218.3L106.28,218.68L109.15,217.98L112.02,216.49L114.89,217.56L117.77,226.46L120.64,224.99L123.51,226.94L126.38,226.44L129.26,227.66L132.13,227.83L135,224.01L137.87,221.8L140.74,221.87L143.62,221.09L146.49,218.94L149.36,220.37L152.23,218.03L155.11,213.21L157.98,212.42L163.72,207.99L166.6,205.76L172.34,213.41L175.21,222.16L178.09,229.69L180.96,226.83L183.83,225.82L186.7,229.08L192.45,228.35L195.32,227.4L201.06,226.92L203.94,226.54L206.81,220.46L209.68,224.15L215.43,230.35L218.3,229.09L224.04,229.44L226.91,229.45L232.66,231.61L235.53,229.06L238.4,224.84L241.28,226.46L244.15,220.47L247.02,221.37L249.89,220.69L252.77,221.65L255.64,220.23L258.51,223.96L261.38,223.17L264.26,224.84L270,226.76L272.87,226.34L275.74,224.86L278.62,224.99L281.49,226.07L284.36,228.86L287.23,230.41L290.11,230.34L292.98,231.59L295.85,230.1L298.72,229.78L301.6,230.28L304.47,230.16L307.34,227.52L310.21,227.76L313.09,230.29L315.96,227.02L318.83,227.46L321.7,226.37L324.57,226.92L327.45,225.01L330.32,224.92L336.06,224.39L338.94,222.07L341.81,222.73L344.68,221.52L347.55,221.82L350.43,219.09L353.3,216.56L356.17,215.51L359.04,209.06L361.91,212.15L367.66,214.14L370.53,212.42L376.28,207.89L379.15,202.65L382.02,199.93L384.89,195.08L387.77,195.02L390.64,191.56L393.51,193.14L396.38,193.27L399.26,183.61L402.13,182.96L405,179.39L407.87,180.46L413.62,177.51L416.49,176.16L419.36,171.1L422.23,168.96L425.11,170.08L427.98,172.64L430.85,174.39L433.72,166.14L436.6,162.26L439.47,165.33L442.34,169.74L445.21,169.55L448.09,165.95L450.96,166.97L453.83,168.59L456.7,164.88L459.57,156.91L462.45,153.25L465.32,150.2L468.19,149.03L471.06,130.2L473.94,127.83L476.81,131.61L479.68,137.86L482.55,134.78L485.43,90.43L488.3,92.8L491.17,87.96L494.04,90.9L496.91,91.31L499.79,25.88L502.66,26.96L505.53,21.3L508.4,17.6L511.28,304L519.89,16L522.77,25.66L525.64,40.2L528.51,171.29L531.38,163.42L534.26,149.46L537.13,20L539.04,25.87L540,304" style="fill: rgb(99, 110, 250); fill-opacity: 0.5; stroke-width: 0;"/></g></g><g class="errorbars"/><g class="lines"><path class="js-line" d="M0,279.57L2.87,269.19L5.74,270.53L8.62,263.81L11.49,255.13L14.36,256.29L17.23,255.64L20.11,259.27L22.98,239.14L28.72,235.54L31.6,231.65L34.47,233.01L37.34,235.46L40.21,230.29L43.09,229.6L45.96,228.72L48.83,224.34L51.7,225.21L54.57,220.5L57.45,220.73L60.32,215.91L63.19,210.82L66.06,203.34L68.94,206.19L71.81,200.38L77.55,192.68L80.43,191.82L86.17,200.8L89.04,197.96L91.91,198.59L94.79,202.64L97.66,211.89L100.53,214.72L103.4,218.3L106.28,218.68L109.15,217.98L112.02,216.49L114.89,217.56L117.77,226.46L120.64,224.99L123.51,226.94L126.38,226.44L129.26,227.66L132.13,227.83L135,224.01L137.87,221.8L140.74,221.87L143.62,221.09L146.49,218.94L149.36,220.37L152.23,218.03L155.11,213.21L157.98,212.42L163.72,207.99L166.6,205.76L172.34,213.41L175.21,222.16L178.09,229.69L180.96,226.83L183.83,225.82L186.7,229.08L192.45,228.35L195.32,227.4L201.06,226.92L203.94,226.54L206.81,220.46L209.68,224.15L215.43,230.35L218.3,229.09L224.04,229.44L226.91,229.45L232.66,231.61L235.53,229.06L238.4,224.84L241.28,226.46L244.15,220.47L247.02,221.37L249.89,220.69L252.77,221.65L255.64,220.23L258.51,223.96L261.38,223.17L264.26,224.84L270,226.76L272.87,226.34L275.74,224.86L278.62,224.99L281.49,226.07L284.36,228.86L287.23,230.41L290.11,230.34L292.98,231.59L295.85,230.1L298.72,229.78L301.6,230.28L304.47,230.16L307.34,227.52L310.21,227.76L313.09,230.29L315.96,227.02L318.83,227.46L321.7,226.37L324.57,226.92L327.45,225.01L330.32,224.92L336.06,224.39L338.94,222.07L341.81,222.73L344.68,221.52L347.55,221.82L350.43,219.09L353.3,216.56L356.17,215.51L359.04,209.06L361.91,212.15L367.66,214.14L370.53,212.42L376.28,207.89L379.15,202.65L382.02,199.93L384.89,195.08L387.77,195.02L390.64,191.56L393.51,193.14L396.38,193.27L399.26,183.61L402.13,182.96L405,179.39L407.87,180.46L413.62,177.51L416.49,176.16L419.36,171.1L422.23,168.96L425.11,170.08L427.98,172.64L430.85,174.39L433.72,166.14L436.6,162.26L439.47,165.33L442.34,169.74L445.21,169.55L448.09,165.95L450.96,166.97L453.83,168.59L456.7,164.88L459.57,156.91L462.45,153.25L465.32,150.2L468.19,149.03L471.06,130.2L473.94,127.83L476.81,131.61L479.68,137.86L482.55,134.78L485.43,90.43L488.3,92.8L491.17,87.96L494.04,90.9L496.91,91.31L499.79,25.88L502.66,26.96L505.53,21.3L508.4,17.6L511.28,304L519.89,16L522.77,25.66L525.64,40.2L528.51,171.29L531.38,163.42L534.26,149.46L537.13,20L539.04,25.87L540,304" style="vector-effect: non-scaling-stroke; fill: none; stroke: rgb(99, 110, 250); stroke-opacity: 1; stroke-width: 2px; opacity: 1;"/></g><g class="points"/><g class="text"/></g></g></g><g class="overplot"/><path class="xlines-above crisp" d="M0,0" style="fill: none;"/><path class="ylines-above crisp" d="M0,0" style="fill: none;"/><g class="overlines-above"/><g class="xaxislayer-above"><g class="xtick"><text text-anchor="middle" x="0" y="433" transform="translate(143.19,0)" style="font-family: 'Open Sans', verdana, arial, sans-serif; font-size: 12px; fill: rgb(42, 63, 95); fill-opacity: 1; white-space: pre; opacity: 1;">Oct 2022</text></g><g class="xtick"><text text-anchor="middle" x="0" y="433" style="font-family: 'Open Sans', verdana, arial, sans-serif; font-size: 12px; fill: rgb(42, 63, 95); fill-opacity: 1; white-space: pre; opacity: 1;" transform="translate(232.23,0)">Nov 2022</text></g><g class="xtick"><text text-anchor="middle" x="0" y="433" style="font-family: 'Open Sans', verdana, arial, sans-serif; font-size: 12px; fill: rgb(42, 63, 95); fill-opacity: 1; white-space: pre; opacity: 1;" transform="translate(318.4,0)">Dec 2022</text></g><g class="xtick"><text text-anchor="middle" x="0" y="433" style="font-family: 'Open Sans', verdana, arial, sans-serif; font-size: 12px; fill: rgb(42, 63, 95); fill-opacity: 1; white-space: pre; opacity: 1;" transform="translate(407.45,0)">Jan 2023</text></g><g class="xtick"><text text-anchor="middle" x="0" y="433" style="font-family: 'Open Sans', verdana, arial, sans-serif; font-size: 12px; fill: rgb(42, 63, 95); fill-opacity: 1; white-space: pre; opacity: 1;" transform="translate(496.49,0)">Feb 2023</text></g><g class="xtick"><text text-anchor="middle" x="0" y="433" style="font-family: 'Open Sans', verdana, arial, sans-serif; font-size: 12px; fill: rgb(42, 63, 95); fill-opacity: 1; white-space: pre; opacity: 1;" transform="translate(576.9100000000001,0)">Mar 2023</text></g></g><g class="yaxislayer-above"><g class="ytick"><text text-anchor="end" x="79" y="4.199999999999999" transform="translate(0,386.5)" style="font-family: 'Open Sans', verdana, arial, sans-serif; font-size: 12px; fill: rgb(42, 63, 95); fill-opacity: 1; white-space: pre; opacity: 1;">$0</text></g><g class="ytick"><text text-anchor="end" x="79" y="4.199999999999999" style="font-family: 'Open Sans', verdana, arial, sans-serif; font-size: 12px; fill: rgb(42, 63, 95); fill-opacity: 1; white-space: pre; opacity: 1;" transform="translate(0,338.96000000000004)">$1M</text></g><g class="ytick"><text text-anchor="end" x="79" y="4.199999999999999" style="font-family: 'Open Sans', verdana, arial, sans-serif; font-size: 12px; fill: rgb(42, 63, 95); fill-opacity: 1; white-space: pre; opacity: 1;" transform="translate(0,291.40999999999997)">$2M</text></g><g class="ytick"><text text-anchor="end" x="79" y="4.199999999999999" style="font-family: 'Open Sans', verdana, arial, sans-serif; font-size: 12px; fill: rgb(42, 63, 95); fill-opacity: 1; white-space: pre; opacity: 1;" transform="translate(0,243.87)">$3M</text></g><g class="ytick"><text text-anchor="end" x="79" y="4.199999999999999" style="font-family: 'Open Sans', verdana, arial, sans-serif; font-size: 12px; fill: rgb(42, 63, 95); fill-opacity: 1; white-space: pre; opacity: 1;" transform="translate(0,196.32)">$4M</text></g><g class="ytick"><text text-anchor="end" x="79" y="4.199999999999999" style="font-family: 'Open Sans', verdana, arial, sans-serif; font-size: 12px; fill: rgb(42, 63, 95); fill-opacity: 1; white-space: pre; opacity: 1;" transform="translate(0,148.78)">$5M</text></g><g class="ytick"><text text-anchor="end" x="79" y="4.199999999999999" style="font-family: 'Open Sans', verdana, arial, sans-serif; font-size: 12px; fill: rgb(42, 63, 95); fill-opacity: 1; white-space: pre; opacity: 1;" transform="translate(0,101.23)">$6M</text></g></g><g class="overaxes-above"/></g></g><g class="polarlayer"/><g class="smithlayer"/><g class="ternarylayer"/><g class="geolayer"/><g class="funnelarealayer"/><g class="pielayer"/><g class="iciclelayer"/><g class="treemaplayer"/><g class="sunburstlayer"/><g class="glimages"/><defs id="topdefs-fca5a7"><g class="clips"/></defs><g class="layer-above"><g class="imagelayer"/><g class="shapelayer"/></g><g class="infolayer"><g class="g-gtitle"><text class="gtitle" x="35" y="50" text-anchor="start" dy="0em" style="font-family: 'Open Sans', verdana, arial, sans-serif; font-size: 17px; fill: rgb(42, 63, 95); opacity: 1; font-weight: normal; white-space: pre;"><tspan class="line" dy="0em" x="35" y="50">Pickle - Pickle Finance*</tspan><tspan class="line" dy="1.3em" x="35" y="50">​<tspan style="font-size:70%" dy="-0.6em">Cumulative Net Flows since Program Announcement, Until Program End + 30 Days - At Last Price</tspan><tspan dy="0.42em">​</tspan></tspan></text></g><g class="g-xtitle"><text class="xtitle" x="350" y="460.8" text-anchor="middle" style="font-family: 'Open Sans', verdana, arial, sans-serif; font-size: 14px; fill: rgb(42, 63, 95); opacity: 1; font-weight: normal; white-space: pre;">Day</text></g><g class="g-ytitle"><text class="ytitle" transform="rotate(-90,30.856250000000003,260)" x="30.856250000000003" y="260" text-anchor="middle" style="font-family: 'Open Sans', verdana, arial, sans-serif; font-size: 14px; fill: rgb(42, 63, 95); opacity: 1; font-weight: normal; white-space: pre;">Cumulative Net Flows (USD)</text></g></g></svg>