<svg class="main-svg" xmlns="http://www.w3.org/2000/svg" xmlns:xlink="http://www.w3.org/1999/xlink" width="700" height="500" style="" viewBox="0 0 700 500"><rect x="0" y="0" width="700" height="500" style="fill: rgb(255, 255, 255); fill-opacity: 1;"/><defs id="defs-359c8a"><g class="clips"><clipPath id="clip359c8axyplot" class="plotclip"><rect width="540" height="320"/></clipPath><clipPath class="axesclip" id="clip359c8ax"><rect x="80" y="0" width="540" height="500"/></clipPath><clipPath class="axesclip" id="clip359c8ay"><rect x="0" y="100" width="700" height="320"/></clipPath><clipPath class="axesclip" id="clip359c8axy"><rect x="80" y="100" width="540" height="320"/></clipPath></g><g class="gradients"/><g class="patterns"/></defs><g class="bglayer"><rect class="bg" x="80" y="100" width="540" height="320" style="fill: rgb(229, 236, 246); fill-opacity: 1; stroke-width: 0;"/></g><g class="layer-below"><g class="imagelayer"/><g class="shapelayer"/></g><g class="cartesianlayer"><g class="subplot xy"><g class="layer-subplot"><g class="shapelayer"/><g class="imagelayer"/></g><g class="minor-gridlayer"><g class="x"/><g class="y"/></g><g class="gridlayer"><g class="x"><path class="xgrid crisp" transform="translate(103.33,0)" d="M0,100v320" style="stroke: rgb(255, 255, 255); stroke-opacity: 1; stroke-width: 1px;"/><path class="xgrid crisp" transform="translate(203.32999999999998,0)" d="M0,100v320" style="stroke: rgb(255, 255, 255); stroke-opacity: 1; stroke-width: 1px;"/><path class="xgrid crisp" transform="translate(306.66999999999996,0)" d="M0,100v320" style="stroke: rgb(255, 255, 255); stroke-opacity: 1; stroke-width: 1px;"/><path class="xgrid crisp" transform="translate(406.67,0)" d="M0,100v320" style="stroke: rgb(255, 255, 255); stroke-opacity: 1; stroke-width: 1px;"/><path class="xgrid crisp" transform="translate(510,0)" d="M0,100v320" style="stroke: rgb(255, 255, 255); stroke-opacity: 1; stroke-width: 1px;"/><path class="xgrid crisp" transform="translate(613.33,0)" d="M0,100v320" style="stroke: rgb(255, 255, 255); stroke-opacity: 1; stroke-width: 1px;"/></g><g class="y"><path class="ygrid crisp" transform="translate(0,352.11)" d="M80,0h540" style="stroke: rgb(255, 255, 255); stroke-opacity: 1; stroke-width: 1px;"/><path class="ygrid crisp" transform="translate(0,300.27)" d="M80,0h540" style="stroke: rgb(255, 255, 255); stroke-opacity: 1; stroke-width: 1px;"/><path class="ygrid crisp" transform="translate(0,248.44)" d="M80,0h540" style="stroke: rgb(255, 255, 255); stroke-opacity: 1; stroke-width: 1px;"/><path class="ygrid crisp" transform="translate(0,196.6)" d="M80,0h540" style="stroke: rgb(255, 255, 255); stroke-opacity: 1; stroke-width: 1px;"/><path class="ygrid crisp" transform="translate(0,144.76)" d="M80,0h540" style="stroke: rgb(255, 255, 255); stroke-opacity: 1; stroke-width: 1px;"/></g></g><g class="zerolinelayer"><path class="yzl zl crisp" transform="translate(0,403.95)" d="M80,0h540" style="stroke: rgb(255, 255, 255); stroke-opacity: 1; stroke-width: 2px;"/></g><path class="xlines-below"/><path class="ylines-below"/><g class="overlines-below"/><g class="xaxislayer-below"/><g class="yaxislayer-below"/><g class="overaxes-below"/><g class="plot" transform="translate(80,100)" clip-path="url(#clip359c8axyplot)"><g class="scatterlayer mlayer"><g class="trace scatter trace175c2f" style="stroke-miterlimit: 2;"><g class="fills"><g><path class="js-fill" d="M540,303.95L0,303.95L0,304L3.33,258.93L6.67,249.93L10,246.43L13.33,246.36L16.67,239.8L20,236.82L23.33,235.26L26.67,237.15L30,230.49L33.33,227.84L36.67,224.17L40,233.95L43.33,231.1L46.67,233.74L50,223L53.33,218.31L56.67,215.42L60,214.5L63.33,217.51L66.67,221.89L70,223.26L73.33,208.12L76.67,198.84L80,197.37L83.33,194.49L86.67,200.27L90,200.07L93.33,196.89L100,196.84L103.33,197.76L106.67,195.92L110,195.26L113.33,163.74L116.67,165.97L120,172.62L123.33,171.23L126.67,171.13L130,172.63L136.67,175.03L140,183.03L143.33,179.02L146.67,188.42L150,188.4L153.33,189.69L156.67,193.7L160,190.65L166.67,189.87L170,187.29L176.67,186.85L180,184.96L183.33,186.58L186.67,186.33L203.33,186.64L206.67,184.98L210,185.76L213.33,199.64L216.67,197.25L220,184.45L236.67,184.61L240,184.97L243.33,185.98L246.67,183.88L250,183.68L253.33,226.84L256.67,232.43L260,220.62L263.33,214.02L266.67,220.93L270,209.65L273.33,208.24L276.67,207.22L280,209.33L283.33,214.06L286.67,212.95L290,211.89L293.33,213.95L296.67,214.52L300,214.12L303.33,207.91L306.67,208.39L310,207.26L313.33,207.1L326.67,206.89L330,204.09L333.33,204.18L336.67,199.61L340,199.06L343.33,193.17L346.67,179L350,172.45L353.33,172.93L356.67,170.88L360,170.76L363.33,169.16L366.67,165.11L370,164.33L373.33,159.26L376.67,155.85L380,160.33L383.33,160.33L386.67,160.4L390,163.95L393.33,177.94L396.67,178.4L400,178.91L403.33,177.98L413.33,178.03L416.67,184.21L420,184.09L423.33,180.49L426.67,165.55L430,162.46L433.33,167.31L436.67,167.23L440,173.25L443.33,173.82L446.67,170.59L450,170.62L453.33,174.45L456.67,172.22L460,157.84L463.33,146.83L466.67,145.21L470,150.93L473.33,146.65L476.67,145.32L480,147.5L483.33,146.86L486.67,146.54L490,150.22L493.33,145.28L496.67,134.77L500,131.2L503.33,130.27L506.67,128.13L510,101.01L513.33,49.35L516.67,45.15L520,47.98L523.33,36.4L526.67,35.52L530,18.32L533.33,17.86L536.67,16L540,21.12" style="fill: rgb(99, 110, 250); fill-opacity: 0.5; stroke-width: 0;"/></g></g><g class="errorbars"/><g class="lines"><path class="js-line" d="M0,304L3.33,258.93L6.67,249.93L10,246.43L13.33,246.36L16.67,239.8L20,236.82L23.33,235.26L26.67,237.15L30,230.49L33.33,227.84L36.67,224.17L40,233.95L43.33,231.1L46.67,233.74L50,223L53.33,218.31L56.67,215.42L60,214.5L63.33,217.51L66.67,221.89L70,223.26L73.33,208.12L76.67,198.84L80,197.37L83.33,194.49L86.67,200.27L90,200.07L93.33,196.89L100,196.84L103.33,197.76L106.67,195.92L110,195.26L113.33,163.74L116.67,165.97L120,172.62L123.33,171.23L126.67,171.13L130,172.63L136.67,175.03L140,183.03L143.33,179.02L146.67,188.42L150,188.4L153.33,189.69L156.67,193.7L160,190.65L166.67,189.87L170,187.29L176.67,186.85L180,184.96L183.33,186.58L186.67,186.33L203.33,186.64L206.67,184.98L210,185.76L213.33,199.64L216.67,197.25L220,184.45L236.67,184.61L240,184.97L243.33,185.98L246.67,183.88L250,183.68L253.33,226.84L256.67,232.43L260,220.62L263.33,214.02L266.67,220.93L270,209.65L273.33,208.24L276.67,207.22L280,209.33L283.33,214.06L286.67,212.95L290,211.89L293.33,213.95L296.67,214.52L300,214.12L303.33,207.91L306.67,208.39L310,207.26L313.33,207.1L326.67,206.89L330,204.09L333.33,204.18L336.67,199.61L340,199.06L343.33,193.17L346.67,179L350,172.45L353.33,172.93L356.67,170.88L360,170.76L363.33,169.16L366.67,165.11L370,164.33L373.33,159.26L376.67,155.85L380,160.33L383.33,160.33L386.67,160.4L390,163.95L393.33,177.94L396.67,178.4L400,178.91L403.33,177.98L413.33,178.03L416.67,184.21L420,184.09L423.33,180.49L426.67,165.55L430,162.46L433.33,167.31L436.67,167.23L440,173.25L443.33,173.82L446.67,170.59L450,170.62L453.33,174.45L456.67,172.22L460,157.84L463.33,146.83L466.67,145.21L470,150.93L473.33,146.65L476.67,145.32L480,147.5L483.33,146.86L486.67,146.54L490,150.22L493.33,145.28L496.67,134.77L500,131.2L503.33,130.27L506.67,128.13L510,101.01L513.33,49.35L516.67,45.15L520,47.98L523.33,36.4L526.67,35.52L530,18.32L533.33,17.86L536.67,16L540,21.12" style="vector-effect: non-scaling-stroke; fill: none; stroke: rgb(99, 110, 250); stroke-opacity: 1; stroke-width: 2px; opacity: 1;"/></g><g class="points"/><g class="text"/></g></g></g><g class="overplot"/><path class="xlines-above crisp" d="M0,0" style="fill: none;"/><path class="ylines-above crisp" d="M0,0" style="fill: none;"/><g class="overlines-above"/><g class="xaxislayer-above"><g class="xtick"><text text-anchor="middle" x="0" y="433" transform="translate(103.33,0)" style="font-family: 'Open Sans', verdana, arial, sans-serif; font-size: 12px; fill: rgb(42, 63, 95); fill-opacity: 1; white-space: pre; opacity: 1;">Sep 2022</text></g><g class="xtick"><text text-anchor="middle" x="0" y="433" style="font-family: 'Open Sans', verdana, arial, sans-serif; font-size: 12px; fill: rgb(42, 63, 95); fill-opacity: 1; white-space: pre; opacity: 1;" transform="translate(203.32999999999998,0)">Oct 2022</text></g><g class="xtick"><text text-anchor="middle" x="0" y="433" style="font-family: 'Open Sans', verdana, arial, sans-serif; font-size: 12px; fill: rgb(42, 63, 95); fill-opacity: 1; white-space: pre; opacity: 1;" transform="translate(306.66999999999996,0)">Nov 2022</text></g><g class="xtick"><text text-anchor="middle" x="0" y="433" style="font-family: 'Open Sans', verdana, arial, sans-serif; font-size: 12px; fill: rgb(42, 63, 95); fill-opacity: 1; white-space: pre; opacity: 1;" transform="translate(406.67,0)">Dec 2022</text></g><g class="xtick"><text text-anchor="middle" x="0" y="433" style="font-family: 'Open Sans', verdana, arial, sans-serif; font-size: 12px; fill: rgb(42, 63, 95); fill-opacity: 1; white-space: pre; opacity: 1;" transform="translate(510,0)">Jan 2023</text></g><g class="xtick"><text text-anchor="middle" x="0" y="433" style="font-family: 'Open Sans', verdana, arial, sans-serif; font-size: 12px; fill: rgb(42, 63, 95); fill-opacity: 1; white-space: pre; opacity: 1;" transform="translate(613.33,0)">Feb 2023</text></g></g><g class="yaxislayer-above"><g class="ytick"><text text-anchor="end" x="79" y="4.199999999999999" transform="translate(0,403.95)" style="font-family: 'Open Sans', verdana, arial, sans-serif; font-size: 12px; fill: rgb(42, 63, 95); fill-opacity: 1; white-space: pre; opacity: 1;">$0</text></g><g class="ytick"><text text-anchor="end" x="79" y="4.199999999999999" style="font-family: 'Open Sans', verdana, arial, sans-serif; font-size: 12px; fill: rgb(42, 63, 95); fill-opacity: 1; white-space: pre; opacity: 1;" transform="translate(0,352.11)">$5M</text></g><g class="ytick"><text text-anchor="end" x="79" y="4.199999999999999" style="font-family: 'Open Sans', verdana, arial, sans-serif; font-size: 12px; fill: rgb(42, 63, 95); fill-opacity: 1; white-space: pre; opacity: 1;" transform="translate(0,300.27)">$10M</text></g><g class="ytick"><text text-anchor="end" x="79" y="4.199999999999999" style="font-family: 'Open Sans', verdana, arial, sans-serif; font-size: 12px; fill: rgb(42, 63, 95); fill-opacity: 1; white-space: pre; opacity: 1;" transform="translate(0,248.44)">$15M</text></g><g class="ytick"><text text-anchor="end" x="79" y="4.199999999999999" style="font-family: 'Open Sans', verdana, arial, sans-serif; font-size: 12px; fill: rgb(42, 63, 95); fill-opacity: 1; white-space: pre; opacity: 1;" transform="translate(0,196.6)">$20M</text></g><g class="ytick"><text text-anchor="end" x="79" y="4.199999999999999" style="font-family: 'Open Sans', verdana, arial, sans-serif; font-size: 12px; fill: rgb(42, 63, 95); fill-opacity: 1; white-space: pre; opacity: 1;" transform="translate(0,144.76)">$25M</text></g></g><g class="overaxes-above"/></g></g><g class="polarlayer"/><g class="smithlayer"/><g class="ternarylayer"/><g class="geolayer"/><g class="funnelarealayer"/><g class="pielayer"/><g class="iciclelayer"/><g class="treemaplayer"/><g class="sunburstlayer"/><g class="glimages"/><defs id="topdefs-359c8a"><g class="clips"/></defs><g class="layer-above"><g class="imagelayer"/><g class="shapelayer"/></g><g class="infolayer"><g class="g-gtitle"><text class="gtitle" x="35" y="50" text-anchor="start" dy="0em" style="font-family: 'Open Sans', verdana, arial, sans-serif; font-size: 17px; fill: rgb(42, 63, 95); opacity: 1; font-weight: normal; white-space: pre;"><tspan class="line" dy="0em" x="35" y="50">Synthetix - sETH-ETH: Curve</tspan><tspan class="line" dy="1.3em" x="35" y="50">​<tspan style="font-size:70%" dy="-0.6em">Cumulative Net Dollar Flow since Program Announcement, Until Program End + 30 Days - At Last Price</tspan><tspan dy="0.42em">​</tspan></tspan></text></g><g class="g-xtitle"><text class="xtitle" x="350" y="460.8" text-anchor="middle" style="font-family: 'Open Sans', verdana, arial, sans-serif; font-size: 14px; fill: rgb(42, 63, 95); opacity: 1; font-weight: normal; white-space: pre;">Day</text></g><g class="g-ytitle"><text class="ytitle" transform="rotate(-90,24.168750000000003,260)" x="24.168750000000003" y="260" text-anchor="middle" style="font-family: 'Open Sans', verdana, arial, sans-serif; font-size: 14px; fill: rgb(42, 63, 95); opacity: 1; font-weight: normal; white-space: pre;">Cumulative Net Dollar Flow (N$F)</text></g></g></svg>