<svg class="main-svg" xmlns="http://www.w3.org/2000/svg" xmlns:xlink="http://www.w3.org/1999/xlink" width="700" height="500" style="" viewBox="0 0 700 500"><rect x="0" y="0" width="700" height="500" style="fill: rgb(255, 255, 255); fill-opacity: 1;"/><defs id="defs-7cbdfe"><g class="clips"><clipPath id="clip7cbdfexyplot" class="plotclip"><rect width="540" height="320"/></clipPath><clipPath class="axesclip" id="clip7cbdfex"><rect x="80" y="0" width="540" height="500"/></clipPath><clipPath class="axesclip" id="clip7cbdfey"><rect x="0" y="100" width="700" height="320"/></clipPath><clipPath class="axesclip" id="clip7cbdfexy"><rect x="80" y="100" width="540" height="320"/></clipPath></g><g class="gradients"/><g class="patterns"/></defs><g class="bglayer"><rect class="bg" x="80" y="100" width="540" height="320" style="fill: rgb(229, 236, 246); fill-opacity: 1; stroke-width: 0;"/></g><g class="layer-below"><g class="imagelayer"/><g class="shapelayer"/></g><g class="cartesianlayer"><g class="subplot xy"><g class="layer-subplot"><g class="shapelayer"/><g class="imagelayer"/></g><g class="minor-gridlayer"><g class="x"/><g class="y"/></g><g class="gridlayer"><g class="x"><path class="xgrid crisp" transform="translate(132.68,0)" d="M0,100v320" style="stroke: rgb(255, 255, 255); stroke-opacity: 1; stroke-width: 1px;"/><path class="xgrid crisp" transform="translate(268.78,0)" d="M0,100v320" style="stroke: rgb(255, 255, 255); stroke-opacity: 1; stroke-width: 1px;"/><path class="xgrid crisp" transform="translate(400.49,0)" d="M0,100v320" style="stroke: rgb(255, 255, 255); stroke-opacity: 1; stroke-width: 1px;"/><path class="xgrid crisp" transform="translate(536.5899999999999,0)" d="M0,100v320" style="stroke: rgb(255, 255, 255); stroke-opacity: 1; stroke-width: 1px;"/></g><g class="y"><path class="ygrid crisp" transform="translate(0,376.54)" d="M80,0h540" style="stroke: rgb(255, 255, 255); stroke-opacity: 1; stroke-width: 1px;"/><path class="ygrid crisp" transform="translate(0,333.07)" d="M80,0h540" style="stroke: rgb(255, 255, 255); stroke-opacity: 1; stroke-width: 1px;"/><path class="ygrid crisp" transform="translate(0,289.61)" d="M80,0h540" style="stroke: rgb(255, 255, 255); stroke-opacity: 1; stroke-width: 1px;"/><path class="ygrid crisp" transform="translate(0,246.14)" d="M80,0h540" style="stroke: rgb(255, 255, 255); stroke-opacity: 1; stroke-width: 1px;"/><path class="ygrid crisp" transform="translate(0,202.68)" d="M80,0h540" style="stroke: rgb(255, 255, 255); stroke-opacity: 1; stroke-width: 1px;"/><path class="ygrid crisp" transform="translate(0,159.22)" d="M80,0h540" style="stroke: rgb(255, 255, 255); stroke-opacity: 1; stroke-width: 1px;"/><path class="ygrid crisp" transform="translate(0,115.75)" d="M80,0h540" style="stroke: rgb(255, 255, 255); stroke-opacity: 1; stroke-width: 1px;"/></g></g><g class="zerolinelayer"><path class="yzl zl crisp" transform="translate(0,420)" d="M80,0h540" style="stroke: rgb(255, 255, 255); stroke-opacity: 1; stroke-width: 2px;"/></g><path class="xlines-below"/><path class="ylines-below"/><g class="overlines-below"/><g class="xaxislayer-below"/><g class="yaxislayer-below"/><g class="overaxes-below"/><g class="plot" transform="translate(80,100)" clip-path="url(#clip7cbdfexyplot)"><g class="scatterlayer mlayer"><g class="trace scatter trace2489cd" style="stroke-miterlimit: 2;"><g class="fills"><g><path class="js-fill" d="M540,320L0,320L0,320L4.39,317.49L8.78,310.24L13.17,288.07L17.56,277.78L21.95,276.35L26.34,269.3L30.73,264.09L35.12,263.9L39.51,261.03L43.9,256.43L48.29,262.23L52.68,261.75L57.07,264.17L61.46,262.29L65.85,261.21L70.24,261.23L87.8,261.67L92.2,260.23L96.59,259.57L100.98,257.48L109.76,256.36L114.15,257.63L118.54,253.92L122.93,253.88L131.71,253.66L136.1,250.88L140.49,250.87L144.88,256.84L158.05,257.12L162.44,256.04L166.83,194.31L171.22,104.56L175.61,70.75L180,67.11L184.39,59.11L188.78,57.15L193.17,65.36L197.56,69.46L201.95,60.62L206.34,64.54L210.73,60.67L215.12,62.63L219.51,52.48L223.9,76.76L228.29,97.69L232.68,110.12L237.07,134.62L241.46,142.37L245.85,145.29L250.24,145.44L254.63,145.56L259.02,144.7L263.41,158.03L267.8,157.93L272.2,157.64L276.59,165.84L280.98,164.35L285.37,166.74L289.76,167.57L294.15,167.56L298.54,169.56L302.93,169.57L311.71,169.64L316.1,169.57L324.88,168.09L329.27,163.69L333.66,161.03L338.05,160.88L342.44,158.03L346.83,157.94L355.61,157.52L360,153.46L364.39,151.97L368.78,151.96L373.17,151.93L377.56,161.13L395.12,160.64L399.51,162.67L408.29,162.59L412.68,159.82L421.46,159.26L425.85,157.62L430.24,157.48L434.63,158.44L443.41,157.96L447.8,155.15L452.2,156.98L456.59,156.9L465.37,156.77L469.76,155.15L474.15,154.95L478.54,151.7L487.32,151.66L491.71,177.9L496.1,180.56L500.49,180.7L504.88,177.39L509.27,177.88L513.66,182.35L518.05,188.2L522.44,180.15L526.83,180.19L535.61,173.6L540,16" style="fill: rgb(99, 110, 250); fill-opacity: 0.5; stroke-width: 0;"/></g></g><g class="errorbars"/><g class="lines"><path class="js-line" d="M0,320L4.39,317.49L8.78,310.24L13.17,288.07L17.56,277.78L21.95,276.35L26.34,269.3L30.73,264.09L35.12,263.9L39.51,261.03L43.9,256.43L48.29,262.23L52.68,261.75L57.07,264.17L61.46,262.29L65.85,261.21L70.24,261.23L87.8,261.67L92.2,260.23L96.59,259.57L100.98,257.48L109.76,256.36L114.15,257.63L118.54,253.92L122.93,253.88L131.71,253.66L136.1,250.88L140.49,250.87L144.88,256.84L158.05,257.12L162.44,256.04L166.83,194.31L171.22,104.56L175.61,70.75L180,67.11L184.39,59.11L188.78,57.15L193.17,65.36L197.56,69.46L201.95,60.62L206.34,64.54L210.73,60.67L215.12,62.63L219.51,52.48L223.9,76.76L228.29,97.69L232.68,110.12L237.07,134.62L241.46,142.37L245.85,145.29L250.24,145.44L254.63,145.56L259.02,144.7L263.41,158.03L267.8,157.93L272.2,157.64L276.59,165.84L280.98,164.35L285.37,166.74L289.76,167.57L294.15,167.56L298.54,169.56L302.93,169.57L311.71,169.64L316.1,169.57L324.88,168.09L329.27,163.69L333.66,161.03L338.05,160.88L342.44,158.03L346.83,157.94L355.61,157.52L360,153.46L364.39,151.97L368.78,151.96L373.17,151.93L377.56,161.13L395.12,160.64L399.51,162.67L408.29,162.59L412.68,159.82L421.46,159.26L425.85,157.62L430.24,157.48L434.63,158.44L443.41,157.96L447.8,155.15L452.2,156.98L456.59,156.9L465.37,156.77L469.76,155.15L474.15,154.95L478.54,151.7L487.32,151.66L491.71,177.9L496.1,180.56L500.49,180.7L504.88,177.39L509.27,177.88L513.66,182.35L518.05,188.2L522.44,180.15L526.83,180.19L535.61,173.6L540,16" style="vector-effect: non-scaling-stroke; fill: none; stroke: rgb(99, 110, 250); stroke-opacity: 1; stroke-width: 2px; opacity: 1;"/></g><g class="points"/><g class="text"/></g></g></g><g class="overplot"/><path class="xlines-above crisp" d="M0,0" style="fill: none;"/><path class="ylines-above crisp" d="M0,0" style="fill: none;"/><g class="overlines-above"/><g class="xaxislayer-above"><g class="xtick"><text text-anchor="middle" x="0" y="433" transform="translate(132.68,0)" style="font-family: 'Open Sans', verdana, arial, sans-serif; font-size: 12px; fill: rgb(42, 63, 95); fill-opacity: 1; white-space: pre; opacity: 1;">Oct 2022</text></g><g class="xtick"><text text-anchor="middle" x="0" y="433" style="font-family: 'Open Sans', verdana, arial, sans-serif; font-size: 12px; fill: rgb(42, 63, 95); fill-opacity: 1; white-space: pre; opacity: 1;" transform="translate(268.78,0)">Nov 2022</text></g><g class="xtick"><text text-anchor="middle" x="0" y="433" style="font-family: 'Open Sans', verdana, arial, sans-serif; font-size: 12px; fill: rgb(42, 63, 95); fill-opacity: 1; white-space: pre; opacity: 1;" transform="translate(400.49,0)">Dec 2022</text></g><g class="xtick"><text text-anchor="middle" x="0" y="433" style="font-family: 'Open Sans', verdana, arial, sans-serif; font-size: 12px; fill: rgb(42, 63, 95); fill-opacity: 1; white-space: pre; opacity: 1;" transform="translate(536.5899999999999,0)">Jan 2023</text></g></g><g class="yaxislayer-above"><g class="ytick"><text text-anchor="end" x="79" y="4.199999999999999" transform="translate(0,420)" style="font-family: 'Open Sans', verdana, arial, sans-serif; font-size: 12px; fill: rgb(42, 63, 95); fill-opacity: 1; white-space: pre; opacity: 1;">$0</text></g><g class="ytick"><text text-anchor="end" x="79" y="4.199999999999999" style="font-family: 'Open Sans', verdana, arial, sans-serif; font-size: 12px; fill: rgb(42, 63, 95); fill-opacity: 1; white-space: pre; opacity: 1;" transform="translate(0,376.54)">$0.5M</text></g><g class="ytick"><text text-anchor="end" x="79" y="4.199999999999999" style="font-family: 'Open Sans', verdana, arial, sans-serif; font-size: 12px; fill: rgb(42, 63, 95); fill-opacity: 1; white-space: pre; opacity: 1;" transform="translate(0,333.07)">$1M</text></g><g class="ytick"><text text-anchor="end" x="79" y="4.199999999999999" style="font-family: 'Open Sans', verdana, arial, sans-serif; font-size: 12px; fill: rgb(42, 63, 95); fill-opacity: 1; white-space: pre; opacity: 1;" transform="translate(0,289.61)">$1.5M</text></g><g class="ytick"><text text-anchor="end" x="79" y="4.199999999999999" style="font-family: 'Open Sans', verdana, arial, sans-serif; font-size: 12px; fill: rgb(42, 63, 95); fill-opacity: 1; white-space: pre; opacity: 1;" transform="translate(0,246.14)">$2M</text></g><g class="ytick"><text text-anchor="end" x="79" y="4.199999999999999" style="font-family: 'Open Sans', verdana, arial, sans-serif; font-size: 12px; fill: rgb(42, 63, 95); fill-opacity: 1; white-space: pre; opacity: 1;" transform="translate(0,202.68)">$2.5M</text></g><g class="ytick"><text text-anchor="end" x="79" y="4.199999999999999" style="font-family: 'Open Sans', verdana, arial, sans-serif; font-size: 12px; fill: rgb(42, 63, 95); fill-opacity: 1; white-space: pre; opacity: 1;" transform="translate(0,159.22)">$3M</text></g><g class="ytick"><text text-anchor="end" x="79" y="4.199999999999999" style="font-family: 'Open Sans', verdana, arial, sans-serif; font-size: 12px; fill: rgb(42, 63, 95); fill-opacity: 1; white-space: pre; opacity: 1;" transform="translate(0,115.75)">$3.5M</text></g></g><g class="overaxes-above"/></g></g><g class="polarlayer"/><g class="smithlayer"/><g class="ternarylayer"/><g class="geolayer"/><g class="funnelarealayer"/><g class="pielayer"/><g class="iciclelayer"/><g class="treemaplayer"/><g class="sunburstlayer"/><g class="glimages"/><defs id="topdefs-7cbdfe"><g class="clips"/></defs><g class="layer-above"><g class="imagelayer"/><g class="shapelayer"/></g><g class="infolayer"><g class="g-gtitle"><text class="gtitle" x="35" y="50" text-anchor="start" dy="0em" style="font-family: 'Open Sans', verdana, arial, sans-serif; font-size: 17px; fill: rgb(42, 63, 95); opacity: 1; font-weight: normal; white-space: pre;"><tspan class="line" dy="0em" x="35" y="50">Xtoken</tspan><tspan class="line" dy="1.3em" x="35" y="50">​<tspan style="font-size:70%" dy="-0.6em">Cumulative Net Dollar Flow since Program Announcement, Until Program End + 30 Days - At Last Price</tspan><tspan dy="0.42em">​</tspan></tspan></text></g><g class="g-xtitle"><text class="xtitle" x="350" y="460.8" text-anchor="middle" style="font-family: 'Open Sans', verdana, arial, sans-serif; font-size: 14px; fill: rgb(42, 63, 95); opacity: 1; font-weight: normal; white-space: pre;">Day</text></g><g class="g-ytitle"><text class="ytitle" transform="rotate(-90,20.840625000000003,260)" x="20.840625000000003" y="260" text-anchor="middle" style="font-family: 'Open Sans', verdana, arial, sans-serif; font-size: 14px; fill: rgb(42, 63, 95); opacity: 1; font-weight: normal; white-space: pre;">Cumulative Net Dollar Flow (N$F)</text></g></g></svg>