<svg class="main-svg" xmlns="http://www.w3.org/2000/svg" xmlns:xlink="http://www.w3.org/1999/xlink" width="700" height="500" style="" viewBox="0 0 700 500"><rect x="0" y="0" width="700" height="500" style="fill: rgb(255, 255, 255); fill-opacity: 1;"/><defs id="defs-541015"><g class="clips"><clipPath id="clip541015xyplot" class="plotclip"><rect width="540" height="320"/></clipPath><clipPath class="axesclip" id="clip541015x"><rect x="80" y="0" width="540" height="500"/></clipPath><clipPath class="axesclip" id="clip541015y"><rect x="0" y="100" width="700" height="320"/></clipPath><clipPath class="axesclip" id="clip541015xy"><rect x="80" y="100" width="540" height="320"/></clipPath></g><g class="gradients"/><g class="patterns"/></defs><g class="bglayer"><rect class="bg" x="80" y="100" width="540" height="320" style="fill: rgb(229, 236, 246); fill-opacity: 1; stroke-width: 0;"/></g><g class="layer-below"><g class="imagelayer"/><g class="shapelayer"/></g><g class="cartesianlayer"><g class="subplot xy"><g class="layer-subplot"><g class="shapelayer"/><g class="imagelayer"/></g><g class="minor-gridlayer"><g class="x"/><g class="y"/></g><g class="gridlayer"><g class="x"><path class="xgrid crisp" transform="translate(103.58,0)" d="M0,100v320" style="stroke: rgb(255, 255, 255); stroke-opacity: 1; stroke-width: 1px;"/><path class="xgrid crisp" transform="translate(176.68,0)" d="M0,100v320" style="stroke: rgb(255, 255, 255); stroke-opacity: 1; stroke-width: 1px;"/><path class="xgrid crisp" transform="translate(247.42,0)" d="M0,100v320" style="stroke: rgb(255, 255, 255); stroke-opacity: 1; stroke-width: 1px;"/><path class="xgrid crisp" transform="translate(320.52,0)" d="M0,100v320" style="stroke: rgb(255, 255, 255); stroke-opacity: 1; stroke-width: 1px;"/><path class="xgrid crisp" transform="translate(391.27,0)" d="M0,100v320" style="stroke: rgb(255, 255, 255); stroke-opacity: 1; stroke-width: 1px;"/><path class="xgrid crisp" transform="translate(464.37,0)" d="M0,100v320" style="stroke: rgb(255, 255, 255); stroke-opacity: 1; stroke-width: 1px;"/><path class="xgrid crisp" transform="translate(537.47,0)" d="M0,100v320" style="stroke: rgb(255, 255, 255); stroke-opacity: 1; stroke-width: 1px;"/><path class="xgrid crisp" transform="translate(603.49,0)" d="M0,100v320" style="stroke: rgb(255, 255, 255); stroke-opacity: 1; stroke-width: 1px;"/></g><g class="y"><path class="ygrid crisp" transform="translate(0,315.39)" d="M80,0h540" style="stroke: rgb(255, 255, 255); stroke-opacity: 1; stroke-width: 1px;"/><path class="ygrid crisp" transform="translate(0,244.46)" d="M80,0h540" style="stroke: rgb(255, 255, 255); stroke-opacity: 1; stroke-width: 1px;"/><path class="ygrid crisp" transform="translate(0,173.53)" d="M80,0h540" style="stroke: rgb(255, 255, 255); stroke-opacity: 1; stroke-width: 1px;"/><path class="ygrid crisp" transform="translate(0,102.59)" d="M80,0h540" style="stroke: rgb(255, 255, 255); stroke-opacity: 1; stroke-width: 1px;"/></g></g><g class="zerolinelayer"><path class="yzl zl crisp" transform="translate(0,386.32)" d="M80,0h540" style="stroke: rgb(255, 255, 255); stroke-opacity: 1; stroke-width: 2px;"/></g><path class="xlines-below"/><path class="ylines-below"/><g class="overlines-below"/><g class="xaxislayer-below"/><g class="yaxislayer-below"/><g class="overaxes-below"/><g class="plot" transform="translate(80,100)" clip-path="url(#clip541015xyplot)"><g class="scatterlayer mlayer"><g class="trace scatter trace1aced0" style="stroke-miterlimit: 2;"><g class="fills"><g><path class="js-fill" d="M540,286.32L0,286.32L0,285.88L2.36,283.18L4.72,277.37L9.43,272.97L11.79,250.75L14.15,201.5L16.51,168.58L18.86,155.18L21.22,150.22L28.3,136.96L30.66,129.82L33.01,107.17L35.37,98.75L37.73,76.49L40.09,74.59L44.8,50.97L47.16,48.16L49.52,44.25L51.88,50.61L54.24,67.1L56.59,101.26L58.95,83.3L61.31,75.46L63.67,78.65L66.03,78.63L68.38,76.05L70.74,75.99L73.1,78.03L75.46,91.96L77.82,89.87L80.17,81.02L82.53,44.83L84.89,55.28L87.25,53.92L89.61,53.89L91.97,54.74L94.32,58.49L99.04,74.06L101.4,74.7L106.11,74.78L108.47,78.92L110.83,78.08L113.19,78.83L115.55,79.01L117.9,81.67L120.26,82.13L122.62,81.42L124.98,87.78L127.34,97.46L129.69,117.42L132.05,304L155.63,64.94L157.99,64.94L160.35,64.94L162.71,63.99L167.42,62.79L169.78,60.02L172.14,55.28L174.5,41.03L179.21,41.97L181.57,43.74L183.93,303.98L186.29,45.17L188.65,44.78L191,38.83L193.36,46.72L195.72,45.73L198.08,52.7L200.44,53.04L207.51,51.45L209.87,58.69L212.23,59.4L214.59,53.68L216.94,50.16L219.3,50.13L221.66,55.92L224.02,55.31L226.38,56.68L228.73,54.07L231.09,56.21L233.45,56.3L238.17,52.58L240.52,52.86L245.24,46.1L247.6,52.62L249.96,53.44L252.31,53.2L254.67,50.67L257.03,49.65L259.39,56.2L261.75,69.95L264.1,62.44L266.46,67.55L268.82,69.04L271.18,66.05L273.54,64.89L275.9,57.6L278.25,79.67L280.61,80.72L282.97,80.13L285.33,80.76L290.04,83.37L292.4,92.15L299.48,95.59L301.83,95.01L304.19,94.87L306.55,96.21L308.91,109.22L311.27,107.1L313.62,96L315.98,96.16L320.7,95.46L323.06,95.88L327.77,67.4L330.13,67L334.85,66.55L337.21,93.52L339.56,93.94L341.92,91.52L349,89.34L351.35,77.33L353.71,80.23L356.07,79.33L358.43,54.09L360.79,54.21L363.14,54.57L365.5,49.25L367.86,53.83L370.22,52.81L372.58,47.57L374.93,47.23L379.65,49.24L382.01,62.92L384.37,74.47L386.72,74.4L391.44,76.97L393.8,79.08L396.16,81.55L398.52,81.24L400.87,77.29L403.23,76.66L405.59,77.12L407.95,75.23L410.31,70.67L412.66,69.22L415.02,68.76L417.38,70.82L419.74,73.64L422.1,72.03L424.45,73.89L426.81,73.27L429.17,71.27L431.53,62.98L433.89,57.44L436.24,59.06L438.6,59.59L440.96,59.17L443.32,57.49L445.68,57.15L448.03,58.76L450.39,55.5L452.75,54.63L455.11,56.03L457.47,49.63L459.83,52.44L462.18,41.61L464.54,38.4L466.9,37.63L469.26,33.73L473.97,33.86L476.33,16.31L478.69,20.59L481.05,18.2L483.41,16.07L485.76,16L488.12,19.45L490.48,19.36L492.84,20.08L495.2,18.66L499.91,19.73L502.27,18.65L504.63,19.49L506.99,19.45L509.34,19.52L511.7,26.54L514.06,26.6L516.42,24.06L521.14,19.83L523.49,19.85L525.85,23.01L528.21,22.71L530.57,19.86L532.93,20.06L540,20.29" style="fill: rgb(99, 110, 250); fill-opacity: 0.5; stroke-width: 0;"/></g></g><g class="errorbars"/><g class="lines"><path class="js-line" d="M0,285.88L2.36,283.18L4.72,277.37L9.43,272.97L11.79,250.75L14.15,201.5L16.51,168.58L18.86,155.18L21.22,150.22L28.3,136.96L30.66,129.82L33.01,107.17L35.37,98.75L37.73,76.49L40.09,74.59L44.8,50.97L47.16,48.16L49.52,44.25L51.88,50.61L54.24,67.1L56.59,101.26L58.95,83.3L61.31,75.46L63.67,78.65L66.03,78.63L68.38,76.05L70.74,75.99L73.1,78.03L75.46,91.96L77.82,89.87L80.17,81.02L82.53,44.83L84.89,55.28L87.25,53.92L89.61,53.89L91.97,54.74L94.32,58.49L99.04,74.06L101.4,74.7L106.11,74.78L108.47,78.92L110.83,78.08L113.19,78.83L115.55,79.01L117.9,81.67L120.26,82.13L122.62,81.42L124.98,87.78L127.34,97.46L129.69,117.42L132.05,304L155.63,64.94L157.99,64.94L160.35,64.94L162.71,63.99L167.42,62.79L169.78,60.02L172.14,55.28L174.5,41.03L179.21,41.97L181.57,43.74L183.93,303.98L186.29,45.17L188.65,44.78L191,38.83L193.36,46.72L195.72,45.73L198.08,52.7L200.44,53.04L207.51,51.45L209.87,58.69L212.23,59.4L214.59,53.68L216.94,50.16L219.3,50.13L221.66,55.92L224.02,55.31L226.38,56.68L228.73,54.07L231.09,56.21L233.45,56.3L238.17,52.58L240.52,52.86L245.24,46.1L247.6,52.62L249.96,53.44L252.31,53.2L254.67,50.67L257.03,49.65L259.39,56.2L261.75,69.95L264.1,62.44L266.46,67.55L268.82,69.04L271.18,66.05L273.54,64.89L275.9,57.6L278.25,79.67L280.61,80.72L282.97,80.13L285.33,80.76L290.04,83.37L292.4,92.15L299.48,95.59L301.83,95.01L304.19,94.87L306.55,96.21L308.91,109.22L311.27,107.1L313.62,96L315.98,96.16L320.7,95.46L323.06,95.88L327.77,67.4L330.13,67L334.85,66.55L337.21,93.52L339.56,93.94L341.92,91.52L349,89.34L351.35,77.33L353.71,80.23L356.07,79.33L358.43,54.09L360.79,54.21L363.14,54.57L365.5,49.25L367.86,53.83L370.22,52.81L372.58,47.57L374.93,47.23L379.65,49.24L382.01,62.92L384.37,74.47L386.72,74.4L391.44,76.97L393.8,79.08L396.16,81.55L398.52,81.24L400.87,77.29L403.23,76.66L405.59,77.12L407.95,75.23L410.31,70.67L412.66,69.22L415.02,68.76L417.38,70.82L419.74,73.64L422.1,72.03L424.45,73.89L426.81,73.27L429.17,71.27L431.53,62.98L433.89,57.44L436.24,59.06L438.6,59.59L440.96,59.17L443.32,57.49L445.68,57.15L448.03,58.76L450.39,55.5L452.75,54.63L455.11,56.03L457.47,49.63L459.83,52.44L462.18,41.61L464.54,38.4L466.9,37.63L469.26,33.73L473.97,33.86L476.33,16.31L478.69,20.59L481.05,18.2L483.41,16.07L485.76,16L488.12,19.45L490.48,19.36L492.84,20.08L495.2,18.66L499.91,19.73L502.27,18.65L504.63,19.49L506.99,19.45L509.34,19.52L511.7,26.54L514.06,26.6L516.42,24.06L521.14,19.83L523.49,19.85L525.85,23.01L528.21,22.71L530.57,19.86L532.93,20.06L540,20.29" style="vector-effect: non-scaling-stroke; fill: none; stroke: rgb(99, 110, 250); stroke-opacity: 1; stroke-width: 2px; opacity: 1;"/></g><g class="points"/><g class="text"/></g></g></g><g class="overplot"/><path class="xlines-above crisp" d="M0,0" style="fill: none;"/><path class="ylines-above crisp" d="M0,0" style="fill: none;"/><g class="overlines-above"/><g class="xaxislayer-above"><g class="xtick"><text text-anchor="middle" x="0" y="433" transform="translate(103.58,0)" style="font-family: 'Open Sans', verdana, arial, sans-serif; font-size: 12px; fill: rgb(42, 63, 95); fill-opacity: 1; white-space: pre; opacity: 1;">Aug 2022</text></g><g class="xtick"><text text-anchor="middle" x="0" y="433" style="font-family: 'Open Sans', verdana, arial, sans-serif; font-size: 12px; fill: rgb(42, 63, 95); fill-opacity: 1; white-space: pre; opacity: 1;" transform="translate(176.68,0)">Sep 2022</text></g><g class="xtick"><text text-anchor="middle" x="0" y="433" style="font-family: 'Open Sans', verdana, arial, sans-serif; font-size: 12px; fill: rgb(42, 63, 95); fill-opacity: 1; white-space: pre; opacity: 1;" transform="translate(247.42,0)">Oct 2022</text></g><g class="xtick"><text text-anchor="middle" x="0" y="433" style="font-family: 'Open Sans', verdana, arial, sans-serif; font-size: 12px; fill: rgb(42, 63, 95); fill-opacity: 1; white-space: pre; opacity: 1;" transform="translate(320.52,0)">Nov 2022</text></g><g class="xtick"><text text-anchor="middle" x="0" y="433" style="font-family: 'Open Sans', verdana, arial, sans-serif; font-size: 12px; fill: rgb(42, 63, 95); fill-opacity: 1; white-space: pre; opacity: 1;" transform="translate(391.27,0)">Dec 2022</text></g><g class="xtick"><text text-anchor="middle" x="0" y="433" style="font-family: 'Open Sans', verdana, arial, sans-serif; font-size: 12px; fill: rgb(42, 63, 95); fill-opacity: 1; white-space: pre; opacity: 1;" transform="translate(464.37,0)">Jan 2023</text></g><g class="xtick"><text text-anchor="middle" x="0" y="433" style="font-family: 'Open Sans', verdana, arial, sans-serif; font-size: 12px; fill: rgb(42, 63, 95); fill-opacity: 1; white-space: pre; opacity: 1;" transform="translate(537.47,0)">Feb 2023</text></g><g class="xtick"><text text-anchor="middle" x="0" y="433" style="font-family: 'Open Sans', verdana, arial, sans-serif; font-size: 12px; fill: rgb(42, 63, 95); fill-opacity: 1; white-space: pre; opacity: 1;" transform="translate(603.49,0)">Mar 2023</text></g></g><g class="yaxislayer-above"><g class="ytick"><text text-anchor="end" x="79" y="4.199999999999999" transform="translate(0,386.32)" style="font-family: 'Open Sans', verdana, arial, sans-serif; font-size: 12px; fill: rgb(42, 63, 95); fill-opacity: 1; white-space: pre; opacity: 1;">$0</text></g><g class="ytick"><text text-anchor="end" x="79" y="4.199999999999999" style="font-family: 'Open Sans', verdana, arial, sans-serif; font-size: 12px; fill: rgb(42, 63, 95); fill-opacity: 1; white-space: pre; opacity: 1;" transform="translate(0,315.39)">$10M</text></g><g class="ytick"><text text-anchor="end" x="79" y="4.199999999999999" style="font-family: 'Open Sans', verdana, arial, sans-serif; font-size: 12px; fill: rgb(42, 63, 95); fill-opacity: 1; white-space: pre; opacity: 1;" transform="translate(0,244.46)">$20M</text></g><g class="ytick"><text text-anchor="end" x="79" y="4.199999999999999" style="font-family: 'Open Sans', verdana, arial, sans-serif; font-size: 12px; fill: rgb(42, 63, 95); fill-opacity: 1; white-space: pre; opacity: 1;" transform="translate(0,173.53)">$30M</text></g><g class="ytick"><text text-anchor="end" x="79" y="4.199999999999999" style="font-family: 'Open Sans', verdana, arial, sans-serif; font-size: 12px; fill: rgb(42, 63, 95); fill-opacity: 1; white-space: pre; opacity: 1;" transform="translate(0,102.59)">$40M</text></g></g><g class="overaxes-above"/></g></g><g class="polarlayer"/><g class="smithlayer"/><g class="ternarylayer"/><g class="geolayer"/><g class="funnelarealayer"/><g class="pielayer"/><g class="iciclelayer"/><g class="treemaplayer"/><g class="sunburstlayer"/><g class="glimages"/><defs id="topdefs-541015"><g class="clips"/></defs><g class="layer-above"><g class="imagelayer"/><g class="shapelayer"/></g><g class="infolayer"><g class="g-gtitle"><text class="gtitle" x="35" y="50" text-anchor="start" dy="0em" style="font-family: 'Open Sans', verdana, arial, sans-serif; font-size: 17px; fill: rgb(42, 63, 95); opacity: 1; font-weight: normal; white-space: pre;"><tspan class="line" dy="0em" x="35" y="50">Pooltogether</tspan><tspan class="line" dy="1.3em" x="35" y="50">​<tspan style="font-size:70%" dy="-0.6em">Cumulative Net Flows since Program Announcement, Until Program End + 30 Days - At Last Price</tspan><tspan dy="0.42em">​</tspan></tspan></text></g><g class="g-xtitle"><text class="xtitle" x="350" y="460.8" text-anchor="middle" style="font-family: 'Open Sans', verdana, arial, sans-serif; font-size: 14px; fill: rgb(42, 63, 95); opacity: 1; font-weight: normal; white-space: pre;">Day</text></g><g class="g-ytitle"><text class="ytitle" transform="rotate(-90,24.168750000000003,260)" x="24.168750000000003" y="260" text-anchor="middle" style="font-family: 'Open Sans', verdana, arial, sans-serif; font-size: 14px; fill: rgb(42, 63, 95); opacity: 1; font-weight: normal; white-space: pre;">Cumulative Net Flows (USD)</text></g></g></svg>