<svg class="main-svg" xmlns="http://www.w3.org/2000/svg" xmlns:xlink="http://www.w3.org/1999/xlink" width="700" height="500" style="" viewBox="0 0 700 500"><rect x="0" y="0" width="700" height="500" style="fill: rgb(255, 255, 255); fill-opacity: 1;"/><defs id="defs-faf23c"><g class="clips"><clipPath id="clipfaf23cxyplot" class="plotclip"><rect width="540" height="320"/></clipPath><clipPath class="axesclip" id="clipfaf23cx"><rect x="80" y="0" width="540" height="500"/></clipPath><clipPath class="axesclip" id="clipfaf23cy"><rect x="0" y="100" width="700" height="320"/></clipPath><clipPath class="axesclip" id="clipfaf23cxy"><rect x="80" y="100" width="540" height="320"/></clipPath></g><g class="gradients"/><g class="patterns"/></defs><g class="bglayer"><rect class="bg" x="80" y="100" width="540" height="320" style="fill: rgb(229, 236, 246); fill-opacity: 1; stroke-width: 0;"/></g><g class="layer-below"><g class="imagelayer"/><g class="shapelayer"/></g><g class="cartesianlayer"><g class="subplot xy"><g class="layer-subplot"><g class="shapelayer"/><g class="imagelayer"/></g><g class="minor-gridlayer"><g class="x"/><g class="y"/></g><g class="gridlayer"><g class="x"><path class="xgrid crisp" transform="translate(87.11,0)" d="M0,100v320" style="stroke: rgb(255, 255, 255); stroke-opacity: 1; stroke-width: 1px;"/><path class="xgrid crisp" transform="translate(197.24,0)" d="M0,100v320" style="stroke: rgb(255, 255, 255); stroke-opacity: 1; stroke-width: 1px;"/><path class="xgrid crisp" transform="translate(303.82,0)" d="M0,100v320" style="stroke: rgb(255, 255, 255); stroke-opacity: 1; stroke-width: 1px;"/><path class="xgrid crisp" transform="translate(413.95,0)" d="M0,100v320" style="stroke: rgb(255, 255, 255); stroke-opacity: 1; stroke-width: 1px;"/><path class="xgrid crisp" transform="translate(524.0799999999999,0)" d="M0,100v320" style="stroke: rgb(255, 255, 255); stroke-opacity: 1; stroke-width: 1px;"/></g><g class="y"><path class="ygrid crisp" transform="translate(0,414.31)" d="M80,0h540" style="stroke: rgb(255, 255, 255); stroke-opacity: 1; stroke-width: 1px;"/><path class="ygrid crisp" transform="translate(0,332.59000000000003)" d="M80,0h540" style="stroke: rgb(255, 255, 255); stroke-opacity: 1; stroke-width: 1px;"/><path class="ygrid crisp" transform="translate(0,291.72)" d="M80,0h540" style="stroke: rgb(255, 255, 255); stroke-opacity: 1; stroke-width: 1px;"/><path class="ygrid crisp" transform="translate(0,250.86)" d="M80,0h540" style="stroke: rgb(255, 255, 255); stroke-opacity: 1; stroke-width: 1px;"/><path class="ygrid crisp" transform="translate(0,209.99)" d="M80,0h540" style="stroke: rgb(255, 255, 255); stroke-opacity: 1; stroke-width: 1px;"/><path class="ygrid crisp" transform="translate(0,169.13)" d="M80,0h540" style="stroke: rgb(255, 255, 255); stroke-opacity: 1; stroke-width: 1px;"/><path class="ygrid crisp" transform="translate(0,128.26)" d="M80,0h540" style="stroke: rgb(255, 255, 255); stroke-opacity: 1; stroke-width: 1px;"/></g></g><g class="zerolinelayer"><path class="yzl zl crisp" transform="translate(0,373.45)" d="M80,0h540" style="stroke: rgb(255, 255, 255); stroke-opacity: 1; stroke-width: 2px;"/></g><path class="xlines-below"/><path class="ylines-below"/><g class="overlines-below"/><g class="xaxislayer-below"/><g class="yaxislayer-below"/><g class="overaxes-below"/><g class="plot" transform="translate(80,100)" clip-path="url(#clipfaf23cxyplot)"><g class="scatterlayer mlayer"><g class="trace scatter trace139bd1" style="stroke-miterlimit: 2;"><g class="fills"><g><path class="js-fill" d="M540,273.45L0,273.45L0,273.23L3.55,246.55L7.11,236L10.66,229.04L14.21,236.61L17.76,221.36L21.32,219.36L24.87,222.42L28.42,217.07L35.53,195.88L39.08,168.38L42.63,169.29L46.18,164.11L49.74,163.33L53.29,168.7L56.84,173.08L60.39,172.92L63.95,170.29L67.5,169.25L71.05,168.3L74.61,168.16L78.16,172.38L81.71,172.31L88.82,169.85L92.37,175.77L95.92,162.14L99.47,156.39L103.03,154.89L106.58,150.24L113.68,136.76L117.24,132.74L120.79,137.69L124.34,138.6L127.89,132.59L131.45,124.76L135,120.51L138.55,126.07L142.11,126.06L145.66,147.86L149.21,170.4L152.76,164.82L159.87,164.18L163.42,165.86L166.97,163.79L170.53,162.78L174.08,163.48L177.63,166.58L181.18,164.18L184.74,163.98L188.29,168.85L191.84,167.93L202.5,156.34L206.05,156.56L209.61,154.91L213.16,155.66L216.71,159.61L220.26,157.66L223.82,152.41L227.37,149.84L234.47,160.21L238.03,159.64L241.58,162.44L245.13,171.74L248.68,176.96L252.24,175.21L255.79,173.8L259.34,167.05L262.89,168.19L266.45,165.94L270,160L273.55,161.55L280.66,169.15L284.21,168.13L287.76,167.78L291.32,168.6L294.87,165.04L298.42,165.74L301.97,151.47L305.53,151.78L309.08,153.01L312.63,152.39L316.18,151.37L319.74,149.38L323.29,151.45L326.84,149.95L333.95,146.91L337.5,146.32L341.05,142.2L344.61,141.38L351.71,139.12L355.26,154.91L358.82,155.84L362.37,149.89L365.92,146.96L369.47,147.01L373.03,140.63L376.58,139.52L380.13,119.37L383.68,108.62L387.24,102.05L390.79,98.82L394.34,100.79L397.89,108.33L401.45,125.05L405,117.56L408.55,132L412.11,142.5L415.66,121.55L419.21,131.54L422.76,129.81L426.32,126.21L429.87,125.43L433.42,121.2L436.97,116.65L440.53,151.92L444.08,152.85L447.63,144.94L451.18,135.98L454.74,137.34L458.29,133.68L461.84,131.36L465.39,134.18L468.95,83.35L472.5,86.34L476.05,88.12L479.61,95.83L483.16,85.06L486.71,91.23L490.26,71.04L493.82,62.56L497.37,44.43L500.92,51.93L504.47,33.84L508.03,32.42L511.58,36.81L515.13,16L518.68,20.78L522.24,23.78L525.79,20.45L529.34,41.24L532.89,26.89L536.45,18.51L540,19.35L540,304" style="fill: rgb(99, 110, 250); fill-opacity: 0.5; stroke-width: 0;"/></g></g><g class="errorbars"/><g class="lines"><path class="js-line" d="M0,273.23L3.55,246.55L7.11,236L10.66,229.04L14.21,236.61L17.76,221.36L21.32,219.36L24.87,222.42L28.42,217.07L35.53,195.88L39.08,168.38L42.63,169.29L46.18,164.11L49.74,163.33L53.29,168.7L56.84,173.08L60.39,172.92L63.95,170.29L67.5,169.25L71.05,168.3L74.61,168.16L78.16,172.38L81.71,172.31L88.82,169.85L92.37,175.77L95.92,162.14L99.47,156.39L103.03,154.89L106.58,150.24L113.68,136.76L117.24,132.74L120.79,137.69L124.34,138.6L127.89,132.59L131.45,124.76L135,120.51L138.55,126.07L142.11,126.06L145.66,147.86L149.21,170.4L152.76,164.82L159.87,164.18L163.42,165.86L166.97,163.79L170.53,162.78L174.08,163.48L177.63,166.58L181.18,164.18L184.74,163.98L188.29,168.85L191.84,167.93L202.5,156.34L206.05,156.56L209.61,154.91L213.16,155.66L216.71,159.61L220.26,157.66L223.82,152.41L227.37,149.84L234.47,160.21L238.03,159.64L241.58,162.44L245.13,171.74L248.68,176.96L252.24,175.21L255.79,173.8L259.34,167.05L262.89,168.19L266.45,165.94L270,160L273.55,161.55L280.66,169.15L284.21,168.13L287.76,167.78L291.32,168.6L294.87,165.04L298.42,165.74L301.97,151.47L305.53,151.78L309.08,153.01L312.63,152.39L316.18,151.37L319.74,149.38L323.29,151.45L326.84,149.95L333.95,146.91L337.5,146.32L341.05,142.2L344.61,141.38L351.71,139.12L355.26,154.91L358.82,155.84L362.37,149.89L365.92,146.96L369.47,147.01L373.03,140.63L376.58,139.52L380.13,119.37L383.68,108.62L387.24,102.05L390.79,98.82L394.34,100.79L397.89,108.33L401.45,125.05L405,117.56L408.55,132L412.11,142.5L415.66,121.55L419.21,131.54L422.76,129.81L426.32,126.21L429.87,125.43L433.42,121.2L436.97,116.65L440.53,151.92L444.08,152.85L447.63,144.94L451.18,135.98L454.74,137.34L458.29,133.68L461.84,131.36L465.39,134.18L468.95,83.35L472.5,86.34L476.05,88.12L479.61,95.83L483.16,85.06L486.71,91.23L490.26,71.04L493.82,62.56L497.37,44.43L500.92,51.93L504.47,33.84L508.03,32.42L511.58,36.81L515.13,16L518.68,20.78L522.24,23.78L525.79,20.45L529.34,41.24L532.89,26.89L536.45,18.51L540,19.35L540,304" style="vector-effect: non-scaling-stroke; fill: none; stroke: rgb(99, 110, 250); stroke-opacity: 1; stroke-width: 2px; opacity: 1;"/></g><g class="points"/><g class="text"/></g></g></g><g class="overplot"/><path class="xlines-above crisp" d="M0,0" style="fill: none;"/><path class="ylines-above crisp" d="M0,0" style="fill: none;"/><g class="overlines-above"/><g class="xaxislayer-above"><g class="xtick"><text text-anchor="middle" x="0" y="433" transform="translate(87.11,0)" style="font-family: 'Open Sans', verdana, arial, sans-serif; font-size: 12px; fill: rgb(42, 63, 95); fill-opacity: 1; white-space: pre; opacity: 1;">Oct 2022</text></g><g class="xtick"><text text-anchor="middle" x="0" y="433" style="font-family: 'Open Sans', verdana, arial, sans-serif; font-size: 12px; fill: rgb(42, 63, 95); fill-opacity: 1; white-space: pre; opacity: 1;" transform="translate(197.24,0)">Nov 2022</text></g><g class="xtick"><text text-anchor="middle" x="0" y="433" style="font-family: 'Open Sans', verdana, arial, sans-serif; font-size: 12px; fill: rgb(42, 63, 95); fill-opacity: 1; white-space: pre; opacity: 1;" transform="translate(303.82,0)">Dec 2022</text></g><g class="xtick"><text text-anchor="middle" x="0" y="433" style="font-family: 'Open Sans', verdana, arial, sans-serif; font-size: 12px; fill: rgb(42, 63, 95); fill-opacity: 1; white-space: pre; opacity: 1;" transform="translate(413.95,0)">Jan 2023</text></g><g class="xtick"><text text-anchor="middle" x="0" y="433" style="font-family: 'Open Sans', verdana, arial, sans-serif; font-size: 12px; fill: rgb(42, 63, 95); fill-opacity: 1; white-space: pre; opacity: 1;" transform="translate(524.0799999999999,0)">Feb 2023</text></g></g><g class="yaxislayer-above"><g class="ytick"><text text-anchor="end" x="79" y="4.199999999999999" transform="translate(0,414.31)" style="font-family: 'Open Sans', verdana, arial, sans-serif; font-size: 12px; fill: rgb(42, 63, 95); fill-opacity: 1; white-space: pre; opacity: 1;">$−5M</text></g><g class="ytick"><text text-anchor="end" x="79" y="4.199999999999999" style="font-family: 'Open Sans', verdana, arial, sans-serif; font-size: 12px; fill: rgb(42, 63, 95); fill-opacity: 1; white-space: pre; opacity: 1;" transform="translate(0,373.45)">$0</text></g><g class="ytick"><text text-anchor="end" x="79" y="4.199999999999999" style="font-family: 'Open Sans', verdana, arial, sans-serif; font-size: 12px; fill: rgb(42, 63, 95); fill-opacity: 1; white-space: pre; opacity: 1;" transform="translate(0,332.59000000000003)">$5M</text></g><g class="ytick"><text text-anchor="end" x="79" y="4.199999999999999" style="font-family: 'Open Sans', verdana, arial, sans-serif; font-size: 12px; fill: rgb(42, 63, 95); fill-opacity: 1; white-space: pre; opacity: 1;" transform="translate(0,291.72)">$10M</text></g><g class="ytick"><text text-anchor="end" x="79" y="4.199999999999999" style="font-family: 'Open Sans', verdana, arial, sans-serif; font-size: 12px; fill: rgb(42, 63, 95); fill-opacity: 1; white-space: pre; opacity: 1;" transform="translate(0,250.86)">$15M</text></g><g class="ytick"><text text-anchor="end" x="79" y="4.199999999999999" style="font-family: 'Open Sans', verdana, arial, sans-serif; font-size: 12px; fill: rgb(42, 63, 95); fill-opacity: 1; white-space: pre; opacity: 1;" transform="translate(0,209.99)">$20M</text></g><g class="ytick"><text text-anchor="end" x="79" y="4.199999999999999" style="font-family: 'Open Sans', verdana, arial, sans-serif; font-size: 12px; fill: rgb(42, 63, 95); fill-opacity: 1; white-space: pre; opacity: 1;" transform="translate(0,169.13)">$25M</text></g><g class="ytick"><text text-anchor="end" x="79" y="4.199999999999999" style="font-family: 'Open Sans', verdana, arial, sans-serif; font-size: 12px; fill: rgb(42, 63, 95); fill-opacity: 1; white-space: pre; opacity: 1;" transform="translate(0,128.26)">$30M</text></g></g><g class="overaxes-above"/></g></g><g class="polarlayer"/><g class="smithlayer"/><g class="ternarylayer"/><g class="geolayer"/><g class="funnelarealayer"/><g class="pielayer"/><g class="iciclelayer"/><g class="treemaplayer"/><g class="sunburstlayer"/><g class="glimages"/><defs id="topdefs-faf23c"><g class="clips"/></defs><g class="layer-above"><g class="imagelayer"/><g class="shapelayer"/></g><g class="infolayer"><g class="g-gtitle"><text class="gtitle" x="35" y="50" text-anchor="start" dy="0em" style="font-family: 'Open Sans', verdana, arial, sans-serif; font-size: 17px; fill: rgb(42, 63, 95); opacity: 1; font-weight: normal; white-space: pre;"><tspan class="line" dy="0em" x="35" y="50">Beethoven X</tspan><tspan class="line" dy="1.3em" x="35" y="50">​<tspan style="font-size:70%" dy="-0.6em">Cumulative Net Flows since Program Announcement, Until Program End + 30 Days - At Last Price</tspan><tspan dy="0.42em">​</tspan></tspan></text></g><g class="g-xtitle"><text class="xtitle" x="350" y="460.8" text-anchor="middle" style="font-family: 'Open Sans', verdana, arial, sans-serif; font-size: 14px; fill: rgb(42, 63, 95); opacity: 1; font-weight: normal; white-space: pre;">Day</text></g><g class="g-ytitle"><text class="ytitle" transform="rotate(-90,23.840625000000003,260)" x="23.840625000000003" y="260" text-anchor="middle" style="font-family: 'Open Sans', verdana, arial, sans-serif; font-size: 14px; fill: rgb(42, 63, 95); opacity: 1; font-weight: normal; white-space: pre;">Cumulative Net Flows (USD)</text></g></g></svg>