<svg class="main-svg" xmlns="http://www.w3.org/2000/svg" xmlns:xlink="http://www.w3.org/1999/xlink" width="700" height="500" style="" viewBox="0 0 700 500"><rect x="0" y="0" width="700" height="500" style="fill: rgb(255, 255, 255); fill-opacity: 1;"/><defs id="defs-24756e"><g class="clips"><clipPath id="clip24756exyplot" class="plotclip"><rect width="540" height="320"/></clipPath><clipPath class="axesclip" id="clip24756ex"><rect x="80" y="0" width="540" height="500"/></clipPath><clipPath class="axesclip" id="clip24756ey"><rect x="0" y="100" width="700" height="320"/></clipPath><clipPath class="axesclip" id="clip24756exy"><rect x="80" y="100" width="540" height="320"/></clipPath></g><g class="gradients"/><g class="patterns"/></defs><g class="bglayer"><rect class="bg" x="80" y="100" width="540" height="320" style="fill: rgb(229, 236, 246); fill-opacity: 1; stroke-width: 0;"/></g><g class="layer-below"><g class="imagelayer"/><g class="shapelayer"/></g><g class="cartesianlayer"><g class="subplot xy"><g class="layer-subplot"><g class="shapelayer"/><g class="imagelayer"/></g><g class="minor-gridlayer"><g class="x"/><g class="y"/></g><g class="gridlayer"><g class="x"><path class="xgrid crisp" transform="translate(134.92000000000002,0)" d="M0,100v320" style="stroke: rgb(255, 255, 255); stroke-opacity: 1; stroke-width: 1px;"/><path class="xgrid crisp" transform="translate(276.78,0)" d="M0,100v320" style="stroke: rgb(255, 255, 255); stroke-opacity: 1; stroke-width: 1px;"/><path class="xgrid crisp" transform="translate(414.07,0)" d="M0,100v320" style="stroke: rgb(255, 255, 255); stroke-opacity: 1; stroke-width: 1px;"/><path class="xgrid crisp" transform="translate(555.9300000000001,0)" d="M0,100v320" style="stroke: rgb(255, 255, 255); stroke-opacity: 1; stroke-width: 1px;"/></g><g class="y"><path class="ygrid crisp" transform="translate(0,370.61)" d="M80,0h540" style="stroke: rgb(255, 255, 255); stroke-opacity: 1; stroke-width: 1px;"/><path class="ygrid crisp" transform="translate(0,321.22)" d="M80,0h540" style="stroke: rgb(255, 255, 255); stroke-opacity: 1; stroke-width: 1px;"/><path class="ygrid crisp" transform="translate(0,271.83000000000004)" d="M80,0h540" style="stroke: rgb(255, 255, 255); stroke-opacity: 1; stroke-width: 1px;"/><path class="ygrid crisp" transform="translate(0,222.44)" d="M80,0h540" style="stroke: rgb(255, 255, 255); stroke-opacity: 1; stroke-width: 1px;"/><path class="ygrid crisp" transform="translate(0,173.05)" d="M80,0h540" style="stroke: rgb(255, 255, 255); stroke-opacity: 1; stroke-width: 1px;"/><path class="ygrid crisp" transform="translate(0,123.66)" d="M80,0h540" style="stroke: rgb(255, 255, 255); stroke-opacity: 1; stroke-width: 1px;"/></g></g><g class="zerolinelayer"><path class="yzl zl crisp" transform="translate(0,420)" d="M80,0h540" style="stroke: rgb(255, 255, 255); stroke-opacity: 1; stroke-width: 2px;"/></g><path class="xlines-below"/><path class="ylines-below"/><g class="overlines-below"/><g class="xaxislayer-below"/><g class="yaxislayer-below"/><g class="overaxes-below"/><g class="plot" transform="translate(80,100)" clip-path="url(#clip24756exyplot)"><g class="scatterlayer mlayer"><g class="trace scatter trace81f140" style="stroke-miterlimit: 2;"><g class="fills"><g><path class="js-fill" d="M540,320L0,320L0,320L4.58,317.15L9.15,308.91L13.73,283.71L18.31,272.02L22.88,270.4L27.46,262.38L32.03,256.47L36.61,256.25L41.19,252.99L45.76,247.77L50.34,254.35L54.92,253.8L59.49,256.56L64.07,254.42L68.64,253.2L73.22,253.22L91.53,253.71L96.1,252.08L100.68,251.34L105.25,248.95L114.41,247.68L118.98,249.13L123.56,244.91L128.14,244.87L137.29,244.61L141.86,241.46L146.44,241.44L151.02,248.23L164.75,248.55L169.32,247.32L173.9,177.17L178.47,75.19L183.05,36.76L187.63,32.63L192.2,23.54L196.78,21.31L201.36,30.64L205.93,35.3L210.51,25.25L215.08,29.71L219.66,25.31L224.24,27.54L228.81,16L233.39,43.59L237.97,67.38L242.54,81.5L247.12,109.35L251.69,118.16L256.27,121.47L260.85,121.64L265.42,121.78L270,120.79L274.58,135.95L279.15,135.83L283.73,135.5L288.31,144.82L292.88,143.13L297.46,145.85L302.03,146.78L306.61,146.78L311.19,149.05L315.76,149.06L324.92,149.14L329.49,149.06L338.64,147.38L343.22,142.38L347.8,139.35L352.37,139.19L356.95,135.95L361.53,135.85L370.68,135.37L375.25,130.75L379.83,129.06L384.41,129.05L388.98,129.01L393.56,139.47L411.86,138.91L416.44,141.21L425.59,141.12L430.17,137.98L439.32,137.34L443.9,135.48L448.47,135.32L453.05,136.41L462.2,135.87L466.78,132.67L471.36,134.76L475.93,134.67L485.08,134.52L489.66,132.68L494.24,132.45L498.81,128.75L507.97,128.71L512.54,158.52L517.12,161.55L521.69,161.71L526.27,157.95L530.85,158.5L535.42,163.58L540,170.23" style="fill: rgb(99, 110, 250); fill-opacity: 0.5; stroke-width: 0;"/></g></g><g class="errorbars"/><g class="lines"><path class="js-line" d="M0,320L4.58,317.15L9.15,308.91L13.73,283.71L18.31,272.02L22.88,270.4L27.46,262.38L32.03,256.47L36.61,256.25L41.19,252.99L45.76,247.77L50.34,254.35L54.92,253.8L59.49,256.56L64.07,254.42L68.64,253.2L73.22,253.22L91.53,253.71L96.1,252.08L100.68,251.34L105.25,248.95L114.41,247.68L118.98,249.13L123.56,244.91L128.14,244.87L137.29,244.61L141.86,241.46L146.44,241.44L151.02,248.23L164.75,248.55L169.32,247.32L173.9,177.17L178.47,75.19L183.05,36.76L187.63,32.63L192.2,23.54L196.78,21.31L201.36,30.64L205.93,35.3L210.51,25.25L215.08,29.71L219.66,25.31L224.24,27.54L228.81,16L233.39,43.59L237.97,67.38L242.54,81.5L247.12,109.35L251.69,118.16L256.27,121.47L260.85,121.64L265.42,121.78L270,120.79L274.58,135.95L279.15,135.83L283.73,135.5L288.31,144.82L292.88,143.13L297.46,145.85L302.03,146.78L306.61,146.78L311.19,149.05L315.76,149.06L324.92,149.14L329.49,149.06L338.64,147.38L343.22,142.38L347.8,139.35L352.37,139.19L356.95,135.95L361.53,135.85L370.68,135.37L375.25,130.75L379.83,129.06L384.41,129.05L388.98,129.01L393.56,139.47L411.86,138.91L416.44,141.21L425.59,141.12L430.17,137.98L439.32,137.34L443.9,135.48L448.47,135.32L453.05,136.41L462.2,135.87L466.78,132.67L471.36,134.76L475.93,134.67L485.08,134.52L489.66,132.68L494.24,132.45L498.81,128.75L507.97,128.71L512.54,158.52L517.12,161.55L521.69,161.71L526.27,157.95L530.85,158.5L535.42,163.58L540,170.23" style="vector-effect: non-scaling-stroke; fill: none; stroke: rgb(99, 110, 250); stroke-opacity: 1; stroke-width: 2px; opacity: 1;"/></g><g class="points"/><g class="text"/></g></g></g><g class="overplot"/><path class="xlines-above crisp" d="M0,0" style="fill: none;"/><path class="ylines-above crisp" d="M0,0" style="fill: none;"/><g class="overlines-above"/><g class="xaxislayer-above"><g class="xtick"><text text-anchor="middle" x="0" y="433" transform="translate(134.92000000000002,0)" style="font-family: 'Open Sans', verdana, arial, sans-serif; font-size: 12px; fill: rgb(42, 63, 95); fill-opacity: 1; white-space: pre; opacity: 1;">Oct 2022</text></g><g class="xtick"><text text-anchor="middle" x="0" y="433" style="font-family: 'Open Sans', verdana, arial, sans-serif; font-size: 12px; fill: rgb(42, 63, 95); fill-opacity: 1; white-space: pre; opacity: 1;" transform="translate(276.78,0)">Nov 2022</text></g><g class="xtick"><text text-anchor="middle" x="0" y="433" style="font-family: 'Open Sans', verdana, arial, sans-serif; font-size: 12px; fill: rgb(42, 63, 95); fill-opacity: 1; white-space: pre; opacity: 1;" transform="translate(414.07,0)">Dec 2022</text></g><g class="xtick"><text text-anchor="middle" x="0" y="433" style="font-family: 'Open Sans', verdana, arial, sans-serif; font-size: 12px; fill: rgb(42, 63, 95); fill-opacity: 1; white-space: pre; opacity: 1;" transform="translate(555.9300000000001,0)">Jan 2023</text></g></g><g class="yaxislayer-above"><g class="ytick"><text text-anchor="end" x="79" y="4.199999999999999" transform="translate(0,420)" style="font-family: 'Open Sans', verdana, arial, sans-serif; font-size: 12px; fill: rgb(42, 63, 95); fill-opacity: 1; white-space: pre; opacity: 1;">$0</text></g><g class="ytick"><text text-anchor="end" x="79" y="4.199999999999999" style="font-family: 'Open Sans', verdana, arial, sans-serif; font-size: 12px; fill: rgb(42, 63, 95); fill-opacity: 1; white-space: pre; opacity: 1;" transform="translate(0,370.61)">$0.5M</text></g><g class="ytick"><text text-anchor="end" x="79" y="4.199999999999999" style="font-family: 'Open Sans', verdana, arial, sans-serif; font-size: 12px; fill: rgb(42, 63, 95); fill-opacity: 1; white-space: pre; opacity: 1;" transform="translate(0,321.22)">$1M</text></g><g class="ytick"><text text-anchor="end" x="79" y="4.199999999999999" style="font-family: 'Open Sans', verdana, arial, sans-serif; font-size: 12px; fill: rgb(42, 63, 95); fill-opacity: 1; white-space: pre; opacity: 1;" transform="translate(0,271.83000000000004)">$1.5M</text></g><g class="ytick"><text text-anchor="end" x="79" y="4.199999999999999" style="font-family: 'Open Sans', verdana, arial, sans-serif; font-size: 12px; fill: rgb(42, 63, 95); fill-opacity: 1; white-space: pre; opacity: 1;" transform="translate(0,222.44)">$2M</text></g><g class="ytick"><text text-anchor="end" x="79" y="4.199999999999999" style="font-family: 'Open Sans', verdana, arial, sans-serif; font-size: 12px; fill: rgb(42, 63, 95); fill-opacity: 1; white-space: pre; opacity: 1;" transform="translate(0,173.05)">$2.5M</text></g><g class="ytick"><text text-anchor="end" x="79" y="4.199999999999999" style="font-family: 'Open Sans', verdana, arial, sans-serif; font-size: 12px; fill: rgb(42, 63, 95); fill-opacity: 1; white-space: pre; opacity: 1;" transform="translate(0,123.66)">$3M</text></g></g><g class="overaxes-above"/></g></g><g class="polarlayer"/><g class="smithlayer"/><g class="ternarylayer"/><g class="geolayer"/><g class="funnelarealayer"/><g class="pielayer"/><g class="iciclelayer"/><g class="treemaplayer"/><g class="sunburstlayer"/><g class="glimages"/><defs id="topdefs-24756e"><g class="clips"/></defs><g class="layer-above"><g class="imagelayer"/><g class="shapelayer"/></g><g class="infolayer"><g class="g-gtitle"><text class="gtitle" x="35" y="50" text-anchor="start" dy="0em" style="font-family: 'Open Sans', verdana, arial, sans-serif; font-size: 17px; fill: rgb(42, 63, 95); opacity: 1; font-weight: normal; white-space: pre;"><tspan class="line" dy="0em" x="35" y="50">Xtoken</tspan><tspan class="line" dy="1.3em" x="35" y="50">​<tspan style="font-size:70%" dy="-0.6em">Cumulative Net Dollar Flow since Program Announcement, Until Program End + 30 Days - At Last Price</tspan><tspan dy="0.42em">​</tspan></tspan></text></g><g class="g-xtitle"><text class="xtitle" x="350" y="460.8" text-anchor="middle" style="font-family: 'Open Sans', verdana, arial, sans-serif; font-size: 14px; fill: rgb(42, 63, 95); opacity: 1; font-weight: normal; white-space: pre;">Day</text></g><g class="g-ytitle"><text class="ytitle" transform="rotate(-90,20.840625000000003,260)" x="20.840625000000003" y="260" text-anchor="middle" style="font-family: 'Open Sans', verdana, arial, sans-serif; font-size: 14px; fill: rgb(42, 63, 95); opacity: 1; font-weight: normal; white-space: pre;">Cumulative Net Dollar Flow (N$F)</text></g></g></svg>