<svg class="main-svg" xmlns="http://www.w3.org/2000/svg" xmlns:xlink="http://www.w3.org/1999/xlink" width="700" height="500" style="" viewBox="0 0 700 500"><rect x="0" y="0" width="700" height="500" style="fill: rgb(255, 255, 255); fill-opacity: 1;"/><defs id="defs-8c1eea"><g class="clips"><clipPath id="clip8c1eeaxyplot" class="plotclip"><rect width="540" height="320"/></clipPath><clipPath class="axesclip" id="clip8c1eeax"><rect x="80" y="0" width="540" height="500"/></clipPath><clipPath class="axesclip" id="clip8c1eeay"><rect x="0" y="100" width="700" height="320"/></clipPath><clipPath class="axesclip" id="clip8c1eeaxy"><rect x="80" y="100" width="540" height="320"/></clipPath></g><g class="gradients"/><g class="patterns"/></defs><g class="bglayer"><rect class="bg" x="80" y="100" width="540" height="320" style="fill: rgb(229, 236, 246); fill-opacity: 1; stroke-width: 0;"/></g><g class="layer-below"><g class="imagelayer"/><g class="shapelayer"/></g><g class="cartesianlayer"><g class="subplot xy"><g class="layer-subplot"><g class="shapelayer"/><g class="imagelayer"/></g><g class="minor-gridlayer"><g class="x"/><g class="y"/></g><g class="gridlayer"><g class="x"><path class="xgrid crisp" transform="translate(126.84,0)" d="M0,100v320" style="stroke: rgb(255, 255, 255); stroke-opacity: 1; stroke-width: 1px;"/><path class="xgrid crisp" transform="translate(212.24,0)" d="M0,100v320" style="stroke: rgb(255, 255, 255); stroke-opacity: 1; stroke-width: 1px;"/><path class="xgrid crisp" transform="translate(294.9,0)" d="M0,100v320" style="stroke: rgb(255, 255, 255); stroke-opacity: 1; stroke-width: 1px;"/><path class="xgrid crisp" transform="translate(380.31,0)" d="M0,100v320" style="stroke: rgb(255, 255, 255); stroke-opacity: 1; stroke-width: 1px;"/><path class="xgrid crisp" transform="translate(462.96,0)" d="M0,100v320" style="stroke: rgb(255, 255, 255); stroke-opacity: 1; stroke-width: 1px;"/><path class="xgrid crisp" transform="translate(548.37,0)" d="M0,100v320" style="stroke: rgb(255, 255, 255); stroke-opacity: 1; stroke-width: 1px;"/></g><g class="y"><path class="ygrid crisp" transform="translate(0,387.4)" d="M80,0h540" style="stroke: rgb(255, 255, 255); stroke-opacity: 1; stroke-width: 1px;"/><path class="ygrid crisp" transform="translate(0,287.6)" d="M80,0h540" style="stroke: rgb(255, 255, 255); stroke-opacity: 1; stroke-width: 1px;"/><path class="ygrid crisp" transform="translate(0,237.69)" d="M80,0h540" style="stroke: rgb(255, 255, 255); stroke-opacity: 1; stroke-width: 1px;"/><path class="ygrid crisp" transform="translate(0,187.79000000000002)" d="M80,0h540" style="stroke: rgb(255, 255, 255); stroke-opacity: 1; stroke-width: 1px;"/><path class="ygrid crisp" transform="translate(0,137.89)" d="M80,0h540" style="stroke: rgb(255, 255, 255); stroke-opacity: 1; stroke-width: 1px;"/></g></g><g class="zerolinelayer"><path class="yzl zl crisp" transform="translate(0,337.5)" d="M80,0h540" style="stroke: rgb(255, 255, 255); stroke-opacity: 1; stroke-width: 2px;"/></g><path class="xlines-below"/><path class="ylines-below"/><g class="overlines-below"/><g class="xaxislayer-below"/><g class="yaxislayer-below"/><g class="overaxes-below"/><g class="plot" transform="translate(80,100)" clip-path="url(#clip8c1eeaxyplot)"><g class="scatterlayer mlayer"><g class="trace scatter trace44ec4f" style="stroke-miterlimit: 2;"><g class="fills"><g><path class="js-fill" d="M540,237.5L0,237.5L0,237.43L5.51,233.79L8.27,232.87L11.02,231.19L13.78,230.76L16.53,229.92L19.29,219.82L22.04,217.09L24.8,216.77L27.55,212.21L30.31,211.5L33.06,209.29L35.82,209.25L41.33,201.9L44.08,200.15L46.84,196.94L49.59,184.8L52.35,184.09L55.1,185.73L57.86,182.5L60.61,120.12L63.37,111.33L66.12,89.38L68.88,80.77L71.63,91.03L74.39,94.29L77.14,95.03L79.9,96.79L82.65,97.38L85.41,98.35L88.16,100.47L90.92,102.75L93.67,116.22L99.18,127.62L101.94,125.49L104.69,125.39L107.45,146.03L110.2,143.69L112.96,144.95L118.47,145.54L121.22,145.17L123.98,145.66L126.73,144.82L132.24,143.95L135,142.06L137.76,141.67L140.51,140.06L143.27,139.38L146.02,140.44L148.78,142.29L151.53,140.18L154.29,123.11L157.04,116.53L159.8,115.87L162.55,116.22L165.31,112.19L168.06,145.95L170.82,148.53L173.57,146.64L176.33,145.02L179.08,142.22L181.84,137.97L184.59,131.13L187.35,139.21L190.1,137.14L192.86,133.32L195.61,124.94L198.37,102.87L201.12,102.47L203.88,102.15L206.63,95.02L209.39,99.7L212.14,96.74L214.9,91.54L217.65,90.13L220.41,90.43L223.16,99.69L225.92,95.78L228.67,96.16L234.18,96.63L236.94,95.4L239.69,89.02L242.45,86.5L247.96,90.07L250.71,94.63L253.47,71.32L256.22,75.03L258.98,88.15L261.73,88.28L264.49,88.16L267.24,91.08L272.76,90.88L275.51,91.26L278.27,90.86L281.02,91.87L286.53,92.76L289.29,99.34L292.04,99.53L294.8,102.72L297.55,101.71L300.31,96.53L303.06,96.7L305.82,84.99L308.57,84.6L311.33,82.69L319.59,81.42L322.35,91.01L325.1,107.73L327.86,108.52L330.61,109.05L333.37,108.22L336.12,108.41L338.88,107.46L349.9,105.67L352.65,104.26L360.92,101.39L363.67,86.39L366.43,83.94L369.18,88.63L371.94,92.99L374.69,78.21L377.45,78.02L380.2,79.79L382.96,78.54L385.71,79.52L388.47,93.7L391.22,94.41L396.73,96.05L399.49,94.87L402.24,95.67L405,94.52L407.76,93.95L410.51,86.99L413.27,82.5L416.02,80.13L421.53,78.29L424.29,77.32L427.04,89.68L429.8,88.92L432.55,78.94L435.31,78.21L438.06,78.26L440.82,77.56L443.57,76.92L446.33,67.72L449.08,67.82L451.84,66.29L457.35,65.52L460.1,71.65L465.61,70.45L468.37,67.16L473.88,69.31L476.63,73.97L482.14,72.54L484.9,74.42L490.41,72.49L493.16,69.8L495.92,68.5L498.67,65.71L504.18,66.13L506.94,60.92L509.69,59.62L512.45,55.51L515.2,49.27L517.96,50.69L520.71,50.04L523.47,44.8L526.22,44.63L528.98,37.8L531.73,36.22L534.49,23.64L540,16L540,304" style="fill: rgb(99, 110, 250); fill-opacity: 0.5; stroke-width: 0;"/></g></g><g class="errorbars"/><g class="lines"><path class="js-line" d="M0,237.43L5.51,233.79L8.27,232.87L11.02,231.19L13.78,230.76L16.53,229.92L19.29,219.82L22.04,217.09L24.8,216.77L27.55,212.21L30.31,211.5L33.06,209.29L35.82,209.25L41.33,201.9L44.08,200.15L46.84,196.94L49.59,184.8L52.35,184.09L55.1,185.73L57.86,182.5L60.61,120.12L63.37,111.33L66.12,89.38L68.88,80.77L71.63,91.03L74.39,94.29L77.14,95.03L79.9,96.79L82.65,97.38L85.41,98.35L88.16,100.47L90.92,102.75L93.67,116.22L99.18,127.62L101.94,125.49L104.69,125.39L107.45,146.03L110.2,143.69L112.96,144.95L118.47,145.54L121.22,145.17L123.98,145.66L126.73,144.82L132.24,143.95L135,142.06L137.76,141.67L140.51,140.06L143.27,139.38L146.02,140.44L148.78,142.29L151.53,140.18L154.29,123.11L157.04,116.53L159.8,115.87L162.55,116.22L165.31,112.19L168.06,145.95L170.82,148.53L173.57,146.64L176.33,145.02L179.08,142.22L181.84,137.97L184.59,131.13L187.35,139.21L190.1,137.14L192.86,133.32L195.61,124.94L198.37,102.87L201.12,102.47L203.88,102.15L206.63,95.02L209.39,99.7L212.14,96.74L214.9,91.54L217.65,90.13L220.41,90.43L223.16,99.69L225.92,95.78L228.67,96.16L234.18,96.63L236.94,95.4L239.69,89.02L242.45,86.5L247.96,90.07L250.71,94.63L253.47,71.32L256.22,75.03L258.98,88.15L261.73,88.28L264.49,88.16L267.24,91.08L272.76,90.88L275.51,91.26L278.27,90.86L281.02,91.87L286.53,92.76L289.29,99.34L292.04,99.53L294.8,102.72L297.55,101.71L300.31,96.53L303.06,96.7L305.82,84.99L308.57,84.6L311.33,82.69L319.59,81.42L322.35,91.01L325.1,107.73L327.86,108.52L330.61,109.05L333.37,108.22L336.12,108.41L338.88,107.46L349.9,105.67L352.65,104.26L360.92,101.39L363.67,86.39L366.43,83.94L369.18,88.63L371.94,92.99L374.69,78.21L377.45,78.02L380.2,79.79L382.96,78.54L385.71,79.52L388.47,93.7L391.22,94.41L396.73,96.05L399.49,94.87L402.24,95.67L405,94.52L407.76,93.95L410.51,86.99L413.27,82.5L416.02,80.13L421.53,78.29L424.29,77.32L427.04,89.68L429.8,88.92L432.55,78.94L435.31,78.21L438.06,78.26L440.82,77.56L443.57,76.92L446.33,67.72L449.08,67.82L451.84,66.29L457.35,65.52L460.1,71.65L465.61,70.45L468.37,67.16L473.88,69.31L476.63,73.97L482.14,72.54L484.9,74.42L490.41,72.49L493.16,69.8L495.92,68.5L498.67,65.71L504.18,66.13L506.94,60.92L509.69,59.62L512.45,55.51L515.2,49.27L517.96,50.69L520.71,50.04L523.47,44.8L526.22,44.63L528.98,37.8L531.73,36.22L534.49,23.64L540,16L540,304" style="vector-effect: non-scaling-stroke; fill: none; stroke: rgb(99, 110, 250); stroke-opacity: 1; stroke-width: 2px; opacity: 1;"/></g><g class="points"/><g class="text"/></g></g></g><g class="overplot"/><path class="xlines-above crisp" d="M0,0" style="fill: none;"/><path class="ylines-above crisp" d="M0,0" style="fill: none;"/><g class="overlines-above"/><g class="xaxislayer-above"><g class="xtick"><text text-anchor="middle" x="0" y="433" transform="translate(126.84,0)" style="font-family: 'Open Sans', verdana, arial, sans-serif; font-size: 12px; fill: rgb(42, 63, 95); fill-opacity: 1; white-space: pre; opacity: 1;">Aug 2022</text></g><g class="xtick"><text text-anchor="middle" x="0" y="433" style="font-family: 'Open Sans', verdana, arial, sans-serif; font-size: 12px; fill: rgb(42, 63, 95); fill-opacity: 1; white-space: pre; opacity: 1;" transform="translate(212.24,0)">Sep 2022</text></g><g class="xtick"><text text-anchor="middle" x="0" y="433" style="font-family: 'Open Sans', verdana, arial, sans-serif; font-size: 12px; fill: rgb(42, 63, 95); fill-opacity: 1; white-space: pre; opacity: 1;" transform="translate(294.9,0)">Oct 2022</text></g><g class="xtick"><text text-anchor="middle" x="0" y="433" style="font-family: 'Open Sans', verdana, arial, sans-serif; font-size: 12px; fill: rgb(42, 63, 95); fill-opacity: 1; white-space: pre; opacity: 1;" transform="translate(380.31,0)">Nov 2022</text></g><g class="xtick"><text text-anchor="middle" x="0" y="433" style="font-family: 'Open Sans', verdana, arial, sans-serif; font-size: 12px; fill: rgb(42, 63, 95); fill-opacity: 1; white-space: pre; opacity: 1;" transform="translate(462.96,0)">Dec 2022</text></g><g class="xtick"><text text-anchor="middle" x="0" y="433" style="font-family: 'Open Sans', verdana, arial, sans-serif; font-size: 12px; fill: rgb(42, 63, 95); fill-opacity: 1; white-space: pre; opacity: 1;" transform="translate(548.37,0)">Jan 2023</text></g></g><g class="yaxislayer-above"><g class="ytick"><text text-anchor="end" x="79" y="4.199999999999999" transform="translate(0,387.4)" style="font-family: 'Open Sans', verdana, arial, sans-serif; font-size: 12px; fill: rgb(42, 63, 95); fill-opacity: 1; white-space: pre; opacity: 1;">$−2M</text></g><g class="ytick"><text text-anchor="end" x="79" y="4.199999999999999" style="font-family: 'Open Sans', verdana, arial, sans-serif; font-size: 12px; fill: rgb(42, 63, 95); fill-opacity: 1; white-space: pre; opacity: 1;" transform="translate(0,337.5)">$0</text></g><g class="ytick"><text text-anchor="end" x="79" y="4.199999999999999" style="font-family: 'Open Sans', verdana, arial, sans-serif; font-size: 12px; fill: rgb(42, 63, 95); fill-opacity: 1; white-space: pre; opacity: 1;" transform="translate(0,287.6)">$2M</text></g><g class="ytick"><text text-anchor="end" x="79" y="4.199999999999999" style="font-family: 'Open Sans', verdana, arial, sans-serif; font-size: 12px; fill: rgb(42, 63, 95); fill-opacity: 1; white-space: pre; opacity: 1;" transform="translate(0,237.69)">$4M</text></g><g class="ytick"><text text-anchor="end" x="79" y="4.199999999999999" style="font-family: 'Open Sans', verdana, arial, sans-serif; font-size: 12px; fill: rgb(42, 63, 95); fill-opacity: 1; white-space: pre; opacity: 1;" transform="translate(0,187.79000000000002)">$6M</text></g><g class="ytick"><text text-anchor="end" x="79" y="4.199999999999999" style="font-family: 'Open Sans', verdana, arial, sans-serif; font-size: 12px; fill: rgb(42, 63, 95); fill-opacity: 1; white-space: pre; opacity: 1;" transform="translate(0,137.89)">$8M</text></g></g><g class="overaxes-above"/></g></g><g class="polarlayer"/><g class="smithlayer"/><g class="ternarylayer"/><g class="geolayer"/><g class="funnelarealayer"/><g class="pielayer"/><g class="iciclelayer"/><g class="treemaplayer"/><g class="sunburstlayer"/><g class="glimages"/><defs id="topdefs-8c1eea"><g class="clips"/></defs><g class="layer-above"><g class="imagelayer"/><g class="shapelayer"/></g><g class="infolayer"><g class="g-gtitle"><text class="gtitle" x="35" y="50" text-anchor="start" dy="0em" style="font-family: 'Open Sans', verdana, arial, sans-serif; font-size: 17px; fill: rgb(42, 63, 95); opacity: 1; font-weight: normal; white-space: pre;"><tspan class="line" dy="0em" x="35" y="50">Rubicon</tspan><tspan class="line" dy="1.3em" x="35" y="50">​<tspan style="font-size:70%" dy="-0.6em">Cumulative Net Dollar Flow since Program Announcement, Until Program End + 30 Days - At Last Price</tspan><tspan dy="0.42em">​</tspan></tspan></text></g><g class="g-xtitle"><text class="xtitle" x="350" y="460.8" text-anchor="middle" style="font-family: 'Open Sans', verdana, arial, sans-serif; font-size: 14px; fill: rgb(42, 63, 95); opacity: 1; font-weight: normal; white-space: pre;">Day</text></g><g class="g-ytitle"><text class="ytitle" transform="rotate(-90,23.840625000000003,260)" x="23.840625000000003" y="260" text-anchor="middle" style="font-family: 'Open Sans', verdana, arial, sans-serif; font-size: 14px; fill: rgb(42, 63, 95); opacity: 1; font-weight: normal; white-space: pre;">Cumulative Net Dollar Flow (N$F)</text></g></g></svg>