<svg class="main-svg" xmlns="http://www.w3.org/2000/svg" xmlns:xlink="http://www.w3.org/1999/xlink" width="700" height="500" style="" viewBox="0 0 700 500"><rect x="0" y="0" width="700" height="500" style="fill: rgb(255, 255, 255); fill-opacity: 1;"/><defs id="defs-7e0976"><g class="clips"><clipPath id="clip7e0976xyplot" class="plotclip"><rect width="540" height="320"/></clipPath><clipPath class="axesclip" id="clip7e0976x"><rect x="80" y="0" width="540" height="500"/></clipPath><clipPath class="axesclip" id="clip7e0976y"><rect x="0" y="100" width="700" height="320"/></clipPath><clipPath class="axesclip" id="clip7e0976xy"><rect x="80" y="100" width="540" height="320"/></clipPath></g><g class="gradients"/><g class="patterns"/></defs><g class="bglayer"><rect class="bg" x="80" y="100" width="540" height="320" style="fill: rgb(229, 236, 246); fill-opacity: 1; stroke-width: 0;"/></g><g class="layer-below"><g class="imagelayer"/><g class="shapelayer"/></g><g class="cartesianlayer"><g class="subplot xy"><g class="layer-subplot"><g class="shapelayer"/><g class="imagelayer"/></g><g class="minor-gridlayer"><g class="x"/><g class="y"/></g><g class="gridlayer"><g class="x"><path class="xgrid crisp" transform="translate(121.72999999999999,0)" d="M0,100v320" style="stroke: rgb(255, 255, 255); stroke-opacity: 1; stroke-width: 1px;"/><path class="xgrid crisp" transform="translate(197.82,0)" d="M0,100v320" style="stroke: rgb(255, 255, 255); stroke-opacity: 1; stroke-width: 1px;"/><path class="xgrid crisp" transform="translate(271.45,0)" d="M0,100v320" style="stroke: rgb(255, 255, 255); stroke-opacity: 1; stroke-width: 1px;"/><path class="xgrid crisp" transform="translate(347.55,0)" d="M0,100v320" style="stroke: rgb(255, 255, 255); stroke-opacity: 1; stroke-width: 1px;"/><path class="xgrid crisp" transform="translate(421.18,0)" d="M0,100v320" style="stroke: rgb(255, 255, 255); stroke-opacity: 1; stroke-width: 1px;"/><path class="xgrid crisp" transform="translate(497.27,0)" d="M0,100v320" style="stroke: rgb(255, 255, 255); stroke-opacity: 1; stroke-width: 1px;"/><path class="xgrid crisp" transform="translate(573.36,0)" d="M0,100v320" style="stroke: rgb(255, 255, 255); stroke-opacity: 1; stroke-width: 1px;"/></g><g class="y"><path class="ygrid crisp" transform="translate(0,393.76)" d="M80,0h540" style="stroke: rgb(255, 255, 255); stroke-opacity: 1; stroke-width: 1px;"/><path class="ygrid crisp" transform="translate(0,353.15)" d="M80,0h540" style="stroke: rgb(255, 255, 255); stroke-opacity: 1; stroke-width: 1px;"/><path class="ygrid crisp" transform="translate(0,312.53999999999996)" d="M80,0h540" style="stroke: rgb(255, 255, 255); stroke-opacity: 1; stroke-width: 1px;"/><path class="ygrid crisp" transform="translate(0,231.31)" d="M80,0h540" style="stroke: rgb(255, 255, 255); stroke-opacity: 1; stroke-width: 1px;"/><path class="ygrid crisp" transform="translate(0,190.7)" d="M80,0h540" style="stroke: rgb(255, 255, 255); stroke-opacity: 1; stroke-width: 1px;"/><path class="ygrid crisp" transform="translate(0,150.07999999999998)" d="M80,0h540" style="stroke: rgb(255, 255, 255); stroke-opacity: 1; stroke-width: 1px;"/><path class="ygrid crisp" transform="translate(0,109.47)" d="M80,0h540" style="stroke: rgb(255, 255, 255); stroke-opacity: 1; stroke-width: 1px;"/></g></g><g class="zerolinelayer"><path class="yzl zl crisp" transform="translate(0,271.91999999999996)" d="M80,0h540" style="stroke: rgb(255, 255, 255); stroke-opacity: 1; stroke-width: 2px;"/></g><path class="xlines-below"/><path class="ylines-below"/><g class="overlines-below"/><g class="xaxislayer-below"/><g class="yaxislayer-below"/><g class="overaxes-below"/><g class="plot" transform="translate(80,100)" clip-path="url(#clip7e0976xyplot)"><g class="scatterlayer mlayer"><g class="trace scatter tracee0355d" style="stroke-miterlimit: 2;"><g class="fills"><g><path class="js-fill" d="M540,171.92L0,171.92L0,164.05L2.45,136.04L4.91,126.57L7.36,132.19L9.82,134.67L12.27,135.74L14.73,140.63L17.18,141.73L19.64,100.87L22.09,89.09L24.55,89.5L27,92.5L29.45,124.46L31.91,130.31L34.36,127.27L36.82,108.35L39.27,112.11L41.73,110.67L44.18,106.54L46.64,104.68L49.09,107.56L51.55,127.83L54,113.63L58.91,145.4L61.36,149.86L63.82,147.48L66.27,123.29L71.18,84.76L73.64,84.04L76.09,93.6L78.55,117.81L81,119.95L83.45,128.81L85.91,122.71L88.36,92.97L90.82,93.92L93.27,118.64L95.73,112.49L98.18,114.17L100.64,115.51L103.09,134.77L105.55,119.58L108,111.71L110.45,144.48L112.91,134.43L115.36,130.94L117.82,137.28L120.27,134.49L122.73,120.87L125.18,134.98L127.64,141.81L130.09,144.52L132.55,154.75L135,166.02L137.45,167.39L139.91,150.52L142.36,152.11L144.82,108.43L147.27,136.11L149.73,137.21L152.18,141.84L154.64,144.82L157.09,150.42L159.55,75.49L162,135.94L164.45,125.9L166.91,130.85L169.36,142.72L171.82,145.83L174.27,125.35L176.73,127.59L179.18,128.77L181.64,142.65L184.09,114.46L186.55,114.14L189,112.26L191.45,113.82L193.91,97.99L196.36,141.91L198.82,140.38L201.27,133.9L203.73,157.01L206.18,159.28L208.64,157.73L211.09,166.53L216,205.35L218.45,194.49L223.36,183.12L225.82,167.93L228.27,165.85L230.73,181.86L235.64,153.18L238.09,142.68L240.55,153.95L243,159.33L245.45,160.59L247.91,171.16L250.36,178.07L252.82,181.19L255.27,163.9L257.73,159.83L262.64,129.4L265.09,169.51L267.55,161.97L270,167.29L272.45,147.73L274.91,156.99L277.36,122.89L279.82,133.2L282.27,163.86L284.73,110.98L287.18,126.59L289.64,111.12L292.09,103.84L294.55,71.89L297,72.69L299.45,111.17L301.91,104.34L304.36,102.33L306.82,95.5L309.27,100.41L311.73,76.48L314.18,77.97L316.64,80.56L319.09,71.62L321.55,39.84L324,39.55L326.45,112.44L328.91,80.7L331.36,96.15L333.82,84.25L336.27,103.97L338.73,148.77L341.18,78.03L343.64,86.05L346.09,36.26L348.55,41.96L353.45,72.31L355.91,51.85L360.82,27.84L363.27,16L365.73,21.05L368.18,96.72L370.64,116L373.09,129.18L375.55,143.36L378,150.52L380.45,124.17L382.91,125.54L385.36,143.31L387.82,127.22L390.27,134.59L392.73,123.04L395.18,128.97L397.64,119.73L400.09,142.04L402.55,126.83L405,139.21L407.45,141.69L409.91,137.89L412.36,112.97L414.82,135.46L417.27,136.16L419.73,168.34L422.18,153.32L424.64,159.06L427.09,139.94L429.55,131.89L432,99.55L434.45,97.5L436.91,104.56L439.36,81.96L441.82,78.38L444.27,88.94L446.73,107.94L449.18,92.2L451.64,98.49L454.09,107.56L456.55,120.73L459,115.32L461.45,114.11L463.91,115.27L466.36,83.27L471.27,121.12L473.73,74.85L476.18,67.9L478.64,107.02L481.09,138.11L483.55,158.02L486,136.9L488.45,169.12L490.91,123.18L493.36,196.96L495.82,205.37L498.27,190.97L500.73,183.9L503.18,201.47L505.64,202.46L508.09,199.76L510.55,194.57L513,178.87L515.45,176.06L517.91,164.29L520.36,146.29L522.82,44.68L525.27,164.58L527.73,168.79L530.18,164.44L532.64,169.49L535.09,166.4L537.55,174.35L540,190.51L540,304" style="fill: rgb(99, 110, 250); fill-opacity: 0.5; stroke-width: 0;"/></g></g><g class="errorbars"/><g class="lines"><path class="js-line" d="M0,164.05L2.45,136.04L4.91,126.57L7.36,132.19L9.82,134.67L12.27,135.74L14.73,140.63L17.18,141.73L19.64,100.87L22.09,89.09L24.55,89.5L27,92.5L29.45,124.46L31.91,130.31L34.36,127.27L36.82,108.35L39.27,112.11L41.73,110.67L44.18,106.54L46.64,104.68L49.09,107.56L51.55,127.83L54,113.63L58.91,145.4L61.36,149.86L63.82,147.48L66.27,123.29L71.18,84.76L73.64,84.04L76.09,93.6L78.55,117.81L81,119.95L83.45,128.81L85.91,122.71L88.36,92.97L90.82,93.92L93.27,118.64L95.73,112.49L98.18,114.17L100.64,115.51L103.09,134.77L105.55,119.58L108,111.71L110.45,144.48L112.91,134.43L115.36,130.94L117.82,137.28L120.27,134.49L122.73,120.87L125.18,134.98L127.64,141.81L130.09,144.52L132.55,154.75L135,166.02L137.45,167.39L139.91,150.52L142.36,152.11L144.82,108.43L147.27,136.11L149.73,137.21L152.18,141.84L154.64,144.82L157.09,150.42L159.55,75.49L162,135.94L164.45,125.9L166.91,130.85L169.36,142.72L171.82,145.83L174.27,125.35L176.73,127.59L179.18,128.77L181.64,142.65L184.09,114.46L186.55,114.14L189,112.26L191.45,113.82L193.91,97.99L196.36,141.91L198.82,140.38L201.27,133.9L203.73,157.01L206.18,159.28L208.64,157.73L211.09,166.53L216,205.35L218.45,194.49L223.36,183.12L225.82,167.93L228.27,165.85L230.73,181.86L235.64,153.18L238.09,142.68L240.55,153.95L243,159.33L245.45,160.59L247.91,171.16L250.36,178.07L252.82,181.19L255.27,163.9L257.73,159.83L262.64,129.4L265.09,169.51L267.55,161.97L270,167.29L272.45,147.73L274.91,156.99L277.36,122.89L279.82,133.2L282.27,163.86L284.73,110.98L287.18,126.59L289.64,111.12L292.09,103.84L294.55,71.89L297,72.69L299.45,111.17L301.91,104.34L304.36,102.33L306.82,95.5L309.27,100.41L311.73,76.48L314.18,77.97L316.64,80.56L319.09,71.62L321.55,39.84L324,39.55L326.45,112.44L328.91,80.7L331.36,96.15L333.82,84.25L336.27,103.97L338.73,148.77L341.18,78.03L343.64,86.05L346.09,36.26L348.55,41.96L353.45,72.31L355.91,51.85L360.82,27.84L363.27,16L365.73,21.05L368.18,96.72L370.64,116L373.09,129.18L375.55,143.36L378,150.52L380.45,124.17L382.91,125.54L385.36,143.31L387.82,127.22L390.27,134.59L392.73,123.04L395.18,128.97L397.64,119.73L400.09,142.04L402.55,126.83L405,139.21L407.45,141.69L409.91,137.89L412.36,112.97L414.82,135.46L417.27,136.16L419.73,168.34L422.18,153.32L424.64,159.06L427.09,139.94L429.55,131.89L432,99.55L434.45,97.5L436.91,104.56L439.36,81.96L441.82,78.38L444.27,88.94L446.73,107.94L449.18,92.2L451.64,98.49L454.09,107.56L456.55,120.73L459,115.32L461.45,114.11L463.91,115.27L466.36,83.27L471.27,121.12L473.73,74.85L476.18,67.9L478.64,107.02L481.09,138.11L483.55,158.02L486,136.9L488.45,169.12L490.91,123.18L493.36,196.96L495.82,205.37L498.27,190.97L500.73,183.9L503.18,201.47L505.64,202.46L508.09,199.76L510.55,194.57L513,178.87L515.45,176.06L517.91,164.29L520.36,146.29L522.82,44.68L525.27,164.58L527.73,168.79L530.18,164.44L532.64,169.49L535.09,166.4L537.55,174.35L540,190.51L540,304" style="vector-effect: non-scaling-stroke; fill: none; stroke: rgb(99, 110, 250); stroke-opacity: 1; stroke-width: 2px; opacity: 1;"/></g><g class="points"/><g class="text"/></g></g></g><g class="overplot"/><path class="xlines-above crisp" d="M0,0" style="fill: none;"/><path class="ylines-above crisp" d="M0,0" style="fill: none;"/><g class="overlines-above"/><g class="xaxislayer-above"><g class="xtick"><text text-anchor="middle" x="0" y="433" transform="translate(121.72999999999999,0)" style="font-family: 'Open Sans', verdana, arial, sans-serif; font-size: 12px; fill: rgb(42, 63, 95); fill-opacity: 1; white-space: pre; opacity: 1;">Aug 2022</text></g><g class="xtick"><text text-anchor="middle" x="0" y="433" style="font-family: 'Open Sans', verdana, arial, sans-serif; font-size: 12px; fill: rgb(42, 63, 95); fill-opacity: 1; white-space: pre; opacity: 1;" transform="translate(197.82,0)">Sep 2022</text></g><g class="xtick"><text text-anchor="middle" x="0" y="433" style="font-family: 'Open Sans', verdana, arial, sans-serif; font-size: 12px; fill: rgb(42, 63, 95); fill-opacity: 1; white-space: pre; opacity: 1;" transform="translate(271.45,0)">Oct 2022</text></g><g class="xtick"><text text-anchor="middle" x="0" y="433" style="font-family: 'Open Sans', verdana, arial, sans-serif; font-size: 12px; fill: rgb(42, 63, 95); fill-opacity: 1; white-space: pre; opacity: 1;" transform="translate(347.55,0)">Nov 2022</text></g><g class="xtick"><text text-anchor="middle" x="0" y="433" style="font-family: 'Open Sans', verdana, arial, sans-serif; font-size: 12px; fill: rgb(42, 63, 95); fill-opacity: 1; white-space: pre; opacity: 1;" transform="translate(421.18,0)">Dec 2022</text></g><g class="xtick"><text text-anchor="middle" x="0" y="433" style="font-family: 'Open Sans', verdana, arial, sans-serif; font-size: 12px; fill: rgb(42, 63, 95); fill-opacity: 1; white-space: pre; opacity: 1;" transform="translate(497.27,0)">Jan 2023</text></g><g class="xtick"><text text-anchor="middle" x="0" y="433" style="font-family: 'Open Sans', verdana, arial, sans-serif; font-size: 12px; fill: rgb(42, 63, 95); fill-opacity: 1; white-space: pre; opacity: 1;" transform="translate(573.36,0)">Feb 2023</text></g></g><g class="yaxislayer-above"><g class="ytick"><text text-anchor="end" x="79" y="4.199999999999999" transform="translate(0,393.76)" style="font-family: 'Open Sans', verdana, arial, sans-serif; font-size: 12px; fill: rgb(42, 63, 95); fill-opacity: 1; white-space: pre; opacity: 1;">$−150k</text></g><g class="ytick"><text text-anchor="end" x="79" y="4.199999999999999" style="font-family: 'Open Sans', verdana, arial, sans-serif; font-size: 12px; fill: rgb(42, 63, 95); fill-opacity: 1; white-space: pre; opacity: 1;" transform="translate(0,353.15)">$−100k</text></g><g class="ytick"><text text-anchor="end" x="79" y="4.199999999999999" style="font-family: 'Open Sans', verdana, arial, sans-serif; font-size: 12px; fill: rgb(42, 63, 95); fill-opacity: 1; white-space: pre; opacity: 1;" transform="translate(0,312.53999999999996)">$−50k</text></g><g class="ytick"><text text-anchor="end" x="79" y="4.199999999999999" style="font-family: 'Open Sans', verdana, arial, sans-serif; font-size: 12px; fill: rgb(42, 63, 95); fill-opacity: 1; white-space: pre; opacity: 1;" transform="translate(0,271.91999999999996)">$0</text></g><g class="ytick"><text text-anchor="end" x="79" y="4.199999999999999" style="font-family: 'Open Sans', verdana, arial, sans-serif; font-size: 12px; fill: rgb(42, 63, 95); fill-opacity: 1; white-space: pre; opacity: 1;" transform="translate(0,231.31)">$50k</text></g><g class="ytick"><text text-anchor="end" x="79" y="4.199999999999999" style="font-family: 'Open Sans', verdana, arial, sans-serif; font-size: 12px; fill: rgb(42, 63, 95); fill-opacity: 1; white-space: pre; opacity: 1;" transform="translate(0,190.7)">$100k</text></g><g class="ytick"><text text-anchor="end" x="79" y="4.199999999999999" style="font-family: 'Open Sans', verdana, arial, sans-serif; font-size: 12px; fill: rgb(42, 63, 95); fill-opacity: 1; white-space: pre; opacity: 1;" transform="translate(0,150.07999999999998)">$150k</text></g><g class="ytick"><text text-anchor="end" x="79" y="4.199999999999999" style="font-family: 'Open Sans', verdana, arial, sans-serif; font-size: 12px; fill: rgb(42, 63, 95); fill-opacity: 1; white-space: pre; opacity: 1;" transform="translate(0,109.47)">$200k</text></g></g><g class="overaxes-above"/></g></g><g class="polarlayer"/><g class="smithlayer"/><g class="ternarylayer"/><g class="geolayer"/><g class="funnelarealayer"/><g class="pielayer"/><g class="iciclelayer"/><g class="treemaplayer"/><g class="sunburstlayer"/><g class="glimages"/><defs id="topdefs-7e0976"><g class="clips"/></defs><g class="layer-above"><g class="imagelayer"/><g class="shapelayer"/></g><g class="infolayer"><g class="g-gtitle"><text class="gtitle" x="35" y="50" text-anchor="start" dy="0em" style="font-family: 'Open Sans', verdana, arial, sans-serif; font-size: 17px; fill: rgb(42, 63, 95); opacity: 1; font-weight: normal; white-space: pre;"><tspan class="line" dy="0em" x="35" y="50">Thales</tspan><tspan class="line" dy="1.3em" x="35" y="50">​<tspan style="font-size:70%" dy="-0.6em">Cumulative Net Flows since Program Announcement, Until Program End + 30 Days - At Last Price</tspan><tspan dy="0.42em">​</tspan></tspan></text></g><g class="g-xtitle"><text class="xtitle" x="350" y="460.8" text-anchor="middle" style="font-family: 'Open Sans', verdana, arial, sans-serif; font-size: 14px; fill: rgb(42, 63, 95); opacity: 1; font-weight: normal; white-space: pre;">Day</text></g><g class="g-ytitle"><text class="ytitle" transform="rotate(-90,14.496875000000003,260)" x="14.496875000000003" y="260" text-anchor="middle" style="font-family: 'Open Sans', verdana, arial, sans-serif; font-size: 14px; fill: rgb(42, 63, 95); opacity: 1; font-weight: normal; white-space: pre;">Cumulative Net Flows (USD)</text></g></g></svg>