<svg class="main-svg" xmlns="http://www.w3.org/2000/svg" xmlns:xlink="http://www.w3.org/1999/xlink" width="700" height="500" style="" viewBox="0 0 700 500"><rect x="0" y="0" width="700" height="500" style="fill: rgb(255, 255, 255); fill-opacity: 1;"/><defs id="defs-53f5ba"><g class="clips"><clipPath id="clip53f5baxyplot" class="plotclip"><rect width="540" height="320"/></clipPath><clipPath class="axesclip" id="clip53f5bax"><rect x="80" y="0" width="540" height="500"/></clipPath><clipPath class="axesclip" id="clip53f5bay"><rect x="0" y="100" width="700" height="320"/></clipPath><clipPath class="axesclip" id="clip53f5baxy"><rect x="80" y="100" width="540" height="320"/></clipPath></g><g class="gradients"/><g class="patterns"/></defs><g class="bglayer"><rect class="bg" x="80" y="100" width="540" height="320" style="fill: rgb(229, 236, 246); fill-opacity: 1; stroke-width: 0;"/></g><g class="layer-below"><g class="imagelayer"/><g class="shapelayer"/></g><g class="cartesianlayer"><g class="subplot xy"><g class="layer-subplot"><g class="shapelayer"/><g class="imagelayer"/></g><g class="minor-gridlayer"><g class="x"/><g class="y"/></g><g class="gridlayer"><g class="x"><path class="xgrid crisp" transform="translate(136.84,0)" d="M0,100v320" style="stroke: rgb(255, 255, 255); stroke-opacity: 1; stroke-width: 1px;"/><path class="xgrid crisp" transform="translate(234.74,0)" d="M0,100v320" style="stroke: rgb(255, 255, 255); stroke-opacity: 1; stroke-width: 1px;"/><path class="xgrid crisp" transform="translate(329.47,0)" d="M0,100v320" style="stroke: rgb(255, 255, 255); stroke-opacity: 1; stroke-width: 1px;"/><path class="xgrid crisp" transform="translate(427.37,0)" d="M0,100v320" style="stroke: rgb(255, 255, 255); stroke-opacity: 1; stroke-width: 1px;"/><path class="xgrid crisp" transform="translate(525.26,0)" d="M0,100v320" style="stroke: rgb(255, 255, 255); stroke-opacity: 1; stroke-width: 1px;"/><path class="xgrid crisp" transform="translate(613.68,0)" d="M0,100v320" style="stroke: rgb(255, 255, 255); stroke-opacity: 1; stroke-width: 1px;"/></g><g class="y"><path class="ygrid crisp" transform="translate(0,361.15)" d="M80,0h540" style="stroke: rgb(255, 255, 255); stroke-opacity: 1; stroke-width: 1px;"/><path class="ygrid crisp" transform="translate(0,302.3)" d="M80,0h540" style="stroke: rgb(255, 255, 255); stroke-opacity: 1; stroke-width: 1px;"/><path class="ygrid crisp" transform="translate(0,243.45)" d="M80,0h540" style="stroke: rgb(255, 255, 255); stroke-opacity: 1; stroke-width: 1px;"/><path class="ygrid crisp" transform="translate(0,184.6)" d="M80,0h540" style="stroke: rgb(255, 255, 255); stroke-opacity: 1; stroke-width: 1px;"/><path class="ygrid crisp" transform="translate(0,125.76)" d="M80,0h540" style="stroke: rgb(255, 255, 255); stroke-opacity: 1; stroke-width: 1px;"/></g></g><g class="zerolinelayer"><path class="yzl zl crisp" transform="translate(0,420)" d="M80,0h540" style="stroke: rgb(255, 255, 255); stroke-opacity: 1; stroke-width: 2px;"/></g><path class="xlines-below"/><path class="ylines-below"/><g class="overlines-below"/><g class="xaxislayer-below"/><g class="yaxislayer-below"/><g class="overaxes-below"/><g class="plot" transform="translate(80,100)" clip-path="url(#clip53f5baxyplot)"><g class="scatterlayer mlayer"><g class="trace scatter trace38fda4" style="stroke-miterlimit: 2;"><g class="fills"><g><path class="js-fill" d="M540,320L0,320L0,234.03L3.16,233.62L6.32,212.61L9.47,165.85L12.63,146.19L15.79,138.75L18.95,134.93L22.11,135.43L25.26,134.31L28.42,127.82L31.58,127.58L41.05,125.8L44.21,129.03L56.84,128.34L60,127.19L66.32,127.12L69.47,125.85L72.63,123.99L75.79,106.05L78.95,80.32L82.11,62.84L88.42,62.03L91.58,62.41L94.74,100.11L97.89,99.48L107.37,98.03L110.53,96.39L113.68,95.06L116.84,94.94L123.16,95.42L126.32,90.39L129.47,91.78L132.63,90.69L135.79,90.26L138.95,118.26L142.11,120.44L145.26,120.02L148.42,119.83L151.58,118.47L154.74,117.38L157.89,122.38L161.05,122.16L164.21,125.71L167.37,119.61L170.53,128.42L173.68,127.17L176.84,126.94L180,152.89L183.16,141.69L186.32,141.31L189.47,140.13L192.63,139.17L195.79,139.02L202.11,138.24L205.26,127.94L211.58,127.07L214.74,125.3L221.05,122.99L224.21,122.42L227.37,122.23L230.53,139.58L233.68,138.47L236.84,138.42L252.63,137.7L255.79,136.36L258.95,136.18L262.11,137.95L265.26,146.71L268.42,135.71L271.58,137.94L274.74,137.8L296.84,136.1L300,136.5L306.32,134.71L309.47,134.47L318.95,134.03L322.11,143.44L331.58,142.41L334.74,141.89L350.53,140.79L353.68,141.46L356.84,142.97L360,142.87L363.16,142.79L366.32,145.58L372.63,145.96L375.79,145.39L385.26,145.66L388.42,147.27L391.58,153.24L394.74,152.98L401.05,152.22L404.21,143.37L407.37,141.9L410.53,142L413.68,141.55L416.84,138.48L426.32,131.9L429.47,131.48L432.63,130.83L435.79,130.97L445.26,128.12L448.42,128.22L451.58,136.49L454.74,136.24L457.89,134L461.05,132.96L464.21,129.83L467.37,113.35L470.53,120.05L473.68,119.38L476.84,119.22L480,110.74L483.16,109.75L486.32,105.07L489.47,115.12L492.63,111.99L495.79,98.38L498.95,97.57L502.11,65.5L505.26,65.35L508.42,66.45L511.58,66L514.74,97.81L517.89,97.86L521.05,42.72L524.21,38.78L527.37,37.07L530.53,28.81L533.68,21.92L536.84,17.34L540,16" style="fill: rgb(99, 110, 250); fill-opacity: 0.5; stroke-width: 0;"/></g></g><g class="errorbars"/><g class="lines"><path class="js-line" d="M0,234.03L3.16,233.62L6.32,212.61L9.47,165.85L12.63,146.19L15.79,138.75L18.95,134.93L22.11,135.43L25.26,134.31L28.42,127.82L31.58,127.58L41.05,125.8L44.21,129.03L56.84,128.34L60,127.19L66.32,127.12L69.47,125.85L72.63,123.99L75.79,106.05L78.95,80.32L82.11,62.84L88.42,62.03L91.58,62.41L94.74,100.11L97.89,99.48L107.37,98.03L110.53,96.39L113.68,95.06L116.84,94.94L123.16,95.42L126.32,90.39L129.47,91.78L132.63,90.69L135.79,90.26L138.95,118.26L142.11,120.44L145.26,120.02L148.42,119.83L151.58,118.47L154.74,117.38L157.89,122.38L161.05,122.16L164.21,125.71L167.37,119.61L170.53,128.42L173.68,127.17L176.84,126.94L180,152.89L183.16,141.69L186.32,141.31L189.47,140.13L192.63,139.17L195.79,139.02L202.11,138.24L205.26,127.94L211.58,127.07L214.74,125.3L221.05,122.99L224.21,122.42L227.37,122.23L230.53,139.58L233.68,138.47L236.84,138.42L252.63,137.7L255.79,136.36L258.95,136.18L262.11,137.95L265.26,146.71L268.42,135.71L271.58,137.94L274.74,137.8L296.84,136.1L300,136.5L306.32,134.71L309.47,134.47L318.95,134.03L322.11,143.44L331.58,142.41L334.74,141.89L350.53,140.79L353.68,141.46L356.84,142.97L360,142.87L363.16,142.79L366.32,145.58L372.63,145.96L375.79,145.39L385.26,145.66L388.42,147.27L391.58,153.24L394.74,152.98L401.05,152.22L404.21,143.37L407.37,141.9L410.53,142L413.68,141.55L416.84,138.48L426.32,131.9L429.47,131.48L432.63,130.83L435.79,130.97L445.26,128.12L448.42,128.22L451.58,136.49L454.74,136.24L457.89,134L461.05,132.96L464.21,129.83L467.37,113.35L470.53,120.05L473.68,119.38L476.84,119.22L480,110.74L483.16,109.75L486.32,105.07L489.47,115.12L492.63,111.99L495.79,98.38L498.95,97.57L502.11,65.5L505.26,65.35L508.42,66.45L511.58,66L514.74,97.81L517.89,97.86L521.05,42.72L524.21,38.78L527.37,37.07L530.53,28.81L533.68,21.92L536.84,17.34L540,16" style="vector-effect: non-scaling-stroke; fill: none; stroke: rgb(99, 110, 250); stroke-opacity: 1; stroke-width: 2px; opacity: 1;"/></g><g class="points"/><g class="text"/></g></g></g><g class="overplot"/><path class="xlines-above crisp" d="M0,0" style="fill: none;"/><path class="ylines-above crisp" d="M0,0" style="fill: none;"/><g class="overlines-above"/><g class="xaxislayer-above"><g class="xtick"><text text-anchor="middle" x="0" y="433" transform="translate(136.84,0)" style="font-family: 'Open Sans', verdana, arial, sans-serif; font-size: 12px; fill: rgb(42, 63, 95); fill-opacity: 1; white-space: pre; opacity: 1;">Oct 2022</text></g><g class="xtick"><text text-anchor="middle" x="0" y="433" style="font-family: 'Open Sans', verdana, arial, sans-serif; font-size: 12px; fill: rgb(42, 63, 95); fill-opacity: 1; white-space: pre; opacity: 1;" transform="translate(234.74,0)">Nov 2022</text></g><g class="xtick"><text text-anchor="middle" x="0" y="433" style="font-family: 'Open Sans', verdana, arial, sans-serif; font-size: 12px; fill: rgb(42, 63, 95); fill-opacity: 1; white-space: pre; opacity: 1;" transform="translate(329.47,0)">Dec 2022</text></g><g class="xtick"><text text-anchor="middle" x="0" y="433" style="font-family: 'Open Sans', verdana, arial, sans-serif; font-size: 12px; fill: rgb(42, 63, 95); fill-opacity: 1; white-space: pre; opacity: 1;" transform="translate(427.37,0)">Jan 2023</text></g><g class="xtick"><text text-anchor="middle" x="0" y="433" style="font-family: 'Open Sans', verdana, arial, sans-serif; font-size: 12px; fill: rgb(42, 63, 95); fill-opacity: 1; white-space: pre; opacity: 1;" transform="translate(525.26,0)">Feb 2023</text></g><g class="xtick"><text text-anchor="middle" x="0" y="433" style="font-family: 'Open Sans', verdana, arial, sans-serif; font-size: 12px; fill: rgb(42, 63, 95); fill-opacity: 1; white-space: pre; opacity: 1;" transform="translate(613.68,0)">Mar 2023</text></g></g><g class="yaxislayer-above"><g class="ytick"><text text-anchor="end" x="79" y="4.199999999999999" transform="translate(0,420)" style="font-family: 'Open Sans', verdana, arial, sans-serif; font-size: 12px; fill: rgb(42, 63, 95); fill-opacity: 1; white-space: pre; opacity: 1;">$0</text></g><g class="ytick"><text text-anchor="end" x="79" y="4.199999999999999" style="font-family: 'Open Sans', verdana, arial, sans-serif; font-size: 12px; fill: rgb(42, 63, 95); fill-opacity: 1; white-space: pre; opacity: 1;" transform="translate(0,361.15)">$100k</text></g><g class="ytick"><text text-anchor="end" x="79" y="4.199999999999999" style="font-family: 'Open Sans', verdana, arial, sans-serif; font-size: 12px; fill: rgb(42, 63, 95); fill-opacity: 1; white-space: pre; opacity: 1;" transform="translate(0,302.3)">$200k</text></g><g class="ytick"><text text-anchor="end" x="79" y="4.199999999999999" style="font-family: 'Open Sans', verdana, arial, sans-serif; font-size: 12px; fill: rgb(42, 63, 95); fill-opacity: 1; white-space: pre; opacity: 1;" transform="translate(0,243.45)">$300k</text></g><g class="ytick"><text text-anchor="end" x="79" y="4.199999999999999" style="font-family: 'Open Sans', verdana, arial, sans-serif; font-size: 12px; fill: rgb(42, 63, 95); fill-opacity: 1; white-space: pre; opacity: 1;" transform="translate(0,184.6)">$400k</text></g><g class="ytick"><text text-anchor="end" x="79" y="4.199999999999999" style="font-family: 'Open Sans', verdana, arial, sans-serif; font-size: 12px; fill: rgb(42, 63, 95); fill-opacity: 1; white-space: pre; opacity: 1;" transform="translate(0,125.76)">$500k</text></g></g><g class="overaxes-above"/></g></g><g class="polarlayer"/><g class="smithlayer"/><g class="ternarylayer"/><g class="geolayer"/><g class="funnelarealayer"/><g class="pielayer"/><g class="iciclelayer"/><g class="treemaplayer"/><g class="sunburstlayer"/><g class="glimages"/><defs id="topdefs-53f5ba"><g class="clips"/></defs><g class="layer-above"><g class="imagelayer"/><g class="shapelayer"/></g><g class="infolayer"><g class="g-gtitle"><text class="gtitle" x="35" y="50" text-anchor="start" dy="0em" style="font-family: 'Open Sans', verdana, arial, sans-serif; font-size: 17px; fill: rgb(42, 63, 95); opacity: 1; font-weight: normal; white-space: pre;"><tspan class="line" dy="0em" x="35" y="50">Beefy - BIFI/OP: Velodrome</tspan><tspan class="line" dy="1.3em" x="35" y="50">​<tspan style="font-size:70%" dy="-0.6em">Cumulative Net Flows since Program Announcement, Until Program End + 30 Days - At Last Price</tspan><tspan dy="0.42em">​</tspan></tspan></text></g><g class="g-xtitle"><text class="xtitle" x="350" y="460.8" text-anchor="middle" style="font-family: 'Open Sans', verdana, arial, sans-serif; font-size: 14px; fill: rgb(42, 63, 95); opacity: 1; font-weight: normal; white-space: pre;">Day</text></g><g class="g-ytitle"><text class="ytitle" transform="rotate(-90,21.496875000000003,260)" x="21.496875000000003" y="260" text-anchor="middle" style="font-family: 'Open Sans', verdana, arial, sans-serif; font-size: 14px; fill: rgb(42, 63, 95); opacity: 1; font-weight: normal; white-space: pre;">Cumulative Net Flows (USD)</text></g></g></svg>