<svg class="main-svg" xmlns="http://www.w3.org/2000/svg" xmlns:xlink="http://www.w3.org/1999/xlink" width="700" height="500" style="" viewBox="0 0 700 500"><rect x="0" y="0" width="700" height="500" style="fill: rgb(255, 255, 255); fill-opacity: 1;"/><defs id="defs-585acd"><g class="clips"><clipPath id="clip585acdxyplot" class="plotclip"><rect width="540" height="320"/></clipPath><clipPath class="axesclip" id="clip585acdx"><rect x="80" y="0" width="540" height="500"/></clipPath><clipPath class="axesclip" id="clip585acdy"><rect x="0" y="100" width="700" height="320"/></clipPath><clipPath class="axesclip" id="clip585acdxy"><rect x="80" y="100" width="540" height="320"/></clipPath></g><g class="gradients"/><g class="patterns"/></defs><g class="bglayer"><rect class="bg" x="80" y="100" width="540" height="320" style="fill: rgb(229, 236, 246); fill-opacity: 1; stroke-width: 0;"/></g><g class="layer-below"><g class="imagelayer"/><g class="shapelayer"/></g><g class="cartesianlayer"><g class="subplot xy"><g class="layer-subplot"><g class="shapelayer"/><g class="imagelayer"/></g><g class="minor-gridlayer"><g class="x"/><g class="y"/></g><g class="gridlayer"><g class="x"><path class="xgrid crisp" transform="translate(159.8,0)" d="M0,100v320" style="stroke: rgb(255, 255, 255); stroke-opacity: 1; stroke-width: 1px;"/><path class="xgrid crisp" transform="translate(239.61,0)" d="M0,100v320" style="stroke: rgb(255, 255, 255); stroke-opacity: 1; stroke-width: 1px;"/><path class="xgrid crisp" transform="translate(322.07,0)" d="M0,100v320" style="stroke: rgb(255, 255, 255); stroke-opacity: 1; stroke-width: 1px;"/><path class="xgrid crisp" transform="translate(401.87,0)" d="M0,100v320" style="stroke: rgb(255, 255, 255); stroke-opacity: 1; stroke-width: 1px;"/><path class="xgrid crisp" transform="translate(484.33,0)" d="M0,100v320" style="stroke: rgb(255, 255, 255); stroke-opacity: 1; stroke-width: 1px;"/><path class="xgrid crisp" transform="translate(566.8,0)" d="M0,100v320" style="stroke: rgb(255, 255, 255); stroke-opacity: 1; stroke-width: 1px;"/></g><g class="y"><path class="ygrid crisp" transform="translate(0,382.81)" d="M80,0h540" style="stroke: rgb(255, 255, 255); stroke-opacity: 1; stroke-width: 1px;"/><path class="ygrid crisp" transform="translate(0,255.2)" d="M80,0h540" style="stroke: rgb(255, 255, 255); stroke-opacity: 1; stroke-width: 1px;"/><path class="ygrid crisp" transform="translate(0,191.4)" d="M80,0h540" style="stroke: rgb(255, 255, 255); stroke-opacity: 1; stroke-width: 1px;"/><path class="ygrid crisp" transform="translate(0,127.59)" d="M80,0h540" style="stroke: rgb(255, 255, 255); stroke-opacity: 1; stroke-width: 1px;"/></g></g><g class="zerolinelayer"><path class="yzl zl crisp" transform="translate(0,319)" d="M80,0h540" style="stroke: rgb(255, 255, 255); stroke-opacity: 1; stroke-width: 2px;"/></g><path class="xlines-below"/><path class="ylines-below"/><g class="overlines-below"/><g class="xaxislayer-below"/><g class="yaxislayer-below"/><g class="overaxes-below"/><g class="plot" transform="translate(80,100)" clip-path="url(#clip585acdxyplot)"><g class="scatterlayer mlayer"><g class="trace scatter tracea5c15e" style="stroke-miterlimit: 2;"><g class="fills"><g><path class="js-fill" d="M540,219L0,219L0,218.75L2.66,195.45L5.32,139.91L7.98,116.24L10.64,110.48L13.3,101.45L15.96,86.67L18.62,79.05L21.28,42.66L26.6,39.23L29.26,28.09L31.92,24.1L34.58,23L37.24,17.43L39.9,32.65L42.56,16L45.22,16.37L47.88,16.89L50.54,25.11L55.86,29.15L58.52,30.32L61.18,36.29L63.84,37.18L66.5,32.99L69.16,32.67L71.82,33.72L74.48,36.71L77.14,37.38L79.8,35.62L82.46,35.79L85.12,44.93L90.44,44.86L93.1,46.2L95.76,47.53L98.42,51.57L101.08,52.21L103.74,59.87L106.4,65.72L109.06,69.28L111.72,74.29L114.38,81.25L117.04,84.5L119.7,78.37L122.36,48.83L125.02,47.78L127.68,39.51L130.34,41.76L133,40.35L135.67,40.05L138.33,46.64L140.99,32.29L143.65,30.13L146.31,24.35L148.97,23.64L151.63,25.06L154.29,28.08L156.95,27.31L162.27,23.25L164.93,23.36L167.59,23L170.25,26.95L175.57,30.76L178.23,28L180.89,26.58L183.55,32.65L186.21,36.25L188.87,35.17L191.53,34.36L194.19,36.29L196.85,35.42L199.51,32.4L202.17,53.51L204.83,58.89L210.15,60.81L212.81,61.45L215.47,85.19L218.13,83.48L223.45,91.72L226.11,109.53L228.77,126.5L231.43,121.81L234.09,104.51L236.75,105.1L239.41,108.61L242.07,107.95L247.39,110.91L250.05,106.26L252.71,108.11L255.37,105.22L258.03,105.07L260.69,101.73L263.35,103.37L266.01,109.7L268.67,109.58L271.33,102.93L273.99,106.3L276.65,105.46L279.31,124.14L281.97,125.24L287.29,125.03L289.95,118.08L297.93,110.17L300.59,108.83L303.25,116.96L305.91,121.03L308.57,121.23L311.23,122.86L313.89,123.3L316.55,118.82L321.87,130.32L324.53,129.85L327.19,123.18L329.85,121.84L332.51,124.28L335.17,121.94L337.83,121.42L340.49,119.76L343.15,121.69L345.81,128.13L348.47,127.64L351.13,128.33L353.79,129.54L356.45,132.58L361.77,126.82L364.43,127.92L367.09,126.02L369.75,125.82L372.41,124.08L375.07,132.93L377.73,135.09L380.39,135.78L385.71,136.88L388.37,136.03L391.03,134.82L393.69,136.56L399.01,136.2L401.67,142.32L404.33,142.49L407,140.67L412.32,141.85L414.98,144.71L417.64,145.56L420.3,143.64L428.28,147.09L430.94,149.49L433.6,150.46L436.26,133.21L438.92,133.3L441.58,135.09L444.24,133.34L446.9,132.72L454.88,126.14L457.54,130.17L460.2,127.89L462.86,127.26L465.52,121.63L468.18,119.87L470.84,122.02L473.5,113.73L476.16,118.44L478.82,114.86L481.48,117.78L484.14,114.42L486.8,116.46L489.46,114.45L492.12,113.88L494.78,114.8L497.44,120.69L500.1,122.11L505.42,121.33L508.08,118.93L510.74,117.66L513.4,121L516.06,118.84L518.72,119.81L521.38,123.08L524.04,123.37L526.7,125.08L529.36,129.26L534.68,128.29L537.34,129.72L540,129.55L540,304" style="fill: rgb(99, 110, 250); fill-opacity: 0.5; stroke-width: 0;"/></g></g><g class="errorbars"/><g class="lines"><path class="js-line" d="M0,218.75L2.66,195.45L5.32,139.91L7.98,116.24L10.64,110.48L13.3,101.45L15.96,86.67L18.62,79.05L21.28,42.66L26.6,39.23L29.26,28.09L31.92,24.1L34.58,23L37.24,17.43L39.9,32.65L42.56,16L45.22,16.37L47.88,16.89L50.54,25.11L55.86,29.15L58.52,30.32L61.18,36.29L63.84,37.18L66.5,32.99L69.16,32.67L71.82,33.72L74.48,36.71L77.14,37.38L79.8,35.62L82.46,35.79L85.12,44.93L90.44,44.86L93.1,46.2L95.76,47.53L98.42,51.57L101.08,52.21L103.74,59.87L106.4,65.72L109.06,69.28L111.72,74.29L114.38,81.25L117.04,84.5L119.7,78.37L122.36,48.83L125.02,47.78L127.68,39.51L130.34,41.76L133,40.35L135.67,40.05L138.33,46.64L140.99,32.29L143.65,30.13L146.31,24.35L148.97,23.64L151.63,25.06L154.29,28.08L156.95,27.31L162.27,23.25L164.93,23.36L167.59,23L170.25,26.95L175.57,30.76L178.23,28L180.89,26.58L183.55,32.65L186.21,36.25L188.87,35.17L191.53,34.36L194.19,36.29L196.85,35.42L199.51,32.4L202.17,53.51L204.83,58.89L210.15,60.81L212.81,61.45L215.47,85.19L218.13,83.48L223.45,91.72L226.11,109.53L228.77,126.5L231.43,121.81L234.09,104.51L236.75,105.1L239.41,108.61L242.07,107.95L247.39,110.91L250.05,106.26L252.71,108.11L255.37,105.22L258.03,105.07L260.69,101.73L263.35,103.37L266.01,109.7L268.67,109.58L271.33,102.93L273.99,106.3L276.65,105.46L279.31,124.14L281.97,125.24L287.29,125.03L289.95,118.08L297.93,110.17L300.59,108.83L303.25,116.96L305.91,121.03L308.57,121.23L311.23,122.86L313.89,123.3L316.55,118.82L321.87,130.32L324.53,129.85L327.19,123.18L329.85,121.84L332.51,124.28L335.17,121.94L337.83,121.42L340.49,119.76L343.15,121.69L345.81,128.13L348.47,127.64L351.13,128.33L353.79,129.54L356.45,132.58L361.77,126.82L364.43,127.92L367.09,126.02L369.75,125.82L372.41,124.08L375.07,132.93L377.73,135.09L380.39,135.78L385.71,136.88L388.37,136.03L391.03,134.82L393.69,136.56L399.01,136.2L401.67,142.32L404.33,142.49L407,140.67L412.32,141.85L414.98,144.71L417.64,145.56L420.3,143.64L428.28,147.09L430.94,149.49L433.6,150.46L436.26,133.21L438.92,133.3L441.58,135.09L444.24,133.34L446.9,132.72L454.88,126.14L457.54,130.17L460.2,127.89L462.86,127.26L465.52,121.63L468.18,119.87L470.84,122.02L473.5,113.73L476.16,118.44L478.82,114.86L481.48,117.78L484.14,114.42L486.8,116.46L489.46,114.45L492.12,113.88L494.78,114.8L497.44,120.69L500.1,122.11L505.42,121.33L508.08,118.93L510.74,117.66L513.4,121L516.06,118.84L518.72,119.81L521.38,123.08L524.04,123.37L526.7,125.08L529.36,129.26L534.68,128.29L537.34,129.72L540,129.55L540,304" style="vector-effect: non-scaling-stroke; fill: none; stroke: rgb(99, 110, 250); stroke-opacity: 1; stroke-width: 2px; opacity: 1;"/></g><g class="points"/><g class="text"/></g></g></g><g class="overplot"/><path class="xlines-above crisp" d="M0,0" style="fill: none;"/><path class="ylines-above crisp" d="M0,0" style="fill: none;"/><g class="overlines-above"/><g class="xaxislayer-above"><g class="xtick"><text text-anchor="middle" x="0" y="433" transform="translate(159.8,0)" style="font-family: 'Open Sans', verdana, arial, sans-serif; font-size: 12px; fill: rgb(42, 63, 95); fill-opacity: 1; white-space: pre; opacity: 1;">Sep 2022</text></g><g class="xtick"><text text-anchor="middle" x="0" y="433" style="font-family: 'Open Sans', verdana, arial, sans-serif; font-size: 12px; fill: rgb(42, 63, 95); fill-opacity: 1; white-space: pre; opacity: 1;" transform="translate(239.61,0)">Oct 2022</text></g><g class="xtick"><text text-anchor="middle" x="0" y="433" style="font-family: 'Open Sans', verdana, arial, sans-serif; font-size: 12px; fill: rgb(42, 63, 95); fill-opacity: 1; white-space: pre; opacity: 1;" transform="translate(322.07,0)">Nov 2022</text></g><g class="xtick"><text text-anchor="middle" x="0" y="433" style="font-family: 'Open Sans', verdana, arial, sans-serif; font-size: 12px; fill: rgb(42, 63, 95); fill-opacity: 1; white-space: pre; opacity: 1;" transform="translate(401.87,0)">Dec 2022</text></g><g class="xtick"><text text-anchor="middle" x="0" y="433" style="font-family: 'Open Sans', verdana, arial, sans-serif; font-size: 12px; fill: rgb(42, 63, 95); fill-opacity: 1; white-space: pre; opacity: 1;" transform="translate(484.33,0)">Jan 2023</text></g><g class="xtick"><text text-anchor="middle" x="0" y="433" style="font-family: 'Open Sans', verdana, arial, sans-serif; font-size: 12px; fill: rgb(42, 63, 95); fill-opacity: 1; white-space: pre; opacity: 1;" transform="translate(566.8,0)">Feb 2023</text></g></g><g class="yaxislayer-above"><g class="ytick"><text text-anchor="end" x="79" y="4.199999999999999" transform="translate(0,382.81)" style="font-family: 'Open Sans', verdana, arial, sans-serif; font-size: 12px; fill: rgb(42, 63, 95); fill-opacity: 1; white-space: pre; opacity: 1;">$−5M</text></g><g class="ytick"><text text-anchor="end" x="79" y="4.199999999999999" style="font-family: 'Open Sans', verdana, arial, sans-serif; font-size: 12px; fill: rgb(42, 63, 95); fill-opacity: 1; white-space: pre; opacity: 1;" transform="translate(0,319)">$0</text></g><g class="ytick"><text text-anchor="end" x="79" y="4.199999999999999" style="font-family: 'Open Sans', verdana, arial, sans-serif; font-size: 12px; fill: rgb(42, 63, 95); fill-opacity: 1; white-space: pre; opacity: 1;" transform="translate(0,255.2)">$5M</text></g><g class="ytick"><text text-anchor="end" x="79" y="4.199999999999999" style="font-family: 'Open Sans', verdana, arial, sans-serif; font-size: 12px; fill: rgb(42, 63, 95); fill-opacity: 1; white-space: pre; opacity: 1;" transform="translate(0,191.4)">$10M</text></g><g class="ytick"><text text-anchor="end" x="79" y="4.199999999999999" style="font-family: 'Open Sans', verdana, arial, sans-serif; font-size: 12px; fill: rgb(42, 63, 95); fill-opacity: 1; white-space: pre; opacity: 1;" transform="translate(0,127.59)">$15M</text></g></g><g class="overaxes-above"/></g></g><g class="polarlayer"/><g class="smithlayer"/><g class="ternarylayer"/><g class="geolayer"/><g class="funnelarealayer"/><g class="pielayer"/><g class="iciclelayer"/><g class="treemaplayer"/><g class="sunburstlayer"/><g class="glimages"/><defs id="topdefs-585acd"><g class="clips"/></defs><g class="layer-above"><g class="imagelayer"/><g class="shapelayer"/></g><g class="infolayer"><g class="g-gtitle"><text class="gtitle" x="35" y="50" text-anchor="start" dy="0em" style="font-family: 'Open Sans', verdana, arial, sans-serif; font-size: 17px; fill: rgb(42, 63, 95); opacity: 1; font-weight: normal; white-space: pre;"><tspan class="line" dy="0em" x="35" y="50">Lyra</tspan><tspan class="line" dy="1.3em" x="35" y="50">​<tspan style="font-size:70%" dy="-0.6em">Cumulative Net Flows since Program Announcement, Until Program End + 30 Days - At Last Price</tspan><tspan dy="0.42em">​</tspan></tspan></text></g><g class="g-xtitle"><text class="xtitle" x="350" y="460.8" text-anchor="middle" style="font-family: 'Open Sans', verdana, arial, sans-serif; font-size: 14px; fill: rgb(42, 63, 95); opacity: 1; font-weight: normal; white-space: pre;">Day</text></g><g class="g-ytitle"><text class="ytitle" transform="rotate(-90,23.840625000000003,260)" x="23.840625000000003" y="260" text-anchor="middle" style="font-family: 'Open Sans', verdana, arial, sans-serif; font-size: 14px; fill: rgb(42, 63, 95); opacity: 1; font-weight: normal; white-space: pre;">Cumulative Net Flows (USD)</text></g></g></svg>