<svg class="main-svg" xmlns="http://www.w3.org/2000/svg" xmlns:xlink="http://www.w3.org/1999/xlink" width="700" height="500" style="" viewBox="0 0 700 500"><rect x="0" y="0" width="700" height="500" style="fill: rgb(255, 255, 255); fill-opacity: 1;"/><defs id="defs-58a07b"><g class="clips"><clipPath id="clip58a07bxyplot" class="plotclip"><rect width="540" height="320"/></clipPath><clipPath class="axesclip" id="clip58a07bx"><rect x="80" y="0" width="540" height="500"/></clipPath><clipPath class="axesclip" id="clip58a07by"><rect x="0" y="100" width="700" height="320"/></clipPath><clipPath class="axesclip" id="clip58a07bxy"><rect x="80" y="100" width="540" height="320"/></clipPath></g><g class="gradients"/><g class="patterns"/></defs><g class="bglayer"><rect class="bg" x="80" y="100" width="540" height="320" style="fill: rgb(229, 236, 246); fill-opacity: 1; stroke-width: 0;"/></g><g class="layer-below"><g class="imagelayer"/><g class="shapelayer"/></g><g class="cartesianlayer"><g class="subplot xy"><g class="layer-subplot"><g class="shapelayer"/><g class="imagelayer"/></g><g class="minor-gridlayer"><g class="x"/><g class="y"/></g><g class="gridlayer"><g class="x"><path class="xgrid crisp" transform="translate(125.67,0)" d="M0,100v320" style="stroke: rgb(255, 255, 255); stroke-opacity: 1; stroke-width: 1px;"/><path class="xgrid crisp" transform="translate(208.96,0)" d="M0,100v320" style="stroke: rgb(255, 255, 255); stroke-opacity: 1; stroke-width: 1px;"/><path class="xgrid crisp" transform="translate(289.55,0)" d="M0,100v320" style="stroke: rgb(255, 255, 255); stroke-opacity: 1; stroke-width: 1px;"/><path class="xgrid crisp" transform="translate(372.84,0)" d="M0,100v320" style="stroke: rgb(255, 255, 255); stroke-opacity: 1; stroke-width: 1px;"/><path class="xgrid crisp" transform="translate(453.43,0)" d="M0,100v320" style="stroke: rgb(255, 255, 255); stroke-opacity: 1; stroke-width: 1px;"/><path class="xgrid crisp" transform="translate(536.72,0)" d="M0,100v320" style="stroke: rgb(255, 255, 255); stroke-opacity: 1; stroke-width: 1px;"/></g><g class="y"><path class="ygrid crisp" transform="translate(0,357.68)" d="M80,0h540" style="stroke: rgb(255, 255, 255); stroke-opacity: 1; stroke-width: 1px;"/><path class="ygrid crisp" transform="translate(0,295.36)" d="M80,0h540" style="stroke: rgb(255, 255, 255); stroke-opacity: 1; stroke-width: 1px;"/><path class="ygrid crisp" transform="translate(0,233.04)" d="M80,0h540" style="stroke: rgb(255, 255, 255); stroke-opacity: 1; stroke-width: 1px;"/><path class="ygrid crisp" transform="translate(0,170.72)" d="M80,0h540" style="stroke: rgb(255, 255, 255); stroke-opacity: 1; stroke-width: 1px;"/><path class="ygrid crisp" transform="translate(0,108.4)" d="M80,0h540" style="stroke: rgb(255, 255, 255); stroke-opacity: 1; stroke-width: 1px;"/></g></g><g class="zerolinelayer"><path class="yzl zl crisp" transform="translate(0,420)" d="M80,0h540" style="stroke: rgb(255, 255, 255); stroke-opacity: 1; stroke-width: 2px;"/></g><path class="xlines-below"/><path class="ylines-below"/><g class="overlines-below"/><g class="xaxislayer-below"/><g class="yaxislayer-below"/><g class="overaxes-below"/><g class="plot" transform="translate(80,100)" clip-path="url(#clip58a07bxyplot)"><g class="scatterlayer mlayer"><g class="trace scatter traced2a71e" style="stroke-miterlimit: 2;"><g class="fills"><g><path class="js-fill" d="M540,320L0,320L0,319.92L5.37,315.36L8.06,314.22L10.75,312.12L13.43,311.58L16.12,310.53L18.81,297.92L21.49,294.51L24.18,294.11L26.87,288.42L29.55,287.54L32.24,284.78L34.93,284.72L40.3,275.54L42.99,273.36L45.67,269.34L48.36,254.19L51.04,253.3L53.73,255.35L56.42,251.32L59.1,173.42L61.79,162.44L64.48,135.02L67.16,124.27L69.85,137.09L72.54,141.16L75.22,142.08L77.91,144.28L80.6,145.02L83.28,146.23L85.97,148.88L88.66,151.72L91.34,168.54L96.72,182.78L99.4,180.12L102.09,180L104.78,205.78L107.46,202.86L110.15,204.42L115.52,205.16L118.21,204.7L120.9,205.31L123.58,204.26L126.27,204.11L128.96,203.18L131.64,200.81L134.33,200.33L137.01,198.31L139.7,197.47L142.39,198.79L145.07,201.1L147.76,198.47L150.45,177.15L153.13,168.93L155.82,168.11L158.51,168.55L161.19,163.51L163.88,205.67L166.57,208.89L171.94,204.51L174.63,201.01L177.31,195.71L180,187.17L182.69,197.26L185.37,194.67L188.06,189.9L190.75,179.43L193.43,151.87L196.12,151.38L198.81,150.97L201.49,142.08L204.18,147.92L206.87,144.21L209.55,137.72L212.24,135.96L214.93,136.34L217.61,147.91L220.3,143.02L222.99,143.5L225.67,144.22L228.36,144.08L231.04,142.55L233.73,134.58L236.42,131.43L239.1,133.22L241.79,135.89L244.48,141.58L247.16,112.48L249.85,117.11L252.54,133.49L255.22,133.66L257.91,133.5L260.6,137.15L265.97,136.89L268.66,137.37L271.34,136.87L274.03,138.13L279.4,139.25L282.09,147.46L284.78,147.7L287.46,151.68L290.15,150.42L292.84,143.95L295.52,144.17L298.21,129.54L300.9,129.05L303.58,126.68L311.64,125.09L314.33,137.06L317.01,157.94L319.7,158.93L322.39,159.6L325.07,158.55L327.76,158.79L330.45,157.6L338.51,155.24L341.19,155.37L349.25,150.84L351.94,150.03L354.63,131.3L357.31,128.24L362.69,139.54L365.37,121.08L368.06,120.84L370.75,123.05L373.43,121.49L376.12,122.72L378.81,140.42L381.49,141.31L386.87,143.36L389.55,141.88L392.24,142.88L394.93,141.44L397.61,140.74L400.3,132.04L402.99,126.43L405.67,123.47L408.36,122.78L411.04,121.17L413.73,119.97L416.42,135.4L419.1,134.46L421.79,121.99L424.48,121.08L427.16,121.14L432.54,119.46L435.22,107.97L437.91,108.1L440.6,106.19L445.97,105.22L448.66,112.89L454.03,111.39L456.72,107.28L462.09,109.96L464.78,115.78L470.15,113.99L472.84,116.34L478.21,113.94L480.9,110.57L483.58,108.95L486.27,105.47L491.64,105.99L494.33,99.49L497.01,97.86L499.7,92.72L502.39,84.94L505.07,86.71L507.76,85.9L510.45,79.36L513.13,79.14L515.82,70.61L518.51,68.63L521.19,52.93L526.57,43.44L529.25,35.48L531.94,34.01L534.63,24.71L537.31,21.4L540,16" style="fill: rgb(99, 110, 250); fill-opacity: 0.5; stroke-width: 0;"/></g></g><g class="errorbars"/><g class="lines"><path class="js-line" d="M0,319.92L5.37,315.36L8.06,314.22L10.75,312.12L13.43,311.58L16.12,310.53L18.81,297.92L21.49,294.51L24.18,294.11L26.87,288.42L29.55,287.54L32.24,284.78L34.93,284.72L40.3,275.54L42.99,273.36L45.67,269.34L48.36,254.19L51.04,253.3L53.73,255.35L56.42,251.32L59.1,173.42L61.79,162.44L64.48,135.02L67.16,124.27L69.85,137.09L72.54,141.16L75.22,142.08L77.91,144.28L80.6,145.02L83.28,146.23L85.97,148.88L88.66,151.72L91.34,168.54L96.72,182.78L99.4,180.12L102.09,180L104.78,205.78L107.46,202.86L110.15,204.42L115.52,205.16L118.21,204.7L120.9,205.31L123.58,204.26L126.27,204.11L128.96,203.18L131.64,200.81L134.33,200.33L137.01,198.31L139.7,197.47L142.39,198.79L145.07,201.1L147.76,198.47L150.45,177.15L153.13,168.93L155.82,168.11L158.51,168.55L161.19,163.51L163.88,205.67L166.57,208.89L171.94,204.51L174.63,201.01L177.31,195.71L180,187.17L182.69,197.26L185.37,194.67L188.06,189.9L190.75,179.43L193.43,151.87L196.12,151.38L198.81,150.97L201.49,142.08L204.18,147.92L206.87,144.21L209.55,137.72L212.24,135.96L214.93,136.34L217.61,147.91L220.3,143.02L222.99,143.5L225.67,144.22L228.36,144.08L231.04,142.55L233.73,134.58L236.42,131.43L239.1,133.22L241.79,135.89L244.48,141.58L247.16,112.48L249.85,117.11L252.54,133.49L255.22,133.66L257.91,133.5L260.6,137.15L265.97,136.89L268.66,137.37L271.34,136.87L274.03,138.13L279.4,139.25L282.09,147.46L284.78,147.7L287.46,151.68L290.15,150.42L292.84,143.95L295.52,144.17L298.21,129.54L300.9,129.05L303.58,126.68L311.64,125.09L314.33,137.06L317.01,157.94L319.7,158.93L322.39,159.6L325.07,158.55L327.76,158.79L330.45,157.6L338.51,155.24L341.19,155.37L349.25,150.84L351.94,150.03L354.63,131.3L357.31,128.24L362.69,139.54L365.37,121.08L368.06,120.84L370.75,123.05L373.43,121.49L376.12,122.72L378.81,140.42L381.49,141.31L386.87,143.36L389.55,141.88L392.24,142.88L394.93,141.44L397.61,140.74L400.3,132.04L402.99,126.43L405.67,123.47L408.36,122.78L411.04,121.17L413.73,119.97L416.42,135.4L419.1,134.46L421.79,121.99L424.48,121.08L427.16,121.14L432.54,119.46L435.22,107.97L437.91,108.1L440.6,106.19L445.97,105.22L448.66,112.89L454.03,111.39L456.72,107.28L462.09,109.96L464.78,115.78L470.15,113.99L472.84,116.34L478.21,113.94L480.9,110.57L483.58,108.95L486.27,105.47L491.64,105.99L494.33,99.49L497.01,97.86L499.7,92.72L502.39,84.94L505.07,86.71L507.76,85.9L510.45,79.36L513.13,79.14L515.82,70.61L518.51,68.63L521.19,52.93L526.57,43.44L529.25,35.48L531.94,34.01L534.63,24.71L537.31,21.4L540,16" style="vector-effect: non-scaling-stroke; fill: none; stroke: rgb(99, 110, 250); stroke-opacity: 1; stroke-width: 2px; opacity: 1;"/></g><g class="points"/><g class="text"/></g></g></g><g class="overplot"/><path class="xlines-above crisp" d="M0,0" style="fill: none;"/><path class="ylines-above crisp" d="M0,0" style="fill: none;"/><g class="overlines-above"/><g class="xaxislayer-above"><g class="xtick"><text text-anchor="middle" x="0" y="433" transform="translate(125.67,0)" style="font-family: 'Open Sans', verdana, arial, sans-serif; font-size: 12px; fill: rgb(42, 63, 95); fill-opacity: 1; white-space: pre; opacity: 1;">Aug 2022</text></g><g class="xtick"><text text-anchor="middle" x="0" y="433" style="font-family: 'Open Sans', verdana, arial, sans-serif; font-size: 12px; fill: rgb(42, 63, 95); fill-opacity: 1; white-space: pre; opacity: 1;" transform="translate(208.96,0)">Sep 2022</text></g><g class="xtick"><text text-anchor="middle" x="0" y="433" style="font-family: 'Open Sans', verdana, arial, sans-serif; font-size: 12px; fill: rgb(42, 63, 95); fill-opacity: 1; white-space: pre; opacity: 1;" transform="translate(289.55,0)">Oct 2022</text></g><g class="xtick"><text text-anchor="middle" x="0" y="433" style="font-family: 'Open Sans', verdana, arial, sans-serif; font-size: 12px; fill: rgb(42, 63, 95); fill-opacity: 1; white-space: pre; opacity: 1;" transform="translate(372.84,0)">Nov 2022</text></g><g class="xtick"><text text-anchor="middle" x="0" y="433" style="font-family: 'Open Sans', verdana, arial, sans-serif; font-size: 12px; fill: rgb(42, 63, 95); fill-opacity: 1; white-space: pre; opacity: 1;" transform="translate(453.43,0)">Dec 2022</text></g><g class="xtick"><text text-anchor="middle" x="0" y="433" style="font-family: 'Open Sans', verdana, arial, sans-serif; font-size: 12px; fill: rgb(42, 63, 95); fill-opacity: 1; white-space: pre; opacity: 1;" transform="translate(536.72,0)">Jan 2023</text></g><g class="xtick"><text text-anchor="middle" x="0" y="433" style="font-family: 'Open Sans', verdana, arial, sans-serif; font-size: 12px; fill: rgb(42, 63, 95); fill-opacity: 1; white-space: pre; opacity: 1;" transform="translate(620,0)">Feb 2023</text></g></g><g class="yaxislayer-above"><g class="ytick"><text text-anchor="end" x="79" y="4.199999999999999" transform="translate(0,420)" style="font-family: 'Open Sans', verdana, arial, sans-serif; font-size: 12px; fill: rgb(42, 63, 95); fill-opacity: 1; white-space: pre; opacity: 1;">$0</text></g><g class="ytick"><text text-anchor="end" x="79" y="4.199999999999999" style="font-family: 'Open Sans', verdana, arial, sans-serif; font-size: 12px; fill: rgb(42, 63, 95); fill-opacity: 1; white-space: pre; opacity: 1;" transform="translate(0,357.68)">$2M</text></g><g class="ytick"><text text-anchor="end" x="79" y="4.199999999999999" style="font-family: 'Open Sans', verdana, arial, sans-serif; font-size: 12px; fill: rgb(42, 63, 95); fill-opacity: 1; white-space: pre; opacity: 1;" transform="translate(0,295.36)">$4M</text></g><g class="ytick"><text text-anchor="end" x="79" y="4.199999999999999" style="font-family: 'Open Sans', verdana, arial, sans-serif; font-size: 12px; fill: rgb(42, 63, 95); fill-opacity: 1; white-space: pre; opacity: 1;" transform="translate(0,233.04)">$6M</text></g><g class="ytick"><text text-anchor="end" x="79" y="4.199999999999999" style="font-family: 'Open Sans', verdana, arial, sans-serif; font-size: 12px; fill: rgb(42, 63, 95); fill-opacity: 1; white-space: pre; opacity: 1;" transform="translate(0,170.72)">$8M</text></g><g class="ytick"><text text-anchor="end" x="79" y="4.199999999999999" style="font-family: 'Open Sans', verdana, arial, sans-serif; font-size: 12px; fill: rgb(42, 63, 95); fill-opacity: 1; white-space: pre; opacity: 1;" transform="translate(0,108.4)">$10M</text></g></g><g class="overaxes-above"/></g></g><g class="polarlayer"/><g class="smithlayer"/><g class="ternarylayer"/><g class="geolayer"/><g class="funnelarealayer"/><g class="pielayer"/><g class="iciclelayer"/><g class="treemaplayer"/><g class="sunburstlayer"/><g class="glimages"/><defs id="topdefs-58a07b"><g class="clips"/></defs><g class="layer-above"><g class="imagelayer"/><g class="shapelayer"/></g><g class="infolayer"><g class="g-gtitle"><text class="gtitle" x="35" y="50" text-anchor="start" dy="0em" style="font-family: 'Open Sans', verdana, arial, sans-serif; font-size: 17px; fill: rgb(42, 63, 95); opacity: 1; font-weight: normal; white-space: pre;"><tspan class="line" dy="0em" x="35" y="50">Rubicon</tspan><tspan class="line" dy="1.3em" x="35" y="50">​<tspan style="font-size:70%" dy="-0.6em">Cumulative Net Dollar Flow since Program Announcement, Until Program End + 30 Days - At Last Price</tspan><tspan dy="0.42em">​</tspan></tspan></text></g><g class="g-xtitle"><text class="xtitle" x="350" y="460.8" text-anchor="middle" style="font-family: 'Open Sans', verdana, arial, sans-serif; font-size: 14px; fill: rgb(42, 63, 95); opacity: 1; font-weight: normal; white-space: pre;">Day</text></g><g class="g-ytitle"><text class="ytitle" transform="rotate(-90,24.168750000000003,260)" x="24.168750000000003" y="260" text-anchor="middle" style="font-family: 'Open Sans', verdana, arial, sans-serif; font-size: 14px; fill: rgb(42, 63, 95); opacity: 1; font-weight: normal; white-space: pre;">Cumulative Net Dollar Flow (N$F)</text></g></g></svg>