<svg class="main-svg" xmlns="http://www.w3.org/2000/svg" xmlns:xlink="http://www.w3.org/1999/xlink" width="700" height="500" style="" viewBox="0 0 700 500"><rect x="0" y="0" width="700" height="500" style="fill: rgb(255, 255, 255); fill-opacity: 1;"/><defs id="defs-a89932"><g class="clips"><clipPath id="clipa89932xyplot" class="plotclip"><rect width="540" height="320"/></clipPath><clipPath class="axesclip" id="clipa89932x"><rect x="80" y="0" width="540" height="500"/></clipPath><clipPath class="axesclip" id="clipa89932y"><rect x="0" y="100" width="700" height="320"/></clipPath><clipPath class="axesclip" id="clipa89932xy"><rect x="80" y="100" width="540" height="320"/></clipPath></g><g class="gradients"/><g class="patterns"/></defs><g class="bglayer"><rect class="bg" x="80" y="100" width="540" height="320" style="fill: rgb(229, 236, 246); fill-opacity: 1; stroke-width: 0;"/></g><g class="layer-below"><g class="imagelayer"/><g class="shapelayer"/></g><g class="cartesianlayer"><g class="subplot xy"><g class="layer-subplot"><g class="shapelayer"/><g class="imagelayer"/></g><g class="minor-gridlayer"><g class="x"/><g class="y"/></g><g class="gridlayer"><g class="x"><path class="xgrid crisp" transform="translate(194.89,0)" d="M0,100v320" style="stroke: rgb(255, 255, 255); stroke-opacity: 1; stroke-width: 1px;"/><path class="xgrid crisp" transform="translate(309.78999999999996,0)" d="M0,100v320" style="stroke: rgb(255, 255, 255); stroke-opacity: 1; stroke-width: 1px;"/><path class="xgrid crisp" transform="translate(428.51,0)" d="M0,100v320" style="stroke: rgb(255, 255, 255); stroke-opacity: 1; stroke-width: 1px;"/><path class="xgrid crisp" transform="translate(543.4,0)" d="M0,100v320" style="stroke: rgb(255, 255, 255); stroke-opacity: 1; stroke-width: 1px;"/></g><g class="y"><path class="ygrid crisp" transform="translate(0,389.89)" d="M80,0h540" style="stroke: rgb(255, 255, 255); stroke-opacity: 1; stroke-width: 1px;"/><path class="ygrid crisp" transform="translate(0,258.89)" d="M80,0h540" style="stroke: rgb(255, 255, 255); stroke-opacity: 1; stroke-width: 1px;"/><path class="ygrid crisp" transform="translate(0,193.4)" d="M80,0h540" style="stroke: rgb(255, 255, 255); stroke-opacity: 1; stroke-width: 1px;"/><path class="ygrid crisp" transform="translate(0,127.9)" d="M80,0h540" style="stroke: rgb(255, 255, 255); stroke-opacity: 1; stroke-width: 1px;"/></g></g><g class="zerolinelayer"><path class="yzl zl crisp" transform="translate(0,324.39)" d="M80,0h540" style="stroke: rgb(255, 255, 255); stroke-opacity: 1; stroke-width: 2px;"/></g><path class="xlines-below"/><path class="ylines-below"/><g class="overlines-below"/><g class="xaxislayer-below"/><g class="yaxislayer-below"/><g class="overaxes-below"/><g class="plot" transform="translate(80,100)" clip-path="url(#clipa89932xyplot)"><g class="scatterlayer mlayer"><g class="trace scatter trace6697e1" style="stroke-miterlimit: 2;"><g class="fills"><g><path class="js-fill" d="M540,224.39L0,224.39L0,224.13L3.83,200.22L7.66,143.2L11.49,118.9L15.32,112.99L19.15,103.72L22.98,88.55L26.81,80.73L30.64,43.36L34.47,41.13L38.3,39.85L42.13,28.41L45.96,24.31L49.79,23.18L53.62,17.47L57.45,33.09L61.28,16L68.94,16.91L72.77,25.35L80.43,29.5L84.26,30.7L88.09,36.83L91.91,37.75L95.74,33.44L99.57,33.12L103.4,34.19L107.23,37.26L111.06,37.95L114.89,36.14L118.72,36.32L122.55,45.7L130.21,45.63L134.04,47L137.87,48.37L141.7,52.51L145.53,53.17L149.36,61.04L153.19,67.04L157.02,70.69L160.85,75.83L164.68,82.99L168.51,86.32L172.34,80.02L176.17,49.7L180,48.62L183.83,40.13L187.66,42.44L191.49,41L195.32,40.68L199.15,47.45L202.98,32.72L206.81,30.51L210.64,24.57L214.47,23.84L218.3,25.3L222.13,28.4L225.96,27.62L233.62,23.45L237.45,23.56L241.28,23.19L245.11,27.24L252.77,31.15L256.6,28.31L260.43,26.86L264.26,33.1L268.09,36.79L271.91,35.68L275.74,34.85L279.57,36.83L283.4,35.93L287.23,32.83L291.06,54.51L294.89,60.03L302.55,62L306.38,62.65L310.21,87.03L314.04,85.27L321.7,93.73L325.53,112.02L329.36,129.44L333.19,124.62L337.02,106.86L340.85,107.47L344.68,111.07L348.51,110.39L356.17,113.43L360,108.65L363.83,110.56L367.66,107.59L371.49,107.43L375.32,104L379.15,105.69L382.98,112.19L386.81,112.07L390.64,105.24L394.47,108.7L398.3,107.84L402.13,127.01L405.96,128.14L413.62,127.92L417.45,120.79L428.94,112.67L432.77,111.3L436.6,119.64L440.43,123.82L444.26,124.02L448.09,125.7L451.91,126.15L455.74,121.55L463.4,133.35L467.23,132.87L471.06,126.03L474.89,124.65L478.72,127.15L482.55,124.75L486.38,124.22L490.21,122.52L494.04,124.5L497.87,131.11L501.7,130.61L505.53,131.31L509.36,132.56L513.19,135.68L520.85,129.76L524.68,130.89L528.51,128.95L532.34,128.74L536.17,126.95L540,136.03L540,304" style="fill: rgb(99, 110, 250); fill-opacity: 0.5; stroke-width: 0;"/></g></g><g class="errorbars"/><g class="lines"><path class="js-line" d="M0,224.13L3.83,200.22L7.66,143.2L11.49,118.9L15.32,112.99L19.15,103.72L22.98,88.55L26.81,80.73L30.64,43.36L34.47,41.13L38.3,39.85L42.13,28.41L45.96,24.31L49.79,23.18L53.62,17.47L57.45,33.09L61.28,16L68.94,16.91L72.77,25.35L80.43,29.5L84.26,30.7L88.09,36.83L91.91,37.75L95.74,33.44L99.57,33.12L103.4,34.19L107.23,37.26L111.06,37.95L114.89,36.14L118.72,36.32L122.55,45.7L130.21,45.63L134.04,47L137.87,48.37L141.7,52.51L145.53,53.17L149.36,61.04L153.19,67.04L157.02,70.69L160.85,75.83L164.68,82.99L168.51,86.32L172.34,80.02L176.17,49.7L180,48.62L183.83,40.13L187.66,42.44L191.49,41L195.32,40.68L199.15,47.45L202.98,32.72L206.81,30.51L210.64,24.57L214.47,23.84L218.3,25.3L222.13,28.4L225.96,27.62L233.62,23.45L237.45,23.56L241.28,23.19L245.11,27.24L252.77,31.15L256.6,28.31L260.43,26.86L264.26,33.1L268.09,36.79L271.91,35.68L275.74,34.85L279.57,36.83L283.4,35.93L287.23,32.83L291.06,54.51L294.89,60.03L302.55,62L306.38,62.65L310.21,87.03L314.04,85.27L321.7,93.73L325.53,112.02L329.36,129.44L333.19,124.62L337.02,106.86L340.85,107.47L344.68,111.07L348.51,110.39L356.17,113.43L360,108.65L363.83,110.56L367.66,107.59L371.49,107.43L375.32,104L379.15,105.69L382.98,112.19L386.81,112.07L390.64,105.24L394.47,108.7L398.3,107.84L402.13,127.01L405.96,128.14L413.62,127.92L417.45,120.79L428.94,112.67L432.77,111.3L436.6,119.64L440.43,123.82L444.26,124.02L448.09,125.7L451.91,126.15L455.74,121.55L463.4,133.35L467.23,132.87L471.06,126.03L474.89,124.65L478.72,127.15L482.55,124.75L486.38,124.22L490.21,122.52L494.04,124.5L497.87,131.11L501.7,130.61L505.53,131.31L509.36,132.56L513.19,135.68L520.85,129.76L524.68,130.89L528.51,128.95L532.34,128.74L536.17,126.95L540,136.03L540,304" style="vector-effect: non-scaling-stroke; fill: none; stroke: rgb(99, 110, 250); stroke-opacity: 1; stroke-width: 2px; opacity: 1;"/></g><g class="points"/><g class="text"/></g></g></g><g class="overplot"/><path class="xlines-above crisp" d="M0,0" style="fill: none;"/><path class="ylines-above crisp" d="M0,0" style="fill: none;"/><g class="overlines-above"/><g class="xaxislayer-above"><g class="xtick"><text text-anchor="middle" x="0" y="433" transform="translate(194.89,0)" style="font-family: 'Open Sans', verdana, arial, sans-serif; font-size: 12px; fill: rgb(42, 63, 95); fill-opacity: 1; white-space: pre; opacity: 1;">Sep 2022</text></g><g class="xtick"><text text-anchor="middle" x="0" y="433" style="font-family: 'Open Sans', verdana, arial, sans-serif; font-size: 12px; fill: rgb(42, 63, 95); fill-opacity: 1; white-space: pre; opacity: 1;" transform="translate(309.78999999999996,0)">Oct 2022</text></g><g class="xtick"><text text-anchor="middle" x="0" y="433" style="font-family: 'Open Sans', verdana, arial, sans-serif; font-size: 12px; fill: rgb(42, 63, 95); fill-opacity: 1; white-space: pre; opacity: 1;" transform="translate(428.51,0)">Nov 2022</text></g><g class="xtick"><text text-anchor="middle" x="0" y="433" style="font-family: 'Open Sans', verdana, arial, sans-serif; font-size: 12px; fill: rgb(42, 63, 95); fill-opacity: 1; white-space: pre; opacity: 1;" transform="translate(543.4,0)">Dec 2022</text></g></g><g class="yaxislayer-above"><g class="ytick"><text text-anchor="end" x="79" y="4.199999999999999" transform="translate(0,389.89)" style="font-family: 'Open Sans', verdana, arial, sans-serif; font-size: 12px; fill: rgb(42, 63, 95); fill-opacity: 1; white-space: pre; opacity: 1;">$−5M</text></g><g class="ytick"><text text-anchor="end" x="79" y="4.199999999999999" style="font-family: 'Open Sans', verdana, arial, sans-serif; font-size: 12px; fill: rgb(42, 63, 95); fill-opacity: 1; white-space: pre; opacity: 1;" transform="translate(0,324.39)">$0</text></g><g class="ytick"><text text-anchor="end" x="79" y="4.199999999999999" style="font-family: 'Open Sans', verdana, arial, sans-serif; font-size: 12px; fill: rgb(42, 63, 95); fill-opacity: 1; white-space: pre; opacity: 1;" transform="translate(0,258.89)">$5M</text></g><g class="ytick"><text text-anchor="end" x="79" y="4.199999999999999" style="font-family: 'Open Sans', verdana, arial, sans-serif; font-size: 12px; fill: rgb(42, 63, 95); fill-opacity: 1; white-space: pre; opacity: 1;" transform="translate(0,193.4)">$10M</text></g><g class="ytick"><text text-anchor="end" x="79" y="4.199999999999999" style="font-family: 'Open Sans', verdana, arial, sans-serif; font-size: 12px; fill: rgb(42, 63, 95); fill-opacity: 1; white-space: pre; opacity: 1;" transform="translate(0,127.9)">$15M</text></g></g><g class="overaxes-above"/></g></g><g class="polarlayer"/><g class="smithlayer"/><g class="ternarylayer"/><g class="geolayer"/><g class="funnelarealayer"/><g class="pielayer"/><g class="iciclelayer"/><g class="treemaplayer"/><g class="sunburstlayer"/><g class="glimages"/><defs id="topdefs-a89932"><g class="clips"/></defs><g class="layer-above"><g class="imagelayer"/><g class="shapelayer"/></g><g class="infolayer"><g class="g-gtitle"><text class="gtitle" x="35" y="50" text-anchor="start" dy="0em" style="font-family: 'Open Sans', verdana, arial, sans-serif; font-size: 17px; fill: rgb(42, 63, 95); opacity: 1; font-weight: normal; white-space: pre;">Lyra: Cumulative Net Dollar Flow since Program Announcement - At Last Price</text></g><g class="g-xtitle"><text class="xtitle" x="350" y="460.8" text-anchor="middle" style="font-family: 'Open Sans', verdana, arial, sans-serif; font-size: 14px; fill: rgb(42, 63, 95); opacity: 1; font-weight: normal; white-space: pre;">Day</text></g><g class="g-ytitle"><text class="ytitle" transform="rotate(-90,23.840625000000003,260)" x="23.840625000000003" y="260" text-anchor="middle" style="font-family: 'Open Sans', verdana, arial, sans-serif; font-size: 14px; fill: rgb(42, 63, 95); opacity: 1; font-weight: normal; white-space: pre;">Cumulative Net Dollar Flow (N$F)</text></g></g></svg>