<svg class="main-svg" xmlns="http://www.w3.org/2000/svg" xmlns:xlink="http://www.w3.org/1999/xlink" width="700" height="500" style="" viewBox="0 0 700 500"><rect x="0" y="0" width="700" height="500" style="fill: rgb(255, 255, 255); fill-opacity: 1;"/><defs id="defs-99484a"><g class="clips"><clipPath id="clip99484axyplot" class="plotclip"><rect width="540" height="320"/></clipPath><clipPath class="axesclip" id="clip99484ax"><rect x="80" y="0" width="540" height="500"/></clipPath><clipPath class="axesclip" id="clip99484ay"><rect x="0" y="100" width="700" height="320"/></clipPath><clipPath class="axesclip" id="clip99484axy"><rect x="80" y="100" width="540" height="320"/></clipPath></g><g class="gradients"/><g class="patterns"/></defs><g class="bglayer"><rect class="bg" x="80" y="100" width="540" height="320" style="fill: rgb(229, 236, 246); fill-opacity: 1; stroke-width: 0;"/></g><g class="layer-below"><g class="imagelayer"/><g class="shapelayer"/></g><g class="cartesianlayer"><g class="subplot xy"><g class="layer-subplot"><g class="shapelayer"/><g class="imagelayer"/></g><g class="minor-gridlayer"><g class="x"/><g class="y"/></g><g class="gridlayer"><g class="x"><path class="xgrid crisp" transform="translate(201.8,0)" d="M0,100v320" style="stroke: rgb(255, 255, 255); stroke-opacity: 1; stroke-width: 1px;"/><path class="xgrid crisp" transform="translate(323.61,0)" d="M0,100v320" style="stroke: rgb(255, 255, 255); stroke-opacity: 1; stroke-width: 1px;"/><path class="xgrid crisp" transform="translate(449.47,0)" d="M0,100v320" style="stroke: rgb(255, 255, 255); stroke-opacity: 1; stroke-width: 1px;"/><path class="xgrid crisp" transform="translate(571.28,0)" d="M0,100v320" style="stroke: rgb(255, 255, 255); stroke-opacity: 1; stroke-width: 1px;"/></g><g class="y"><path class="ygrid crisp" transform="translate(0,381.78)" d="M80,0h540" style="stroke: rgb(255, 255, 255); stroke-opacity: 1; stroke-width: 1px;"/><path class="ygrid crisp" transform="translate(0,343.56)" d="M80,0h540" style="stroke: rgb(255, 255, 255); stroke-opacity: 1; stroke-width: 1px;"/><path class="ygrid crisp" transform="translate(0,305.34000000000003)" d="M80,0h540" style="stroke: rgb(255, 255, 255); stroke-opacity: 1; stroke-width: 1px;"/><path class="ygrid crisp" transform="translate(0,267.12)" d="M80,0h540" style="stroke: rgb(255, 255, 255); stroke-opacity: 1; stroke-width: 1px;"/><path class="ygrid crisp" transform="translate(0,228.91)" d="M80,0h540" style="stroke: rgb(255, 255, 255); stroke-opacity: 1; stroke-width: 1px;"/><path class="ygrid crisp" transform="translate(0,190.69)" d="M80,0h540" style="stroke: rgb(255, 255, 255); stroke-opacity: 1; stroke-width: 1px;"/><path class="ygrid crisp" transform="translate(0,152.47)" d="M80,0h540" style="stroke: rgb(255, 255, 255); stroke-opacity: 1; stroke-width: 1px;"/><path class="ygrid crisp" transform="translate(0,114.25)" d="M80,0h540" style="stroke: rgb(255, 255, 255); stroke-opacity: 1; stroke-width: 1px;"/></g></g><g class="zerolinelayer"><path class="yzl zl crisp" transform="translate(0,420)" d="M80,0h540" style="stroke: rgb(255, 255, 255); stroke-opacity: 1; stroke-width: 2px;"/></g><path class="xlines-below"/><path class="ylines-below"/><g class="overlines-below"/><g class="xaxislayer-below"/><g class="yaxislayer-below"/><g class="overaxes-below"/><g class="plot" transform="translate(80,100)" clip-path="url(#clip99484axyplot)"><g class="scatterlayer mlayer"><g class="trace scatter trace7af5de" style="stroke-miterlimit: 2;"><g class="fills"><g><path class="js-fill" d="M540,320L0,320L0,319.62L4.06,284.74L8.12,201.55L12.18,166.12L16.24,157.49L20.3,143.96L24.36,121.83L28.42,110.42L32.48,55.92L36.54,52.67L40.6,50.79L44.66,34.11L48.72,28.12L52.78,26.48L56.84,18.14L60.9,40.94L64.96,16L73.08,17.33L77.14,29.64L85.26,35.69L89.32,37.44L93.38,46.39L97.44,47.72L101.5,41.44L105.56,40.97L109.62,42.54L113.68,47.01L117.74,48.02L121.8,45.38L125.86,45.64L129.92,59.33L138.05,59.22L142.11,61.22L146.17,63.22L150.23,69.26L154.29,70.23L158.35,81.7L162.41,90.46L166.47,95.79L170.53,103.29L174.59,113.72L178.65,118.58L182.71,109.4L186.77,65.16L190.83,63.59L194.89,51.21L198.95,54.57L203.01,52.46L207.07,52.01L211.13,61.89L215.19,40.4L219.25,37.16L223.31,28.5L227.37,27.43L231.43,29.57L235.49,34.09L239.55,32.94L243.61,30.39L247.67,26.86L255.79,26.49L259.85,32.4L267.97,38.1L272.03,33.96L276.09,31.84L280.15,40.94L284.21,46.33L288.27,44.71L292.33,43.49L296.39,46.39L300.45,45.08L304.51,40.56L308.57,72.18L312.63,80.23L316.69,82.12L320.75,83.1L324.81,84.06L328.87,119.61L332.93,117.05L336.99,123.46L341.05,129.39L345.11,156.07L349.17,181.48L353.23,174.45L357.29,148.55L361.35,149.44L365.41,154.69L369.47,153.7L377.59,158.13L381.65,151.16L385.71,153.94L389.77,149.61L393.83,149.38L397.89,144.38L401.95,146.83L406.02,156.32L410.08,156.14L414.14,146.18L418.2,151.23L422.26,149.97L426.32,177.94L430.38,179.59L434.44,179.94L438.5,179.27L442.56,168.87L446.62,165.07L450.68,161.79L454.74,157.02L458.8,155.02L462.86,167.19L466.92,173.29L470.98,173.58L475.04,176.03L479.1,176.69L483.16,169.97L487.22,177.68L491.28,187.19L495.34,186.5L499.4,176.51L503.46,174.49L507.52,178.15L511.58,174.65L515.64,173.87L519.7,171.39L523.76,174.28L527.82,183.92L531.88,183.19L535.94,184.21L540,186.03" style="fill: rgb(99, 110, 250); fill-opacity: 0.5; stroke-width: 0;"/></g></g><g class="errorbars"/><g class="lines"><path class="js-line" d="M0,319.62L4.06,284.74L8.12,201.55L12.18,166.12L16.24,157.49L20.3,143.96L24.36,121.83L28.42,110.42L32.48,55.92L36.54,52.67L40.6,50.79L44.66,34.11L48.72,28.12L52.78,26.48L56.84,18.14L60.9,40.94L64.96,16L73.08,17.33L77.14,29.64L85.26,35.69L89.32,37.44L93.38,46.39L97.44,47.72L101.5,41.44L105.56,40.97L109.62,42.54L113.68,47.01L117.74,48.02L121.8,45.38L125.86,45.64L129.92,59.33L138.05,59.22L142.11,61.22L146.17,63.22L150.23,69.26L154.29,70.23L158.35,81.7L162.41,90.46L166.47,95.79L170.53,103.29L174.59,113.72L178.65,118.58L182.71,109.4L186.77,65.16L190.83,63.59L194.89,51.21L198.95,54.57L203.01,52.46L207.07,52.01L211.13,61.89L215.19,40.4L219.25,37.16L223.31,28.5L227.37,27.43L231.43,29.57L235.49,34.09L239.55,32.94L243.61,30.39L247.67,26.86L255.79,26.49L259.85,32.4L267.97,38.1L272.03,33.96L276.09,31.84L280.15,40.94L284.21,46.33L288.27,44.71L292.33,43.49L296.39,46.39L300.45,45.08L304.51,40.56L308.57,72.18L312.63,80.23L316.69,82.12L320.75,83.1L324.81,84.06L328.87,119.61L332.93,117.05L336.99,123.46L341.05,129.39L345.11,156.07L349.17,181.48L353.23,174.45L357.29,148.55L361.35,149.44L365.41,154.69L369.47,153.7L377.59,158.13L381.65,151.16L385.71,153.94L389.77,149.61L393.83,149.38L397.89,144.38L401.95,146.83L406.02,156.32L410.08,156.14L414.14,146.18L418.2,151.23L422.26,149.97L426.32,177.94L430.38,179.59L434.44,179.94L438.5,179.27L442.56,168.87L446.62,165.07L450.68,161.79L454.74,157.02L458.8,155.02L462.86,167.19L466.92,173.29L470.98,173.58L475.04,176.03L479.1,176.69L483.16,169.97L487.22,177.68L491.28,187.19L495.34,186.5L499.4,176.51L503.46,174.49L507.52,178.15L511.58,174.65L515.64,173.87L519.7,171.39L523.76,174.28L527.82,183.92L531.88,183.19L535.94,184.21L540,186.03" style="vector-effect: non-scaling-stroke; fill: none; stroke: rgb(99, 110, 250); stroke-opacity: 1; stroke-width: 2px; opacity: 1;"/></g><g class="points"/><g class="text"/></g></g></g><g class="overplot"/><path class="xlines-above crisp" d="M0,0" style="fill: none;"/><path class="ylines-above crisp" d="M0,0" style="fill: none;"/><g class="overlines-above"/><g class="xaxislayer-above"><g class="xtick"><text text-anchor="middle" x="0" y="433" transform="translate(201.8,0)" style="font-family: 'Open Sans', verdana, arial, sans-serif; font-size: 12px; fill: rgb(42, 63, 95); fill-opacity: 1; white-space: pre; opacity: 1;">Sep 2022</text></g><g class="xtick"><text text-anchor="middle" x="0" y="433" style="font-family: 'Open Sans', verdana, arial, sans-serif; font-size: 12px; fill: rgb(42, 63, 95); fill-opacity: 1; white-space: pre; opacity: 1;" transform="translate(323.61,0)">Oct 2022</text></g><g class="xtick"><text text-anchor="middle" x="0" y="433" style="font-family: 'Open Sans', verdana, arial, sans-serif; font-size: 12px; fill: rgb(42, 63, 95); fill-opacity: 1; white-space: pre; opacity: 1;" transform="translate(449.47,0)">Nov 2022</text></g><g class="xtick"><text text-anchor="middle" x="0" y="433" style="font-family: 'Open Sans', verdana, arial, sans-serif; font-size: 12px; fill: rgb(42, 63, 95); fill-opacity: 1; white-space: pre; opacity: 1;" transform="translate(571.28,0)">Dec 2022</text></g></g><g class="yaxislayer-above"><g class="ytick"><text text-anchor="end" x="79" y="4.199999999999999" transform="translate(0,420)" style="font-family: 'Open Sans', verdana, arial, sans-serif; font-size: 12px; fill: rgb(42, 63, 95); fill-opacity: 1; white-space: pre; opacity: 1;">$0</text></g><g class="ytick"><text text-anchor="end" x="79" y="4.199999999999999" style="font-family: 'Open Sans', verdana, arial, sans-serif; font-size: 12px; fill: rgb(42, 63, 95); fill-opacity: 1; white-space: pre; opacity: 1;" transform="translate(0,381.78)">$2M</text></g><g class="ytick"><text text-anchor="end" x="79" y="4.199999999999999" style="font-family: 'Open Sans', verdana, arial, sans-serif; font-size: 12px; fill: rgb(42, 63, 95); fill-opacity: 1; white-space: pre; opacity: 1;" transform="translate(0,343.56)">$4M</text></g><g class="ytick"><text text-anchor="end" x="79" y="4.199999999999999" style="font-family: 'Open Sans', verdana, arial, sans-serif; font-size: 12px; fill: rgb(42, 63, 95); fill-opacity: 1; white-space: pre; opacity: 1;" transform="translate(0,305.34000000000003)">$6M</text></g><g class="ytick"><text text-anchor="end" x="79" y="4.199999999999999" style="font-family: 'Open Sans', verdana, arial, sans-serif; font-size: 12px; fill: rgb(42, 63, 95); fill-opacity: 1; white-space: pre; opacity: 1;" transform="translate(0,267.12)">$8M</text></g><g class="ytick"><text text-anchor="end" x="79" y="4.199999999999999" style="font-family: 'Open Sans', verdana, arial, sans-serif; font-size: 12px; fill: rgb(42, 63, 95); fill-opacity: 1; white-space: pre; opacity: 1;" transform="translate(0,228.91)">$10M</text></g><g class="ytick"><text text-anchor="end" x="79" y="4.199999999999999" style="font-family: 'Open Sans', verdana, arial, sans-serif; font-size: 12px; fill: rgb(42, 63, 95); fill-opacity: 1; white-space: pre; opacity: 1;" transform="translate(0,190.69)">$12M</text></g><g class="ytick"><text text-anchor="end" x="79" y="4.199999999999999" style="font-family: 'Open Sans', verdana, arial, sans-serif; font-size: 12px; fill: rgb(42, 63, 95); fill-opacity: 1; white-space: pre; opacity: 1;" transform="translate(0,152.47)">$14M</text></g><g class="ytick"><text text-anchor="end" x="79" y="4.199999999999999" style="font-family: 'Open Sans', verdana, arial, sans-serif; font-size: 12px; fill: rgb(42, 63, 95); fill-opacity: 1; white-space: pre; opacity: 1;" transform="translate(0,114.25)">$16M</text></g></g><g class="overaxes-above"/></g></g><g class="polarlayer"/><g class="smithlayer"/><g class="ternarylayer"/><g class="geolayer"/><g class="funnelarealayer"/><g class="pielayer"/><g class="iciclelayer"/><g class="treemaplayer"/><g class="sunburstlayer"/><g class="glimages"/><defs id="topdefs-99484a"><g class="clips"/></defs><g class="layer-above"><g class="imagelayer"/><g class="shapelayer"/></g><g class="infolayer"><g class="g-gtitle"><text class="gtitle" x="35" y="50" text-anchor="start" dy="0em" style="font-family: 'Open Sans', verdana, arial, sans-serif; font-size: 17px; fill: rgb(42, 63, 95); opacity: 1; font-weight: normal; white-space: pre;">Lyra: Cumulative Net Dollar Flow since Program Announcement - At Last Price</text></g><g class="g-xtitle"><text class="xtitle" x="350" y="460.8" text-anchor="middle" style="font-family: 'Open Sans', verdana, arial, sans-serif; font-size: 14px; fill: rgb(42, 63, 95); opacity: 1; font-weight: normal; white-space: pre;">Day</text></g><g class="g-ytitle"><text class="ytitle" transform="rotate(-90,24.168750000000003,260)" x="24.168750000000003" y="260" text-anchor="middle" style="font-family: 'Open Sans', verdana, arial, sans-serif; font-size: 14px; fill: rgb(42, 63, 95); opacity: 1; font-weight: normal; white-space: pre;">Cumulative Net Dollar Flow (N$F)</text></g></g></svg>