<svg class="main-svg" xmlns="http://www.w3.org/2000/svg" xmlns:xlink="http://www.w3.org/1999/xlink" width="700" height="500" style="" viewBox="0 0 700 500"><rect x="0" y="0" width="700" height="500" style="fill: rgb(255, 255, 255); fill-opacity: 1;"/><defs id="defs-45b3f9"><g class="clips"><clipPath id="clip45b3f9xyplot" class="plotclip"><rect width="540" height="320"/></clipPath><clipPath class="axesclip" id="clip45b3f9x"><rect x="80" y="0" width="540" height="500"/></clipPath><clipPath class="axesclip" id="clip45b3f9y"><rect x="0" y="100" width="700" height="320"/></clipPath><clipPath class="axesclip" id="clip45b3f9xy"><rect x="80" y="100" width="540" height="320"/></clipPath></g><g class="gradients"/><g class="patterns"/></defs><g class="bglayer"><rect class="bg" x="80" y="100" width="540" height="320" style="fill: rgb(229, 236, 246); fill-opacity: 1; stroke-width: 0;"/></g><g class="layer-below"><g class="imagelayer"/><g class="shapelayer"/></g><g class="cartesianlayer"><g class="subplot xy"><g class="layer-subplot"><g class="shapelayer"/><g class="imagelayer"/></g><g class="minor-gridlayer"><g class="x"/><g class="y"/></g><g class="gridlayer"><g class="x"><path class="xgrid crisp" transform="translate(93.73,0)" d="M0,100v320" style="stroke: rgb(255, 255, 255); stroke-opacity: 1; stroke-width: 1px;"/><path class="xgrid crisp" transform="translate(231.02,0)" d="M0,100v320" style="stroke: rgb(255, 255, 255); stroke-opacity: 1; stroke-width: 1px;"/><path class="xgrid crisp" transform="translate(372.88,0)" d="M0,100v320" style="stroke: rgb(255, 255, 255); stroke-opacity: 1; stroke-width: 1px;"/><path class="xgrid crisp" transform="translate(510.17,0)" d="M0,100v320" style="stroke: rgb(255, 255, 255); stroke-opacity: 1; stroke-width: 1px;"/></g><g class="y"><path class="ygrid crisp" transform="translate(0,315.43)" d="M80,0h540" style="stroke: rgb(255, 255, 255); stroke-opacity: 1; stroke-width: 1px;"/><path class="ygrid crisp" transform="translate(0,259.89)" d="M80,0h540" style="stroke: rgb(255, 255, 255); stroke-opacity: 1; stroke-width: 1px;"/><path class="ygrid crisp" transform="translate(0,204.36)" d="M80,0h540" style="stroke: rgb(255, 255, 255); stroke-opacity: 1; stroke-width: 1px;"/><path class="ygrid crisp" transform="translate(0,148.82)" d="M80,0h540" style="stroke: rgb(255, 255, 255); stroke-opacity: 1; stroke-width: 1px;"/></g></g><g class="zerolinelayer"><path class="yzl zl crisp" transform="translate(0,370.96)" d="M80,0h540" style="stroke: rgb(255, 255, 255); stroke-opacity: 1; stroke-width: 2px;"/></g><path class="xlines-below"/><path class="ylines-below"/><g class="overlines-below"/><g class="xaxislayer-below"/><g class="yaxislayer-below"/><g class="overaxes-below"/><g class="plot" transform="translate(80,100)" clip-path="url(#clip45b3f9xyplot)"><g class="scatterlayer mlayer"><g class="trace scatter trace00fde7" style="stroke-miterlimit: 2;"><g class="fills"><g><path class="js-fill" d="M540,270.96L0,270.96L0,270.82L13.73,268.7L18.31,267.59L22.88,264.99L27.46,263.82L32.03,263.21L36.61,236.32L41.19,208.87L45.76,190.6L50.34,166.37L54.92,161.87L59.49,158.58L64.07,152.12L68.64,131.66L73.22,125.25L82.37,124.06L86.95,97.79L91.53,100.93L96.1,85.66L100.68,87.69L105.25,66.05L109.83,55.69L114.41,51.4L118.98,29.29L123.56,25.95L128.14,23.54L132.71,38.64L137.29,49.85L141.86,47.4L146.44,46.24L151.02,42.3L160.17,40.3L164.75,28.28L169.32,34.15L173.9,28.29L178.47,24.08L183.05,25.75L187.63,25L192.2,26.83L201.36,23.38L205.93,27.18L210.51,29.42L215.08,27.41L219.66,23.89L224.24,24.51L228.81,27.17L233.39,27.16L242.54,28.26L247.12,28.64L251.69,28.33L256.27,28.83L260.85,36.94L265.42,36.78L270,37.23L274.58,29.87L283.73,26.97L288.31,26.56L292.88,23.98L297.46,19.1L302.03,17.66L306.61,21.34L315.76,21.95L320.34,20.32L329.49,16L334.07,28.1L338.64,40.61L343.22,38.65L347.8,35.35L352.37,43.13L356.95,52.48L361.53,51.17L366.1,52.73L370.68,56.78L375.25,58.61L379.83,57.47L388.98,55.95L393.56,53.7L398.14,60.39L402.71,59.34L407.29,59.37L411.86,58.41L416.44,56.64L421.02,63.35L425.59,63.99L430.17,63.25L434.75,63.42L439.32,60.86L448.47,61.63L453.05,58.94L457.63,63.3L462.2,64.17L466.78,60.04L471.36,62.33L475.93,70.08L480.51,70.16L485.08,65.82L489.66,65.76L494.24,63.81L498.81,59.74L503.39,66.5L507.97,63.71L512.54,64.56L517.12,64.01L521.69,63.15L526.27,64.29L530.85,62.08L535.42,92.58L540,91.58L540,304" style="fill: rgb(99, 110, 250); fill-opacity: 0.5; stroke-width: 0;"/></g></g><g class="errorbars"/><g class="lines"><path class="js-line" d="M0,270.82L13.73,268.7L18.31,267.59L22.88,264.99L27.46,263.82L32.03,263.21L36.61,236.32L41.19,208.87L45.76,190.6L50.34,166.37L54.92,161.87L59.49,158.58L64.07,152.12L68.64,131.66L73.22,125.25L82.37,124.06L86.95,97.79L91.53,100.93L96.1,85.66L100.68,87.69L105.25,66.05L109.83,55.69L114.41,51.4L118.98,29.29L123.56,25.95L128.14,23.54L132.71,38.64L137.29,49.85L141.86,47.4L146.44,46.24L151.02,42.3L160.17,40.3L164.75,28.28L169.32,34.15L173.9,28.29L178.47,24.08L183.05,25.75L187.63,25L192.2,26.83L201.36,23.38L205.93,27.18L210.51,29.42L215.08,27.41L219.66,23.89L224.24,24.51L228.81,27.17L233.39,27.16L242.54,28.26L247.12,28.64L251.69,28.33L256.27,28.83L260.85,36.94L265.42,36.78L270,37.23L274.58,29.87L283.73,26.97L288.31,26.56L292.88,23.98L297.46,19.1L302.03,17.66L306.61,21.34L315.76,21.95L320.34,20.32L329.49,16L334.07,28.1L338.64,40.61L343.22,38.65L347.8,35.35L352.37,43.13L356.95,52.48L361.53,51.17L366.1,52.73L370.68,56.78L375.25,58.61L379.83,57.47L388.98,55.95L393.56,53.7L398.14,60.39L402.71,59.34L407.29,59.37L411.86,58.41L416.44,56.64L421.02,63.35L425.59,63.99L430.17,63.25L434.75,63.42L439.32,60.86L448.47,61.63L453.05,58.94L457.63,63.3L462.2,64.17L466.78,60.04L471.36,62.33L475.93,70.08L480.51,70.16L485.08,65.82L489.66,65.76L494.24,63.81L498.81,59.74L503.39,66.5L507.97,63.71L512.54,64.56L517.12,64.01L521.69,63.15L526.27,64.29L530.85,62.08L535.42,92.58L540,91.58L540,304" style="vector-effect: non-scaling-stroke; fill: none; stroke: rgb(99, 110, 250); stroke-opacity: 1; stroke-width: 2px; opacity: 1;"/></g><g class="points"/><g class="text"/></g></g></g><g class="overplot"/><path class="xlines-above crisp" d="M0,0" style="fill: none;"/><path class="ylines-above crisp" d="M0,0" style="fill: none;"/><g class="overlines-above"/><g class="xaxislayer-above"><g class="xtick"><text text-anchor="middle" x="0" y="433" transform="translate(93.73,0)" style="font-family: 'Open Sans', verdana, arial, sans-serif; font-size: 12px; fill: rgb(42, 63, 95); fill-opacity: 1; white-space: pre; opacity: 1;">Sep 2022</text></g><g class="xtick"><text text-anchor="middle" x="0" y="433" style="font-family: 'Open Sans', verdana, arial, sans-serif; font-size: 12px; fill: rgb(42, 63, 95); fill-opacity: 1; white-space: pre; opacity: 1;" transform="translate(231.02,0)">Oct 2022</text></g><g class="xtick"><text text-anchor="middle" x="0" y="433" style="font-family: 'Open Sans', verdana, arial, sans-serif; font-size: 12px; fill: rgb(42, 63, 95); fill-opacity: 1; white-space: pre; opacity: 1;" transform="translate(372.88,0)">Nov 2022</text></g><g class="xtick"><text text-anchor="middle" x="0" y="433" style="font-family: 'Open Sans', verdana, arial, sans-serif; font-size: 12px; fill: rgb(42, 63, 95); fill-opacity: 1; white-space: pre; opacity: 1;" transform="translate(510.17,0)">Dec 2022</text></g></g><g class="yaxislayer-above"><g class="ytick"><text text-anchor="end" x="79" y="4.199999999999999" transform="translate(0,370.96)" style="font-family: 'Open Sans', verdana, arial, sans-serif; font-size: 12px; fill: rgb(42, 63, 95); fill-opacity: 1; white-space: pre; opacity: 1;">$0</text></g><g class="ytick"><text text-anchor="end" x="79" y="4.199999999999999" style="font-family: 'Open Sans', verdana, arial, sans-serif; font-size: 12px; fill: rgb(42, 63, 95); fill-opacity: 1; white-space: pre; opacity: 1;" transform="translate(0,315.43)">$2M</text></g><g class="ytick"><text text-anchor="end" x="79" y="4.199999999999999" style="font-family: 'Open Sans', verdana, arial, sans-serif; font-size: 12px; fill: rgb(42, 63, 95); fill-opacity: 1; white-space: pre; opacity: 1;" transform="translate(0,259.89)">$4M</text></g><g class="ytick"><text text-anchor="end" x="79" y="4.199999999999999" style="font-family: 'Open Sans', verdana, arial, sans-serif; font-size: 12px; fill: rgb(42, 63, 95); fill-opacity: 1; white-space: pre; opacity: 1;" transform="translate(0,204.36)">$6M</text></g><g class="ytick"><text text-anchor="end" x="79" y="4.199999999999999" style="font-family: 'Open Sans', verdana, arial, sans-serif; font-size: 12px; fill: rgb(42, 63, 95); fill-opacity: 1; white-space: pre; opacity: 1;" transform="translate(0,148.82)">$8M</text></g></g><g class="overaxes-above"/></g></g><g class="polarlayer"/><g class="smithlayer"/><g class="ternarylayer"/><g class="geolayer"/><g class="funnelarealayer"/><g class="pielayer"/><g class="iciclelayer"/><g class="treemaplayer"/><g class="sunburstlayer"/><g class="glimages"/><defs id="topdefs-45b3f9"><g class="clips"/></defs><g class="layer-above"><g class="imagelayer"/><g class="shapelayer"/></g><g class="infolayer"><g class="g-gtitle"><text class="gtitle" x="35" y="50" text-anchor="start" dy="0em" style="font-family: 'Open Sans', verdana, arial, sans-serif; font-size: 17px; fill: rgb(42, 63, 95); opacity: 1; font-weight: normal; white-space: pre;"><tspan class="line" dy="0em" x="35" y="50">Pika Protocol</tspan><tspan class="line" dy="1.3em" x="35" y="50">​<tspan style="font-size:70%" dy="-0.6em">Cumulative Net Dollar Flow since Program Announcement, Until Program End + 30 Days - At Last Price</tspan><tspan dy="0.42em">​</tspan></tspan></text></g><g class="g-xtitle"><text class="xtitle" x="350" y="460.8" text-anchor="middle" style="font-family: 'Open Sans', verdana, arial, sans-serif; font-size: 14px; fill: rgb(42, 63, 95); opacity: 1; font-weight: normal; white-space: pre;">Day</text></g><g class="g-ytitle"><text class="ytitle" transform="rotate(-90,30.856250000000003,260)" x="30.856250000000003" y="260" text-anchor="middle" style="font-family: 'Open Sans', verdana, arial, sans-serif; font-size: 14px; fill: rgb(42, 63, 95); opacity: 1; font-weight: normal; white-space: pre;">Cumulative Net Dollar Flow (N$F)</text></g></g></svg>