<svg class="main-svg" xmlns="http://www.w3.org/2000/svg" xmlns:xlink="http://www.w3.org/1999/xlink" width="700" height="500" style="" viewBox="0 0 700 500"><rect x="0" y="0" width="700" height="500" style="fill: rgb(255, 255, 255); fill-opacity: 1;"/><defs id="defs-7a6750"><g class="clips"><clipPath id="clip7a6750xyplot" class="plotclip"><rect width="540" height="320"/></clipPath><clipPath class="axesclip" id="clip7a6750x"><rect x="80" y="0" width="540" height="500"/></clipPath><clipPath class="axesclip" id="clip7a6750y"><rect x="0" y="100" width="700" height="320"/></clipPath><clipPath class="axesclip" id="clip7a6750xy"><rect x="80" y="100" width="540" height="320"/></clipPath></g><g class="gradients"/><g class="patterns"/></defs><g class="bglayer"><rect class="bg" x="80" y="100" width="540" height="320" style="fill: rgb(229, 236, 246); fill-opacity: 1; stroke-width: 0;"/></g><g class="layer-below"><g class="imagelayer"/><g class="shapelayer"/></g><g class="cartesianlayer"><g class="subplot xy"><g class="layer-subplot"><g class="shapelayer"/><g class="imagelayer"/></g><g class="minor-gridlayer"><g class="x"/><g class="y"/></g><g class="gridlayer"><g class="x"><path class="xgrid crisp" transform="translate(135.16,0)" d="M0,100v320" style="stroke: rgb(255, 255, 255); stroke-opacity: 1; stroke-width: 1px;"/><path class="xgrid crisp" transform="translate(222.26,0)" d="M0,100v320" style="stroke: rgb(255, 255, 255); stroke-opacity: 1; stroke-width: 1px;"/><path class="xgrid crisp" transform="translate(312.26,0)" d="M0,100v320" style="stroke: rgb(255, 255, 255); stroke-opacity: 1; stroke-width: 1px;"/><path class="xgrid crisp" transform="translate(399.35,0)" d="M0,100v320" style="stroke: rgb(255, 255, 255); stroke-opacity: 1; stroke-width: 1px;"/><path class="xgrid crisp" transform="translate(489.35,0)" d="M0,100v320" style="stroke: rgb(255, 255, 255); stroke-opacity: 1; stroke-width: 1px;"/><path class="xgrid crisp" transform="translate(579.35,0)" d="M0,100v320" style="stroke: rgb(255, 255, 255); stroke-opacity: 1; stroke-width: 1px;"/></g><g class="y"><path class="ygrid crisp" transform="translate(0,384.32)" d="M80,0h540" style="stroke: rgb(255, 255, 255); stroke-opacity: 1; stroke-width: 1px;"/><path class="ygrid crisp" transform="translate(0,323.31)" d="M80,0h540" style="stroke: rgb(255, 255, 255); stroke-opacity: 1; stroke-width: 1px;"/><path class="ygrid crisp" transform="translate(0,262.28999999999996)" d="M80,0h540" style="stroke: rgb(255, 255, 255); stroke-opacity: 1; stroke-width: 1px;"/><path class="ygrid crisp" transform="translate(0,140.26)" d="M80,0h540" style="stroke: rgb(255, 255, 255); stroke-opacity: 1; stroke-width: 1px;"/></g></g><g class="zerolinelayer"><path class="yzl zl crisp" transform="translate(0,201.28)" d="M80,0h540" style="stroke: rgb(255, 255, 255); stroke-opacity: 1; stroke-width: 2px;"/></g><path class="xlines-below"/><path class="ylines-below"/><g class="overlines-below"/><g class="xaxislayer-below"/><g class="yaxislayer-below"/><g class="overaxes-below"/><g class="plot" transform="translate(80,100)" clip-path="url(#clip7a6750xyplot)"><g class="scatterlayer mlayer"><g class="trace scatter trace4736a2" style="stroke-miterlimit: 2;"><g class="fills"><g><path class="js-fill" d="M540,101.28L0,101.28L0,139.99L2.9,159.57L5.81,159.08L8.71,160.95L11.61,171.13L14.52,173.38L17.42,41.91L20.32,204.89L23.23,193.38L26.13,202.01L29.03,201.3L31.94,206.51L34.84,209.15L37.74,192.71L40.65,200.94L43.55,206.04L46.45,208.7L49.35,181.63L52.26,173L55.16,170.61L58.06,189.26L60.97,186.08L63.87,179.99L66.77,177.91L69.68,183.5L72.58,181.97L75.48,171.15L78.39,161.94L81.29,137.22L84.19,129.37L87.1,126.98L90,162.89L92.9,148.07L95.81,142.24L98.71,170.42L101.61,175.87L104.52,175.81L107.42,178.39L110.32,179.77L113.23,183.53L116.13,188.8L119.03,206.34L121.94,207.63L127.74,202.44L130.65,211.38L133.55,208.57L136.45,213.82L139.35,215.91L142.26,220.95L145.16,223.34L148.06,242.34L150.97,245.55L153.87,237.4L156.77,243.96L159.68,244.4L162.58,237.8L165.48,254.29L168.39,250L171.29,256.47L174.19,250.57L177.1,250.88L180,271.1L182.9,267.81L185.81,269.71L188.71,273.06L194.52,271.69L197.42,265.3L200.32,266.71L203.23,265.67L209.03,265.57L211.94,266.74L214.84,253.86L217.74,245.3L226.45,234.5L229.35,235.74L232.26,231.04L235.16,235.75L238.06,196.9L240.97,210.29L243.87,224.87L246.77,222.41L249.68,222.67L252.58,205.02L255.48,226.84L258.39,299.2L261.29,243.54L264.19,236.84L267.1,238.97L270,248.45L272.9,259.75L275.81,228.97L278.71,172.95L281.61,215.91L284.52,188.55L287.42,172.33L293.23,200.93L296.13,229.09L299.03,244.56L301.94,285.52L304.84,289.19L307.74,251.94L310.65,261.88L313.55,263.11L316.45,256.49L319.35,239.81L322.26,250.24L325.16,304L328.06,283.76L330.97,239.86L333.87,254.66L336.77,243.67L339.68,257.96L342.58,247.86L345.48,265L348.39,245.62L351.29,293.55L354.19,267.16L357.1,298.09L360,277.97L362.9,266.74L365.81,241.68L368.71,257.25L371.61,246.15L374.52,269.52L377.42,216.43L380.32,157.1L383.23,229.1L386.13,177.39L389.03,180.84L391.94,189.1L394.84,185.23L397.74,230.18L400.65,222.54L403.55,87.58L406.45,139.97L409.35,104.09L412.26,129.64L415.16,126.62L418.06,124.85L420.97,122.03L423.87,131.98L426.77,135.02L429.68,131.44L432.58,145.14L435.48,145.33L438.39,142.97L441.29,160.01L444.19,172.37L447.1,133.49L450,119.65L452.9,116.57L455.81,138.4L458.71,138.79L461.61,129.91L464.52,156.99L467.42,172.51L470.32,142.74L473.23,127.99L476.13,126.24L479.03,140.47L481.94,133.25L484.84,147.76L487.74,113.76L490.65,95.44L493.55,125.32L496.45,135.93L499.35,107.56L502.26,107.56L505.16,164.94L508.06,168.1L510.97,191.9L513.87,166.7L516.77,170.55L519.68,121.41L522.58,46.5L525.48,98.47L528.39,16L531.29,50.74L534.19,57.09L537.1,63.04L540,40" style="fill: rgb(99, 110, 250); fill-opacity: 0.5; stroke-width: 0;"/></g></g><g class="errorbars"/><g class="lines"><path class="js-line" d="M0,139.99L2.9,159.57L5.81,159.08L8.71,160.95L11.61,171.13L14.52,173.38L17.42,41.91L20.32,204.89L23.23,193.38L26.13,202.01L29.03,201.3L31.94,206.51L34.84,209.15L37.74,192.71L40.65,200.94L43.55,206.04L46.45,208.7L49.35,181.63L52.26,173L55.16,170.61L58.06,189.26L60.97,186.08L63.87,179.99L66.77,177.91L69.68,183.5L72.58,181.97L75.48,171.15L78.39,161.94L81.29,137.22L84.19,129.37L87.1,126.98L90,162.89L92.9,148.07L95.81,142.24L98.71,170.42L101.61,175.87L104.52,175.81L107.42,178.39L110.32,179.77L113.23,183.53L116.13,188.8L119.03,206.34L121.94,207.63L127.74,202.44L130.65,211.38L133.55,208.57L136.45,213.82L139.35,215.91L142.26,220.95L145.16,223.34L148.06,242.34L150.97,245.55L153.87,237.4L156.77,243.96L159.68,244.4L162.58,237.8L165.48,254.29L168.39,250L171.29,256.47L174.19,250.57L177.1,250.88L180,271.1L182.9,267.81L185.81,269.71L188.71,273.06L194.52,271.69L197.42,265.3L200.32,266.71L203.23,265.67L209.03,265.57L211.94,266.74L214.84,253.86L217.74,245.3L226.45,234.5L229.35,235.74L232.26,231.04L235.16,235.75L238.06,196.9L240.97,210.29L243.87,224.87L246.77,222.41L249.68,222.67L252.58,205.02L255.48,226.84L258.39,299.2L261.29,243.54L264.19,236.84L267.1,238.97L270,248.45L272.9,259.75L275.81,228.97L278.71,172.95L281.61,215.91L284.52,188.55L287.42,172.33L293.23,200.93L296.13,229.09L299.03,244.56L301.94,285.52L304.84,289.19L307.74,251.94L310.65,261.88L313.55,263.11L316.45,256.49L319.35,239.81L322.26,250.24L325.16,304L328.06,283.76L330.97,239.86L333.87,254.66L336.77,243.67L339.68,257.96L342.58,247.86L345.48,265L348.39,245.62L351.29,293.55L354.19,267.16L357.1,298.09L360,277.97L362.9,266.74L365.81,241.68L368.71,257.25L371.61,246.15L374.52,269.52L377.42,216.43L380.32,157.1L383.23,229.1L386.13,177.39L389.03,180.84L391.94,189.1L394.84,185.23L397.74,230.18L400.65,222.54L403.55,87.58L406.45,139.97L409.35,104.09L412.26,129.64L415.16,126.62L418.06,124.85L420.97,122.03L423.87,131.98L426.77,135.02L429.68,131.44L432.58,145.14L435.48,145.33L438.39,142.97L441.29,160.01L444.19,172.37L447.1,133.49L450,119.65L452.9,116.57L455.81,138.4L458.71,138.79L461.61,129.91L464.52,156.99L467.42,172.51L470.32,142.74L473.23,127.99L476.13,126.24L479.03,140.47L481.94,133.25L484.84,147.76L487.74,113.76L490.65,95.44L493.55,125.32L496.45,135.93L499.35,107.56L502.26,107.56L505.16,164.94L508.06,168.1L510.97,191.9L513.87,166.7L516.77,170.55L519.68,121.41L522.58,46.5L525.48,98.47L528.39,16L531.29,50.74L534.19,57.09L537.1,63.04L540,40" style="vector-effect: non-scaling-stroke; fill: none; stroke: rgb(99, 110, 250); stroke-opacity: 1; stroke-width: 2px; opacity: 1;"/></g><g class="points"/><g class="text"/></g></g></g><g class="overplot"/><path class="xlines-above crisp" d="M0,0" style="fill: none;"/><path class="ylines-above crisp" d="M0,0" style="fill: none;"/><g class="overlines-above"/><g class="xaxislayer-above"><g class="xtick"><text text-anchor="middle" x="0" y="433" transform="translate(135.16,0)" style="font-family: 'Open Sans', verdana, arial, sans-serif; font-size: 12px; fill: rgb(42, 63, 95); fill-opacity: 1; white-space: pre; opacity: 1;">Sep 2022</text></g><g class="xtick"><text text-anchor="middle" x="0" y="433" style="font-family: 'Open Sans', verdana, arial, sans-serif; font-size: 12px; fill: rgb(42, 63, 95); fill-opacity: 1; white-space: pre; opacity: 1;" transform="translate(222.26,0)">Oct 2022</text></g><g class="xtick"><text text-anchor="middle" x="0" y="433" style="font-family: 'Open Sans', verdana, arial, sans-serif; font-size: 12px; fill: rgb(42, 63, 95); fill-opacity: 1; white-space: pre; opacity: 1;" transform="translate(312.26,0)">Nov 2022</text></g><g class="xtick"><text text-anchor="middle" x="0" y="433" style="font-family: 'Open Sans', verdana, arial, sans-serif; font-size: 12px; fill: rgb(42, 63, 95); fill-opacity: 1; white-space: pre; opacity: 1;" transform="translate(399.35,0)">Dec 2022</text></g><g class="xtick"><text text-anchor="middle" x="0" y="433" style="font-family: 'Open Sans', verdana, arial, sans-serif; font-size: 12px; fill: rgb(42, 63, 95); fill-opacity: 1; white-space: pre; opacity: 1;" transform="translate(489.35,0)">Jan 2023</text></g><g class="xtick"><text text-anchor="middle" x="0" y="433" style="font-family: 'Open Sans', verdana, arial, sans-serif; font-size: 12px; fill: rgb(42, 63, 95); fill-opacity: 1; white-space: pre; opacity: 1;" transform="translate(579.35,0)">Feb 2023</text></g></g><g class="yaxislayer-above"><g class="ytick"><text text-anchor="end" x="79" y="4.199999999999999" transform="translate(0,384.32)" style="font-family: 'Open Sans', verdana, arial, sans-serif; font-size: 12px; fill: rgb(42, 63, 95); fill-opacity: 1; white-space: pre; opacity: 1;">$−6M</text></g><g class="ytick"><text text-anchor="end" x="79" y="4.199999999999999" style="font-family: 'Open Sans', verdana, arial, sans-serif; font-size: 12px; fill: rgb(42, 63, 95); fill-opacity: 1; white-space: pre; opacity: 1;" transform="translate(0,323.31)">$−4M</text></g><g class="ytick"><text text-anchor="end" x="79" y="4.199999999999999" style="font-family: 'Open Sans', verdana, arial, sans-serif; font-size: 12px; fill: rgb(42, 63, 95); fill-opacity: 1; white-space: pre; opacity: 1;" transform="translate(0,262.28999999999996)">$−2M</text></g><g class="ytick"><text text-anchor="end" x="79" y="4.199999999999999" style="font-family: 'Open Sans', verdana, arial, sans-serif; font-size: 12px; fill: rgb(42, 63, 95); fill-opacity: 1; white-space: pre; opacity: 1;" transform="translate(0,201.28)">$0</text></g><g class="ytick"><text text-anchor="end" x="79" y="4.199999999999999" style="font-family: 'Open Sans', verdana, arial, sans-serif; font-size: 12px; fill: rgb(42, 63, 95); fill-opacity: 1; white-space: pre; opacity: 1;" transform="translate(0,140.26)">$2M</text></g></g><g class="overaxes-above"/></g></g><g class="polarlayer"/><g class="smithlayer"/><g class="ternarylayer"/><g class="geolayer"/><g class="funnelarealayer"/><g class="pielayer"/><g class="iciclelayer"/><g class="treemaplayer"/><g class="sunburstlayer"/><g class="glimages"/><defs id="topdefs-7a6750"><g class="clips"/></defs><g class="layer-above"><g class="imagelayer"/><g class="shapelayer"/></g><g class="infolayer"><g class="g-gtitle"><text class="gtitle" x="35" y="50" text-anchor="start" dy="0em" style="font-family: 'Open Sans', verdana, arial, sans-serif; font-size: 17px; fill: rgb(42, 63, 95); opacity: 1; font-weight: normal; white-space: pre;"><tspan class="line" dy="0em" x="35" y="50">Cbridge - Celer*</tspan><tspan class="line" dy="1.3em" x="35" y="50">​<tspan style="font-size:70%" dy="-0.6em">Cumulative Net Flows since Program Announcement, Until Program End + 30 Days - At Last Price</tspan><tspan dy="0.42em">​</tspan></tspan></text></g><g class="g-xtitle"><text class="xtitle" x="350" y="460.8" text-anchor="middle" style="font-family: 'Open Sans', verdana, arial, sans-serif; font-size: 14px; fill: rgb(42, 63, 95); opacity: 1; font-weight: normal; white-space: pre;">Day</text></g><g class="g-ytitle"><text class="ytitle" transform="rotate(-90,23.840625000000003,260)" x="23.840625000000003" y="260" text-anchor="middle" style="font-family: 'Open Sans', verdana, arial, sans-serif; font-size: 14px; fill: rgb(42, 63, 95); opacity: 1; font-weight: normal; white-space: pre;">Cumulative Net Flows (USD)</text></g></g></svg>