<svg class="main-svg" xmlns="http://www.w3.org/2000/svg" xmlns:xlink="http://www.w3.org/1999/xlink" width="700" height="500" style="" viewBox="0 0 700 500"><rect x="0" y="0" width="700" height="500" style="fill: rgb(255, 255, 255); fill-opacity: 1;"/><defs id="defs-403f7f"><g class="clips"><clipPath id="clip403f7fxyplot" class="plotclip"><rect width="540" height="320"/></clipPath><clipPath class="axesclip" id="clip403f7fx"><rect x="80" y="0" width="540" height="500"/></clipPath><clipPath class="axesclip" id="clip403f7fy"><rect x="0" y="100" width="700" height="320"/></clipPath><clipPath class="axesclip" id="clip403f7fxy"><rect x="80" y="100" width="540" height="320"/></clipPath></g><g class="gradients"/><g class="patterns"/></defs><g class="bglayer"><rect class="bg" x="80" y="100" width="540" height="320" style="fill: rgb(229, 236, 246); fill-opacity: 1; stroke-width: 0;"/></g><g class="layer-below"><g class="imagelayer"/><g class="shapelayer"/></g><g class="cartesianlayer"><g class="subplot xy"><g class="layer-subplot"><g class="shapelayer"/><g class="imagelayer"/></g><g class="minor-gridlayer"><g class="x"/><g class="y"/></g><g class="gridlayer"><g class="x"><path class="xgrid crisp" transform="translate(111.56,0)" d="M0,100v320" style="stroke: rgb(255, 255, 255); stroke-opacity: 1; stroke-width: 1px;"/><path class="xgrid crisp" transform="translate(220.26,0)" d="M0,100v320" style="stroke: rgb(255, 255, 255); stroke-opacity: 1; stroke-width: 1px;"/><path class="xgrid crisp" transform="translate(325.45,0)" d="M0,100v320" style="stroke: rgb(255, 255, 255); stroke-opacity: 1; stroke-width: 1px;"/><path class="xgrid crisp" transform="translate(434.16,0)" d="M0,100v320" style="stroke: rgb(255, 255, 255); stroke-opacity: 1; stroke-width: 1px;"/><path class="xgrid crisp" transform="translate(542.86,0)" d="M0,100v320" style="stroke: rgb(255, 255, 255); stroke-opacity: 1; stroke-width: 1px;"/></g><g class="y"><path class="ygrid crisp" transform="translate(0,415.65)" d="M80,0h540" style="stroke: rgb(255, 255, 255); stroke-opacity: 1; stroke-width: 1px;"/><path class="ygrid crisp" transform="translate(0,364.95)" d="M80,0h540" style="stroke: rgb(255, 255, 255); stroke-opacity: 1; stroke-width: 1px;"/><path class="ygrid crisp" transform="translate(0,263.55)" d="M80,0h540" style="stroke: rgb(255, 255, 255); stroke-opacity: 1; stroke-width: 1px;"/><path class="ygrid crisp" transform="translate(0,212.85)" d="M80,0h540" style="stroke: rgb(255, 255, 255); stroke-opacity: 1; stroke-width: 1px;"/><path class="ygrid crisp" transform="translate(0,162.15)" d="M80,0h540" style="stroke: rgb(255, 255, 255); stroke-opacity: 1; stroke-width: 1px;"/><path class="ygrid crisp" transform="translate(0,111.44)" d="M80,0h540" style="stroke: rgb(255, 255, 255); stroke-opacity: 1; stroke-width: 1px;"/></g></g><g class="zerolinelayer"><path class="yzl zl crisp" transform="translate(0,314.25)" d="M80,0h540" style="stroke: rgb(255, 255, 255); stroke-opacity: 1; stroke-width: 2px;"/></g><path class="xlines-below"/><path class="ylines-below"/><g class="overlines-below"/><g class="xaxislayer-below"/><g class="yaxislayer-below"/><g class="overaxes-below"/><g class="plot" transform="translate(80,100)" clip-path="url(#clip403f7fxyplot)"><g class="scatterlayer mlayer"><g class="trace scatter traceb8f35f" style="stroke-miterlimit: 2;"><g class="fills"><g><path class="js-fill" d="M540,214.25L0,214.25L0,209.63L3.51,203.3L7.01,204.61L10.52,203L14.03,211.25L17.53,205.43L21.04,203.84L24.55,203.92L28.05,198.58L31.56,209.7L35.06,200.58L38.57,194.47L42.08,195.73L45.58,199.2L49.09,193.8L52.6,194.12L56.1,190.06L59.61,190.16L63.12,193.47L66.62,191.39L70.13,191.77L73.64,196.25L77.14,193.71L80.65,193.38L84.16,195.59L87.66,195.51L91.17,193.18L94.68,189.97L98.18,189.08L101.69,184.61L105.19,185.35L108.7,184.11L112.21,186.01L115.71,187.06L119.22,178.34L122.73,138.63L126.23,66.98L129.74,50.61L133.25,49.46L140.26,32.94L143.77,35.27L147.27,16L150.78,17.93L154.29,19.27L157.79,24.93L161.3,27.19L164.81,21.26L168.31,37.81L171.82,59.34L175.32,52.77L178.83,56.43L182.34,58.01L185.84,61.25L189.35,61.06L192.86,56.94L196.36,55.49L199.87,57.11L203.38,56.91L206.88,63.44L210.39,55.92L213.9,53.22L217.4,53.37L220.91,55.39L224.42,53.7L227.92,53.29L231.43,58.94L234.94,67.56L238.44,61.26L241.95,36.85L245.45,34.75L248.96,37.28L252.47,44.89L255.97,46.2L259.48,48.71L262.99,44.95L270,45.69L273.51,46.11L277.01,53.14L280.52,52.39L287.53,53.01L291.04,44.9L294.55,47.3L298.05,39.6L301.56,40.14L305.06,24.66L308.57,30.89L312.08,29.11L315.58,41.62L319.09,37.08L322.6,45.38L326.1,43.66L333.12,46.52L336.62,45.02L340.13,51.78L343.64,53.85L347.14,54.63L350.65,54.61L354.16,55.42L357.66,52.53L361.17,50.9L364.68,43.17L368.18,54.72L371.69,60.76L375.19,64.61L378.7,65.52L382.21,62.57L385.71,61.05L389.22,71.33L392.73,75.12L396.23,73.06L399.74,79.35L403.25,79.44L406.75,93.99L410.26,105.62L413.77,127.04L417.27,129.27L420.78,126.05L424.29,128.32L427.79,120.7L431.3,124.06L434.81,120.12L438.31,125.27L441.82,118.37L445.32,116.1L448.83,117.42L452.34,115.15L455.84,111.25L459.35,105.9L462.86,104.18L466.36,109.56L469.87,106.27L480.39,98.44L483.9,95.62L487.4,102.14L490.91,102.17L501.43,89.58L504.94,89.98L508.44,87.28L511.95,89.74L515.45,100.1L518.96,98.94L522.47,95.78L525.97,106.66L529.48,96.4L532.99,97.24L536.49,92.62L540,99.77L540,304" style="fill: rgb(99, 110, 250); fill-opacity: 0.5; stroke-width: 0;"/></g></g><g class="errorbars"/><g class="lines"><path class="js-line" d="M0,209.63L3.51,203.3L7.01,204.61L10.52,203L14.03,211.25L17.53,205.43L21.04,203.84L24.55,203.92L28.05,198.58L31.56,209.7L35.06,200.58L38.57,194.47L42.08,195.73L45.58,199.2L49.09,193.8L52.6,194.12L56.1,190.06L59.61,190.16L63.12,193.47L66.62,191.39L70.13,191.77L73.64,196.25L77.14,193.71L80.65,193.38L84.16,195.59L87.66,195.51L91.17,193.18L94.68,189.97L98.18,189.08L101.69,184.61L105.19,185.35L108.7,184.11L112.21,186.01L115.71,187.06L119.22,178.34L122.73,138.63L126.23,66.98L129.74,50.61L133.25,49.46L140.26,32.94L143.77,35.27L147.27,16L150.78,17.93L154.29,19.27L157.79,24.93L161.3,27.19L164.81,21.26L168.31,37.81L171.82,59.34L175.32,52.77L178.83,56.43L182.34,58.01L185.84,61.25L189.35,61.06L192.86,56.94L196.36,55.49L199.87,57.11L203.38,56.91L206.88,63.44L210.39,55.92L213.9,53.22L217.4,53.37L220.91,55.39L224.42,53.7L227.92,53.29L231.43,58.94L234.94,67.56L238.44,61.26L241.95,36.85L245.45,34.75L248.96,37.28L252.47,44.89L255.97,46.2L259.48,48.71L262.99,44.95L270,45.69L273.51,46.11L277.01,53.14L280.52,52.39L287.53,53.01L291.04,44.9L294.55,47.3L298.05,39.6L301.56,40.14L305.06,24.66L308.57,30.89L312.08,29.11L315.58,41.62L319.09,37.08L322.6,45.38L326.1,43.66L333.12,46.52L336.62,45.02L340.13,51.78L343.64,53.85L347.14,54.63L350.65,54.61L354.16,55.42L357.66,52.53L361.17,50.9L364.68,43.17L368.18,54.72L371.69,60.76L375.19,64.61L378.7,65.52L382.21,62.57L385.71,61.05L389.22,71.33L392.73,75.12L396.23,73.06L399.74,79.35L403.25,79.44L406.75,93.99L410.26,105.62L413.77,127.04L417.27,129.27L420.78,126.05L424.29,128.32L427.79,120.7L431.3,124.06L434.81,120.12L438.31,125.27L441.82,118.37L445.32,116.1L448.83,117.42L452.34,115.15L455.84,111.25L459.35,105.9L462.86,104.18L466.36,109.56L469.87,106.27L480.39,98.44L483.9,95.62L487.4,102.14L490.91,102.17L501.43,89.58L504.94,89.98L508.44,87.28L511.95,89.74L515.45,100.1L518.96,98.94L522.47,95.78L525.97,106.66L529.48,96.4L532.99,97.24L536.49,92.62L540,99.77L540,304" style="vector-effect: non-scaling-stroke; fill: none; stroke: rgb(99, 110, 250); stroke-opacity: 1; stroke-width: 2px; opacity: 1;"/></g><g class="points"/><g class="text"/></g></g></g><g class="overplot"/><path class="xlines-above crisp" d="M0,0" style="fill: none;"/><path class="ylines-above crisp" d="M0,0" style="fill: none;"/><g class="overlines-above"/><g class="xaxislayer-above"><g class="xtick"><text text-anchor="middle" x="0" y="433" transform="translate(111.56,0)" style="font-family: 'Open Sans', verdana, arial, sans-serif; font-size: 12px; fill: rgb(42, 63, 95); fill-opacity: 1; white-space: pre; opacity: 1;">Oct 2022</text></g><g class="xtick"><text text-anchor="middle" x="0" y="433" style="font-family: 'Open Sans', verdana, arial, sans-serif; font-size: 12px; fill: rgb(42, 63, 95); fill-opacity: 1; white-space: pre; opacity: 1;" transform="translate(220.26,0)">Nov 2022</text></g><g class="xtick"><text text-anchor="middle" x="0" y="433" style="font-family: 'Open Sans', verdana, arial, sans-serif; font-size: 12px; fill: rgb(42, 63, 95); fill-opacity: 1; white-space: pre; opacity: 1;" transform="translate(325.45,0)">Dec 2022</text></g><g class="xtick"><text text-anchor="middle" x="0" y="433" style="font-family: 'Open Sans', verdana, arial, sans-serif; font-size: 12px; fill: rgb(42, 63, 95); fill-opacity: 1; white-space: pre; opacity: 1;" transform="translate(434.16,0)">Jan 2023</text></g><g class="xtick"><text text-anchor="middle" x="0" y="433" style="font-family: 'Open Sans', verdana, arial, sans-serif; font-size: 12px; fill: rgb(42, 63, 95); fill-opacity: 1; white-space: pre; opacity: 1;" transform="translate(542.86,0)">Feb 2023</text></g></g><g class="yaxislayer-above"><g class="ytick"><text text-anchor="end" x="79" y="4.199999999999999" transform="translate(0,415.65)" style="font-family: 'Open Sans', verdana, arial, sans-serif; font-size: 12px; fill: rgb(42, 63, 95); fill-opacity: 1; white-space: pre; opacity: 1;">$−4M</text></g><g class="ytick"><text text-anchor="end" x="79" y="4.199999999999999" style="font-family: 'Open Sans', verdana, arial, sans-serif; font-size: 12px; fill: rgb(42, 63, 95); fill-opacity: 1; white-space: pre; opacity: 1;" transform="translate(0,364.95)">$−2M</text></g><g class="ytick"><text text-anchor="end" x="79" y="4.199999999999999" style="font-family: 'Open Sans', verdana, arial, sans-serif; font-size: 12px; fill: rgb(42, 63, 95); fill-opacity: 1; white-space: pre; opacity: 1;" transform="translate(0,314.25)">$0</text></g><g class="ytick"><text text-anchor="end" x="79" y="4.199999999999999" style="font-family: 'Open Sans', verdana, arial, sans-serif; font-size: 12px; fill: rgb(42, 63, 95); fill-opacity: 1; white-space: pre; opacity: 1;" transform="translate(0,263.55)">$2M</text></g><g class="ytick"><text text-anchor="end" x="79" y="4.199999999999999" style="font-family: 'Open Sans', verdana, arial, sans-serif; font-size: 12px; fill: rgb(42, 63, 95); fill-opacity: 1; white-space: pre; opacity: 1;" transform="translate(0,212.85)">$4M</text></g><g class="ytick"><text text-anchor="end" x="79" y="4.199999999999999" style="font-family: 'Open Sans', verdana, arial, sans-serif; font-size: 12px; fill: rgb(42, 63, 95); fill-opacity: 1; white-space: pre; opacity: 1;" transform="translate(0,162.15)">$6M</text></g><g class="ytick"><text text-anchor="end" x="79" y="4.199999999999999" style="font-family: 'Open Sans', verdana, arial, sans-serif; font-size: 12px; fill: rgb(42, 63, 95); fill-opacity: 1; white-space: pre; opacity: 1;" transform="translate(0,111.44)">$8M</text></g></g><g class="overaxes-above"/></g></g><g class="polarlayer"/><g class="smithlayer"/><g class="ternarylayer"/><g class="geolayer"/><g class="funnelarealayer"/><g class="pielayer"/><g class="iciclelayer"/><g class="treemaplayer"/><g class="sunburstlayer"/><g class="glimages"/><defs id="topdefs-403f7f"><g class="clips"/></defs><g class="layer-above"><g class="imagelayer"/><g class="shapelayer"/></g><g class="infolayer"><g class="g-gtitle"><text class="gtitle" x="35" y="50" text-anchor="start" dy="0em" style="font-family: 'Open Sans', verdana, arial, sans-serif; font-size: 17px; fill: rgb(42, 63, 95); opacity: 1; font-weight: normal; white-space: pre;"><tspan class="line" dy="0em" x="35" y="50">Hop Protocol</tspan><tspan class="line" dy="1.3em" x="35" y="50">​<tspan style="font-size:70%" dy="-0.6em">Cumulative Net Flows since Program Announcement, Until Program End + 30 Days - At Last Price</tspan><tspan dy="0.42em">​</tspan></tspan></text></g><g class="g-xtitle"><text class="xtitle" x="350" y="460.8" text-anchor="middle" style="font-family: 'Open Sans', verdana, arial, sans-serif; font-size: 14px; fill: rgb(42, 63, 95); opacity: 1; font-weight: normal; white-space: pre;">Day</text></g><g class="g-ytitle"><text class="ytitle" transform="rotate(-90,23.840625000000003,260)" x="23.840625000000003" y="260" text-anchor="middle" style="font-family: 'Open Sans', verdana, arial, sans-serif; font-size: 14px; fill: rgb(42, 63, 95); opacity: 1; font-weight: normal; white-space: pre;">Cumulative Net Flows (USD)</text></g></g></svg>