<svg class="main-svg" xmlns="http://www.w3.org/2000/svg" xmlns:xlink="http://www.w3.org/1999/xlink" width="700" height="500" style="" viewBox="0 0 700 500"><rect x="0" y="0" width="700" height="500" style="fill: rgb(255, 255, 255); fill-opacity: 1;"/><defs id="defs-b3fb1c"><g class="clips"><clipPath id="clipb3fb1cxyplot" class="plotclip"><rect width="449" height="320"/></clipPath><clipPath class="axesclip" id="clipb3fb1cx"><rect x="80" y="0" width="449" height="500"/></clipPath><clipPath class="axesclip" id="clipb3fb1cy"><rect x="0" y="100" width="700" height="320"/></clipPath><clipPath class="axesclip" id="clipb3fb1cxy"><rect x="80" y="100" width="449" height="320"/></clipPath></g><g class="gradients"/><g class="patterns"/></defs><g class="bglayer"><rect class="bg" x="80" y="100" width="449" height="320" style="fill: rgb(229, 236, 246); fill-opacity: 1; stroke-width: 0;"/></g><g class="layer-below"><g class="imagelayer"/><g class="shapelayer"/></g><g class="cartesianlayer"><g class="subplot xy"><g class="layer-subplot"><g class="shapelayer"/><g class="imagelayer"/></g><g class="minor-gridlayer"><g class="x"/><g class="y"/></g><g class="gridlayer"><g class="x"><path class="xgrid crisp" transform="translate(98.05,0)" d="M0,100v320" style="stroke: rgb(255, 255, 255); stroke-opacity: 1; stroke-width: 1px;"/><path class="xgrid crisp" transform="translate(161.23000000000002,0)" d="M0,100v320" style="stroke: rgb(255, 255, 255); stroke-opacity: 1; stroke-width: 1px;"/><path class="xgrid crisp" transform="translate(224.4,0)" d="M0,100v320" style="stroke: rgb(255, 255, 255); stroke-opacity: 1; stroke-width: 1px;"/><path class="xgrid crisp" transform="translate(287.58000000000004,0)" d="M0,100v320" style="stroke: rgb(255, 255, 255); stroke-opacity: 1; stroke-width: 1px;"/><path class="xgrid crisp" transform="translate(350.75,0)" d="M0,100v320" style="stroke: rgb(255, 255, 255); stroke-opacity: 1; stroke-width: 1px;"/><path class="xgrid crisp" transform="translate(413.93,0)" d="M0,100v320" style="stroke: rgb(255, 255, 255); stroke-opacity: 1; stroke-width: 1px;"/><path class="xgrid crisp" transform="translate(477.11,0)" d="M0,100v320" style="stroke: rgb(255, 255, 255); stroke-opacity: 1; stroke-width: 1px;"/></g><g class="y"><path class="ygrid crisp" transform="translate(0,344.23)" d="M80,0h449" style="stroke: rgb(255, 255, 255); stroke-opacity: 1; stroke-width: 1px;"/><path class="ygrid crisp" transform="translate(0,293.69)" d="M80,0h449" style="stroke: rgb(255, 255, 255); stroke-opacity: 1; stroke-width: 1px;"/><path class="ygrid crisp" transform="translate(0,243.14)" d="M80,0h449" style="stroke: rgb(255, 255, 255); stroke-opacity: 1; stroke-width: 1px;"/><path class="ygrid crisp" transform="translate(0,192.6)" d="M80,0h449" style="stroke: rgb(255, 255, 255); stroke-opacity: 1; stroke-width: 1px;"/><path class="ygrid crisp" transform="translate(0,142.06)" d="M80,0h449" style="stroke: rgb(255, 255, 255); stroke-opacity: 1; stroke-width: 1px;"/></g></g><g class="zerolinelayer"><path class="yzl zl crisp" transform="translate(0,394.77)" d="M80,0h449" style="stroke: rgb(255, 255, 255); stroke-opacity: 1; stroke-width: 2px;"/></g><path class="xlines-below"/><path class="ylines-below"/><g class="overlines-below"/><g class="xaxislayer-below"/><g class="yaxislayer-below"/><g class="overaxes-below"/><g class="plot" transform="translate(80,100)" clip-path="url(#clipb3fb1cxyplot)"><g class="scatterlayer mlayer"><g class="trace scatter trace50717b" style="stroke-miterlimit: 2;"><g class="fills"><g><path class="js-fill" d="M449,294.77L0,294.77L0,294.56L4.51,293.92L9.03,291.32L13.54,288.99L18.05,283.16L22.56,281.7L27.08,278.31L31.59,276.26L36.1,272.8L49.64,269.61L54.15,268.41L63.18,264.83L67.69,259.2L72.2,257.31L76.71,251.6L81.23,245.49L85.74,244.63L90.25,244.44L94.76,246.54L99.28,246.31L103.79,251.25L108.3,248.41L112.81,249.19L117.33,250.3L121.84,250.12L130.86,253.53L135.38,258.83L144.4,266.21L148.91,268.2L153.43,271.8L157.94,272.51L162.45,273.83L166.97,271.94L189.53,272.75L194.04,272.09L198.55,273.05L203.07,273.16L212.09,273.22L216.6,273.92L225.63,274.53L230.14,274.59L234.65,275.33L239.17,275.19L243.68,275.33L248.19,276.98L257.22,276.63L261.73,277.73L275.27,278.45L279.78,278.58L288.8,281.04L293.32,280.97L302.34,278.95L306.85,279.16L324.91,279.6L329.42,279.43L351.98,279.33L356.49,279.34L383.57,278.33L388.08,275.34L397.11,273.49L401.62,270.34L406.13,269.56L410.64,269.66L415.16,268.44L419.67,263.17L424.18,262.19L428.69,262.14L437.72,261.24L442.23,259.94L446.74,259.88L449,257.85" style="fill: rgb(99, 110, 250); fill-opacity: 0.5; stroke-width: 0;"/></g></g><g class="errorbars"/><g class="lines"><path class="js-line" d="M0,294.56L4.51,293.92L9.03,291.32L13.54,288.99L18.05,283.16L22.56,281.7L27.08,278.31L31.59,276.26L36.1,272.8L49.64,269.61L54.15,268.41L63.18,264.83L67.69,259.2L72.2,257.31L76.71,251.6L81.23,245.49L85.74,244.63L90.25,244.44L94.76,246.54L99.28,246.31L103.79,251.25L108.3,248.41L112.81,249.19L117.33,250.3L121.84,250.12L130.86,253.53L135.38,258.83L144.4,266.21L148.91,268.2L153.43,271.8L157.94,272.51L162.45,273.83L166.97,271.94L189.53,272.75L194.04,272.09L198.55,273.05L203.07,273.16L212.09,273.22L216.6,273.92L225.63,274.53L230.14,274.59L234.65,275.33L239.17,275.19L243.68,275.33L248.19,276.98L257.22,276.63L261.73,277.73L275.27,278.45L279.78,278.58L288.8,281.04L293.32,280.97L302.34,278.95L306.85,279.16L324.91,279.6L329.42,279.43L351.98,279.33L356.49,279.34L383.57,278.33L388.08,275.34L397.11,273.49L401.62,270.34L406.13,269.56L410.64,269.66L415.16,268.44L419.67,263.17L424.18,262.19L428.69,262.14L437.72,261.24L442.23,259.94L446.74,259.88L449,257.85" style="vector-effect: non-scaling-stroke; fill: none; stroke: rgb(99, 110, 250); stroke-opacity: 1; stroke-width: 2px; opacity: 1;"/></g><g class="points"/><g class="text"/></g><g class="trace scatter tracec95dc5" style="stroke-miterlimit: 2;"><g class="fills"><g><path class="js-fill" d="M449,294.77L4.51,294.77L4.51,294.83L22.56,294.75L27.08,298.05L40.61,297.88L45.13,297.94L63.18,297.95L67.69,297.95L198.55,297.59L203.07,297.64L221.12,297.85L225.63,297.92L270.75,297.71L275.27,297.72L297.83,297.79L302.34,297.78L379.06,297.38L383.57,297.36L449,297.17" style="fill: rgb(239, 85, 59); fill-opacity: 0.5; stroke-width: 0;"/></g></g><g class="errorbars"/><g class="lines"><path class="js-line" d="M4.51,294.83L22.56,294.75L27.08,298.05L40.61,297.88L45.13,297.94L63.18,297.95L67.69,297.95L198.55,297.59L203.07,297.64L221.12,297.85L225.63,297.92L270.75,297.71L275.27,297.72L297.83,297.79L302.34,297.78L379.06,297.38L383.57,297.36L449,297.17" style="vector-effect: non-scaling-stroke; fill: none; stroke: rgb(239, 85, 59); stroke-opacity: 1; stroke-width: 2px; opacity: 1;"/></g><g class="points"/><g class="text"/></g><g class="trace scatter trace835a71" style="stroke-miterlimit: 2;"><g class="fills"><g><path class="js-fill" d="M449,294.77L4.51,294.77L4.51,294.73L45.13,294.23L49.64,293.82L58.66,293.5L63.18,291.92L67.69,288.42L72.2,286.07L81.23,284.77L85.74,284.47L99.28,283.31L103.79,281.7L108.3,281.1L112.81,279.51L117.33,279.37L121.84,278.44L130.86,277.49L135.38,277.21L144.4,278.84L148.91,281.27L157.94,279.43L162.45,279.66L180.5,279.62L185.02,280.61L194.04,279.82L198.55,277.24L203.07,277.99L207.58,277.89L221.12,278.21L225.63,278.7L234.65,279.37L239.17,279.36L275.27,279.85L279.78,280.3L288.8,282.42L338.44,278.67L370.03,277.99L374.54,276.97L392.59,277.16L397.11,258.72L415.16,258.76L419.67,259.26L449,259.36" style="fill: rgb(0, 204, 150); fill-opacity: 0.5; stroke-width: 0;"/></g></g><g class="errorbars"/><g class="lines"><path class="js-line" d="M4.51,294.73L45.13,294.23L49.64,293.82L58.66,293.5L63.18,291.92L67.69,288.42L72.2,286.07L81.23,284.77L85.74,284.47L99.28,283.31L103.79,281.7L108.3,281.1L112.81,279.51L117.33,279.37L121.84,278.44L130.86,277.49L135.38,277.21L144.4,278.84L148.91,281.27L157.94,279.43L162.45,279.66L180.5,279.62L185.02,280.61L194.04,279.82L198.55,277.24L203.07,277.99L207.58,277.89L221.12,278.21L225.63,278.7L234.65,279.37L239.17,279.36L275.27,279.85L279.78,280.3L288.8,282.42L338.44,278.67L370.03,277.99L374.54,276.97L392.59,277.16L397.11,258.72L415.16,258.76L419.67,259.26L449,259.36" style="vector-effect: non-scaling-stroke; fill: none; stroke: rgb(0, 204, 150); stroke-opacity: 1; stroke-width: 2px; opacity: 1;"/></g><g class="points"/><g class="text"/></g><g class="trace scatter trace2d98e0" style="stroke-miterlimit: 2;"><g class="fills"><g><path class="js-fill" d="M449,294.77L4.51,294.77L4.51,294.78L449,294.77" style="fill: rgb(171, 99, 250); fill-opacity: 0.5; stroke-width: 0;"/></g></g><g class="errorbars"/><g class="lines"><path class="js-line" d="M4.51,294.78L449,294.77" style="vector-effect: non-scaling-stroke; fill: none; stroke: rgb(171, 99, 250); stroke-opacity: 1; stroke-width: 2px; opacity: 1;"/></g><g class="points"/><g class="text"/></g><g class="trace scatter trace009f6c" style="stroke-miterlimit: 2;"><g class="fills"><g><path class="js-fill" d="M449,294.77L9.03,294.77L9.03,294.77L103.79,293.68L108.3,292.35L130.86,291.82L135.38,291.84L257.22,292.77L261.73,292.42L279.78,292.2L284.29,292.86L320.39,292.69L324.91,292.61L356.49,291.87L361.01,291.76L449,291.75" style="fill: rgb(255, 161, 90); fill-opacity: 0.5; stroke-width: 0;"/></g></g><g class="errorbars"/><g class="lines"><path class="js-line" d="M9.03,294.77L103.79,293.68L108.3,292.35L130.86,291.82L135.38,291.84L257.22,292.77L261.73,292.42L279.78,292.2L284.29,292.86L320.39,292.69L324.91,292.61L356.49,291.87L361.01,291.76L449,291.75" style="vector-effect: non-scaling-stroke; fill: none; stroke: rgb(255, 161, 90); stroke-opacity: 1; stroke-width: 2px; opacity: 1;"/></g><g class="points"/><g class="text"/></g><g class="trace scatter tracef7e176" style="stroke-miterlimit: 2;"><g class="fills"><g><path class="js-fill" d="M449,294.77L90.25,294.77L90.25,294.76L94.76,293.85L99.28,291.64L108.3,290.49L112.81,290.13L121.84,289.24L126.35,287.8L171.48,286.82L175.99,287.12L279.78,289L284.29,289.29L293.32,289.18L297.83,287.97L333.93,287.23L338.44,287L401.62,287.3L406.13,287.45L428.69,287.29L433.21,288.12L449,288.41" style="fill: rgb(25, 211, 243); fill-opacity: 0.5; stroke-width: 0;"/></g></g><g class="errorbars"/><g class="lines"><path class="js-line" d="M90.25,294.76L94.76,293.85L99.28,291.64L108.3,290.49L112.81,290.13L121.84,289.24L126.35,287.8L171.48,286.82L175.99,287.12L279.78,289L284.29,289.29L293.32,289.18L297.83,287.97L333.93,287.23L338.44,287L401.62,287.3L406.13,287.45L428.69,287.29L433.21,288.12L449,288.41" style="vector-effect: non-scaling-stroke; fill: none; stroke: rgb(25, 211, 243); stroke-opacity: 1; stroke-width: 2px; opacity: 1;"/></g><g class="points"/><g class="text"/></g><g class="trace scatter trace84842f" style="stroke-miterlimit: 2;"><g class="fills"><g><path class="js-fill" d="M449,294.77L94.76,294.77L94.76,294.73L103.79,293.56L108.3,293.07L135.38,292.85L139.89,292.76L356.49,292.99L361.01,293L449,293.01" style="fill: rgb(255, 102, 146); fill-opacity: 0.5; stroke-width: 0;"/></g></g><g class="errorbars"/><g class="lines"><path class="js-line" d="M94.76,294.73L103.79,293.56L108.3,293.07L135.38,292.85L139.89,292.76L356.49,292.99L361.01,293L449,293.01" style="vector-effect: non-scaling-stroke; fill: none; stroke: rgb(255, 102, 146); stroke-opacity: 1; stroke-width: 2px; opacity: 1;"/></g><g class="points"/><g class="text"/></g><g class="trace scatter traceb80910" style="stroke-miterlimit: 2;"><g class="fills"><g><path class="js-fill" d="M449,294.77L99.28,294.77L99.28,294.32L103.79,173.43L108.3,88.48L112.81,55.79L117.33,35.77L121.84,38.83L126.35,31.45L130.86,16.46L135.38,16L139.89,16.65L144.4,34.82L148.91,42.21L153.43,42.13L162.45,49.39L166.97,103.52L175.99,105.43L180.5,104.63L185.02,112.03L189.53,107.55L194.04,105.61L198.55,98.8L203.07,99.92L207.58,96.57L212.09,100.26L216.6,102.14L221.12,90.28L225.63,88.2L230.14,87.71L234.65,88.29L239.17,89.36L243.68,89.14L252.7,108.44L257.22,109.69L261.73,116.59L266.24,109.33L275.27,107.82L279.78,105.33L284.29,105.71L288.8,112.25L297.83,103.63L302.34,101.49L306.85,102.14L311.37,98.65L320.39,97.32L324.91,95.09L329.42,94.92L333.93,93.42L338.44,96.85L342.96,95.33L347.47,93.48L351.98,81L356.49,75.68L361.01,76.64L365.52,76.59L370.03,75.36L374.54,71.23L379.06,69.92L383.57,72.03L388.08,72.75L392.59,73.69L397.11,70.8L401.62,74.32L406.13,76.25L410.64,76.59L415.16,79.21L419.67,80.5L424.18,77.96L428.69,78.2L433.21,79.43L437.72,98.99L442.23,96.06L446.74,93.1L449,93.03" style="fill: rgb(182, 232, 128); fill-opacity: 0.5; stroke-width: 0;"/></g></g><g class="errorbars"/><g class="lines"><path class="js-line" d="M99.28,294.32L103.79,173.43L108.3,88.48L112.81,55.79L117.33,35.77L121.84,38.83L126.35,31.45L130.86,16.46L135.38,16L139.89,16.65L144.4,34.82L148.91,42.21L153.43,42.13L162.45,49.39L166.97,103.52L175.99,105.43L180.5,104.63L185.02,112.03L189.53,107.55L194.04,105.61L198.55,98.8L203.07,99.92L207.58,96.57L212.09,100.26L216.6,102.14L221.12,90.28L225.63,88.2L230.14,87.71L234.65,88.29L239.17,89.36L243.68,89.14L252.7,108.44L257.22,109.69L261.73,116.59L266.24,109.33L275.27,107.82L279.78,105.33L284.29,105.71L288.8,112.25L297.83,103.63L302.34,101.49L306.85,102.14L311.37,98.65L320.39,97.32L324.91,95.09L329.42,94.92L333.93,93.42L338.44,96.85L342.96,95.33L347.47,93.48L351.98,81L356.49,75.68L361.01,76.64L365.52,76.59L370.03,75.36L374.54,71.23L379.06,69.92L383.57,72.03L388.08,72.75L392.59,73.69L397.11,70.8L401.62,74.32L406.13,76.25L410.64,76.59L415.16,79.21L419.67,80.5L424.18,77.96L428.69,78.2L433.21,79.43L437.72,98.99L442.23,96.06L446.74,93.1L449,93.03" style="vector-effect: non-scaling-stroke; fill: none; stroke: rgb(182, 232, 128); stroke-opacity: 1; stroke-width: 2px; opacity: 1;"/></g><g class="points"/><g class="text"/></g><g class="trace scatter trace04176f" style="stroke-miterlimit: 2;"><g class="fills"><g><path class="js-fill" d="M449,294.77L103.79,294.77L103.79,295.7L108.3,289.95L112.81,290.75L130.86,291.57L135.38,291.07L139.89,290.01L144.4,291.4L157.94,290.31L162.45,290.51L166.97,290.66L171.48,289.82L185.02,289.36L189.53,288.82L203.07,289.37L207.58,289.25L216.6,288.47L221.12,287.88L225.63,287.6L230.14,286.41L239.17,285.92L243.68,285.3L248.19,286.99L252.7,287.51L257.22,287.94L261.73,286L284.29,283.88L288.8,285.8L315.88,285.56L320.39,287.23L329.42,286.88L333.93,287.45L338.44,287.6L342.96,286.76L351.98,285.85L356.49,286.45L365.52,286.56L370.03,285.97L379.06,286.99L383.57,286.03L397.11,283.45L401.62,283.47L406.13,283.16L410.64,279.45L419.67,278.65L424.18,278.8L442.23,278.47L446.74,278.37L449,278.37" style="fill: rgb(255, 151, 255); fill-opacity: 0.5; stroke-width: 0;"/></g></g><g class="errorbars"/><g class="lines"><path class="js-line" d="M103.79,295.7L108.3,289.95L112.81,290.75L130.86,291.57L135.38,291.07L139.89,290.01L144.4,291.4L157.94,290.31L162.45,290.51L166.97,290.66L171.48,289.82L185.02,289.36L189.53,288.82L203.07,289.37L207.58,289.25L216.6,288.47L221.12,287.88L225.63,287.6L230.14,286.41L239.17,285.92L243.68,285.3L248.19,286.99L252.7,287.51L257.22,287.94L261.73,286L284.29,283.88L288.8,285.8L315.88,285.56L320.39,287.23L329.42,286.88L333.93,287.45L338.44,287.6L342.96,286.76L351.98,285.85L356.49,286.45L365.52,286.56L370.03,285.97L379.06,286.99L383.57,286.03L397.11,283.45L401.62,283.47L406.13,283.16L410.64,279.45L419.67,278.65L424.18,278.8L442.23,278.47L446.74,278.37L449,278.37" style="vector-effect: non-scaling-stroke; fill: none; stroke: rgb(255, 151, 255); stroke-opacity: 1; stroke-width: 2px; opacity: 1;"/></g><g class="points"/><g class="text"/></g><g class="trace scatter trace641aa2" style="stroke-miterlimit: 2;"><g class="fills"><g><path class="js-fill" d="M449,294.77L194.04,294.77L194.04,293.91L203.07,293.42L207.58,294.49L212.09,293.79L216.6,299.43L221.12,295.02L225.63,294.9L234.65,297.08L239.17,296.14L248.19,297.44L252.7,296.15L257.22,297.77L261.73,296.2L270.75,296.52L275.27,295.19L279.78,295.37L284.29,294.67L288.8,295.9L293.32,295.48L297.83,302.83L302.34,304L306.85,299.19L311.37,299.5L315.88,296.78L320.39,295.89L324.91,299.74L329.42,298.93L333.93,297.84L338.44,295.82L342.96,295.9L347.47,294.95L351.98,296.41L356.49,296.31L361.01,297.28L365.52,296.04L370.03,295.57L374.54,296.41L379.06,296.45L383.57,297.4L392.59,297.8L397.11,297.66L415.16,297.56L419.67,299.33L424.18,298.19L428.69,298.56L433.21,300.59L442.23,300.92L446.74,298.85L449,299.23" style="fill: rgb(254, 203, 82); fill-opacity: 0.5; stroke-width: 0;"/></g></g><g class="errorbars"/><g class="lines"><path class="js-line" d="M194.04,293.91L203.07,293.42L207.58,294.49L212.09,293.79L216.6,299.43L221.12,295.02L225.63,294.9L234.65,297.08L239.17,296.14L248.19,297.44L252.7,296.15L257.22,297.77L261.73,296.2L270.75,296.52L275.27,295.19L279.78,295.37L284.29,294.67L288.8,295.9L293.32,295.48L297.83,302.83L302.34,304L306.85,299.19L311.37,299.5L315.88,296.78L320.39,295.89L324.91,299.74L329.42,298.93L333.93,297.84L338.44,295.82L342.96,295.9L347.47,294.95L351.98,296.41L356.49,296.31L361.01,297.28L365.52,296.04L370.03,295.57L374.54,296.41L379.06,296.45L383.57,297.4L392.59,297.8L397.11,297.66L415.16,297.56L419.67,299.33L424.18,298.19L428.69,298.56L433.21,300.59L442.23,300.92L446.74,298.85L449,299.23" style="vector-effect: non-scaling-stroke; fill: none; stroke: rgb(254, 203, 82); stroke-opacity: 1; stroke-width: 2px; opacity: 1;"/></g><g class="points"/><g class="text"/></g><g class="trace scatter trace94ccfb" style="stroke-miterlimit: 2;"><g class="fills"><g><path class="js-fill" d="M449,294.77L212.09,294.77L212.09,294.77L248.19,294.14L252.7,293.64L279.78,292.24L284.29,292.12L311.37,291.44L315.88,291.05L342.96,290.55L347.47,290.75L449,290.34" style="fill: rgb(99, 110, 250); fill-opacity: 0.5; stroke-width: 0;"/></g></g><g class="errorbars"/><g class="lines"><path class="js-line" d="M212.09,294.77L248.19,294.14L252.7,293.64L279.78,292.24L284.29,292.12L311.37,291.44L315.88,291.05L342.96,290.55L347.47,290.75L449,290.34" style="vector-effect: non-scaling-stroke; fill: none; stroke: rgb(99, 110, 250); stroke-opacity: 1; stroke-width: 2px; opacity: 1;"/></g><g class="points"/><g class="text"/></g><g class="trace scatter trace538f2c" style="stroke-miterlimit: 2;"><g class="fills"><g><path class="js-fill" d="M449,294.77L261.73,294.77L261.73,294.7L311.37,294.19L315.88,294.21L383.57,293.78L388.08,293.77L449,294.14" style="fill: rgb(239, 85, 59); fill-opacity: 0.5; stroke-width: 0;"/></g></g><g class="errorbars"/><g class="lines"><path class="js-line" d="M261.73,294.7L311.37,294.19L315.88,294.21L383.57,293.78L388.08,293.77L449,294.14" style="vector-effect: non-scaling-stroke; fill: none; stroke: rgb(239, 85, 59); stroke-opacity: 1; stroke-width: 2px; opacity: 1;"/></g><g class="points"/><g class="text"/></g><g class="trace scatter tracef2fbf4" style="stroke-miterlimit: 2;"><g class="fills"><g><path class="js-fill" d="M449,294.77L275.27,294.77L275.27,294.77L449,294.65" style="fill: rgb(0, 204, 150); fill-opacity: 0.5; stroke-width: 0;"/></g></g><g class="errorbars"/><g class="lines"><path class="js-line" d="M275.27,294.77L449,294.65" style="vector-effect: non-scaling-stroke; fill: none; stroke: rgb(0, 204, 150); stroke-opacity: 1; stroke-width: 2px; opacity: 1;"/></g><g class="points"/><g class="text"/></g><g class="trace scatter trace1a8a88" style="stroke-miterlimit: 2;"><g class="fills"><g><path class="js-fill" d="M448.06,294.77L284.29,294.77L284.29,294.78L448.06,294.69" style="fill: rgb(171, 99, 250); fill-opacity: 0.5; stroke-width: 0;"/></g></g><g class="errorbars"/><g class="lines"><path class="js-line" d="M284.29,294.78L448.06,294.69" style="vector-effect: non-scaling-stroke; fill: none; stroke: rgb(171, 99, 250); stroke-opacity: 1; stroke-width: 2px; opacity: 1;"/></g><g class="points"/><g class="text"/></g><g class="trace scatter tracebf44c3" style="stroke-miterlimit: 2;"><g class="fills"><g><path class="js-fill" d="M449,294.77L306.85,294.77L306.85,294.77L449,294.38" style="fill: rgb(255, 161, 90); fill-opacity: 0.5; stroke-width: 0;"/></g></g><g class="errorbars"/><g class="lines"><path class="js-line" d="M306.85,294.77L449,294.38" style="vector-effect: non-scaling-stroke; fill: none; stroke: rgb(255, 161, 90); stroke-opacity: 1; stroke-width: 2px; opacity: 1;"/></g><g class="points"/><g class="text"/></g><g class="trace scatter tracec81284" style="stroke-miterlimit: 2;"><g class="fills"><g><path class="js-fill" d="M449,294.77L320.39,294.77L320.39,294.69L347.47,294.56L351.98,294.56L397.11,294.29L401.62,294.36L449,294.27" style="fill: rgb(25, 211, 243); fill-opacity: 0.5; stroke-width: 0;"/></g></g><g class="errorbars"/><g class="lines"><path class="js-line" d="M320.39,294.69L347.47,294.56L351.98,294.56L397.11,294.29L401.62,294.36L449,294.27" style="vector-effect: non-scaling-stroke; fill: none; stroke: rgb(25, 211, 243); stroke-opacity: 1; stroke-width: 2px; opacity: 1;"/></g><g class="points"/><g class="text"/></g><g class="trace scatter tracedd433f" style="stroke-miterlimit: 2;"><g class="fills"><g><path class="js-fill" d="M449,294.77L351.98,294.77L351.98,294.76L356.49,293.11L361.01,292.46L365.52,292.03L370.03,292.5L374.54,291.55L379.06,291.43L388.08,291.29L392.59,290.57L397.11,289.98L401.62,288.28L449,288.27" style="fill: rgb(255, 102, 146); fill-opacity: 0.5; stroke-width: 0;"/></g></g><g class="errorbars"/><g class="lines"><path class="js-line" d="M351.98,294.76L356.49,293.11L361.01,292.46L365.52,292.03L370.03,292.5L374.54,291.55L379.06,291.43L388.08,291.29L392.59,290.57L397.11,289.98L401.62,288.28L449,288.27" style="vector-effect: non-scaling-stroke; fill: none; stroke: rgb(255, 102, 146); stroke-opacity: 1; stroke-width: 2px; opacity: 1;"/></g><g class="points"/><g class="text"/></g></g></g><g class="overplot"/><path class="xlines-above crisp" d="M0,0" style="fill: none;"/><path class="ylines-above crisp" d="M0,0" style="fill: none;"/><g class="overlines-above"/><g class="xaxislayer-above"><g class="xtick"><text text-anchor="middle" x="0" y="433" transform="translate(98.05,0)" style="font-family: 'Open Sans', verdana, arial, sans-serif; font-size: 12px; fill: rgb(42, 63, 95); fill-opacity: 1; white-space: pre; opacity: 1;"><tspan class="line" dy="0em" x="0" y="433">Jul 17</tspan><tspan class="line" dy="1.3em" x="0" y="433">2022</tspan></text></g><g class="xtick"><text text-anchor="middle" x="0" y="433" style="font-family: 'Open Sans', verdana, arial, sans-serif; font-size: 12px; fill: rgb(42, 63, 95); fill-opacity: 1; white-space: pre; opacity: 1;" transform="translate(161.23000000000002,0)">Jul 31</text></g><g class="xtick"><text text-anchor="middle" x="0" y="433" style="font-family: 'Open Sans', verdana, arial, sans-serif; font-size: 12px; fill: rgb(42, 63, 95); fill-opacity: 1; white-space: pre; opacity: 1;" transform="translate(224.4,0)">Aug 14</text></g><g class="xtick"><text text-anchor="middle" x="0" y="433" style="font-family: 'Open Sans', verdana, arial, sans-serif; font-size: 12px; fill: rgb(42, 63, 95); fill-opacity: 1; white-space: pre; opacity: 1;" transform="translate(287.58000000000004,0)">Aug 28</text></g><g class="xtick"><text text-anchor="middle" x="0" y="433" style="font-family: 'Open Sans', verdana, arial, sans-serif; font-size: 12px; fill: rgb(42, 63, 95); fill-opacity: 1; white-space: pre; opacity: 1;" transform="translate(350.75,0)">Sep 11</text></g><g class="xtick"><text text-anchor="middle" x="0" y="433" style="font-family: 'Open Sans', verdana, arial, sans-serif; font-size: 12px; fill: rgb(42, 63, 95); fill-opacity: 1; white-space: pre; opacity: 1;" transform="translate(413.93,0)">Sep 25</text></g><g class="xtick"><text text-anchor="middle" x="0" y="433" style="font-family: 'Open Sans', verdana, arial, sans-serif; font-size: 12px; fill: rgb(42, 63, 95); fill-opacity: 1; white-space: pre; opacity: 1;" transform="translate(477.11,0)">Oct 9</text></g></g><g class="yaxislayer-above"><g class="ytick"><text text-anchor="end" x="79" y="4.199999999999999" transform="translate(0,394.77)" style="font-family: 'Open Sans', verdana, arial, sans-serif; font-size: 12px; fill: rgb(42, 63, 95); fill-opacity: 1; white-space: pre; opacity: 1;">$0</text></g><g class="ytick"><text text-anchor="end" x="79" y="4.199999999999999" style="font-family: 'Open Sans', verdana, arial, sans-serif; font-size: 12px; fill: rgb(42, 63, 95); fill-opacity: 1; white-space: pre; opacity: 1;" transform="translate(0,344.23)">$100M</text></g><g class="ytick"><text text-anchor="end" x="79" y="4.199999999999999" style="font-family: 'Open Sans', verdana, arial, sans-serif; font-size: 12px; fill: rgb(42, 63, 95); fill-opacity: 1; white-space: pre; opacity: 1;" transform="translate(0,293.69)">$200M</text></g><g class="ytick"><text text-anchor="end" x="79" y="4.199999999999999" style="font-family: 'Open Sans', verdana, arial, sans-serif; font-size: 12px; fill: rgb(42, 63, 95); fill-opacity: 1; white-space: pre; opacity: 1;" transform="translate(0,243.14)">$300M</text></g><g class="ytick"><text text-anchor="end" x="79" y="4.199999999999999" style="font-family: 'Open Sans', verdana, arial, sans-serif; font-size: 12px; fill: rgb(42, 63, 95); fill-opacity: 1; white-space: pre; opacity: 1;" transform="translate(0,192.6)">$400M</text></g><g class="ytick"><text text-anchor="end" x="79" y="4.199999999999999" style="font-family: 'Open Sans', verdana, arial, sans-serif; font-size: 12px; fill: rgb(42, 63, 95); fill-opacity: 1; white-space: pre; opacity: 1;" transform="translate(0,142.06)">$500M</text></g></g><g class="overaxes-above"/></g></g><g class="polarlayer"/><g class="smithlayer"/><g class="ternarylayer"/><g class="geolayer"/><g class="funnelarealayer"/><g class="pielayer"/><g class="iciclelayer"/><g class="treemaplayer"/><g class="sunburstlayer"/><g class="glimages"/><defs id="topdefs-b3fb1c"><g class="clips"/><clipPath id="legendb3fb1c"><rect width="150" height="320" x="0" y="0"/></clipPath></defs><g class="layer-above"><g class="imagelayer"/><g class="shapelayer"/></g><g class="infolayer"><g class="legend" pointer-events="all" transform="translate(537.98,100)"><rect class="bg" shape-rendering="crispEdges" width="150" height="320" x="0" y="0" style="stroke: rgb(68, 68, 68); stroke-opacity: 1; fill: rgb(255, 255, 255); fill-opacity: 1; stroke-width: 0px;"/><g class="scrollbox" transform="" clip-path="url(#legendb3fb1c)"><text class="legendtitletext" text-anchor="start" x="2" y="18.2" style="font-family: 'Open Sans', verdana, arial, sans-serif; font-size: 14px; fill: rgb(42, 63, 95); fill-opacity: 1; white-space: pre;">App Name</text><g class="groups"><g class="traces" transform="translate(0,32.7)" style="opacity: 1;"><text class="legendtext" text-anchor="start" x="40" y="4.680000000000001" style="font-family: 'Open Sans', verdana, arial, sans-serif; font-size: 12px; fill: rgb(42, 63, 95); fill-opacity: 1; white-space: pre;">velodrome</text><g class="layers"><g class="legendfill"><path class="js-fill" d="M5,-2h30v6h-30z" style="stroke-width: 0; fill: rgb(99, 110, 250); fill-opacity: 0.5;"/></g><g class="legendlines"><path class="js-line" d="M5,-2h30" style="fill: none; stroke: rgb(99, 110, 250); stroke-opacity: 1; stroke-width: 2px;"/></g><g class="legendsymbols"><g class="legendpoints"/></g></g><rect class="legendtoggle" x="0" y="-9.5" width="144.0625" height="19" style="fill: rgb(0, 0, 0); fill-opacity: 0;"/></g><g class="traces" transform="translate(0,51.7)" style="opacity: 1;"><text class="legendtext" text-anchor="start" x="40" y="4.680000000000001" style="font-family: 'Open Sans', verdana, arial, sans-serif; font-size: 12px; fill: rgb(42, 63, 95); fill-opacity: 1; white-space: pre;">perpetual-protocol</text><g class="layers"><g class="legendfill"><path class="js-fill" d="M5,-2h30v6h-30z" style="stroke-width: 0; fill: rgb(239, 85, 59); fill-opacity: 0.5;"/></g><g class="legendlines"><path class="js-line" d="M5,-2h30" style="fill: none; stroke: rgb(239, 85, 59); stroke-opacity: 1; stroke-width: 2px;"/></g><g class="legendsymbols"><g class="legendpoints"/></g></g><rect class="legendtoggle" x="0" y="-9.5" width="144.0625" height="19" style="fill: rgb(0, 0, 0); fill-opacity: 0;"/></g><g class="traces" transform="translate(0,70.7)" style="opacity: 1;"><text class="legendtext" text-anchor="start" x="40" y="4.680000000000001" style="font-family: 'Open Sans', verdana, arial, sans-serif; font-size: 12px; fill: rgb(42, 63, 95); fill-opacity: 1; white-space: pre;">pooltogether</text><g class="layers"><g class="legendfill"><path class="js-fill" d="M5,-2h30v6h-30z" style="stroke-width: 0; fill: rgb(0, 204, 150); fill-opacity: 0.5;"/></g><g class="legendlines"><path class="js-line" d="M5,-2h30" style="fill: none; stroke: rgb(0, 204, 150); stroke-opacity: 1; stroke-width: 2px;"/></g><g class="legendsymbols"><g class="legendpoints"/></g></g><rect class="legendtoggle" x="0" y="-9.5" width="144.0625" height="19" style="fill: rgb(0, 0, 0); fill-opacity: 0;"/></g><g class="traces" transform="translate(0,89.7)" style="opacity: 1;"><text class="legendtext" text-anchor="start" x="40" y="4.680000000000001" style="font-family: 'Open Sans', verdana, arial, sans-serif; font-size: 12px; fill: rgb(42, 63, 95); fill-opacity: 1; white-space: pre;">thales</text><g class="layers"><g class="legendfill"><path class="js-fill" d="M5,-2h30v6h-30z" style="stroke-width: 0; fill: rgb(171, 99, 250); fill-opacity: 0.5;"/></g><g class="legendlines"><path class="js-line" d="M5,-2h30" style="fill: none; stroke: rgb(171, 99, 250); stroke-opacity: 1; stroke-width: 2px;"/></g><g class="legendsymbols"><g class="legendpoints"/></g></g><rect class="legendtoggle" x="0" y="-9.5" width="144.0625" height="19" style="fill: rgb(0, 0, 0); fill-opacity: 0;"/></g><g class="traces" transform="translate(0,108.7)" style="opacity: 1;"><text class="legendtext" text-anchor="start" x="40" y="4.680000000000001" style="font-family: 'Open Sans', verdana, arial, sans-serif; font-size: 12px; fill: rgb(42, 63, 95); fill-opacity: 1; white-space: pre;">rubicon</text><g class="layers"><g class="legendfill"><path class="js-fill" d="M5,-2h30v6h-30z" style="stroke-width: 0; fill: rgb(255, 161, 90); fill-opacity: 0.5;"/></g><g class="legendlines"><path class="js-line" d="M5,-2h30" style="fill: none; stroke: rgb(255, 161, 90); stroke-opacity: 1; stroke-width: 2px;"/></g><g class="legendsymbols"><g class="legendpoints"/></g></g><rect class="legendtoggle" x="0" y="-9.5" width="144.0625" height="19" style="fill: rgb(0, 0, 0); fill-opacity: 0;"/></g><g class="traces" transform="translate(0,127.7)" style="opacity: 1;"><text class="legendtext" text-anchor="start" x="40" y="4.680000000000001" style="font-family: 'Open Sans', verdana, arial, sans-serif; font-size: 12px; fill: rgb(42, 63, 95); fill-opacity: 1; white-space: pre;">lyra</text><g class="layers"><g class="legendfill"><path class="js-fill" d="M5,-2h30v6h-30z" style="stroke-width: 0; fill: rgb(25, 211, 243); fill-opacity: 0.5;"/></g><g class="legendlines"><path class="js-line" d="M5,-2h30" style="fill: none; stroke: rgb(25, 211, 243); stroke-opacity: 1; stroke-width: 2px;"/></g><g class="legendsymbols"><g class="legendpoints"/></g></g><rect class="legendtoggle" x="0" y="-9.5" width="144.0625" height="19" style="fill: rgb(0, 0, 0); fill-opacity: 0;"/></g><g class="traces" transform="translate(0,146.7)" style="opacity: 1;"><text class="legendtext" text-anchor="start" x="40" y="4.680000000000001" style="font-family: 'Open Sans', verdana, arial, sans-serif; font-size: 12px; fill: rgb(42, 63, 95); fill-opacity: 1; white-space: pre;">wepiggy</text><g class="layers"><g class="legendfill"><path class="js-fill" d="M5,-2h30v6h-30z" style="stroke-width: 0; fill: rgb(255, 102, 146); fill-opacity: 0.5;"/></g><g class="legendlines"><path class="js-line" d="M5,-2h30" style="fill: none; stroke: rgb(255, 102, 146); stroke-opacity: 1; stroke-width: 2px;"/></g><g class="legendsymbols"><g class="legendpoints"/></g></g><rect class="legendtoggle" x="0" y="-9.5" width="144.0625" height="19" style="fill: rgb(0, 0, 0); fill-opacity: 0;"/></g><g class="traces" transform="translate(0,165.7)" style="opacity: 1;"><text class="legendtext" text-anchor="start" x="40" y="4.680000000000001" style="font-family: 'Open Sans', verdana, arial, sans-serif; font-size: 12px; fill: rgb(42, 63, 95); fill-opacity: 1; white-space: pre;">aave-v3</text><g class="layers"><g class="legendfill"><path class="js-fill" d="M5,-2h30v6h-30z" style="stroke-width: 0; fill: rgb(182, 232, 128); fill-opacity: 0.5;"/></g><g class="legendlines"><path class="js-line" d="M5,-2h30" style="fill: none; stroke: rgb(182, 232, 128); stroke-opacity: 1; stroke-width: 2px;"/></g><g class="legendsymbols"><g class="legendpoints"/></g></g><rect class="legendtoggle" x="0" y="-9.5" width="144.0625" height="19" style="fill: rgb(0, 0, 0); fill-opacity: 0;"/></g><g class="traces" transform="translate(0,184.7)" style="opacity: 1;"><text class="legendtext" text-anchor="start" x="40" y="4.680000000000001" style="font-family: 'Open Sans', verdana, arial, sans-serif; font-size: 12px; fill: rgb(42, 63, 95); fill-opacity: 1; white-space: pre;">stargate</text><g class="layers"><g class="legendfill"><path class="js-fill" d="M5,-2h30v6h-30z" style="stroke-width: 0; fill: rgb(255, 151, 255); fill-opacity: 0.5;"/></g><g class="legendlines"><path class="js-line" d="M5,-2h30" style="fill: none; stroke: rgb(255, 151, 255); stroke-opacity: 1; stroke-width: 2px;"/></g><g class="legendsymbols"><g class="legendpoints"/></g></g><rect class="legendtoggle" x="0" y="-9.5" width="144.0625" height="19" style="fill: rgb(0, 0, 0); fill-opacity: 0;"/></g><g class="traces" transform="translate(0,203.7)" style="opacity: 1;"><text class="legendtext" text-anchor="start" x="40" y="4.680000000000001" style="font-family: 'Open Sans', verdana, arial, sans-serif; font-size: 12px; fill: rgb(42, 63, 95); fill-opacity: 1; white-space: pre;">synthetix</text><g class="layers"><g class="legendfill"><path class="js-fill" d="M5,-2h30v6h-30z" style="stroke-width: 0; fill: rgb(254, 203, 82); fill-opacity: 0.5;"/></g><g class="legendlines"><path class="js-line" d="M5,-2h30" style="fill: none; stroke: rgb(254, 203, 82); stroke-opacity: 1; stroke-width: 2px;"/></g><g class="legendsymbols"><g class="legendpoints"/></g></g><rect class="legendtoggle" x="0" y="-9.5" width="144.0625" height="19" style="fill: rgb(0, 0, 0); fill-opacity: 0;"/></g><g class="traces" transform="translate(0,222.7)" style="opacity: 1;"><text class="legendtext" text-anchor="start" x="40" y="4.680000000000001" style="font-family: 'Open Sans', verdana, arial, sans-serif; font-size: 12px; fill: rgb(42, 63, 95); fill-opacity: 1; white-space: pre;">pika-protocol</text><g class="layers"><g class="legendfill"><path class="js-fill" d="M5,-2h30v6h-30z" style="stroke-width: 0; fill: rgb(99, 110, 250); fill-opacity: 0.5;"/></g><g class="legendlines"><path class="js-line" d="M5,-2h30" style="fill: none; stroke: rgb(99, 110, 250); stroke-opacity: 1; stroke-width: 2px;"/></g><g class="legendsymbols"><g class="legendpoints"/></g></g><rect class="legendtoggle" x="0" y="-9.5" width="144.0625" height="19" style="fill: rgb(0, 0, 0); fill-opacity: 0;"/></g><g class="traces" transform="translate(0,241.7)" style="opacity: 1;"><text class="legendtext" text-anchor="start" x="40" y="4.680000000000001" style="font-family: 'Open Sans', verdana, arial, sans-serif; font-size: 12px; fill: rgb(42, 63, 95); fill-opacity: 1; white-space: pre;">pickle</text><g class="layers"><g class="legendfill"><path class="js-fill" d="M5,-2h30v6h-30z" style="stroke-width: 0; fill: rgb(239, 85, 59); fill-opacity: 0.5;"/></g><g class="legendlines"><path class="js-line" d="M5,-2h30" style="fill: none; stroke: rgb(239, 85, 59); stroke-opacity: 1; stroke-width: 2px;"/></g><g class="legendsymbols"><g class="legendpoints"/></g></g><rect class="legendtoggle" x="0" y="-9.5" width="144.0625" height="19" style="fill: rgb(0, 0, 0); fill-opacity: 0;"/></g><g class="traces" transform="translate(0,260.7)" style="opacity: 1;"><text class="legendtext" text-anchor="start" x="40" y="4.680000000000001" style="font-family: 'Open Sans', verdana, arial, sans-serif; font-size: 12px; fill: rgb(42, 63, 95); fill-opacity: 1; white-space: pre;">aelin</text><g class="layers"><g class="legendfill"><path class="js-fill" d="M5,-2h30v6h-30z" style="stroke-width: 0; fill: rgb(0, 204, 150); fill-opacity: 0.5;"/></g><g class="legendlines"><path class="js-line" d="M5,-2h30" style="fill: none; stroke: rgb(0, 204, 150); stroke-opacity: 1; stroke-width: 2px;"/></g><g class="legendsymbols"><g class="legendpoints"/></g></g><rect class="legendtoggle" x="0" y="-9.5" width="144.0625" height="19" style="fill: rgb(0, 0, 0); fill-opacity: 0;"/></g><g class="traces" transform="translate(0,279.7)" style="opacity: 1;"><text class="legendtext" text-anchor="start" x="40" y="4.680000000000001" style="font-family: 'Open Sans', verdana, arial, sans-serif; font-size: 12px; fill: rgb(42, 63, 95); fill-opacity: 1; white-space: pre;">polynomial-protocol</text><g class="layers"><g class="legendfill"><path class="js-fill" d="M5,-2h30v6h-30z" style="stroke-width: 0; fill: rgb(171, 99, 250); fill-opacity: 0.5;"/></g><g class="legendlines"><path class="js-line" d="M5,-2h30" style="fill: none; stroke: rgb(171, 99, 250); stroke-opacity: 1; stroke-width: 2px;"/></g><g class="legendsymbols"><g class="legendpoints"/></g></g><rect class="legendtoggle" x="0" y="-9.5" width="144.0625" height="19" style="fill: rgb(0, 0, 0); fill-opacity: 0;"/></g><g class="traces" transform="translate(0,298.7)" style="opacity: 1;"><text class="legendtext" text-anchor="start" x="40" y="4.680000000000001" style="font-family: 'Open Sans', verdana, arial, sans-serif; font-size: 12px; fill: rgb(42, 63, 95); fill-opacity: 1; white-space: pre;">xtoken</text><g class="layers"><g class="legendfill"><path class="js-fill" d="M5,-2h30v6h-30z" style="stroke-width: 0; fill: rgb(255, 161, 90); fill-opacity: 0.5;"/></g><g class="legendlines"><path class="js-line" d="M5,-2h30" style="fill: none; stroke: rgb(255, 161, 90); stroke-opacity: 1; stroke-width: 2px;"/></g><g class="legendsymbols"><g class="legendpoints"/></g></g><rect class="legendtoggle" x="0" y="-9.5" width="144.0625" height="19" style="fill: rgb(0, 0, 0); fill-opacity: 0;"/></g><g class="traces" transform="translate(0,317.7)" style="opacity: 1;"><text class="legendtext" text-anchor="start" x="40" y="4.680000000000001" style="font-family: 'Open Sans', verdana, arial, sans-serif; font-size: 12px; fill: rgb(42, 63, 95); fill-opacity: 1; white-space: pre;">hop-protocol</text><g class="layers"><g class="legendfill"><path class="js-fill" d="M5,-2h30v6h-30z" style="stroke-width: 0; fill: rgb(25, 211, 243); fill-opacity: 0.5;"/></g><g class="legendlines"><path class="js-line" d="M5,-2h30" style="fill: none; stroke: rgb(25, 211, 243); stroke-opacity: 1; stroke-width: 2px;"/></g><g class="legendsymbols"><g class="legendpoints"/></g></g><rect class="legendtoggle" x="0" y="-9.5" width="144.0625" height="19" style="fill: rgb(0, 0, 0); fill-opacity: 0;"/></g><g class="traces" transform="translate(0,336.7)" style="opacity: 1;"><text class="legendtext" text-anchor="start" x="40" y="4.680000000000001" style="font-family: 'Open Sans', verdana, arial, sans-serif; font-size: 12px; fill: rgb(42, 63, 95); fill-opacity: 1; white-space: pre;">beethoven-x</text><g class="layers"><g class="legendfill"><path class="js-fill" d="M5,-2h30v6h-30z" style="stroke-width: 0; fill: rgb(255, 102, 146); fill-opacity: 0.5;"/></g><g class="legendlines"><path class="js-line" d="M5,-2h30" style="fill: none; stroke: rgb(255, 102, 146); stroke-opacity: 1; stroke-width: 2px;"/></g><g class="legendsymbols"><g class="legendpoints"/></g></g><rect class="legendtoggle" x="0" y="-9.5" width="144.0625" height="19" style="fill: rgb(0, 0, 0); fill-opacity: 0;"/></g></g></g><rect class="scrollbar" rx="20" ry="3" width="0" height="0" x="0" y="0" style="fill: rgb(128, 139, 164); fill-opacity: 1;"/></g><g class="g-gtitle"><text class="gtitle" x="35" y="50" text-anchor="start" dy="0em" style="font-family: 'Open Sans', verdana, arial, sans-serif; font-size: 17px; fill: rgb(42, 63, 95); opacity: 1; font-weight: normal; white-space: pre;">Cumulative Net Dollar Flow since Program Announcement</text></g><g class="g-xtitle"><text class="xtitle" x="304.5" y="476.409375" text-anchor="middle" style="font-family: 'Open Sans', verdana, arial, sans-serif; font-size: 14px; fill: rgb(42, 63, 95); opacity: 1; font-weight: normal; white-space: pre;">Day</text></g><g class="g-ytitle"><text class="ytitle" transform="rotate(-90,17.496875000000003,260)" x="17.496875000000003" y="260" text-anchor="middle" style="font-family: 'Open Sans', verdana, arial, sans-serif; font-size: 14px; fill: rgb(42, 63, 95); opacity: 1; font-weight: normal; white-space: pre;">Cumulative Net Dollar Flow (N$F)</text></g></g></svg>