<svg class="main-svg" xmlns="http://www.w3.org/2000/svg" xmlns:xlink="http://www.w3.org/1999/xlink" width="700" height="500" style="" viewBox="0 0 700 500"><rect x="0" y="0" width="700" height="500" style="fill: rgb(255, 255, 255); fill-opacity: 1;"/><defs id="defs-000f48"><g class="clips"><clipPath id="clip000f48xyplot" class="plotclip"><rect width="449" height="320"/></clipPath><clipPath class="axesclip" id="clip000f48x"><rect x="80" y="0" width="449" height="500"/></clipPath><clipPath class="axesclip" id="clip000f48y"><rect x="0" y="100" width="700" height="320"/></clipPath><clipPath class="axesclip" id="clip000f48xy"><rect x="80" y="100" width="449" height="320"/></clipPath></g><g class="gradients"/><g class="patterns"/></defs><g class="bglayer"><rect class="bg" x="80" y="100" width="449" height="320" style="fill: rgb(229, 236, 246); fill-opacity: 1; stroke-width: 0;"/></g><g class="layer-below"><g class="imagelayer"/><g class="shapelayer"/></g><g class="cartesianlayer"><g class="subplot xy"><g class="layer-subplot"><g class="shapelayer"/><g class="imagelayer"/></g><g class="minor-gridlayer"><g class="x"/><g class="y"/></g><g class="gridlayer"><g class="x"><path class="xgrid crisp" transform="translate(98.76,0)" d="M0,100v320" style="stroke: rgb(255, 255, 255); stroke-opacity: 1; stroke-width: 1px;"/><path class="xgrid crisp" transform="translate(164.41,0)" d="M0,100v320" style="stroke: rgb(255, 255, 255); stroke-opacity: 1; stroke-width: 1px;"/><path class="xgrid crisp" transform="translate(230.06,0)" d="M0,100v320" style="stroke: rgb(255, 255, 255); stroke-opacity: 1; stroke-width: 1px;"/><path class="xgrid crisp" transform="translate(295.71000000000004,0)" d="M0,100v320" style="stroke: rgb(255, 255, 255); stroke-opacity: 1; stroke-width: 1px;"/><path class="xgrid crisp" transform="translate(361.36,0)" d="M0,100v320" style="stroke: rgb(255, 255, 255); stroke-opacity: 1; stroke-width: 1px;"/><path class="xgrid crisp" transform="translate(427.01,0)" d="M0,100v320" style="stroke: rgb(255, 255, 255); stroke-opacity: 1; stroke-width: 1px;"/><path class="xgrid crisp" transform="translate(492.66,0)" d="M0,100v320" style="stroke: rgb(255, 255, 255); stroke-opacity: 1; stroke-width: 1px;"/></g><g class="y"><path class="ygrid crisp" transform="translate(0,344.23)" d="M80,0h449" style="stroke: rgb(255, 255, 255); stroke-opacity: 1; stroke-width: 1px;"/><path class="ygrid crisp" transform="translate(0,293.69)" d="M80,0h449" style="stroke: rgb(255, 255, 255); stroke-opacity: 1; stroke-width: 1px;"/><path class="ygrid crisp" transform="translate(0,243.14)" d="M80,0h449" style="stroke: rgb(255, 255, 255); stroke-opacity: 1; stroke-width: 1px;"/><path class="ygrid crisp" transform="translate(0,192.6)" d="M80,0h449" style="stroke: rgb(255, 255, 255); stroke-opacity: 1; stroke-width: 1px;"/><path class="ygrid crisp" transform="translate(0,142.06)" d="M80,0h449" style="stroke: rgb(255, 255, 255); stroke-opacity: 1; stroke-width: 1px;"/></g></g><g class="zerolinelayer"><path class="yzl zl crisp" transform="translate(0,394.77)" d="M80,0h449" style="stroke: rgb(255, 255, 255); stroke-opacity: 1; stroke-width: 2px;"/></g><path class="xlines-below"/><path class="ylines-below"/><g class="overlines-below"/><g class="xaxislayer-below"/><g class="yaxislayer-below"/><g class="overaxes-below"/><g class="plot" transform="translate(80,100)" clip-path="url(#clip000f48xyplot)"><g class="scatterlayer mlayer"><g class="trace scatter trace897110" style="stroke-miterlimit: 2;"><g class="fills"><g><path class="js-fill" d="M449,294.77L0,294.77L0,294.56L4.69,293.92L9.38,291.32L14.07,288.99L18.76,283.16L23.45,281.7L28.14,278.31L32.83,276.26L37.51,272.8L51.58,269.61L56.27,268.41L65.65,264.83L70.34,259.2L75.03,257.31L79.72,251.6L84.41,245.49L89.1,244.63L93.79,244.44L98.48,246.54L103.16,246.31L107.85,251.25L112.54,248.41L117.23,249.19L121.92,250.3L126.61,250.12L135.99,253.53L140.68,258.83L150.06,266.21L154.75,268.2L159.44,271.8L164.13,272.51L168.81,273.83L173.5,271.94L196.95,272.75L201.64,272.09L206.33,273.05L211.02,273.16L220.4,273.22L225.09,273.92L234.47,274.53L239.15,274.59L243.84,275.33L248.53,275.19L253.22,275.33L257.91,276.98L267.29,276.63L271.98,277.73L286.05,278.45L290.74,278.58L300.12,281.04L304.8,280.97L314.18,278.95L318.87,279.16L337.63,279.6L342.32,279.43L370.45,279.34L375.14,279.21L398.59,278.33L403.28,275.34L412.66,273.49L417.35,270.34L422.04,269.56L426.73,269.66L431.42,268.44L436.11,263.17L440.79,262.19L445.48,262.14L449,261.77" style="fill: rgb(99, 110, 250); fill-opacity: 0.5; stroke-width: 0;"/></g></g><g class="errorbars"/><g class="lines"><path class="js-line" d="M0,294.56L4.69,293.92L9.38,291.32L14.07,288.99L18.76,283.16L23.45,281.7L28.14,278.31L32.83,276.26L37.51,272.8L51.58,269.61L56.27,268.41L65.65,264.83L70.34,259.2L75.03,257.31L79.72,251.6L84.41,245.49L89.1,244.63L93.79,244.44L98.48,246.54L103.16,246.31L107.85,251.25L112.54,248.41L117.23,249.19L121.92,250.3L126.61,250.12L135.99,253.53L140.68,258.83L150.06,266.21L154.75,268.2L159.44,271.8L164.13,272.51L168.81,273.83L173.5,271.94L196.95,272.75L201.64,272.09L206.33,273.05L211.02,273.16L220.4,273.22L225.09,273.92L234.47,274.53L239.15,274.59L243.84,275.33L248.53,275.19L253.22,275.33L257.91,276.98L267.29,276.63L271.98,277.73L286.05,278.45L290.74,278.58L300.12,281.04L304.8,280.97L314.18,278.95L318.87,279.16L337.63,279.6L342.32,279.43L370.45,279.34L375.14,279.21L398.59,278.33L403.28,275.34L412.66,273.49L417.35,270.34L422.04,269.56L426.73,269.66L431.42,268.44L436.11,263.17L440.79,262.19L445.48,262.14L449,261.77" style="vector-effect: non-scaling-stroke; fill: none; stroke: rgb(99, 110, 250); stroke-opacity: 1; stroke-width: 2px; opacity: 1;"/></g><g class="points"/><g class="text"/></g><g class="trace scatter trace0c0378" style="stroke-miterlimit: 2;"><g class="fills"><g><path class="js-fill" d="M449,294.77L4.69,294.77L4.69,294.83L23.45,294.75L28.14,298.05L42.2,297.88L46.89,297.94L65.65,297.95L70.34,297.95L206.33,297.59L211.02,297.64L229.78,297.85L234.47,297.92L281.36,297.71L286.05,297.72L309.49,297.79L314.18,297.78L393.9,297.38L398.59,297.36L449,297.26" style="fill: rgb(239, 85, 59); fill-opacity: 0.5; stroke-width: 0;"/></g></g><g class="errorbars"/><g class="lines"><path class="js-line" d="M4.69,294.83L23.45,294.75L28.14,298.05L42.2,297.88L46.89,297.94L65.65,297.95L70.34,297.95L206.33,297.59L211.02,297.64L229.78,297.85L234.47,297.92L281.36,297.71L286.05,297.72L309.49,297.79L314.18,297.78L393.9,297.38L398.59,297.36L449,297.26" style="vector-effect: non-scaling-stroke; fill: none; stroke: rgb(239, 85, 59); stroke-opacity: 1; stroke-width: 2px; opacity: 1;"/></g><g class="points"/><g class="text"/></g><g class="trace scatter traced4ad1b" style="stroke-miterlimit: 2;"><g class="fills"><g><path class="js-fill" d="M449,294.77L4.69,294.77L4.69,294.73L46.89,294.23L51.58,293.82L60.96,293.5L65.65,291.92L70.34,288.42L75.03,286.07L84.41,284.77L89.1,284.47L103.16,283.31L107.85,281.7L112.54,281.1L117.23,279.51L121.92,279.37L126.61,278.44L135.99,277.49L140.68,277.21L150.06,278.84L154.75,281.27L164.13,279.43L168.81,279.66L187.57,279.62L192.26,280.61L201.64,279.82L206.33,277.24L211.02,277.99L215.71,277.89L229.78,278.21L234.47,278.7L243.84,279.37L248.53,279.36L286.05,279.85L290.74,280.3L300.12,282.42L351.7,278.67L384.52,277.99L389.21,276.97L407.97,277.16L412.66,258.72L431.42,258.76L436.11,259.26L449,259.2" style="fill: rgb(0, 204, 150); fill-opacity: 0.5; stroke-width: 0;"/></g></g><g class="errorbars"/><g class="lines"><path class="js-line" d="M4.69,294.73L46.89,294.23L51.58,293.82L60.96,293.5L65.65,291.92L70.34,288.42L75.03,286.07L84.41,284.77L89.1,284.47L103.16,283.31L107.85,281.7L112.54,281.1L117.23,279.51L121.92,279.37L126.61,278.44L135.99,277.49L140.68,277.21L150.06,278.84L154.75,281.27L164.13,279.43L168.81,279.66L187.57,279.62L192.26,280.61L201.64,279.82L206.33,277.24L211.02,277.99L215.71,277.89L229.78,278.21L234.47,278.7L243.84,279.37L248.53,279.36L286.05,279.85L290.74,280.3L300.12,282.42L351.7,278.67L384.52,277.99L389.21,276.97L407.97,277.16L412.66,258.72L431.42,258.76L436.11,259.26L449,259.2" style="vector-effect: non-scaling-stroke; fill: none; stroke: rgb(0, 204, 150); stroke-opacity: 1; stroke-width: 2px; opacity: 1;"/></g><g class="points"/><g class="text"/></g><g class="trace scatter trace780f36" style="stroke-miterlimit: 2;"><g class="fills"><g><path class="js-fill" d="M449,294.77L4.69,294.77L4.69,294.78L449,294.78" style="fill: rgb(171, 99, 250); fill-opacity: 0.5; stroke-width: 0;"/></g></g><g class="errorbars"/><g class="lines"><path class="js-line" d="M4.69,294.78L449,294.78" style="vector-effect: non-scaling-stroke; fill: none; stroke: rgb(171, 99, 250); stroke-opacity: 1; stroke-width: 2px; opacity: 1;"/></g><g class="points"/><g class="text"/></g><g class="trace scatter trace9d60fc" style="stroke-miterlimit: 2;"><g class="fills"><g><path class="js-fill" d="M449,294.77L9.38,294.77L9.38,294.77L107.85,293.68L112.54,292.35L135.99,291.82L140.68,291.84L267.29,292.77L271.98,292.42L290.74,292.2L295.43,292.86L332.94,292.69L337.63,292.61L370.45,291.87L375.14,291.76L449,291.69" style="fill: rgb(255, 161, 90); fill-opacity: 0.5; stroke-width: 0;"/></g></g><g class="errorbars"/><g class="lines"><path class="js-line" d="M9.38,294.77L107.85,293.68L112.54,292.35L135.99,291.82L140.68,291.84L267.29,292.77L271.98,292.42L290.74,292.2L295.43,292.86L332.94,292.69L337.63,292.61L370.45,291.87L375.14,291.76L449,291.69" style="vector-effect: non-scaling-stroke; fill: none; stroke: rgb(255, 161, 90); stroke-opacity: 1; stroke-width: 2px; opacity: 1;"/></g><g class="points"/><g class="text"/></g><g class="trace scatter trace441a43" style="stroke-miterlimit: 2;"><g class="fills"><g><path class="js-fill" d="M449,294.77L93.79,294.77L93.79,294.76L98.48,293.85L103.16,291.64L112.54,290.49L117.23,290.13L126.61,289.24L131.3,287.8L178.19,286.82L182.88,287.12L290.74,289L295.43,289.29L304.8,289.18L309.49,287.97L347.01,287.23L351.7,287L417.35,287.3L422.04,287.45L445.48,287.29L449,288.03" style="fill: rgb(25, 211, 243); fill-opacity: 0.5; stroke-width: 0;"/></g></g><g class="errorbars"/><g class="lines"><path class="js-line" d="M93.79,294.76L98.48,293.85L103.16,291.64L112.54,290.49L117.23,290.13L126.61,289.24L131.3,287.8L178.19,286.82L182.88,287.12L290.74,289L295.43,289.29L304.8,289.18L309.49,287.97L347.01,287.23L351.7,287L417.35,287.3L422.04,287.45L445.48,287.29L449,288.03" style="vector-effect: non-scaling-stroke; fill: none; stroke: rgb(25, 211, 243); stroke-opacity: 1; stroke-width: 2px; opacity: 1;"/></g><g class="points"/><g class="text"/></g><g class="trace scatter trace711380" style="stroke-miterlimit: 2;"><g class="fills"><g><path class="js-fill" d="M449,294.77L98.48,294.77L98.48,294.73L107.85,293.56L112.54,293.07L140.68,292.85L145.37,292.76L375.14,293L379.83,292.99L449,293" style="fill: rgb(255, 102, 146); fill-opacity: 0.5; stroke-width: 0;"/></g></g><g class="errorbars"/><g class="lines"><path class="js-line" d="M98.48,294.73L107.85,293.56L112.54,293.07L140.68,292.85L145.37,292.76L375.14,293L379.83,292.99L449,293" style="vector-effect: non-scaling-stroke; fill: none; stroke: rgb(255, 102, 146); stroke-opacity: 1; stroke-width: 2px; opacity: 1;"/></g><g class="points"/><g class="text"/></g><g class="trace scatter tracebcedc6" style="stroke-miterlimit: 2;"><g class="fills"><g><path class="js-fill" d="M449,294.77L103.16,294.77L103.16,294.32L107.85,173.43L112.54,88.48L117.23,55.79L121.92,35.77L126.61,38.83L131.3,31.45L135.99,16.46L140.68,16L145.37,16.65L150.06,34.82L154.75,42.21L159.44,42.13L168.81,49.39L173.5,103.52L182.88,105.43L187.57,104.63L192.26,112.03L196.95,107.55L201.64,105.61L206.33,98.8L211.02,99.92L215.71,96.57L220.4,100.26L225.09,102.14L229.78,90.28L234.47,88.2L239.15,87.71L243.84,88.29L248.53,89.36L253.22,89.14L262.6,108.44L267.29,109.69L271.98,116.59L276.67,109.33L286.05,107.82L290.74,105.33L295.43,105.71L300.12,112.25L309.49,103.63L314.18,101.49L318.87,102.14L323.56,98.65L332.94,97.32L337.63,95.09L342.32,94.92L347.01,93.42L351.7,96.85L356.39,95.33L361.08,93.48L365.77,81L370.45,75.68L375.14,76.64L379.83,76.59L384.52,75.36L389.21,71.23L393.9,69.92L398.59,72.03L403.28,72.75L407.97,73.69L412.66,70.8L417.35,74.32L422.04,76.25L426.73,76.59L431.42,79.21L436.11,80.5L440.79,77.96L445.48,78.2L449,79.37" style="fill: rgb(182, 232, 128); fill-opacity: 0.5; stroke-width: 0;"/></g></g><g class="errorbars"/><g class="lines"><path class="js-line" d="M103.16,294.32L107.85,173.43L112.54,88.48L117.23,55.79L121.92,35.77L126.61,38.83L131.3,31.45L135.99,16.46L140.68,16L145.37,16.65L150.06,34.82L154.75,42.21L159.44,42.13L168.81,49.39L173.5,103.52L182.88,105.43L187.57,104.63L192.26,112.03L196.95,107.55L201.64,105.61L206.33,98.8L211.02,99.92L215.71,96.57L220.4,100.26L225.09,102.14L229.78,90.28L234.47,88.2L239.15,87.71L243.84,88.29L248.53,89.36L253.22,89.14L262.6,108.44L267.29,109.69L271.98,116.59L276.67,109.33L286.05,107.82L290.74,105.33L295.43,105.71L300.12,112.25L309.49,103.63L314.18,101.49L318.87,102.14L323.56,98.65L332.94,97.32L337.63,95.09L342.32,94.92L347.01,93.42L351.7,96.85L356.39,95.33L361.08,93.48L365.77,81L370.45,75.68L375.14,76.64L379.83,76.59L384.52,75.36L389.21,71.23L393.9,69.92L398.59,72.03L403.28,72.75L407.97,73.69L412.66,70.8L417.35,74.32L422.04,76.25L426.73,76.59L431.42,79.21L436.11,80.5L440.79,77.96L445.48,78.2L449,79.37" style="vector-effect: non-scaling-stroke; fill: none; stroke: rgb(182, 232, 128); stroke-opacity: 1; stroke-width: 2px; opacity: 1;"/></g><g class="points"/><g class="text"/></g><g class="trace scatter traceeaa9f9" style="stroke-miterlimit: 2;"><g class="fills"><g><path class="js-fill" d="M449,294.77L107.85,294.77L107.85,295.7L112.54,289.95L117.23,290.75L135.99,291.57L140.68,291.07L145.37,290.01L150.06,291.4L164.13,290.31L168.81,290.51L173.5,290.66L178.19,289.82L192.26,289.36L196.95,288.82L211.02,289.37L215.71,289.25L225.09,288.47L229.78,287.88L234.47,287.6L239.15,286.41L248.53,285.92L253.22,285.3L257.91,286.99L262.6,287.51L267.29,287.94L271.98,286L295.43,283.88L300.12,285.8L328.25,285.56L332.94,287.23L342.32,286.88L347.01,287.45L351.7,287.6L356.39,286.76L365.77,285.85L370.45,286.45L379.83,286.56L384.52,285.97L393.9,286.99L398.59,286.03L412.66,283.45L417.35,283.47L422.04,283.16L426.73,279.45L436.11,278.65L440.79,278.8L449,278.86" style="fill: rgb(255, 151, 255); fill-opacity: 0.5; stroke-width: 0;"/></g></g><g class="errorbars"/><g class="lines"><path class="js-line" d="M107.85,295.7L112.54,289.95L117.23,290.75L135.99,291.57L140.68,291.07L145.37,290.01L150.06,291.4L164.13,290.31L168.81,290.51L173.5,290.66L178.19,289.82L192.26,289.36L196.95,288.82L211.02,289.37L215.71,289.25L225.09,288.47L229.78,287.88L234.47,287.6L239.15,286.41L248.53,285.92L253.22,285.3L257.91,286.99L262.6,287.51L267.29,287.94L271.98,286L295.43,283.88L300.12,285.8L328.25,285.56L332.94,287.23L342.32,286.88L347.01,287.45L351.7,287.6L356.39,286.76L365.77,285.85L370.45,286.45L379.83,286.56L384.52,285.97L393.9,286.99L398.59,286.03L412.66,283.45L417.35,283.47L422.04,283.16L426.73,279.45L436.11,278.65L440.79,278.8L449,278.86" style="vector-effect: non-scaling-stroke; fill: none; stroke: rgb(255, 151, 255); stroke-opacity: 1; stroke-width: 2px; opacity: 1;"/></g><g class="points"/><g class="text"/></g><g class="trace scatter trace59f866" style="stroke-miterlimit: 2;"><g class="fills"><g><path class="js-fill" d="M449,294.77L201.64,294.77L201.64,293.91L211.02,293.42L215.71,294.49L220.4,293.79L225.09,299.43L229.78,295.02L234.47,294.9L243.84,297.08L248.53,296.14L257.91,297.44L262.6,296.15L267.29,297.77L271.98,296.2L281.36,296.52L286.05,295.19L290.74,295.37L295.43,294.67L300.12,295.9L304.8,295.48L309.49,302.83L314.18,304L318.87,299.19L323.56,299.5L328.25,296.78L332.94,295.89L337.63,299.74L342.32,298.93L347.01,297.84L351.7,295.82L356.39,295.9L361.08,294.95L365.77,296.41L370.45,296.31L375.14,297.28L379.83,296.04L384.52,295.57L389.21,296.41L393.9,296.45L398.59,297.4L407.97,297.8L412.66,297.66L431.42,297.56L436.11,299.33L440.79,298.19L445.48,298.56L449,300.42" style="fill: rgb(254, 203, 82); fill-opacity: 0.5; stroke-width: 0;"/></g></g><g class="errorbars"/><g class="lines"><path class="js-line" d="M201.64,293.91L211.02,293.42L215.71,294.49L220.4,293.79L225.09,299.43L229.78,295.02L234.47,294.9L243.84,297.08L248.53,296.14L257.91,297.44L262.6,296.15L267.29,297.77L271.98,296.2L281.36,296.52L286.05,295.19L290.74,295.37L295.43,294.67L300.12,295.9L304.8,295.48L309.49,302.83L314.18,304L318.87,299.19L323.56,299.5L328.25,296.78L332.94,295.89L337.63,299.74L342.32,298.93L347.01,297.84L351.7,295.82L356.39,295.9L361.08,294.95L365.77,296.41L370.45,296.31L375.14,297.28L379.83,296.04L384.52,295.57L389.21,296.41L393.9,296.45L398.59,297.4L407.97,297.8L412.66,297.66L431.42,297.56L436.11,299.33L440.79,298.19L445.48,298.56L449,300.42" style="vector-effect: non-scaling-stroke; fill: none; stroke: rgb(254, 203, 82); stroke-opacity: 1; stroke-width: 2px; opacity: 1;"/></g><g class="points"/><g class="text"/></g><g class="trace scatter traceb1a1a4" style="stroke-miterlimit: 2;"><g class="fills"><g><path class="js-fill" d="M449,294.77L220.4,294.77L220.4,294.77L257.91,294.14L262.6,293.64L290.74,292.24L295.43,292.12L323.56,291.44L328.25,291.05L356.39,290.55L361.08,290.75L449,290.29" style="fill: rgb(99, 110, 250); fill-opacity: 0.5; stroke-width: 0;"/></g></g><g class="errorbars"/><g class="lines"><path class="js-line" d="M220.4,294.77L257.91,294.14L262.6,293.64L290.74,292.24L295.43,292.12L323.56,291.44L328.25,291.05L356.39,290.55L361.08,290.75L449,290.29" style="vector-effect: non-scaling-stroke; fill: none; stroke: rgb(99, 110, 250); stroke-opacity: 1; stroke-width: 2px; opacity: 1;"/></g><g class="points"/><g class="text"/></g><g class="trace scatter trace654ba2" style="stroke-miterlimit: 2;"><g class="fills"><g><path class="js-fill" d="M449,294.77L271.98,294.77L271.98,294.7L323.56,294.19L328.25,294.21L398.59,293.78L403.28,293.77L449,294.05" style="fill: rgb(239, 85, 59); fill-opacity: 0.5; stroke-width: 0;"/></g></g><g class="errorbars"/><g class="lines"><path class="js-line" d="M271.98,294.7L323.56,294.19L328.25,294.21L398.59,293.78L403.28,293.77L449,294.05" style="vector-effect: non-scaling-stroke; fill: none; stroke: rgb(239, 85, 59); stroke-opacity: 1; stroke-width: 2px; opacity: 1;"/></g><g class="points"/><g class="text"/></g><g class="trace scatter trace9caddc" style="stroke-miterlimit: 2;"><g class="fills"><g><path class="js-fill" d="M449,294.77L286.05,294.77L286.05,294.77L449,294.76" style="fill: rgb(0, 204, 150); fill-opacity: 0.5; stroke-width: 0;"/></g></g><g class="errorbars"/><g class="lines"><path class="js-line" d="M286.05,294.77L449,294.76" style="vector-effect: non-scaling-stroke; fill: none; stroke: rgb(0, 204, 150); stroke-opacity: 1; stroke-width: 2px; opacity: 1;"/></g><g class="points"/><g class="text"/></g><g class="trace scatter tracebfa8ca" style="stroke-miterlimit: 2;"><g class="fills"><g><path class="js-fill" d="M449,294.77L295.43,294.77L295.43,294.78L449,294.7" style="fill: rgb(171, 99, 250); fill-opacity: 0.5; stroke-width: 0;"/></g></g><g class="errorbars"/><g class="lines"><path class="js-line" d="M295.43,294.78L449,294.7" style="vector-effect: non-scaling-stroke; fill: none; stroke: rgb(171, 99, 250); stroke-opacity: 1; stroke-width: 2px; opacity: 1;"/></g><g class="points"/><g class="text"/></g><g class="trace scatter trace1167ad" style="stroke-miterlimit: 2;"><g class="fills"><g><path class="js-fill" d="M449,294.77L318.87,294.77L318.87,294.77L449,294.4" style="fill: rgb(255, 161, 90); fill-opacity: 0.5; stroke-width: 0;"/></g></g><g class="errorbars"/><g class="lines"><path class="js-line" d="M318.87,294.77L449,294.4" style="vector-effect: non-scaling-stroke; fill: none; stroke: rgb(255, 161, 90); stroke-opacity: 1; stroke-width: 2px; opacity: 1;"/></g><g class="points"/><g class="text"/></g><g class="trace scatter trace9886d6" style="stroke-miterlimit: 2;"><g class="fills"><g><path class="js-fill" d="M449,294.77L332.94,294.77L332.94,294.69L361.08,294.56L365.77,294.56L412.66,294.29L417.35,294.36L449,294.44" style="fill: rgb(25, 211, 243); fill-opacity: 0.5; stroke-width: 0;"/></g></g><g class="errorbars"/><g class="lines"><path class="js-line" d="M332.94,294.69L361.08,294.56L365.77,294.56L412.66,294.29L417.35,294.36L449,294.44" style="vector-effect: non-scaling-stroke; fill: none; stroke: rgb(25, 211, 243); stroke-opacity: 1; stroke-width: 2px; opacity: 1;"/></g><g class="points"/><g class="text"/></g><g class="trace scatter trace6d52f3" style="stroke-miterlimit: 2;"><g class="fills"><g><path class="js-fill" d="M449,294.77L365.77,294.77L365.77,294.76L370.45,293.11L375.14,292.46L379.83,292.03L384.52,292.5L389.21,291.55L393.9,291.43L403.28,291.29L407.97,290.57L412.66,289.98L417.35,288.28L449,288.5" style="fill: rgb(255, 102, 146); fill-opacity: 0.5; stroke-width: 0;"/></g></g><g class="errorbars"/><g class="lines"><path class="js-line" d="M365.77,294.76L370.45,293.11L375.14,292.46L379.83,292.03L384.52,292.5L389.21,291.55L393.9,291.43L403.28,291.29L407.97,290.57L412.66,289.98L417.35,288.28L449,288.5" style="vector-effect: non-scaling-stroke; fill: none; stroke: rgb(255, 102, 146); stroke-opacity: 1; stroke-width: 2px; opacity: 1;"/></g><g class="points"><path class="point" transform="translate(365.77,294.76)" d="M3,0A3,3 0 1,1 0,-3A3,3 0 0,1 3,0Z" style="opacity: 1; stroke-width: 0px; fill: rgb(255, 102, 146); fill-opacity: 1;"/><path class="point" transform="translate(370.45,293.11)" d="M3,0A3,3 0 1,1 0,-3A3,3 0 0,1 3,0Z" style="opacity: 1; stroke-width: 0px; fill: rgb(255, 102, 146); fill-opacity: 1;"/><path class="point" transform="translate(375.14,292.46)" d="M3,0A3,3 0 1,1 0,-3A3,3 0 0,1 3,0Z" style="opacity: 1; stroke-width: 0px; fill: rgb(255, 102, 146); fill-opacity: 1;"/><path class="point" transform="translate(379.83,292.03)" d="M3,0A3,3 0 1,1 0,-3A3,3 0 0,1 3,0Z" style="opacity: 1; stroke-width: 0px; fill: rgb(255, 102, 146); fill-opacity: 1;"/><path class="point" transform="translate(384.52,292.5)" d="M3,0A3,3 0 1,1 0,-3A3,3 0 0,1 3,0Z" style="opacity: 1; stroke-width: 0px; fill: rgb(255, 102, 146); fill-opacity: 1;"/><path class="point" transform="translate(389.21,291.55)" d="M3,0A3,3 0 1,1 0,-3A3,3 0 0,1 3,0Z" style="opacity: 1; stroke-width: 0px; fill: rgb(255, 102, 146); fill-opacity: 1;"/><path class="point" transform="translate(393.9,291.43)" d="M3,0A3,3 0 1,1 0,-3A3,3 0 0,1 3,0Z" style="opacity: 1; stroke-width: 0px; fill: rgb(255, 102, 146); fill-opacity: 1;"/><path class="point" transform="translate(398.59,291.62)" d="M3,0A3,3 0 1,1 0,-3A3,3 0 0,1 3,0Z" style="opacity: 1; stroke-width: 0px; fill: rgb(255, 102, 146); fill-opacity: 1;"/><path class="point" transform="translate(403.28,291.29)" d="M3,0A3,3 0 1,1 0,-3A3,3 0 0,1 3,0Z" style="opacity: 1; stroke-width: 0px; fill: rgb(255, 102, 146); fill-opacity: 1;"/><path class="point" transform="translate(407.97,290.57)" d="M3,0A3,3 0 1,1 0,-3A3,3 0 0,1 3,0Z" style="opacity: 1; stroke-width: 0px; fill: rgb(255, 102, 146); fill-opacity: 1;"/><path class="point" transform="translate(412.66,289.98)" d="M3,0A3,3 0 1,1 0,-3A3,3 0 0,1 3,0Z" style="opacity: 1; stroke-width: 0px; fill: rgb(255, 102, 146); fill-opacity: 1;"/><path class="point" transform="translate(417.35,288.28)" d="M3,0A3,3 0 1,1 0,-3A3,3 0 0,1 3,0Z" style="opacity: 1; stroke-width: 0px; fill: rgb(255, 102, 146); fill-opacity: 1;"/><path class="point" transform="translate(422.04,288.34)" d="M3,0A3,3 0 1,1 0,-3A3,3 0 0,1 3,0Z" style="opacity: 1; stroke-width: 0px; fill: rgb(255, 102, 146); fill-opacity: 1;"/><path class="point" transform="translate(426.73,288.02)" d="M3,0A3,3 0 1,1 0,-3A3,3 0 0,1 3,0Z" style="opacity: 1; stroke-width: 0px; fill: rgb(255, 102, 146); fill-opacity: 1;"/><path class="point" transform="translate(431.42,287.97)" d="M3,0A3,3 0 1,1 0,-3A3,3 0 0,1 3,0Z" style="opacity: 1; stroke-width: 0px; fill: rgb(255, 102, 146); fill-opacity: 1;"/><path class="point" transform="translate(436.11,288.3)" d="M3,0A3,3 0 1,1 0,-3A3,3 0 0,1 3,0Z" style="opacity: 1; stroke-width: 0px; fill: rgb(255, 102, 146); fill-opacity: 1;"/><path class="point" transform="translate(440.79,288.57)" d="M3,0A3,3 0 1,1 0,-3A3,3 0 0,1 3,0Z" style="opacity: 1; stroke-width: 0px; fill: rgb(255, 102, 146); fill-opacity: 1;"/><path class="point" transform="translate(445.48,288.56)" d="M3,0A3,3 0 1,1 0,-3A3,3 0 0,1 3,0Z" style="opacity: 1; stroke-width: 0px; fill: rgb(255, 102, 146); fill-opacity: 1;"/><path class="point" transform="translate(449,288.5)" d="M3,0A3,3 0 1,1 0,-3A3,3 0 0,1 3,0Z" style="opacity: 1; stroke-width: 0px; fill: rgb(255, 102, 146); fill-opacity: 1;"/></g><g class="text"/></g></g></g><g class="overplot"/><path class="xlines-above crisp" d="M0,0" style="fill: none;"/><path class="ylines-above crisp" d="M0,0" style="fill: none;"/><g class="overlines-above"/><g class="xaxislayer-above"><g class="xtick"><text text-anchor="middle" x="0" y="433" transform="translate(98.76,0)" style="font-family: 'Open Sans', verdana, arial, sans-serif; font-size: 12px; fill: rgb(42, 63, 95); fill-opacity: 1; white-space: pre; opacity: 1;"><tspan class="line" dy="0em" x="0" y="433">Jul 17</tspan><tspan class="line" dy="1.3em" x="0" y="433">2022</tspan></text></g><g class="xtick"><text text-anchor="middle" x="0" y="433" style="font-family: 'Open Sans', verdana, arial, sans-serif; font-size: 12px; fill: rgb(42, 63, 95); fill-opacity: 1; white-space: pre; opacity: 1;" transform="translate(164.41,0)">Jul 31</text></g><g class="xtick"><text text-anchor="middle" x="0" y="433" style="font-family: 'Open Sans', verdana, arial, sans-serif; font-size: 12px; fill: rgb(42, 63, 95); fill-opacity: 1; white-space: pre; opacity: 1;" transform="translate(230.06,0)">Aug 14</text></g><g class="xtick"><text text-anchor="middle" x="0" y="433" style="font-family: 'Open Sans', verdana, arial, sans-serif; font-size: 12px; fill: rgb(42, 63, 95); fill-opacity: 1; white-space: pre; opacity: 1;" transform="translate(295.71000000000004,0)">Aug 28</text></g><g class="xtick"><text text-anchor="middle" x="0" y="433" style="font-family: 'Open Sans', verdana, arial, sans-serif; font-size: 12px; fill: rgb(42, 63, 95); fill-opacity: 1; white-space: pre; opacity: 1;" transform="translate(361.36,0)">Sep 11</text></g><g class="xtick"><text text-anchor="middle" x="0" y="433" style="font-family: 'Open Sans', verdana, arial, sans-serif; font-size: 12px; fill: rgb(42, 63, 95); fill-opacity: 1; white-space: pre; opacity: 1;" transform="translate(427.01,0)">Sep 25</text></g><g class="xtick"><text text-anchor="middle" x="0" y="433" style="font-family: 'Open Sans', verdana, arial, sans-serif; font-size: 12px; fill: rgb(42, 63, 95); fill-opacity: 1; white-space: pre; opacity: 1;" transform="translate(492.66,0)">Oct 9</text></g></g><g class="yaxislayer-above"><g class="ytick"><text text-anchor="end" x="79" y="4.199999999999999" transform="translate(0,394.77)" style="font-family: 'Open Sans', verdana, arial, sans-serif; font-size: 12px; fill: rgb(42, 63, 95); fill-opacity: 1; white-space: pre; opacity: 1;">$0</text></g><g class="ytick"><text text-anchor="end" x="79" y="4.199999999999999" style="font-family: 'Open Sans', verdana, arial, sans-serif; font-size: 12px; fill: rgb(42, 63, 95); fill-opacity: 1; white-space: pre; opacity: 1;" transform="translate(0,344.23)">$100M</text></g><g class="ytick"><text text-anchor="end" x="79" y="4.199999999999999" style="font-family: 'Open Sans', verdana, arial, sans-serif; font-size: 12px; fill: rgb(42, 63, 95); fill-opacity: 1; white-space: pre; opacity: 1;" transform="translate(0,293.69)">$200M</text></g><g class="ytick"><text text-anchor="end" x="79" y="4.199999999999999" style="font-family: 'Open Sans', verdana, arial, sans-serif; font-size: 12px; fill: rgb(42, 63, 95); fill-opacity: 1; white-space: pre; opacity: 1;" transform="translate(0,243.14)">$300M</text></g><g class="ytick"><text text-anchor="end" x="79" y="4.199999999999999" style="font-family: 'Open Sans', verdana, arial, sans-serif; font-size: 12px; fill: rgb(42, 63, 95); fill-opacity: 1; white-space: pre; opacity: 1;" transform="translate(0,192.6)">$400M</text></g><g class="ytick"><text text-anchor="end" x="79" y="4.199999999999999" style="font-family: 'Open Sans', verdana, arial, sans-serif; font-size: 12px; fill: rgb(42, 63, 95); fill-opacity: 1; white-space: pre; opacity: 1;" transform="translate(0,142.06)">$500M</text></g></g><g class="overaxes-above"/></g></g><g class="polarlayer"/><g class="smithlayer"/><g class="ternarylayer"/><g class="geolayer"/><g class="funnelarealayer"/><g class="pielayer"/><g class="iciclelayer"/><g class="treemaplayer"/><g class="sunburstlayer"/><g class="glimages"/><defs id="topdefs-000f48"><g class="clips"/><clipPath id="legend000f48"><rect width="150" height="320" x="0" y="0"/></clipPath></defs><g class="layer-above"><g class="imagelayer"/><g class="shapelayer"/></g><g class="infolayer"><g class="legend" pointer-events="all" transform="translate(537.98,100)"><rect class="bg" shape-rendering="crispEdges" width="150" height="320" x="0" y="0" style="stroke: rgb(68, 68, 68); stroke-opacity: 1; fill: rgb(255, 255, 255); fill-opacity: 1; stroke-width: 0px;"/><g class="scrollbox" transform="" clip-path="url(#legend000f48)"><text class="legendtitletext" text-anchor="start" x="2" y="18.2" style="font-family: 'Open Sans', verdana, arial, sans-serif; font-size: 14px; fill: rgb(42, 63, 95); fill-opacity: 1; white-space: pre;">App Name</text><g class="groups"><g class="traces" transform="translate(0,32.7)" style="opacity: 1;"><text class="legendtext" text-anchor="start" x="40" y="4.680000000000001" style="font-family: 'Open Sans', verdana, arial, sans-serif; font-size: 12px; fill: rgb(42, 63, 95); fill-opacity: 1; white-space: pre;">velodrome</text><g class="layers"><g class="legendfill"><path class="js-fill" d="M5,-2h30v6h-30z" style="stroke-width: 0; fill: rgb(99, 110, 250); fill-opacity: 0.5;"/></g><g class="legendlines"><path class="js-line" d="M5,-2h30" style="fill: none; stroke: rgb(99, 110, 250); stroke-opacity: 1; stroke-width: 2px;"/></g><g class="legendsymbols"><g class="legendpoints"/></g></g><rect class="legendtoggle" x="0" y="-9.5" width="144.0625" height="19" style="fill: rgb(0, 0, 0); fill-opacity: 0;"/></g><g class="traces" transform="translate(0,51.7)" style="opacity: 1;"><text class="legendtext" text-anchor="start" x="40" y="4.680000000000001" style="font-family: 'Open Sans', verdana, arial, sans-serif; font-size: 12px; fill: rgb(42, 63, 95); fill-opacity: 1; white-space: pre;">perpetual-protocol</text><g class="layers"><g class="legendfill"><path class="js-fill" d="M5,-2h30v6h-30z" style="stroke-width: 0; fill: rgb(239, 85, 59); fill-opacity: 0.5;"/></g><g class="legendlines"><path class="js-line" d="M5,-2h30" style="fill: none; stroke: rgb(239, 85, 59); stroke-opacity: 1; stroke-width: 2px;"/></g><g class="legendsymbols"><g class="legendpoints"/></g></g><rect class="legendtoggle" x="0" y="-9.5" width="144.0625" height="19" style="fill: rgb(0, 0, 0); fill-opacity: 0;"/></g><g class="traces" transform="translate(0,70.7)" style="opacity: 1;"><text class="legendtext" text-anchor="start" x="40" y="4.680000000000001" style="font-family: 'Open Sans', verdana, arial, sans-serif; font-size: 12px; fill: rgb(42, 63, 95); fill-opacity: 1; white-space: pre;">pooltogether</text><g class="layers"><g class="legendfill"><path class="js-fill" d="M5,-2h30v6h-30z" style="stroke-width: 0; fill: rgb(0, 204, 150); fill-opacity: 0.5;"/></g><g class="legendlines"><path class="js-line" d="M5,-2h30" style="fill: none; stroke: rgb(0, 204, 150); stroke-opacity: 1; stroke-width: 2px;"/></g><g class="legendsymbols"><g class="legendpoints"/></g></g><rect class="legendtoggle" x="0" y="-9.5" width="144.0625" height="19" style="fill: rgb(0, 0, 0); fill-opacity: 0;"/></g><g class="traces" transform="translate(0,89.7)" style="opacity: 1;"><text class="legendtext" text-anchor="start" x="40" y="4.680000000000001" style="font-family: 'Open Sans', verdana, arial, sans-serif; font-size: 12px; fill: rgb(42, 63, 95); fill-opacity: 1; white-space: pre;">thales</text><g class="layers"><g class="legendfill"><path class="js-fill" d="M5,-2h30v6h-30z" style="stroke-width: 0; fill: rgb(171, 99, 250); fill-opacity: 0.5;"/></g><g class="legendlines"><path class="js-line" d="M5,-2h30" style="fill: none; stroke: rgb(171, 99, 250); stroke-opacity: 1; stroke-width: 2px;"/></g><g class="legendsymbols"><g class="legendpoints"/></g></g><rect class="legendtoggle" x="0" y="-9.5" width="144.0625" height="19" style="fill: rgb(0, 0, 0); fill-opacity: 0;"/></g><g class="traces" transform="translate(0,108.7)" style="opacity: 1;"><text class="legendtext" text-anchor="start" x="40" y="4.680000000000001" style="font-family: 'Open Sans', verdana, arial, sans-serif; font-size: 12px; fill: rgb(42, 63, 95); fill-opacity: 1; white-space: pre;">rubicon</text><g class="layers"><g class="legendfill"><path class="js-fill" d="M5,-2h30v6h-30z" style="stroke-width: 0; fill: rgb(255, 161, 90); fill-opacity: 0.5;"/></g><g class="legendlines"><path class="js-line" d="M5,-2h30" style="fill: none; stroke: rgb(255, 161, 90); stroke-opacity: 1; stroke-width: 2px;"/></g><g class="legendsymbols"><g class="legendpoints"/></g></g><rect class="legendtoggle" x="0" y="-9.5" width="144.0625" height="19" style="fill: rgb(0, 0, 0); fill-opacity: 0;"/></g><g class="traces" transform="translate(0,127.7)" style="opacity: 1;"><text class="legendtext" text-anchor="start" x="40" y="4.680000000000001" style="font-family: 'Open Sans', verdana, arial, sans-serif; font-size: 12px; fill: rgb(42, 63, 95); fill-opacity: 1; white-space: pre;">lyra</text><g class="layers"><g class="legendfill"><path class="js-fill" d="M5,-2h30v6h-30z" style="stroke-width: 0; fill: rgb(25, 211, 243); fill-opacity: 0.5;"/></g><g class="legendlines"><path class="js-line" d="M5,-2h30" style="fill: none; stroke: rgb(25, 211, 243); stroke-opacity: 1; stroke-width: 2px;"/></g><g class="legendsymbols"><g class="legendpoints"/></g></g><rect class="legendtoggle" x="0" y="-9.5" width="144.0625" height="19" style="fill: rgb(0, 0, 0); fill-opacity: 0;"/></g><g class="traces" transform="translate(0,146.7)" style="opacity: 1;"><text class="legendtext" text-anchor="start" x="40" y="4.680000000000001" style="font-family: 'Open Sans', verdana, arial, sans-serif; font-size: 12px; fill: rgb(42, 63, 95); fill-opacity: 1; white-space: pre;">wepiggy</text><g class="layers"><g class="legendfill"><path class="js-fill" d="M5,-2h30v6h-30z" style="stroke-width: 0; fill: rgb(255, 102, 146); fill-opacity: 0.5;"/></g><g class="legendlines"><path class="js-line" d="M5,-2h30" style="fill: none; stroke: rgb(255, 102, 146); stroke-opacity: 1; stroke-width: 2px;"/></g><g class="legendsymbols"><g class="legendpoints"/></g></g><rect class="legendtoggle" x="0" y="-9.5" width="144.0625" height="19" style="fill: rgb(0, 0, 0); fill-opacity: 0;"/></g><g class="traces" transform="translate(0,165.7)" style="opacity: 1;"><text class="legendtext" text-anchor="start" x="40" y="4.680000000000001" style="font-family: 'Open Sans', verdana, arial, sans-serif; font-size: 12px; fill: rgb(42, 63, 95); fill-opacity: 1; white-space: pre;">aave-v3</text><g class="layers"><g class="legendfill"><path class="js-fill" d="M5,-2h30v6h-30z" style="stroke-width: 0; fill: rgb(182, 232, 128); fill-opacity: 0.5;"/></g><g class="legendlines"><path class="js-line" d="M5,-2h30" style="fill: none; stroke: rgb(182, 232, 128); stroke-opacity: 1; stroke-width: 2px;"/></g><g class="legendsymbols"><g class="legendpoints"/></g></g><rect class="legendtoggle" x="0" y="-9.5" width="144.0625" height="19" style="fill: rgb(0, 0, 0); fill-opacity: 0;"/></g><g class="traces" transform="translate(0,184.7)" style="opacity: 1;"><text class="legendtext" text-anchor="start" x="40" y="4.680000000000001" style="font-family: 'Open Sans', verdana, arial, sans-serif; font-size: 12px; fill: rgb(42, 63, 95); fill-opacity: 1; white-space: pre;">stargate</text><g class="layers"><g class="legendfill"><path class="js-fill" d="M5,-2h30v6h-30z" style="stroke-width: 0; fill: rgb(255, 151, 255); fill-opacity: 0.5;"/></g><g class="legendlines"><path class="js-line" d="M5,-2h30" style="fill: none; stroke: rgb(255, 151, 255); stroke-opacity: 1; stroke-width: 2px;"/></g><g class="legendsymbols"><g class="legendpoints"/></g></g><rect class="legendtoggle" x="0" y="-9.5" width="144.0625" height="19" style="fill: rgb(0, 0, 0); fill-opacity: 0;"/></g><g class="traces" transform="translate(0,203.7)" style="opacity: 1;"><text class="legendtext" text-anchor="start" x="40" y="4.680000000000001" style="font-family: 'Open Sans', verdana, arial, sans-serif; font-size: 12px; fill: rgb(42, 63, 95); fill-opacity: 1; white-space: pre;">synthetix</text><g class="layers"><g class="legendfill"><path class="js-fill" d="M5,-2h30v6h-30z" style="stroke-width: 0; fill: rgb(254, 203, 82); fill-opacity: 0.5;"/></g><g class="legendlines"><path class="js-line" d="M5,-2h30" style="fill: none; stroke: rgb(254, 203, 82); stroke-opacity: 1; stroke-width: 2px;"/></g><g class="legendsymbols"><g class="legendpoints"/></g></g><rect class="legendtoggle" x="0" y="-9.5" width="144.0625" height="19" style="fill: rgb(0, 0, 0); fill-opacity: 0;"/></g><g class="traces" transform="translate(0,222.7)" style="opacity: 1;"><text class="legendtext" text-anchor="start" x="40" y="4.680000000000001" style="font-family: 'Open Sans', verdana, arial, sans-serif; font-size: 12px; fill: rgb(42, 63, 95); fill-opacity: 1; white-space: pre;">pika-protocol</text><g class="layers"><g class="legendfill"><path class="js-fill" d="M5,-2h30v6h-30z" style="stroke-width: 0; fill: rgb(99, 110, 250); fill-opacity: 0.5;"/></g><g class="legendlines"><path class="js-line" d="M5,-2h30" style="fill: none; stroke: rgb(99, 110, 250); stroke-opacity: 1; stroke-width: 2px;"/></g><g class="legendsymbols"><g class="legendpoints"/></g></g><rect class="legendtoggle" x="0" y="-9.5" width="144.0625" height="19" style="fill: rgb(0, 0, 0); fill-opacity: 0;"/></g><g class="traces" transform="translate(0,241.7)" style="opacity: 1;"><text class="legendtext" text-anchor="start" x="40" y="4.680000000000001" style="font-family: 'Open Sans', verdana, arial, sans-serif; font-size: 12px; fill: rgb(42, 63, 95); fill-opacity: 1; white-space: pre;">pickle</text><g class="layers"><g class="legendfill"><path class="js-fill" d="M5,-2h30v6h-30z" style="stroke-width: 0; fill: rgb(239, 85, 59); fill-opacity: 0.5;"/></g><g class="legendlines"><path class="js-line" d="M5,-2h30" style="fill: none; stroke: rgb(239, 85, 59); stroke-opacity: 1; stroke-width: 2px;"/></g><g class="legendsymbols"><g class="legendpoints"/></g></g><rect class="legendtoggle" x="0" y="-9.5" width="144.0625" height="19" style="fill: rgb(0, 0, 0); fill-opacity: 0;"/></g><g class="traces" transform="translate(0,260.7)" style="opacity: 1;"><text class="legendtext" text-anchor="start" x="40" y="4.680000000000001" style="font-family: 'Open Sans', verdana, arial, sans-serif; font-size: 12px; fill: rgb(42, 63, 95); fill-opacity: 1; white-space: pre;">aelin</text><g class="layers"><g class="legendfill"><path class="js-fill" d="M5,-2h30v6h-30z" style="stroke-width: 0; fill: rgb(0, 204, 150); fill-opacity: 0.5;"/></g><g class="legendlines"><path class="js-line" d="M5,-2h30" style="fill: none; stroke: rgb(0, 204, 150); stroke-opacity: 1; stroke-width: 2px;"/></g><g class="legendsymbols"><g class="legendpoints"/></g></g><rect class="legendtoggle" x="0" y="-9.5" width="144.0625" height="19" style="fill: rgb(0, 0, 0); fill-opacity: 0;"/></g><g class="traces" transform="translate(0,279.7)" style="opacity: 1;"><text class="legendtext" text-anchor="start" x="40" y="4.680000000000001" style="font-family: 'Open Sans', verdana, arial, sans-serif; font-size: 12px; fill: rgb(42, 63, 95); fill-opacity: 1; white-space: pre;">polynomial-protocol</text><g class="layers"><g class="legendfill"><path class="js-fill" d="M5,-2h30v6h-30z" style="stroke-width: 0; fill: rgb(171, 99, 250); fill-opacity: 0.5;"/></g><g class="legendlines"><path class="js-line" d="M5,-2h30" style="fill: none; stroke: rgb(171, 99, 250); stroke-opacity: 1; stroke-width: 2px;"/></g><g class="legendsymbols"><g class="legendpoints"/></g></g><rect class="legendtoggle" x="0" y="-9.5" width="144.0625" height="19" style="fill: rgb(0, 0, 0); fill-opacity: 0;"/></g><g class="traces" transform="translate(0,298.7)" style="opacity: 1;"><text class="legendtext" text-anchor="start" x="40" y="4.680000000000001" style="font-family: 'Open Sans', verdana, arial, sans-serif; font-size: 12px; fill: rgb(42, 63, 95); fill-opacity: 1; white-space: pre;">xtoken</text><g class="layers"><g class="legendfill"><path class="js-fill" d="M5,-2h30v6h-30z" style="stroke-width: 0; fill: rgb(255, 161, 90); fill-opacity: 0.5;"/></g><g class="legendlines"><path class="js-line" d="M5,-2h30" style="fill: none; stroke: rgb(255, 161, 90); stroke-opacity: 1; stroke-width: 2px;"/></g><g class="legendsymbols"><g class="legendpoints"/></g></g><rect class="legendtoggle" x="0" y="-9.5" width="144.0625" height="19" style="fill: rgb(0, 0, 0); fill-opacity: 0;"/></g><g class="traces" transform="translate(0,317.7)" style="opacity: 1;"><text class="legendtext" text-anchor="start" x="40" y="4.680000000000001" style="font-family: 'Open Sans', verdana, arial, sans-serif; font-size: 12px; fill: rgb(42, 63, 95); fill-opacity: 1; white-space: pre;">hop-protocol</text><g class="layers"><g class="legendfill"><path class="js-fill" d="M5,-2h30v6h-30z" style="stroke-width: 0; fill: rgb(25, 211, 243); fill-opacity: 0.5;"/></g><g class="legendlines"><path class="js-line" d="M5,-2h30" style="fill: none; stroke: rgb(25, 211, 243); stroke-opacity: 1; stroke-width: 2px;"/></g><g class="legendsymbols"><g class="legendpoints"/></g></g><rect class="legendtoggle" x="0" y="-9.5" width="144.0625" height="19" style="fill: rgb(0, 0, 0); fill-opacity: 0;"/></g><g class="traces" transform="translate(0,336.7)" style="opacity: 1;"><text class="legendtext" text-anchor="start" x="40" y="4.680000000000001" style="font-family: 'Open Sans', verdana, arial, sans-serif; font-size: 12px; fill: rgb(42, 63, 95); fill-opacity: 1; white-space: pre;">beethoven-x</text><g class="layers"><g class="legendfill"><path class="js-fill" d="M5,0h30v6h-30z" style="stroke-width: 0; fill: rgb(255, 102, 146); fill-opacity: 0.5;"/></g><g class="legendlines"><path class="js-line" d="M5,0h30" style="fill: none; stroke: rgb(255, 102, 146); stroke-opacity: 1; stroke-width: 2px;"/></g><g class="legendsymbols"><g class="legendpoints"><path class="scatterpts" transform="translate(20,0)" d="M3,0A3,3 0 1,1 0,-3A3,3 0 0,1 3,0Z" style="opacity: 1; stroke-width: 0px; fill: rgb(255, 102, 146); fill-opacity: 1;"/></g></g></g><rect class="legendtoggle" x="0" y="-9.5" width="144.0625" height="19" style="fill: rgb(0, 0, 0); fill-opacity: 0;"/></g></g></g><rect class="scrollbar" rx="20" ry="3" width="0" height="0" x="0" y="0" style="fill: rgb(128, 139, 164); fill-opacity: 1;"/></g><g class="g-gtitle"><text class="gtitle" x="35" y="50" text-anchor="start" dy="0em" style="font-family: 'Open Sans', verdana, arial, sans-serif; font-size: 17px; fill: rgb(42, 63, 95); opacity: 1; font-weight: normal; white-space: pre;">Cumulative Net Dollar Flow since Program Announcement</text></g><g class="g-xtitle"><text class="xtitle" x="304.5" y="476.409375" text-anchor="middle" style="font-family: 'Open Sans', verdana, arial, sans-serif; font-size: 14px; fill: rgb(42, 63, 95); opacity: 1; font-weight: normal; white-space: pre;">Day</text></g><g class="g-ytitle"><text class="ytitle" transform="rotate(-90,17.496875000000003,260)" x="17.496875000000003" y="260" text-anchor="middle" style="font-family: 'Open Sans', verdana, arial, sans-serif; font-size: 14px; fill: rgb(42, 63, 95); opacity: 1; font-weight: normal; white-space: pre;">Cumulative Net Dollar Flow (N$F)</text></g></g></svg>