<svg class="main-svg" xmlns="http://www.w3.org/2000/svg" xmlns:xlink="http://www.w3.org/1999/xlink" width="700" height="500" style="" viewBox="0 0 700 500"><rect x="0" y="0" width="700" height="500" style="fill: rgb(255, 255, 255); fill-opacity: 1;"/><defs id="defs-33d501"><g class="clips"><clipPath id="clip33d501xyplot" class="plotclip"><rect width="449" height="320"/></clipPath><clipPath class="axesclip" id="clip33d501x"><rect x="80" y="0" width="449" height="500"/></clipPath><clipPath class="axesclip" id="clip33d501y"><rect x="0" y="100" width="700" height="320"/></clipPath><clipPath class="axesclip" id="clip33d501xy"><rect x="80" y="100" width="449" height="320"/></clipPath></g><g class="gradients"/><g class="patterns"/></defs><g class="bglayer"><rect class="bg" x="80" y="100" width="449" height="320" style="fill: rgb(229, 236, 246); fill-opacity: 1; stroke-width: 0;"/></g><g class="layer-below"><g class="imagelayer"/><g class="shapelayer"/></g><g class="cartesianlayer"><g class="subplot xy"><g class="layer-subplot"><g class="shapelayer"/><g class="imagelayer"/></g><g class="minor-gridlayer"><g class="x"/><g class="y"/></g><g class="gridlayer"><g class="x"><path class="xgrid crisp" transform="translate(163.23000000000002,0)" d="M0,100v320" style="stroke: rgb(255, 255, 255); stroke-opacity: 1; stroke-width: 1px;"/><path class="xgrid crisp" transform="translate(299.02,0)" d="M0,100v320" style="stroke: rgb(255, 255, 255); stroke-opacity: 1; stroke-width: 1px;"/><path class="xgrid crisp" transform="translate(430.44,0)" d="M0,100v320" style="stroke: rgb(255, 255, 255); stroke-opacity: 1; stroke-width: 1px;"/></g><g class="y"><path class="ygrid crisp" transform="translate(0,344.23)" d="M80,0h449" style="stroke: rgb(255, 255, 255); stroke-opacity: 1; stroke-width: 1px;"/><path class="ygrid crisp" transform="translate(0,293.69)" d="M80,0h449" style="stroke: rgb(255, 255, 255); stroke-opacity: 1; stroke-width: 1px;"/><path class="ygrid crisp" transform="translate(0,243.14)" d="M80,0h449" style="stroke: rgb(255, 255, 255); stroke-opacity: 1; stroke-width: 1px;"/><path class="ygrid crisp" transform="translate(0,192.6)" d="M80,0h449" style="stroke: rgb(255, 255, 255); stroke-opacity: 1; stroke-width: 1px;"/><path class="ygrid crisp" transform="translate(0,142.06)" d="M80,0h449" style="stroke: rgb(255, 255, 255); stroke-opacity: 1; stroke-width: 1px;"/></g></g><g class="zerolinelayer"><path class="yzl zl crisp" transform="translate(0,394.77)" d="M80,0h449" style="stroke: rgb(255, 255, 255); stroke-opacity: 1; stroke-width: 2px;"/></g><path class="xlines-below"/><path class="ylines-below"/><g class="overlines-below"/><g class="xaxislayer-below"/><g class="yaxislayer-below"/><g class="overaxes-below"/><g class="plot" transform="translate(80,100)" clip-path="url(#clip33d501xyplot)"><g class="scatterlayer mlayer"><g class="trace scatter trace5e2715" style="stroke-miterlimit: 2;"><g class="fills"><g><path class="js-fill" d="M449,294.77L0,294.77L0,294.56L4.38,293.92L8.76,291.32L13.14,288.99L17.52,283.16L21.9,281.7L26.28,278.31L30.66,276.26L35.04,272.8L48.19,269.61L52.57,268.41L61.33,264.83L65.71,259.2L70.09,257.31L74.47,251.6L78.85,245.49L83.23,244.63L87.61,244.44L91.99,246.54L96.37,246.31L100.75,251.25L105.13,248.41L109.51,249.19L113.89,250.3L118.27,250.12L127.03,253.53L131.41,258.83L140.18,266.21L144.56,268.2L148.94,271.8L153.32,272.51L157.7,273.83L162.08,271.94L183.98,272.75L188.36,272.09L192.74,273.05L197.12,273.16L205.88,273.22L210.26,273.92L219.02,274.53L223.41,274.59L227.79,275.33L232.17,275.19L236.55,275.33L240.93,276.98L249.69,276.63L254.07,277.73L267.21,278.45L271.59,278.58L280.35,281.04L284.73,280.97L293.49,278.95L297.87,279.16L315.4,279.6L319.78,279.43L346.06,279.34L350.44,279.21L372.34,278.33L376.72,275.34L385.48,273.49L389.86,270.34L394.24,269.56L398.62,269.66L403.01,268.44L407.39,263.17L411.77,262.19L416.15,262.14L424.91,261.24L429.29,259.94L433.67,259.88L438.05,261.03L442.43,262.78L446.81,263.16L449,263.09" style="fill: rgb(99, 110, 250); fill-opacity: 0.5; stroke-width: 0;"/></g></g><g class="errorbars"/><g class="lines"><path class="js-line" d="M0,294.56L4.38,293.92L8.76,291.32L13.14,288.99L17.52,283.16L21.9,281.7L26.28,278.31L30.66,276.26L35.04,272.8L48.19,269.61L52.57,268.41L61.33,264.83L65.71,259.2L70.09,257.31L74.47,251.6L78.85,245.49L83.23,244.63L87.61,244.44L91.99,246.54L96.37,246.31L100.75,251.25L105.13,248.41L109.51,249.19L113.89,250.3L118.27,250.12L127.03,253.53L131.41,258.83L140.18,266.21L144.56,268.2L148.94,271.8L153.32,272.51L157.7,273.83L162.08,271.94L183.98,272.75L188.36,272.09L192.74,273.05L197.12,273.16L205.88,273.22L210.26,273.92L219.02,274.53L223.41,274.59L227.79,275.33L232.17,275.19L236.55,275.33L240.93,276.98L249.69,276.63L254.07,277.73L267.21,278.45L271.59,278.58L280.35,281.04L284.73,280.97L293.49,278.95L297.87,279.16L315.4,279.6L319.78,279.43L346.06,279.34L350.44,279.21L372.34,278.33L376.72,275.34L385.48,273.49L389.86,270.34L394.24,269.56L398.62,269.66L403.01,268.44L407.39,263.17L411.77,262.19L416.15,262.14L424.91,261.24L429.29,259.94L433.67,259.88L438.05,261.03L442.43,262.78L446.81,263.16L449,263.09" style="vector-effect: non-scaling-stroke; fill: none; stroke: rgb(99, 110, 250); stroke-opacity: 1; stroke-width: 2px; opacity: 1;"/></g><g class="points"/><g class="text"/></g><g class="trace scatter trace24b9bd" style="stroke-miterlimit: 2;"><g class="fills"><g><path class="js-fill" d="M449,294.77L4.38,294.77L4.38,294.83L21.9,294.75L26.28,298.05L39.42,297.88L43.8,297.94L61.33,297.95L65.71,297.95L192.74,297.59L197.12,297.64L214.64,297.85L219.02,297.92L267.21,297.72L271.59,297.6L389.86,297.37L394.24,297.36L449,297.24" style="fill: rgb(239, 85, 59); fill-opacity: 0.5; stroke-width: 0;"/></g></g><g class="errorbars"/><g class="lines"><path class="js-line" d="M4.38,294.83L21.9,294.75L26.28,298.05L39.42,297.88L43.8,297.94L61.33,297.95L65.71,297.95L192.74,297.59L197.12,297.64L214.64,297.85L219.02,297.92L267.21,297.72L271.59,297.6L389.86,297.37L394.24,297.36L449,297.24" style="vector-effect: non-scaling-stroke; fill: none; stroke: rgb(239, 85, 59); stroke-opacity: 1; stroke-width: 2px; opacity: 1;"/></g><g class="points"/><g class="text"/></g><g class="trace scatter trace9869f9" style="stroke-miterlimit: 2;"><g class="fills"><g><path class="js-fill" d="M449,294.77L4.38,294.77L4.38,294.73L43.8,294.23L48.19,293.82L56.95,293.5L61.33,291.92L65.71,288.42L70.09,286.07L78.85,284.77L83.23,284.47L96.37,283.31L100.75,281.7L105.13,281.1L109.51,279.51L113.89,279.37L118.27,278.44L127.03,277.49L131.41,277.21L140.18,278.84L144.56,281.27L153.32,279.43L157.7,279.66L175.22,279.62L179.6,280.61L188.36,279.82L192.74,277.24L197.12,277.99L201.5,277.89L214.64,278.21L219.02,278.7L227.79,279.37L232.17,279.36L267.21,279.85L271.59,280.3L280.35,282.42L328.54,278.67L359.2,277.99L363.58,276.97L381.1,277.16L385.48,258.72L403.01,258.76L407.39,259.26L449,259.07" style="fill: rgb(0, 204, 150); fill-opacity: 0.5; stroke-width: 0;"/></g></g><g class="errorbars"/><g class="lines"><path class="js-line" d="M4.38,294.73L43.8,294.23L48.19,293.82L56.95,293.5L61.33,291.92L65.71,288.42L70.09,286.07L78.85,284.77L83.23,284.47L96.37,283.31L100.75,281.7L105.13,281.1L109.51,279.51L113.89,279.37L118.27,278.44L127.03,277.49L131.41,277.21L140.18,278.84L144.56,281.27L153.32,279.43L157.7,279.66L175.22,279.62L179.6,280.61L188.36,279.82L192.74,277.24L197.12,277.99L201.5,277.89L214.64,278.21L219.02,278.7L227.79,279.37L232.17,279.36L267.21,279.85L271.59,280.3L280.35,282.42L328.54,278.67L359.2,277.99L363.58,276.97L381.1,277.16L385.48,258.72L403.01,258.76L407.39,259.26L449,259.07" style="vector-effect: non-scaling-stroke; fill: none; stroke: rgb(0, 204, 150); stroke-opacity: 1; stroke-width: 2px; opacity: 1;"/></g><g class="points"/><g class="text"/></g><g class="trace scatter trace22189b" style="stroke-miterlimit: 2;"><g class="fills"><g><path class="js-fill" d="M449,294.77L4.38,294.77L4.38,294.78L449,294.77" style="fill: rgb(171, 99, 250); fill-opacity: 0.5; stroke-width: 0;"/></g></g><g class="errorbars"/><g class="lines"><path class="js-line" d="M4.38,294.78L449,294.77" style="vector-effect: non-scaling-stroke; fill: none; stroke: rgb(171, 99, 250); stroke-opacity: 1; stroke-width: 2px; opacity: 1;"/></g><g class="points"/><g class="text"/></g><g class="trace scatter trace436b4f" style="stroke-miterlimit: 2;"><g class="fills"><g><path class="js-fill" d="M449,294.77L8.76,294.77L8.76,294.77L100.75,293.68L105.13,292.35L127.03,291.82L131.41,291.84L249.69,292.77L254.07,292.42L271.59,292.2L275.97,292.86L311.02,292.69L315.4,292.61L346.06,291.87L350.44,291.76L449,291.76" style="fill: rgb(255, 161, 90); fill-opacity: 0.5; stroke-width: 0;"/></g></g><g class="errorbars"/><g class="lines"><path class="js-line" d="M8.76,294.77L100.75,293.68L105.13,292.35L127.03,291.82L131.41,291.84L249.69,292.77L254.07,292.42L271.59,292.2L275.97,292.86L311.02,292.69L315.4,292.61L346.06,291.87L350.44,291.76L449,291.76" style="vector-effect: non-scaling-stroke; fill: none; stroke: rgb(255, 161, 90); stroke-opacity: 1; stroke-width: 2px; opacity: 1;"/></g><g class="points"/><g class="text"/></g><g class="trace scatter traced90174" style="stroke-miterlimit: 2;"><g class="fills"><g><path class="js-fill" d="M449,294.77L87.61,294.77L87.61,294.76L91.99,293.85L96.37,291.64L105.13,290.49L109.51,290.13L118.27,289.24L122.65,287.8L166.46,286.82L170.84,287.12L271.59,289L275.97,289.29L284.73,289.18L289.11,287.97L324.16,287.23L328.54,287L389.86,287.3L394.24,287.45L416.15,287.29L420.53,288.12L449,289.31" style="fill: rgb(25, 211, 243); fill-opacity: 0.5; stroke-width: 0;"/></g></g><g class="errorbars"/><g class="lines"><path class="js-line" d="M87.61,294.76L91.99,293.85L96.37,291.64L105.13,290.49L109.51,290.13L118.27,289.24L122.65,287.8L166.46,286.82L170.84,287.12L271.59,289L275.97,289.29L284.73,289.18L289.11,287.97L324.16,287.23L328.54,287L389.86,287.3L394.24,287.45L416.15,287.29L420.53,288.12L449,289.31" style="vector-effect: non-scaling-stroke; fill: none; stroke: rgb(25, 211, 243); stroke-opacity: 1; stroke-width: 2px; opacity: 1;"/></g><g class="points"/><g class="text"/></g><g class="trace scatter tracec837dc" style="stroke-miterlimit: 2;"><g class="fills"><g><path class="js-fill" d="M449,294.77L91.99,294.77L91.99,294.73L100.75,293.56L105.13,293.07L131.41,292.85L135.8,292.76L346.06,292.99L350.44,293L449,293.05" style="fill: rgb(255, 102, 146); fill-opacity: 0.5; stroke-width: 0;"/></g></g><g class="errorbars"/><g class="lines"><path class="js-line" d="M91.99,294.73L100.75,293.56L105.13,293.07L131.41,292.85L135.8,292.76L346.06,292.99L350.44,293L449,293.05" style="vector-effect: non-scaling-stroke; fill: none; stroke: rgb(255, 102, 146); stroke-opacity: 1; stroke-width: 2px; opacity: 1;"/></g><g class="points"/><g class="text"/></g><g class="trace scatter trace545d44" style="stroke-miterlimit: 2;"><g class="fills"><g><path class="js-fill" d="M449,294.77L96.37,294.77L96.37,294.32L100.75,173.43L105.13,88.48L109.51,55.79L113.89,35.77L118.27,38.83L122.65,31.45L127.03,16.46L131.41,16L135.8,16.65L140.18,34.82L144.56,42.21L148.94,42.13L157.7,49.39L162.08,103.52L170.84,105.43L175.22,104.63L179.6,112.03L183.98,107.55L188.36,105.61L192.74,98.8L197.12,99.92L201.5,96.57L205.88,100.26L210.26,102.14L214.64,90.28L219.02,88.2L223.41,87.71L227.79,88.29L232.17,89.36L236.55,89.14L245.31,108.44L249.69,109.69L254.07,116.59L258.45,109.33L267.21,107.82L271.59,105.33L275.97,105.71L280.35,112.25L289.11,103.63L293.49,101.49L297.87,102.14L302.25,98.65L311.02,97.32L315.4,95.09L319.78,94.92L324.16,93.42L328.54,96.85L332.92,95.33L337.3,93.48L341.68,81L346.06,75.68L350.44,76.64L354.82,76.59L359.2,75.36L363.58,71.23L367.96,69.92L372.34,72.03L376.72,72.75L381.1,73.69L385.48,70.8L389.86,74.32L394.24,76.25L398.62,76.59L403.01,79.21L407.39,80.5L411.77,77.96L416.15,78.2L420.53,79.43L424.91,98.99L429.29,96.06L433.67,93.1L438.05,92.71L449,92.04" style="fill: rgb(182, 232, 128); fill-opacity: 0.5; stroke-width: 0;"/></g></g><g class="errorbars"/><g class="lines"><path class="js-line" d="M96.37,294.32L100.75,173.43L105.13,88.48L109.51,55.79L113.89,35.77L118.27,38.83L122.65,31.45L127.03,16.46L131.41,16L135.8,16.65L140.18,34.82L144.56,42.21L148.94,42.13L157.7,49.39L162.08,103.52L170.84,105.43L175.22,104.63L179.6,112.03L183.98,107.55L188.36,105.61L192.74,98.8L197.12,99.92L201.5,96.57L205.88,100.26L210.26,102.14L214.64,90.28L219.02,88.2L223.41,87.71L227.79,88.29L232.17,89.36L236.55,89.14L245.31,108.44L249.69,109.69L254.07,116.59L258.45,109.33L267.21,107.82L271.59,105.33L275.97,105.71L280.35,112.25L289.11,103.63L293.49,101.49L297.87,102.14L302.25,98.65L311.02,97.32L315.4,95.09L319.78,94.92L324.16,93.42L328.54,96.85L332.92,95.33L337.3,93.48L341.68,81L346.06,75.68L350.44,76.64L354.82,76.59L359.2,75.36L363.58,71.23L367.96,69.92L372.34,72.03L376.72,72.75L381.1,73.69L385.48,70.8L389.86,74.32L394.24,76.25L398.62,76.59L403.01,79.21L407.39,80.5L411.77,77.96L416.15,78.2L420.53,79.43L424.91,98.99L429.29,96.06L433.67,93.1L438.05,92.71L449,92.04" style="vector-effect: non-scaling-stroke; fill: none; stroke: rgb(182, 232, 128); stroke-opacity: 1; stroke-width: 2px; opacity: 1;"/></g><g class="points"/><g class="text"/></g><g class="trace scatter trace866e38" style="stroke-miterlimit: 2;"><g class="fills"><g><path class="js-fill" d="M449,294.77L100.75,294.77L100.75,295.7L105.13,289.95L109.51,290.75L127.03,291.57L131.41,291.07L135.8,290.01L140.18,291.4L153.32,290.31L157.7,290.51L162.08,290.66L166.46,289.82L179.6,289.36L183.98,288.82L197.12,289.37L201.5,289.25L210.26,288.47L214.64,287.88L219.02,287.6L223.41,286.41L232.17,285.92L236.55,285.3L240.93,286.99L245.31,287.51L249.69,287.94L254.07,286L275.97,283.88L280.35,285.8L306.63,285.56L311.02,287.23L319.78,286.88L324.16,287.45L328.54,287.6L332.92,286.76L341.68,285.85L346.06,286.45L354.82,286.56L359.2,285.97L367.96,286.99L372.34,286.03L385.48,283.45L389.86,283.47L394.24,283.16L398.62,279.45L407.39,278.65L411.77,278.8L429.29,278.47L433.67,278.37L449,278.46" style="fill: rgb(255, 151, 255); fill-opacity: 0.5; stroke-width: 0;"/></g></g><g class="errorbars"/><g class="lines"><path class="js-line" d="M100.75,295.7L105.13,289.95L109.51,290.75L127.03,291.57L131.41,291.07L135.8,290.01L140.18,291.4L153.32,290.31L157.7,290.51L162.08,290.66L166.46,289.82L179.6,289.36L183.98,288.82L197.12,289.37L201.5,289.25L210.26,288.47L214.64,287.88L219.02,287.6L223.41,286.41L232.17,285.92L236.55,285.3L240.93,286.99L245.31,287.51L249.69,287.94L254.07,286L275.97,283.88L280.35,285.8L306.63,285.56L311.02,287.23L319.78,286.88L324.16,287.45L328.54,287.6L332.92,286.76L341.68,285.85L346.06,286.45L354.82,286.56L359.2,285.97L367.96,286.99L372.34,286.03L385.48,283.45L389.86,283.47L394.24,283.16L398.62,279.45L407.39,278.65L411.77,278.8L429.29,278.47L433.67,278.37L449,278.46" style="vector-effect: non-scaling-stroke; fill: none; stroke: rgb(255, 151, 255); stroke-opacity: 1; stroke-width: 2px; opacity: 1;"/></g><g class="points"/><g class="text"/></g><g class="trace scatter trace8f6c07" style="stroke-miterlimit: 2;"><g class="fills"><g><path class="js-fill" d="M449,294.77L188.36,294.77L188.36,293.91L197.12,293.42L201.5,294.49L205.88,293.79L210.26,299.43L214.64,295.02L219.02,294.9L227.79,297.08L232.17,296.14L240.93,297.44L245.31,296.15L249.69,297.77L254.07,296.2L262.83,296.52L267.21,295.19L271.59,295.37L275.97,294.67L280.35,295.9L284.73,295.48L289.11,302.83L293.49,304L297.87,299.19L302.25,299.5L306.63,296.78L311.02,295.89L315.4,299.74L319.78,298.93L324.16,297.84L328.54,295.82L332.92,295.9L337.3,294.95L341.68,296.41L346.06,296.31L350.44,297.28L354.82,296.04L359.2,295.57L363.58,296.41L367.96,296.45L372.34,297.4L381.1,297.8L385.48,297.66L403.01,297.56L407.39,299.33L411.77,298.19L416.15,298.56L420.53,300.59L429.29,300.92L433.67,298.85L438.05,298.24L449,297.46" style="fill: rgb(254, 203, 82); fill-opacity: 0.5; stroke-width: 0;"/></g></g><g class="errorbars"/><g class="lines"><path class="js-line" d="M188.36,293.91L197.12,293.42L201.5,294.49L205.88,293.79L210.26,299.43L214.64,295.02L219.02,294.9L227.79,297.08L232.17,296.14L240.93,297.44L245.31,296.15L249.69,297.77L254.07,296.2L262.83,296.52L267.21,295.19L271.59,295.37L275.97,294.67L280.35,295.9L284.73,295.48L289.11,302.83L293.49,304L297.87,299.19L302.25,299.5L306.63,296.78L311.02,295.89L315.4,299.74L319.78,298.93L324.16,297.84L328.54,295.82L332.92,295.9L337.3,294.95L341.68,296.41L346.06,296.31L350.44,297.28L354.82,296.04L359.2,295.57L363.58,296.41L367.96,296.45L372.34,297.4L381.1,297.8L385.48,297.66L403.01,297.56L407.39,299.33L411.77,298.19L416.15,298.56L420.53,300.59L429.29,300.92L433.67,298.85L438.05,298.24L449,297.46" style="vector-effect: non-scaling-stroke; fill: none; stroke: rgb(254, 203, 82); stroke-opacity: 1; stroke-width: 2px; opacity: 1;"/></g><g class="points"/><g class="text"/></g><g class="trace scatter trace0f0553" style="stroke-miterlimit: 2;"><g class="fills"><g><path class="js-fill" d="M449,294.77L205.88,294.77L205.88,294.77L240.93,294.14L245.31,293.64L271.59,292.24L275.97,292.12L302.25,291.44L306.63,291.05L332.92,290.55L337.3,290.75L442.43,290.36L446.81,290.36L449,290.37" style="fill: rgb(99, 110, 250); fill-opacity: 0.5; stroke-width: 0;"/></g></g><g class="errorbars"/><g class="lines"><path class="js-line" d="M205.88,294.77L240.93,294.14L245.31,293.64L271.59,292.24L275.97,292.12L302.25,291.44L306.63,291.05L332.92,290.55L337.3,290.75L442.43,290.36L446.81,290.36L449,290.37" style="vector-effect: non-scaling-stroke; fill: none; stroke: rgb(99, 110, 250); stroke-opacity: 1; stroke-width: 2px; opacity: 1;"/></g><g class="points"/><g class="text"/></g><g class="trace scatter tracee05f32" style="stroke-miterlimit: 2;"><g class="fills"><g><path class="js-fill" d="M449,294.77L254.07,294.77L254.07,294.7L302.25,294.19L306.63,294.21L372.34,293.78L376.72,293.77L449,294.17" style="fill: rgb(239, 85, 59); fill-opacity: 0.5; stroke-width: 0;"/></g></g><g class="errorbars"/><g class="lines"><path class="js-line" d="M254.07,294.7L302.25,294.19L306.63,294.21L372.34,293.78L376.72,293.77L449,294.17" style="vector-effect: non-scaling-stroke; fill: none; stroke: rgb(239, 85, 59); stroke-opacity: 1; stroke-width: 2px; opacity: 1;"/></g><g class="points"/><g class="text"/></g><g class="trace scatter tracec0b140" style="stroke-miterlimit: 2;"><g class="fills"><g><path class="js-fill" d="M449,294.77L267.21,294.77L267.21,294.77L449,294.76" style="fill: rgb(0, 204, 150); fill-opacity: 0.5; stroke-width: 0;"/></g></g><g class="errorbars"/><g class="lines"><path class="js-line" d="M267.21,294.77L449,294.76" style="vector-effect: non-scaling-stroke; fill: none; stroke: rgb(0, 204, 150); stroke-opacity: 1; stroke-width: 2px; opacity: 1;"/></g><g class="points"/><g class="text"/></g><g class="trace scatter trace4beaad" style="stroke-miterlimit: 2;"><g class="fills"><g><path class="js-fill" d="M449,294.77L275.97,294.77L275.97,294.78L449,294.63" style="fill: rgb(171, 99, 250); fill-opacity: 0.5; stroke-width: 0;"/></g></g><g class="errorbars"/><g class="lines"><path class="js-line" d="M275.97,294.78L449,294.63" style="vector-effect: non-scaling-stroke; fill: none; stroke: rgb(171, 99, 250); stroke-opacity: 1; stroke-width: 2px; opacity: 1;"/></g><g class="points"/><g class="text"/></g><g class="trace scatter trace0b8eb0" style="stroke-miterlimit: 2;"><g class="fills"><g><path class="js-fill" d="M449,294.77L297.87,294.77L297.87,294.77L449,294.42" style="fill: rgb(255, 161, 90); fill-opacity: 0.5; stroke-width: 0;"/></g></g><g class="errorbars"/><g class="lines"><path class="js-line" d="M297.87,294.77L449,294.42" style="vector-effect: non-scaling-stroke; fill: none; stroke: rgb(255, 161, 90); stroke-opacity: 1; stroke-width: 2px; opacity: 1;"/></g><g class="points"/><g class="text"/></g><g class="trace scatter tracee9a98f" style="stroke-miterlimit: 2;"><g class="fills"><g><path class="js-fill" d="M449,294.77L311.02,294.77L311.02,294.69L337.3,294.56L341.68,294.56L385.48,294.29L389.86,294.36L449,294.17" style="fill: rgb(25, 211, 243); fill-opacity: 0.5; stroke-width: 0;"/></g></g><g class="errorbars"/><g class="lines"><path class="js-line" d="M311.02,294.69L337.3,294.56L341.68,294.56L385.48,294.29L389.86,294.36L449,294.17" style="vector-effect: non-scaling-stroke; fill: none; stroke: rgb(25, 211, 243); stroke-opacity: 1; stroke-width: 2px; opacity: 1;"/></g><g class="points"/><g class="text"/></g><g class="trace scatter trace03e40b" style="stroke-miterlimit: 2;"><g class="fills"><g><path class="js-fill" d="M449,294.77L341.68,294.77L341.68,294.76L346.06,293.11L350.44,292.46L354.82,292.03L359.2,292.5L363.58,291.55L367.96,291.43L376.72,291.29L381.1,290.57L385.48,289.98L389.86,288.28L449,288.59" style="fill: rgb(255, 102, 146); fill-opacity: 0.5; stroke-width: 0;"/></g></g><g class="errorbars"/><g class="lines"><path class="js-line" d="M341.68,294.76L346.06,293.11L350.44,292.46L354.82,292.03L359.2,292.5L363.58,291.55L367.96,291.43L376.72,291.29L381.1,290.57L385.48,289.98L389.86,288.28L449,288.59" style="vector-effect: non-scaling-stroke; fill: none; stroke: rgb(255, 102, 146); stroke-opacity: 1; stroke-width: 2px; opacity: 1;"/></g><g class="points"/><g class="text"/></g></g></g><g class="overplot"/><path class="xlines-above crisp" d="M0,0" style="fill: none;"/><path class="ylines-above crisp" d="M0,0" style="fill: none;"/><g class="overlines-above"/><g class="xaxislayer-above"><g class="xtick"><text text-anchor="middle" x="0" y="433" transform="translate(163.23000000000002,0)" style="font-family: 'Open Sans', verdana, arial, sans-serif; font-size: 12px; fill: rgb(42, 63, 95); fill-opacity: 1; white-space: pre; opacity: 1;">Aug 2022</text></g><g class="xtick"><text text-anchor="middle" x="0" y="433" style="font-family: 'Open Sans', verdana, arial, sans-serif; font-size: 12px; fill: rgb(42, 63, 95); fill-opacity: 1; white-space: pre; opacity: 1;" transform="translate(299.02,0)">Sep 2022</text></g><g class="xtick"><text text-anchor="middle" x="0" y="433" style="font-family: 'Open Sans', verdana, arial, sans-serif; font-size: 12px; fill: rgb(42, 63, 95); fill-opacity: 1; white-space: pre; opacity: 1;" transform="translate(430.44,0)">Oct 2022</text></g></g><g class="yaxislayer-above"><g class="ytick"><text text-anchor="end" x="79" y="4.199999999999999" transform="translate(0,394.77)" style="font-family: 'Open Sans', verdana, arial, sans-serif; font-size: 12px; fill: rgb(42, 63, 95); fill-opacity: 1; white-space: pre; opacity: 1;">$0</text></g><g class="ytick"><text text-anchor="end" x="79" y="4.199999999999999" style="font-family: 'Open Sans', verdana, arial, sans-serif; font-size: 12px; fill: rgb(42, 63, 95); fill-opacity: 1; white-space: pre; opacity: 1;" transform="translate(0,344.23)">$100M</text></g><g class="ytick"><text text-anchor="end" x="79" y="4.199999999999999" style="font-family: 'Open Sans', verdana, arial, sans-serif; font-size: 12px; fill: rgb(42, 63, 95); fill-opacity: 1; white-space: pre; opacity: 1;" transform="translate(0,293.69)">$200M</text></g><g class="ytick"><text text-anchor="end" x="79" y="4.199999999999999" style="font-family: 'Open Sans', verdana, arial, sans-serif; font-size: 12px; fill: rgb(42, 63, 95); fill-opacity: 1; white-space: pre; opacity: 1;" transform="translate(0,243.14)">$300M</text></g><g class="ytick"><text text-anchor="end" x="79" y="4.199999999999999" style="font-family: 'Open Sans', verdana, arial, sans-serif; font-size: 12px; fill: rgb(42, 63, 95); fill-opacity: 1; white-space: pre; opacity: 1;" transform="translate(0,192.6)">$400M</text></g><g class="ytick"><text text-anchor="end" x="79" y="4.199999999999999" style="font-family: 'Open Sans', verdana, arial, sans-serif; font-size: 12px; fill: rgb(42, 63, 95); fill-opacity: 1; white-space: pre; opacity: 1;" transform="translate(0,142.06)">$500M</text></g></g><g class="overaxes-above"/></g></g><g class="polarlayer"/><g class="smithlayer"/><g class="ternarylayer"/><g class="geolayer"/><g class="funnelarealayer"/><g class="pielayer"/><g class="iciclelayer"/><g class="treemaplayer"/><g class="sunburstlayer"/><g class="glimages"/><defs id="topdefs-33d501"><g class="clips"/><clipPath id="legend33d501"><rect width="150" height="320" x="0" y="0"/></clipPath></defs><g class="layer-above"><g class="imagelayer"/><g class="shapelayer"/></g><g class="infolayer"><g class="legend" pointer-events="all" transform="translate(537.98,100)"><rect class="bg" shape-rendering="crispEdges" width="150" height="320" x="0" y="0" style="stroke: rgb(68, 68, 68); stroke-opacity: 1; fill: rgb(255, 255, 255); fill-opacity: 1; stroke-width: 0px;"/><g class="scrollbox" transform="" clip-path="url(#legend33d501)"><text class="legendtitletext" text-anchor="start" x="2" y="18.2" style="font-family: 'Open Sans', verdana, arial, sans-serif; font-size: 14px; fill: rgb(42, 63, 95); fill-opacity: 1; white-space: pre;">App Name</text><g class="groups"><g class="traces" transform="translate(0,32.7)" style="opacity: 1;"><text class="legendtext" text-anchor="start" x="40" y="4.680000000000001" style="font-family: 'Open Sans', verdana, arial, sans-serif; font-size: 12px; fill: rgb(42, 63, 95); fill-opacity: 1; white-space: pre;">velodrome</text><g class="layers"><g class="legendfill"><path class="js-fill" d="M5,-2h30v6h-30z" style="stroke-width: 0; fill: rgb(99, 110, 250); fill-opacity: 0.5;"/></g><g class="legendlines"><path class="js-line" d="M5,-2h30" style="fill: none; stroke: rgb(99, 110, 250); stroke-opacity: 1; stroke-width: 2px;"/></g><g class="legendsymbols"><g class="legendpoints"/></g></g><rect class="legendtoggle" x="0" y="-9.5" width="144.0625" height="19" style="fill: rgb(0, 0, 0); fill-opacity: 0;"/></g><g class="traces" transform="translate(0,51.7)" style="opacity: 1;"><text class="legendtext" text-anchor="start" x="40" y="4.680000000000001" style="font-family: 'Open Sans', verdana, arial, sans-serif; font-size: 12px; fill: rgb(42, 63, 95); fill-opacity: 1; white-space: pre;">perpetual-protocol</text><g class="layers"><g class="legendfill"><path class="js-fill" d="M5,-2h30v6h-30z" style="stroke-width: 0; fill: rgb(239, 85, 59); fill-opacity: 0.5;"/></g><g class="legendlines"><path class="js-line" d="M5,-2h30" style="fill: none; stroke: rgb(239, 85, 59); stroke-opacity: 1; stroke-width: 2px;"/></g><g class="legendsymbols"><g class="legendpoints"/></g></g><rect class="legendtoggle" x="0" y="-9.5" width="144.0625" height="19" style="fill: rgb(0, 0, 0); fill-opacity: 0;"/></g><g class="traces" transform="translate(0,70.7)" style="opacity: 1;"><text class="legendtext" text-anchor="start" x="40" y="4.680000000000001" style="font-family: 'Open Sans', verdana, arial, sans-serif; font-size: 12px; fill: rgb(42, 63, 95); fill-opacity: 1; white-space: pre;">pooltogether</text><g class="layers"><g class="legendfill"><path class="js-fill" d="M5,-2h30v6h-30z" style="stroke-width: 0; fill: rgb(0, 204, 150); fill-opacity: 0.5;"/></g><g class="legendlines"><path class="js-line" d="M5,-2h30" style="fill: none; stroke: rgb(0, 204, 150); stroke-opacity: 1; stroke-width: 2px;"/></g><g class="legendsymbols"><g class="legendpoints"/></g></g><rect class="legendtoggle" x="0" y="-9.5" width="144.0625" height="19" style="fill: rgb(0, 0, 0); fill-opacity: 0;"/></g><g class="traces" transform="translate(0,89.7)" style="opacity: 1;"><text class="legendtext" text-anchor="start" x="40" y="4.680000000000001" style="font-family: 'Open Sans', verdana, arial, sans-serif; font-size: 12px; fill: rgb(42, 63, 95); fill-opacity: 1; white-space: pre;">thales</text><g class="layers"><g class="legendfill"><path class="js-fill" d="M5,-2h30v6h-30z" style="stroke-width: 0; fill: rgb(171, 99, 250); fill-opacity: 0.5;"/></g><g class="legendlines"><path class="js-line" d="M5,-2h30" style="fill: none; stroke: rgb(171, 99, 250); stroke-opacity: 1; stroke-width: 2px;"/></g><g class="legendsymbols"><g class="legendpoints"/></g></g><rect class="legendtoggle" x="0" y="-9.5" width="144.0625" height="19" style="fill: rgb(0, 0, 0); fill-opacity: 0;"/></g><g class="traces" transform="translate(0,108.7)" style="opacity: 1;"><text class="legendtext" text-anchor="start" x="40" y="4.680000000000001" style="font-family: 'Open Sans', verdana, arial, sans-serif; font-size: 12px; fill: rgb(42, 63, 95); fill-opacity: 1; white-space: pre;">rubicon</text><g class="layers"><g class="legendfill"><path class="js-fill" d="M5,-2h30v6h-30z" style="stroke-width: 0; fill: rgb(255, 161, 90); fill-opacity: 0.5;"/></g><g class="legendlines"><path class="js-line" d="M5,-2h30" style="fill: none; stroke: rgb(255, 161, 90); stroke-opacity: 1; stroke-width: 2px;"/></g><g class="legendsymbols"><g class="legendpoints"/></g></g><rect class="legendtoggle" x="0" y="-9.5" width="144.0625" height="19" style="fill: rgb(0, 0, 0); fill-opacity: 0;"/></g><g class="traces" transform="translate(0,127.7)" style="opacity: 1;"><text class="legendtext" text-anchor="start" x="40" y="4.680000000000001" style="font-family: 'Open Sans', verdana, arial, sans-serif; font-size: 12px; fill: rgb(42, 63, 95); fill-opacity: 1; white-space: pre;">lyra</text><g class="layers"><g class="legendfill"><path class="js-fill" d="M5,-2h30v6h-30z" style="stroke-width: 0; fill: rgb(25, 211, 243); fill-opacity: 0.5;"/></g><g class="legendlines"><path class="js-line" d="M5,-2h30" style="fill: none; stroke: rgb(25, 211, 243); stroke-opacity: 1; stroke-width: 2px;"/></g><g class="legendsymbols"><g class="legendpoints"/></g></g><rect class="legendtoggle" x="0" y="-9.5" width="144.0625" height="19" style="fill: rgb(0, 0, 0); fill-opacity: 0;"/></g><g class="traces" transform="translate(0,146.7)" style="opacity: 1;"><text class="legendtext" text-anchor="start" x="40" y="4.680000000000001" style="font-family: 'Open Sans', verdana, arial, sans-serif; font-size: 12px; fill: rgb(42, 63, 95); fill-opacity: 1; white-space: pre;">wepiggy</text><g class="layers"><g class="legendfill"><path class="js-fill" d="M5,-2h30v6h-30z" style="stroke-width: 0; fill: rgb(255, 102, 146); fill-opacity: 0.5;"/></g><g class="legendlines"><path class="js-line" d="M5,-2h30" style="fill: none; stroke: rgb(255, 102, 146); stroke-opacity: 1; stroke-width: 2px;"/></g><g class="legendsymbols"><g class="legendpoints"/></g></g><rect class="legendtoggle" x="0" y="-9.5" width="144.0625" height="19" style="fill: rgb(0, 0, 0); fill-opacity: 0;"/></g><g class="traces" transform="translate(0,165.7)" style="opacity: 1;"><text class="legendtext" text-anchor="start" x="40" y="4.680000000000001" style="font-family: 'Open Sans', verdana, arial, sans-serif; font-size: 12px; fill: rgb(42, 63, 95); fill-opacity: 1; white-space: pre;">aave-v3</text><g class="layers"><g class="legendfill"><path class="js-fill" d="M5,-2h30v6h-30z" style="stroke-width: 0; fill: rgb(182, 232, 128); fill-opacity: 0.5;"/></g><g class="legendlines"><path class="js-line" d="M5,-2h30" style="fill: none; stroke: rgb(182, 232, 128); stroke-opacity: 1; stroke-width: 2px;"/></g><g class="legendsymbols"><g class="legendpoints"/></g></g><rect class="legendtoggle" x="0" y="-9.5" width="144.0625" height="19" style="fill: rgb(0, 0, 0); fill-opacity: 0;"/></g><g class="traces" transform="translate(0,184.7)" style="opacity: 1;"><text class="legendtext" text-anchor="start" x="40" y="4.680000000000001" style="font-family: 'Open Sans', verdana, arial, sans-serif; font-size: 12px; fill: rgb(42, 63, 95); fill-opacity: 1; white-space: pre;">stargate</text><g class="layers"><g class="legendfill"><path class="js-fill" d="M5,-2h30v6h-30z" style="stroke-width: 0; fill: rgb(255, 151, 255); fill-opacity: 0.5;"/></g><g class="legendlines"><path class="js-line" d="M5,-2h30" style="fill: none; stroke: rgb(255, 151, 255); stroke-opacity: 1; stroke-width: 2px;"/></g><g class="legendsymbols"><g class="legendpoints"/></g></g><rect class="legendtoggle" x="0" y="-9.5" width="144.0625" height="19" style="fill: rgb(0, 0, 0); fill-opacity: 0;"/></g><g class="traces" transform="translate(0,203.7)" style="opacity: 1;"><text class="legendtext" text-anchor="start" x="40" y="4.680000000000001" style="font-family: 'Open Sans', verdana, arial, sans-serif; font-size: 12px; fill: rgb(42, 63, 95); fill-opacity: 1; white-space: pre;">synthetix</text><g class="layers"><g class="legendfill"><path class="js-fill" d="M5,-2h30v6h-30z" style="stroke-width: 0; fill: rgb(254, 203, 82); fill-opacity: 0.5;"/></g><g class="legendlines"><path class="js-line" d="M5,-2h30" style="fill: none; stroke: rgb(254, 203, 82); stroke-opacity: 1; stroke-width: 2px;"/></g><g class="legendsymbols"><g class="legendpoints"/></g></g><rect class="legendtoggle" x="0" y="-9.5" width="144.0625" height="19" style="fill: rgb(0, 0, 0); fill-opacity: 0;"/></g><g class="traces" transform="translate(0,222.7)" style="opacity: 1;"><text class="legendtext" text-anchor="start" x="40" y="4.680000000000001" style="font-family: 'Open Sans', verdana, arial, sans-serif; font-size: 12px; fill: rgb(42, 63, 95); fill-opacity: 1; white-space: pre;">pika-protocol</text><g class="layers"><g class="legendfill"><path class="js-fill" d="M5,-2h30v6h-30z" style="stroke-width: 0; fill: rgb(99, 110, 250); fill-opacity: 0.5;"/></g><g class="legendlines"><path class="js-line" d="M5,-2h30" style="fill: none; stroke: rgb(99, 110, 250); stroke-opacity: 1; stroke-width: 2px;"/></g><g class="legendsymbols"><g class="legendpoints"/></g></g><rect class="legendtoggle" x="0" y="-9.5" width="144.0625" height="19" style="fill: rgb(0, 0, 0); fill-opacity: 0;"/></g><g class="traces" transform="translate(0,241.7)" style="opacity: 1;"><text class="legendtext" text-anchor="start" x="40" y="4.680000000000001" style="font-family: 'Open Sans', verdana, arial, sans-serif; font-size: 12px; fill: rgb(42, 63, 95); fill-opacity: 1; white-space: pre;">pickle</text><g class="layers"><g class="legendfill"><path class="js-fill" d="M5,-2h30v6h-30z" style="stroke-width: 0; fill: rgb(239, 85, 59); fill-opacity: 0.5;"/></g><g class="legendlines"><path class="js-line" d="M5,-2h30" style="fill: none; stroke: rgb(239, 85, 59); stroke-opacity: 1; stroke-width: 2px;"/></g><g class="legendsymbols"><g class="legendpoints"/></g></g><rect class="legendtoggle" x="0" y="-9.5" width="144.0625" height="19" style="fill: rgb(0, 0, 0); fill-opacity: 0;"/></g><g class="traces" transform="translate(0,260.7)" style="opacity: 1;"><text class="legendtext" text-anchor="start" x="40" y="4.680000000000001" style="font-family: 'Open Sans', verdana, arial, sans-serif; font-size: 12px; fill: rgb(42, 63, 95); fill-opacity: 1; white-space: pre;">aelin</text><g class="layers"><g class="legendfill"><path class="js-fill" d="M5,-2h30v6h-30z" style="stroke-width: 0; fill: rgb(0, 204, 150); fill-opacity: 0.5;"/></g><g class="legendlines"><path class="js-line" d="M5,-2h30" style="fill: none; stroke: rgb(0, 204, 150); stroke-opacity: 1; stroke-width: 2px;"/></g><g class="legendsymbols"><g class="legendpoints"/></g></g><rect class="legendtoggle" x="0" y="-9.5" width="144.0625" height="19" style="fill: rgb(0, 0, 0); fill-opacity: 0;"/></g><g class="traces" transform="translate(0,279.7)" style="opacity: 1;"><text class="legendtext" text-anchor="start" x="40" y="4.680000000000001" style="font-family: 'Open Sans', verdana, arial, sans-serif; font-size: 12px; fill: rgb(42, 63, 95); fill-opacity: 1; white-space: pre;">polynomial-protocol</text><g class="layers"><g class="legendfill"><path class="js-fill" d="M5,-2h30v6h-30z" style="stroke-width: 0; fill: rgb(171, 99, 250); fill-opacity: 0.5;"/></g><g class="legendlines"><path class="js-line" d="M5,-2h30" style="fill: none; stroke: rgb(171, 99, 250); stroke-opacity: 1; stroke-width: 2px;"/></g><g class="legendsymbols"><g class="legendpoints"/></g></g><rect class="legendtoggle" x="0" y="-9.5" width="144.0625" height="19" style="fill: rgb(0, 0, 0); fill-opacity: 0;"/></g><g class="traces" transform="translate(0,298.7)" style="opacity: 1;"><text class="legendtext" text-anchor="start" x="40" y="4.680000000000001" style="font-family: 'Open Sans', verdana, arial, sans-serif; font-size: 12px; fill: rgb(42, 63, 95); fill-opacity: 1; white-space: pre;">xtoken</text><g class="layers"><g class="legendfill"><path class="js-fill" d="M5,-2h30v6h-30z" style="stroke-width: 0; fill: rgb(255, 161, 90); fill-opacity: 0.5;"/></g><g class="legendlines"><path class="js-line" d="M5,-2h30" style="fill: none; stroke: rgb(255, 161, 90); stroke-opacity: 1; stroke-width: 2px;"/></g><g class="legendsymbols"><g class="legendpoints"/></g></g><rect class="legendtoggle" x="0" y="-9.5" width="144.0625" height="19" style="fill: rgb(0, 0, 0); fill-opacity: 0;"/></g><g class="traces" transform="translate(0,317.7)" style="opacity: 1;"><text class="legendtext" text-anchor="start" x="40" y="4.680000000000001" style="font-family: 'Open Sans', verdana, arial, sans-serif; font-size: 12px; fill: rgb(42, 63, 95); fill-opacity: 1; white-space: pre;">hop-protocol</text><g class="layers"><g class="legendfill"><path class="js-fill" d="M5,-2h30v6h-30z" style="stroke-width: 0; fill: rgb(25, 211, 243); fill-opacity: 0.5;"/></g><g class="legendlines"><path class="js-line" d="M5,-2h30" style="fill: none; stroke: rgb(25, 211, 243); stroke-opacity: 1; stroke-width: 2px;"/></g><g class="legendsymbols"><g class="legendpoints"/></g></g><rect class="legendtoggle" x="0" y="-9.5" width="144.0625" height="19" style="fill: rgb(0, 0, 0); fill-opacity: 0;"/></g><g class="traces" transform="translate(0,336.7)" style="opacity: 1;"><text class="legendtext" text-anchor="start" x="40" y="4.680000000000001" style="font-family: 'Open Sans', verdana, arial, sans-serif; font-size: 12px; fill: rgb(42, 63, 95); fill-opacity: 1; white-space: pre;">beethoven-x</text><g class="layers"><g class="legendfill"><path class="js-fill" d="M5,-2h30v6h-30z" style="stroke-width: 0; fill: rgb(255, 102, 146); fill-opacity: 0.5;"/></g><g class="legendlines"><path class="js-line" d="M5,-2h30" style="fill: none; stroke: rgb(255, 102, 146); stroke-opacity: 1; stroke-width: 2px;"/></g><g class="legendsymbols"><g class="legendpoints"/></g></g><rect class="legendtoggle" x="0" y="-9.5" width="144.0625" height="19" style="fill: rgb(0, 0, 0); fill-opacity: 0;"/></g></g></g><rect class="scrollbar" rx="20" ry="3" width="0" height="0" x="0" y="0" style="fill: rgb(128, 139, 164); fill-opacity: 1;"/></g><g class="g-gtitle"><text class="gtitle" x="35" y="50" text-anchor="start" dy="0em" style="font-family: 'Open Sans', verdana, arial, sans-serif; font-size: 17px; fill: rgb(42, 63, 95); opacity: 1; font-weight: normal; white-space: pre;">Cumulative Net Dollar Flow since Program Announcement</text></g><g class="g-xtitle"><text class="xtitle" x="304.5" y="460.8" text-anchor="middle" style="font-family: 'Open Sans', verdana, arial, sans-serif; font-size: 14px; fill: rgb(42, 63, 95); opacity: 1; font-weight: normal; white-space: pre;">Day</text></g><g class="g-ytitle"><text class="ytitle" transform="rotate(-90,17.496875000000003,260)" x="17.496875000000003" y="260" text-anchor="middle" style="font-family: 'Open Sans', verdana, arial, sans-serif; font-size: 14px; fill: rgb(42, 63, 95); opacity: 1; font-weight: normal; white-space: pre;">Cumulative Net Dollar Flow (N$F)</text></g></g></svg>