<svg class="main-svg" xmlns="http://www.w3.org/2000/svg" xmlns:xlink="http://www.w3.org/1999/xlink" width="700" height="500" style="" viewBox="0 0 700 500"><rect x="0" y="0" width="700" height="500" style="fill: rgb(255, 255, 255); fill-opacity: 1;"/><defs id="defs-c544f1"><g class="clips"><clipPath id="clipc544f1xyplot" class="plotclip"><rect width="340" height="320"/></clipPath><clipPath class="axesclip" id="clipc544f1x"><rect x="80" y="0" width="340" height="500"/></clipPath><clipPath class="axesclip" id="clipc544f1y"><rect x="0" y="100" width="700" height="320"/></clipPath><clipPath class="axesclip" id="clipc544f1xy"><rect x="80" y="100" width="340" height="320"/></clipPath></g><g class="gradients"/><g class="patterns"/></defs><g class="bglayer"><rect class="bg" x="80" y="100" width="340" height="320" style="fill: rgb(229, 236, 246); fill-opacity: 1; stroke-width: 0;"/></g><g class="layer-below"><g class="imagelayer"/><g class="shapelayer"/></g><g class="cartesianlayer"><g class="subplot xy"><g class="layer-subplot"><g class="shapelayer"/><g class="imagelayer"/></g><g class="minor-gridlayer"><g class="x"/><g class="y"/></g><g class="gridlayer"><g class="x"><path class="xgrid crisp" transform="translate(178.26999999999998,0)" d="M0,100v320" style="stroke: rgb(255, 255, 255); stroke-opacity: 1; stroke-width: 1px;"/><path class="xgrid crisp" transform="translate(298.15,0)" d="M0,100v320" style="stroke: rgb(255, 255, 255); stroke-opacity: 1; stroke-width: 1px;"/><path class="xgrid crisp" transform="translate(418.03,0)" d="M0,100v320" style="stroke: rgb(255, 255, 255); stroke-opacity: 1; stroke-width: 1px;"/></g><g class="y"><path class="ygrid crisp" transform="translate(0,346.73)" d="M80,0h340" style="stroke: rgb(255, 255, 255); stroke-opacity: 1; stroke-width: 1px;"/><path class="ygrid crisp" transform="translate(0,295.37)" d="M80,0h340" style="stroke: rgb(255, 255, 255); stroke-opacity: 1; stroke-width: 1px;"/><path class="ygrid crisp" transform="translate(0,244.01)" d="M80,0h340" style="stroke: rgb(255, 255, 255); stroke-opacity: 1; stroke-width: 1px;"/><path class="ygrid crisp" transform="translate(0,192.65)" d="M80,0h340" style="stroke: rgb(255, 255, 255); stroke-opacity: 1; stroke-width: 1px;"/><path class="ygrid crisp" transform="translate(0,141.29)" d="M80,0h340" style="stroke: rgb(255, 255, 255); stroke-opacity: 1; stroke-width: 1px;"/></g></g><g class="zerolinelayer"><path class="yzl zl crisp" transform="translate(0,398.09)" d="M80,0h340" style="stroke: rgb(255, 255, 255); stroke-opacity: 1; stroke-width: 2px;"/></g><path class="xlines-below"/><path class="ylines-below"/><g class="overlines-below"/><g class="xaxislayer-below"/><g class="yaxislayer-below"/><g class="overaxes-below"/><g class="plot" transform="translate(80,100)" clip-path="url(#clipc544f1xyplot)"><g class="scatterlayer mlayer"><g class="trace scatter traceada99c" style="stroke-miterlimit: 2;"><g class="fills"><g><path class="js-fill" d="M308.55,298.09L0,298.09L0,297.87L1.97,297.21L3.93,294.6L5.9,292.2L7.86,286.37L9.83,284.9L11.79,281.47L13.76,279.35L15.72,275.81L21.62,272.62L23.58,271.34L27.51,267.62L29.48,261.88L31.45,259.68L33.41,253.94L35.38,247.61L37.34,246.71L39.31,246.5L41.27,248.64L43.24,248.21L45.2,253.24L47.17,250.36L49.13,251.13L51.1,252.26L53.06,252.05L56.99,255.42L58.96,260.78L62.89,268.21L64.86,270.24L66.82,273.88L68.79,274.6L70.75,275.97L72.72,273.94L74.68,274.36L76.65,276.5L82.54,276.42L84.51,275.76L86.47,276.71L88.44,276.79L92.37,276.85L94.34,277.5L98.27,278.1L100.23,278.16L104.16,278.03L106.13,278.15L108.09,279.76L112.02,279.39L113.99,280.5L121.85,281.32L123.82,282.81L125.78,284.44L127.75,284.35L131.68,282.29L133.64,282.48L137.57,282.61L141.5,282.76L153.29,282.48L155.26,282.5L167.05,281.39L169.02,278.35L170.98,279.84L172.95,279.1L174.91,275.9L176.88,275.1L178.84,275.2L180.81,276.8L182.77,271.42L184.74,270.42L188.67,269.96L190.64,269.46L192.6,268.11L194.57,268.05L200.46,271.35L202.43,271.62L208.32,271.89L210.29,272.02L214.22,269.62L216.18,269.64L231.91,269.93L233.87,274.62L237.8,278.1L239.77,278.37L243.7,278.89L245.66,280.2L253.53,277.6L255.49,277.43L261.39,277.26L263.35,276.71L273.18,276.18L275.14,276.32L281.04,275.22L283.01,274.61L288.9,273.45L290.87,273.12L294.8,272.86L296.76,273.42L298.73,271.88L300.69,272.3L304.62,272.81L306.59,273.78L308.55,273.99" style="fill: rgb(99, 110, 250); fill-opacity: 0.5; stroke-width: 0;"/></g></g><g class="errorbars"/><g class="lines"><path class="js-line" d="M0,297.87L1.97,297.21L3.93,294.6L5.9,292.2L7.86,286.37L9.83,284.9L11.79,281.47L13.76,279.35L15.72,275.81L21.62,272.62L23.58,271.34L27.51,267.62L29.48,261.88L31.45,259.68L33.41,253.94L35.38,247.61L37.34,246.71L39.31,246.5L41.27,248.64L43.24,248.21L45.2,253.24L47.17,250.36L49.13,251.13L51.1,252.26L53.06,252.05L56.99,255.42L58.96,260.78L62.89,268.21L64.86,270.24L66.82,273.88L68.79,274.6L70.75,275.97L72.72,273.94L74.68,274.36L76.65,276.5L82.54,276.42L84.51,275.76L86.47,276.71L88.44,276.79L92.37,276.85L94.34,277.5L98.27,278.1L100.23,278.16" style="vector-effect: non-scaling-stroke; fill: none; stroke: rgb(99, 110, 250); stroke-opacity: 1; stroke-width: 2px; opacity: 1;"/><path class="js-line" d="M104.16,278.03L106.13,278.15L108.09,279.76L112.02,279.39L113.99,280.5L121.85,281.32L123.82,282.81L125.78,284.44L127.75,284.35L131.68,282.29L133.64,282.48L137.57,282.61" style="vector-effect: non-scaling-stroke; fill: none; stroke: rgb(99, 110, 250); stroke-opacity: 1; stroke-width: 2px; opacity: 1;"/><path class="js-line" d="M141.5,282.76L153.29,282.48L155.26,282.5L167.05,281.39L169.02,278.35L170.98,279.84L172.95,279.1L174.91,275.9L176.88,275.1L178.84,275.2L180.81,276.8L182.77,271.42L184.74,270.42L188.67,269.96L190.64,269.46L192.6,268.11L194.57,268.05L200.46,271.35L202.43,271.62L208.32,271.89L210.29,272.02L214.22,269.62L216.18,269.64L231.91,269.93L233.87,274.62L237.8,278.1L239.77,278.37L243.7,278.89L245.66,280.2L253.53,277.6L255.49,277.43L261.39,277.26L263.35,276.71L273.18,276.18L275.14,276.32L281.04,275.22L283.01,274.61L288.9,273.45L290.87,273.12L294.8,272.86L296.76,273.42L298.73,271.88L300.69,272.3L304.62,272.81L306.59,273.78L308.55,273.99" style="vector-effect: non-scaling-stroke; fill: none; stroke: rgb(99, 110, 250); stroke-opacity: 1; stroke-width: 2px; opacity: 1;"/></g><g class="points"/><g class="text"/></g><g class="trace scatter traceec57bb" style="stroke-miterlimit: 2;"><g class="fills"><g><path class="js-fill" d="M340,298.09L1.97,298.09L1.97,298.15L9.83,298.06L11.79,301.41L17.69,301.24L19.65,301.3L27.51,301.3L29.48,301.3L86.47,300.94L88.44,300.99L96.3,301.2L98.27,301.27L113.99,301.05L115.95,301.06L231.91,301.16L233.87,301.3L243.7,302.05L245.66,302.18L249.6,302.35L251.56,303.36L259.42,303.54L261.39,303.48L273.18,303.71L275.14,303.71L286.94,303.79L288.9,303.76L304.62,303.86L306.59,303.86L322.31,303.63L324.28,303.64L340,303.55" style="fill: rgb(239, 85, 59); fill-opacity: 0.5; stroke-width: 0;"/></g></g><g class="errorbars"/><g class="lines"><path class="js-line" d="M1.97,298.15L9.83,298.06L11.79,301.41L17.69,301.24L19.65,301.3L27.51,301.3L29.48,301.3L86.47,300.94L88.44,300.99L96.3,301.2L98.27,301.27L113.99,301.05L115.95,301.06L231.91,301.16L233.87,301.3L243.7,302.05L245.66,302.18L249.6,302.35L251.56,303.36L259.42,303.54L261.39,303.48L273.18,303.71L275.14,303.71L286.94,303.79L288.9,303.76L304.62,303.86L306.59,303.86L322.31,303.63L324.28,303.64L340,303.55" style="vector-effect: non-scaling-stroke; fill: none; stroke: rgb(239, 85, 59); stroke-opacity: 1; stroke-width: 2px; opacity: 1;"/></g><g class="points"/><g class="text"/></g><g class="trace scatter trace122fa7" style="stroke-miterlimit: 2;"><g class="fills"><g><path class="js-fill" d="M340,298.09L3.93,298.09L3.93,298.09L45.2,296.95L47.17,295.67L56.99,295.14L58.96,295.15L110.06,296.13L112.02,296.08L117.92,295.58L119.88,295.59L121.85,295.51L123.82,296.2L139.54,296.02L141.5,295.94L155.26,295.19L157.23,295.08L204.39,295.09L206.36,295.09L261.39,295.28L263.35,294.98L284.97,295.16L286.94,295.17L340,294.6" style="fill: rgb(0, 204, 150); fill-opacity: 0.5; stroke-width: 0;"/></g></g><g class="errorbars"/><g class="lines"><path class="js-line" d="M3.93,298.09L45.2,296.95L47.17,295.67L56.99,295.14L58.96,295.15L110.06,296.13L112.02,296.08L117.92,295.58L119.88,295.59L121.85,295.51L123.82,296.2L139.54,296.02L141.5,295.94L155.26,295.19L157.23,295.08L204.39,295.09L206.36,295.09L261.39,295.28L263.35,294.98L284.97,295.16L286.94,295.17L340,294.6" style="vector-effect: non-scaling-stroke; fill: none; stroke: rgb(0, 204, 150); stroke-opacity: 1; stroke-width: 2px; opacity: 1;"/></g><g class="points"/><g class="text"/></g><g class="trace scatter trace2a86e4" style="stroke-miterlimit: 2;"><g class="fills"><g><path class="js-fill" d="M340,298.09L3.93,298.09L3.93,298.08L80.58,298.05L82.54,298.05L340,298.08" style="fill: rgb(171, 99, 250); fill-opacity: 0.5; stroke-width: 0;"/></g></g><g class="errorbars"/><g class="lines"><path class="js-line" d="M3.93,298.08L80.58,298.05L82.54,298.05L340,298.08" style="vector-effect: non-scaling-stroke; fill: none; stroke: rgb(171, 99, 250); stroke-opacity: 1; stroke-width: 2px; opacity: 1;"/></g><g class="points"/><g class="text"/></g><g class="trace scatter tracefb5ae1" style="stroke-miterlimit: 2;"><g class="fills"><g><path class="js-fill" d="M137.57,298.09L13.76,298.09L13.76,298.08L137.57,298.03" style="fill: rgb(255, 161, 90); fill-opacity: 0.5; stroke-width: 0;"/></g></g><g class="errorbars"/><g class="lines"><path class="js-line" d="M13.76,298.08L137.57,298.03" style="vector-effect: non-scaling-stroke; fill: none; stroke: rgb(255, 161, 90); stroke-opacity: 1; stroke-width: 2px; opacity: 1;"/></g><g class="points"/><g class="text"/></g><g class="trace scatter trace50f1ca" style="stroke-miterlimit: 2;"><g class="fills"><g><path class="js-fill" d="M340,298.09L17.69,298.09L17.69,298.05L25.55,297.12L27.51,295.51L31.45,289.56L33.41,288.59L43.24,286.75L45.2,285.11L47.17,284.51L49.13,282.89L51.1,282.76L53.06,281.81L56.99,280.84L58.96,280.56L62.89,282.21L64.86,284.69L68.79,282.82L70.75,283.05L78.61,283L80.58,284.01L84.51,283.22L86.47,280.6L88.44,281.36L90.4,281.26L96.3,281.59L98.27,282.09L102.2,282.76L104.16,282.75L119.88,283.25L121.85,283.71L125.78,285.86L127.75,299.37L147.4,282.06L149.36,282.06L161.16,281.36L163.12,280.33L169.02,280.52L170.98,299.37L172.95,280.63L174.91,280.6L176.88,280.17L178.84,280.74L188.67,281.12L190.64,281.08L194.57,281.66L196.53,281.24L200.46,280.98L202.43,281.4L231.91,280.95L233.87,281.42L235.84,282.42L237.8,281.88L241.73,282.35L243.7,282.14L247.63,281.53L249.6,283.12L273.18,284.32L275.14,285.26L286.94,284.3L288.9,283.15L290.87,282.24L292.83,282.21L296.76,282.17L298.73,284.13L308.55,283.82L310.52,282.95L314.45,283.1L316.42,281.27L334.1,280.92L336.07,281.91L338.03,282.75L340,282.74" style="fill: rgb(25, 211, 243); fill-opacity: 0.5; stroke-width: 0;"/></g></g><g class="errorbars"/><g class="lines"><path class="js-line" d="M17.69,298.05L25.55,297.12L27.51,295.51L31.45,289.56L33.41,288.59L43.24,286.75L45.2,285.11L47.17,284.51L49.13,282.89L51.1,282.76L53.06,281.81L56.99,280.84L58.96,280.56L62.89,282.21L64.86,284.69L68.79,282.82L70.75,283.05L78.61,283L80.58,284.01L84.51,283.22L86.47,280.6L88.44,281.36L90.4,281.26L96.3,281.59L98.27,282.09L102.2,282.76L104.16,282.75L119.88,283.25L121.85,283.71L125.78,285.86L127.75,299.37L147.4,282.06L149.36,282.06L161.16,281.36L163.12,280.33L169.02,280.52L170.98,299.37L172.95,280.63L174.91,280.6L176.88,280.17L178.84,280.74L188.67,281.12L190.64,281.08L194.57,281.66L196.53,281.24L200.46,280.98L202.43,281.4L231.91,280.95L233.87,281.42L235.84,282.42L237.8,281.88L241.73,282.35L243.7,282.14L247.63,281.53L249.6,283.12L273.18,284.32L275.14,285.26L286.94,284.3L288.9,283.15L290.87,282.24L292.83,282.21L296.76,282.17L298.73,284.13L308.55,283.82L310.52,282.95L314.45,283.1L316.42,281.27L334.1,280.92L336.07,281.91L338.03,282.75L340,282.74" style="vector-effect: non-scaling-stroke; fill: none; stroke: rgb(25, 211, 243); stroke-opacity: 1; stroke-width: 2px; opacity: 1;"/></g><g class="points"/><g class="text"/></g><g class="trace scatter tracef5a45a" style="stroke-miterlimit: 2;"><g class="fills"><g><path class="js-fill" d="M340,298.09L39.31,298.09L39.31,298.08L41.27,297.14L43.24,294.9L47.17,293.72L49.13,293.36L53.06,292.45L55.03,290.99L74.68,289.95L76.65,290.28L123.82,292.54L125.78,292.67L127.75,292.43L129.71,291.24L145.43,290.48L147.4,290.25L172.95,290.34L174.91,290.59L184.74,290.7L186.71,290.58L190.64,291.64L192.6,291.69L196.53,291.75L198.5,292.7L204.39,292.96L206.36,293.68L208.32,294.36L210.29,294.17L214.22,293.5L216.18,293.64L243.7,293.52L245.66,294.27L257.46,293.83L259.42,293.71L267.28,294.15L269.25,294.22L340,294.93" style="fill: rgb(255, 102, 146); fill-opacity: 0.5; stroke-width: 0;"/></g></g><g class="errorbars"/><g class="lines"><path class="js-line" d="M39.31,298.08L41.27,297.14L43.24,294.9L47.17,293.72L49.13,293.36L53.06,292.45L55.03,290.99L74.68,289.95L76.65,290.28L123.82,292.54L125.78,292.67L127.75,292.43L129.71,291.24L145.43,290.48L147.4,290.25L172.95,290.34L174.91,290.59L184.74,290.7L186.71,290.58L190.64,291.64L192.6,291.69L196.53,291.75L198.5,292.7L204.39,292.96L206.36,293.68L208.32,294.36L210.29,294.17L214.22,293.5L216.18,293.64L243.7,293.52L245.66,294.27L257.46,293.83L259.42,293.71L267.28,294.15L269.25,294.22L340,294.93" style="vector-effect: non-scaling-stroke; fill: none; stroke: rgb(255, 102, 146); stroke-opacity: 1; stroke-width: 2px; opacity: 1;"/></g><g class="points"/><g class="text"/></g><g class="trace scatter trace804b99" style="stroke-miterlimit: 2;"><g class="fills"><g><path class="js-fill" d="M340,298.09L41.27,298.09L41.27,298.05L45.2,296.85L47.17,296.35L58.96,296.13L60.92,296.04L157.23,296.28L159.19,296.27L261.39,296.64L263.35,298.38L265.32,296.65L267.28,296.65L340,296.74" style="fill: rgb(182, 232, 128); fill-opacity: 0.5; stroke-width: 0;"/></g></g><g class="errorbars"/><g class="lines"><path class="js-line" d="M41.27,298.05L45.2,296.85L47.17,296.35L58.96,296.13L60.92,296.04L157.23,296.28L159.19,296.27L261.39,296.64L263.35,298.38L265.32,296.65L267.28,296.65L340,296.74" style="vector-effect: non-scaling-stroke; fill: none; stroke: rgb(182, 232, 128); stroke-opacity: 1; stroke-width: 2px; opacity: 1;"/></g><g class="points"/><g class="text"/></g><g class="trace scatter trace0dd35a" style="stroke-miterlimit: 2;"><g class="fills"><g><path class="js-fill" d="M283.01,298.09L43.24,298.09L43.24,297.62L47.17,89.05L49.13,55.86L51.1,35.62L53.06,38.81L55.03,31.34L56.99,16.46L58.96,16L60.92,16.68L62.89,34.95L64.86,42.49L66.82,42.41L68.79,45.88L70.75,49.85L72.72,105.3L76.65,107.41L78.61,106.61L80.58,114.16L82.54,109.61L84.51,107.64L86.47,100.79L88.44,101.94L90.4,98.53L92.37,102.33L94.34,104.12L96.3,92.03L98.27,89.92L100.23,89.42L102.2,90L104.16,91.1L106.13,90.88L110.06,110.55L112.02,111.7L113.99,118.6L115.95,111.34L119.88,109.83L121.85,107.29L123.82,107.69L125.78,114.29L129.71,104.51L131.68,102.35L133.64,102.96L135.61,99.45L139.54,98.02L141.5,95.79L143.47,95.61L145.43,94.09L147.4,97.56L149.36,96.05L151.33,94.17L153.29,81.51L155.26,76.09L157.23,77.05L159.19,77.01L161.16,75.74L163.12,71.63L165.09,70.31L167.05,72.45L169.02,73.19L170.98,74.14L172.95,71.2L174.91,74.77L176.88,76.73L178.84,77.09L180.81,79.77L182.77,81.1L184.74,78.5L186.71,78.74L188.67,79.98L190.64,99.81L192.6,96.82L194.57,93.83L196.53,93.43L200.46,92.77L202.43,94.58L204.39,94.37L206.36,94.97L208.32,94.86L210.29,80.43L212.25,80.32L214.22,74.57L216.18,77.37L218.15,95.2L220.12,103.28L222.08,130.71L224.05,162.17L226.01,170.4L229.94,179.94L231.91,176.72L237.8,205.5L239.77,206.25L243.7,206.95L245.66,233.45L247.63,234.76L249.6,236.99L251.56,242.64L253.53,242.65L255.49,242.76L257.46,242.07L259.42,242.48L261.39,244.21L265.32,246.04L267.28,255.07L269.25,255.5L271.21,257.82L273.18,257.95L275.14,258.93L277.11,258.82L279.08,257.88L283.01,258.37" style="fill: rgb(255, 151, 255); fill-opacity: 0.5; stroke-width: 0;"/></g></g><g class="errorbars"/><g class="lines"><path class="js-line" d="M43.24,297.62L47.17,89.05L49.13,55.86L51.1,35.62L53.06,38.81L55.03,31.34L56.99,16.46L58.96,16L60.92,16.68L62.89,34.95L64.86,42.49L66.82,42.41L68.79,45.88L70.75,49.85L72.72,105.3L76.65,107.41L78.61,106.61L80.58,114.16L82.54,109.61L84.51,107.64L86.47,100.79L88.44,101.94L90.4,98.53L92.37,102.33L94.34,104.12L96.3,92.03L98.27,89.92L100.23,89.42L102.2,90L104.16,91.1L106.13,90.88L110.06,110.55L112.02,111.7L113.99,118.6L115.95,111.34L119.88,109.83L121.85,107.29L123.82,107.69L125.78,114.29L129.71,104.51L131.68,102.35L133.64,102.96L135.61,99.45L139.54,98.02L141.5,95.79L143.47,95.61L145.43,94.09L147.4,97.56L149.36,96.05L151.33,94.17L153.29,81.51L155.26,76.09L157.23,77.05L159.19,77.01L161.16,75.74L163.12,71.63L165.09,70.31L167.05,72.45L169.02,73.19L170.98,74.14L172.95,71.2L174.91,74.77L176.88,76.73L178.84,77.09L180.81,79.77L182.77,81.1L184.74,78.5L186.71,78.74L188.67,79.98L190.64,99.81L192.6,96.82L194.57,93.83L196.53,93.43L200.46,92.77L202.43,94.58L204.39,94.37L206.36,94.97L208.32,94.86L210.29,80.43L212.25,80.32L214.22,74.57L216.18,77.37L218.15,95.2L220.12,103.28L222.08,130.71L224.05,162.17L226.01,170.4L229.94,179.94L231.91,176.72L237.8,205.5L239.77,206.25L243.7,206.95L245.66,233.45L247.63,234.76L249.6,236.99L251.56,242.64L253.53,242.65L255.49,242.76L257.46,242.07L259.42,242.48L261.39,244.21L265.32,246.04L267.28,255.07L269.25,255.5L271.21,257.82L273.18,257.95L275.14,258.93L277.11,258.82L279.08,257.88L283.01,258.37" style="vector-effect: non-scaling-stroke; fill: none; stroke: rgb(255, 151, 255); stroke-opacity: 1; stroke-width: 2px; opacity: 1;"/></g><g class="points"/><g class="text"/></g><g class="trace scatter trace1b8bcb" style="stroke-miterlimit: 2;"><g class="fills"><g><path class="js-fill" d="M340,298.09L45.2,298.09L45.2,299.03L47.17,293.16L49.13,293.98L56.99,294.85L58.96,294.34L60.92,293.27L62.89,294.69L68.79,293.59L70.75,293.79L72.72,293.94L74.68,293.09L80.58,292.63L82.54,292.08L88.44,292.63L90.4,292.5L94.34,291.73L96.3,291.13L98.27,290.85L100.23,289.64L104.16,289.14L106.13,288.52L108.09,290.23L110.06,290.75L112.02,291.19L113.99,289.22L123.82,287.05L125.78,288.94L137.57,288.71L139.54,290.41L143.47,290.06L145.43,290.64L147.4,290.79L149.36,289.94L153.29,289.01L155.26,289.62L159.19,289.74L161.16,289.13L165.09,290.16L167.05,289.19L172.95,286.58L174.91,286.59L176.88,286.28L178.84,282.51L182.77,281.7L184.74,281.85L192.6,281.51L194.57,281.41L204.39,281.3L206.36,282.21L216.18,281.33L218.15,279.4L222.08,278.69L224.05,276.6L227.98,274.36L229.94,275L235.84,277.8L237.8,292.66L239.77,298.24L241.73,299.25L243.7,298.51L245.66,298.84L247.63,299.45L249.6,298.34L253.53,298.55L255.49,298.36L259.42,298.9L261.39,298.07L265.32,298.36L267.28,297.83L273.18,298.25L275.14,297.63L277.11,296.6L279.08,296.43L296.76,294.77L298.73,294.62L304.62,295.46L306.59,295.29L308.55,295.41L310.52,296.71L316.42,295.21L318.38,294.21L322.31,293.68L324.28,293.69L340,294.07" style="fill: rgb(254, 203, 82); fill-opacity: 0.5; stroke-width: 0;"/></g></g><g class="errorbars"/><g class="lines"><path class="js-line" d="M45.2,299.03L47.17,293.16L49.13,293.98L56.99,294.85L58.96,294.34L60.92,293.27L62.89,294.69L68.79,293.59L70.75,293.79L72.72,293.94L74.68,293.09L80.58,292.63L82.54,292.08L88.44,292.63L90.4,292.5L94.34,291.73L96.3,291.13L98.27,290.85L100.23,289.64L104.16,289.14L106.13,288.52L108.09,290.23L110.06,290.75L112.02,291.19L113.99,289.22L123.82,287.05L125.78,288.94L137.57,288.71L139.54,290.41L143.47,290.06L145.43,290.64L147.4,290.79L149.36,289.94L153.29,289.01L155.26,289.62L159.19,289.74L161.16,289.13L165.09,290.16L167.05,289.19L172.95,286.58L174.91,286.59L176.88,286.28L178.84,282.51L182.77,281.7L184.74,281.85L192.6,281.51L194.57,281.41L204.39,281.3L206.36,282.21L216.18,281.33L218.15,279.4L222.08,278.69L224.05,276.6L227.98,274.36L229.94,275L235.84,277.8L237.8,292.66L239.77,298.24L241.73,299.25L243.7,298.51L245.66,298.84L247.63,299.45L249.6,298.34L253.53,298.55L255.49,298.36L259.42,298.9L261.39,298.07L265.32,298.36L267.28,297.83L273.18,298.25L275.14,297.63L277.11,296.6L279.08,296.43L296.76,294.77L298.73,294.62L304.62,295.46L306.59,295.29L308.55,295.41L310.52,296.71L316.42,295.21L318.38,294.21L322.31,293.68L324.28,293.69L340,294.07" style="vector-effect: non-scaling-stroke; fill: none; stroke: rgb(254, 203, 82); stroke-opacity: 1; stroke-width: 2px; opacity: 1;"/></g><g class="points"/><g class="text"/></g><g class="trace scatter trace34d9af" style="stroke-miterlimit: 2;"><g class="fills"><g><path class="js-fill" d="M340,298.09L84.51,298.09L84.51,298.09L86.47,295.86L88.44,295.41L106.13,294.13L108.09,294.62L123.82,294.02L125.78,294.09L129.71,292.88L131.68,292.81L141.5,292.77L143.47,292.78L149.36,292.7L151.33,291.14L182.77,292.44L184.74,292.31L208.32,292.23L210.29,292.92L226.01,292.19L227.98,292.24L231.91,292.13L233.87,294.27L235.84,294.54L237.8,293.96L245.66,293.35L247.63,293.29L261.39,293.64L263.35,293.33L284.97,292.89L286.94,292.6L290.87,291.57L292.83,291.6L312.49,290.97L314.45,291.15L318.38,291.87L320.35,291.89L334.1,291.97L336.07,291.23L340,291.32" style="fill: rgb(99, 110, 250); fill-opacity: 0.5; stroke-width: 0;"/></g></g><g class="errorbars"/><g class="lines"><path class="js-line" d="M84.51,298.09L86.47,295.86L88.44,295.41L106.13,294.13L108.09,294.62L123.82,294.02L125.78,294.09L129.71,292.88L131.68,292.81L141.5,292.77L143.47,292.78L149.36,292.7L151.33,291.14L182.77,292.44L184.74,292.31L208.32,292.23L210.29,292.92L226.01,292.19L227.98,292.24L231.91,292.13L233.87,294.27L235.84,294.54L237.8,293.96L245.66,293.35L247.63,293.29L261.39,293.64L263.35,293.33L284.97,292.89L286.94,292.6L290.87,291.57L292.83,291.6L312.49,290.97L314.45,291.15L318.38,291.87L320.35,291.89L334.1,291.97L336.07,291.23L340,291.32" style="vector-effect: non-scaling-stroke; fill: none; stroke: rgb(99, 110, 250); stroke-opacity: 1; stroke-width: 2px; opacity: 1;"/></g><g class="points"/><g class="text"/></g><g class="trace scatter trace5924c4" style="stroke-miterlimit: 2;"><g class="fills"><g><path class="js-fill" d="M340,298.09L84.51,298.09L84.51,297.98L86.47,295.82L88.44,295.24L94.34,294.36L96.3,292.87L106.13,291.86L108.09,291.9L112.02,290.38L113.99,289.51L119.88,288.21L121.85,288.31L125.78,289.08L127.75,288.56L129.71,287.69L131.68,287.93L145.43,289.45L147.4,289.41L149.36,289.64L151.33,288.1L153.29,288.43L155.26,289.89L165.09,290.47L167.05,290.91L169.02,290.56L170.98,291.09L182.77,291.68L184.74,290.65L208.32,290.49L210.29,291.39L216.18,290.68L218.15,290.14L222.08,289.54L224.05,287.41L231.91,287.17L233.87,289.71L237.8,290.95L239.77,290.51L241.73,291.03L243.7,290.5L249.6,290.91L251.56,291.34L257.46,291.56L259.42,291.83L275.14,291.16L277.11,291.45L286.94,290.49L288.9,289.78L292.83,289.26L294.8,289.13L298.73,289.1L300.69,288.38L302.66,288.4L304.62,287.11L306.59,288.29L308.55,288.58L314.45,288.82L316.42,289.39L328.21,289.28L330.17,289.74L334.1,289.58L336.07,288.85L340,289.81" style="fill: rgb(239, 85, 59); fill-opacity: 0.5; stroke-width: 0;"/></g></g><g class="errorbars"/><g class="lines"><path class="js-line" d="M84.51,297.98L86.47,295.82L88.44,295.24L94.34,294.36L96.3,292.87L106.13,291.86L108.09,291.9L112.02,290.38L113.99,289.51L119.88,288.21L121.85,288.31L125.78,289.08L127.75,288.56L129.71,287.69L131.68,287.93L145.43,289.45L147.4,289.41L149.36,289.64L151.33,288.1L153.29,288.43L155.26,289.89L165.09,290.47L167.05,290.91L169.02,290.56L170.98,291.09L182.77,291.68L184.74,290.65L208.32,290.49L210.29,291.39L216.18,290.68L218.15,290.14L222.08,289.54L224.05,287.41L231.91,287.17L233.87,289.71L237.8,290.95L239.77,290.51L241.73,291.03L243.7,290.5L249.6,290.91L251.56,291.34L257.46,291.56L259.42,291.83L275.14,291.16L277.11,291.45L286.94,290.49L288.9,289.78L292.83,289.26L294.8,289.13L298.73,289.1L300.69,288.38L302.66,288.4L304.62,287.11L306.59,288.29L308.55,288.58L314.45,288.82L316.42,289.39L328.21,289.28L330.17,289.74L334.1,289.58L336.07,288.85L340,289.81" style="vector-effect: non-scaling-stroke; fill: none; stroke: rgb(239, 85, 59); stroke-opacity: 1; stroke-width: 2px; opacity: 1;"/></g><g class="points"/><g class="text"/></g><g class="trace scatter tracea7e92c" style="stroke-miterlimit: 2;"><g class="fills"><g><path class="js-fill" d="M340,298.09L84.51,298.09L84.51,297.98L92.37,297.59L94.34,297.54L96.3,296.2L98.27,295.96L102.2,295.99L104.16,295.74L108.09,295.37L110.06,295.13L112.02,293.85L113.99,293.52L119.88,292.64L121.85,292.59L137.57,293.83L139.54,294.13L143.47,294.74L145.43,294.71L153.29,295.27L155.26,296.39L182.77,297.33L184.74,296.43L218.15,296.06L220.12,295.7L222.08,295.47L224.05,293.32L231.91,293.13L233.87,293.53L239.77,294.96L241.73,295.14L257.46,296.02L259.42,296.26L277.11,296.26L279.08,296.27L284.97,295.97L286.94,295.97L302.66,295.32L304.62,294.28L306.59,295.62L308.55,295.69L336.07,295.7L338.03,296.59L340,296.58" style="fill: rgb(0, 204, 150); fill-opacity: 0.5; stroke-width: 0;"/></g></g><g class="errorbars"/><g class="lines"><path class="js-line" d="M84.51,297.98L92.37,297.59L94.34,297.54L96.3,296.2L98.27,295.96L102.2,295.99L104.16,295.74L108.09,295.37L110.06,295.13L112.02,293.85L113.99,293.52L119.88,292.64L121.85,292.59L137.57,293.83L139.54,294.13L143.47,294.74L145.43,294.71L153.29,295.27L155.26,296.39L182.77,297.33L184.74,296.43L218.15,296.06L220.12,295.7L222.08,295.47L224.05,293.32L231.91,293.13L233.87,293.53L239.77,294.96L241.73,295.14L257.46,296.02L259.42,296.26L277.11,296.26L279.08,296.27L284.97,295.97L286.94,295.97L302.66,295.32L304.62,294.28L306.59,295.62L308.55,295.69L336.07,295.7L338.03,296.59L340,296.58" style="vector-effect: non-scaling-stroke; fill: none; stroke: rgb(0, 204, 150); stroke-opacity: 1; stroke-width: 2px; opacity: 1;"/></g><g class="points"/><g class="text"/></g><g class="trace scatter trace5421fa" style="stroke-miterlimit: 2;"><g class="fills"><g><path class="js-fill" d="M340,298.09L92.37,298.09L92.37,298.08L108.09,297.45L110.06,296.94L117.92,296.01L119.88,295.89L125.78,295.38L127.75,295.37L133.64,294.66L135.61,294.7L143.47,293.62L145.43,293.55L180.81,293.58L182.77,293.62L226.01,293.47L227.98,293.48L243.7,293.87L245.66,294.05L283.01,294.21L284.97,294.21L310.52,294.25L312.49,294.27L340,294.76" style="fill: rgb(171, 99, 250); fill-opacity: 0.5; stroke-width: 0;"/></g></g><g class="errorbars"/><g class="lines"><path class="js-line" d="M92.37,298.08L108.09,297.45L110.06,296.94L117.92,296.01L119.88,295.89L125.78,295.38L127.75,295.37L133.64,294.66L135.61,294.7L143.47,293.62L145.43,293.55L180.81,293.58L182.77,293.62L226.01,293.47L227.98,293.48L243.7,293.87L245.66,294.05L283.01,294.21L284.97,294.21L310.52,294.25L312.49,294.27L340,294.76" style="vector-effect: non-scaling-stroke; fill: none; stroke: rgb(171, 99, 250); stroke-opacity: 1; stroke-width: 2px; opacity: 1;"/></g><g class="points"/><g class="text"/></g><g class="trace scatter traced01ef3" style="stroke-miterlimit: 2;"><g class="fills"><g><path class="js-fill" d="M340,298.09L113.99,298.09L113.99,298.01L135.61,297.49L137.57,297.51L163.12,297.16L165.09,297.12L190.64,297.33L192.6,297.34L208.32,297.39L210.29,297.39L320.35,297.48L322.31,297.48L340,297.42" style="fill: rgb(255, 161, 90); fill-opacity: 0.5; stroke-width: 0;"/></g></g><g class="errorbars"/><g class="lines"><path class="js-line" d="M113.99,298.01L135.61,297.49L137.57,297.51L163.12,297.16L165.09,297.12L190.64,297.33L192.6,297.34L208.32,297.39L210.29,297.39L320.35,297.48L322.31,297.48L340,297.42" style="vector-effect: non-scaling-stroke; fill: none; stroke: rgb(255, 161, 90); stroke-opacity: 1; stroke-width: 2px; opacity: 1;"/></g><g class="points"/><g class="text"/></g><g class="trace scatter trace996bac" style="stroke-miterlimit: 2;"><g class="fills"><g><path class="js-fill" d="M182.77,298.09L119.88,298.09L119.88,298.09L182.77,298.09" style="fill: rgb(25, 211, 243); fill-opacity: 0.5; stroke-width: 0;"/></g></g><g class="errorbars"/><g class="lines"><path class="js-line" d="M119.88,298.09L182.77,298.09" style="vector-effect: non-scaling-stroke; fill: none; stroke: rgb(25, 211, 243); stroke-opacity: 1; stroke-width: 2px; opacity: 1;"/></g><g class="points"/><g class="text"/></g><g class="trace scatter trace0d25ed" style="stroke-miterlimit: 2;"><g class="fills"><g><path class="js-fill" d="M340,298.09L121.85,298.09L121.85,298.01L340,297.93" style="fill: rgb(255, 102, 146); fill-opacity: 0.5; stroke-width: 0;"/></g></g><g class="errorbars"/><g class="lines"><path class="js-line" d="M121.85,298.01L340,297.93" style="vector-effect: non-scaling-stroke; fill: none; stroke: rgb(255, 102, 146); stroke-opacity: 1; stroke-width: 2px; opacity: 1;"/></g><g class="points"/><g class="text"/></g><g class="trace scatter traceaf35b0" style="stroke-miterlimit: 2;"><g class="fills"><g><path class="js-fill" d="M340,298.09L123.82,298.09L123.82,298.09L340,297.84" style="fill: rgb(182, 232, 128); fill-opacity: 0.5; stroke-width: 0;"/></g></g><g class="errorbars"/><g class="lines"><path class="js-line" d="M123.82,298.09L340,297.84" style="vector-effect: non-scaling-stroke; fill: none; stroke: rgb(182, 232, 128); stroke-opacity: 1; stroke-width: 2px; opacity: 1;"/></g><g class="points"/><g class="text"/></g><g class="trace scatter trace33970e" style="stroke-miterlimit: 2;"><g class="fills"><g><path class="js-fill" d="M340,298.09L133.64,298.09L133.64,298.09L208.32,297.34L210.29,296.81L218.15,296.53L220.12,296.58L292.83,297.13L294.8,297.1L340,297.12" style="fill: rgb(255, 151, 255); fill-opacity: 0.5; stroke-width: 0;"/></g></g><g class="errorbars"/><g class="lines"><path class="js-line" d="M133.64,298.09L208.32,297.34L210.29,296.81L218.15,296.53L220.12,296.58L292.83,297.13L294.8,297.1L340,297.12" style="vector-effect: non-scaling-stroke; fill: none; stroke: rgb(255, 151, 255); stroke-opacity: 1; stroke-width: 2px; opacity: 1;"/></g><g class="points"/><g class="text"/></g><g class="trace scatter trace7d08c0" style="stroke-miterlimit: 2;"><g class="fills"><g><path class="js-fill" d="M340,298.09L139.54,298.09L139.54,297.99L151.33,297.88L153.29,297.88L170.98,297.6L172.95,297.6L192.6,297.59L194.57,297.58L206.36,297.36L208.32,296.55L210.29,295.1L212.25,294.77L233.87,294.51L235.84,294.95L245.66,294.98L247.63,294.9L318.38,294.5L320.35,294.67L340,294.81" style="fill: rgb(254, 203, 82); fill-opacity: 0.5; stroke-width: 0;"/></g></g><g class="errorbars"/><g class="lines"><path class="js-line" d="M139.54,297.99L151.33,297.88L153.29,297.88L170.98,297.6L172.95,297.6L192.6,297.59L194.57,297.58L206.36,297.36L208.32,296.55L210.29,295.1L212.25,294.77L233.87,294.51L235.84,294.95L245.66,294.98L247.63,294.9L318.38,294.5L320.35,294.67L340,294.81" style="vector-effect: non-scaling-stroke; fill: none; stroke: rgb(254, 203, 82); stroke-opacity: 1; stroke-width: 2px; opacity: 1;"/></g><g class="points"/><g class="text"/></g><g class="trace scatter trace281d0e" style="stroke-miterlimit: 2;"><g class="fills"><g><path class="js-fill" d="M340,298.09L153.29,298.09L153.29,298.07L155.26,296.4L157.23,295.73L159.19,295.3L161.16,295.77L163.12,294.81L165.09,294.69L169.02,294.54L170.98,293.81L172.95,293.21L174.91,291.48L204.39,291.95L206.36,291.09L218.15,289.24L220.12,289.56L224.05,289.23L226.01,288.74L229.94,288.82L231.91,288.82L235.84,291.61L237.8,291.26L263.35,291L265.32,290.73L286.94,291.11L288.9,291.69L292.83,291.91L294.8,291.82L298.73,291.47L300.69,291.33L304.62,291.05L306.59,291.27L312.49,291.45L314.45,291.5L326.24,290.48L328.21,290.41L340,290.1" style="fill: rgb(99, 110, 250); fill-opacity: 0.5; stroke-width: 0;"/></g></g><g class="errorbars"/><g class="lines"><path class="js-line" d="M153.29,298.07L155.26,296.4L157.23,295.73L159.19,295.3L161.16,295.77L163.12,294.81L165.09,294.69L169.02,294.54L170.98,293.81L172.95,293.21L174.91,291.48L204.39,291.95L206.36,291.09L218.15,289.24L220.12,289.56L224.05,289.23L226.01,288.74L229.94,288.82L231.91,288.82L235.84,291.61L237.8,291.26L263.35,291L265.32,290.73L286.94,291.11L288.9,291.69L292.83,291.91L294.8,291.82L298.73,291.47L300.69,291.33L304.62,291.05L306.59,291.27L312.49,291.45L314.45,291.5L326.24,290.48L328.21,290.41L340,290.1" style="vector-effect: non-scaling-stroke; fill: none; stroke: rgb(99, 110, 250); stroke-opacity: 1; stroke-width: 2px; opacity: 1;"/></g><g class="points"/><g class="text"/></g><g class="trace scatter tracefa0893" style="stroke-miterlimit: 2;"><g class="fills"><g><path class="js-fill" d="M340,298.09L202.43,298.09L202.43,297.9L204.39,297.82L206.36,296.64L208.32,295.71L210.29,296.04L214.22,293.31L216.18,293.33L224.05,289.47L226.01,287.68L231.91,288.92L233.87,292.17L235.84,294.61L237.8,294.3L243.7,295.1L245.66,296.25L247.63,296.53L249.6,297.83L253.53,296.86L255.49,296.58L259.42,297.63L261.39,297.22L265.32,296.48L267.28,297.18L275.14,296.79L277.11,296.47L283.01,296.47L284.97,296.11L306.59,294.72L308.55,295.79L314.45,295.74L316.42,295.87L318.38,295.92L320.35,294.19L322.31,302.52L324.28,293.94L340,294.37" style="fill: rgb(239, 85, 59); fill-opacity: 0.5; stroke-width: 0;"/></g></g><g class="errorbars"/><g class="lines"><path class="js-line" d="M202.43,297.9L204.39,297.82L206.36,296.64L208.32,295.71L210.29,296.04L214.22,293.31L216.18,293.33L224.05,289.47L226.01,287.68L231.91,288.92L233.87,292.17L235.84,294.61L237.8,294.3L243.7,295.1L245.66,296.25L247.63,296.53L249.6,297.83L253.53,296.86L255.49,296.58L259.42,297.63L261.39,297.22L265.32,296.48L267.28,297.18L275.14,296.79L277.11,296.47L283.01,296.47L284.97,296.11L306.59,294.72L308.55,295.79L314.45,295.74L316.42,295.87L318.38,295.92L320.35,294.19L322.31,302.52L324.28,293.94L340,294.37" style="vector-effect: non-scaling-stroke; fill: none; stroke: rgb(239, 85, 59); stroke-opacity: 1; stroke-width: 2px; opacity: 1;"/></g><g class="points"/><g class="text"/></g><g class="trace scatter trace968821" style="stroke-miterlimit: 2;"><g class="fills"><g><path class="js-fill" d="M316.42,298.09L206.36,298.09L206.36,298.07L210.29,296.05L212.25,296.05L222.08,295.27L224.05,294.74L231.91,294.38L233.87,295.23L239.77,296.63L241.73,296.73L300.69,297.58L302.66,297.57L316.42,297.61" style="fill: rgb(0, 204, 150); fill-opacity: 0.5; stroke-width: 0;"/></g></g><g class="errorbars"/><g class="lines"><path class="js-line" d="M206.36,298.07L210.29,296.05L212.25,296.05L222.08,295.27L224.05,294.74L231.91,294.38L233.87,295.23L239.77,296.63L241.73,296.73L300.69,297.58L302.66,297.57L316.42,297.61" style="vector-effect: non-scaling-stroke; fill: none; stroke: rgb(0, 204, 150); stroke-opacity: 1; stroke-width: 2px; opacity: 1;"/></g><g class="points"/><g class="text"/></g><g class="trace scatter trace49805c" style="stroke-miterlimit: 2;"><g class="fills"><g><path class="js-fill" d="M316.42,298.09L206.36,298.09L206.36,298.09L227.98,297.42L229.94,297.25L247.63,297.17L249.6,297.63L316.42,297.89" style="fill: rgb(171, 99, 250); fill-opacity: 0.5; stroke-width: 0;"/></g></g><g class="errorbars"/><g class="lines"><path class="js-line" d="M206.36,298.09L227.98,297.42L229.94,297.25L247.63,297.17L249.6,297.63L316.42,297.89" style="vector-effect: non-scaling-stroke; fill: none; stroke: rgb(171, 99, 250); stroke-opacity: 1; stroke-width: 2px; opacity: 1;"/></g><g class="points"/><g class="text"/></g><g class="trace scatter traceb6be88" style="stroke-miterlimit: 2;"><g class="fills"><g><path class="js-fill" d="M316.42,298.09L206.36,298.09L206.36,298.65L210.29,296.13L212.25,295.94L214.22,296.94L216.18,296.77L220.12,297.38L222.08,296.58L226.01,295.34L227.98,294.99L231.91,293.46L233.87,294.87L237.8,298.02L239.77,297.93L251.56,298.6L253.53,298.51L265.32,298.13L267.28,298.1L279.08,297.83L281.04,297.22L300.69,296.87L302.66,297.73L316.42,297.4" style="fill: rgb(255, 161, 90); fill-opacity: 0.5; stroke-width: 0;"/></g></g><g class="errorbars"/><g class="lines"><path class="js-line" d="M206.36,298.65L210.29,296.13L212.25,295.94L214.22,296.94L216.18,296.77L220.12,297.38L222.08,296.58L226.01,295.34L227.98,294.99L231.91,293.46L233.87,294.87L237.8,298.02L239.77,297.93L251.56,298.6L253.53,298.51L265.32,298.13L267.28,298.1L279.08,297.83L281.04,297.22L300.69,296.87L302.66,297.73L316.42,297.4" style="vector-effect: non-scaling-stroke; fill: none; stroke: rgb(255, 161, 90); stroke-opacity: 1; stroke-width: 2px; opacity: 1;"/></g><g class="points"/><g class="text"/></g><g class="trace scatter trace13fc54" style="stroke-miterlimit: 2;"><g class="fills"><g><path class="js-fill" d="M316.42,298.09L206.36,298.09L206.36,298.08L214.22,296.96L216.18,296.92L241.73,297.41L243.7,297.43L316.42,297.53" style="fill: rgb(25, 211, 243); fill-opacity: 0.5; stroke-width: 0;"/></g></g><g class="errorbars"/><g class="lines"><path class="js-line" d="M206.36,298.08L214.22,296.96L216.18,296.92L241.73,297.41L243.7,297.43L316.42,297.53" style="vector-effect: non-scaling-stroke; fill: none; stroke: rgb(25, 211, 243); stroke-opacity: 1; stroke-width: 2px; opacity: 1;"/></g><g class="points"/><g class="text"/></g><g class="trace scatter trace797735" style="stroke-miterlimit: 2;"><g class="fills"><g><path class="js-fill" d="M340,298.09L222.08,298.09L222.08,298.08L227.98,297.81L229.94,297L231.91,295.96L233.87,296.29L239.77,296.73L241.73,296.73L271.21,296.27L273.18,296.3L281.04,295.68L283.01,295.6L304.62,295L306.59,294.98L314.45,295.08L316.42,295.03L340,295.15" style="fill: rgb(255, 102, 146); fill-opacity: 0.5; stroke-width: 0;"/></g></g><g class="errorbars"/><g class="lines"><path class="js-line" d="M222.08,298.08L227.98,297.81L229.94,297L231.91,295.96L233.87,296.29L239.77,296.73L241.73,296.73L271.21,296.27L273.18,296.3L281.04,295.68L283.01,295.6L304.62,295L306.59,294.98L314.45,295.08L316.42,295.03L340,295.15" style="vector-effect: non-scaling-stroke; fill: none; stroke: rgb(255, 102, 146); stroke-opacity: 1; stroke-width: 2px; opacity: 1;"/></g><g class="points"/><g class="text"/></g><g class="trace scatter trace829bed" style="stroke-miterlimit: 2;"><g class="fills"><g><path class="js-fill" d="M340,298.09L263.35,298.09L263.35,297.54L273.18,297L275.14,297.14L281.04,296.05L283.01,295.44L288.9,294.28L290.87,293.95L294.8,293.68L296.76,294.25L298.73,292.71L300.69,293.13L304.62,293.64L306.59,294.6L312.49,295.27L314.45,294.65L316.42,293.61L318.38,293.49L330.17,292.9L332.14,293.08L336.07,292.64L338.03,292.98L340,293.1" style="fill: rgb(182, 232, 128); fill-opacity: 0.5; stroke-width: 0;"/></g></g><g class="errorbars"/><g class="lines"><path class="js-line" d="M263.35,297.54L273.18,297L275.14,297.14L281.04,296.05L283.01,295.44L288.9,294.28L290.87,293.95L294.8,293.68L296.76,294.25L298.73,292.71L300.69,293.13L304.62,293.64L306.59,294.6L312.49,295.27L314.45,294.65L316.42,293.61L318.38,293.49L330.17,292.9L332.14,293.08L336.07,292.64L338.03,292.98L340,293.1" style="vector-effect: non-scaling-stroke; fill: none; stroke: rgb(182, 232, 128); stroke-opacity: 1; stroke-width: 2px; opacity: 1;"/></g><g class="points"/><g class="text"/></g><g class="trace scatter trace180638" style="stroke-miterlimit: 2;"><g class="fills"><g><path class="js-fill" d="M340,298.09L271.21,298.09L271.21,298.09L275.14,297L277.11,296.88L292.83,296.56L294.8,296.56L300.69,296.5L302.66,293.98L306.59,290.75L308.55,290.31L314.45,290.28L316.42,293.71L320.35,295.15L322.31,295.2L340,295.89" style="fill: rgb(255, 151, 255); fill-opacity: 0.5; stroke-width: 0;"/></g></g><g class="errorbars"/><g class="lines"><path class="js-line" d="M271.21,298.09L275.14,297L277.11,296.88L292.83,296.56L294.8,296.56L300.69,296.5L302.66,293.98L306.59,290.75L308.55,290.31L314.45,290.28L316.42,293.71L320.35,295.15L322.31,295.2L340,295.89" style="vector-effect: non-scaling-stroke; fill: none; stroke: rgb(255, 151, 255); stroke-opacity: 1; stroke-width: 2px; opacity: 1;"/></g><g class="points"/><g class="text"/></g></g></g><g class="overplot"/><path class="xlines-above crisp" d="M0,0" style="fill: none;"/><path class="ylines-above crisp" d="M0,0" style="fill: none;"/><g class="overlines-above"/><g class="xaxislayer-above"><g class="xtick"><text text-anchor="middle" x="0" y="433" transform="translate(178.26999999999998,0)" style="font-family: 'Open Sans', verdana, arial, sans-serif; font-size: 12px; fill: rgb(42, 63, 95); fill-opacity: 1; white-space: pre; opacity: 1;">Sep 2022</text></g><g class="xtick"><text text-anchor="middle" x="0" y="433" style="font-family: 'Open Sans', verdana, arial, sans-serif; font-size: 12px; fill: rgb(42, 63, 95); fill-opacity: 1; white-space: pre; opacity: 1;" transform="translate(298.15,0)">Nov 2022</text></g><g class="xtick"><text text-anchor="middle" x="0" y="433" style="font-family: 'Open Sans', verdana, arial, sans-serif; font-size: 12px; fill: rgb(42, 63, 95); fill-opacity: 1; white-space: pre; opacity: 1;" transform="translate(418.03,0)">Jan 2023</text></g></g><g class="yaxislayer-above"><g class="ytick"><text text-anchor="end" x="79" y="4.199999999999999" transform="translate(0,398.09)" style="font-family: 'Open Sans', verdana, arial, sans-serif; font-size: 12px; fill: rgb(42, 63, 95); fill-opacity: 1; white-space: pre; opacity: 1;">$0</text></g><g class="ytick"><text text-anchor="end" x="79" y="4.199999999999999" style="font-family: 'Open Sans', verdana, arial, sans-serif; font-size: 12px; fill: rgb(42, 63, 95); fill-opacity: 1; white-space: pre; opacity: 1;" transform="translate(0,346.73)">$100M</text></g><g class="ytick"><text text-anchor="end" x="79" y="4.199999999999999" style="font-family: 'Open Sans', verdana, arial, sans-serif; font-size: 12px; fill: rgb(42, 63, 95); fill-opacity: 1; white-space: pre; opacity: 1;" transform="translate(0,295.37)">$200M</text></g><g class="ytick"><text text-anchor="end" x="79" y="4.199999999999999" style="font-family: 'Open Sans', verdana, arial, sans-serif; font-size: 12px; fill: rgb(42, 63, 95); fill-opacity: 1; white-space: pre; opacity: 1;" transform="translate(0,244.01)">$300M</text></g><g class="ytick"><text text-anchor="end" x="79" y="4.199999999999999" style="font-family: 'Open Sans', verdana, arial, sans-serif; font-size: 12px; fill: rgb(42, 63, 95); fill-opacity: 1; white-space: pre; opacity: 1;" transform="translate(0,192.65)">$400M</text></g><g class="ytick"><text text-anchor="end" x="79" y="4.199999999999999" style="font-family: 'Open Sans', verdana, arial, sans-serif; font-size: 12px; fill: rgb(42, 63, 95); fill-opacity: 1; white-space: pre; opacity: 1;" transform="translate(0,141.29)">$500M</text></g></g><g class="overaxes-above"/></g></g><g class="polarlayer"/><g class="smithlayer"/><g class="ternarylayer"/><g class="geolayer"/><g class="funnelarealayer"/><g class="pielayer"/><g class="iciclelayer"/><g class="treemaplayer"/><g class="sunburstlayer"/><g class="glimages"/><defs id="topdefs-c544f1"><g class="clips"/><clipPath id="legendc544f1"><rect width="261" height="320" x="0" y="0"/></clipPath></defs><g class="layer-above"><g class="imagelayer"/><g class="shapelayer"/></g><g class="infolayer"><g class="legend" pointer-events="all" transform="translate(426.8,100)"><rect class="bg" shape-rendering="crispEdges" width="261" height="320" x="0" y="0" style="stroke: rgb(68, 68, 68); stroke-opacity: 1; fill: rgb(255, 255, 255); fill-opacity: 1; stroke-width: 0px;"/><g class="scrollbox" transform="" clip-path="url(#legendc544f1)"><text class="legendtitletext" text-anchor="start" x="2" y="18.2" style="font-family: 'Open Sans', verdana, arial, sans-serif; font-size: 14px; fill: rgb(42, 63, 95); fill-opacity: 1; white-space: pre;">App Name</text><g class="groups"><g class="traces" transform="translate(0,32.7)" style="opacity: 1;"><text class="legendtext" text-anchor="start" x="40" y="4.680000000000001" style="font-family: 'Open Sans', verdana, arial, sans-serif; font-size: 12px; fill: rgb(42, 63, 95); fill-opacity: 1; white-space: pre;">Velodrome</text><g class="layers"><g class="legendfill"><path class="js-fill" d="M5,-2h30v6h-30z" style="stroke-width: 0; fill: rgb(99, 110, 250); fill-opacity: 0.5;"/></g><g class="legendlines"><path class="js-line" d="M5,-2h30" style="fill: none; stroke: rgb(99, 110, 250); stroke-opacity: 1; stroke-width: 2px;"/></g><g class="legendsymbols"><g class="legendpoints"/></g></g><rect class="legendtoggle" x="0" y="-9.5" width="255.078125" height="19" style="fill: rgb(0, 0, 0); fill-opacity: 0;"/></g><g class="traces" transform="translate(0,51.7)" style="opacity: 1;"><text class="legendtext" text-anchor="start" x="40" y="4.680000000000001" style="font-family: 'Open Sans', verdana, arial, sans-serif; font-size: 12px; fill: rgb(42, 63, 95); fill-opacity: 1; white-space: pre;">Perpetual Protocol</text><g class="layers"><g class="legendfill"><path class="js-fill" d="M5,-2h30v6h-30z" style="stroke-width: 0; fill: rgb(239, 85, 59); fill-opacity: 0.5;"/></g><g class="legendlines"><path class="js-line" d="M5,-2h30" style="fill: none; stroke: rgb(239, 85, 59); stroke-opacity: 1; stroke-width: 2px;"/></g><g class="legendsymbols"><g class="legendpoints"/></g></g><rect class="legendtoggle" x="0" y="-9.5" width="255.078125" height="19" style="fill: rgb(0, 0, 0); fill-opacity: 0;"/></g><g class="traces" transform="translate(0,70.7)" style="opacity: 1;"><text class="legendtext" text-anchor="start" x="40" y="4.680000000000001" style="font-family: 'Open Sans', verdana, arial, sans-serif; font-size: 12px; fill: rgb(42, 63, 95); fill-opacity: 1; white-space: pre;">Rubicon</text><g class="layers"><g class="legendfill"><path class="js-fill" d="M5,-2h30v6h-30z" style="stroke-width: 0; fill: rgb(0, 204, 150); fill-opacity: 0.5;"/></g><g class="legendlines"><path class="js-line" d="M5,-2h30" style="fill: none; stroke: rgb(0, 204, 150); stroke-opacity: 1; stroke-width: 2px;"/></g><g class="legendsymbols"><g class="legendpoints"/></g></g><rect class="legendtoggle" x="0" y="-9.5" width="255.078125" height="19" style="fill: rgb(0, 0, 0); fill-opacity: 0;"/></g><g class="traces" transform="translate(0,89.7)" style="opacity: 1;"><text class="legendtext" text-anchor="start" x="40" y="4.680000000000001" style="font-family: 'Open Sans', verdana, arial, sans-serif; font-size: 12px; fill: rgb(42, 63, 95); fill-opacity: 1; white-space: pre;">Thales</text><g class="layers"><g class="legendfill"><path class="js-fill" d="M5,-2h30v6h-30z" style="stroke-width: 0; fill: rgb(171, 99, 250); fill-opacity: 0.5;"/></g><g class="legendlines"><path class="js-line" d="M5,-2h30" style="fill: none; stroke: rgb(171, 99, 250); stroke-opacity: 1; stroke-width: 2px;"/></g><g class="legendsymbols"><g class="legendpoints"/></g></g><rect class="legendtoggle" x="0" y="-9.5" width="255.078125" height="19" style="fill: rgb(0, 0, 0); fill-opacity: 0;"/></g><g class="traces" transform="translate(0,108.7)" style="opacity: 1;"><text class="legendtext" text-anchor="start" x="40" y="4.680000000000001" style="font-family: 'Open Sans', verdana, arial, sans-serif; font-size: 12px; fill: rgb(42, 63, 95); fill-opacity: 1; white-space: pre;">L2Dao - L2DAO/OP: Velodrome</text><g class="layers"><g class="legendfill"><path class="js-fill" d="M5,-2h30v6h-30z" style="stroke-width: 0; fill: rgb(255, 161, 90); fill-opacity: 0.5;"/></g><g class="legendlines"><path class="js-line" d="M5,-2h30" style="fill: none; stroke: rgb(255, 161, 90); stroke-opacity: 1; stroke-width: 2px;"/></g><g class="legendsymbols"><g class="legendpoints"/></g></g><rect class="legendtoggle" x="0" y="-9.5" width="255.078125" height="19" style="fill: rgb(0, 0, 0); fill-opacity: 0;"/></g><g class="traces" transform="translate(0,127.7)" style="opacity: 1;"><text class="legendtext" text-anchor="start" x="40" y="4.680000000000001" style="font-family: 'Open Sans', verdana, arial, sans-serif; font-size: 12px; fill: rgb(42, 63, 95); fill-opacity: 1; white-space: pre;">Pooltogether</text><g class="layers"><g class="legendfill"><path class="js-fill" d="M5,-2h30v6h-30z" style="stroke-width: 0; fill: rgb(25, 211, 243); fill-opacity: 0.5;"/></g><g class="legendlines"><path class="js-line" d="M5,-2h30" style="fill: none; stroke: rgb(25, 211, 243); stroke-opacity: 1; stroke-width: 2px;"/></g><g class="legendsymbols"><g class="legendpoints"/></g></g><rect class="legendtoggle" x="0" y="-9.5" width="255.078125" height="19" style="fill: rgb(0, 0, 0); fill-opacity: 0;"/></g><g class="traces" transform="translate(0,146.7)" style="opacity: 1;"><text class="legendtext" text-anchor="start" x="40" y="4.680000000000001" style="font-family: 'Open Sans', verdana, arial, sans-serif; font-size: 12px; fill: rgb(42, 63, 95); fill-opacity: 1; white-space: pre;">Lyra</text><g class="layers"><g class="legendfill"><path class="js-fill" d="M5,-2h30v6h-30z" style="stroke-width: 0; fill: rgb(255, 102, 146); fill-opacity: 0.5;"/></g><g class="legendlines"><path class="js-line" d="M5,-2h30" style="fill: none; stroke: rgb(255, 102, 146); stroke-opacity: 1; stroke-width: 2px;"/></g><g class="legendsymbols"><g class="legendpoints"/></g></g><rect class="legendtoggle" x="0" y="-9.5" width="255.078125" height="19" style="fill: rgb(0, 0, 0); fill-opacity: 0;"/></g><g class="traces" transform="translate(0,165.7)" style="opacity: 1;"><text class="legendtext" text-anchor="start" x="40" y="4.680000000000001" style="font-family: 'Open Sans', verdana, arial, sans-serif; font-size: 12px; fill: rgb(42, 63, 95); fill-opacity: 1; white-space: pre;">Wepiggy</text><g class="layers"><g class="legendfill"><path class="js-fill" d="M5,-2h30v6h-30z" style="stroke-width: 0; fill: rgb(182, 232, 128); fill-opacity: 0.5;"/></g><g class="legendlines"><path class="js-line" d="M5,-2h30" style="fill: none; stroke: rgb(182, 232, 128); stroke-opacity: 1; stroke-width: 2px;"/></g><g class="legendsymbols"><g class="legendpoints"/></g></g><rect class="legendtoggle" x="0" y="-9.5" width="255.078125" height="19" style="fill: rgb(0, 0, 0); fill-opacity: 0;"/></g><g class="traces" transform="translate(0,184.7)" style="opacity: 1;"><text class="legendtext" text-anchor="start" x="40" y="4.680000000000001" style="font-family: 'Open Sans', verdana, arial, sans-serif; font-size: 12px; fill: rgb(42, 63, 95); fill-opacity: 1; white-space: pre;">Aave V3 - Aave - Liquidity Mining</text><g class="layers"><g class="legendfill"><path class="js-fill" d="M5,-2h30v6h-30z" style="stroke-width: 0; fill: rgb(255, 151, 255); fill-opacity: 0.5;"/></g><g class="legendlines"><path class="js-line" d="M5,-2h30" style="fill: none; stroke: rgb(255, 151, 255); stroke-opacity: 1; stroke-width: 2px;"/></g><g class="legendsymbols"><g class="legendpoints"/></g></g><rect class="legendtoggle" x="0" y="-9.5" width="255.078125" height="19" style="fill: rgb(0, 0, 0); fill-opacity: 0;"/></g><g class="traces" transform="translate(0,203.7)" style="opacity: 1;"><text class="legendtext" text-anchor="start" x="40" y="4.680000000000001" style="font-family: 'Open Sans', verdana, arial, sans-serif; font-size: 12px; fill: rgb(42, 63, 95); fill-opacity: 1; white-space: pre;">Stargate</text><g class="layers"><g class="legendfill"><path class="js-fill" d="M5,-2h30v6h-30z" style="stroke-width: 0; fill: rgb(254, 203, 82); fill-opacity: 0.5;"/></g><g class="legendlines"><path class="js-line" d="M5,-2h30" style="fill: none; stroke: rgb(254, 203, 82); stroke-opacity: 1; stroke-width: 2px;"/></g><g class="legendsymbols"><g class="legendpoints"/></g></g><rect class="legendtoggle" x="0" y="-9.5" width="255.078125" height="19" style="fill: rgb(0, 0, 0); fill-opacity: 0;"/></g><g class="traces" transform="translate(0,222.7)" style="opacity: 1;"><text class="legendtext" text-anchor="start" x="40" y="4.680000000000001" style="font-family: 'Open Sans', verdana, arial, sans-serif; font-size: 12px; fill: rgb(42, 63, 95); fill-opacity: 1; white-space: pre;">Synthetix - sETH-ETH: Curve</text><g class="layers"><g class="legendfill"><path class="js-fill" d="M5,-2h30v6h-30z" style="stroke-width: 0; fill: rgb(99, 110, 250); fill-opacity: 0.5;"/></g><g class="legendlines"><path class="js-line" d="M5,-2h30" style="fill: none; stroke: rgb(99, 110, 250); stroke-opacity: 1; stroke-width: 2px;"/></g><g class="legendsymbols"><g class="legendpoints"/></g></g><rect class="legendtoggle" x="0" y="-9.5" width="255.078125" height="19" style="fill: rgb(0, 0, 0); fill-opacity: 0;"/></g><g class="traces" transform="translate(0,241.7)" style="opacity: 1;"><text class="legendtext" text-anchor="start" x="40" y="4.680000000000001" style="font-family: 'Open Sans', verdana, arial, sans-serif; font-size: 12px; fill: rgb(42, 63, 95); fill-opacity: 1; white-space: pre;">Synthetix - sUSD &amp; sETH: Curve</text><g class="layers"><g class="legendfill"><path class="js-fill" d="M5,-2h30v6h-30z" style="stroke-width: 0; fill: rgb(239, 85, 59); fill-opacity: 0.5;"/></g><g class="legendlines"><path class="js-line" d="M5,-2h30" style="fill: none; stroke: rgb(239, 85, 59); stroke-opacity: 1; stroke-width: 2px;"/></g><g class="legendsymbols"><g class="legendpoints"/></g></g><rect class="legendtoggle" x="0" y="-9.5" width="255.078125" height="19" style="fill: rgb(0, 0, 0); fill-opacity: 0;"/></g><g class="traces" transform="translate(0,260.7)" style="opacity: 1;"><text class="legendtext" text-anchor="start" x="40" y="4.680000000000001" style="font-family: 'Open Sans', verdana, arial, sans-serif; font-size: 12px; fill: rgb(42, 63, 95); fill-opacity: 1; white-space: pre;">Synthetix - sUSD-3Crv: Curve</text><g class="layers"><g class="legendfill"><path class="js-fill" d="M5,-2h30v6h-30z" style="stroke-width: 0; fill: rgb(0, 204, 150); fill-opacity: 0.5;"/></g><g class="legendlines"><path class="js-line" d="M5,-2h30" style="fill: none; stroke: rgb(0, 204, 150); stroke-opacity: 1; stroke-width: 2px;"/></g><g class="legendsymbols"><g class="legendpoints"/></g></g><rect class="legendtoggle" x="0" y="-9.5" width="255.078125" height="19" style="fill: rgb(0, 0, 0); fill-opacity: 0;"/></g><g class="traces" transform="translate(0,279.7)" style="opacity: 1;"><text class="legendtext" text-anchor="start" x="40" y="4.680000000000001" style="font-family: 'Open Sans', verdana, arial, sans-serif; font-size: 12px; fill: rgb(42, 63, 95); fill-opacity: 1; white-space: pre;">Pika Protocol</text><g class="layers"><g class="legendfill"><path class="js-fill" d="M5,-2h30v6h-30z" style="stroke-width: 0; fill: rgb(171, 99, 250); fill-opacity: 0.5;"/></g><g class="legendlines"><path class="js-line" d="M5,-2h30" style="fill: none; stroke: rgb(171, 99, 250); stroke-opacity: 1; stroke-width: 2px;"/></g><g class="legendsymbols"><g class="legendpoints"/></g></g><rect class="legendtoggle" x="0" y="-9.5" width="255.078125" height="19" style="fill: rgb(0, 0, 0); fill-opacity: 0;"/></g><g class="traces" transform="translate(0,298.7)" style="opacity: 1;"><text class="legendtext" text-anchor="start" x="40" y="4.680000000000001" style="font-family: 'Open Sans', verdana, arial, sans-serif; font-size: 12px; fill: rgb(42, 63, 95); fill-opacity: 1; white-space: pre;">Pickle</text><g class="layers"><g class="legendfill"><path class="js-fill" d="M5,-2h30v6h-30z" style="stroke-width: 0; fill: rgb(255, 161, 90); fill-opacity: 0.5;"/></g><g class="legendlines"><path class="js-line" d="M5,-2h30" style="fill: none; stroke: rgb(255, 161, 90); stroke-opacity: 1; stroke-width: 2px;"/></g><g class="legendsymbols"><g class="legendpoints"/></g></g><rect class="legendtoggle" x="0" y="-9.5" width="255.078125" height="19" style="fill: rgb(0, 0, 0); fill-opacity: 0;"/></g><g class="traces" transform="translate(0,317.7)" style="opacity: 1;"><text class="legendtext" text-anchor="start" x="40" y="4.680000000000001" style="font-family: 'Open Sans', verdana, arial, sans-serif; font-size: 12px; fill: rgb(42, 63, 95); fill-opacity: 1; white-space: pre;">Aelin</text><g class="layers"><g class="legendfill"><path class="js-fill" d="M5,-2h30v6h-30z" style="stroke-width: 0; fill: rgb(25, 211, 243); fill-opacity: 0.5;"/></g><g class="legendlines"><path class="js-line" d="M5,-2h30" style="fill: none; stroke: rgb(25, 211, 243); stroke-opacity: 1; stroke-width: 2px;"/></g><g class="legendsymbols"><g class="legendpoints"/></g></g><rect class="legendtoggle" x="0" y="-9.5" width="255.078125" height="19" style="fill: rgb(0, 0, 0); fill-opacity: 0;"/></g><g class="traces" transform="translate(0,336.7)" style="opacity: 1;"><text class="legendtext" text-anchor="start" x="40" y="4.680000000000001" style="font-family: 'Open Sans', verdana, arial, sans-serif; font-size: 12px; fill: rgb(42, 63, 95); fill-opacity: 1; white-space: pre;">Beefy - BIFI/OP: Velodrome</text><g class="layers"><g class="legendfill"><path class="js-fill" d="M5,-2h30v6h-30z" style="stroke-width: 0; fill: rgb(255, 102, 146); fill-opacity: 0.5;"/></g><g class="legendlines"><path class="js-line" d="M5,-2h30" style="fill: none; stroke: rgb(255, 102, 146); stroke-opacity: 1; stroke-width: 2px;"/></g><g class="legendsymbols"><g class="legendpoints"/></g></g><rect class="legendtoggle" x="0" y="-9.5" width="255.078125" height="19" style="fill: rgb(0, 0, 0); fill-opacity: 0;"/></g><g class="traces" transform="translate(0,355.7)" style="opacity: 1;"><text class="legendtext" text-anchor="start" x="40" y="4.680000000000001" style="font-family: 'Open Sans', verdana, arial, sans-serif; font-size: 12px; fill: rgb(42, 63, 95); fill-opacity: 1; white-space: pre;">Polynomial Protocol</text><g class="layers"><g class="legendfill"><path class="js-fill" d="M5,-2h30v6h-30z" style="stroke-width: 0; fill: rgb(182, 232, 128); fill-opacity: 0.5;"/></g><g class="legendlines"><path class="js-line" d="M5,-2h30" style="fill: none; stroke: rgb(182, 232, 128); stroke-opacity: 1; stroke-width: 2px;"/></g><g class="legendsymbols"><g class="legendpoints"/></g></g><rect class="legendtoggle" x="0" y="-9.5" width="255.078125" height="19" style="fill: rgb(0, 0, 0); fill-opacity: 0;"/></g><g class="traces" transform="translate(0,374.7)" style="opacity: 1;"><text class="legendtext" text-anchor="start" x="40" y="4.680000000000001" style="font-family: 'Open Sans', verdana, arial, sans-serif; font-size: 12px; fill: rgb(42, 63, 95); fill-opacity: 1; white-space: pre;">Xtoken</text><g class="layers"><g class="legendfill"><path class="js-fill" d="M5,-2h30v6h-30z" style="stroke-width: 0; fill: rgb(255, 151, 255); fill-opacity: 0.5;"/></g><g class="legendlines"><path class="js-line" d="M5,-2h30" style="fill: none; stroke: rgb(255, 151, 255); stroke-opacity: 1; stroke-width: 2px;"/></g><g class="legendsymbols"><g class="legendpoints"/></g></g><rect class="legendtoggle" x="0" y="-9.5" width="255.078125" height="19" style="fill: rgb(0, 0, 0); fill-opacity: 0;"/></g><g class="traces" transform="translate(0,393.7)" style="opacity: 1;"><text class="legendtext" text-anchor="start" x="40" y="4.680000000000001" style="font-family: 'Open Sans', verdana, arial, sans-serif; font-size: 12px; fill: rgb(42, 63, 95); fill-opacity: 1; white-space: pre;">Hop Protocol</text><g class="layers"><g class="legendfill"><path class="js-fill" d="M5,-2h30v6h-30z" style="stroke-width: 0; fill: rgb(254, 203, 82); fill-opacity: 0.5;"/></g><g class="legendlines"><path class="js-line" d="M5,-2h30" style="fill: none; stroke: rgb(254, 203, 82); stroke-opacity: 1; stroke-width: 2px;"/></g><g class="legendsymbols"><g class="legendpoints"/></g></g><rect class="legendtoggle" x="0" y="-9.5" width="255.078125" height="19" style="fill: rgb(0, 0, 0); fill-opacity: 0;"/></g><g class="traces" transform="translate(0,412.7)" style="opacity: 1;"><text class="legendtext" text-anchor="start" x="40" y="4.680000000000001" style="font-family: 'Open Sans', verdana, arial, sans-serif; font-size: 12px; fill: rgb(42, 63, 95); fill-opacity: 1; white-space: pre;">Beethoven X</text><g class="layers"><g class="legendfill"><path class="js-fill" d="M5,-2h30v6h-30z" style="stroke-width: 0; fill: rgb(99, 110, 250); fill-opacity: 0.5;"/></g><g class="legendlines"><path class="js-line" d="M5,-2h30" style="fill: none; stroke: rgb(99, 110, 250); stroke-opacity: 1; stroke-width: 2px;"/></g><g class="legendsymbols"><g class="legendpoints"/></g></g><rect class="legendtoggle" x="0" y="-9.5" width="255.078125" height="19" style="fill: rgb(0, 0, 0); fill-opacity: 0;"/></g><g class="traces" transform="translate(0,431.7)" style="opacity: 1;"><text class="legendtext" text-anchor="start" x="40" y="4.680000000000001" style="font-family: 'Open Sans', verdana, arial, sans-serif; font-size: 12px; fill: rgb(42, 63, 95); fill-opacity: 1; white-space: pre;">Beefy</text><g class="layers"><g class="legendfill"><path class="js-fill" d="M5,-2h30v6h-30z" style="stroke-width: 0; fill: rgb(239, 85, 59); fill-opacity: 0.5;"/></g><g class="legendlines"><path class="js-line" d="M5,-2h30" style="fill: none; stroke: rgb(239, 85, 59); stroke-opacity: 1; stroke-width: 2px;"/></g><g class="legendsymbols"><g class="legendpoints"/></g></g><rect class="legendtoggle" x="0" y="-9.5" width="255.078125" height="19" style="fill: rgb(0, 0, 0); fill-opacity: 0;"/></g><g class="traces" transform="translate(0,450.7)" style="opacity: 1;"><text class="legendtext" text-anchor="start" x="40" y="4.680000000000001" style="font-family: 'Open Sans', verdana, arial, sans-serif; font-size: 12px; fill: rgb(42, 63, 95); fill-opacity: 1; white-space: pre;">Arrakis Finance - Uniswap LM - Phase 1</text><g class="layers"><g class="legendfill"><path class="js-fill" d="M5,-2h30v6h-30z" style="stroke-width: 0; fill: rgb(0, 204, 150); fill-opacity: 0.5;"/></g><g class="legendlines"><path class="js-line" d="M5,-2h30" style="fill: none; stroke: rgb(0, 204, 150); stroke-opacity: 1; stroke-width: 2px;"/></g><g class="legendsymbols"><g class="legendpoints"/></g></g><rect class="legendtoggle" x="0" y="-9.5" width="255.078125" height="19" style="fill: rgb(0, 0, 0); fill-opacity: 0;"/></g><g class="traces" transform="translate(0,469.7)" style="opacity: 1;"><text class="legendtext" text-anchor="start" x="40" y="4.680000000000001" style="font-family: 'Open Sans', verdana, arial, sans-serif; font-size: 12px; fill: rgb(42, 63, 95); fill-opacity: 1; white-space: pre;">Gamma - Uniswap LM - Phase 1</text><g class="layers"><g class="legendfill"><path class="js-fill" d="M5,-2h30v6h-30z" style="stroke-width: 0; fill: rgb(171, 99, 250); fill-opacity: 0.5;"/></g><g class="legendlines"><path class="js-line" d="M5,-2h30" style="fill: none; stroke: rgb(171, 99, 250); stroke-opacity: 1; stroke-width: 2px;"/></g><g class="legendsymbols"><g class="legendpoints"/></g></g><rect class="legendtoggle" x="0" y="-9.5" width="255.078125" height="19" style="fill: rgb(0, 0, 0); fill-opacity: 0;"/></g><g class="traces" transform="translate(0,488.7)" style="opacity: 1;"><text class="legendtext" text-anchor="start" x="40" y="4.680000000000001" style="font-family: 'Open Sans', verdana, arial, sans-serif; font-size: 12px; fill: rgb(42, 63, 95); fill-opacity: 1; white-space: pre;">Uniswap V3 - Uniswap LM - Phase 1</text><g class="layers"><g class="legendfill"><path class="js-fill" d="M5,-2h30v6h-30z" style="stroke-width: 0; fill: rgb(255, 161, 90); fill-opacity: 0.5;"/></g><g class="legendlines"><path class="js-line" d="M5,-2h30" style="fill: none; stroke: rgb(255, 161, 90); stroke-opacity: 1; stroke-width: 2px;"/></g><g class="legendsymbols"><g class="legendpoints"/></g></g><rect class="legendtoggle" x="0" y="-9.5" width="255.078125" height="19" style="fill: rgb(0, 0, 0); fill-opacity: 0;"/></g><g class="traces" transform="translate(0,507.7)" style="opacity: 1;"><text class="legendtext" text-anchor="start" x="40" y="4.680000000000001" style="font-family: 'Open Sans', verdana, arial, sans-serif; font-size: 12px; fill: rgb(42, 63, 95); fill-opacity: 1; white-space: pre;">Xtoken - Uniswap LM - Phase 1</text><g class="layers"><g class="legendfill"><path class="js-fill" d="M5,-2h30v6h-30z" style="stroke-width: 0; fill: rgb(25, 211, 243); fill-opacity: 0.5;"/></g><g class="legendlines"><path class="js-line" d="M5,-2h30" style="fill: none; stroke: rgb(25, 211, 243); stroke-opacity: 1; stroke-width: 2px;"/></g><g class="legendsymbols"><g class="legendpoints"/></g></g><rect class="legendtoggle" x="0" y="-9.5" width="255.078125" height="19" style="fill: rgb(0, 0, 0); fill-opacity: 0;"/></g><g class="traces" transform="translate(0,526.7)" style="opacity: 1;"><text class="legendtext" text-anchor="start" x="40" y="4.680000000000001" style="font-family: 'Open Sans', verdana, arial, sans-serif; font-size: 12px; fill: rgb(42, 63, 95); fill-opacity: 1; white-space: pre;">Revert Compoundor</text><g class="layers"><g class="legendfill"><path class="js-fill" d="M5,-2h30v6h-30z" style="stroke-width: 0; fill: rgb(255, 102, 146); fill-opacity: 0.5;"/></g><g class="legendlines"><path class="js-line" d="M5,-2h30" style="fill: none; stroke: rgb(255, 102, 146); stroke-opacity: 1; stroke-width: 2px;"/></g><g class="legendsymbols"><g class="legendpoints"/></g></g><rect class="legendtoggle" x="0" y="-9.5" width="255.078125" height="19" style="fill: rgb(0, 0, 0); fill-opacity: 0;"/></g><g class="traces" transform="translate(0,545.7)" style="opacity: 1;"><text class="legendtext" text-anchor="start" x="40" y="4.680000000000001" style="font-family: 'Open Sans', verdana, arial, sans-serif; font-size: 12px; fill: rgb(42, 63, 95); fill-opacity: 1; white-space: pre;">Velodrome - Velodrome #2 (Tour de OP)</text><g class="layers"><g class="legendfill"><path class="js-fill" d="M5,-2h30v6h-30z" style="stroke-width: 0; fill: rgb(182, 232, 128); fill-opacity: 0.5;"/></g><g class="legendlines"><path class="js-line" d="M5,-2h30" style="fill: none; stroke: rgb(182, 232, 128); stroke-opacity: 1; stroke-width: 2px;"/></g><g class="legendsymbols"><g class="legendpoints"/></g></g><rect class="legendtoggle" x="0" y="-9.5" width="255.078125" height="19" style="fill: rgb(0, 0, 0); fill-opacity: 0;"/></g><g class="traces" transform="translate(0,564.7)" style="opacity: 1;"><text class="legendtext" text-anchor="start" x="40" y="4.680000000000001" style="font-family: 'Open Sans', verdana, arial, sans-serif; font-size: 12px; fill: rgb(42, 63, 95); fill-opacity: 1; white-space: pre;">Hundred Finance</text><g class="layers"><g class="legendfill"><path class="js-fill" d="M5,-2h30v6h-30z" style="stroke-width: 0; fill: rgb(255, 151, 255); fill-opacity: 0.5;"/></g><g class="legendlines"><path class="js-line" d="M5,-2h30" style="fill: none; stroke: rgb(255, 151, 255); stroke-opacity: 1; stroke-width: 2px;"/></g><g class="legendsymbols"><g class="legendpoints"/></g></g><rect class="legendtoggle" x="0" y="-9.5" width="255.078125" height="19" style="fill: rgb(0, 0, 0); fill-opacity: 0;"/></g></g></g><rect class="scrollbar" rx="20" ry="3" width="0" height="0" x="0" y="0" style="fill: rgb(128, 139, 164); fill-opacity: 1;"/></g><g class="g-gtitle"><text class="gtitle" x="35" y="50" text-anchor="start" dy="0em" style="font-family: 'Open Sans', verdana, arial, sans-serif; font-size: 17px; fill: rgb(42, 63, 95); opacity: 1; font-weight: normal; white-space: pre;">Cumulative Net Dollar Flow since Program Announcement (At Most Recent Token Price)</text></g><g class="g-xtitle"><text class="xtitle" x="250" y="460.8" text-anchor="middle" style="font-family: 'Open Sans', verdana, arial, sans-serif; font-size: 14px; fill: rgb(42, 63, 95); opacity: 1; font-weight: normal; white-space: pre;">Day</text></g><g class="g-ytitle"><text class="ytitle" transform="rotate(-90,17.496875000000003,260)" x="17.496875000000003" y="260" text-anchor="middle" style="font-family: 'Open Sans', verdana, arial, sans-serif; font-size: 14px; fill: rgb(42, 63, 95); opacity: 1; font-weight: normal; white-space: pre;">Cumulative Net Dollar Flow (N$F) - At Most Recent Price</text></g></g></svg>