<svg class="main-svg" xmlns="http://www.w3.org/2000/svg" xmlns:xlink="http://www.w3.org/1999/xlink" width="700" height="500" style="" viewBox="0 0 700 500"><rect x="0" y="0" width="700" height="500" style="fill: rgb(255, 255, 255); fill-opacity: 1;"/><defs id="defs-f8b750"><g class="clips"><clipPath id="clipf8b750xyplot" class="plotclip"><rect width="336" height="320"/></clipPath><clipPath class="axesclip" id="clipf8b750x"><rect x="80" y="0" width="336" height="500"/></clipPath><clipPath class="axesclip" id="clipf8b750y"><rect x="0" y="100" width="700" height="320"/></clipPath><clipPath class="axesclip" id="clipf8b750xy"><rect x="80" y="100" width="336" height="320"/></clipPath></g><g class="gradients"/><g class="patterns"/></defs><g class="bglayer"><rect class="bg" x="80" y="100" width="336" height="320" style="fill: rgb(229, 236, 246); fill-opacity: 1; stroke-width: 0;"/></g><g class="layer-below"><g class="imagelayer"/><g class="shapelayer"/></g><g class="cartesianlayer"><g class="subplot xy"><g class="layer-subplot"><g class="shapelayer"/><g class="imagelayer"/></g><g class="minor-gridlayer"><g class="x"/><g class="y"/></g><g class="gridlayer"><g class="x"><path class="xgrid crisp" transform="translate(145.63,0)" d="M0,100v320" style="stroke: rgb(255, 255, 255); stroke-opacity: 1; stroke-width: 1px;"/><path class="xgrid crisp" transform="translate(225.69,0)" d="M0,100v320" style="stroke: rgb(255, 255, 255); stroke-opacity: 1; stroke-width: 1px;"/><path class="xgrid crisp" transform="translate(305.75,0)" d="M0,100v320" style="stroke: rgb(255, 255, 255); stroke-opacity: 1; stroke-width: 1px;"/><path class="xgrid crisp" transform="translate(383.19,0)" d="M0,100v320" style="stroke: rgb(255, 255, 255); stroke-opacity: 1; stroke-width: 1px;"/></g><g class="y"><path class="ygrid crisp" transform="translate(0,326.59000000000003)" d="M80,0h336" style="stroke: rgb(255, 255, 255); stroke-opacity: 1; stroke-width: 1px;"/><path class="ygrid crisp" transform="translate(0,279.71000000000004)" d="M80,0h336" style="stroke: rgb(255, 255, 255); stroke-opacity: 1; stroke-width: 1px;"/><path class="ygrid crisp" transform="translate(0,232.84)" d="M80,0h336" style="stroke: rgb(255, 255, 255); stroke-opacity: 1; stroke-width: 1px;"/><path class="ygrid crisp" transform="translate(0,185.95999999999998)" d="M80,0h336" style="stroke: rgb(255, 255, 255); stroke-opacity: 1; stroke-width: 1px;"/><path class="ygrid crisp" transform="translate(0,139.07999999999998)" d="M80,0h336" style="stroke: rgb(255, 255, 255); stroke-opacity: 1; stroke-width: 1px;"/></g></g><g class="zerolinelayer"><path class="yzl zl crisp" transform="translate(0,373.47)" d="M80,0h336" style="stroke: rgb(255, 255, 255); stroke-opacity: 1; stroke-width: 2px;"/></g><path class="xlines-below"/><path class="ylines-below"/><g class="overlines-below"/><g class="xaxislayer-below"/><g class="yaxislayer-below"/><g class="overaxes-below"/><g class="plot" transform="translate(80,100)" clip-path="url(#clipf8b750xyplot)"><g class="scatterlayer mlayer"><g class="trace scatter trace2182ad" style="stroke-miterlimit: 2;"><g class="fills"><g><path class="js-fill" d="M189,273.47L28.88,273.47L28.88,273.05L31.5,82.67L32.81,52.38L34.13,33.91L35.44,36.82L36.75,30L38.06,16.42L39.38,16L40.69,16.62L42,33.29L43.31,40.18L44.63,40.1L45.94,43.27L47.25,46.9L48.56,97.51L51.19,99.44L52.5,98.71L53.81,105.6L55.13,101.44L56.44,99.65L57.75,93.39L59.06,94.44L60.38,91.33L63,96.43L64.31,85.4L65.63,83.47L66.94,83.01L70.88,84.34L72.19,93.75L73.5,102.3L74.81,103.35L76.13,109.65L77.44,103.02L80.06,101.64L81.38,99.32L82.69,99.69L84,105.72L86.63,96.79L87.94,94.81L89.25,95.37L90.56,92.17L93.19,90.87L94.5,88.83L95.81,88.67L97.13,87.27L98.44,90.45L99.75,89.07L101.06,87.35L102.38,75.79L103.69,70.85L105,71.72L106.31,71.68L107.63,70.53L108.94,66.78L110.25,65.57L112.88,68.2L114.19,69.06L115.5,66.38L116.81,69.64L118.13,71.43L119.44,71.76L122.06,75.42L123.38,73.05L124.69,73.27L126,74.39L127.31,92.49L128.63,89.77L129.94,87.04L131.25,86.68L133.88,86.07L135.19,87.73L137.81,88.08L139.13,87.98L140.44,74.8L141.75,74.71L143.06,69.46L144.38,72.02L148.31,120.7L149.63,149.41L152.25,161.65L153.56,165.63L154.88,162.7L156.19,172.17L158.81,188.96L160.13,189.65L162.75,190.29L164.06,214.47L166.69,217.71L168,222.86L173.25,222.71L174.56,224.3L177.19,225.96L178.5,234.21L179.81,234.6L181.13,236.71L182.44,236.84L183.75,237.73L185.06,237.63L186.38,236.77L189,237.22" style="fill: rgb(99, 110, 250); fill-opacity: 0.5; stroke-width: 0;"/></g></g><g class="errorbars"/><g class="lines"><path class="js-line" d="M28.88,273.05L31.5,82.67L32.81,52.38L34.13,33.91L35.44,36.82L36.75,30L38.06,16.42L39.38,16L40.69,16.62L42,33.29L43.31,40.18L44.63,40.1L45.94,43.27L47.25,46.9L48.56,97.51L51.19,99.44L52.5,98.71L53.81,105.6L55.13,101.44L56.44,99.65L57.75,93.39L59.06,94.44L60.38,91.33L63,96.43L64.31,85.4L65.63,83.47L66.94,83.01L70.88,84.34L72.19,93.75L73.5,102.3L74.81,103.35L76.13,109.65L77.44,103.02L80.06,101.64L81.38,99.32L82.69,99.69L84,105.72L86.63,96.79L87.94,94.81L89.25,95.37L90.56,92.17L93.19,90.87L94.5,88.83L95.81,88.67L97.13,87.27L98.44,90.45L99.75,89.07L101.06,87.35L102.38,75.79L103.69,70.85L105,71.72L106.31,71.68L107.63,70.53L108.94,66.78L110.25,65.57L112.88,68.2L114.19,69.06L115.5,66.38L116.81,69.64L118.13,71.43L119.44,71.76L122.06,75.42L123.38,73.05L124.69,73.27L126,74.39L127.31,92.49L128.63,89.77L129.94,87.04L131.25,86.68L133.88,86.07L135.19,87.73L137.81,88.08L139.13,87.98L140.44,74.8L141.75,74.71L143.06,69.46L144.38,72.02L148.31,120.7L149.63,149.41L152.25,161.65L153.56,165.63L154.88,162.7L156.19,172.17L158.81,188.96L160.13,189.65L162.75,190.29L164.06,214.47L166.69,217.71L168,222.86L173.25,222.71L174.56,224.3L177.19,225.96L178.5,234.21L179.81,234.6L181.13,236.71L182.44,236.84L183.75,237.73L185.06,237.63L186.38,236.77L189,237.22" style="vector-effect: non-scaling-stroke; fill: none; stroke: rgb(99, 110, 250); stroke-opacity: 1; stroke-width: 2px; opacity: 1;"/></g><g class="points"/><g class="text"/></g><g class="trace scatter trace54a03a" style="stroke-miterlimit: 2;"><g class="fills"><g><path class="js-fill" d="M336,273.47L56.44,273.47L56.44,263.46L57.75,261.48L59.06,260.96L63,260.15L64.31,258.79L70.88,257.87L72.19,257.9L74.81,256.51L76.13,255.72L80.06,254.53L81.38,254.63L85.31,254.86L86.63,254.06L99.75,255.84L101.06,254.44L102.38,254.74L103.69,256.06L110.25,256.6L111.56,257L112.88,256.68L114.19,257.16L122.06,257.7L123.38,256.76L139.13,256.62L140.44,257.44L145.69,256.3L147,255.96L148.31,255.75L149.63,253.8L154.88,253.59L156.19,255.9L158.81,257.03L160.13,256.63L161.44,257.11L162.75,256.63L166.69,257L168,257.39L171.94,257.59L173.25,257.84L191.63,256.61L192.94,255.97L195.56,255.5L196.88,255.37L199.5,255.35L200.81,254.69L202.13,254.71L203.44,253.53L206.06,254.87L207.38,254.86L223.13,255.79L224.44,255.12L227.06,255.99L228.38,255.98L232.31,255.96L233.63,255.57L236.25,255.12L237.56,254.44L240.19,253.22L241.5,253.51L248.06,252.29L249.38,252.36L255.94,250.76L257.25,249.6L259.88,245.83L261.19,245.92L262.5,244.12L263.81,244.04L265.13,242.79L266.44,242.66L267.75,242.06L269.06,239.62L275.63,240.83L276.94,243.46L279.56,243.29L280.88,242.06L286.13,241.85L287.44,241.95L290.06,242.48L291.38,242.59L292.69,243.91L294,243.98L301.88,243.58L303.19,242.82L305.81,242.98L307.13,241.51L313.69,241.43L315,241.78L316.31,242.38L317.63,252.17L318.94,252.04L320.25,250.4L321.56,247.93L322.88,247.65L324.19,246.49L325.5,246.94L328.13,248.06L329.44,248.05L330.75,247.8L332.06,246.14L333.38,244.04L334.69,244.09L336,246" style="fill: rgb(239, 85, 59); fill-opacity: 0.5; stroke-width: 0;"/></g></g><g class="errorbars"/><g class="lines"><path class="js-line" d="M56.44,263.46L57.75,261.48L59.06,260.96L63,260.15L64.31,258.79L70.88,257.87L72.19,257.9L74.81,256.51L76.13,255.72L80.06,254.53L81.38,254.63L85.31,254.86L86.63,254.06L99.75,255.84L101.06,254.44L102.38,254.74L103.69,256.06L110.25,256.6L111.56,257L112.88,256.68L114.19,257.16L122.06,257.7L123.38,256.76L139.13,256.62L140.44,257.44L145.69,256.3L147,255.96L148.31,255.75L149.63,253.8L154.88,253.59L156.19,255.9L158.81,257.03L160.13,256.63L161.44,257.11L162.75,256.63L166.69,257L168,257.39L171.94,257.59L173.25,257.84L191.63,256.61L192.94,255.97L195.56,255.5L196.88,255.37L199.5,255.35L200.81,254.69L202.13,254.71L203.44,253.53L206.06,254.87L207.38,254.86L223.13,255.79L224.44,255.12L227.06,255.99L228.38,255.98L232.31,255.96L233.63,255.57L236.25,255.12L237.56,254.44L240.19,253.22L241.5,253.51L248.06,252.29L249.38,252.36L255.94,250.76L257.25,249.6L259.88,245.83L261.19,245.92L262.5,244.12L263.81,244.04L265.13,242.79L266.44,242.66L267.75,242.06L269.06,239.62L275.63,240.83L276.94,243.46L279.56,243.29L280.88,242.06L286.13,241.85L287.44,241.95L290.06,242.48L291.38,242.59L292.69,243.91L294,243.98L301.88,243.58L303.19,242.82L305.81,242.98L307.13,241.51L313.69,241.43L315,241.78L316.31,242.38L317.63,252.17L318.94,252.04L320.25,250.4L321.56,247.93L322.88,247.65L324.19,246.49L325.5,246.94L328.13,248.06L329.44,248.05L330.75,247.8L332.06,246.14L333.38,244.04L334.69,244.09L336,246" style="vector-effect: non-scaling-stroke; fill: none; stroke: rgb(239, 85, 59); stroke-opacity: 1; stroke-width: 2px; opacity: 1;"/></g><g class="points"/><g class="text"/></g><g class="trace scatter trace43500f" style="stroke-miterlimit: 2;"><g class="fills"><g><path class="js-fill" d="M336,273.47L99.75,273.47L99.75,271.45L108.94,270.52L110.25,269.91L115.5,269.87L116.81,269.82L120.75,270.03L122.06,269.45L147,268.8L148.31,268.5L153.56,268.1L154.88,269.1L162.75,270.42L164.06,269.82L183.75,269.2L185.06,268.78L192.94,268.58L194.25,268.73L196.88,268.79L198.19,267.35L200.81,267.61L202.13,267.87L203.44,269.18L204.75,269.18L208.69,269.54L210,269.07L224.44,269.26L225.75,269.26L245.44,268.18L246.75,267.84L250.69,266.75L252,266.03L254.63,265.5L255.94,264.33L261.19,261.25L262.5,261.13L271.69,258.91L273,257.15L275.63,254.67L276.94,254.77L279.56,254.41L280.88,254.01L284.81,253.25L286.13,252.44L288.75,252.14L290.06,250.82L291.38,250.25L292.69,248.28L295.31,248.37L296.63,246.45L297.94,246.17L299.25,244.52L304.5,241.22L305.81,241.25L309.75,241.73L311.06,241.02L312.38,240.65L313.69,241.53L315,246.73L316.31,258.53L317.63,258.71L318.94,256.34L320.25,252.99L321.56,252.27L322.88,251.72L324.19,249.53L326.81,245.95L328.13,245.47L329.44,245.99L330.75,245.56L334.69,246.83L336,246.83" style="fill: rgb(0, 204, 150); fill-opacity: 0.5; stroke-width: 0;"/></g></g><g class="errorbars"/><g class="lines"><path class="js-line" d="M99.75,271.45L108.94,270.52L110.25,269.91L115.5,269.87L116.81,269.82L120.75,270.03L122.06,269.45L147,268.8L148.31,268.5L153.56,268.1L154.88,269.1L162.75,270.42L164.06,269.82L183.75,269.2L185.06,268.78L192.94,268.58L194.25,268.73L196.88,268.79L198.19,267.35L200.81,267.61L202.13,267.87L203.44,269.18L204.75,269.18L208.69,269.54L210,269.07L224.44,269.26L225.75,269.26L245.44,268.18L246.75,267.84L250.69,266.75L252,266.03L254.63,265.5L255.94,264.33L261.19,261.25L262.5,261.13L271.69,258.91L273,257.15L275.63,254.67L276.94,254.77L279.56,254.41L280.88,254.01L284.81,253.25L286.13,252.44L288.75,252.14L290.06,250.82L291.38,250.25L292.69,248.28L295.31,248.37L296.63,246.45L297.94,246.17L299.25,244.52L304.5,241.22L305.81,241.25L309.75,241.73L311.06,241.02L312.38,240.65L313.69,241.53L315,246.73L316.31,258.53L317.63,258.71L318.94,256.34L320.25,252.99L321.56,252.27L322.88,251.72L324.19,249.53L326.81,245.95L328.13,245.47L329.44,245.99L330.75,245.56L334.69,246.83L336,246.83" style="vector-effect: non-scaling-stroke; fill: none; stroke: rgb(0, 204, 150); stroke-opacity: 1; stroke-width: 2px; opacity: 1;"/></g><g class="points"/><g class="text"/></g><g class="trace scatter trace652b41" style="stroke-miterlimit: 2;"><g class="fills"><g><path class="js-fill" d="M336,273.47L81.38,273.47L81.38,273.4L336,273.25" style="fill: rgb(171, 99, 250); fill-opacity: 0.5; stroke-width: 0;"/></g></g><g class="errorbars"/><g class="lines"><path class="js-line" d="M81.38,273.4L336,273.25" style="vector-effect: non-scaling-stroke; fill: none; stroke: rgb(171, 99, 250); stroke-opacity: 1; stroke-width: 2px; opacity: 1;"/></g><g class="points"/><g class="text"/></g><g class="trace scatter trace3527a3" style="stroke-miterlimit: 2;"><g class="fills"><g><path class="js-fill" d="M336,273.47L107.63,273.47L107.63,273.46L280.88,272.71L282.19,272.69L336,272.78" style="fill: rgb(255, 161, 90); fill-opacity: 0.5; stroke-width: 0;"/></g></g><g class="errorbars"/><g class="lines"><path class="js-line" d="M107.63,273.46L280.88,272.71L282.19,272.69L336,272.78" style="vector-effect: non-scaling-stroke; fill: none; stroke: rgb(255, 161, 90); stroke-opacity: 1; stroke-width: 2px; opacity: 1;"/></g><g class="points"/><g class="text"/></g><g class="trace scatter traced193bd" style="stroke-miterlimit: 2;"><g class="fills"><g><path class="js-fill" d="M336,273.47L40.69,273.47L40.69,274.06L45.94,274.54L47.25,274.58L48.56,272.56L49.88,275.06L55.13,275.09L56.44,275.13L60.38,275.08L61.69,275.12L65.63,274.54L66.94,274.82L84,274.1L85.31,274.53L112.88,275.67L114.19,275.57L118.13,275.85L119.44,275.76L144.38,275.54L145.69,275.46L153.56,275.34L154.88,275.06L157.5,276.51L158.81,275.66L165.38,275.43L166.69,274.57L168,275.23L169.31,274.81L171.94,274.79L173.25,275L178.5,276.36L179.81,275.79L183.75,275.86L185.06,275.6L189,276.27L190.31,275.6L194.25,275.88L195.56,275.72L199.5,276.42L200.81,276.02L203.44,276.19L204.75,276.01L207.38,275.87L208.69,275.7L210,276.06L211.31,275.24L212.63,274.33L213.94,275.43L216.56,274.69L217.88,274.82L221.81,275.33L223.13,273.26L224.44,274.06L225.75,273.51L228.38,273.86L229.69,273.83L238.88,274.11L240.19,274.37L241.5,274.56L242.81,273.97L246.75,274.04L248.06,274.05L250.69,274.33L252,274.56L255.94,273.85L257.25,274.07L263.81,273.84L265.13,274L267.75,273.57L269.06,274.45L274.31,274.53L275.63,273.78L276.94,272.63L278.25,273.43L279.56,272.16L280.88,272.69L284.81,272.53L286.13,271.96L287.44,272.4L288.75,271.57L292.69,270.49L294,271.1L296.63,271L297.94,270.49L299.25,271.04L300.56,270.76L305.81,271.32L307.13,271.87L313.69,271.77L315,271.29L317.63,273.23L318.94,272.18L325.5,271.97L326.81,271.5L333.38,270.28L334.69,270.67L336,271.45L336,278.07" style="fill: rgb(25, 211, 243); fill-opacity: 0.5; stroke-width: 0;"/></g></g><g class="errorbars"/><g class="lines"><path class="js-line" d="M40.69,274.06L45.94,274.54L47.25,274.58L48.56,272.56L49.88,275.06L55.13,275.09L56.44,275.13L60.38,275.08L61.69,275.12L65.63,274.54L66.94,274.82L84,274.1L85.31,274.53L112.88,275.67L114.19,275.57L118.13,275.85L119.44,275.76L144.38,275.54L145.69,275.46L153.56,275.34L154.88,275.06L157.5,276.51L158.81,275.66L165.38,275.43L166.69,274.57L168,275.23L169.31,274.81L171.94,274.79L173.25,275L178.5,276.36L179.81,275.79L183.75,275.86L185.06,275.6L189,276.27L190.31,275.6L194.25,275.88L195.56,275.72L199.5,276.42L200.81,276.02L203.44,276.19L204.75,276.01L207.38,275.87L208.69,275.7L210,276.06L211.31,275.24L212.63,274.33L213.94,275.43L216.56,274.69L217.88,274.82L221.81,275.33L223.13,273.26L224.44,274.06L225.75,273.51L228.38,273.86L229.69,273.83L238.88,274.11L240.19,274.37L241.5,274.56L242.81,273.97L246.75,274.04L248.06,274.05L250.69,274.33L252,274.56L255.94,273.85L257.25,274.07L263.81,273.84L265.13,274L267.75,273.57L269.06,274.45L274.31,274.53L275.63,273.78L276.94,272.63L278.25,273.43L279.56,272.16L280.88,272.69L284.81,272.53L286.13,271.96L287.44,272.4L288.75,271.57L292.69,270.49L294,271.1L296.63,271L297.94,270.49L299.25,271.04L300.56,270.76L305.81,271.32L307.13,271.87L313.69,271.77L315,271.29L317.63,273.23L318.94,272.18L325.5,271.97L326.81,271.5L333.38,270.28L334.69,270.67L336,271.45L336,278.07" style="vector-effect: non-scaling-stroke; fill: none; stroke: rgb(25, 211, 243); stroke-opacity: 1; stroke-width: 2px; opacity: 1;"/></g><g class="points"/><g class="text"/></g><g class="trace scatter tracecbf433" style="stroke-miterlimit: 2;"><g class="fills"><g><path class="js-fill" d="M336,273.47L269.06,273.47L269.06,273.41L336,273.01" style="fill: rgb(255, 102, 146); fill-opacity: 0.5; stroke-width: 0;"/></g></g><g class="errorbars"/><g class="lines"><path class="js-line" d="M269.06,273.41L336,273.01" style="vector-effect: non-scaling-stroke; fill: none; stroke: rgb(255, 102, 146); stroke-opacity: 1; stroke-width: 2px; opacity: 1;"/></g><g class="points"/><g class="text"/></g><g class="trace scatter trace00c991" style="stroke-miterlimit: 2;"><g class="fills"><g><path class="js-fill" d="M336,273.47L99.75,273.47L99.75,271.19L108.94,270.39L110.25,270.03L120.75,270.35L122.06,270.27L249.38,268.67L250.69,268.63L257.25,267.2L258.56,266.79L273,266.24L274.31,265.35L276.94,264.83L278.25,264.82L284.81,264.36L286.13,263.74L291.38,263.33L292.69,261.62L295.31,261.47L296.63,260.46L297.94,260.21L299.25,259L303.19,258.57L304.5,258.5L311.06,258.53L312.38,257.99L315,258.31L316.31,259.74L317.63,260.1L318.94,259.55L321.56,259.29L322.88,259.6L333.38,259.95L334.69,260.1L336,260.1" style="fill: rgb(182, 232, 128); fill-opacity: 0.5; stroke-width: 0;"/></g></g><g class="errorbars"/><g class="lines"><path class="js-line" d="M99.75,271.19L108.94,270.39L110.25,270.03L120.75,270.35L122.06,270.27L249.38,268.67L250.69,268.63L257.25,267.2L258.56,266.79L273,266.24L274.31,265.35L276.94,264.83L278.25,264.82L284.81,264.36L286.13,263.74L291.38,263.33L292.69,261.62L295.31,261.47L296.63,260.46L297.94,260.21L299.25,259L303.19,258.57L304.5,258.5L311.06,258.53L312.38,257.99L315,258.31L316.31,259.74L317.63,260.1L318.94,259.55L321.56,259.29L322.88,259.6L333.38,259.95L334.69,260.1L336,260.1" style="vector-effect: non-scaling-stroke; fill: none; stroke: rgb(182, 232, 128); stroke-opacity: 1; stroke-width: 2px; opacity: 1;"/></g><g class="points"/><g class="text"/></g><g class="trace scatter trace466a67" style="stroke-miterlimit: 2;"><g class="fills"><g><path class="js-fill" d="M91.88,273.47L9.19,273.47L9.19,273.47L65.63,273.35L66.94,273.36L91.88,273.42" style="fill: rgb(255, 151, 255); fill-opacity: 0.5; stroke-width: 0;"/></g></g><g class="errorbars"/><g class="lines"><path class="js-line" d="M9.19,273.47L65.63,273.35L66.94,273.36L91.88,273.42" style="vector-effect: non-scaling-stroke; fill: none; stroke: rgb(255, 151, 255); stroke-opacity: 1; stroke-width: 2px; opacity: 1;"/></g><g class="points"/><g class="text"/></g><g class="trace scatter trace0a5c1c" style="stroke-miterlimit: 2;"><g class="fills"><g><path class="js-fill" d="M336,273.47L291.38,273.47L291.38,273.47L336,273.38" style="fill: rgb(254, 203, 82); fill-opacity: 0.5; stroke-width: 0;"/></g></g><g class="errorbars"/><g class="lines"><path class="js-line" d="M291.38,273.47L336,273.38" style="vector-effect: non-scaling-stroke; fill: none; stroke: rgb(254, 203, 82); stroke-opacity: 1; stroke-width: 2px; opacity: 1;"/></g><g class="points"/><g class="text"/></g><g class="trace scatter trace9b1401" style="stroke-miterlimit: 2;"><g class="fills"><g><path class="js-fill" d="M336,273.47L76.13,273.47L76.13,273.4L91.88,272.94L93.19,272.97L119.44,272.64L120.75,272.73L150.94,272.7L152.25,272.67L182.44,272.93L183.75,272.9L207.38,272.92L208.69,272.92L257.25,272.55L258.56,272.46L303.19,271.55L304.5,270.9L308.44,270.82L309.75,273.64L313.69,270.8L315,270.9L316.31,271.04L317.63,272.33L320.25,272.12L321.56,270.84L336,270.98L336,273.64" style="fill: rgb(99, 110, 250); fill-opacity: 0.5; stroke-width: 0;"/></g></g><g class="errorbars"/><g class="lines"><path class="js-line" d="M76.13,273.4L91.88,272.94L93.19,272.97L119.44,272.64L120.75,272.73L150.94,272.7L152.25,272.67L182.44,272.93L183.75,272.9L207.38,272.92L208.69,272.92L257.25,272.55L258.56,272.46L303.19,271.55L304.5,270.9L308.44,270.82L309.75,273.64L313.69,270.8L315,270.9L316.31,271.04L317.63,272.33L320.25,272.12L321.56,270.84L336,270.98L336,273.64" style="vector-effect: non-scaling-stroke; fill: none; stroke: rgb(99, 110, 250); stroke-opacity: 1; stroke-width: 2px; opacity: 1;"/></g><g class="points"/><g class="text"/></g><g class="trace scatter trace88589d" style="stroke-miterlimit: 2;"><g class="fills"><g><path class="js-fill" d="M336,273.47L136.5,273.47L136.5,273.47L336,272.77" style="fill: rgb(239, 85, 59); fill-opacity: 0.5; stroke-width: 0;"/></g></g><g class="errorbars"/><g class="lines"><path class="js-line" d="M136.5,273.47L336,272.77" style="vector-effect: non-scaling-stroke; fill: none; stroke: rgb(239, 85, 59); stroke-opacity: 1; stroke-width: 2px; opacity: 1;"/></g><g class="points"/><g class="text"/></g><g class="trace scatter traced17392" style="stroke-miterlimit: 2;"><g class="fills"><g><path class="js-fill" d="M336,273.47L263.81,273.47L263.81,273.47L267.75,272.8L269.06,272.59L275.63,271.91L276.94,272.05L295.31,270.95L296.63,270.68L311.06,270.85L312.38,270.83L315,271.57L316.31,272.54L320.25,271.89L321.56,271.21L325.5,271.03L326.81,271.08L336,271.23" style="fill: rgb(0, 204, 150); fill-opacity: 0.5; stroke-width: 0;"/></g></g><g class="errorbars"/><g class="lines"><path class="js-line" d="M263.81,273.47L267.75,272.8L269.06,272.59L275.63,271.91L276.94,272.05L295.31,270.95L296.63,270.68L311.06,270.85L312.38,270.83L315,271.57L316.31,272.54L320.25,271.89L321.56,271.21L325.5,271.03L326.81,271.08L336,271.23" style="vector-effect: non-scaling-stroke; fill: none; stroke: rgb(0, 204, 150); stroke-opacity: 1; stroke-width: 2px; opacity: 1;"/></g><g class="points"/><g class="text"/></g><g class="trace scatter tracee630d9" style="stroke-miterlimit: 2;"><g class="fills"><g><path class="js-fill" d="M336,273.47L263.81,273.47L263.81,273.16L336,273.25" style="fill: rgb(171, 99, 250); fill-opacity: 0.5; stroke-width: 0;"/></g></g><g class="errorbars"/><g class="lines"><path class="js-line" d="M263.81,273.16L336,273.25" style="vector-effect: non-scaling-stroke; fill: none; stroke: rgb(171, 99, 250); stroke-opacity: 1; stroke-width: 2px; opacity: 1;"/></g><g class="points"/><g class="text"/></g><g class="trace scatter trace703470" style="stroke-miterlimit: 2;"><g class="fills"><g><path class="js-fill" d="M336,273.47L237.56,273.47L237.56,273.47L255.94,272.91L257.25,272.61L266.44,272.41L267.75,272.54L276.94,272.02L278.25,272.03L286.13,271.66L287.44,271.76L315,272.51L316.31,273.24L321.56,273.11L322.88,273.02L324.19,272.16L325.5,272.36L336,272.5" style="fill: rgb(255, 161, 90); fill-opacity: 0.5; stroke-width: 0;"/></g></g><g class="errorbars"/><g class="lines"><path class="js-line" d="M237.56,273.47L255.94,272.91L257.25,272.61L266.44,272.41L267.75,272.54L276.94,272.02L278.25,272.03L286.13,271.66L287.44,271.76L315,272.51L316.31,273.24L321.56,273.11L322.88,273.02L324.19,272.16L325.5,272.36L336,272.5" style="vector-effect: non-scaling-stroke; fill: none; stroke: rgb(255, 161, 90); stroke-opacity: 1; stroke-width: 2px; opacity: 1;"/></g><g class="points"/><g class="text"/></g><g class="trace scatter trace6ca748" style="stroke-miterlimit: 2;"><g class="fills"><g><path class="js-fill" d="M336,273.47L99.75,273.47L99.75,273.45L174.56,273.41L175.88,273.18L255.94,272.99L257.25,272.53L282.19,271.9L283.5,271.99L294,271.23L295.31,271.23L312.38,269.55L313.69,270.01L315,270.56L316.31,271.99L321.56,271.18L322.88,271.01L325.5,270.31L326.81,270.32L336,269.82" style="fill: rgb(25, 211, 243); fill-opacity: 0.5; stroke-width: 0;"/></g></g><g class="errorbars"/><g class="lines"><path class="js-line" d="M99.75,273.45L174.56,273.41L175.88,273.18L255.94,272.99L257.25,272.53L282.19,271.9L283.5,271.99L294,271.23L295.31,271.23L312.38,269.55L313.69,270.01L315,270.56L316.31,271.99L321.56,271.18L322.88,271.01L325.5,270.31L326.81,270.32L336,269.82" style="vector-effect: non-scaling-stroke; fill: none; stroke: rgb(25, 211, 243); stroke-opacity: 1; stroke-width: 2px; opacity: 1;"/></g><g class="points"/><g class="text"/></g><g class="trace scatter trace007595" style="stroke-miterlimit: 2;"><g class="fills"><g><path class="js-fill" d="M330.75,273.47L291.38,273.47L291.38,273.37L330.75,273.47" style="fill: rgb(255, 102, 146); fill-opacity: 0.5; stroke-width: 0;"/></g></g><g class="errorbars"/><g class="lines"><path class="js-line" d="M291.38,273.37L330.75,273.47" style="vector-effect: non-scaling-stroke; fill: none; stroke: rgb(255, 102, 146); stroke-opacity: 1; stroke-width: 2px; opacity: 1;"/></g><g class="points"/><g class="text"/></g><g class="trace scatter traceecfe6a" style="stroke-miterlimit: 2;"><g class="fills"><g><path class="js-fill" d="M336,273.47L99.75,273.47L99.75,273.75L120.75,273.27L122.06,272.98L153.56,272.4L154.88,273.1L162.75,273.85L164.06,273.27L173.25,273.42L174.56,273.49L191.63,272.68L192.94,272.43L196.88,272.68L198.19,271.27L200.81,272.02L202.13,272.31L204.75,273.19L206.06,273.56L216.56,273.3L217.88,273.27L238.88,272.93L240.19,272.85L253.31,271.88L254.63,271.32L261.19,269.11L262.5,269.11L271.69,267.4L273,265.89L274.31,265.77L275.63,264.86L279.56,264.63L280.88,264.24L288.75,263.62L290.06,262.97L292.69,262.38L294,262.85L301.88,260.91L303.19,260.15L307.13,259.67L308.44,259.74L312.38,259.99L313.69,260.32L315,264.76L316.31,273.67L317.63,273.5L318.94,272.08L320.25,269.12L321.56,268.69L322.88,267.99L324.19,266.43L326.81,263.02L328.13,262.84L336,263.8" style="fill: rgb(182, 232, 128); fill-opacity: 0.5; stroke-width: 0;"/></g></g><g class="errorbars"/><g class="lines"><path class="js-line" d="M99.75,273.75L120.75,273.27L122.06,272.98L153.56,272.4L154.88,273.1L162.75,273.85L164.06,273.27L173.25,273.42L174.56,273.49L191.63,272.68L192.94,272.43L196.88,272.68L198.19,271.27L200.81,272.02L202.13,272.31L204.75,273.19L206.06,273.56L216.56,273.3L217.88,273.27L238.88,272.93L240.19,272.85L253.31,271.88L254.63,271.32L261.19,269.11L262.5,269.11L271.69,267.4L273,265.89L274.31,265.77L275.63,264.86L279.56,264.63L280.88,264.24L288.75,263.62L290.06,262.97L292.69,262.38L294,262.85L301.88,260.91L303.19,260.15L307.13,259.67L308.44,259.74L312.38,259.99L313.69,260.32L315,264.76L316.31,273.67L317.63,273.5L318.94,272.08L320.25,269.12L321.56,268.69L322.88,267.99L324.19,266.43L326.81,263.02L328.13,262.84L336,263.8" style="vector-effect: non-scaling-stroke; fill: none; stroke: rgb(182, 232, 128); stroke-opacity: 1; stroke-width: 2px; opacity: 1;"/></g><g class="points"/><g class="text"/></g><g class="trace scatter trace2a1aeb" style="stroke-miterlimit: 2;"><g class="fills"><g><path class="js-fill" d="M211.31,273.47L137.81,273.47L137.81,273.47L152.25,272.86L153.56,272.7L165.38,272.63L166.69,273.05L211.31,273.29" style="fill: rgb(255, 151, 255); fill-opacity: 0.5; stroke-width: 0;"/></g></g><g class="errorbars"/><g class="lines"><path class="js-line" d="M137.81,273.47L152.25,272.86L153.56,272.7L165.38,272.63L166.69,273.05L211.31,273.29" style="vector-effect: non-scaling-stroke; fill: none; stroke: rgb(255, 151, 255); stroke-opacity: 1; stroke-width: 2px; opacity: 1;"/></g><g class="points"/><g class="text"/></g><g class="trace scatter trace839b4a" style="stroke-miterlimit: 2;"><g class="fills"><g><path class="js-fill" d="M211.31,273.47L137.81,273.47L137.81,273.99L140.44,271.69L141.75,271.51L143.06,272.42L144.38,272.27L147,272.83L148.31,272.09L150.94,270.96L152.25,270.64L154.88,269.25L156.19,270.53L158.81,273.41L160.13,273.32L168,273.94L169.31,273.86L182.44,273.71L183.75,273.47L186.38,273.24L187.69,272.68L200.81,272.36L202.13,273.14L211.31,272.85" style="fill: rgb(254, 203, 82); fill-opacity: 0.5; stroke-width: 0;"/></g></g><g class="errorbars"/><g class="lines"><path class="js-line" d="M137.81,273.99L140.44,271.69L141.75,271.51L143.06,272.42L144.38,272.27L147,272.83L148.31,272.09L150.94,270.96L152.25,270.64L154.88,269.25L156.19,270.53L158.81,273.41L160.13,273.32L168,273.94L169.31,273.86L182.44,273.71L183.75,273.47L186.38,273.24L187.69,272.68L200.81,272.36L202.13,273.14L211.31,272.85" style="vector-effect: non-scaling-stroke; fill: none; stroke: rgb(254, 203, 82); stroke-opacity: 1; stroke-width: 2px; opacity: 1;"/></g><g class="points"/><g class="text"/></g><g class="trace scatter trace37fd9b" style="stroke-miterlimit: 2;"><g class="fills"><g><path class="js-fill" d="M211.31,273.47L137.81,273.47L137.81,273.46L144.38,272.4L145.69,272.39L181.13,273L182.44,273L211.31,272.96" style="fill: rgb(99, 110, 250); fill-opacity: 0.5; stroke-width: 0;"/></g></g><g class="errorbars"/><g class="lines"><path class="js-line" d="M137.81,273.46L144.38,272.4L145.69,272.39L181.13,273L182.44,273L211.31,272.96" style="vector-effect: non-scaling-stroke; fill: none; stroke: rgb(99, 110, 250); stroke-opacity: 1; stroke-width: 2px; opacity: 1;"/></g><g class="points"/><g class="text"/></g><g class="trace scatter trace47dd89" style="stroke-miterlimit: 2;"><g class="fills"><g><path class="js-fill" d="M315,273.47L245.44,273.47L245.44,273.47L248.06,273.47L249.38,272.35L250.69,271.4L252,271.9L255.94,271.46L257.25,271.41L258.56,273.61L265.13,271.16L273,270.79L274.31,270.41L275.63,270.39L276.94,271.15L278.25,272.43L279.56,272.66L287.44,273.28L288.75,273.31L299.25,273.47L300.56,273.44L315,273.48" style="fill: rgb(239, 85, 59); fill-opacity: 0.5; stroke-width: 0;"/></g></g><g class="errorbars"/><g class="lines"><path class="js-line" d="M245.44,273.47L248.06,273.47L249.38,272.35L250.69,271.4L252,271.9L255.94,271.46L257.25,271.41L258.56,273.61L265.13,271.16L273,270.79L274.31,270.41L275.63,270.39L276.94,271.15L278.25,272.43L279.56,272.66L287.44,273.28L288.75,273.31L299.25,273.47L300.56,273.44L315,273.48" style="vector-effect: non-scaling-stroke; fill: none; stroke: rgb(239, 85, 59); stroke-opacity: 1; stroke-width: 2px; opacity: 1;"/></g><g class="points"/><g class="text"/></g><g class="trace scatter tracebe31cf" style="stroke-miterlimit: 2;"><g class="fills"><g><path class="js-fill" d="M315,273.47L245.44,273.47L245.44,273.42L248.06,272.47L249.38,270.68L253.31,266.73L254.63,266.26L258.56,264.76L259.88,264.24L263.81,264.28L265.13,263.96L273,263.75L274.31,262.97L275.63,262.27L276.94,262.72L279.56,267.04L280.88,267.89L284.81,269.52L286.13,270.04L294,270.66L295.31,271.02L296.63,270.09L297.94,270.13L300.56,267.86L301.88,267.62L305.81,267.85L307.13,271.63L311.06,270.92L312.38,271.33L315,271.52" style="fill: rgb(0, 204, 150); fill-opacity: 0.5; stroke-width: 0;"/></g></g><g class="errorbars"/><g class="lines"><path class="js-line" d="M245.44,273.42L248.06,272.47L249.38,270.68L253.31,266.73L254.63,266.26L258.56,264.76L259.88,264.24L263.81,264.28L265.13,263.96L273,263.75L274.31,262.97L275.63,262.27L276.94,262.72L279.56,267.04L280.88,267.89L284.81,269.52L286.13,270.04L294,270.66L295.31,271.02L296.63,270.09L297.94,270.13L300.56,267.86L301.88,267.62L305.81,267.85L307.13,271.63L311.06,270.92L312.38,271.33L315,271.52" style="vector-effect: non-scaling-stroke; fill: none; stroke: rgb(0, 204, 150); stroke-opacity: 1; stroke-width: 2px; opacity: 1;"/></g><g class="points"/><g class="text"/></g><g class="trace scatter tracecbda34" style="stroke-miterlimit: 2;"><g class="fills"><g><path class="js-fill" d="M315,273.47L245.44,273.47L245.44,273.43L249.38,273.39L250.69,272.54L276.94,272.12L278.25,272.7L280.88,273.57L282.19,273.61L315,273.44" style="fill: rgb(171, 99, 250); fill-opacity: 0.5; stroke-width: 0;"/></g></g><g class="errorbars"/><g class="lines"><path class="js-line" d="M245.44,273.43L249.38,273.39L250.69,272.54L276.94,272.12L278.25,272.7L280.88,273.57L282.19,273.61L315,273.44" style="vector-effect: non-scaling-stroke; fill: none; stroke: rgb(171, 99, 250); stroke-opacity: 1; stroke-width: 2px; opacity: 1;"/></g><g class="points"/><g class="text"/></g><g class="trace scatter traced3a3a8" style="stroke-miterlimit: 2;"><g class="fills"><g><path class="js-fill" d="M315,273.47L245.44,273.47L245.44,273.47L252,272.91L253.31,272.18L266.44,271.52L267.75,271.42L280.88,271.52L282.19,271.73L286.13,272.24L287.44,272.34L313.69,272.46L315,272.47" style="fill: rgb(255, 161, 90); fill-opacity: 0.5; stroke-width: 0;"/></g></g><g class="errorbars"/><g class="lines"><path class="js-line" d="M245.44,273.47L252,272.91L253.31,272.18L266.44,271.52L267.75,271.42L280.88,271.52L282.19,271.73L286.13,272.24L287.44,272.34L313.69,272.46L315,272.47" style="vector-effect: non-scaling-stroke; fill: none; stroke: rgb(255, 161, 90); stroke-opacity: 1; stroke-width: 2px; opacity: 1;"/></g><g class="points"/><g class="text"/></g><g class="trace scatter trace47dbb8" style="stroke-miterlimit: 2;"><g class="fills"><g><path class="js-fill" d="M206.06,273.47L0,273.47L0,273.41L1.31,272.6L2.63,269.94L3.94,267.55L5.25,261.63L6.56,260.17L7.88,255.89L13.13,248.4L14.44,247.33L18.38,243.31L19.69,236.42L22.31,225.83L23.63,220.89L26.25,221.22L27.56,223.58L28.88,221.26L30.19,226.85L31.5,223.2L32.81,224.44L34.13,225.61L35.44,224.55L36.75,227.89L38.06,228.04L40.69,236.61L42,240.04L45.94,246.32L47.25,248.23L48.56,247.05L49.88,248.05L51.19,250.58L52.5,250.35L56.44,249.09L57.75,250.04L59.06,251.42L60.38,251.47L65.63,252.47L66.94,252.24L72.19,253.94L73.5,254.86L74.81,253.99L76.13,254.97L80.06,254.94L81.38,255.37L84,258.61L85.31,259.12L87.94,257.33L89.25,258.32L107.63,258.59L108.94,258.18L111.56,257.44L112.88,254.65L114.19,255.97L115.5,255.48L116.81,252.54L118.13,252.15L119.44,252.35L120.75,253.72L122.06,248.83L123.38,247.96L126,247.39L127.31,246.48L128.63,245.66L129.94,245.78L133.88,248.64L135.19,248.33L136.5,248.38L137.81,247.2L139.13,246.42L140.44,246.99L143.06,243.83L144.38,244.26L149.63,244.41L150.94,243.07L153.56,243.42L154.88,243.9L157.5,253.47L158.81,253.29L164.06,256.16L165.38,255.4L169.31,253.8L170.63,253.58L173.25,254.8L174.56,254.41L177.19,253.27L178.5,252.84L181.13,252.7L182.44,253.21L185.06,251.83L186.38,251.67L190.31,250.23L191.63,250.46L192.94,249.57L194.25,249.64L196.88,249.06L198.19,249.59L199.5,248.32L200.81,248.55L202.13,248.12L203.44,248.56L206.06,251.21" style="fill: rgb(25, 211, 243); fill-opacity: 0.5; stroke-width: 0;"/></g></g><g class="errorbars"/><g class="lines"><path class="js-line" d="M0,273.41L1.31,272.6L2.63,269.94L3.94,267.55L5.25,261.63L6.56,260.17L7.88,255.89L13.13,248.4L14.44,247.33L18.38,243.31L19.69,236.42L22.31,225.83L23.63,220.89L26.25,221.22L27.56,223.58L28.88,221.26L30.19,226.85L31.5,223.2L32.81,224.44L34.13,225.61L35.44,224.55L36.75,227.89L38.06,228.04L40.69,236.61L42,240.04L45.94,246.32L47.25,248.23L48.56,247.05L49.88,248.05L51.19,250.58L52.5,250.35L56.44,249.09L57.75,250.04L59.06,251.42L60.38,251.47L65.63,252.47L66.94,252.24L72.19,253.94L73.5,254.86L74.81,253.99L76.13,254.97L80.06,254.94L81.38,255.37L84,258.61L85.31,259.12L87.94,257.33L89.25,258.32L107.63,258.59L108.94,258.18L111.56,257.44L112.88,254.65L114.19,255.97L115.5,255.48L116.81,252.54L118.13,252.15L119.44,252.35L120.75,253.72L122.06,248.83L123.38,247.96L126,247.39L127.31,246.48L128.63,245.66L129.94,245.78L133.88,248.64L135.19,248.33L136.5,248.38L137.81,247.2L139.13,246.42L140.44,246.99L143.06,243.83L144.38,244.26L149.63,244.41L150.94,243.07L153.56,243.42L154.88,243.9L157.5,253.47L158.81,253.29L164.06,256.16L165.38,255.4L169.31,253.8L170.63,253.58L173.25,254.8L174.56,254.41L177.19,253.27L178.5,252.84L181.13,252.7L182.44,253.21L185.06,251.83L186.38,251.67L190.31,250.23L191.63,250.46L192.94,249.57L194.25,249.64L196.88,249.06L198.19,249.59L199.5,248.32L200.81,248.55L202.13,248.12L203.44,248.56L206.06,251.21" style="vector-effect: non-scaling-stroke; fill: none; stroke: rgb(25, 211, 243); stroke-opacity: 1; stroke-width: 2px; opacity: 1;"/></g><g class="points"/><g class="text"/></g><g class="trace scatter traced4289e" style="stroke-miterlimit: 2;"><g class="fills"><g><path class="js-fill" d="M336,273.47L175.88,273.47L175.88,272.48L181.13,271.76L182.44,272.27L185.06,270.89L186.38,270.74L190.31,269.3L191.63,269.53L192.94,268.64L194.25,268.71L196.88,268.12L198.19,268.66L199.5,267.38L200.81,267.62L202.13,267.18L203.44,267.63L207.38,270.64L208.69,270.61L210,270.37L211.31,268.92L219.19,268.39L220.5,268.41L221.81,268.82L223.13,268.27L229.69,268.86L231,268.25L233.63,267.77L234.94,267.47L238.88,265.34L240.19,262.74L241.5,262.96L242.81,260.35L244.13,260.56L245.44,259.75L248.06,257.86L249.38,258.22L254.63,252.72L255.94,252.64L257.25,251.39L258.56,246.72L261.19,242.74L262.5,241.92L263.81,240.82L265.13,241.39L271.69,230.85L273,230.12L276.94,217.93L278.25,217.91L279.56,218.35L280.88,215.21L283.5,213.34L284.81,211.2L286.13,207.53L287.44,207.16L288.75,200.47L290.06,199.04L291.38,194.9L292.69,187.64L294,178.28L295.31,176.77L297.94,165.85L299.25,165.12L300.56,157.75L301.88,156.8L303.19,155.12L304.5,152.11L305.81,152.85L307.13,158.01L308.44,159.39L309.75,157.86L312.38,156.51L313.69,158.88L315,165.88L316.31,180.24L317.63,208.84L318.94,201.06L321.56,184.48L322.88,184.21L325.5,163.05L326.81,163.75L328.13,162.88L329.44,163.05L330.75,163.18L332.06,164.51L333.38,164.38L334.69,170.55L336,171.55L336,304" style="fill: rgb(255, 102, 146); fill-opacity: 0.5; stroke-width: 0;"/></g></g><g class="errorbars"/><g class="lines"><path class="js-line" d="M175.88,272.48L181.13,271.76L182.44,272.27L185.06,270.89L186.38,270.74L190.31,269.3L191.63,269.53L192.94,268.64L194.25,268.71L196.88,268.12L198.19,268.66L199.5,267.38L200.81,267.62L202.13,267.18L203.44,267.63L207.38,270.64L208.69,270.61L210,270.37L211.31,268.92L219.19,268.39L220.5,268.41L221.81,268.82L223.13,268.27L229.69,268.86L231,268.25L233.63,267.77L234.94,267.47L238.88,265.34L240.19,262.74L241.5,262.96L242.81,260.35L244.13,260.56L245.44,259.75L248.06,257.86L249.38,258.22L254.63,252.72L255.94,252.64L257.25,251.39L258.56,246.72L261.19,242.74L262.5,241.92L263.81,240.82L265.13,241.39L271.69,230.85L273,230.12L276.94,217.93L278.25,217.91L279.56,218.35L280.88,215.21L283.5,213.34L284.81,211.2L286.13,207.53L287.44,207.16L288.75,200.47L290.06,199.04L291.38,194.9L292.69,187.64L294,178.28L295.31,176.77L297.94,165.85L299.25,165.12L300.56,157.75L301.88,156.8L303.19,155.12L304.5,152.11L305.81,152.85L307.13,158.01L308.44,159.39L309.75,157.86L312.38,156.51L313.69,158.88L315,165.88L316.31,180.24L317.63,208.84L318.94,201.06L321.56,184.48L322.88,184.21L325.5,163.05L326.81,163.75L328.13,162.88L329.44,163.05L330.75,163.18L332.06,164.51L333.38,164.38L334.69,170.55L336,171.55L336,304" style="vector-effect: non-scaling-stroke; fill: none; stroke: rgb(255, 102, 146); stroke-opacity: 1; stroke-width: 2px; opacity: 1;"/></g><g class="points"/><g class="text"/></g><g class="trace scatter trace753592" style="stroke-miterlimit: 2;"><g class="fills"><g><path class="js-fill" d="M336,273.47L156.19,273.47L156.19,273.47L170.63,273.13L171.94,273.11L191.63,273.03L192.94,273.13L253.31,272.2L254.63,271.42L261.19,271.24L262.5,270.95L263.81,272.76L265.13,272.85L273,271.72L274.31,270.29L280.88,269.43L282.19,268.09L290.06,267.57L291.38,266.79L296.63,266.35L297.94,265.76L318.94,264.76L320.25,263.84L324.19,263.15L325.5,261.88L328.13,261.4L329.44,260.64L334.69,260.49L336,275.76" style="fill: rgb(182, 232, 128); fill-opacity: 0.5; stroke-width: 0;"/></g></g><g class="errorbars"/><g class="lines"><path class="js-line" d="M156.19,273.47L170.63,273.13L171.94,273.11L191.63,273.03L192.94,273.13L253.31,272.2L254.63,271.42L261.19,271.24L262.5,270.95L263.81,272.76L265.13,272.85L273,271.72L274.31,270.29L280.88,269.43L282.19,268.09L290.06,267.57L291.38,266.79L296.63,266.35L297.94,265.76L318.94,264.76L320.25,263.84L324.19,263.15L325.5,261.88L328.13,261.4L329.44,260.64L334.69,260.49L336,275.76" style="vector-effect: non-scaling-stroke; fill: none; stroke: rgb(182, 232, 128); stroke-opacity: 1; stroke-width: 2px; opacity: 1;"/></g><g class="points"/><g class="text"/></g><g class="trace scatter trace20e7cc" style="stroke-miterlimit: 2;"><g class="fills"><g><path class="js-fill" d="M336,273.47L291.38,273.47L291.38,273.47L317.63,273.25L318.94,273.75L328.13,273.87L329.44,273.89L336,274.02" style="fill: rgb(255, 151, 255); fill-opacity: 0.5; stroke-width: 0;"/></g></g><g class="errorbars"/><g class="lines"><path class="js-line" d="M291.38,273.47L317.63,273.25L318.94,273.75L328.13,273.87L329.44,273.89L336,274.02" style="vector-effect: non-scaling-stroke; fill: none; stroke: rgb(255, 151, 255); stroke-opacity: 1; stroke-width: 2px; opacity: 1;"/></g><g class="points"/><g class="text"/></g><g class="trace scatter trace7d200d" style="stroke-miterlimit: 2;"><g class="fills"><g><path class="js-fill" d="M336,273.47L234.94,273.47L234.94,272.89L274.31,272.75L275.63,272.75L290.06,272.58L291.38,271.97L334.69,271.64L336,273.73" style="fill: rgb(254, 203, 82); fill-opacity: 0.5; stroke-width: 0;"/></g></g><g class="errorbars"/><g class="lines"><path class="js-line" d="M234.94,272.89L274.31,272.75L275.63,272.75L290.06,272.58L291.38,271.97L334.69,271.64L336,273.73" style="vector-effect: non-scaling-stroke; fill: none; stroke: rgb(254, 203, 82); stroke-opacity: 1; stroke-width: 2px; opacity: 1;"/></g><g class="points"/><g class="text"/></g><g class="trace scatter trace4e0a91" style="stroke-miterlimit: 2;"><g class="fills"><g><path class="js-fill" d="M336,273.47L56.44,273.47L56.44,273.42L57.75,271.38L59.06,270.98L70.88,269.81L72.19,270.25L82.69,269.71L84,269.77L86.63,268.67L87.94,268.6L94.5,268.56L95.81,268.58L99.75,268.5L101.06,267.08L122.06,268.26L123.38,268.14L139.13,268.08L140.44,268.7L150.94,268.04L152.25,268.08L154.88,267.98L156.19,269.93L157.5,270.19L158.81,269.65L164.06,269.09L165.38,269.05L174.56,269.36L175.88,269.08L190.31,268.68L191.63,268.41L194.25,267.47L195.56,267.49L210,267.09L211.31,267.72L223.13,267.84L224.44,267.16L228.38,267.24L229.69,267.51L236.25,267.46L237.56,266.81L240.19,266.24L241.5,266.5L248.06,266.3L249.38,266.47L255.94,265.47L257.25,264.24L258.56,261.91L259.88,261.72L262.5,261.32L263.81,261.28L266.44,260.48L267.75,260.4L274.31,261.85L275.63,262.65L279.56,262.77L280.88,261.7L291.38,262.42L292.69,263.15L303.19,262.78L304.5,262.75L312.38,262.59L313.69,262.36L321.56,262.31L322.88,262.19L336,263.73" style="fill: rgb(99, 110, 250); fill-opacity: 0.5; stroke-width: 0;"/></g></g><g class="errorbars"/><g class="lines"><path class="js-line" d="M56.44,273.42L57.75,271.38L59.06,270.98L70.88,269.81L72.19,270.25L82.69,269.71L84,269.77L86.63,268.67L87.94,268.6L94.5,268.56L95.81,268.58L99.75,268.5L101.06,267.08L122.06,268.26L123.38,268.14L139.13,268.08L140.44,268.7L150.94,268.04L152.25,268.08L154.88,267.98L156.19,269.93L157.5,270.19L158.81,269.65L164.06,269.09L165.38,269.05L174.56,269.36L175.88,269.08L190.31,268.68L191.63,268.41L194.25,267.47L195.56,267.49L210,267.09L211.31,267.72L223.13,267.84L224.44,267.16L228.38,267.24L229.69,267.51L236.25,267.46L237.56,266.81L240.19,266.24L241.5,266.5L248.06,266.3L249.38,266.47L255.94,265.47L257.25,264.24L258.56,261.91L259.88,261.72L262.5,261.32L263.81,261.28L266.44,260.48L267.75,260.4L274.31,261.85L275.63,262.65L279.56,262.77L280.88,261.7L291.38,262.42L292.69,263.15L303.19,262.78L304.5,262.75L312.38,262.59L313.69,262.36L321.56,262.31L322.88,262.19L336,263.73" style="vector-effect: non-scaling-stroke; fill: none; stroke: rgb(99, 110, 250); stroke-opacity: 1; stroke-width: 2px; opacity: 1;"/></g><g class="points"/><g class="text"/></g><g class="trace scatter tracebdef2e" style="stroke-miterlimit: 2;"><g class="fills"><g><path class="js-fill" d="M336,273.47L56.44,273.47L56.44,263.5L63,263.1L64.31,261.88L73.5,260.9L74.81,259.74L81.38,258.59L82.69,258.65L85.31,259.24L86.63,258.87L97.13,260.52L98.44,260.57L102.38,261.03L103.69,262.05L122.06,262.91L123.38,262.09L145.69,261.76L147,261.43L148.31,261.21L149.63,259.25L154.88,259.08L156.19,259.44L160.13,260.75L161.44,260.91L171.94,261.71L173.25,261.94L191.63,261.67L192.94,261.67L196.88,261.44L198.19,261.5L202.13,261.08L203.44,260.12L204.75,261.35L206.06,261.42L224.44,261.43L225.75,262.24L234.94,261.49L236.25,261.13L242.81,260.38L244.13,259.71L258.56,258.69L259.88,257.58L261.19,257.54L262.5,256.27L266.44,255.64L267.75,255.13L269.06,252.46L270.38,252.25L273,252.43L274.31,252.08L275.63,251.65L276.94,254.16L287.44,253.55L288.75,253.62L292.69,254.23L294,254.26L301.88,254.28L303.19,253.51L305.81,253.63L307.13,252.17L313.69,252.54L315,252.86L316.31,253.56L317.63,262.69L318.94,262.69L320.25,261.13L321.56,259.09L322.88,258.93L324.19,257.62L325.5,257.84L326.81,258.75L328.13,258.7L330.75,258.5L332.06,256.81L333.38,254.69L334.69,254.67L336,255.73" style="fill: rgb(239, 85, 59); fill-opacity: 0.5; stroke-width: 0;"/></g></g><g class="errorbars"/><g class="lines"><path class="js-line" d="M56.44,263.5L63,263.1L64.31,261.88L73.5,260.9L74.81,259.74L81.38,258.59L82.69,258.65L85.31,259.24L86.63,258.87L97.13,260.52L98.44,260.57L102.38,261.03L103.69,262.05L122.06,262.91L123.38,262.09L145.69,261.76L147,261.43L148.31,261.21L149.63,259.25L154.88,259.08L156.19,259.44L160.13,260.75L161.44,260.91L171.94,261.71L173.25,261.94L191.63,261.67L192.94,261.67L196.88,261.44L198.19,261.5L202.13,261.08L203.44,260.12L204.75,261.35L206.06,261.42L224.44,261.43L225.75,262.24L234.94,261.49L236.25,261.13L242.81,260.38L244.13,259.71L258.56,258.69L259.88,257.58L261.19,257.54L262.5,256.27L266.44,255.64L267.75,255.13L269.06,252.46L270.38,252.25L273,252.43L274.31,252.08L275.63,251.65L276.94,254.16L287.44,253.55L288.75,253.62L292.69,254.23L294,254.26L301.88,254.28L303.19,253.51L305.81,253.63L307.13,252.17L313.69,252.54L315,252.86L316.31,253.56L317.63,262.69L318.94,262.69L320.25,261.13L321.56,259.09L322.88,258.93L324.19,257.62L325.5,257.84L326.81,258.75L328.13,258.7L330.75,258.5L332.06,256.81L333.38,254.69L334.69,254.67L336,255.73" style="vector-effect: non-scaling-stroke; fill: none; stroke: rgb(239, 85, 59); stroke-opacity: 1; stroke-width: 2px; opacity: 1;"/></g><g class="points"/><g class="text"/></g><g class="trace scatter traceab3755" style="stroke-miterlimit: 2;"><g class="fills"><g><path class="js-fill" d="M336,273.47L57.75,273.47L57.75,273.84L64.31,274.11L65.63,273.24L90.56,272.33L91.88,272.33L97.13,271.99L98.44,271.99L115.5,271.97L116.81,271.92L129.94,271.76L131.25,271.49L139.13,271.7L140.44,271.69L153.56,272.08L154.88,272.31L168,272.43L169.31,272.39L242.81,272.03L244.13,272.05L283.5,272.5L284.81,272.72L288.75,272.19L290.06,272.19L294,271.86L295.31,271.23L301.88,271.14L303.19,271.24L313.69,271.55L315,272.12L317.63,272.95L318.94,272.89L328.13,272.25L329.44,272.28L336,272.53" style="fill: rgb(0, 204, 150); fill-opacity: 0.5; stroke-width: 0;"/></g></g><g class="errorbars"/><g class="lines"><path class="js-line" d="M57.75,273.84L64.31,274.11L65.63,273.24L90.56,272.33L91.88,272.33L97.13,271.99L98.44,271.99L115.5,271.97L116.81,271.92L129.94,271.76L131.25,271.49L139.13,271.7L140.44,271.69L153.56,272.08L154.88,272.31L168,272.43L169.31,272.39L242.81,272.03L244.13,272.05L283.5,272.5L284.81,272.72L288.75,272.19L290.06,272.19L294,271.86L295.31,271.23L301.88,271.14L303.19,271.24L313.69,271.55L315,272.12L317.63,272.95L318.94,272.89L328.13,272.25L329.44,272.28L336,272.53" style="vector-effect: non-scaling-stroke; fill: none; stroke: rgb(0, 204, 150); stroke-opacity: 1; stroke-width: 2px; opacity: 1;"/></g><g class="points"/><g class="text"/></g><g class="trace scatter tracefde028" style="stroke-miterlimit: 2;"><g class="fills"><g><path class="js-fill" d="M315,273.47L156.19,273.47L156.19,273.47L255.94,272.79L257.25,272.65L275.63,271.94L276.94,272.73L287.44,273.2L288.75,273.22L315,273.64" style="fill: rgb(171, 99, 250); fill-opacity: 0.5; stroke-width: 0;"/></g></g><g class="errorbars"/><g class="lines"><path class="js-line" d="M156.19,273.47L255.94,272.79L257.25,272.65L275.63,271.94L276.94,272.73L287.44,273.2L288.75,273.22L315,273.64" style="vector-effect: non-scaling-stroke; fill: none; stroke: rgb(171, 99, 250); stroke-opacity: 1; stroke-width: 2px; opacity: 1;"/></g><g class="points"/><g class="text"/></g><g class="trace scatter trace116304" style="stroke-miterlimit: 2;"><g class="fills"><g><path class="js-fill" d="M336,273.47L57.75,273.47L57.75,273.43L336,273.47" style="fill: rgb(255, 161, 90); fill-opacity: 0.5; stroke-width: 0;"/></g></g><g class="errorbars"/><g class="lines"><path class="js-line" d="M57.75,273.43L336,273.47" style="vector-effect: non-scaling-stroke; fill: none; stroke: rgb(255, 161, 90); stroke-opacity: 1; stroke-width: 2px; opacity: 1;"/></g><g class="points"/><g class="text"/></g><g class="trace scatter tracef07d88" style="stroke-miterlimit: 2;"><g class="fills"><g><path class="js-fill" d="M336,273.47L275.63,273.47L275.63,273.24L278.25,271.5L279.56,271.09L288.75,269.7L290.06,269.32L291.38,268.05L292.69,267.84L295.31,267.17L296.63,266.2L313.69,264.76L315,264.9L318.94,264.95L320.25,264.16L328.13,263.78L329.44,264.4L336,264.33" style="fill: rgb(25, 211, 243); fill-opacity: 0.5; stroke-width: 0;"/></g></g><g class="errorbars"/><g class="lines"><path class="js-line" d="M275.63,273.24L278.25,271.5L279.56,271.09L288.75,269.7L290.06,269.32L291.38,268.05L292.69,267.84L295.31,267.17L296.63,266.2L313.69,264.76L315,264.9L318.94,264.95L320.25,264.16L328.13,263.78L329.44,264.4L336,264.33" style="vector-effect: non-scaling-stroke; fill: none; stroke: rgb(25, 211, 243); stroke-opacity: 1; stroke-width: 2px; opacity: 1;"/></g><g class="points"/><g class="text"/></g></g></g><g class="overplot"/><path class="xlines-above crisp" d="M0,0" style="fill: none;"/><path class="ylines-above crisp" d="M0,0" style="fill: none;"/><g class="overlines-above"/><g class="xaxislayer-above"><g class="xtick"><text text-anchor="middle" x="0" y="433" transform="translate(145.63,0)" style="font-family: 'Open Sans', verdana, arial, sans-serif; font-size: 12px; fill: rgb(42, 63, 95); fill-opacity: 1; white-space: pre; opacity: 1;">Sep 2022</text></g><g class="xtick"><text text-anchor="middle" x="0" y="433" style="font-family: 'Open Sans', verdana, arial, sans-serif; font-size: 12px; fill: rgb(42, 63, 95); fill-opacity: 1; white-space: pre; opacity: 1;" transform="translate(225.69,0)">Nov 2022</text></g><g class="xtick"><text text-anchor="middle" x="0" y="433" style="font-family: 'Open Sans', verdana, arial, sans-serif; font-size: 12px; fill: rgb(42, 63, 95); fill-opacity: 1; white-space: pre; opacity: 1;" transform="translate(305.75,0)">Jan 2023</text></g><g class="xtick"><text text-anchor="middle" x="0" y="433" style="font-family: 'Open Sans', verdana, arial, sans-serif; font-size: 12px; fill: rgb(42, 63, 95); fill-opacity: 1; white-space: pre; opacity: 1;" transform="translate(383.19,0)">Mar 2023</text></g></g><g class="yaxislayer-above"><g class="ytick"><text text-anchor="end" x="79" y="4.199999999999999" transform="translate(0,373.47)" style="font-family: 'Open Sans', verdana, arial, sans-serif; font-size: 12px; fill: rgb(42, 63, 95); fill-opacity: 1; white-space: pre; opacity: 1;">$0</text></g><g class="ytick"><text text-anchor="end" x="79" y="4.199999999999999" style="font-family: 'Open Sans', verdana, arial, sans-serif; font-size: 12px; fill: rgb(42, 63, 95); fill-opacity: 1; white-space: pre; opacity: 1;" transform="translate(0,326.59000000000003)">$100M</text></g><g class="ytick"><text text-anchor="end" x="79" y="4.199999999999999" style="font-family: 'Open Sans', verdana, arial, sans-serif; font-size: 12px; fill: rgb(42, 63, 95); fill-opacity: 1; white-space: pre; opacity: 1;" transform="translate(0,279.71000000000004)">$200M</text></g><g class="ytick"><text text-anchor="end" x="79" y="4.199999999999999" style="font-family: 'Open Sans', verdana, arial, sans-serif; font-size: 12px; fill: rgb(42, 63, 95); fill-opacity: 1; white-space: pre; opacity: 1;" transform="translate(0,232.84)">$300M</text></g><g class="ytick"><text text-anchor="end" x="79" y="4.199999999999999" style="font-family: 'Open Sans', verdana, arial, sans-serif; font-size: 12px; fill: rgb(42, 63, 95); fill-opacity: 1; white-space: pre; opacity: 1;" transform="translate(0,185.95999999999998)">$400M</text></g><g class="ytick"><text text-anchor="end" x="79" y="4.199999999999999" style="font-family: 'Open Sans', verdana, arial, sans-serif; font-size: 12px; fill: rgb(42, 63, 95); fill-opacity: 1; white-space: pre; opacity: 1;" transform="translate(0,139.07999999999998)">$500M</text></g></g><g class="overaxes-above"/></g></g><g class="polarlayer"/><g class="smithlayer"/><g class="ternarylayer"/><g class="geolayer"/><g class="funnelarealayer"/><g class="pielayer"/><g class="iciclelayer"/><g class="treemaplayer"/><g class="sunburstlayer"/><g class="glimages"/><defs id="topdefs-f8b750"><g class="clips"/><clipPath id="legendf8b750"><rect width="265" height="320" x="0" y="0"/></clipPath></defs><g class="layer-above"><g class="imagelayer"/><g class="shapelayer"/></g><g class="infolayer"><g class="legend" pointer-events="all" transform="translate(422.72,100)"><rect class="bg" shape-rendering="crispEdges" width="265" height="320" x="0" y="0" style="stroke: rgb(68, 68, 68); stroke-opacity: 1; fill: rgb(255, 255, 255); fill-opacity: 1; stroke-width: 0px;"/><g class="scrollbox" transform="" clip-path="url(#legendf8b750)"><text class="legendtitletext" text-anchor="start" x="2" y="18.2" style="font-family: 'Open Sans', verdana, arial, sans-serif; font-size: 14px; fill: rgb(42, 63, 95); fill-opacity: 1; white-space: pre;">App Name</text><g class="groups"><g class="traces" transform="translate(0,32.7)" style="opacity: 1;"><text class="legendtext" text-anchor="start" x="40" y="4.680000000000001" style="font-family: 'Open Sans', verdana, arial, sans-serif; font-size: 12px; fill: rgb(42, 63, 95); fill-opacity: 1; white-space: pre;">Aave V3 - Aave - Liquidity Mining</text><g class="layers"><g class="legendfill"><path class="js-fill" d="M5,-2h30v6h-30z" style="stroke-width: 0; fill: rgb(99, 110, 250); fill-opacity: 0.5;"/></g><g class="legendlines"><path class="js-line" d="M5,-2h30" style="fill: none; stroke: rgb(99, 110, 250); stroke-opacity: 1; stroke-width: 2px;"/></g><g class="legendsymbols"><g class="legendpoints"/></g></g><rect class="legendtoggle" x="0" y="-9.5" width="259.109375" height="19" style="fill: rgb(0, 0, 0); fill-opacity: 0;"/></g><g class="traces" transform="translate(0,51.7)" style="opacity: 1;"><text class="legendtext" text-anchor="start" x="40" y="4.680000000000001" style="font-family: 'Open Sans', verdana, arial, sans-serif; font-size: 12px; fill: rgb(42, 63, 95); fill-opacity: 1; white-space: pre;">Synthetix - All Synthetix Curve Pools</text><g class="layers"><g class="legendfill"><path class="js-fill" d="M5,-2h30v6h-30z" style="stroke-width: 0; fill: rgb(239, 85, 59); fill-opacity: 0.5;"/></g><g class="legendlines"><path class="js-line" d="M5,-2h30" style="fill: none; stroke: rgb(239, 85, 59); stroke-opacity: 1; stroke-width: 2px;"/></g><g class="legendsymbols"><g class="legendpoints"/></g></g><rect class="legendtoggle" x="0" y="-9.5" width="259.109375" height="19" style="fill: rgb(0, 0, 0); fill-opacity: 0;"/></g><g class="traces" transform="translate(0,70.7)" style="opacity: 1;"><text class="legendtext" text-anchor="start" x="40" y="4.680000000000001" style="font-family: 'Open Sans', verdana, arial, sans-serif; font-size: 12px; fill: rgb(42, 63, 95); fill-opacity: 1; white-space: pre;">Synthetix - All Synthetix Velo Pools</text><g class="layers"><g class="legendfill"><path class="js-fill" d="M5,-2h30v6h-30z" style="stroke-width: 0; fill: rgb(0, 204, 150); fill-opacity: 0.5;"/></g><g class="legendlines"><path class="js-line" d="M5,-2h30" style="fill: none; stroke: rgb(0, 204, 150); stroke-opacity: 1; stroke-width: 2px;"/></g><g class="legendsymbols"><g class="legendpoints"/></g></g><rect class="legendtoggle" x="0" y="-9.5" width="259.109375" height="19" style="fill: rgb(0, 0, 0); fill-opacity: 0;"/></g><g class="traces" transform="translate(0,89.7)" style="opacity: 1;"><text class="legendtext" text-anchor="start" x="40" y="4.680000000000001" style="font-family: 'Open Sans', verdana, arial, sans-serif; font-size: 12px; fill: rgb(42, 63, 95); fill-opacity: 1; white-space: pre;">Beefy - BIFI/OP: Velodrome</text><g class="layers"><g class="legendfill"><path class="js-fill" d="M5,-2h30v6h-30z" style="stroke-width: 0; fill: rgb(171, 99, 250); fill-opacity: 0.5;"/></g><g class="legendlines"><path class="js-line" d="M5,-2h30" style="fill: none; stroke: rgb(171, 99, 250); stroke-opacity: 1; stroke-width: 2px;"/></g><g class="legendsymbols"><g class="legendpoints"/></g></g><rect class="legendtoggle" x="0" y="-9.5" width="259.109375" height="19" style="fill: rgb(0, 0, 0); fill-opacity: 0;"/></g><g class="traces" transform="translate(0,108.7)" style="opacity: 1;"><text class="legendtext" text-anchor="start" x="40" y="4.680000000000001" style="font-family: 'Open Sans', verdana, arial, sans-serif; font-size: 12px; fill: rgb(42, 63, 95); fill-opacity: 1; white-space: pre;">Beefy - BIFI/WETH: Velodrome</text><g class="layers"><g class="legendfill"><path class="js-fill" d="M5,-2h30v6h-30z" style="stroke-width: 0; fill: rgb(255, 161, 90); fill-opacity: 0.5;"/></g><g class="legendlines"><path class="js-line" d="M5,-2h30" style="fill: none; stroke: rgb(255, 161, 90); stroke-opacity: 1; stroke-width: 2px;"/></g><g class="legendsymbols"><g class="legendpoints"/></g></g><rect class="legendtoggle" x="0" y="-9.5" width="259.109375" height="19" style="fill: rgb(0, 0, 0); fill-opacity: 0;"/></g><g class="traces" transform="translate(0,127.7)" style="opacity: 1;"><text class="legendtext" text-anchor="start" x="40" y="4.680000000000001" style="font-family: 'Open Sans', verdana, arial, sans-serif; font-size: 12px; fill: rgb(42, 63, 95); fill-opacity: 1; white-space: pre;">Cbridge - Celer*</text><g class="layers"><g class="legendfill"><path class="js-fill" d="M5,-2h30v6h-30z" style="stroke-width: 0; fill: rgb(25, 211, 243); fill-opacity: 0.5;"/></g><g class="legendlines"><path class="js-line" d="M5,-2h30" style="fill: none; stroke: rgb(25, 211, 243); stroke-opacity: 1; stroke-width: 2px;"/></g><g class="legendsymbols"><g class="legendpoints"/></g></g><rect class="legendtoggle" x="0" y="-9.5" width="259.109375" height="19" style="fill: rgb(0, 0, 0); fill-opacity: 0;"/></g><g class="traces" transform="translate(0,146.7)" style="opacity: 1;"><text class="legendtext" text-anchor="start" x="40" y="4.680000000000001" style="font-family: 'Open Sans', verdana, arial, sans-serif; font-size: 12px; fill: rgb(42, 63, 95); fill-opacity: 1; white-space: pre;">Dhedge - DHT/OP: Velodrome</text><g class="layers"><g class="legendfill"><path class="js-fill" d="M5,-2h30v6h-30z" style="stroke-width: 0; fill: rgb(255, 102, 146); fill-opacity: 0.5;"/></g><g class="legendlines"><path class="js-line" d="M5,-2h30" style="fill: none; stroke: rgb(255, 102, 146); stroke-opacity: 1; stroke-width: 2px;"/></g><g class="legendsymbols"><g class="legendpoints"/></g></g><rect class="legendtoggle" x="0" y="-9.5" width="259.109375" height="19" style="fill: rgb(0, 0, 0); fill-opacity: 0;"/></g><g class="traces" transform="translate(0,165.7)" style="opacity: 1;"><text class="legendtext" text-anchor="start" x="40" y="4.680000000000001" style="font-family: 'Open Sans', verdana, arial, sans-serif; font-size: 12px; fill: rgb(42, 63, 95); fill-opacity: 1; white-space: pre;">Synthetix - ETH/sETH: Velodrome</text><g class="layers"><g class="legendfill"><path class="js-fill" d="M5,-2h30v6h-30z" style="stroke-width: 0; fill: rgb(182, 232, 128); fill-opacity: 0.5;"/></g><g class="legendlines"><path class="js-line" d="M5,-2h30" style="fill: none; stroke: rgb(182, 232, 128); stroke-opacity: 1; stroke-width: 2px;"/></g><g class="legendsymbols"><g class="legendpoints"/></g></g><rect class="legendtoggle" x="0" y="-9.5" width="259.109375" height="19" style="fill: rgb(0, 0, 0); fill-opacity: 0;"/></g><g class="traces" transform="translate(0,184.7)" style="opacity: 1;"><text class="legendtext" text-anchor="start" x="40" y="4.680000000000001" style="font-family: 'Open Sans', verdana, arial, sans-serif; font-size: 12px; fill: rgb(42, 63, 95); fill-opacity: 1; white-space: pre;">Layer2Dao - L2DAO/OP: Velodrome</text><g class="layers"><g class="legendfill"><path class="js-fill" d="M5,-2h30v6h-30z" style="stroke-width: 0; fill: rgb(255, 151, 255); fill-opacity: 0.5;"/></g><g class="legendlines"><path class="js-line" d="M5,-2h30" style="fill: none; stroke: rgb(255, 151, 255); stroke-opacity: 1; stroke-width: 2px;"/></g><g class="legendsymbols"><g class="legendpoints"/></g></g><rect class="legendtoggle" x="0" y="-9.5" width="259.109375" height="19" style="fill: rgb(0, 0, 0); fill-opacity: 0;"/></g><g class="traces" transform="translate(0,203.7)" style="opacity: 1;"><text class="legendtext" text-anchor="start" x="40" y="4.680000000000001" style="font-family: 'Open Sans', verdana, arial, sans-serif; font-size: 12px; fill: rgb(42, 63, 95); fill-opacity: 1; white-space: pre;">Angle - OP/agEUR: Velodrome</text><g class="layers"><g class="legendfill"><path class="js-fill" d="M5,-2h30v6h-30z" style="stroke-width: 0; fill: rgb(254, 203, 82); fill-opacity: 0.5;"/></g><g class="legendlines"><path class="js-line" d="M5,-2h30" style="fill: none; stroke: rgb(254, 203, 82); stroke-opacity: 1; stroke-width: 2px;"/></g><g class="legendsymbols"><g class="legendpoints"/></g></g><rect class="legendtoggle" x="0" y="-9.5" width="259.109375" height="19" style="fill: rgb(0, 0, 0); fill-opacity: 0;"/></g><g class="traces" transform="translate(0,222.7)" style="opacity: 1;"><text class="legendtext" text-anchor="start" x="40" y="4.680000000000001" style="font-family: 'Open Sans', verdana, arial, sans-serif; font-size: 12px; fill: rgb(42, 63, 95); fill-opacity: 1; white-space: pre;">Pickle - Pickle Finance*</text><g class="layers"><g class="legendfill"><path class="js-fill" d="M5,-2h30v6h-30z" style="stroke-width: 0; fill: rgb(99, 110, 250); fill-opacity: 0.5;"/></g><g class="legendlines"><path class="js-line" d="M5,-2h30" style="fill: none; stroke: rgb(99, 110, 250); stroke-opacity: 1; stroke-width: 2px;"/></g><g class="legendsymbols"><g class="legendpoints"/></g></g><rect class="legendtoggle" x="0" y="-9.5" width="259.109375" height="19" style="fill: rgb(0, 0, 0); fill-opacity: 0;"/></g><g class="traces" transform="translate(0,241.7)" style="opacity: 1;"><text class="legendtext" text-anchor="start" x="40" y="4.680000000000001" style="font-family: 'Open Sans', verdana, arial, sans-serif; font-size: 12px; fill: rgb(42, 63, 95); fill-opacity: 1; white-space: pre;">Synthetix - SNX Bridge: Hop</text><g class="layers"><g class="legendfill"><path class="js-fill" d="M5,-2h30v6h-30z" style="stroke-width: 0; fill: rgb(239, 85, 59); fill-opacity: 0.5;"/></g><g class="legendlines"><path class="js-line" d="M5,-2h30" style="fill: none; stroke: rgb(239, 85, 59); stroke-opacity: 1; stroke-width: 2px;"/></g><g class="legendsymbols"><g class="legendpoints"/></g></g><rect class="legendtoggle" x="0" y="-9.5" width="259.109375" height="19" style="fill: rgb(0, 0, 0); fill-opacity: 0;"/></g><g class="traces" transform="translate(0,260.7)" style="opacity: 1;"><text class="legendtext" text-anchor="start" x="40" y="4.680000000000001" style="font-family: 'Open Sans', verdana, arial, sans-serif; font-size: 12px; fill: rgb(42, 63, 95); fill-opacity: 1; white-space: pre;">Overnight - USD+/DOLA: Velodrome</text><g class="layers"><g class="legendfill"><path class="js-fill" d="M5,-2h30v6h-30z" style="stroke-width: 0; fill: rgb(0, 204, 150); fill-opacity: 0.5;"/></g><g class="legendlines"><path class="js-line" d="M5,-2h30" style="fill: none; stroke: rgb(0, 204, 150); stroke-opacity: 1; stroke-width: 2px;"/></g><g class="legendsymbols"><g class="legendpoints"/></g></g><rect class="legendtoggle" x="0" y="-9.5" width="259.109375" height="19" style="fill: rgb(0, 0, 0); fill-opacity: 0;"/></g><g class="traces" transform="translate(0,279.7)" style="opacity: 1;"><text class="legendtext" text-anchor="start" x="40" y="4.680000000000001" style="font-family: 'Open Sans', verdana, arial, sans-serif; font-size: 12px; fill: rgb(42, 63, 95); fill-opacity: 1; white-space: pre;">Overnight - USD+/LUSD: Velodrome</text><g class="layers"><g class="legendfill"><path class="js-fill" d="M5,-2h30v6h-30z" style="stroke-width: 0; fill: rgb(171, 99, 250); fill-opacity: 0.5;"/></g><g class="legendlines"><path class="js-line" d="M5,-2h30" style="fill: none; stroke: rgb(171, 99, 250); stroke-opacity: 1; stroke-width: 2px;"/></g><g class="legendsymbols"><g class="legendpoints"/></g></g><rect class="legendtoggle" x="0" y="-9.5" width="259.109375" height="19" style="fill: rgb(0, 0, 0); fill-opacity: 0;"/></g><g class="traces" transform="translate(0,298.7)" style="opacity: 1;"><text class="legendtext" text-anchor="start" x="40" y="4.680000000000001" style="font-family: 'Open Sans', verdana, arial, sans-serif; font-size: 12px; fill: rgb(42, 63, 95); fill-opacity: 1; white-space: pre;">Overnight - USD+/USDC: Velodrome</text><g class="layers"><g class="legendfill"><path class="js-fill" d="M5,-2h30v6h-30z" style="stroke-width: 0; fill: rgb(255, 161, 90); fill-opacity: 0.5;"/></g><g class="legendlines"><path class="js-line" d="M5,-2h30" style="fill: none; stroke: rgb(255, 161, 90); stroke-opacity: 1; stroke-width: 2px;"/></g><g class="legendsymbols"><g class="legendpoints"/></g></g><rect class="legendtoggle" x="0" y="-9.5" width="259.109375" height="19" style="fill: rgb(0, 0, 0); fill-opacity: 0;"/></g><g class="traces" transform="translate(0,317.7)" style="opacity: 1;"><text class="legendtext" text-anchor="start" x="40" y="4.680000000000001" style="font-family: 'Open Sans', verdana, arial, sans-serif; font-size: 12px; fill: rgb(42, 63, 95); fill-opacity: 1; white-space: pre;">Synthetix - USDC/SNX: Velodrome</text><g class="layers"><g class="legendfill"><path class="js-fill" d="M5,-2h30v6h-30z" style="stroke-width: 0; fill: rgb(25, 211, 243); fill-opacity: 0.5;"/></g><g class="legendlines"><path class="js-line" d="M5,-2h30" style="fill: none; stroke: rgb(25, 211, 243); stroke-opacity: 1; stroke-width: 2px;"/></g><g class="legendsymbols"><g class="legendpoints"/></g></g><rect class="legendtoggle" x="0" y="-9.5" width="259.109375" height="19" style="fill: rgb(0, 0, 0); fill-opacity: 0;"/></g><g class="traces" transform="translate(0,336.7)" style="opacity: 1;"><text class="legendtext" text-anchor="start" x="40" y="4.680000000000001" style="font-family: 'Open Sans', verdana, arial, sans-serif; font-size: 12px; fill: rgb(42, 63, 95); fill-opacity: 1; white-space: pre;">Angle - USDC/agEUR: Uniswap</text><g class="layers"><g class="legendfill"><path class="js-fill" d="M5,-2h30v6h-30z" style="stroke-width: 0; fill: rgb(255, 102, 146); fill-opacity: 0.5;"/></g><g class="legendlines"><path class="js-line" d="M5,-2h30" style="fill: none; stroke: rgb(255, 102, 146); stroke-opacity: 1; stroke-width: 2px;"/></g><g class="legendsymbols"><g class="legendpoints"/></g></g><rect class="legendtoggle" x="0" y="-9.5" width="259.109375" height="19" style="fill: rgb(0, 0, 0); fill-opacity: 0;"/></g><g class="traces" transform="translate(0,355.7)" style="opacity: 1;"><text class="legendtext" text-anchor="start" x="40" y="4.680000000000001" style="font-family: 'Open Sans', verdana, arial, sans-serif; font-size: 12px; fill: rgb(42, 63, 95); fill-opacity: 1; white-space: pre;">Synthetix - USDC/sUSD: Velodrome</text><g class="layers"><g class="legendfill"><path class="js-fill" d="M5,-2h30v6h-30z" style="stroke-width: 0; fill: rgb(182, 232, 128); fill-opacity: 0.5;"/></g><g class="legendlines"><path class="js-line" d="M5,-2h30" style="fill: none; stroke: rgb(182, 232, 128); stroke-opacity: 1; stroke-width: 2px;"/></g><g class="legendsymbols"><g class="legendpoints"/></g></g><rect class="legendtoggle" x="0" y="-9.5" width="259.109375" height="19" style="fill: rgb(0, 0, 0); fill-opacity: 0;"/></g><g class="traces" transform="translate(0,374.7)" style="opacity: 1;"><text class="legendtext" text-anchor="start" x="40" y="4.680000000000001" style="font-family: 'Open Sans', verdana, arial, sans-serif; font-size: 12px; fill: rgb(42, 63, 95); fill-opacity: 1; white-space: pre;">Gamma - Uniswap LM - Phase 1</text><g class="layers"><g class="legendfill"><path class="js-fill" d="M5,-2h30v6h-30z" style="stroke-width: 0; fill: rgb(255, 151, 255); fill-opacity: 0.5;"/></g><g class="legendlines"><path class="js-line" d="M5,-2h30" style="fill: none; stroke: rgb(255, 151, 255); stroke-opacity: 1; stroke-width: 2px;"/></g><g class="legendsymbols"><g class="legendpoints"/></g></g><rect class="legendtoggle" x="0" y="-9.5" width="259.109375" height="19" style="fill: rgb(0, 0, 0); fill-opacity: 0;"/></g><g class="traces" transform="translate(0,393.7)" style="opacity: 1;"><text class="legendtext" text-anchor="start" x="40" y="4.680000000000001" style="font-family: 'Open Sans', verdana, arial, sans-serif; font-size: 12px; fill: rgb(42, 63, 95); fill-opacity: 1; white-space: pre;">Uniswap V3 - Uniswap LM - Phase 1</text><g class="layers"><g class="legendfill"><path class="js-fill" d="M5,-2h30v6h-30z" style="stroke-width: 0; fill: rgb(254, 203, 82); fill-opacity: 0.5;"/></g><g class="legendlines"><path class="js-line" d="M5,-2h30" style="fill: none; stroke: rgb(254, 203, 82); stroke-opacity: 1; stroke-width: 2px;"/></g><g class="legendsymbols"><g class="legendpoints"/></g></g><rect class="legendtoggle" x="0" y="-9.5" width="259.109375" height="19" style="fill: rgb(0, 0, 0); fill-opacity: 0;"/></g><g class="traces" transform="translate(0,412.7)" style="opacity: 1;"><text class="legendtext" text-anchor="start" x="40" y="4.680000000000001" style="font-family: 'Open Sans', verdana, arial, sans-serif; font-size: 12px; fill: rgb(42, 63, 95); fill-opacity: 1; white-space: pre;">Xtoken - Uniswap LM - Phase 1</text><g class="layers"><g class="legendfill"><path class="js-fill" d="M5,-2h30v6h-30z" style="stroke-width: 0; fill: rgb(99, 110, 250); fill-opacity: 0.5;"/></g><g class="legendlines"><path class="js-line" d="M5,-2h30" style="fill: none; stroke: rgb(99, 110, 250); stroke-opacity: 1; stroke-width: 2px;"/></g><g class="legendsymbols"><g class="legendpoints"/></g></g><rect class="legendtoggle" x="0" y="-9.5" width="259.109375" height="19" style="fill: rgb(0, 0, 0); fill-opacity: 0;"/></g><g class="traces" transform="translate(0,431.7)" style="opacity: 1;"><text class="legendtext" text-anchor="start" x="40" y="4.680000000000001" style="font-family: 'Open Sans', verdana, arial, sans-serif; font-size: 12px; fill: rgb(42, 63, 95); fill-opacity: 1; white-space: pre;">Gamma - Uniswap LM - Phase 2</text><g class="layers"><g class="legendfill"><path class="js-fill" d="M5,-2h30v6h-30z" style="stroke-width: 0; fill: rgb(239, 85, 59); fill-opacity: 0.5;"/></g><g class="legendlines"><path class="js-line" d="M5,-2h30" style="fill: none; stroke: rgb(239, 85, 59); stroke-opacity: 1; stroke-width: 2px;"/></g><g class="legendsymbols"><g class="legendpoints"/></g></g><rect class="legendtoggle" x="0" y="-9.5" width="259.109375" height="19" style="fill: rgb(0, 0, 0); fill-opacity: 0;"/></g><g class="traces" transform="translate(0,450.7)" style="opacity: 1;"><text class="legendtext" text-anchor="start" x="40" y="4.680000000000001" style="font-family: 'Open Sans', verdana, arial, sans-serif; font-size: 12px; fill: rgb(42, 63, 95); fill-opacity: 1; white-space: pre;">Uniswap V3 - Uniswap LM - Phase 2</text><g class="layers"><g class="legendfill"><path class="js-fill" d="M5,-2h30v6h-30z" style="stroke-width: 0; fill: rgb(0, 204, 150); fill-opacity: 0.5;"/></g><g class="legendlines"><path class="js-line" d="M5,-2h30" style="fill: none; stroke: rgb(0, 204, 150); stroke-opacity: 1; stroke-width: 2px;"/></g><g class="legendsymbols"><g class="legendpoints"/></g></g><rect class="legendtoggle" x="0" y="-9.5" width="259.109375" height="19" style="fill: rgb(0, 0, 0); fill-opacity: 0;"/></g><g class="traces" transform="translate(0,469.7)" style="opacity: 1;"><text class="legendtext" text-anchor="start" x="40" y="4.680000000000001" style="font-family: 'Open Sans', verdana, arial, sans-serif; font-size: 12px; fill: rgb(42, 63, 95); fill-opacity: 1; white-space: pre;">Xtoken - Uniswap LM - Phase 2</text><g class="layers"><g class="legendfill"><path class="js-fill" d="M5,-2h30v6h-30z" style="stroke-width: 0; fill: rgb(171, 99, 250); fill-opacity: 0.5;"/></g><g class="legendlines"><path class="js-line" d="M5,-2h30" style="fill: none; stroke: rgb(171, 99, 250); stroke-opacity: 1; stroke-width: 2px;"/></g><g class="legendsymbols"><g class="legendpoints"/></g></g><rect class="legendtoggle" x="0" y="-9.5" width="259.109375" height="19" style="fill: rgb(0, 0, 0); fill-opacity: 0;"/></g><g class="traces" transform="translate(0,488.7)" style="opacity: 1;"><text class="legendtext" text-anchor="start" x="40" y="4.680000000000001" style="font-family: 'Open Sans', verdana, arial, sans-serif; font-size: 12px; fill: rgb(42, 63, 95); fill-opacity: 1; white-space: pre;">Defiedge - Uniswap LM - Phase 2*</text><g class="layers"><g class="legendfill"><path class="js-fill" d="M5,-2h30v6h-30z" style="stroke-width: 0; fill: rgb(255, 161, 90); fill-opacity: 0.5;"/></g><g class="legendlines"><path class="js-line" d="M5,-2h30" style="fill: none; stroke: rgb(255, 161, 90); stroke-opacity: 1; stroke-width: 2px;"/></g><g class="legendsymbols"><g class="legendpoints"/></g></g><rect class="legendtoggle" x="0" y="-9.5" width="259.109375" height="19" style="fill: rgb(0, 0, 0); fill-opacity: 0;"/></g><g class="traces" transform="translate(0,507.7)" style="opacity: 1;"><text class="legendtext" text-anchor="start" x="40" y="4.680000000000001" style="font-family: 'Open Sans', verdana, arial, sans-serif; font-size: 12px; fill: rgb(42, 63, 95); fill-opacity: 1; white-space: pre;">Velodrome - Velodrome #1 *</text><g class="layers"><g class="legendfill"><path class="js-fill" d="M5,-2h30v6h-30z" style="stroke-width: 0; fill: rgb(25, 211, 243); fill-opacity: 0.5;"/></g><g class="legendlines"><path class="js-line" d="M5,-2h30" style="fill: none; stroke: rgb(25, 211, 243); stroke-opacity: 1; stroke-width: 2px;"/></g><g class="legendsymbols"><g class="legendpoints"/></g></g><rect class="legendtoggle" x="0" y="-9.5" width="259.109375" height="19" style="fill: rgb(0, 0, 0); fill-opacity: 0;"/></g><g class="traces" transform="translate(0,526.7)" style="opacity: 1;"><text class="legendtext" text-anchor="start" x="40" y="4.680000000000001" style="font-family: 'Open Sans', verdana, arial, sans-serif; font-size: 12px; fill: rgb(42, 63, 95); fill-opacity: 1; white-space: pre;">Velodrome - Velodrome #2 (Tour de OP)*</text><g class="layers"><g class="legendfill"><path class="js-fill" d="M5,-2h30v6h-30z" style="stroke-width: 0; fill: rgb(255, 102, 146); fill-opacity: 0.5;"/></g><g class="legendlines"><path class="js-line" d="M5,-2h30" style="fill: none; stroke: rgb(255, 102, 146); stroke-opacity: 1; stroke-width: 2px;"/></g><g class="legendsymbols"><g class="legendpoints"/></g></g><rect class="legendtoggle" x="0" y="-9.5" width="259.109375" height="19" style="fill: rgb(0, 0, 0); fill-opacity: 0;"/></g><g class="traces" transform="translate(0,545.7)" style="opacity: 1;"><text class="legendtext" text-anchor="start" x="40" y="4.680000000000001" style="font-family: 'Open Sans', verdana, arial, sans-serif; font-size: 12px; fill: rgb(42, 63, 95); fill-opacity: 1; white-space: pre;">Rocket Pool - WETH/rETH: Beethoven X</text><g class="layers"><g class="legendfill"><path class="js-fill" d="M5,-2h30v6h-30z" style="stroke-width: 0; fill: rgb(182, 232, 128); fill-opacity: 0.5;"/></g><g class="legendlines"><path class="js-line" d="M5,-2h30" style="fill: none; stroke: rgb(182, 232, 128); stroke-opacity: 1; stroke-width: 2px;"/></g><g class="legendsymbols"><g class="legendpoints"/></g></g><rect class="legendtoggle" x="0" y="-9.5" width="259.109375" height="19" style="fill: rgb(0, 0, 0); fill-opacity: 0;"/></g><g class="traces" transform="translate(0,564.7)" style="opacity: 1;"><text class="legendtext" text-anchor="start" x="40" y="4.680000000000001" style="font-family: 'Open Sans', verdana, arial, sans-serif; font-size: 12px; fill: rgb(42, 63, 95); fill-opacity: 1; white-space: pre;">Angle - agEUR/MAI: Velodrome</text><g class="layers"><g class="legendfill"><path class="js-fill" d="M5,-2h30v6h-30z" style="stroke-width: 0; fill: rgb(255, 151, 255); fill-opacity: 0.5;"/></g><g class="legendlines"><path class="js-line" d="M5,-2h30" style="fill: none; stroke: rgb(255, 151, 255); stroke-opacity: 1; stroke-width: 2px;"/></g><g class="legendsymbols"><g class="legendpoints"/></g></g><rect class="legendtoggle" x="0" y="-9.5" width="259.109375" height="19" style="fill: rgb(0, 0, 0); fill-opacity: 0;"/></g><g class="traces" transform="translate(0,583.7)" style="opacity: 1;"><text class="legendtext" text-anchor="start" x="40" y="4.680000000000001" style="font-family: 'Open Sans', verdana, arial, sans-serif; font-size: 12px; fill: rgb(42, 63, 95); fill-opacity: 1; white-space: pre;">Alchemix - alETH/WETH: Velodrome</text><g class="layers"><g class="legendfill"><path class="js-fill" d="M5,-2h30v6h-30z" style="stroke-width: 0; fill: rgb(254, 203, 82); fill-opacity: 0.5;"/></g><g class="legendlines"><path class="js-line" d="M5,-2h30" style="fill: none; stroke: rgb(254, 203, 82); stroke-opacity: 1; stroke-width: 2px;"/></g><g class="legendsymbols"><g class="legendpoints"/></g></g><rect class="legendtoggle" x="0" y="-9.5" width="259.109375" height="19" style="fill: rgb(0, 0, 0); fill-opacity: 0;"/></g><g class="traces" transform="translate(0,602.7)" style="opacity: 1;"><text class="legendtext" text-anchor="start" x="40" y="4.680000000000001" style="font-family: 'Open Sans', verdana, arial, sans-serif; font-size: 12px; fill: rgb(42, 63, 95); fill-opacity: 1; white-space: pre;">Synthetix - sETH-ETH: Curve</text><g class="layers"><g class="legendfill"><path class="js-fill" d="M5,-2h30v6h-30z" style="stroke-width: 0; fill: rgb(99, 110, 250); fill-opacity: 0.5;"/></g><g class="legendlines"><path class="js-line" d="M5,-2h30" style="fill: none; stroke: rgb(99, 110, 250); stroke-opacity: 1; stroke-width: 2px;"/></g><g class="legendsymbols"><g class="legendpoints"/></g></g><rect class="legendtoggle" x="0" y="-9.5" width="259.109375" height="19" style="fill: rgb(0, 0, 0); fill-opacity: 0;"/></g><g class="traces" transform="translate(0,621.7)" style="opacity: 1;"><text class="legendtext" text-anchor="start" x="40" y="4.680000000000001" style="font-family: 'Open Sans', verdana, arial, sans-serif; font-size: 12px; fill: rgb(42, 63, 95); fill-opacity: 1; white-space: pre;">Synthetix - sUSD-3Crv: Curve</text><g class="layers"><g class="legendfill"><path class="js-fill" d="M5,-2h30v6h-30z" style="stroke-width: 0; fill: rgb(239, 85, 59); fill-opacity: 0.5;"/></g><g class="legendlines"><path class="js-line" d="M5,-2h30" style="fill: none; stroke: rgb(239, 85, 59); stroke-opacity: 1; stroke-width: 2px;"/></g><g class="legendsymbols"><g class="legendpoints"/></g></g><rect class="legendtoggle" x="0" y="-9.5" width="259.109375" height="19" style="fill: rgb(0, 0, 0); fill-opacity: 0;"/></g><g class="traces" transform="translate(0,640.7)" style="opacity: 1;"><text class="legendtext" text-anchor="start" x="40" y="4.680000000000001" style="font-family: 'Open Sans', verdana, arial, sans-serif; font-size: 12px; fill: rgb(42, 63, 95); fill-opacity: 1; white-space: pre;">Qidao - sUSDC/MAI: Velodrome</text><g class="layers"><g class="legendfill"><path class="js-fill" d="M5,-2h30v6h-30z" style="stroke-width: 0; fill: rgb(0, 204, 150); fill-opacity: 0.5;"/></g><g class="legendlines"><path class="js-line" d="M5,-2h30" style="fill: none; stroke: rgb(0, 204, 150); stroke-opacity: 1; stroke-width: 2px;"/></g><g class="legendsymbols"><g class="legendpoints"/></g></g><rect class="legendtoggle" x="0" y="-9.5" width="259.109375" height="19" style="fill: rgb(0, 0, 0); fill-opacity: 0;"/></g><g class="traces" transform="translate(0,659.7)" style="opacity: 1;"><text class="legendtext" text-anchor="start" x="40" y="4.680000000000001" style="font-family: 'Open Sans', verdana, arial, sans-serif; font-size: 12px; fill: rgb(42, 63, 95); fill-opacity: 1; white-space: pre;">Rocket Pool - sWETH/rETH: Velodrome</text><g class="layers"><g class="legendfill"><path class="js-fill" d="M5,-2h30v6h-30z" style="stroke-width: 0; fill: rgb(171, 99, 250); fill-opacity: 0.5;"/></g><g class="legendlines"><path class="js-line" d="M5,-2h30" style="fill: none; stroke: rgb(171, 99, 250); stroke-opacity: 1; stroke-width: 2px;"/></g><g class="legendsymbols"><g class="legendpoints"/></g></g><rect class="legendtoggle" x="0" y="-9.5" width="259.109375" height="19" style="fill: rgb(0, 0, 0); fill-opacity: 0;"/></g><g class="traces" transform="translate(0,678.7)" style="opacity: 1;"><text class="legendtext" text-anchor="start" x="40" y="4.680000000000001" style="font-family: 'Open Sans', verdana, arial, sans-serif; font-size: 12px; fill: rgb(42, 63, 95); fill-opacity: 1; white-space: pre;">Qidao - vUSDC/MAI: Velodrome</text><g class="layers"><g class="legendfill"><path class="js-fill" d="M5,-2h30v6h-30z" style="stroke-width: 0; fill: rgb(255, 161, 90); fill-opacity: 0.5;"/></g><g class="legendlines"><path class="js-line" d="M5,-2h30" style="fill: none; stroke: rgb(255, 161, 90); stroke-opacity: 1; stroke-width: 2px;"/></g><g class="legendsymbols"><g class="legendpoints"/></g></g><rect class="legendtoggle" x="0" y="-9.5" width="259.109375" height="19" style="fill: rgb(0, 0, 0); fill-opacity: 0;"/></g><g class="traces" transform="translate(0,697.7)" style="opacity: 1;"><text class="legendtext" text-anchor="start" x="40" y="4.680000000000001" style="font-family: 'Open Sans', verdana, arial, sans-serif; font-size: 12px; fill: rgb(42, 63, 95); fill-opacity: 1; white-space: pre;">Rocket Pool - vWETH/rETH: Velodrome</text><g class="layers"><g class="legendfill"><path class="js-fill" d="M5,-2h30v6h-30z" style="stroke-width: 0; fill: rgb(25, 211, 243); fill-opacity: 0.5;"/></g><g class="legendlines"><path class="js-line" d="M5,-2h30" style="fill: none; stroke: rgb(25, 211, 243); stroke-opacity: 1; stroke-width: 2px;"/></g><g class="legendsymbols"><g class="legendpoints"/></g></g><rect class="legendtoggle" x="0" y="-9.5" width="259.109375" height="19" style="fill: rgb(0, 0, 0); fill-opacity: 0;"/></g></g></g><rect class="scrollbar" rx="20" ry="3" width="0" height="0" x="0" y="0" style="fill: rgb(128, 139, 164); fill-opacity: 1;"/></g><g class="g-gtitle"><text class="gtitle" x="35" y="50" text-anchor="start" dy="0em" style="font-family: 'Open Sans', verdana, arial, sans-serif; font-size: 17px; fill: rgb(42, 63, 95); opacity: 1; font-weight: normal; white-space: pre;"><tspan class="line" dy="0em" x="35" y="50">Cumulative Net Flows since Program Announcement (At Most Recent Token Price)</tspan><tspan class="line" dy="1.3em" x="35" y="50"><tspan style="font-size:70%" dy="-0.6em">For Ended Programs, we show continue to show flows through 30 days after program end. | * Shows raw TVL change, rather than flows</tspan><tspan dy="0.42em"></tspan></tspan></text></g><g class="g-xtitle"><text class="xtitle" x="248" y="460.8" text-anchor="middle" style="font-family: 'Open Sans', verdana, arial, sans-serif; font-size: 14px; fill: rgb(42, 63, 95); opacity: 1; font-weight: normal; white-space: pre;">Day</text></g><g class="g-ytitle"><text class="ytitle" transform="rotate(-90,17.496875000000003,260)" x="17.496875000000003" y="260" text-anchor="middle" style="font-family: 'Open Sans', verdana, arial, sans-serif; font-size: 14px; fill: rgb(42, 63, 95); opacity: 1; font-weight: normal; white-space: pre;">Cumulative Net Flows (USD) - At Most Recent Price</text></g></g></svg>