<svg class="main-svg" xmlns="http://www.w3.org/2000/svg" xmlns:xlink="http://www.w3.org/1999/xlink" width="700" height="500" style="" viewBox="0 0 700 500"><rect x="0" y="0" width="700" height="500" style="fill: rgb(255, 255, 255); fill-opacity: 1;"/><defs id="defs-3b593b"><g class="clips"><clipPath id="clip3b593bxyplot" class="plotclip"><rect width="449" height="320"/></clipPath><clipPath class="axesclip" id="clip3b593bx"><rect x="80" y="0" width="449" height="500"/></clipPath><clipPath class="axesclip" id="clip3b593by"><rect x="0" y="100" width="700" height="320"/></clipPath><clipPath class="axesclip" id="clip3b593bxy"><rect x="80" y="100" width="449" height="320"/></clipPath></g><g class="gradients"/><g class="patterns"/></defs><g class="bglayer"><rect class="bg" x="80" y="100" width="449" height="320" style="fill: rgb(229, 236, 246); fill-opacity: 1; stroke-width: 0;"/></g><g class="layer-below"><g class="imagelayer"/><g class="shapelayer"/></g><g class="cartesianlayer"><g class="subplot xy"><g class="layer-subplot"><g class="shapelayer"/><g class="imagelayer"/></g><g class="minor-gridlayer"><g class="x"/><g class="y"/></g><g class="gridlayer"><g class="x"><path class="xgrid crisp" transform="translate(99.73,0)" d="M0,100v320" style="stroke: rgb(255, 255, 255); stroke-opacity: 1; stroke-width: 1px;"/><path class="xgrid crisp" transform="translate(168.76999999999998,0)" d="M0,100v320" style="stroke: rgb(255, 255, 255); stroke-opacity: 1; stroke-width: 1px;"/><path class="xgrid crisp" transform="translate(237.82,0)" d="M0,100v320" style="stroke: rgb(255, 255, 255); stroke-opacity: 1; stroke-width: 1px;"/><path class="xgrid crisp" transform="translate(306.86,0)" d="M0,100v320" style="stroke: rgb(255, 255, 255); stroke-opacity: 1; stroke-width: 1px;"/><path class="xgrid crisp" transform="translate(375.91,0)" d="M0,100v320" style="stroke: rgb(255, 255, 255); stroke-opacity: 1; stroke-width: 1px;"/><path class="xgrid crisp" transform="translate(444.95,0)" d="M0,100v320" style="stroke: rgb(255, 255, 255); stroke-opacity: 1; stroke-width: 1px;"/><path class="xgrid crisp" transform="translate(514,0)" d="M0,100v320" style="stroke: rgb(255, 255, 255); stroke-opacity: 1; stroke-width: 1px;"/></g><g class="y"><path class="ygrid crisp" transform="translate(0,344.23)" d="M80,0h449" style="stroke: rgb(255, 255, 255); stroke-opacity: 1; stroke-width: 1px;"/><path class="ygrid crisp" transform="translate(0,293.69)" d="M80,0h449" style="stroke: rgb(255, 255, 255); stroke-opacity: 1; stroke-width: 1px;"/><path class="ygrid crisp" transform="translate(0,243.14)" d="M80,0h449" style="stroke: rgb(255, 255, 255); stroke-opacity: 1; stroke-width: 1px;"/><path class="ygrid crisp" transform="translate(0,192.6)" d="M80,0h449" style="stroke: rgb(255, 255, 255); stroke-opacity: 1; stroke-width: 1px;"/><path class="ygrid crisp" transform="translate(0,142.06)" d="M80,0h449" style="stroke: rgb(255, 255, 255); stroke-opacity: 1; stroke-width: 1px;"/></g></g><g class="zerolinelayer"><path class="yzl zl crisp" transform="translate(0,394.77)" d="M80,0h449" style="stroke: rgb(255, 255, 255); stroke-opacity: 1; stroke-width: 2px;"/></g><path class="xlines-below"/><path class="ylines-below"/><g class="overlines-below"/><g class="xaxislayer-below"/><g class="yaxislayer-below"/><g class="overaxes-below"/><g class="plot" transform="translate(80,100)" clip-path="url(#clip3b593bxyplot)"><g class="scatterlayer mlayer"><g class="trace scatter trace03ec98" style="stroke-miterlimit: 2;"><g class="fills"><g><path class="js-fill" d="M448.79,294.77L0,294.77L0,294.56L4.93,293.92L9.86,291.32L14.8,288.99L19.73,283.16L24.66,281.7L29.59,278.31L34.52,276.26L39.45,272.8L54.25,269.61L59.18,268.41L69.05,264.83L73.98,259.2L78.91,257.31L83.84,251.6L88.77,245.49L93.7,244.63L98.64,244.44L103.57,246.54L108.5,246.31L113.43,251.25L118.36,248.41L123.3,249.19L128.23,250.3L133.16,250.12L143.02,253.53L147.95,258.83L157.82,266.21L162.75,268.2L167.68,271.8L172.61,272.51L177.55,273.83L182.48,271.94L207.14,272.75L212.07,272.09L217,273.05L221.93,273.16L231.8,273.22L236.73,273.92L246.59,274.53L251.52,274.59L256.45,275.33L261.39,275.19L266.32,275.33L271.25,276.98L281.11,276.63L286.05,277.73L300.84,278.45L305.77,278.58L315.64,281.04L320.57,280.97L330.43,278.95L335.36,279.16L355.09,279.6L360.02,279.43L384.68,279.33L389.61,279.34L419.2,278.33L424.14,275.34L434,273.49L438.93,270.34L443.86,269.56L448.79,269.67" style="fill: rgb(99, 110, 250); fill-opacity: 0.5; stroke-width: 0;"/></g></g><g class="errorbars"/><g class="lines"><path class="js-line" d="M0,294.56L4.93,293.92L9.86,291.32L14.8,288.99L19.73,283.16L24.66,281.7L29.59,278.31L34.52,276.26L39.45,272.8L54.25,269.61L59.18,268.41L69.05,264.83L73.98,259.2L78.91,257.31L83.84,251.6L88.77,245.49L93.7,244.63L98.64,244.44L103.57,246.54L108.5,246.31L113.43,251.25L118.36,248.41L123.3,249.19L128.23,250.3L133.16,250.12L143.02,253.53L147.95,258.83L157.82,266.21L162.75,268.2L167.68,271.8L172.61,272.51L177.55,273.83L182.48,271.94L207.14,272.75L212.07,272.09L217,273.05L221.93,273.16L231.8,273.22L236.73,273.92L246.59,274.53L251.52,274.59L256.45,275.33L261.39,275.19L266.32,275.33L271.25,276.98L281.11,276.63L286.05,277.73L300.84,278.45L305.77,278.58L315.64,281.04L320.57,280.97L330.43,278.95L335.36,279.16L355.09,279.6L360.02,279.43L384.68,279.33L389.61,279.34L419.2,278.33L424.14,275.34L434,273.49L438.93,270.34L443.86,269.56L448.79,269.67" style="vector-effect: non-scaling-stroke; fill: none; stroke: rgb(99, 110, 250); stroke-opacity: 1; stroke-width: 2px; opacity: 1;"/></g><g class="points"/><g class="text"/></g><g class="trace scatter trace8784db" style="stroke-miterlimit: 2;"><g class="fills"><g><path class="js-fill" d="M449,294.77L4.93,294.77L4.93,294.83L24.66,294.75L29.59,298.05L44.39,297.88L49.32,297.94L69.05,297.95L73.98,297.95L217,297.59L221.93,297.64L241.66,297.85L246.59,297.92L295.91,297.71L300.84,297.72L325.5,297.79L330.43,297.78L414.27,297.38L419.2,297.36L449,297.35" style="fill: rgb(239, 85, 59); fill-opacity: 0.5; stroke-width: 0;"/></g></g><g class="errorbars"/><g class="lines"><path class="js-line" d="M4.93,294.83L24.66,294.75L29.59,298.05L44.39,297.88L49.32,297.94L69.05,297.95L73.98,297.95L217,297.59L221.93,297.64L241.66,297.85L246.59,297.92L295.91,297.71L300.84,297.72L325.5,297.79L330.43,297.78L414.27,297.38L419.2,297.36L449,297.35" style="vector-effect: non-scaling-stroke; fill: none; stroke: rgb(239, 85, 59); stroke-opacity: 1; stroke-width: 2px; opacity: 1;"/></g><g class="points"/><g class="text"/></g><g class="trace scatter trace1450b3" style="stroke-miterlimit: 2;"><g class="fills"><g><path class="js-fill" d="M449,294.77L4.93,294.77L4.93,294.73L49.32,294.23L54.25,293.82L64.11,293.5L69.05,291.92L73.98,288.42L78.91,286.07L88.77,284.77L93.7,284.47L108.5,283.31L113.43,281.7L118.36,281.1L123.3,279.51L128.23,279.37L133.16,278.44L143.02,277.49L147.95,277.21L157.82,278.84L162.75,281.27L172.61,279.43L177.55,279.66L197.27,279.62L202.2,280.61L212.07,279.82L217,277.24L221.93,277.99L226.86,277.89L241.66,278.21L246.59,278.7L256.45,279.37L261.39,279.36L300.84,279.85L305.77,280.3L315.64,282.42L369.89,278.67L404.41,277.99L409.34,276.97L429.07,277.16L434,258.72L449,258.83" style="fill: rgb(0, 204, 150); fill-opacity: 0.5; stroke-width: 0;"/></g></g><g class="errorbars"/><g class="lines"><path class="js-line" d="M4.93,294.73L49.32,294.23L54.25,293.82L64.11,293.5L69.05,291.92L73.98,288.42L78.91,286.07L88.77,284.77L93.7,284.47L108.5,283.31L113.43,281.7L118.36,281.1L123.3,279.51L128.23,279.37L133.16,278.44L143.02,277.49L147.95,277.21L157.82,278.84L162.75,281.27L172.61,279.43L177.55,279.66L197.27,279.62L202.2,280.61L212.07,279.82L217,277.24L221.93,277.99L226.86,277.89L241.66,278.21L246.59,278.7L256.45,279.37L261.39,279.36L300.84,279.85L305.77,280.3L315.64,282.42L369.89,278.67L404.41,277.99L409.34,276.97L429.07,277.16L434,258.72L449,258.83" style="vector-effect: non-scaling-stroke; fill: none; stroke: rgb(0, 204, 150); stroke-opacity: 1; stroke-width: 2px; opacity: 1;"/></g><g class="points"/><g class="text"/></g><g class="trace scatter tracedeb4df" style="stroke-miterlimit: 2;"><g class="fills"><g><path class="js-fill" d="M449,294.77L4.93,294.77L4.93,294.78L449,294.8" style="fill: rgb(171, 99, 250); fill-opacity: 0.5; stroke-width: 0;"/></g></g><g class="errorbars"/><g class="lines"><path class="js-line" d="M4.93,294.78L449,294.8" style="vector-effect: non-scaling-stroke; fill: none; stroke: rgb(171, 99, 250); stroke-opacity: 1; stroke-width: 2px; opacity: 1;"/></g><g class="points"/><g class="text"/></g><g class="trace scatter trace761a0c" style="stroke-miterlimit: 2;"><g class="fills"><g><path class="js-fill" d="M449,294.77L9.86,294.77L9.86,294.77L113.43,293.68L118.36,292.35L143.02,291.82L147.95,291.84L281.11,292.77L286.05,292.42L305.77,292.2L310.7,292.86L350.16,292.69L355.09,292.61L389.61,291.87L394.55,291.76L449,291.69" style="fill: rgb(255, 161, 90); fill-opacity: 0.5; stroke-width: 0;"/></g></g><g class="errorbars"/><g class="lines"><path class="js-line" d="M9.86,294.77L113.43,293.68L118.36,292.35L143.02,291.82L147.95,291.84L281.11,292.77L286.05,292.42L305.77,292.2L310.7,292.86L350.16,292.69L355.09,292.61L389.61,291.87L394.55,291.76L449,291.69" style="vector-effect: non-scaling-stroke; fill: none; stroke: rgb(255, 161, 90); stroke-opacity: 1; stroke-width: 2px; opacity: 1;"/></g><g class="points"/><g class="text"/></g><g class="trace scatter traceff3c0d" style="stroke-miterlimit: 2;"><g class="fills"><g><path class="js-fill" d="M449,294.77L98.64,294.77L98.64,294.76L103.57,293.85L108.5,291.64L118.36,290.49L123.3,290.13L133.16,289.24L138.09,287.8L187.41,286.82L192.34,287.12L305.77,289L310.7,289.29L320.57,289.18L325.5,287.97L364.95,287.23L369.89,287L438.93,287.3L443.86,287.45L449,287.41" style="fill: rgb(25, 211, 243); fill-opacity: 0.5; stroke-width: 0;"/></g></g><g class="errorbars"/><g class="lines"><path class="js-line" d="M98.64,294.76L103.57,293.85L108.5,291.64L118.36,290.49L123.3,290.13L133.16,289.24L138.09,287.8L187.41,286.82L192.34,287.12L305.77,289L310.7,289.29L320.57,289.18L325.5,287.97L364.95,287.23L369.89,287L438.93,287.3L443.86,287.45L449,287.41" style="vector-effect: non-scaling-stroke; fill: none; stroke: rgb(25, 211, 243); stroke-opacity: 1; stroke-width: 2px; opacity: 1;"/></g><g class="points"/><g class="text"/></g><g class="trace scatter trace666ba0" style="stroke-miterlimit: 2;"><g class="fills"><g><path class="js-fill" d="M448.59,294.77L103.57,294.77L103.57,294.73L113.43,293.56L118.36,293.07L147.95,292.85L152.89,292.76L389.61,292.99L394.55,293L448.59,292.97" style="fill: rgb(255, 102, 146); fill-opacity: 0.5; stroke-width: 0;"/></g></g><g class="errorbars"/><g class="lines"><path class="js-line" d="M103.57,294.73L113.43,293.56L118.36,293.07L147.95,292.85L152.89,292.76L389.61,292.99L394.55,293L448.59,292.97" style="vector-effect: non-scaling-stroke; fill: none; stroke: rgb(255, 102, 146); stroke-opacity: 1; stroke-width: 2px; opacity: 1;"/></g><g class="points"/><g class="text"/></g><g class="trace scatter trace1a9a4b" style="stroke-miterlimit: 2;"><g class="fills"><g><path class="js-fill" d="M448.79,294.77L108.5,294.77L108.5,294.32L113.43,173.43L118.36,88.48L123.3,55.79L128.23,35.77L133.16,38.83L138.09,31.45L143.02,16.46L147.95,16L152.89,16.65L157.82,34.82L162.75,42.21L167.68,42.13L177.55,49.39L182.48,103.52L192.34,105.43L197.27,104.63L202.2,112.03L207.14,107.55L212.07,105.61L217,98.8L221.93,99.92L226.86,96.57L231.8,100.26L236.73,102.14L241.66,90.28L246.59,88.2L251.52,87.71L256.45,88.29L261.39,89.36L266.32,89.14L276.18,108.44L281.11,109.69L286.05,116.59L290.98,109.33L300.84,107.82L305.77,105.33L310.7,105.71L315.64,112.25L325.5,103.63L330.43,101.49L335.36,102.14L340.3,98.65L350.16,97.32L355.09,95.09L360.02,94.92L364.95,93.42L369.89,96.85L374.82,95.33L379.75,93.48L384.68,81L389.61,75.68L394.55,76.64L399.48,76.59L404.41,75.36L409.34,71.23L414.27,69.92L419.2,72.03L424.14,72.75L429.07,73.69L434,70.8L438.93,74.32L443.86,76.25L448.79,76.54" style="fill: rgb(182, 232, 128); fill-opacity: 0.5; stroke-width: 0;"/></g></g><g class="errorbars"/><g class="lines"><path class="js-line" d="M108.5,294.32L113.43,173.43L118.36,88.48L123.3,55.79L128.23,35.77L133.16,38.83L138.09,31.45L143.02,16.46L147.95,16L152.89,16.65L157.82,34.82L162.75,42.21L167.68,42.13L177.55,49.39L182.48,103.52L192.34,105.43L197.27,104.63L202.2,112.03L207.14,107.55L212.07,105.61L217,98.8L221.93,99.92L226.86,96.57L231.8,100.26L236.73,102.14L241.66,90.28L246.59,88.2L251.52,87.71L256.45,88.29L261.39,89.36L266.32,89.14L276.18,108.44L281.11,109.69L286.05,116.59L290.98,109.33L300.84,107.82L305.77,105.33L310.7,105.71L315.64,112.25L325.5,103.63L330.43,101.49L335.36,102.14L340.3,98.65L350.16,97.32L355.09,95.09L360.02,94.92L364.95,93.42L369.89,96.85L374.82,95.33L379.75,93.48L384.68,81L389.61,75.68L394.55,76.64L399.48,76.59L404.41,75.36L409.34,71.23L414.27,69.92L419.2,72.03L424.14,72.75L429.07,73.69L434,70.8L438.93,74.32L443.86,76.25L448.79,76.54" style="vector-effect: non-scaling-stroke; fill: none; stroke: rgb(182, 232, 128); stroke-opacity: 1; stroke-width: 2px; opacity: 1;"/></g><g class="points"/><g class="text"/></g><g class="trace scatter trace339b9b" style="stroke-miterlimit: 2;"><g class="fills"><g><path class="js-fill" d="M448.79,294.77L113.43,294.77L113.43,295.7L118.36,289.95L123.3,290.75L143.02,291.57L147.95,291.07L152.89,290.01L157.82,291.4L172.61,290.31L177.55,290.51L182.48,290.66L187.41,289.82L202.2,289.36L207.14,288.82L221.93,289.37L226.86,289.25L236.73,288.47L241.66,287.88L246.59,287.6L251.52,286.41L261.39,285.92L266.32,285.3L271.25,286.99L276.18,287.51L281.11,287.94L286.05,286L310.7,283.88L315.64,285.8L345.23,285.56L350.16,287.23L360.02,286.88L364.95,287.45L369.89,287.6L374.82,286.76L384.68,285.85L389.61,286.45L399.48,286.56L404.41,285.97L414.27,286.99L419.2,286.03L434,283.45L438.93,283.47L443.86,283.16L448.79,279.45" style="fill: rgb(255, 151, 255); fill-opacity: 0.5; stroke-width: 0;"/></g></g><g class="errorbars"/><g class="lines"><path class="js-line" d="M113.43,295.7L118.36,289.95L123.3,290.75L143.02,291.57L147.95,291.07L152.89,290.01L157.82,291.4L172.61,290.31L177.55,290.51L182.48,290.66L187.41,289.82L202.2,289.36L207.14,288.82L221.93,289.37L226.86,289.25L236.73,288.47L241.66,287.88L246.59,287.6L251.52,286.41L261.39,285.92L266.32,285.3L271.25,286.99L276.18,287.51L281.11,287.94L286.05,286L310.7,283.88L315.64,285.8L345.23,285.56L350.16,287.23L360.02,286.88L364.95,287.45L369.89,287.6L374.82,286.76L384.68,285.85L389.61,286.45L399.48,286.56L404.41,285.97L414.27,286.99L419.2,286.03L434,283.45L438.93,283.47L443.86,283.16L448.79,279.45" style="vector-effect: non-scaling-stroke; fill: none; stroke: rgb(255, 151, 255); stroke-opacity: 1; stroke-width: 2px; opacity: 1;"/></g><g class="points"/><g class="text"/></g><g class="trace scatter tracec06cbf" style="stroke-miterlimit: 2;"><g class="fills"><g><path class="js-fill" d="M449,294.77L212.07,294.77L212.07,293.91L221.93,293.42L226.86,294.49L231.8,293.79L236.73,299.43L241.66,295.02L246.59,294.9L256.45,297.08L261.39,296.14L271.25,297.44L276.18,296.15L281.11,297.77L286.05,296.2L295.91,296.52L300.84,295.19L305.77,295.37L310.7,294.67L315.64,295.9L320.57,295.48L325.5,302.83L330.43,304L335.36,299.19L340.3,299.5L345.23,296.78L350.16,295.89L355.09,299.74L360.02,298.93L364.95,297.84L369.89,295.82L374.82,295.9L379.75,294.95L384.68,296.41L389.61,296.31L394.55,297.28L399.48,296.04L404.41,295.57L409.34,296.41L414.27,296.45L419.2,297.4L429.07,297.8L434,297.66L449,297.95" style="fill: rgb(254, 203, 82); fill-opacity: 0.5; stroke-width: 0;"/></g></g><g class="errorbars"/><g class="lines"><path class="js-line" d="M212.07,293.91L221.93,293.42L226.86,294.49L231.8,293.79L236.73,299.43L241.66,295.02L246.59,294.9L256.45,297.08L261.39,296.14L271.25,297.44L276.18,296.15L281.11,297.77L286.05,296.2L295.91,296.52L300.84,295.19L305.77,295.37L310.7,294.67L315.64,295.9L320.57,295.48L325.5,302.83L330.43,304L335.36,299.19L340.3,299.5L345.23,296.78L350.16,295.89L355.09,299.74L360.02,298.93L364.95,297.84L369.89,295.82L374.82,295.9L379.75,294.95L384.68,296.41L389.61,296.31L394.55,297.28L399.48,296.04L404.41,295.57L409.34,296.41L414.27,296.45L419.2,297.4L429.07,297.8L434,297.66L449,297.95" style="vector-effect: non-scaling-stroke; fill: none; stroke: rgb(254, 203, 82); stroke-opacity: 1; stroke-width: 2px; opacity: 1;"/></g><g class="points"/><g class="text"/></g><g class="trace scatter trace9bc10c" style="stroke-miterlimit: 2;"><g class="fills"><g><path class="js-fill" d="M449,294.77L231.8,294.77L231.8,294.77L271.25,294.14L276.18,293.64L305.77,292.24L310.7,292.12L340.3,291.44L345.23,291.05L374.82,290.55L379.75,290.75L449,290.27" style="fill: rgb(99, 110, 250); fill-opacity: 0.5; stroke-width: 0;"/></g></g><g class="errorbars"/><g class="lines"><path class="js-line" d="M231.8,294.77L271.25,294.14L276.18,293.64L305.77,292.24L310.7,292.12L340.3,291.44L345.23,291.05L374.82,290.55L379.75,290.75L449,290.27" style="vector-effect: non-scaling-stroke; fill: none; stroke: rgb(99, 110, 250); stroke-opacity: 1; stroke-width: 2px; opacity: 1;"/></g><g class="points"/><g class="text"/></g><g class="trace scatter trace764fee" style="stroke-miterlimit: 2;"><g class="fills"><g><path class="js-fill" d="M448.79,294.77L286.05,294.77L286.05,294.7L340.3,294.19L345.23,294.21L419.2,293.78L424.14,293.77L448.79,293.89" style="fill: rgb(239, 85, 59); fill-opacity: 0.5; stroke-width: 0;"/></g></g><g class="errorbars"/><g class="lines"><path class="js-line" d="M286.05,294.7L340.3,294.19L345.23,294.21L419.2,293.78L424.14,293.77L448.79,293.89" style="vector-effect: non-scaling-stroke; fill: none; stroke: rgb(239, 85, 59); stroke-opacity: 1; stroke-width: 2px; opacity: 1;"/></g><g class="points"/><g class="text"/></g><g class="trace scatter traced305ca" style="stroke-miterlimit: 2;"><g class="fills"><g><path class="js-fill" d="M449,294.77L300.84,294.77L300.84,294.77L449,294.76" style="fill: rgb(0, 204, 150); fill-opacity: 0.5; stroke-width: 0;"/></g></g><g class="errorbars"/><g class="lines"><path class="js-line" d="M300.84,294.77L449,294.76" style="vector-effect: non-scaling-stroke; fill: none; stroke: rgb(0, 204, 150); stroke-opacity: 1; stroke-width: 2px; opacity: 1;"/></g><g class="points"/><g class="text"/></g><g class="trace scatter tracec1978f" style="stroke-miterlimit: 2;"><g class="fills"><g><path class="js-fill" d="M449,294.77L310.7,294.77L310.7,294.78L449,294.72" style="fill: rgb(171, 99, 250); fill-opacity: 0.5; stroke-width: 0;"/></g></g><g class="errorbars"/><g class="lines"><path class="js-line" d="M310.7,294.78L449,294.72" style="vector-effect: non-scaling-stroke; fill: none; stroke: rgb(171, 99, 250); stroke-opacity: 1; stroke-width: 2px; opacity: 1;"/></g><g class="points"/><g class="text"/></g><g class="trace scatter trace701fa9" style="stroke-miterlimit: 2;"><g class="fills"><g><path class="js-fill" d="M448.79,294.77L335.36,294.77L335.36,294.77L448.79,294.42" style="fill: rgb(255, 161, 90); fill-opacity: 0.5; stroke-width: 0;"/></g></g><g class="errorbars"/><g class="lines"><path class="js-line" d="M335.36,294.77L448.79,294.42" style="vector-effect: non-scaling-stroke; fill: none; stroke: rgb(255, 161, 90); stroke-opacity: 1; stroke-width: 2px; opacity: 1;"/></g><g class="points"/><g class="text"/></g><g class="trace scatter trace72c049" style="stroke-miterlimit: 2;"><g class="fills"><g><path class="js-fill" d="M449,294.77L350.16,294.77L350.16,294.69L379.75,294.56L384.68,294.56L434,294.29L438.93,294.36L449,294.33" style="fill: rgb(25, 211, 243); fill-opacity: 0.5; stroke-width: 0;"/></g></g><g class="errorbars"/><g class="lines"><path class="js-line" d="M350.16,294.69L379.75,294.56L384.68,294.56L434,294.29L438.93,294.36L449,294.33" style="vector-effect: non-scaling-stroke; fill: none; stroke: rgb(25, 211, 243); stroke-opacity: 1; stroke-width: 2px; opacity: 1;"/></g><g class="points"/><g class="text"/></g><g class="trace scatter traceb8f7bd" style="stroke-miterlimit: 2;"><g class="fills"><g><path class="js-fill" d="M448.79,294.77L384.68,294.77L384.68,294.76L389.61,293.11L394.55,292.46L399.48,292.03L404.41,292.5L409.34,291.55L414.27,291.43L424.14,291.29L429.07,290.57L434,289.98L438.93,288.28L448.79,288.03" style="fill: rgb(255, 102, 146); fill-opacity: 0.5; stroke-width: 0;"/></g></g><g class="errorbars"/><g class="lines"><path class="js-line" d="M384.68,294.76L389.61,293.11L394.55,292.46L399.48,292.03L404.41,292.5L409.34,291.55L414.27,291.43L424.14,291.29L429.07,290.57L434,289.98L438.93,288.28L448.79,288.03" style="vector-effect: non-scaling-stroke; fill: none; stroke: rgb(255, 102, 146); stroke-opacity: 1; stroke-width: 2px; opacity: 1;"/></g><g class="points"><path class="point" transform="translate(384.68,294.76)" d="M3,0A3,3 0 1,1 0,-3A3,3 0 0,1 3,0Z" style="opacity: 1; stroke-width: 0px; fill: rgb(255, 102, 146); fill-opacity: 1;"/><path class="point" transform="translate(389.61,293.11)" d="M3,0A3,3 0 1,1 0,-3A3,3 0 0,1 3,0Z" style="opacity: 1; stroke-width: 0px; fill: rgb(255, 102, 146); fill-opacity: 1;"/><path class="point" transform="translate(394.55,292.46)" d="M3,0A3,3 0 1,1 0,-3A3,3 0 0,1 3,0Z" style="opacity: 1; stroke-width: 0px; fill: rgb(255, 102, 146); fill-opacity: 1;"/><path class="point" transform="translate(399.48,292.03)" d="M3,0A3,3 0 1,1 0,-3A3,3 0 0,1 3,0Z" style="opacity: 1; stroke-width: 0px; fill: rgb(255, 102, 146); fill-opacity: 1;"/><path class="point" transform="translate(404.41,292.5)" d="M3,0A3,3 0 1,1 0,-3A3,3 0 0,1 3,0Z" style="opacity: 1; stroke-width: 0px; fill: rgb(255, 102, 146); fill-opacity: 1;"/><path class="point" transform="translate(409.34,291.55)" d="M3,0A3,3 0 1,1 0,-3A3,3 0 0,1 3,0Z" style="opacity: 1; stroke-width: 0px; fill: rgb(255, 102, 146); fill-opacity: 1;"/><path class="point" transform="translate(414.27,291.43)" d="M3,0A3,3 0 1,1 0,-3A3,3 0 0,1 3,0Z" style="opacity: 1; stroke-width: 0px; fill: rgb(255, 102, 146); fill-opacity: 1;"/><path class="point" transform="translate(419.2,291.62)" d="M3,0A3,3 0 1,1 0,-3A3,3 0 0,1 3,0Z" style="opacity: 1; stroke-width: 0px; fill: rgb(255, 102, 146); fill-opacity: 1;"/><path class="point" transform="translate(424.14,291.29)" d="M3,0A3,3 0 1,1 0,-3A3,3 0 0,1 3,0Z" style="opacity: 1; stroke-width: 0px; fill: rgb(255, 102, 146); fill-opacity: 1;"/><path class="point" transform="translate(429.07,290.57)" d="M3,0A3,3 0 1,1 0,-3A3,3 0 0,1 3,0Z" style="opacity: 1; stroke-width: 0px; fill: rgb(255, 102, 146); fill-opacity: 1;"/><path class="point" transform="translate(434,289.98)" d="M3,0A3,3 0 1,1 0,-3A3,3 0 0,1 3,0Z" style="opacity: 1; stroke-width: 0px; fill: rgb(255, 102, 146); fill-opacity: 1;"/><path class="point" transform="translate(438.93,288.28)" d="M3,0A3,3 0 1,1 0,-3A3,3 0 0,1 3,0Z" style="opacity: 1; stroke-width: 0px; fill: rgb(255, 102, 146); fill-opacity: 1;"/><path class="point" transform="translate(443.86,288.34)" d="M3,0A3,3 0 1,1 0,-3A3,3 0 0,1 3,0Z" style="opacity: 1; stroke-width: 0px; fill: rgb(255, 102, 146); fill-opacity: 1;"/><path class="point" transform="translate(448.79,288.03)" d="M3,0A3,3 0 1,1 0,-3A3,3 0 0,1 3,0Z" style="opacity: 1; stroke-width: 0px; fill: rgb(255, 102, 146); fill-opacity: 1;"/></g><g class="text"/></g></g></g><g class="overplot"/><path class="xlines-above crisp" d="M0,0" style="fill: none;"/><path class="ylines-above crisp" d="M0,0" style="fill: none;"/><g class="overlines-above"/><g class="xaxislayer-above"><g class="xtick"><text text-anchor="middle" x="0" y="433" transform="translate(99.73,0)" style="font-family: 'Open Sans', verdana, arial, sans-serif; font-size: 12px; fill: rgb(42, 63, 95); fill-opacity: 1; white-space: pre; opacity: 1;"><tspan class="line" dy="0em" x="0" y="433">Jul 17</tspan><tspan class="line" dy="1.3em" x="0" y="433">2022</tspan></text></g><g class="xtick"><text text-anchor="middle" x="0" y="433" style="font-family: 'Open Sans', verdana, arial, sans-serif; font-size: 12px; fill: rgb(42, 63, 95); fill-opacity: 1; white-space: pre; opacity: 1;" transform="translate(168.76999999999998,0)">Jul 31</text></g><g class="xtick"><text text-anchor="middle" x="0" y="433" style="font-family: 'Open Sans', verdana, arial, sans-serif; font-size: 12px; fill: rgb(42, 63, 95); fill-opacity: 1; white-space: pre; opacity: 1;" transform="translate(237.82,0)">Aug 14</text></g><g class="xtick"><text text-anchor="middle" x="0" y="433" style="font-family: 'Open Sans', verdana, arial, sans-serif; font-size: 12px; fill: rgb(42, 63, 95); fill-opacity: 1; white-space: pre; opacity: 1;" transform="translate(306.86,0)">Aug 28</text></g><g class="xtick"><text text-anchor="middle" x="0" y="433" style="font-family: 'Open Sans', verdana, arial, sans-serif; font-size: 12px; fill: rgb(42, 63, 95); fill-opacity: 1; white-space: pre; opacity: 1;" transform="translate(375.91,0)">Sep 11</text></g><g class="xtick"><text text-anchor="middle" x="0" y="433" style="font-family: 'Open Sans', verdana, arial, sans-serif; font-size: 12px; fill: rgb(42, 63, 95); fill-opacity: 1; white-space: pre; opacity: 1;" transform="translate(444.95,0)">Sep 25</text></g><g class="xtick"><text text-anchor="middle" x="0" y="433" style="font-family: 'Open Sans', verdana, arial, sans-serif; font-size: 12px; fill: rgb(42, 63, 95); fill-opacity: 1; white-space: pre; opacity: 1;" transform="translate(514,0)">Oct 9</text></g></g><g class="yaxislayer-above"><g class="ytick"><text text-anchor="end" x="79" y="4.199999999999999" transform="translate(0,394.77)" style="font-family: 'Open Sans', verdana, arial, sans-serif; font-size: 12px; fill: rgb(42, 63, 95); fill-opacity: 1; white-space: pre; opacity: 1;">$0</text></g><g class="ytick"><text text-anchor="end" x="79" y="4.199999999999999" style="font-family: 'Open Sans', verdana, arial, sans-serif; font-size: 12px; fill: rgb(42, 63, 95); fill-opacity: 1; white-space: pre; opacity: 1;" transform="translate(0,344.23)">$100M</text></g><g class="ytick"><text text-anchor="end" x="79" y="4.199999999999999" style="font-family: 'Open Sans', verdana, arial, sans-serif; font-size: 12px; fill: rgb(42, 63, 95); fill-opacity: 1; white-space: pre; opacity: 1;" transform="translate(0,293.69)">$200M</text></g><g class="ytick"><text text-anchor="end" x="79" y="4.199999999999999" style="font-family: 'Open Sans', verdana, arial, sans-serif; font-size: 12px; fill: rgb(42, 63, 95); fill-opacity: 1; white-space: pre; opacity: 1;" transform="translate(0,243.14)">$300M</text></g><g class="ytick"><text text-anchor="end" x="79" y="4.199999999999999" style="font-family: 'Open Sans', verdana, arial, sans-serif; font-size: 12px; fill: rgb(42, 63, 95); fill-opacity: 1; white-space: pre; opacity: 1;" transform="translate(0,192.6)">$400M</text></g><g class="ytick"><text text-anchor="end" x="79" y="4.199999999999999" style="font-family: 'Open Sans', verdana, arial, sans-serif; font-size: 12px; fill: rgb(42, 63, 95); fill-opacity: 1; white-space: pre; opacity: 1;" transform="translate(0,142.06)">$500M</text></g></g><g class="overaxes-above"/></g></g><g class="polarlayer"/><g class="smithlayer"/><g class="ternarylayer"/><g class="geolayer"/><g class="funnelarealayer"/><g class="pielayer"/><g class="iciclelayer"/><g class="treemaplayer"/><g class="sunburstlayer"/><g class="glimages"/><defs id="topdefs-3b593b"><g class="clips"/><clipPath id="legend3b593b"><rect width="150" height="320" x="0" y="0"/></clipPath></defs><g class="layer-above"><g class="imagelayer"/><g class="shapelayer"/></g><g class="infolayer"><g class="legend" pointer-events="all" transform="translate(537.98,100)"><rect class="bg" shape-rendering="crispEdges" width="150" height="320" x="0" y="0" style="stroke: rgb(68, 68, 68); stroke-opacity: 1; fill: rgb(255, 255, 255); fill-opacity: 1; stroke-width: 0px;"/><g class="scrollbox" transform="" clip-path="url(#legend3b593b)"><text class="legendtitletext" text-anchor="start" x="2" y="18.2" style="font-family: 'Open Sans', verdana, arial, sans-serif; font-size: 14px; fill: rgb(42, 63, 95); fill-opacity: 1; white-space: pre;">App Name</text><g class="groups"><g class="traces" transform="translate(0,32.7)" style="opacity: 1;"><text class="legendtext" text-anchor="start" x="40" y="4.680000000000001" style="font-family: 'Open Sans', verdana, arial, sans-serif; font-size: 12px; fill: rgb(42, 63, 95); fill-opacity: 1; white-space: pre;">velodrome</text><g class="layers"><g class="legendfill"><path class="js-fill" d="M5,-2h30v6h-30z" style="stroke-width: 0; fill: rgb(99, 110, 250); fill-opacity: 0.5;"/></g><g class="legendlines"><path class="js-line" d="M5,-2h30" style="fill: none; stroke: rgb(99, 110, 250); stroke-opacity: 1; stroke-width: 2px;"/></g><g class="legendsymbols"><g class="legendpoints"/></g></g><rect class="legendtoggle" x="0" y="-9.5" width="144.0625" height="19" style="fill: rgb(0, 0, 0); fill-opacity: 0;"/></g><g class="traces" transform="translate(0,51.7)" style="opacity: 1;"><text class="legendtext" text-anchor="start" x="40" y="4.680000000000001" style="font-family: 'Open Sans', verdana, arial, sans-serif; font-size: 12px; fill: rgb(42, 63, 95); fill-opacity: 1; white-space: pre;">perpetual-protocol</text><g class="layers"><g class="legendfill"><path class="js-fill" d="M5,-2h30v6h-30z" style="stroke-width: 0; fill: rgb(239, 85, 59); fill-opacity: 0.5;"/></g><g class="legendlines"><path class="js-line" d="M5,-2h30" style="fill: none; stroke: rgb(239, 85, 59); stroke-opacity: 1; stroke-width: 2px;"/></g><g class="legendsymbols"><g class="legendpoints"/></g></g><rect class="legendtoggle" x="0" y="-9.5" width="144.0625" height="19" style="fill: rgb(0, 0, 0); fill-opacity: 0;"/></g><g class="traces" transform="translate(0,70.7)" style="opacity: 1;"><text class="legendtext" text-anchor="start" x="40" y="4.680000000000001" style="font-family: 'Open Sans', verdana, arial, sans-serif; font-size: 12px; fill: rgb(42, 63, 95); fill-opacity: 1; white-space: pre;">pooltogether</text><g class="layers"><g class="legendfill"><path class="js-fill" d="M5,-2h30v6h-30z" style="stroke-width: 0; fill: rgb(0, 204, 150); fill-opacity: 0.5;"/></g><g class="legendlines"><path class="js-line" d="M5,-2h30" style="fill: none; stroke: rgb(0, 204, 150); stroke-opacity: 1; stroke-width: 2px;"/></g><g class="legendsymbols"><g class="legendpoints"/></g></g><rect class="legendtoggle" x="0" y="-9.5" width="144.0625" height="19" style="fill: rgb(0, 0, 0); fill-opacity: 0;"/></g><g class="traces" transform="translate(0,89.7)" style="opacity: 1;"><text class="legendtext" text-anchor="start" x="40" y="4.680000000000001" style="font-family: 'Open Sans', verdana, arial, sans-serif; font-size: 12px; fill: rgb(42, 63, 95); fill-opacity: 1; white-space: pre;">thales</text><g class="layers"><g class="legendfill"><path class="js-fill" d="M5,-2h30v6h-30z" style="stroke-width: 0; fill: rgb(171, 99, 250); fill-opacity: 0.5;"/></g><g class="legendlines"><path class="js-line" d="M5,-2h30" style="fill: none; stroke: rgb(171, 99, 250); stroke-opacity: 1; stroke-width: 2px;"/></g><g class="legendsymbols"><g class="legendpoints"/></g></g><rect class="legendtoggle" x="0" y="-9.5" width="144.0625" height="19" style="fill: rgb(0, 0, 0); fill-opacity: 0;"/></g><g class="traces" transform="translate(0,108.7)" style="opacity: 1;"><text class="legendtext" text-anchor="start" x="40" y="4.680000000000001" style="font-family: 'Open Sans', verdana, arial, sans-serif; font-size: 12px; fill: rgb(42, 63, 95); fill-opacity: 1; white-space: pre;">rubicon</text><g class="layers"><g class="legendfill"><path class="js-fill" d="M5,-2h30v6h-30z" style="stroke-width: 0; fill: rgb(255, 161, 90); fill-opacity: 0.5;"/></g><g class="legendlines"><path class="js-line" d="M5,-2h30" style="fill: none; stroke: rgb(255, 161, 90); stroke-opacity: 1; stroke-width: 2px;"/></g><g class="legendsymbols"><g class="legendpoints"/></g></g><rect class="legendtoggle" x="0" y="-9.5" width="144.0625" height="19" style="fill: rgb(0, 0, 0); fill-opacity: 0;"/></g><g class="traces" transform="translate(0,127.7)" style="opacity: 1;"><text class="legendtext" text-anchor="start" x="40" y="4.680000000000001" style="font-family: 'Open Sans', verdana, arial, sans-serif; font-size: 12px; fill: rgb(42, 63, 95); fill-opacity: 1; white-space: pre;">lyra</text><g class="layers"><g class="legendfill"><path class="js-fill" d="M5,-2h30v6h-30z" style="stroke-width: 0; fill: rgb(25, 211, 243); fill-opacity: 0.5;"/></g><g class="legendlines"><path class="js-line" d="M5,-2h30" style="fill: none; stroke: rgb(25, 211, 243); stroke-opacity: 1; stroke-width: 2px;"/></g><g class="legendsymbols"><g class="legendpoints"/></g></g><rect class="legendtoggle" x="0" y="-9.5" width="144.0625" height="19" style="fill: rgb(0, 0, 0); fill-opacity: 0;"/></g><g class="traces" transform="translate(0,146.7)" style="opacity: 1;"><text class="legendtext" text-anchor="start" x="40" y="4.680000000000001" style="font-family: 'Open Sans', verdana, arial, sans-serif; font-size: 12px; fill: rgb(42, 63, 95); fill-opacity: 1; white-space: pre;">wepiggy</text><g class="layers"><g class="legendfill"><path class="js-fill" d="M5,-2h30v6h-30z" style="stroke-width: 0; fill: rgb(255, 102, 146); fill-opacity: 0.5;"/></g><g class="legendlines"><path class="js-line" d="M5,-2h30" style="fill: none; stroke: rgb(255, 102, 146); stroke-opacity: 1; stroke-width: 2px;"/></g><g class="legendsymbols"><g class="legendpoints"/></g></g><rect class="legendtoggle" x="0" y="-9.5" width="144.0625" height="19" style="fill: rgb(0, 0, 0); fill-opacity: 0;"/></g><g class="traces" transform="translate(0,165.7)" style="opacity: 1;"><text class="legendtext" text-anchor="start" x="40" y="4.680000000000001" style="font-family: 'Open Sans', verdana, arial, sans-serif; font-size: 12px; fill: rgb(42, 63, 95); fill-opacity: 1; white-space: pre;">aave-v3</text><g class="layers"><g class="legendfill"><path class="js-fill" d="M5,-2h30v6h-30z" style="stroke-width: 0; fill: rgb(182, 232, 128); fill-opacity: 0.5;"/></g><g class="legendlines"><path class="js-line" d="M5,-2h30" style="fill: none; stroke: rgb(182, 232, 128); stroke-opacity: 1; stroke-width: 2px;"/></g><g class="legendsymbols"><g class="legendpoints"/></g></g><rect class="legendtoggle" x="0" y="-9.5" width="144.0625" height="19" style="fill: rgb(0, 0, 0); fill-opacity: 0;"/></g><g class="traces" transform="translate(0,184.7)" style="opacity: 1;"><text class="legendtext" text-anchor="start" x="40" y="4.680000000000001" style="font-family: 'Open Sans', verdana, arial, sans-serif; font-size: 12px; fill: rgb(42, 63, 95); fill-opacity: 1; white-space: pre;">stargate</text><g class="layers"><g class="legendfill"><path class="js-fill" d="M5,-2h30v6h-30z" style="stroke-width: 0; fill: rgb(255, 151, 255); fill-opacity: 0.5;"/></g><g class="legendlines"><path class="js-line" d="M5,-2h30" style="fill: none; stroke: rgb(255, 151, 255); stroke-opacity: 1; stroke-width: 2px;"/></g><g class="legendsymbols"><g class="legendpoints"/></g></g><rect class="legendtoggle" x="0" y="-9.5" width="144.0625" height="19" style="fill: rgb(0, 0, 0); fill-opacity: 0;"/></g><g class="traces" transform="translate(0,203.7)" style="opacity: 1;"><text class="legendtext" text-anchor="start" x="40" y="4.680000000000001" style="font-family: 'Open Sans', verdana, arial, sans-serif; font-size: 12px; fill: rgb(42, 63, 95); fill-opacity: 1; white-space: pre;">synthetix</text><g class="layers"><g class="legendfill"><path class="js-fill" d="M5,-2h30v6h-30z" style="stroke-width: 0; fill: rgb(254, 203, 82); fill-opacity: 0.5;"/></g><g class="legendlines"><path class="js-line" d="M5,-2h30" style="fill: none; stroke: rgb(254, 203, 82); stroke-opacity: 1; stroke-width: 2px;"/></g><g class="legendsymbols"><g class="legendpoints"/></g></g><rect class="legendtoggle" x="0" y="-9.5" width="144.0625" height="19" style="fill: rgb(0, 0, 0); fill-opacity: 0;"/></g><g class="traces" transform="translate(0,222.7)" style="opacity: 1;"><text class="legendtext" text-anchor="start" x="40" y="4.680000000000001" style="font-family: 'Open Sans', verdana, arial, sans-serif; font-size: 12px; fill: rgb(42, 63, 95); fill-opacity: 1; white-space: pre;">pika-protocol</text><g class="layers"><g class="legendfill"><path class="js-fill" d="M5,-2h30v6h-30z" style="stroke-width: 0; fill: rgb(99, 110, 250); fill-opacity: 0.5;"/></g><g class="legendlines"><path class="js-line" d="M5,-2h30" style="fill: none; stroke: rgb(99, 110, 250); stroke-opacity: 1; stroke-width: 2px;"/></g><g class="legendsymbols"><g class="legendpoints"/></g></g><rect class="legendtoggle" x="0" y="-9.5" width="144.0625" height="19" style="fill: rgb(0, 0, 0); fill-opacity: 0;"/></g><g class="traces" transform="translate(0,241.7)" style="opacity: 1;"><text class="legendtext" text-anchor="start" x="40" y="4.680000000000001" style="font-family: 'Open Sans', verdana, arial, sans-serif; font-size: 12px; fill: rgb(42, 63, 95); fill-opacity: 1; white-space: pre;">pickle</text><g class="layers"><g class="legendfill"><path class="js-fill" d="M5,-2h30v6h-30z" style="stroke-width: 0; fill: rgb(239, 85, 59); fill-opacity: 0.5;"/></g><g class="legendlines"><path class="js-line" d="M5,-2h30" style="fill: none; stroke: rgb(239, 85, 59); stroke-opacity: 1; stroke-width: 2px;"/></g><g class="legendsymbols"><g class="legendpoints"/></g></g><rect class="legendtoggle" x="0" y="-9.5" width="144.0625" height="19" style="fill: rgb(0, 0, 0); fill-opacity: 0;"/></g><g class="traces" transform="translate(0,260.7)" style="opacity: 1;"><text class="legendtext" text-anchor="start" x="40" y="4.680000000000001" style="font-family: 'Open Sans', verdana, arial, sans-serif; font-size: 12px; fill: rgb(42, 63, 95); fill-opacity: 1; white-space: pre;">aelin</text><g class="layers"><g class="legendfill"><path class="js-fill" d="M5,-2h30v6h-30z" style="stroke-width: 0; fill: rgb(0, 204, 150); fill-opacity: 0.5;"/></g><g class="legendlines"><path class="js-line" d="M5,-2h30" style="fill: none; stroke: rgb(0, 204, 150); stroke-opacity: 1; stroke-width: 2px;"/></g><g class="legendsymbols"><g class="legendpoints"/></g></g><rect class="legendtoggle" x="0" y="-9.5" width="144.0625" height="19" style="fill: rgb(0, 0, 0); fill-opacity: 0;"/></g><g class="traces" transform="translate(0,279.7)" style="opacity: 1;"><text class="legendtext" text-anchor="start" x="40" y="4.680000000000001" style="font-family: 'Open Sans', verdana, arial, sans-serif; font-size: 12px; fill: rgb(42, 63, 95); fill-opacity: 1; white-space: pre;">polynomial-protocol</text><g class="layers"><g class="legendfill"><path class="js-fill" d="M5,-2h30v6h-30z" style="stroke-width: 0; fill: rgb(171, 99, 250); fill-opacity: 0.5;"/></g><g class="legendlines"><path class="js-line" d="M5,-2h30" style="fill: none; stroke: rgb(171, 99, 250); stroke-opacity: 1; stroke-width: 2px;"/></g><g class="legendsymbols"><g class="legendpoints"/></g></g><rect class="legendtoggle" x="0" y="-9.5" width="144.0625" height="19" style="fill: rgb(0, 0, 0); fill-opacity: 0;"/></g><g class="traces" transform="translate(0,298.7)" style="opacity: 1;"><text class="legendtext" text-anchor="start" x="40" y="4.680000000000001" style="font-family: 'Open Sans', verdana, arial, sans-serif; font-size: 12px; fill: rgb(42, 63, 95); fill-opacity: 1; white-space: pre;">xtoken</text><g class="layers"><g class="legendfill"><path class="js-fill" d="M5,-2h30v6h-30z" style="stroke-width: 0; fill: rgb(255, 161, 90); fill-opacity: 0.5;"/></g><g class="legendlines"><path class="js-line" d="M5,-2h30" style="fill: none; stroke: rgb(255, 161, 90); stroke-opacity: 1; stroke-width: 2px;"/></g><g class="legendsymbols"><g class="legendpoints"/></g></g><rect class="legendtoggle" x="0" y="-9.5" width="144.0625" height="19" style="fill: rgb(0, 0, 0); fill-opacity: 0;"/></g><g class="traces" transform="translate(0,317.7)" style="opacity: 1;"><text class="legendtext" text-anchor="start" x="40" y="4.680000000000001" style="font-family: 'Open Sans', verdana, arial, sans-serif; font-size: 12px; fill: rgb(42, 63, 95); fill-opacity: 1; white-space: pre;">hop-protocol</text><g class="layers"><g class="legendfill"><path class="js-fill" d="M5,-2h30v6h-30z" style="stroke-width: 0; fill: rgb(25, 211, 243); fill-opacity: 0.5;"/></g><g class="legendlines"><path class="js-line" d="M5,-2h30" style="fill: none; stroke: rgb(25, 211, 243); stroke-opacity: 1; stroke-width: 2px;"/></g><g class="legendsymbols"><g class="legendpoints"/></g></g><rect class="legendtoggle" x="0" y="-9.5" width="144.0625" height="19" style="fill: rgb(0, 0, 0); fill-opacity: 0;"/></g><g class="traces" transform="translate(0,336.7)" style="opacity: 1;"><text class="legendtext" text-anchor="start" x="40" y="4.680000000000001" style="font-family: 'Open Sans', verdana, arial, sans-serif; font-size: 12px; fill: rgb(42, 63, 95); fill-opacity: 1; white-space: pre;">beethoven-x</text><g class="layers"><g class="legendfill"><path class="js-fill" d="M5,0h30v6h-30z" style="stroke-width: 0; fill: rgb(255, 102, 146); fill-opacity: 0.5;"/></g><g class="legendlines"><path class="js-line" d="M5,0h30" style="fill: none; stroke: rgb(255, 102, 146); stroke-opacity: 1; stroke-width: 2px;"/></g><g class="legendsymbols"><g class="legendpoints"><path class="scatterpts" transform="translate(20,0)" d="M3,0A3,3 0 1,1 0,-3A3,3 0 0,1 3,0Z" style="opacity: 1; stroke-width: 0px; fill: rgb(255, 102, 146); fill-opacity: 1;"/></g></g></g><rect class="legendtoggle" x="0" y="-9.5" width="144.0625" height="19" style="fill: rgb(0, 0, 0); fill-opacity: 0;"/></g></g></g><rect class="scrollbar" rx="20" ry="3" width="0" height="0" x="0" y="0" style="fill: rgb(128, 139, 164); fill-opacity: 1;"/></g><g class="g-gtitle"><text class="gtitle" x="35" y="50" text-anchor="start" dy="0em" style="font-family: 'Open Sans', verdana, arial, sans-serif; font-size: 17px; fill: rgb(42, 63, 95); opacity: 1; font-weight: normal; white-space: pre;">Cumulative Net Dollar Flow since Program Announcement</text></g><g class="g-xtitle"><text class="xtitle" x="304.5" y="476.409375" text-anchor="middle" style="font-family: 'Open Sans', verdana, arial, sans-serif; font-size: 14px; fill: rgb(42, 63, 95); opacity: 1; font-weight: normal; white-space: pre;">Day</text></g><g class="g-ytitle"><text class="ytitle" transform="rotate(-90,17.496875000000003,260)" x="17.496875000000003" y="260" text-anchor="middle" style="font-family: 'Open Sans', verdana, arial, sans-serif; font-size: 14px; fill: rgb(42, 63, 95); opacity: 1; font-weight: normal; white-space: pre;">Cumulative Net Dollar Flow (N$F)</text></g></g></svg>