<svg class="main-svg" xmlns="http://www.w3.org/2000/svg" xmlns:xlink="http://www.w3.org/1999/xlink" width="700" height="500" style="" viewBox="0 0 700 500"><rect x="0" y="0" width="700" height="500" style="fill: rgb(255, 255, 255); fill-opacity: 1;"/><defs id="defs-62381b"><g class="clips"><clipPath id="clip62381bxyplot" class="plotclip"><rect width="336" height="320"/></clipPath><clipPath class="axesclip" id="clip62381bx"><rect x="80" y="0" width="336" height="500"/></clipPath><clipPath class="axesclip" id="clip62381by"><rect x="0" y="100" width="700" height="320"/></clipPath><clipPath class="axesclip" id="clip62381bxy"><rect x="80" y="100" width="336" height="320"/></clipPath></g><g class="gradients"/><g class="patterns"/></defs><g class="bglayer"><rect class="bg" x="80" y="100" width="336" height="320" style="fill: rgb(229, 236, 246); fill-opacity: 1; stroke-width: 0;"/></g><g class="layer-below"><g class="imagelayer"/><g class="shapelayer"/></g><g class="cartesianlayer"><g class="subplot xy"><g class="layer-subplot"><g class="shapelayer"/><g class="imagelayer"/></g><g class="minor-gridlayer"><g class="x"/><g class="y"/></g><g class="gridlayer"><g class="x"><path class="xgrid crisp" transform="translate(146.93,0)" d="M0,100v320" style="stroke: rgb(255, 255, 255); stroke-opacity: 1; stroke-width: 1px;"/><path class="xgrid crisp" transform="translate(228.59,0)" d="M0,100v320" style="stroke: rgb(255, 255, 255); stroke-opacity: 1; stroke-width: 1px;"/><path class="xgrid crisp" transform="translate(310.25,0)" d="M0,100v320" style="stroke: rgb(255, 255, 255); stroke-opacity: 1; stroke-width: 1px;"/><path class="xgrid crisp" transform="translate(389.23,0)" d="M0,100v320" style="stroke: rgb(255, 255, 255); stroke-opacity: 1; stroke-width: 1px;"/></g><g class="y"><path class="ygrid crisp" transform="translate(0,348.98)" d="M80,0h336" style="stroke: rgb(255, 255, 255); stroke-opacity: 1; stroke-width: 1px;"/><path class="ygrid crisp" transform="translate(0,297.38)" d="M80,0h336" style="stroke: rgb(255, 255, 255); stroke-opacity: 1; stroke-width: 1px;"/><path class="ygrid crisp" transform="translate(0,245.79)" d="M80,0h336" style="stroke: rgb(255, 255, 255); stroke-opacity: 1; stroke-width: 1px;"/><path class="ygrid crisp" transform="translate(0,194.19)" d="M80,0h336" style="stroke: rgb(255, 255, 255); stroke-opacity: 1; stroke-width: 1px;"/><path class="ygrid crisp" transform="translate(0,142.6)" d="M80,0h336" style="stroke: rgb(255, 255, 255); stroke-opacity: 1; stroke-width: 1px;"/></g></g><g class="zerolinelayer"><path class="yzl zl crisp" transform="translate(0,400.57)" d="M80,0h336" style="stroke: rgb(255, 255, 255); stroke-opacity: 1; stroke-width: 2px;"/></g><path class="xlines-below"/><path class="ylines-below"/><g class="overlines-below"/><g class="xaxislayer-below"/><g class="yaxislayer-below"/><g class="overaxes-below"/><g class="plot" transform="translate(80,100)" clip-path="url(#clip62381bxyplot)"><g class="scatterlayer mlayer"><g class="trace scatter tracebc60c2" style="stroke-miterlimit: 2;"><g class="fills"><g><path class="js-fill" d="M192.76,300.57L29.45,300.57L29.45,300.11L32.13,89.99L33.47,56.62L34.8,36.18L36.14,39.31L37.48,31.77L38.82,16.47L40.16,16L41.5,16.66L42.84,35.21L44.18,42.76L45.51,42.68L46.85,46.16L48.19,50.08L49.53,105.33L52.21,107.29L53.55,106.48L54.88,114.03L56.22,109.45L57.56,107.47L58.9,100.52L60.24,101.66L61.58,98.24L64.25,103.93L65.59,91.83L66.93,89.71L68.27,89.2L70.95,90.89L72.29,90.66L74.96,110.36L76.3,111.64L77.64,118.68L78.98,111.27L81.66,109.73L83,107.19L84.33,107.57L85.67,114.25L88.35,105.45L89.69,103.27L91.03,103.93L92.37,100.37L95.04,99.01L96.38,96.74L97.72,96.56L99.06,95.03L100.4,98.53L101.74,96.97L103.08,95.09L104.41,82.35L105.75,76.93L107.09,77.9L108.43,77.85L109.77,76.59L111.11,72.38L112.45,71.04L113.78,73.2L115.12,73.93L116.46,74.89L117.8,71.94L120.48,77.5L121.82,77.85L124.49,81.84L125.83,79.25L127.17,79.49L128.51,80.75L129.85,100.72L131.19,97.72L132.53,94.71L133.86,94.3L136.54,93.63L137.88,95.45L139.22,95.23L140.56,95.81L141.9,95.69L143.24,81.19L144.57,81.08L145.91,75.15L147.25,77.99L148.59,95.87L149.93,104L151.27,131.43L152.61,163.07L153.94,171.73L156.62,181.16L157.96,177.91L161.98,206.71L163.31,207.45L165.99,208.16L167.33,234.97L170.01,238.52L171.35,244.22L176.7,244.08L178.04,245.84L180.72,247.68L182.06,256.79L183.39,257.22L184.73,259.55L186.07,259.69L187.41,260.65L188.75,260.53L190.09,259.59L192.76,260.07" style="fill: rgb(99, 110, 250); fill-opacity: 0.5; stroke-width: 0;"/></g></g><g class="errorbars"/><g class="lines"><path class="js-line" d="M29.45,300.11L32.13,89.99L33.47,56.62L34.8,36.18L36.14,39.31L37.48,31.77L38.82,16.47L40.16,16L41.5,16.66L42.84,35.21L44.18,42.76L45.51,42.68L46.85,46.16L48.19,50.08L49.53,105.33L52.21,107.29L53.55,106.48L54.88,114.03L56.22,109.45L57.56,107.47L58.9,100.52L60.24,101.66L61.58,98.24L64.25,103.93L65.59,91.83L66.93,89.71L68.27,89.2L70.95,90.89L72.29,90.66L74.96,110.36L76.3,111.64L77.64,118.68L78.98,111.27L81.66,109.73L83,107.19L84.33,107.57L85.67,114.25L88.35,105.45L89.69,103.27L91.03,103.93L92.37,100.37L95.04,99.01L96.38,96.74L97.72,96.56L99.06,95.03L100.4,98.53L101.74,96.97L103.08,95.09L104.41,82.35L105.75,76.93L107.09,77.9L108.43,77.85L109.77,76.59L111.11,72.38L112.45,71.04L113.78,73.2L115.12,73.93L116.46,74.89L117.8,71.94L120.48,77.5L121.82,77.85L124.49,81.84L125.83,79.25L127.17,79.49L128.51,80.75L129.85,100.72L131.19,97.72L132.53,94.71L133.86,94.3L136.54,93.63L137.88,95.45L139.22,95.23L140.56,95.81L141.9,95.69L143.24,81.19L144.57,81.08L145.91,75.15L147.25,77.99L148.59,95.87L149.93,104L151.27,131.43L152.61,163.07L153.94,171.73L156.62,181.16L157.96,177.91L161.98,206.71L163.31,207.45L165.99,208.16L167.33,234.97L170.01,238.52L171.35,244.22L176.7,244.08L178.04,245.84L180.72,247.68L182.06,256.79L183.39,257.22L184.73,259.55L186.07,259.69L187.41,260.65L188.75,260.53L190.09,259.59L192.76,260.07" style="vector-effect: non-scaling-stroke; fill: none; stroke: rgb(99, 110, 250); stroke-opacity: 1; stroke-width: 2px; opacity: 1;"/></g><g class="points"/><g class="text"/></g><g class="trace scatter trace7b94d4" style="stroke-miterlimit: 2;"><g class="fills"><g><path class="js-fill" d="M336,300.57L57.56,300.57L57.56,289.55L58.9,287.32L60.24,286.79L64.25,285.88L65.59,284.39L72.29,283.37L73.63,283.42L76.3,281.9L77.64,281.02L81.66,279.7L83,279.8L87.01,280.12L88.35,279.26L101.74,281.24L103.08,279.7L104.41,280.03L105.75,281.49L112.45,282.08L113.78,282.52L115.12,282.16L116.46,282.69L124.49,283.28L125.83,282.25L141.9,282.08L143.24,282.96L147.25,282.22L148.59,281.68L151.27,281.08L152.61,278.94L157.96,278.7L159.3,280.94L161.98,282.03L163.31,281.6L164.65,282.11L165.99,281.6L170.01,282L171.35,282.43L175.36,282.64L176.7,282.92L187.41,282.23L188.75,282.52L195.44,281.57L196.78,280.85L199.46,280.34L200.8,280.21L203.47,280.18L204.81,279.46L206.15,279.48L207.49,278.18L210.17,279.65L211.51,279.63L227.57,280.68L228.91,279.95L231.59,280.91L232.92,280.9L236.94,280.88L238.28,280.45L240.96,279.95L242.29,279.18L244.97,277.83L246.31,278.15L253,276.8L254.34,276.87L261.04,275.08L262.37,273.86L265.05,269.62L266.39,269.71L267.73,267.75L269.07,267.65L270.41,266.32L271.75,266.18L273.08,265.51L274.42,262.83L281.12,264.19L282.45,267.08L285.13,266.9L286.47,265.53L290.49,265.58L291.82,265.29L297.18,266.11L298.52,267.57L305.21,267.23L306.55,267.23L307.89,267.22L309.23,266.38L311.9,266.55L313.24,264.94L319.94,264.85L321.27,265.24L322.61,265.9L323.95,277.11L325.29,277.05L326.63,275.25L327.97,272.52L329.31,272.22L330.65,270.95L331.98,271.47L333.32,272.59L334.66,272.69L336,272.68" style="fill: rgb(239, 85, 59); fill-opacity: 0.5; stroke-width: 0;"/></g></g><g class="errorbars"/><g class="lines"><path class="js-line" d="M57.56,289.55L58.9,287.32L60.24,286.79L64.25,285.88L65.59,284.39L72.29,283.37L73.63,283.42L76.3,281.9L77.64,281.02L81.66,279.7L83,279.8L87.01,280.12L88.35,279.26L101.74,281.24L103.08,279.7L104.41,280.03L105.75,281.49L112.45,282.08L113.78,282.52L115.12,282.16L116.46,282.69L124.49,283.28L125.83,282.25L141.9,282.08L143.24,282.96L147.25,282.22L148.59,281.68L151.27,281.08L152.61,278.94L157.96,278.7L159.3,280.94L161.98,282.03L163.31,281.6L164.65,282.11L165.99,281.6L170.01,282L171.35,282.43L175.36,282.64L176.7,282.92L187.41,282.23L188.75,282.52L195.44,281.57L196.78,280.85L199.46,280.34L200.8,280.21L203.47,280.18L204.81,279.46L206.15,279.48L207.49,278.18L210.17,279.65L211.51,279.63L227.57,280.68L228.91,279.95L231.59,280.91L232.92,280.9L236.94,280.88L238.28,280.45L240.96,279.95L242.29,279.18L244.97,277.83L246.31,278.15L253,276.8L254.34,276.87L261.04,275.08L262.37,273.86L265.05,269.62L266.39,269.71L267.73,267.75L269.07,267.65L270.41,266.32L271.75,266.18L273.08,265.51L274.42,262.83L281.12,264.19L282.45,267.08L285.13,266.9L286.47,265.53L290.49,265.58L291.82,265.29L297.18,266.11L298.52,267.57L305.21,267.23L306.55,267.23L307.89,267.22L309.23,266.38L311.9,266.55L313.24,264.94L319.94,264.85L321.27,265.24L322.61,265.9L323.95,277.11L325.29,277.05L326.63,275.25L327.97,272.52L329.31,272.22L330.65,270.95L331.98,271.47L333.32,272.59L334.66,272.69L336,272.68" style="vector-effect: non-scaling-stroke; fill: none; stroke: rgb(239, 85, 59); stroke-opacity: 1; stroke-width: 2px; opacity: 1;"/></g><g class="points"/><g class="text"/></g><g class="trace scatter tracef7204c" style="stroke-miterlimit: 2;"><g class="fills"><g><path class="js-fill" d="M336,300.57L101.74,300.57L101.74,298.35L111.11,297.33L112.45,296.66L117.8,296.62L119.14,296.57L123.16,296.79L124.49,296.16L149.93,295.47L151.27,295.13L156.62,294.7L157.96,295.78L161.98,296.78L163.31,297.05L165.99,297.3L167.33,296.64L180.72,296.11L182.06,295.77L200.8,295.53L202.14,293.94L204.81,294.22L206.15,294.51L207.49,295.94L208.83,295.94L211.51,296.42L212.84,296.35L215.52,295.81L216.86,295.79L243.63,295.74L244.97,295.6L255.68,293.69L257.02,292.93L259.7,292.39L261.04,291.15L265.05,288.17L266.39,287.76L271.75,286.48L273.08,286.02L277.1,285.21L278.44,283.28L281.12,280.53L282.45,280.67L285.13,280.29L286.47,279.84L290.49,278.99L291.82,278.15L294.5,277.83L295.84,276.38L297.18,275.76L298.52,273.64L301.2,273.75L302.53,271.67L303.87,271.37L305.21,269.5L310.57,265.91L311.9,265.93L315.92,266.47L317.26,265.71L318.6,265.33L319.94,266.28L321.27,272.03L322.61,286.17L323.95,286.47L325.29,283.87L326.63,280.33L327.97,279.61L329.31,279.02L330.65,276.6L333.32,272.67L334.66,272.14L336,272.37" style="fill: rgb(0, 204, 150); fill-opacity: 0.5; stroke-width: 0;"/></g></g><g class="errorbars"/><g class="lines"><path class="js-line" d="M101.74,298.35L111.11,297.33L112.45,296.66L117.8,296.62L119.14,296.57L123.16,296.79L124.49,296.16L149.93,295.47L151.27,295.13L156.62,294.7L157.96,295.78L161.98,296.78L163.31,297.05L165.99,297.3L167.33,296.64L180.72,296.11L182.06,295.77L200.8,295.53L202.14,293.94L204.81,294.22L206.15,294.51L207.49,295.94L208.83,295.94L211.51,296.42L212.84,296.35L215.52,295.81L216.86,295.79L243.63,295.74L244.97,295.6L255.68,293.69L257.02,292.93L259.7,292.39L261.04,291.15L265.05,288.17L266.39,287.76L271.75,286.48L273.08,286.02L277.1,285.21L278.44,283.28L281.12,280.53L282.45,280.67L285.13,280.29L286.47,279.84L290.49,278.99L291.82,278.15L294.5,277.83L295.84,276.38L297.18,275.76L298.52,273.64L301.2,273.75L302.53,271.67L303.87,271.37L305.21,269.5L310.57,265.91L311.9,265.93L315.92,266.47L317.26,265.71L318.6,265.33L319.94,266.28L321.27,272.03L322.61,286.17L323.95,286.47L325.29,283.87L326.63,280.33L327.97,279.61L329.31,279.02L330.65,276.6L333.32,272.67L334.66,272.14L336,272.37" style="vector-effect: non-scaling-stroke; fill: none; stroke: rgb(0, 204, 150); stroke-opacity: 1; stroke-width: 2px; opacity: 1;"/></g><g class="points"/><g class="text"/></g><g class="trace scatter trace289551" style="stroke-miterlimit: 2;"><g class="fills"><g><path class="js-fill" d="M336,300.57L83,300.57L83,300.5L336,300.37" style="fill: rgb(171, 99, 250); fill-opacity: 0.5; stroke-width: 0;"/></g></g><g class="errorbars"/><g class="lines"><path class="js-line" d="M83,300.5L336,300.37" style="vector-effect: non-scaling-stroke; fill: none; stroke: rgb(171, 99, 250); stroke-opacity: 1; stroke-width: 2px; opacity: 1;"/></g><g class="points"/><g class="text"/></g><g class="trace scatter tracee90ab4" style="stroke-miterlimit: 2;"><g class="fills"><g><path class="js-fill" d="M336,300.57L109.77,300.57L109.77,300.56L285.13,299.81L286.47,299.76L334.66,299.68L336,299.87" style="fill: rgb(255, 161, 90); fill-opacity: 0.5; stroke-width: 0;"/></g></g><g class="errorbars"/><g class="lines"><path class="js-line" d="M109.77,300.56L285.13,299.81L286.47,299.76L334.66,299.68L336,299.87" style="vector-effect: non-scaling-stroke; fill: none; stroke: rgb(255, 161, 90); stroke-opacity: 1; stroke-width: 2px; opacity: 1;"/></g><g class="points"/><g class="text"/></g><g class="trace scatter trace05d1c7" style="stroke-miterlimit: 2;"><g class="fills"><g><path class="js-fill" d="M336,300.57L41.5,300.57L41.5,301.23L45.51,301.58L46.85,301.75L48.19,301.79L49.53,299.57L50.87,302.32L52.21,302.13L57.56,302.4L58.9,302.12L64.25,301.93L65.59,301.78L85.67,301.26L87.01,301.74L115.12,302.99L116.46,302.88L120.48,303.2L121.82,303.1L149.93,302.85L151.27,302.19L156.62,302.62L157.96,302.33L159.3,302.7L160.64,303.92L163.31,302.86L164.65,302.9L168.67,302.73L170.01,301.78L171.35,302.51L172.69,302.05L175.36,302.03L176.7,302.26L182.06,303.75L183.39,303.12L187.41,303.2L188.75,302.91L192.76,303.66L194.1,302.92L198.12,303.22L199.46,303.05L203.47,303.82L204.81,303.38L206.15,303.9L207.49,303.56L212.84,303.02L214.18,303.42L216.86,301.52L218.2,302.73L219.54,301.86L220.88,301.92L226.23,302.62L227.57,300.34L228.91,301.23L230.25,300.62L232.92,301L234.26,300.97L243.63,301.28L244.97,301.56L246.31,301.77L247.65,301.12L250.33,300.83L251.67,301.2L258.36,301.27L259.7,301.02L266.39,300.78L267.73,300.47L270.41,301.16L271.75,300.68L273.08,300.68L274.42,301.65L279.78,301.74L281.12,300.91L282.45,299.65L283.79,300.52L285.13,299.13L286.47,299.72L290.49,299.54L291.82,298.91L293.16,299.4L294.5,298.49L297.18,297.66L298.52,297.3L301.2,298.14L302.53,297.85L303.87,297.3L305.21,297.9L307.89,297.62L309.23,298.2L319.94,298.7L321.27,298.17L323.95,300.31L325.29,299.15L331.98,298.92L333.32,298.4L336,297.63" style="fill: rgb(25, 211, 243); fill-opacity: 0.5; stroke-width: 0;"/></g></g><g class="errorbars"/><g class="lines"><path class="js-line" d="M41.5,301.23L45.51,301.58L46.85,301.75L48.19,301.79L49.53,299.57L50.87,302.32L52.21,302.13L57.56,302.4L58.9,302.12L64.25,301.93L65.59,301.78L85.67,301.26L87.01,301.74L115.12,302.99L116.46,302.88L120.48,303.2L121.82,303.1L149.93,302.85L151.27,302.19L156.62,302.62L157.96,302.33L159.3,302.7L160.64,303.92L163.31,302.86L164.65,302.9L168.67,302.73L170.01,301.78L171.35,302.51L172.69,302.05L175.36,302.03L176.7,302.26L182.06,303.75L183.39,303.12L187.41,303.2L188.75,302.91L192.76,303.66L194.1,302.92L198.12,303.22L199.46,303.05L203.47,303.82L204.81,303.38L206.15,303.9L207.49,303.56L212.84,303.02L214.18,303.42L216.86,301.52L218.2,302.73L219.54,301.86L220.88,301.92L226.23,302.62L227.57,300.34L228.91,301.23L230.25,300.62L232.92,301L234.26,300.97L243.63,301.28L244.97,301.56L246.31,301.77L247.65,301.12L250.33,300.83L251.67,301.2L258.36,301.27L259.7,301.02L266.39,300.78L267.73,300.47L270.41,301.16L271.75,300.68L273.08,300.68L274.42,301.65L279.78,301.74L281.12,300.91L282.45,299.65L283.79,300.52L285.13,299.13L286.47,299.72L290.49,299.54L291.82,298.91L293.16,299.4L294.5,298.49L297.18,297.66L298.52,297.3L301.2,298.14L302.53,297.85L303.87,297.3L305.21,297.9L307.89,297.62L309.23,298.2L319.94,298.7L321.27,298.17L323.95,300.31L325.29,299.15L331.98,298.92L333.32,298.4L336,297.63" style="vector-effect: non-scaling-stroke; fill: none; stroke: rgb(25, 211, 243); stroke-opacity: 1; stroke-width: 2px; opacity: 1;"/></g><g class="points"/><g class="text"/></g><g class="trace scatter trace924f19" style="stroke-miterlimit: 2;"><g class="fills"><g><path class="js-fill" d="M336,300.57L274.42,300.57L274.42,300.5L336,300.09" style="fill: rgb(255, 102, 146); fill-opacity: 0.5; stroke-width: 0;"/></g></g><g class="errorbars"/><g class="lines"><path class="js-line" d="M274.42,300.5L336,300.09" style="vector-effect: non-scaling-stroke; fill: none; stroke: rgb(255, 102, 146); stroke-opacity: 1; stroke-width: 2px; opacity: 1;"/></g><g class="points"/><g class="text"/></g><g class="trace scatter tracef42610" style="stroke-miterlimit: 2;"><g class="fills"><g><path class="js-fill" d="M336,300.57L101.74,300.57L101.74,298.07L111.11,297.18L112.45,296.78L117.8,296.81L119.14,296.77L127.17,297.04L128.51,296.94L155.28,296.36L156.62,296.12L180.72,296.42L182.06,296.41L232.92,296.26L234.26,296.32L255.68,295.42L257.02,294.95L262.37,293.9L263.71,293.44L278.44,292.85L279.78,291.82L282.45,291.27L283.79,291.27L290.49,290.75L291.82,290.08L297.18,289.63L298.52,287.8L301.2,287.64L302.53,286.56L303.87,286.28L305.21,284.91L307.89,284.49L309.23,284.44L314.58,284.65L315.92,284.93L319.94,283.94L321.27,284.17L322.61,286.39L323.95,286.81L326.63,285.92L327.97,286.09L330.65,286.44L331.98,286.24L336,286.3" style="fill: rgb(182, 232, 128); fill-opacity: 0.5; stroke-width: 0;"/></g></g><g class="errorbars"/><g class="lines"><path class="js-line" d="M101.74,298.07L111.11,297.18L112.45,296.78L117.8,296.81L119.14,296.77L127.17,297.04L128.51,296.94L155.28,296.36L156.62,296.12L180.72,296.42L182.06,296.41L232.92,296.26L234.26,296.32L255.68,295.42L257.02,294.95L262.37,293.9L263.71,293.44L278.44,292.85L279.78,291.82L282.45,291.27L283.79,291.27L290.49,290.75L291.82,290.08L297.18,289.63L298.52,287.8L301.2,287.64L302.53,286.56L303.87,286.28L305.21,284.91L307.89,284.49L309.23,284.44L314.58,284.65L315.92,284.93L319.94,283.94L321.27,284.17L322.61,286.39L323.95,286.81L326.63,285.92L327.97,286.09L330.65,286.44L331.98,286.24L336,286.3" style="vector-effect: non-scaling-stroke; fill: none; stroke: rgb(182, 232, 128); stroke-opacity: 1; stroke-width: 2px; opacity: 1;"/></g><g class="points"/><g class="text"/></g><g class="trace scatter trace65f28a" style="stroke-miterlimit: 2;"><g class="fills"><g><path class="js-fill" d="M93.71,300.57L9.37,300.57L9.37,300.57L68.27,300.42L69.61,300.43L93.71,300.48" style="fill: rgb(255, 151, 255); fill-opacity: 0.5; stroke-width: 0;"/></g></g><g class="errorbars"/><g class="lines"><path class="js-line" d="M9.37,300.57L68.27,300.42L69.61,300.43L93.71,300.48" style="vector-effect: non-scaling-stroke; fill: none; stroke: rgb(255, 151, 255); stroke-opacity: 1; stroke-width: 2px; opacity: 1;"/></g><g class="points"/><g class="text"/></g><g class="trace scatter traceecae8b" style="stroke-miterlimit: 2;"><g class="fills"><g><path class="js-fill" d="M336,300.57L297.18,300.57L297.18,300.57L336,300.47" style="fill: rgb(254, 203, 82); fill-opacity: 0.5; stroke-width: 0;"/></g></g><g class="errorbars"/><g class="lines"><path class="js-line" d="M297.18,300.57L336,300.47" style="vector-effect: non-scaling-stroke; fill: none; stroke: rgb(254, 203, 82); stroke-opacity: 1; stroke-width: 2px; opacity: 1;"/></g><g class="points"/><g class="text"/></g><g class="trace scatter trace352fb4" style="stroke-miterlimit: 2;"><g class="fills"><g><path class="js-fill" d="M336,300.57L77.64,300.57L77.64,300.5L91.03,300.02L92.37,299.98L153.94,299.72L155.28,299.7L186.07,299.98L187.41,299.95L207.49,299.9L208.83,299.92L239.62,299.87L240.96,299.84L309.23,298.45L310.57,297.74L314.58,297.65L315.92,300.76L319.94,297.64L321.27,297.74L322.61,297.9L323.95,299.32L326.63,299.08L327.97,297.68L336,297.71" style="fill: rgb(99, 110, 250); fill-opacity: 0.5; stroke-width: 0;"/></g></g><g class="errorbars"/><g class="lines"><path class="js-line" d="M77.64,300.5L91.03,300.02L92.37,299.98L153.94,299.72L155.28,299.7L186.07,299.98L187.41,299.95L207.49,299.9L208.83,299.92L239.62,299.87L240.96,299.84L309.23,298.45L310.57,297.74L314.58,297.65L315.92,300.76L319.94,297.64L321.27,297.74L322.61,297.9L323.95,299.32L326.63,299.08L327.97,297.68L336,297.71" style="vector-effect: non-scaling-stroke; fill: none; stroke: rgb(99, 110, 250); stroke-opacity: 1; stroke-width: 2px; opacity: 1;"/></g><g class="points"/><g class="text"/></g><g class="trace scatter trace98211a" style="stroke-miterlimit: 2;"><g class="fills"><g><path class="js-fill" d="M336,300.57L139.22,300.57L139.22,300.57L319.94,299.85L321.27,299.79L336,300.24" style="fill: rgb(239, 85, 59); fill-opacity: 0.5; stroke-width: 0;"/></g></g><g class="errorbars"/><g class="lines"><path class="js-line" d="M139.22,300.57L319.94,299.85L321.27,299.79L336,300.24" style="vector-effect: non-scaling-stroke; fill: none; stroke: rgb(239, 85, 59); stroke-opacity: 1; stroke-width: 2px; opacity: 1;"/></g><g class="points"/><g class="text"/></g><g class="trace scatter traced351ef" style="stroke-miterlimit: 2;"><g class="fills"><g><path class="js-fill" d="M336,300.57L269.07,300.57L269.07,300.57L273.08,299.83L274.42,299.61L281.12,298.85L282.45,299.01L295.84,298.09L297.18,297.91L319.94,298.01L321.27,298.53L322.61,299.61L323.95,299.48L331.98,297.97L333.32,298.02L336,298.06" style="fill: rgb(0, 204, 150); fill-opacity: 0.5; stroke-width: 0;"/></g></g><g class="errorbars"/><g class="lines"><path class="js-line" d="M269.07,300.57L273.08,299.83L274.42,299.61L281.12,298.85L282.45,299.01L295.84,298.09L297.18,297.91L319.94,298.01L321.27,298.53L322.61,299.61L323.95,299.48L331.98,297.97L333.32,298.02L336,298.06" style="vector-effect: non-scaling-stroke; fill: none; stroke: rgb(0, 204, 150); stroke-opacity: 1; stroke-width: 2px; opacity: 1;"/></g><g class="points"/><g class="text"/></g><g class="trace scatter tracece8c98" style="stroke-miterlimit: 2;"><g class="fills"><g><path class="js-fill" d="M336,300.57L269.07,300.57L269.07,300.23L336,300.3" style="fill: rgb(171, 99, 250); fill-opacity: 0.5; stroke-width: 0;"/></g></g><g class="errorbars"/><g class="lines"><path class="js-line" d="M269.07,300.23L336,300.3" style="vector-effect: non-scaling-stroke; fill: none; stroke: rgb(171, 99, 250); stroke-opacity: 1; stroke-width: 2px; opacity: 1;"/></g><g class="points"/><g class="text"/></g><g class="trace scatter trace520fcb" style="stroke-miterlimit: 2;"><g class="fills"><g><path class="js-fill" d="M336,300.57L242.29,300.57L242.29,300.57L261.04,299.98L262.37,299.65L274.42,299.43L275.76,299.43L282.45,299.09L283.79,299.1L291.82,298.71L293.16,298.82L307.89,298.79L309.23,298.72L313.24,299.23L314.58,299.27L321.27,299.71L322.61,300.52L327.97,300.41L329.31,300.31L330.65,299.38L331.98,299.6L336,299.75" style="fill: rgb(255, 161, 90); fill-opacity: 0.5; stroke-width: 0;"/></g></g><g class="errorbars"/><g class="lines"><path class="js-line" d="M242.29,300.57L261.04,299.98L262.37,299.65L274.42,299.43L275.76,299.43L282.45,299.09L283.79,299.1L291.82,298.71L293.16,298.82L307.89,298.79L309.23,298.72L313.24,299.23L314.58,299.27L321.27,299.71L322.61,300.52L327.97,300.41L329.31,300.31L330.65,299.38L331.98,299.6L336,299.75" style="vector-effect: non-scaling-stroke; fill: none; stroke: rgb(255, 161, 90); stroke-opacity: 1; stroke-width: 2px; opacity: 1;"/></g><g class="points"/><g class="text"/></g><g class="trace scatter trace9ff275" style="stroke-miterlimit: 2;"><g class="fills"><g><path class="js-fill" d="M336,300.57L101.74,300.57L101.74,300.55L178.04,300.52L179.38,300.27L261.04,300.1L262.37,299.58L285.13,298.94L286.47,298.94L294.5,298.7L295.84,298.17L303.87,298.03L305.21,297.59L318.6,296.45L319.94,296.94L321.27,297.53L322.61,299.12L326.63,298.71L327.97,298.29L336,297.19" style="fill: rgb(25, 211, 243); fill-opacity: 0.5; stroke-width: 0;"/></g></g><g class="errorbars"/><g class="lines"><path class="js-line" d="M101.74,300.55L178.04,300.52L179.38,300.27L261.04,300.1L262.37,299.58L285.13,298.94L286.47,298.94L294.5,298.7L295.84,298.17L303.87,298.03L305.21,297.59L318.6,296.45L319.94,296.94L321.27,297.53L322.61,299.12L326.63,298.71L327.97,298.29L336,297.19" style="vector-effect: non-scaling-stroke; fill: none; stroke: rgb(25, 211, 243); stroke-opacity: 1; stroke-width: 2px; opacity: 1;"/></g><g class="points"/><g class="text"/></g><g class="trace scatter trace5ccc93" style="stroke-miterlimit: 2;"><g class="fills"><g><path class="js-fill" d="M336,300.57L297.18,300.57L297.18,300.47L336,300.58" style="fill: rgb(255, 102, 146); fill-opacity: 0.5; stroke-width: 0;"/></g></g><g class="errorbars"/><g class="lines"><path class="js-line" d="M297.18,300.47L336,300.58" style="vector-effect: non-scaling-stroke; fill: none; stroke: rgb(255, 102, 146); stroke-opacity: 1; stroke-width: 2px; opacity: 1;"/></g><g class="points"/><g class="text"/></g><g class="trace scatter trace222e46" style="stroke-miterlimit: 2;"><g class="fills"><g><path class="js-fill" d="M336,300.57L101.74,300.57L101.74,300.88L123.16,300.36L124.49,300.04L139.22,299.69L140.56,300L148.59,299.43L149.93,299.46L156.62,299.41L157.96,300.18L165.99,301.03L167.33,300.4L176.7,300.56L178.04,300.65L195.44,299.76L196.78,299.48L200.8,299.76L202.14,298.2L204.81,299.02L206.15,299.34L207.49,300.33L208.83,300.32L211.51,300.79L212.84,300.76L215.52,300.35L216.86,300.46L244.97,300.2L246.31,300.1L254.34,299.42L255.68,299.05L259.7,298.57L261.04,297.97L263.71,297.08L265.05,296.44L277.1,294.29L278.44,292.63L279.78,292.51L281.12,291.5L283.79,291.68L285.13,291.25L287.81,290.78L289.15,290.78L307.89,287.19L309.23,286.34L313.24,285.82L314.58,285.89L318.6,286.17L319.94,286.54L321.27,291.45L322.61,301.69L323.95,301.57L325.29,300L326.63,296.75L327.97,296.28L329.31,295.53L330.65,293.82L333.32,290.07L334.66,289.88L336,289.95" style="fill: rgb(182, 232, 128); fill-opacity: 0.5; stroke-width: 0;"/></g></g><g class="errorbars"/><g class="lines"><path class="js-line" d="M101.74,300.88L123.16,300.36L124.49,300.04L139.22,299.69L140.56,300L148.59,299.43L149.93,299.46L156.62,299.41L157.96,300.18L165.99,301.03L167.33,300.4L176.7,300.56L178.04,300.65L195.44,299.76L196.78,299.48L200.8,299.76L202.14,298.2L204.81,299.02L206.15,299.34L207.49,300.33L208.83,300.32L211.51,300.79L212.84,300.76L215.52,300.35L216.86,300.46L244.97,300.2L246.31,300.1L254.34,299.42L255.68,299.05L259.7,298.57L261.04,297.97L263.71,297.08L265.05,296.44L277.1,294.29L278.44,292.63L279.78,292.51L281.12,291.5L283.79,291.68L285.13,291.25L287.81,290.78L289.15,290.78L307.89,287.19L309.23,286.34L313.24,285.82L314.58,285.89L318.6,286.17L319.94,286.54L321.27,291.45L322.61,301.69L323.95,301.57L325.29,300L326.63,296.75L327.97,296.28L329.31,295.53L330.65,293.82L333.32,290.07L334.66,289.88L336,289.95" style="vector-effect: non-scaling-stroke; fill: none; stroke: rgb(182, 232, 128); stroke-opacity: 1; stroke-width: 2px; opacity: 1;"/></g><g class="points"/><g class="text"/></g><g class="trace scatter trace1c71bd" style="stroke-miterlimit: 2;"><g class="fills"><g><path class="js-fill" d="M215.52,300.57L140.56,300.57L140.56,300.57L155.28,299.9L156.62,299.73L168.67,299.67L170.01,300.12L215.52,300.38" style="fill: rgb(255, 151, 255); fill-opacity: 0.5; stroke-width: 0;"/></g></g><g class="errorbars"/><g class="lines"><path class="js-line" d="M140.56,300.57L155.28,299.9L156.62,299.73L168.67,299.67L170.01,300.12L215.52,300.38" style="vector-effect: non-scaling-stroke; fill: none; stroke: rgb(255, 151, 255); stroke-opacity: 1; stroke-width: 2px; opacity: 1;"/></g><g class="points"/><g class="text"/></g><g class="trace scatter trace6ccee4" style="stroke-miterlimit: 2;"><g class="fills"><g><path class="js-fill" d="M215.52,300.57L140.56,300.57L140.56,301.33L143.24,298.88L144.57,298.7L145.91,299.75L147.25,299.55L149.93,300.17L151.27,299.4L153.94,298.3L155.28,297.96L157.96,296.5L159.3,298.47L161.98,301.75L163.31,301.68L167.33,302.37L168.67,301.99L171.35,302.49L172.69,302.4L186.07,302.52L187.41,302.34L190.09,302.22L191.43,301.61L204.81,301.4L206.15,302.32L215.52,302.14" style="fill: rgb(254, 203, 82); fill-opacity: 0.5; stroke-width: 0;"/></g></g><g class="errorbars"/><g class="lines"><path class="js-line" d="M140.56,301.33L143.24,298.88L144.57,298.7L145.91,299.75L147.25,299.55L149.93,300.17L151.27,299.4L153.94,298.3L155.28,297.96L157.96,296.5L159.3,298.47L161.98,301.75L163.31,301.68L167.33,302.37L168.67,301.99L171.35,302.49L172.69,302.4L186.07,302.52L187.41,302.34L190.09,302.22L191.43,301.61L204.81,301.4L206.15,302.32L215.52,302.14" style="vector-effect: non-scaling-stroke; fill: none; stroke: rgb(254, 203, 82); stroke-opacity: 1; stroke-width: 2px; opacity: 1;"/></g><g class="points"/><g class="text"/></g><g class="trace scatter trace499da5" style="stroke-miterlimit: 2;"><g class="fills"><g><path class="js-fill" d="M215.52,300.57L140.56,300.57L140.56,300.56L145.91,299.44L147.25,299.39L170.01,299.93L171.35,300.01L215.52,300.05" style="fill: rgb(99, 110, 250); fill-opacity: 0.5; stroke-width: 0;"/></g></g><g class="errorbars"/><g class="lines"><path class="js-line" d="M140.56,300.56L145.91,299.44L147.25,299.39L170.01,299.93L171.35,300.01L215.52,300.05" style="vector-effect: non-scaling-stroke; fill: none; stroke: rgb(99, 110, 250); stroke-opacity: 1; stroke-width: 2px; opacity: 1;"/></g><g class="points"/><g class="text"/></g><g class="trace scatter traceecc855" style="stroke-miterlimit: 2;"><g class="fills"><g><path class="js-fill" d="M321.27,300.57L250.33,300.57L250.33,300.57L253,300.57L254.34,299.35L255.68,298.3L257.02,298.88L261.04,298.41L262.37,298.35L263.71,300.78L270.41,298.08L278.44,297.69L279.78,297.28L281.12,297.26L282.45,298.09L283.79,299.45L285.13,299.7L291.82,300.36L293.16,300.4L321.27,300.64" style="fill: rgb(239, 85, 59); fill-opacity: 0.5; stroke-width: 0;"/></g></g><g class="errorbars"/><g class="lines"><path class="js-line" d="M250.33,300.57L253,300.57L254.34,299.35L255.68,298.3L257.02,298.88L261.04,298.41L262.37,298.35L263.71,300.78L270.41,298.08L278.44,297.69L279.78,297.28L281.12,297.26L282.45,298.09L283.79,299.45L285.13,299.7L291.82,300.36L293.16,300.4L321.27,300.64" style="vector-effect: non-scaling-stroke; fill: none; stroke: rgb(239, 85, 59); stroke-opacity: 1; stroke-width: 2px; opacity: 1;"/></g><g class="points"/><g class="text"/></g><g class="trace scatter tracece11e1" style="stroke-miterlimit: 2;"><g class="fills"><g><path class="js-fill" d="M321.27,300.57L250.33,300.57L250.33,300.54L253,299.51L254.34,297.62L257.02,294.78L258.36,293.48L265.05,291.15L266.39,291.48L271.75,291.12L273.08,291.83L275.76,291.57L277.1,291.6L278.44,291.63L279.78,290.79L281.12,290.1L282.45,290.7L285.13,295.74L286.47,296.7L290.49,298.67L291.82,299.53L299.86,300.42L301.2,300.99L307.89,298.04L309.23,298.13L311.9,298.44L313.24,302.47L317.26,301.83L318.6,302.35L321.27,302.69" style="fill: rgb(0, 204, 150); fill-opacity: 0.5; stroke-width: 0;"/></g></g><g class="errorbars"/><g class="lines"><path class="js-line" d="M250.33,300.54L253,299.51L254.34,297.62L257.02,294.78L258.36,293.48L265.05,291.15L266.39,291.48L271.75,291.12L273.08,291.83L275.76,291.57L277.1,291.6L278.44,291.63L279.78,290.79L281.12,290.1L282.45,290.7L285.13,295.74L286.47,296.7L290.49,298.67L291.82,299.53L299.86,300.42L301.2,300.99L307.89,298.04L309.23,298.13L311.9,298.44L313.24,302.47L317.26,301.83L318.6,302.35L321.27,302.69" style="vector-effect: non-scaling-stroke; fill: none; stroke: rgb(0, 204, 150); stroke-opacity: 1; stroke-width: 2px; opacity: 1;"/></g><g class="points"/><g class="text"/></g><g class="trace scatter tracec4139e" style="stroke-miterlimit: 2;"><g class="fills"><g><path class="js-fill" d="M321.27,300.57L250.33,300.57L250.33,300.52L254.34,300.48L255.68,299.54L283.79,299.76L285.13,300.62L295.84,300.72L297.18,300.72L321.27,300.59" style="fill: rgb(171, 99, 250); fill-opacity: 0.5; stroke-width: 0;"/></g></g><g class="errorbars"/><g class="lines"><path class="js-line" d="M250.33,300.52L254.34,300.48L255.68,299.54L283.79,299.76L285.13,300.62L295.84,300.72L297.18,300.72L321.27,300.59" style="vector-effect: non-scaling-stroke; fill: none; stroke: rgb(171, 99, 250); stroke-opacity: 1; stroke-width: 2px; opacity: 1;"/></g><g class="points"/><g class="text"/></g><g class="trace scatter trace769b61" style="stroke-miterlimit: 2;"><g class="fills"><g><path class="js-fill" d="M321.27,300.57L250.33,300.57L250.33,300.57L257.02,299.96L258.36,299.15L271.75,298.42L273.08,298.31L286.47,298.42L287.81,298.66L291.82,299.21L293.16,299.33L314.58,299.43L315.92,299.42L321.27,299.47" style="fill: rgb(255, 161, 90); fill-opacity: 0.5; stroke-width: 0;"/></g></g><g class="errorbars"/><g class="lines"><path class="js-line" d="M250.33,300.57L257.02,299.96L258.36,299.15L271.75,298.42L273.08,298.31L286.47,298.42L287.81,298.66L291.82,299.21L293.16,299.33L314.58,299.43L315.92,299.42L321.27,299.47" style="vector-effect: non-scaling-stroke; fill: none; stroke: rgb(255, 161, 90); stroke-opacity: 1; stroke-width: 2px; opacity: 1;"/></g><g class="points"/><g class="text"/></g><g class="trace scatter trace7a2dd0" style="stroke-miterlimit: 2;"><g class="fills"><g><path class="js-fill" d="M210.17,300.57L0,300.57L0,300.51L1.34,299.61L2.68,296.68L4.02,294.06L5.35,287.54L6.69,285.93L8.03,281.22L13.39,272.97L14.73,271.8L18.74,267.38L20.08,259.79L22.76,248.14L24.1,242.7L26.77,243.07L28.11,245.66L29.45,243.11L30.79,249.26L32.13,245.24L33.47,246.61L34.8,247.9L36.14,246.73L37.48,250.41L38.82,250.57L41.5,260.01L42.84,263.78L45.51,269.82L46.85,270.69L48.19,272.79L49.53,271.49L50.87,272.6L52.21,275.37L57.56,273.74L58.9,274.79L60.24,276.3L61.58,276.36L66.93,277.45L68.27,277.21L73.63,279.07L74.96,280.09L76.3,279.13L77.64,280.21L80.32,279.85L81.66,280.17L83,280.66L84.33,282.77L87.01,284.78L88.35,284.16L89.69,282.81L91.03,283.9L100.4,284.49L101.74,283.91L105.75,284.16L107.09,284.02L112.45,283.37L113.78,282.92L115.12,279.85L116.46,281.32L117.8,280.77L119.14,277.53L121.82,277.32L123.16,278.83L124.49,273.46L125.83,272.5L128.51,271.86L129.85,270.86L131.19,269.96L132.53,270.09L136.54,273.25L137.88,272.91L139.22,272.96L140.56,271.66L141.9,270.8L143.24,271.42L145.91,267.95L147.25,268.42L152.61,268.58L153.94,267.12L156.62,267.49L157.96,268.03L160.64,278.56L161.98,278.36L167.33,281.52L168.67,280.69L172.69,278.92L174.02,278.68L176.7,280.02L178.04,279.59L180.72,278.34L182.06,277.86L184.73,277.71L186.07,278.27L188.75,276.75L190.09,276.58L192.76,275.63L194.1,275L195.44,275.25L196.78,274.27L198.12,274.35L199.46,273.63L202.14,274.29L203.47,272.89L207.49,273.16L208.83,274.58L210.17,276.07" style="fill: rgb(25, 211, 243); fill-opacity: 0.5; stroke-width: 0;"/></g></g><g class="errorbars"/><g class="lines"><path class="js-line" d="M0,300.51L1.34,299.61L2.68,296.68L4.02,294.06L5.35,287.54L6.69,285.93L8.03,281.22L13.39,272.97L14.73,271.8L18.74,267.38L20.08,259.79L22.76,248.14L24.1,242.7L26.77,243.07L28.11,245.66L29.45,243.11L30.79,249.26L32.13,245.24L33.47,246.61L34.8,247.9L36.14,246.73L37.48,250.41L38.82,250.57L41.5,260.01L42.84,263.78L45.51,269.82L46.85,270.69L48.19,272.79L49.53,271.49L50.87,272.6L52.21,275.37L57.56,273.74L58.9,274.79L60.24,276.3L61.58,276.36L66.93,277.45L68.27,277.21L73.63,279.07L74.96,280.09L76.3,279.13L77.64,280.21L80.32,279.85L81.66,280.17L83,280.66L84.33,282.77L87.01,284.78L88.35,284.16L89.69,282.81L91.03,283.9L100.4,284.49L101.74,283.91L105.75,284.16L107.09,284.02L112.45,283.37L113.78,282.92L115.12,279.85L116.46,281.32L117.8,280.77L119.14,277.53L121.82,277.32L123.16,278.83L124.49,273.46L125.83,272.5L128.51,271.86L129.85,270.86L131.19,269.96L132.53,270.09L136.54,273.25L137.88,272.91L139.22,272.96L140.56,271.66L141.9,270.8L143.24,271.42L145.91,267.95L147.25,268.42L152.61,268.58L153.94,267.12L156.62,267.49L157.96,268.03L160.64,278.56L161.98,278.36L167.33,281.52L168.67,280.69L172.69,278.92L174.02,278.68L176.7,280.02L178.04,279.59L180.72,278.34L182.06,277.86L184.73,277.71L186.07,278.27L188.75,276.75L190.09,276.58L192.76,275.63L194.1,275L195.44,275.25L196.78,274.27L198.12,274.35L199.46,273.63L202.14,274.29L203.47,272.89L207.49,273.16L208.83,274.58L210.17,276.07" style="vector-effect: non-scaling-stroke; fill: none; stroke: rgb(25, 211, 243); stroke-opacity: 1; stroke-width: 2px; opacity: 1;"/></g><g class="points"/><g class="text"/></g><g class="trace scatter trace2fd0fa" style="stroke-miterlimit: 2;"><g class="fills"><g><path class="js-fill" d="M336,300.57L179.38,300.57L179.38,299.49L184.73,298.69L186.07,299.25L188.75,297.73L190.09,297.56L192.76,296.62L194.1,295.98L195.44,296.23L196.78,295.25L198.12,295.33L199.46,294.61L202.14,295.27L203.47,293.87L207.49,294.14L208.83,295.56L211.51,297.45L212.84,297.42L214.18,297.16L215.52,295.56L223.55,294.98L224.89,295L226.23,295.45L227.57,294.85L234.26,295.5L235.6,294.83L238.28,294.3L239.62,293.97L243.63,291.62L244.97,288.77L246.31,289L247.65,286.14L248.99,286.36L250.33,285.47L253,283.39L254.34,283.79L259.7,277.73L261.04,277.65L262.37,276.27L263.71,271.12L266.39,266.75L267.73,265.85L269.07,264.63L270.41,265.26L277.1,253.66L278.44,252.86L281.12,241.59L282.45,239.45L285.13,239.9L286.47,236.46L289.15,234.39L290.49,232.04L291.82,228L293.16,227.59L294.5,220.23L295.84,218.65L297.18,214.1L298.52,206.11L299.86,195.8L301.2,194.14L303.87,182.12L305.21,181.32L306.55,173.21L307.89,172.16L309.23,170.32L310.57,167L311.9,167.82L313.24,173.49L314.58,175.01L315.92,173.33L318.6,171.85L319.94,174.46L321.27,182.16L322.61,197.97L323.95,229.44L325.29,220.87L327.97,202.63L329.31,202.34L331.98,179.04L333.32,179.81L334.66,178.86L336,179.04" style="fill: rgb(255, 102, 146); fill-opacity: 0.5; stroke-width: 0;"/></g></g><g class="errorbars"/><g class="lines"><path class="js-line" d="M179.38,299.49L184.73,298.69L186.07,299.25L188.75,297.73L190.09,297.56L192.76,296.62L194.1,295.98L195.44,296.23L196.78,295.25L198.12,295.33L199.46,294.61L202.14,295.27L203.47,293.87L207.49,294.14L208.83,295.56L211.51,297.45L212.84,297.42L214.18,297.16L215.52,295.56L223.55,294.98L224.89,295L226.23,295.45L227.57,294.85L234.26,295.5L235.6,294.83L238.28,294.3L239.62,293.97L243.63,291.62L244.97,288.77L246.31,289L247.65,286.14L248.99,286.36L250.33,285.47L253,283.39L254.34,283.79L259.7,277.73L261.04,277.65L262.37,276.27L263.71,271.12L266.39,266.75L267.73,265.85L269.07,264.63L270.41,265.26L277.1,253.66L278.44,252.86L281.12,241.59L282.45,239.45L285.13,239.9L286.47,236.46L289.15,234.39L290.49,232.04L291.82,228L293.16,227.59L294.5,220.23L295.84,218.65L297.18,214.1L298.52,206.11L299.86,195.8L301.2,194.14L303.87,182.12L305.21,181.32L306.55,173.21L307.89,172.16L309.23,170.32L310.57,167L311.9,167.82L313.24,173.49L314.58,175.01L315.92,173.33L318.6,171.85L319.94,174.46L321.27,182.16L322.61,197.97L323.95,229.44L325.29,220.87L327.97,202.63L329.31,202.34L331.98,179.04L333.32,179.81L334.66,178.86L336,179.04" style="vector-effect: non-scaling-stroke; fill: none; stroke: rgb(255, 102, 146); stroke-opacity: 1; stroke-width: 2px; opacity: 1;"/></g><g class="points"/><g class="text"/></g><g class="trace scatter trace637b33" style="stroke-miterlimit: 2;"><g class="fills"><g><path class="js-fill" d="M336,300.57L159.3,300.57L159.3,300.58L170.01,300.2L171.35,300.22L203.47,300.13L204.81,300.22L219.54,300.06L220.88,300L258.36,299.15L259.7,298.29L266.39,298.09L267.73,297.76L269.07,299.65L270.41,299.75L278.44,298.51L279.78,296.88L286.47,295.95L287.81,294.48L295.84,293.89L297.18,293.03L302.53,292.55L303.87,291.91L325.29,290.84L326.63,289.81L330.65,289.04L331.98,287.65L334.66,287.15L336,302.91" style="fill: rgb(182, 232, 128); fill-opacity: 0.5; stroke-width: 0;"/></g></g><g class="errorbars"/><g class="lines"><path class="js-line" d="M159.3,300.58L170.01,300.2L171.35,300.22L203.47,300.13L204.81,300.22L219.54,300.06L220.88,300L258.36,299.15L259.7,298.29L266.39,298.09L267.73,297.76L269.07,299.65L270.41,299.75L278.44,298.51L279.78,296.88L286.47,295.95L287.81,294.48L295.84,293.89L297.18,293.03L302.53,292.55L303.87,291.91L325.29,290.84L326.63,289.81L330.65,289.04L331.98,287.65L334.66,287.15L336,302.91" style="vector-effect: non-scaling-stroke; fill: none; stroke: rgb(182, 232, 128); stroke-opacity: 1; stroke-width: 2px; opacity: 1;"/></g><g class="points"/><g class="text"/></g><g class="trace scatter trace551e39" style="stroke-miterlimit: 2;"><g class="fills"><g><path class="js-fill" d="M336,300.57L297.18,300.57L297.18,300.57L323.95,300.33L325.29,300.82L334.66,300.94L336,300.94" style="fill: rgb(255, 151, 255); fill-opacity: 0.5; stroke-width: 0;"/></g></g><g class="errorbars"/><g class="lines"><path class="js-line" d="M297.18,300.57L323.95,300.33L325.29,300.82L334.66,300.94L336,300.94" style="vector-effect: non-scaling-stroke; fill: none; stroke: rgb(255, 151, 255); stroke-opacity: 1; stroke-width: 2px; opacity: 1;"/></g><g class="points"/><g class="text"/></g><g class="trace scatter trace86c5f7" style="stroke-miterlimit: 2;"><g class="fills"><g><path class="js-fill" d="M336,300.57L239.62,300.57L239.62,299.93L269.07,299.84L270.41,299.81L299.86,298.9L301.2,298.83L336,298.47" style="fill: rgb(254, 203, 82); fill-opacity: 0.5; stroke-width: 0;"/></g></g><g class="errorbars"/><g class="lines"><path class="js-line" d="M239.62,299.93L269.07,299.84L270.41,299.81L299.86,298.9L301.2,298.83L336,298.47" style="vector-effect: non-scaling-stroke; fill: none; stroke: rgb(254, 203, 82); stroke-opacity: 1; stroke-width: 2px; opacity: 1;"/></g><g class="points"/><g class="text"/></g><g class="trace scatter trace5b4500" style="stroke-miterlimit: 2;"><g class="fills"><g><path class="js-fill" d="M336,300.57L57.56,300.57L57.56,300.52L58.9,298.22L60.24,297.82L72.29,296.52L73.63,297.02L84.33,296.39L85.67,296.46L89.69,295.26L91.03,295.13L95.04,295.27L96.38,295.25L101.74,295.18L103.08,293.61L123.16,294.94L124.49,294.91L133.86,294.73L135.2,294.75L144.57,295.24L145.91,294.58L157.96,294.55L159.3,296.38L160.64,296.61L161.98,295.92L167.33,295.31L168.67,295.26L178.04,295.59L179.38,295.27L194.1,294.84L195.44,294.55L198.12,293.52L199.46,293.55L212.84,292.91L214.18,293.09L216.86,293.84L218.2,293.86L227.57,293.94L228.91,293.2L232.92,293.28L234.26,293.58L240.96,293.53L242.29,292.79L244.97,292.15L246.31,292.44L251.67,292.23L253,292.22L255.68,292.14L257.02,291.58L261.04,291.26L262.37,289.97L263.71,287.31L265.05,287.1L267.73,286.67L269.07,286.62L271.75,285.79L273.08,285.69L279.78,287.3L281.12,288.2L285.13,288.34L286.47,287.14L297.18,287.93L298.52,288.74L309.23,288.34L310.57,288.31L318.6,288.13L319.94,287.89L322.61,287.8L323.95,288.59L330.65,287.9L331.98,288.18L336,288.48" style="fill: rgb(99, 110, 250); fill-opacity: 0.5; stroke-width: 0;"/></g></g><g class="errorbars"/><g class="lines"><path class="js-line" d="M57.56,300.52L58.9,298.22L60.24,297.82L72.29,296.52L73.63,297.02L84.33,296.39L85.67,296.46L89.69,295.26L91.03,295.13L95.04,295.27L96.38,295.25L101.74,295.18L103.08,293.61L123.16,294.94L124.49,294.91L133.86,294.73L135.2,294.75L144.57,295.24L145.91,294.58L157.96,294.55L159.3,296.38L160.64,296.61L161.98,295.92L167.33,295.31L168.67,295.26L178.04,295.59L179.38,295.27L194.1,294.84L195.44,294.55L198.12,293.52L199.46,293.55L212.84,292.91L214.18,293.09L216.86,293.84L218.2,293.86L227.57,293.94L228.91,293.2L232.92,293.28L234.26,293.58L240.96,293.53L242.29,292.79L244.97,292.15L246.31,292.44L251.67,292.23L253,292.22L255.68,292.14L257.02,291.58L261.04,291.26L262.37,289.97L263.71,287.31L265.05,287.1L267.73,286.67L269.07,286.62L271.75,285.79L273.08,285.69L279.78,287.3L281.12,288.2L285.13,288.34L286.47,287.14L297.18,287.93L298.52,288.74L309.23,288.34L310.57,288.31L318.6,288.13L319.94,287.89L322.61,287.8L323.95,288.59L330.65,287.9L331.98,288.18L336,288.48" style="vector-effect: non-scaling-stroke; fill: none; stroke: rgb(99, 110, 250); stroke-opacity: 1; stroke-width: 2px; opacity: 1;"/></g><g class="points"/><g class="text"/></g><g class="trace scatter trace36e61a" style="stroke-miterlimit: 2;"><g class="fills"><g><path class="js-fill" d="M336,300.57L57.56,300.57L57.56,289.6L62.92,289.21L64.25,289.16L65.59,287.81L66.93,287.57L69.61,287.6L70.95,287.35L73.63,286.97L74.96,286.74L77.64,285.12L78.98,284.68L84.33,284.26L85.67,284.67L99.06,286.32L100.4,286.37L104.41,286.88L105.75,288.01L124.49,288.94L125.83,288.04L148.59,287.68L149.93,287.31L151.27,287.08L152.61,284.92L157.96,284.73L159.3,285.13L163.31,286.58L164.65,286.75L175.36,287.63L176.7,287.88L188.75,287.87L190.09,287.89L194.1,287.59L195.44,287.59L206.15,286.93L207.49,285.88L208.83,287.24L210.17,287.31L228.91,287.32L230.25,288.21L239.62,287.4L240.96,286.99L247.65,286.17L248.99,285.44L263.71,284.31L265.05,283.09L266.39,283.05L267.73,281.65L271.75,280.96L273.08,280.39L274.42,277.45L275.76,277.22L278.44,277.42L279.78,277.03L281.12,276.56L282.45,279.33L289.15,278.95L290.49,279.01L297.18,278.75L298.52,279.4L307.89,279.45L309.23,278.61L311.9,278.74L313.24,277.14L319.94,277.54L321.27,277.9L322.61,278.67L323.95,289.09L325.29,289.19L326.63,287.47L327.97,285.23L329.31,285.05L330.65,283.62L331.98,283.86L333.32,284.86L334.66,284.8L336,284.78" style="fill: rgb(239, 85, 59); fill-opacity: 0.5; stroke-width: 0;"/></g></g><g class="errorbars"/><g class="lines"><path class="js-line" d="M57.56,289.6L62.92,289.21L64.25,289.16L65.59,287.81L66.93,287.57L69.61,287.6L70.95,287.35L73.63,286.97L74.96,286.74L77.64,285.12L78.98,284.68L84.33,284.26L85.67,284.67L99.06,286.32L100.4,286.37L104.41,286.88L105.75,288.01L124.49,288.94L125.83,288.04L148.59,287.68L149.93,287.31L151.27,287.08L152.61,284.92L157.96,284.73L159.3,285.13L163.31,286.58L164.65,286.75L175.36,287.63L176.7,287.88L188.75,287.87L190.09,287.89L194.1,287.59L195.44,287.59L206.15,286.93L207.49,285.88L208.83,287.24L210.17,287.31L228.91,287.32L230.25,288.21L239.62,287.4L240.96,286.99L247.65,286.17L248.99,285.44L263.71,284.31L265.05,283.09L266.39,283.05L267.73,281.65L271.75,280.96L273.08,280.39L274.42,277.45L275.76,277.22L278.44,277.42L279.78,277.03L281.12,276.56L282.45,279.33L289.15,278.95L290.49,279.01L297.18,278.75L298.52,279.4L307.89,279.45L309.23,278.61L311.9,278.74L313.24,277.14L319.94,277.54L321.27,277.9L322.61,278.67L323.95,289.09L325.29,289.19L326.63,287.47L327.97,285.23L329.31,285.05L330.65,283.62L331.98,283.86L333.32,284.86L334.66,284.8L336,284.78" style="vector-effect: non-scaling-stroke; fill: none; stroke: rgb(239, 85, 59); stroke-opacity: 1; stroke-width: 2px; opacity: 1;"/></g><g class="points"/><g class="text"/></g><g class="trace scatter trace113829" style="stroke-miterlimit: 2;"><g class="fills"><g><path class="js-fill" d="M336,300.57L58.9,300.57L58.9,300.98L65.59,301.28L66.93,300.33L91.03,299.34L92.37,299.34L132.53,298.72L133.86,298.42L141.9,298.66L143.24,298.66L156.62,299.08L157.96,299.34L170.01,299.63L171.35,299.48L204.81,298.92L206.15,299L262.37,299.1L263.71,299.32L298.52,299.16L299.86,298.86L302.53,298.01L303.87,298.05L319.94,298.52L321.27,299.19L322.61,300.2L323.95,300.17L336,299.52" style="fill: rgb(0, 204, 150); fill-opacity: 0.5; stroke-width: 0;"/></g></g><g class="errorbars"/><g class="lines"><path class="js-line" d="M58.9,300.98L65.59,301.28L66.93,300.33L91.03,299.34L92.37,299.34L132.53,298.72L133.86,298.42L141.9,298.66L143.24,298.66L156.62,299.08L157.96,299.34L170.01,299.63L171.35,299.48L204.81,298.92L206.15,299L262.37,299.1L263.71,299.32L298.52,299.16L299.86,298.86L302.53,298.01L303.87,298.05L319.94,298.52L321.27,299.19L322.61,300.2L323.95,300.17L336,299.52" style="vector-effect: non-scaling-stroke; fill: none; stroke: rgb(0, 204, 150); stroke-opacity: 1; stroke-width: 2px; opacity: 1;"/></g><g class="points"/><g class="text"/></g><g class="trace scatter traceb15d52" style="stroke-miterlimit: 2;"><g class="fills"><g><path class="js-fill" d="M321.27,300.57L159.3,300.57L159.3,300.57L261.04,299.83L262.37,299.67L281.12,298.89L282.45,299.71L294.5,300.24L295.84,300.25L303.87,300.52L305.21,300.52L314.58,300.71L315.92,300.71L321.27,300.71" style="fill: rgb(171, 99, 250); fill-opacity: 0.5; stroke-width: 0;"/></g></g><g class="errorbars"/><g class="lines"><path class="js-line" d="M159.3,300.57L261.04,299.83L262.37,299.67L281.12,298.89L282.45,299.71L294.5,300.24L295.84,300.25L303.87,300.52L305.21,300.52L314.58,300.71L315.92,300.71L321.27,300.71" style="vector-effect: non-scaling-stroke; fill: none; stroke: rgb(171, 99, 250); stroke-opacity: 1; stroke-width: 2px; opacity: 1;"/></g><g class="points"/><g class="text"/></g><g class="trace scatter tracedee7b2" style="stroke-miterlimit: 2;"><g class="fills"><g><path class="js-fill" d="M336,300.57L58.9,300.57L58.9,300.53L336,300.39" style="fill: rgb(255, 161, 90); fill-opacity: 0.5; stroke-width: 0;"/></g></g><g class="errorbars"/><g class="lines"><path class="js-line" d="M58.9,300.53L336,300.39" style="vector-effect: non-scaling-stroke; fill: none; stroke: rgb(255, 161, 90); stroke-opacity: 1; stroke-width: 2px; opacity: 1;"/></g><g class="points"/><g class="text"/></g><g class="trace scatter trace7d5586" style="stroke-miterlimit: 2;"><g class="fills"><g><path class="js-fill" d="M336,300.57L281.12,300.57L281.12,300.32L283.79,298.51L285.13,298.05L294.5,296.5L295.84,296.09L297.18,294.68L298.52,294.45L301.2,293.71L302.53,292.67L319.94,291.09L321.27,291.24L325.29,291.29L326.63,290.41L334.66,290L336,290.68" style="fill: rgb(25, 211, 243); fill-opacity: 0.5; stroke-width: 0;"/></g></g><g class="errorbars"/><g class="lines"><path class="js-line" d="M281.12,300.32L283.79,298.51L285.13,298.05L294.5,296.5L295.84,296.09L297.18,294.68L298.52,294.45L301.2,293.71L302.53,292.67L319.94,291.09L321.27,291.24L325.29,291.29L326.63,290.41L334.66,290L336,290.68" style="vector-effect: non-scaling-stroke; fill: none; stroke: rgb(25, 211, 243); stroke-opacity: 1; stroke-width: 2px; opacity: 1;"/></g><g class="points"/><g class="text"/></g></g></g><g class="overplot"/><path class="xlines-above crisp" d="M0,0" style="fill: none;"/><path class="ylines-above crisp" d="M0,0" style="fill: none;"/><g class="overlines-above"/><g class="xaxislayer-above"><g class="xtick"><text text-anchor="middle" x="0" y="433" transform="translate(146.93,0)" style="font-family: 'Open Sans', verdana, arial, sans-serif; font-size: 12px; fill: rgb(42, 63, 95); fill-opacity: 1; white-space: pre; opacity: 1;">Sep 2022</text></g><g class="xtick"><text text-anchor="middle" x="0" y="433" style="font-family: 'Open Sans', verdana, arial, sans-serif; font-size: 12px; fill: rgb(42, 63, 95); fill-opacity: 1; white-space: pre; opacity: 1;" transform="translate(228.59,0)">Nov 2022</text></g><g class="xtick"><text text-anchor="middle" x="0" y="433" style="font-family: 'Open Sans', verdana, arial, sans-serif; font-size: 12px; fill: rgb(42, 63, 95); fill-opacity: 1; white-space: pre; opacity: 1;" transform="translate(310.25,0)">Jan 2023</text></g><g class="xtick"><text text-anchor="middle" x="0" y="433" style="font-family: 'Open Sans', verdana, arial, sans-serif; font-size: 12px; fill: rgb(42, 63, 95); fill-opacity: 1; white-space: pre; opacity: 1;" transform="translate(389.23,0)">Mar 2023</text></g></g><g class="yaxislayer-above"><g class="ytick"><text text-anchor="end" x="79" y="4.199999999999999" transform="translate(0,400.57)" style="font-family: 'Open Sans', verdana, arial, sans-serif; font-size: 12px; fill: rgb(42, 63, 95); fill-opacity: 1; white-space: pre; opacity: 1;">$0</text></g><g class="ytick"><text text-anchor="end" x="79" y="4.199999999999999" style="font-family: 'Open Sans', verdana, arial, sans-serif; font-size: 12px; fill: rgb(42, 63, 95); fill-opacity: 1; white-space: pre; opacity: 1;" transform="translate(0,348.98)">$100M</text></g><g class="ytick"><text text-anchor="end" x="79" y="4.199999999999999" style="font-family: 'Open Sans', verdana, arial, sans-serif; font-size: 12px; fill: rgb(42, 63, 95); fill-opacity: 1; white-space: pre; opacity: 1;" transform="translate(0,297.38)">$200M</text></g><g class="ytick"><text text-anchor="end" x="79" y="4.199999999999999" style="font-family: 'Open Sans', verdana, arial, sans-serif; font-size: 12px; fill: rgb(42, 63, 95); fill-opacity: 1; white-space: pre; opacity: 1;" transform="translate(0,245.79)">$300M</text></g><g class="ytick"><text text-anchor="end" x="79" y="4.199999999999999" style="font-family: 'Open Sans', verdana, arial, sans-serif; font-size: 12px; fill: rgb(42, 63, 95); fill-opacity: 1; white-space: pre; opacity: 1;" transform="translate(0,194.19)">$400M</text></g><g class="ytick"><text text-anchor="end" x="79" y="4.199999999999999" style="font-family: 'Open Sans', verdana, arial, sans-serif; font-size: 12px; fill: rgb(42, 63, 95); fill-opacity: 1; white-space: pre; opacity: 1;" transform="translate(0,142.6)">$500M</text></g></g><g class="overaxes-above"/></g></g><g class="polarlayer"/><g class="smithlayer"/><g class="ternarylayer"/><g class="geolayer"/><g class="funnelarealayer"/><g class="pielayer"/><g class="iciclelayer"/><g class="treemaplayer"/><g class="sunburstlayer"/><g class="glimages"/><defs id="topdefs-62381b"><g class="clips"/><clipPath id="legend62381b"><rect width="265" height="320" x="0" y="0"/></clipPath></defs><g class="layer-above"><g class="imagelayer"/><g class="shapelayer"/></g><g class="infolayer"><g class="legend" pointer-events="all" transform="translate(422.72,100)"><rect class="bg" shape-rendering="crispEdges" width="265" height="320" x="0" y="0" style="stroke: rgb(68, 68, 68); stroke-opacity: 1; fill: rgb(255, 255, 255); fill-opacity: 1; stroke-width: 0px;"/><g class="scrollbox" transform="" clip-path="url(#legend62381b)"><text class="legendtitletext" text-anchor="start" x="2" y="18.2" style="font-family: 'Open Sans', verdana, arial, sans-serif; font-size: 14px; fill: rgb(42, 63, 95); fill-opacity: 1; white-space: pre;">App Name</text><g class="groups"><g class="traces" transform="translate(0,32.7)" style="opacity: 1;"><text class="legendtext" text-anchor="start" x="40" y="4.680000000000001" style="font-family: 'Open Sans', verdana, arial, sans-serif; font-size: 12px; fill: rgb(42, 63, 95); fill-opacity: 1; white-space: pre;">Aave V3 - Aave - Liquidity Mining</text><g class="layers"><g class="legendfill"><path class="js-fill" d="M5,-2h30v6h-30z" style="stroke-width: 0; fill: rgb(99, 110, 250); fill-opacity: 0.5;"/></g><g class="legendlines"><path class="js-line" d="M5,-2h30" style="fill: none; stroke: rgb(99, 110, 250); stroke-opacity: 1; stroke-width: 2px;"/></g><g class="legendsymbols"><g class="legendpoints"/></g></g><rect class="legendtoggle" x="0" y="-9.5" width="259.109375" height="19" style="fill: rgb(0, 0, 0); fill-opacity: 0;"/></g><g class="traces" transform="translate(0,51.7)" style="opacity: 1;"><text class="legendtext" text-anchor="start" x="40" y="4.680000000000001" style="font-family: 'Open Sans', verdana, arial, sans-serif; font-size: 12px; fill: rgb(42, 63, 95); fill-opacity: 1; white-space: pre;">Synthetix - All Synthetix Curve Pools</text><g class="layers"><g class="legendfill"><path class="js-fill" d="M5,-2h30v6h-30z" style="stroke-width: 0; fill: rgb(239, 85, 59); fill-opacity: 0.5;"/></g><g class="legendlines"><path class="js-line" d="M5,-2h30" style="fill: none; stroke: rgb(239, 85, 59); stroke-opacity: 1; stroke-width: 2px;"/></g><g class="legendsymbols"><g class="legendpoints"/></g></g><rect class="legendtoggle" x="0" y="-9.5" width="259.109375" height="19" style="fill: rgb(0, 0, 0); fill-opacity: 0;"/></g><g class="traces" transform="translate(0,70.7)" style="opacity: 1;"><text class="legendtext" text-anchor="start" x="40" y="4.680000000000001" style="font-family: 'Open Sans', verdana, arial, sans-serif; font-size: 12px; fill: rgb(42, 63, 95); fill-opacity: 1; white-space: pre;">Synthetix - All Synthetix Velo Pools</text><g class="layers"><g class="legendfill"><path class="js-fill" d="M5,-2h30v6h-30z" style="stroke-width: 0; fill: rgb(0, 204, 150); fill-opacity: 0.5;"/></g><g class="legendlines"><path class="js-line" d="M5,-2h30" style="fill: none; stroke: rgb(0, 204, 150); stroke-opacity: 1; stroke-width: 2px;"/></g><g class="legendsymbols"><g class="legendpoints"/></g></g><rect class="legendtoggle" x="0" y="-9.5" width="259.109375" height="19" style="fill: rgb(0, 0, 0); fill-opacity: 0;"/></g><g class="traces" transform="translate(0,89.7)" style="opacity: 1;"><text class="legendtext" text-anchor="start" x="40" y="4.680000000000001" style="font-family: 'Open Sans', verdana, arial, sans-serif; font-size: 12px; fill: rgb(42, 63, 95); fill-opacity: 1; white-space: pre;">Beefy - BIFI/OP: Velodrome</text><g class="layers"><g class="legendfill"><path class="js-fill" d="M5,-2h30v6h-30z" style="stroke-width: 0; fill: rgb(171, 99, 250); fill-opacity: 0.5;"/></g><g class="legendlines"><path class="js-line" d="M5,-2h30" style="fill: none; stroke: rgb(171, 99, 250); stroke-opacity: 1; stroke-width: 2px;"/></g><g class="legendsymbols"><g class="legendpoints"/></g></g><rect class="legendtoggle" x="0" y="-9.5" width="259.109375" height="19" style="fill: rgb(0, 0, 0); fill-opacity: 0;"/></g><g class="traces" transform="translate(0,108.7)" style="opacity: 1;"><text class="legendtext" text-anchor="start" x="40" y="4.680000000000001" style="font-family: 'Open Sans', verdana, arial, sans-serif; font-size: 12px; fill: rgb(42, 63, 95); fill-opacity: 1; white-space: pre;">Beefy - BIFI/WETH: Velodrome</text><g class="layers"><g class="legendfill"><path class="js-fill" d="M5,-2h30v6h-30z" style="stroke-width: 0; fill: rgb(255, 161, 90); fill-opacity: 0.5;"/></g><g class="legendlines"><path class="js-line" d="M5,-2h30" style="fill: none; stroke: rgb(255, 161, 90); stroke-opacity: 1; stroke-width: 2px;"/></g><g class="legendsymbols"><g class="legendpoints"/></g></g><rect class="legendtoggle" x="0" y="-9.5" width="259.109375" height="19" style="fill: rgb(0, 0, 0); fill-opacity: 0;"/></g><g class="traces" transform="translate(0,127.7)" style="opacity: 1;"><text class="legendtext" text-anchor="start" x="40" y="4.680000000000001" style="font-family: 'Open Sans', verdana, arial, sans-serif; font-size: 12px; fill: rgb(42, 63, 95); fill-opacity: 1; white-space: pre;">Cbridge - Celer*</text><g class="layers"><g class="legendfill"><path class="js-fill" d="M5,-2h30v6h-30z" style="stroke-width: 0; fill: rgb(25, 211, 243); fill-opacity: 0.5;"/></g><g class="legendlines"><path class="js-line" d="M5,-2h30" style="fill: none; stroke: rgb(25, 211, 243); stroke-opacity: 1; stroke-width: 2px;"/></g><g class="legendsymbols"><g class="legendpoints"/></g></g><rect class="legendtoggle" x="0" y="-9.5" width="259.109375" height="19" style="fill: rgb(0, 0, 0); fill-opacity: 0;"/></g><g class="traces" transform="translate(0,146.7)" style="opacity: 1;"><text class="legendtext" text-anchor="start" x="40" y="4.680000000000001" style="font-family: 'Open Sans', verdana, arial, sans-serif; font-size: 12px; fill: rgb(42, 63, 95); fill-opacity: 1; white-space: pre;">Dhedge - DHT/OP: Velodrome</text><g class="layers"><g class="legendfill"><path class="js-fill" d="M5,-2h30v6h-30z" style="stroke-width: 0; fill: rgb(255, 102, 146); fill-opacity: 0.5;"/></g><g class="legendlines"><path class="js-line" d="M5,-2h30" style="fill: none; stroke: rgb(255, 102, 146); stroke-opacity: 1; stroke-width: 2px;"/></g><g class="legendsymbols"><g class="legendpoints"/></g></g><rect class="legendtoggle" x="0" y="-9.5" width="259.109375" height="19" style="fill: rgb(0, 0, 0); fill-opacity: 0;"/></g><g class="traces" transform="translate(0,165.7)" style="opacity: 1;"><text class="legendtext" text-anchor="start" x="40" y="4.680000000000001" style="font-family: 'Open Sans', verdana, arial, sans-serif; font-size: 12px; fill: rgb(42, 63, 95); fill-opacity: 1; white-space: pre;">Synthetix - ETH/sETH: Velodrome</text><g class="layers"><g class="legendfill"><path class="js-fill" d="M5,-2h30v6h-30z" style="stroke-width: 0; fill: rgb(182, 232, 128); fill-opacity: 0.5;"/></g><g class="legendlines"><path class="js-line" d="M5,-2h30" style="fill: none; stroke: rgb(182, 232, 128); stroke-opacity: 1; stroke-width: 2px;"/></g><g class="legendsymbols"><g class="legendpoints"/></g></g><rect class="legendtoggle" x="0" y="-9.5" width="259.109375" height="19" style="fill: rgb(0, 0, 0); fill-opacity: 0;"/></g><g class="traces" transform="translate(0,184.7)" style="opacity: 1;"><text class="legendtext" text-anchor="start" x="40" y="4.680000000000001" style="font-family: 'Open Sans', verdana, arial, sans-serif; font-size: 12px; fill: rgb(42, 63, 95); fill-opacity: 1; white-space: pre;">Layer2Dao - L2DAO/OP: Velodrome</text><g class="layers"><g class="legendfill"><path class="js-fill" d="M5,-2h30v6h-30z" style="stroke-width: 0; fill: rgb(255, 151, 255); fill-opacity: 0.5;"/></g><g class="legendlines"><path class="js-line" d="M5,-2h30" style="fill: none; stroke: rgb(255, 151, 255); stroke-opacity: 1; stroke-width: 2px;"/></g><g class="legendsymbols"><g class="legendpoints"/></g></g><rect class="legendtoggle" x="0" y="-9.5" width="259.109375" height="19" style="fill: rgb(0, 0, 0); fill-opacity: 0;"/></g><g class="traces" transform="translate(0,203.7)" style="opacity: 1;"><text class="legendtext" text-anchor="start" x="40" y="4.680000000000001" style="font-family: 'Open Sans', verdana, arial, sans-serif; font-size: 12px; fill: rgb(42, 63, 95); fill-opacity: 1; white-space: pre;">Angle - OP/agEUR: Velodrome</text><g class="layers"><g class="legendfill"><path class="js-fill" d="M5,-2h30v6h-30z" style="stroke-width: 0; fill: rgb(254, 203, 82); fill-opacity: 0.5;"/></g><g class="legendlines"><path class="js-line" d="M5,-2h30" style="fill: none; stroke: rgb(254, 203, 82); stroke-opacity: 1; stroke-width: 2px;"/></g><g class="legendsymbols"><g class="legendpoints"/></g></g><rect class="legendtoggle" x="0" y="-9.5" width="259.109375" height="19" style="fill: rgb(0, 0, 0); fill-opacity: 0;"/></g><g class="traces" transform="translate(0,222.7)" style="opacity: 1;"><text class="legendtext" text-anchor="start" x="40" y="4.680000000000001" style="font-family: 'Open Sans', verdana, arial, sans-serif; font-size: 12px; fill: rgb(42, 63, 95); fill-opacity: 1; white-space: pre;">Pickle - Pickle Finance*</text><g class="layers"><g class="legendfill"><path class="js-fill" d="M5,-2h30v6h-30z" style="stroke-width: 0; fill: rgb(99, 110, 250); fill-opacity: 0.5;"/></g><g class="legendlines"><path class="js-line" d="M5,-2h30" style="fill: none; stroke: rgb(99, 110, 250); stroke-opacity: 1; stroke-width: 2px;"/></g><g class="legendsymbols"><g class="legendpoints"/></g></g><rect class="legendtoggle" x="0" y="-9.5" width="259.109375" height="19" style="fill: rgb(0, 0, 0); fill-opacity: 0;"/></g><g class="traces" transform="translate(0,241.7)" style="opacity: 1;"><text class="legendtext" text-anchor="start" x="40" y="4.680000000000001" style="font-family: 'Open Sans', verdana, arial, sans-serif; font-size: 12px; fill: rgb(42, 63, 95); fill-opacity: 1; white-space: pre;">Synthetix - SNX Bridge: Hop</text><g class="layers"><g class="legendfill"><path class="js-fill" d="M5,-2h30v6h-30z" style="stroke-width: 0; fill: rgb(239, 85, 59); fill-opacity: 0.5;"/></g><g class="legendlines"><path class="js-line" d="M5,-2h30" style="fill: none; stroke: rgb(239, 85, 59); stroke-opacity: 1; stroke-width: 2px;"/></g><g class="legendsymbols"><g class="legendpoints"/></g></g><rect class="legendtoggle" x="0" y="-9.5" width="259.109375" height="19" style="fill: rgb(0, 0, 0); fill-opacity: 0;"/></g><g class="traces" transform="translate(0,260.7)" style="opacity: 1;"><text class="legendtext" text-anchor="start" x="40" y="4.680000000000001" style="font-family: 'Open Sans', verdana, arial, sans-serif; font-size: 12px; fill: rgb(42, 63, 95); fill-opacity: 1; white-space: pre;">Overnight - USD+/DOLA: Velodrome</text><g class="layers"><g class="legendfill"><path class="js-fill" d="M5,-2h30v6h-30z" style="stroke-width: 0; fill: rgb(0, 204, 150); fill-opacity: 0.5;"/></g><g class="legendlines"><path class="js-line" d="M5,-2h30" style="fill: none; stroke: rgb(0, 204, 150); stroke-opacity: 1; stroke-width: 2px;"/></g><g class="legendsymbols"><g class="legendpoints"/></g></g><rect class="legendtoggle" x="0" y="-9.5" width="259.109375" height="19" style="fill: rgb(0, 0, 0); fill-opacity: 0;"/></g><g class="traces" transform="translate(0,279.7)" style="opacity: 1;"><text class="legendtext" text-anchor="start" x="40" y="4.680000000000001" style="font-family: 'Open Sans', verdana, arial, sans-serif; font-size: 12px; fill: rgb(42, 63, 95); fill-opacity: 1; white-space: pre;">Overnight - USD+/LUSD: Velodrome</text><g class="layers"><g class="legendfill"><path class="js-fill" d="M5,-2h30v6h-30z" style="stroke-width: 0; fill: rgb(171, 99, 250); fill-opacity: 0.5;"/></g><g class="legendlines"><path class="js-line" d="M5,-2h30" style="fill: none; stroke: rgb(171, 99, 250); stroke-opacity: 1; stroke-width: 2px;"/></g><g class="legendsymbols"><g class="legendpoints"/></g></g><rect class="legendtoggle" x="0" y="-9.5" width="259.109375" height="19" style="fill: rgb(0, 0, 0); fill-opacity: 0;"/></g><g class="traces" transform="translate(0,298.7)" style="opacity: 1;"><text class="legendtext" text-anchor="start" x="40" y="4.680000000000001" style="font-family: 'Open Sans', verdana, arial, sans-serif; font-size: 12px; fill: rgb(42, 63, 95); fill-opacity: 1; white-space: pre;">Overnight - USD+/USDC: Velodrome</text><g class="layers"><g class="legendfill"><path class="js-fill" d="M5,-2h30v6h-30z" style="stroke-width: 0; fill: rgb(255, 161, 90); fill-opacity: 0.5;"/></g><g class="legendlines"><path class="js-line" d="M5,-2h30" style="fill: none; stroke: rgb(255, 161, 90); stroke-opacity: 1; stroke-width: 2px;"/></g><g class="legendsymbols"><g class="legendpoints"/></g></g><rect class="legendtoggle" x="0" y="-9.5" width="259.109375" height="19" style="fill: rgb(0, 0, 0); fill-opacity: 0;"/></g><g class="traces" transform="translate(0,317.7)" style="opacity: 1;"><text class="legendtext" text-anchor="start" x="40" y="4.680000000000001" style="font-family: 'Open Sans', verdana, arial, sans-serif; font-size: 12px; fill: rgb(42, 63, 95); fill-opacity: 1; white-space: pre;">Synthetix - USDC/SNX: Velodrome</text><g class="layers"><g class="legendfill"><path class="js-fill" d="M5,-2h30v6h-30z" style="stroke-width: 0; fill: rgb(25, 211, 243); fill-opacity: 0.5;"/></g><g class="legendlines"><path class="js-line" d="M5,-2h30" style="fill: none; stroke: rgb(25, 211, 243); stroke-opacity: 1; stroke-width: 2px;"/></g><g class="legendsymbols"><g class="legendpoints"/></g></g><rect class="legendtoggle" x="0" y="-9.5" width="259.109375" height="19" style="fill: rgb(0, 0, 0); fill-opacity: 0;"/></g><g class="traces" transform="translate(0,336.7)" style="opacity: 1;"><text class="legendtext" text-anchor="start" x="40" y="4.680000000000001" style="font-family: 'Open Sans', verdana, arial, sans-serif; font-size: 12px; fill: rgb(42, 63, 95); fill-opacity: 1; white-space: pre;">Angle - USDC/agEUR: Uniswap</text><g class="layers"><g class="legendfill"><path class="js-fill" d="M5,-2h30v6h-30z" style="stroke-width: 0; fill: rgb(255, 102, 146); fill-opacity: 0.5;"/></g><g class="legendlines"><path class="js-line" d="M5,-2h30" style="fill: none; stroke: rgb(255, 102, 146); stroke-opacity: 1; stroke-width: 2px;"/></g><g class="legendsymbols"><g class="legendpoints"/></g></g><rect class="legendtoggle" x="0" y="-9.5" width="259.109375" height="19" style="fill: rgb(0, 0, 0); fill-opacity: 0;"/></g><g class="traces" transform="translate(0,355.7)" style="opacity: 1;"><text class="legendtext" text-anchor="start" x="40" y="4.680000000000001" style="font-family: 'Open Sans', verdana, arial, sans-serif; font-size: 12px; fill: rgb(42, 63, 95); fill-opacity: 1; white-space: pre;">Synthetix - USDC/sUSD: Velodrome</text><g class="layers"><g class="legendfill"><path class="js-fill" d="M5,-2h30v6h-30z" style="stroke-width: 0; fill: rgb(182, 232, 128); fill-opacity: 0.5;"/></g><g class="legendlines"><path class="js-line" d="M5,-2h30" style="fill: none; stroke: rgb(182, 232, 128); stroke-opacity: 1; stroke-width: 2px;"/></g><g class="legendsymbols"><g class="legendpoints"/></g></g><rect class="legendtoggle" x="0" y="-9.5" width="259.109375" height="19" style="fill: rgb(0, 0, 0); fill-opacity: 0;"/></g><g class="traces" transform="translate(0,374.7)" style="opacity: 1;"><text class="legendtext" text-anchor="start" x="40" y="4.680000000000001" style="font-family: 'Open Sans', verdana, arial, sans-serif; font-size: 12px; fill: rgb(42, 63, 95); fill-opacity: 1; white-space: pre;">Gamma - Uniswap LM - Phase 1</text><g class="layers"><g class="legendfill"><path class="js-fill" d="M5,-2h30v6h-30z" style="stroke-width: 0; fill: rgb(255, 151, 255); fill-opacity: 0.5;"/></g><g class="legendlines"><path class="js-line" d="M5,-2h30" style="fill: none; stroke: rgb(255, 151, 255); stroke-opacity: 1; stroke-width: 2px;"/></g><g class="legendsymbols"><g class="legendpoints"/></g></g><rect class="legendtoggle" x="0" y="-9.5" width="259.109375" height="19" style="fill: rgb(0, 0, 0); fill-opacity: 0;"/></g><g class="traces" transform="translate(0,393.7)" style="opacity: 1;"><text class="legendtext" text-anchor="start" x="40" y="4.680000000000001" style="font-family: 'Open Sans', verdana, arial, sans-serif; font-size: 12px; fill: rgb(42, 63, 95); fill-opacity: 1; white-space: pre;">Uniswap V3 - Uniswap LM - Phase 1</text><g class="layers"><g class="legendfill"><path class="js-fill" d="M5,-2h30v6h-30z" style="stroke-width: 0; fill: rgb(254, 203, 82); fill-opacity: 0.5;"/></g><g class="legendlines"><path class="js-line" d="M5,-2h30" style="fill: none; stroke: rgb(254, 203, 82); stroke-opacity: 1; stroke-width: 2px;"/></g><g class="legendsymbols"><g class="legendpoints"/></g></g><rect class="legendtoggle" x="0" y="-9.5" width="259.109375" height="19" style="fill: rgb(0, 0, 0); fill-opacity: 0;"/></g><g class="traces" transform="translate(0,412.7)" style="opacity: 1;"><text class="legendtext" text-anchor="start" x="40" y="4.680000000000001" style="font-family: 'Open Sans', verdana, arial, sans-serif; font-size: 12px; fill: rgb(42, 63, 95); fill-opacity: 1; white-space: pre;">Xtoken - Uniswap LM - Phase 1</text><g class="layers"><g class="legendfill"><path class="js-fill" d="M5,-2h30v6h-30z" style="stroke-width: 0; fill: rgb(99, 110, 250); fill-opacity: 0.5;"/></g><g class="legendlines"><path class="js-line" d="M5,-2h30" style="fill: none; stroke: rgb(99, 110, 250); stroke-opacity: 1; stroke-width: 2px;"/></g><g class="legendsymbols"><g class="legendpoints"/></g></g><rect class="legendtoggle" x="0" y="-9.5" width="259.109375" height="19" style="fill: rgb(0, 0, 0); fill-opacity: 0;"/></g><g class="traces" transform="translate(0,431.7)" style="opacity: 1;"><text class="legendtext" text-anchor="start" x="40" y="4.680000000000001" style="font-family: 'Open Sans', verdana, arial, sans-serif; font-size: 12px; fill: rgb(42, 63, 95); fill-opacity: 1; white-space: pre;">Gamma - Uniswap LM - Phase 2</text><g class="layers"><g class="legendfill"><path class="js-fill" d="M5,-2h30v6h-30z" style="stroke-width: 0; fill: rgb(239, 85, 59); fill-opacity: 0.5;"/></g><g class="legendlines"><path class="js-line" d="M5,-2h30" style="fill: none; stroke: rgb(239, 85, 59); stroke-opacity: 1; stroke-width: 2px;"/></g><g class="legendsymbols"><g class="legendpoints"/></g></g><rect class="legendtoggle" x="0" y="-9.5" width="259.109375" height="19" style="fill: rgb(0, 0, 0); fill-opacity: 0;"/></g><g class="traces" transform="translate(0,450.7)" style="opacity: 1;"><text class="legendtext" text-anchor="start" x="40" y="4.680000000000001" style="font-family: 'Open Sans', verdana, arial, sans-serif; font-size: 12px; fill: rgb(42, 63, 95); fill-opacity: 1; white-space: pre;">Uniswap V3 - Uniswap LM - Phase 2</text><g class="layers"><g class="legendfill"><path class="js-fill" d="M5,-2h30v6h-30z" style="stroke-width: 0; fill: rgb(0, 204, 150); fill-opacity: 0.5;"/></g><g class="legendlines"><path class="js-line" d="M5,-2h30" style="fill: none; stroke: rgb(0, 204, 150); stroke-opacity: 1; stroke-width: 2px;"/></g><g class="legendsymbols"><g class="legendpoints"/></g></g><rect class="legendtoggle" x="0" y="-9.5" width="259.109375" height="19" style="fill: rgb(0, 0, 0); fill-opacity: 0;"/></g><g class="traces" transform="translate(0,469.7)" style="opacity: 1;"><text class="legendtext" text-anchor="start" x="40" y="4.680000000000001" style="font-family: 'Open Sans', verdana, arial, sans-serif; font-size: 12px; fill: rgb(42, 63, 95); fill-opacity: 1; white-space: pre;">Xtoken - Uniswap LM - Phase 2</text><g class="layers"><g class="legendfill"><path class="js-fill" d="M5,-2h30v6h-30z" style="stroke-width: 0; fill: rgb(171, 99, 250); fill-opacity: 0.5;"/></g><g class="legendlines"><path class="js-line" d="M5,-2h30" style="fill: none; stroke: rgb(171, 99, 250); stroke-opacity: 1; stroke-width: 2px;"/></g><g class="legendsymbols"><g class="legendpoints"/></g></g><rect class="legendtoggle" x="0" y="-9.5" width="259.109375" height="19" style="fill: rgb(0, 0, 0); fill-opacity: 0;"/></g><g class="traces" transform="translate(0,488.7)" style="opacity: 1;"><text class="legendtext" text-anchor="start" x="40" y="4.680000000000001" style="font-family: 'Open Sans', verdana, arial, sans-serif; font-size: 12px; fill: rgb(42, 63, 95); fill-opacity: 1; white-space: pre;">Defiedge - Uniswap LM - Phase 2*</text><g class="layers"><g class="legendfill"><path class="js-fill" d="M5,-2h30v6h-30z" style="stroke-width: 0; fill: rgb(255, 161, 90); fill-opacity: 0.5;"/></g><g class="legendlines"><path class="js-line" d="M5,-2h30" style="fill: none; stroke: rgb(255, 161, 90); stroke-opacity: 1; stroke-width: 2px;"/></g><g class="legendsymbols"><g class="legendpoints"/></g></g><rect class="legendtoggle" x="0" y="-9.5" width="259.109375" height="19" style="fill: rgb(0, 0, 0); fill-opacity: 0;"/></g><g class="traces" transform="translate(0,507.7)" style="opacity: 1;"><text class="legendtext" text-anchor="start" x="40" y="4.680000000000001" style="font-family: 'Open Sans', verdana, arial, sans-serif; font-size: 12px; fill: rgb(42, 63, 95); fill-opacity: 1; white-space: pre;">Velodrome - Velodrome #1 *</text><g class="layers"><g class="legendfill"><path class="js-fill" d="M5,-2h30v6h-30z" style="stroke-width: 0; fill: rgb(25, 211, 243); fill-opacity: 0.5;"/></g><g class="legendlines"><path class="js-line" d="M5,-2h30" style="fill: none; stroke: rgb(25, 211, 243); stroke-opacity: 1; stroke-width: 2px;"/></g><g class="legendsymbols"><g class="legendpoints"/></g></g><rect class="legendtoggle" x="0" y="-9.5" width="259.109375" height="19" style="fill: rgb(0, 0, 0); fill-opacity: 0;"/></g><g class="traces" transform="translate(0,526.7)" style="opacity: 1;"><text class="legendtext" text-anchor="start" x="40" y="4.680000000000001" style="font-family: 'Open Sans', verdana, arial, sans-serif; font-size: 12px; fill: rgb(42, 63, 95); fill-opacity: 1; white-space: pre;">Velodrome - Velodrome #2 (Tour de OP)*</text><g class="layers"><g class="legendfill"><path class="js-fill" d="M5,-2h30v6h-30z" style="stroke-width: 0; fill: rgb(255, 102, 146); fill-opacity: 0.5;"/></g><g class="legendlines"><path class="js-line" d="M5,-2h30" style="fill: none; stroke: rgb(255, 102, 146); stroke-opacity: 1; stroke-width: 2px;"/></g><g class="legendsymbols"><g class="legendpoints"/></g></g><rect class="legendtoggle" x="0" y="-9.5" width="259.109375" height="19" style="fill: rgb(0, 0, 0); fill-opacity: 0;"/></g><g class="traces" transform="translate(0,545.7)" style="opacity: 1;"><text class="legendtext" text-anchor="start" x="40" y="4.680000000000001" style="font-family: 'Open Sans', verdana, arial, sans-serif; font-size: 12px; fill: rgb(42, 63, 95); fill-opacity: 1; white-space: pre;">Rocket Pool - WETH/rETH: Beethoven X</text><g class="layers"><g class="legendfill"><path class="js-fill" d="M5,-2h30v6h-30z" style="stroke-width: 0; fill: rgb(182, 232, 128); fill-opacity: 0.5;"/></g><g class="legendlines"><path class="js-line" d="M5,-2h30" style="fill: none; stroke: rgb(182, 232, 128); stroke-opacity: 1; stroke-width: 2px;"/></g><g class="legendsymbols"><g class="legendpoints"/></g></g><rect class="legendtoggle" x="0" y="-9.5" width="259.109375" height="19" style="fill: rgb(0, 0, 0); fill-opacity: 0;"/></g><g class="traces" transform="translate(0,564.7)" style="opacity: 1;"><text class="legendtext" text-anchor="start" x="40" y="4.680000000000001" style="font-family: 'Open Sans', verdana, arial, sans-serif; font-size: 12px; fill: rgb(42, 63, 95); fill-opacity: 1; white-space: pre;">Angle - agEUR/MAI: Velodrome</text><g class="layers"><g class="legendfill"><path class="js-fill" d="M5,-2h30v6h-30z" style="stroke-width: 0; fill: rgb(255, 151, 255); fill-opacity: 0.5;"/></g><g class="legendlines"><path class="js-line" d="M5,-2h30" style="fill: none; stroke: rgb(255, 151, 255); stroke-opacity: 1; stroke-width: 2px;"/></g><g class="legendsymbols"><g class="legendpoints"/></g></g><rect class="legendtoggle" x="0" y="-9.5" width="259.109375" height="19" style="fill: rgb(0, 0, 0); fill-opacity: 0;"/></g><g class="traces" transform="translate(0,583.7)" style="opacity: 1;"><text class="legendtext" text-anchor="start" x="40" y="4.680000000000001" style="font-family: 'Open Sans', verdana, arial, sans-serif; font-size: 12px; fill: rgb(42, 63, 95); fill-opacity: 1; white-space: pre;">Alchemix - alETH/WETH: Velodrome</text><g class="layers"><g class="legendfill"><path class="js-fill" d="M5,-2h30v6h-30z" style="stroke-width: 0; fill: rgb(254, 203, 82); fill-opacity: 0.5;"/></g><g class="legendlines"><path class="js-line" d="M5,-2h30" style="fill: none; stroke: rgb(254, 203, 82); stroke-opacity: 1; stroke-width: 2px;"/></g><g class="legendsymbols"><g class="legendpoints"/></g></g><rect class="legendtoggle" x="0" y="-9.5" width="259.109375" height="19" style="fill: rgb(0, 0, 0); fill-opacity: 0;"/></g><g class="traces" transform="translate(0,602.7)" style="opacity: 1;"><text class="legendtext" text-anchor="start" x="40" y="4.680000000000001" style="font-family: 'Open Sans', verdana, arial, sans-serif; font-size: 12px; fill: rgb(42, 63, 95); fill-opacity: 1; white-space: pre;">Synthetix - sETH-ETH: Curve</text><g class="layers"><g class="legendfill"><path class="js-fill" d="M5,-2h30v6h-30z" style="stroke-width: 0; fill: rgb(99, 110, 250); fill-opacity: 0.5;"/></g><g class="legendlines"><path class="js-line" d="M5,-2h30" style="fill: none; stroke: rgb(99, 110, 250); stroke-opacity: 1; stroke-width: 2px;"/></g><g class="legendsymbols"><g class="legendpoints"/></g></g><rect class="legendtoggle" x="0" y="-9.5" width="259.109375" height="19" style="fill: rgb(0, 0, 0); fill-opacity: 0;"/></g><g class="traces" transform="translate(0,621.7)" style="opacity: 1;"><text class="legendtext" text-anchor="start" x="40" y="4.680000000000001" style="font-family: 'Open Sans', verdana, arial, sans-serif; font-size: 12px; fill: rgb(42, 63, 95); fill-opacity: 1; white-space: pre;">Synthetix - sUSD-3Crv: Curve</text><g class="layers"><g class="legendfill"><path class="js-fill" d="M5,-2h30v6h-30z" style="stroke-width: 0; fill: rgb(239, 85, 59); fill-opacity: 0.5;"/></g><g class="legendlines"><path class="js-line" d="M5,-2h30" style="fill: none; stroke: rgb(239, 85, 59); stroke-opacity: 1; stroke-width: 2px;"/></g><g class="legendsymbols"><g class="legendpoints"/></g></g><rect class="legendtoggle" x="0" y="-9.5" width="259.109375" height="19" style="fill: rgb(0, 0, 0); fill-opacity: 0;"/></g><g class="traces" transform="translate(0,640.7)" style="opacity: 1;"><text class="legendtext" text-anchor="start" x="40" y="4.680000000000001" style="font-family: 'Open Sans', verdana, arial, sans-serif; font-size: 12px; fill: rgb(42, 63, 95); fill-opacity: 1; white-space: pre;">Qidao - sUSDC/MAI: Velodrome</text><g class="layers"><g class="legendfill"><path class="js-fill" d="M5,-2h30v6h-30z" style="stroke-width: 0; fill: rgb(0, 204, 150); fill-opacity: 0.5;"/></g><g class="legendlines"><path class="js-line" d="M5,-2h30" style="fill: none; stroke: rgb(0, 204, 150); stroke-opacity: 1; stroke-width: 2px;"/></g><g class="legendsymbols"><g class="legendpoints"/></g></g><rect class="legendtoggle" x="0" y="-9.5" width="259.109375" height="19" style="fill: rgb(0, 0, 0); fill-opacity: 0;"/></g><g class="traces" transform="translate(0,659.7)" style="opacity: 1;"><text class="legendtext" text-anchor="start" x="40" y="4.680000000000001" style="font-family: 'Open Sans', verdana, arial, sans-serif; font-size: 12px; fill: rgb(42, 63, 95); fill-opacity: 1; white-space: pre;">Rocket Pool - sWETH/rETH: Velodrome</text><g class="layers"><g class="legendfill"><path class="js-fill" d="M5,-2h30v6h-30z" style="stroke-width: 0; fill: rgb(171, 99, 250); fill-opacity: 0.5;"/></g><g class="legendlines"><path class="js-line" d="M5,-2h30" style="fill: none; stroke: rgb(171, 99, 250); stroke-opacity: 1; stroke-width: 2px;"/></g><g class="legendsymbols"><g class="legendpoints"/></g></g><rect class="legendtoggle" x="0" y="-9.5" width="259.109375" height="19" style="fill: rgb(0, 0, 0); fill-opacity: 0;"/></g><g class="traces" transform="translate(0,678.7)" style="opacity: 1;"><text class="legendtext" text-anchor="start" x="40" y="4.680000000000001" style="font-family: 'Open Sans', verdana, arial, sans-serif; font-size: 12px; fill: rgb(42, 63, 95); fill-opacity: 1; white-space: pre;">Qidao - vUSDC/MAI: Velodrome</text><g class="layers"><g class="legendfill"><path class="js-fill" d="M5,-2h30v6h-30z" style="stroke-width: 0; fill: rgb(255, 161, 90); fill-opacity: 0.5;"/></g><g class="legendlines"><path class="js-line" d="M5,-2h30" style="fill: none; stroke: rgb(255, 161, 90); stroke-opacity: 1; stroke-width: 2px;"/></g><g class="legendsymbols"><g class="legendpoints"/></g></g><rect class="legendtoggle" x="0" y="-9.5" width="259.109375" height="19" style="fill: rgb(0, 0, 0); fill-opacity: 0;"/></g><g class="traces" transform="translate(0,697.7)" style="opacity: 1;"><text class="legendtext" text-anchor="start" x="40" y="4.680000000000001" style="font-family: 'Open Sans', verdana, arial, sans-serif; font-size: 12px; fill: rgb(42, 63, 95); fill-opacity: 1; white-space: pre;">Rocket Pool - vWETH/rETH: Velodrome</text><g class="layers"><g class="legendfill"><path class="js-fill" d="M5,-2h30v6h-30z" style="stroke-width: 0; fill: rgb(25, 211, 243); fill-opacity: 0.5;"/></g><g class="legendlines"><path class="js-line" d="M5,-2h30" style="fill: none; stroke: rgb(25, 211, 243); stroke-opacity: 1; stroke-width: 2px;"/></g><g class="legendsymbols"><g class="legendpoints"/></g></g><rect class="legendtoggle" x="0" y="-9.5" width="259.109375" height="19" style="fill: rgb(0, 0, 0); fill-opacity: 0;"/></g></g></g><rect class="scrollbar" rx="20" ry="3" width="0" height="0" x="0" y="0" style="fill: rgb(128, 139, 164); fill-opacity: 1;"/></g><g class="g-gtitle"><text class="gtitle" x="35" y="50" text-anchor="start" dy="0em" style="font-family: 'Open Sans', verdana, arial, sans-serif; font-size: 17px; fill: rgb(42, 63, 95); opacity: 1; font-weight: normal; white-space: pre;"><tspan class="line" dy="0em" x="35" y="50">Cumulative Net Flows since Program Announcement</tspan><tspan class="line" dy="1.3em" x="35" y="50"><tspan style="font-size:70%" dy="-0.6em">For Ended Programs, we show continue to show flows through 30 days after program end. | * Shows raw TVL change, rather than flows</tspan><tspan dy="0.42em"></tspan></tspan></text></g><g class="g-xtitle"><text class="xtitle" x="248" y="460.8" text-anchor="middle" style="font-family: 'Open Sans', verdana, arial, sans-serif; font-size: 14px; fill: rgb(42, 63, 95); opacity: 1; font-weight: normal; white-space: pre;">Day</text></g><g class="g-ytitle"><text class="ytitle" transform="rotate(-90,17.496875000000003,260)" x="17.496875000000003" y="260" text-anchor="middle" style="font-family: 'Open Sans', verdana, arial, sans-serif; font-size: 14px; fill: rgb(42, 63, 95); opacity: 1; font-weight: normal; white-space: pre;">Cumulative Net Flows (USD)</text></g></g></svg>